<svg xmlns="http://www.w3.org/2000/svg" version="1.1" style="font-family:Lato, &#x27;Helvetica Neue&#x27;, Helvetica, Arial, sans-serif;font-size:18px;background-color:white;text-rendering:optimizeLegibility;-webkit-font-smoothing:antialiased" width="850" height="600" viewBox="0 0 850 600"><g class="HeaderView"><g transform="translate(774, 15) scale(0.29)"><svg width="210" height="120" viewBox="0 0 210 120" fill="none" xmlns="http://www.w3.org/2000/svg">
<g clip-path="url(#clip0)">
  <path d="M0 0h210v107.89H0V0z" fill="#002147" />
  <path
    d="M40.98 32.25c0 2.36-.38 4.53-1.12 6.51a14.26 14.26 0 01-8.1 8.4c-1.9.78-4.02 1.17-6.34 1.17-2.31 0-4.42-.39-6.33-1.17a14.31 14.31 0 01-8.08-8.4 18.29 18.29 0 01-1.12-6.51c0-2.36.38-4.53 1.12-6.5.75-1.97 1.8-3.67 3.17-5.1 1.37-1.43 3-2.55 4.9-3.34 1.92-.8 4.03-1.19 6.34-1.19 2.32 0 4.43.4 6.34 1.19 1.92.8 3.56 1.9 4.93 3.34a14.87 14.87 0 013.17 5.1 18.1 18.1 0 011.12 6.5zm-4.38 0c0-1.94-.26-3.68-.8-5.22a10.91 10.91 0 00-2.24-3.89 9.68 9.68 0 00-3.52-2.46 11.95 11.95 0 00-4.62-.86c-1.68 0-3.21.28-4.6.86a9.88 9.88 0 00-3.54 2.46 10.91 10.91 0 00-2.24 3.9c-.53 1.53-.8 3.27-.8 5.2 0 1.94.27 3.68.8 5.22a11.17 11.17 0 002.24 3.9 10.01 10.01 0 003.55 2.44c1.38.56 2.9.83 4.6.83 1.7 0 3.24-.27 4.61-.83a9.8 9.8 0 003.52-2.44 11.17 11.17 0 002.25-3.9c.53-1.54.8-3.28.8-5.21zm26.22-6.54V48H60.5c-.56 0-.9-.27-1.05-.81l-.31-2.4a12.45 12.45 0 01-3.26 2.6c-1.2.64-2.58.96-4.13.96-1.22 0-2.3-.2-3.24-.6a6.52 6.52 0 01-2.33-1.7 7.37 7.37 0 01-1.43-2.67c-.3-1.04-.46-2.2-.46-3.45V25.7h3.91v14.22c0 1.68.38 2.99 1.15 3.91.77.93 1.96 1.39 3.54 1.39 1.16 0 2.24-.27 3.23-.82a10.42 10.42 0 002.8-2.28V25.7h3.91zm8.61 4.47a9.94 9.94 0 012.6-3.56 5.64 5.64 0 013.76-1.3c.47 0 .92.05 1.34.15.44.1.83.27 1.17.49L80 28.88c-.09.37-.3.55-.66.55-.2 0-.5-.04-.9-.13a6.21 6.21 0 00-3.24.18c-.54.2-1.03.5-1.47.92-.42.4-.81.9-1.17 1.5-.33.58-.64 1.26-.92 2.02V48h-3.94V25.71h2.25c.42 0 .72.08.88.25.16.16.27.44.33.83l.26 3.39zm61.16-13.7L122.75 48h-3.82l-7.99-24.05a21.95 21.95 0 01-.42-1.58 38.36 38.36 0 01-.44 1.58L102.05 48h-3.83L88.4 16.47h3.54c.38 0 .7.1.95.29.26.2.43.43.5.73l6.52 21.9c.1.4.2.83.28 1.28.1.46.2.94.29 1.46l.3-1.46c.12-.47.25-.9.38-1.27l7.41-21.91c.1-.25.26-.48.51-.69.27-.22.58-.33.95-.33h1.23c.38 0 .69.1.92.29.24.2.41.43.53.73l7.4 21.9a28.4 28.4 0 01.68 2.62 29.52 29.52 0 01.52-2.61l6.54-21.91c.07-.27.23-.5.48-.7.27-.21.58-.32.95-.32h3.32zm9.35 8.88c1.63 0 3.1.27 4.4.82a9.43 9.43 0 015.46 5.94c.5 1.4.74 2.98.74 4.73 0 1.76-.25 3.34-.74 4.75a9.43 9.43 0 01-5.46 5.92c-1.3.52-2.77.79-4.4.79-1.64 0-3.12-.27-4.44-.8a9.42 9.42 0 01-3.35-2.3c-.92-1-1.63-2.2-2.13-3.61-.49-1.41-.73-3-.73-4.75s.24-3.33.73-4.73c.5-1.43 1.2-2.64 2.13-3.63.93-1 2.04-1.77 3.35-2.31 1.32-.55 2.8-.82 4.44-.82zm0 19.89c2.2 0 3.84-.73 4.93-2.2 1.08-1.48 1.63-3.54 1.63-6.18 0-2.66-.55-4.72-1.63-6.2-1.09-1.49-2.73-2.23-4.93-2.23-1.12 0-2.09.2-2.93.57-.82.39-1.5.94-2.06 1.65-.55.72-.96 1.61-1.24 2.67-.26 1.04-.4 2.22-.4 3.54 0 2.64.55 4.7 1.64 6.18 1.1 1.47 2.76 2.2 4.99 2.2zm17.97-15.07a9.94 9.94 0 012.6-3.56 5.64 5.64 0 013.76-1.3c.47 0 .91.05 1.34.15.44.1.83.27 1.16.49l-.28 2.92c-.09.37-.31.55-.66.55-.2 0-.5-.04-.9-.13a6.2 6.2 0 00-3.24.18c-.54.2-1.03.5-1.47.92-.43.4-.82.9-1.17 1.5a13.1 13.1 0 00-.92 2.02V48h-3.94V25.71h2.24c.43 0 .72.08.88.25.17.16.28.44.33.83l.27 3.39zm15.04-14.59V48h-3.92V15.6h3.92zm19.55 15.43a6.22 6.22 0 00-2.38-2.05 6.7 6.7 0 00-2.86-.6c-2.07 0-3.66.75-4.77 2.23-1.12 1.48-1.68 3.6-1.68 6.33 0 1.46.13 2.7.38 3.74a7.29 7.29 0 001.1 2.56 4.35 4.35 0 001.78 1.45c.7.3 1.5.46 2.4.46 1.29 0 2.41-.3 3.36-.88a9.6 9.6 0 002.67-2.49V31.02zm3.91-15.43V48h-2.33c-.56 0-.9-.27-1.06-.81l-.35-2.71a12.13 12.13 0 01-3.25 2.77 8.28 8.28 0 01-4.23 1.06 7.31 7.31 0 01-6.14-2.9c-.73-.96-1.3-2.15-1.69-3.57a18.35 18.35 0 01.07-9.48 11.29 11.29 0 011.89-3.7 8.7 8.7 0 017.06-3.34 7.96 7.96 0 016.12 2.62V15.59h3.91zM46.61 70.71V93H42.7V70.71h3.91zm.84-7c0 .39-.08.75-.24 1.09-.15.32-.35.61-.62.88-.25.25-.55.44-.9.59a2.67 2.67 0 01-2.16 0 2.9 2.9 0 01-1.45-1.47 2.67 2.67 0 010-2.16c.15-.35.35-.65.6-.9.25-.27.53-.47.85-.62a2.67 2.67 0 012.16 0c.35.15.65.35.9.62.27.25.47.55.62.9.16.34.24.7.24 1.08zm7.97 10.24c.49-.54 1-1.04 1.54-1.48a9.85 9.85 0 013.66-1.84 8.96 8.96 0 015.43.35c.94.4 1.72.97 2.33 1.71.63.74 1.11 1.62 1.43 2.67.32 1.04.49 2.19.49 3.45V93h-3.94V78.81c0-1.69-.4-3-1.17-3.92-.76-.93-1.93-1.4-3.5-1.4-1.15 0-2.24.27-3.25.83-1 .56-1.92 1.31-2.77 2.27V93h-3.94V70.71h2.35c.56 0 .9.28 1.04.82l.3 2.42zm57.7 3.3c0 2.36-.37 4.5-1.11 6.44a14.3 14.3 0 01-3.17 4.98c-1.37 1.37-3 2.45-4.93 3.2-1.9.76-4.02 1.13-6.33 1.13H85.8V61.47h11.77c2.31 0 4.42.39 6.33 1.15a13.8 13.8 0 018.1 8.18 17.75 17.75 0 011.12 6.45zm-4.37 0c0-1.94-.26-3.67-.8-5.2a10.94 10.94 0 00-2.23-3.87 9.57 9.57 0 00-3.53-2.42 12.23 12.23 0 00-4.61-.83h-7.5v24.62h7.5c1.7 0 3.24-.28 4.61-.84a9.7 9.7 0 003.53-2.4 10.94 10.94 0 002.24-3.87c.53-1.53.8-3.26.8-5.2zm19.8 5.72c-1.8.06-3.34.2-4.62.44-1.26.22-2.3.51-3.1.88-.8.36-1.37.8-1.74 1.3-.35.5-.53 1.05-.53 1.67 0 .58.1 1.1.3 1.52a3 3 0 00.76 1.05c.34.27.73.46 1.17.6.45.11.94.17 1.45.17a7.28 7.28 0 003.5-.81 11.95 11.95 0 002.82-2.2v-4.62zm-12.65-9.11a12.73 12.73 0 013.98-2.66c1.43-.59 3-.88 4.73-.88 1.25 0 2.36.2 3.33.61a6.81 6.81 0 013.94 4.38c.33 1.04.5 2.19.5 3.43V93h-1.74a1.8 1.8 0 01-.88-.18c-.2-.13-.36-.38-.48-.74l-.44-2.12c-.59.55-1.16 1.03-1.72 1.46a9.48 9.48 0 01-3.74 1.7c-.69.15-1.46.23-2.3.23-.87 0-1.69-.12-2.45-.35a5.34 5.34 0 01-3.34-2.93 6.64 6.64 0 01-.49-2.64c0-.88.25-1.72.73-2.53a6.33 6.33 0 012.35-2.17c1.09-.63 2.5-1.15 4.25-1.54 1.75-.41 3.89-.65 6.42-.7v-1.75c0-1.73-.37-3.03-1.12-3.91-.75-.9-1.84-1.34-3.28-1.34-.97 0-1.78.12-2.44.37-.64.23-1.2.5-1.7.81l-1.23.82c-.33.23-.67.35-1 .35-.27 0-.5-.07-.69-.2a2.1 2.1 0 01-.48-.53l-.7-1.25zm27.67 19.5c-1.76 0-3.12-.5-4.07-1.48-.94-.98-1.41-2.4-1.41-4.25V74h-2.68a.9.9 0 01-.6-.2c-.16-.14-.24-.36-.24-.66v-1.56l3.65-.46.9-6.89c.05-.22.14-.4.29-.52a.88.88 0 01.62-.22H142v7.67h6.44V74h-6.44v13.38c0 .94.22 1.63.68 2.09.45.45 1.04.68 1.76.68a3.21 3.21 0 001.85-.53l.55-.35c.16-.12.3-.18.41-.18.2 0 .4.13.55.38l1.15 1.87a7.45 7.45 0 01-2.44 1.5c-.96.35-1.94.52-2.95.52zm19.68-10.4c-1.8.07-3.34.21-4.62.45-1.26.22-2.3.51-3.1.88-.8.36-1.37.8-1.74 1.3-.35.5-.53 1.05-.53 1.67 0 .58.1 1.1.3 1.52.18.42.44.77.76 1.05.34.27.73.46 1.17.6.45.11.94.17 1.45.17a7.3 7.3 0 003.5-.81 12.04 12.04 0 002.82-2.2v-4.62zm-12.65-9.1a12.72 12.72 0 013.99-2.66c1.42-.59 3-.88 4.72-.88 1.25 0 2.36.2 3.33.61a6.81 6.81 0 013.94 4.38c.33 1.04.5 2.19.5 3.43V93h-1.74a1.8 1.8 0 01-.88-.18c-.2-.13-.36-.38-.48-.74l-.44-2.12c-.59.55-1.16 1.03-1.72 1.46a9.48 9.48 0 01-3.74 1.7c-.69.15-1.46.23-2.3.23-.87 0-1.69-.12-2.45-.35a5.33 5.33 0 01-3.34-2.93 6.62 6.62 0 01-.49-2.64c0-.88.25-1.72.73-2.53a6.33 6.33 0 012.35-2.17c1.09-.63 2.5-1.15 4.25-1.54 1.74-.41 3.89-.65 6.42-.7v-1.75c0-1.73-.37-3.03-1.12-3.91-.75-.9-1.84-1.34-3.28-1.34-.97 0-1.78.12-2.44.37-.64.23-1.2.5-1.7.81-.46.3-.87.57-1.22.82-.34.23-.68.35-1.02.35-.26 0-.49-.07-.68-.2-.19-.14-.35-.32-.48-.53l-.7-1.25z"
    fill="#fff"
  />
  <path fill="#D42B21" d="M0 106.79h210V120H0z" />
</g>
<defs>
  <clipPath id="clip0"><path fill="#fff" d="M0 0h210v120H0z" /></clipPath>
</defs>
</svg></g><a href="http://localhost:3099/grapher/world-population-by-world-regions-post-1820" style="font-family:&quot;Playfair Display&quot;, Georgia, &quot;Times New Roman&quot;, serif" target="_blank"><text font-size="25.20" x="15.0" y="35.2" fill="#555"><tspan x="15" y="35.160000000000004">World population by region</tspan></text></a></g><g class="StackedArea"><defs><clipPath id="boundsClip-229"><rect x="75.08" y="0" width="820" height="973"></rect></clipPath></defs><g class="AxisBoxView"><g class="HorizontalAxis"><line x1="75.1" y1="535.3" x2="75.1" y2="539.3" stroke="#ccc"></line><line x1="171.3" y1="535.3" x2="171.3" y2="539.3" stroke="#ccc"></line><line x1="331.8" y1="535.3" x2="331.8" y2="539.3" stroke="#ccc"></line><line x1="492.2" y1="535.3" x2="492.2" y2="539.3" stroke="#ccc"></line><line x1="652.6" y1="535.3" x2="652.6" y2="539.3" stroke="#ccc"></line><line x1="713.6" y1="535.3" x2="713.6" y2="539.3" stroke="#ccc"></line><text x="75.1" y="556.5" fill="#666" text-anchor="middle" font-size="16.2">1820</text><text x="171.3" y="556.5" fill="#666" text-anchor="middle" font-size="16.2">1850</text><text x="331.8" y="556.5" fill="#666" text-anchor="middle" font-size="16.2">1900</text><text x="492.2" y="556.5" fill="#666" text-anchor="middle" font-size="16.2">1950</text><text x="652.6" y="556.5" fill="#666" text-anchor="middle" font-size="16.2">2000</text><text x="713.6" y="556.5" fill="#666" text-anchor="middle" font-size="16.2">2019</text></g><g class="VerticalAxis"><text x="70.08" y="535.3" fill="#666" dominant-baseline="middle" text-anchor="end" font-size="16.2">0</text><text x="70.08" y="475" fill="#666" dominant-baseline="middle" text-anchor="end" font-size="16.2">1 billion</text><text x="70.08" y="414.7" fill="#666" dominant-baseline="middle" text-anchor="end" font-size="16.2">2 billion</text><text x="70.08" y="354.3" fill="#666" dominant-baseline="middle" text-anchor="end" font-size="16.2">3 billion</text><text x="70.08" y="294" fill="#666" dominant-baseline="middle" text-anchor="end" font-size="16.2">4 billion</text><text x="70.08" y="233.7" fill="#666" dominant-baseline="middle" text-anchor="end" font-size="16.2">5 billion</text><text x="70.08" y="173.4" fill="#666" dominant-baseline="middle" text-anchor="end" font-size="16.2">6 billion</text><text x="70.08" y="113" fill="#666" dominant-baseline="middle" text-anchor="end" font-size="16.2">7 billion</text></g><g class="AxisGridLines horizontalLines"><line x1="75.08" y1="535.3" x2="713.60" y2="535.3" stroke="#ccc"></line><line x1="75.08" y1="475" x2="713.60" y2="475" stroke="#ddd" stroke-dasharray="3,2"></line><line x1="75.08" y1="414.7" x2="713.60" y2="414.7" stroke="#ddd" stroke-dasharray="3,2"></line><line x1="75.08" y1="354.3" x2="713.60" y2="354.3" stroke="#ddd" stroke-dasharray="3,2"></line><line x1="75.08" y1="294" x2="713.60" y2="294" stroke="#ddd" stroke-dasharray="3,2"></line><line x1="75.08" y1="233.7" x2="713.60" y2="233.7" stroke="#ddd" stroke-dasharray="3,2"></line><line x1="75.08" y1="173.4" x2="713.60" y2="173.4" stroke="#ddd" stroke-dasharray="3,2"></line><line x1="75.08" y1="113" x2="713.60" y2="113" stroke="#ddd" stroke-dasharray="3,2"></line></g></g><g clip-path="url(#boundsClip-229)"><g class="HeightedLegend" style="cursor:default"><g class="legendMark"><rect x="713.6" y="70" width="85.49000000000001" height="13.5" fill="#fff" opacity="0"></rect><text font-size="13.50" x="717.6" y="80.8" fill="#a652ba"><tspan x="717.6" y="80.8">Oceania</tspan></text></g><g class="legendMark"><rect x="713.6" y="85.35" width="117.75500000000001" height="13.5" fill="#fff" opacity="0"></rect><text font-size="13.50" x="717.6" y="96.1" fill="#9ecc8a"><tspan x="717.6" y="96.14999999999999">Latin America</tspan></text></g><g class="legendMark"><rect x="713.6" y="115.95" width="121.4" height="13.5" fill="#fff" opacity="0"></rect><text font-size="13.50" x="717.6" y="126.7" fill="#34983f"><tspan x="717.6" y="126.74999999999999">North America</tspan></text></g><g class="legendMark"><rect x="713.6" y="149.55" width="78.74000000000001" height="13.5" fill="#fff" opacity="0"></rect><text font-size="13.50" x="717.6" y="160.4" fill="#ffd53e"><tspan x="717.6" y="160.35000000000002">Europe</tspan></text></g><g class="legendMark"><rect x="713.6" y="211.55" width="69.56" height="13.5" fill="#fff" opacity="0"></rect><text font-size="13.50" x="717.6" y="222.4" fill="#3360a9"><tspan x="717.6" y="222.35000000000002">Africa</tspan></text></g><g class="legendMark"><rect x="713.6" y="389.75" width="61.325" height="13.5" fill="#fff" opacity="0"></rect><text font-size="13.50" x="717.6" y="400.6" fill="#ca2628"><tspan x="717.6" y="400.55">Asia</tspan></text></g></g><g class="Areas"><rect x="75.08" y="70" width="638.52" height="465.29999999999995" opacity="0" fill="rgba(255,255,255,0)"></rect><path class="Asia_0-area" stroke-linecap="round" d="M75.1 490.3L107.2 487.9L139.3 486.8L171.3 485.7L203.4 486.5L235.5 486.4L267.6 484.6L299.7 481.4L331.8 478.6L363.9 476.9L395.9 471.8L428 466.7L460.1 459.3L492.2 450.6L495.4 448.7L498.6 446.9L501.8 445.2L505 443.6L508.2 441.9L511.5 440.1L514.7 438.3L517.9 436.4L521.1 434.5L524.3 432.4L527.5 430.4L530.7 428.2L533.9 426L537.1 423.6L540.3 421L543.5 418.2L546.8 415.3L550 412.3L553.2 409.2L556.4 406.1L559.6 402.9L562.8 399.8L566 396.6L569.2 393.5L572.4 390.5L575.6 387.4L578.8 384.5L582 381.5L585.3 378.5L588.5 375.5L591.7 372.4L594.9 369.2L598.1 365.9L601.3 362.6L604.5 359.1L607.7 355.5L610.9 351.7L614.1 348L617.3 344.3L620.5 340.7L623.8 337.3L627 334L630.2 330.8L633.4 327.7L636.6 324.6L639.8 321.5L643 318.5L646.2 315.5L649.4 312.5L652.6 309.6L655.8 306.7L659.1 303.8L662.3 301L665.5 298.2L668.7 295.3L671.9 292.5L675.1 289.7L678.3 286.9L681.5 284.1L684.7 281.4L687.9 278.6L691.1 275.9L694.3 273.2L697.6 270.5L700.8 267.9L704 265.3L707.2 262.7L710.4 260.2L713.6 257.7L713.6 535.3L75.08 535.3" fill="#ca2628" fill-opacity="0.7"></path><path class="Africa_0-area" stroke-linecap="round" d="M75.1 485L107.2 482.3L139.3 480.9L171.3 479.5L203.4 480L235.5 479.5L267.6 477.2L299.7 473.4L331.8 470.1L363.9 467.8L395.9 461.9L428 455.8L460.1 447.2L492.2 436.8L495.4 434.7L498.6 432.6L501.8 430.6L505 428.6L508.2 426.6L511.5 424.5L514.7 422.3L517.9 420.1L521.1 417.8L524.3 415.4L527.5 412.9L530.7 410.3L533.9 407.6L537.1 404.7L540.3 401.7L543.5 398.4L546.8 395L550 391.5L553.2 387.8L556.4 384.1L559.6 380.4L562.8 376.7L566 372.9L569.2 369.2L572.4 365.4L575.6 361.7L578.8 358L582 354.3L585.3 350.6L588.5 346.7L591.7 342.8L594.9 338.8L598.1 334.6L601.3 330.4L604.5 326L607.7 321.4L610.9 316.7L614.1 312L617.3 307.3L620.5 302.7L623.8 298.2L627 293.9L630.2 289.7L633.4 285.5L636.6 281.3L639.8 277.2L643 273L646.2 268.9L649.4 264.8L652.6 260.7L655.8 256.6L659.1 252.5L662.3 248.4L665.5 244.2L668.7 240.1L671.9 235.9L675.1 231.6L678.3 227.3L681.5 223L684.7 218.7L687.9 214.3L691.1 209.9L694.3 205.4L697.6 201L700.8 196.5L704 192.1L707.2 187.6L710.4 183.2L713.6 178.8L713.6 257.7L710.4 260.2L707.2 262.7L704 265.3L700.8 267.9L697.6 270.5L694.3 273.2L691.1 275.9L687.9 278.6L684.7 281.4L681.5 284.1L678.3 286.9L675.1 289.7L671.9 292.5L668.7 295.3L665.5 298.2L662.3 301L659.1 303.8L655.8 306.7L652.6 309.6L649.4 312.5L646.2 315.5L643 318.5L639.8 321.5L636.6 324.6L633.4 327.7L630.2 330.8L627 334L623.8 337.3L620.5 340.7L617.3 344.3L614.1 348L610.9 351.7L607.7 355.5L604.5 359.1L601.3 362.6L598.1 365.9L594.9 369.2L591.7 372.4L588.5 375.5L585.3 378.5L582 381.5L578.8 384.5L575.6 387.4L572.4 390.5L569.2 393.5L566 396.6L562.8 399.8L559.6 402.9L556.4 406.1L553.2 409.2L550 412.3L546.8 415.3L543.5 418.2L540.3 421L537.1 423.6L533.9 426L530.7 428.2L527.5 430.4L524.3 432.4L521.1 434.5L517.9 436.4L514.7 438.3L511.5 440.1L508.2 441.9L505 443.6L501.8 445.2L498.6 446.9L495.4 448.7L492.2 450.6L460.1 459.3L428 466.7L395.9 471.8L363.9 476.9L331.8 478.6L299.7 481.4L267.6 484.6L235.5 486.4L203.4 486.5L171.3 485.7L139.3 486.8L107.2 487.9L75.1 490.3" fill="#3360a9" fill-opacity="0.7"></path><path class="Europe_0-area" stroke-linecap="round" d="M75.1 471.8L107.2 468L139.3 465.3L171.3 462.9L203.4 462.1L235.5 460.3L267.6 456L299.7 450.3L331.8 444.7L363.9 439.2L395.9 433.1L428 424.8L460.1 413.4L492.2 403.7L495.4 401.2L498.6 398.9L501.8 396.5L505 394.2L508.2 391.8L511.5 389.4L514.7 386.9L517.9 384.3L521.1 381.6L524.3 378.8L527.5 376L530.7 373L533.9 370L537.1 366.8L540.3 363.4L543.5 359.8L546.8 356.1L550 352.3L553.2 348.4L556.4 344.5L559.6 340.5L562.8 336.6L566 332.6L569.2 328.6L572.4 324.6L575.6 320.7L578.8 316.8L582 312.9L585.3 308.9L588.5 304.9L591.7 300.8L594.9 296.6L598.1 292.3L601.3 287.9L604.5 283.3L607.7 278.6L610.9 273.7L614.1 268.8L617.3 263.9L620.5 259.2L623.8 254.6L627 250.2L630.2 245.9L633.4 241.7L636.6 237.5L639.8 233.3L643 229.2L646.2 225.1L649.4 221L652.6 216.9L655.8 212.8L659.1 208.7L662.3 204.5L665.5 200.3L668.7 196.1L671.9 191.8L675.1 187.5L678.3 183.1L681.5 178.7L684.7 174.2L687.9 169.8L691.1 165.3L694.3 160.8L697.6 156.2L700.8 151.7L704 147.2L707.2 142.7L710.4 138.2L713.6 133.8L713.6 178.8L710.4 183.2L707.2 187.6L704 192.1L700.8 196.5L697.6 201L694.3 205.4L691.1 209.9L687.9 214.3L684.7 218.7L681.5 223L678.3 227.3L675.1 231.6L671.9 235.9L668.7 240.1L665.5 244.2L662.3 248.4L659.1 252.5L655.8 256.6L652.6 260.7L649.4 264.8L646.2 268.9L643 273L639.8 277.2L636.6 281.3L633.4 285.5L630.2 289.7L627 293.9L623.8 298.2L620.5 302.7L617.3 307.3L614.1 312L610.9 316.7L607.7 321.4L604.5 326L601.3 330.4L598.1 334.6L594.9 338.8L591.7 342.8L588.5 346.7L585.3 350.6L582 354.3L578.8 358L575.6 361.7L572.4 365.4L569.2 369.2L566 372.9L562.8 376.7L559.6 380.4L556.4 384.1L553.2 387.8L550 391.5L546.8 395L543.5 398.4L540.3 401.7L537.1 404.7L533.9 407.6L530.7 410.3L527.5 412.9L524.3 415.4L521.1 417.8L517.9 420.1L514.7 422.3L511.5 424.5L508.2 426.6L505 428.6L501.8 430.6L498.6 432.6L495.4 434.7L492.2 436.8L460.1 447.2L428 455.8L395.9 461.9L363.9 467.8L331.8 470.1L299.7 473.4L267.6 477.2L235.5 479.5L203.4 480L171.3 479.5L139.3 480.9L107.2 482.3L75.1 485" fill="#ffd53e" fill-opacity="0.7"></path><path class="North-America_0-area" stroke-linecap="round" d="M75.1 471.1L107.2 467.1L139.3 464.1L171.3 461.3L203.4 460L235.5 457.7L267.6 452.7L299.7 446.2L331.8 439.8L363.9 433.2L395.9 426.2L428 416.7L460.1 404.7L492.2 393.3L495.4 390.7L498.6 388.1L501.8 385.6L505 383.1L508.2 380.5L511.5 377.9L514.7 375.1L517.9 372.3L521.1 369.5L524.3 366.5L527.5 363.4L530.7 360.3L533.9 357.1L537.1 353.7L540.3 350.1L543.5 346.5L546.8 342.6L550 338.7L553.2 334.6L556.4 330.6L559.6 326.5L562.8 322.4L566 318.2L569.2 314.1L572.4 310L575.6 305.9L578.8 301.9L582 297.8L585.3 293.8L588.5 289.6L591.7 285.3L594.9 281L598.1 276.5L601.3 272L604.5 267.2L607.7 262.4L610.9 257.3L614.1 252.2L617.3 247.2L620.5 242.3L623.8 237.6L627 233L630.2 228.5L633.4 224.1L636.6 219.7L639.8 215.3L643 211L646.2 206.7L649.4 202.4L652.6 198.1L655.8 193.8L659.1 189.5L662.3 185.1L665.5 180.8L668.7 176.3L671.9 171.9L675.1 167.3L678.3 162.8L681.5 158.2L684.7 153.5L687.9 148.9L691.1 144.2L694.3 139.5L697.6 134.9L700.8 130.2L704 125.5L707.2 120.8L710.4 116.2L713.6 111.6L713.6 133.8L710.4 138.2L707.2 142.7L704 147.2L700.8 151.7L697.6 156.2L694.3 160.8L691.1 165.3L687.9 169.8L684.7 174.2L681.5 178.7L678.3 183.1L675.1 187.5L671.9 191.8L668.7 196.1L665.5 200.3L662.3 204.5L659.1 208.7L655.8 212.8L652.6 216.9L649.4 221L646.2 225.1L643 229.2L639.8 233.3L636.6 237.5L633.4 241.7L630.2 245.9L627 250.2L623.8 254.6L620.5 259.2L617.3 263.9L614.1 268.8L610.9 273.7L607.7 278.6L604.5 283.3L601.3 287.9L598.1 292.3L594.9 296.6L591.7 300.8L588.5 304.9L585.3 308.9L582 312.9L578.8 316.8L575.6 320.7L572.4 324.6L569.2 328.6L566 332.6L562.8 336.6L559.6 340.5L556.4 344.5L553.2 348.4L550 352.3L546.8 356.1L543.5 359.8L540.3 363.4L537.1 366.8L533.9 370L530.7 373L527.5 376L524.3 378.8L521.1 381.6L517.9 384.3L514.7 386.9L511.5 389.4L508.2 391.8L505 394.2L501.8 396.5L498.6 398.9L495.4 401.2L492.2 403.7L460.1 413.4L428 424.8L395.9 433.1L363.9 439.2L331.8 444.7L299.7 450.3L267.6 456L235.5 460.3L203.4 462.1L171.3 462.9L139.3 465.3L107.2 468L75.1 471.8" fill="#34983f" fill-opacity="0.7"></path><path class="Latin-America_0-area" stroke-linecap="round" d="M75.1 469.6L107.2 465.4L139.3 462.2L171.3 459.2L203.4 457.7L235.5 455.1L267.6 449.9L299.7 442.7L331.8 435.8L363.9 428.5L395.9 420.4L428 409.6L460.1 396.7L492.2 383.1L495.4 380.2L498.6 377.4L501.8 374.6L505 371.8L508.2 368.9L511.5 365.9L514.7 362.9L517.9 359.7L521.1 356.5L524.3 353.2L527.5 349.8L530.7 346.3L533.9 342.6L537.1 338.9L540.3 334.9L543.5 330.8L546.8 326.6L550 322.2L553.2 317.8L556.4 313.3L559.6 308.8L562.8 304.2L566 299.6L569.2 295.1L572.4 290.5L575.6 286L578.8 281.5L582 277L585.3 272.4L588.5 267.8L591.7 263L594.9 258.2L598.1 253.3L601.3 248.2L604.5 243L607.7 237.6L610.9 232.1L614.1 226.5L617.3 221L620.5 215.6L623.8 210.4L627 205.3L630.2 200.3L633.4 195.4L636.6 190.6L639.8 185.7L643 180.9L646.2 176.1L649.4 171.4L652.6 166.6L655.8 161.9L659.1 157.1L662.3 152.3L665.5 147.5L668.7 142.7L671.9 137.8L675.1 132.9L678.3 127.9L681.5 122.9L684.7 117.9L687.9 112.8L691.1 107.7L694.3 102.7L697.6 97.6L700.8 92.5L704 87.5L707.2 82.5L710.4 77.5L713.6 72.5L713.6 111.6L710.4 116.2L707.2 120.8L704 125.5L700.8 130.2L697.6 134.9L694.3 139.5L691.1 144.2L687.9 148.9L684.7 153.5L681.5 158.2L678.3 162.8L675.1 167.3L671.9 171.9L668.7 176.3L665.5 180.8L662.3 185.1L659.1 189.5L655.8 193.8L652.6 198.1L649.4 202.4L646.2 206.7L643 211L639.8 215.3L636.6 219.7L633.4 224.1L630.2 228.5L627 233L623.8 237.6L620.5 242.3L617.3 247.2L614.1 252.2L610.9 257.3L607.7 262.4L604.5 267.2L601.3 272L598.1 276.5L594.9 281L591.7 285.3L588.5 289.6L585.3 293.8L582 297.8L578.8 301.9L575.6 305.9L572.4 310L569.2 314.1L566 318.2L562.8 322.4L559.6 326.5L556.4 330.6L553.2 334.6L550 338.7L546.8 342.6L543.5 346.5L540.3 350.1L537.1 353.7L533.9 357.1L530.7 360.3L527.5 363.4L524.3 366.5L521.1 369.5L517.9 372.3L514.7 375.1L511.5 377.9L508.2 380.5L505 383.1L501.8 385.6L498.6 388.1L495.4 390.7L492.2 393.3L460.1 404.7L428 416.7L395.9 426.2L363.9 433.2L331.8 439.8L299.7 446.2L267.6 452.7L235.5 457.7L203.4 460L171.3 461.3L139.3 464.1L107.2 467.1L75.1 471.1" fill="#9ecc8a" fill-opacity="0.7"></path><path class="Oceania_0-area" stroke-linecap="round" d="M75.1 469.6L107.2 465.4L139.3 462.2L171.3 459.1L203.4 457.5L235.5 455L267.6 449.7L299.7 442.5L331.8 435.5L363.9 428.1L395.9 420L428 409.1L460.1 396.1L492.2 382.3L495.4 379.4L498.6 376.6L501.8 373.8L505 370.9L508.2 368L511.5 365L514.7 362L517.9 358.8L521.1 355.6L524.3 352.2L527.5 348.8L530.7 345.3L533.9 341.6L537.1 337.8L540.3 333.8L543.5 329.7L546.8 325.5L550 321.1L553.2 316.6L556.4 312.1L559.6 307.5L562.8 303L566 298.4L569.2 293.8L572.4 289.2L575.6 284.7L578.8 280.2L582 275.6L585.3 271.1L588.5 266.4L591.7 261.6L594.9 256.8L598.1 251.8L601.3 246.7L604.5 241.5L607.7 236.1L610.9 230.5L614.1 224.9L617.3 219.4L620.5 213.9L623.8 208.7L627 203.6L630.2 198.6L633.4 193.7L636.6 188.8L639.8 183.9L643 179.1L646.2 174.3L649.4 169.5L652.6 164.7L655.8 159.9L659.1 155.2L662.3 150.4L665.5 145.5L668.7 140.7L671.9 135.7L675.1 130.8L678.3 125.8L681.5 120.7L684.7 115.6L687.9 110.6L691.1 105.4L694.3 100.3L697.6 95.2L700.8 90.1L704 85L707.2 80L710.4 75L713.6 70L713.6 72.5L710.4 77.5L707.2 82.5L704 87.5L700.8 92.5L697.6 97.6L694.3 102.7L691.1 107.7L687.9 112.8L684.7 117.9L681.5 122.9L678.3 127.9L675.1 132.9L671.9 137.8L668.7 142.7L665.5 147.5L662.3 152.3L659.1 157.1L655.8 161.9L652.6 166.6L649.4 171.4L646.2 176.1L643 180.9L639.8 185.7L636.6 190.6L633.4 195.4L630.2 200.3L627 205.3L623.8 210.4L620.5 215.6L617.3 221L614.1 226.5L610.9 232.1L607.7 237.6L604.5 243L601.3 248.2L598.1 253.3L594.9 258.2L591.7 263L588.5 267.8L585.3 272.4L582 277L578.8 281.5L575.6 286L572.4 290.5L569.2 295.1L566 299.6L562.8 304.2L559.6 308.8L556.4 313.3L553.2 317.8L550 322.2L546.8 326.6L543.5 330.8L540.3 334.9L537.1 338.9L533.9 342.6L530.7 346.3L527.5 349.8L524.3 353.2L521.1 356.5L517.9 359.7L514.7 362.9L511.5 365.9L508.2 368.9L505 371.8L501.8 374.6L498.6 377.4L495.4 380.2L492.2 383.1L460.1 396.7L428 409.6L395.9 420.4L363.9 428.5L331.8 435.8L299.7 442.7L267.6 449.9L235.5 455.1L203.4 457.7L171.3 459.2L139.3 462.2L107.2 465.4L75.1 469.6" fill="#a652ba" fill-opacity="0.7"></path><path class="Asia_0-border" stroke-linecap="round" d="M75.1 490.3L107.2 487.9L139.3 486.8L171.3 485.7L203.4 486.5L235.5 486.4L267.6 484.6L299.7 481.4L331.8 478.6L363.9 476.9L395.9 471.8L428 466.7L460.1 459.3L492.2 450.6L495.4 448.7L498.6 446.9L501.8 445.2L505 443.6L508.2 441.9L511.5 440.1L514.7 438.3L517.9 436.4L521.1 434.5L524.3 432.4L527.5 430.4L530.7 428.2L533.9 426L537.1 423.6L540.3 421L543.5 418.2L546.8 415.3L550 412.3L553.2 409.2L556.4 406.1L559.6 402.9L562.8 399.8L566 396.6L569.2 393.5L572.4 390.5L575.6 387.4L578.8 384.5L582 381.5L585.3 378.5L588.5 375.5L591.7 372.4L594.9 369.2L598.1 365.9L601.3 362.6L604.5 359.1L607.7 355.5L610.9 351.7L614.1 348L617.3 344.3L620.5 340.7L623.8 337.3L627 334L630.2 330.8L633.4 327.7L636.6 324.6L639.8 321.5L643 318.5L646.2 315.5L649.4 312.5L652.6 309.6L655.8 306.7L659.1 303.8L662.3 301L665.5 298.2L668.7 295.3L671.9 292.5L675.1 289.7L678.3 286.9L681.5 284.1L684.7 281.4L687.9 278.6L691.1 275.9L694.3 273.2L697.6 270.5L700.8 267.9L704 265.3L707.2 262.7L710.4 260.2L713.6 257.7" stroke="rgb(169, 32, 33)" stroke-opacity="0.7" stroke-width="0.5" fill="none"></path><path class="Africa_0-border" stroke-linecap="round" d="M75.1 485L107.2 482.3L139.3 480.9L171.3 479.5L203.4 480L235.5 479.5L267.6 477.2L299.7 473.4L331.8 470.1L363.9 467.8L395.9 461.9L428 455.8L460.1 447.2L492.2 436.8L495.4 434.7L498.6 432.6L501.8 430.6L505 428.6L508.2 426.6L511.5 424.5L514.7 422.3L517.9 420.1L521.1 417.8L524.3 415.4L527.5 412.9L530.7 410.3L533.9 407.6L537.1 404.7L540.3 401.7L543.5 398.4L546.8 395L550 391.5L553.2 387.8L556.4 384.1L559.6 380.4L562.8 376.7L566 372.9L569.2 369.2L572.4 365.4L575.6 361.7L578.8 358L582 354.3L585.3 350.6L588.5 346.7L591.7 342.8L594.9 338.8L598.1 334.6L601.3 330.4L604.5 326L607.7 321.4L610.9 316.7L614.1 312L617.3 307.3L620.5 302.7L623.8 298.2L627 293.9L630.2 289.7L633.4 285.5L636.6 281.3L639.8 277.2L643 273L646.2 268.9L649.4 264.8L652.6 260.7L655.8 256.6L659.1 252.5L662.3 248.4L665.5 244.2L668.7 240.1L671.9 235.9L675.1 231.6L678.3 227.3L681.5 223L684.7 218.7L687.9 214.3L691.1 209.9L694.3 205.4L697.6 201L700.8 196.5L704 192.1L707.2 187.6L710.4 183.2L713.6 178.8" stroke="rgb(43, 80, 141)" stroke-opacity="0.7" stroke-width="0.5" fill="none"></path><path class="Europe_0-border" stroke-linecap="round" d="M75.1 471.8L107.2 468L139.3 465.3L171.3 462.9L203.4 462.1L235.5 460.3L267.6 456L299.7 450.3L331.8 444.7L363.9 439.2L395.9 433.1L428 424.8L460.1 413.4L492.2 403.7L495.4 401.2L498.6 398.9L501.8 396.5L505 394.2L508.2 391.8L511.5 389.4L514.7 386.9L517.9 384.3L521.1 381.6L524.3 378.8L527.5 376L530.7 373L533.9 370L537.1 366.8L540.3 363.4L543.5 359.8L546.8 356.1L550 352.3L553.2 348.4L556.4 344.5L559.6 340.5L562.8 336.6L566 332.6L569.2 328.6L572.4 324.6L575.6 320.7L578.8 316.8L582 312.9L585.3 308.9L588.5 304.9L591.7 300.8L594.9 296.6L598.1 292.3L601.3 287.9L604.5 283.3L607.7 278.6L610.9 273.7L614.1 268.8L617.3 263.9L620.5 259.2L623.8 254.6L627 250.2L630.2 245.9L633.4 241.7L636.6 237.5L639.8 233.3L643 229.2L646.2 225.1L649.4 221L652.6 216.9L655.8 212.8L659.1 208.7L662.3 204.5L665.5 200.3L668.7 196.1L671.9 191.8L675.1 187.5L678.3 183.1L681.5 178.7L684.7 174.2L687.9 169.8L691.1 165.3L694.3 160.8L697.6 156.2L700.8 151.7L704 147.2L707.2 142.7L710.4 138.2L713.6 133.8" stroke="rgb(213, 178, 52)" stroke-opacity="0.7" stroke-width="0.5" fill="none"></path><path class="North-America_0-border" stroke-linecap="round" d="M75.1 471.1L107.2 467.1L139.3 464.1L171.3 461.3L203.4 460L235.5 457.7L267.6 452.7L299.7 446.2L331.8 439.8L363.9 433.2L395.9 426.2L428 416.7L460.1 404.7L492.2 393.3L495.4 390.7L498.6 388.1L501.8 385.6L505 383.1L508.2 380.5L511.5 377.9L514.7 375.1L517.9 372.3L521.1 369.5L524.3 366.5L527.5 363.4L530.7 360.3L533.9 357.1L537.1 353.7L540.3 350.1L543.5 346.5L546.8 342.6L550 338.7L553.2 334.6L556.4 330.6L559.6 326.5L562.8 322.4L566 318.2L569.2 314.1L572.4 310L575.6 305.9L578.8 301.9L582 297.8L585.3 293.8L588.5 289.6L591.7 285.3L594.9 281L598.1 276.5L601.3 272L604.5 267.2L607.7 262.4L610.9 257.3L614.1 252.2L617.3 247.2L620.5 242.3L623.8 237.6L627 233L630.2 228.5L633.4 224.1L636.6 219.7L639.8 215.3L643 211L646.2 206.7L649.4 202.4L652.6 198.1L655.8 193.8L659.1 189.5L662.3 185.1L665.5 180.8L668.7 176.3L671.9 171.9L675.1 167.3L678.3 162.8L681.5 158.2L684.7 153.5L687.9 148.9L691.1 144.2L694.3 139.5L697.6 134.9L700.8 130.2L704 125.5L707.2 120.8L710.4 116.2L713.6 111.6" stroke="rgb(44, 127, 53)" stroke-opacity="0.7" stroke-width="0.5" fill="none"></path><path class="Latin-America_0-border" stroke-linecap="round" d="M75.1 469.6L107.2 465.4L139.3 462.2L171.3 459.2L203.4 457.7L235.5 455.1L267.6 449.9L299.7 442.7L331.8 435.8L363.9 428.5L395.9 420.4L428 409.6L460.1 396.7L492.2 383.1L495.4 380.2L498.6 377.4L501.8 374.6L505 371.8L508.2 368.9L511.5 365.9L514.7 362.9L517.9 359.7L521.1 356.5L524.3 353.2L527.5 349.8L530.7 346.3L533.9 342.6L537.1 338.9L540.3 334.9L543.5 330.8L546.8 326.6L550 322.2L553.2 317.8L556.4 313.3L559.6 308.8L562.8 304.2L566 299.6L569.2 295.1L572.4 290.5L575.6 286L578.8 281.5L582 277L585.3 272.4L588.5 267.8L591.7 263L594.9 258.2L598.1 253.3L601.3 248.2L604.5 243L607.7 237.6L610.9 232.1L614.1 226.5L617.3 221L620.5 215.6L623.8 210.4L627 205.3L630.2 200.3L633.4 195.4L636.6 190.6L639.8 185.7L643 180.9L646.2 176.1L649.4 171.4L652.6 166.6L655.8 161.9L659.1 157.1L662.3 152.3L665.5 147.5L668.7 142.7L671.9 137.8L675.1 132.9L678.3 127.9L681.5 122.9L684.7 117.9L687.9 112.8L691.1 107.7L694.3 102.7L697.6 97.6L700.8 92.5L704 87.5L707.2 82.5L710.4 77.5L713.6 72.5" stroke="rgb(132, 171, 115)" stroke-opacity="0.7" stroke-width="0.5" fill="none"></path><path class="Oceania_0-border" stroke-linecap="round" d="M75.1 469.6L107.2 465.4L139.3 462.2L171.3 459.1L203.4 457.5L235.5 455L267.6 449.7L299.7 442.5L331.8 435.5L363.9 428.1L395.9 420L428 409.1L460.1 396.1L492.2 382.3L495.4 379.4L498.6 376.6L501.8 373.8L505 370.9L508.2 368L511.5 365L514.7 362L517.9 358.8L521.1 355.6L524.3 352.2L527.5 348.8L530.7 345.3L533.9 341.6L537.1 337.8L540.3 333.8L543.5 329.7L546.8 325.5L550 321.1L553.2 316.6L556.4 312.1L559.6 307.5L562.8 303L566 298.4L569.2 293.8L572.4 289.2L575.6 284.7L578.8 280.2L582 275.6L585.3 271.1L588.5 266.4L591.7 261.6L594.9 256.8L598.1 251.8L601.3 246.7L604.5 241.5L607.7 236.1L610.9 230.5L614.1 224.9L617.3 219.4L620.5 213.9L623.8 208.7L627 203.6L630.2 198.6L633.4 193.7L636.6 188.8L639.8 183.9L643 179.1L646.2 174.3L649.4 169.5L652.6 164.7L655.8 159.9L659.1 155.2L662.3 150.4L665.5 145.5L668.7 140.7L671.9 135.7L675.1 130.8L678.3 125.8L681.5 120.7L684.7 115.6L687.9 110.6L691.1 105.4L694.3 100.3L697.6 95.2L700.8 90.1L704 85L707.2 80L710.4 75L713.6 70" stroke="rgb(139, 69, 156)" stroke-opacity="0.7" stroke-width="0.5" fill="none"></path></g></g></g><g class="SourcesFooter" style="fill:#777"><g class="clickable" style="fill:#777"><text font-size="12.60" x="15.0" y="581.6"><tspan x="15" y="581.58">Source: HYDE (2016) &amp; UN (2019)</tspan></text></g><text font-size="12.60" x="528.2" y="581.6"><tspan x="528.19" y="581.58"><a target='_blank' style='fill: #777;' href='https://ourworldindata.org/world-population-growth/'>OurWorldInData.org/world-population-growth/</a> • <a style="fill: #777;" class="cclogo" href="http://creativecommons.org/licenses/by/4.0/deed.en_US" target="_blank">CC BY</a></tspan></text></g></svg>