<svg xmlns="http://www.w3.org/2000/svg" version="1.1" style="font-family: 'Helvetica Neue', Helvetica, Arial, sans-serif; font-size: 18px; background-color: white; text-rendering: optimizeLegibility; -webkit-font-smoothing: antialiased;" width="850" height="600"><g class="ChartTab"><g class="HeaderView"><g opacity="0.8" transform="translate(778, 15) scale(0.27)"><a xmlns:xlink="http://www.w3.org/1999/xlink" xlink:href="https://ourworldindata.org" target="_blank"><g><rect x="0" y="0" fill="#1B2543" width="211.2" height="130.1"/><rect x="0" y="112.2" fill="#E63912" width="211.2" height="17.9"/><g><rect x="1.2" y="12.3" fill="none" width="210.2" height="99.2"/><path fill="#FFFFFF" d="M37.8,32.2c0,12.7-7.7,19.4-17.1,19.4c-9.7,0-16.6-7.5-16.6-18.7c0-11.7,7.3-19.3,17.1-19.3 C31.3,13.7,37.8,21.3,37.8,32.2z M9.2,32.8c0,7.9,4.3,14.9,11.8,14.9c7.5,0,11.8-6.9,11.8-15.3c0-7.3-3.8-14.9-11.8-14.9 C13.1,17.5,9.2,24.8,9.2,32.8z"/><path fill="#FFFFFF" d="M62.7,43.8c0,2.7,0.1,5.1,0.2,7.2h-4.3l-0.3-4.3h-0.1c-1.3,2.1-4,4.9-8.8,4.9c-4.2,0-9.1-2.3-9.1-11.6 V24.6h4.8v14.6c0,5,1.5,8.4,5.9,8.4c3.2,0,5.5-2.2,6.3-4.4c0.3-0.7,0.4-1.6,0.4-2.5V24.6h4.8V43.8z"/><path fill="#FFFFFF" d="M67.3,32.8c0-3.1-0.1-5.8-0.2-8.2h4.2l0.2,5.2h0.2c1.2-3.5,4.1-5.8,7.3-5.8c0.5,0,0.9,0.1,1.4,0.2v4.5 c-0.5-0.1-1-0.2-1.6-0.2c-3.4,0-5.8,2.6-6.5,6.2c-0.1,0.7-0.2,1.4-0.2,2.2V51h-4.8V32.8z"/><path fill="#FFFFFF" d="M95.4,51l-9.4-36.8h5l4.4,18.6c1.1,4.6,2.1,9.2,2.7,12.7h0.1c0.6-3.7,1.8-8,3-12.8l4.9-18.5h5l4.5,18.7 c1,4.4,2,8.7,2.6,12.6h0.1c0.8-4,1.8-8.1,3-12.7l4.9-18.5h4.9L120.6,51h-5L111,31.9c-1.1-4.7-1.9-8.3-2.4-12h-0.1 c-0.7,3.7-1.5,7.3-2.8,12L100.4,51H95.4z"/><path fill="#FFFFFF" d="M154.9,37.6c0,9.8-6.8,14-13.2,14c-7.2,0-12.7-5.2-12.7-13.6c0-8.8,5.8-14,13.1-14 C149.8,24,154.9,29.5,154.9,37.6z M133.9,37.9c0,5.8,3.3,10.1,8,10.1c4.6,0,8-4.3,8-10.3c0-4.5-2.2-10.1-7.9-10.1 C136.3,27.6,133.9,32.8,133.9,37.9z"/><path fill="#FFFFFF" d="M158.2,32.8c0-3.1-0.1-5.8-0.2-8.2h4.2l0.2,5.2h0.2c1.2-3.5,4.1-5.8,7.3-5.8c0.5,0,0.9,0.1,1.4,0.2v4.5 c-0.5-0.1-1-0.2-1.6-0.2c-3.4,0-5.8,2.6-6.5,6.2c-0.1,0.7-0.2,1.4-0.2,2.2V51h-4.8V32.8z"/><path fill="#FFFFFF" d="M173.5,12.3h4.8V51h-4.8V12.3z"/><path fill="#FFFFFF" d="M206.5,12.3v31.9c0,2.3,0.1,5,0.2,6.8h-4.3l-0.2-4.6H202c-1.5,2.9-4.7,5.2-9,5.2 c-6.4,0-11.3-5.4-11.3-13.4c-0.1-8.8,5.4-14.2,11.9-14.2c4,0,6.8,1.9,8,4h0.1V12.3H206.5z M201.7,35.4c0-0.6-0.1-1.4-0.2-2 c-0.7-3.1-3.3-5.6-6.9-5.6c-5,0-7.9,4.4-7.9,10.2c0,5.3,2.6,9.8,7.8,9.8c3.2,0,6.2-2.1,7.1-5.7c0.2-0.7,0.2-1.3,0.2-2.1V35.4z"/><path fill="#FFFFFF" d="M42.8,64c0.1,1.6-1.1,2.9-3.1,2.9c-1.7,0-2.9-1.3-2.9-2.9c0-1.7,1.3-3,3-3C41.7,61,42.8,62.3,42.8,64z M37.4,97.8V71.4h4.8v26.4H37.4z"/><path fill="#FFFFFF" d="M47.5,78.6c0-2.7-0.1-5-0.2-7.1h4.3l0.3,4.4h0.1c1.3-2.5,4.4-5,8.8-5c3.7,0,9.4,2.2,9.4,11.2v15.8h-4.8 V82.6c0-4.3-1.6-7.8-6.1-7.8c-3.2,0-5.6,2.2-6.5,4.9c-0.2,0.6-0.3,1.4-0.3,2.2v15.9h-4.8V78.6z"/><path fill="#FFFFFF" d="M84,61.6c2.9-0.4,6.3-0.8,10.1-0.8c6.8,0,11.7,1.6,14.9,4.6c3.3,3,5.2,7.3,5.2,13.2c0,6-1.9,10.9-5.3,14.3 c-3.4,3.4-9.1,5.3-16.3,5.3c-3.4,0-6.2-0.2-8.6-0.4V61.6z M88.8,94.1c1.2,0.2,3,0.3,4.8,0.3c10.2,0,15.7-5.7,15.7-15.6 c0.1-8.7-4.9-14.2-14.9-14.2c-2.5,0-4.3,0.2-5.6,0.5V94.1z"/><path fill="#FFFFFF" d="M132.1,97.8l-0.4-3.3h-0.2c-1.5,2.1-4.3,3.9-8.1,3.9c-5.4,0-8.1-3.8-8.1-7.6c0-6.4,5.7-9.9,15.9-9.8v-0.5 c0-2.2-0.6-6.1-6-6.1c-2.5,0-5,0.8-6.9,2l-1.1-3.2c2.2-1.4,5.4-2.3,8.7-2.3c8.1,0,10.1,5.5,10.1,10.8v9.9c0,2.3,0.1,4.5,0.4,6.3 H132.1z M131.4,84.4c-5.3-0.1-11.2,0.8-11.2,5.9c0,3.1,2.1,4.6,4.5,4.6c3.4,0,5.6-2.2,6.4-4.4c0.2-0.5,0.3-1,0.3-1.5V84.4z"/><path fill="#FFFFFF" d="M146.6,63.9v7.6h6.9v3.7h-6.9v14.2c0,3.3,0.9,5.1,3.6,5.1c1.3,0,2.2-0.2,2.8-0.3l0.2,3.6 c-0.9,0.4-2.4,0.7-4.3,0.7c-2.2,0-4-0.7-5.2-2c-1.4-1.4-1.9-3.8-1.9-6.9V75.1h-4.1v-3.7h4.1v-6.3L146.6,63.9z"/><path fill="#FFFFFF" d="M171.4,97.8l-0.4-3.3h-0.2c-1.5,2.1-4.3,3.9-8.1,3.9c-5.4,0-8.1-3.8-8.1-7.6c0-6.4,5.7-9.9,15.9-9.8v-0.5 c0-2.2-0.6-6.1-6-6.1c-2.5,0-5,0.8-6.9,2l-1.1-3.2c2.2-1.4,5.4-2.3,8.7-2.3c8.1,0,10.1,5.5,10.1,10.8v9.9c0,2.3,0.1,4.5,0.4,6.3 H171.4z M170.7,84.4c-5.3-0.1-11.2,0.8-11.2,5.9c0,3.1,2.1,4.6,4.5,4.6c3.4,0,5.6-2.2,6.4-4.4c0.2-0.5,0.3-1,0.3-1.5V84.4z"/></g></g></a></g><a href="https://ourworldindata.org/grapher/adjusted-net-savings-per-person" target="_blank"><text font-size="25.20" x="15.0" y="35.2" fill="#555"><tspan x="15" y="35.160000000000004">Adjusted net savings per capita</tspan></text></a><text font-size="14.40" x="15.0" y="53.7" fill="#666"><tspan x="15" y="53.72">Adjusted net savings are equal to net national savings plus education expenditure and minus energy depletion,</tspan><tspan x="15" y="69.56">mineral depletion, net forest depletion, and carbon dioxide.</tspan></text></g><g class="LineChart"><defs><clipPath id="boundsClip-89"><rect x="65.242" y="0" width="830" height="928.8"></rect></clipPath></defs><g class="AxisBoxView"><g class="HorizontalAxis"><text x="75.2" y="556.5" fill="#666" text-anchor="middle" font-size="16.2">1970</text><text x="215.7" y="556.5" fill="#666" text-anchor="middle" font-size="16.2">1980</text><text x="356.1" y="556.5" fill="#666" text-anchor="middle" font-size="16.2">1990</text><text x="496.5" y="556.5" fill="#666" text-anchor="middle" font-size="16.2">2000</text><text x="637" y="556.5" fill="#666" text-anchor="middle" font-size="16.2">2010</text><text x="707.2" y="556.5" fill="#666" text-anchor="middle" font-size="16.2">2015</text></g><g class="VerticalAxis"><text x="70.24" y="528.7" fill="#666" dominant-baseline="middle" text-anchor="end" font-size="16.2">$-1,000</text><text x="70.24" y="470.1" fill="#666" dominant-baseline="middle" text-anchor="end" font-size="16.2">$0</text><text x="70.24" y="411.5" fill="#666" dominant-baseline="middle" text-anchor="end" font-size="16.2">$1,000</text><text x="70.24" y="353" fill="#666" dominant-baseline="middle" text-anchor="end" font-size="16.2">$2,000</text><text x="70.24" y="294.4" fill="#666" dominant-baseline="middle" text-anchor="end" font-size="16.2">$3,000</text><text x="70.24" y="235.8" fill="#666" dominant-baseline="middle" text-anchor="end" font-size="16.2">$4,000</text><text x="70.24" y="177.3" fill="#666" dominant-baseline="middle" text-anchor="end" font-size="16.2">$5,000</text><text x="70.24" y="118.7" fill="#666" dominant-baseline="middle" text-anchor="end" font-size="16.2">$6,000</text></g><g class="AxisGridLines"><line x1="75.24" y1="528.7" x2="707.18" y2="528.7" stroke="#ddd" stroke-dasharray="3,2"></line><line x1="75.24" y1="470.1" x2="707.18" y2="470.1" stroke="#ccc"></line><line x1="75.24" y1="411.5" x2="707.18" y2="411.5" stroke="#ddd" stroke-dasharray="3,2"></line><line x1="75.24" y1="353" x2="707.18" y2="353" stroke="#ddd" stroke-dasharray="3,2"></line><line x1="75.24" y1="294.4" x2="707.18" y2="294.4" stroke="#ddd" stroke-dasharray="3,2"></line><line x1="75.24" y1="235.8" x2="707.18" y2="235.8" stroke="#ddd" stroke-dasharray="3,2"></line><line x1="75.24" y1="177.3" x2="707.18" y2="177.3" stroke="#ddd" stroke-dasharray="3,2"></line><line x1="75.24" y1="118.7" x2="707.18" y2="118.7" stroke="#ddd" stroke-dasharray="3,2"></line></g></g><g clip-path="url(#boundsClip-89)"><g class="HeightedLegend clickable"><g class="legendMark"><rect x="717.184" y="123.2" width="74.328" height="14.4" fill="#fff" opacity="0"></rect><rect x="717.184" y="129.15" width="10" height="2.5" fill="#e6332e"></rect><text font-size="14.40" x="732.2" y="134.7" fill="#333"><tspan x="732.184" y="134.72">Germany</tspan></text></g><g class="legendMark"><rect x="717.184" y="302.8" width="59.928000000000004" height="14.4" fill="#fff" opacity="0"></rect><rect x="717.184" y="308.75" width="10" height="2.5" fill="#2a939b"></rect><text font-size="14.40" x="732.2" y="314.3" fill="#333"><tspan x="732.184" y="314.32">France</tspan></text></g><g class="legendMark"><rect x="717.184" y="351.7" width="117.81600000000002" height="14.4" fill="#fff" opacity="0"></rect><rect x="717.184" y="357.65" width="10" height="2.5" fill="#a652ba"></rect><text font-size="14.40" x="732.2" y="363.2" fill="#333"><tspan x="732.184" y="363.21999999999997">United Kingdom</tspan></text></g><g class="legendMark"><rect x="717.184" y="395.5" width="60.648" height="14.4" fill="#fff" opacity="0"></rect><rect x="717.184" y="401.45" width="10" height="2.5" fill="#f6a324"></rect><text font-size="14.40" x="732.2" y="407.0" fill="#333"><tspan x="732.184" y="407.02">Mexico</tspan></text></g><g class="legendMark"><rect x="717.184" y="415" width="51.00000000000001" height="14.4" fill="#fff" opacity="0"></rect><rect x="717.184" y="420.95" width="10" height="2.5" fill="#34983f"></rect><text font-size="14.40" x="732.2" y="426.5" fill="#333"><tspan x="732.184" y="426.52">Brazil</tspan></text></g><g class="legendMark"><rect x="717.184" y="443.1" width="68.85600000000001" height="14.4" fill="#fff" opacity="0"></rect><rect x="717.184" y="449.05" width="10" height="2.5" fill="#ca2628"></rect><text font-size="14.40" x="732.2" y="454.6" fill="#333"><tspan x="732.184" y="454.62">Portugal</tspan></text></g><g class="legendMark"><rect x="717.184" y="509.40000000000003" width="57.624" height="14.4" fill="#fff" opacity="0"></rect><rect x="717.184" y="515.35" width="10" height="2.5" fill="#3360a9"></rect><text font-size="14.40" x="732.2" y="520.9" fill="#333"><tspan x="732.184" y="520.9200000000001">Congo</tspan></text></g></g><g class="Lines"><rect x="75" y="92" width="632" height="443" fill="rgba(255,255,255,0)" opacity="0"></rect><g class="key-Germany_0"><path stroke="#e6332e" stroke-linecap="round" d="M370 306L384 291L398 324L412 314L426 283L440 302L454 319L469 315L483 327L497 348L511 353L525 349L539 337L553 268L567 270L581 210L595 118L609 123L623 233L637 187L651 95L665 145L679 129L693 92L707 130" fill="none" stroke-width="1.5"></path><g fill="#e6332e"><circle cx="370" cy="306" r="2"></circle><circle cx="384" cy="291" r="2"></circle><circle cx="398" cy="324" r="2"></circle><circle cx="412" cy="314" r="2"></circle><circle cx="426" cy="283" r="2"></circle><circle cx="440" cy="302" r="2"></circle><circle cx="454" cy="319" r="2"></circle><circle cx="469" cy="315" r="2"></circle><circle cx="483" cy="327" r="2"></circle><circle cx="497" cy="348" r="2"></circle><circle cx="511" cy="353" r="2"></circle><circle cx="525" cy="349" r="2"></circle><circle cx="539" cy="337" r="2"></circle><circle cx="553" cy="268" r="2"></circle><circle cx="567" cy="270" r="2"></circle><circle cx="581" cy="210" r="2"></circle><circle cx="595" cy="118" r="2"></circle><circle cx="609" cy="123" r="2"></circle><circle cx="623" cy="233" r="2"></circle><circle cx="637" cy="187" r="2"></circle><circle cx="651" cy="95" r="2"></circle><circle cx="665" cy="145" r="2"></circle><circle cx="679" cy="129" r="2"></circle><circle cx="693" cy="92" r="2"></circle><circle cx="707" cy="130" r="2"></circle></g></g><g class="key-France_0"><path stroke="#2a939b" stroke-linecap="round" d="M146 412L160 413L174 409L188 391L202 376L216 373L230 400L244 411L258 416L272 420L286 417L300 385L314 371L328 349L342 344L356 314L370 323L384 316L398 335L412 322L426 286L440 289L454 291L469 273L483 267L497 297L511 303L525 310L539 282L553 251L567 256L581 238L595 194L609 196L623 303L637 295L651 263L665 314L679 310L693 312L707 310" fill="none" stroke-width="1.5"></path><g fill="#2a939b"><circle cx="146" cy="412" r="2"></circle><circle cx="160" cy="413" r="2"></circle><circle cx="174" cy="409" r="2"></circle><circle cx="188" cy="391" r="2"></circle><circle cx="202" cy="376" r="2"></circle><circle cx="216" cy="373" r="2"></circle><circle cx="230" cy="400" r="2"></circle><circle cx="244" cy="411" r="2"></circle><circle cx="258" cy="416" r="2"></circle><circle cx="272" cy="420" r="2"></circle><circle cx="286" cy="417" r="2"></circle><circle cx="300" cy="385" r="2"></circle><circle cx="314" cy="371" r="2"></circle><circle cx="328" cy="349" r="2"></circle><circle cx="342" cy="344" r="2"></circle><circle cx="356" cy="314" r="2"></circle><circle cx="370" cy="323" r="2"></circle><circle cx="384" cy="316" r="2"></circle><circle cx="398" cy="335" r="2"></circle><circle cx="412" cy="322" r="2"></circle><circle cx="426" cy="286" r="2"></circle><circle cx="440" cy="289" r="2"></circle><circle cx="454" cy="291" r="2"></circle><circle cx="469" cy="273" r="2"></circle><circle cx="483" cy="267" r="2"></circle><circle cx="497" cy="297" r="2"></circle><circle cx="511" cy="303" r="2"></circle><circle cx="525" cy="310" r="2"></circle><circle cx="539" cy="282" r="2"></circle><circle cx="553" cy="251" r="2"></circle><circle cx="567" cy="256" r="2"></circle><circle cx="581" cy="238" r="2"></circle><circle cx="595" cy="194" r="2"></circle><circle cx="609" cy="196" r="2"></circle><circle cx="623" cy="303" r="2"></circle><circle cx="637" cy="295" r="2"></circle><circle cx="651" cy="263" r="2"></circle><circle cx="665" cy="314" r="2"></circle><circle cx="679" cy="310" r="2"></circle><circle cx="693" cy="312" r="2"></circle><circle cx="707" cy="310" r="2"></circle></g></g><g class="key-Brazil_0"><path stroke="#34983f" stroke-linecap="round" d="M146 458L160 458L174 456L188 455L202 456L216 456L230 453L244 457L258 465L272 463L286 459L300 458L314 451L328 446L342 418L356 446L370 438L384 447L398 445L412 440L426 443L440 445L454 447L469 448L483 460L497 457L511 460L525 458L539 455L553 447L567 442L581 435L595 425L609 419L623 424L637 390L651 376L665 382L679 379L693 398L707 422" fill="none" stroke-width="1.5"></path><g fill="#34983f"><circle cx="146" cy="458" r="2"></circle><circle cx="160" cy="458" r="2"></circle><circle cx="174" cy="456" r="2"></circle><circle cx="188" cy="455" r="2"></circle><circle cx="202" cy="456" r="2"></circle><circle cx="216" cy="456" r="2"></circle><circle cx="230" cy="453" r="2"></circle><circle cx="244" cy="457" r="2"></circle><circle cx="258" cy="465" r="2"></circle><circle cx="272" cy="463" r="2"></circle><circle cx="286" cy="459" r="2"></circle><circle cx="300" cy="458" r="2"></circle><circle cx="314" cy="451" r="2"></circle><circle cx="328" cy="446" r="2"></circle><circle cx="342" cy="418" r="2"></circle><circle cx="356" cy="446" r="2"></circle><circle cx="370" cy="438" r="2"></circle><circle cx="384" cy="447" r="2"></circle><circle cx="398" cy="445" r="2"></circle><circle cx="412" cy="440" r="2"></circle><circle cx="426" cy="443" r="2"></circle><circle cx="440" cy="445" r="2"></circle><circle cx="454" cy="447" r="2"></circle><circle cx="469" cy="448" r="2"></circle><circle cx="483" cy="460" r="2"></circle><circle cx="497" cy="457" r="2"></circle><circle cx="511" cy="460" r="2"></circle><circle cx="525" cy="458" r="2"></circle><circle cx="539" cy="455" r="2"></circle><circle cx="553" cy="447" r="2"></circle><circle cx="567" cy="442" r="2"></circle><circle cx="581" cy="435" r="2"></circle><circle cx="595" cy="425" r="2"></circle><circle cx="609" cy="419" r="2"></circle><circle cx="623" cy="424" r="2"></circle><circle cx="637" cy="390" r="2"></circle><circle cx="651" cy="376" r="2"></circle><circle cx="665" cy="382" r="2"></circle><circle cx="679" cy="379" r="2"></circle><circle cx="693" cy="398" r="2"></circle><circle cx="707" cy="422" r="2"></circle></g></g><g class="key-Mexico_0"><path stroke="#f6a324" stroke-linecap="round" d="M202 456L216 451L230 445L244 455L258 460L272 459L286 458L300 467L314 464L328 460L342 458L356 455L370 451L384 452L398 447L412 446L426 455L440 446L454 439L469 439L483 433L497 425L511 428L525 431L539 424L553 421L567 421L581 412L595 395L609 396L623 408L637 403L651 408L665 407L679 416L693 408L707 403" fill="none" stroke-width="1.5"></path><g fill="#f6a324"><circle cx="202" cy="456" r="2"></circle><circle cx="216" cy="451" r="2"></circle><circle cx="230" cy="445" r="2"></circle><circle cx="244" cy="455" r="2"></circle><circle cx="258" cy="460" r="2"></circle><circle cx="272" cy="459" r="2"></circle><circle cx="286" cy="458" r="2"></circle><circle cx="300" cy="467" r="2"></circle><circle cx="314" cy="464" r="2"></circle><circle cx="328" cy="460" r="2"></circle><circle cx="342" cy="458" r="2"></circle><circle cx="356" cy="455" r="2"></circle><circle cx="370" cy="451" r="2"></circle><circle cx="384" cy="452" r="2"></circle><circle cx="398" cy="447" r="2"></circle><circle cx="412" cy="446" r="2"></circle><circle cx="426" cy="455" r="2"></circle><circle cx="440" cy="446" r="2"></circle><circle cx="454" cy="439" r="2"></circle><circle cx="469" cy="439" r="2"></circle><circle cx="483" cy="433" r="2"></circle><circle cx="497" cy="425" r="2"></circle><circle cx="511" cy="428" r="2"></circle><circle cx="525" cy="431" r="2"></circle><circle cx="539" cy="424" r="2"></circle><circle cx="553" cy="421" r="2"></circle><circle cx="567" cy="421" r="2"></circle><circle cx="581" cy="412" r="2"></circle><circle cx="595" cy="395" r="2"></circle><circle cx="609" cy="396" r="2"></circle><circle cx="623" cy="408" r="2"></circle><circle cx="637" cy="403" r="2"></circle><circle cx="651" cy="408" r="2"></circle><circle cx="665" cy="407" r="2"></circle><circle cx="679" cy="416" r="2"></circle><circle cx="693" cy="408" r="2"></circle><circle cx="707" cy="403" r="2"></circle></g></g><g class="key-United-Kingdom_0"><path stroke="#a652ba" stroke-linecap="round" d="M75 440L89 437L103 437L117 430L131 432L146 423L160 420L174 416L188 405L202 401L216 397L230 412L244 416L258 417L272 421L286 420L300 406L314 394L328 372L342 382L356 389L370 394L384 392L398 390L412 345L426 391L440 383L454 348L469 325L483 367L497 364L511 376L525 363L539 345L553 338L567 308L581 325L595 290L609 357L623 424L637 370L651 353L665 390L679 386L693 362L707 359" fill="none" stroke-width="1.5"></path><g fill="#a652ba"><circle cx="75" cy="440" r="2"></circle><circle cx="89" cy="437" r="2"></circle><circle cx="103" cy="437" r="2"></circle><circle cx="117" cy="430" r="2"></circle><circle cx="131" cy="432" r="2"></circle><circle cx="146" cy="423" r="2"></circle><circle cx="160" cy="420" r="2"></circle><circle cx="174" cy="416" r="2"></circle><circle cx="188" cy="405" r="2"></circle><circle cx="202" cy="401" r="2"></circle><circle cx="216" cy="397" r="2"></circle><circle cx="230" cy="412" r="2"></circle><circle cx="244" cy="416" r="2"></circle><circle cx="258" cy="417" r="2"></circle><circle cx="272" cy="421" r="2"></circle><circle cx="286" cy="420" r="2"></circle><circle cx="300" cy="406" r="2"></circle><circle cx="314" cy="394" r="2"></circle><circle cx="328" cy="372" r="2"></circle><circle cx="342" cy="382" r="2"></circle><circle cx="356" cy="389" r="2"></circle><circle cx="370" cy="394" r="2"></circle><circle cx="384" cy="392" r="2"></circle><circle cx="398" cy="390" r="2"></circle><circle cx="412" cy="345" r="2"></circle><circle cx="426" cy="391" r="2"></circle><circle cx="440" cy="383" r="2"></circle><circle cx="454" cy="348" r="2"></circle><circle cx="469" cy="325" r="2"></circle><circle cx="483" cy="367" r="2"></circle><circle cx="497" cy="364" r="2"></circle><circle cx="511" cy="376" r="2"></circle><circle cx="525" cy="363" r="2"></circle><circle cx="539" cy="345" r="2"></circle><circle cx="553" cy="338" r="2"></circle><circle cx="567" cy="308" r="2"></circle><circle cx="581" cy="325" r="2"></circle><circle cx="595" cy="290" r="2"></circle><circle cx="609" cy="357" r="2"></circle><circle cx="623" cy="424" r="2"></circle><circle cx="637" cy="370" r="2"></circle><circle cx="651" cy="353" r="2"></circle><circle cx="665" cy="390" r="2"></circle><circle cx="679" cy="386" r="2"></circle><circle cx="693" cy="362" r="2"></circle><circle cx="707" cy="359" r="2"></circle></g></g><g class="key-Portugal_0"><path stroke="#ca2628" stroke-linecap="round" d="M146 468L160 462L174 455L188 450L202 444L216 437L230 443L244 449L258 455L272 460L286 456L300 442L314 427L328 416L342 410L356 396L370 394L384 372L398 397L412 403L426 381L440 398L454 394L469 386L483 403L497 427L511 426L525 429L539 429L553 435L567 455L581 469L595 457L609 502L623 499L637 499L651 479L665 475L679 444L693 452L707 450" fill="none" stroke-width="1.5"></path><g fill="#ca2628"><circle cx="146" cy="468" r="2"></circle><circle cx="160" cy="462" r="2"></circle><circle cx="174" cy="455" r="2"></circle><circle cx="188" cy="450" r="2"></circle><circle cx="202" cy="444" r="2"></circle><circle cx="216" cy="437" r="2"></circle><circle cx="230" cy="443" r="2"></circle><circle cx="244" cy="449" r="2"></circle><circle cx="258" cy="455" r="2"></circle><circle cx="272" cy="460" r="2"></circle><circle cx="286" cy="456" r="2"></circle><circle cx="300" cy="442" r="2"></circle><circle cx="314" cy="427" r="2"></circle><circle cx="328" cy="416" r="2"></circle><circle cx="342" cy="410" r="2"></circle><circle cx="356" cy="396" r="2"></circle><circle cx="370" cy="394" r="2"></circle><circle cx="384" cy="372" r="2"></circle><circle cx="398" cy="397" r="2"></circle><circle cx="412" cy="403" r="2"></circle><circle cx="426" cy="381" r="2"></circle><circle cx="440" cy="398" r="2"></circle><circle cx="454" cy="394" r="2"></circle><circle cx="469" cy="386" r="2"></circle><circle cx="483" cy="403" r="2"></circle><circle cx="497" cy="427" r="2"></circle><circle cx="511" cy="426" r="2"></circle><circle cx="525" cy="429" r="2"></circle><circle cx="539" cy="429" r="2"></circle><circle cx="553" cy="435" r="2"></circle><circle cx="567" cy="455" r="2"></circle><circle cx="581" cy="469" r="2"></circle><circle cx="595" cy="457" r="2"></circle><circle cx="609" cy="502" r="2"></circle><circle cx="623" cy="499" r="2"></circle><circle cx="637" cy="499" r="2"></circle><circle cx="651" cy="479" r="2"></circle><circle cx="665" cy="475" r="2"></circle><circle cx="679" cy="444" r="2"></circle><circle cx="693" cy="452" r="2"></circle><circle cx="707" cy="450" r="2"></circle></g></g><g class="key-Congo_0"><path stroke="#3360a9" stroke-linecap="round" d="M188 475L202 478L216 475L230 471L244 456L258 463L272 470L286 477L300 476L314 476L328 486L342 488L356 481L370 482L384 473L398 482L412 477L426 491L440 494L454 489L469 481L483 487L497 488L511 485L525 483L539 493L553 492L567 510L581 535L595 517" fill="none" stroke-width="1.5"></path><g fill="#3360a9"><circle cx="188" cy="475" r="2"></circle><circle cx="202" cy="478" r="2"></circle><circle cx="216" cy="475" r="2"></circle><circle cx="230" cy="471" r="2"></circle><circle cx="244" cy="456" r="2"></circle><circle cx="258" cy="463" r="2"></circle><circle cx="272" cy="470" r="2"></circle><circle cx="286" cy="477" r="2"></circle><circle cx="300" cy="476" r="2"></circle><circle cx="314" cy="476" r="2"></circle><circle cx="328" cy="486" r="2"></circle><circle cx="342" cy="488" r="2"></circle><circle cx="356" cy="481" r="2"></circle><circle cx="370" cy="482" r="2"></circle><circle cx="384" cy="473" r="2"></circle><circle cx="398" cy="482" r="2"></circle><circle cx="412" cy="477" r="2"></circle><circle cx="426" cy="491" r="2"></circle><circle cx="440" cy="494" r="2"></circle><circle cx="454" cy="489" r="2"></circle><circle cx="469" cy="481" r="2"></circle><circle cx="483" cy="487" r="2"></circle><circle cx="497" cy="488" r="2"></circle><circle cx="511" cy="485" r="2"></circle><circle cx="525" cy="483" r="2"></circle><circle cx="539" cy="493" r="2"></circle><circle cx="553" cy="492" r="2"></circle><circle cx="567" cy="510" r="2"></circle><circle cx="581" cy="535" r="2"></circle><circle cx="595" cy="517" r="2"></circle></g></g></g></g></g><g style="fill: #777;" class="SourcesFooter"><g style="fill: #777;" class="clickable"><text font-size="12.60" x="15.0" y="581.6"><tspan x="15" y="581.58">Source: World Bank</tspan></text></g><text font-size="12.60" x="649.0" y="581.6"><tspan x="649.024" y="581.58"><a target='_blank' style='fill: #777;' href='https://ourworldindata.org'>OurWorldInData.org</a> • <a style="fill: #777;" href="http://creativecommons.org/licenses/by-sa/4.0/deed.en_US" target="_blank">CC BY-SA</a></tspan></text></g></g></svg>