<svg xmlns="http://www.w3.org/2000/svg" version="1.1" style="font-family:&#x27;Helvetica Neue&#x27;, Helvetica, Arial, sans-serif;font-size:18px;background-color:white;text-rendering:optimizeLegibility;-webkit-font-smoothing:antialiased" width="850" height="600"><g class="ChartTab"><g class="HeaderView"><g opacity="0.8" transform="translate(778, 15) scale(0.27)"><a xmlns:xlink="http://www.w3.org/1999/xlink" xlink:href="https://ourworldindata.org" target="_blank"><g><rect x="0" y="0" fill="#1B2543" width="211.2" height="130.1"/><rect x="0" y="112.2" fill="#E63912" width="211.2" height="17.9"/><g><rect x="1.2" y="12.3" fill="none" width="210.2" height="99.2"/><path fill="#FFFFFF" d="M37.8,32.2c0,12.7-7.7,19.4-17.1,19.4c-9.7,0-16.6-7.5-16.6-18.7c0-11.7,7.3-19.3,17.1-19.3 C31.3,13.7,37.8,21.3,37.8,32.2z M9.2,32.8c0,7.9,4.3,14.9,11.8,14.9c7.5,0,11.8-6.9,11.8-15.3c0-7.3-3.8-14.9-11.8-14.9 C13.1,17.5,9.2,24.8,9.2,32.8z"/><path fill="#FFFFFF" d="M62.7,43.8c0,2.7,0.1,5.1,0.2,7.2h-4.3l-0.3-4.3h-0.1c-1.3,2.1-4,4.9-8.8,4.9c-4.2,0-9.1-2.3-9.1-11.6 V24.6h4.8v14.6c0,5,1.5,8.4,5.9,8.4c3.2,0,5.5-2.2,6.3-4.4c0.3-0.7,0.4-1.6,0.4-2.5V24.6h4.8V43.8z"/><path fill="#FFFFFF" d="M67.3,32.8c0-3.1-0.1-5.8-0.2-8.2h4.2l0.2,5.2h0.2c1.2-3.5,4.1-5.8,7.3-5.8c0.5,0,0.9,0.1,1.4,0.2v4.5 c-0.5-0.1-1-0.2-1.6-0.2c-3.4,0-5.8,2.6-6.5,6.2c-0.1,0.7-0.2,1.4-0.2,2.2V51h-4.8V32.8z"/><path fill="#FFFFFF" d="M95.4,51l-9.4-36.8h5l4.4,18.6c1.1,4.6,2.1,9.2,2.7,12.7h0.1c0.6-3.7,1.8-8,3-12.8l4.9-18.5h5l4.5,18.7 c1,4.4,2,8.7,2.6,12.6h0.1c0.8-4,1.8-8.1,3-12.7l4.9-18.5h4.9L120.6,51h-5L111,31.9c-1.1-4.7-1.9-8.3-2.4-12h-0.1 c-0.7,3.7-1.5,7.3-2.8,12L100.4,51H95.4z"/><path fill="#FFFFFF" d="M154.9,37.6c0,9.8-6.8,14-13.2,14c-7.2,0-12.7-5.2-12.7-13.6c0-8.8,5.8-14,13.1-14 C149.8,24,154.9,29.5,154.9,37.6z M133.9,37.9c0,5.8,3.3,10.1,8,10.1c4.6,0,8-4.3,8-10.3c0-4.5-2.2-10.1-7.9-10.1 C136.3,27.6,133.9,32.8,133.9,37.9z"/><path fill="#FFFFFF" d="M158.2,32.8c0-3.1-0.1-5.8-0.2-8.2h4.2l0.2,5.2h0.2c1.2-3.5,4.1-5.8,7.3-5.8c0.5,0,0.9,0.1,1.4,0.2v4.5 c-0.5-0.1-1-0.2-1.6-0.2c-3.4,0-5.8,2.6-6.5,6.2c-0.1,0.7-0.2,1.4-0.2,2.2V51h-4.8V32.8z"/><path fill="#FFFFFF" d="M173.5,12.3h4.8V51h-4.8V12.3z"/><path fill="#FFFFFF" d="M206.5,12.3v31.9c0,2.3,0.1,5,0.2,6.8h-4.3l-0.2-4.6H202c-1.5,2.9-4.7,5.2-9,5.2 c-6.4,0-11.3-5.4-11.3-13.4c-0.1-8.8,5.4-14.2,11.9-14.2c4,0,6.8,1.9,8,4h0.1V12.3H206.5z M201.7,35.4c0-0.6-0.1-1.4-0.2-2 c-0.7-3.1-3.3-5.6-6.9-5.6c-5,0-7.9,4.4-7.9,10.2c0,5.3,2.6,9.8,7.8,9.8c3.2,0,6.2-2.1,7.1-5.7c0.2-0.7,0.2-1.3,0.2-2.1V35.4z"/><path fill="#FFFFFF" d="M42.8,64c0.1,1.6-1.1,2.9-3.1,2.9c-1.7,0-2.9-1.3-2.9-2.9c0-1.7,1.3-3,3-3C41.7,61,42.8,62.3,42.8,64z M37.4,97.8V71.4h4.8v26.4H37.4z"/><path fill="#FFFFFF" d="M47.5,78.6c0-2.7-0.1-5-0.2-7.1h4.3l0.3,4.4h0.1c1.3-2.5,4.4-5,8.8-5c3.7,0,9.4,2.2,9.4,11.2v15.8h-4.8 V82.6c0-4.3-1.6-7.8-6.1-7.8c-3.2,0-5.6,2.2-6.5,4.9c-0.2,0.6-0.3,1.4-0.3,2.2v15.9h-4.8V78.6z"/><path fill="#FFFFFF" d="M84,61.6c2.9-0.4,6.3-0.8,10.1-0.8c6.8,0,11.7,1.6,14.9,4.6c3.3,3,5.2,7.3,5.2,13.2c0,6-1.9,10.9-5.3,14.3 c-3.4,3.4-9.1,5.3-16.3,5.3c-3.4,0-6.2-0.2-8.6-0.4V61.6z M88.8,94.1c1.2,0.2,3,0.3,4.8,0.3c10.2,0,15.7-5.7,15.7-15.6 c0.1-8.7-4.9-14.2-14.9-14.2c-2.5,0-4.3,0.2-5.6,0.5V94.1z"/><path fill="#FFFFFF" d="M132.1,97.8l-0.4-3.3h-0.2c-1.5,2.1-4.3,3.9-8.1,3.9c-5.4,0-8.1-3.8-8.1-7.6c0-6.4,5.7-9.9,15.9-9.8v-0.5 c0-2.2-0.6-6.1-6-6.1c-2.5,0-5,0.8-6.9,2l-1.1-3.2c2.2-1.4,5.4-2.3,8.7-2.3c8.1,0,10.1,5.5,10.1,10.8v9.9c0,2.3,0.1,4.5,0.4,6.3 H132.1z M131.4,84.4c-5.3-0.1-11.2,0.8-11.2,5.9c0,3.1,2.1,4.6,4.5,4.6c3.4,0,5.6-2.2,6.4-4.4c0.2-0.5,0.3-1,0.3-1.5V84.4z"/><path fill="#FFFFFF" d="M146.6,63.9v7.6h6.9v3.7h-6.9v14.2c0,3.3,0.9,5.1,3.6,5.1c1.3,0,2.2-0.2,2.8-0.3l0.2,3.6 c-0.9,0.4-2.4,0.7-4.3,0.7c-2.2,0-4-0.7-5.2-2c-1.4-1.4-1.9-3.8-1.9-6.9V75.1h-4.1v-3.7h4.1v-6.3L146.6,63.9z"/><path fill="#FFFFFF" d="M171.4,97.8l-0.4-3.3h-0.2c-1.5,2.1-4.3,3.9-8.1,3.9c-5.4,0-8.1-3.8-8.1-7.6c0-6.4,5.7-9.9,15.9-9.8v-0.5 c0-2.2-0.6-6.1-6-6.1c-2.5,0-5,0.8-6.9,2l-1.1-3.2c2.2-1.4,5.4-2.3,8.7-2.3c8.1,0,10.1,5.5,10.1,10.8v9.9c0,2.3,0.1,4.5,0.4,6.3 H171.4z M170.7,84.4c-5.3-0.1-11.2,0.8-11.2,5.9c0,3.1,2.1,4.6,4.5,4.6c3.4,0,5.6-2.2,6.4-4.4c0.2-0.5,0.3-1,0.3-1.5V84.4z"/></g></g></a></g><a href="https://ourworldindata.org/grapher/age-standardized-death-rate-from-non-communicable-diseases" target="_blank"><text font-size="21.60" x="15.0" y="32.3" fill="#555"><tspan x="15" y="32.279999999999994">Age-standardized death rate from non-communicable diseases, United</tspan><tspan x="15" y="53.87999999999999">Kingdom</tspan></text></a><text font-size="14.40" x="15.0" y="72.7" fill="#666"><tspan x="15" y="72.72">The age-standardized death rate measures the number of deaths per 100,000 individuals, corrected for age differences by</tspan><tspan x="15" y="88.56">normalising to a constant, reference population distribution. The age-standardization death rate therefore corrects for both</tspan><tspan x="15" y="104.4">changes/differences in population sizes, and the influence of a young or aging population.</tspan></text></g><g class="LineChart"><defs><clipPath id="boundsClip-43"><rect x="37.216" y="0" width="830" height="859.8"></rect></clipPath></defs><g class="AxisBoxView"><g class="HorizontalAxis"><text x="47.2" y="556.5" fill="#666" text-anchor="middle" font-size="16.2">1990</text><text x="146.9" y="556.5" fill="#666" text-anchor="middle" font-size="16.2">1995</text><text x="246.6" y="556.5" fill="#666" text-anchor="middle" font-size="16.2">2000</text><text x="346.2" y="556.5" fill="#666" text-anchor="middle" font-size="16.2">2005</text><text x="445.9" y="556.5" fill="#666" text-anchor="middle" font-size="16.2">2010</text><text x="565.5" y="556.5" fill="#666" text-anchor="middle" font-size="16.2">2016</text></g><g class="VerticalAxis"><text x="42.22" y="535.3" fill="#666" dominant-baseline="middle" text-anchor="end" font-size="16.2">0</text><text x="42.22" y="476.1" fill="#666" dominant-baseline="middle" text-anchor="end" font-size="16.2">50</text><text x="42.22" y="416.8" fill="#666" dominant-baseline="middle" text-anchor="end" font-size="16.2">100</text><text x="42.22" y="357.6" fill="#666" dominant-baseline="middle" text-anchor="end" font-size="16.2">150</text><text x="42.22" y="298.3" fill="#666" dominant-baseline="middle" text-anchor="end" font-size="16.2">200</text><text x="42.22" y="239.1" fill="#666" dominant-baseline="middle" text-anchor="end" font-size="16.2">250</text><text x="42.22" y="179.8" fill="#666" dominant-baseline="middle" text-anchor="end" font-size="16.2">300</text></g><g class="AxisGridLines"><line x1="47.22" y1="535.3" x2="565.50" y2="535.3" stroke="#ccc"></line><line x1="47.22" y1="476.1" x2="565.50" y2="476.1" stroke="#ddd" stroke-dasharray="3,2"></line><line x1="47.22" y1="416.8" x2="565.50" y2="416.8" stroke="#ddd" stroke-dasharray="3,2"></line><line x1="47.22" y1="357.6" x2="565.50" y2="357.6" stroke="#ddd" stroke-dasharray="3,2"></line><line x1="47.22" y1="298.3" x2="565.50" y2="298.3" stroke="#ddd" stroke-dasharray="3,2"></line><line x1="47.22" y1="239.1" x2="565.50" y2="239.1" stroke="#ddd" stroke-dasharray="3,2"></line><line x1="47.22" y1="179.8" x2="565.50" y2="179.8" stroke="#ddd" stroke-dasharray="3,2"></line></g></g><g clip-path="url(#boundsClip-43)"><g class="HeightedLegend clickable"><g class="legendMark"><g class="indicator"><line x1="570.505" y1="535.2" x2="593.005" y2="535.2" stroke="#666" stroke-width="0.5"></line><line x1="593.005" y1="535.2" x2="593.005" y2="528.55" stroke="#666" stroke-width="0.5"></line><line x1="593.005" y1="528.55" x2="595.505" y2="528.55" stroke="#666" stroke-width="0.5"></line></g><rect x="565.505" y="521.8" width="87.65" height="13.5" fill="#fff" opacity="0"></rect><text font-size="13.50" x="600.5" y="532.6" fill="#3360a9"><tspan x="600.505" y="532.5999999999999">Hepatitis</tspan></text></g><g class="legendMark"><g class="indicator"><line x1="570.505" y1="534.8" x2="591.005" y2="534.8" stroke="#666" stroke-width="0.5"></line><line x1="591.005" y1="534.8" x2="591.005" y2="513.05" stroke="#666" stroke-width="0.5"></line><line x1="591.005" y1="513.05" x2="595.505" y2="513.05" stroke="#666" stroke-width="0.5"></line></g><rect x="565.505" y="506.29999999999995" width="95.885" height="13.5" fill="#fff" opacity="0"></rect><text font-size="13.50" x="600.5" y="517.1" fill="#ca2628"><tspan x="600.505" y="517.0999999999999">Meningitis</tspan></text></g><g class="legendMark"><g class="indicator"><line x1="570.505" y1="530.4" x2="589.005" y2="530.4" stroke="#666" stroke-width="0.5"></line><line x1="589.005" y1="530.4" x2="589.005" y2="497.54999999999995" stroke="#666" stroke-width="0.5"></line><line x1="589.005" y1="497.54999999999995" x2="595.505" y2="497.54999999999995" stroke="#666" stroke-width="0.5"></line></g><rect x="565.505" y="490.79999999999995" width="155.01500000000001" height="13.5" fill="#fff" opacity="0"></rect><text font-size="13.50" x="600.5" y="501.6" fill="#34983f"><tspan x="600.505" y="501.59999999999997">Parkinson&#x27;s disease</tspan></text></g><g class="legendMark"><g class="indicator"><line x1="570.505" y1="529.1" x2="587.005" y2="529.1" stroke="#666" stroke-width="0.5"></line><line x1="587.005" y1="529.1" x2="587.005" y2="482.04999999999995" stroke="#666" stroke-width="0.5"></line><line x1="587.005" y1="482.04999999999995" x2="595.505" y2="482.04999999999995" stroke="#666" stroke-width="0.5"></line></g><rect x="565.505" y="475.29999999999995" width="126.935" height="13.5" fill="#fff" opacity="0"></rect><text font-size="13.50" x="600.5" y="486.1" fill="#f6a324"><tspan x="600.505" y="486.09999999999997">Kidney disease</tspan></text></g><g class="legendMark"><g class="indicator"><line x1="570.505" y1="522.7" x2="585.005" y2="522.7" stroke="#666" stroke-width="0.5"></line><line x1="585.005" y1="522.7" x2="585.005" y2="466.54999999999995" stroke="#666" stroke-width="0.5"></line><line x1="585.005" y1="466.54999999999995" x2="595.505" y2="466.54999999999995" stroke="#666" stroke-width="0.5"></line></g><rect x="565.505" y="459.79999999999995" width="114.78500000000001" height="13.5" fill="#fff" opacity="0"></rect><text font-size="13.50" x="600.5" y="470.6" fill="#a652ba"><tspan x="600.505" y="470.59999999999997">Liver disease</tspan></text></g><g class="legendMark"><g class="indicator"><line x1="570.505" y1="516.7" x2="583.005" y2="516.7" stroke="#666" stroke-width="0.5"></line><line x1="583.005" y1="516.7" x2="583.005" y2="451.04999999999995" stroke="#666" stroke-width="0.5"></line><line x1="583.005" y1="451.04999999999995" x2="595.505" y2="451.04999999999995" stroke="#666" stroke-width="0.5"></line></g><rect x="565.505" y="444.29999999999995" width="141.11" height="13.5" fill="#fff" opacity="0"></rect><text font-size="13.50" x="600.5" y="455.1" fill="#2a939b"><tspan x="600.505" y="455.09999999999997">Digestive disease</tspan></text></g><g class="legendMark"><g class="indicator"><line x1="570.505" y1="513.6" x2="581.005" y2="513.6" stroke="#666" stroke-width="0.5"></line><line x1="581.005" y1="513.6" x2="581.005" y2="435.54999999999995" stroke="#666" stroke-width="0.5"></line><line x1="581.005" y1="435.54999999999995" x2="595.505" y2="435.54999999999995" stroke="#666" stroke-width="0.5"></line></g><rect x="565.505" y="428.79999999999995" width="269.495" height="13.5" fill="#fff" opacity="0"></rect><text font-size="13.50" x="600.5" y="439.6" fill="#e6332e"><tspan x="600.505" y="439.59999999999997">Diabetes, blood and endocrine disease</tspan></text></g><g class="legendMark"><g class="indicator"><line x1="570.505" y1="491.9" x2="579.005" y2="491.9" stroke="#666" stroke-width="0.5"></line><line x1="579.005" y1="491.9" x2="579.005" y2="420.04999999999995" stroke="#666" stroke-width="0.5"></line><line x1="579.005" y1="420.04999999999995" x2="595.505" y2="420.04999999999995" stroke="#666" stroke-width="0.5"></line></g><rect x="565.505" y="413.29999999999995" width="74.15" height="13.5" fill="#fff" opacity="0"></rect><text font-size="13.50" x="600.5" y="424.1" fill="#9ecc8a"><tspan x="600.505" y="424.09999999999997">Stroke</tspan></text></g><g class="legendMark"><g class="indicator"><line x1="570.505" y1="491.3" x2="577.005" y2="491.3" stroke="#666" stroke-width="0.5"></line><line x1="577.005" y1="491.3" x2="577.005" y2="404.54999999999995" stroke="#666" stroke-width="0.5"></line><line x1="577.005" y1="404.54999999999995" x2="595.505" y2="404.54999999999995" stroke="#666" stroke-width="0.5"></line></g><rect x="565.505" y="397.79999999999995" width="154.61" height="13.5" fill="#fff" opacity="0"></rect><text font-size="13.50" x="600.5" y="408.6" fill="#ffd53e"><tspan x="600.505" y="408.59999999999997">Respiratory disease</tspan></text></g><g class="legendMark"><g class="indicator"><line x1="570.505" y1="486" x2="575.005" y2="486" stroke="#666" stroke-width="0.5"></line><line x1="575.005" y1="486" x2="575.005" y2="389.04999999999995" stroke="#666" stroke-width="0.5"></line><line x1="575.005" y1="389.04999999999995" x2="595.505" y2="389.04999999999995" stroke="#666" stroke-width="0.5"></line></g><rect x="565.505" y="382.29999999999995" width="92.915" height="13.5" fill="#fff" opacity="0"></rect><text font-size="13.50" x="600.5" y="393.1" fill="#b077b1"><tspan x="600.505" y="393.09999999999997">Dementia</tspan></text></g><g class="legendMark"><g class="indicator"><line x1="570.505" y1="363.5" x2="583.005" y2="363.5" stroke="#666" stroke-width="0.5"></line><line x1="583.005" y1="363.5" x2="583.005" y2="363.5" stroke="#666" stroke-width="0.5"></line><line x1="583.005" y1="363.5" x2="595.505" y2="363.5" stroke="#666" stroke-width="0.5"></line></g><rect x="565.505" y="356.75" width="182.42000000000002" height="13.5" fill="#fff" opacity="0"></rect><text font-size="13.50" x="600.5" y="367.6" fill="#7ec7ce"><tspan x="600.505" y="367.55">Cardiovascular diseases</tspan></text></g><g class="legendMark"><g class="indicator"><line x1="570.505" y1="347.1" x2="583.005" y2="347.1" stroke="#666" stroke-width="0.5"></line><line x1="583.005" y1="347.1" x2="583.005" y2="347.1" stroke="#666" stroke-width="0.5"></line><line x1="583.005" y1="347.1" x2="595.505" y2="347.1" stroke="#666" stroke-width="0.5"></line></g><rect x="565.505" y="340.35" width="85.355" height="13.5" fill="#fff" opacity="0"></rect><text font-size="13.50" x="600.5" y="351.2" fill="#e6332e"><tspan x="600.505" y="351.15000000000003">Cancers</tspan></text></g></g><g class="Lines"><rect x="47" y="127" width="518" height="409" fill="rgba(255,255,255,0)" opacity="0"></rect><g class="key-United-Kingdom_0"><path stroke="#b077b1" stroke-linecap="round" d="M47 482L67 483L87 483L107 482L127 483L147 483L167 483L187 483L207 483L227 483L247 483L267 484L286 484L306 484L326 485L346 485L366 486L386 486L406 486L426 486L446 486L466 486L486 486L506 486L526 486L546 486L566 486" fill="none" stroke-width="1.5"></path><g fill="#b077b1"><circle cx="47" cy="482" r="2"></circle><circle cx="67" cy="483" r="2"></circle><circle cx="87" cy="483" r="2"></circle><circle cx="107" cy="482" r="2"></circle><circle cx="127" cy="483" r="2"></circle><circle cx="147" cy="483" r="2"></circle><circle cx="167" cy="483" r="2"></circle><circle cx="187" cy="483" r="2"></circle><circle cx="207" cy="483" r="2"></circle><circle cx="227" cy="483" r="2"></circle><circle cx="247" cy="483" r="2"></circle><circle cx="267" cy="484" r="2"></circle><circle cx="286" cy="484" r="2"></circle><circle cx="306" cy="484" r="2"></circle><circle cx="326" cy="485" r="2"></circle><circle cx="346" cy="485" r="2"></circle><circle cx="366" cy="486" r="2"></circle><circle cx="386" cy="486" r="2"></circle><circle cx="406" cy="486" r="2"></circle><circle cx="426" cy="486" r="2"></circle><circle cx="446" cy="486" r="2"></circle><circle cx="466" cy="486" r="2"></circle><circle cx="486" cy="486" r="2"></circle><circle cx="506" cy="486" r="2"></circle><circle cx="526" cy="486" r="2"></circle><circle cx="546" cy="486" r="2"></circle><circle cx="566" cy="486" r="2"></circle></g></g><g class="key-United-Kingdom_1"><path stroke="#7ec7ce" stroke-linecap="round" d="M47 127L67 136L87 147L107 153L127 168L147 177L167 190L187 202L207 213L227 223L247 238L267 249L286 259L306 269L326 283L346 296L366 309L386 319L406 329L426 339L446 347L466 354L486 357L506 360L526 363L546 364L566 364" fill="none" stroke-width="1.5"></path><g fill="#7ec7ce"><circle cx="47" cy="127" r="2"></circle><circle cx="67" cy="136" r="2"></circle><circle cx="87" cy="147" r="2"></circle><circle cx="107" cy="153" r="2"></circle><circle cx="127" cy="168" r="2"></circle><circle cx="147" cy="177" r="2"></circle><circle cx="167" cy="190" r="2"></circle><circle cx="187" cy="202" r="2"></circle><circle cx="207" cy="213" r="2"></circle><circle cx="227" cy="223" r="2"></circle><circle cx="247" cy="238" r="2"></circle><circle cx="267" cy="249" r="2"></circle><circle cx="286" cy="259" r="2"></circle><circle cx="306" cy="269" r="2"></circle><circle cx="326" cy="283" r="2"></circle><circle cx="346" cy="296" r="2"></circle><circle cx="366" cy="309" r="2"></circle><circle cx="386" cy="319" r="2"></circle><circle cx="406" cy="329" r="2"></circle><circle cx="426" cy="339" r="2"></circle><circle cx="446" cy="347" r="2"></circle><circle cx="466" cy="354" r="2"></circle><circle cx="486" cy="357" r="2"></circle><circle cx="506" cy="360" r="2"></circle><circle cx="526" cy="363" r="2"></circle><circle cx="546" cy="364" r="2"></circle><circle cx="566" cy="364" r="2"></circle></g></g><g class="key-United-Kingdom_10"><path stroke="#e6332e" stroke-linecap="round" d="M47 301L67 302L87 304L107 304L127 307L147 309L167 311L187 314L207 317L227 319L247 322L267 324L286 325L306 327L326 330L346 332L366 335L386 338L406 340L426 342L446 344L466 345L486 345L506 346L526 346L546 347L566 347" fill="none" stroke-width="1.5"></path><g fill="#e6332e"><circle cx="47" cy="301" r="2"></circle><circle cx="67" cy="302" r="2"></circle><circle cx="87" cy="304" r="2"></circle><circle cx="107" cy="304" r="2"></circle><circle cx="127" cy="307" r="2"></circle><circle cx="147" cy="309" r="2"></circle><circle cx="167" cy="311" r="2"></circle><circle cx="187" cy="314" r="2"></circle><circle cx="207" cy="317" r="2"></circle><circle cx="227" cy="319" r="2"></circle><circle cx="247" cy="322" r="2"></circle><circle cx="267" cy="324" r="2"></circle><circle cx="286" cy="325" r="2"></circle><circle cx="306" cy="327" r="2"></circle><circle cx="326" cy="330" r="2"></circle><circle cx="346" cy="332" r="2"></circle><circle cx="366" cy="335" r="2"></circle><circle cx="386" cy="338" r="2"></circle><circle cx="406" cy="340" r="2"></circle><circle cx="426" cy="342" r="2"></circle><circle cx="446" cy="344" r="2"></circle><circle cx="466" cy="345" r="2"></circle><circle cx="486" cy="345" r="2"></circle><circle cx="506" cy="346" r="2"></circle><circle cx="526" cy="346" r="2"></circle><circle cx="546" cy="347" r="2"></circle><circle cx="566" cy="347" r="2"></circle></g></g><g class="key-United-Kingdom_11"><path stroke="#34983f" stroke-linecap="round" d="M47 532L67 532L87 532L107 532L127 532L147 531L167 531L187 531L207 531L227 531L247 531L267 531L286 531L306 531L326 531L346 531L366 531L386 531L406 531L426 531L446 531L466 531L486 531L506 531L526 531L546 531L566 530" fill="none" stroke-width="1.5"></path><g fill="#34983f"><circle cx="47" cy="532" r="2"></circle><circle cx="67" cy="532" r="2"></circle><circle cx="87" cy="532" r="2"></circle><circle cx="107" cy="532" r="2"></circle><circle cx="127" cy="532" r="2"></circle><circle cx="147" cy="531" r="2"></circle><circle cx="167" cy="531" r="2"></circle><circle cx="187" cy="531" r="2"></circle><circle cx="207" cy="531" r="2"></circle><circle cx="227" cy="531" r="2"></circle><circle cx="247" cy="531" r="2"></circle><circle cx="267" cy="531" r="2"></circle><circle cx="286" cy="531" r="2"></circle><circle cx="306" cy="531" r="2"></circle><circle cx="326" cy="531" r="2"></circle><circle cx="346" cy="531" r="2"></circle><circle cx="366" cy="531" r="2"></circle><circle cx="386" cy="531" r="2"></circle><circle cx="406" cy="531" r="2"></circle><circle cx="426" cy="531" r="2"></circle><circle cx="446" cy="531" r="2"></circle><circle cx="466" cy="531" r="2"></circle><circle cx="486" cy="531" r="2"></circle><circle cx="506" cy="531" r="2"></circle><circle cx="526" cy="531" r="2"></circle><circle cx="546" cy="531" r="2"></circle><circle cx="566" cy="530" r="2"></circle></g></g><g class="key-United-Kingdom_2"><path stroke="#9ecc8a" stroke-linecap="round" d="M47 444L67 446L87 450L107 452L127 456L147 458L167 460L187 463L207 464L227 466L247 468L267 469L286 470L306 471L326 474L346 477L366 480L386 482L406 484L426 486L446 488L466 490L486 490L506 491L526 491L546 492L566 492" fill="none" stroke-width="1.5"></path><g fill="#9ecc8a"><circle cx="47" cy="444" r="2"></circle><circle cx="67" cy="446" r="2"></circle><circle cx="87" cy="450" r="2"></circle><circle cx="107" cy="452" r="2"></circle><circle cx="127" cy="456" r="2"></circle><circle cx="147" cy="458" r="2"></circle><circle cx="167" cy="460" r="2"></circle><circle cx="187" cy="463" r="2"></circle><circle cx="207" cy="464" r="2"></circle><circle cx="227" cy="466" r="2"></circle><circle cx="247" cy="468" r="2"></circle><circle cx="267" cy="469" r="2"></circle><circle cx="286" cy="470" r="2"></circle><circle cx="306" cy="471" r="2"></circle><circle cx="326" cy="474" r="2"></circle><circle cx="346" cy="477" r="2"></circle><circle cx="366" cy="480" r="2"></circle><circle cx="386" cy="482" r="2"></circle><circle cx="406" cy="484" r="2"></circle><circle cx="426" cy="486" r="2"></circle><circle cx="446" cy="488" r="2"></circle><circle cx="466" cy="490" r="2"></circle><circle cx="486" cy="490" r="2"></circle><circle cx="506" cy="491" r="2"></circle><circle cx="526" cy="491" r="2"></circle><circle cx="546" cy="492" r="2"></circle><circle cx="566" cy="492" r="2"></circle></g></g><g class="key-United-Kingdom_3"><path stroke="#f6a324" stroke-linecap="round" d="M47 528L67 528L87 529L107 529L127 529L147 529L167 529L187 529L207 529L227 529L247 529L267 529L286 529L306 529L326 529L346 529L366 529L386 529L406 529L426 529L446 529L466 529L486 529L506 529L526 529L546 529L566 529" fill="none" stroke-width="1.5"></path><g fill="#f6a324"><circle cx="47" cy="528" r="2"></circle><circle cx="67" cy="528" r="2"></circle><circle cx="87" cy="529" r="2"></circle><circle cx="107" cy="529" r="2"></circle><circle cx="127" cy="529" r="2"></circle><circle cx="147" cy="529" r="2"></circle><circle cx="167" cy="529" r="2"></circle><circle cx="187" cy="529" r="2"></circle><circle cx="207" cy="529" r="2"></circle><circle cx="227" cy="529" r="2"></circle><circle cx="247" cy="529" r="2"></circle><circle cx="267" cy="529" r="2"></circle><circle cx="286" cy="529" r="2"></circle><circle cx="306" cy="529" r="2"></circle><circle cx="326" cy="529" r="2"></circle><circle cx="346" cy="529" r="2"></circle><circle cx="366" cy="529" r="2"></circle><circle cx="386" cy="529" r="2"></circle><circle cx="406" cy="529" r="2"></circle><circle cx="426" cy="529" r="2"></circle><circle cx="446" cy="529" r="2"></circle><circle cx="466" cy="529" r="2"></circle><circle cx="486" cy="529" r="2"></circle><circle cx="506" cy="529" r="2"></circle><circle cx="526" cy="529" r="2"></circle><circle cx="546" cy="529" r="2"></circle><circle cx="566" cy="529" r="2"></circle></g></g><g class="key-United-Kingdom_4"><path stroke="#ffd53e" stroke-linecap="round" d="M47 484L67 485L87 485L107 484L127 485L147 485L167 485L187 485L207 485L227 485L247 485L267 486L286 485L306 485L326 486L346 486L366 487L386 488L406 489L426 490L446 490L466 490L486 490L506 490L526 491L546 491L566 491" fill="none" stroke-width="1.5"></path><g fill="#ffd53e"><circle cx="47" cy="484" r="2"></circle><circle cx="67" cy="485" r="2"></circle><circle cx="87" cy="485" r="2"></circle><circle cx="107" cy="484" r="2"></circle><circle cx="127" cy="485" r="2"></circle><circle cx="147" cy="485" r="2"></circle><circle cx="167" cy="485" r="2"></circle><circle cx="187" cy="485" r="2"></circle><circle cx="207" cy="485" r="2"></circle><circle cx="227" cy="485" r="2"></circle><circle cx="247" cy="485" r="2"></circle><circle cx="267" cy="486" r="2"></circle><circle cx="286" cy="485" r="2"></circle><circle cx="306" cy="485" r="2"></circle><circle cx="326" cy="486" r="2"></circle><circle cx="346" cy="486" r="2"></circle><circle cx="366" cy="487" r="2"></circle><circle cx="386" cy="488" r="2"></circle><circle cx="406" cy="489" r="2"></circle><circle cx="426" cy="490" r="2"></circle><circle cx="446" cy="490" r="2"></circle><circle cx="466" cy="490" r="2"></circle><circle cx="486" cy="490" r="2"></circle><circle cx="506" cy="490" r="2"></circle><circle cx="526" cy="491" r="2"></circle><circle cx="546" cy="491" r="2"></circle><circle cx="566" cy="491" r="2"></circle></g></g><g class="key-United-Kingdom_5"><path stroke="#a652ba" stroke-linecap="round" d="M47 528L67 527L87 527L107 527L127 527L147 526L167 526L187 525L207 525L227 524L247 524L267 523L286 523L306 522L326 522L346 522L366 522L386 522L406 522L426 522L446 522L466 522L486 523L506 523L526 523L546 523L566 523" fill="none" stroke-width="1.5"></path><g fill="#a652ba"><circle cx="47" cy="528" r="2"></circle><circle cx="67" cy="527" r="2"></circle><circle cx="87" cy="527" r="2"></circle><circle cx="107" cy="527" r="2"></circle><circle cx="127" cy="527" r="2"></circle><circle cx="147" cy="526" r="2"></circle><circle cx="167" cy="526" r="2"></circle><circle cx="187" cy="525" r="2"></circle><circle cx="207" cy="525" r="2"></circle><circle cx="227" cy="524" r="2"></circle><circle cx="247" cy="524" r="2"></circle><circle cx="267" cy="523" r="2"></circle><circle cx="286" cy="523" r="2"></circle><circle cx="306" cy="522" r="2"></circle><circle cx="326" cy="522" r="2"></circle><circle cx="346" cy="522" r="2"></circle><circle cx="366" cy="522" r="2"></circle><circle cx="386" cy="522" r="2"></circle><circle cx="406" cy="522" r="2"></circle><circle cx="426" cy="522" r="2"></circle><circle cx="446" cy="522" r="2"></circle><circle cx="466" cy="522" r="2"></circle><circle cx="486" cy="523" r="2"></circle><circle cx="506" cy="523" r="2"></circle><circle cx="526" cy="523" r="2"></circle><circle cx="546" cy="523" r="2"></circle><circle cx="566" cy="523" r="2"></circle></g></g><g class="key-United-Kingdom_6"><path stroke="#e6332e" stroke-linecap="round" d="M47 508L67 509L87 509L107 510L127 511L147 511L167 511L187 512L207 512L227 511L247 512L267 511L286 511L306 511L326 511L346 511L366 511L386 511L406 511L426 512L446 512L466 513L486 513L506 513L526 514L546 514L566 514" fill="none" stroke-width="1.5"></path><g fill="#e6332e"><circle cx="47" cy="508" r="2"></circle><circle cx="67" cy="509" r="2"></circle><circle cx="87" cy="509" r="2"></circle><circle cx="107" cy="510" r="2"></circle><circle cx="127" cy="511" r="2"></circle><circle cx="147" cy="511" r="2"></circle><circle cx="167" cy="511" r="2"></circle><circle cx="187" cy="512" r="2"></circle><circle cx="207" cy="512" r="2"></circle><circle cx="227" cy="511" r="2"></circle><circle cx="247" cy="512" r="2"></circle><circle cx="267" cy="511" r="2"></circle><circle cx="286" cy="511" r="2"></circle><circle cx="306" cy="511" r="2"></circle><circle cx="326" cy="511" r="2"></circle><circle cx="346" cy="511" r="2"></circle><circle cx="366" cy="511" r="2"></circle><circle cx="386" cy="511" r="2"></circle><circle cx="406" cy="511" r="2"></circle><circle cx="426" cy="512" r="2"></circle><circle cx="446" cy="512" r="2"></circle><circle cx="466" cy="513" r="2"></circle><circle cx="486" cy="513" r="2"></circle><circle cx="506" cy="513" r="2"></circle><circle cx="526" cy="514" r="2"></circle><circle cx="546" cy="514" r="2"></circle><circle cx="566" cy="514" r="2"></circle></g></g><g class="key-United-Kingdom_7"><path stroke="#2a939b" stroke-linecap="round" d="M47 513L67 514L87 514L107 514L127 514L147 514L167 514L187 514L207 514L227 514L247 514L267 514L286 514L306 514L326 514L346 514L366 515L386 515L406 515L426 516L446 516L466 516L486 516L506 517L526 517L546 517L566 517" fill="none" stroke-width="1.5"></path><g fill="#2a939b"><circle cx="47" cy="513" r="2"></circle><circle cx="67" cy="514" r="2"></circle><circle cx="87" cy="514" r="2"></circle><circle cx="107" cy="514" r="2"></circle><circle cx="127" cy="514" r="2"></circle><circle cx="147" cy="514" r="2"></circle><circle cx="167" cy="514" r="2"></circle><circle cx="187" cy="514" r="2"></circle><circle cx="207" cy="514" r="2"></circle><circle cx="227" cy="514" r="2"></circle><circle cx="247" cy="514" r="2"></circle><circle cx="267" cy="514" r="2"></circle><circle cx="286" cy="514" r="2"></circle><circle cx="306" cy="514" r="2"></circle><circle cx="326" cy="514" r="2"></circle><circle cx="346" cy="514" r="2"></circle><circle cx="366" cy="515" r="2"></circle><circle cx="386" cy="515" r="2"></circle><circle cx="406" cy="515" r="2"></circle><circle cx="426" cy="516" r="2"></circle><circle cx="446" cy="516" r="2"></circle><circle cx="466" cy="516" r="2"></circle><circle cx="486" cy="516" r="2"></circle><circle cx="506" cy="517" r="2"></circle><circle cx="526" cy="517" r="2"></circle><circle cx="546" cy="517" r="2"></circle><circle cx="566" cy="517" r="2"></circle></g></g><g class="key-United-Kingdom_8"><path stroke="#3360a9" stroke-linecap="round" d="M47 535L67 535L87 535L107 535L127 535L147 535L167 535L187 535L207 535L227 535L247 535L267 535L286 535L306 535L326 535L346 535L366 535L386 535L406 535L426 535L446 535L466 535L486 535L506 535L526 535L546 535L566 535" fill="none" stroke-width="1.5"></path><g fill="#3360a9"><circle cx="47" cy="535" r="2"></circle><circle cx="67" cy="535" r="2"></circle><circle cx="87" cy="535" r="2"></circle><circle cx="107" cy="535" r="2"></circle><circle cx="127" cy="535" r="2"></circle><circle cx="147" cy="535" r="2"></circle><circle cx="167" cy="535" r="2"></circle><circle cx="187" cy="535" r="2"></circle><circle cx="207" cy="535" r="2"></circle><circle cx="227" cy="535" r="2"></circle><circle cx="247" cy="535" r="2"></circle><circle cx="267" cy="535" r="2"></circle><circle cx="286" cy="535" r="2"></circle><circle cx="306" cy="535" r="2"></circle><circle cx="326" cy="535" r="2"></circle><circle cx="346" cy="535" r="2"></circle><circle cx="366" cy="535" r="2"></circle><circle cx="386" cy="535" r="2"></circle><circle cx="406" cy="535" r="2"></circle><circle cx="426" cy="535" r="2"></circle><circle cx="446" cy="535" r="2"></circle><circle cx="466" cy="535" r="2"></circle><circle cx="486" cy="535" r="2"></circle><circle cx="506" cy="535" r="2"></circle><circle cx="526" cy="535" r="2"></circle><circle cx="546" cy="535" r="2"></circle><circle cx="566" cy="535" r="2"></circle></g></g><g class="key-United-Kingdom_9"><path stroke="#ca2628" stroke-linecap="round" d="M47 534L67 534L87 534L107 534L127 534L147 534L167 534L187 534L207 534L227 534L247 534L267 534L286 534L306 534L326 535L346 535L366 535L386 535L406 535L426 535L446 535L466 535L486 535L506 535L526 535L546 535L566 535" fill="none" stroke-width="1.5"></path><g fill="#ca2628"><circle cx="47" cy="534" r="2"></circle><circle cx="67" cy="534" r="2"></circle><circle cx="87" cy="534" r="2"></circle><circle cx="107" cy="534" r="2"></circle><circle cx="127" cy="534" r="2"></circle><circle cx="147" cy="534" r="2"></circle><circle cx="167" cy="534" r="2"></circle><circle cx="187" cy="534" r="2"></circle><circle cx="207" cy="534" r="2"></circle><circle cx="227" cy="534" r="2"></circle><circle cx="247" cy="534" r="2"></circle><circle cx="267" cy="534" r="2"></circle><circle cx="286" cy="534" r="2"></circle><circle cx="306" cy="534" r="2"></circle><circle cx="326" cy="535" r="2"></circle><circle cx="346" cy="535" r="2"></circle><circle cx="366" cy="535" r="2"></circle><circle cx="386" cy="535" r="2"></circle><circle cx="406" cy="535" r="2"></circle><circle cx="426" cy="535" r="2"></circle><circle cx="446" cy="535" r="2"></circle><circle cx="466" cy="535" r="2"></circle><circle cx="486" cy="535" r="2"></circle><circle cx="506" cy="535" r="2"></circle><circle cx="526" cy="535" r="2"></circle><circle cx="546" cy="535" r="2"></circle><circle cx="566" cy="535" r="2"></circle></g></g></g></g></g><g class="SourcesFooter" style="fill:#777"><g class="clickable" style="fill:#777"><text font-size="12.60" x="15.0" y="581.6"><tspan x="15" y="581.58">Source: Institute for Health Metrics and Evaluation (IHME)</tspan></text></g><text font-size="12.60" x="775.4" y="581.6"><tspan x="775.402" y="581.58"><a style="fill: #777;" class="cclogo" href="http://creativecommons.org/licenses/by-sa/4.0/deed.en_US" target="_blank">CC BY-SA</a></tspan></text></g></g></svg>