<svg xmlns="http://www.w3.org/2000/svg" version="1.1" style="font-family:&#x27;Helvetica Neue&#x27;, Helvetica, Arial, sans-serif;font-size:18px;background-color:white;text-rendering:optimizeLegibility;-webkit-font-smoothing:antialiased" width="850" height="600"><g class="ChartTab"><g class="HeaderView"><g opacity="0.8" transform="translate(778, 15) scale(0.27)"><a xmlns:xlink="http://www.w3.org/1999/xlink" xlink:href="https://ourworldindata.org" target="_blank"><g><rect x="0" y="0" fill="#1B2543" width="211.2" height="130.1"/><rect x="0" y="112.2" fill="#E63912" width="211.2" height="17.9"/><g><rect x="1.2" y="12.3" fill="none" width="210.2" height="99.2"/><path fill="#FFFFFF" d="M37.8,32.2c0,12.7-7.7,19.4-17.1,19.4c-9.7,0-16.6-7.5-16.6-18.7c0-11.7,7.3-19.3,17.1-19.3 C31.3,13.7,37.8,21.3,37.8,32.2z M9.2,32.8c0,7.9,4.3,14.9,11.8,14.9c7.5,0,11.8-6.9,11.8-15.3c0-7.3-3.8-14.9-11.8-14.9 C13.1,17.5,9.2,24.8,9.2,32.8z"/><path fill="#FFFFFF" d="M62.7,43.8c0,2.7,0.1,5.1,0.2,7.2h-4.3l-0.3-4.3h-0.1c-1.3,2.1-4,4.9-8.8,4.9c-4.2,0-9.1-2.3-9.1-11.6 V24.6h4.8v14.6c0,5,1.5,8.4,5.9,8.4c3.2,0,5.5-2.2,6.3-4.4c0.3-0.7,0.4-1.6,0.4-2.5V24.6h4.8V43.8z"/><path fill="#FFFFFF" d="M67.3,32.8c0-3.1-0.1-5.8-0.2-8.2h4.2l0.2,5.2h0.2c1.2-3.5,4.1-5.8,7.3-5.8c0.5,0,0.9,0.1,1.4,0.2v4.5 c-0.5-0.1-1-0.2-1.6-0.2c-3.4,0-5.8,2.6-6.5,6.2c-0.1,0.7-0.2,1.4-0.2,2.2V51h-4.8V32.8z"/><path fill="#FFFFFF" d="M95.4,51l-9.4-36.8h5l4.4,18.6c1.1,4.6,2.1,9.2,2.7,12.7h0.1c0.6-3.7,1.8-8,3-12.8l4.9-18.5h5l4.5,18.7 c1,4.4,2,8.7,2.6,12.6h0.1c0.8-4,1.8-8.1,3-12.7l4.9-18.5h4.9L120.6,51h-5L111,31.9c-1.1-4.7-1.9-8.3-2.4-12h-0.1 c-0.7,3.7-1.5,7.3-2.8,12L100.4,51H95.4z"/><path fill="#FFFFFF" d="M154.9,37.6c0,9.8-6.8,14-13.2,14c-7.2,0-12.7-5.2-12.7-13.6c0-8.8,5.8-14,13.1-14 C149.8,24,154.9,29.5,154.9,37.6z M133.9,37.9c0,5.8,3.3,10.1,8,10.1c4.6,0,8-4.3,8-10.3c0-4.5-2.2-10.1-7.9-10.1 C136.3,27.6,133.9,32.8,133.9,37.9z"/><path fill="#FFFFFF" d="M158.2,32.8c0-3.1-0.1-5.8-0.2-8.2h4.2l0.2,5.2h0.2c1.2-3.5,4.1-5.8,7.3-5.8c0.5,0,0.9,0.1,1.4,0.2v4.5 c-0.5-0.1-1-0.2-1.6-0.2c-3.4,0-5.8,2.6-6.5,6.2c-0.1,0.7-0.2,1.4-0.2,2.2V51h-4.8V32.8z"/><path fill="#FFFFFF" d="M173.5,12.3h4.8V51h-4.8V12.3z"/><path fill="#FFFFFF" d="M206.5,12.3v31.9c0,2.3,0.1,5,0.2,6.8h-4.3l-0.2-4.6H202c-1.5,2.9-4.7,5.2-9,5.2 c-6.4,0-11.3-5.4-11.3-13.4c-0.1-8.8,5.4-14.2,11.9-14.2c4,0,6.8,1.9,8,4h0.1V12.3H206.5z M201.7,35.4c0-0.6-0.1-1.4-0.2-2 c-0.7-3.1-3.3-5.6-6.9-5.6c-5,0-7.9,4.4-7.9,10.2c0,5.3,2.6,9.8,7.8,9.8c3.2,0,6.2-2.1,7.1-5.7c0.2-0.7,0.2-1.3,0.2-2.1V35.4z"/><path fill="#FFFFFF" d="M42.8,64c0.1,1.6-1.1,2.9-3.1,2.9c-1.7,0-2.9-1.3-2.9-2.9c0-1.7,1.3-3,3-3C41.7,61,42.8,62.3,42.8,64z M37.4,97.8V71.4h4.8v26.4H37.4z"/><path fill="#FFFFFF" d="M47.5,78.6c0-2.7-0.1-5-0.2-7.1h4.3l0.3,4.4h0.1c1.3-2.5,4.4-5,8.8-5c3.7,0,9.4,2.2,9.4,11.2v15.8h-4.8 V82.6c0-4.3-1.6-7.8-6.1-7.8c-3.2,0-5.6,2.2-6.5,4.9c-0.2,0.6-0.3,1.4-0.3,2.2v15.9h-4.8V78.6z"/><path fill="#FFFFFF" d="M84,61.6c2.9-0.4,6.3-0.8,10.1-0.8c6.8,0,11.7,1.6,14.9,4.6c3.3,3,5.2,7.3,5.2,13.2c0,6-1.9,10.9-5.3,14.3 c-3.4,3.4-9.1,5.3-16.3,5.3c-3.4,0-6.2-0.2-8.6-0.4V61.6z M88.8,94.1c1.2,0.2,3,0.3,4.8,0.3c10.2,0,15.7-5.7,15.7-15.6 c0.1-8.7-4.9-14.2-14.9-14.2c-2.5,0-4.3,0.2-5.6,0.5V94.1z"/><path fill="#FFFFFF" d="M132.1,97.8l-0.4-3.3h-0.2c-1.5,2.1-4.3,3.9-8.1,3.9c-5.4,0-8.1-3.8-8.1-7.6c0-6.4,5.7-9.9,15.9-9.8v-0.5 c0-2.2-0.6-6.1-6-6.1c-2.5,0-5,0.8-6.9,2l-1.1-3.2c2.2-1.4,5.4-2.3,8.7-2.3c8.1,0,10.1,5.5,10.1,10.8v9.9c0,2.3,0.1,4.5,0.4,6.3 H132.1z M131.4,84.4c-5.3-0.1-11.2,0.8-11.2,5.9c0,3.1,2.1,4.6,4.5,4.6c3.4,0,5.6-2.2,6.4-4.4c0.2-0.5,0.3-1,0.3-1.5V84.4z"/><path fill="#FFFFFF" d="M146.6,63.9v7.6h6.9v3.7h-6.9v14.2c0,3.3,0.9,5.1,3.6,5.1c1.3,0,2.2-0.2,2.8-0.3l0.2,3.6 c-0.9,0.4-2.4,0.7-4.3,0.7c-2.2,0-4-0.7-5.2-2c-1.4-1.4-1.9-3.8-1.9-6.9V75.1h-4.1v-3.7h4.1v-6.3L146.6,63.9z"/><path fill="#FFFFFF" d="M171.4,97.8l-0.4-3.3h-0.2c-1.5,2.1-4.3,3.9-8.1,3.9c-5.4,0-8.1-3.8-8.1-7.6c0-6.4,5.7-9.9,15.9-9.8v-0.5 c0-2.2-0.6-6.1-6-6.1c-2.5,0-5,0.8-6.9,2l-1.1-3.2c2.2-1.4,5.4-2.3,8.7-2.3c8.1,0,10.1,5.5,10.1,10.8v9.9c0,2.3,0.1,4.5,0.4,6.3 H171.4z M170.7,84.4c-5.3-0.1-11.2,0.8-11.2,5.9c0,3.1,2.1,4.6,4.5,4.6c3.4,0,5.6-2.2,6.4-4.4c0.2-0.5,0.3-1,0.3-1.5V84.4z"/></g></g></a></g><a href="https://ourworldindata.org/grapher/agricultural-yields-in-key-crops-per-hectare-1961-2014" target="_blank"><text font-size="22.50" x="15.0" y="33.0" fill="#555"><tspan x="15" y="33">Agricultural yields in key crops per hectare, 1961-2014, Western Europe</tspan></text></a><text font-size="14.40" x="15.0" y="51.0" fill="#666"><tspan x="15" y="51.019999999999996">Average yield outputs across key crop commodities by country, measured in tonnes per hectare.</tspan></text></g><g class="LineChart"><defs><clipPath id="boundsClip-45"><rect x="63.46000000000001" y="0" width="830" height="965.2"></rect></clipPath></defs><g class="AxisBoxView"><g class="HorizontalAxis"><text x="73.5" y="556.5" fill="#666" text-anchor="middle" font-size="16.2">1961</text><text x="184.7" y="556.5" fill="#666" text-anchor="middle" font-size="16.2">1970</text><text x="308.3" y="556.5" fill="#666" text-anchor="middle" font-size="16.2">1980</text><text x="431.9" y="556.5" fill="#666" text-anchor="middle" font-size="16.2">1990</text><text x="555.4" y="556.5" fill="#666" text-anchor="middle" font-size="16.2">2000</text><text x="679" y="556.5" fill="#666" text-anchor="middle" font-size="16.2">2010</text><text x="728.5" y="556.5" fill="#666" text-anchor="middle" font-size="16.2">2014</text></g><g class="VerticalAxis"><text x="68.46" y="535.3" fill="#666" dominant-baseline="middle" text-anchor="end" font-size="16.2">0 tons</text><text x="68.46" y="438.1" fill="#666" dominant-baseline="middle" text-anchor="end" font-size="16.2">10 tons</text><text x="68.46" y="341" fill="#666" dominant-baseline="middle" text-anchor="end" font-size="16.2">20 tons</text><text x="68.46" y="243.8" fill="#666" dominant-baseline="middle" text-anchor="end" font-size="16.2">30 tons</text><text x="68.46" y="146.6" fill="#666" dominant-baseline="middle" text-anchor="end" font-size="16.2">40 tons</text></g><g class="AxisGridLines"><line x1="73.46" y1="535.3" x2="728.45" y2="535.3" stroke="#ccc"></line><line x1="73.46" y1="438.1" x2="728.45" y2="438.1" stroke="#ddd" stroke-dasharray="3,2"></line><line x1="73.46" y1="341" x2="728.45" y2="341" stroke="#ddd" stroke-dasharray="3,2"></line><line x1="73.46" y1="243.8" x2="728.45" y2="243.8" stroke="#ddd" stroke-dasharray="3,2"></line><line x1="73.46" y1="146.6" x2="728.45" y2="146.6" stroke="#ddd" stroke-dasharray="3,2"></line></g></g><g clip-path="url(#boundsClip-45)"><g class="HeightedLegend clickable"><g class="legendMark"><g class="indicator"><line x1="733.45" y1="512.4" x2="755.95" y2="512.4" stroke="#666" stroke-width="0.5"></line><line x1="755.95" y1="512.4" x2="755.95" y2="512.4" stroke="#666" stroke-width="0.5"></line><line x1="755.95" y1="512.4" x2="758.45" y2="512.4" stroke="#666" stroke-width="0.5"></line></g><rect x="728.45" y="505.65" width="99.80000000000001" height="13.5" fill="#fff" opacity="0"></rect><text font-size="13.50" x="763.5" y="516.4" fill="#3360a9"><tspan x="763.45" y="516.4499999999999">Beans, dry</tspan></text></g><g class="legendMark"><g class="indicator"><line x1="733.45" y1="507.9" x2="753.45" y2="507.9" stroke="#666" stroke-width="0.5"></line><line x1="753.45" y1="507.9" x2="753.45" y2="496.9" stroke="#666" stroke-width="0.5"></line><line x1="753.45" y1="496.9" x2="758.45" y2="496.9" stroke="#666" stroke-width="0.5"></line></g><rect x="728.45" y="490.15" width="95.345" height="13.5" fill="#fff" opacity="0"></rect><text font-size="13.50" x="763.5" y="500.9" fill="#ca2628"><tspan x="763.45" y="500.95">Soybeans</tspan></text></g><g class="legendMark"><g class="indicator"><line x1="733.45" y1="504.5" x2="750.95" y2="504.5" stroke="#666" stroke-width="0.5"></line><line x1="750.95" y1="504.5" x2="750.95" y2="481.4" stroke="#666" stroke-width="0.5"></line><line x1="750.95" y1="481.4" x2="758.45" y2="481.4" stroke="#666" stroke-width="0.5"></line></g><rect x="728.45" y="474.65" width="66.455" height="13.5" fill="#fff" opacity="0"></rect><text font-size="13.50" x="763.5" y="485.4" fill="#34983f"><tspan x="763.45" y="485.45">Millet</tspan></text></g><g class="legendMark"><g class="indicator"><line x1="733.45" y1="499.6" x2="748.45" y2="499.6" stroke="#666" stroke-width="0.5"></line><line x1="748.45" y1="499.6" x2="748.45" y2="465.9" stroke="#666" stroke-width="0.5"></line><line x1="748.45" y1="465.9" x2="758.45" y2="465.9" stroke="#666" stroke-width="0.5"></line></g><rect x="728.45" y="459.15" width="92.24000000000001" height="13.5" fill="#fff" opacity="0"></rect><text font-size="13.50" x="763.5" y="469.9" fill="#f6a324"><tspan x="763.45" y="469.95">Peas, dry</tspan></text></g><g class="legendMark"><g class="indicator"><line x1="733.45" y1="486" x2="745.95" y2="486" stroke="#666" stroke-width="0.5"></line><line x1="745.95" y1="486" x2="745.95" y2="450.4" stroke="#666" stroke-width="0.5"></line><line x1="745.95" y1="450.4" x2="758.45" y2="450.4" stroke="#666" stroke-width="0.5"></line></g><rect x="728.45" y="443.65" width="106.55000000000001" height="13.5" fill="#fff" opacity="0"></rect><text font-size="13.50" x="763.5" y="454.4" fill="#a652ba"><tspan x="763.45" y="454.45">Rice, paddy</tspan></text></g><g class="legendMark"><g class="indicator"><line x1="733.45" y1="467.7" x2="743.45" y2="467.7" stroke="#666" stroke-width="0.5"></line><line x1="743.45" y1="467.7" x2="743.45" y2="434.9" stroke="#666" stroke-width="0.5"></line><line x1="743.45" y1="434.9" x2="758.45" y2="434.9" stroke="#666" stroke-width="0.5"></line></g><rect x="728.45" y="428.15" width="73.34" height="13.5" fill="#fff" opacity="0"></rect><text font-size="13.50" x="763.5" y="438.9" fill="#2a939b"><tspan x="763.45" y="438.95">Barley</tspan></text></g><g class="legendMark"><g class="indicator"><line x1="733.45" y1="459.4" x2="740.95" y2="459.4" stroke="#666" stroke-width="0.5"></line><line x1="740.95" y1="459.4" x2="740.95" y2="419.4" stroke="#666" stroke-width="0.5"></line><line x1="740.95" y1="419.4" x2="758.45" y2="419.4" stroke="#666" stroke-width="0.5"></line></g><rect x="728.45" y="412.65" width="74.15" height="13.5" fill="#fff" opacity="0"></rect><text font-size="13.50" x="763.5" y="423.4" fill="#e6332e"><tspan x="763.45" y="423.45">Wheat</tspan></text></g><g class="legendMark"><g class="indicator"><line x1="733.45" y1="435.7" x2="738.45" y2="435.7" stroke="#666" stroke-width="0.5"></line><line x1="738.45" y1="435.7" x2="738.45" y2="403.9" stroke="#666" stroke-width="0.5"></line><line x1="738.45" y1="403.9" x2="758.45" y2="403.9" stroke="#666" stroke-width="0.5"></line></g><rect x="728.45" y="397.15" width="71.045" height="13.5" fill="#fff" opacity="0"></rect><text font-size="13.50" x="763.5" y="407.9" fill="#9ecc8a"><tspan x="763.45" y="407.95">Maize</tspan></text></g><g class="legendMark"><g class="indicator"><line x1="733.45" y1="73.9" x2="745.95" y2="73.9" stroke="#666" stroke-width="0.5"></line><line x1="745.95" y1="73.9" x2="745.95" y2="73.9" stroke="#666" stroke-width="0.5"></line><line x1="745.95" y1="73.9" x2="758.45" y2="73.9" stroke="#666" stroke-width="0.5"></line></g><rect x="728.45" y="67.15" width="88.595" height="13.5" fill="#fff" opacity="0"></rect><text font-size="13.50" x="763.5" y="78.0" fill="#ffd53e"><tspan x="763.45" y="77.95">Potatoes</tspan></text></g></g><g class="Lines"><rect x="73" y="74" width="655" height="461" fill="rgba(255,255,255,0)" opacity="0"></rect><g class="key-Western-Europe_0"><path stroke="#3360a9" stroke-linecap="round" d="M74 525L86 526L98 524L111 525L123 524L135 521L148 523L160 521L172 523L185 520L197 520L209 522L222 517L234 520L247 520L259 525L271 517L284 516L296 515L308 519L321 516L333 514L345 515L358 515L370 511L382 511L395 514L407 512L420 514L432 512L444 508L457 509L469 506L481 514L494 514L506 512L518 511L531 512L543 511L555 506L568 506L580 504L593 505L605 506L617 506L630 511L642 509L654 510L667 510L679 509L691 511L704 512L716 514L729 512" fill="none" stroke-width="1.5"></path><g fill="#3360a9"><circle cx="74" cy="525" r="2"></circle><circle cx="86" cy="526" r="2"></circle><circle cx="98" cy="524" r="2"></circle><circle cx="111" cy="525" r="2"></circle><circle cx="123" cy="524" r="2"></circle><circle cx="135" cy="521" r="2"></circle><circle cx="148" cy="523" r="2"></circle><circle cx="160" cy="521" r="2"></circle><circle cx="172" cy="523" r="2"></circle><circle cx="185" cy="520" r="2"></circle><circle cx="197" cy="520" r="2"></circle><circle cx="209" cy="522" r="2"></circle><circle cx="222" cy="517" r="2"></circle><circle cx="234" cy="520" r="2"></circle><circle cx="247" cy="520" r="2"></circle><circle cx="259" cy="525" r="2"></circle><circle cx="271" cy="517" r="2"></circle><circle cx="284" cy="516" r="2"></circle><circle cx="296" cy="515" r="2"></circle><circle cx="308" cy="519" r="2"></circle><circle cx="321" cy="516" r="2"></circle><circle cx="333" cy="514" r="2"></circle><circle cx="345" cy="515" r="2"></circle><circle cx="358" cy="515" r="2"></circle><circle cx="370" cy="511" r="2"></circle><circle cx="382" cy="511" r="2"></circle><circle cx="395" cy="514" r="2"></circle><circle cx="407" cy="512" r="2"></circle><circle cx="420" cy="514" r="2"></circle><circle cx="432" cy="512" r="2"></circle><circle cx="444" cy="508" r="2"></circle><circle cx="457" cy="509" r="2"></circle><circle cx="469" cy="506" r="2"></circle><circle cx="481" cy="514" r="2"></circle><circle cx="494" cy="514" r="2"></circle><circle cx="506" cy="512" r="2"></circle><circle cx="518" cy="511" r="2"></circle><circle cx="531" cy="512" r="2"></circle><circle cx="543" cy="511" r="2"></circle><circle cx="555" cy="506" r="2"></circle><circle cx="568" cy="506" r="2"></circle><circle cx="580" cy="504" r="2"></circle><circle cx="593" cy="505" r="2"></circle><circle cx="605" cy="506" r="2"></circle><circle cx="617" cy="506" r="2"></circle><circle cx="630" cy="511" r="2"></circle><circle cx="642" cy="509" r="2"></circle><circle cx="654" cy="510" r="2"></circle><circle cx="667" cy="510" r="2"></circle><circle cx="679" cy="509" r="2"></circle><circle cx="691" cy="511" r="2"></circle><circle cx="704" cy="512" r="2"></circle><circle cx="716" cy="514" r="2"></circle><circle cx="729" cy="512" r="2"></circle></g></g><g class="key-Western-Europe_10"><path stroke="#e6332e" stroke-linecap="round" d="M74 510L86 504L98 507L111 503L123 504L135 506L148 499L160 498L172 500L185 501L197 496L209 493L222 492L234 490L247 496L259 497L271 494L284 487L296 489L308 487L321 487L333 484L345 485L358 474L370 478L382 480L395 481L407 475L420 476L432 473L444 471L457 475L469 472L481 470L494 471L506 465L518 469L531 463L543 465L555 466L568 467L580 465L593 474L605 460L617 466L630 468L642 472L654 463L667 462L679 470L691 472L704 466L716 463L729 459" fill="none" stroke-width="1.5"></path><g fill="#e6332e"><circle cx="74" cy="510" r="2"></circle><circle cx="86" cy="504" r="2"></circle><circle cx="98" cy="507" r="2"></circle><circle cx="111" cy="503" r="2"></circle><circle cx="123" cy="504" r="2"></circle><circle cx="135" cy="506" r="2"></circle><circle cx="148" cy="499" r="2"></circle><circle cx="160" cy="498" r="2"></circle><circle cx="172" cy="500" r="2"></circle><circle cx="185" cy="501" r="2"></circle><circle cx="197" cy="496" r="2"></circle><circle cx="209" cy="493" r="2"></circle><circle cx="222" cy="492" r="2"></circle><circle cx="234" cy="490" r="2"></circle><circle cx="247" cy="496" r="2"></circle><circle cx="259" cy="497" r="2"></circle><circle cx="271" cy="494" r="2"></circle><circle cx="284" cy="487" r="2"></circle><circle cx="296" cy="489" r="2"></circle><circle cx="308" cy="487" r="2"></circle><circle cx="321" cy="487" r="2"></circle><circle cx="333" cy="484" r="2"></circle><circle cx="345" cy="485" r="2"></circle><circle cx="358" cy="474" r="2"></circle><circle cx="370" cy="478" r="2"></circle><circle cx="382" cy="480" r="2"></circle><circle cx="395" cy="481" r="2"></circle><circle cx="407" cy="475" r="2"></circle><circle cx="420" cy="476" r="2"></circle><circle cx="432" cy="473" r="2"></circle><circle cx="444" cy="471" r="2"></circle><circle cx="457" cy="475" r="2"></circle><circle cx="469" cy="472" r="2"></circle><circle cx="481" cy="470" r="2"></circle><circle cx="494" cy="471" r="2"></circle><circle cx="506" cy="465" r="2"></circle><circle cx="518" cy="469" r="2"></circle><circle cx="531" cy="463" r="2"></circle><circle cx="543" cy="465" r="2"></circle><circle cx="555" cy="466" r="2"></circle><circle cx="568" cy="467" r="2"></circle><circle cx="580" cy="465" r="2"></circle><circle cx="593" cy="474" r="2"></circle><circle cx="605" cy="460" r="2"></circle><circle cx="617" cy="466" r="2"></circle><circle cx="630" cy="468" r="2"></circle><circle cx="642" cy="472" r="2"></circle><circle cx="654" cy="463" r="2"></circle><circle cx="667" cy="462" r="2"></circle><circle cx="679" cy="470" r="2"></circle><circle cx="691" cy="472" r="2"></circle><circle cx="704" cy="466" r="2"></circle><circle cx="716" cy="463" r="2"></circle><circle cx="729" cy="459" r="2"></circle></g></g><g class="key-Western-Europe_11"><path stroke="#a652ba" stroke-linecap="round" d="M74 496L86 495L98 497L111 496L123 503L135 500L148 494L160 502L172 495L185 494L197 499L209 513L222 493L234 502L247 495L259 497L271 514L284 504L296 493L308 498L321 498L333 487L345 483L358 498L370 482L382 486L395 487L407 485L420 477L432 478L444 483L457 484L469 487L481 491L494 488L506 484L518 478L531 479L543 476L555 479L568 483L580 480L593 481L605 480L617 480L630 482L642 486L654 479L667 480L679 483L691 477L704 478L716 497L729 486" fill="none" stroke-width="1.5"></path><g fill="#a652ba"><circle cx="74" cy="496" r="2"></circle><circle cx="86" cy="495" r="2"></circle><circle cx="98" cy="497" r="2"></circle><circle cx="111" cy="496" r="2"></circle><circle cx="123" cy="503" r="2"></circle><circle cx="135" cy="500" r="2"></circle><circle cx="148" cy="494" r="2"></circle><circle cx="160" cy="502" r="2"></circle><circle cx="172" cy="495" r="2"></circle><circle cx="185" cy="494" r="2"></circle><circle cx="197" cy="499" r="2"></circle><circle cx="209" cy="513" r="2"></circle><circle cx="222" cy="493" r="2"></circle><circle cx="234" cy="502" r="2"></circle><circle cx="247" cy="495" r="2"></circle><circle cx="259" cy="497" r="2"></circle><circle cx="271" cy="514" r="2"></circle><circle cx="284" cy="504" r="2"></circle><circle cx="296" cy="493" r="2"></circle><circle cx="308" cy="498" r="2"></circle><circle cx="321" cy="498" r="2"></circle><circle cx="333" cy="487" r="2"></circle><circle cx="345" cy="483" r="2"></circle><circle cx="358" cy="498" r="2"></circle><circle cx="370" cy="482" r="2"></circle><circle cx="382" cy="486" r="2"></circle><circle cx="395" cy="487" r="2"></circle><circle cx="407" cy="485" r="2"></circle><circle cx="420" cy="477" r="2"></circle><circle cx="432" cy="478" r="2"></circle><circle cx="444" cy="483" r="2"></circle><circle cx="457" cy="484" r="2"></circle><circle cx="469" cy="487" r="2"></circle><circle cx="481" cy="491" r="2"></circle><circle cx="494" cy="488" r="2"></circle><circle cx="506" cy="484" r="2"></circle><circle cx="518" cy="478" r="2"></circle><circle cx="531" cy="479" r="2"></circle><circle cx="543" cy="476" r="2"></circle><circle cx="555" cy="479" r="2"></circle><circle cx="568" cy="483" r="2"></circle><circle cx="580" cy="480" r="2"></circle><circle cx="593" cy="481" r="2"></circle><circle cx="605" cy="480" r="2"></circle><circle cx="617" cy="480" r="2"></circle><circle cx="630" cy="482" r="2"></circle><circle cx="642" cy="486" r="2"></circle><circle cx="654" cy="479" r="2"></circle><circle cx="667" cy="480" r="2"></circle><circle cx="679" cy="483" r="2"></circle><circle cx="691" cy="477" r="2"></circle><circle cx="704" cy="478" r="2"></circle><circle cx="716" cy="497" r="2"></circle><circle cx="729" cy="486" r="2"></circle></g></g><g class="key-Western-Europe_2"><path stroke="#2a939b" stroke-linecap="round" d="M74 511L86 506L98 506L111 505L123 506L135 507L148 501L160 502L172 502L185 507L197 501L209 497L222 497L234 497L247 500L259 502L271 499L284 495L296 497L308 493L321 497L333 493L345 494L358 485L370 487L382 489L395 488L407 486L420 483L432 482L444 479L457 483L469 485L481 484L494 481L506 480L518 478L531 477L543 477L555 478L568 477L580 477L593 484L605 471L617 476L630 477L642 482L654 474L667 471L679 475L691 481L704 473L716 473L729 468" fill="none" stroke-width="1.5"></path><g fill="#2a939b"><circle cx="74" cy="511" r="2"></circle><circle cx="86" cy="506" r="2"></circle><circle cx="98" cy="506" r="2"></circle><circle cx="111" cy="505" r="2"></circle><circle cx="123" cy="506" r="2"></circle><circle cx="135" cy="507" r="2"></circle><circle cx="148" cy="501" r="2"></circle><circle cx="160" cy="502" r="2"></circle><circle cx="172" cy="502" r="2"></circle><circle cx="185" cy="507" r="2"></circle><circle cx="197" cy="501" r="2"></circle><circle cx="209" cy="497" r="2"></circle><circle cx="222" cy="497" r="2"></circle><circle cx="234" cy="497" r="2"></circle><circle cx="247" cy="500" r="2"></circle><circle cx="259" cy="502" r="2"></circle><circle cx="271" cy="499" r="2"></circle><circle cx="284" cy="495" r="2"></circle><circle cx="296" cy="497" r="2"></circle><circle cx="308" cy="493" r="2"></circle><circle cx="321" cy="497" r="2"></circle><circle cx="333" cy="493" r="2"></circle><circle cx="345" cy="494" r="2"></circle><circle cx="358" cy="485" r="2"></circle><circle cx="370" cy="487" r="2"></circle><circle cx="382" cy="489" r="2"></circle><circle cx="395" cy="488" r="2"></circle><circle cx="407" cy="486" r="2"></circle><circle cx="420" cy="483" r="2"></circle><circle cx="432" cy="482" r="2"></circle><circle cx="444" cy="479" r="2"></circle><circle cx="457" cy="483" r="2"></circle><circle cx="469" cy="485" r="2"></circle><circle cx="481" cy="484" r="2"></circle><circle cx="494" cy="481" r="2"></circle><circle cx="506" cy="480" r="2"></circle><circle cx="518" cy="478" r="2"></circle><circle cx="531" cy="477" r="2"></circle><circle cx="543" cy="477" r="2"></circle><circle cx="555" cy="478" r="2"></circle><circle cx="568" cy="477" r="2"></circle><circle cx="580" cy="477" r="2"></circle><circle cx="593" cy="484" r="2"></circle><circle cx="605" cy="471" r="2"></circle><circle cx="617" cy="476" r="2"></circle><circle cx="630" cy="477" r="2"></circle><circle cx="642" cy="482" r="2"></circle><circle cx="654" cy="474" r="2"></circle><circle cx="667" cy="471" r="2"></circle><circle cx="679" cy="475" r="2"></circle><circle cx="691" cy="481" r="2"></circle><circle cx="704" cy="473" r="2"></circle><circle cx="716" cy="473" r="2"></circle><circle cx="729" cy="468" r="2"></circle></g></g><g class="key-Western-Europe_5"><path stroke="#9ecc8a" stroke-linecap="round" d="M74 510L86 513L98 496L111 511L123 497L135 491L148 495L160 484L172 487L185 486L197 483L209 492L222 480L234 490L247 492L259 494L271 483L284 483L296 482L308 482L321 477L333 472L345 474L358 476L370 470L382 473L395 466L407 463L420 467L432 474L444 464L457 460L469 456L481 460L494 460L506 455L518 448L531 452L543 448L555 446L568 451L580 447L593 463L605 446L617 451L630 451L642 441L654 442L667 443L679 447L691 435L704 442L716 454L729 436" fill="none" stroke-width="1.5"></path><g fill="#9ecc8a"><circle cx="74" cy="510" r="2"></circle><circle cx="86" cy="513" r="2"></circle><circle cx="98" cy="496" r="2"></circle><circle cx="111" cy="511" r="2"></circle><circle cx="123" cy="497" r="2"></circle><circle cx="135" cy="491" r="2"></circle><circle cx="148" cy="495" r="2"></circle><circle cx="160" cy="484" r="2"></circle><circle cx="172" cy="487" r="2"></circle><circle cx="185" cy="486" r="2"></circle><circle cx="197" cy="483" r="2"></circle><circle cx="209" cy="492" r="2"></circle><circle cx="222" cy="480" r="2"></circle><circle cx="234" cy="490" r="2"></circle><circle cx="247" cy="492" r="2"></circle><circle cx="259" cy="494" r="2"></circle><circle cx="271" cy="483" r="2"></circle><circle cx="284" cy="483" r="2"></circle><circle cx="296" cy="482" r="2"></circle><circle cx="308" cy="482" r="2"></circle><circle cx="321" cy="477" r="2"></circle><circle cx="333" cy="472" r="2"></circle><circle cx="345" cy="474" r="2"></circle><circle cx="358" cy="476" r="2"></circle><circle cx="370" cy="470" r="2"></circle><circle cx="382" cy="473" r="2"></circle><circle cx="395" cy="466" r="2"></circle><circle cx="407" cy="463" r="2"></circle><circle cx="420" cy="467" r="2"></circle><circle cx="432" cy="474" r="2"></circle><circle cx="444" cy="464" r="2"></circle><circle cx="457" cy="460" r="2"></circle><circle cx="469" cy="456" r="2"></circle><circle cx="481" cy="460" r="2"></circle><circle cx="494" cy="460" r="2"></circle><circle cx="506" cy="455" r="2"></circle><circle cx="518" cy="448" r="2"></circle><circle cx="531" cy="452" r="2"></circle><circle cx="543" cy="448" r="2"></circle><circle cx="555" cy="446" r="2"></circle><circle cx="568" cy="451" r="2"></circle><circle cx="580" cy="447" r="2"></circle><circle cx="593" cy="463" r="2"></circle><circle cx="605" cy="446" r="2"></circle><circle cx="617" cy="451" r="2"></circle><circle cx="630" cy="451" r="2"></circle><circle cx="642" cy="441" r="2"></circle><circle cx="654" cy="442" r="2"></circle><circle cx="667" cy="443" r="2"></circle><circle cx="679" cy="447" r="2"></circle><circle cx="691" cy="435" r="2"></circle><circle cx="704" cy="442" r="2"></circle><circle cx="716" cy="454" r="2"></circle><circle cx="729" cy="436" r="2"></circle></g></g><g class="key-Western-Europe_6"><path stroke="#34983f" stroke-linecap="round" d="M74 522L86 524L98 522L111 524L123 523L135 518L148 518L160 515L172 515L185 516L197 514L209 512L222 510L234 511L247 519L259 524L271 514L284 512L296 511L308 512L321 513L333 501L345 501L506 517L518 517L531 518L543 521L555 514L568 507L580 507L593 504L605 506L617 505L630 505L642 505L654 507L667 500L679 504L691 502L704 502L716 503L729 505" fill="none" stroke-width="1.5"></path><g fill="#34983f"><circle cx="74" cy="522" r="2"></circle><circle cx="86" cy="524" r="2"></circle><circle cx="98" cy="522" r="2"></circle><circle cx="111" cy="524" r="2"></circle><circle cx="123" cy="523" r="2"></circle><circle cx="135" cy="518" r="2"></circle><circle cx="148" cy="518" r="2"></circle><circle cx="160" cy="515" r="2"></circle><circle cx="172" cy="515" r="2"></circle><circle cx="185" cy="516" r="2"></circle><circle cx="197" cy="514" r="2"></circle><circle cx="209" cy="512" r="2"></circle><circle cx="222" cy="510" r="2"></circle><circle cx="234" cy="511" r="2"></circle><circle cx="247" cy="519" r="2"></circle><circle cx="259" cy="524" r="2"></circle><circle cx="271" cy="514" r="2"></circle><circle cx="284" cy="512" r="2"></circle><circle cx="296" cy="511" r="2"></circle><circle cx="308" cy="512" r="2"></circle><circle cx="321" cy="513" r="2"></circle><circle cx="333" cy="501" r="2"></circle><circle cx="345" cy="501" r="2"></circle><circle cx="506" cy="517" r="2"></circle><circle cx="518" cy="517" r="2"></circle><circle cx="531" cy="518" r="2"></circle><circle cx="543" cy="521" r="2"></circle><circle cx="555" cy="514" r="2"></circle><circle cx="568" cy="507" r="2"></circle><circle cx="580" cy="507" r="2"></circle><circle cx="593" cy="504" r="2"></circle><circle cx="605" cy="506" r="2"></circle><circle cx="617" cy="505" r="2"></circle><circle cx="630" cy="505" r="2"></circle><circle cx="642" cy="505" r="2"></circle><circle cx="654" cy="507" r="2"></circle><circle cx="667" cy="500" r="2"></circle><circle cx="679" cy="504" r="2"></circle><circle cx="691" cy="502" r="2"></circle><circle cx="704" cy="502" r="2"></circle><circle cx="716" cy="503" r="2"></circle><circle cx="729" cy="505" r="2"></circle></g></g><g class="key-Western-Europe_7"><path stroke="#f6a324" stroke-linecap="round" d="M74 513L86 512L98 515L111 514L123 515L135 517L148 510L160 513L172 513L185 510L197 509L209 516L222 514L234 508L247 507L259 517L271 509L284 506L296 501L308 500L321 501L333 498L345 497L358 492L370 491L382 496L395 497L407 489L420 494L432 486L444 490L457 491L469 489L481 488L494 492L506 491L518 490L531 489L543 488L555 497L568 499L580 495L593 498L605 493L617 498L630 498L642 504L654 499L667 495L679 496L691 502L704 500L716 499L729 500" fill="none" stroke-width="1.5"></path><g fill="#f6a324"><circle cx="74" cy="513" r="2"></circle><circle cx="86" cy="512" r="2"></circle><circle cx="98" cy="515" r="2"></circle><circle cx="111" cy="514" r="2"></circle><circle cx="123" cy="515" r="2"></circle><circle cx="135" cy="517" r="2"></circle><circle cx="148" cy="510" r="2"></circle><circle cx="160" cy="513" r="2"></circle><circle cx="172" cy="513" r="2"></circle><circle cx="185" cy="510" r="2"></circle><circle cx="197" cy="509" r="2"></circle><circle cx="209" cy="516" r="2"></circle><circle cx="222" cy="514" r="2"></circle><circle cx="234" cy="508" r="2"></circle><circle cx="247" cy="507" r="2"></circle><circle cx="259" cy="517" r="2"></circle><circle cx="271" cy="509" r="2"></circle><circle cx="284" cy="506" r="2"></circle><circle cx="296" cy="501" r="2"></circle><circle cx="308" cy="500" r="2"></circle><circle cx="321" cy="501" r="2"></circle><circle cx="333" cy="498" r="2"></circle><circle cx="345" cy="497" r="2"></circle><circle cx="358" cy="492" r="2"></circle><circle cx="370" cy="491" r="2"></circle><circle cx="382" cy="496" r="2"></circle><circle cx="395" cy="497" r="2"></circle><circle cx="407" cy="489" r="2"></circle><circle cx="420" cy="494" r="2"></circle><circle cx="432" cy="486" r="2"></circle><circle cx="444" cy="490" r="2"></circle><circle cx="457" cy="491" r="2"></circle><circle cx="469" cy="489" r="2"></circle><circle cx="481" cy="488" r="2"></circle><circle cx="494" cy="492" r="2"></circle><circle cx="506" cy="491" r="2"></circle><circle cx="518" cy="490" r="2"></circle><circle cx="531" cy="489" r="2"></circle><circle cx="543" cy="488" r="2"></circle><circle cx="555" cy="497" r="2"></circle><circle cx="568" cy="499" r="2"></circle><circle cx="580" cy="495" r="2"></circle><circle cx="593" cy="498" r="2"></circle><circle cx="605" cy="493" r="2"></circle><circle cx="617" cy="498" r="2"></circle><circle cx="630" cy="498" r="2"></circle><circle cx="642" cy="504" r="2"></circle><circle cx="654" cy="499" r="2"></circle><circle cx="667" cy="495" r="2"></circle><circle cx="679" cy="496" r="2"></circle><circle cx="691" cy="502" r="2"></circle><circle cx="704" cy="500" r="2"></circle><circle cx="716" cy="499" r="2"></circle><circle cx="729" cy="500" r="2"></circle></g></g><g class="key-Western-Europe_8"><path stroke="#ffd53e" stroke-linecap="round" d="M74 357L86 333L98 319L111 333L123 335L135 318L148 293L160 297L172 316L185 297L197 307L209 290L222 299L234 272L247 324L259 357L271 296L284 282L296 267L308 291L321 262L333 276L345 316L358 239L370 221L382 243L395 216L407 212L420 247L432 247L444 212L457 196L469 147L481 193L494 197L506 143L518 132L531 156L543 138L555 114L568 139L580 126L593 169L605 101L617 126L630 165L642 114L654 113L667 102L679 135L691 86L704 113L716 134L729 74" fill="none" stroke-width="1.5"></path><g fill="#ffd53e"><circle cx="74" cy="357" r="2"></circle><circle cx="86" cy="333" r="2"></circle><circle cx="98" cy="319" r="2"></circle><circle cx="111" cy="333" r="2"></circle><circle cx="123" cy="335" r="2"></circle><circle cx="135" cy="318" r="2"></circle><circle cx="148" cy="293" r="2"></circle><circle cx="160" cy="297" r="2"></circle><circle cx="172" cy="316" r="2"></circle><circle cx="185" cy="297" r="2"></circle><circle cx="197" cy="307" r="2"></circle><circle cx="209" cy="290" r="2"></circle><circle cx="222" cy="299" r="2"></circle><circle cx="234" cy="272" r="2"></circle><circle cx="247" cy="324" r="2"></circle><circle cx="259" cy="357" r="2"></circle><circle cx="271" cy="296" r="2"></circle><circle cx="284" cy="282" r="2"></circle><circle cx="296" cy="267" r="2"></circle><circle cx="308" cy="291" r="2"></circle><circle cx="321" cy="262" r="2"></circle><circle cx="333" cy="276" r="2"></circle><circle cx="345" cy="316" r="2"></circle><circle cx="358" cy="239" r="2"></circle><circle cx="370" cy="221" r="2"></circle><circle cx="382" cy="243" r="2"></circle><circle cx="395" cy="216" r="2"></circle><circle cx="407" cy="212" r="2"></circle><circle cx="420" cy="247" r="2"></circle><circle cx="432" cy="247" r="2"></circle><circle cx="444" cy="212" r="2"></circle><circle cx="457" cy="196" r="2"></circle><circle cx="469" cy="147" r="2"></circle><circle cx="481" cy="193" r="2"></circle><circle cx="494" cy="197" r="2"></circle><circle cx="506" cy="143" r="2"></circle><circle cx="518" cy="132" r="2"></circle><circle cx="531" cy="156" r="2"></circle><circle cx="543" cy="138" r="2"></circle><circle cx="555" cy="114" r="2"></circle><circle cx="568" cy="139" r="2"></circle><circle cx="580" cy="126" r="2"></circle><circle cx="593" cy="169" r="2"></circle><circle cx="605" cy="101" r="2"></circle><circle cx="617" cy="126" r="2"></circle><circle cx="630" cy="165" r="2"></circle><circle cx="642" cy="114" r="2"></circle><circle cx="654" cy="113" r="2"></circle><circle cx="667" cy="102" r="2"></circle><circle cx="679" cy="135" r="2"></circle><circle cx="691" cy="86" r="2"></circle><circle cx="704" cy="113" r="2"></circle><circle cx="716" cy="134" r="2"></circle><circle cx="729" cy="74" r="2"></circle></g></g><g class="key-Western-Europe_9"><path stroke="#ca2628" stroke-linecap="round" d="M222 513L234 523L247 516L259 519L271 517L284 521L296 522L308 515L321 514L333 515L345 514L358 515L370 515L382 516L395 510L407 512L420 513L432 515L444 512L457 518L469 512L481 511L494 511L506 510L518 509L531 511L543 509L555 511L568 511L580 509L593 516L605 511L617 510L630 510L642 511L654 507L667 510L679 509L691 507L704 508L716 513L729 508" fill="none" stroke-width="1.5"></path><g fill="#ca2628"><circle cx="222" cy="513" r="2"></circle><circle cx="234" cy="523" r="2"></circle><circle cx="247" cy="516" r="2"></circle><circle cx="259" cy="519" r="2"></circle><circle cx="271" cy="517" r="2"></circle><circle cx="284" cy="521" r="2"></circle><circle cx="296" cy="522" r="2"></circle><circle cx="308" cy="515" r="2"></circle><circle cx="321" cy="514" r="2"></circle><circle cx="333" cy="515" r="2"></circle><circle cx="345" cy="514" r="2"></circle><circle cx="358" cy="515" r="2"></circle><circle cx="370" cy="515" r="2"></circle><circle cx="382" cy="516" r="2"></circle><circle cx="395" cy="510" r="2"></circle><circle cx="407" cy="512" r="2"></circle><circle cx="420" cy="513" r="2"></circle><circle cx="432" cy="515" r="2"></circle><circle cx="444" cy="512" r="2"></circle><circle cx="457" cy="518" r="2"></circle><circle cx="469" cy="512" r="2"></circle><circle cx="481" cy="511" r="2"></circle><circle cx="494" cy="511" r="2"></circle><circle cx="506" cy="510" r="2"></circle><circle cx="518" cy="509" r="2"></circle><circle cx="531" cy="511" r="2"></circle><circle cx="543" cy="509" r="2"></circle><circle cx="555" cy="511" r="2"></circle><circle cx="568" cy="511" r="2"></circle><circle cx="580" cy="509" r="2"></circle><circle cx="593" cy="516" r="2"></circle><circle cx="605" cy="511" r="2"></circle><circle cx="617" cy="510" r="2"></circle><circle cx="630" cy="510" r="2"></circle><circle cx="642" cy="511" r="2"></circle><circle cx="654" cy="507" r="2"></circle><circle cx="667" cy="510" r="2"></circle><circle cx="679" cy="509" r="2"></circle><circle cx="691" cy="507" r="2"></circle><circle cx="704" cy="508" r="2"></circle><circle cx="716" cy="513" r="2"></circle><circle cx="729" cy="508" r="2"></circle></g></g></g></g></g><g class="SourcesFooter" style="fill:#777"><g class="clickable" style="fill:#777"><text font-size="12.60" x="15.0" y="581.6"><tspan x="15" y="581.58">Source: UN Food and Agricultural Organization (FAO)</tspan></text></g><text font-size="12.60" x="454.6" y="581.6"><tspan x="454.606" y="581.58"><a target='_blank' style='fill: #777;' href='https://ourworldindata.org/yields-and-land-use-in-agriculture/'>OurWorldInData.org/yields-and-land-use-in-agriculture/</a> • <a style="fill: #777;" class="cclogo" href="http://creativecommons.org/licenses/by-sa/4.0/deed.en_US" target="_blank">CC BY-SA</a></tspan></text></g></g></svg>