<svg xmlns="http://www.w3.org/2000/svg" version="1.1" style="font-family: 'Helvetica Neue', Helvetica, Arial, sans-serif; font-size: 18px; background-color: white; text-rendering: optimizeLegibility; -webkit-font-smoothing: antialiased;" width="850" height="600"><g class="ChartTab"><g class="HeaderView"><g opacity="0.8" transform="translate(778, 15) scale(0.27)"><a xmlns:xlink="http://www.w3.org/1999/xlink" xlink:href="https://ourworldindata.org" target="_blank"><g><rect x="0" y="0" fill="#1B2543" width="211.2" height="130.1"/><rect x="0" y="112.2" fill="#E63912" width="211.2" height="17.9"/><g><rect x="1.2" y="12.3" fill="none" width="210.2" height="99.2"/><path fill="#FFFFFF" d="M37.8,32.2c0,12.7-7.7,19.4-17.1,19.4c-9.7,0-16.6-7.5-16.6-18.7c0-11.7,7.3-19.3,17.1-19.3 C31.3,13.7,37.8,21.3,37.8,32.2z M9.2,32.8c0,7.9,4.3,14.9,11.8,14.9c7.5,0,11.8-6.9,11.8-15.3c0-7.3-3.8-14.9-11.8-14.9 C13.1,17.5,9.2,24.8,9.2,32.8z"/><path fill="#FFFFFF" d="M62.7,43.8c0,2.7,0.1,5.1,0.2,7.2h-4.3l-0.3-4.3h-0.1c-1.3,2.1-4,4.9-8.8,4.9c-4.2,0-9.1-2.3-9.1-11.6 V24.6h4.8v14.6c0,5,1.5,8.4,5.9,8.4c3.2,0,5.5-2.2,6.3-4.4c0.3-0.7,0.4-1.6,0.4-2.5V24.6h4.8V43.8z"/><path fill="#FFFFFF" d="M67.3,32.8c0-3.1-0.1-5.8-0.2-8.2h4.2l0.2,5.2h0.2c1.2-3.5,4.1-5.8,7.3-5.8c0.5,0,0.9,0.1,1.4,0.2v4.5 c-0.5-0.1-1-0.2-1.6-0.2c-3.4,0-5.8,2.6-6.5,6.2c-0.1,0.7-0.2,1.4-0.2,2.2V51h-4.8V32.8z"/><path fill="#FFFFFF" d="M95.4,51l-9.4-36.8h5l4.4,18.6c1.1,4.6,2.1,9.2,2.7,12.7h0.1c0.6-3.7,1.8-8,3-12.8l4.9-18.5h5l4.5,18.7 c1,4.4,2,8.7,2.6,12.6h0.1c0.8-4,1.8-8.1,3-12.7l4.9-18.5h4.9L120.6,51h-5L111,31.9c-1.1-4.7-1.9-8.3-2.4-12h-0.1 c-0.7,3.7-1.5,7.3-2.8,12L100.4,51H95.4z"/><path fill="#FFFFFF" d="M154.9,37.6c0,9.8-6.8,14-13.2,14c-7.2,0-12.7-5.2-12.7-13.6c0-8.8,5.8-14,13.1-14 C149.8,24,154.9,29.5,154.9,37.6z M133.9,37.9c0,5.8,3.3,10.1,8,10.1c4.6,0,8-4.3,8-10.3c0-4.5-2.2-10.1-7.9-10.1 C136.3,27.6,133.9,32.8,133.9,37.9z"/><path fill="#FFFFFF" d="M158.2,32.8c0-3.1-0.1-5.8-0.2-8.2h4.2l0.2,5.2h0.2c1.2-3.5,4.1-5.8,7.3-5.8c0.5,0,0.9,0.1,1.4,0.2v4.5 c-0.5-0.1-1-0.2-1.6-0.2c-3.4,0-5.8,2.6-6.5,6.2c-0.1,0.7-0.2,1.4-0.2,2.2V51h-4.8V32.8z"/><path fill="#FFFFFF" d="M173.5,12.3h4.8V51h-4.8V12.3z"/><path fill="#FFFFFF" d="M206.5,12.3v31.9c0,2.3,0.1,5,0.2,6.8h-4.3l-0.2-4.6H202c-1.5,2.9-4.7,5.2-9,5.2 c-6.4,0-11.3-5.4-11.3-13.4c-0.1-8.8,5.4-14.2,11.9-14.2c4,0,6.8,1.9,8,4h0.1V12.3H206.5z M201.7,35.4c0-0.6-0.1-1.4-0.2-2 c-0.7-3.1-3.3-5.6-6.9-5.6c-5,0-7.9,4.4-7.9,10.2c0,5.3,2.6,9.8,7.8,9.8c3.2,0,6.2-2.1,7.1-5.7c0.2-0.7,0.2-1.3,0.2-2.1V35.4z"/><path fill="#FFFFFF" d="M42.8,64c0.1,1.6-1.1,2.9-3.1,2.9c-1.7,0-2.9-1.3-2.9-2.9c0-1.7,1.3-3,3-3C41.7,61,42.8,62.3,42.8,64z M37.4,97.8V71.4h4.8v26.4H37.4z"/><path fill="#FFFFFF" d="M47.5,78.6c0-2.7-0.1-5-0.2-7.1h4.3l0.3,4.4h0.1c1.3-2.5,4.4-5,8.8-5c3.7,0,9.4,2.2,9.4,11.2v15.8h-4.8 V82.6c0-4.3-1.6-7.8-6.1-7.8c-3.2,0-5.6,2.2-6.5,4.9c-0.2,0.6-0.3,1.4-0.3,2.2v15.9h-4.8V78.6z"/><path fill="#FFFFFF" d="M84,61.6c2.9-0.4,6.3-0.8,10.1-0.8c6.8,0,11.7,1.6,14.9,4.6c3.3,3,5.2,7.3,5.2,13.2c0,6-1.9,10.9-5.3,14.3 c-3.4,3.4-9.1,5.3-16.3,5.3c-3.4,0-6.2-0.2-8.6-0.4V61.6z M88.8,94.1c1.2,0.2,3,0.3,4.8,0.3c10.2,0,15.7-5.7,15.7-15.6 c0.1-8.7-4.9-14.2-14.9-14.2c-2.5,0-4.3,0.2-5.6,0.5V94.1z"/><path fill="#FFFFFF" d="M132.1,97.8l-0.4-3.3h-0.2c-1.5,2.1-4.3,3.9-8.1,3.9c-5.4,0-8.1-3.8-8.1-7.6c0-6.4,5.7-9.9,15.9-9.8v-0.5 c0-2.2-0.6-6.1-6-6.1c-2.5,0-5,0.8-6.9,2l-1.1-3.2c2.2-1.4,5.4-2.3,8.7-2.3c8.1,0,10.1,5.5,10.1,10.8v9.9c0,2.3,0.1,4.5,0.4,6.3 H132.1z M131.4,84.4c-5.3-0.1-11.2,0.8-11.2,5.9c0,3.1,2.1,4.6,4.5,4.6c3.4,0,5.6-2.2,6.4-4.4c0.2-0.5,0.3-1,0.3-1.5V84.4z"/><path fill="#FFFFFF" d="M146.6,63.9v7.6h6.9v3.7h-6.9v14.2c0,3.3,0.9,5.1,3.6,5.1c1.3,0,2.2-0.2,2.8-0.3l0.2,3.6 c-0.9,0.4-2.4,0.7-4.3,0.7c-2.2,0-4-0.7-5.2-2c-1.4-1.4-1.9-3.8-1.9-6.9V75.1h-4.1v-3.7h4.1v-6.3L146.6,63.9z"/><path fill="#FFFFFF" d="M171.4,97.8l-0.4-3.3h-0.2c-1.5,2.1-4.3,3.9-8.1,3.9c-5.4,0-8.1-3.8-8.1-7.6c0-6.4,5.7-9.9,15.9-9.8v-0.5 c0-2.2-0.6-6.1-6-6.1c-2.5,0-5,0.8-6.9,2l-1.1-3.2c2.2-1.4,5.4-2.3,8.7-2.3c8.1,0,10.1,5.5,10.1,10.8v9.9c0,2.3,0.1,4.5,0.4,6.3 H171.4z M170.7,84.4c-5.3-0.1-11.2,0.8-11.2,5.9c0,3.1,2.1,4.6,4.5,4.6c3.4,0,5.6-2.2,6.4-4.4c0.2-0.5,0.3-1,0.3-1.5V84.4z"/></g></g></a></g><a href="https://ourworldindata.org/grapher/air-pollution-london-vs-delhi" target="_blank"><text font-size="25.20" x="15.0" y="35.2" fill="#555"><tspan x="15" y="35.160000000000004">Air pollution, London vs. Delhi</tspan></text></a><text font-size="14.40" x="15.0" y="53.7" fill="#666"><tspan x="15" y="53.72">Average concentrations of suspended particulate matter (SPM), measured in micrograms per cubic metres in London</tspan><tspan x="15" y="69.56">over the long-term and Delhi's more recent past.</tspan></text></g><g class="LineChart"><defs><clipPath id="boundsClip-151"><rect x="37.216" y="0" width="830" height="928.8"></rect></clipPath></defs><g class="AxisBoxView"><g class="HorizontalAxis"><text x="47.2" y="556.5" fill="#666" text-anchor="middle" font-size="16.2">1700</text><text x="160.3" y="556.5" fill="#666" text-anchor="middle" font-size="16.2">1750</text><text x="273.3" y="556.5" fill="#666" text-anchor="middle" font-size="16.2">1800</text><text x="386.3" y="556.5" fill="#666" text-anchor="middle" font-size="16.2">1850</text><text x="499.4" y="556.5" fill="#666" text-anchor="middle" font-size="16.2">1900</text><text x="612.4" y="556.5" fill="#666" text-anchor="middle" font-size="16.2">1950</text><text x="761.6" y="556.5" fill="#666" text-anchor="middle" font-size="16.2">2016</text></g><g class="VerticalAxis"><text x="42.22" y="535.3" fill="#666" dominant-baseline="middle" text-anchor="end" font-size="16.2">0</text><text x="42.22" y="464.2" fill="#666" dominant-baseline="middle" text-anchor="end" font-size="16.2">100</text><text x="42.22" y="393.1" fill="#666" dominant-baseline="middle" text-anchor="end" font-size="16.2">200</text><text x="42.22" y="322" fill="#666" dominant-baseline="middle" text-anchor="end" font-size="16.2">300</text><text x="42.22" y="250.9" fill="#666" dominant-baseline="middle" text-anchor="end" font-size="16.2">400</text><text x="42.22" y="179.8" fill="#666" dominant-baseline="middle" text-anchor="end" font-size="16.2">500</text><text x="42.22" y="108.7" fill="#666" dominant-baseline="middle" text-anchor="end" font-size="16.2">600</text></g><g class="AxisGridLines"><line x1="47.22" y1="535.3" x2="761.62" y2="535.3" stroke="#ccc"></line><line x1="47.22" y1="464.2" x2="761.62" y2="464.2" stroke="#ddd" stroke-dasharray="3,2"></line><line x1="47.22" y1="393.1" x2="761.62" y2="393.1" stroke="#ddd" stroke-dasharray="3,2"></line><line x1="47.22" y1="322" x2="761.62" y2="322" stroke="#ddd" stroke-dasharray="3,2"></line><line x1="47.22" y1="250.9" x2="761.62" y2="250.9" stroke="#ddd" stroke-dasharray="3,2"></line><line x1="47.22" y1="179.8" x2="761.62" y2="179.8" stroke="#ddd" stroke-dasharray="3,2"></line><line x1="47.22" y1="108.7" x2="761.62" y2="108.7" stroke="#ddd" stroke-dasharray="3,2"></line></g></g><g clip-path="url(#boundsClip-151)"><g class="HeightedLegend clickable"><g class="legendMark"><rect x="771.616" y="186.10000000000002" width="47.832" height="14.4" fill="#fff" opacity="0"></rect><rect x="771.616" y="192.05" width="10" height="2.5" fill="#ca2628"></rect><text font-size="14.40" x="786.6" y="197.6" fill="#333"><tspan x="786.616" y="197.62000000000003">Delhi</tspan></text></g><g class="legendMark"><rect x="771.616" y="516.6999999999999" width="63.38400000000001" height="14.4" fill="#fff" opacity="0"></rect><rect x="771.616" y="522.65" width="10" height="2.5" fill="#3360a9"></rect><text font-size="14.40" x="786.6" y="528.2" fill="#333"><tspan x="786.616" y="528.2199999999999">London</tspan></text></g></g><g class="Lines"><rect x="47" y="92" width="714" height="443" fill="rgba(255,255,255,0)" opacity="0"></rect><g class="key-Delhi_0"><path stroke="#ca2628" stroke-linecap="round" d="M719 277L721 267L723 269L725 229L728 264L730 211L732 257L735 258L737 270L739 228L741 276L744 240L746 186L748 193" fill="none" stroke-width="1.5"></path><g fill="#ca2628"><circle cx="719" cy="277" r="2"></circle><circle cx="721" cy="267" r="2"></circle><circle cx="723" cy="269" r="2"></circle><circle cx="725" cy="229" r="2"></circle><circle cx="728" cy="264" r="2"></circle><circle cx="730" cy="211" r="2"></circle><circle cx="732" cy="257" r="2"></circle><circle cx="735" cy="258" r="2"></circle><circle cx="737" cy="270" r="2"></circle><circle cx="739" cy="228" r="2"></circle><circle cx="741" cy="276" r="2"></circle><circle cx="744" cy="240" r="2"></circle><circle cx="746" cy="186" r="2"></circle><circle cx="748" cy="193" r="2"></circle></g></g><g class="key-London_0"><path stroke="#3360a9" stroke-linecap="round" d="M47 351L50 349L52 347L54 345L56 343L59 341L61 340L63 338L65 336L68 334L70 332L72 330L74 329L77 327L79 325L81 323L83 321L86 319L88 317L90 316L92 314L95 312L97 310L99 308L102 306L104 305L106 304L108 303L111 302L113 301L115 300L117 299L120 298L122 297L124 296L126 295L129 294L131 293L133 293L135 292L138 291L140 290L142 289L144 288L147 287L149 286L151 285L154 284L156 283L158 282L160 281L163 281L165 281L167 280L169 280L172 279L174 279L176 278L178 278L181 277L183 277L185 276L187 276L190 275L192 275L194 275L196 274L199 274L201 273L203 273L206 272L208 272L210 271L212 271L215 270L217 270L219 269L221 269L224 269L226 268L228 268L230 267L233 267L235 266L237 266L239 265L242 265L244 264L246 264L248 263L251 263L253 263L255 262L258 262L260 261L262 261L264 260L267 260L269 259L271 259L273 258L276 256L278 254L280 251L282 249L285 246L287 244L289 242L291 239L294 237L296 234L298 232L300 230L303 227L305 225L307 222L310 220L312 218L314 215L316 213L319 210L321 208L323 206L325 203L328 201L330 198L332 196L334 194L337 191L339 189L341 186L343 184L346 182L348 179L350 177L352 174L355 172L357 170L359 167L362 165L364 162L366 160L368 158L371 155L373 153L375 150L377 148L380 146L382 143L384 141L386 138L389 138L391 137L393 136L395 135L398 135L400 134L402 133L404 132L407 132L409 131L411 130L414 129L416 129L418 128L420 127L423 126L425 126L427 125L429 124L432 124L434 123L436 122L438 121L441 121L443 120L445 118L447 116L450 115L452 113L454 111L456 109L459 108L461 106L463 104L466 103L468 101L470 99L472 97L475 96L477 94L479 92L481 96L484 100L486 104L488 109L490 113L493 117L495 121L497 125L499 129L502 129L504 130L506 130L508 130L511 130L513 130L515 131L518 131L520 131L522 131L524 132L527 132L529 135L531 140L533 146L536 152L538 158L540 164L542 170L545 176L547 182L549 188L551 193L554 199L556 245L558 277L560 279L563 281L565 279L567 278L570 277L572 264L574 251L576 248L579 245L581 247L583 250L585 251L588 262L590 274L592 285L594 296L597 308L599 319L601 330L603 341L606 353L608 364L610 375L612 387L615 390L617 393L619 396L621 399L624 402L626 405L628 408L631 411L633 414L635 417L637 420L640 423L642 426L644 429L646 432L649 435L651 438L653 441L655 444L658 447L660 450L662 453L664 456L667 459L669 462L671 465L673 468L676 471L678 474L680 477L683 480L685 483L687 486L689 489L692 492L694 495L696 498L698 501L701 504L703 507L705 510L707 513L710 516L712 517L714 517L716 517L719 518L721 518L723 518L725 518L728 519L730 519L732 518L735 520L737 519L739 518L741 520L744 522L746 522L748 521L750 521L753 523L755 523L757 523L759 525L762 524" fill="none" stroke-width="1.5"></path><g fill="#3360a9"><circle cx="47" cy="351" r="2"></circle><circle cx="50" cy="349" r="2"></circle><circle cx="52" cy="347" r="2"></circle><circle cx="54" cy="345" r="2"></circle><circle cx="56" cy="343" r="2"></circle><circle cx="59" cy="341" r="2"></circle><circle cx="61" cy="340" r="2"></circle><circle cx="63" cy="338" r="2"></circle><circle cx="65" cy="336" r="2"></circle><circle cx="68" cy="334" r="2"></circle><circle cx="70" cy="332" r="2"></circle><circle cx="72" cy="330" r="2"></circle><circle cx="74" cy="329" r="2"></circle><circle cx="77" cy="327" r="2"></circle><circle cx="79" cy="325" r="2"></circle><circle cx="81" cy="323" r="2"></circle><circle cx="83" cy="321" r="2"></circle><circle cx="86" cy="319" r="2"></circle><circle cx="88" cy="317" r="2"></circle><circle cx="90" cy="316" r="2"></circle><circle cx="92" cy="314" r="2"></circle><circle cx="95" cy="312" r="2"></circle><circle cx="97" cy="310" r="2"></circle><circle cx="99" cy="308" r="2"></circle><circle cx="102" cy="306" r="2"></circle><circle cx="104" cy="305" r="2"></circle><circle cx="106" cy="304" r="2"></circle><circle cx="108" cy="303" r="2"></circle><circle cx="111" cy="302" r="2"></circle><circle cx="113" cy="301" r="2"></circle><circle cx="115" cy="300" r="2"></circle><circle cx="117" cy="299" r="2"></circle><circle cx="120" cy="298" r="2"></circle><circle cx="122" cy="297" r="2"></circle><circle cx="124" cy="296" r="2"></circle><circle cx="126" cy="295" r="2"></circle><circle cx="129" cy="294" r="2"></circle><circle cx="131" cy="293" r="2"></circle><circle cx="133" cy="293" r="2"></circle><circle cx="135" cy="292" r="2"></circle><circle cx="138" cy="291" r="2"></circle><circle cx="140" cy="290" r="2"></circle><circle cx="142" cy="289" r="2"></circle><circle cx="144" cy="288" r="2"></circle><circle cx="147" cy="287" r="2"></circle><circle cx="149" cy="286" r="2"></circle><circle cx="151" cy="285" r="2"></circle><circle cx="154" cy="284" r="2"></circle><circle cx="156" cy="283" r="2"></circle><circle cx="158" cy="282" r="2"></circle><circle cx="160" cy="281" r="2"></circle><circle cx="163" cy="281" r="2"></circle><circle cx="165" cy="281" r="2"></circle><circle cx="167" cy="280" r="2"></circle><circle cx="169" cy="280" r="2"></circle><circle cx="172" cy="279" r="2"></circle><circle cx="174" cy="279" r="2"></circle><circle cx="176" cy="278" r="2"></circle><circle cx="178" cy="278" r="2"></circle><circle cx="181" cy="277" r="2"></circle><circle cx="183" cy="277" r="2"></circle><circle cx="185" cy="276" r="2"></circle><circle cx="187" cy="276" r="2"></circle><circle cx="190" cy="275" r="2"></circle><circle cx="192" cy="275" r="2"></circle><circle cx="194" cy="275" r="2"></circle><circle cx="196" cy="274" r="2"></circle><circle cx="199" cy="274" r="2"></circle><circle cx="201" cy="273" r="2"></circle><circle cx="203" cy="273" r="2"></circle><circle cx="206" cy="272" r="2"></circle><circle cx="208" cy="272" r="2"></circle><circle cx="210" cy="271" r="2"></circle><circle cx="212" cy="271" r="2"></circle><circle cx="215" cy="270" r="2"></circle><circle cx="217" cy="270" r="2"></circle><circle cx="219" cy="269" r="2"></circle><circle cx="221" cy="269" r="2"></circle><circle cx="224" cy="269" r="2"></circle><circle cx="226" cy="268" r="2"></circle><circle cx="228" cy="268" r="2"></circle><circle cx="230" cy="267" r="2"></circle><circle cx="233" cy="267" r="2"></circle><circle cx="235" cy="266" r="2"></circle><circle cx="237" cy="266" r="2"></circle><circle cx="239" cy="265" r="2"></circle><circle cx="242" cy="265" r="2"></circle><circle cx="244" cy="264" r="2"></circle><circle cx="246" cy="264" r="2"></circle><circle cx="248" cy="263" r="2"></circle><circle cx="251" cy="263" r="2"></circle><circle cx="253" cy="263" r="2"></circle><circle cx="255" cy="262" r="2"></circle><circle cx="258" cy="262" r="2"></circle><circle cx="260" cy="261" r="2"></circle><circle cx="262" cy="261" r="2"></circle><circle cx="264" cy="260" r="2"></circle><circle cx="267" cy="260" r="2"></circle><circle cx="269" cy="259" r="2"></circle><circle cx="271" cy="259" r="2"></circle><circle cx="273" cy="258" r="2"></circle><circle cx="276" cy="256" r="2"></circle><circle cx="278" cy="254" r="2"></circle><circle cx="280" cy="251" r="2"></circle><circle cx="282" cy="249" r="2"></circle><circle cx="285" cy="246" r="2"></circle><circle cx="287" cy="244" r="2"></circle><circle cx="289" cy="242" r="2"></circle><circle cx="291" cy="239" r="2"></circle><circle cx="294" cy="237" r="2"></circle><circle cx="296" cy="234" r="2"></circle><circle cx="298" cy="232" r="2"></circle><circle cx="300" cy="230" r="2"></circle><circle cx="303" cy="227" r="2"></circle><circle cx="305" cy="225" r="2"></circle><circle cx="307" cy="222" r="2"></circle><circle cx="310" cy="220" r="2"></circle><circle cx="312" cy="218" r="2"></circle><circle cx="314" cy="215" r="2"></circle><circle cx="316" cy="213" r="2"></circle><circle cx="319" cy="210" r="2"></circle><circle cx="321" cy="208" r="2"></circle><circle cx="323" cy="206" r="2"></circle><circle cx="325" cy="203" r="2"></circle><circle cx="328" cy="201" r="2"></circle><circle cx="330" cy="198" r="2"></circle><circle cx="332" cy="196" r="2"></circle><circle cx="334" cy="194" r="2"></circle><circle cx="337" cy="191" r="2"></circle><circle cx="339" cy="189" r="2"></circle><circle cx="341" cy="186" r="2"></circle><circle cx="343" cy="184" r="2"></circle><circle cx="346" cy="182" r="2"></circle><circle cx="348" cy="179" r="2"></circle><circle cx="350" cy="177" r="2"></circle><circle cx="352" cy="174" r="2"></circle><circle cx="355" cy="172" r="2"></circle><circle cx="357" cy="170" r="2"></circle><circle cx="359" cy="167" r="2"></circle><circle cx="362" cy="165" r="2"></circle><circle cx="364" cy="162" r="2"></circle><circle cx="366" cy="160" r="2"></circle><circle cx="368" cy="158" r="2"></circle><circle cx="371" cy="155" r="2"></circle><circle cx="373" cy="153" r="2"></circle><circle cx="375" cy="150" r="2"></circle><circle cx="377" cy="148" r="2"></circle><circle cx="380" cy="146" r="2"></circle><circle cx="382" cy="143" r="2"></circle><circle cx="384" cy="141" r="2"></circle><circle cx="386" cy="138" r="2"></circle><circle cx="389" cy="138" r="2"></circle><circle cx="391" cy="137" r="2"></circle><circle cx="393" cy="136" r="2"></circle><circle cx="395" cy="135" r="2"></circle><circle cx="398" cy="135" r="2"></circle><circle cx="400" cy="134" r="2"></circle><circle cx="402" cy="133" r="2"></circle><circle cx="404" cy="132" r="2"></circle><circle cx="407" cy="132" r="2"></circle><circle cx="409" cy="131" r="2"></circle><circle cx="411" cy="130" r="2"></circle><circle cx="414" cy="129" r="2"></circle><circle cx="416" cy="129" r="2"></circle><circle cx="418" cy="128" r="2"></circle><circle cx="420" cy="127" r="2"></circle><circle cx="423" cy="126" r="2"></circle><circle cx="425" cy="126" r="2"></circle><circle cx="427" cy="125" r="2"></circle><circle cx="429" cy="124" r="2"></circle><circle cx="432" cy="124" r="2"></circle><circle cx="434" cy="123" r="2"></circle><circle cx="436" cy="122" r="2"></circle><circle cx="438" cy="121" r="2"></circle><circle cx="441" cy="121" r="2"></circle><circle cx="443" cy="120" r="2"></circle><circle cx="445" cy="118" r="2"></circle><circle cx="447" cy="116" r="2"></circle><circle cx="450" cy="115" r="2"></circle><circle cx="452" cy="113" r="2"></circle><circle cx="454" cy="111" r="2"></circle><circle cx="456" cy="109" r="2"></circle><circle cx="459" cy="108" r="2"></circle><circle cx="461" cy="106" r="2"></circle><circle cx="463" cy="104" r="2"></circle><circle cx="466" cy="103" r="2"></circle><circle cx="468" cy="101" r="2"></circle><circle cx="470" cy="99" r="2"></circle><circle cx="472" cy="97" r="2"></circle><circle cx="475" cy="96" r="2"></circle><circle cx="477" cy="94" r="2"></circle><circle cx="479" cy="92" r="2"></circle><circle cx="481" cy="96" r="2"></circle><circle cx="484" cy="100" r="2"></circle><circle cx="486" cy="104" r="2"></circle><circle cx="488" cy="109" r="2"></circle><circle cx="490" cy="113" r="2"></circle><circle cx="493" cy="117" r="2"></circle><circle cx="495" cy="121" r="2"></circle><circle cx="497" cy="125" r="2"></circle><circle cx="499" cy="129" r="2"></circle><circle cx="502" cy="129" r="2"></circle><circle cx="504" cy="130" r="2"></circle><circle cx="506" cy="130" r="2"></circle><circle cx="508" cy="130" r="2"></circle><circle cx="511" cy="130" r="2"></circle><circle cx="513" cy="130" r="2"></circle><circle cx="515" cy="131" r="2"></circle><circle cx="518" cy="131" r="2"></circle><circle cx="520" cy="131" r="2"></circle><circle cx="522" cy="131" r="2"></circle><circle cx="524" cy="132" r="2"></circle><circle cx="527" cy="132" r="2"></circle><circle cx="529" cy="135" r="2"></circle><circle cx="531" cy="140" r="2"></circle><circle cx="533" cy="146" r="2"></circle><circle cx="536" cy="152" r="2"></circle><circle cx="538" cy="158" r="2"></circle><circle cx="540" cy="164" r="2"></circle><circle cx="542" cy="170" r="2"></circle><circle cx="545" cy="176" r="2"></circle><circle cx="547" cy="182" r="2"></circle><circle cx="549" cy="188" r="2"></circle><circle cx="551" cy="193" r="2"></circle><circle cx="554" cy="199" r="2"></circle><circle cx="556" cy="245" r="2"></circle><circle cx="558" cy="277" r="2"></circle><circle cx="560" cy="279" r="2"></circle><circle cx="563" cy="281" r="2"></circle><circle cx="565" cy="279" r="2"></circle><circle cx="567" cy="278" r="2"></circle><circle cx="570" cy="277" r="2"></circle><circle cx="572" cy="264" r="2"></circle><circle cx="574" cy="251" r="2"></circle><circle cx="576" cy="248" r="2"></circle><circle cx="579" cy="245" r="2"></circle><circle cx="581" cy="247" r="2"></circle><circle cx="583" cy="250" r="2"></circle><circle cx="585" cy="251" r="2"></circle><circle cx="588" cy="262" r="2"></circle><circle cx="590" cy="274" r="2"></circle><circle cx="592" cy="285" r="2"></circle><circle cx="594" cy="296" r="2"></circle><circle cx="597" cy="308" r="2"></circle><circle cx="599" cy="319" r="2"></circle><circle cx="601" cy="330" r="2"></circle><circle cx="603" cy="341" r="2"></circle><circle cx="606" cy="353" r="2"></circle><circle cx="608" cy="364" r="2"></circle><circle cx="610" cy="375" r="2"></circle><circle cx="612" cy="387" r="2"></circle><circle cx="615" cy="390" r="2"></circle><circle cx="617" cy="393" r="2"></circle><circle cx="619" cy="396" r="2"></circle><circle cx="621" cy="399" r="2"></circle><circle cx="624" cy="402" r="2"></circle><circle cx="626" cy="405" r="2"></circle><circle cx="628" cy="408" r="2"></circle><circle cx="631" cy="411" r="2"></circle><circle cx="633" cy="414" r="2"></circle><circle cx="635" cy="417" r="2"></circle><circle cx="637" cy="420" r="2"></circle><circle cx="640" cy="423" r="2"></circle><circle cx="642" cy="426" r="2"></circle><circle cx="644" cy="429" r="2"></circle><circle cx="646" cy="432" r="2"></circle><circle cx="649" cy="435" r="2"></circle><circle cx="651" cy="438" r="2"></circle><circle cx="653" cy="441" r="2"></circle><circle cx="655" cy="444" r="2"></circle><circle cx="658" cy="447" r="2"></circle><circle cx="660" cy="450" r="2"></circle><circle cx="662" cy="453" r="2"></circle><circle cx="664" cy="456" r="2"></circle><circle cx="667" cy="459" r="2"></circle><circle cx="669" cy="462" r="2"></circle><circle cx="671" cy="465" r="2"></circle><circle cx="673" cy="468" r="2"></circle><circle cx="676" cy="471" r="2"></circle><circle cx="678" cy="474" r="2"></circle><circle cx="680" cy="477" r="2"></circle><circle cx="683" cy="480" r="2"></circle><circle cx="685" cy="483" r="2"></circle><circle cx="687" cy="486" r="2"></circle><circle cx="689" cy="489" r="2"></circle><circle cx="692" cy="492" r="2"></circle><circle cx="694" cy="495" r="2"></circle><circle cx="696" cy="498" r="2"></circle><circle cx="698" cy="501" r="2"></circle><circle cx="701" cy="504" r="2"></circle><circle cx="703" cy="507" r="2"></circle><circle cx="705" cy="510" r="2"></circle><circle cx="707" cy="513" r="2"></circle><circle cx="710" cy="516" r="2"></circle><circle cx="712" cy="517" r="2"></circle><circle cx="714" cy="517" r="2"></circle><circle cx="716" cy="517" r="2"></circle><circle cx="719" cy="518" r="2"></circle><circle cx="721" cy="518" r="2"></circle><circle cx="723" cy="518" r="2"></circle><circle cx="725" cy="518" r="2"></circle><circle cx="728" cy="519" r="2"></circle><circle cx="730" cy="519" r="2"></circle><circle cx="732" cy="518" r="2"></circle><circle cx="735" cy="520" r="2"></circle><circle cx="737" cy="519" r="2"></circle><circle cx="739" cy="518" r="2"></circle><circle cx="741" cy="520" r="2"></circle><circle cx="744" cy="522" r="2"></circle><circle cx="746" cy="522" r="2"></circle><circle cx="748" cy="521" r="2"></circle><circle cx="750" cy="521" r="2"></circle><circle cx="753" cy="523" r="2"></circle><circle cx="755" cy="523" r="2"></circle><circle cx="757" cy="523" r="2"></circle><circle cx="759" cy="525" r="2"></circle><circle cx="762" cy="524" r="2"></circle></g></g></g></g></g><g style="fill: #777;" class="SourcesFooter"><g style="fill: #777;" class="clickable"><text font-size="12.60" x="15.0" y="581.6"><tspan x="15" y="581.58">Source: Fouquet (2011) and Government of India (2012-13)</tspan></text></g><text font-size="12.60" x="534.5" y="581.6"><tspan x="534.49" y="581.58"><a target='_blank' style='fill: #777;' href='https://ourworldindata.org/london-air-pollution/'>OurWorldInData.org/london-air-pollution/</a> • <a style="fill: #777;" href="http://creativecommons.org/licenses/by-sa/4.0/deed.en_US" target="_blank">CC BY-SA</a></tspan></text></g></g></svg>