<svg xmlns="http://www.w3.org/2000/svg" version="1.1" style="font-family:&#x27;Helvetica Neue&#x27;, Helvetica, Arial, sans-serif;font-size:18px;background-color:white;text-rendering:optimizeLegibility;-webkit-font-smoothing:antialiased" width="850" height="600"><g class="HeaderView"><a href="https://ourworldindata.org/grapher/annual-hours-of-work-and-income-18702000" target="_blank"><text font-size="25.20" x="15.0" y="35.2" fill="#555"><tspan x="15" y="35.160000000000004">Annual hours of work and income (1870–2000)</tspan></text></a><text font-size="14.40" x="15.0" y="53.7" fill="#666"><tspan x="15" y="53.72">Unit 3 &#x27;Scarcity, work, and choice’ in The CORE Team, The Economy. Available at: https://tinyco.re/3030155 [Figure 3.1]
</tspan></text></g><g><g class="AxisBoxView"><g class="HorizontalAxis"><text font-size="12.60" x="283.0" y="554.0"><tspan x="283.03700000000003" y="553.98">GDP per capita 1990 int GK$</tspan></text><text x="83.4" y="533.9" fill="#666" text-anchor="middle" font-size="16.2">1,876</text><text x="146.3" y="533.9" fill="#666" text-anchor="middle" font-size="16.2">5,000</text><text x="246.9" y="533.9" fill="#666" text-anchor="middle" font-size="16.2">10,000</text><text x="347.5" y="533.9" fill="#666" text-anchor="middle" font-size="16.2">15,000</text><text x="448.2" y="533.9" fill="#666" text-anchor="middle" font-size="16.2">20,000</text><text x="548.8" y="533.9" fill="#666" text-anchor="middle" font-size="16.2">25,000</text><text x="649.4" y="533.9" fill="#666" text-anchor="middle" font-size="16.2">30,000</text></g><g class="VerticalAxis"><text font-size="12.60" x="-375.0" y="25.1" transform="rotate(-90)"><tspan x="-374.95899999999995" y="25.080000000000002">Annual hours of work</tspan></text><text x="78.42" y="512.7" fill="#666" dominant-baseline="middle" text-anchor="end" font-size="16.2">1,000</text><text x="78.42" y="416.4" fill="#666" dominant-baseline="middle" text-anchor="end" font-size="16.2">1,500</text><text x="78.42" y="320" fill="#666" dominant-baseline="middle" text-anchor="end" font-size="16.2">2,000</text><text x="78.42" y="223.7" fill="#666" dominant-baseline="middle" text-anchor="end" font-size="16.2">2,500</text><text x="78.42" y="127.4" fill="#666" dominant-baseline="middle" text-anchor="end" font-size="16.2">3,000</text></g><g class="AxisGridLines"><line x1="83.42" y1="512.7" x2="715.00" y2="512.7" stroke="#ddd" stroke-dasharray="3,2"></line><line x1="83.42" y1="416.4" x2="715.00" y2="416.4" stroke="#ddd" stroke-dasharray="3,2"></line><line x1="83.42" y1="320" x2="715.00" y2="320" stroke="#ddd" stroke-dasharray="3,2"></line><line x1="83.42" y1="223.7" x2="715.00" y2="223.7" stroke="#ddd" stroke-dasharray="3,2"></line><line x1="83.42" y1="127.4" x2="715.00" y2="127.4" stroke="#ddd" stroke-dasharray="3,2"></line></g><g class="AxisGridLines"><line x1="146.3" y1="512.70" x2="146.3" y2="74.60" stroke="#ddd" stroke-dasharray="3,2"></line><line x1="246.9" y1="512.70" x2="246.9" y2="74.60" stroke="#ddd" stroke-dasharray="3,2"></line><line x1="347.5" y1="512.70" x2="347.5" y2="74.60" stroke="#ddd" stroke-dasharray="3,2"></line><line x1="448.2" y1="512.70" x2="448.2" y2="74.60" stroke="#ddd" stroke-dasharray="3,2"></line><line x1="548.8" y1="512.70" x2="548.8" y2="74.60" stroke="#ddd" stroke-dasharray="3,2"></line><line x1="649.4" y1="512.70" x2="649.4" y2="74.60" stroke="#ddd" stroke-dasharray="3,2"></line></g></g><g class="PointsWithLabels clickable" clip-path="url(#scatterBounds-1)" font-family="Arial, sans-serif"><rect x="83.424" y="74.6" width="631.576" height="438.09999999999997" fill="rgba(255,255,255,0)"></rect><defs><clipPath id="scatterBounds-1"><rect x="73.424" y="64.6" width="651.576" height="458.09999999999997"></rect></clipPath></defs><g class="backgroundLabels" fill="#aaa"></g><g class="key-United-States_0"><defs><marker id="key-United-States_0-arrow-1" fill="#e6332e" viewBox="0 -5 10 10" refX="5" refY="0" markerWidth="4" markerHeight="4" orient="auto"><path d="M0,-5L10,0L0,5"></path></marker><marker id="key-United-States_0-circle-1" viewBox="0 0 12 12" refX="4" refY="4" orient="auto" fill="#e6332e"><circle cx="4" cy="4" r="4"></circle></marker></defs><circle cx="92.00" cy="108.00" r="1.8892062058076386" fill="none" stroke="#e6332e" opacity="0.6"></circle><polyline stroke-linecap="round" stroke="#e6332e" points="92.00,108.00 107.00,118.00 111.00,130.00 124.00,139.00 147.00,146.00 178.00,259.00 169.00,367.00 238.00,318.00 273.00,313.00 381.00,331.00 419.00,348.00 512.00,350.00 625.00,352.00 624.00,356.00 629.00,357.00 641.00,359.00 657.00,359.00 672.00,359.00 683.00,359.00 688.00,359.00 680.00,361.00 657.00,365.00 667.00,363.00 672.00,362.00 681.00,361.00 687.00,362.00 697.00,361.00 709.00,361.00 715.00,362.00" fill="none" stroke-width="0.8892062058076386" opacity="0.6" marker-start="url(#key-United-States_0-circle-1)" marker-mid="url(#key-United-States_0-circle-1)" marker-end="url(#key-United-States_0-arrow-1)"></polyline></g><g class="key-Netherlands_0"><defs><marker id="key-Netherlands_0-arrow-1" fill="#f6a324" viewBox="0 -5 10 10" refX="5" refY="0" markerWidth="4" markerHeight="4" orient="auto"><path d="M0,-5L10,0L0,5"></path></marker><marker id="key-Netherlands_0-circle-1" viewBox="0 0 12 12" refX="4" refY="4" orient="auto" fill="#f6a324"><circle cx="4" cy="4" r="4"></circle></marker></defs><circle cx="101.00" cy="74.00" r="1.8892062058076386" fill="none" stroke="#f6a324" opacity="0.6"></circle><polyline stroke-linecap="round" stroke="#f6a324" points="101.00,74.00 104.00,90.00 109.00,107.00 112.00,120.00 127.00,138.00 160.00,275.00 151.00,265.00 166.00,290.00 212.00,319.00 308.00,376.00 341.00,384.00 393.00,432.00 497.00,423.00 503.00,425.00 501.00,428.00 500.00,430.00 507.00,426.00 516.00,429.00 532.00,429.00 549.00,429.00 555.00,429.00 534.00,431.00 538.00,431.00 544.00,431.00 537.00,433.00 534.00,432.00 540.00,430.00 547.00,431.00 555.00,428.00" fill="none" stroke-width="0.8892062058076386" opacity="0.6" marker-start="url(#key-Netherlands_0-circle-1)" marker-mid="url(#key-Netherlands_0-circle-1)" marker-end="url(#key-Netherlands_0-arrow-1)"></polyline></g><g class="key-France_0"><defs><marker id="key-France_0-arrow-1" fill="#34983f" viewBox="0 -5 10 10" refX="5" refY="0" markerWidth="4" markerHeight="4" orient="auto"><path d="M0,-5L10,0L0,5"></path></marker><marker id="key-France_0-circle-1" viewBox="0 0 12 12" refX="4" refY="4" orient="auto" fill="#34983f"><circle cx="4" cy="4" r="4"></circle></marker></defs><circle cx="83.00" cy="95.00" r="1.8892062058076386" fill="none" stroke="#34983f" opacity="0.6"></circle><polyline stroke-linecap="round" stroke="#34983f" points="83.00,95.00 88.00,95.00 93.00,104.00 103.00,105.00 115.00,140.00 140.00,281.00 135.00,366.00 150.00,311.00 194.00,315.00 303.00,349.00 342.00,378.00 400.00,405.00 461.00,406.00 466.00,410.00 469.00,416.00 470.00,416.00 479.00,411.00 483.00,411.00 491.00,414.00 499.00,410.00 497.00,409.00 481.00,412.00 487.00,411.00 494.00,409.00 493.00,410.00 493.00,413.00 492.00,414.00 496.00,414.00 499.00,415.00" fill="none" stroke-width="0.8892062058076386" opacity="0.6" marker-start="url(#key-France_0-circle-1)" marker-mid="url(#key-France_0-circle-1)" marker-end="url(#key-France_0-arrow-1)"></polyline></g><text x="89.84" y="105.23" font-size="8" font-family="Arial, sans-serif" fill="#333">1870</text><text x="647.57" y="368.82" font-size="12" font-family="Arial, sans-serif" fill="#333">United States</text><text x="84.16" y="82.60" font-size="8" font-family="Arial, sans-serif" fill="#333">1870</text><text x="559.68" y="426.24" font-size="12" font-family="Arial, sans-serif" fill="#333">Netherlands</text><text x="80.00" y="95.00" font-size="8" font-family="Arial, sans-serif" fill="#333">1870</text><text x="503.74" y="422.58" font-size="12" font-family="Arial, sans-serif" fill="#333">France</text></g><g class="ScatterColorLegend clickable" style="cursor:pointer"></g><line x1="735" y1="76.6" x2="830" y2="76.6" stroke="#ccc"></line><g class="clickable"><g class="ConnectedScatterLegend"><rect x="735" y="85.6" width="100" height="12.6" fill="#fff" opacity="0"></rect><text font-size="12.60" x="735.0" y="95.7" fill="#333"><tspan x="735" y="95.67999999999999">1870</tspan></text><text font-size="12.60" x="806.8" y="95.7" fill="#333"><tspan x="806.776" y="95.67999999999999">2016</tspan></text><line x1="768.224" y1="91.39999999999999" x2="801.776" y2="91.39999999999999" stroke="#666" stroke-width="1"></line><circle cx="768.224" cy="91.39999999999999" r="2" fill="#666" stroke="#ccc" stroke-width="0.2"></circle><circle cx="779.408" cy="91.39999999999999" r="2" fill="#666" stroke="#ccc" stroke-width="0.2"></circle><circle cx="790.592" cy="91.39999999999999" r="2" fill="#666" stroke="#ccc" stroke-width="0.2"></circle><polygon points="798.78,96.40 801.78,88.40 804.78,94.40" cx="801.776" cy="91.39999999999999" r="3" fill="#666" stroke="#ccc" stroke-width="0.2" transform="rotate(90, 801.776, 91.39999999999999)"></polygon></g></g></g><g class="SourcesFooter" style="fill:#777"><g class="clickable" style="fill:#777"><text font-size="12.60" x="15.0" y="581.6"><tspan x="15" y="581.58">Source: Maddison Project Database (2018); Huberman, Minns (2007); OECD (2019)</tspan></text></g><text font-size="12.60" x="546.0" y="581.6"><tspan x="545.956" y="581.58"><a target='_blank' style='fill: #777;' href='https://tinyco.re/3030155'>tinyco.re/3030155</a> • <a href="https://ourworldindata.org" target="_blank">Powered by ourworldindata.org</a></tspan></text></g></svg>