<svg xmlns="http://www.w3.org/2000/svg" version="1.1" style="background-color:#fff;-webkit-font-smoothing:antialiased" width="850" height="600" viewBox="0 0 850 600" font-family="Lato,'Helvetica Neue',Helvetica,Arial,sans-serif" font-size="18" text-rendering="optimizeLegibility"><g class="HeaderView"><g transform="matrix(.95 0 0 .95 739 15)"><svg width="102" height="37" viewBox="0 0 102 37" fill="none" xmlns="http://www.w3.org/2000/svg"><path d="M47 0H0v37h47V0z" fill="#EA4148"/><path d="M3.78 11.85c0-3.55 2.67-5.6 5.68-5.6a4.63 4.63 0 013.09 1.1l-1.7 2.36c-.31-.32-.74-.5-1.18-.52-1.36 0-2.16 1.03-2.16 2.66 0 1.62.89 2.65 2.03 2.65a2.93 2.93 0 001.7-.69l1.4 2.4a5.29 5.29 0 01-3.52 1.24c-3 0-5.34-2.05-5.34-5.6z" fill="#fff"/><path d="M18.85 11.85c0-1.63-.42-2.66-1.52-2.66s-1.52 1.03-1.52 2.66c0 1.62.42 2.65 1.52 2.65s1.52-1.03 1.52-2.65zm-6.77 0c0-3.55 2.54-5.6 5.25-5.6 2.7 0 5.25 2.05 5.25 5.6s-2.54 5.6-5.25 5.6-5.25-2.05-5.25-5.6M23.34 6.5h2.97l.25 1.84h.09c.78-1.46 1.97-2.1 3-2.1.45-.02.9.05 1.32.22l-.6 3.16c-.38-.1-.78-.16-1.18-.17-.76 0-1.7.47-2.2 1.8v5.94h-3.65V6.5zM36.98 10.56c0-.81-.34-1.54-1.44-1.54-.8 0-1.49.47-1.7 1.54h3.14zm-6.6 1.29c0-3.47 2.49-5.6 5.07-5.6 3.13 0 4.62 2.3 4.62 5.17 0 .52-.05 1.03-.15 1.54h-6.04c.34 1.28 1.27 1.71 2.46 1.71a4.3 4.3 0 002.16-.64l1.18 2.18a7.08 7.08 0 01-3.85 1.24c-3.09 0-5.46-2.05-5.46-5.6" fill="#fff"/><path d="M10.43 23.87c0-.81-.34-1.54-1.44-1.54-.8 0-1.48.47-1.69 1.54h3.13zm-6.6 1.28c0-3.46 2.5-5.6 5.08-5.6 3.13 0 4.61 2.3 4.61 5.18 0 .51-.05 1.03-.15 1.54H7.34c.34 1.28 1.27 1.7 2.46 1.7.76-.01 1.5-.23 2.16-.63l1.18 2.18a7.08 7.08 0 01-3.85 1.24c-3.1 0-5.46-2.06-5.46-5.6M13.9 25.15c0-3.55 2.67-5.6 5.68-5.6a4.63 4.63 0 013.09 1.11l-1.7 2.35c-.32-.31-.74-.5-1.18-.51-1.36 0-2.16 1.03-2.16 2.65 0 1.63.89 2.66 2.03 2.66a2.93 2.93 0 001.7-.69l1.39 2.4a5.29 5.29 0 01-3.51 1.24c-3 0-5.34-2.06-5.34-5.6" fill="#1A1818"/><path d="M28.97 25.15c0-1.62-.42-2.65-1.52-2.65s-1.52 1.03-1.52 2.65c0 1.63.42 2.66 1.52 2.66s1.52-1.03 1.52-2.66zm-6.77 0c0-3.55 2.54-5.6 5.25-5.6 2.7 0 5.25 2.05 5.25 5.6s-2.54 5.6-5.25 5.6-5.25-2.04-5.25-5.6M33.54 19.8h2.97l.25 1.29h.09a4.76 4.76 0 013.34-1.54c2.33 0 3.3 1.71 3.3 4.36v6.6h-3.64v-6.13c0-1.37-.34-1.7-1.06-1.7-.67 0-1.05.3-1.6.8v7.02h-3.65V19.8z" fill="#1A1818"/><path fill="#fff" d="M48 0h54v37H48z"/><path d="M48 0h53.93v33H48V0z" fill="#002147"/><path d="M58.42 10.86c0 .61-.1 1.18-.3 1.7a3.83 3.83 0 01-2.15 2.21c-.5.21-1.07.32-1.7.32-.6 0-1.17-.1-1.68-.32a3.9 3.9 0 01-2.15-2.21c-.2-.52-.3-1.09-.3-1.7 0-.61.1-1.18.3-1.7a3.93 3.93 0 012.15-2.22 4.38 4.38 0 011.69-.31c.62 0 1.18.1 1.69.31a3.79 3.79 0 012.15 2.22c.2.52.3 1.09.3 1.7zm-1.38 0c0-.48-.06-.9-.2-1.28A2.38 2.38 0 0055.43 8a2.97 2.97 0 00-1.14-.21c-.42 0-.8.07-1.15.21-.34.14-.63.35-.87.61-.24.27-.43.59-.56.97-.13.38-.2.8-.2 1.28s.07.9.2 1.29a2.46 2.46 0 001.43 1.57c.35.14.73.2 1.15.2.42 0 .8-.06 1.15-.2a2.4 2.4 0 001.42-1.57c.13-.38.2-.81.2-1.29zm7.14-1.72V15h-.74c-.17 0-.27-.08-.32-.24l-.1-.54a3.42 3.42 0 01-.81.63 2.3 2.3 0 01-1.06.24c-.32 0-.6-.05-.85-.16a1.72 1.72 0 01-1-1.15 3.1 3.1 0 01-.12-.91V9.14h1.24v3.73c0 .4.09.7.27.92.18.22.46.32.83.32.27 0 .53-.06.76-.18.24-.13.46-.3.67-.52V9.13h1.23zm2.33 1.08c.18-.37.4-.66.66-.87.27-.22.58-.32.94-.32a1.34 1.34 0 01.66.17l-.09.93c-.01.06-.04.11-.07.14a.2.2 0 01-.13.03c-.06 0-.14 0-.25-.03a1.62 1.62 0 00-.8.04c-.13.05-.25.13-.35.22-.1.1-.2.21-.28.35-.08.14-.15.3-.22.47V15h-1.24V9.13h.72c.13 0 .22.03.27.08.05.05.08.13.1.25l.08.76zm16-3.5L79.94 15h-1.21l-1.95-5.95a4.7 4.7 0 01-.12-.46 3.32 3.32 0 01-.13.46L74.57 15h-1.22l-2.57-8.28h1.13c.11 0 .2.03.28.09.08.05.14.12.16.22l1.56 5.3a6.11 6.11 0 01.16.8 10 10 0 01.2-.8l1.78-5.3a.48.48 0 01.16-.21c.08-.07.17-.1.28-.1h.4c.11 0 .21.03.28.1.08.05.13.12.17.21l1.77 5.3.1.37.1.4a59.35 59.35 0 00.16-.76L81 7.03a.4.4 0 01.16-.22c.08-.06.18-.09.3-.09h1.04zm2.41 2.32c.44 0 .83.07 1.18.22a2.49 2.49 0 011.47 1.55c.13.37.2.79.2 1.25 0 .47-.07.88-.2 1.26-.14.37-.33.69-.58.95-.24.26-.54.46-.9.6-.34.15-.73.22-1.17.22-.43 0-.83-.07-1.18-.22a2.55 2.55 0 01-1.47-1.55c-.14-.38-.2-.8-.2-1.26 0-.46.06-.88.2-1.25a2.55 2.55 0 011.47-1.55c.35-.15.75-.22 1.18-.22zm0 5.08c.53 0 .92-.18 1.18-.53.26-.36.4-.86.4-1.52s-.14-1.17-.4-1.53c-.26-.36-.65-.54-1.18-.54-.53 0-.93.18-1.2.54-.25.36-.38.87-.38 1.53s.13 1.16.39 1.52c.26.35.66.53 1.2.53zm4.86-3.9c.18-.37.4-.66.67-.87.26-.22.57-.32.93-.32a1.34 1.34 0 01.66.17l-.09.93c-.01.06-.04.11-.07.14a.2.2 0 01-.13.03c-.06 0-.14 0-.25-.03a1.62 1.62 0 00-.8.04c-.13.05-.24.13-.35.22-.1.1-.2.21-.28.35-.08.14-.15.3-.22.47V15H88.6V9.13h.72c.13 0 .22.03.27.08.05.05.08.13.1.25l.08.76zm4-3.73V15h-1.25V6.49h1.24zm4.91 4.09a1.45 1.45 0 00-1.24-.6c-.48 0-.86.18-1.13.54-.27.35-.4.87-.4 1.56 0 .37.02.67.08.93.07.25.15.46.27.62.11.16.25.28.42.35.16.08.35.11.56.11.31 0 .58-.07.8-.2.24-.14.45-.33.64-.58v-2.73zm1.24-4.09V15h-.75c-.16 0-.27-.08-.31-.24l-.11-.63c-.25.28-.53.52-.84.7-.31.17-.67.26-1.09.26a1.96 1.96 0 01-1.59-.78c-.19-.25-.34-.57-.44-.94a4.86 4.86 0 01.01-2.5c.12-.37.3-.7.51-.96a2.3 2.3 0 011.85-.88c.34 0 .63.05.88.16.24.11.45.26.64.46V6.49h1.24zm-39.9 14.65V27h-1.24v-5.86h1.24zm.2-1.78c0 .12-.02.22-.06.32a.83.83 0 01-1.34.26.8.8 0 01-.24-.58c0-.11.02-.22.06-.32a.89.89 0 01.43-.43.76.76 0 01.64 0 .81.81 0 01.45.43c.04.1.06.2.06.32zm2.16 2.55a3.67 3.67 0 01.83-.63 2.32 2.32 0 011.9-.08c.24.11.45.26.61.46.17.2.3.43.38.7.09.28.13.58.13.9V27H65v-3.73c0-.4-.1-.7-.28-.92-.18-.22-.45-.33-.83-.33-.27 0-.53.06-.77.19-.23.13-.45.3-.66.52V27h-1.23v-5.86h.74c.17 0 .28.07.33.23l.08.54zm14.96.95c0 .61-.1 1.17-.3 1.68a3.78 3.78 0 01-2.15 2.16c-.5.2-1.07.3-1.69.3H70.1v-8.28h3.12c.62 0 1.19.1 1.7.3a3.71 3.71 0 012.14 2.16c.2.5.3 1.07.3 1.68zm-1.37 0c0-.48-.07-.9-.2-1.28a2.6 2.6 0 00-.55-.96 2.35 2.35 0 00-.87-.6 2.97 2.97 0 00-1.15-.21h-1.77v6.1h1.77c.43 0 .81-.07 1.15-.2.34-.14.63-.34.87-.6.24-.27.43-.59.55-.96.13-.38.2-.81.2-1.29zm5.27 1.58a7.5 7.5 0 00-1.12.1c-.3.06-.55.13-.73.22a.97.97 0 00-.41.3.68.68 0 00-.12.4c0 .13.02.25.06.35.05.1.1.18.18.24.08.06.18.1.28.14a1.78 1.78 0 001.18-.14c.23-.12.46-.3.68-.53v-1.08zm-3.28-2.49a3.36 3.36 0 012.37-.92c.34 0 .63.05.9.16.26.11.48.26.66.46.18.2.31.44.4.72.1.27.15.57.15.9V27h-.55a.56.56 0 01-.27-.05c-.06-.04-.12-.11-.16-.23l-.12-.47-.44.36c-.15.1-.3.2-.46.26a2.77 2.77 0 01-1.75.12c-.2-.06-.38-.16-.53-.29a1.46 1.46 0 01-.48-1.18c0-.23.06-.45.18-.66.12-.22.32-.41.6-.58.27-.17.64-.31 1.1-.43a8.03 8.03 0 011.68-.19v-.39c0-.42-.1-.73-.27-.94-.18-.2-.45-.3-.8-.3-.23-.01-.43.02-.6.08a6.05 6.05 0 00-.74.39.54.54 0 01-.28.08.38.38 0 01-.22-.06.6.6 0 01-.15-.17l-.22-.4zm7.38 5.14c-.48 0-.86-.13-1.12-.4-.26-.28-.4-.67-.4-1.17v-3.41h-.64a.27.27 0 01-.18-.07c-.05-.04-.07-.11-.07-.2v-.5l.95-.14.27-1.7a.31.31 0 01.1-.15c.04-.04.1-.06.18-.06h.63v1.93h1.63v.89h-1.63v3.33c0 .2.05.37.16.48.1.11.24.17.41.17a.79.79 0 00.43-.12 4 4 0 00.12-.08.2.2 0 01.11-.04c.07 0 .13.04.17.11l.37.6c-.2.18-.42.3-.68.4a2.5 2.5 0 01-.8.13zm5.11-2.65a7.5 7.5 0 00-1.11.1 3 3 0 00-.74.22.97.97 0 00-.4.3.68.68 0 00-.13.4c0 .13.02.25.06.35.05.1.11.18.19.24s.17.1.28.14a1.78 1.78 0 001.18-.14c.23-.12.45-.3.67-.53v-1.08zm-3.28-2.49a3.36 3.36 0 012.37-.92c.34 0 .64.05.9.16.27.11.49.26.66.46.18.2.32.44.41.72.1.27.14.57.14.9V27h-.55a.56.56 0 01-.27-.05c-.06-.04-.11-.11-.15-.23l-.12-.47-.45.36c-.14.1-.3.2-.45.26a2.77 2.77 0 01-1.75.12c-.2-.06-.38-.16-.53-.29a1.46 1.46 0 01-.49-1.18c0-.23.06-.45.18-.66.12-.22.32-.41.6-.58.28-.17.65-.31 1.1-.43a8.03 8.03 0 011.68-.19v-.39c0-.42-.09-.73-.27-.94-.18-.2-.44-.3-.8-.3-.23-.01-.43.02-.59.08a6.09 6.09 0 00-.74.39.54.54 0 01-.29.08.38.38 0 01-.22-.06.6.6 0 01-.14-.17l-.23-.4z" fill="#fff"/><path fill="#D42B21" d="M48 32.65h54V37H48z"/></svg></g><a href="https://ourworldindata.org/grapher/but-so-is-the-quality-of-their-local-environment-finn" target="_blank" font-family="&quot;Playfair Display&quot;,Georgia,&quot;Times New Roman&quot;,serif"><text font-size="25.2" x="15" y="35.2" fill="#555"><tspan x="15" y="35.16">… but so is the quality of their local environment</tspan></text></a><text font-size="14.4" x="15" y="55.7" fill="#666"><tspan x="15" y="55.72">Unit 20 &apos;Capstone: Economics of the environment’ Section 20.10 &apos;Policy choices matter&apos; in The CORE Team,</tspan><tspan x="15" y="71.56">The Economy. Available at https://tinyco.re/20102551 [Figure 20.25b]</tspan></text></g><g><g class="AxisBoxView"><g class="HorizontalAxis"><text font-size="12.6" x="180.7" y="540.3"><tspan x="180.72" y="540.28">GDP per capita in 2014 (PPP, constant 2011 international dollars)</tspan></text><text x="69.8" y="520.2" fill="#666" text-anchor="middle" font-size="16.2">589</text><text x="150.5" y="520.2" fill="#666" text-anchor="middle" font-size="16.2">10,000</text><text x="236.2" y="520.2" fill="#666" text-anchor="middle" font-size="16.2">20,000</text><text x="322" y="520.2" fill="#666" text-anchor="middle" font-size="16.2">30,000</text><text x="407.7" y="520.2" fill="#666" text-anchor="middle" font-size="16.2">40,000</text><text x="493.4" y="520.2" fill="#666" text-anchor="middle" font-size="16.2">50,000</text><text x="579.2" y="520.2" fill="#666" text-anchor="middle" font-size="16.2">60,000</text><text x="664.9" y="520.2" fill="#666" text-anchor="middle" font-size="16.2">70,000</text></g><g class="VerticalAxis"><text font-size="12.6" x="-434.1" y="25.1" transform="rotate(-90)"><tspan x="-434.06" y="25.08">Environmental Performance Index (2014)</tspan></text><text x="64.82" y="499" fill="#666" dominant-baseline="middle" text-anchor="end" font-size="16.2">0</text><text x="64.82" y="418" fill="#666" dominant-baseline="middle" text-anchor="end" font-size="16.2">20</text><text x="64.82" y="337" fill="#666" dominant-baseline="middle" text-anchor="end" font-size="16.2">40</text><text x="64.82" y="256.1" fill="#666" dominant-baseline="middle" text-anchor="end" font-size="16.2">60</text><text x="64.82" y="175.1" fill="#666" dominant-baseline="middle" text-anchor="end" font-size="16.2">80</text><text x="64.82" y="94.1" fill="#666" dominant-baseline="middle" text-anchor="end" font-size="16.2">100</text></g><g class="AxisGridLines"><path stroke="#ccc" d="M69.82 499H715"/><path stroke="#ddd" stroke-dasharray="3,2" d="M69.82 418H715M69.82 337H715M69.82 256.1H715M69.82 175.1H715M69.82 94.1H715"/></g><g class="AxisGridLines" stroke="#ddd" stroke-dasharray="3,2"><path d="M150.5 499V94.1M236.2 499V94.1M322 499V94.1M407.7 499V94.1M493.4 499V94.1M579.2 499V94.1M664.9 499V94.1"/></g></g><g><defs><clipPath id="a"><path d="M69.82 94.1H715V499H69.82z"/></clipPath></defs><path d="M69.8 378.2l6.5-6.8 6.4-6.7 6.5-6.5 6.4-6.3 6.5-6.1 6.4-5.9 6.5-5.8 6.4-5.6 6.5-5.5 6.4-5.2 6.5-5.2 6.4-4.9 6.5-4.8 6.4-4.6 6.5-4.5 6.4-4.4 6.5-4.2 6.4-4 6.5-4 6.5-3.7 6.4-3.7 6.5-3.5 6.4-3.4 6.5-3.3 6.4-3.1 6.5-3 6.4-2.9 6.5-2.8 6.4-2.7 6.5-2.5 6.4-2.5 6.5-2.3 6.4-2.3 6.5-2.1 6.4-2.1 6.5-1.9 6.4-1.9 6.5-1.8 6.4-1.7 6.5-1.6 6.4-1.5 6.5-1.4 6.4-1.4 6.5-1.3 6.4-1.3 6.5-1.1 6.5-1.1 6.4-1.1 6.5-1 6.4-.9 6.5-.9 6.4-.8 6.5-.8 6.4-.7 6.5-.7 6.4-.6 6.5-.7 6.4-.5 6.5-.6 6.4-.5 6.5-.5 6.4-.5 6.5-.4 6.4-.5 6.5-.4 6.4-.4 6.5-.4 6.4-.4 6.5-.4 6.4-.3 6.5-.4 6.4-.4 6.5-.4 6.5-.4 6.4-.4 6.5-.5 6.4-.4 6.5-.5 6.4-.5 6.5-.5 6.4-.6 6.5-.5 6.4-.6 6.5-.7 6.4-.7 6.5-.7 6.4-.8 6.5-.8 6.4-.9 6.5-.9 6.4-1 6.5-1 6.4-1.1 6.5-1.2 6.4-1.2 6.5-1.3 6.4-1.4 6.5-1.4 6.4-1.5" clip-path="url(#a)" opacity=".9" fill="none" stroke="#ccc" stroke-dasharray="2 2"/></g><g class="PointsWithLabels clickable" clip-path="url(#b)" font-family="Arial, sans-serif"><path fill="rgba(255,255,255,0)" d="M69.82 94.1H715V499H69.82z"/><defs><clipPath id="b"><path d="M59.82 84.1H725V509H59.82z"/></clipPath></defs><g class="key-Afghanistan_0"><circle cx="82" cy="411" r="3.57" fill="#e2e2e2" opacity=".8" stroke="#bbb" stroke-width=".5"/></g><g class="key-Albania_0"><circle cx="156" cy="277" r="3.57" fill="#e2e2e2" opacity=".8" stroke="#bbb" stroke-width=".5"/></g><g class="key-Algeria_0"><circle cx="174" cy="296" r="3.57" fill="#e2e2e2" opacity=".8" stroke="#bbb" stroke-width=".5"/></g><g class="key-Armenia_0"><circle cx="144" cy="249" r="3.57" fill="#e2e2e2" opacity=".8" stroke="#bbb" stroke-width=".5"/></g><g class="key-Austria_0"><circle cx="449" cy="181" r="3.57" fill="#e2e2e2" opacity=".8" stroke="#bbb" stroke-width=".5"/></g><g class="key-Azerbaijan_0"><circle cx="202" cy="274" r="3.57" fill="#e2e2e2" opacity=".8" stroke="#bbb" stroke-width=".5"/></g><g class="key-Bahrain_0"><circle cx="395" cy="289" r="3.57" fill="#e2e2e2" opacity=".8" stroke="#bbb" stroke-width=".5"/></g><g class="key-Bangladesh_0"><circle cx="89" cy="395" r="3.57" fill="#e2e2e2" opacity=".8" stroke="#bbb" stroke-width=".5"/></g><g class="key-Barbados_0"><circle cx="150" cy="314" r="3.57" fill="#e2e2e2" opacity=".8" stroke="#bbb" stroke-width=".5"/></g><g class="key-Belarus_0"><circle cx="236" cy="224" r="3.57" fill="#e2e2e2" opacity=".8" stroke="#bbb" stroke-width=".5"/></g><g class="key-Belgium_0"><circle cx="400" cy="229" r="3.57" fill="#e2e2e2" opacity=".8" stroke="#bbb" stroke-width=".5"/></g><g class="key-Benin_0"><circle cx="82" cy="367" r="3.57" fill="#e2e2e2" opacity=".8" stroke="#bbb" stroke-width=".5"/></g><g class="key-Bolivia_0"><circle cx="114" cy="294" r="3.57" fill="#e2e2e2" opacity=".8" stroke="#bbb" stroke-width=".5"/></g><g class="key-Bosnia-and-Herzegovina_0"><circle cx="150" cy="313" r="3.57" fill="#e2e2e2" opacity=".8" stroke="#bbb" stroke-width=".5"/></g><g class="key-Botswana_0"><circle cx="192" cy="306" r="3.57" fill="#e2e2e2" opacity=".8" stroke="#bbb" stroke-width=".5"/></g><g class="key-Bulgaria_0"><circle cx="206" cy="239" r="3.57" fill="#e2e2e2" opacity=".8" stroke="#bbb" stroke-width=".5"/></g><g class="key-Burkina-Faso_0"><circle cx="77" cy="334" r="3.57" fill="#e2e2e2" opacity=".8" stroke="#bbb" stroke-width=".5"/></g><g class="key-Burundi_0"><circle cx="71" cy="394" r="3.57" fill="#e2e2e2" opacity=".8" stroke="#bbb" stroke-width=".5"/></g><g class="key-Cape-Verde_0"><circle cx="119" cy="320" r="3.57" fill="#e2e2e2" opacity=".8" stroke="#bbb" stroke-width=".5"/></g><g class="key-Cambodia_0"><circle cx="90" cy="355" r="3.57" fill="#e2e2e2" opacity=".8" stroke="#bbb" stroke-width=".5"/></g><g class="key-Cameroon_0"><circle cx="87" cy="350" r="3.57" fill="#e2e2e2" opacity=".8" stroke="#bbb" stroke-width=".5"/></g><g class="key-Canada_0"><circle cx="432" cy="202" r="3.57" fill="#e2e2e2" opacity=".8" stroke="#bbb" stroke-width=".5"/></g><g class="key-Central-African-Republic_0"><circle cx="69" cy="325" r="3.57" fill="#e2e2e2" opacity=".8" stroke="#bbb" stroke-width=".5"/></g><g class="key-Chad_0"><circle cx="84" cy="373" r="3.57" fill="#e2e2e2" opacity=".8" stroke="#bbb" stroke-width=".5"/></g><g class="key-Chile_0"><circle cx="245" cy="215" r="3.57" fill="#e2e2e2" opacity=".8" stroke="#bbb" stroke-width=".5"/></g><g class="key-Colombia_0"><circle cx="173" cy="293" r="3.57" fill="#e2e2e2" opacity=".8" stroke="#bbb" stroke-width=".5"/></g><g class="key-Comoros_0"><circle cx="79" cy="371" r="3.57" fill="#e2e2e2" opacity=".8" stroke="#bbb" stroke-width=".5"/></g><g class="key-Democratic-Republic-of-Congo_0"><circle cx="71" cy="397" r="3.57" fill="#e2e2e2" opacity=".8" stroke="#bbb" stroke-width=".5"/></g><g class="key-Congo_0"><circle cx="103" cy="339" r="3.57" fill="#e2e2e2" opacity=".8" stroke="#bbb" stroke-width=".5"/></g><g class="key-Costa-Rica_0"><circle cx="177" cy="262" r="3.57" fill="#e2e2e2" opacity=".8" stroke="#bbb" stroke-width=".5"/></g><g class="key-Cote-d__0027Ivoire_0"><circle cx="92" cy="338" r="3.57" fill="#e2e2e2" opacity=".8" stroke="#bbb" stroke-width=".5"/></g><g class="key-Croatia_0"><circle cx="240" cy="247" r="3.57" fill="#e2e2e2" opacity=".8" stroke="#bbb" stroke-width=".5"/></g><g class="key-Cuba_0"><circle cx="130" cy="276" r="3.57" fill="#e2e2e2" opacity=".8" stroke="#bbb" stroke-width=".5"/></g><g class="key-Cyprus_0"><circle cx="281" cy="230" r="3.57" fill="#e2e2e2" opacity=".8" stroke="#bbb" stroke-width=".5"/></g><g class="key-Czech-Republic_0"><circle cx="314" cy="169" r="3.57" fill="#e2e2e2" opacity=".8" stroke="#bbb" stroke-width=".5"/></g><g class="key-Denmark_0"><circle cx="446" cy="187" r="3.57" fill="#e2e2e2" opacity=".8" stroke="#bbb" stroke-width=".5"/></g><g class="key-Djibouti_0"><circle cx="91" cy="383" r="3.57" fill="#e2e2e2" opacity=".8" stroke="#bbb" stroke-width=".5"/></g><g class="key-Dominica_0"><circle cx="148" cy="308" r="3.57" fill="#e2e2e2" opacity=".8" stroke="#bbb" stroke-width=".5"/></g><g class="key-Dominican-Republic_0"><circle cx="173" cy="283" r="3.57" fill="#e2e2e2" opacity=".8" stroke="#bbb" stroke-width=".5"/></g><g class="key-Ecuador_0"><circle cx="159" cy="262" r="3.57" fill="#e2e2e2" opacity=".8" stroke="#bbb" stroke-width=".5"/></g><g class="key-Egypt_0"><circle cx="159" cy="251" r="3.57" fill="#e2e2e2" opacity=".8" stroke="#bbb" stroke-width=".5"/></g><g class="key-El-Salvador_0"><circle cx="133" cy="321" r="3.57" fill="#e2e2e2" opacity=".8" stroke="#bbb" stroke-width=".5"/></g><g class="key-Ethiopia_0"><circle cx="77" cy="339" r="3.57" fill="#e2e2e2" opacity=".8" stroke="#bbb" stroke-width=".5"/></g><g class="key-Gabon_0"><circle cx="185" cy="310" r="3.57" fill="#e2e2e2" opacity=".8" stroke="#bbb" stroke-width=".5"/></g><g class="key-Gambia_0"><circle cx="81" cy="380" r="3.57" fill="#e2e2e2" opacity=".8" stroke="#bbb" stroke-width=".5"/></g><g class="key-Georgia_0"><circle cx="149" cy="307" r="3.57" fill="#e2e2e2" opacity=".8" stroke="#bbb" stroke-width=".5"/></g><g class="key-Ghana_0"><circle cx="95" cy="369" r="3.57" fill="#e2e2e2" opacity=".8" stroke="#bbb" stroke-width=".5"/></g><g class="key-Greece_0"><circle cx="274" cy="202" r="3.57" fill="#e2e2e2" opacity=".8" stroke="#bbb" stroke-width=".5"/></g><g class="key-Guatemala_0"><circle cx="123" cy="304" r="3.57" fill="#e2e2e2" opacity=".8" stroke="#bbb" stroke-width=".5"/></g><g class="key-Guinea_0"><circle cx="78" cy="385" r="3.57" fill="#e2e2e2" opacity=".8" stroke="#bbb" stroke-width=".5"/></g><g class="key-Guinea__002dBissau_0"><circle cx="75" cy="353" r="3.57" fill="#e2e2e2" opacity=".8" stroke="#bbb" stroke-width=".5"/></g><g class="key-Haiti_0"><circle cx="79" cy="422" r="3.57" fill="#e2e2e2" opacity=".8" stroke="#bbb" stroke-width=".5"/></g><g class="key-Honduras_0"><circle cx="101" cy="301" r="3.57" fill="#e2e2e2" opacity=".8" stroke="#bbb" stroke-width=".5"/></g><g class="key-Hungary_0"><circle cx="259" cy="214" r="3.57" fill="#e2e2e2" opacity=".8" stroke="#bbb" stroke-width=".5"/></g><g class="key-Iceland_0"><circle cx="402" cy="189" r="3.57" fill="#e2e2e2" opacity=".8" stroke="#bbb" stroke-width=".5"/></g><g class="key-Indonesia_0"><circle cx="148" cy="319" r="3.57" fill="#e2e2e2" opacity=".8" stroke="#bbb" stroke-width=".5"/></g><g class="key-Iran_0"><circle cx="195" cy="292" r="3.57" fill="#e2e2e2" opacity=".8" stroke="#bbb" stroke-width=".5"/></g><g class="key-Ireland_0"><circle cx="508" cy="196" r="3.57" fill="#e2e2e2" opacity=".8" stroke="#bbb" stroke-width=".5"/></g><g class="key-Israel_0"><circle cx="334" cy="232" r="3.57" fill="#e2e2e2" opacity=".8" stroke="#bbb" stroke-width=".5"/></g><g class="key-Italy_0"><circle cx="359" cy="197" r="3.57" fill="#e2e2e2" opacity=".8" stroke="#bbb" stroke-width=".5"/></g><g class="key-Jamaica_0"><circle cx="125" cy="263" r="3.57" fill="#e2e2e2" opacity=".8" stroke="#bbb" stroke-width=".5"/></g><g class="key-Jordan_0"><circle cx="165" cy="273" r="3.57" fill="#e2e2e2" opacity=".8" stroke="#bbb" stroke-width=".5"/></g><g class="key-Kazakhstan_0"><circle cx="265" cy="292" r="3.57" fill="#e2e2e2" opacity=".8" stroke="#bbb" stroke-width=".5"/></g><g class="key-Kenya_0"><circle cx="90" cy="349" r="3.57" fill="#e2e2e2" opacity=".8" stroke="#bbb" stroke-width=".5"/></g><g class="key-South-Korea_0"><circle cx="360" cy="240" r="3.57" fill="#e2e2e2" opacity=".8" stroke="#bbb" stroke-width=".5"/></g><g class="key-Kuwait_0"><circle cx="658" cy="240" r="3.57" fill="#e2e2e2" opacity=".8" stroke="#bbb" stroke-width=".5"/></g><g class="key-Kyrgyzstan_0"><circle cx="114" cy="334" r="3.57" fill="#e2e2e2" opacity=".8" stroke="#bbb" stroke-width=".5"/></g><g class="key-Laos_0"><circle cx="113" cy="335" r="3.57" fill="#e2e2e2" opacity=".8" stroke="#bbb" stroke-width=".5"/></g><g class="key-Latvia_0"><circle cx="252" cy="239" r="3.57" fill="#e2e2e2" opacity=".8" stroke="#bbb" stroke-width=".5"/></g><g class="key-Lebanon_0"><circle cx="177" cy="295" r="3.57" fill="#e2e2e2" opacity=".8" stroke="#bbb" stroke-width=".5"/></g><g class="key-Lesotho_0"><circle cx="89" cy="414" r="3.57" fill="#e2e2e2" opacity=".8" stroke="#bbb" stroke-width=".5"/></g><g class="key-Liberia_0"><circle cx="71" cy="402" r="3.57" fill="#e2e2e2" opacity=".8" stroke="#bbb" stroke-width=".5"/></g><g class="key-Libya_0"><circle cx="148" cy="326" r="3.57" fill="#e2e2e2" opacity=".8" stroke="#bbb" stroke-width=".5"/></g><g class="key-Lithuania_0"><circle cx="275" cy="251" r="3.57" fill="#e2e2e2" opacity=".8" stroke="#bbb" stroke-width=".5"/></g><g class="key-Luxembourg_0"><circle cx="637" cy="161" r="3.57" fill="#e2e2e2" opacity=".8" stroke="#bbb" stroke-width=".5"/></g><g class="key-Macedonia_0"><circle cx="177" cy="294" r="3.57" fill="#e2e2e2" opacity=".8" stroke="#bbb" stroke-width=".5"/></g><g class="key-Madagascar_0"><circle cx="75" cy="390" r="3.57" fill="#e2e2e2" opacity=".8" stroke="#bbb" stroke-width=".5"/></g><g class="key-Malawi_0"><circle cx="73" cy="336" r="3.57" fill="#e2e2e2" opacity=".8" stroke="#bbb" stroke-width=".5"/></g><g class="key-Malaysia_0"><circle cx="247" cy="258" r="3.57" fill="#e2e2e2" opacity=".8" stroke="#bbb" stroke-width=".5"/></g><g class="key-Malta_0"><circle cx="279" cy="226" r="3.57" fill="#e2e2e2" opacity=".8" stroke="#bbb" stroke-width=".5"/></g><g class="key-Mauritania_0"><circle cx="93" cy="388" r="3.57" fill="#e2e2e2" opacity=".8" stroke="#bbb" stroke-width=".5"/></g><g class="key-Mauritius_0"><circle cx="217" cy="263" r="3.57" fill="#e2e2e2" opacity=".8" stroke="#bbb" stroke-width=".5"/></g><g class="key-Mexico_0"><circle cx="197" cy="276" r="3.57" fill="#e2e2e2" opacity=".8" stroke="#bbb" stroke-width=".5"/></g><g class="key-Moldova_0"><circle cx="112" cy="282" r="3.57" fill="#e2e2e2" opacity=".8" stroke="#bbb" stroke-width=".5"/></g><g class="key-Mongolia_0"><circle cx="159" cy="318" r="3.57" fill="#e2e2e2" opacity=".8" stroke="#bbb" stroke-width=".5"/></g><g class="key-Montenegro_0"><circle cx="209" cy="274" r="3.57" fill="#e2e2e2" opacity=".8" stroke="#bbb" stroke-width=".5"/></g><g class="key-Morocco_0"><circle cx="127" cy="288" r="3.57" fill="#e2e2e2" opacity=".8" stroke="#bbb" stroke-width=".5"/></g><g class="key-Mozambique_0"><circle cx="75" cy="377" r="3.57" fill="#e2e2e2" opacity=".8" stroke="#bbb" stroke-width=".5"/></g><g class="key-Namibia_0"><circle cx="163" cy="322" r="3.57" fill="#e2e2e2" opacity=".8" stroke="#bbb" stroke-width=".5"/></g><g class="key-Nepal_0"><circle cx="86" cy="349" r="3.57" fill="#e2e2e2" opacity=".8" stroke="#bbb" stroke-width=".5"/></g><g class="key-Netherlands_0"><circle cx="474" cy="184" r="3.57" fill="#e2e2e2" opacity=".8" stroke="#bbb" stroke-width=".5"/></g><g class="key-New-Zealand_0"><circle cx="348" cy="189" r="3.57" fill="#e2e2e2" opacity=".8" stroke="#bbb" stroke-width=".5"/></g><g class="key-Nicaragua_0"><circle cx="103" cy="295" r="3.57" fill="#e2e2e2" opacity=".8" stroke="#bbb" stroke-width=".5"/></g><g class="key-Niger_0"><circle cx="72" cy="352" r="3.57" fill="#e2e2e2" opacity=".8" stroke="#bbb" stroke-width=".5"/></g><g class="key-Nigeria_0"><circle cx="112" cy="340" r="3.57" fill="#e2e2e2" opacity=".8" stroke="#bbb" stroke-width=".5"/></g><g class="key-Pakistan_0"><circle cx="106" cy="359" r="3.57" fill="#e2e2e2" opacity=".8" stroke="#bbb" stroke-width=".5"/></g><g class="key-Panama_0"><circle cx="235" cy="268" r="3.57" fill="#e2e2e2" opacity=".8" stroke="#bbb" stroke-width=".5"/></g><g class="key-Paraguay_0"><circle cx="135" cy="340" r="3.57" fill="#e2e2e2" opacity=".8" stroke="#bbb" stroke-width=".5"/></g><g class="key-Peru_0"><circle cx="158" cy="316" r="3.57" fill="#e2e2e2" opacity=".8" stroke="#bbb" stroke-width=".5"/></g><g class="key-Philippines_0"><circle cx="121" cy="320" r="3.57" fill="#e2e2e2" opacity=".8" stroke="#bbb" stroke-width=".5"/></g><g class="key-Poland_0"><circle cx="273" cy="217" r="3.57" fill="#e2e2e2" opacity=".8" stroke="#bbb" stroke-width=".5"/></g><g class="key-Portugal_0"><circle cx="293" cy="192" r="3.57" fill="#e2e2e2" opacity=".8" stroke="#bbb" stroke-width=".5"/></g><g class="key-Romania_0"><circle cx="233" cy="294" r="3.57" fill="#e2e2e2" opacity=".8" stroke="#bbb" stroke-width=".5"/></g><g class="key-Rwanda_0"><circle cx="78" cy="355" r="3.57" fill="#e2e2e2" opacity=".8" stroke="#bbb" stroke-width=".5"/></g><g class="key-Saudi-Arabia_0"><circle cx="466" cy="229" r="3.57" fill="#e2e2e2" opacity=".8" stroke="#bbb" stroke-width=".5"/></g><g class="key-Senegal_0"><circle cx="84" cy="333" r="3.57" fill="#e2e2e2" opacity=".8" stroke="#bbb" stroke-width=".5"/></g><g class="key-Seychelles_0"><circle cx="258" cy="274" r="3.57" fill="#e2e2e2" opacity=".8" stroke="#bbb" stroke-width=".5"/></g><g class="key-Sierra-Leone_0"><circle cx="76" cy="411" r="3.57" fill="#e2e2e2" opacity=".8" stroke="#bbb" stroke-width=".5"/></g><g class="key-Slovakia_0"><circle cx="278" cy="197" r="3.57" fill="#e2e2e2" opacity=".8" stroke="#bbb" stroke-width=".5"/></g><g class="key-Slovenia_0"><circle cx="300" cy="189" r="3.57" fill="#e2e2e2" opacity=".8" stroke="#bbb" stroke-width=".5"/></g><g class="key-South-Africa_0"><circle cx="168" cy="282" r="3.57" fill="#e2e2e2" opacity=".8" stroke="#bbb" stroke-width=".5"/></g><g class="key-Sri-Lanka_0"><circle cx="153" cy="280" r="3.57" fill="#e2e2e2" opacity=".8" stroke="#bbb" stroke-width=".5"/></g><g class="key-Sudan_0"><circle cx="95" cy="399" r="3.57" fill="#e2e2e2" opacity=".8" stroke="#bbb" stroke-width=".5"/></g><g class="key-Swaziland_0"><circle cx="130" cy="347" r="3.57" fill="#e2e2e2" opacity=".8" stroke="#bbb" stroke-width=".5"/></g><g class="key-Tajikistan_0"><circle cx="92" cy="372" r="3.57" fill="#e2e2e2" opacity=".8" stroke="#bbb" stroke-width=".5"/></g><g class="key-Tanzania_0"><circle cx="84" cy="352" r="3.57" fill="#e2e2e2" opacity=".8" stroke="#bbb" stroke-width=".5"/></g><g class="key-Thailand_0"><circle cx="181" cy="285" r="3.57" fill="#e2e2e2" opacity=".8" stroke="#bbb" stroke-width=".5"/></g><g class="key-Togo_0"><circle cx="77" cy="386" r="3.57" fill="#e2e2e2" opacity=".8" stroke="#bbb" stroke-width=".5"/></g><g class="key-Tunisia_0"><circle cx="155" cy="260" r="3.57" fill="#e2e2e2" opacity=".8" stroke="#bbb" stroke-width=".5"/></g><g class="key-Turkey_0"><circle cx="238" cy="276" r="3.57" fill="#e2e2e2" opacity=".8" stroke="#bbb" stroke-width=".5"/></g><g class="key-Turkmenistan_0"><circle cx="238" cy="316" r="3.57" fill="#e2e2e2" opacity=".8" stroke="#bbb" stroke-width=".5"/></g><g class="key-Uganda_0"><circle cx="80" cy="340" r="3.57" fill="#e2e2e2" opacity=".8" stroke="#bbb" stroke-width=".5"/></g><g class="key-Ukraine_0"><circle cx="153" cy="300" r="3.57" fill="#e2e2e2" opacity=".8" stroke="#bbb" stroke-width=".5"/></g><g class="key-Uruguay_0"><circle cx="232" cy="281" r="3.57" fill="#e2e2e2" opacity=".8" stroke="#bbb" stroke-width=".5"/></g><g class="key-Uzbekistan_0"><circle cx="137" cy="324" r="3.57" fill="#e2e2e2" opacity=".8" stroke="#bbb" stroke-width=".5"/></g><g class="key-Venezuela_0"><circle cx="215" cy="265" r="3.57" fill="#e2e2e2" opacity=".8" stroke="#bbb" stroke-width=".5"/></g><g class="key-Vietnam_0"><circle cx="111" cy="344" r="3.57" fill="#e2e2e2" opacity=".8" stroke="#bbb" stroke-width=".5"/></g><g class="key-Yemen_0"><circle cx="95" cy="376" r="3.57" fill="#e2e2e2" opacity=".8" stroke="#bbb" stroke-width=".5"/></g><g class="key-Zambia_0"><circle cx="95" cy="330" r="3.57" fill="#e2e2e2" opacity=".8" stroke="#bbb" stroke-width=".5"/></g><g class="key-Trinidad-and-Tobago_0"><circle cx="330" cy="287" r="3.57" fill="#e2e2e2" opacity=".8" stroke="#bbb" stroke-width=".5"/></g><g class="key-Angola_0"><circle cx="138" cy="382" fill="none" stroke="#EF943A" r="6.57"/><circle cx="138" cy="382" r="3.57" fill="#EF943A" opacity=".8" stroke="#333" stroke-width=".5"/></g><g class="key-Australia_0"><circle cx="441" cy="165" fill="none" stroke="#662C68" r="6.57"/><circle cx="441" cy="165" r="3.57" fill="#662C68" opacity=".8" stroke="#333" stroke-width=".5"/></g><g class="key-Brazil_0"><circle cx="191" cy="284" fill="none" stroke="#c8c8c8" r="6.57"/><circle cx="191" cy="284" r="3.57" fill="#c8c8c8" opacity=".8" stroke="#333" stroke-width=".5"/></g><g class="key-China_0"><circle cx="165" cy="324" fill="none" stroke="#2D8587" r="6.57"/><circle cx="165" cy="324" r="3.57" fill="#2D8587" opacity=".8" stroke="#333" stroke-width=".5"/></g><g class="key-Equatorial-Guinea_0"><circle cx="404" cy="332" fill="none" stroke="#EF943A" r="6.57"/><circle cx="404" cy="332" r="3.57" fill="#EF943A" opacity=".8" stroke="#333" stroke-width=".5"/></g><g class="key-Estonia_0"><circle cx="282" cy="196" fill="none" stroke="#4C5C78" r="6.57"/><circle cx="282" cy="196" r="3.57" fill="#4C5C78" opacity=".8" stroke="#333" stroke-width=".5"/></g><g class="key-Finland_0"><circle cx="390" cy="192" fill="none" stroke="#4C5C78" r="6.57"/><circle cx="390" cy="192" r="3.57" fill="#4C5C78" opacity=".8" stroke="#333" stroke-width=".5"/></g><g class="key-France_0"><circle cx="391" cy="211" fill="none" stroke="#4C5C78" r="6.57"/><circle cx="391" cy="211" r="3.57" fill="#4C5C78" opacity=".8" stroke="#333" stroke-width=".5"/></g><g class="key-Germany_0"><circle cx="459" cy="173" fill="none" stroke="#4C5C78" r="6.57"/><circle cx="459" cy="173" r="3.57" fill="#4C5C78" opacity=".8" stroke="#666" stroke-width=".5"/></g><g class="key-India_0"><circle cx="110" cy="372" fill="none" stroke="#2D8587" r="6.57"/><circle cx="110" cy="372" r="3.57" fill="#2D8587" opacity=".8" stroke="#666" stroke-width=".5"/></g><g class="key-Iraq_0"><circle cx="175" cy="363" fill="none" stroke="#2D8587" r="6.57"/><circle cx="175" cy="363" r="3.57" fill="#2D8587" opacity=".8" stroke="#333" stroke-width=".5"/></g><g class="key-Japan_0"><circle cx="369" cy="206" fill="none" stroke="#2D8587" r="6.57"/><circle cx="369" cy="206" r="3.57" fill="#2D8587" opacity=".8" stroke="#666" stroke-width=".5"/></g><g class="key-Mali_0"><circle cx="77" cy="424" fill="none" stroke="#EF943A" r="6.57"/><circle cx="77" cy="424" r="3.57" fill="#EF943A" opacity=".8" stroke="#333" stroke-width=".5"/></g><g class="key-Norway_0"><circle cx="715" cy="183" fill="none" stroke="#4C5C78" r="6.57"/><circle cx="715" cy="183" r="3.57" fill="#4C5C78" opacity=".8" stroke="#333" stroke-width=".5"/></g><g class="key-Oman_0"><circle cx="388" cy="305" fill="none" stroke="#2D8587" r="6.57"/><circle cx="388" cy="305" r="3.57" fill="#2D8587" opacity=".8" stroke="#333" stroke-width=".5"/></g><g class="key-Russia_0"><circle cx="268" cy="282" fill="none" stroke="#4C5C78" r="6.57"/><circle cx="268" cy="282" r="3.57" fill="#4C5C78" opacity=".8" stroke="#333" stroke-width=".5"/></g><g class="key-Serbia_0"><circle cx="179" cy="219" fill="none" stroke="#4C5C78" r="6.57"/><circle cx="179" cy="219" r="3.57" fill="#4C5C78" opacity=".8" stroke="#333" stroke-width=".5"/></g><g class="key-Singapore_0"><circle cx="640" cy="167" fill="none" stroke="#2D8587" r="6.57"/><circle cx="640" cy="167" r="3.57" fill="#2D8587" opacity=".8" stroke="#666" stroke-width=".5"/></g><g class="key-Spain_0"><circle cx="341" cy="175" fill="none" stroke="#4C5C78" r="6.57"/><circle cx="341" cy="175" r="3.57" fill="#4C5C78" opacity=".8" stroke="#333" stroke-width=".5"/></g><g class="key-Sweden_0"><circle cx="426" cy="182" fill="none" stroke="#4C5C78" r="6.57"/><circle cx="426" cy="182" r="3.57" fill="#4C5C78" opacity=".8" stroke="#666" stroke-width=".5"/></g><g class="key-Switzerland_0"><circle cx="593" cy="144" fill="none" stroke="#4C5C78" r="6.57"/><circle cx="593" cy="144" r="3.57" fill="#4C5C78" opacity=".8" stroke="#333" stroke-width=".5"/></g><g class="key-United-Arab-Emirates_0"><circle cx="641" cy="203" fill="none" stroke="#2D8587" r="6.57"/><circle cx="641" cy="203" r="3.57" fill="#2D8587" opacity=".8" stroke="#333" stroke-width=".5"/></g><g class="key-United-Kingdom_0"><circle cx="392" cy="185" fill="none" stroke="#4C5C78" r="6.57"/><circle cx="392" cy="185" r="3.57" fill="#4C5C78" opacity=".8" stroke="#666" stroke-width=".5"/></g><g class="key-United-States_0"><circle cx="507" cy="225" fill="none" stroke="#000" r="6.57"/><circle cx="507" cy="225" r="3.57" fill="#000" opacity=".8" stroke="#333" stroke-width=".5"/></g><g class="key-Zimbabwe_0"><circle cx="80" cy="298" fill="none" stroke="#EF943A" r="6.57"/><circle cx="80" cy="298" r="3.57" fill="#EF943A" opacity=".8" stroke="#333" stroke-width=".5"/></g><text x="138" y="377.43" font-size="13" font-family="Arial, sans-serif" font-weight="700" fill="#fff" stroke="#fff" stroke-linecap="round" stroke-linejoin="round" stroke-width=".25em">Angola</text><text x="138" y="377.43" font-size="13" font-family="Arial, sans-serif" font-weight="700" fill="#EF943A">Angola</text><text x="441" y="160.43" font-size="13" font-family="Arial, sans-serif" font-weight="700" fill="#fff" stroke="#fff" stroke-linecap="round" stroke-linejoin="round" stroke-width=".25em">Australia</text><text x="441" y="160.43" font-size="13" font-family="Arial, sans-serif" font-weight="700" fill="#662C68">Australia</text><text x="191" y="279.43" font-size="13" font-family="Arial, sans-serif" font-weight="700" fill="#fff" stroke="#fff" stroke-linecap="round" stroke-linejoin="round" stroke-width=".25em">Brazil</text><text x="191" y="279.43" font-size="13" font-family="Arial, sans-serif" font-weight="700" fill="#c8c8c8">Brazil</text><text x="165" y="319.43" font-size="13" font-family="Arial, sans-serif" font-weight="700" fill="#fff" stroke="#fff" stroke-linecap="round" stroke-linejoin="round" stroke-width=".25em">China</text><text x="165" y="319.43" font-size="13" font-family="Arial, sans-serif" font-weight="700" fill="#2D8587">China</text><text x="404" y="327.43" font-size="13" font-family="Arial, sans-serif" font-weight="700" fill="#fff" stroke="#fff" stroke-linecap="round" stroke-linejoin="round" stroke-width=".25em">Equatorial Guinea</text><text x="404" y="327.43" font-size="13" font-family="Arial, sans-serif" font-weight="700" fill="#EF943A">Equatorial Guinea</text><text x="282" y="191.43" font-size="13" font-family="Arial, sans-serif" font-weight="700" fill="#fff" stroke="#fff" stroke-linecap="round" stroke-linejoin="round" stroke-width=".25em">Estonia</text><text x="282" y="191.43" font-size="13" font-family="Arial, sans-serif" font-weight="700" fill="#4C5C78">Estonia</text><text x="390" y="187.43" font-size="13" font-family="Arial, sans-serif" font-weight="700" fill="#fff" stroke="#fff" stroke-linecap="round" stroke-linejoin="round" stroke-width=".25em">Finland</text><text x="390" y="187.43" font-size="13" font-family="Arial, sans-serif" font-weight="700" fill="#4C5C78">Finland</text><text x="391" y="206.43" font-size="13" font-family="Arial, sans-serif" font-weight="700" fill="#fff" stroke="#fff" stroke-linecap="round" stroke-linejoin="round" stroke-width=".25em">France</text><text x="391" y="206.43" font-size="13" font-family="Arial, sans-serif" font-weight="700" fill="#4C5C78">France</text><text x="175" y="358.43" font-size="13" font-family="Arial, sans-serif" font-weight="700" fill="#fff" stroke="#fff" stroke-linecap="round" stroke-linejoin="round" stroke-width=".25em">Iraq</text><text x="175" y="358.43" font-size="13" font-family="Arial, sans-serif" font-weight="700" fill="#2D8587">Iraq</text><text x="77" y="419.43" font-size="13" font-family="Arial, sans-serif" font-weight="700" fill="#fff" stroke="#fff" stroke-linecap="round" stroke-linejoin="round" stroke-width=".25em">Mali</text><text x="77" y="419.43" font-size="13" font-family="Arial, sans-serif" font-weight="700" fill="#EF943A">Mali</text><text x="670.93" y="178.43" font-size="13" font-family="Arial, sans-serif" font-weight="700" fill="#fff" stroke="#fff" stroke-linecap="round" stroke-linejoin="round" stroke-width=".25em">Norway</text><text x="670.93" y="178.43" font-size="13" font-family="Arial, sans-serif" font-weight="700" fill="#4C5C78">Norway</text><text x="388" y="300.43" font-size="13" font-family="Arial, sans-serif" font-weight="700" fill="#fff" stroke="#fff" stroke-linecap="round" stroke-linejoin="round" stroke-width=".25em">Oman</text><text x="388" y="300.43" font-size="13" font-family="Arial, sans-serif" font-weight="700" fill="#2D8587">Oman</text><text x="268" y="277.43" font-size="13" font-family="Arial, sans-serif" font-weight="700" fill="#fff" stroke="#fff" stroke-linecap="round" stroke-linejoin="round" stroke-width=".25em">Russia</text><text x="268" y="277.43" font-size="13" font-family="Arial, sans-serif" font-weight="700" fill="#4C5C78">Russia</text><text x="179" y="214.43" font-size="13" font-family="Arial, sans-serif" font-weight="700" fill="#fff" stroke="#fff" stroke-linecap="round" stroke-linejoin="round" stroke-width=".25em">Serbia</text><text x="179" y="214.43" font-size="13" font-family="Arial, sans-serif" font-weight="700" fill="#4C5C78">Serbia</text><text x="341" y="170.43" font-size="13" font-family="Arial, sans-serif" font-weight="700" fill="#fff" stroke="#fff" stroke-linecap="round" stroke-linejoin="round" stroke-width=".25em">Spain</text><text x="341" y="170.43" font-size="13" font-family="Arial, sans-serif" font-weight="700" fill="#4C5C78">Spain</text><text x="593" y="139.43" font-size="13" font-family="Arial, sans-serif" font-weight="700" fill="#fff" stroke="#fff" stroke-linecap="round" stroke-linejoin="round" stroke-width=".25em">Switzerland</text><text x="593" y="139.43" font-size="13" font-family="Arial, sans-serif" font-weight="700" fill="#4C5C78">Switzerland</text><text x="517.11" y="198.43" font-size="13" font-family="Arial, sans-serif" font-weight="700" fill="#fff" stroke="#fff" stroke-linecap="round" stroke-linejoin="round" stroke-width=".25em">United Arab Emirates</text><text x="517.11" y="198.43" font-size="13" font-family="Arial, sans-serif" font-weight="700" fill="#2D8587">United Arab Emirates</text><text x="507" y="220.43" font-size="13" font-family="Arial, sans-serif" font-weight="700" fill="#fff" stroke="#fff" stroke-linecap="round" stroke-linejoin="round" stroke-width=".25em">United States</text><text x="507" y="220.43" font-size="13" font-family="Arial, sans-serif" font-weight="700" fill="#000">United States</text><text x="80" y="293.43" font-size="13" font-family="Arial, sans-serif" font-weight="700" fill="#fff" stroke="#fff" stroke-linecap="round" stroke-linejoin="round" stroke-width=".25em">Zimbabwe</text><text x="80" y="293.43" font-size="13" font-family="Arial, sans-serif" font-weight="700" fill="#EF943A">Zimbabwe</text></g><g class="ScatterColorLegend clickable" cursor="pointer"><g class="legendMark">,<path fill="#EF943A" d="M735 97.1h6v6h-6z"/>,<text font-size="12.6" x="746" y="104.2"><tspan x="746" y="104.18">Africa</tspan></text></g><g class="legendMark">,<path fill="#2D8587" d="M735 114.7h6v6h-6z"/>,<text font-size="12.6" x="746" y="121.8"><tspan x="746" y="121.78">Asia</tspan></text></g><g class="legendMark">,<path fill="#4C5C78" d="M735 132.3h6v6h-6z"/>,<text font-size="12.6" x="746" y="139.4"><tspan x="746" y="139.38">Europe</tspan></text></g><g class="legendMark">,<path fill="#000" d="M735 149.9h6v6h-6z"/>,<text font-size="12.6" x="746" y="157"><tspan x="746" y="156.98">North America</tspan></text></g><g class="legendMark">,<path fill="#662C68" d="M735 167.5h6v6h-6z"/>,<text font-size="12.6" x="746" y="174.6"><tspan x="746" y="174.58">Oceania</tspan></text></g><g class="legendMark">,<path fill="#c8c8c8" d="M735 185.1h6v6h-6z"/>,<text font-size="12.6" x="746" y="192.2"><tspan x="746" y="192.18">South America</tspan></text></g></g></g><g class="SourcesFooter" fill="#777"><g class="clickable" fill="#777"><text font-size="12.6" x="15" y="567.9"><tspan x="15" y="567.88">Source: Jaiteh et al. (2014), Maddison Project Database (2018)</tspan></text></g><text font-size="12.6" x="15" y="582.5"><tspan x="15" y="582.48">Note: See the first part of the graph on: https://tinyco.re/3002963. Environmental Performance Indices are displayed on the &apos;MAP&apos; tab.</tspan></text><text font-size="12.6" x="538.9" y="567.9"><tspan x="538.9" y="567.88"><a target="_blank" href="https://tinyco.re/20102551" fill="#777">tinyco.re/20102551</a> • <a href="https://ourworldindata.org" target="_blank">Powered by ourworldindata.org</a></tspan></text></g></svg>