<svg xmlns="http://www.w3.org/2000/svg" version="1.1" style="font-family:Lato, &#x27;Helvetica Neue&#x27;, Helvetica, Arial, sans-serif;font-size:18px;background-color:white;text-rendering:optimizeLegibility;-webkit-font-smoothing:antialiased" width="850" height="600"><g class="HeaderView"><a href="https://ourworldindata.org/grapher/catching-up-and-stagnating-manufacturing-wages-relative-to-the-us-19502016" target="_blank"><text font-size="21.60" x="15.0" y="32.3" fill="#555"><tspan x="15" y="32.279999999999994">Catching up and stagnating: Manufacturing wages relative to the US (1950–2016)</tspan></text></a><text font-size="14.40" x="15.0" y="50.1" fill="#666"><tspan x="15" y="50.11999999999999">Unit 18 &#x27;The nation and the world economy’ Section 18.10 &#x27;Trade and growth&#x27; in The CORE Team, The Economy. Available at</tspan><tspan x="15" y="65.96">https://tinyco.re/18102330 [Figure 18.23]</tspan></text></g><g class="LineChart"><defs><clipPath id="boundsClip-3"><rect x="37.216" y="0" width="830" height="912.6"></rect></clipPath></defs><g class="AxisBoxView"><g class="HorizontalAxis"><text x="47.2" y="542.8" fill="#666" text-anchor="middle" font-size="16.2">1950</text><text x="148.9" y="542.8" fill="#666" text-anchor="middle" font-size="16.2">1960</text><text x="250.7" y="542.8" fill="#666" text-anchor="middle" font-size="16.2">1970</text><text x="352.4" y="542.8" fill="#666" text-anchor="middle" font-size="16.2">1980</text><text x="454.1" y="542.8" fill="#666" text-anchor="middle" font-size="16.2">1990</text><text x="555.8" y="542.8" fill="#666" text-anchor="middle" font-size="16.2">2000</text><text x="657.6" y="542.8" fill="#666" text-anchor="middle" font-size="16.2">2010</text><text x="718.6" y="542.8" fill="#666" text-anchor="middle" font-size="16.2">2016</text></g><g class="VerticalAxis"><text x="42.22" y="339.8" fill="#666" dominant-baseline="middle" text-anchor="end" font-size="16.2">10</text><text x="42.22" y="125.4" fill="#666" dominant-baseline="middle" text-anchor="end" font-size="16.2">100</text></g><g class="AxisGridLines"><line x1="47.22" y1="339.8" x2="718.60" y2="339.8" stroke="#ddd" stroke-dasharray="3,2"></line><line x1="47.22" y1="125.4" x2="718.60" y2="125.4" stroke="#ddd" stroke-dasharray="3,2"></line></g></g><g clip-path="url(#boundsClip-3)"><g class="HeightedLegend clickable"><g class="legendMark"><g class="indicator"><line x1="723.595" y1="115.6" x2="746.095" y2="115.6" stroke="#666" stroke-width="0.5"></line><line x1="746.095" y1="115.6" x2="746.095" y2="115.6" stroke="#666" stroke-width="0.5"></line><line x1="746.095" y1="115.6" x2="748.595" y2="115.6" stroke="#666" stroke-width="0.5"></line></g><rect x="718.595" y="108.85" width="90.62" height="13.5" fill="#fff" opacity="0"></rect><text font-size="13.50" x="753.6" y="119.6" fill="#f6a324"><tspan x="753.595" y="119.64999999999999">Germany</tspan></text></g><g class="legendMark"><g class="indicator"><line x1="723.595" y1="125.4" x2="736.095" y2="125.4" stroke="#666" stroke-width="0.5"></line><line x1="736.095" y1="125.4" x2="736.095" y2="131.1" stroke="#666" stroke-width="0.5"></line><line x1="736.095" y1="131.1" x2="748.595" y2="131.1" stroke="#666" stroke-width="0.5"></line></g><rect x="718.595" y="124.35" width="116.405" height="13.5" fill="#fff" opacity="0"></rect><text font-size="13.50" x="753.6" y="135.2" fill="#c8c8c8"><tspan x="753.595" y="135.15">United States</tspan></text></g><g class="legendMark"><g class="indicator"><line x1="723.595" y1="152.6" x2="746.095" y2="152.6" stroke="#666" stroke-width="0.5"></line><line x1="746.095" y1="152.6" x2="746.095" y2="152.6" stroke="#666" stroke-width="0.5"></line><line x1="746.095" y1="152.6" x2="748.595" y2="152.6" stroke="#666" stroke-width="0.5"></line></g><rect x="718.595" y="145.85" width="71.99000000000001" height="13.5" fill="#fff" opacity="0"></rect><text font-size="13.50" x="753.6" y="156.7" fill="#ca2628"><tspan x="753.595" y="156.65">Japan</tspan></text></g><g class="legendMark"><g class="indicator"><line x1="723.595" y1="165.8" x2="736.095" y2="165.8" stroke="#666" stroke-width="0.5"></line><line x1="736.095" y1="165.8" x2="736.095" y2="168.1" stroke="#666" stroke-width="0.5"></line><line x1="736.095" y1="168.1" x2="748.595" y2="168.1" stroke="#666" stroke-width="0.5"></line></g><rect x="718.595" y="161.35" width="110.465" height="13.5" fill="#fff" opacity="0"></rect><text font-size="13.50" x="753.6" y="172.2" fill="#3360a9"><tspan x="753.595" y="172.15">South Korea</tspan></text></g><g class="legendMark"><g class="indicator"><line x1="723.595" y1="308.3" x2="736.095" y2="308.3" stroke="#666" stroke-width="0.5"></line><line x1="736.095" y1="308.3" x2="736.095" y2="308.3" stroke="#666" stroke-width="0.5"></line><line x1="736.095" y1="308.3" x2="748.595" y2="308.3" stroke="#666" stroke-width="0.5"></line></g><rect x="718.595" y="301.55" width="77.795" height="13.5" fill="#fff" opacity="0"></rect><text font-size="13.50" x="753.6" y="312.4" fill="#34983f"><tspan x="753.595" y="312.35">Mexico</tspan></text></g><g class="legendMark"><g class="indicator"><line x1="723.595" y1="344.6" x2="736.095" y2="344.6" stroke="#666" stroke-width="0.5"></line><line x1="736.095" y1="344.6" x2="736.095" y2="344.6" stroke="#666" stroke-width="0.5"></line><line x1="736.095" y1="344.6" x2="748.595" y2="344.6" stroke="#666" stroke-width="0.5"></line></g><rect x="718.595" y="337.85" width="70.37" height="13.5" fill="#fff" opacity="0"></rect><text font-size="13.50" x="753.6" y="348.7" fill="#a652ba"><tspan x="753.595" y="348.65000000000003">China</tspan></text></g><g class="legendMark"><g class="indicator"><line x1="723.595" y1="401.2" x2="736.095" y2="401.2" stroke="#666" stroke-width="0.5"></line><line x1="736.095" y1="401.2" x2="736.095" y2="401.2" stroke="#666" stroke-width="0.5"></line><line x1="736.095" y1="401.2" x2="748.595" y2="401.2" stroke="#666" stroke-width="0.5"></line></g><rect x="718.595" y="394.45" width="100.47500000000001" height="13.5" fill="#fff" opacity="0"></rect><text font-size="13.50" x="753.6" y="405.3" fill="#7ec7ce"><tspan x="753.595" y="405.25">Philippines</tspan></text></g><g class="legendMark"><g class="indicator"><line x1="723.595" y1="472.7" x2="736.095" y2="472.7" stroke="#666" stroke-width="0.5"></line><line x1="736.095" y1="472.7" x2="736.095" y2="472.7" stroke="#666" stroke-width="0.5"></line><line x1="736.095" y1="472.7" x2="748.595" y2="472.7" stroke="#666" stroke-width="0.5"></line></g><rect x="718.595" y="465.95" width="92.24000000000001" height="13.5" fill="#fff" opacity="0"></rect><text font-size="13.50" x="753.6" y="476.8" fill="#000"><tspan x="753.595" y="476.75">Sri Lanka</tspan></text></g></g><g class="Lines"><rect x="47" y="87" width="671" height="435" fill="rgba(255,255,255,0)" opacity="0"></rect><g class="key-China_0"><path stroke="#a652ba" stroke-linecap="round" d="M352 471L363 480L373 488L383 498L393 509L403 522L413 517L424 513L434 510L444 507L454 503L464 500L475 497L485 494L495 491L505 488L515 483L525 479L536 476L546 472L556 468L566 465L576 462L586 460L597 443L607 429L617 416L627 404L637 394L647 384L658 362L668 345" fill="none" stroke-width="1.5"></path><g fill="#a652ba"><circle cx="352" cy="471" r="2"></circle><circle cx="363" cy="480" r="2"></circle><circle cx="373" cy="488" r="2"></circle><circle cx="383" cy="498" r="2"></circle><circle cx="393" cy="509" r="2"></circle><circle cx="403" cy="522" r="2"></circle><circle cx="413" cy="517" r="2"></circle><circle cx="424" cy="513" r="2"></circle><circle cx="434" cy="510" r="2"></circle><circle cx="444" cy="507" r="2"></circle><circle cx="454" cy="503" r="2"></circle><circle cx="464" cy="500" r="2"></circle><circle cx="475" cy="497" r="2"></circle><circle cx="485" cy="494" r="2"></circle><circle cx="495" cy="491" r="2"></circle><circle cx="505" cy="488" r="2"></circle><circle cx="515" cy="483" r="2"></circle><circle cx="525" cy="479" r="2"></circle><circle cx="536" cy="476" r="2"></circle><circle cx="546" cy="472" r="2"></circle><circle cx="556" cy="468" r="2"></circle><circle cx="566" cy="465" r="2"></circle><circle cx="576" cy="462" r="2"></circle><circle cx="586" cy="460" r="2"></circle><circle cx="597" cy="443" r="2"></circle><circle cx="607" cy="429" r="2"></circle><circle cx="617" cy="416" r="2"></circle><circle cx="627" cy="404" r="2"></circle><circle cx="637" cy="394" r="2"></circle><circle cx="647" cy="384" r="2"></circle><circle cx="658" cy="362" r="2"></circle><circle cx="668" cy="345" r="2"></circle></g></g><g class="key-Germany_0"><path stroke="#f6a324" stroke-linecap="round" d="M47 261L57 259L68 257L78 256L88 254L98 253L108 248L118 244L129 240L139 236L149 233L159 225L169 217L180 210L190 204L200 198L210 193L220 188L230 183L241 179L251 175L261 167L271 160L281 154L291 148L302 142L312 145L322 139L332 128L342 122L352 122L363 146L373 154L383 158L393 169L403 171L413 141L424 122L434 117L444 122L454 107L464 109L475 101L485 103L495 100L505 87L515 91L525 106L536 108L546 115L556 126L566 131L576 127L586 112L597 105L607 107L617 105L627 100L637 94L647 99L658 103L668 99L678 103L688 99L698 98L708 114L719 116" fill="none" stroke-width="1.5"></path><g fill="#f6a324"><circle cx="47" cy="261" r="2"></circle><circle cx="57" cy="259" r="2"></circle><circle cx="68" cy="257" r="2"></circle><circle cx="78" cy="256" r="2"></circle><circle cx="88" cy="254" r="2"></circle><circle cx="98" cy="253" r="2"></circle><circle cx="108" cy="248" r="2"></circle><circle cx="118" cy="244" r="2"></circle><circle cx="129" cy="240" r="2"></circle><circle cx="139" cy="236" r="2"></circle><circle cx="149" cy="233" r="2"></circle><circle cx="159" cy="225" r="2"></circle><circle cx="169" cy="217" r="2"></circle><circle cx="180" cy="210" r="2"></circle><circle cx="190" cy="204" r="2"></circle><circle cx="200" cy="198" r="2"></circle><circle cx="210" cy="193" r="2"></circle><circle cx="220" cy="188" r="2"></circle><circle cx="230" cy="183" r="2"></circle><circle cx="241" cy="179" r="2"></circle><circle cx="251" cy="175" r="2"></circle><circle cx="261" cy="167" r="2"></circle><circle cx="271" cy="160" r="2"></circle><circle cx="281" cy="154" r="2"></circle><circle cx="291" cy="148" r="2"></circle><circle cx="302" cy="142" r="2"></circle><circle cx="312" cy="145" r="2"></circle><circle cx="322" cy="139" r="2"></circle><circle cx="332" cy="128" r="2"></circle><circle cx="342" cy="122" r="2"></circle><circle cx="352" cy="122" r="2"></circle><circle cx="363" cy="146" r="2"></circle><circle cx="373" cy="154" r="2"></circle><circle cx="383" cy="158" r="2"></circle><circle cx="393" cy="169" r="2"></circle><circle cx="403" cy="171" r="2"></circle><circle cx="413" cy="141" r="2"></circle><circle cx="424" cy="122" r="2"></circle><circle cx="434" cy="117" r="2"></circle><circle cx="444" cy="122" r="2"></circle><circle cx="454" cy="107" r="2"></circle><circle cx="464" cy="109" r="2"></circle><circle cx="475" cy="101" r="2"></circle><circle cx="485" cy="103" r="2"></circle><circle cx="495" cy="100" r="2"></circle><circle cx="505" cy="87" r="2"></circle><circle cx="515" cy="91" r="2"></circle><circle cx="525" cy="106" r="2"></circle><circle cx="536" cy="108" r="2"></circle><circle cx="546" cy="115" r="2"></circle><circle cx="556" cy="126" r="2"></circle><circle cx="566" cy="131" r="2"></circle><circle cx="576" cy="127" r="2"></circle><circle cx="586" cy="112" r="2"></circle><circle cx="597" cy="105" r="2"></circle><circle cx="607" cy="107" r="2"></circle><circle cx="617" cy="105" r="2"></circle><circle cx="627" cy="100" r="2"></circle><circle cx="637" cy="94" r="2"></circle><circle cx="647" cy="99" r="2"></circle><circle cx="658" cy="103" r="2"></circle><circle cx="668" cy="99" r="2"></circle><circle cx="678" cy="103" r="2"></circle><circle cx="688" cy="99" r="2"></circle><circle cx="698" cy="98" r="2"></circle><circle cx="708" cy="114" r="2"></circle><circle cx="719" cy="116" r="2"></circle></g></g><g class="key-Japan_0"><path stroke="#ca2628" stroke-linecap="round" d="M98 348L108 347L118 346L129 344L139 343L149 342L159 331L169 322L180 313L190 305L200 298L210 289L220 280L230 273L241 266L251 259L261 242L271 227L281 215L291 204L302 194L312 195L322 185L332 164L342 173L352 180L363 179L373 194L383 190L393 190L403 192L413 159L424 147L434 134L444 138L454 141L464 132L475 125L485 113L495 106L505 97L515 113L525 123L536 130L546 119L556 117L566 132L576 139L586 135L597 131L607 135L617 142L627 148L637 135L647 128L658 125L668 116L678 118L688 138L698 146L708 160L719 153" fill="none" stroke-width="1.5"></path><g fill="#ca2628"><circle cx="98" cy="348" r="2"></circle><circle cx="108" cy="347" r="2"></circle><circle cx="118" cy="346" r="2"></circle><circle cx="129" cy="344" r="2"></circle><circle cx="139" cy="343" r="2"></circle><circle cx="149" cy="342" r="2"></circle><circle cx="159" cy="331" r="2"></circle><circle cx="169" cy="322" r="2"></circle><circle cx="180" cy="313" r="2"></circle><circle cx="190" cy="305" r="2"></circle><circle cx="200" cy="298" r="2"></circle><circle cx="210" cy="289" r="2"></circle><circle cx="220" cy="280" r="2"></circle><circle cx="230" cy="273" r="2"></circle><circle cx="241" cy="266" r="2"></circle><circle cx="251" cy="259" r="2"></circle><circle cx="261" cy="242" r="2"></circle><circle cx="271" cy="227" r="2"></circle><circle cx="281" cy="215" r="2"></circle><circle cx="291" cy="204" r="2"></circle><circle cx="302" cy="194" r="2"></circle><circle cx="312" cy="195" r="2"></circle><circle cx="322" cy="185" r="2"></circle><circle cx="332" cy="164" r="2"></circle><circle cx="342" cy="173" r="2"></circle><circle cx="352" cy="180" r="2"></circle><circle cx="363" cy="179" r="2"></circle><circle cx="373" cy="194" r="2"></circle><circle cx="383" cy="190" r="2"></circle><circle cx="393" cy="190" r="2"></circle><circle cx="403" cy="192" r="2"></circle><circle cx="413" cy="159" r="2"></circle><circle cx="424" cy="147" r="2"></circle><circle cx="434" cy="134" r="2"></circle><circle cx="444" cy="138" r="2"></circle><circle cx="454" cy="141" r="2"></circle><circle cx="464" cy="132" r="2"></circle><circle cx="475" cy="125" r="2"></circle><circle cx="485" cy="113" r="2"></circle><circle cx="495" cy="106" r="2"></circle><circle cx="505" cy="97" r="2"></circle><circle cx="515" cy="113" r="2"></circle><circle cx="525" cy="123" r="2"></circle><circle cx="536" cy="130" r="2"></circle><circle cx="546" cy="119" r="2"></circle><circle cx="556" cy="117" r="2"></circle><circle cx="566" cy="132" r="2"></circle><circle cx="576" cy="139" r="2"></circle><circle cx="586" cy="135" r="2"></circle><circle cx="597" cy="131" r="2"></circle><circle cx="607" cy="135" r="2"></circle><circle cx="617" cy="142" r="2"></circle><circle cx="627" cy="148" r="2"></circle><circle cx="637" cy="135" r="2"></circle><circle cx="647" cy="128" r="2"></circle><circle cx="658" cy="125" r="2"></circle><circle cx="668" cy="116" r="2"></circle><circle cx="678" cy="118" r="2"></circle><circle cx="688" cy="138" r="2"></circle><circle cx="698" cy="146" r="2"></circle><circle cx="708" cy="160" r="2"></circle><circle cx="719" cy="153" r="2"></circle></g></g><g class="key-Mexico_0"><path stroke="#34983f" stroke-linecap="round" d="M342 249L352 250L363 248L373 249L383 256L393 265L403 276L413 300L424 315L434 320L444 325L454 329L464 322L475 312L485 303L495 296L505 299L515 303L525 309L536 318L546 324L556 317L566 309L576 303L586 299L597 297L607 297L617 298L627 298L637 296L647 296L658 296L668 297L678 298L688 299L698 297L708 299L719 308" fill="none" stroke-width="1.5"></path><g fill="#34983f"><circle cx="342" cy="249" r="2"></circle><circle cx="352" cy="250" r="2"></circle><circle cx="363" cy="248" r="2"></circle><circle cx="373" cy="249" r="2"></circle><circle cx="383" cy="256" r="2"></circle><circle cx="393" cy="265" r="2"></circle><circle cx="403" cy="276" r="2"></circle><circle cx="413" cy="300" r="2"></circle><circle cx="424" cy="315" r="2"></circle><circle cx="434" cy="320" r="2"></circle><circle cx="444" cy="325" r="2"></circle><circle cx="454" cy="329" r="2"></circle><circle cx="464" cy="322" r="2"></circle><circle cx="475" cy="312" r="2"></circle><circle cx="485" cy="303" r="2"></circle><circle cx="495" cy="296" r="2"></circle><circle cx="505" cy="299" r="2"></circle><circle cx="515" cy="303" r="2"></circle><circle cx="525" cy="309" r="2"></circle><circle cx="536" cy="318" r="2"></circle><circle cx="546" cy="324" r="2"></circle><circle cx="556" cy="317" r="2"></circle><circle cx="566" cy="309" r="2"></circle><circle cx="576" cy="303" r="2"></circle><circle cx="586" cy="299" r="2"></circle><circle cx="597" cy="297" r="2"></circle><circle cx="607" cy="297" r="2"></circle><circle cx="617" cy="298" r="2"></circle><circle cx="627" cy="298" r="2"></circle><circle cx="637" cy="296" r="2"></circle><circle cx="647" cy="296" r="2"></circle><circle cx="658" cy="296" r="2"></circle><circle cx="668" cy="297" r="2"></circle><circle cx="678" cy="298" r="2"></circle><circle cx="688" cy="299" r="2"></circle><circle cx="698" cy="297" r="2"></circle><circle cx="708" cy="299" r="2"></circle><circle cx="719" cy="308" r="2"></circle></g></g><g class="key-Philippines_0"><path stroke="#7ec7ce" stroke-linecap="round" d="M505 411L515 406L525 405L536 408L546 412L556 419L566 429L576 438L586 441L597 445L607 444L617 440L627 434L637 426L647 421L658 415L668 410L678 406L688 404L698 401L708 400L719 401" fill="none" stroke-width="1.5"></path><g fill="#7ec7ce"><circle cx="505" cy="411" r="2"></circle><circle cx="515" cy="406" r="2"></circle><circle cx="525" cy="405" r="2"></circle><circle cx="536" cy="408" r="2"></circle><circle cx="546" cy="412" r="2"></circle><circle cx="556" cy="419" r="2"></circle><circle cx="566" cy="429" r="2"></circle><circle cx="576" cy="438" r="2"></circle><circle cx="586" cy="441" r="2"></circle><circle cx="597" cy="445" r="2"></circle><circle cx="607" cy="444" r="2"></circle><circle cx="617" cy="440" r="2"></circle><circle cx="627" cy="434" r="2"></circle><circle cx="637" cy="426" r="2"></circle><circle cx="647" cy="421" r="2"></circle><circle cx="658" cy="415" r="2"></circle><circle cx="668" cy="410" r="2"></circle><circle cx="678" cy="406" r="2"></circle><circle cx="688" cy="404" r="2"></circle><circle cx="698" cy="401" r="2"></circle><circle cx="708" cy="400" r="2"></circle><circle cx="719" cy="401" r="2"></circle></g></g><g class="key-South-Korea_0"><path stroke="#3360a9" stroke-linecap="round" d="M342 359L352 349L363 342L373 338L383 338L393 341L403 341L413 340L424 336L434 325L444 306L454 288L464 269L475 252L485 239L495 230L505 220L515 211L525 206L536 208L546 207L556 207L566 211L576 213L586 207L597 203L607 198L617 188L627 179L637 176L647 176L658 176L668 178L678 180L688 177L698 170L708 167L719 166" fill="none" stroke-width="1.5"></path><g fill="#3360a9"><circle cx="342" cy="359" r="2"></circle><circle cx="352" cy="349" r="2"></circle><circle cx="363" cy="342" r="2"></circle><circle cx="373" cy="338" r="2"></circle><circle cx="383" cy="338" r="2"></circle><circle cx="393" cy="341" r="2"></circle><circle cx="403" cy="341" r="2"></circle><circle cx="413" cy="340" r="2"></circle><circle cx="424" cy="336" r="2"></circle><circle cx="434" cy="325" r="2"></circle><circle cx="444" cy="306" r="2"></circle><circle cx="454" cy="288" r="2"></circle><circle cx="464" cy="269" r="2"></circle><circle cx="475" cy="252" r="2"></circle><circle cx="485" cy="239" r="2"></circle><circle cx="495" cy="230" r="2"></circle><circle cx="505" cy="220" r="2"></circle><circle cx="515" cy="211" r="2"></circle><circle cx="525" cy="206" r="2"></circle><circle cx="536" cy="208" r="2"></circle><circle cx="546" cy="207" r="2"></circle><circle cx="556" cy="207" r="2"></circle><circle cx="566" cy="211" r="2"></circle><circle cx="576" cy="213" r="2"></circle><circle cx="586" cy="207" r="2"></circle><circle cx="597" cy="203" r="2"></circle><circle cx="607" cy="198" r="2"></circle><circle cx="617" cy="188" r="2"></circle><circle cx="627" cy="179" r="2"></circle><circle cx="637" cy="176" r="2"></circle><circle cx="647" cy="176" r="2"></circle><circle cx="658" cy="176" r="2"></circle><circle cx="668" cy="178" r="2"></circle><circle cx="678" cy="180" r="2"></circle><circle cx="688" cy="177" r="2"></circle><circle cx="698" cy="170" r="2"></circle><circle cx="708" cy="167" r="2"></circle><circle cx="719" cy="166" r="2"></circle></g></g><g class="key-Sri-Lanka_0"><path stroke="#000" stroke-linecap="round" d="M342 434L352 447L363 457L373 472L383 482L393 486L403 487L413 484L424 483L434 481L444 480L454 479L464 476L475 474L485 472L495 468L505 465L515 464L525 464L536 464L546 466L556 469L566 472L576 474L586 476L597 477L607 478L617 477L627 476L637 473" fill="none" stroke-width="1.5"></path><g fill="#000"><circle cx="342" cy="434" r="2"></circle><circle cx="352" cy="447" r="2"></circle><circle cx="363" cy="457" r="2"></circle><circle cx="373" cy="472" r="2"></circle><circle cx="383" cy="482" r="2"></circle><circle cx="393" cy="486" r="2"></circle><circle cx="403" cy="487" r="2"></circle><circle cx="413" cy="484" r="2"></circle><circle cx="424" cy="483" r="2"></circle><circle cx="434" cy="481" r="2"></circle><circle cx="444" cy="480" r="2"></circle><circle cx="454" cy="479" r="2"></circle><circle cx="464" cy="476" r="2"></circle><circle cx="475" cy="474" r="2"></circle><circle cx="485" cy="472" r="2"></circle><circle cx="495" cy="468" r="2"></circle><circle cx="505" cy="465" r="2"></circle><circle cx="515" cy="464" r="2"></circle><circle cx="525" cy="464" r="2"></circle><circle cx="536" cy="464" r="2"></circle><circle cx="546" cy="466" r="2"></circle><circle cx="556" cy="469" r="2"></circle><circle cx="566" cy="472" r="2"></circle><circle cx="576" cy="474" r="2"></circle><circle cx="586" cy="476" r="2"></circle><circle cx="597" cy="477" r="2"></circle><circle cx="607" cy="478" r="2"></circle><circle cx="617" cy="477" r="2"></circle><circle cx="627" cy="476" r="2"></circle><circle cx="637" cy="473" r="2"></circle></g></g><g class="key-United-States_0"><path stroke="#c8c8c8" stroke-linecap="round" d="M47 125L57 125L68 125L78 125L88 125L98 125L108 125L118 125L129 125L139 125L149 125L159 125L169 125L180 125L190 125L200 125L210 125L220 125L230 125L241 125L251 125L261 125L271 125L281 125L291 125L302 125L312 125L322 125L332 125L342 125L352 125L363 125L373 125L383 125L393 125L403 125L413 125L424 125L434 125L444 125L454 125L464 125L475 125L485 125L495 125L505 125L515 125L525 125L536 125L546 125L556 125L566 125L576 125L586 125L597 125L607 125L617 125L627 125L637 125L647 125L658 125L668 125L678 125L688 125L698 125L708 125L719 125" fill="none" stroke-width="1.5"></path><g fill="#c8c8c8"><circle cx="47" cy="125" r="2"></circle><circle cx="57" cy="125" r="2"></circle><circle cx="68" cy="125" r="2"></circle><circle cx="78" cy="125" r="2"></circle><circle cx="88" cy="125" r="2"></circle><circle cx="98" cy="125" r="2"></circle><circle cx="108" cy="125" r="2"></circle><circle cx="118" cy="125" r="2"></circle><circle cx="129" cy="125" r="2"></circle><circle cx="139" cy="125" r="2"></circle><circle cx="149" cy="125" r="2"></circle><circle cx="159" cy="125" r="2"></circle><circle cx="169" cy="125" r="2"></circle><circle cx="180" cy="125" r="2"></circle><circle cx="190" cy="125" r="2"></circle><circle cx="200" cy="125" r="2"></circle><circle cx="210" cy="125" r="2"></circle><circle cx="220" cy="125" r="2"></circle><circle cx="230" cy="125" r="2"></circle><circle cx="241" cy="125" r="2"></circle><circle cx="251" cy="125" r="2"></circle><circle cx="261" cy="125" r="2"></circle><circle cx="271" cy="125" r="2"></circle><circle cx="281" cy="125" r="2"></circle><circle cx="291" cy="125" r="2"></circle><circle cx="302" cy="125" r="2"></circle><circle cx="312" cy="125" r="2"></circle><circle cx="322" cy="125" r="2"></circle><circle cx="332" cy="125" r="2"></circle><circle cx="342" cy="125" r="2"></circle><circle cx="352" cy="125" r="2"></circle><circle cx="363" cy="125" r="2"></circle><circle cx="373" cy="125" r="2"></circle><circle cx="383" cy="125" r="2"></circle><circle cx="393" cy="125" r="2"></circle><circle cx="403" cy="125" r="2"></circle><circle cx="413" cy="125" r="2"></circle><circle cx="424" cy="125" r="2"></circle><circle cx="434" cy="125" r="2"></circle><circle cx="444" cy="125" r="2"></circle><circle cx="454" cy="125" r="2"></circle><circle cx="464" cy="125" r="2"></circle><circle cx="475" cy="125" r="2"></circle><circle cx="485" cy="125" r="2"></circle><circle cx="495" cy="125" r="2"></circle><circle cx="505" cy="125" r="2"></circle><circle cx="515" cy="125" r="2"></circle><circle cx="525" cy="125" r="2"></circle><circle cx="536" cy="125" r="2"></circle><circle cx="546" cy="125" r="2"></circle><circle cx="556" cy="125" r="2"></circle><circle cx="566" cy="125" r="2"></circle><circle cx="576" cy="125" r="2"></circle><circle cx="586" cy="125" r="2"></circle><circle cx="597" cy="125" r="2"></circle><circle cx="607" cy="125" r="2"></circle><circle cx="617" cy="125" r="2"></circle><circle cx="627" cy="125" r="2"></circle><circle cx="637" cy="125" r="2"></circle><circle cx="647" cy="125" r="2"></circle><circle cx="658" cy="125" r="2"></circle><circle cx="668" cy="125" r="2"></circle><circle cx="678" cy="125" r="2"></circle><circle cx="688" cy="125" r="2"></circle><circle cx="698" cy="125" r="2"></circle><circle cx="708" cy="125" r="2"></circle><circle cx="719" cy="125" r="2"></circle></g></g></g></g></g><g class="SourcesFooter" style="fill:#777"><g class="clickable" style="fill:#777"><text font-size="12.60" x="15.0" y="567.9"><tspan x="15" y="567.88">Source: Glyn (2006); N.B.S of China; Bank of England and US B.L.S</tspan></text></g><text font-size="12.60" x="15.0" y="582.5"><tspan x="15" y="582.48">Note: Ratio scale, US=100</tspan></text><text font-size="12.60" x="538.9" y="567.9"><tspan x="538.9" y="567.88"><a target='_blank' style='fill: #777;' href='https://tinyco.re/18102330'>tinyco.re/18102330</a> • <a href="https://ourworldindata.org" target="_blank">Powered by ourworldindata.org</a></tspan></text></g></svg>