<svg xmlns="http://www.w3.org/2000/svg" version="1.1" style="font-family:&#x27;Helvetica Neue&#x27;, Helvetica, Arial, sans-serif;font-size:18px;background-color:white;text-rendering:optimizeLegibility;-webkit-font-smoothing:antialiased" width="850" height="600"><g class="ChartTab"><g class="HeaderView"><g opacity="0.8" transform="translate(778, 15) scale(0.27)"><a xmlns:xlink="http://www.w3.org/1999/xlink" xlink:href="https://ourworldindata.org" target="_blank"><g><rect x="0" y="0" fill="#1B2543" width="211.2" height="130.1"/><rect x="0" y="112.2" fill="#E63912" width="211.2" height="17.9"/><g><rect x="1.2" y="12.3" fill="none" width="210.2" height="99.2"/><path fill="#FFFFFF" d="M37.8,32.2c0,12.7-7.7,19.4-17.1,19.4c-9.7,0-16.6-7.5-16.6-18.7c0-11.7,7.3-19.3,17.1-19.3 C31.3,13.7,37.8,21.3,37.8,32.2z M9.2,32.8c0,7.9,4.3,14.9,11.8,14.9c7.5,0,11.8-6.9,11.8-15.3c0-7.3-3.8-14.9-11.8-14.9 C13.1,17.5,9.2,24.8,9.2,32.8z"/><path fill="#FFFFFF" d="M62.7,43.8c0,2.7,0.1,5.1,0.2,7.2h-4.3l-0.3-4.3h-0.1c-1.3,2.1-4,4.9-8.8,4.9c-4.2,0-9.1-2.3-9.1-11.6 V24.6h4.8v14.6c0,5,1.5,8.4,5.9,8.4c3.2,0,5.5-2.2,6.3-4.4c0.3-0.7,0.4-1.6,0.4-2.5V24.6h4.8V43.8z"/><path fill="#FFFFFF" d="M67.3,32.8c0-3.1-0.1-5.8-0.2-8.2h4.2l0.2,5.2h0.2c1.2-3.5,4.1-5.8,7.3-5.8c0.5,0,0.9,0.1,1.4,0.2v4.5 c-0.5-0.1-1-0.2-1.6-0.2c-3.4,0-5.8,2.6-6.5,6.2c-0.1,0.7-0.2,1.4-0.2,2.2V51h-4.8V32.8z"/><path fill="#FFFFFF" d="M95.4,51l-9.4-36.8h5l4.4,18.6c1.1,4.6,2.1,9.2,2.7,12.7h0.1c0.6-3.7,1.8-8,3-12.8l4.9-18.5h5l4.5,18.7 c1,4.4,2,8.7,2.6,12.6h0.1c0.8-4,1.8-8.1,3-12.7l4.9-18.5h4.9L120.6,51h-5L111,31.9c-1.1-4.7-1.9-8.3-2.4-12h-0.1 c-0.7,3.7-1.5,7.3-2.8,12L100.4,51H95.4z"/><path fill="#FFFFFF" d="M154.9,37.6c0,9.8-6.8,14-13.2,14c-7.2,0-12.7-5.2-12.7-13.6c0-8.8,5.8-14,13.1-14 C149.8,24,154.9,29.5,154.9,37.6z M133.9,37.9c0,5.8,3.3,10.1,8,10.1c4.6,0,8-4.3,8-10.3c0-4.5-2.2-10.1-7.9-10.1 C136.3,27.6,133.9,32.8,133.9,37.9z"/><path fill="#FFFFFF" d="M158.2,32.8c0-3.1-0.1-5.8-0.2-8.2h4.2l0.2,5.2h0.2c1.2-3.5,4.1-5.8,7.3-5.8c0.5,0,0.9,0.1,1.4,0.2v4.5 c-0.5-0.1-1-0.2-1.6-0.2c-3.4,0-5.8,2.6-6.5,6.2c-0.1,0.7-0.2,1.4-0.2,2.2V51h-4.8V32.8z"/><path fill="#FFFFFF" d="M173.5,12.3h4.8V51h-4.8V12.3z"/><path fill="#FFFFFF" d="M206.5,12.3v31.9c0,2.3,0.1,5,0.2,6.8h-4.3l-0.2-4.6H202c-1.5,2.9-4.7,5.2-9,5.2 c-6.4,0-11.3-5.4-11.3-13.4c-0.1-8.8,5.4-14.2,11.9-14.2c4,0,6.8,1.9,8,4h0.1V12.3H206.5z M201.7,35.4c0-0.6-0.1-1.4-0.2-2 c-0.7-3.1-3.3-5.6-6.9-5.6c-5,0-7.9,4.4-7.9,10.2c0,5.3,2.6,9.8,7.8,9.8c3.2,0,6.2-2.1,7.1-5.7c0.2-0.7,0.2-1.3,0.2-2.1V35.4z"/><path fill="#FFFFFF" d="M42.8,64c0.1,1.6-1.1,2.9-3.1,2.9c-1.7,0-2.9-1.3-2.9-2.9c0-1.7,1.3-3,3-3C41.7,61,42.8,62.3,42.8,64z M37.4,97.8V71.4h4.8v26.4H37.4z"/><path fill="#FFFFFF" d="M47.5,78.6c0-2.7-0.1-5-0.2-7.1h4.3l0.3,4.4h0.1c1.3-2.5,4.4-5,8.8-5c3.7,0,9.4,2.2,9.4,11.2v15.8h-4.8 V82.6c0-4.3-1.6-7.8-6.1-7.8c-3.2,0-5.6,2.2-6.5,4.9c-0.2,0.6-0.3,1.4-0.3,2.2v15.9h-4.8V78.6z"/><path fill="#FFFFFF" d="M84,61.6c2.9-0.4,6.3-0.8,10.1-0.8c6.8,0,11.7,1.6,14.9,4.6c3.3,3,5.2,7.3,5.2,13.2c0,6-1.9,10.9-5.3,14.3 c-3.4,3.4-9.1,5.3-16.3,5.3c-3.4,0-6.2-0.2-8.6-0.4V61.6z M88.8,94.1c1.2,0.2,3,0.3,4.8,0.3c10.2,0,15.7-5.7,15.7-15.6 c0.1-8.7-4.9-14.2-14.9-14.2c-2.5,0-4.3,0.2-5.6,0.5V94.1z"/><path fill="#FFFFFF" d="M132.1,97.8l-0.4-3.3h-0.2c-1.5,2.1-4.3,3.9-8.1,3.9c-5.4,0-8.1-3.8-8.1-7.6c0-6.4,5.7-9.9,15.9-9.8v-0.5 c0-2.2-0.6-6.1-6-6.1c-2.5,0-5,0.8-6.9,2l-1.1-3.2c2.2-1.4,5.4-2.3,8.7-2.3c8.1,0,10.1,5.5,10.1,10.8v9.9c0,2.3,0.1,4.5,0.4,6.3 H132.1z M131.4,84.4c-5.3-0.1-11.2,0.8-11.2,5.9c0,3.1,2.1,4.6,4.5,4.6c3.4,0,5.6-2.2,6.4-4.4c0.2-0.5,0.3-1,0.3-1.5V84.4z"/><path fill="#FFFFFF" d="M146.6,63.9v7.6h6.9v3.7h-6.9v14.2c0,3.3,0.9,5.1,3.6,5.1c1.3,0,2.2-0.2,2.8-0.3l0.2,3.6 c-0.9,0.4-2.4,0.7-4.3,0.7c-2.2,0-4-0.7-5.2-2c-1.4-1.4-1.9-3.8-1.9-6.9V75.1h-4.1v-3.7h4.1v-6.3L146.6,63.9z"/><path fill="#FFFFFF" d="M171.4,97.8l-0.4-3.3h-0.2c-1.5,2.1-4.3,3.9-8.1,3.9c-5.4,0-8.1-3.8-8.1-7.6c0-6.4,5.7-9.9,15.9-9.8v-0.5 c0-2.2-0.6-6.1-6-6.1c-2.5,0-5,0.8-6.9,2l-1.1-3.2c2.2-1.4,5.4-2.3,8.7-2.3c8.1,0,10.1,5.5,10.1,10.8v9.9c0,2.3,0.1,4.5,0.4,6.3 H171.4z M170.7,84.4c-5.3-0.1-11.2,0.8-11.2,5.9c0,3.1,2.1,4.6,4.5,4.6c3.4,0,5.6-2.2,6.4-4.4c0.2-0.5,0.3-1,0.3-1.5V84.4z"/></g></g></a></g><a href="https://ourworldindata.org/grapher/Children-woman-death-vs-survival" target="_blank"><text font-size="21.60" x="15.0" y="32.3" fill="#555"><tspan x="15" y="32.279999999999994">Children per woman that survived childhood vs those that died in childhood,</tspan><tspan x="15" y="53.87999999999999">Sweden</tspan></text></a><text font-size="14.40" x="15.0" y="72.7" fill="#666"><tspan x="15" y="72.72">Shown is the total fertility rate over time. Using data on child mortality makes it possible to show the number of children that died</tspan><tspan x="15" y="88.56">in the first four years of their lives.</tspan></text></g><g class="StackedArea"><defs><clipPath id="boundsClip-49"><rect x="29.072000000000003" y="0" width="820" height="890.8"></rect></clipPath></defs><g class="AxisBoxView"><g class="HorizontalAxis"><text x="29.1" y="556.5" fill="#666" text-anchor="middle" font-size="16.2">1800</text><text x="182.8" y="556.5" fill="#666" text-anchor="middle" font-size="16.2">1850</text><text x="336.5" y="556.5" fill="#666" text-anchor="middle" font-size="16.2">1900</text><text x="490.3" y="556.5" fill="#666" text-anchor="middle" font-size="16.2">1950</text><text x="644" y="556.5" fill="#666" text-anchor="middle" font-size="16.2">2000</text><text x="690.1" y="556.5" fill="#666" text-anchor="middle" font-size="16.2">2015</text></g><g class="VerticalAxis"><text x="24.07" y="535.3" fill="#666" dominant-baseline="middle" text-anchor="end" font-size="16.2">0</text><text x="24.07" y="454.1" fill="#666" dominant-baseline="middle" text-anchor="end" font-size="16.2">1</text><text x="24.07" y="372.9" fill="#666" dominant-baseline="middle" text-anchor="end" font-size="16.2">2</text><text x="24.07" y="291.7" fill="#666" dominant-baseline="middle" text-anchor="end" font-size="16.2">3</text><text x="24.07" y="210.5" fill="#666" dominant-baseline="middle" text-anchor="end" font-size="16.2">4</text><text x="24.07" y="129.3" fill="#666" dominant-baseline="middle" text-anchor="end" font-size="16.2">5</text></g><g class="AxisGridLines"><line x1="29.07" y1="535.3" x2="690.11" y2="535.3" stroke="#ccc"></line><line x1="29.07" y1="454.1" x2="690.11" y2="454.1" stroke="#ddd" stroke-dasharray="3,2"></line><line x1="29.07" y1="372.9" x2="690.11" y2="372.9" stroke="#ddd" stroke-dasharray="3,2"></line><line x1="29.07" y1="291.7" x2="690.11" y2="291.7" stroke="#ddd" stroke-dasharray="3,2"></line><line x1="29.07" y1="210.5" x2="690.11" y2="210.5" stroke="#ddd" stroke-dasharray="3,2"></line><line x1="29.07" y1="129.3" x2="690.11" y2="129.3" stroke="#ddd" stroke-dasharray="3,2"></line></g></g><g clip-path="url(#boundsClip-49)"><g class="HeightedLegend clickable"><g class="legendMark"><rect x="690.11" y="357.34999999999997" width="141.245" height="42.7" fill="#fff" opacity="0"></rect><text font-size="13.50" x="695.1" y="368.1" fill="#db2445"><tspan x="695.11" y="368.15">Children that died</tspan><tspan x="695.11" y="383">before 5 years of</tspan><tspan x="695.11" y="397.84999999999997">age per woman</tspan></text></g><g class="legendMark"><rect x="690.11" y="428.45000000000005" width="144.89" height="57.3" fill="#fff" opacity="0"></rect><text font-size="13.50" x="695.1" y="439.3" fill="#34983f"><tspan x="695.11" y="439.25000000000006">Children that</tspan><tspan x="695.11" y="454.1000000000001">survived past their</tspan><tspan x="695.11" y="468.95000000000005">5th birthday per</tspan><tspan x="695.11" y="483.80000000000007">woman</tspan></text></g></g><g class="Areas"><rect x="29.072000000000003" y="111.1" width="661.038" height="424.19999999999993" opacity="0" fill="rgba(255,255,255,0)"></rect><path class="Sweden_1-area" stroke-linecap="round" d="M29.1 330.6L32.1 303.1L35.2 273.4L38.3 273.6L41.4 267.7L44.4 267.1L47.5 299L50.6 276.3L53.7 307.6L56.7 340.5L59.8 287.1L62.9 260.7L66 269.4L69 296.7L72.1 283.6L75.2 244.9L78.3 239.8L81.3 256.8L84.4 250.8L87.5 267L90.6 254.6L93.6 251.6L96.7 223.4L99.8 203.4L102.9 226.7L105.9 210.8L109 231.3L112.1 256.4L115.2 257.4L118.2 255.6L121.3 252.9L124.4 281.1L127.5 270.9L130.5 238.5L133.6 244.9L136.7 234.3L139.8 251.1L142.8 279.4L145.9 282.8L149 281.2L152.1 253.2L155.1 263.1L158.2 259.1L161.3 263.3L164.4 248.7L167.4 250.9L170.5 276.6L173.6 286.6L176.7 260.1L179.7 242.9L182.8 252.8L185.9 263.7L189 279.5L192 278.2L195.1 248.5L198.2 265.1L201.2 276.3L204.3 290.9L207.4 250.8L210.5 241.4L213.5 227.9L216.6 253.1L219.7 261.7L222.8 246.9L225.8 244.2L228.9 250.3L232 239.4L235.1 253.5L238.1 295.6L241.2 296.6L244.3 274.9L247.4 245.3L250.4 248.7L253.5 242.5L256.6 251.2L259.7 248.4L262.7 252.2L265.8 245.7L268.9 256.4L272 238.2L275 253.3L278.1 255L281.2 257L284.3 258.8L287.3 247L290.4 251.8L293.5 244.2L296.6 242.4L299.6 246.2L302.7 256.4L305.8 258.3L308.9 259.6L311.9 270.8L315 266.4L318.1 266.7L321.2 257.8L324.2 262.7L327.3 264.3L330.4 256.6L333.5 273.3L336.5 260.8L339.6 261.2L342.7 260.9L345.8 271.1L348.8 268.2L351.9 271.4L355 267.8L358.1 268.8L361.1 271.3L364.2 266.8L367.3 278L370.4 284.7L373.4 288.7L376.5 295.8L379.6 301.8L382.7 317.2L385.7 321.6L388.8 323.7L391.9 333.7L394.9 340.1L398 301.9L401.1 320L404.2 339.2L407.2 346L410.3 357L413.4 362.4L416.5 371.1L419.5 380.6L422.6 382.5L425.7 391.1L428.8 390L431.8 396.6L434.9 399L438 407L441.1 407.7L444.1 407.4L447.2 403.6L450.3 402.4L453.4 397.1L456.4 392.1L459.5 394.5L462.6 389.2L465.7 367L468.7 350.1L471.8 336.2L474.9 333.9L478 335.7L481 340L484.1 341.4L487.2 348.3L490.3 355.2L493.3 360.8L496.4 358L499.5 355.2L502.6 361L505.6 354.9L508.7 352L511.8 352.1L514.9 354L517.9 355.1L521 360.2L524.1 357.8L527.2 355.6L530.2 349.4L533.3 337.8L536.4 342.5L539.5 346.5L542.5 353.9L545.6 369.8L548.7 381.4L551.8 381.6L554.8 378.1L557.9 381.9L561 385.4L564.1 384.6L567.1 393.1L570.2 400.1L573.3 402.9L576.3 406.5L579.4 401.8L582.5 400L585.6 403.5L588.6 404.2L591.7 405.3L594.8 401.7L597.9 395.1L600.9 390.2L604 386.7L607.1 376.7L610.2 372.4L613.2 362.7L616.3 364.8L619.4 367.7L622.5 375.3L625.5 383.2L628.6 395.4L631.7 406L634.8 411.8L637.8 412.6L640.9 413L644 409.2L647.1 407.5L650.1 400.6L653.2 395.3L656.3 392L659.4 390.7L662.4 384L665.5 382.2L668.6 380.1L671.7 378.5L674.7 374.4L677.8 381.5L680.9 380.7L684 379.2L687 379.1L690.1 379L690.11 535.3L29.072000000000003 535.3" fill="#34983f" fill-opacity="0.7"></path><path class="Sweden_0-area" stroke-linecap="round" d="M29.1 204.5L32.1 189.3L35.2 170L38.3 174.2L41.4 167.9L44.4 169.9L47.5 181.2L50.6 176.5L53.7 185.3L56.7 228.1L59.8 155.9L62.9 128.7L66 148.7L69 192.7L72.1 176L75.2 134.9L78.3 128.5L81.3 150.6L84.4 145.7L87.5 155.4L90.6 155.6L93.6 127.1L96.7 122.1L99.8 111.1L102.9 137.3L105.9 115L109 134.1L112.1 174.9L115.2 148.2L118.2 134L121.3 156.3L124.4 184.2L127.5 179.9L130.5 142.5L133.6 146.8L136.7 159.1L139.8 168.7L142.8 180.1L145.9 197L149 195.7L152.1 173.3L155.1 186L158.2 170.7L161.3 180.9L164.4 165L167.4 173.1L170.5 190.5L173.6 194.6L176.7 185.9L179.7 157L182.8 174.1L185.9 181.6L189 194L192 189.1L195.1 167.8L198.2 186.1L201.2 191.9L204.3 181.2L207.4 157L210.5 152.6L213.5 152.7L216.6 174.9L219.7 162.8L222.8 157.4L225.8 154.6L228.9 163.7L232 155.1L235.1 178.3L238.1 215.9L241.2 207.8L244.3 201.2L247.4 180.1L250.4 182.8L253.5 170.5L256.6 166.4L259.7 161.5L262.7 164.1L265.8 160.3L268.9 174.5L272 165.3L275 181L278.1 187.1L281.2 184.5L284.3 190.8L287.3 178.3L290.4 183.1L293.5 178.8L296.6 180.9L299.6 190.8L302.7 202.4L305.8 198.5L308.9 199.5L311.9 216.2L315 212.5L318.1 215L321.2 210L324.2 212.3L327.3 217.1L330.4 211L333.5 219L336.5 210.4L339.6 210.2L342.7 217.9L345.8 228.6L348.8 229.3L351.9 231.3L355 232.1L358.1 235.2L361.1 234.6L364.2 235.8L367.3 246.8L370.4 255.5L373.4 260.1L376.5 269.8L379.6 275.3L382.7 291.3L385.7 297.1L388.8 301.8L391.9 309.5L394.9 316.9L398 276.2L401.1 299.6L404.2 321.7L407.2 330.6L410.3 340.8L413.4 348.4L416.5 357.9L419.5 367L422.6 369.1L425.7 379.3L428.8 378.7L431.8 385.5L434.9 389.3L438 398.3L441.1 399.3L444.1 399.2L447.2 395.2L450.3 393.8L453.4 388.8L456.4 384.2L459.5 387.2L462.6 381.6L465.7 360L468.7 342.4L471.8 327.1L474.9 325.4L478 328.6L481 333.4L484.1 335.5L487.2 342.7L490.3 350.2L493.3 356.2L496.4 353.6L499.5 350.9L502.6 357.1L505.6 351L508.7 348L511.8 348.2L514.9 350.2L517.9 351.5L521 356.7L524.1 354.3L527.2 352.2L530.2 346L533.3 334.3L536.4 339.4L539.5 343.6L542.5 351.2L545.6 367.4L548.7 379.2L551.8 379.5L554.8 376.1L557.9 380L561 383.6L564.1 383L567.1 391.6L570.2 398.7L573.3 401.6L576.3 405.4L579.4 400.7L582.5 398.9L585.6 402.4L588.6 403.2L591.7 404.2L594.8 400.7L597.9 394L600.9 389.1L604 385.6L607.1 375.6L610.2 371.3L613.2 361.5L616.3 363.7L619.4 366.6L622.5 374.4L625.5 382.4L628.6 394.7L631.7 405.4L634.8 411.2L637.8 412.1L640.9 412.5L644 408.7L647.1 407L650.1 400.1L653.2 394.7L656.3 391.5L659.4 390.2L662.4 383.5L665.5 381.7L668.6 379.6L671.7 378L674.7 373.9L677.8 381L680.9 380.2L684 378.7L687 378.7L690.1 378.5L690.1 379L687 379.1L684 379.2L680.9 380.7L677.8 381.5L674.7 374.4L671.7 378.5L668.6 380.1L665.5 382.2L662.4 384L659.4 390.7L656.3 392L653.2 395.3L650.1 400.6L647.1 407.5L644 409.2L640.9 413L637.8 412.6L634.8 411.8L631.7 406L628.6 395.4L625.5 383.2L622.5 375.3L619.4 367.7L616.3 364.8L613.2 362.7L610.2 372.4L607.1 376.7L604 386.7L600.9 390.2L597.9 395.1L594.8 401.7L591.7 405.3L588.6 404.2L585.6 403.5L582.5 400L579.4 401.8L576.3 406.5L573.3 402.9L570.2 400.1L567.1 393.1L564.1 384.6L561 385.4L557.9 381.9L554.8 378.1L551.8 381.6L548.7 381.4L545.6 369.8L542.5 353.9L539.5 346.5L536.4 342.5L533.3 337.8L530.2 349.4L527.2 355.6L524.1 357.8L521 360.2L517.9 355.1L514.9 354L511.8 352.1L508.7 352L505.6 354.9L502.6 361L499.5 355.2L496.4 358L493.3 360.8L490.3 355.2L487.2 348.3L484.1 341.4L481 340L478 335.7L474.9 333.9L471.8 336.2L468.7 350.1L465.7 367L462.6 389.2L459.5 394.5L456.4 392.1L453.4 397.1L450.3 402.4L447.2 403.6L444.1 407.4L441.1 407.7L438 407L434.9 399L431.8 396.6L428.8 390L425.7 391.1L422.6 382.5L419.5 380.6L416.5 371.1L413.4 362.4L410.3 357L407.2 346L404.2 339.2L401.1 320L398 301.9L394.9 340.1L391.9 333.7L388.8 323.7L385.7 321.6L382.7 317.2L379.6 301.8L376.5 295.8L373.4 288.7L370.4 284.7L367.3 278L364.2 266.8L361.1 271.3L358.1 268.8L355 267.8L351.9 271.4L348.8 268.2L345.8 271.1L342.7 260.9L339.6 261.2L336.5 260.8L333.5 273.3L330.4 256.6L327.3 264.3L324.2 262.7L321.2 257.8L318.1 266.7L315 266.4L311.9 270.8L308.9 259.6L305.8 258.3L302.7 256.4L299.6 246.2L296.6 242.4L293.5 244.2L290.4 251.8L287.3 247L284.3 258.8L281.2 257L278.1 255L275 253.3L272 238.2L268.9 256.4L265.8 245.7L262.7 252.2L259.7 248.4L256.6 251.2L253.5 242.5L250.4 248.7L247.4 245.3L244.3 274.9L241.2 296.6L238.1 295.6L235.1 253.5L232 239.4L228.9 250.3L225.8 244.2L222.8 246.9L219.7 261.7L216.6 253.1L213.5 227.9L210.5 241.4L207.4 250.8L204.3 290.9L201.2 276.3L198.2 265.1L195.1 248.5L192 278.2L189 279.5L185.9 263.7L182.8 252.8L179.7 242.9L176.7 260.1L173.6 286.6L170.5 276.6L167.4 250.9L164.4 248.7L161.3 263.3L158.2 259.1L155.1 263.1L152.1 253.2L149 281.2L145.9 282.8L142.8 279.4L139.8 251.1L136.7 234.3L133.6 244.9L130.5 238.5L127.5 270.9L124.4 281.1L121.3 252.9L118.2 255.6L115.2 257.4L112.1 256.4L109 231.3L105.9 210.8L102.9 226.7L99.8 203.4L96.7 223.4L93.6 251.6L90.6 254.6L87.5 267L84.4 250.8L81.3 256.8L78.3 239.8L75.2 244.9L72.1 283.6L69 296.7L66 269.4L62.9 260.7L59.8 287.1L56.7 340.5L53.7 307.6L50.6 276.3L47.5 299L44.4 267.1L41.4 267.7L38.3 273.6L35.2 273.4L32.1 303.1L29.1 330.6" fill="#db2445" fill-opacity="0.7"></path><path class="Sweden_1-border" stroke-linecap="round" d="M29.1 330.6L32.1 303.1L35.2 273.4L38.3 273.6L41.4 267.7L44.4 267.1L47.5 299L50.6 276.3L53.7 307.6L56.7 340.5L59.8 287.1L62.9 260.7L66 269.4L69 296.7L72.1 283.6L75.2 244.9L78.3 239.8L81.3 256.8L84.4 250.8L87.5 267L90.6 254.6L93.6 251.6L96.7 223.4L99.8 203.4L102.9 226.7L105.9 210.8L109 231.3L112.1 256.4L115.2 257.4L118.2 255.6L121.3 252.9L124.4 281.1L127.5 270.9L130.5 238.5L133.6 244.9L136.7 234.3L139.8 251.1L142.8 279.4L145.9 282.8L149 281.2L152.1 253.2L155.1 263.1L158.2 259.1L161.3 263.3L164.4 248.7L167.4 250.9L170.5 276.6L173.6 286.6L176.7 260.1L179.7 242.9L182.8 252.8L185.9 263.7L189 279.5L192 278.2L195.1 248.5L198.2 265.1L201.2 276.3L204.3 290.9L207.4 250.8L210.5 241.4L213.5 227.9L216.6 253.1L219.7 261.7L222.8 246.9L225.8 244.2L228.9 250.3L232 239.4L235.1 253.5L238.1 295.6L241.2 296.6L244.3 274.9L247.4 245.3L250.4 248.7L253.5 242.5L256.6 251.2L259.7 248.4L262.7 252.2L265.8 245.7L268.9 256.4L272 238.2L275 253.3L278.1 255L281.2 257L284.3 258.8L287.3 247L290.4 251.8L293.5 244.2L296.6 242.4L299.6 246.2L302.7 256.4L305.8 258.3L308.9 259.6L311.9 270.8L315 266.4L318.1 266.7L321.2 257.8L324.2 262.7L327.3 264.3L330.4 256.6L333.5 273.3L336.5 260.8L339.6 261.2L342.7 260.9L345.8 271.1L348.8 268.2L351.9 271.4L355 267.8L358.1 268.8L361.1 271.3L364.2 266.8L367.3 278L370.4 284.7L373.4 288.7L376.5 295.8L379.6 301.8L382.7 317.2L385.7 321.6L388.8 323.7L391.9 333.7L394.9 340.1L398 301.9L401.1 320L404.2 339.2L407.2 346L410.3 357L413.4 362.4L416.5 371.1L419.5 380.6L422.6 382.5L425.7 391.1L428.8 390L431.8 396.6L434.9 399L438 407L441.1 407.7L444.1 407.4L447.2 403.6L450.3 402.4L453.4 397.1L456.4 392.1L459.5 394.5L462.6 389.2L465.7 367L468.7 350.1L471.8 336.2L474.9 333.9L478 335.7L481 340L484.1 341.4L487.2 348.3L490.3 355.2L493.3 360.8L496.4 358L499.5 355.2L502.6 361L505.6 354.9L508.7 352L511.8 352.1L514.9 354L517.9 355.1L521 360.2L524.1 357.8L527.2 355.6L530.2 349.4L533.3 337.8L536.4 342.5L539.5 346.5L542.5 353.9L545.6 369.8L548.7 381.4L551.8 381.6L554.8 378.1L557.9 381.9L561 385.4L564.1 384.6L567.1 393.1L570.2 400.1L573.3 402.9L576.3 406.5L579.4 401.8L582.5 400L585.6 403.5L588.6 404.2L591.7 405.3L594.8 401.7L597.9 395.1L600.9 390.2L604 386.7L607.1 376.7L610.2 372.4L613.2 362.7L616.3 364.8L619.4 367.7L622.5 375.3L625.5 383.2L628.6 395.4L631.7 406L634.8 411.8L637.8 412.6L640.9 413L644 409.2L647.1 407.5L650.1 400.6L653.2 395.3L656.3 392L659.4 390.7L662.4 384L665.5 382.2L668.6 380.1L671.7 378.5L674.7 374.4L677.8 381.5L680.9 380.7L684 379.2L687 379.1L690.1 379" stroke="rgb(44, 127, 53)" stroke-opacity="0.7" stroke-width="0.5" fill="none"></path><path class="Sweden_0-border" stroke-linecap="round" d="M29.1 204.5L32.1 189.3L35.2 170L38.3 174.2L41.4 167.9L44.4 169.9L47.5 181.2L50.6 176.5L53.7 185.3L56.7 228.1L59.8 155.9L62.9 128.7L66 148.7L69 192.7L72.1 176L75.2 134.9L78.3 128.5L81.3 150.6L84.4 145.7L87.5 155.4L90.6 155.6L93.6 127.1L96.7 122.1L99.8 111.1L102.9 137.3L105.9 115L109 134.1L112.1 174.9L115.2 148.2L118.2 134L121.3 156.3L124.4 184.2L127.5 179.9L130.5 142.5L133.6 146.8L136.7 159.1L139.8 168.7L142.8 180.1L145.9 197L149 195.7L152.1 173.3L155.1 186L158.2 170.7L161.3 180.9L164.4 165L167.4 173.1L170.5 190.5L173.6 194.6L176.7 185.9L179.7 157L182.8 174.1L185.9 181.6L189 194L192 189.1L195.1 167.8L198.2 186.1L201.2 191.9L204.3 181.2L207.4 157L210.5 152.6L213.5 152.7L216.6 174.9L219.7 162.8L222.8 157.4L225.8 154.6L228.9 163.7L232 155.1L235.1 178.3L238.1 215.9L241.2 207.8L244.3 201.2L247.4 180.1L250.4 182.8L253.5 170.5L256.6 166.4L259.7 161.5L262.7 164.1L265.8 160.3L268.9 174.5L272 165.3L275 181L278.1 187.1L281.2 184.5L284.3 190.8L287.3 178.3L290.4 183.1L293.5 178.8L296.6 180.9L299.6 190.8L302.7 202.4L305.8 198.5L308.9 199.5L311.9 216.2L315 212.5L318.1 215L321.2 210L324.2 212.3L327.3 217.1L330.4 211L333.5 219L336.5 210.4L339.6 210.2L342.7 217.9L345.8 228.6L348.8 229.3L351.9 231.3L355 232.1L358.1 235.2L361.1 234.6L364.2 235.8L367.3 246.8L370.4 255.5L373.4 260.1L376.5 269.8L379.6 275.3L382.7 291.3L385.7 297.1L388.8 301.8L391.9 309.5L394.9 316.9L398 276.2L401.1 299.6L404.2 321.7L407.2 330.6L410.3 340.8L413.4 348.4L416.5 357.9L419.5 367L422.6 369.1L425.7 379.3L428.8 378.7L431.8 385.5L434.9 389.3L438 398.3L441.1 399.3L444.1 399.2L447.2 395.2L450.3 393.8L453.4 388.8L456.4 384.2L459.5 387.2L462.6 381.6L465.7 360L468.7 342.4L471.8 327.1L474.9 325.4L478 328.6L481 333.4L484.1 335.5L487.2 342.7L490.3 350.2L493.3 356.2L496.4 353.6L499.5 350.9L502.6 357.1L505.6 351L508.7 348L511.8 348.2L514.9 350.2L517.9 351.5L521 356.7L524.1 354.3L527.2 352.2L530.2 346L533.3 334.3L536.4 339.4L539.5 343.6L542.5 351.2L545.6 367.4L548.7 379.2L551.8 379.5L554.8 376.1L557.9 380L561 383.6L564.1 383L567.1 391.6L570.2 398.7L573.3 401.6L576.3 405.4L579.4 400.7L582.5 398.9L585.6 402.4L588.6 403.2L591.7 404.2L594.8 400.7L597.9 394L600.9 389.1L604 385.6L607.1 375.6L610.2 371.3L613.2 361.5L616.3 363.7L619.4 366.6L622.5 374.4L625.5 382.4L628.6 394.7L631.7 405.4L634.8 411.2L637.8 412.1L640.9 412.5L644 408.7L647.1 407L650.1 400.1L653.2 394.7L656.3 391.5L659.4 390.2L662.4 383.5L665.5 381.7L668.6 379.6L671.7 378L674.7 373.9L677.8 381L680.9 380.2L684 378.7L687 378.7L690.1 378.5" stroke="rgb(183, 30, 58)" stroke-opacity="0.7" stroke-width="0.5" fill="none"></path></g></g></g><g class="SourcesFooter" style="fill:#777"><g class="clickable" style="fill:#777"><text font-size="12.60" x="15.0" y="581.6"><tspan x="15" y="581.58">Source: OWID calculations based on Gapminder data</tspan></text></g><text font-size="12.60" x="564.2" y="581.6"><tspan x="564.226" y="581.58"><a target='_blank' style='fill: #777;' href='https://ourworldindata.org/child-mortality/'>OurWorldInData.org/child-mortality/</a> • <a style="fill: #777;" class="cclogo" href="http://creativecommons.org/licenses/by-sa/4.0/deed.en_US" target="_blank">CC BY-SA</a></tspan></text></g></g></svg>