<svg xmlns="http://www.w3.org/2000/svg" version="1.1" style="font-family:Lato, &#x27;Helvetica Neue&#x27;, Helvetica, Arial, sans-serif;font-size:18px;background-color:white;text-rendering:optimizeLegibility;-webkit-font-smoothing:antialiased" width="850" height="600"><g class="HeaderView"><g transform="translate(774, 15) scale(0.29)"><svg width="210" height="120" viewBox="0 0 210 120" fill="none" xmlns="http://www.w3.org/2000/svg">
    <g clip-path="url(#clip0)">
        <path d="M0 0H210V107.89H0V0Z" fill="#002147"/>
        <path d="M40.9788 32.248C40.9788 34.6093 40.6048 36.78 39.8568 38.76C39.1088 40.7253 38.0528 42.4193 36.6888 43.842C35.3248 45.2647 33.6821 46.372 31.7608 47.164C29.8541 47.9413 27.7421 48.33 25.4248 48.33C23.1074 48.33 20.9954 47.9413 19.0888 47.164C17.1821 46.372 15.5468 45.2647 14.1828 43.842C12.8188 42.4193 11.7628 40.7253 11.0148 38.76C10.2668 36.78 9.89277 34.6093 9.89277 32.248C9.89277 29.8867 10.2668 27.7233 11.0148 25.758C11.7628 23.778 12.8188 22.0767 14.1828 20.654C15.5468 19.2167 17.1821 18.102 19.0888 17.31C20.9954 16.518 23.1074 16.122 25.4248 16.122C27.7421 16.122 29.8541 16.518 31.7608 17.31C33.6821 18.102 35.3248 19.2167 36.6888 20.654C38.0528 22.0767 39.1088 23.778 39.8568 25.758C40.6048 27.7233 40.9788 29.8867 40.9788 32.248ZM36.6008 32.248C36.6008 30.312 36.3368 28.574 35.8088 27.034C35.2808 25.494 34.5328 24.196 33.5648 23.14C32.5968 22.0693 31.4234 21.248 30.0448 20.676C28.6661 20.104 27.1261 19.818 25.4248 19.818C23.7381 19.818 22.2054 20.104 20.8268 20.676C19.4481 21.248 18.2674 22.0693 17.2848 23.14C16.3168 24.196 15.5688 25.494 15.0408 27.034C14.5128 28.574 14.2488 30.312 14.2488 32.248C14.2488 34.184 14.5128 35.922 15.0408 37.462C15.5688 38.9873 16.3168 40.2853 17.2848 41.356C18.2674 42.412 19.4481 43.226 20.8268 43.798C22.2054 44.3553 23.7381 44.634 25.4248 44.634C27.1261 44.634 28.6661 44.3553 30.0448 43.798C31.4234 43.226 32.5968 42.412 33.5648 41.356C34.5328 40.2853 35.2808 38.9873 35.8088 37.462C36.3368 35.922 36.6008 34.184 36.6008 32.248ZM62.8234 25.714V48H60.4914C59.9341 48 59.5821 47.7287 59.4354 47.186L59.1274 44.788C58.1594 45.8587 57.0741 46.724 55.8714 47.384C54.6687 48.0293 53.2901 48.352 51.7354 48.352C50.5181 48.352 49.4401 48.154 48.5014 47.758C47.5774 47.3473 46.8001 46.7753 46.1694 46.042C45.5387 45.3087 45.0621 44.4213 44.7394 43.38C44.4314 42.3387 44.2774 41.1873 44.2774 39.926V25.714H48.1934V39.926C48.1934 41.6127 48.5747 42.918 49.3374 43.842C50.1147 44.766 51.2954 45.228 52.8794 45.228C54.0381 45.228 55.1161 44.9567 56.1134 44.414C57.1254 43.8567 58.0567 43.094 58.9074 42.126V25.714H62.8234ZM71.4305 30.18C72.1346 28.6547 72.9999 27.4667 74.0266 26.616C75.0532 25.7507 76.3072 25.318 77.7886 25.318C78.2579 25.318 78.7052 25.3693 79.1306 25.472C79.5706 25.5747 79.9592 25.736 80.2966 25.956L80.0106 28.882C79.9226 29.2487 79.7026 29.432 79.3506 29.432C79.1452 29.432 78.8446 29.388 78.4486 29.3C78.0526 29.212 77.6052 29.168 77.1066 29.168C76.4026 29.168 75.7719 29.2707 75.2146 29.476C74.6719 29.6813 74.1806 29.9893 73.7406 30.4C73.3152 30.796 72.9266 31.2947 72.5746 31.896C72.2372 32.4827 71.9292 33.1573 71.6506 33.92V48H67.7125V25.714H69.9566C70.3819 25.714 70.6752 25.7947 70.8366 25.956C70.9979 26.1173 71.1079 26.396 71.1666 26.792L71.4305 30.18ZM132.589 16.474L122.755 48H118.927L110.941 23.954C110.867 23.7193 110.794 23.47 110.721 23.206C110.662 22.942 110.596 22.6633 110.523 22.37C110.449 22.6633 110.376 22.942 110.303 23.206C110.23 23.47 110.156 23.7193 110.083 23.954L102.053 48H98.2248L88.3908 16.474H91.9328C92.3142 16.474 92.6295 16.5693 92.8788 16.76C93.1428 16.9507 93.3115 17.1927 93.3848 17.486L99.8968 39.398C99.9995 39.794 100.095 40.2193 100.183 40.674C100.285 41.1287 100.381 41.6127 100.469 42.126C100.571 41.6127 100.674 41.1287 100.777 40.674C100.894 40.2047 101.019 39.7793 101.151 39.398L108.565 17.486C108.653 17.2367 108.821 17.0093 109.071 16.804C109.335 16.584 109.65 16.474 110.017 16.474H111.249C111.63 16.474 111.938 16.5693 112.173 16.76C112.407 16.9507 112.583 17.1927 112.701 17.486L120.093 39.398C120.225 39.7793 120.342 40.19 120.445 40.63C120.562 41.07 120.672 41.532 120.775 42.016C120.848 41.532 120.929 41.07 121.017 40.63C121.105 40.19 121.2 39.7793 121.303 39.398L127.837 17.486C127.91 17.222 128.072 16.9873 128.321 16.782C128.585 16.5767 128.9 16.474 129.267 16.474H132.589ZM141.94 25.362C143.568 25.362 145.034 25.6333 146.34 26.176C147.645 26.7187 148.76 27.4887 149.684 28.486C150.608 29.4833 151.312 30.6933 151.796 32.116C152.294 33.524 152.544 35.1007 152.544 36.846C152.544 38.606 152.294 40.19 151.796 41.598C151.312 43.006 150.608 44.2087 149.684 45.206C148.76 46.2033 147.645 46.9733 146.34 47.516C145.034 48.044 143.568 48.308 141.94 48.308C140.297 48.308 138.816 48.044 137.496 47.516C136.19 46.9733 135.076 46.2033 134.152 45.206C133.228 44.2087 132.516 43.006 132.018 41.598C131.534 40.19 131.292 38.606 131.292 36.846C131.292 35.1007 131.534 33.524 132.018 32.116C132.516 30.6933 133.228 29.4833 134.152 28.486C135.076 27.4887 136.19 26.7187 137.496 26.176C138.816 25.6333 140.297 25.362 141.94 25.362ZM141.94 45.25C144.14 45.25 145.782 44.5167 146.868 43.05C147.953 41.5687 148.496 39.508 148.496 36.868C148.496 34.2133 147.953 32.1453 146.868 30.664C145.782 29.1827 144.14 28.442 141.94 28.442C140.825 28.442 139.85 28.6327 139.014 29.014C138.192 29.3953 137.503 29.9453 136.946 30.664C136.403 31.3827 135.992 32.27 135.714 33.326C135.45 34.3673 135.318 35.548 135.318 36.868C135.318 39.508 135.86 41.5687 136.946 43.05C138.046 44.5167 139.71 45.25 141.94 45.25ZM159.908 30.18C160.612 28.6547 161.478 27.4667 162.504 26.616C163.531 25.7507 164.785 25.318 166.266 25.318C166.736 25.318 167.183 25.3693 167.608 25.472C168.048 25.5747 168.437 25.736 168.774 25.956L168.488 28.882C168.4 29.2487 168.18 29.432 167.828 29.432C167.623 29.432 167.322 29.388 166.926 29.3C166.53 29.212 166.083 29.168 165.584 29.168C164.88 29.168 164.25 29.2707 163.692 29.476C163.15 29.6813 162.658 29.9893 162.218 30.4C161.793 30.796 161.404 31.2947 161.052 31.896C160.715 32.4827 160.407 33.1573 160.128 33.92V48H156.19V25.714H158.434C158.86 25.714 159.153 25.7947 159.314 25.956C159.476 26.1173 159.586 26.396 159.644 26.792L159.908 30.18ZM174.946 15.594V48H171.03V15.594H174.946ZM194.496 31.016C193.763 30.0333 192.971 29.3513 192.12 28.97C191.269 28.574 190.316 28.376 189.26 28.376C187.192 28.376 185.601 29.1167 184.486 30.598C183.371 32.0793 182.814 34.1913 182.814 36.934C182.814 38.386 182.939 39.6327 183.188 40.674C183.437 41.7007 183.804 42.5513 184.288 43.226C184.772 43.886 185.366 44.37 186.07 44.678C186.774 44.986 187.573 45.14 188.468 45.14C189.759 45.14 190.881 44.8467 191.834 44.26C192.802 43.6733 193.689 42.8447 194.496 41.774V31.016ZM198.412 15.594V48H196.08C195.523 48 195.171 47.7287 195.024 47.186L194.672 44.48C193.719 45.624 192.633 46.548 191.416 47.252C190.199 47.956 188.791 48.308 187.192 48.308C185.916 48.308 184.757 48.066 183.716 47.582C182.675 47.0833 181.787 46.3573 181.054 45.404C180.321 44.4507 179.756 43.2627 179.36 41.84C178.964 40.4173 178.766 38.782 178.766 36.934C178.766 35.2913 178.986 33.766 179.426 32.358C179.866 30.9353 180.497 29.7033 181.318 28.662C182.139 27.6207 183.144 26.8067 184.332 26.22C185.535 25.6187 186.884 25.318 188.38 25.318C189.744 25.318 190.91 25.5527 191.878 26.022C192.861 26.4767 193.733 27.1147 194.496 27.936V15.594H198.412ZM46.6139 70.714V93H42.6979V70.714H46.6139ZM47.4499 63.718C47.4499 64.0993 47.3692 64.4587 47.2079 64.796C47.0612 65.1187 46.8559 65.412 46.5919 65.676C46.3425 65.9253 46.0419 66.1233 45.6899 66.27C45.3525 66.4167 44.9932 66.49 44.6119 66.49C44.2305 66.49 43.8712 66.4167 43.5339 66.27C43.2112 66.1233 42.9252 65.9253 42.6759 65.676C42.4265 65.412 42.2285 65.1187 42.0819 64.796C41.9352 64.4587 41.8619 64.0993 41.8619 63.718C41.8619 63.3367 41.9352 62.9773 42.0819 62.64C42.2285 62.288 42.4265 61.9873 42.6759 61.738C42.9252 61.474 43.2112 61.2687 43.5339 61.122C43.8712 60.9753 44.2305 60.902 44.6119 60.902C44.9932 60.902 45.3525 60.9753 45.6899 61.122C46.0419 61.2687 46.3425 61.474 46.5919 61.738C46.8559 61.9873 47.0612 62.288 47.2079 62.64C47.3692 62.9773 47.4499 63.3367 47.4499 63.718ZM55.4242 73.948C55.9082 73.4053 56.4215 72.914 56.9642 72.474C57.5068 72.034 58.0788 71.66 58.6802 71.352C59.2962 71.0293 59.9415 70.7873 60.6162 70.626C61.3055 70.45 62.0462 70.362 62.8382 70.362C64.0555 70.362 65.1262 70.5673 66.0502 70.978C66.9888 71.374 67.7662 71.946 68.3822 72.694C69.0128 73.4273 69.4895 74.3147 69.8122 75.356C70.1348 76.3973 70.2962 77.5487 70.2962 78.81V93H66.3582V78.81C66.3582 77.1233 65.9695 75.818 65.1922 74.894C64.4295 73.9553 63.2635 73.486 61.6942 73.486C60.5355 73.486 59.4502 73.7647 58.4382 74.322C57.4408 74.8793 56.5168 75.6347 55.6662 76.588V93H51.7282V70.714H54.0822C54.6395 70.714 54.9842 70.9853 55.1162 71.528L55.4242 73.948ZM113.129 77.248C113.129 79.6093 112.755 81.758 112.007 83.694C111.259 85.63 110.203 87.2873 108.839 88.666C107.475 90.0447 105.832 91.1153 103.911 91.878C102.004 92.626 99.8925 93 97.5751 93H85.8051V61.474H97.5751C99.8925 61.474 102.004 61.8553 103.911 62.618C105.832 63.366 107.475 64.4367 108.839 65.83C110.203 67.2087 111.259 68.866 112.007 70.802C112.755 72.738 113.129 74.8867 113.129 77.248ZM108.751 77.248C108.751 75.312 108.487 73.5813 107.959 72.056C107.431 70.5307 106.683 69.24 105.715 68.184C104.747 67.128 103.574 66.3213 102.195 65.764C100.816 65.2067 99.2765 64.928 97.5751 64.928H90.0731V89.546H97.5751C99.2765 89.546 100.816 89.2673 102.195 88.71C103.574 88.1527 104.747 87.3533 105.715 86.312C106.683 85.256 107.431 83.9653 107.959 82.44C108.487 80.9147 108.751 79.184 108.751 77.248ZM128.553 82.968C126.749 83.0267 125.209 83.1733 123.933 83.408C122.672 83.628 121.638 83.9213 120.831 84.288C120.039 84.6547 119.46 85.0873 119.093 85.586C118.741 86.0847 118.565 86.642 118.565 87.258C118.565 87.8447 118.661 88.3507 118.851 88.776C119.042 89.2013 119.299 89.5533 119.621 89.832C119.959 90.096 120.347 90.294 120.787 90.426C121.242 90.5433 121.726 90.602 122.239 90.602C122.929 90.602 123.559 90.536 124.131 90.404C124.703 90.2573 125.239 90.052 125.737 89.788C126.251 89.524 126.735 89.2087 127.189 88.842C127.659 88.4753 128.113 88.0573 128.553 87.588V82.968ZM115.903 73.86C117.135 72.672 118.463 71.7847 119.885 71.198C121.308 70.6113 122.885 70.318 124.615 70.318C125.862 70.318 126.969 70.5233 127.937 70.934C128.905 71.3447 129.719 71.9167 130.379 72.65C131.039 73.3833 131.538 74.2707 131.875 75.312C132.213 76.3533 132.381 77.4973 132.381 78.744V93H130.643C130.262 93 129.969 92.9413 129.763 92.824C129.558 92.692 129.397 92.4427 129.279 92.076L128.839 89.964C128.253 90.5067 127.681 90.9907 127.123 91.416C126.566 91.8267 125.979 92.1787 125.363 92.472C124.747 92.7507 124.087 92.9633 123.383 93.11C122.694 93.2713 121.924 93.352 121.073 93.352C120.208 93.352 119.394 93.2347 118.631 93C117.869 92.7507 117.201 92.384 116.629 91.9C116.072 91.416 115.625 90.8073 115.287 90.074C114.965 89.326 114.803 88.446 114.803 87.434C114.803 86.554 115.045 85.7107 115.529 84.904C116.013 84.0827 116.798 83.3567 117.883 82.726C118.969 82.0953 120.384 81.582 122.129 81.186C123.875 80.7753 126.016 80.5407 128.553 80.482V78.744C128.553 77.0133 128.179 75.708 127.431 74.828C126.683 73.9333 125.591 73.486 124.153 73.486C123.185 73.486 122.371 73.6107 121.711 73.86C121.066 74.0947 120.501 74.366 120.017 74.674C119.548 74.9673 119.137 75.2387 118.785 75.488C118.448 75.7227 118.111 75.84 117.773 75.84C117.509 75.84 117.282 75.774 117.091 75.642C116.901 75.4953 116.739 75.3193 116.607 75.114L115.903 73.86ZM143.568 93.352C141.808 93.352 140.451 92.8607 139.498 91.878C138.559 90.8953 138.09 89.48 138.09 87.632V73.992H135.406C135.171 73.992 134.973 73.926 134.812 73.794C134.65 73.6473 134.57 73.4273 134.57 73.134V71.572L138.222 71.11L139.124 64.224C139.168 64.004 139.263 63.828 139.41 63.696C139.571 63.5493 139.776 63.476 140.026 63.476H142.006V71.154H148.452V73.992H142.006V87.368C142.006 88.3067 142.233 89.0033 142.688 89.458C143.142 89.9127 143.729 90.14 144.448 90.14C144.858 90.14 145.21 90.0887 145.504 89.986C145.812 89.8687 146.076 89.744 146.296 89.612C146.516 89.48 146.699 89.3627 146.846 89.26C147.007 89.1427 147.146 89.084 147.264 89.084C147.469 89.084 147.652 89.2087 147.814 89.458L148.958 91.328C148.283 91.9587 147.469 92.4573 146.516 92.824C145.562 93.176 144.58 93.352 143.568 93.352ZM163.253 82.968C161.449 83.0267 159.909 83.1733 158.633 83.408C157.372 83.628 156.338 83.9213 155.531 84.288C154.739 84.6547 154.16 85.0873 153.793 85.586C153.441 86.0847 153.265 86.642 153.265 87.258C153.265 87.8447 153.36 88.3507 153.551 88.776C153.742 89.2013 153.998 89.5533 154.321 89.832C154.658 90.096 155.047 90.294 155.487 90.426C155.942 90.5433 156.426 90.602 156.939 90.602C157.628 90.602 158.259 90.536 158.831 90.404C159.403 90.2573 159.938 90.052 160.437 89.788C160.95 89.524 161.434 89.2087 161.889 88.842C162.358 88.4753 162.813 88.0573 163.253 87.588V82.968ZM150.603 73.86C151.835 72.672 153.162 71.7847 154.585 71.198C156.008 70.6113 157.584 70.318 159.315 70.318C160.562 70.318 161.669 70.5233 162.637 70.934C163.605 71.3447 164.419 71.9167 165.079 72.65C165.739 73.3833 166.238 74.2707 166.575 75.312C166.912 76.3533 167.081 77.4973 167.081 78.744V93H165.343C164.962 93 164.668 92.9413 164.463 92.824C164.258 92.692 164.096 92.4427 163.979 92.076L163.539 89.964C162.952 90.5067 162.38 90.9907 161.823 91.416C161.266 91.8267 160.679 92.1787 160.063 92.472C159.447 92.7507 158.787 92.9633 158.083 93.11C157.394 93.2713 156.624 93.352 155.773 93.352C154.908 93.352 154.094 93.2347 153.331 93C152.568 92.7507 151.901 92.384 151.329 91.9C150.772 91.416 150.324 90.8073 149.987 90.074C149.664 89.326 149.503 88.446 149.503 87.434C149.503 86.554 149.745 85.7107 150.229 84.904C150.713 84.0827 151.498 83.3567 152.583 82.726C153.668 82.0953 155.084 81.582 156.829 81.186C158.574 80.7753 160.716 80.5407 163.253 80.482V78.744C163.253 77.0133 162.879 75.708 162.131 74.828C161.383 73.9333 160.29 73.486 158.853 73.486C157.885 73.486 157.071 73.6107 156.411 73.86C155.766 74.0947 155.201 74.366 154.717 74.674C154.248 74.9673 153.837 75.2387 153.485 75.488C153.148 75.7227 152.81 75.84 152.473 75.84C152.209 75.84 151.982 75.774 151.791 75.642C151.6 75.4953 151.439 75.3193 151.307 75.114L150.603 73.86Z" fill="white"/>
        <rect y="106.789" width="210" height="13.211" fill="#D42B21"/>
    </g>
    <defs>
        <clipPath id="clip0">
            <rect width="210" height="120" fill="white"/>
        </clipPath>
    </defs>
</svg></g><a href="https://ourworldindata.org/grapher/co2-mitigation-15c" style="font-family:&quot;Playfair Display&quot;, Georgia, &quot;Times New Roman&quot;, serif" target="_blank"><text font-size="23.40" x="15.0" y="33.7" fill="#555"><tspan x="15" y="33.72">CO₂ reductions needed to keep global temperature rise below 1.5°C</tspan></text></a><text font-size="14.40" x="15.0" y="53.9" fill="#666"><tspan x="15" y="53.919999999999995">Annual emissions of carbon dioxide under various mitigation scenarios to keep global average temperature rise</tspan><tspan x="15" y="69.75999999999999">below 1.5°C. Scenarios are based on the CO₂ reductions necessary if mitigation had started – with global</tspan><tspan x="15" y="85.6">emissions peaking and quickly reducing – in the given year. </tspan></text></g><g class="LineChart"><defs><clipPath id="boundsClip-640"><rect x="83.224" y="0" width="830" height="840.8"></rect></clipPath></defs><g class="AxisBoxView"><g class="HorizontalAxis"><text x="93.2" y="528.2" fill="#666" text-anchor="middle" font-size="16.2">1986</text><text x="170.6" y="528.2" fill="#666" text-anchor="middle" font-size="16.2">2000</text><text x="281.1" y="528.2" fill="#666" text-anchor="middle" font-size="16.2">2020</text><text x="391.6" y="528.2" fill="#666" text-anchor="middle" font-size="16.2">2040</text><text x="502.1" y="528.2" fill="#666" text-anchor="middle" font-size="16.2">2060</text><text x="612.6" y="528.2" fill="#666" text-anchor="middle" font-size="16.2">2080</text><text x="723" y="528.2" fill="#666" text-anchor="middle" font-size="16.2">2100</text></g><g class="VerticalAxis"><text x="88.22" y="507" fill="#666" dominant-baseline="middle" text-anchor="end" font-size="16.2">0 t</text><text x="88.22" y="459.7" fill="#666" dominant-baseline="middle" text-anchor="end" font-size="16.2">5 billion t</text><text x="88.22" y="412.5" fill="#666" dominant-baseline="middle" text-anchor="end" font-size="16.2">10 billion t</text><text x="88.22" y="365.2" fill="#666" dominant-baseline="middle" text-anchor="end" font-size="16.2">15 billion t</text><text x="88.22" y="317.9" fill="#666" dominant-baseline="middle" text-anchor="end" font-size="16.2">20 billion t</text><text x="88.22" y="270.7" fill="#666" dominant-baseline="middle" text-anchor="end" font-size="16.2">25 billion t</text><text x="88.22" y="223.4" fill="#666" dominant-baseline="middle" text-anchor="end" font-size="16.2">30 billion t</text><text x="88.22" y="176.2" fill="#666" dominant-baseline="middle" text-anchor="end" font-size="16.2">35 billion t</text><text x="88.22" y="128.9" fill="#666" dominant-baseline="middle" text-anchor="end" font-size="16.2">40 billion t</text></g><g class="AxisGridLines"><line x1="93.22" y1="507" x2="723.05" y2="507" stroke="#ccc"></line><line x1="93.22" y1="459.7" x2="723.05" y2="459.7" stroke="#ddd" stroke-dasharray="3,2"></line><line x1="93.22" y1="412.5" x2="723.05" y2="412.5" stroke="#ddd" stroke-dasharray="3,2"></line><line x1="93.22" y1="365.2" x2="723.05" y2="365.2" stroke="#ddd" stroke-dasharray="3,2"></line><line x1="93.22" y1="317.9" x2="723.05" y2="317.9" stroke="#ddd" stroke-dasharray="3,2"></line><line x1="93.22" y1="270.7" x2="723.05" y2="270.7" stroke="#ddd" stroke-dasharray="3,2"></line><line x1="93.22" y1="223.4" x2="723.05" y2="223.4" stroke="#ddd" stroke-dasharray="3,2"></line><line x1="93.22" y1="176.2" x2="723.05" y2="176.2" stroke="#ddd" stroke-dasharray="3,2"></line><line x1="93.22" y1="128.9" x2="723.05" y2="128.9" stroke="#ddd" stroke-dasharray="3,2"></line></g></g><g clip-path="url(#boundsClip-640)"><g class="HeightedLegend" style="cursor:pointer"><g class="legendMark"><rect x="723.05" y="493.5" width="111.95" height="13.5" fill="#fff" opacity="0"></rect><text font-size="13.50" x="727.0" y="504.3" fill="#ddd"><tspan x="727.05" y="504.3">Start in 2001</tspan></text></g><g class="legendMark"><rect x="723.05" y="493.5" width="111.95" height="13.5" fill="#fff" opacity="0"></rect><text font-size="13.50" x="727.0" y="504.3" fill="#ddd"><tspan x="727.05" y="504.3">Start in 2002</tspan></text></g><g class="legendMark"><rect x="723.05" y="493.5" width="111.95" height="13.5" fill="#fff" opacity="0"></rect><text font-size="13.50" x="727.0" y="504.3" fill="#ddd"><tspan x="727.05" y="504.3">Start in 2003</tspan></text></g><g class="legendMark"><rect x="723.05" y="493.5" width="111.95" height="13.5" fill="#fff" opacity="0"></rect><text font-size="13.50" x="727.0" y="504.3" fill="#ddd"><tspan x="727.05" y="504.3">Start in 2004</tspan></text></g><g class="legendMark"><rect x="723.05" y="493.5" width="111.95" height="13.5" fill="#fff" opacity="0"></rect><text font-size="13.50" x="727.0" y="504.3" fill="#ddd"><tspan x="727.05" y="504.3">Start in 2005</tspan></text></g><g class="legendMark"><rect x="723.05" y="493.5" width="111.95" height="13.5" fill="#fff" opacity="0"></rect><text font-size="13.50" x="727.0" y="504.3" fill="#ddd"><tspan x="727.05" y="504.3">Start in 2007</tspan></text></g><g class="legendMark"><rect x="723.05" y="493.5" width="111.95" height="13.5" fill="#fff" opacity="0"></rect><text font-size="13.50" x="727.0" y="504.3" fill="#ddd"><tspan x="727.05" y="504.3">Start in 2006</tspan></text></g><g class="legendMark"><rect x="723.05" y="493.5" width="111.95" height="13.5" fill="#fff" opacity="0"></rect><text font-size="13.50" x="727.0" y="504.3" fill="#ddd"><tspan x="727.05" y="504.3">Start in 2008</tspan></text></g><g class="legendMark"><rect x="723.05" y="493.5" width="111.95" height="13.5" fill="#fff" opacity="0"></rect><text font-size="13.50" x="727.0" y="504.3" fill="#ddd"><tspan x="727.05" y="504.3">Start in 2009</tspan></text></g><g class="legendMark"><rect x="723.05" y="493.5" width="111.95" height="13.5" fill="#fff" opacity="0"></rect><text font-size="13.50" x="727.0" y="504.3" fill="#ddd"><tspan x="727.05" y="504.3">Start in 2011</tspan></text></g><g class="legendMark"><rect x="723.05" y="493.5" width="111.95" height="13.5" fill="#fff" opacity="0"></rect><text font-size="13.50" x="727.0" y="504.3" fill="#ddd"><tspan x="727.05" y="504.3">Start in 2010</tspan></text></g><g class="legendMark"><rect x="723.05" y="493.5" width="111.95" height="13.5" fill="#fff" opacity="0"></rect><text font-size="13.50" x="727.0" y="504.3" fill="#ddd"><tspan x="727.05" y="504.3">Start in 2013</tspan></text></g><g class="legendMark"><rect x="723.05" y="493.5" width="111.95" height="13.5" fill="#fff" opacity="0"></rect><text font-size="13.50" x="727.0" y="504.3" fill="#ddd"><tspan x="727.05" y="504.3">Start in 2015</tspan></text></g><g class="legendMark"><rect x="723.05" y="493.5" width="111.95" height="13.5" fill="#fff" opacity="0"></rect><text font-size="13.50" x="727.0" y="504.3" fill="#ddd"><tspan x="727.05" y="504.3">Start in 2017</tspan></text></g><g class="legendMark"><rect x="723.05" y="493.5" width="111.95" height="13.5" fill="#fff" opacity="0"></rect><text font-size="13.50" x="727.0" y="504.3" fill="#ddd"><tspan x="727.05" y="504.3">Start in 2019</tspan></text></g><g class="legendMark"><rect x="723.05" y="493.5" width="111.95" height="13.5" fill="#fff" opacity="0"></rect><text font-size="13.50" x="727.0" y="504.3" fill="#ddd"><tspan x="727.05" y="504.3">Start in 2021</tspan></text></g><g class="legendMark"><rect x="723.05" y="493.5" width="111.95" height="13.5" fill="#fff" opacity="0"></rect><text font-size="13.50" x="727.0" y="504.3" fill="#ddd"><tspan x="727.05" y="504.3">Start in 2023</tspan></text></g><g class="legendMark"><rect x="723.05" y="493.5" width="111.95" height="13.5" fill="#fff" opacity="0"></rect><text font-size="13.50" x="727.0" y="504.3" fill="#ddd"><tspan x="727.05" y="504.3">Start in 2025</tspan></text></g><g class="legendMark"><rect x="723.05" y="493.5" width="111.95" height="13.5" fill="#fff" opacity="0"></rect><text font-size="13.50" x="727.0" y="504.3" fill="#ddd"><tspan x="727.05" y="504.3">Start in 2026</tspan></text></g><g class="legendMark"><rect x="723.05" y="493.5" width="111.95" height="13.5" fill="#fff" opacity="0"></rect><text font-size="13.50" x="727.0" y="504.3" fill="#ddd"><tspan x="727.05" y="504.3">Start in 2024</tspan></text></g><g class="legendMark"><rect x="723.05" y="493.5" width="111.95" height="13.5" fill="#fff" opacity="0"></rect><text font-size="13.50" x="727.0" y="504.3" fill="#ddd"><tspan x="727.05" y="504.3">Start in 2022</tspan></text></g><g class="legendMark"><rect x="723.05" y="493.5" width="111.95" height="13.5" fill="#fff" opacity="0"></rect><text font-size="13.50" x="727.0" y="504.3" fill="#ddd"><tspan x="727.05" y="504.3">Start in 2020</tspan></text></g><g class="legendMark"><rect x="723.05" y="493.5" width="111.95" height="13.5" fill="#fff" opacity="0"></rect><text font-size="13.50" x="727.0" y="504.3" fill="#ddd"><tspan x="727.05" y="504.3">Start in 2018</tspan></text></g><g class="legendMark"><rect x="723.05" y="493.5" width="111.95" height="13.5" fill="#fff" opacity="0"></rect><text font-size="13.50" x="727.0" y="504.3" fill="#ddd"><tspan x="727.05" y="504.3">Start in 2014</tspan></text></g><g class="legendMark"><rect x="723.05" y="493.5" width="111.95" height="13.5" fill="#fff" opacity="0"></rect><text font-size="13.50" x="727.0" y="504.3" fill="#ddd"><tspan x="727.05" y="504.3">Start in 2016</tspan></text></g><g class="legendMark"><rect x="723.05" y="493.5" width="111.95" height="13.5" fill="#fff" opacity="0"></rect><text font-size="13.50" x="727.0" y="504.3" fill="#ddd"><tspan x="727.05" y="504.3">Start in 2012</tspan></text></g><g class="legendMark"><rect x="723.05" y="107.80000000000001" width="90.48500000000001" height="13.5" fill="#fff" opacity="0"></rect><text font-size="13.50" x="727.0" y="118.6" fill="#080808"><tspan x="727.05" y="118.60000000000001">Historical</tspan></text></g><g class="legendMark"><rect x="723.05" y="493.5" width="111.95" height="13.5" fill="#fff" opacity="0"></rect><text font-size="13.50" x="727.0" y="504.3" fill="#c8c8c8"><tspan x="727.05" y="504.3">Start in 2000</tspan></text></g></g><g class="Lines"><rect x="93" y="108" width="630" height="399" fill="rgba(255,255,255,0)" opacity="0"></rect><g class="key-Historical_0"><path stroke="#080808" stroke-linecap="round" d="M93 271L99 265L104 257L110 252L115 252L121 249L126 251L132 251L137 247L143 243L149 239L154 219L160 238L165 239L171 229L176 229L182 220L187 205L193 194L198 188L204 177L209 178L215 167L220 155L226 145L231 135L237 122L242 121L248 116L253 116L259 125L265 117L270 108" fill="none" stroke-width="1.5"></path></g><g class="key-Start-in-2001_0"><path stroke="#d26e66" stroke-linecap="round" d="M176 229L182 228L187 229L193 231L198 233L204 236L209 240L215 244L220 248L226 253L231 258L237 263L242 269L248 275L253 281L259 286L265 293L270 299L276 305L281 311L287 317L292 323L298 329L303 335L309 340L314 346L320 352L325 357L331 362L336 368L342 373L347 378L353 383L358 387L364 392L370 396L375 401L381 405L386 409L392 413L397 417L403 420L408 424L414 427L419 431L425 434L430 437L436 440L441 443L447 445L452 448L458 451L463 453L469 455L474 458L480 460L486 462L491 464L497 466L502 468L508 470L513 471L519 473L524 474L530 476L535 477L541 479L546 480L552 481L557 482L563 484L568 485L574 486L579 487L585 488L591 489L596 489L602 490L607 491L613 492L618 493L624 493L629 494L635 495L640 495L646 496L651 496L657 497L662 497L668 498L673 498L679 499L684 499L690 499L695 500L701 500L707 500L712 501L718 501L723 501" fill="none" stroke-width="1.5"></path></g><g class="key-Start-in-2003_0"><path stroke="#db2445" stroke-linecap="round" d="M187 205L193 200L198 197L204 196L209 197L215 199L220 203L226 208L231 214L237 221L242 228L248 236L253 244L259 252L265 261L270 270L276 278L281 287L287 296L292 305L298 313L303 321L309 330L314 338L320 345L325 353L331 360L336 367L342 374L347 381L353 387L358 393L364 399L370 405L375 410L381 415L386 420L392 425L397 429L403 434L408 438L414 441L419 445L425 449L430 452L436 455L441 458L447 461L452 463L458 466L463 468L469 471L474 473L480 475L486 477L491 479L497 480L502 482L508 483L513 485L519 486L524 487L530 489L535 490L541 491L546 492L552 493L557 494L563 494L568 495L574 496L579 497L585 497L591 498L596 498L602 499L607 500L613 500L618 500L624 501L629 501L635 502L640 502L646 502L651 503L657 503L662 503L668 503L673 504L679 504L684 504L690 504L695 504L701 505L707 505L712 505L718 505L723 505" fill="none" stroke-width="1.5"></path></g><g class="key-Start-in-2005_0"><path stroke="#932834" stroke-linecap="round" d="M198 188L204 181L209 176L215 175L220 177L226 181L231 186L237 193L242 201L248 210L253 220L259 230L265 240L270 251L276 262L281 273L287 284L292 294L298 305L303 315L309 325L314 335L320 344L325 353L331 362L336 370L342 378L347 385L353 393L358 400L364 406L370 412L375 418L381 424L386 429L392 434L397 439L403 443L408 447L414 451L419 455L425 458L430 462L436 465L441 468L447 470L452 473L458 475L463 477L469 479L474 481L480 483L486 485L491 486L497 488L502 489L508 490L513 492L519 493L524 494L530 495L535 496L541 496L546 497L552 498L557 499L563 499L568 500L574 500L579 501L585 501L591 502L596 502L602 502L607 503L613 503L618 503L624 504L629 504L635 504L640 504L646 505L651 505L657 505L662 505L668 505L673 505L679 505L684 506L690 506L695 506L701 506L707 506L712 506L718 506L723 506" fill="none" stroke-width="1.5"></path></g><g class="key-Start-in-2007_0"><path stroke="#cfcd1e" stroke-linecap="round" d="M209 178L215 171L220 169L226 169L231 173L237 179L242 186L248 195L253 205L259 216L265 227L270 239L276 251L281 263L287 276L292 287L298 299L303 311L309 322L314 332L320 343L325 353L331 362L336 371L342 380L347 388L353 396L358 403L364 410L370 417L375 423L381 428L386 434L392 439L397 444L403 448L408 453L414 456L419 460L425 464L430 467L436 470L441 472L447 475L452 477L458 480L463 482L469 484L474 485L480 487L486 489L491 490L497 491L502 493L508 494L513 495L519 496L524 497L530 497L535 498L541 499L546 500L552 500L557 501L563 501L568 502L574 502L579 502L585 503L591 503L596 504L602 504L607 504L613 504L618 505L624 505L629 505L635 505L640 505L646 505L651 506L657 506L662 506L668 506L673 506L679 506L684 506L690 506L695 506L701 506L707 506L712 506L718 507L723 507" fill="none" stroke-width="1.5"></path></g><g class="key-Start-in-2009_0"><path stroke="#fceb8c" stroke-linecap="round" d="M220 155L226 149L231 149L237 153L242 160L248 169L253 180L259 193L265 206L270 220L276 235L281 249L287 264L292 278L298 292L303 306L309 319L314 331L320 343L325 355L331 366L336 376L342 385L347 394L353 403L358 411L364 418L370 425L375 432L381 438L386 443L392 448L397 453L403 458L408 462L414 465L419 469L425 472L430 475L436 478L441 480L447 483L452 485L458 487L463 488L469 490L474 492L480 493L486 494L491 495L497 496L502 497L508 498L513 499L519 500L524 500L530 501L535 502L541 502L546 502L552 503L557 503L563 504L568 504L574 504L579 504L585 505L591 505L596 505L602 505L607 505L613 506L618 506L624 506L629 506L635 506L640 506L646 506L651 506L657 506L662 506L668 507L673 507L679 507L684 507L690 507L695 507L701 507L707 507L712 507L718 507L723 507" fill="none" stroke-width="1.5"></path></g><g class="key-Start-in-2011_0"><path stroke="#5eb77e" stroke-linecap="round" d="M231 135L237 130L242 131L248 137L253 148L259 161L265 177L270 194L276 211L281 229L287 247L292 265L298 282L303 299L309 315L314 330L320 345L325 358L331 371L336 382L342 393L347 403L353 413L358 421L364 429L370 436L375 443L381 449L386 455L392 460L397 464L403 468L408 472L414 476L419 479L425 482L430 484L436 487L441 489L447 490L452 492L458 494L463 495L469 496L474 497L480 498L486 499L491 500L497 501L502 502L508 502L513 503L519 503L524 504L530 504L535 504L541 505L546 505L552 505L557 505L563 505L568 506L574 506L579 506L585 506L591 506L596 506L602 506L607 506L613 506L618 507L624 507L629 507L635 507L640 507L646 507L651 507L657 507L662 507L668 507L673 507L679 507L684 507L690 507L695 507L701 507L707 507L712 507L718 507L723 507" fill="none" stroke-width="1.5"></path></g><g class="key-Start-in-2013_0"><path stroke="#f07f59" stroke-linecap="round" d="M242 121L248 116L253 120L259 131L265 147L270 165L276 186L281 207L287 229L292 251L298 272L303 292L309 311L314 329L320 346L325 362L331 376L336 389L342 402L347 413L353 423L358 432L364 440L370 447L375 454L381 460L386 465L392 470L397 474L403 478L408 481L414 484L419 487L425 489L430 491L436 493L441 495L447 496L452 498L458 499L463 500L469 501L474 502L480 502L486 503L491 503L497 504L502 504L508 505L513 505L519 505L524 505L530 506L535 506L541 506L546 506L552 506L557 506L563 506L568 506L574 507L579 507L585 507L591 507L596 507L602 507L607 507L613 507L618 507L624 507L629 507L635 507L640 507L646 507L651 507L657 507L662 507L668 507L673 507L679 507L684 507L690 507L695 507L701 507L707 507L712 507L718 507L723 507" fill="none" stroke-width="1.5"></path></g><g class="key-Start-in-2015_0"><path stroke="#e6332e" stroke-linecap="round" d="M253 116L259 116L265 126L270 142L276 163L281 186L287 211L292 236L298 260L303 284L309 306L314 327L320 346L325 364L331 380L336 395L342 408L347 420L353 430L358 440L364 448L370 455L375 462L381 468L386 473L392 477L397 481L403 485L408 487L414 490L419 492L425 494L430 496L436 498L441 499L447 500L452 501L458 502L463 503L469 503L474 504L480 504L486 505L491 505L497 505L502 505L508 506L513 506L519 506L524 506L530 506L535 506L541 507L546 507L552 507L557 507L563 507L568 507L574 507L579 507L585 507L591 507L596 507L602 507L607 507L613 507L618 507L624 507L629 507L635 507L640 507L646 507L651 507L657 507L662 507L668 507L673 507L679 507L684 507L690 507L695 507L701 507L707 507L712 507L718 507L723 507" fill="none" stroke-width="1.5"></path></g><g class="key-Start-in-2017_0"><path stroke="#b077b1" stroke-linecap="round" d="M265 117L270 124L276 140L281 163L287 189L292 217L298 245L303 273L309 299L314 323L320 345L325 365L331 383L336 399L342 414L347 426L353 437L358 447L364 456L370 463L375 469L381 475L386 480L392 484L397 487L403 490L408 493L414 495L419 497L425 498L430 500L436 501L441 502L447 503L452 503L458 504L463 504L469 505L474 505L480 505L486 506L491 506L497 506L502 506L508 506L513 506L519 507L524 507L530 507L535 507L541 507L546 507L552 507L557 507L563 507L568 507L574 507L579 507L585 507L591 507L596 507L602 507L607 507L613 507L618 507L624 507L629 507L635 507L640 507L646 507L651 507L657 507L662 507L668 507L673 507L679 507L684 507L690 507L695 507L701 507L707 507L712 507L718 507L723 507" fill="none" stroke-width="1.5"></path></g><g class="key-Start-in-2019_0"><path stroke="#9ecc8a" stroke-linecap="round" d="M276 108L281 117L287 142L292 176L298 213L303 250L309 285L314 317L320 346L325 372L331 394L336 413L342 429L347 443L353 454L358 464L364 472L370 478L375 484L381 488L386 492L392 495L397 497L403 499L408 501L414 502L419 503L425 504L430 504L436 505L441 505L447 506L452 506L458 506L463 506L469 507L474 507L480 507L486 507L491 507L497 507L502 507L508 507L513 507L519 507L524 507L530 507L535 507L541 507L546 507L552 507L557 507L563 507L568 507L574 507L579 507L585 507L591 507L596 507L602 507L607 507L613 507L618 507L624 507L629 507L635 507L640 507L646 507L651 507L657 507L662 507L668 507L673 507L679 507L684 507L690 507L695 507L701 507L707 507L712 507L718 507L723 507" fill="none" stroke-width="1.5"></path></g><g class="key-Start-in-2021_0"><path stroke="#ca2628" stroke-linecap="round" d="M287 108L292 124L298 164L303 213L309 262L314 307L320 347L325 380L331 408L336 430L342 448L347 461L353 472L358 481L364 487L370 492L375 496L381 499L386 501L392 502L397 504L403 504L408 505L414 506L419 506L425 506L430 506L436 507L441 507L447 507L452 507L458 507L463 507L469 507L474 507L480 507L486 507L491 507L497 507L502 507L508 507L513 507L519 507L524 507L530 507L535 507L541 507L546 507L552 507L557 507L563 507L568 507L574 507L579 507L585 507L591 507L596 507L602 507L607 507L613 507L618 507L624 507L629 507L635 507L640 507L646 507L651 507L657 507L662 507L668 507L673 507L679 507L684 507L690 507L695 507L701 507L707 507L712 507L718 507L723 507" fill="none" stroke-width="1.5"></path></g><g class="key-Start-in-2023_0"><path stroke="#f6a324" stroke-linecap="round" d="M298 108L303 145L309 215L314 287L320 348L325 395L331 430L336 455L342 472L347 484L353 492L358 497L364 501L370 503L375 504L381 505L386 506L392 506L397 507L403 507L408 507L414 507L419 507L425 507L430 507L436 507L441 507L447 507L452 507L458 507L463 507L469 507L474 507L480 507L486 507L491 507L497 507L502 507L508 507L513 507L519 507L524 507L530 507L535 507L541 507L546 507L552 507L557 507L563 507L568 507L574 507L579 507L585 507L591 507L596 507L602 507L607 507L613 507L618 507L624 507L629 507L635 507L640 507L646 507L651 507L657 507L662 507L668 507L673 507L679 507L684 507L690 507L695 507L701 507L707 507L712 507L718 507L723 507" fill="none" stroke-width="1.5"></path></g><g class="key-Start-in-2025_0"><path stroke="#2a939b" stroke-linecap="round" d="M309 108L314 217L320 351L325 432L331 474L336 493L342 501L347 505L353 506L358 507L364 507L370 507L375 507L381 507L386 507L392 507L397 507L403 507L408 507L414 507L419 507L425 507L430 507L436 507L441 507L447 507L452 507L458 507L463 507L469 507L474 507L480 507L486 507L491 507L497 507L502 507L508 507L513 507L519 507L524 507L530 507L535 507L541 507L546 507L552 507L557 507L563 507L568 507L574 507L579 507L585 507L591 507L596 507L602 507L607 507L613 507L618 507L624 507L629 507L635 507L640 507L646 507L651 507L657 507L662 507L668 507L673 507L679 507L684 507L690 507L695 507L701 507L707 507L712 507L718 507L723 507" fill="none" stroke-width="1.5"></path></g><g class="key-Start-in-2026_0"><path stroke="#e6332e" stroke-linecap="round" d="M314 108L320 357L325 477L331 502L336 506L342 507L347 507L353 507L358 507L364 507L370 507L375 507L381 507L386 507L392 507L397 507L403 507L408 507L414 507L419 507L425 507L430 507L436 507L441 507L447 507L452 507L458 507L463 507L469 507L474 507L480 507L486 507L491 507L497 507L502 507L508 507L513 507L519 507L524 507L530 507L535 507L541 507L546 507L552 507L557 507L563 507L568 507L574 507L579 507L585 507L591 507L596 507L602 507L607 507L613 507L618 507L624 507L629 507L635 507L640 507L646 507L651 507L657 507L662 507L668 507L673 507L679 507L684 507L690 507L695 507L701 507L707 507L712 507L718 507L723 507" fill="none" stroke-width="1.5"></path></g><g class="key-Start-in-2024_0"><path stroke="#a652ba" stroke-linecap="round" d="M303 108L309 167L314 265L320 349L325 409L331 448L336 473L342 487L347 496L353 501L358 504L364 505L370 506L375 506L381 507L386 507L392 507L397 507L403 507L408 507L414 507L419 507L425 507L430 507L436 507L441 507L447 507L452 507L458 507L463 507L469 507L474 507L480 507L486 507L491 507L497 507L502 507L508 507L513 507L519 507L524 507L530 507L535 507L541 507L546 507L552 507L557 507L563 507L568 507L574 507L579 507L585 507L591 507L596 507L602 507L607 507L613 507L618 507L624 507L629 507L635 507L640 507L646 507L651 507L657 507L662 507L668 507L673 507L679 507L684 507L690 507L695 507L701 507L707 507L712 507L718 507L723 507" fill="none" stroke-width="1.5"></path></g><g class="key-Start-in-2022_0"><path stroke="#34983f" stroke-linecap="round" d="M292 108L298 132L303 185L309 244L314 300L320 347L325 386L331 417L336 441L342 459L347 472L353 482L358 489L364 494L370 498L375 501L381 503L386 504L392 505L397 505L403 506L408 506L414 507L419 507L425 507L430 507L436 507L441 507L447 507L452 507L458 507L463 507L469 507L474 507L480 507L486 507L491 507L497 507L502 507L508 507L513 507L519 507L524 507L530 507L535 507L541 507L546 507L552 507L557 507L563 507L568 507L574 507L579 507L585 507L591 507L596 507L602 507L607 507L613 507L618 507L624 507L629 507L635 507L640 507L646 507L651 507L657 507L662 507L668 507L673 507L679 507L684 507L690 507L695 507L701 507L707 507L712 507L718 507L723 507" fill="none" stroke-width="1.5"></path></g><g class="key-Start-in-2020_0"><path stroke="#3360a9" stroke-linecap="round" d="M281 108L287 120L292 151L298 191L303 234L309 275L314 313L320 347L325 376L331 400L336 421L342 438L347 452L353 463L358 472L364 479L370 485L375 490L381 494L386 497L392 499L397 501L403 502L408 503L414 504L419 505L425 505L430 506L436 506L441 506L447 506L452 507L458 507L463 507L469 507L474 507L480 507L486 507L491 507L497 507L502 507L508 507L513 507L519 507L524 507L530 507L535 507L541 507L546 507L552 507L557 507L563 507L568 507L574 507L579 507L585 507L591 507L596 507L602 507L607 507L613 507L618 507L624 507L629 507L635 507L640 507L646 507L651 507L657 507L662 507L668 507L673 507L679 507L684 507L690 507L695 507L701 507L707 507L712 507L718 507L723 507" fill="none" stroke-width="1.5"></path></g><g class="key-Start-in-2018_0"><path stroke="#ffd53e" stroke-linecap="round" d="M270 108L276 115L281 136L287 164L292 196L298 230L303 262L309 293L314 321L320 346L325 369L331 389L336 407L342 422L347 436L353 447L358 457L364 465L370 472L375 478L381 483L386 487L392 490L397 493L403 495L408 497L414 499L419 501L425 502L430 503L436 503L441 504L447 505L452 505L458 505L463 506L469 506L474 506L480 506L486 506L491 507L497 507L502 507L508 507L513 507L519 507L524 507L530 507L535 507L541 507L546 507L552 507L557 507L563 507L568 507L574 507L579 507L585 507L591 507L596 507L602 507L607 507L613 507L618 507L624 507L629 507L635 507L640 507L646 507L651 507L657 507L662 507L668 507L673 507L679 507L684 507L690 507L695 507L701 507L707 507L712 507L718 507L723 507" fill="none" stroke-width="1.5"></path></g><g class="key-Start-in-2014_0"><path stroke="#6bb537" stroke-linecap="round" d="M248 116L253 113L259 120L265 134L270 153L276 174L281 197L287 220L292 244L298 266L303 288L309 309L314 328L320 347L325 363L331 378L336 392L342 405L347 416L353 427L358 436L364 444L370 452L375 458L381 464L386 469L392 474L397 478L403 482L408 485L414 488L419 490L425 492L430 494L436 496L441 497L447 498L452 500L458 501L463 501L469 502L474 503L480 503L486 504L491 504L497 505L502 505L508 505L513 505L519 506L524 506L530 506L535 506L541 506L546 506L552 506L557 507L563 507L568 507L574 507L579 507L585 507L591 507L596 507L602 507L607 507L613 507L618 507L624 507L629 507L635 507L640 507L646 507L651 507L657 507L662 507L668 507L673 507L679 507L684 507L690 507L695 507L701 507L707 507L712 507L718 507L723 507" fill="none" stroke-width="1.5"></path></g><g class="key-Start-in-2016_0"><path stroke="#7ec7ce" stroke-linecap="round" d="M259 125L265 128L270 141L276 160L281 182L287 206L292 231L298 256L303 280L309 303L314 324L320 344L325 363L331 379L336 394L342 408L347 420L353 431L358 440L364 449L370 456L375 463L381 469L386 474L392 478L397 482L403 486L408 488L414 491L419 493L425 495L430 497L436 498L441 499L447 501L452 501L458 502L463 503L469 504L474 504L480 504L486 505L491 505L497 505L502 506L508 506L513 506L519 506L524 506L530 506L535 507L541 507L546 507L552 507L557 507L563 507L568 507L574 507L579 507L585 507L591 507L596 507L602 507L607 507L613 507L618 507L624 507L629 507L635 507L640 507L646 507L651 507L657 507L662 507L668 507L673 507L679 507L684 507L690 507L695 507L701 507L707 507L712 507L718 507L723 507" fill="none" stroke-width="1.5"></path></g><g class="key-Start-in-2012_0"><path stroke="#ce8ebd" stroke-linecap="round" d="M237 122L242 115L248 117L253 126L259 139L265 156L270 174L276 195L281 215L287 236L292 257L298 276L303 296L309 314L314 331L320 347L325 361L331 375L336 388L342 400L347 410L353 420L358 429L364 437L370 444L375 451L381 457L386 462L392 467L397 471L403 475L408 479L414 482L419 485L425 487L430 489L436 491L441 493L447 495L452 496L458 497L463 499L469 500L474 500L480 501L486 502L491 502L497 503L502 504L508 504L513 504L519 505L524 505L530 505L535 505L541 506L546 506L552 506L557 506L563 506L568 506L574 506L579 506L585 507L591 507L596 507L602 507L607 507L613 507L618 507L624 507L629 507L635 507L640 507L646 507L651 507L657 507L662 507L668 507L673 507L679 507L684 507L690 507L695 507L701 507L707 507L712 507L718 507L723 507" fill="none" stroke-width="1.5"></path></g><g class="key-Start-in-2010_0"><path stroke="#818282" stroke-linecap="round" d="M226 145L231 140L237 140L242 145L248 153L253 165L259 178L265 192L270 208L276 224L281 240L287 256L292 272L298 287L303 302L309 317L314 331L320 344L325 356L331 368L336 379L342 389L347 399L353 407L358 416L364 423L370 431L375 437L381 443L386 449L392 454L397 459L403 463L408 467L414 471L419 474L425 477L430 480L436 482L441 485L447 487L452 489L458 490L463 492L469 493L474 495L480 496L486 497L491 498L497 499L502 500L508 500L513 501L519 502L524 502L530 503L535 503L541 503L546 504L552 504L557 504L563 505L568 505L574 505L579 505L585 505L591 506L596 506L602 506L607 506L613 506L618 506L624 506L629 506L635 506L640 507L646 507L651 507L657 507L662 507L668 507L673 507L679 507L684 507L690 507L695 507L701 507L707 507L712 507L718 507L723 507" fill="none" stroke-width="1.5"></path></g><g class="key-Start-in-2008_0"><path stroke="#9ecc8a" stroke-linecap="round" d="M215 167L220 161L226 160L231 163L237 168L242 176L248 185L253 196L259 207L265 219L270 232L276 245L281 258L287 271L292 284L298 296L303 309L309 321L314 332L320 343L325 353L331 363L336 373L342 382L347 390L353 398L358 406L364 413L370 420L375 426L381 432L386 438L392 443L397 448L403 452L408 456L414 460L419 464L425 467L430 470L436 473L441 476L447 478L452 480L458 483L463 485L469 486L474 488L480 490L486 491L491 492L497 493L502 495L508 496L513 497L519 497L524 498L530 499L535 500L541 500L546 501L552 501L557 502L563 502L568 503L574 503L579 503L585 504L591 504L596 504L602 504L607 505L613 505L618 505L624 505L629 505L635 506L640 506L646 506L651 506L657 506L662 506L668 506L673 506L679 506L684 506L690 506L695 507L701 507L707 507L712 507L718 507L723 507" fill="none" stroke-width="1.5"></path></g><g class="key-Start-in-2006_0"><path stroke="#58888f" stroke-linecap="round" d="M204 177L209 169L215 164L220 164L226 166L231 171L237 177L242 186L248 195L253 206L259 217L265 229L270 241L276 253L281 265L287 277L292 289L298 301L303 312L309 323L314 334L320 344L325 354L331 363L336 372L342 381L347 389L353 397L358 404L364 411L370 417L375 423L381 429L386 434L392 439L397 444L403 449L408 453L414 457L419 460L425 464L430 467L436 470L441 472L447 475L452 477L458 480L463 482L469 484L474 485L480 487L486 489L491 490L497 491L502 492L508 494L513 495L519 496L524 496L530 497L535 498L541 499L546 499L552 500L557 501L563 501L568 502L574 502L579 502L585 503L591 503L596 503L602 504L607 504L613 504L618 504L624 505L629 505L635 505L640 505L646 505L651 505L657 506L662 506L668 506L673 506L679 506L684 506L690 506L695 506L701 506L707 506L712 506L718 506L723 507" fill="none" stroke-width="1.5"></path></g><g class="key-Start-in-2004_0"><path stroke="#df3c64" stroke-linecap="round" d="M193 194L198 187L204 182L209 181L215 182L220 185L226 189L231 195L237 202L242 210L248 219L253 228L259 238L265 248L270 258L276 268L281 278L287 288L292 298L298 308L303 318L309 327L314 336L320 345L325 353L331 361L336 369L342 377L347 384L353 391L358 398L364 404L370 410L375 416L381 421L386 426L392 431L397 436L403 440L408 444L414 448L419 452L425 455L430 458L436 461L441 464L447 467L452 470L458 472L463 474L469 477L474 479L480 480L486 482L491 484L497 485L502 487L508 488L513 489L519 491L524 492L530 493L535 494L541 495L546 496L552 496L557 497L563 498L568 498L574 499L579 500L585 500L591 501L596 501L602 501L607 502L613 502L618 503L624 503L629 503L635 503L640 504L646 504L651 504L657 504L662 505L668 505L673 505L679 505L684 505L690 505L695 505L701 506L707 506L712 506L718 506L723 506" fill="none" stroke-width="1.5"></path></g><g class="key-Start-in-2002_0"><path stroke="#f9bc8f" stroke-linecap="round" d="M182 220L187 219L193 220L198 222L204 224L209 228L215 232L220 236L226 241L231 247L237 252L242 258L248 265L253 271L259 278L265 284L270 291L276 298L281 305L287 311L292 318L298 324L303 331L309 337L314 343L320 350L325 356L331 361L336 367L342 373L347 378L353 383L358 388L364 393L370 398L375 403L381 407L386 411L392 416L397 420L403 423L408 427L414 431L419 434L425 437L430 441L436 444L441 447L447 449L452 452L458 455L463 457L469 460L474 462L480 464L486 466L491 468L497 470L502 472L508 473L513 475L519 477L524 478L530 480L535 481L541 482L546 483L552 485L557 486L563 487L568 488L574 489L579 490L585 491L591 491L596 492L602 493L607 494L613 494L618 495L624 496L629 496L635 497L640 497L646 498L651 498L657 499L662 499L668 500L673 500L679 500L684 501L690 501L695 501L701 502L707 502L712 502L718 502L723 503" fill="none" stroke-width="1.5"></path></g><g class="key-Start-in-2000_0"><path stroke="#c8c8c8" stroke-linecap="round" d="M171 229L176 228L182 228L187 229L193 231L198 233L204 236L209 240L215 244L220 249L226 253L231 259L237 264L242 270L248 275L253 281L259 287L265 293L270 299L276 305L281 311L287 317L292 323L298 329L303 335L309 341L314 346L320 352L325 357L331 363L336 368L342 373L347 378L353 383L358 387L364 392L370 396L375 401L381 405L386 409L392 413L397 417L403 420L408 424L414 427L419 431L425 434L430 437L436 440L441 443L447 445L452 448L458 451L463 453L469 455L474 458L480 460L486 462L491 464L497 466L502 468L508 469L513 471L519 473L524 474L530 476L535 477L541 478L546 480L552 481L557 482L563 483L568 484L574 486L579 487L585 487L591 488L596 489L602 490L607 491L613 492L618 492L624 493L629 494L635 494L640 495L646 496L651 496L657 497L662 497L668 498L673 498L679 499L684 499L690 499L695 500L701 500L707 500L712 501L718 501L723 501" fill="none" stroke-width="1.5"></path></g></g></g></g><g class="SourcesFooter" style="fill:#777"><g class="clickable" style="fill:#777"><text font-size="12.60" x="15.0" y="553.3"><tspan x="15" y="553.2800000000001">Source: Robbie Andrews (2019); based on Global Carbon Project &amp; IPPC SR15</tspan></text></g><text font-size="12.60" x="15.0" y="567.9"><tspan x="15" y="567.8800000000001">Note: Carbon budgets are based on a &gt;66% chance of staying below 1.5°C from the IPCC&#x27;s SR15 Report.</tspan></text><text font-size="12.60" x="15.0" y="582.5"><tspan x="15" y="582.4800000000001"><a target='_blank' style='fill: #777;' href='https://ourworldindata.org/co2-and-other-greenhouse-gas-emissions'>OurWorldInData.org/co2-and-other-greenhouse-gas-emissions</a> • <a style="fill: #777;" class="cclogo" href="http://creativecommons.org/licenses/by/4.0/deed.en_US" target="_blank">CC BY</a></tspan></text></g></svg>