<svg xmlns="http://www.w3.org/2000/svg" version="1.1" style="font-family:Lato, &#x27;Helvetica Neue&#x27;, Helvetica, Arial, sans-serif;font-size:18px;background-color:white;text-rendering:optimizeLegibility;-webkit-font-smoothing:antialiased" width="850" height="600"><g class="HeaderView"><a href="https://ourworldindata.org/grapher/collective-wage-bargaining-coverage-and-unemployment-across-the-oecd" target="_blank"><text font-size="23.40" x="15.0" y="33.7" fill="#555"><tspan x="15" y="33.72">Collective wage bargaining coverage and unemployment across the OECD</tspan></text></a><text font-size="14.40" x="15.0" y="51.9" fill="#666"><tspan x="15" y="51.919999999999995">Unit 9 &#x27;The labour market: Wages, profits, and unemployment’ Section 9.10 &#x27;Labour unions: Bargained wages and the union</tspan><tspan x="15" y="67.75999999999999">voice effect&#x27; in The CORE Team, The Economy. Available at: https://tinyco.re/0910199 [Figure 9.22]</tspan></text></g><g><g class="AxisBoxView"><g class="HorizontalAxis"><text font-size="12.60" x="134.1" y="540.3"><tspan x="134.105" y="540.2800000000001">Share of employees covered by collective bargaining agreements (early 2010s, %)</tspan></text><text x="169.5" y="520.2" fill="#666" text-anchor="middle" font-size="16.2">20%</text><text x="309.4" y="520.2" fill="#666" text-anchor="middle" font-size="16.2">40%</text><text x="449.3" y="520.2" fill="#666" text-anchor="middle" font-size="16.2">60%</text><text x="589.1" y="520.2" fill="#666" text-anchor="middle" font-size="16.2">80%</text></g><g class="VerticalAxis"><text font-size="12.60" x="-440.7" y="25.1" transform="rotate(-90)"><tspan x="-440.668" y="25.080000000000002">Unemployment rate (2000-2014 average, %)</tspan></text><text x="70.16" y="499" fill="#666" dominant-baseline="middle" text-anchor="end" font-size="16.2">0%</text><text x="70.16" y="445.6" fill="#666" dominant-baseline="middle" text-anchor="end" font-size="16.2">2%</text><text x="70.16" y="392.2" fill="#666" dominant-baseline="middle" text-anchor="end" font-size="16.2">4%</text><text x="70.16" y="338.8" fill="#666" dominant-baseline="middle" text-anchor="end" font-size="16.2">6%</text><text x="70.16" y="285.4" fill="#666" dominant-baseline="middle" text-anchor="end" font-size="16.2">8%</text><text x="70.16" y="232" fill="#666" dominant-baseline="middle" text-anchor="end" font-size="16.2">10%</text><text x="70.16" y="178.6" fill="#666" dominant-baseline="middle" text-anchor="end" font-size="16.2">12%</text><text x="70.16" y="125.2" fill="#666" dominant-baseline="middle" text-anchor="end" font-size="16.2">14%</text></g><g class="AxisGridLines"><line x1="75.16" y1="499" x2="715.00" y2="499" stroke="#ccc"></line><line x1="75.16" y1="445.6" x2="715.00" y2="445.6" stroke="#ddd" stroke-dasharray="3,2"></line><line x1="75.16" y1="392.2" x2="715.00" y2="392.2" stroke="#ddd" stroke-dasharray="3,2"></line><line x1="75.16" y1="338.8" x2="715.00" y2="338.8" stroke="#ddd" stroke-dasharray="3,2"></line><line x1="75.16" y1="285.4" x2="715.00" y2="285.4" stroke="#ddd" stroke-dasharray="3,2"></line><line x1="75.16" y1="232" x2="715.00" y2="232" stroke="#ddd" stroke-dasharray="3,2"></line><line x1="75.16" y1="178.6" x2="715.00" y2="178.6" stroke="#ddd" stroke-dasharray="3,2"></line><line x1="75.16" y1="125.2" x2="715.00" y2="125.2" stroke="#ddd" stroke-dasharray="3,2"></line></g><g class="AxisGridLines"><line x1="169.5" y1="499.00" x2="169.5" y2="88.30" stroke="#ddd" stroke-dasharray="3,2"></line><line x1="309.4" y1="499.00" x2="309.4" y2="88.30" stroke="#ddd" stroke-dasharray="3,2"></line><line x1="449.3" y1="499.00" x2="449.3" y2="88.30" stroke="#ddd" stroke-dasharray="3,2"></line><line x1="589.1" y1="499.00" x2="589.1" y2="88.30" stroke="#ddd" stroke-dasharray="3,2"></line></g></g><g class="PointsWithLabels clickable" clip-path="url(#scatterBounds-1)" font-family="Arial, sans-serif"><rect x="75.162" y="88.3" width="639.838" height="410.70000000000005" fill="rgba(255,255,255,0)"></rect><defs><clipPath id="scatterBounds-1"><rect x="65.162" y="78.3" width="659.838" height="430.70000000000005"></rect></clipPath></defs><g class="key-Australia_0"><circle cx="449.00" cy="353.00" r="3.57" fill="#a652ba" opacity="0.8" stroke="#333" stroke-width="0.7"></circle></g><g class="key-Austria_0"><circle cx="715.00" cy="372.00" r="3.57" fill="#ffd336" opacity="0.8" stroke="#333" stroke-width="0.7"></circle></g><g class="key-Belgium_0"><circle cx="701.00" cy="291.00" r="3.57" fill="#ffd336" opacity="0.8" stroke="#333" stroke-width="0.7"></circle></g><g class="key-Canada_0"><circle cx="232.00" cy="308.00" r="3.57" fill="#4d824b" opacity="0.8" stroke="#333" stroke-width="0.7"></circle></g><g class="key-Czech-Republic_0"><circle cx="360.00" cy="309.00" r="3.57" fill="#ffd336" opacity="0.8" stroke="#333" stroke-width="0.7"></circle></g><g class="key-Denmark_0"><circle cx="617.00" cy="355.00" r="3.57" fill="#ffd336" opacity="0.8" stroke="#333" stroke-width="0.7"></circle></g><g class="key-Finland_0"><circle cx="680.00" cy="277.00" r="3.57" fill="#ffd336" opacity="0.8" stroke="#333" stroke-width="0.7"></circle></g><g class="key-France_0"><circle cx="715.00" cy="279.00" r="3.57" fill="#ffd336" opacity="0.8" stroke="#333" stroke-width="0.7"></circle></g><g class="key-Germany_0"><circle cx="432.00" cy="288.00" r="3.57" fill="#ffd336" opacity="0.8" stroke="#333" stroke-width="0.7"></circle></g><g class="key-Greece_0"><circle cx="323.00" cy="141.00" r="3.57" fill="#ffd336" opacity="0.8" stroke="#333" stroke-width="0.7"></circle></g><g class="key-Hungary_0"><circle cx="190.00" cy="281.00" r="3.57" fill="#ffd336" opacity="0.8" stroke="#333" stroke-width="0.7"></circle></g><g class="key-Iceland_0"><circle cx="652.00" cy="386.00" r="3.57" fill="#ffd336" opacity="0.8" stroke="#333" stroke-width="0.7"></circle></g><g class="key-Ireland_0"><circle cx="312.00" cy="278.00" r="3.57" fill="#ffd336" opacity="0.8" stroke="#333" stroke-width="0.7"></circle></g><g class="key-Italy_0"><circle cx="589.00" cy="259.00" r="3.57" fill="#ffd336" opacity="0.8" stroke="#333" stroke-width="0.7"></circle></g><g class="key-Japan_0"><circle cx="149.00" cy="376.00" r="3.57" fill="#d14e5b" opacity="0.8" stroke="#333" stroke-width="0.7"></circle></g><g class="key-South-Korea_0"><circle cx="111.00" cy="404.00" r="3.57" fill="#d14e5b" opacity="0.8" stroke="#333" stroke-width="0.7"></circle></g><g class="key-Luxembourg_0"><circle cx="442.00" cy="378.00" r="3.57" fill="#ffd336" opacity="0.8" stroke="#333" stroke-width="0.7"></circle></g><g class="key-Netherlands_0"><circle cx="622.00" cy="395.00" r="3.57" fill="#ffd336" opacity="0.8" stroke="#fff" stroke-width="0.7"></circle></g><g class="key-New-Zealand_0"><circle cx="136.00" cy="358.00" r="3.57" fill="#a652ba" opacity="0.8" stroke="#333" stroke-width="0.7"></circle></g><g class="key-Norway_0"><circle cx="498.00" cy="403.00" r="3.57" fill="#ffd336" opacity="0.8" stroke="#333" stroke-width="0.7"></circle></g><g class="key-Poland_0"><circle cx="132.00" cy="146.00" r="3.57" fill="#ffd336" opacity="0.8" stroke="#333" stroke-width="0.7"></circle></g><g class="key-Portugal_0"><circle cx="498.00" cy="257.00" r="3.57" fill="#ffd336" opacity="0.8" stroke="#333" stroke-width="0.7"></circle></g><g class="key-Slovakia_0"><circle cx="203.00" cy="100.00" r="3.57" fill="#ffd336" opacity="0.8" stroke="#333" stroke-width="0.7"></circle></g><g class="key-Spain_0"><circle cx="572.00" cy="88.00" r="3.57" fill="#ffd336" opacity="0.8" stroke="#333" stroke-width="0.7"></circle></g><g class="key-Sweden_0"><circle cx="652.00" cy="313.00" r="3.57" fill="#ffd336" opacity="0.8" stroke="#333" stroke-width="0.7"></circle></g><g class="key-Switzerland_0"><circle cx="369.00" cy="402.00" r="3.57" fill="#ffd336" opacity="0.8" stroke="#333" stroke-width="0.7"></circle></g><g class="key-Turkey_0"><circle cx="75.00" cy="226.00" r="3.57" fill="#d14e5b" opacity="0.8" stroke="#333" stroke-width="0.7"></circle></g><g class="key-United-Kingdom_0"><circle cx="236.00" cy="337.00" r="3.57" fill="#ffd336" opacity="0.8" stroke="#333" stroke-width="0.7"></circle></g><g class="key-United-States_0"><circle cx="113.00" cy="328.00" r="3.57" fill="#4d824b" opacity="0.8" stroke="#333" stroke-width="0.7"></circle></g><g class="backgroundLabels" fill="#333"><text x="449.00" y="348.43" font-size="11.00">Australia</text><text x="680.68" y="367.43" font-size="11.00">Austria</text><text x="661.18" y="286.43" font-size="11.00">Belgium</text><text x="232.00" y="303.43" font-size="11.00">Canada</text><text x="360.00" y="304.43" font-size="11.00">Czech Republic</text><text x="617.00" y="350.43" font-size="11.00">Denmark</text><text x="643.81" y="272.43" font-size="11.00">Finland</text><text x="680.68" y="274.43" font-size="11.00">France</text><text x="432.00" y="283.43" font-size="11.00">Germany</text><text x="323.00" y="136.43" font-size="11.00">Greece</text><text x="190.00" y="276.43" font-size="11.00">Hungary</text><text x="652.00" y="381.43" font-size="11.00">Iceland</text><text x="312.00" y="273.43" font-size="11.00">Ireland</text><text x="589.00" y="254.43" font-size="11.00">Italy</text><text x="149.00" y="371.43" font-size="11.00">Japan</text><text x="111.00" y="399.43" font-size="11.00">South Korea</text><text x="442.00" y="373.43" font-size="11.00">Luxembourg</text><text x="136.00" y="353.43" font-size="11.00">New Zealand</text><text x="498.00" y="398.43" font-size="11.00">Norway</text><text x="132.00" y="141.43" font-size="11.00">Poland</text><text x="498.00" y="252.43" font-size="11.00">Portugal</text><text x="203.00" y="99.30" font-size="11.00">Slovakia</text><text x="572.00" y="99.30" font-size="11.00">Spain</text><text x="652.00" y="308.43" font-size="11.00">Sweden</text><text x="369.00" y="397.43" font-size="11.00">Switzerland</text><text x="75.00" y="221.43" font-size="11.00">Turkey</text><text x="236.00" y="332.43" font-size="11.00">United Kingdom</text><text x="113.00" y="323.43" font-size="11.00">United States</text></g></g><g class="ScatterColorLegend clickable" style="cursor:pointer"><g class="legendMark"><rect x="735" y="85.8" width="35.57" height="17.6" fill="#fff" opacity="0"></rect>,<rect x="735" y="91.3" width="6" height="6" fill="#d14e5b"></rect>,<text font-size="12.60" x="746.0" y="98.4"><tspan x="746" y="98.38">Asia</tspan></text></g><g class="legendMark"><rect x="735" y="103.4" width="51.824" height="17.6" fill="#fff" opacity="0"></rect>,<rect x="735" y="108.9" width="6" height="6" fill="#ffd336"></rect>,<text font-size="12.60" x="746.0" y="116.0"><tspan x="746" y="115.98">Europe</tspan></text></g><g class="legendMark"><rect x="735" y="121" width="91.64" height="17.6" fill="#fff" opacity="0"></rect>,<rect x="735" y="126.5" width="6" height="6" fill="#4d824b"></rect>,<text font-size="12.60" x="746.0" y="133.6"><tspan x="746" y="133.57999999999998">North America</tspan></text></g><g class="legendMark"><rect x="735" y="138.6" width="58.124" height="17.6" fill="#fff" opacity="0"></rect>,<rect x="735" y="144.1" width="6" height="6" fill="#a652ba"></rect>,<text font-size="12.60" x="746.0" y="151.2"><tspan x="746" y="151.17999999999998">Oceania</tspan></text></g></g></g><g class="SourcesFooter" style="fill:#777"><g class="clickable" style="fill:#777"><text font-size="12.60" x="15.0" y="567.9"><tspan x="15" y="567.88">Source: Visser (2015) and the OECD Employment Outlook 2012</tspan></text></g><text font-size="12.60" x="15.0" y="582.5"><tspan x="15" y="582.48">Note: Share of employees covered by collective bargaining agreements are displayed on the &#x27;MAP&#x27; tab.</tspan></text><text font-size="12.60" x="546.0" y="567.9"><tspan x="545.956" y="567.88"><a target='_blank' style='fill: #777;' href='https://tinyco.re/0910199'>tinyco.re/0910199</a> • <a href="https://ourworldindata.org" target="_blank">Powered by ourworldindata.org</a></tspan></text></g></svg>