<svg xmlns="http://www.w3.org/2000/svg" version="1.1" style="font-family:&#x27;Helvetica Neue&#x27;, Helvetica, Arial, sans-serif;font-size:18px;background-color:white;text-rendering:optimizeLegibility;-webkit-font-smoothing:antialiased" width="850" height="600"><g class="ChartTab"><g class="HeaderView"><g opacity="0.8" transform="translate(778, 15) scale(0.27)"><a xmlns:xlink="http://www.w3.org/1999/xlink" xlink:href="https://ourworldindata.org" target="_blank"><g><rect x="0" y="0" fill="#1B2543" width="211.2" height="130.1"/><rect x="0" y="112.2" fill="#E63912" width="211.2" height="17.9"/><g><rect x="1.2" y="12.3" fill="none" width="210.2" height="99.2"/><path fill="#FFFFFF" d="M37.8,32.2c0,12.7-7.7,19.4-17.1,19.4c-9.7,0-16.6-7.5-16.6-18.7c0-11.7,7.3-19.3,17.1-19.3 C31.3,13.7,37.8,21.3,37.8,32.2z M9.2,32.8c0,7.9,4.3,14.9,11.8,14.9c7.5,0,11.8-6.9,11.8-15.3c0-7.3-3.8-14.9-11.8-14.9 C13.1,17.5,9.2,24.8,9.2,32.8z"/><path fill="#FFFFFF" d="M62.7,43.8c0,2.7,0.1,5.1,0.2,7.2h-4.3l-0.3-4.3h-0.1c-1.3,2.1-4,4.9-8.8,4.9c-4.2,0-9.1-2.3-9.1-11.6 V24.6h4.8v14.6c0,5,1.5,8.4,5.9,8.4c3.2,0,5.5-2.2,6.3-4.4c0.3-0.7,0.4-1.6,0.4-2.5V24.6h4.8V43.8z"/><path fill="#FFFFFF" d="M67.3,32.8c0-3.1-0.1-5.8-0.2-8.2h4.2l0.2,5.2h0.2c1.2-3.5,4.1-5.8,7.3-5.8c0.5,0,0.9,0.1,1.4,0.2v4.5 c-0.5-0.1-1-0.2-1.6-0.2c-3.4,0-5.8,2.6-6.5,6.2c-0.1,0.7-0.2,1.4-0.2,2.2V51h-4.8V32.8z"/><path fill="#FFFFFF" d="M95.4,51l-9.4-36.8h5l4.4,18.6c1.1,4.6,2.1,9.2,2.7,12.7h0.1c0.6-3.7,1.8-8,3-12.8l4.9-18.5h5l4.5,18.7 c1,4.4,2,8.7,2.6,12.6h0.1c0.8-4,1.8-8.1,3-12.7l4.9-18.5h4.9L120.6,51h-5L111,31.9c-1.1-4.7-1.9-8.3-2.4-12h-0.1 c-0.7,3.7-1.5,7.3-2.8,12L100.4,51H95.4z"/><path fill="#FFFFFF" d="M154.9,37.6c0,9.8-6.8,14-13.2,14c-7.2,0-12.7-5.2-12.7-13.6c0-8.8,5.8-14,13.1-14 C149.8,24,154.9,29.5,154.9,37.6z M133.9,37.9c0,5.8,3.3,10.1,8,10.1c4.6,0,8-4.3,8-10.3c0-4.5-2.2-10.1-7.9-10.1 C136.3,27.6,133.9,32.8,133.9,37.9z"/><path fill="#FFFFFF" d="M158.2,32.8c0-3.1-0.1-5.8-0.2-8.2h4.2l0.2,5.2h0.2c1.2-3.5,4.1-5.8,7.3-5.8c0.5,0,0.9,0.1,1.4,0.2v4.5 c-0.5-0.1-1-0.2-1.6-0.2c-3.4,0-5.8,2.6-6.5,6.2c-0.1,0.7-0.2,1.4-0.2,2.2V51h-4.8V32.8z"/><path fill="#FFFFFF" d="M173.5,12.3h4.8V51h-4.8V12.3z"/><path fill="#FFFFFF" d="M206.5,12.3v31.9c0,2.3,0.1,5,0.2,6.8h-4.3l-0.2-4.6H202c-1.5,2.9-4.7,5.2-9,5.2 c-6.4,0-11.3-5.4-11.3-13.4c-0.1-8.8,5.4-14.2,11.9-14.2c4,0,6.8,1.9,8,4h0.1V12.3H206.5z M201.7,35.4c0-0.6-0.1-1.4-0.2-2 c-0.7-3.1-3.3-5.6-6.9-5.6c-5,0-7.9,4.4-7.9,10.2c0,5.3,2.6,9.8,7.8,9.8c3.2,0,6.2-2.1,7.1-5.7c0.2-0.7,0.2-1.3,0.2-2.1V35.4z"/><path fill="#FFFFFF" d="M42.8,64c0.1,1.6-1.1,2.9-3.1,2.9c-1.7,0-2.9-1.3-2.9-2.9c0-1.7,1.3-3,3-3C41.7,61,42.8,62.3,42.8,64z M37.4,97.8V71.4h4.8v26.4H37.4z"/><path fill="#FFFFFF" d="M47.5,78.6c0-2.7-0.1-5-0.2-7.1h4.3l0.3,4.4h0.1c1.3-2.5,4.4-5,8.8-5c3.7,0,9.4,2.2,9.4,11.2v15.8h-4.8 V82.6c0-4.3-1.6-7.8-6.1-7.8c-3.2,0-5.6,2.2-6.5,4.9c-0.2,0.6-0.3,1.4-0.3,2.2v15.9h-4.8V78.6z"/><path fill="#FFFFFF" d="M84,61.6c2.9-0.4,6.3-0.8,10.1-0.8c6.8,0,11.7,1.6,14.9,4.6c3.3,3,5.2,7.3,5.2,13.2c0,6-1.9,10.9-5.3,14.3 c-3.4,3.4-9.1,5.3-16.3,5.3c-3.4,0-6.2-0.2-8.6-0.4V61.6z M88.8,94.1c1.2,0.2,3,0.3,4.8,0.3c10.2,0,15.7-5.7,15.7-15.6 c0.1-8.7-4.9-14.2-14.9-14.2c-2.5,0-4.3,0.2-5.6,0.5V94.1z"/><path fill="#FFFFFF" d="M132.1,97.8l-0.4-3.3h-0.2c-1.5,2.1-4.3,3.9-8.1,3.9c-5.4,0-8.1-3.8-8.1-7.6c0-6.4,5.7-9.9,15.9-9.8v-0.5 c0-2.2-0.6-6.1-6-6.1c-2.5,0-5,0.8-6.9,2l-1.1-3.2c2.2-1.4,5.4-2.3,8.7-2.3c8.1,0,10.1,5.5,10.1,10.8v9.9c0,2.3,0.1,4.5,0.4,6.3 H132.1z M131.4,84.4c-5.3-0.1-11.2,0.8-11.2,5.9c0,3.1,2.1,4.6,4.5,4.6c3.4,0,5.6-2.2,6.4-4.4c0.2-0.5,0.3-1,0.3-1.5V84.4z"/><path fill="#FFFFFF" d="M146.6,63.9v7.6h6.9v3.7h-6.9v14.2c0,3.3,0.9,5.1,3.6,5.1c1.3,0,2.2-0.2,2.8-0.3l0.2,3.6 c-0.9,0.4-2.4,0.7-4.3,0.7c-2.2,0-4-0.7-5.2-2c-1.4-1.4-1.9-3.8-1.9-6.9V75.1h-4.1v-3.7h4.1v-6.3L146.6,63.9z"/><path fill="#FFFFFF" d="M171.4,97.8l-0.4-3.3h-0.2c-1.5,2.1-4.3,3.9-8.1,3.9c-5.4,0-8.1-3.8-8.1-7.6c0-6.4,5.7-9.9,15.9-9.8v-0.5 c0-2.2-0.6-6.1-6-6.1c-2.5,0-5,0.8-6.9,2l-1.1-3.2c2.2-1.4,5.4-2.3,8.7-2.3c8.1,0,10.1,5.5,10.1,10.8v9.9c0,2.3,0.1,4.5,0.4,6.3 H171.4z M170.7,84.4c-5.3-0.1-11.2,0.8-11.2,5.9c0,3.1,2.1,4.6,4.5,4.6c3.4,0,5.6-2.2,6.4-4.4c0.2-0.5,0.3-1,0.3-1.5V84.4z"/></g></g></a></g><a href="https://ourworldindata.org/grapher/Demographic-Transition-Mitchell" target="_blank"><text font-size="21.60" x="15.0" y="32.3" fill="#555"><tspan x="15" y="32.279999999999994">The Demographic Transition: Decline of the death rate followed by a decline</tspan><tspan x="15" y="53.87999999999999">of the birth rate</tspan></text></a><text font-size="14.40" x="15.0" y="72.7" fill="#666"><tspan x="15" y="72.72">Both the birth and death rate are expressed per 1,000 of the population</tspan></text></g><g class="LineChart"><defs><clipPath id="boundsClip-17"><rect x="28.144000000000005" y="0" width="830" height="921.8000000000001"></rect></clipPath></defs><g class="AxisBoxView"><g class="HorizontalAxis"><text x="38.1" y="556.5" fill="#666" text-anchor="middle" font-size="16.2">1749</text><text x="161.7" y="556.5" fill="#666" text-anchor="middle" font-size="16.2">1800</text><text x="282.8" y="556.5" fill="#666" text-anchor="middle" font-size="16.2">1850</text><text x="403.9" y="556.5" fill="#666" text-anchor="middle" font-size="16.2">1900</text><text x="525.1" y="556.5" fill="#666" text-anchor="middle" font-size="16.2">1950</text><text x="670.4" y="556.5" fill="#666" text-anchor="middle" font-size="16.2">2010</text></g><g class="VerticalAxis"><text x="33.14" y="535.3" fill="#666" dominant-baseline="middle" text-anchor="end" font-size="16.2">0</text><text x="33.14" y="451.5" fill="#666" dominant-baseline="middle" text-anchor="end" font-size="16.2">10</text><text x="33.14" y="367.8" fill="#666" dominant-baseline="middle" text-anchor="end" font-size="16.2">20</text><text x="33.14" y="284" fill="#666" dominant-baseline="middle" text-anchor="end" font-size="16.2">30</text><text x="33.14" y="200.3" fill="#666" dominant-baseline="middle" text-anchor="end" font-size="16.2">40</text><text x="33.14" y="116.5" fill="#666" dominant-baseline="middle" text-anchor="end" font-size="16.2">50</text></g><g class="AxisGridLines"><line x1="38.14" y1="535.3" x2="670.40" y2="535.3" stroke="#ccc"></line><line x1="38.14" y1="451.5" x2="670.40" y2="451.5" stroke="#ddd" stroke-dasharray="3,2"></line><line x1="38.14" y1="367.8" x2="670.40" y2="367.8" stroke="#ddd" stroke-dasharray="3,2"></line><line x1="38.14" y1="284" x2="670.40" y2="284" stroke="#ddd" stroke-dasharray="3,2"></line><line x1="38.14" y1="200.3" x2="670.40" y2="200.3" stroke="#ddd" stroke-dasharray="3,2"></line><line x1="38.14" y1="116.5" x2="670.40" y2="116.5" stroke="#ddd" stroke-dasharray="3,2"></line></g></g><g clip-path="url(#boundsClip-17)"><g class="HeightedLegend clickable"><g class="legendMark"><rect x="670.4" y="425.25" width="156.23000000000002" height="13.5" fill="#fff" opacity="0"></rect><text font-size="13.50" x="675.4" y="436.1" fill="#3360a9"><tspan x="675.4" y="436.05">Sweden - Birth Rate</tspan></text></g><g class="legendMark"><rect x="670.4" y="447.75" width="164.60000000000002" height="13.5" fill="#fff" opacity="0"></rect><text font-size="13.50" x="675.4" y="458.6" fill="#ca2628"><tspan x="675.4" y="458.55">Sweden - Death Rate</tspan></text></g></g><g class="Lines"><rect x="38" y="96" width="632" height="440" fill="rgba(255,255,255,0)" opacity="0"></rect><g class="key-Sweden_0"><path stroke="#3360a9" stroke-linecap="round" d="M38 252L41 230L43 211L45 235L48 233L50 224L53 221L55 233L58 262L60 256L62 254L65 236L67 244L70 241L72 242L75 245L77 256L79 252L82 239L84 254L87 258L89 259L91 266L94 293L96 322L99 246L101 237L104 260L106 259L108 244L111 228L113 236L116 255L118 267L121 282L123 272L125 272L128 260L130 272L133 251L135 267L138 280L140 262L142 229L145 247L147 252L150 267L152 245L154 244L157 253L159 267L162 295L164 284L167 270L169 272L171 268L174 270L176 277L179 274L181 281L184 312L186 259L188 240L191 254L193 287L196 274L198 244L200 240L203 256L205 252L208 259L210 259L213 239L215 235L217 227L220 246L222 230L225 244L227 273L230 254L232 243L234 260L237 280L239 277L242 250L244 253L247 261L249 269L251 277L254 289L256 288L259 272L261 282L263 270L266 277L268 266L271 272L273 285L276 287L278 282L280 261L283 268L285 270L288 278L290 272L293 255L295 269L297 272L300 264L302 244L305 242L307 244L310 262L312 256L314 254L317 254L319 261L322 258L324 277L326 305L329 298L331 294L334 281L336 284L339 277L341 277L343 274L346 277L348 275L351 286L353 280L356 289L358 292L360 289L363 293L365 284L368 289L370 286L372 287L375 294L377 303L380 301L382 298L385 309L387 306L389 308L392 305L394 308L397 312L399 308L402 314L404 309L406 309L409 313L411 320L414 319L416 320L419 320L421 322L423 320L426 321L428 328L431 334L433 336L435 341L438 344L440 354L443 358L445 360L448 365L450 370L452 338L455 355L457 371L460 377L462 384L465 388L467 395L469 401L472 401L474 408L477 406L479 411L481 414L484 421L486 421L489 420L491 416L494 415L496 411L498 406L501 409L503 405L506 387L508 374L511 363L513 364L515 370L518 377L520 381L523 390L525 397L528 405L530 406L532 406L535 413L537 411L540 411L542 413L544 416L547 417L549 421L552 419L554 416L557 411L559 401L561 402L564 403L566 406L569 416L571 422L574 421L576 417L578 420L581 422L583 422L586 430L588 435L591 438L593 441L595 438L598 437L600 441L603 442L605 443L607 441L610 437L612 433L615 431L617 424L620 421L622 414L624 415L627 416L629 422L632 430L634 437L637 445L639 450L641 452L644 452L646 450L649 449L651 446L653 442L656 442L658 442L661 438L663 437L666 436L668 435L670 432" fill="none" stroke-width="1.5"></path></g><g class="key-Sweden_1"><path stroke="#ca2628" stroke-linecap="round" d="M38 300L41 310L43 316L45 307L48 334L50 315L53 306L55 303L58 285L60 264L62 315L65 328L67 319L70 274L72 260L75 308L77 303L79 325L82 321L84 308L87 308L89 317L91 303L94 222L96 96L99 348L101 328L104 347L106 327L108 312L111 297L113 354L116 321L118 307L121 300L123 286L125 298L128 318L130 334L133 312L135 258L138 280L140 322L142 335L145 332L147 338L150 302L152 328L154 336L157 342L159 324L162 272L164 317L167 337L169 336L171 327L174 339L176 305L179 316L181 243L184 200L186 271L188 294L191 282L193 306L196 325L198 338L200 345L203 332L205 331L208 306L210 330L213 321L215 346L217 359L220 361L222 364L225 346L227 342L230 312L232 292L234 334L237 318L239 339L242 354L244 320L247 380L249 368L251 328L254 334L256 338L259 364L261 373L263 359L266 355L268 365L271 378L273 353L276 337L278 370L280 370L283 370L285 362L288 345L290 337L293 370L295 355L297 353L300 304L302 354L305 367L307 387L310 380L312 356L314 374L317 365L319 373L322 368L324 371L326 359L329 349L331 370L334 391L336 399L339 391L341 365L343 365L346 371L348 379L351 384L353 394L356 384L358 387L360 390L363 390L365 389L368 386L370 396L372 401L375 401L377 401L380 392L382 395L385 385L387 395L389 398L392 408L394 405L397 406L399 409L402 387L404 395L406 401L409 406L411 409L414 407L416 405L419 415L421 413L423 411L426 421L428 418L431 420L433 416L435 421L438 420L440 412L443 421L445 423L448 385L450 414L452 424L455 431L457 428L460 440L462 435L465 437L467 437L469 429L472 435L474 433L477 437L479 431L481 438L484 442L486 442L489 437L491 435L494 435L496 439L498 439L501 440L503 441L506 452L508 450L511 443L513 445L515 447L518 445L520 453L523 452L525 452L528 452L530 455L532 454L535 455L537 456L540 455L542 452L544 455L547 456L549 452L552 453L554 450L557 451L559 452L561 451L564 451L566 451L569 448L571 447L574 452L576 450L578 449L581 447L583 447L586 445L588 443L591 446L593 445L595 443L598 443L600 442L603 444L605 444L607 444L610 441L612 442L615 442L617 439L620 445L622 442L624 443L627 444L629 442L632 443L634 443L637 447L639 447L641 447L644 446L646 447L649 447L651 447L653 448L656 451L658 450L661 451L663 451L666 452L668 454L670 455" fill="none" stroke-width="1.5"></path></g></g></g></g><g class="SourcesFooter" style="fill:#777"><g class="clickable" style="fill:#777"><text font-size="12.60" x="15.0" y="581.6"><tspan x="15" y="581.58">Source: Brian Mitchell - International Historical Statistics</tspan></text></g><text font-size="12.60" x="507.1" y="581.6"><tspan x="507.148" y="581.58"><a target='_blank' style='fill: #777;' href='https://ourworldindata.org/world-population-growth/'>OurWorldInData.org/world-population-growth/</a> • <a style="fill: #777;" class="cclogo" href="http://creativecommons.org/licenses/by-sa/4.0/deed.en_US" target="_blank">CC BY-SA</a></tspan></text></g></g></svg>