<svg xmlns="http://www.w3.org/2000/svg" version="1.1" style="font-family:&#x27;Helvetica Neue&#x27;, Helvetica, Arial, sans-serif;font-size:18px;background-color:white;text-rendering:optimizeLegibility;-webkit-font-smoothing:antialiased" width="850" height="600"><g class="ChartTab"><g class="HeaderView"><a href="https://ourworldindata.org/grapher/divergence-of-gdp-per-capita-among-latecomers-to-the-capitalist-revolution" target="_blank"><text font-size="21.60" x="15.0" y="32.3" fill="#555"><tspan x="15" y="32.279999999999994">Divergence of GDP per capita among latecomers to the capitalist revolution</tspan><tspan x="15" y="53.87999999999999">(1928–2015)</tspan></text></a><text font-size="14.40" x="15.0" y="72.7" fill="#666"><tspan x="15" y="72.72">Unit 1 &#x27;The capitalist revolution’ Section 1.10 &#x27;Varieties of capitalism: Institutions, government and the economy&#x27; in The CORE</tspan><tspan x="15" y="88.56">Team, The Economy. Available at: https://tinyco.re/2793715 [Figure 1.11]</tspan></text></g><g class="LineChart"><defs><clipPath id="boundsClip-1"><rect x="68.968" y="0" width="830" height="890.8"></rect></clipPath></defs><g class="AxisBoxView"><g class="HorizontalAxis"><text x="79" y="556.5" fill="#666" text-anchor="middle" font-size="16.2">1928</text><text x="161.3" y="556.5" fill="#666" text-anchor="middle" font-size="16.2">1940</text><text x="298.5" y="556.5" fill="#666" text-anchor="middle" font-size="16.2">1960</text><text x="435.8" y="556.5" fill="#666" text-anchor="middle" font-size="16.2">1980</text><text x="573" y="556.5" fill="#666" text-anchor="middle" font-size="16.2">2000</text><text x="675.9" y="556.5" fill="#666" text-anchor="middle" font-size="16.2">2015</text></g><g class="VerticalAxis"><text x="73.97" y="535.3" fill="#666" dominant-baseline="middle" text-anchor="end" font-size="16.2">$0</text><text x="73.97" y="450" fill="#666" dominant-baseline="middle" text-anchor="end" font-size="16.2">$5,000</text><text x="73.97" y="364.7" fill="#666" dominant-baseline="middle" text-anchor="end" font-size="16.2">$10,000</text><text x="73.97" y="279.4" fill="#666" dominant-baseline="middle" text-anchor="end" font-size="16.2">$15,000</text><text x="73.97" y="194" fill="#666" dominant-baseline="middle" text-anchor="end" font-size="16.2">$20,000</text><text x="15" y="103.1" style="font-size:12px;text-transform:uppercase;cursor:pointer" class="clickable"><tspan style="font-family:FontAwesome"></tspan> linear</text></g><g class="AxisGridLines"><line x1="78.97" y1="535.3" x2="675.93" y2="535.3" stroke="#ccc"></line><line x1="78.97" y1="450" x2="675.93" y2="450" stroke="#ddd" stroke-dasharray="3,2"></line><line x1="78.97" y1="364.7" x2="675.93" y2="364.7" stroke="#ddd" stroke-dasharray="3,2"></line><line x1="78.97" y1="279.4" x2="675.93" y2="279.4" stroke="#ddd" stroke-dasharray="3,2"></line><line x1="78.97" y1="194" x2="675.93" y2="194" stroke="#ddd" stroke-dasharray="3,2"></line></g></g><g clip-path="url(#boundsClip-1)"><g class="HeightedLegend clickable"><g class="legendMark"><rect x="675.935" y="104.35" width="110.465" height="13.5" fill="#fff" opacity="0"></rect><text font-size="13.50" x="680.9" y="115.1" fill="#e6332e"><tspan x="680.935" y="115.14999999999999">South Korea</tspan></text></g><g class="legendMark"><rect x="675.935" y="349.45" width="93.05000000000001" height="13.5" fill="#fff" opacity="0"></rect><text font-size="13.50" x="680.9" y="360.3" fill="#2a939b"><tspan x="680.935" y="360.25">Argentina</tspan></text></g><g class="legendMark"><rect x="675.935" y="371.85" width="152.45" height="13.5" fill="#fff" opacity="0"></rect><text font-size="13.50" x="680.9" y="382.7" fill="#a652ba"><tspan x="680.935" y="382.65000000000003">Russian Federation</tspan></text></g><g class="legendMark"><rect x="675.935" y="396.55" width="159.065" height="13.5" fill="#fff" opacity="0"></rect><text font-size="13.50" x="680.9" y="407.4" fill="#f6a324"><tspan x="680.935" y="407.35">Former Soviet Union</tspan></text></g><g class="legendMark"><rect x="675.935" y="410.85" width="68.75" height="13.5" fill="#fff" opacity="0"></rect><text font-size="13.50" x="680.9" y="421.7" fill="#34983f"><tspan x="680.935" y="421.65000000000003">Brazil</tspan></text></g><g class="legendMark"><rect x="675.935" y="439.65" width="94.535" height="13.5" fill="#fff" opacity="0"></rect><text font-size="13.50" x="680.9" y="450.4" fill="#ca2628"><tspan x="680.935" y="450.45">Botswana</tspan></text></g><g class="legendMark"><rect x="675.935" y="492.95" width="77.795" height="13.5" fill="#fff" opacity="0"></rect><text font-size="13.50" x="680.9" y="503.8" fill="#3360a9"><tspan x="680.935" y="503.75">Nigeria</tspan></text></g></g><g class="Lines"><rect x="79" y="111" width="597" height="424" fill="rgba(255,255,255,0)" opacity="0"></rect><g class="key-Argentina_0"><path stroke="#2a939b" stroke-linecap="round" d="M79 462L86 461L93 466L100 472L106 475L113 474L120 470L127 468L134 469L141 465L148 466L154 465L161 464L168 462L175 462L182 464L189 457L196 461L203 456L209 449L216 446L223 449L230 450L237 449L244 455L251 452L257 450L264 446L271 445L278 442L285 438L292 446L299 440L305 435L312 438L319 442L326 434L333 427L340 427L347 426L353 423L360 415L367 411L374 407L381 405L388 399L395 393L402 397L408 399L415 394L422 402L429 395L436 395L443 406L450 412L456 409L463 409L470 419L477 412L484 411L491 415L498 424L504 426L511 417L518 409L525 403L532 397L539 402L546 397L552 388L559 383L566 390L573 392L580 399L587 415L594 407L601 399L607 390L614 380L621 370L628 365L635 372L642 360L649 353L655 357L662 355L669 358L676 356" fill="none" stroke-width="1.5"></path></g><g class="key-Botswana_0"><path stroke="#ca2628" stroke-linecap="round" d="M230 529L237 529L244 529L251 529L257 529L264 529L271 529L278 529L285 529L292 529L299 528L305 528L312 528L319 528L326 528L333 528L340 527L347 527L353 526L360 525L367 524L374 523L381 519L388 516L395 513L402 514L408 512L415 512L422 509L429 508L436 505L443 504L450 503L456 499L463 496L470 495L477 493L484 491L491 485L498 480L504 479L511 478L518 478L525 479L532 479L539 478L546 476L552 474L559 472L566 470L573 466L580 463L587 461L594 460L601 459L607 459L614 457L621 455L628 454L635 462L642 457L649 454L655 452L662 446L669 445L676 446" fill="none" stroke-width="1.5"></path></g><g class="key-Brazil_0"><path stroke="#34983f" stroke-linecap="round" d="M79 516L86 516L93 517L100 518L106 518L113 517L120 516L127 516L134 514L141 514L148 514L154 514L161 514L168 513L175 514L182 512L189 512L196 512L203 510L209 509L216 508L223 507L230 507L237 506L244 505L251 505L257 504L264 502L271 503L278 501L285 499L292 497L299 496L305 494L312 493L319 493L326 493L333 494L340 492L347 492L353 489L360 487L367 483L374 479L381 475L388 469L395 466L402 464L408 459L415 457L422 456L429 452L436 447L443 453L450 454L456 459L463 456L470 452L477 447L484 445L491 447L498 446L504 451L511 452L518 454L525 451L532 448L539 445L546 445L552 443L559 444L566 445L573 443L580 443L587 442L594 442L601 438L607 436L614 433L621 428L628 424L635 425L642 418L649 414L655 413L662 411L669 412L676 418" fill="none" stroke-width="1.5"></path></g><g class="key-Former-Soviet-Union_0"><path stroke="#f6a324" stroke-linecap="round" d="M79 512L86 512L93 511L100 510L106 511L113 510L120 508L127 504L134 501L141 499L148 499L154 497L161 499L168 499L175 500L182 501L189 501L196 502L203 503L209 499L216 494L223 491L230 487L237 487L244 485L251 484L257 482L264 479L271 475L278 474L285 471L292 473L299 468L305 465L312 465L319 467L326 460L333 456L340 453L347 451L353 447L360 446L367 440L374 439L381 439L388 432L395 430L402 431L408 427L415 425L422 423L429 425L436 426L443 426L450 424L456 421L463 421L470 421L477 417L484 417L491 415L498 414L504 418L511 426L518 442L525 451L532 463L539 467L546 469L552 467L559 469L566 465L573 459L580 454L587 450L594 443L601 435L607 428L614 418L621 407L628 401L635 409L642 403" fill="none" stroke-width="1.5"></path></g><g class="key-Nigeria_0"><path stroke="#3360a9" stroke-linecap="round" d="M230 523L237 522L244 521L251 521L257 521L264 521L271 521L278 521L285 522L292 522L299 521L305 521L312 521L319 520L326 520L333 519L340 520L347 523L353 523L360 521L367 517L374 515L381 515L388 514L395 512L402 513L408 512L415 512L422 514L429 513L436 513L443 515L450 516L456 518L463 519L470 518L477 518L484 519L491 518L498 517L504 516L511 517L518 517L525 517L532 518L539 518L546 518L552 518L559 518L566 518L573 518L580 517L587 513L594 512L601 510L607 509L614 508L621 507L628 506L635 505L642 503L649 503L655 502L662 501L669 500L676 500" fill="none" stroke-width="1.5"></path></g><g class="key-Russian-Federation_0"><path stroke="#a652ba" stroke-linecap="round" d="M504 403L511 410L518 428L525 437L532 450L539 453L546 456L552 455L559 459L566 454L573 446L580 441L587 436L594 428L601 419L607 411L614 401L621 389L628 381L635 393L642 388L649 381L655 376L662 374L669 373L676 379" fill="none" stroke-width="1.5"></path></g><g class="key-South-Korea_0"><path stroke="#e6332e" stroke-linecap="round" d="M79 524L86 525L93 525L100 525L106 525L113 523L120 524L127 523L134 522L141 520L148 520L154 522L161 520L168 520L175 520L182 520L189 520L196 520L203 521L209 521L216 521L223 521L230 521L237 522L244 521L251 517L257 516L264 515L271 516L278 515L285 514L292 514L299 514L305 514L312 514L319 513L326 512L333 511L340 509L347 507L353 504L360 501L367 498L374 496L381 493L388 487L395 484L402 481L408 476L415 471L422 466L429 462L436 465L443 462L450 458L456 450L463 444L470 439L477 428L484 417L491 405L498 398L504 387L511 374L518 367L525 358L532 344L539 329L546 316L552 305L559 320L566 298L573 279L580 271L587 254L594 247L601 235L607 224L614 209L621 193L628 186L635 186L642 165L649 152L655 144L662 134L669 121L676 111" fill="none" stroke-width="1.5"></path></g></g></g></g><g class="SourcesFooter" style="fill:#777"><g class="clickable" style="fill:#777"><text font-size="12.60" x="15.0" y="581.6"><tspan x="15" y="581.58">Source: Bolt, van Zanden (2013) and &#x27;The 2015 Total Economy Database&#x27;</tspan></text></g><text font-size="12.60" x="775.4" y="581.6"><tspan x="775.402" y="581.58"><a style="fill: #777;" class="cclogo" href="http://creativecommons.org/licenses/by-sa/4.0/deed.en_US" target="_blank">CC BY-SA</a></tspan></text></g></g></svg>