<svg xmlns="http://www.w3.org/2000/svg" version="1.1" style="font-family: 'Helvetica Neue', Helvetica, Arial, sans-serif; font-size: 18px; background-color: white; text-rendering: optimizeLegibility; -webkit-font-smoothing: antialiased;" width="850" height="600"><g class="ChartTab"><g class="HeaderView"><g opacity="0.8" transform="translate(778, 15) scale(0.27)"><a xmlns:xlink="http://www.w3.org/1999/xlink" xlink:href="https://ourworldindata.org" target="_blank"><g><rect x="0" y="0" fill="#1B2543" width="211.2" height="130.1"/><rect x="0" y="112.2" fill="#E63912" width="211.2" height="17.9"/><g><rect x="1.2" y="12.3" fill="none" width="210.2" height="99.2"/><path fill="#FFFFFF" d="M37.8,32.2c0,12.7-7.7,19.4-17.1,19.4c-9.7,0-16.6-7.5-16.6-18.7c0-11.7,7.3-19.3,17.1-19.3 C31.3,13.7,37.8,21.3,37.8,32.2z M9.2,32.8c0,7.9,4.3,14.9,11.8,14.9c7.5,0,11.8-6.9,11.8-15.3c0-7.3-3.8-14.9-11.8-14.9 C13.1,17.5,9.2,24.8,9.2,32.8z"/><path fill="#FFFFFF" d="M62.7,43.8c0,2.7,0.1,5.1,0.2,7.2h-4.3l-0.3-4.3h-0.1c-1.3,2.1-4,4.9-8.8,4.9c-4.2,0-9.1-2.3-9.1-11.6 V24.6h4.8v14.6c0,5,1.5,8.4,5.9,8.4c3.2,0,5.5-2.2,6.3-4.4c0.3-0.7,0.4-1.6,0.4-2.5V24.6h4.8V43.8z"/><path fill="#FFFFFF" d="M67.3,32.8c0-3.1-0.1-5.8-0.2-8.2h4.2l0.2,5.2h0.2c1.2-3.5,4.1-5.8,7.3-5.8c0.5,0,0.9,0.1,1.4,0.2v4.5 c-0.5-0.1-1-0.2-1.6-0.2c-3.4,0-5.8,2.6-6.5,6.2c-0.1,0.7-0.2,1.4-0.2,2.2V51h-4.8V32.8z"/><path fill="#FFFFFF" d="M95.4,51l-9.4-36.8h5l4.4,18.6c1.1,4.6,2.1,9.2,2.7,12.7h0.1c0.6-3.7,1.8-8,3-12.8l4.9-18.5h5l4.5,18.7 c1,4.4,2,8.7,2.6,12.6h0.1c0.8-4,1.8-8.1,3-12.7l4.9-18.5h4.9L120.6,51h-5L111,31.9c-1.1-4.7-1.9-8.3-2.4-12h-0.1 c-0.7,3.7-1.5,7.3-2.8,12L100.4,51H95.4z"/><path fill="#FFFFFF" d="M154.9,37.6c0,9.8-6.8,14-13.2,14c-7.2,0-12.7-5.2-12.7-13.6c0-8.8,5.8-14,13.1-14 C149.8,24,154.9,29.5,154.9,37.6z M133.9,37.9c0,5.8,3.3,10.1,8,10.1c4.6,0,8-4.3,8-10.3c0-4.5-2.2-10.1-7.9-10.1 C136.3,27.6,133.9,32.8,133.9,37.9z"/><path fill="#FFFFFF" d="M158.2,32.8c0-3.1-0.1-5.8-0.2-8.2h4.2l0.2,5.2h0.2c1.2-3.5,4.1-5.8,7.3-5.8c0.5,0,0.9,0.1,1.4,0.2v4.5 c-0.5-0.1-1-0.2-1.6-0.2c-3.4,0-5.8,2.6-6.5,6.2c-0.1,0.7-0.2,1.4-0.2,2.2V51h-4.8V32.8z"/><path fill="#FFFFFF" d="M173.5,12.3h4.8V51h-4.8V12.3z"/><path fill="#FFFFFF" d="M206.5,12.3v31.9c0,2.3,0.1,5,0.2,6.8h-4.3l-0.2-4.6H202c-1.5,2.9-4.7,5.2-9,5.2 c-6.4,0-11.3-5.4-11.3-13.4c-0.1-8.8,5.4-14.2,11.9-14.2c4,0,6.8,1.9,8,4h0.1V12.3H206.5z M201.7,35.4c0-0.6-0.1-1.4-0.2-2 c-0.7-3.1-3.3-5.6-6.9-5.6c-5,0-7.9,4.4-7.9,10.2c0,5.3,2.6,9.8,7.8,9.8c3.2,0,6.2-2.1,7.1-5.7c0.2-0.7,0.2-1.3,0.2-2.1V35.4z"/><path fill="#FFFFFF" d="M42.8,64c0.1,1.6-1.1,2.9-3.1,2.9c-1.7,0-2.9-1.3-2.9-2.9c0-1.7,1.3-3,3-3C41.7,61,42.8,62.3,42.8,64z M37.4,97.8V71.4h4.8v26.4H37.4z"/><path fill="#FFFFFF" d="M47.5,78.6c0-2.7-0.1-5-0.2-7.1h4.3l0.3,4.4h0.1c1.3-2.5,4.4-5,8.8-5c3.7,0,9.4,2.2,9.4,11.2v15.8h-4.8 V82.6c0-4.3-1.6-7.8-6.1-7.8c-3.2,0-5.6,2.2-6.5,4.9c-0.2,0.6-0.3,1.4-0.3,2.2v15.9h-4.8V78.6z"/><path fill="#FFFFFF" d="M84,61.6c2.9-0.4,6.3-0.8,10.1-0.8c6.8,0,11.7,1.6,14.9,4.6c3.3,3,5.2,7.3,5.2,13.2c0,6-1.9,10.9-5.3,14.3 c-3.4,3.4-9.1,5.3-16.3,5.3c-3.4,0-6.2-0.2-8.6-0.4V61.6z M88.8,94.1c1.2,0.2,3,0.3,4.8,0.3c10.2,0,15.7-5.7,15.7-15.6 c0.1-8.7-4.9-14.2-14.9-14.2c-2.5,0-4.3,0.2-5.6,0.5V94.1z"/><path fill="#FFFFFF" d="M132.1,97.8l-0.4-3.3h-0.2c-1.5,2.1-4.3,3.9-8.1,3.9c-5.4,0-8.1-3.8-8.1-7.6c0-6.4,5.7-9.9,15.9-9.8v-0.5 c0-2.2-0.6-6.1-6-6.1c-2.5,0-5,0.8-6.9,2l-1.1-3.2c2.2-1.4,5.4-2.3,8.7-2.3c8.1,0,10.1,5.5,10.1,10.8v9.9c0,2.3,0.1,4.5,0.4,6.3 H132.1z M131.4,84.4c-5.3-0.1-11.2,0.8-11.2,5.9c0,3.1,2.1,4.6,4.5,4.6c3.4,0,5.6-2.2,6.4-4.4c0.2-0.5,0.3-1,0.3-1.5V84.4z"/><path fill="#FFFFFF" d="M146.6,63.9v7.6h6.9v3.7h-6.9v14.2c0,3.3,0.9,5.1,3.6,5.1c1.3,0,2.2-0.2,2.8-0.3l0.2,3.6 c-0.9,0.4-2.4,0.7-4.3,0.7c-2.2,0-4-0.7-5.2-2c-1.4-1.4-1.9-3.8-1.9-6.9V75.1h-4.1v-3.7h4.1v-6.3L146.6,63.9z"/><path fill="#FFFFFF" d="M171.4,97.8l-0.4-3.3h-0.2c-1.5,2.1-4.3,3.9-8.1,3.9c-5.4,0-8.1-3.8-8.1-7.6c0-6.4,5.7-9.9,15.9-9.8v-0.5 c0-2.2-0.6-6.1-6-6.1c-2.5,0-5,0.8-6.9,2l-1.1-3.2c2.2-1.4,5.4-2.3,8.7-2.3c8.1,0,10.1,5.5,10.1,10.8v9.9c0,2.3,0.1,4.5,0.4,6.3 H171.4z M170.7,84.4c-5.3-0.1-11.2,0.8-11.2,5.9c0,3.1,2.1,4.6,4.5,4.6c3.4,0,5.6-2.2,6.4-4.4c0.2-0.5,0.3-1,0.3-1.5V84.4z"/></g></g></a></g><a href="https://ourworldindata.org/grapher/economic-losses-from-disasters-share-gdp" target="_blank"><text font-size="25.20" x="15.0" y="35.2" fill="#555"><tspan x="15" y="35.160000000000004">Global economic losses from disasters as a share of GDP</tspan></text></a><text font-size="14.40" x="15.0" y="53.7" fill="#666"><tspan x="15" y="53.72">Economic losses from disasters shown as a share of global gross domestic product (GDP). This is shown based on</tspan><tspan x="15" y="69.56">two sources of economic loss data: Munich Re and Aon Benfield. This is shown for total disaster losses, in addition to</tspan><tspan x="15" y="85.4">weather-related disasters only.</tspan></text></g><g class="LineChart"><defs><clipPath id="boundsClip-1"><rect x="47.098" y="0" width="830" height="841.1999999999999"></rect></clipPath></defs><g class="AxisBoxView"><g class="HorizontalAxis"><text x="57.1" y="528.1999999999999" fill="#666" text-anchor="middle" font-size="16.2">1990</text><text x="153.4" y="528.1999999999999" fill="#666" text-anchor="middle" font-size="16.2">1995</text><text x="249.7" y="528.1999999999999" fill="#666" text-anchor="middle" font-size="16.2">2000</text><text x="346.1" y="528.1999999999999" fill="#666" text-anchor="middle" font-size="16.2">2005</text><text x="442.4" y="528.1999999999999" fill="#666" text-anchor="middle" font-size="16.2">2010</text><text x="577.3" y="528.1999999999999" fill="#666" text-anchor="middle" font-size="16.2">2017</text></g><g class="VerticalAxis"><text x="52.10" y="507" fill="#666" dominant-baseline="middle" text-anchor="end" font-size="16.2">0%</text><text x="52.10" y="440.4" fill="#666" dominant-baseline="middle" text-anchor="end" font-size="16.2">0.1%</text><text x="52.10" y="373.9" fill="#666" dominant-baseline="middle" text-anchor="end" font-size="16.2">0.2%</text><text x="52.10" y="307.3" fill="#666" dominant-baseline="middle" text-anchor="end" font-size="16.2">0.3%</text><text x="52.10" y="240.7" fill="#666" dominant-baseline="middle" text-anchor="end" font-size="16.2">0.4%</text><text x="52.10" y="174.2" fill="#666" dominant-baseline="middle" text-anchor="end" font-size="16.2">0.5%</text><text x="52.10" y="107.6" fill="#666" dominant-baseline="middle" text-anchor="end" font-size="16.2">0.6%</text></g><g class="AxisGridLines"><line x1="57.10" y1="507" x2="577.25" y2="507" stroke="#ccc"></line><line x1="57.10" y1="440.4" x2="577.25" y2="440.4" stroke="#ddd" stroke-dasharray="3,2"></line><line x1="57.10" y1="373.9" x2="577.25" y2="373.9" stroke="#ddd" stroke-dasharray="3,2"></line><line x1="57.10" y1="307.3" x2="577.25" y2="307.3" stroke="#ddd" stroke-dasharray="3,2"></line><line x1="57.10" y1="240.7" x2="577.25" y2="240.7" stroke="#ddd" stroke-dasharray="3,2"></line><line x1="57.10" y1="174.2" x2="577.25" y2="174.2" stroke="#ddd" stroke-dasharray="3,2"></line><line x1="57.10" y1="107.6" x2="577.25" y2="107.6" stroke="#ddd" stroke-dasharray="3,2"></line></g></g><g clip-path="url(#boundsClip-1)"><g class="HeightedLegend clickable"><g class="legendMark"><g class="indicator"><line x1="582.25" y1="207.5" x2="604.75" y2="207.5" stroke="#666" stroke-width="0.5"></line><line x1="604.75" y1="207.5" x2="604.75" y2="207.5" stroke="#666" stroke-width="0.5"></line><line x1="604.75" y1="207.5" x2="607.25" y2="207.5" stroke="#666" stroke-width="0.5"></line></g><rect x="577.25" y="200.75" width="248.03" height="13.5" fill="#fff" opacity="0"></rect><text font-size="13.50" x="612.3" y="211.6" fill="#f6a324"><tspan x="612.25" y="211.55">Total disaster losses (Aon Benfield)</tspan></text></g><g class="legendMark"><g class="indicator"><line x1="582.25" y1="220.8" x2="599.75" y2="220.8" stroke="#666" stroke-width="0.5"></line><line x1="599.75" y1="220.8" x2="599.75" y2="223" stroke="#666" stroke-width="0.5"></line><line x1="599.75" y1="223" x2="607.25" y2="223" stroke="#666" stroke-width="0.5"></line></g><rect x="577.25" y="216.25" width="235.745" height="13.5" fill="#fff" opacity="0"></rect><text font-size="13.50" x="612.3" y="227.1" fill="#34983f"><tspan x="612.25" y="227.05">Total disaster losses (Munich Re)</tspan></text></g><g class="legendMark"><g class="indicator"><line x1="582.25" y1="240.7" x2="594.75" y2="240.7" stroke="#666" stroke-width="0.5"></line><line x1="594.75" y1="240.7" x2="594.75" y2="245.8" stroke="#666" stroke-width="0.5"></line><line x1="594.75" y1="245.8" x2="607.25" y2="245.8" stroke="#666" stroke-width="0.5"></line></g><rect x="577.25" y="231.75" width="225.35000000000002" height="28.1" fill="#fff" opacity="0"></rect><text font-size="13.50" x="612.3" y="242.6" fill="#3360a9"><tspan x="612.25" y="242.55">Weather-related disaster losses</tspan><tspan x="612.25" y="257.40000000000003">(Munich Re)</tspan></text></g><g class="legendMark"><g class="indicator"><line x1="582.25" y1="240.7" x2="589.75" y2="240.7" stroke="#666" stroke-width="0.5"></line><line x1="589.75" y1="240.7" x2="589.75" y2="275.90000000000003" stroke="#666" stroke-width="0.5"></line><line x1="589.75" y1="275.90000000000003" x2="607.25" y2="275.90000000000003" stroke="#666" stroke-width="0.5"></line></g><rect x="577.25" y="261.85" width="257.75" height="28.1" fill="#fff" opacity="0"></rect><text font-size="13.50" x="612.3" y="272.7" fill="#ca2628"><tspan x="612.25" y="272.65000000000003">Weather-related disaster losses (Aon</tspan><tspan x="612.25" y="287.50000000000006">Benfield)</tspan></text></g></g><g class="Lines"><rect x="57" y="108" width="520" height="399" fill="rgba(255,255,255,0)" opacity="0"></rect><g class="key-World_0"><path stroke="#3360a9" stroke-linecap="round" d="M57 361L76 341L96 314L115 274L134 374L153 354L173 334L192 407L211 254L231 321L250 414L269 440L288 334L308 387L327 327L346 188L365 427L385 407L404 367L423 434L442 387L462 361L481 374L500 401L520 427L539 434L558 387L577 241" fill="none" stroke-width="1.5"></path><g fill="#3360a9"><circle cx="57" cy="361" r="2"></circle><circle cx="76" cy="341" r="2"></circle><circle cx="96" cy="314" r="2"></circle><circle cx="115" cy="274" r="2"></circle><circle cx="134" cy="374" r="2"></circle><circle cx="153" cy="354" r="2"></circle><circle cx="173" cy="334" r="2"></circle><circle cx="192" cy="407" r="2"></circle><circle cx="211" cy="254" r="2"></circle><circle cx="231" cy="321" r="2"></circle><circle cx="250" cy="414" r="2"></circle><circle cx="269" cy="440" r="2"></circle><circle cx="288" cy="334" r="2"></circle><circle cx="308" cy="387" r="2"></circle><circle cx="327" cy="327" r="2"></circle><circle cx="346" cy="188" r="2"></circle><circle cx="365" cy="427" r="2"></circle><circle cx="385" cy="407" r="2"></circle><circle cx="404" cy="367" r="2"></circle><circle cx="423" cy="434" r="2"></circle><circle cx="442" cy="387" r="2"></circle><circle cx="462" cy="361" r="2"></circle><circle cx="481" cy="374" r="2"></circle><circle cx="500" cy="401" r="2"></circle><circle cx="520" cy="427" r="2"></circle><circle cx="539" cy="434" r="2"></circle><circle cx="558" cy="387" r="2"></circle><circle cx="577" cy="241" r="2"></circle></g></g><g class="key-World_1"><path stroke="#ca2628" stroke-linecap="round" d="M250 387L269 421L288 354L308 381L327 341L346 174L365 427L385 407L404 367L423 434L442 387L462 361L481 374L500 401L520 427L539 434L558 387L577 241" fill="none" stroke-width="1.5"></path><g fill="#ca2628"><circle cx="250" cy="387" r="2"></circle><circle cx="269" cy="421" r="2"></circle><circle cx="288" cy="354" r="2"></circle><circle cx="308" cy="381" r="2"></circle><circle cx="327" cy="341" r="2"></circle><circle cx="346" cy="174" r="2"></circle><circle cx="365" cy="427" r="2"></circle><circle cx="385" cy="407" r="2"></circle><circle cx="404" cy="367" r="2"></circle><circle cx="423" cy="434" r="2"></circle><circle cx="442" cy="387" r="2"></circle><circle cx="462" cy="361" r="2"></circle><circle cx="481" cy="374" r="2"></circle><circle cx="500" cy="401" r="2"></circle><circle cx="520" cy="427" r="2"></circle><circle cx="539" cy="434" r="2"></circle><circle cx="558" cy="387" r="2"></circle><circle cx="577" cy="241" r="2"></circle></g></g><g class="key-World_2"><path stroke="#34983f" stroke-linecap="round" d="M57 347L76 327L96 301L115 267L134 261L153 208L173 334L192 387L211 254L231 234L250 407L269 421L288 334L308 374L327 267L346 174L365 421L385 387L404 261L423 427L442 341L462 181L481 354L500 387L520 421L539 414L558 347L577 221" fill="none" stroke-width="1.5"></path><g fill="#34983f"><circle cx="57" cy="347" r="2"></circle><circle cx="76" cy="327" r="2"></circle><circle cx="96" cy="301" r="2"></circle><circle cx="115" cy="267" r="2"></circle><circle cx="134" cy="261" r="2"></circle><circle cx="153" cy="208" r="2"></circle><circle cx="173" cy="334" r="2"></circle><circle cx="192" cy="387" r="2"></circle><circle cx="211" cy="254" r="2"></circle><circle cx="231" cy="234" r="2"></circle><circle cx="250" cy="407" r="2"></circle><circle cx="269" cy="421" r="2"></circle><circle cx="288" cy="334" r="2"></circle><circle cx="308" cy="374" r="2"></circle><circle cx="327" cy="267" r="2"></circle><circle cx="346" cy="174" r="2"></circle><circle cx="365" cy="421" r="2"></circle><circle cx="385" cy="387" r="2"></circle><circle cx="404" cy="261" r="2"></circle><circle cx="423" cy="427" r="2"></circle><circle cx="442" cy="341" r="2"></circle><circle cx="462" cy="181" r="2"></circle><circle cx="481" cy="354" r="2"></circle><circle cx="500" cy="387" r="2"></circle><circle cx="520" cy="421" r="2"></circle><circle cx="539" cy="414" r="2"></circle><circle cx="558" cy="347" r="2"></circle><circle cx="577" cy="221" r="2"></circle></g></g><g class="key-World_3"><path stroke="#f6a324" stroke-linecap="round" d="M250 387L269 407L288 347L308 361L327 281L346 168L365 421L385 401L404 267L423 414L442 261L462 108L481 321L500 334L520 394L539 394L558 307L577 208" fill="none" stroke-width="1.5"></path><g fill="#f6a324"><circle cx="250" cy="387" r="2"></circle><circle cx="269" cy="407" r="2"></circle><circle cx="288" cy="347" r="2"></circle><circle cx="308" cy="361" r="2"></circle><circle cx="327" cy="281" r="2"></circle><circle cx="346" cy="168" r="2"></circle><circle cx="365" cy="421" r="2"></circle><circle cx="385" cy="401" r="2"></circle><circle cx="404" cy="267" r="2"></circle><circle cx="423" cy="414" r="2"></circle><circle cx="442" cy="261" r="2"></circle><circle cx="462" cy="108" r="2"></circle><circle cx="481" cy="321" r="2"></circle><circle cx="500" cy="334" r="2"></circle><circle cx="520" cy="394" r="2"></circle><circle cx="539" cy="394" r="2"></circle><circle cx="558" cy="307" r="2"></circle><circle cx="577" cy="208" r="2"></circle></g></g></g></g></g><g style="fill: #777;" class="SourcesFooter"><g style="fill: #777;" class="clickable"><text font-size="12.60" x="15.0" y="553.3"><tspan x="15" y="553.2800000000001">Source: Pielke, R. (2018). Tracking progress on the economic costs of disasters under the indicators of the sustainable development goals.</tspan><tspan x="15" y="567.1400000000001">Environmental Hazards, 1-6.</tspan></text></g><text font-size="12.60" x="15.0" y="582.5"><tspan x="15" y="582.48"><a style="fill: #777;" class="cclogo" href="http://creativecommons.org/licenses/by-sa/4.0/deed.en_US" target="_blank">CC BY-SA</a></tspan></text></g></g></svg>