<svg xmlns="http://www.w3.org/2000/svg" version="1.1" style="font-family: 'Helvetica Neue', Helvetica, Arial, sans-serif; font-size: 18px; background-color: white; text-rendering: optimizeLegibility; -webkit-font-smoothing: antialiased;" width="850" height="600"><g class="ChartTab"><g class="HeaderView"><g opacity="0.8" transform="translate(778, 15) scale(0.27)"><a xmlns:xlink="http://www.w3.org/1999/xlink" xlink:href="https://ourworldindata.org" target="_blank"><g><rect x="0" y="0" fill="#1B2543" width="211.2" height="130.1"/><rect x="0" y="112.2" fill="#E63912" width="211.2" height="17.9"/><g><rect x="1.2" y="12.3" fill="none" width="210.2" height="99.2"/><path fill="#FFFFFF" d="M37.8,32.2c0,12.7-7.7,19.4-17.1,19.4c-9.7,0-16.6-7.5-16.6-18.7c0-11.7,7.3-19.3,17.1-19.3 C31.3,13.7,37.8,21.3,37.8,32.2z M9.2,32.8c0,7.9,4.3,14.9,11.8,14.9c7.5,0,11.8-6.9,11.8-15.3c0-7.3-3.8-14.9-11.8-14.9 C13.1,17.5,9.2,24.8,9.2,32.8z"/><path fill="#FFFFFF" d="M62.7,43.8c0,2.7,0.1,5.1,0.2,7.2h-4.3l-0.3-4.3h-0.1c-1.3,2.1-4,4.9-8.8,4.9c-4.2,0-9.1-2.3-9.1-11.6 V24.6h4.8v14.6c0,5,1.5,8.4,5.9,8.4c3.2,0,5.5-2.2,6.3-4.4c0.3-0.7,0.4-1.6,0.4-2.5V24.6h4.8V43.8z"/><path fill="#FFFFFF" d="M67.3,32.8c0-3.1-0.1-5.8-0.2-8.2h4.2l0.2,5.2h0.2c1.2-3.5,4.1-5.8,7.3-5.8c0.5,0,0.9,0.1,1.4,0.2v4.5 c-0.5-0.1-1-0.2-1.6-0.2c-3.4,0-5.8,2.6-6.5,6.2c-0.1,0.7-0.2,1.4-0.2,2.2V51h-4.8V32.8z"/><path fill="#FFFFFF" d="M95.4,51l-9.4-36.8h5l4.4,18.6c1.1,4.6,2.1,9.2,2.7,12.7h0.1c0.6-3.7,1.8-8,3-12.8l4.9-18.5h5l4.5,18.7 c1,4.4,2,8.7,2.6,12.6h0.1c0.8-4,1.8-8.1,3-12.7l4.9-18.5h4.9L120.6,51h-5L111,31.9c-1.1-4.7-1.9-8.3-2.4-12h-0.1 c-0.7,3.7-1.5,7.3-2.8,12L100.4,51H95.4z"/><path fill="#FFFFFF" d="M154.9,37.6c0,9.8-6.8,14-13.2,14c-7.2,0-12.7-5.2-12.7-13.6c0-8.8,5.8-14,13.1-14 C149.8,24,154.9,29.5,154.9,37.6z M133.9,37.9c0,5.8,3.3,10.1,8,10.1c4.6,0,8-4.3,8-10.3c0-4.5-2.2-10.1-7.9-10.1 C136.3,27.6,133.9,32.8,133.9,37.9z"/><path fill="#FFFFFF" d="M158.2,32.8c0-3.1-0.1-5.8-0.2-8.2h4.2l0.2,5.2h0.2c1.2-3.5,4.1-5.8,7.3-5.8c0.5,0,0.9,0.1,1.4,0.2v4.5 c-0.5-0.1-1-0.2-1.6-0.2c-3.4,0-5.8,2.6-6.5,6.2c-0.1,0.7-0.2,1.4-0.2,2.2V51h-4.8V32.8z"/><path fill="#FFFFFF" d="M173.5,12.3h4.8V51h-4.8V12.3z"/><path fill="#FFFFFF" d="M206.5,12.3v31.9c0,2.3,0.1,5,0.2,6.8h-4.3l-0.2-4.6H202c-1.5,2.9-4.7,5.2-9,5.2 c-6.4,0-11.3-5.4-11.3-13.4c-0.1-8.8,5.4-14.2,11.9-14.2c4,0,6.8,1.9,8,4h0.1V12.3H206.5z M201.7,35.4c0-0.6-0.1-1.4-0.2-2 c-0.7-3.1-3.3-5.6-6.9-5.6c-5,0-7.9,4.4-7.9,10.2c0,5.3,2.6,9.8,7.8,9.8c3.2,0,6.2-2.1,7.1-5.7c0.2-0.7,0.2-1.3,0.2-2.1V35.4z"/><path fill="#FFFFFF" d="M42.8,64c0.1,1.6-1.1,2.9-3.1,2.9c-1.7,0-2.9-1.3-2.9-2.9c0-1.7,1.3-3,3-3C41.7,61,42.8,62.3,42.8,64z M37.4,97.8V71.4h4.8v26.4H37.4z"/><path fill="#FFFFFF" d="M47.5,78.6c0-2.7-0.1-5-0.2-7.1h4.3l0.3,4.4h0.1c1.3-2.5,4.4-5,8.8-5c3.7,0,9.4,2.2,9.4,11.2v15.8h-4.8 V82.6c0-4.3-1.6-7.8-6.1-7.8c-3.2,0-5.6,2.2-6.5,4.9c-0.2,0.6-0.3,1.4-0.3,2.2v15.9h-4.8V78.6z"/><path fill="#FFFFFF" d="M84,61.6c2.9-0.4,6.3-0.8,10.1-0.8c6.8,0,11.7,1.6,14.9,4.6c3.3,3,5.2,7.3,5.2,13.2c0,6-1.9,10.9-5.3,14.3 c-3.4,3.4-9.1,5.3-16.3,5.3c-3.4,0-6.2-0.2-8.6-0.4V61.6z M88.8,94.1c1.2,0.2,3,0.3,4.8,0.3c10.2,0,15.7-5.7,15.7-15.6 c0.1-8.7-4.9-14.2-14.9-14.2c-2.5,0-4.3,0.2-5.6,0.5V94.1z"/><path fill="#FFFFFF" d="M132.1,97.8l-0.4-3.3h-0.2c-1.5,2.1-4.3,3.9-8.1,3.9c-5.4,0-8.1-3.8-8.1-7.6c0-6.4,5.7-9.9,15.9-9.8v-0.5 c0-2.2-0.6-6.1-6-6.1c-2.5,0-5,0.8-6.9,2l-1.1-3.2c2.2-1.4,5.4-2.3,8.7-2.3c8.1,0,10.1,5.5,10.1,10.8v9.9c0,2.3,0.1,4.5,0.4,6.3 H132.1z M131.4,84.4c-5.3-0.1-11.2,0.8-11.2,5.9c0,3.1,2.1,4.6,4.5,4.6c3.4,0,5.6-2.2,6.4-4.4c0.2-0.5,0.3-1,0.3-1.5V84.4z"/><path fill="#FFFFFF" d="M146.6,63.9v7.6h6.9v3.7h-6.9v14.2c0,3.3,0.9,5.1,3.6,5.1c1.3,0,2.2-0.2,2.8-0.3l0.2,3.6 c-0.9,0.4-2.4,0.7-4.3,0.7c-2.2,0-4-0.7-5.2-2c-1.4-1.4-1.9-3.8-1.9-6.9V75.1h-4.1v-3.7h4.1v-6.3L146.6,63.9z"/><path fill="#FFFFFF" d="M171.4,97.8l-0.4-3.3h-0.2c-1.5,2.1-4.3,3.9-8.1,3.9c-5.4,0-8.1-3.8-8.1-7.6c0-6.4,5.7-9.9,15.9-9.8v-0.5 c0-2.2-0.6-6.1-6-6.1c-2.5,0-5,0.8-6.9,2l-1.1-3.2c2.2-1.4,5.4-2.3,8.7-2.3c8.1,0,10.1,5.5,10.1,10.8v9.9c0,2.3,0.1,4.5,0.4,6.3 H171.4z M170.7,84.4c-5.3-0.1-11.2,0.8-11.2,5.9c0,3.1,2.1,4.6,4.5,4.6c3.4,0,5.6-2.2,6.4-4.4c0.2-0.5,0.3-1,0.3-1.5V84.4z"/></g></g></a></g><a href="https://ourworldindata.org/grapher/five-year-cancer-survival-rates-by-sex-and-race" target="_blank"><text font-size="25.20" x="15.0" y="35.2" fill="#555"><tspan x="15" y="35.160000000000004">Five-year cancer survival rates by sex and race</tspan></text></a><text font-size="14.40" x="15.0" y="53.7" fill="#666"><tspan x="15" y="53.72">Percentage of cancer patients surviving at least five years following diagnosis of any cancer type. This is shown by</tspan><tspan x="15" y="69.56">sex and race in the United States.</tspan></text></g><g class="LineChart"><defs><clipPath id="boundsClip-1177"><rect x="42.562" y="0" width="830" height="928.8"></rect></clipPath></defs><g class="AxisBoxView"><g class="HorizontalAxis"><text x="52.6" y="556.5" fill="#666" text-anchor="middle" font-size="16.2">1963</text><text x="142.7" y="556.5" fill="#666" text-anchor="middle" font-size="16.2">1970</text><text x="271.4" y="556.5" fill="#666" text-anchor="middle" font-size="16.2">1980</text><text x="400.1" y="556.5" fill="#666" text-anchor="middle" font-size="16.2">1990</text><text x="528.8" y="556.5" fill="#666" text-anchor="middle" font-size="16.2">2000</text><text x="696.1" y="556.5" fill="#666" text-anchor="middle" font-size="16.2">2013</text></g><g class="VerticalAxis"><text x="47.56" y="535.3" fill="#666" dominant-baseline="middle" text-anchor="end" font-size="16.2">0%</text><text x="47.56" y="472.1" fill="#666" dominant-baseline="middle" text-anchor="end" font-size="16.2">10%</text><text x="47.56" y="408.9" fill="#666" dominant-baseline="middle" text-anchor="end" font-size="16.2">20%</text><text x="47.56" y="345.6" fill="#666" dominant-baseline="middle" text-anchor="end" font-size="16.2">30%</text><text x="47.56" y="282.4" fill="#666" dominant-baseline="middle" text-anchor="end" font-size="16.2">40%</text><text x="47.56" y="219.2" fill="#666" dominant-baseline="middle" text-anchor="end" font-size="16.2">50%</text><text x="47.56" y="156" fill="#666" dominant-baseline="middle" text-anchor="end" font-size="16.2">60%</text><text x="47.56" y="92.7" fill="#666" dominant-baseline="middle" text-anchor="end" font-size="16.2">70%</text></g><g class="AxisGridLines"><line x1="52.56" y1="535.3" x2="696.10" y2="535.3" stroke="#ccc"></line><line x1="52.56" y1="472.1" x2="696.10" y2="472.1" stroke="#ddd" stroke-dasharray="3,2"></line><line x1="52.56" y1="408.9" x2="696.10" y2="408.9" stroke="#ddd" stroke-dasharray="3,2"></line><line x1="52.56" y1="345.6" x2="696.10" y2="345.6" stroke="#ddd" stroke-dasharray="3,2"></line><line x1="52.56" y1="282.4" x2="696.10" y2="282.4" stroke="#ddd" stroke-dasharray="3,2"></line><line x1="52.56" y1="219.2" x2="696.10" y2="219.2" stroke="#ddd" stroke-dasharray="3,2"></line><line x1="52.56" y1="156" x2="696.10" y2="156" stroke="#ddd" stroke-dasharray="3,2"></line><line x1="52.56" y1="92.7" x2="696.10" y2="92.7" stroke="#ddd" stroke-dasharray="3,2"></line></g></g><g clip-path="url(#boundsClip-1177)"><g class="HeightedLegend clickable"><g class="legendMark"><rect x="706.096" y="84.89999999999999" width="110.47200000000001" height="14.4" fill="#fff" opacity="0"></rect><rect x="706.096" y="90.85" width="10" height="2.5" fill="#ffd53e"></rect><text font-size="14.40" x="721.1" y="96.4" fill="#333"><tspan x="721.096" y="96.42">White, females</tspan></text></g><g class="legendMark"><rect x="706.096" y="99.3" width="98.376" height="14.4" fill="#fff" opacity="0"></rect><rect x="706.096" y="105.25" width="10" height="2.5" fill="#9ecc8a"></rect><text font-size="14.40" x="721.1" y="110.8" fill="#333"><tspan x="721.096" y="110.82000000000001">White, males</tspan></text></g><g class="legendMark"><rect x="706.096" y="113.7" width="87.28800000000001" height="14.4" fill="#fff" opacity="0"></rect><rect x="706.096" y="119.65" width="10" height="2.5" fill="#e6332e"></rect><text font-size="14.40" x="721.1" y="125.2" fill="#333"><tspan x="721.096" y="125.22">White, total</tspan></text></g><g class="legendMark"><rect x="706.096" y="128.1" width="116.808" height="14.4" fill="#fff" opacity="0"></rect><rect x="706.096" y="134.04999999999998" width="10" height="2.5" fill="#2a939b"></rect><text font-size="14.40" x="721.1" y="139.6" fill="#333"><tspan x="721.096" y="139.62">All races, males</tspan></text></g><g class="legendMark"><rect x="706.096" y="142.5" width="105.72000000000001" height="14.4" fill="#fff" opacity="0"></rect><rect x="706.096" y="148.45" width="10" height="2.5" fill="#a652ba"></rect><text font-size="14.40" x="721.1" y="154.0" fill="#333"><tspan x="721.096" y="154.02">All races, total</tspan></text></g><g class="legendMark"><rect x="706.096" y="156.9" width="128.904" height="14.4" fill="#fff" opacity="0"></rect><rect x="706.096" y="162.85" width="10" height="2.5" fill="#f6a324"></rect><text font-size="14.40" x="721.1" y="168.4" fill="#333"><tspan x="721.096" y="168.42000000000002">All races, females</tspan></text></g><g class="legendMark"><rect x="706.096" y="171.3" width="96.79200000000002" height="14.4" fill="#fff" opacity="0"></rect><rect x="706.096" y="177.25" width="10" height="2.5" fill="#34983f"></rect><text font-size="14.40" x="721.1" y="182.8" fill="#333"><tspan x="721.096" y="182.82000000000002">Black, males</tspan></text></g><g class="legendMark"><rect x="706.096" y="185.70000000000002" width="85.70400000000001" height="14.4" fill="#fff" opacity="0"></rect><rect x="706.096" y="191.65" width="10" height="2.5" fill="#ca2628"></rect><text font-size="14.40" x="721.1" y="197.2" fill="#333"><tspan x="721.096" y="197.22000000000003">Black, total</tspan></text></g><g class="legendMark"><rect x="706.096" y="200.10000000000002" width="108.888" height="14.4" fill="#fff" opacity="0"></rect><rect x="706.096" y="206.05" width="10" height="2.5" fill="#3360a9"></rect><text font-size="14.40" x="721.1" y="211.6" fill="#333"><tspan x="721.096" y="211.62000000000003">Black, females</tspan></text></g></g><g class="Lines"><rect x="53" y="92" width="644" height="443" fill="rgba(255,255,255,0)" opacity="0"></rect><g class="key-All-races__002c-females_0"><path stroke="#f6a324" stroke-linecap="round" d="M233 182L271 188L310 187L349 171L387 159L426 150L464 145L503 133L542 120L606 112L696 98" fill="none" stroke-width="1.5"></path><g fill="#f6a324"><circle cx="233" cy="182" r="2"></circle><circle cx="271" cy="188" r="2"></circle><circle cx="310" cy="187" r="2"></circle><circle cx="349" cy="171" r="2"></circle><circle cx="387" cy="159" r="2"></circle><circle cx="426" cy="150" r="2"></circle><circle cx="464" cy="145" r="2"></circle><circle cx="503" cy="133" r="2"></circle><circle cx="542" cy="120" r="2"></circle><circle cx="606" cy="112" r="2"></circle><circle cx="696" cy="98" r="2"></circle></g></g><g class="key-All-races__002c-males_0"><path stroke="#2a939b" stroke-linecap="round" d="M233 272L271 263L310 250L349 237L387 212L426 162L464 151L503 137L542 116L606 105L696 98" fill="none" stroke-width="1.5"></path><g fill="#2a939b"><circle cx="233" cy="272" r="2"></circle><circle cx="271" cy="263" r="2"></circle><circle cx="310" cy="250" r="2"></circle><circle cx="349" cy="237" r="2"></circle><circle cx="387" cy="212" r="2"></circle><circle cx="426" cy="162" r="2"></circle><circle cx="464" cy="151" r="2"></circle><circle cx="503" cy="137" r="2"></circle><circle cx="542" cy="116" r="2"></circle><circle cx="606" cy="105" r="2"></circle><circle cx="696" cy="98" r="2"></circle></g></g><g class="key-All-races__002c-total_0"><path stroke="#a652ba" stroke-linecap="round" d="M233 226L271 226L310 218L349 204L387 186L426 157L464 148L503 135L542 118L606 109L696 98" fill="none" stroke-width="1.5"></path><g fill="#a652ba"><circle cx="233" cy="226" r="2"></circle><circle cx="271" cy="226" r="2"></circle><circle cx="310" cy="218" r="2"></circle><circle cx="349" cy="204" r="2"></circle><circle cx="387" cy="186" r="2"></circle><circle cx="426" cy="157" r="2"></circle><circle cx="464" cy="148" r="2"></circle><circle cx="503" cy="135" r="2"></circle><circle cx="542" cy="118" r="2"></circle><circle cx="606" cy="109" r="2"></circle><circle cx="696" cy="98" r="2"></circle></g></g><g class="key-Black__002c-females_0"><path stroke="#3360a9" stroke-linecap="round" d="M233 243L271 247L310 255L349 248L387 234L426 231L464 215L503 206L542 192L606 183L696 154" fill="none" stroke-width="1.5"></path><g fill="#3360a9"><circle cx="233" cy="243" r="2"></circle><circle cx="271" cy="247" r="2"></circle><circle cx="310" cy="255" r="2"></circle><circle cx="349" cy="248" r="2"></circle><circle cx="387" cy="234" r="2"></circle><circle cx="426" cy="231" r="2"></circle><circle cx="464" cy="215" r="2"></circle><circle cx="503" cy="206" r="2"></circle><circle cx="542" cy="192" r="2"></circle><circle cx="606" cy="183" r="2"></circle><circle cx="696" cy="154" r="2"></circle></g></g><g class="key-Black__002c-males_0"><path stroke="#34983f" stroke-linecap="round" d="M233 329L271 325L310 319L349 311L387 289L426 234L464 191L503 169L542 149L606 133L696 119" fill="none" stroke-width="1.5"></path><g fill="#34983f"><circle cx="233" cy="329" r="2"></circle><circle cx="271" cy="325" r="2"></circle><circle cx="310" cy="319" r="2"></circle><circle cx="349" cy="311" r="2"></circle><circle cx="387" cy="289" r="2"></circle><circle cx="426" cy="234" r="2"></circle><circle cx="464" cy="191" r="2"></circle><circle cx="503" cy="169" r="2"></circle><circle cx="542" cy="149" r="2"></circle><circle cx="606" cy="133" r="2"></circle><circle cx="696" cy="119" r="2"></circle></g></g><g class="key-Black__002c-total_0"><path stroke="#ca2628" stroke-linecap="round" d="M53 365L181 339L233 289L271 289L310 290L349 281L387 263L426 233L464 202L503 186L542 169L606 157L696 135" fill="none" stroke-width="1.5"></path><g fill="#ca2628"><circle cx="53" cy="365" r="2"></circle><circle cx="181" cy="339" r="2"></circle><circle cx="233" cy="289" r="2"></circle><circle cx="271" cy="289" r="2"></circle><circle cx="310" cy="290" r="2"></circle><circle cx="349" cy="281" r="2"></circle><circle cx="387" cy="263" r="2"></circle><circle cx="426" cy="233" r="2"></circle><circle cx="464" cy="202" r="2"></circle><circle cx="503" cy="186" r="2"></circle><circle cx="542" cy="169" r="2"></circle><circle cx="606" cy="157" r="2"></circle><circle cx="696" cy="135" r="2"></circle></g></g><g class="key-White__002c-females_0"><path stroke="#ffd53e" stroke-linecap="round" d="M233 178L271 184L310 181L349 165L387 152L426 143L464 138L503 126L542 113L606 104L696 92" fill="none" stroke-width="1.5"></path><g fill="#ffd53e"><circle cx="233" cy="178" r="2"></circle><circle cx="271" cy="184" r="2"></circle><circle cx="310" cy="181" r="2"></circle><circle cx="349" cy="165" r="2"></circle><circle cx="387" cy="152" r="2"></circle><circle cx="426" cy="143" r="2"></circle><circle cx="464" cy="138" r="2"></circle><circle cx="503" cy="126" r="2"></circle><circle cx="542" cy="113" r="2"></circle><circle cx="606" cy="104" r="2"></circle><circle cx="696" cy="92" r="2"></circle></g></g><g class="key-White__002c-males_0"><path stroke="#9ecc8a" stroke-linecap="round" d="M233 265L271 255L310 241L349 228L387 202L426 151L464 143L503 130L542 109L606 97L696 92" fill="none" stroke-width="1.5"></path><g fill="#9ecc8a"><circle cx="233" cy="265" r="2"></circle><circle cx="271" cy="255" r="2"></circle><circle cx="310" cy="241" r="2"></circle><circle cx="349" cy="228" r="2"></circle><circle cx="387" cy="202" r="2"></circle><circle cx="426" cy="151" r="2"></circle><circle cx="464" cy="143" r="2"></circle><circle cx="503" cy="130" r="2"></circle><circle cx="542" cy="109" r="2"></circle><circle cx="606" cy="97" r="2"></circle><circle cx="696" cy="92" r="2"></circle></g></g><g class="key-White__002c-total_0"><path stroke="#e6332e" stroke-linecap="round" d="M53 289L181 263L233 220L271 219L310 211L349 196L387 177L426 147L464 141L503 128L542 110L606 100L696 92" fill="none" stroke-width="1.5"></path><g fill="#e6332e"><circle cx="53" cy="289" r="2"></circle><circle cx="181" cy="263" r="2"></circle><circle cx="233" cy="220" r="2"></circle><circle cx="271" cy="219" r="2"></circle><circle cx="310" cy="211" r="2"></circle><circle cx="349" cy="196" r="2"></circle><circle cx="387" cy="177" r="2"></circle><circle cx="426" cy="147" r="2"></circle><circle cx="464" cy="141" r="2"></circle><circle cx="503" cy="128" r="2"></circle><circle cx="542" cy="110" r="2"></circle><circle cx="606" cy="100" r="2"></circle><circle cx="696" cy="92" r="2"></circle></g></g></g></g></g><g style="fill: #777;" class="SourcesFooter"><g style="fill: #777;" class="clickable"><text font-size="12.60" x="15.0" y="581.6"><tspan x="15" y="581.58">Source: National Cancer Institute</tspan></text></g><text font-size="12.60" x="649.0" y="581.6"><tspan x="649.024" y="581.58"><a target='_blank' style='fill: #777;' href='https://ourworldindata.org'>OurWorldInData.org</a> • <a style="fill: #777;" href="http://creativecommons.org/licenses/by-sa/4.0/deed.en_US" target="_blank">CC BY-SA</a></tspan></text></g></g></svg>