<svg xmlns="http://www.w3.org/2000/svg" version="1.1" style="font-family:&#x27;Helvetica Neue&#x27;, Helvetica, Arial, sans-serif;font-size:18px;background-color:white;text-rendering:optimizeLegibility;-webkit-font-smoothing:antialiased" width="850" height="600"><g class="ChartTab"><g class="HeaderView"><g opacity="0.8" transform="translate(778, 15) scale(0.27)"><a xmlns:xlink="http://www.w3.org/1999/xlink" xlink:href="https://ourworldindata.org" target="_blank"><g><rect x="0" y="0" fill="#1B2543" width="211.2" height="130.1"/><rect x="0" y="112.2" fill="#E63912" width="211.2" height="17.9"/><g><rect x="1.2" y="12.3" fill="none" width="210.2" height="99.2"/><path fill="#FFFFFF" d="M37.8,32.2c0,12.7-7.7,19.4-17.1,19.4c-9.7,0-16.6-7.5-16.6-18.7c0-11.7,7.3-19.3,17.1-19.3 C31.3,13.7,37.8,21.3,37.8,32.2z M9.2,32.8c0,7.9,4.3,14.9,11.8,14.9c7.5,0,11.8-6.9,11.8-15.3c0-7.3-3.8-14.9-11.8-14.9 C13.1,17.5,9.2,24.8,9.2,32.8z"/><path fill="#FFFFFF" d="M62.7,43.8c0,2.7,0.1,5.1,0.2,7.2h-4.3l-0.3-4.3h-0.1c-1.3,2.1-4,4.9-8.8,4.9c-4.2,0-9.1-2.3-9.1-11.6 V24.6h4.8v14.6c0,5,1.5,8.4,5.9,8.4c3.2,0,5.5-2.2,6.3-4.4c0.3-0.7,0.4-1.6,0.4-2.5V24.6h4.8V43.8z"/><path fill="#FFFFFF" d="M67.3,32.8c0-3.1-0.1-5.8-0.2-8.2h4.2l0.2,5.2h0.2c1.2-3.5,4.1-5.8,7.3-5.8c0.5,0,0.9,0.1,1.4,0.2v4.5 c-0.5-0.1-1-0.2-1.6-0.2c-3.4,0-5.8,2.6-6.5,6.2c-0.1,0.7-0.2,1.4-0.2,2.2V51h-4.8V32.8z"/><path fill="#FFFFFF" d="M95.4,51l-9.4-36.8h5l4.4,18.6c1.1,4.6,2.1,9.2,2.7,12.7h0.1c0.6-3.7,1.8-8,3-12.8l4.9-18.5h5l4.5,18.7 c1,4.4,2,8.7,2.6,12.6h0.1c0.8-4,1.8-8.1,3-12.7l4.9-18.5h4.9L120.6,51h-5L111,31.9c-1.1-4.7-1.9-8.3-2.4-12h-0.1 c-0.7,3.7-1.5,7.3-2.8,12L100.4,51H95.4z"/><path fill="#FFFFFF" d="M154.9,37.6c0,9.8-6.8,14-13.2,14c-7.2,0-12.7-5.2-12.7-13.6c0-8.8,5.8-14,13.1-14 C149.8,24,154.9,29.5,154.9,37.6z M133.9,37.9c0,5.8,3.3,10.1,8,10.1c4.6,0,8-4.3,8-10.3c0-4.5-2.2-10.1-7.9-10.1 C136.3,27.6,133.9,32.8,133.9,37.9z"/><path fill="#FFFFFF" d="M158.2,32.8c0-3.1-0.1-5.8-0.2-8.2h4.2l0.2,5.2h0.2c1.2-3.5,4.1-5.8,7.3-5.8c0.5,0,0.9,0.1,1.4,0.2v4.5 c-0.5-0.1-1-0.2-1.6-0.2c-3.4,0-5.8,2.6-6.5,6.2c-0.1,0.7-0.2,1.4-0.2,2.2V51h-4.8V32.8z"/><path fill="#FFFFFF" d="M173.5,12.3h4.8V51h-4.8V12.3z"/><path fill="#FFFFFF" d="M206.5,12.3v31.9c0,2.3,0.1,5,0.2,6.8h-4.3l-0.2-4.6H202c-1.5,2.9-4.7,5.2-9,5.2 c-6.4,0-11.3-5.4-11.3-13.4c-0.1-8.8,5.4-14.2,11.9-14.2c4,0,6.8,1.9,8,4h0.1V12.3H206.5z M201.7,35.4c0-0.6-0.1-1.4-0.2-2 c-0.7-3.1-3.3-5.6-6.9-5.6c-5,0-7.9,4.4-7.9,10.2c0,5.3,2.6,9.8,7.8,9.8c3.2,0,6.2-2.1,7.1-5.7c0.2-0.7,0.2-1.3,0.2-2.1V35.4z"/><path fill="#FFFFFF" d="M42.8,64c0.1,1.6-1.1,2.9-3.1,2.9c-1.7,0-2.9-1.3-2.9-2.9c0-1.7,1.3-3,3-3C41.7,61,42.8,62.3,42.8,64z M37.4,97.8V71.4h4.8v26.4H37.4z"/><path fill="#FFFFFF" d="M47.5,78.6c0-2.7-0.1-5-0.2-7.1h4.3l0.3,4.4h0.1c1.3-2.5,4.4-5,8.8-5c3.7,0,9.4,2.2,9.4,11.2v15.8h-4.8 V82.6c0-4.3-1.6-7.8-6.1-7.8c-3.2,0-5.6,2.2-6.5,4.9c-0.2,0.6-0.3,1.4-0.3,2.2v15.9h-4.8V78.6z"/><path fill="#FFFFFF" d="M84,61.6c2.9-0.4,6.3-0.8,10.1-0.8c6.8,0,11.7,1.6,14.9,4.6c3.3,3,5.2,7.3,5.2,13.2c0,6-1.9,10.9-5.3,14.3 c-3.4,3.4-9.1,5.3-16.3,5.3c-3.4,0-6.2-0.2-8.6-0.4V61.6z M88.8,94.1c1.2,0.2,3,0.3,4.8,0.3c10.2,0,15.7-5.7,15.7-15.6 c0.1-8.7-4.9-14.2-14.9-14.2c-2.5,0-4.3,0.2-5.6,0.5V94.1z"/><path fill="#FFFFFF" d="M132.1,97.8l-0.4-3.3h-0.2c-1.5,2.1-4.3,3.9-8.1,3.9c-5.4,0-8.1-3.8-8.1-7.6c0-6.4,5.7-9.9,15.9-9.8v-0.5 c0-2.2-0.6-6.1-6-6.1c-2.5,0-5,0.8-6.9,2l-1.1-3.2c2.2-1.4,5.4-2.3,8.7-2.3c8.1,0,10.1,5.5,10.1,10.8v9.9c0,2.3,0.1,4.5,0.4,6.3 H132.1z M131.4,84.4c-5.3-0.1-11.2,0.8-11.2,5.9c0,3.1,2.1,4.6,4.5,4.6c3.4,0,5.6-2.2,6.4-4.4c0.2-0.5,0.3-1,0.3-1.5V84.4z"/><path fill="#FFFFFF" d="M146.6,63.9v7.6h6.9v3.7h-6.9v14.2c0,3.3,0.9,5.1,3.6,5.1c1.3,0,2.2-0.2,2.8-0.3l0.2,3.6 c-0.9,0.4-2.4,0.7-4.3,0.7c-2.2,0-4-0.7-5.2-2c-1.4-1.4-1.9-3.8-1.9-6.9V75.1h-4.1v-3.7h4.1v-6.3L146.6,63.9z"/><path fill="#FFFFFF" d="M171.4,97.8l-0.4-3.3h-0.2c-1.5,2.1-4.3,3.9-8.1,3.9c-5.4,0-8.1-3.8-8.1-7.6c0-6.4,5.7-9.9,15.9-9.8v-0.5 c0-2.2-0.6-6.1-6-6.1c-2.5,0-5,0.8-6.9,2l-1.1-3.2c2.2-1.4,5.4-2.3,8.7-2.3c8.1,0,10.1,5.5,10.1,10.8v9.9c0,2.3,0.1,4.5,0.4,6.3 H171.4z M170.7,84.4c-5.3-0.1-11.2,0.8-11.2,5.9c0,3.1,2.1,4.6,4.5,4.6c3.4,0,5.6-2.2,6.4-4.4c0.2-0.5,0.3-1,0.3-1.5V84.4z"/></g></g></a></g><a href="https://ourworldindata.org/grapher/GDP-vs-services-employment-eg" target="_blank"><text font-size="25.20" x="15.0" y="35.2" fill="#555"><tspan x="15" y="35.160000000000004">GDP per head vs share of services in employment, 1949 to 2010</tspan></text></a><text font-size="14.40" x="15.0" y="53.7" fill="#666"><tspan x="15" y="53.72">The vertical axis shows historical estimates of the employment share in the service sector. The horizontal axis shows</tspan><tspan x="15" y="69.56">GDP per head after adjusting for inflation (figures are in 2011 international US dollars) and uses multiple benchmarks</tspan><tspan x="15" y="85.4">for cross-country income comparisons.</tspan></text></g><g><g class="AxisBoxView"><g class="HorizontalAxis"><text font-size="12.60" x="226.3" y="554.0"><tspan x="226.274" y="553.98">GDP per capita (2011 US$, multiple benchmarks)</tspan></text><text x="75.2" y="533.9" fill="#666" text-anchor="middle" font-size="16.2">$595</text><text x="146.7" y="533.9" fill="#666" text-anchor="middle" font-size="16.2">$1,000</text><text x="464" y="533.9" fill="#666" text-anchor="middle" font-size="16.2">$10,000</text><text x="715" y="551.5" style="font-size:12px;text-transform:uppercase;cursor:pointer" class="clickable">log</text></g><g class="VerticalAxis"><text font-size="12.60" x="-423.7" y="25.1" transform="rotate(-90)"><tspan x="-423.71500000000003" y="25.080000000000002">Share of services in employment</tspan></text><text x="70.16" y="512.7" fill="#666" dominant-baseline="middle" text-anchor="end" font-size="16.2">0%</text><text x="70.16" y="420.8" fill="#666" dominant-baseline="middle" text-anchor="end" font-size="16.2">20%</text><text x="70.16" y="329" fill="#666" dominant-baseline="middle" text-anchor="end" font-size="16.2">40%</text><text x="70.16" y="237.1" fill="#666" dominant-baseline="middle" text-anchor="end" font-size="16.2">60%</text><text x="70.16" y="145.3" fill="#666" dominant-baseline="middle" text-anchor="end" font-size="16.2">80%</text></g><g class="AxisGridLines"><line x1="75.16" y1="512.7" x2="715.00" y2="512.7" stroke="#ccc"></line><line x1="75.16" y1="420.8" x2="715.00" y2="420.8" stroke="#ddd" stroke-dasharray="3,2"></line><line x1="75.16" y1="329" x2="715.00" y2="329" stroke="#ddd" stroke-dasharray="3,2"></line><line x1="75.16" y1="237.1" x2="715.00" y2="237.1" stroke="#ddd" stroke-dasharray="3,2"></line><line x1="75.16" y1="145.3" x2="715.00" y2="145.3" stroke="#ddd" stroke-dasharray="3,2"></line></g><g class="AxisGridLines"><line x1="146.7" y1="512.70" x2="146.7" y2="107.60" stroke="#ddd" stroke-dasharray="3,2"></line><line x1="464" y1="512.70" x2="464" y2="107.60" stroke="#ddd" stroke-dasharray="3,2"></line></g></g><g class="PointsWithLabels clickable" clip-path="url(#scatterBounds-39)" font-family="Arial Narrow, Arial, sans-serif"><rect x="75.162" y="107.60000000000001" width="639.838" height="405.09999999999997" fill="rgba(255,255,255,0)"></rect><defs><clipPath id="scatterBounds-39"><rect x="65.162" y="97.60000000000001" width="659.838" height="425.09999999999997"></rect></clipPath></defs><g class="key-China_0"><circle cx="145.00" cy="470.00" r="1.73" fill="#d14e5b" stroke="#ccc" opacity="0.6"></circle><polyline stroke-linecap="round" stroke="#d14e5b" points="145.00,470.00 159.00,471.00 145.00,474.00 155.00,474.00 160.00,471.00 160.00,467.00 156.00,440.00 145.00,430.00 135.00,423.00 115.00,454.00 126.00,466.00 139.00,466.00 153.00,466.00 164.00,466.00 165.00,467.00 166.00,467.00 159.00,467.00 168.00,469.00 181.00,470.00 188.00,470.00 183.00,469.00 190.00,470.00 190.00,469.00 195.00,469.00 191.00,467.00 194.00,462.00 210.00,455.00 215.00,453.00 219.00,451.00 217.00,448.00 229.00,449.00 235.00,446.00 250.00,437.00 262.00,434.00 267.00,432.00 273.00,429.00 276.00,427.00 273.00,427.00 270.00,426.00 275.00,424.00 285.00,419.00 297.00,413.00 304.00,405.00 311.00,397.00 319.00,391.00 320.00,389.00 321.00,388.00 329.00,387.00 340.00,384.00 350.00,383.00 362.00,379.00 371.00,375.00 384.00,369.00 401.00,366.00 413.00,362.00 424.00,361.00 428.00,357.00 439.00,353.00 456.00,351.00" fill="none" stroke-width="1.41" opacity="0.6"></polyline><polygon points="453.89,356.89 456.00,348.89 458.11,353.11" transform="rotate(83.29016390006926, 456.00, 351.00)" cx="456" cy="351" r="2.10772827296668" fill="#d14e5b" stroke="#ccc" stroke-width="0.2" opacity="0.6"></polygon></g><g class="key-India_0"><circle cx="193.00" cy="436.00" r="1.65" fill="#d14e5b" stroke="#ccc" opacity="0.6"></circle><polyline stroke-linecap="round" stroke="#d14e5b" points="193.00,436.00 190.00,437.00 188.00,436.00 188.00,434.00 192.00,433.00 180.00,435.00 175.00,436.00 179.00,436.00 175.00,436.00 176.00,436.00 175.00,436.00 176.00,436.00 176.00,436.00 183.00,437.00 179.00,436.00 189.00,435.00 183.00,436.00 181.00,436.00 176.00,435.00 163.00,435.00 165.00,435.00 161.00,434.00 155.00,432.00 154.00,432.00 151.00,430.00 149.00,427.00 153.00,424.00 159.00,422.00 168.00,420.00 175.00,418.00 181.00,417.00 182.00,417.00 188.00,417.00 195.00,416.00 201.00,411.00 208.00,409.00 217.00,409.00 223.00,408.00 231.00,406.00 237.00,403.00 242.00,403.00 248.00,402.00 253.00,398.00 264.00,396.00 273.00,397.00 288.00,398.00 300.00,399.00 312.00,394.00 329.00,392.00 335.00,390.00 349.00,392.00" fill="none" stroke-width="1.36" opacity="0.6"></polyline><polygon points="346.94,397.94 349.00,389.94 351.06,394.06" transform="rotate(98.13010318809667, 349.00, 392.00)" cx="349" cy="392" r="2.0589270893513465" fill="#d14e5b" stroke="#ccc" stroke-width="0.2" opacity="0.6"></polygon></g><g class="key-United-States_0"><circle cx="511.00" cy="258.00" r="1.38" fill="#4d824b" stroke="#ccc" opacity="0.6"></circle><polyline stroke-linecap="round" stroke="#4d824b" points="511.00,258.00 522.00,259.00 529.00,254.00 532.00,251.00 536.00,252.00 533.00,247.00 540.00,247.00 540.00,244.00 540.00,241.00 536.00,233.00 544.00,234.00 545.00,231.00 546.00,228.00 552.00,228.00 556.00,226.00 561.00,224.00 568.00,224.00 575.00,223.00 577.00,220.00 582.00,218.00 585.00,216.00 584.00,212.00 586.00,208.00 592.00,209.00 598.00,210.00 597.00,208.00 595.00,199.00 601.00,200.00 605.00,200.00 612.00,200.00 615.00,200.00 613.00,196.00 615.00,194.00 611.00,188.00 616.00,185.00 624.00,185.00 628.00,182.00 632.00,179.00 635.00,177.00 640.00,176.00 643.00,173.00 644.00,170.00 642.00,167.00 645.00,165.00 647.00,164.00 650.00,164.00 652.00,163.00 656.00,162.00 660.00,161.00 665.00,160.00 669.00,159.00 673.00,158.00 673.00,148.00 675.00,144.00 677.00,142.00 681.00,142.00 684.00,141.00 687.00,141.00 688.00,139.00 686.00,136.00 681.00,130.00 683.00,128.00" fill="none" stroke-width="0.84" opacity="0.6"></polyline><polygon points="681.46,134.46 683.00,126.46 684.54,129.54" transform="rotate(45.000000382424254, 683.00, 128.00)" cx="683" cy="128" r="1.5414252772441215" fill="#4d824b" stroke="#ccc" stroke-width="0.2" opacity="0.6"></polygon></g><g class="key-Indonesia_0"><circle cx="209.00" cy="427.00" r="1.31" fill="#d14e5b" stroke="#ccc" opacity="0.6"></circle><polyline stroke-linecap="round" stroke="#d14e5b" points="209.00,427.00 194.00,402.00 210.00,395.00 230.00,398.00 244.00,396.00 240.00,387.00 248.00,387.00 255.00,380.00 256.00,378.00 265.00,376.00 277.00,371.00 283.00,368.00 272.00,366.00 272.00,366.00 276.00,368.00 277.00,368.00 277.00,365.00 279.00,362.00 282.00,361.00 291.00,359.00 306.00,360.00 313.00,373.00 322.00,381.00 329.00,368.00 338.00,363.00 347.00,352.00 356.00,343.00 355.00,331.00 324.00,333.00 322.00,329.00 318.00,335.00 319.00,333.00 320.00,339.00 319.00,345.00 329.00,333.00 340.00,338.00 351.00,326.00 364.00,321.00 388.00,317.00 401.00,314.00 422.00,309.00" fill="none" stroke-width="0.78" opacity="0.6"></polyline><polygon points="420.52,315.52 422.00,307.52 423.48,310.48" transform="rotate(76.60750289728371, 422.00, 309.00)" cx="422" cy="309" r="1.4788160733831281" fill="#d14e5b" stroke="#ccc" stroke-width="0.2" opacity="0.6"></polygon></g><g class="key-Brazil_0"><circle cx="205.00" cy="420.00" r="1.24" fill="#69c487" stroke="#ccc" opacity="0.6"></circle><polyline stroke-linecap="round" stroke="#69c487" points="205.00,420.00 206.00,418.00 214.00,416.00 216.00,414.00 223.00,411.00 231.00,409.00 231.00,407.00 236.00,404.00 246.00,402.00 250.00,399.00 260.00,397.00 269.00,394.00 276.00,391.00 274.00,389.00 274.00,386.00 273.00,384.00 279.00,381.00 285.00,379.00 294.00,376.00 296.00,373.00 310.00,370.00 322.00,358.00 334.00,347.00 347.00,348.00 355.00,344.00 358.00,339.00 365.00,334.00 365.00,335.00 367.00,324.00 373.00,319.00 369.00,329.00 372.00,312.00 372.00,308.00 368.00,293.00 369.00,301.00 374.00,313.00 389.00,295.00 390.00,289.00 388.00,284.00 389.00,281.00 385.00,276.00 391.00,273.00 393.00,271.00 401.00,269.00 415.00,265.00 434.00,261.00 456.00,255.00 451.00,253.00 444.00,249.00 438.00,251.00 438.00,243.00 436.00,237.00 436.00,236.00 433.00,235.00 439.00,238.00 443.00,239.00 454.00,232.00 467.00,228.00 481.00,229.00 485.00,225.00 504.00,221.00" fill="none" stroke-width="0.73" opacity="0.6"></polyline><polygon points="502.57,227.57 504.00,219.57 505.43,222.43" transform="rotate(78.11134262418695, 504.00, 221.00)" cx="504" cy="221" r="1.4342447998394054" fill="#69c487" stroke="#ccc" stroke-width="0.2" opacity="0.6"></polygon></g><g class="key-Nigeria_0"><circle cx="254.00" cy="436.00" r="1.23" fill="#5675c1" stroke="#ccc" opacity="0.6"></circle><polyline stroke-linecap="round" stroke="#5675c1" points="254.00,436.00 263.00,434.00 268.00,431.00 276.00,423.00 285.00,414.00 306.00,408.00 297.00,405.00 281.00,417.00 287.00,412.00 333.00,402.00 355.00,388.00 367.00,386.00 370.00,388.00 386.00,387.00 403.00,383.00 399.00,366.00 405.00,354.00 416.00,340.00 410.00,339.00 411.00,335.00 402.00,319.00 385.00,300.00 386.00,288.00 380.00,276.00 359.00,272.00 367.00,280.00 357.00,287.00 345.00,293.00 347.00,298.00 345.00,304.00 341.00,310.00 330.00,317.00 324.00,321.00 316.00,326.00 308.00,333.00 301.00,339.00 298.00,345.00 294.00,350.00 289.00,352.00 281.00,355.00 281.00,363.00 282.00,369.00 293.00,369.00 298.00,375.00 304.00,362.00 305.00,361.00 310.00,360.00 342.00,358.00 345.00,358.00 355.00,359.00 370.00,359.00" fill="none" stroke-width="0.69" opacity="0.6"></polyline><polygon points="368.61,365.61 370.00,357.61 371.39,360.39" transform="rotate(90.0000007648485, 370.00, 359.00)" cx="370" cy="359" r="1.3943129985259972" fill="#5675c1" stroke="#ccc" stroke-width="0.2" opacity="0.6"></polygon></g><g class="key-Japan_0"><circle cx="265.00" cy="379.00" r="1.29" fill="#d14e5b" stroke="#ccc" opacity="0.6"></circle><polyline stroke-linecap="round" stroke="#d14e5b" points="265.00,379.00 307.00,352.00 313.00,346.00 324.00,342.00 332.00,339.00 340.00,337.00 348.00,332.00 358.00,329.00 373.00,327.00 387.00,324.00 399.00,321.00 408.00,314.00 421.00,309.00 428.00,304.00 442.00,299.00 454.00,298.00 471.00,295.00 486.00,293.00 499.00,289.00 505.00,284.00 515.00,280.00 523.00,278.00 520.00,274.00 526.00,268.00 533.00,265.00 540.00,262.00 548.00,260.00 555.00,257.00 562.00,255.00 559.00,252.00 556.00,249.00 552.00,247.00 551.00,245.00 552.00,245.00 562.00,243.00 569.00,240.00 581.00,241.00 589.00,242.00 597.00,241.00 606.00,240.00 611.00,239.00 615.00,235.00 618.00,232.00 624.00,228.00 626.00,225.00 627.00,223.00 624.00,218.00 624.00,215.00 629.00,212.00 628.00,208.00 629.00,204.00 630.00,201.00 634.00,198.00 637.00,195.00 638.00,194.00 640.00,194.00 637.00,190.00 631.00,185.00 638.00,182.00" fill="none" stroke-width="0.66" opacity="0.6"></polyline><polygon points="636.64,188.64 638.00,180.64 639.36,183.36" transform="rotate(66.80141005405135, 638.00, 182.00)" cx="638" cy="182" r="1.3558042017555998" fill="#d14e5b" stroke="#ccc" stroke-width="0.2" opacity="0.6"></polygon></g><g class="key-Mexico_0"><circle cx="271.00" cy="394.00" r="1.19" fill="#4d824b" stroke="#ccc" opacity="0.6"></circle><polyline stroke-linecap="round" stroke="#4d824b" points="271.00,394.00 284.00,391.00 286.00,387.00 282.00,386.00 291.00,387.00 297.00,385.00 300.00,380.00 305.00,380.00 309.00,378.00 309.00,375.00 314.00,374.00 320.00,373.00 325.00,371.00 334.00,368.00 348.00,365.00 355.00,365.00 364.00,363.00 371.00,361.00 381.00,358.00 389.00,356.00 398.00,354.00 403.00,351.00 413.00,345.00 423.00,344.00 433.00,336.00 441.00,332.00 444.00,324.00 446.00,325.00 455.00,321.00 467.00,314.00 480.00,312.00 486.00,309.00 481.00,302.00 469.00,298.00 469.00,297.00 468.00,297.00 455.00,294.00 454.00,294.00 452.00,294.00 454.00,292.00 460.00,288.00 463.00,282.00 466.00,278.00 464.00,274.00 467.00,270.00 451.00,262.00 451.00,265.00 459.00,263.00 466.00,263.00 469.00,261.00 481.00,257.00 480.00,253.00 481.00,249.00 483.00,249.00 491.00,246.00 500.00,245.00 507.00,243.00 512.00,239.00 514.00,241.00 505.00,238.00 513.00,238.00" fill="none" stroke-width="0.64" opacity="0.6"></polyline><polygon points="511.66,244.66 513.00,236.66 514.34,239.34" transform="rotate(90.0000007648485, 513.00, 238.00)" cx="513" cy="238" r="1.3387003226324863" fill="#4d824b" stroke="#ccc" stroke-width="0.2" opacity="0.6"></polygon></g><g class="key-Philippines_0"><circle cx="259.00" cy="351.00" r="1.21" fill="#d14e5b" stroke="#ccc" opacity="0.6"></circle><polyline stroke-linecap="round" stroke="#d14e5b" points="259.00,351.00 263.00,365.00 269.00,367.00 273.00,368.00 282.00,365.00 287.00,367.00 288.00,357.00 292.00,357.00 291.00,357.00 300.00,356.00 303.00,351.00 307.00,350.00 305.00,351.00 292.00,344.00 282.00,339.00 287.00,339.00 297.00,335.00 308.00,332.00 317.00,328.00 326.00,325.00 327.00,330.00 329.00,331.00 335.00,330.00 347.00,326.00 358.00,323.00 367.00,316.00 363.00,310.00 349.00,303.00 342.00,300.00 344.00,297.00 342.00,297.00 341.00,293.00 342.00,293.00 344.00,289.00 346.00,288.00 351.00,285.00 359.00,282.00 365.00,281.00 369.00,276.00 380.00,272.00" fill="none" stroke-width="0.61" opacity="0.6"></polyline><polygon points="378.69,278.69 380.00,270.69 381.31,273.31" transform="rotate(70.01689407312575, 380.00, 272.00)" cx="380" cy="272" r="1.3105692856017312" fill="#d14e5b" stroke="#ccc" stroke-width="0.2" opacity="0.6"></polygon></g><g class="key-Ethiopia_0"><circle cx="111.00" cy="501.00" r="1.18" fill="#5675c1" stroke="#ccc" opacity="0.6"></circle><polyline stroke-linecap="round" stroke="#5675c1" points="111.00,501.00 113.00,500.00 128.00,499.00 132.00,498.00 137.00,497.00 139.00,495.00 142.00,494.00 141.00,491.00 143.00,490.00 148.00,488.00 151.00,487.00 155.00,484.00 156.00,483.00 155.00,481.00 152.00,480.00 152.00,479.00 152.00,478.00 149.00,478.00 155.00,476.00 160.00,472.00 157.00,471.00 153.00,470.00 155.00,469.00 149.00,469.00 138.00,470.00 144.00,471.00 153.00,471.00 151.00,471.00 149.00,472.00 143.00,474.00 128.00,476.00 110.00,476.00 103.00,470.00 93.00,469.00 103.00,467.00 94.00,464.00 107.00,463.00 95.00,464.00 88.00,463.00 78.00,461.00 91.00,462.00 75.00,463.00 82.00,464.00 89.00,464.00 110.00,461.00 108.00,457.00 130.00,452.00 145.00,446.00 137.00,442.00 153.00,438.00" fill="none" stroke-width="0.60" opacity="0.6"></polyline><polygon points="151.70,444.70 153.00,436.70 154.30,439.30" transform="rotate(75.96375717763759, 153.00, 438.00)" cx="153" cy="438" r="1.295148258459426" fill="#5675c1" stroke="#ccc" stroke-width="0.2" opacity="0.6"></polygon></g><g class="key-Egypt_0"><circle cx="216.00" cy="361.00" r="1.19" fill="#5675c1" stroke="#ccc" opacity="0.6"></circle><polyline stroke-linecap="round" stroke="#5675c1" points="216.00,361.00 222.00,359.00 228.00,360.00 234.00,361.00 239.00,360.00 245.00,359.00 243.00,370.00 238.00,372.00 238.00,374.00 245.00,372.00 251.00,368.00 254.00,367.00 255.00,367.00 256.00,353.00 259.00,352.00 269.00,353.00 287.00,347.00 300.00,345.00 306.00,342.00 313.00,342.00 322.00,339.00 323.00,344.00 333.00,340.00 339.00,338.00 343.00,335.00 348.00,333.00 348.00,329.00 348.00,322.00 351.00,319.00 352.00,314.00 352.00,312.00 354.00,310.00 356.00,310.00 360.00,310.00 362.00,309.00 366.00,308.00 371.00,301.00 372.00,300.00 372.00,299.00 374.00,296.00 375.00,295.00 381.00,292.00 382.00,289.00 383.00,284.00 387.00,282.00 393.00,281.00 401.00,277.00 416.00,274.00 436.00,274.00 439.00,272.00 458.00,270.00" fill="none" stroke-width="0.59" opacity="0.6"></polyline><polygon points="456.71,276.71 458.00,268.71 459.29,271.29" transform="rotate(83.99099475628753, 458.00, 270.00)" cx="458" cy="270" r="1.2923287892687185" fill="#5675c1" stroke="#ccc" stroke-width="0.2" opacity="0.6"></polygon></g><g class="key-Germany_0"><circle cx="359.00" cy="252.00" r="1.27" fill="#ffd336" stroke="#ccc" opacity="0.6"></circle><polyline stroke-linecap="round" stroke="#ffd336" points="359.00,252.00 396.00,259.00 409.00,261.00 419.00,266.00 429.00,268.00 445.00,273.00 454.00,272.00 461.00,268.00 466.00,267.00 475.00,269.00 484.00,272.00 486.00,272.00 490.00,272.00 493.00,269.00 502.00,272.00 507.00,273.00 511.00,271.00 510.00,264.00 518.00,267.00 527.00,269.00 533.00,270.00 537.00,265.00 542.00,261.00 548.00,261.00 549.00,256.00 551.00,248.00 559.00,249.00 563.00,248.00 567.00,243.00 572.00,243.00 573.00,241.00 569.00,236.00 566.00,234.00 566.00,232.00 567.00,232.00 568.00,232.00 577.00,228.00 583.00,222.00 589.00,222.00 594.00,224.00 590.00,222.00 598.00,218.00" fill="none" stroke-width="0.59" opacity="0.6"></polyline><polygon points="596.71,224.71 598.00,216.71 599.29,219.29" transform="rotate(63.43494936201229, 598.00, 218.00)" cx="598" cy="218" r="1.2900434831230503" fill="#ffd336" stroke="#ccc" stroke-width="0.2" opacity="0.6"></polygon></g><g class="key-Thailand_0"><circle cx="189.00" cy="449.00" r="1.19" fill="#d14e5b" stroke="#ccc" opacity="0.6"></circle><polyline stroke-linecap="round" stroke="#d14e5b" points="189.00,449.00 192.00,449.00 200.00,448.00 206.00,447.00 211.00,447.00 217.00,446.00 231.00,445.00 240.00,445.00 250.00,444.00 256.00,443.00 258.00,442.00 261.00,439.00 263.00,436.00 271.00,433.00 272.00,430.00 276.00,427.00 284.00,425.00 296.00,422.00 305.00,424.00 309.00,417.00 312.00,416.00 317.00,413.00 320.00,401.00 325.00,408.00 330.00,414.00 333.00,410.00 334.00,404.00 343.00,398.00 357.00,405.00 368.00,408.00 378.00,405.00 386.00,395.00 398.00,398.00 407.00,387.00 418.00,385.00 432.00,375.00 442.00,371.00 429.00,367.00 405.00,362.00 409.00,352.00 413.00,357.00 417.00,350.00 425.00,355.00 438.00,349.00 447.00,340.00 458.00,340.00 466.00,340.00 475.00,339.00 481.00,337.00 479.00,326.00 495.00,322.00" fill="none" stroke-width="0.57" opacity="0.6"></polyline><polygon points="493.73,328.73 495.00,320.73 496.27,323.27" transform="rotate(75.96375717763759, 495.00, 322.00)" cx="495" cy="322" r="1.2731054371819548" fill="#d14e5b" stroke="#ccc" stroke-width="0.2" opacity="0.6"></polygon></g><g class="key-France_0"><circle cx="405.00" cy="355.00" r="1.22" fill="#ffd336" stroke="#ccc" opacity="0.6"></circle><polyline stroke-linecap="round" stroke="#ffd336" points="405.00,355.00 434.00,337.00 481.00,320.00 519.00,311.00 535.00,280.00 541.00,277.00 547.00,273.00 553.00,270.00 557.00,267.00 556.00,261.00 562.00,256.00 567.00,251.00 571.00,247.00 575.00,243.00 577.00,240.00 573.00,234.00 573.00,230.00 570.00,226.00 567.00,220.00 565.00,216.00 571.00,212.00 574.00,208.00 580.00,204.00 584.00,202.00 586.00,199.00 587.00,196.00 589.00,192.00 587.00,186.00 590.00,182.00 592.00,180.00 594.00,177.00 602.00,175.00 610.00,173.00 615.00,170.00 623.00,168.00 627.00,167.00 629.00,165.00 622.00,164.00 625.00,162.00 630.00,161.00 633.00,160.00 640.00,159.00" fill="none" stroke-width="0.56" opacity="0.6"></polyline><polygon points="638.74,165.74 640.00,157.74 641.26,160.26" transform="rotate(81.86989834160035, 640.00, 159.00)" cx="640" cy="159" r="1.2623890039113328" fill="#ffd336" stroke="#ccc" stroke-width="0.2" opacity="0.6"></polygon></g><g class="key-United-Kingdom_0"><circle cx="456.00" cy="279.00" r="1.24" fill="#ffd336" stroke="#ccc" opacity="0.6"></circle><polyline stroke-linecap="round" stroke="#ffd336" points="456.00,279.00 456.00,279.00 458.00,280.00 457.00,278.00 463.00,278.00 469.00,279.00 474.00,280.00 476.00,279.00 478.00,279.00 478.00,278.00 483.00,277.00 489.00,278.00 493.00,278.00 493.00,274.00 498.00,272.00 505.00,272.00 508.00,272.00 511.00,270.00 514.00,266.00 516.00,264.00 522.00,263.00 526.00,260.00 526.00,256.00 529.00,251.00 538.00,250.00 535.00,249.00 535.00,242.00 540.00,239.00 546.00,238.00 553.00,236.00 560.00,233.00 563.00,229.00 559.00,222.00 558.00,217.00 560.00,213.00 561.00,210.00 564.00,207.00 568.00,204.00 574.00,202.00 579.00,201.00 582.00,201.00 584.00,198.00 582.00,191.00 583.00,185.00 587.00,182.00 592.00,180.00 598.00,180.00 604.00,178.00 614.00,177.00 619.00,177.00 625.00,171.00 634.00,168.00 637.00,164.00 638.00,160.00 638.00,157.00 641.00,155.00 646.00,153.00 648.00,151.00 648.00,150.00 646.00,148.00 639.00,144.00 637.00,147.00" fill="none" stroke-width="0.56" opacity="0.6"></polyline><polygon points="635.74,153.74 637.00,145.74 638.26,148.26" transform="rotate(-146.30993371740837, 637.00, 147.00)" cx="637" cy="147" r="1.2610879072596028" fill="#ffd336" stroke="#ccc" stroke-width="0.2" opacity="0.6"></polygon></g><g class="key-Italy_0"><circle cx="315.00" cy="388.00" r="1.23" fill="#ffd336" stroke="#ccc" opacity="0.6"></circle><polyline stroke-linecap="round" stroke="#ffd336" points="315.00,388.00 347.00,385.00 359.00,382.00 367.00,380.00 376.00,375.00 383.00,370.00 391.00,365.00 400.00,362.00 409.00,361.00 416.00,357.00 427.00,353.00 439.00,351.00 447.00,346.00 452.00,340.00 454.00,339.00 461.00,334.00 472.00,332.00 484.00,327.00 492.00,324.00 496.00,319.00 499.00,318.00 504.00,312.00 513.00,308.00 519.00,305.00 517.00,301.00 528.00,296.00 535.00,293.00 542.00,291.00 553.00,289.00 562.00,287.00 559.00,281.00 558.00,274.00 556.00,269.00 556.00,258.00 558.00,251.00 567.00,247.00 573.00,242.00 579.00,239.00 584.00,236.00 590.00,233.00 595.00,230.00 597.00,227.00 597.00,224.00 601.00,222.00 606.00,221.00 607.00,216.00 613.00,216.00 620.00,214.00 624.00,211.00 629.00,209.00 632.00,207.00 628.00,206.00 626.00,204.00 625.00,203.00 628.00,203.00 632.00,202.00 639.00,201.00 640.00,199.00 635.00,196.00 634.00,193.00" fill="none" stroke-width="0.56" opacity="0.6"></polyline><polygon points="632.74,199.74 634.00,191.74 635.26,194.26" transform="rotate(-18.43494897958805, 634.00, 193.00)" cx="634" cy="193" r="1.2584993456931806" fill="#ffd336" stroke="#ccc" stroke-width="0.2" opacity="0.6"></polygon></g><g class="key-South-Africa_0"><circle cx="389.00" cy="379.00" r="1.17" fill="#5675c1" stroke="#ccc" opacity="0.6"></circle><polyline stroke-linecap="round" stroke="#5675c1" points="389.00,379.00 392.00,374.00 394.00,370.00 402.00,367.00 406.00,365.00 409.00,362.00 412.00,357.00 418.00,353.00 419.00,347.00 427.00,344.00 431.00,341.00 430.00,338.00 432.00,336.00 443.00,337.00 448.00,336.00 442.00,329.00 439.00,327.00 432.00,322.00 433.00,316.00 436.00,315.00 447.00,315.00 450.00,318.00 447.00,316.00 442.00,312.00 443.00,312.00 434.00,311.00 429.00,309.00 433.00,303.00 435.00,296.00 433.00,290.00 430.00,285.00 426.00,277.00 423.00,272.00 423.00,269.00 423.00,267.00 429.00,265.00 433.00,257.00 435.00,254.00 435.00,247.00 435.00,241.00 441.00,240.00 444.00,233.00 451.00,247.00 453.00,232.00 458.00,230.00 467.00,222.00 475.00,226.00 481.00,221.00 482.00,222.00 477.00,220.00 480.00,220.00" fill="none" stroke-width="0.54" opacity="0.6"></polyline><polygon points="478.76,226.76 480.00,218.76 481.24,221.24" transform="rotate(90.0000007648485, 480.00, 220.00)" cx="480" cy="220" r="1.239550412949413" fill="#5675c1" stroke="#ccc" stroke-width="0.2" opacity="0.6"></polygon></g><g class="key-South-Korea_0"><circle cx="202.00" cy="460.00" r="1.18" fill="#d14e5b" stroke="#ccc" opacity="0.6"></circle><polyline stroke-linecap="round" stroke="#d14e5b" points="202.00,460.00 214.00,391.00 219.00,385.00 220.00,379.00 233.00,376.00 239.00,375.00 254.00,370.00 270.00,367.00 276.00,360.00 295.00,352.00 309.00,364.00 337.00,369.00 357.00,370.00 372.00,368.00 381.00,374.00 387.00,367.00 396.00,361.00 398.00,351.00 385.00,338.00 389.00,334.00 397.00,324.00 409.00,320.00 417.00,315.00 421.00,305.00 441.00,304.00 458.00,306.00 473.00,305.00 484.00,300.00 496.00,294.00 511.00,289.00 519.00,282.00 529.00,271.00 541.00,265.00 553.00,259.00 559.00,253.00 565.00,245.00 551.00,235.00 566.00,230.00 578.00,230.00 581.00,224.00 591.00,220.00 595.00,219.00 602.00,215.00 610.00,211.00 614.00,208.00 620.00,204.00 617.00,204.00 616.00,204.00 625.00,205.00" fill="none" stroke-width="0.54" opacity="0.6"></polyline><polygon points="623.76,211.76 625.00,203.76 626.24,206.24" transform="rotate(96.34019256463937, 625.00, 205.00)" cx="625" cy="205" r="1.2358360116502318" fill="#d14e5b" stroke="#ccc" stroke-width="0.2" opacity="0.6"></polygon></g><g class="key-Colombia_0"><circle cx="294.00" cy="386.00" r="1.15" fill="#69c487" stroke="#ccc" opacity="0.6"></circle><polyline stroke-linecap="round" stroke="#69c487" points="294.00,386.00 296.00,380.00 300.00,380.00 306.00,374.00 313.00,371.00 312.00,370.00 312.00,368.00 311.00,369.00 309.00,372.00 313.00,372.00 314.00,364.00 317.00,361.00 320.00,357.00 320.00,353.00 324.00,349.00 323.00,346.00 327.00,343.00 328.00,342.00 333.00,338.00 338.00,335.00 344.00,328.00 354.00,324.00 363.00,320.00 374.00,316.00 382.00,312.00 387.00,306.00 393.00,306.00 397.00,300.00 404.00,300.00 406.00,294.00 411.00,295.00 409.00,293.00 407.00,295.00 403.00,298.00 402.00,300.00 401.00,299.00 406.00,295.00 404.00,295.00 406.00,292.00 406.00,291.00 410.00,283.00 407.00,275.00 412.00,280.00 418.00,276.00 422.00,284.00 426.00,269.00 423.00,277.00 424.00,255.00 419.00,254.00 409.00,248.00 412.00,248.00 411.00,241.00 411.00,239.00 414.00,241.00 419.00,236.00 427.00,250.00 438.00,248.00 450.00,236.00 460.00,232.00 461.00,236.00 472.00,232.00" fill="none" stroke-width="0.53" opacity="0.6"></polyline><polygon points="470.77,238.77 472.00,230.77 473.23,233.23" transform="rotate(70.01689407312575, 472.00, 232.00)" cx="472" cy="232" r="1.232180199989048" fill="#69c487" stroke="#ccc" stroke-width="0.2" opacity="0.6"></polygon></g><g class="key-Spain_0"><circle cx="344.00" cy="398.00" r="1.19" fill="#ffd336" stroke="#ccc" opacity="0.6"></circle><polyline stroke-linecap="round" stroke="#ffd336" points="344.00,398.00 416.00,374.00 452.00,321.00 456.00,318.00 467.00,315.00 474.00,313.00 479.00,310.00 481.00,306.00 487.00,303.00 492.00,299.00 496.00,295.00 498.00,290.00 503.00,283.00 495.00,274.00 492.00,268.00 488.00,266.00 484.00,260.00 483.00,256.00 493.00,250.00 504.00,247.00 516.00,245.00 527.00,242.00 535.00,239.00 543.00,233.00 546.00,227.00 546.00,221.00 552.00,217.00 560.00,216.00 563.00,216.00 573.00,217.00 583.00,217.00 589.00,217.00 597.00,217.00 602.00,217.00 607.00,216.00 604.00,213.00 606.00,211.00 612.00,210.00 622.00,206.00 624.00,205.00" fill="none" stroke-width="0.53" opacity="0.6"></polyline><polygon points="622.77,211.77 624.00,203.77 625.23,206.23" transform="rotate(63.43494936201229, 624.00, 205.00)" cx="624" cy="205" r="1.2317548208017595" fill="#ffd336" stroke="#ccc" stroke-width="0.2" opacity="0.6"></polygon></g><g class="key-Tanzania_0"><circle cx="189.00" cy="481.00" r="1.15" fill="#5675c1" stroke="#ccc" opacity="0.6"></circle><polyline stroke-linecap="round" stroke="#5675c1" points="189.00,481.00 197.00,470.00 206.00,475.00 218.00,479.00 216.00,481.00 214.00,483.00 227.00,484.00 229.00,485.00 231.00,485.00 235.00,486.00 247.00,484.00 249.00,483.00 254.00,481.00 259.00,480.00 258.00,477.00 265.00,475.00 273.00,473.00 267.00,473.00 269.00,471.00 264.00,469.00 252.00,468.00 228.00,467.00 231.00,467.00 236.00,468.00 243.00,467.00 252.00,464.00 201.00,465.00 162.00,464.00 198.00,462.00 185.00,459.00 181.00,460.00 173.00,459.00 156.00,459.00 142.00,460.00 130.00,460.00 135.00,459.00 138.00,459.00 148.00,457.00 154.00,455.00 159.00,453.00 164.00,450.00 172.00,447.00 180.00,443.00 186.00,439.00 189.00,434.00 202.00,429.00 211.00,423.00 223.00,419.00 229.00,415.00 230.00,411.00 242.00,407.00" fill="none" stroke-width="0.53" opacity="0.6"></polyline><polygon points="240.77,413.77 242.00,405.77 243.23,408.23" transform="rotate(71.56505178526047, 242.00, 407.00)" cx="242" cy="407" r="1.2293269302954417" fill="#5675c1" stroke="#ccc" stroke-width="0.2" opacity="0.6"></polygon></g><g class="key-Kenya_0"><circle cx="218.00" cy="444.00" r="1.15" fill="#5675c1" stroke="#ccc" opacity="0.6"></circle><polyline stroke-linecap="round" stroke="#5675c1" points="218.00,444.00 219.00,447.00 226.00,444.00 235.00,446.00 233.00,447.00 240.00,439.00 236.00,440.00 233.00,438.00 243.00,438.00 248.00,439.00 242.00,436.00 244.00,432.00 239.00,432.00 242.00,431.00 244.00,428.00 248.00,426.00 247.00,423.00 254.00,421.00 251.00,419.00 254.00,419.00 252.00,414.00 256.00,411.00 255.00,409.00 245.00,406.00 248.00,403.00 265.00,397.00 256.00,389.00 259.00,383.00 258.00,378.00 255.00,374.00 253.00,371.00 248.00,369.00 249.00,368.00 241.00,367.00 235.00,366.00 236.00,363.00 242.00,363.00 252.00,361.00 257.00,358.00 259.00,356.00 265.00,351.00 275.00,349.00" fill="none" stroke-width="0.52" opacity="0.6"></polyline><polygon points="273.78,355.78 275.00,347.78 276.22,350.22" transform="rotate(78.69006819471291, 275.00, 349.00)" cx="275" cy="349" r="1.2206120779623557" fill="#5675c1" stroke="#ccc" stroke-width="0.2" opacity="0.6"></polygon></g><g class="key-Argentina_0"><circle cx="443.00" cy="316.00" r="1.16" fill="#69c487" stroke="#ccc" opacity="0.6"></circle><polyline stroke-linecap="round" stroke="#69c487" points="443.00,316.00 440.00,320.00 425.00,309.00 433.00,316.00 437.00,315.00 444.00,317.00 444.00,312.00 450.00,313.00 457.00,315.00 444.00,306.00 448.00,309.00 456.00,303.00 452.00,298.00 447.00,296.00 459.00,298.00 470.00,297.00 469.00,290.00 472.00,288.00 476.00,284.00 486.00,286.00 492.00,284.00 496.00,282.00 499.00,279.00 505.00,276.00 512.00,273.00 509.00,265.00 507.00,267.00 514.00,263.00 506.00,261.00 514.00,255.00 514.00,262.00 504.00,251.00 498.00,231.00 502.00,232.00 503.00,237.00 492.00,232.00 500.00,235.00 503.00,233.00 499.00,229.00 488.00,226.00 487.00,222.00 500.00,217.00 512.00,216.00 519.00,207.00 526.00,203.00 521.00,204.00 528.00,199.00 531.00,196.00 530.00,188.00 521.00,182.00 519.00,177.00 509.00,177.00 487.00,170.00 496.00,174.00 507.00,178.00 518.00,179.00 527.00,179.00 539.00,181.00 547.00,179.00 536.00,176.00 549.00,176.00" fill="none" stroke-width="0.52" opacity="0.6"></polyline><polygon points="547.78,182.78 549.00,174.78 550.22,177.22" transform="rotate(90.0000007648485, 549.00, 176.00)" cx="549" cy="176" r="1.2204060423365992" fill="#69c487" stroke="#ccc" stroke-width="0.2" opacity="0.6"></polygon></g><g class="key-Morocco_0"><circle cx="271.00" cy="405.00" r="1.15" fill="#5675c1" stroke="#ccc" opacity="0.6"></circle><polyline stroke-linecap="round" stroke="#5675c1" points="271.00,405.00 273.00,393.00 274.00,404.00 275.00,402.00 276.00,403.00 278.00,402.00 282.00,403.00 286.00,399.00 290.00,397.00 294.00,394.00 298.00,391.00 302.00,391.00 303.00,390.00 305.00,387.00 309.00,385.00 315.00,384.00 327.00,379.00 331.00,375.00 332.00,370.00 336.00,367.00 345.00,360.00 339.00,359.00 349.00,353.00 344.00,352.00 346.00,349.00 351.00,349.00 358.00,346.00 351.00,344.00 361.00,344.00 361.00,341.00 363.00,342.00 370.00,339.00 365.00,338.00 362.00,339.00 373.00,336.00 363.00,339.00 383.00,337.00 371.00,339.00 369.00,335.00 362.00,333.00 356.00,331.00 357.00,328.00 354.00,328.00 357.00,327.00 355.00,323.00 352.00,321.00 363.00,317.00 373.00,314.00 389.00,309.00 397.00,304.00 406.00,302.00" fill="none" stroke-width="0.50" opacity="0.6"></polyline><polygon points="404.80,308.80 406.00,300.80 407.20,303.20" transform="rotate(77.47119294922321, 406.00, 302.00)" cx="406" cy="302" r="1.2022725506714236" fill="#5675c1" stroke="#ccc" stroke-width="0.2" opacity="0.6"></polygon></g><g class="key-Peru_0"><circle cx="272.00" cy="382.00" r="1.14" fill="#69c487" stroke="#ccc" opacity="0.6"></circle><polyline stroke-linecap="round" stroke="#69c487" points="272.00,382.00 280.00,379.00 287.00,369.00 292.00,365.00 297.00,361.00 304.00,359.00 311.00,357.00 315.00,355.00 310.00,355.00 310.00,355.00 316.00,352.00 321.00,361.00 320.00,355.00 325.00,353.00 328.00,357.00 337.00,348.00 333.00,341.00 327.00,340.00 322.00,331.00 325.00,318.00 334.00,318.00 340.00,315.00 338.00,310.00 320.00,303.00 323.00,300.00 321.00,298.00 339.00,294.00 350.00,289.00 342.00,286.00 314.00,280.00 313.00,275.00 316.00,272.00 317.00,273.00 323.00,282.00 342.00,280.00 355.00,276.00 359.00,271.00 366.00,265.00 361.00,258.00 359.00,250.00 362.00,255.00 361.00,251.00 368.00,253.00 375.00,255.00 384.00,255.00 397.00,252.00 413.00,252.00 426.00,243.00 437.00,240.00 437.00,238.00 454.00,236.00" fill="none" stroke-width="0.50" opacity="0.6"></polyline><polygon points="452.80,242.80 454.00,234.80 455.20,237.20" transform="rotate(83.29016390006926, 454.00, 236.00)" cx="454" cy="236" r="1.1957290558861318" fill="#69c487" stroke="#ccc" stroke-width="0.2" opacity="0.6"></polygon></g><g class="key-Venezuela_0"><circle cx="328.00" cy="347.00" r="1.13" fill="#69c487" stroke="#ccc" opacity="0.6"></circle><polyline stroke-linecap="round" stroke="#69c487" points="328.00,347.00 350.00,351.00 358.00,348.00 361.00,339.00 369.00,328.00 370.00,323.00 376.00,322.00 385.00,312.00 386.00,308.00 390.00,304.00 386.00,300.00 387.00,299.00 388.00,298.00 397.00,295.00 405.00,291.00 405.00,288.00 409.00,284.00 410.00,283.00 417.00,280.00 420.00,276.00 432.00,273.00 427.00,272.00 429.00,269.00 444.00,267.00 486.00,255.00 478.00,245.00 478.00,242.00 478.00,240.00 470.00,242.00 480.00,239.00 481.00,237.00 476.00,237.00 461.00,236.00 455.00,235.00 453.00,232.00 446.00,232.00 432.00,232.00 432.00,226.00 433.00,225.00 421.00,220.00 427.00,224.00 427.00,229.00 440.00,227.00 426.00,221.00 416.00,223.00 419.00,219.00 413.00,215.00 415.00,214.00 403.00,210.00 405.00,201.00 432.00,200.00 424.00,193.00 417.00,189.00 409.00,189.00 442.00,191.00 473.00,190.00 492.00,196.00 507.00,198.00 525.00,195.00 505.00,195.00 530.00,193.00" fill="none" stroke-width="0.50" opacity="0.6"></polyline><polygon points="528.80,199.80 530.00,191.80 531.20,194.20" transform="rotate(85.42607946607701, 530.00, 193.00)" cx="530" cy="193" r="1.1955052563244588" fill="#69c487" stroke="#ccc" stroke-width="0.2" opacity="0.6"></polygon></g><g class="key-Malaysia_0"><circle cx="368.00" cy="336.00" r="1.15" fill="#d14e5b" stroke="#ccc" opacity="0.6"></circle><polyline stroke-linecap="round" stroke="#d14e5b" points="368.00,336.00 381.00,331.00 389.00,333.00 395.00,332.00 403.00,330.00 415.00,310.00 418.00,302.00 421.00,295.00 424.00,291.00 431.00,290.00 420.00,288.00 403.00,284.00 409.00,285.00 418.00,285.00 429.00,285.00 441.00,280.00 449.00,281.00 458.00,282.00 463.00,281.00 471.00,281.00 481.00,282.00 488.00,283.00 493.00,282.00 473.00,280.00 476.00,278.00 492.00,281.00 486.00,274.00 493.00,266.00 497.00,264.00 507.00,256.00 519.00,255.00 522.00,255.00 533.00,248.00 543.00,247.00 534.00,238.00 542.00,241.00" fill="none" stroke-width="0.49" opacity="0.6"></polyline><polygon points="540.81,247.81 542.00,239.81 543.19,242.19" transform="rotate(110.55604615912374, 542.00, 241.00)" cx="542" cy="241" r="1.1941595845093689" fill="#d14e5b" stroke="#ccc" stroke-width="0.2" opacity="0.6"></polygon></g><g class="key-Ghana_0"><circle cx="286.00" cy="406.00" r="1.13" fill="#5675c1" stroke="#ccc" opacity="0.6"></circle><polyline stroke-linecap="round" stroke="#5675c1" points="286.00,406.00 280.00,403.00 276.00,402.00 282.00,397.00 283.00,398.00 276.00,396.00 270.00,395.00 266.00,395.00 265.00,395.00 268.00,389.00 280.00,386.00 282.00,381.00 261.00,382.00 266.00,380.00 278.00,376.00 259.00,380.00 242.00,389.00 251.00,382.00 250.00,380.00 243.00,385.00 239.00,390.00 232.00,386.00 210.00,392.00 200.00,394.00 209.00,391.00 215.00,387.00 214.00,384.00 216.00,378.00 223.00,375.00 218.00,373.00 218.00,370.00 226.00,376.00 226.00,376.00 223.00,377.00 226.00,376.00 231.00,376.00 227.00,375.00 248.00,373.00 242.00,372.00 256.00,371.00 263.00,370.00 251.00,365.00 254.00,360.00 256.00,357.00 267.00,351.00 269.00,344.00 263.00,338.00 269.00,333.00 280.00,325.00 275.00,321.00 282.00,312.00" fill="none" stroke-width="0.48" opacity="0.6"></polyline><polygon points="280.82,318.82 282.00,310.82 283.18,313.18" transform="rotate(37.874983972971805, 282.00, 312.00)" cx="282" cy="312" r="1.1845700024363275" fill="#5675c1" stroke="#ccc" stroke-width="0.2" opacity="0.6"></polygon></g><g class="key-Taiwan_0"><circle cx="272.00" cy="361.00" r="1.15" fill="#d14e5b" stroke="#ccc" opacity="0.6"></circle><polyline stroke-linecap="round" stroke="#d14e5b" points="272.00,361.00 284.00,361.00 295.00,357.00 304.00,351.00 318.00,349.00 327.00,344.00 338.00,341.00 351.00,337.00 366.00,339.00 382.00,337.00 397.00,335.00 397.00,340.00 400.00,340.00 417.00,340.00 427.00,335.00 441.00,335.00 451.00,329.00 458.00,323.00 463.00,320.00 465.00,315.00 474.00,312.00 486.00,313.00 487.00,310.00 504.00,308.00 526.00,306.00 529.00,298.00 540.00,293.00 551.00,287.00 559.00,285.00 568.00,281.00 574.00,275.00 580.00,273.00 586.00,270.00 593.00,265.00 602.00,266.00 610.00,263.00 615.00,259.00 624.00,256.00 618.00,251.00 623.00,248.00 626.00,245.00 633.00,244.00 640.00,243.00 643.00,242.00 647.00,242.00 639.00,241.00 636.00,237.00 647.00,237.00" fill="none" stroke-width="0.48" opacity="0.6"></polyline><polygon points="645.82,243.82 647.00,235.82 648.18,238.18" transform="rotate(90.0000007648485, 647.00, 237.00)" cx="647" cy="237" r="1.1811847257363741" fill="#d14e5b" stroke="#ccc" stroke-width="0.2" opacity="0.6"></polygon></g><g class="key-Chile_0"><circle cx="346.00" cy="329.00" r="1.13" fill="#69c487" stroke="#ccc" opacity="0.6"></circle><polyline stroke-linecap="round" stroke="#69c487" points="346.00,329.00 353.00,325.00 363.00,323.00 362.00,311.00 372.00,331.00 364.00,330.00 359.00,325.00 372.00,308.00 375.00,310.00 364.00,323.00 367.00,320.00 360.00,316.00 389.00,314.00 391.00,310.00 391.00,317.00 384.00,323.00 397.00,320.00 403.00,318.00 404.00,312.00 411.00,308.00 408.00,307.00 423.00,304.00 420.00,297.00 413.00,301.00 404.00,315.00 378.00,308.00 382.00,302.00 392.00,293.00 400.00,289.00 409.00,288.00 415.00,276.00 420.00,274.00 399.00,254.00 392.00,239.00 395.00,244.00 393.00,260.00 397.00,261.00 404.00,267.00 415.00,272.00 425.00,271.00 426.00,264.00 433.00,260.00 448.00,253.00 453.00,249.00 462.00,241.00 478.00,235.00 481.00,232.00 482.00,228.00 479.00,224.00 472.00,208.00 475.00,204.00 473.00,209.00 473.00,207.00 478.00,206.00 490.00,205.00 503.00,201.00 524.00,203.00 532.00,201.00 527.00,199.00 528.00,195.00 545.00,189.00" fill="none" stroke-width="0.47" opacity="0.6"></polyline><polygon points="543.83,195.83 545.00,187.83 546.17,190.17" transform="rotate(70.55996577146473, 545.00, 189.00)" cx="545" cy="189" r="1.1657496638936067" fill="#69c487" stroke="#ccc" stroke-width="0.2" opacity="0.6"></polygon></g><g class="key-Netherlands_0"><circle cx="414.00" cy="277.00" r="1.14" fill="#ffd336" stroke="#ccc" opacity="0.6"></circle><polyline stroke-linecap="round" stroke="#ffd336" points="414.00,277.00 474.00,266.00 473.00,266.00 482.00,265.00 485.00,265.00 498.00,263.00 502.00,259.00 506.00,254.00 514.00,250.00 523.00,245.00 533.00,243.00 541.00,238.00 547.00,235.00 552.00,233.00 560.00,229.00 572.00,226.00 568.00,222.00 574.00,220.00 574.00,217.00 575.00,215.00 580.00,210.00 585.00,205.00 579.00,201.00 573.00,197.00 572.00,193.00 574.00,191.00 574.00,189.00 577.00,187.00 576.00,186.00 580.00,184.00 586.00,182.00 591.00,182.00 594.00,179.00 598.00,176.00 600.00,172.00 605.00,170.00 610.00,167.00 613.00,165.00 624.00,163.00 632.00,161.00 641.00,159.00 654.00,158.00 655.00,156.00 655.00,154.00 652.00,152.00 654.00,150.00 663.00,148.00 670.00,147.00 678.00,145.00 678.00,145.00 672.00,144.00 669.00,142.00" fill="none" stroke-width="0.46" opacity="0.6"></polyline><polygon points="667.84,148.84 669.00,140.84 670.16,143.16" transform="rotate(-56.309932952559855, 669.00, 142.00)" cx="669" cy="142" r="1.1643757151812375" fill="#ffd336" stroke="#ccc" stroke-width="0.2" opacity="0.6"></polygon></g><g class="key-Malawi_0"><circle cx="151.00" cy="467.00" r="1.13" fill="#5675c1" stroke="#ccc" opacity="0.6"></circle><polyline stroke-linecap="round" stroke="#5675c1" points="151.00,467.00 166.00,470.00 158.00,472.00 157.00,473.00 137.00,476.00 151.00,472.00 160.00,476.00 160.00,473.00 163.00,471.00 164.00,472.00 157.00,473.00 154.00,476.00 156.00,475.00 150.00,476.00 138.00,479.00 148.00,481.00 151.00,481.00 157.00,480.00 163.00,477.00 180.00,475.00 163.00,474.00 153.00,473.00 138.00,473.00 142.00,472.00 131.00,470.00 137.00,466.00 117.00,464.00 123.00,465.00 149.00,463.00 151.00,461.00 143.00,460.00 157.00,454.00 129.00,455.00 134.00,453.00 128.00,453.00 114.00,449.00 130.00,446.00 131.00,446.00 149.00,434.00 154.00,426.00 146.00,429.00 167.00,420.00 178.00,408.00 146.00,401.00 145.00,394.00" fill="none" stroke-width="0.46" opacity="0.6"></polyline><polygon points="143.84,400.84 145.00,392.84 146.16,395.16" transform="rotate(-8.13010242324819, 145.00, 394.00)" cx="145" cy="394" r="1.159588131868306" fill="#5675c1" stroke="#ccc" stroke-width="0.2" opacity="0.6"></polygon></g><g class="key-Zambia_0"><circle cx="267.00" cy="400.00" r="1.12" fill="#5675c1" stroke="#ccc" opacity="0.6"></circle><polyline stroke-linecap="round" stroke="#5675c1" points="267.00,400.00 246.00,402.00 256.00,393.00 259.00,391.00 261.00,403.00 244.00,391.00 239.00,381.00 248.00,391.00 244.00,392.00 241.00,398.00 246.00,400.00 252.00,402.00 227.00,406.00 216.00,409.00 210.00,410.00 199.00,409.00 221.00,406.00 215.00,408.00 204.00,417.00 216.00,419.00 225.00,422.00 196.00,425.00 193.00,428.00 208.00,431.00 182.00,434.00 190.00,436.00 186.00,434.00 180.00,432.00 165.00,428.00 145.00,429.00 144.00,429.00 149.00,422.00 162.00,419.00 153.00,417.00 141.00,410.00 166.00,407.00 174.00,410.00 185.00,415.00 196.00,419.00 198.00,423.00 211.00,422.00 228.00,421.00 264.00,420.00 269.00,419.00 281.00,419.00 293.00,418.00" fill="none" stroke-width="0.45" opacity="0.6"></polyline><polygon points="291.85,424.85 293.00,416.85 294.15,419.15" transform="rotate(85.23635903363939, 293.00, 418.00)" cx="293" cy="418" r="1.15435889139051" fill="#5675c1" stroke="#ccc" stroke-width="0.2" opacity="0.6"></polygon></g><g class="key-Senegal_0"><circle cx="244.00" cy="422.00" r="1.13" fill="#5675c1" stroke="#ccc" opacity="0.6"></circle><polyline stroke-linecap="round" stroke="#5675c1" points="244.00,422.00 236.00,416.00 235.00,416.00 222.00,418.00 223.00,424.00 224.00,416.00 230.00,416.00 223.00,419.00 215.00,412.00 216.00,411.00 203.00,408.00 204.00,406.00 223.00,402.00 230.00,402.00 229.00,402.00 239.00,401.00 242.00,398.00 241.00,396.00 243.00,393.00 236.00,390.00 235.00,390.00 233.00,389.00 229.00,388.00 227.00,390.00 221.00,390.00 223.00,387.00 224.00,387.00 223.00,384.00 225.00,379.00 227.00,374.00 231.00,370.00 232.00,369.00 229.00,367.00 231.00,363.00 231.00,359.00 238.00,356.00 237.00,354.00 242.00,351.00 241.00,351.00 247.00,352.00 250.00,353.00" fill="none" stroke-width="0.45" opacity="0.6"></polyline><polygon points="248.85,359.85 250.00,351.85 251.15,354.15" transform="rotate(108.43494974443654, 250.00, 353.00)" cx="250" cy="353" r="1.1524252521080045" fill="#5675c1" stroke="#ccc" stroke-width="0.2" opacity="0.6"></polygon></g><g class="key-Belgium_0"><circle cx="406.00" cy="355.00" r="1.14" fill="#ffd336" stroke="#ccc" opacity="0.6"></circle><polyline stroke-linecap="round" stroke="#ffd336" points="406.00,355.00 458.00,334.00 526.00,262.00 531.00,259.00 540.00,255.00 548.00,252.00 550.00,250.00 548.00,244.00 557.00,239.00 558.00,233.00 562.00,227.00 566.00,222.00 573.00,218.00 563.00,212.00 559.00,207.00 556.00,203.00 555.00,201.00 550.00,198.00 557.00,195.00 563.00,191.00 574.00,188.00 579.00,188.00 582.00,187.00 586.00,186.00 593.00,183.00 592.00,180.00 597.00,177.00 601.00,175.00 599.00,172.00 608.00,170.00 615.00,168.00 621.00,166.00 630.00,165.00 629.00,164.00 635.00,160.00 633.00,158.00 635.00,155.00 637.00,154.00 636.00,153.00 650.00,151.00" fill="none" stroke-width="0.45" opacity="0.6"></polyline><polygon points="648.85,157.85 650.00,149.85 651.15,152.15" transform="rotate(81.86989834160035, 650.00, 151.00)" cx="650" cy="151" r="1.1472203589881866" fill="#ffd336" stroke="#ccc" stroke-width="0.2" opacity="0.6"></polygon></g><g class="key-Bolivia_0"><circle cx="217.00" cy="446.00" r="1.12" fill="#69c487" stroke="#ccc" opacity="0.6"></circle><polyline stroke-linecap="round" stroke="#69c487" points="217.00,446.00 223.00,445.00 223.00,441.00 203.00,440.00 204.00,438.00 204.00,445.00 190.00,439.00 179.00,431.00 175.00,434.00 176.00,440.00 176.00,432.00 177.00,432.00 177.00,426.00 183.00,428.00 188.00,430.00 192.00,439.00 201.00,436.00 206.00,430.00 218.00,424.00 220.00,413.00 224.00,410.00 228.00,407.00 224.00,402.00 234.00,397.00 250.00,390.00 252.00,382.00 257.00,375.00 259.00,370.00 255.00,363.00 257.00,358.00 257.00,354.00 257.00,348.00 250.00,344.00 246.00,338.00 251.00,334.00 258.00,318.00 255.00,312.00 259.00,312.00 242.00,316.00 245.00,317.00 252.00,323.00 257.00,338.00 261.00,342.00 266.00,330.00 274.00,329.00 287.00,324.00 299.00,319.00 299.00,317.00 300.00,309.00 298.00,301.00 297.00,300.00 300.00,285.00 305.00,289.00 309.00,272.00 315.00,272.00 322.00,281.00 327.00,275.00 333.00,272.00 347.00,262.00 351.00,258.00 363.00,246.00" fill="none" stroke-width="0.44" opacity="0.6"></polyline><polygon points="361.86,252.86 363.00,244.86 364.14,247.14" transform="rotate(45.00000038242425, 363.00, 246.00)" cx="363" cy="246" r="1.1447937756025481" fill="#69c487" stroke="#ccc" stroke-width="0.2" opacity="0.6"></polygon></g><g class="key-Sweden_0"><circle cx="438.00" cy="343.00" r="1.14" fill="#ffd336" stroke="#ccc" opacity="0.6"></circle><polyline stroke-linecap="round" stroke="#ffd336" points="438.00,343.00 446.00,341.00 450.00,340.00 453.00,338.00 458.00,336.00 462.00,334.00 465.00,333.00 469.00,331.00 474.00,329.00 476.00,327.00 480.00,325.00 481.00,323.00 490.00,319.00 498.00,315.00 504.00,311.00 514.00,306.00 517.00,302.00 520.00,296.00 525.00,291.00 531.00,285.00 536.00,279.00 546.00,274.00 547.00,264.00 551.00,260.00 556.00,260.00 557.00,257.00 560.00,254.00 561.00,250.00 557.00,244.00 559.00,241.00 563.00,239.00 562.00,236.00 563.00,232.00 565.00,228.00 568.00,224.00 574.00,222.00 577.00,221.00 584.00,220.00 588.00,218.00 594.00,217.00 597.00,214.00 597.00,210.00 596.00,206.00 596.00,201.00 590.00,198.00 598.00,196.00 605.00,199.00 608.00,199.00 615.00,199.00 623.00,199.00 631.00,196.00 641.00,195.00 639.00,194.00 641.00,192.00 643.00,189.00 649.00,187.00 647.00,186.00 654.00,185.00 662.00,185.00 662.00,187.00 656.00,182.00 661.00,181.00" fill="none" stroke-width="0.44" opacity="0.6"></polyline><polygon points="659.86,187.86 661.00,179.86 662.14,182.14" transform="rotate(78.69006819471291, 661.00, 181.00)" cx="661" cy="181" r="1.1430624176935242" fill="#ffd336" stroke="#ccc" stroke-width="0.2" opacity="0.6"></polygon></g><g class="key-Hong-Kong_0"><circle cx="485.00" cy="289.00" r="1.13" fill="#d14e5b" stroke="#ccc" opacity="0.6"></circle><polyline stroke-linecap="round" stroke="#d14e5b" points="485.00,289.00 482.00,298.00 498.00,299.00 508.00,291.00 516.00,284.00 525.00,275.00 530.00,267.00 534.00,287.00 535.00,284.00 541.00,279.00 551.00,273.00 545.00,248.00 558.00,243.00 576.00,241.00 580.00,232.00 590.00,221.00 600.00,210.00 613.00,202.00 614.00,193.00 623.00,179.00 634.00,171.00 631.00,166.00 629.00,160.00 637.00,155.00 637.00,148.00 637.00,142.00 648.00,139.00 657.00,135.00 667.00,131.00 669.00,126.00 689.00,120.00 685.00,117.00 683.00,116.00 691.00,113.00 671.00,111.00 663.00,109.00 670.00,107.00" fill="none" stroke-width="0.44" opacity="0.6"></polyline><polygon points="668.86,113.86 670.00,105.86 671.14,108.14" transform="rotate(74.05460472841662, 670.00, 107.00)" cx="670" cy="107" r="1.1354965743592558" fill="#d14e5b" stroke="#ccc" stroke-width="0.2" opacity="0.6"></polygon></g><g class="key-Denmark_0"><circle cx="445.00" cy="322.00" r="1.13" fill="#ffd336" stroke="#ccc" opacity="0.6"></circle><polyline stroke-linecap="round" stroke="#ffd336" points="445.00,322.00 454.00,318.00 455.00,315.00 463.00,313.00 463.00,313.00 463.00,308.00 465.00,307.00 476.00,307.00 479.00,303.00 489.00,307.00 489.00,307.00 497.00,304.00 505.00,301.00 506.00,297.00 518.00,296.00 524.00,291.00 527.00,289.00 531.00,285.00 537.00,281.00 546.00,274.00 548.00,268.00 551.00,260.00 558.00,255.00 563.00,253.00 558.00,246.00 556.00,236.00 565.00,233.00 567.00,230.00 568.00,227.00 572.00,223.00 569.00,218.00 562.00,211.00 565.00,207.00 566.00,205.00 569.00,208.00 573.00,209.00 582.00,209.00 585.00,205.00 588.00,201.00 589.00,198.00 590.00,196.00 593.00,194.00 598.00,192.00 596.00,189.00 604.00,186.00 608.00,188.00 611.00,185.00 619.00,182.00 626.00,180.00 632.00,177.00 640.00,176.00 639.00,174.00 642.00,171.00 639.00,169.00 644.00,165.00 647.00,165.00 654.00,164.00 657.00,163.00 660.00,163.00 657.00,158.00 663.00,154.00" fill="none" stroke-width="0.43" opacity="0.6"></polyline><polygon points="661.87,160.87 663.00,152.87 664.13,155.13" transform="rotate(56.309932952559855, 663.00, 154.00)" cx="663" cy="154" r="1.130375372574418" fill="#ffd336" stroke="#ccc" stroke-width="0.2" opacity="0.6"></polygon></g><g class="key-Finland_0"><circle cx="369.00" cy="396.00" r="1.12" fill="#ffd336" stroke="#ccc" opacity="0.6"></circle><polyline stroke-linecap="round" stroke="#ffd336" points="369.00,396.00 440.00,361.00 514.00,298.00 517.00,295.00 526.00,292.00 535.00,290.00 538.00,285.00 534.00,280.00 533.00,274.00 533.00,268.00 537.00,263.00 548.00,263.00 555.00,263.00 556.00,260.00 557.00,257.00 558.00,253.00 559.00,250.00 560.00,245.00 566.00,241.00 572.00,236.00 582.00,232.00 588.00,228.00 585.00,226.00 573.00,220.00 571.00,215.00 568.00,211.00 576.00,210.00 590.00,210.00 587.00,207.00 601.00,207.00 613.00,206.00 620.00,205.00 628.00,205.00 629.00,201.00 630.00,197.00 630.00,195.00 636.00,192.00 640.00,192.00 644.00,192.00 648.00,191.00" fill="none" stroke-width="0.43" opacity="0.6"></polyline><polygon points="646.87,197.87 648.00,189.87 649.13,192.13" transform="rotate(75.96375717763759, 648.00, 191.00)" cx="648" cy="191" r="1.1297289852574193" fill="#ffd336" stroke="#ccc" stroke-width="0.2" opacity="0.6"></polygon></g><g class="key-Singapore_0"><circle cx="355.00" cy="202.00" r="1.12" fill="#d14e5b" stroke="#ccc" opacity="0.6"></circle><polyline stroke-linecap="round" stroke="#d14e5b" points="355.00,202.00 368.00,210.00 383.00,223.00 395.00,216.00 401.00,231.00 405.00,216.00 413.00,220.00 421.00,219.00 431.00,226.00 442.00,226.00 453.00,227.00 461.00,234.00 464.00,232.00 473.00,228.00 482.00,232.00 481.00,225.00 483.00,223.00 495.00,225.00 505.00,225.00 515.00,227.00 524.00,224.00 528.00,219.00 533.00,214.00 544.00,207.00 554.00,200.00 559.00,191.00 565.00,193.00 584.00,199.00 610.00,204.00 613.00,209.00 652.00,210.00 638.00,201.00 649.00,194.00 636.00,190.00 658.00,189.00 681.00,190.00 704.00,192.00 713.00,195.00 686.00,198.00 688.00,193.00 715.00,188.00" fill="none" stroke-width="0.43" opacity="0.6"></polyline><polygon points="713.87,194.87 715.00,186.87 716.13,189.13" transform="rotate(79.50852366335701, 715.00, 188.00)" cx="715" cy="188" r="1.1287542556331704" fill="#d14e5b" stroke="#ccc" stroke-width="0.2" opacity="0.6"></polygon></g><g class="key-Costa-Rica_0"><circle cx="302.00" cy="384.00" r="1.11" fill="#4d824b" stroke="#ccc" opacity="0.6"></circle><polyline stroke-linecap="round" stroke="#4d824b" points="302.00,384.00 289.00,391.00 301.00,391.00 319.00,378.00 316.00,380.00 323.00,367.00 311.00,361.00 317.00,371.00 330.00,363.00 326.00,363.00 331.00,364.00 333.00,363.00 338.00,364.00 346.00,362.00 349.00,359.00 358.00,355.00 365.00,350.00 370.00,350.00 375.00,348.00 381.00,344.00 389.00,337.00 393.00,333.00 400.00,329.00 406.00,324.00 406.00,321.00 408.00,321.00 416.00,319.00 428.00,313.00 431.00,311.00 434.00,308.00 433.00,306.00 428.00,302.00 416.00,306.00 414.00,301.00 419.00,310.00 419.00,302.00 429.00,303.00 425.00,312.00 425.00,308.00 430.00,306.00 432.00,306.00 432.00,302.00 440.00,294.00 445.00,284.00 449.00,279.00 450.00,272.00 444.00,266.00 448.00,263.00 458.00,259.00 458.00,254.00 456.00,249.00 456.00,237.00 457.00,232.00 458.00,227.00 462.00,222.00 465.00,223.00 469.00,216.00 476.00,214.00 481.00,203.00 486.00,193.00 489.00,203.00" fill="none" stroke-width="0.43" opacity="0.6"></polyline><polygon points="487.87,209.87 489.00,201.87 490.13,204.13" transform="rotate(163.3007571537879, 489.00, 203.00)" cx="489" cy="203" r="1.127241367159685" fill="#4d824b" stroke="#ccc" stroke-width="0.2" opacity="0.6"></polygon></g><g class="key-Botswana_0"><circle cx="174.00" cy="473.00" r="1.11" fill="#5675c1" stroke="#ccc" opacity="0.6"></circle><polyline stroke-linecap="round" stroke="#5675c1" points="174.00,473.00 172.00,468.00 183.00,462.00 188.00,462.00 192.00,456.00 192.00,455.00 201.00,451.00 227.00,439.00 249.00,424.00 264.00,419.00 258.00,414.00 260.00,404.00 264.00,395.00 264.00,389.00 263.00,383.00 265.00,380.00 262.00,376.00 273.00,367.00 278.00,361.00 296.00,361.00 322.00,358.00 338.00,351.00 345.00,347.00 352.00,339.00 363.00,336.00 392.00,338.00 398.00,335.00 404.00,330.00 409.00,325.00 408.00,320.00 408.00,317.00 415.00,313.00 427.00,312.00 434.00,318.00 438.00,319.00 449.00,317.00 457.00,312.00 454.00,302.00 475.00,299.00 470.00,296.00 474.00,298.00 490.00,294.00 493.00,290.00 495.00,289.00 492.00,281.00 480.00,281.00 491.00,279.00" fill="none" stroke-width="0.42" opacity="0.6"></polyline><polygon points="489.88,285.88 491.00,277.88 492.12,280.12" transform="rotate(79.69515420850863, 491.00, 279.00)" cx="491" cy="279" r="1.1174223906138616" fill="#5675c1" stroke="#ccc" stroke-width="0.2" opacity="0.6"></polygon></g><g class="key-Mauritius_0"><circle cx="350.00" cy="345.00" r="1.11" fill="#5675c1" stroke="#ccc" opacity="0.6"></circle><polyline stroke-linecap="round" stroke="#5675c1" points="350.00,345.00 356.00,309.00 362.00,299.00 366.00,311.00 370.00,317.00 363.00,325.00 361.00,327.00 398.00,331.00 402.00,330.00 402.00,324.00 390.00,323.00 388.00,316.00 391.00,312.00 393.00,304.00 394.00,298.00 413.00,312.00 409.00,318.00 421.00,337.00 450.00,328.00 451.00,318.00 457.00,324.00 468.00,324.00 479.00,321.00 478.00,318.00 487.00,314.00 496.00,311.00 503.00,304.00 519.00,297.00 517.00,292.00 519.00,290.00 517.00,285.00 517.00,282.00 512.00,278.00 511.00,268.00 508.00,260.00 507.00,245.00 500.00,239.00 508.00,236.00 521.00,238.00 521.00,232.00 524.00,224.00 527.00,220.00" fill="none" stroke-width="0.41" opacity="0.6"></polyline><polygon points="525.89,226.89 527.00,218.89 528.11,221.11" transform="rotate(36.86989795917608, 527.00, 220.00)" cx="527" cy="220" r="1.1146597517995511" fill="#5675c1" stroke="#ccc" stroke-width="0.2" opacity="0.6"></polygon></g><g class="backgroundLabels" fill="#333"><text x="460.97" y="350.42" font-size="14.26">China</text><text x="353.95" y="399.69" font-size="13.97">India</text><text x="615.67" y="124.46" font-size="11.75">United States</text><text x="426.86" y="307.84" font-size="11.58">Indonesia</text><text x="508.89" y="219.97" font-size="11.47">Brazil</text><text x="375.00" y="359.00" font-size="11.38">Nigeria</text><text x="642.60" y="180.03" font-size="11.31">Japan</text><text x="518.00" y="238.00" font-size="11.27">Mexico</text><text x="384.70" y="270.29" font-size="11.23">Philippines</text><text x="157.85" y="436.79" font-size="11.20">Ethiopia</text><text x="462.97" y="269.48" font-size="11.20">Egypt</text><text x="602.47" y="215.76" font-size="11.20">Germany</text><text x="499.85" y="320.79" font-size="11.17">Thailand</text><text x="644.95" y="158.29" font-size="11.15">France</text><text x="554.62" y="156.73" font-size="11.15">United Kingdom</text><text x="611.91" y="188.26" font-size="11.15">Italy</text><text x="628.47" y="202.76" font-size="11.11">Spain</text><text x="246.74" y="405.42" font-size="11.11">Tanzania</text><text x="279.90" y="348.02" font-size="11.10">Kenya</text><text x="554.00" y="176.00" font-size="11.10">Argentina</text><text x="458.97" y="235.42" font-size="11.07">Peru</text><text x="534.98" y="192.60" font-size="11.07">Venezuela</text><text x="285.07" y="308.05" font-size="11.06">Ghana</text><text x="652.00" y="237.00" font-size="11.05">Taiwan</text><text x="605.12" y="139.23" font-size="11.04">Netherlands</text><text x="109.97" y="389.05" font-size="11.03">Malawi</text><text x="297.98" y="417.58" font-size="11.03">Zambia</text><text x="254.74" y="360.10" font-size="11.03">Senegal</text><text x="366.54" y="242.46" font-size="11.02">Bolivia</text><text x="495.92" y="278.11" font-size="11.00">Botswana</text></g></g><g class="ScatterColorLegend clickable" style="cursor:pointer"><g class="legendMark"><rect x="735" y="105.10000000000001" width="43.256" height="17.6" fill="#fff" opacity="0"></rect>,<rect x="735" y="110.60000000000001" width="6" height="6" fill="#5675c1"></rect>,<text font-size="12.60" x="746.0" y="117.7"><tspan x="746" y="117.68">Africa</tspan></text></g><g class="legendMark"><rect x="735" y="122.70000000000002" width="35.57" height="17.6" fill="#fff" opacity="0"></rect>,<rect x="735" y="128.20000000000002" width="6" height="6" fill="#d14e5b"></rect>,<text font-size="12.60" x="746.0" y="135.3"><tspan x="746" y="135.28">Asia</tspan></text></g><g class="legendMark"><rect x="735" y="140.3" width="51.824" height="17.6" fill="#fff" opacity="0"></rect>,<rect x="735" y="145.8" width="6" height="6" fill="#ffd336"></rect>,<text font-size="12.60" x="746.0" y="152.9"><tspan x="746" y="152.88">Europe</tspan></text></g><g class="legendMark"><rect x="735" y="157.9" width="91.64" height="17.6" fill="#fff" opacity="0"></rect>,<rect x="735" y="163.4" width="6" height="6" fill="#4d824b"></rect>,<text font-size="12.60" x="746.0" y="170.5"><tspan x="746" y="170.48">North America</tspan></text></g><g class="legendMark"><rect x="735" y="175.5" width="93.908" height="17.6" fill="#fff" opacity="0"></rect>,<rect x="735" y="181" width="6" height="6" fill="#69c487"></rect>,<text font-size="12.60" x="746.0" y="188.1"><tspan x="746" y="188.07999999999998">South America</tspan></text></g></g><line x1="735" y1="197.60000000000002" x2="830" y2="197.60000000000002" stroke="#ccc"></line><g class="clickable"><g class="ConnectedScatterLegend"><rect x="735" y="206.60000000000002" width="100" height="12.6" fill="#fff" opacity="0"></rect><text font-size="12.60" x="735.0" y="216.7" fill="#333"><tspan x="735" y="216.68">1949</tspan></text><text font-size="12.60" x="806.8" y="216.7" fill="#333"><tspan x="806.776" y="216.68">2010</tspan></text><line x1="768.224" y1="212.40000000000003" x2="801.776" y2="212.40000000000003" stroke="#666" stroke-width="1"></line><circle cx="768.224" cy="212.40000000000003" r="2" fill="#666" stroke="#ccc" stroke-width="0.2"></circle><circle cx="779.408" cy="212.40000000000003" r="2" fill="#666" stroke="#ccc" stroke-width="0.2"></circle><circle cx="790.592" cy="212.40000000000003" r="2" fill="#666" stroke="#ccc" stroke-width="0.2"></circle><polygon points="798.78,217.40 801.78,209.40 804.78,215.40" cx="801.776" cy="212.40000000000003" r="3" fill="#666" stroke="#ccc" stroke-width="0.2" transform="rotate(90, 801.776, 212.40000000000003)"></polygon></g></g></g><g class="SourcesFooter" style="fill:#777"><g class="clickable" style="fill:#777"><text font-size="12.60" x="15.0" y="581.6"><tspan x="15" y="581.58">Source: Our World In Data based on Herrendorf et al. (2014) and GGDC-10 (2015), Maddison Project Database (2018)</tspan></text></g><text font-size="12.60" x="775.4" y="581.6"><tspan x="775.402" y="581.58"><a style="fill: #777;" class="cclogo" href="http://creativecommons.org/licenses/by-sa/4.0/deed.en_US" target="_blank">CC BY-SA</a></tspan></text></g></g></svg>