<svg xmlns="http://www.w3.org/2000/svg" version="1.1" style="font-family: 'Helvetica Neue', Helvetica, Arial, sans-serif; font-size: 18px; background-color: white; text-rendering: optimizeLegibility; -webkit-font-smoothing: antialiased;" width="850" height="600"><g class="ChartTab"><g class="HeaderView"><g opacity="0.8" transform="translate(778, 15) scale(0.27)"><a xmlns:xlink="http://www.w3.org/1999/xlink" xlink:href="https://ourworldindata.org" target="_blank"><g><rect x="0" y="0" fill="#1B2543" width="211.2" height="130.1"/><rect x="0" y="112.2" fill="#E63912" width="211.2" height="17.9"/><g><rect x="1.2" y="12.3" fill="none" width="210.2" height="99.2"/><path fill="#FFFFFF" d="M37.8,32.2c0,12.7-7.7,19.4-17.1,19.4c-9.7,0-16.6-7.5-16.6-18.7c0-11.7,7.3-19.3,17.1-19.3 C31.3,13.7,37.8,21.3,37.8,32.2z M9.2,32.8c0,7.9,4.3,14.9,11.8,14.9c7.5,0,11.8-6.9,11.8-15.3c0-7.3-3.8-14.9-11.8-14.9 C13.1,17.5,9.2,24.8,9.2,32.8z"/><path fill="#FFFFFF" d="M62.7,43.8c0,2.7,0.1,5.1,0.2,7.2h-4.3l-0.3-4.3h-0.1c-1.3,2.1-4,4.9-8.8,4.9c-4.2,0-9.1-2.3-9.1-11.6 V24.6h4.8v14.6c0,5,1.5,8.4,5.9,8.4c3.2,0,5.5-2.2,6.3-4.4c0.3-0.7,0.4-1.6,0.4-2.5V24.6h4.8V43.8z"/><path fill="#FFFFFF" d="M67.3,32.8c0-3.1-0.1-5.8-0.2-8.2h4.2l0.2,5.2h0.2c1.2-3.5,4.1-5.8,7.3-5.8c0.5,0,0.9,0.1,1.4,0.2v4.5 c-0.5-0.1-1-0.2-1.6-0.2c-3.4,0-5.8,2.6-6.5,6.2c-0.1,0.7-0.2,1.4-0.2,2.2V51h-4.8V32.8z"/><path fill="#FFFFFF" d="M95.4,51l-9.4-36.8h5l4.4,18.6c1.1,4.6,2.1,9.2,2.7,12.7h0.1c0.6-3.7,1.8-8,3-12.8l4.9-18.5h5l4.5,18.7 c1,4.4,2,8.7,2.6,12.6h0.1c0.8-4,1.8-8.1,3-12.7l4.9-18.5h4.9L120.6,51h-5L111,31.9c-1.1-4.7-1.9-8.3-2.4-12h-0.1 c-0.7,3.7-1.5,7.3-2.8,12L100.4,51H95.4z"/><path fill="#FFFFFF" d="M154.9,37.6c0,9.8-6.8,14-13.2,14c-7.2,0-12.7-5.2-12.7-13.6c0-8.8,5.8-14,13.1-14 C149.8,24,154.9,29.5,154.9,37.6z M133.9,37.9c0,5.8,3.3,10.1,8,10.1c4.6,0,8-4.3,8-10.3c0-4.5-2.2-10.1-7.9-10.1 C136.3,27.6,133.9,32.8,133.9,37.9z"/><path fill="#FFFFFF" d="M158.2,32.8c0-3.1-0.1-5.8-0.2-8.2h4.2l0.2,5.2h0.2c1.2-3.5,4.1-5.8,7.3-5.8c0.5,0,0.9,0.1,1.4,0.2v4.5 c-0.5-0.1-1-0.2-1.6-0.2c-3.4,0-5.8,2.6-6.5,6.2c-0.1,0.7-0.2,1.4-0.2,2.2V51h-4.8V32.8z"/><path fill="#FFFFFF" d="M173.5,12.3h4.8V51h-4.8V12.3z"/><path fill="#FFFFFF" d="M206.5,12.3v31.9c0,2.3,0.1,5,0.2,6.8h-4.3l-0.2-4.6H202c-1.5,2.9-4.7,5.2-9,5.2 c-6.4,0-11.3-5.4-11.3-13.4c-0.1-8.8,5.4-14.2,11.9-14.2c4,0,6.8,1.9,8,4h0.1V12.3H206.5z M201.7,35.4c0-0.6-0.1-1.4-0.2-2 c-0.7-3.1-3.3-5.6-6.9-5.6c-5,0-7.9,4.4-7.9,10.2c0,5.3,2.6,9.8,7.8,9.8c3.2,0,6.2-2.1,7.1-5.7c0.2-0.7,0.2-1.3,0.2-2.1V35.4z"/><path fill="#FFFFFF" d="M42.8,64c0.1,1.6-1.1,2.9-3.1,2.9c-1.7,0-2.9-1.3-2.9-2.9c0-1.7,1.3-3,3-3C41.7,61,42.8,62.3,42.8,64z M37.4,97.8V71.4h4.8v26.4H37.4z"/><path fill="#FFFFFF" d="M47.5,78.6c0-2.7-0.1-5-0.2-7.1h4.3l0.3,4.4h0.1c1.3-2.5,4.4-5,8.8-5c3.7,0,9.4,2.2,9.4,11.2v15.8h-4.8 V82.6c0-4.3-1.6-7.8-6.1-7.8c-3.2,0-5.6,2.2-6.5,4.9c-0.2,0.6-0.3,1.4-0.3,2.2v15.9h-4.8V78.6z"/><path fill="#FFFFFF" d="M84,61.6c2.9-0.4,6.3-0.8,10.1-0.8c6.8,0,11.7,1.6,14.9,4.6c3.3,3,5.2,7.3,5.2,13.2c0,6-1.9,10.9-5.3,14.3 c-3.4,3.4-9.1,5.3-16.3,5.3c-3.4,0-6.2-0.2-8.6-0.4V61.6z M88.8,94.1c1.2,0.2,3,0.3,4.8,0.3c10.2,0,15.7-5.7,15.7-15.6 c0.1-8.7-4.9-14.2-14.9-14.2c-2.5,0-4.3,0.2-5.6,0.5V94.1z"/><path fill="#FFFFFF" d="M132.1,97.8l-0.4-3.3h-0.2c-1.5,2.1-4.3,3.9-8.1,3.9c-5.4,0-8.1-3.8-8.1-7.6c0-6.4,5.7-9.9,15.9-9.8v-0.5 c0-2.2-0.6-6.1-6-6.1c-2.5,0-5,0.8-6.9,2l-1.1-3.2c2.2-1.4,5.4-2.3,8.7-2.3c8.1,0,10.1,5.5,10.1,10.8v9.9c0,2.3,0.1,4.5,0.4,6.3 H132.1z M131.4,84.4c-5.3-0.1-11.2,0.8-11.2,5.9c0,3.1,2.1,4.6,4.5,4.6c3.4,0,5.6-2.2,6.4-4.4c0.2-0.5,0.3-1,0.3-1.5V84.4z"/><path fill="#FFFFFF" d="M146.6,63.9v7.6h6.9v3.7h-6.9v14.2c0,3.3,0.9,5.1,3.6,5.1c1.3,0,2.2-0.2,2.8-0.3l0.2,3.6 c-0.9,0.4-2.4,0.7-4.3,0.7c-2.2,0-4-0.7-5.2-2c-1.4-1.4-1.9-3.8-1.9-6.9V75.1h-4.1v-3.7h4.1v-6.3L146.6,63.9z"/><path fill="#FFFFFF" d="M171.4,97.8l-0.4-3.3h-0.2c-1.5,2.1-4.3,3.9-8.1,3.9c-5.4,0-8.1-3.8-8.1-7.6c0-6.4,5.7-9.9,15.9-9.8v-0.5 c0-2.2-0.6-6.1-6-6.1c-2.5,0-5,0.8-6.9,2l-1.1-3.2c2.2-1.4,5.4-2.3,8.7-2.3c8.1,0,10.1,5.5,10.1,10.8v9.9c0,2.3,0.1,4.5,0.4,6.3 H171.4z M170.7,84.4c-5.3-0.1-11.2,0.8-11.2,5.9c0,3.1,2.1,4.6,4.5,4.6c3.4,0,5.6-2.2,6.4-4.4c0.2-0.5,0.3-1,0.3-1.5V84.4z"/></g></g></a></g><a href="https://ourworldindata.org/grapher/gini-index-of-income-in-2015-vs-1990-gcip-survey-years-only" target="_blank"><text font-size="25.20" x="15.0" y="35.2" fill="#555"><tspan x="15" y="35.160000000000004">Gini index of income in 2015 vs 1990 (GCIP – survey years only)</tspan></text></a><text font-size="14.40" x="15.0" y="53.7" fill="#666"><tspan x="15" y="53.72">Where income surveys are not available, figures are estimated based on consumption surveys.</tspan></text></g><g><g class="AxisBoxView"><g class="HorizontalAxis"><text font-size="12.60" x="237.2" y="554.0"><tspan x="237.19500000000002" y="553.98">Gini index of income in 1990</tspan></text><text x="60.8" y="533.9" fill="#666" text-anchor="middle" font-size="16.2">20</text><text x="146.7" y="533.9" fill="#666" text-anchor="middle" font-size="16.2">30</text><text x="232.5" y="533.9" fill="#666" text-anchor="middle" font-size="16.2">40</text><text x="318.4" y="533.9" fill="#666" text-anchor="middle" font-size="16.2">50</text><text x="404.3" y="533.9" fill="#666" text-anchor="middle" font-size="16.2">60</text><text x="490.2" y="533.9" fill="#666" text-anchor="middle" font-size="16.2">70</text><text x="576.1" y="533.9" fill="#666" text-anchor="middle" font-size="16.2">80</text></g><g class="VerticalAxis"><text font-size="12.60" x="-396.4" y="25.1" transform="rotate(-90)"><tspan x="-396.371" y="25.080000000000002">Gini index of income in 2015</tspan></text><text x="55.74" y="512.7" fill="#666" dominant-baseline="middle" text-anchor="end" font-size="16.2">20</text><text x="55.74" y="445.6" fill="#666" dominant-baseline="middle" text-anchor="end" font-size="16.2">30</text><text x="55.74" y="378.5" fill="#666" dominant-baseline="middle" text-anchor="end" font-size="16.2">40</text><text x="55.74" y="311.4" fill="#666" dominant-baseline="middle" text-anchor="end" font-size="16.2">50</text><text x="55.74" y="244.3" fill="#666" dominant-baseline="middle" text-anchor="end" font-size="16.2">60</text><text x="55.74" y="177.2" fill="#666" dominant-baseline="middle" text-anchor="end" font-size="16.2">70</text><text x="55.74" y="110.1" fill="#666" dominant-baseline="middle" text-anchor="end" font-size="16.2">80</text></g><g class="AxisGridLines"><line x1="60.74" y1="512.7" x2="619.03" y2="512.7" stroke="#ddd" stroke-dasharray="3,2"></line><line x1="60.74" y1="445.6" x2="619.03" y2="445.6" stroke="#ddd" stroke-dasharray="3,2"></line><line x1="60.74" y1="378.5" x2="619.03" y2="378.5" stroke="#ddd" stroke-dasharray="3,2"></line><line x1="60.74" y1="311.4" x2="619.03" y2="311.4" stroke="#ddd" stroke-dasharray="3,2"></line><line x1="60.74" y1="244.3" x2="619.03" y2="244.3" stroke="#ddd" stroke-dasharray="3,2"></line><line x1="60.74" y1="177.2" x2="619.03" y2="177.2" stroke="#ddd" stroke-dasharray="3,2"></line><line x1="60.74" y1="110.1" x2="619.03" y2="110.1" stroke="#ddd" stroke-dasharray="3,2"></line></g><g class="AxisGridLines"><line x1="60.8" y1="512.70" x2="60.8" y2="76.60" stroke="#ddd" stroke-dasharray="3,2"></line><line x1="146.7" y1="512.70" x2="146.7" y2="76.60" stroke="#ddd" stroke-dasharray="3,2"></line><line x1="232.5" y1="512.70" x2="232.5" y2="76.60" stroke="#ddd" stroke-dasharray="3,2"></line><line x1="318.4" y1="512.70" x2="318.4" y2="76.60" stroke="#ddd" stroke-dasharray="3,2"></line><line x1="404.3" y1="512.70" x2="404.3" y2="76.60" stroke="#ddd" stroke-dasharray="3,2"></line><line x1="490.2" y1="512.70" x2="490.2" y2="76.60" stroke="#ddd" stroke-dasharray="3,2"></line><line x1="576.1" y1="512.70" x2="576.1" y2="76.60" stroke="#ddd" stroke-dasharray="3,2"></line></g></g><g class="ComparisonLine"><defs><clipPath id="axisBounds-1"><rect x="60.744" y="76.6" width="558.288" height="436.09999999999997"></rect></clipPath></defs><path d="M60.7,512.7L66.3,508.4L71.9,504L77.5,499.6L83.1,495.3L88.7,490.9L94.2,486.5L99.8,482.2L105.4,477.8L111,473.5L116.6,469.1L122.2,464.7L127.7,460.4L133.3,456L138.9,451.7L144.5,447.3L150.1,442.9L155.7,438.6L161.2,434.2L166.8,429.9L172.4,425.5L178,421.1L183.6,416.8L189.2,412.4L194.7,408L200.3,403.7L205.9,399.3L211.5,395L217.1,390.6L222.6,386.2L228.2,381.9L233.8,377.5L239.4,373.2L245,368.8L250.6,364.4L256.1,360.1L261.7,355.7L267.3,351.4L272.9,347L278.5,342.6L284.1,338.3L289.6,333.9L295.2,329.5L300.8,325.2L306.4,320.8L312,316.5L317.6,312.1L323.1,307.7L328.7,303.4L334.3,299L339.9,294.7L345.5,290.3L351.1,285.9L356.6,281.6L362.2,277.2L367.8,272.9L373.4,268.5L379,264.1L384.6,259.8L390.1,255.4L395.7,251L401.3,246.7L406.9,242.3L412.5,238L418,233.6L423.6,229.2L429.2,224.9L434.8,220.5L440.4,216.2L446,211.8L451.5,207.4L457.1,203.1L462.7,198.7L468.3,194.4L473.9,190L479.5,185.6L485,181.3L490.6,176.9L496.2,172.5L501.8,168.2L507.4,163.8L513,159.5L518.5,155.1L524.1,150.7L529.7,146.4L535.3,142L540.9,137.7L546.5,133.3L552,128.9L557.6,124.6L563.2,120.2L568.8,115.9L574.4,111.5L580,107.1L585.5,102.8L591.1,98.4L596.7,94L602.3,89.7L607.9,85.3L613.4,81" clip-path="url(#axisBounds-1)" fill="none" stroke="#ccc"></path></g><g clip-path="url(#scatterBounds-2)" font-family="Arial Narrow, Arial, sans-serif" class="PointsWithLabels clickable"><rect x="60.744" y="76.6" width="558.288" height="436.09999999999997" fill="rgba(255,255,255,0)"></rect><defs><clipPath id="scatterBounds-2"><rect x="50.744" y="66.6" width="578.288" height="456.09999999999997"></rect></clipPath></defs><g class="key-China_0"><circle cx="328.00" cy="291.00" r="17.84" fill="#a652ba" opacity="0.8" stroke="#333" stroke-width="0.7"></circle></g><g class="key-India_0"><circle cx="269.00" cy="346.00" r="17.29" fill="#ffd336" opacity="0.8" stroke="#333" stroke-width="0.7"></circle></g><g class="key-United-States_0"><circle cx="217.00" cy="372.00" r="8.77" fill="#d14e5b" opacity="0.8" stroke="#333" stroke-width="0.7"></circle></g><g class="key-Indonesia_0"><circle cx="212.00" cy="297.00" r="7.77" fill="#a652ba" opacity="0.8" stroke="#333" stroke-width="0.7"></circle></g><g class="key-Brazil_0"><circle cx="394.00" cy="346.00" r="7.03" fill="#5675c1" opacity="0.8" stroke="#333" stroke-width="0.7"></circle></g><g class="key-Pakistan_0"><circle cx="267.00" cy="360.00" r="6.75" fill="#ffd336" opacity="0.8" stroke="#fff" stroke-width="0.7"></circle></g><g class="key-Nigeria_0"><circle cx="404.00" cy="319.00" r="6.53" fill="#4d824b" opacity="0.8" stroke="#333" stroke-width="0.7"></circle></g><g class="key-Bangladesh_0"><circle cx="251.00" cy="357.00" r="6.23" fill="#ffd336" opacity="0.8" stroke="#333" stroke-width="0.7"></circle></g><g class="key-Russia_0"><circle cx="261.00" cy="424.00" r="6.01" fill="#aec7e8" opacity="0.8" stroke="#333" stroke-width="0.7"></circle></g><g class="key-Mexico_0"><circle cx="312.00" cy="329.00" r="5.50" fill="#5675c1" opacity="0.8" stroke="#333" stroke-width="0.7"></circle></g><g class="key-Philippines_0"><circle cx="313.00" cy="334.00" r="5.08" fill="#a652ba" opacity="0.8" stroke="#fff" stroke-width="0.7"></circle></g><g class="key-Vietnam_0"><circle cx="312.00" cy="350.00" r="4.91" fill="#a652ba" opacity="0.8" stroke="#333" stroke-width="0.7"></circle></g><g class="key-Ethiopia_0"><circle cx="324.00" cy="274.00" r="4.85" fill="#4d824b" opacity="0.8" stroke="#fff" stroke-width="0.7"></circle></g><g class="key-Egypt_0"><circle cx="343.00" cy="299.00" r="4.78" fill="#69c487" opacity="0.8" stroke="#333" stroke-width="0.7"></circle></g><g class="key-Germany_0"><circle cx="143.00" cy="435.00" r="4.69" fill="#d14e5b" opacity="0.8" stroke="#333" stroke-width="0.7"></circle></g><g class="key-Iran_0"><circle cx="400.00" cy="263.00" r="4.56" fill="#69c487" opacity="0.8" stroke="#333" stroke-width="0.7"></circle></g><g class="key-Turkey_0"><circle cx="283.00" cy="339.00" r="4.53" fill="#aec7e8" opacity="0.8" stroke="#fff" stroke-width="0.7"></circle></g><g class="key-Thailand_0"><circle cx="358.00" cy="304.00" r="4.40" fill="#a652ba" opacity="0.8" stroke="#fff" stroke-width="0.7"></circle></g><g class="key-France_0"><circle cx="171.00" cy="428.00" r="4.23" fill="#d14e5b" opacity="0.8" stroke="#fff" stroke-width="0.7"></circle></g><g class="key-United-Kingdom_0"><circle cx="198.00" cy="423.00" r="4.21" fill="#d14e5b" opacity="0.8" stroke="#fff" stroke-width="0.7"></circle></g><g class="key-Italy_0"><circle cx="157.00" cy="412.00" r="4.15" fill="#d14e5b" opacity="0.8" stroke="#333" stroke-width="0.7"></circle></g><g class="key-South-Africa_0"><circle cx="463.00" cy="202.00" r="3.86" fill="#4d824b" opacity="0.8" stroke="#333" stroke-width="0.7"></circle></g><g class="key-Tanzania_0"><circle cx="378.00" cy="263.00" r="3.80" fill="#4d824b" opacity="0.8" stroke="#fff" stroke-width="0.7"></circle></g><g class="key-Colombia_0"><circle cx="329.00" cy="300.00" r="3.77" fill="#5675c1" opacity="0.8" stroke="#fff" stroke-width="0.7"></circle></g><g class="key-Spain_0"><circle cx="165.00" cy="402.00" r="3.74" fill="#d14e5b" opacity="0.8" stroke="#fff" stroke-width="0.7"></circle></g><g class="key-Ukraine_0"><circle cx="100.00" cy="361.00" r="3.66" fill="#aec7e8" opacity="0.8" stroke="#333" stroke-width="0.7"></circle></g><g class="key-Argentina_0"><circle cx="277.00" cy="364.00" r="3.56" fill="#5675c1" opacity="0.8" stroke="#fff" stroke-width="0.7"></circle></g><g class="key-Poland_0"><circle cx="151.00" cy="425.00" r="3.46" fill="#aec7e8" opacity="0.8" stroke="#fff" stroke-width="0.7"></circle></g><g class="key-Uganda_0"><circle cx="403.00" cy="256.00" r="3.40" fill="#4d824b" opacity="0.8" stroke="#fff" stroke-width="0.7"></circle></g><g class="key-Canada_0"><circle cx="156.00" cy="421.00" r="3.34" fill="#d14e5b" opacity="0.8" stroke="#fff" stroke-width="0.7"></circle></g><g class="key-Nepal_0"><circle cx="221.00" cy="391.00" r="3.22" fill="#ffd336" opacity="0.8" stroke="#333" stroke-width="0.7"></circle></g><g class="key-Peru_0"><circle cx="330.00" cy="351.00" r="3.17" fill="#5675c1" opacity="0.8" stroke="#fff" stroke-width="0.7"></circle></g><g class="key-Australia_0"><circle cx="173.00" cy="413.00" r="2.91" fill="#d14e5b" opacity="0.8" stroke="#fff" stroke-width="0.7"></circle></g><g class="key-Taiwan_0"><circle cx="145.00" cy="428.00" r="2.90" fill="#d14e5b" opacity="0.8" stroke="#fff" stroke-width="0.7"></circle></g><g class="key-Madagascar_0"><circle cx="422.00" cy="253.00" r="2.88" fill="#4d824b" opacity="0.8" stroke="#333" stroke-width="0.7"></circle></g><g class="key-Sri-Lanka_0"><circle cx="264.00" cy="374.00" r="2.83" fill="#ffd336" opacity="0.8" stroke="#fff" stroke-width="0.7"></circle></g><g class="key-Romania_0"><circle cx="89.00" cy="400.00" r="2.83" fill="#aec7e8" opacity="0.8" stroke="#333" stroke-width="0.7"></circle></g><g class="key-Burkina-Faso_0"><circle cx="614.00" cy="268.00" r="2.69" fill="#4d824b" opacity="0.8" stroke="#333" stroke-width="0.7"></circle></g><g class="key-Chile_0"><circle cx="365.00" cy="318.00" r="2.67" fill="#5675c1" opacity="0.8" stroke="#333" stroke-width="0.7"></circle></g><g class="key-Niger_0"><circle cx="378.00" cy="270.00" r="2.66" fill="#4d824b" opacity="0.8" stroke="#fff" stroke-width="0.7"></circle></g><g class="key-Netherlands_0"><circle cx="162.00" cy="454.00" r="2.64" fill="#d14e5b" opacity="0.8" stroke="#333" stroke-width="0.7"></circle></g><g class="key-Kazakhstan_0"><circle cx="109.00" cy="347.00" r="2.63" fill="#aec7e8" opacity="0.8" stroke="#333" stroke-width="0.7"></circle></g><g class="key-Guatemala_0"><circle cx="363.00" cy="330.00" r="2.58" fill="#5675c1" opacity="0.8" stroke="#333" stroke-width="0.7"></circle></g><g class="key-Ecuador_0"><circle cx="343.00" cy="343.00" r="2.56" fill="#5675c1" opacity="0.8" stroke="#fff" stroke-width="0.7"></circle></g><g class="key-Cambodia_0"><circle cx="318.00" cy="318.00" r="2.54" fill="#a652ba" opacity="0.8" stroke="#fff" stroke-width="0.7"></circle></g><g class="key-Zambia_0"><circle cx="539.00" cy="220.00" r="2.53" fill="#4d824b" opacity="0.8" stroke="#333" stroke-width="0.7"></circle></g><g class="key-Senegal_0"><circle cx="493.00" cy="257.00" r="2.49" fill="#4d824b" opacity="0.8" stroke="#333" stroke-width="0.7"></circle></g><g class="key-Greece_0"><circle cx="218.00" cy="405.00" r="2.39" fill="#d14e5b" opacity="0.8" stroke="#333" stroke-width="0.7"></circle></g><g class="key-Belgium_0"><circle cx="102.00" cy="461.00" r="2.36" fill="#d14e5b" opacity="0.8" stroke="#333" stroke-width="0.7"></circle></g><g class="key-Tunisia_0"><circle cx="391.00" cy="268.00" r="2.36" fill="#69c487" opacity="0.8" stroke="#fff" stroke-width="0.7"></circle></g><g class="key-Guinea_0"><circle cx="606.00" cy="272.00" r="2.36" fill="#4d824b" opacity="0.8" stroke="#fff" stroke-width="0.7"></circle></g><g class="key-Portugal_0"><circle cx="172.00" cy="402.00" r="2.35" fill="#d14e5b" opacity="0.8" stroke="#fff" stroke-width="0.7"></circle></g><g class="key-Czech-Republic_0"><circle cx="66.00" cy="472.00" r="2.35" fill="#aec7e8" opacity="0.8" stroke="#fff" stroke-width="0.7"></circle></g><g class="key-Bolivia_0"><circle cx="250.00" cy="322.00" r="2.34" fill="#5675c1" opacity="0.8" stroke="#fff" stroke-width="0.7"></circle></g><g class="key-Dominican-Republic_0"><circle cx="309.00" cy="350.00" r="2.33" fill="#5675c1" opacity="0.8" stroke="#fff" stroke-width="0.7"></circle></g><g class="key-Hungary_0"><circle cx="133.00" cy="440.00" r="2.32" fill="#aec7e8" opacity="0.8" stroke="#fff" stroke-width="0.7"></circle></g><g class="key-Serbia_0"><circle cx="160.00" cy="404.00" r="2.31" fill="#aec7e8" opacity="0.8" stroke="#fff" stroke-width="0.7"></circle></g><g class="key-Sweden_0"><circle cx="105.00" cy="459.00" r="2.30" fill="#d14e5b" opacity="0.8" stroke="#fff" stroke-width="0.7"></circle></g><g class="key-Belarus_0"><circle cx="83.00" cy="355.00" r="2.29" fill="#aec7e8" opacity="0.8" stroke="#fff" stroke-width="0.7"></circle></g><g class="key-Austria_0"><circle cx="77.00" cy="441.00" r="2.24" fill="#d14e5b" opacity="0.8" stroke="#333" stroke-width="0.7"></circle></g><g class="key-Honduras_0"><circle cx="380.00" cy="307.00" r="2.22" fill="#5675c1" opacity="0.8" stroke="#fff" stroke-width="0.7"></circle></g><g class="key-Israel_0"><circle cx="191.00" cy="368.00" r="2.21" fill="#d14e5b" opacity="0.8" stroke="#fff" stroke-width="0.7"></circle></g><g class="key-Switzerland_0"><circle cx="205.00" cy="436.00" r="2.20" fill="#d14e5b" opacity="0.8" stroke="#333" stroke-width="0.7"></circle></g><g class="key-Bulgaria_0"><circle cx="96.00" cy="400.00" r="2.18" fill="#aec7e8" opacity="0.8" stroke="#fff" stroke-width="0.7"></circle></g><g class="key-Tajikistan_0"><circle cx="126.00" cy="347.00" r="2.17" fill="#aec7e8" opacity="0.8" stroke="#fff" stroke-width="0.7"></circle></g><g class="key-Paraguay_0"><circle cx="239.00" cy="339.00" r="2.15" fill="#5675c1" opacity="0.8" stroke="#fff" stroke-width="0.7"></circle></g><g class="key-Laos_0"><circle cx="308.00" cy="314.00" r="2.13" fill="#a652ba" opacity="0.8" stroke="#333" stroke-width="0.7"></circle></g><g class="key-El-Salvador_0"><circle cx="274.00" cy="364.00" r="2.13" fill="#5675c1" opacity="0.8" stroke="#fff" stroke-width="0.7"></circle></g><g class="key-Sierra-Leone_0"><circle cx="467.00" cy="270.00" r="2.12" fill="#4d824b" opacity="0.8" stroke="#333" stroke-width="0.7"></circle></g><g class="key-Nicaragua_0"><circle cx="373.00" cy="342.00" r="2.11" fill="#5675c1" opacity="0.8" stroke="#fff" stroke-width="0.7"></circle></g><g class="key-Denmark_0"><circle cx="104.00" cy="452.00" r="2.09" fill="#d14e5b" opacity="0.8" stroke="#fff" stroke-width="0.7"></circle></g><g class="key-Kyrgyzstan_0"><circle cx="109.00" cy="355.00" r="2.08" fill="#aec7e8" opacity="0.8" stroke="#fff" stroke-width="0.7"></circle></g><g class="key-Slovakia_0"><circle cx="60.00" cy="463.00" r="2.08" fill="#aec7e8" opacity="0.8" stroke="#333" stroke-width="0.7"></circle></g><g class="key-Finland_0"><circle cx="85.00" cy="465.00" r="2.08" fill="#d14e5b" opacity="0.8" stroke="#fff" stroke-width="0.7"></circle></g><g class="key-Singapore_0"><circle cx="328.00" cy="378.00" r="2.07" fill="#d14e5b" opacity="0.8" stroke="#333" stroke-width="0.7"></circle></g><g class="key-Norway_0"><circle cx="243.00" cy="470.00" r="2.05" fill="#d14e5b" opacity="0.8" stroke="#333" stroke-width="0.7"></circle></g><g class="key-Costa-Rica_0"><circle cx="267.00" cy="320.00" r="2.05" fill="#5675c1" opacity="0.8" stroke="#fff" stroke-width="0.7"></circle></g><g class="key-Ireland_0"><circle cx="193.00" cy="424.00" r="2.03" fill="#d14e5b" opacity="0.8" stroke="#333" stroke-width="0.7"></circle></g><g class="key-New-Zealand_0"><circle cx="216.00" cy="298.00" r="2.03" fill="#d14e5b" opacity="0.8" stroke="#fff" stroke-width="0.7"></circle></g><g class="key-Croatia_0"><circle cx="84.00" cy="433.00" r="2.02" fill="#aec7e8" opacity="0.8" stroke="#fff" stroke-width="0.7"></circle></g><g class="key-Georgia_0"><circle cx="126.00" cy="317.00" r="2.01" fill="#aec7e8" opacity="0.8" stroke="#333" stroke-width="0.7"></circle></g><g class="key-Bosnia-and-Herzegovina_0"><circle cx="160.00" cy="353.00" r="1.98" fill="#aec7e8" opacity="0.8" stroke="#fff" stroke-width="0.7"></circle></g><g class="key-Mauritania_0"><circle cx="477.00" cy="275.00" r="1.98" fill="#4d824b" opacity="0.8" stroke="#fff" stroke-width="0.7"></circle></g><g class="key-Panama_0"><circle cx="368.00" cy="308.00" r="1.98" fill="#5675c1" opacity="0.8" stroke="#fff" stroke-width="0.7"></circle></g><g class="key-Moldova_0"><circle cx="183.00" cy="346.00" r="1.97" fill="#aec7e8" opacity="0.8" stroke="#333" stroke-width="0.7"></circle></g><g class="key-Uruguay_0"><circle cx="253.00" cy="368.00" r="1.96" fill="#5675c1" opacity="0.8" stroke="#fff" stroke-width="0.7"></circle></g><g class="key-Lithuania_0"><circle cx="80.00" cy="409.00" r="1.95" fill="#aec7e8" opacity="0.8" stroke="#fff" stroke-width="0.7"></circle></g><g class="key-Armenia_0"><circle cx="126.00" cy="346.00" r="1.95" fill="#aec7e8" opacity="0.8" stroke="#fff" stroke-width="0.7"></circle></g><g class="key-Mongolia_0"><circle cx="315.00" cy="326.00" r="1.93" fill="#a652ba" opacity="0.8" stroke="#fff" stroke-width="0.7"></circle></g><g class="key-Namibia_0"><circle cx="424.00" cy="284.00" r="1.90" fill="#4d824b" opacity="0.8" stroke="#333" stroke-width="0.7"></circle></g><g class="key-Lesotho_0"><circle cx="446.00" cy="257.00" r="1.89" fill="#4d824b" opacity="0.8" stroke="#fff" stroke-width="0.7"></circle></g><g class="key-Latvia_0"><circle cx="81.00" cy="405.00" r="1.89" fill="#aec7e8" opacity="0.8" stroke="#fff" stroke-width="0.7"></circle></g><g class="key-Slovenia_0"><circle cx="103.00" cy="471.00" r="1.88" fill="#aec7e8" opacity="0.8" stroke="#fff" stroke-width="0.7"></circle></g><g class="key-Guinea__002dBissau_0"><circle cx="419.00" cy="237.00" r="1.85" fill="#4d824b" opacity="0.8" stroke="#333" stroke-width="0.7"></circle></g><g class="key-Estonia_0"><circle cx="195.00" cy="407.00" r="1.84" fill="#aec7e8" opacity="0.8" stroke="#fff" stroke-width="0.7"></circle></g><g class="key-Cyprus_0"><circle cx="156.00" cy="406.00" r="1.82" fill="#d14e5b" opacity="0.8" stroke="#fff" stroke-width="0.7"></circle></g><g class="key-Montenegro_0"><circle cx="160.00" cy="403.00" r="1.79" fill="#aec7e8" opacity="0.8" stroke="#fff" stroke-width="0.7"></circle></g><g class="key-Luxembourg_0"><circle cx="117.00" cy="428.00" r="1.78" fill="#d14e5b" opacity="0.8" stroke="#fff" stroke-width="0.7"></circle></g><g class="key-Kosovo_0"><circle cx="160.00" cy="369.00" r="1.75" fill="#aec7e8" opacity="0.8" stroke="#333" stroke-width="0.7"></circle></g><g fill="#333" class="backgroundLabels"><text x="328.00" y="272.16" font-size="14.30">China</text><text x="269.00" y="327.71" font-size="14.10">India</text><text x="217.00" y="362.23" font-size="11.77">United States</text><text x="212.00" y="288.23" font-size="11.60">Indonesia</text><text x="394.00" y="337.97" font-size="11.48">Brazil</text><text x="404.00" y="311.47" font-size="11.41">Nigeria</text><text x="251.00" y="349.77" font-size="11.37">Bangladesh</text><text x="261.00" y="416.99" font-size="11.34">Russia</text><text x="312.00" y="322.50" font-size="11.28">Mexico</text><text x="312.00" y="344.09" font-size="11.22">Vietnam</text><text x="343.00" y="293.22" font-size="11.21">Egypt</text><text x="143.00" y="429.31" font-size="11.20">Germany</text><text x="400.00" y="257.44" font-size="11.18">Iran</text><text x="157.00" y="406.85" font-size="11.15">Italy</text><text x="463.00" y="197.14" font-size="11.12">South Africa</text><text x="100.00" y="356.34" font-size="11.11">Ukraine</text><text x="221.00" y="386.78" font-size="11.08">Nepal</text><text x="422.00" y="249.12" font-size="11.05">Madagascar</text><text x="89.00" y="396.17" font-size="11.05">Romania</text><text x="548.74" y="264.31" font-size="11.04">Burkina Faso</text><text x="365.00" y="314.33" font-size="11.04">Chile</text><text x="162.00" y="450.36" font-size="11.04">Netherlands</text><text x="109.00" y="343.37" font-size="11.04">Kazakhstan</text><text x="363.00" y="326.42" font-size="11.04">Guatemala</text><text x="539.00" y="216.47" font-size="11.03">Zambia</text><text x="493.00" y="253.51" font-size="11.03">Senegal</text><text x="218.00" y="401.61" font-size="11.03">Greece</text><text x="102.00" y="457.64" font-size="11.02">Belgium</text><text x="77.00" y="437.76" font-size="11.02">Austria</text><text x="205.00" y="432.80" font-size="11.02">Switzerland</text><text x="308.00" y="310.87" font-size="11.01">Laos</text><text x="467.00" y="266.88" font-size="11.01">Sierra Leone</text><text x="60.00" y="459.92" font-size="11.01">Slovakia</text><text x="328.00" y="374.93" font-size="11.01">Singapore</text><text x="243.00" y="466.95" font-size="11.01">Norway</text><text x="193.00" y="420.97" font-size="11.01">Ireland</text><text x="126.00" y="313.99" font-size="11.01">Georgia</text><text x="183.00" y="343.03" font-size="11.01">Moldova</text><text x="424.00" y="281.10" font-size="11.00">Namibia</text><text x="419.00" y="234.15" font-size="11.00">Guinea-Bissau</text><text x="160.00" y="366.25" font-size="11.00">Kosovo</text></g></g><g style="cursor: pointer;" class="ScatterColorLegend clickable"><g class="legendMark"><rect x="639.032" y="74.1" width="174.8" height="17.6" fill="#fff" opacity="0"></rect>,<rect x="639.032" y="79.6" width="6" height="6" fill="#5675c1"></rect>,<text font-size="12.60" x="650.0" y="86.7"><tspan x="650.032" y="86.67999999999999">Latin America and Caribbean</tspan></text></g><g class="legendMark"><rect x="639.032" y="91.69999999999999" width="195.968" height="17.6" fill="#fff" opacity="0"></rect>,<rect x="639.032" y="97.19999999999999" width="6" height="6" fill="#aec7e8"></rect>,<text font-size="12.60" x="650.0" y="104.3"><tspan x="650.032" y="104.27999999999999">Eastern Europe and Central Asia</tspan></text></g><g class="legendMark"><rect x="639.032" y="109.3" width="186.014" height="17.6" fill="#fff" opacity="0"></rect>,<rect x="639.032" y="114.8" width="6" height="6" fill="#d14e5b"></rect>,<text font-size="12.60" x="650.0" y="121.9"><tspan x="650.032" y="121.88">Advanced industrial economies</tspan></text></g><g class="legendMark"><rect x="639.032" y="126.9" width="72.23599999999999" height="17.6" fill="#fff" opacity="0"></rect>,<rect x="639.032" y="132.4" width="6" height="6" fill="#ffd336"></rect>,<text font-size="12.60" x="650.0" y="139.5"><tspan x="650.032" y="139.48">South Asia</tspan></text></g><g class="legendMark"><rect x="639.032" y="144.5" width="121.376" height="17.6" fill="#fff" opacity="0"></rect>,<rect x="639.032" y="150" width="6" height="6" fill="#4d824b"></rect>,<text font-size="12.60" x="650.0" y="157.1"><tspan x="650.032" y="157.07999999999998">Sub-Saharan Africa</tspan></text></g><g class="legendMark"><rect x="639.032" y="162.1" width="129.81799999999998" height="17.6" fill="#fff" opacity="0"></rect>,<rect x="639.032" y="167.6" width="6" height="6" fill="#a652ba"></rect>,<text font-size="12.60" x="650.0" y="174.7"><tspan x="650.032" y="174.67999999999998">East Asia and Pacific</tspan></text></g><g class="legendMark"><rect x="639.032" y="179.7" width="171.90200000000002" height="17.6" fill="#fff" opacity="0"></rect>,<rect x="639.032" y="185.2" width="6" height="6" fill="#69c487"></rect>,<text font-size="12.60" x="650.0" y="192.3"><tspan x="650.032" y="192.27999999999997">Middle East and North Africa</tspan></text></g></g></g><g style="fill: #777;" class="SourcesFooter"><g style="fill: #777;" class="clickable"><text font-size="12.60" x="15.0" y="581.6"><tspan x="15" y="581.58">Source: Global Consumption and Income Project</tspan></text></g><text font-size="12.60" x="775.4" y="581.6"><tspan x="775.402" y="581.58"><a style="fill: #777;" class="cclogo" href="http://creativecommons.org/licenses/by-sa/4.0/deed.en_US" target="_blank">CC BY-SA</a></tspan></text></g></g></svg>