<svg xmlns="http://www.w3.org/2000/svg" version="1.1" style="font-family: 'Helvetica Neue', Helvetica, Arial, sans-serif; font-size: 18px; background-color: white; text-rendering: optimizeLegibility; -webkit-font-smoothing: antialiased;" width="850" height="600"><g class="ChartTab"><g class="HeaderView"><g opacity="0.8" transform="translate(778, 15) scale(0.27)"><a xmlns:xlink="http://www.w3.org/1999/xlink" xlink:href="https://ourworldindata.org" target="_blank"><g><rect x="0" y="0" fill="#1B2543" width="211.2" height="130.1"/><rect x="0" y="112.2" fill="#E63912" width="211.2" height="17.9"/><g><rect x="1.2" y="12.3" fill="none" width="210.2" height="99.2"/><path fill="#FFFFFF" d="M37.8,32.2c0,12.7-7.7,19.4-17.1,19.4c-9.7,0-16.6-7.5-16.6-18.7c0-11.7,7.3-19.3,17.1-19.3 C31.3,13.7,37.8,21.3,37.8,32.2z M9.2,32.8c0,7.9,4.3,14.9,11.8,14.9c7.5,0,11.8-6.9,11.8-15.3c0-7.3-3.8-14.9-11.8-14.9 C13.1,17.5,9.2,24.8,9.2,32.8z"/><path fill="#FFFFFF" d="M62.7,43.8c0,2.7,0.1,5.1,0.2,7.2h-4.3l-0.3-4.3h-0.1c-1.3,2.1-4,4.9-8.8,4.9c-4.2,0-9.1-2.3-9.1-11.6 V24.6h4.8v14.6c0,5,1.5,8.4,5.9,8.4c3.2,0,5.5-2.2,6.3-4.4c0.3-0.7,0.4-1.6,0.4-2.5V24.6h4.8V43.8z"/><path fill="#FFFFFF" d="M67.3,32.8c0-3.1-0.1-5.8-0.2-8.2h4.2l0.2,5.2h0.2c1.2-3.5,4.1-5.8,7.3-5.8c0.5,0,0.9,0.1,1.4,0.2v4.5 c-0.5-0.1-1-0.2-1.6-0.2c-3.4,0-5.8,2.6-6.5,6.2c-0.1,0.7-0.2,1.4-0.2,2.2V51h-4.8V32.8z"/><path fill="#FFFFFF" d="M95.4,51l-9.4-36.8h5l4.4,18.6c1.1,4.6,2.1,9.2,2.7,12.7h0.1c0.6-3.7,1.8-8,3-12.8l4.9-18.5h5l4.5,18.7 c1,4.4,2,8.7,2.6,12.6h0.1c0.8-4,1.8-8.1,3-12.7l4.9-18.5h4.9L120.6,51h-5L111,31.9c-1.1-4.7-1.9-8.3-2.4-12h-0.1 c-0.7,3.7-1.5,7.3-2.8,12L100.4,51H95.4z"/><path fill="#FFFFFF" d="M154.9,37.6c0,9.8-6.8,14-13.2,14c-7.2,0-12.7-5.2-12.7-13.6c0-8.8,5.8-14,13.1-14 C149.8,24,154.9,29.5,154.9,37.6z M133.9,37.9c0,5.8,3.3,10.1,8,10.1c4.6,0,8-4.3,8-10.3c0-4.5-2.2-10.1-7.9-10.1 C136.3,27.6,133.9,32.8,133.9,37.9z"/><path fill="#FFFFFF" d="M158.2,32.8c0-3.1-0.1-5.8-0.2-8.2h4.2l0.2,5.2h0.2c1.2-3.5,4.1-5.8,7.3-5.8c0.5,0,0.9,0.1,1.4,0.2v4.5 c-0.5-0.1-1-0.2-1.6-0.2c-3.4,0-5.8,2.6-6.5,6.2c-0.1,0.7-0.2,1.4-0.2,2.2V51h-4.8V32.8z"/><path fill="#FFFFFF" d="M173.5,12.3h4.8V51h-4.8V12.3z"/><path fill="#FFFFFF" d="M206.5,12.3v31.9c0,2.3,0.1,5,0.2,6.8h-4.3l-0.2-4.6H202c-1.5,2.9-4.7,5.2-9,5.2 c-6.4,0-11.3-5.4-11.3-13.4c-0.1-8.8,5.4-14.2,11.9-14.2c4,0,6.8,1.9,8,4h0.1V12.3H206.5z M201.7,35.4c0-0.6-0.1-1.4-0.2-2 c-0.7-3.1-3.3-5.6-6.9-5.6c-5,0-7.9,4.4-7.9,10.2c0,5.3,2.6,9.8,7.8,9.8c3.2,0,6.2-2.1,7.1-5.7c0.2-0.7,0.2-1.3,0.2-2.1V35.4z"/><path fill="#FFFFFF" d="M42.8,64c0.1,1.6-1.1,2.9-3.1,2.9c-1.7,0-2.9-1.3-2.9-2.9c0-1.7,1.3-3,3-3C41.7,61,42.8,62.3,42.8,64z M37.4,97.8V71.4h4.8v26.4H37.4z"/><path fill="#FFFFFF" d="M47.5,78.6c0-2.7-0.1-5-0.2-7.1h4.3l0.3,4.4h0.1c1.3-2.5,4.4-5,8.8-5c3.7,0,9.4,2.2,9.4,11.2v15.8h-4.8 V82.6c0-4.3-1.6-7.8-6.1-7.8c-3.2,0-5.6,2.2-6.5,4.9c-0.2,0.6-0.3,1.4-0.3,2.2v15.9h-4.8V78.6z"/><path fill="#FFFFFF" d="M84,61.6c2.9-0.4,6.3-0.8,10.1-0.8c6.8,0,11.7,1.6,14.9,4.6c3.3,3,5.2,7.3,5.2,13.2c0,6-1.9,10.9-5.3,14.3 c-3.4,3.4-9.1,5.3-16.3,5.3c-3.4,0-6.2-0.2-8.6-0.4V61.6z M88.8,94.1c1.2,0.2,3,0.3,4.8,0.3c10.2,0,15.7-5.7,15.7-15.6 c0.1-8.7-4.9-14.2-14.9-14.2c-2.5,0-4.3,0.2-5.6,0.5V94.1z"/><path fill="#FFFFFF" d="M132.1,97.8l-0.4-3.3h-0.2c-1.5,2.1-4.3,3.9-8.1,3.9c-5.4,0-8.1-3.8-8.1-7.6c0-6.4,5.7-9.9,15.9-9.8v-0.5 c0-2.2-0.6-6.1-6-6.1c-2.5,0-5,0.8-6.9,2l-1.1-3.2c2.2-1.4,5.4-2.3,8.7-2.3c8.1,0,10.1,5.5,10.1,10.8v9.9c0,2.3,0.1,4.5,0.4,6.3 H132.1z M131.4,84.4c-5.3-0.1-11.2,0.8-11.2,5.9c0,3.1,2.1,4.6,4.5,4.6c3.4,0,5.6-2.2,6.4-4.4c0.2-0.5,0.3-1,0.3-1.5V84.4z"/><path fill="#FFFFFF" d="M146.6,63.9v7.6h6.9v3.7h-6.9v14.2c0,3.3,0.9,5.1,3.6,5.1c1.3,0,2.2-0.2,2.8-0.3l0.2,3.6 c-0.9,0.4-2.4,0.7-4.3,0.7c-2.2,0-4-0.7-5.2-2c-1.4-1.4-1.9-3.8-1.9-6.9V75.1h-4.1v-3.7h4.1v-6.3L146.6,63.9z"/><path fill="#FFFFFF" d="M171.4,97.8l-0.4-3.3h-0.2c-1.5,2.1-4.3,3.9-8.1,3.9c-5.4,0-8.1-3.8-8.1-7.6c0-6.4,5.7-9.9,15.9-9.8v-0.5 c0-2.2-0.6-6.1-6-6.1c-2.5,0-5,0.8-6.9,2l-1.1-3.2c2.2-1.4,5.4-2.3,8.7-2.3c8.1,0,10.1,5.5,10.1,10.8v9.9c0,2.3,0.1,4.5,0.4,6.3 H171.4z M170.7,84.4c-5.3-0.1-11.2,0.8-11.2,5.9c0,3.1,2.1,4.6,4.5,4.6c3.4,0,5.6-2.2,6.4-4.4c0.2-0.5,0.3-1,0.3-1.5V84.4z"/></g></g></a></g><a href="https://ourworldindata.org/grapher/human-height-vs-food-supply" target="_blank"><text font-size="25.20" x="15.0" y="35.2" fill="#555"><tspan x="15" y="35.160000000000004">Human height vs food supply, 1980</tspan></text></a><text font-size="14.40" x="15.0" y="53.7" fill="#666"><tspan x="15" y="53.72">Food supply in a given year vs the height of men born in that year.</tspan></text></g><g><g class="AxisBoxView"><g class="HorizontalAxis"><text font-size="12.60" x="273.0" y="554.0"><tspan x="272.957" y="553.98">Caloric supply per capita per day</tspan></text><text x="95.9" y="533.9" fill="#666" text-anchor="middle" font-size="16.2">1,435 kcal</text><text x="257.2" y="533.9" fill="#666" text-anchor="middle" font-size="16.2">2,000 kcal</text><text x="400" y="533.9" fill="#666" text-anchor="middle" font-size="16.2">2,500 kcal</text><text x="542.8" y="533.9" fill="#666" text-anchor="middle" font-size="16.2">3,000 kcal</text><text x="715" y="533.9" fill="#666" text-anchor="middle" font-size="16.2">3,603 kcal</text></g><g class="VerticalAxis"><text font-size="12.60" x="-355.9" y="25.1" transform="rotate(-90)"><tspan x="-355.92499999999995" y="25.080000000000002">Height of men</tspan></text><text x="90.90" y="512.7" fill="#666" dominant-baseline="middle" text-anchor="end" font-size="16.2">160 cm</text><text x="90.90" y="418.7" fill="#666" dominant-baseline="middle" text-anchor="end" font-size="16.2">165 cm</text><text x="90.90" y="324.7" fill="#666" dominant-baseline="middle" text-anchor="end" font-size="16.2">170 cm</text><text x="90.90" y="230.7" fill="#666" dominant-baseline="middle" text-anchor="end" font-size="16.2">175 cm</text><text x="90.90" y="136.8" fill="#666" dominant-baseline="middle" text-anchor="end" font-size="16.2">180 cm</text></g><g class="AxisGridLines"><line x1="95.90" y1="512.7" x2="715.00" y2="512.7" stroke="#ddd" stroke-dasharray="3,2"></line><line x1="95.90" y1="418.7" x2="715.00" y2="418.7" stroke="#ddd" stroke-dasharray="3,2"></line><line x1="95.90" y1="324.7" x2="715.00" y2="324.7" stroke="#ddd" stroke-dasharray="3,2"></line><line x1="95.90" y1="230.7" x2="715.00" y2="230.7" stroke="#ddd" stroke-dasharray="3,2"></line><line x1="95.90" y1="136.8" x2="715.00" y2="136.8" stroke="#ddd" stroke-dasharray="3,2"></line></g><g class="AxisGridLines"><line x1="114.5" y1="512.70" x2="114.5" y2="76.60" stroke="#ddd" stroke-dasharray="3,2"></line><line x1="257.2" y1="512.70" x2="257.2" y2="76.60" stroke="#ddd" stroke-dasharray="3,2"></line><line x1="400" y1="512.70" x2="400" y2="76.60" stroke="#ddd" stroke-dasharray="3,2"></line><line x1="542.8" y1="512.70" x2="542.8" y2="76.60" stroke="#ddd" stroke-dasharray="3,2"></line><line x1="685.6" y1="512.70" x2="685.6" y2="76.60" stroke="#ddd" stroke-dasharray="3,2"></line></g></g><g clip-path="url(#scatterBounds-1629)" font-family="Arial Narrow, Arial, sans-serif" class="PointsWithLabels clickable"><rect x="95.898" y="76.6" width="619.102" height="436.09999999999997" fill="rgba(255,255,255,0)"></rect><defs><clipPath id="scatterBounds-1629"><rect x="85.898" y="66.6" width="639.102" height="456.09999999999997"></rect></clipPath></defs><g class="key-China_0"><circle cx="303.00" cy="296.00" r="17.84" fill="#d14e5b" opacity="0.8" stroke="#333" stroke-width="0.7"></circle></g><g class="key-India_0"><circle cx="255.00" cy="430.00" r="15.08" fill="#d14e5b" opacity="0.8" stroke="#333" stroke-width="0.7"></circle></g><g class="key-United-States_0"><circle cx="593.00" cy="155.00" r="8.76" fill="#4d824b" opacity="0.8" stroke="#333" stroke-width="0.7"></circle></g><g class="key-Indonesia_0"><circle cx="324.00" cy="437.00" r="7.17" fill="#d14e5b" opacity="0.8" stroke="#333" stroke-width="0.7"></circle></g><g class="key-Russia_0"><circle cx="650.00" cy="193.00" r="6.89" fill="#ffd336" opacity="0.8" stroke="#333" stroke-width="0.7"></circle></g><g class="key-Brazil_0"><circle cx="456.00" cy="292.00" r="6.49" fill="#69c487" opacity="0.8" stroke="#333" stroke-width="0.7"></circle></g><g class="key-Japan_0"><circle cx="485.00" cy="292.00" r="6.34" fill="#d14e5b" opacity="0.8" stroke="#333" stroke-width="0.7"></circle></g><g class="key-Bangladesh_0"><circle cx="263.00" cy="467.00" r="5.38" fill="#d14e5b" opacity="0.8" stroke="#333" stroke-width="0.7"></circle></g><g class="key-Germany_0"><circle cx="622.00" cy="127.00" r="5.31" fill="#ffd336" opacity="0.8" stroke="#333" stroke-width="0.7"></circle></g><g class="key-Nigeria_0"><circle cx="217.00" cy="334.00" r="5.22" fill="#5675c1" opacity="0.8" stroke="#333" stroke-width="0.7"></circle></g><g class="key-Mexico_0"><circle cx="542.00" cy="366.00" r="5.01" fill="#4d824b" opacity="0.8" stroke="#333" stroke-width="0.7"></circle></g><g class="key-United-Kingdom_0"><circle cx="575.00" cy="196.00" r="4.60" fill="#ffd336" opacity="0.8" stroke="#fff" stroke-width="0.7"></circle></g><g class="key-Italy_0"><circle cx="715.00" cy="240.00" r="4.59" fill="#ffd336" opacity="0.8" stroke="#333" stroke-width="0.7"></circle></g><g class="key-Vietnam_0"><circle cx="237.00" cy="512.00" r="4.52" fill="#d14e5b" opacity="0.8" stroke="#333" stroke-width="0.7"></circle></g><g class="key-France_0"><circle cx="649.00" cy="202.00" r="4.51" fill="#ffd336" opacity="0.8" stroke="#333" stroke-width="0.7"></circle></g><g class="key-Philippines_0"><circle cx="335.00" cy="407.00" r="4.26" fill="#d14e5b" opacity="0.8" stroke="#333" stroke-width="0.7"></circle></g><g class="key-Egypt_0"><circle cx="502.00" cy="300.00" r="4.18" fill="#5675c1" opacity="0.8" stroke="#fff" stroke-width="0.7"></circle></g><g class="key-Iran_0"><circle cx="444.00" cy="279.00" r="3.93" fill="#d14e5b" opacity="0.8" stroke="#fff" stroke-width="0.7"></circle></g><g class="key-Spain_0"><circle cx="575.00" cy="219.00" r="3.89" fill="#ffd336" opacity="0.8" stroke="#333" stroke-width="0.7"></circle></g><g class="key-South-Korea_0"><circle cx="549.00" cy="253.00" r="3.88" fill="#d14e5b" opacity="0.8" stroke="#333" stroke-width="0.7"></circle></g><g class="key-Poland_0"><circle cx="707.00" cy="185.00" r="3.81" fill="#ffd336" opacity="0.8" stroke="#fff" stroke-width="0.7"></circle></g><g class="key-Ethiopia_0"><circle cx="212.00" cy="375.00" r="3.80" fill="#5675c1" opacity="0.8" stroke="#333" stroke-width="0.7"></circle></g><g class="key-Myanmar_0"><circle cx="129.00" cy="488.00" r="3.69" fill="#d14e5b" opacity="0.8" stroke="#333" stroke-width="0.7"></circle></g><g class="key-South-Africa_0"><circle cx="503.00" cy="360.00" r="3.52" fill="#5675c1" opacity="0.8" stroke="#fff" stroke-width="0.7"></circle></g><g class="key-Colombia_0"><circle cx="406.00" cy="313.00" r="3.42" fill="#69c487" opacity="0.8" stroke="#333" stroke-width="0.7"></circle></g><g class="key-Canada_0"><circle cx="528.00" cy="144.00" r="3.31" fill="#4d824b" opacity="0.8" stroke="#333" stroke-width="0.7"></circle></g><g class="key-Morocco_0"><circle cx="444.00" cy="319.00" r="3.06" fill="#5675c1" opacity="0.8" stroke="#fff" stroke-width="0.7"></circle></g><g class="key-Tanzania_0"><circle cx="321.00" cy="383.00" r="3.01" fill="#5675c1" opacity="0.8" stroke="#333" stroke-width="0.7"></circle></g><g class="key-Peru_0"><circle cx="268.00" cy="433.00" r="2.94" fill="#69c487" opacity="0.8" stroke="#333" stroke-width="0.7"></circle></g><g class="key-North-Korea_0"><circle cx="312.00" cy="253.00" r="2.93" fill="#d14e5b" opacity="0.8" stroke="#333" stroke-width="0.7"></circle></g><g class="key-Kenya_0"><circle cx="340.00" cy="302.00" r="2.88" fill="#5675c1" opacity="0.8" stroke="#333" stroke-width="0.7"></circle></g><g class="key-Sri-Lanka_0"><circle cx="338.00" cy="403.00" r="2.81" fill="#d14e5b" opacity="0.8" stroke="#fff" stroke-width="0.7"></circle></g><g class="key-Nepal_0"><circle cx="189.00" cy="456.00" r="2.81" fill="#d14e5b" opacity="0.8" stroke="#333" stroke-width="0.7"></circle></g><g class="key-Netherlands_0"><circle cx="572.00" cy="86.00" r="2.76" fill="#ffd336" opacity="0.8" stroke="#333" stroke-width="0.7"></circle></g><g class="key-Uganda_0"><circle cx="270.00" cy="337.00" r="2.67" fill="#5675c1" opacity="0.8" stroke="#333" stroke-width="0.7"></circle></g><g class="key-Mozambique_0"><circle cx="218.00" cy="415.00" r="2.64" fill="#5675c1" opacity="0.8" stroke="#fff" stroke-width="0.7"></circle></g><g class="key-Chile_0"><circle cx="452.00" cy="266.00" r="2.58" fill="#69c487" opacity="0.8" stroke="#333" stroke-width="0.7"></circle></g><g class="key-Ghana_0"><circle cx="140.00" cy="324.00" r="2.56" fill="#5675c1" opacity="0.8" stroke="#333" stroke-width="0.7"></circle></g><g class="key-Portugal_0"><circle cx="481.00" cy="285.00" r="2.49" fill="#ffd336" opacity="0.8" stroke="#fff" stroke-width="0.7"></circle></g><g class="key-Belarus_0"><circle cx="650.00" cy="204.00" r="2.48" fill="#ffd336" opacity="0.8" stroke="#fff" stroke-width="0.7"></circle></g><g class="key-Greece_0"><circle cx="598.00" cy="187.00" r="2.48" fill="#ffd336" opacity="0.8" stroke="#333" stroke-width="0.7"></circle></g><g class="key-Cameroon_0"><circle cx="328.00" cy="305.00" r="2.45" fill="#5675c1" opacity="0.8" stroke="#fff" stroke-width="0.7"></circle></g><g class="key-Madagascar_0"><circle cx="378.00" cy="458.00" r="2.42" fill="#5675c1" opacity="0.8" stroke="#333" stroke-width="0.7"></circle></g><g class="key-Cote-d__0027Ivoire_0"><circle cx="519.00" cy="305.00" r="2.41" fill="#5675c1" opacity="0.8" stroke="#333" stroke-width="0.7"></circle></g><g class="key-Sweden_0"><circle cx="540.00" cy="129.00" r="2.40" fill="#ffd336" opacity="0.8" stroke="#333" stroke-width="0.7"></circle></g><g class="key-Austria_0"><circle cx="644.00" cy="159.00" r="2.34" fill="#ffd336" opacity="0.8" stroke="#fff" stroke-width="0.7"></circle></g><g class="key-Zimbabwe_0"><circle cx="341.00" cy="305.00" r="2.33" fill="#5675c1" opacity="0.8" stroke="#fff" stroke-width="0.7"></circle></g><g class="key-Mali_0"><circle cx="165.00" cy="283.00" r="2.32" fill="#5675c1" opacity="0.8" stroke="#333" stroke-width="0.7"></circle></g><g class="key-Burkina-Faso_0"><circle cx="132.00" cy="272.00" r="2.32" fill="#5675c1" opacity="0.8" stroke="#fff" stroke-width="0.7"></circle></g><g class="key-Guatemala_0"><circle cx="303.00" cy="497.00" r="2.31" fill="#4d824b" opacity="0.8" stroke="#333" stroke-width="0.7"></circle></g><g class="key-Cambodia_0"><circle cx="166.00" cy="465.00" r="2.27" fill="#d14e5b" opacity="0.8" stroke="#fff" stroke-width="0.7"></circle></g><g class="key-Malawi_0"><circle cx="320.00" cy="396.00" r="2.25" fill="#5675c1" opacity="0.8" stroke="#fff" stroke-width="0.7"></circle></g><g class="key-Azerbaijan_0"><circle cx="650.00" cy="283.00" r="2.25" fill="#d14e5b" opacity="0.8" stroke="#333" stroke-width="0.7"></circle></g><g class="key-Niger_0"><circle cx="306.00" cy="311.00" r="2.23" fill="#5675c1" opacity="0.8" stroke="#333" stroke-width="0.7"></circle></g><g class="key-Zambia_0"><circle cx="333.00" cy="358.00" r="2.22" fill="#5675c1" opacity="0.8" stroke="#333" stroke-width="0.7"></circle></g><g class="key-Haiti_0"><circle cx="244.00" cy="296.00" r="2.21" fill="#4d824b" opacity="0.8" stroke="#333" stroke-width="0.7"></circle></g><g class="key-Senegal_0"><circle cx="309.00" cy="243.00" r="2.19" fill="#5675c1" opacity="0.8" stroke="#fff" stroke-width="0.7"></circle></g><g class="key-Bolivia_0"><circle cx="284.00" cy="433.00" r="2.19" fill="#69c487" opacity="0.8" stroke="#fff" stroke-width="0.7"></circle></g><g class="key-Rwanda_0"><circle cx="359.00" cy="377.00" r="2.18" fill="#5675c1" opacity="0.8" stroke="#fff" stroke-width="0.7"></circle></g><g class="key-Denmark_0"><circle cx="579.00" cy="76.00" r="2.17" fill="#ffd336" opacity="0.8" stroke="#fff" stroke-width="0.7"></circle></g><g class="key-Finland_0"><circle cx="569.00" cy="170.00" r="2.15" fill="#ffd336" opacity="0.8" stroke="#333" stroke-width="0.7"></circle></g><g class="key-Chad_0"><circle cx="153.00" cy="262.00" r="2.13" fill="#5675c1" opacity="0.8" stroke="#333" stroke-width="0.7"></circle></g><g class="key-Guinea_0"><circle cx="358.00" cy="334.00" r="2.12" fill="#5675c1" opacity="0.8" stroke="#333" stroke-width="0.7"></circle></g><g class="key-Norway_0"><circle cx="642.00" cy="142.00" r="2.09" fill="#ffd336" opacity="0.8" stroke="#fff" stroke-width="0.7"></circle></g><g class="key-Moldova_0"><circle cx="650.00" cy="245.00" r="2.09" fill="#ffd336" opacity="0.8" stroke="#333" stroke-width="0.7"></circle></g><g class="key-Honduras_0"><circle cx="277.00" cy="424.00" r="2.06" fill="#4d824b" opacity="0.8" stroke="#fff" stroke-width="0.7"></circle></g><g class="key-Benin_0"><circle cx="221.00" cy="339.00" r="2.06" fill="#5675c1" opacity="0.8" stroke="#fff" stroke-width="0.7"></circle></g><g class="key-Ireland_0"><circle cx="707.00" cy="200.00" r="2.04" fill="#ffd336" opacity="0.8" stroke="#fff" stroke-width="0.7"></circle></g><g class="key-Nicaragua_0"><circle cx="265.00" cy="392.00" r="2.03" fill="#4d824b" opacity="0.8" stroke="#333" stroke-width="0.7"></circle></g><g class="key-Laos_0"><circle cx="244.00" cy="415.00" r="2.03" fill="#d14e5b" opacity="0.8" stroke="#fff" stroke-width="0.7"></circle></g><g class="key-Sierra-Leone_0"><circle cx="294.00" cy="403.00" r="2.02" fill="#5675c1" opacity="0.8" stroke="#fff" stroke-width="0.7"></circle></g><g class="key-Armenia_0"><circle cx="650.00" cy="292.00" r="2.02" fill="#d14e5b" opacity="0.8" stroke="#fff" stroke-width="0.7"></circle></g><g class="key-Togo_0"><circle cx="271.00" cy="368.00" r="1.98" fill="#5675c1" opacity="0.8" stroke="#333" stroke-width="0.7"></circle></g><g class="key-Costa-Rica_0"><circle cx="418.00" cy="257.00" r="1.96" fill="#4d824b" opacity="0.8" stroke="#fff" stroke-width="0.7"></circle></g><g class="key-Jordan_0"><circle cx="412.00" cy="319.00" r="1.95" fill="#d14e5b" opacity="0.8" stroke="#fff" stroke-width="0.7"></circle></g><g class="key-Jamaica_0"><circle cx="443.00" cy="257.00" r="1.94" fill="#4d824b" opacity="0.8" stroke="#fff" stroke-width="0.7"></circle></g><g class="key-Panama_0"><circle cx="286.00" cy="324.00" r="1.92" fill="#4d824b" opacity="0.8" stroke="#333" stroke-width="0.7"></circle></g><g class="key-Liberia_0"><circle cx="395.00" cy="375.00" r="1.92" fill="#5675c1" opacity="0.8" stroke="#333" stroke-width="0.7"></circle></g><g class="key-Congo_0"><circle cx="276.00" cy="354.00" r="1.91" fill="#5675c1" opacity="0.8" stroke="#333" stroke-width="0.7"></circle></g><g class="key-Estonia_0"><circle cx="650.00" cy="153.00" r="1.88" fill="#ffd336" opacity="0.8" stroke="#fff" stroke-width="0.7"></circle></g><g class="key-Lesotho_0"><circle cx="331.00" cy="373.00" r="1.87" fill="#5675c1" opacity="0.8" stroke="#fff" stroke-width="0.7"></circle></g><g class="key-Trinidad-and-Tobago_0"><circle cx="538.00" cy="242.00" r="1.85" fill="#4d824b" opacity="0.8" stroke="#fff" stroke-width="0.7"></circle></g><g class="key-United-Arab-Emirates_0"><circle cx="655.00" cy="341.00" r="1.84" fill="#d14e5b" opacity="0.8" stroke="#333" stroke-width="0.7"></circle></g><g class="key-Namibia_0"><circle cx="329.00" cy="300.00" r="1.84" fill="#5675c1" opacity="0.8" stroke="#fff" stroke-width="0.7"></circle></g><g class="key-Botswana_0"><circle cx="247.00" cy="379.00" r="1.84" fill="#5675c1" opacity="0.8" stroke="#fff" stroke-width="0.7"></circle></g><g class="key-Guyana_0"><circle cx="382.00" cy="315.00" r="1.82" fill="#69c487" opacity="0.8" stroke="#fff" stroke-width="0.7"></circle></g><g class="key-Gabon_0"><circle cx="335.00" cy="330.00" r="1.81" fill="#5675c1" opacity="0.8" stroke="#fff" stroke-width="0.7"></circle></g><g class="key-Swaziland_0"><circle cx="363.00" cy="321.00" r="1.81" fill="#5675c1" opacity="0.8" stroke="#fff" stroke-width="0.7"></circle></g><g class="key-Djibouti_0"><circle cx="95.00" cy="345.00" r="1.78" fill="#5675c1" opacity="0.8" stroke="#333" stroke-width="0.7"></circle></g><g class="key-Yemen_0"><circle cx="264.00" cy="369.00" r="1.75" fill="#d14e5b" opacity="0.8" stroke="#fff" stroke-width="0.7"></circle></g><g fill="#333" class="backgroundLabels"><text x="303.00" y="277.16" font-size="14.30">China</text><text x="255.00" y="413.92" font-size="13.35">India</text><text x="593.00" y="145.24" font-size="11.77">United States</text><text x="324.00" y="428.83" font-size="11.51">Indonesia</text><text x="650.00" y="185.11" font-size="11.46">Russia</text><text x="456.00" y="284.51" font-size="11.41">Brazil</text><text x="485.00" y="284.66" font-size="11.39">Japan</text><text x="263.00" y="460.62" font-size="11.27">Bangladesh</text><text x="622.00" y="120.69" font-size="11.26">Germany</text><text x="217.00" y="327.78" font-size="11.25">Nigeria</text><text x="542.00" y="359.99" font-size="11.23">Mexico</text><text x="694.41" y="234.41" font-size="11.19">Italy</text><text x="237.00" y="506.48" font-size="11.18">Vietnam</text><text x="649.00" y="196.49" font-size="11.18">France</text><text x="335.00" y="401.74" font-size="11.16">Philippines</text><text x="575.00" y="214.11" font-size="11.12">Spain</text><text x="549.00" y="248.12" font-size="11.12">South Korea</text><text x="212.00" y="370.20" font-size="11.12">Ethiopia</text><text x="129.00" y="483.31" font-size="11.11">Myanmar</text><text x="406.00" y="308.58" font-size="11.09">Colombia</text><text x="528.00" y="139.69" font-size="11.08">Canada</text><text x="321.00" y="378.99" font-size="11.06">Tanzania</text><text x="268.00" y="429.06" font-size="11.06">Peru</text><text x="312.00" y="249.07" font-size="11.06">North Korea</text><text x="340.00" y="298.12" font-size="11.05">Kenya</text><text x="189.00" y="452.19" font-size="11.05">Nepal</text><text x="572.00" y="87.65" font-size="11.05">Netherlands</text><text x="270.00" y="333.33" font-size="11.04">Uganda</text><text x="452.00" y="262.42" font-size="11.04">Chile</text><text x="140.00" y="320.44" font-size="11.04">Ghana</text><text x="598.00" y="183.52" font-size="11.03">Greece</text><text x="378.00" y="454.58" font-size="11.03">Madagascar</text><text x="519.00" y="301.59" font-size="11.03">Cote d'Ivoire</text><text x="540.00" y="125.60" font-size="11.03">Sweden</text><text x="165.00" y="279.68" font-size="11.02">Mali</text><text x="303.00" y="493.69" font-size="11.02">Guatemala</text><text x="650.00" y="279.75" font-size="11.02">Azerbaijan</text><text x="306.00" y="307.77" font-size="11.02">Niger</text><text x="333.00" y="354.78" font-size="11.02">Zambia</text><text x="244.00" y="292.79" font-size="11.02">Haiti</text><text x="569.00" y="166.85" font-size="11.01">Finland</text><text x="153.00" y="258.87" font-size="11.01">Chad</text><text x="358.00" y="330.88" font-size="11.01">Guinea</text><text x="650.00" y="241.91" font-size="11.01">Moldova</text><text x="265.00" y="388.97" font-size="11.01">Nicaragua</text><text x="271.00" y="365.02" font-size="11.01">Togo</text><text x="286.00" y="321.08" font-size="11.01">Panama</text><text x="395.00" y="372.08" font-size="11.01">Liberia</text><text x="276.00" y="351.09" font-size="11.00">Congo</text><text x="550.15" y="338.16" font-size="11.00">United Arab Emirates</text><text x="95.00" y="342.22" font-size="11.00">Djibouti</text></g></g><g style="cursor: pointer;" class="ScatterColorLegend clickable"><g class="legendMark"><rect x="735" y="74.1" width="43.256" height="17.6" fill="#fff" opacity="0"></rect>,<rect x="735" y="79.6" width="6" height="6" fill="#5675c1"></rect>,<text font-size="12.60" x="746.0" y="86.7"><tspan x="746" y="86.67999999999999">Africa</tspan></text></g><g class="legendMark"><rect x="735" y="91.69999999999999" width="35.57" height="17.6" fill="#fff" opacity="0"></rect>,<rect x="735" y="97.19999999999999" width="6" height="6" fill="#d14e5b"></rect>,<text font-size="12.60" x="746.0" y="104.3"><tspan x="746" y="104.27999999999999">Asia</tspan></text></g><g class="legendMark"><rect x="735" y="109.3" width="51.824" height="17.6" fill="#fff" opacity="0"></rect>,<rect x="735" y="114.8" width="6" height="6" fill="#ffd336"></rect>,<text font-size="12.60" x="746.0" y="121.9"><tspan x="746" y="121.88">Europe</tspan></text></g><g class="legendMark"><rect x="735" y="126.9" width="91.64" height="17.6" fill="#fff" opacity="0"></rect>,<rect x="735" y="132.4" width="6" height="6" fill="#4d824b"></rect>,<text font-size="12.60" x="746.0" y="139.5"><tspan x="746" y="139.48">North America</tspan></text></g><g class="legendMark"><rect x="735" y="144.5" width="93.908" height="17.6" fill="#fff" opacity="0"></rect>,<rect x="735" y="150" width="6" height="6" fill="#69c487"></rect>,<text font-size="12.60" x="746.0" y="157.1"><tspan x="746" y="157.07999999999998">South America</tspan></text></g></g></g><g style="fill: #777;" class="SourcesFooter"><g style="fill: #777;" class="clickable"><text font-size="12.60" x="15.0" y="581.6"><tspan x="15" y="581.58">Source: Daily caloric supply per capita long-term - FAO (2017), University of Tuebingen: Height datahub (2015)</tspan></text></g><text font-size="12.60" x="649.0" y="581.6"><tspan x="649.024" y="581.58"><a target='_blank' style='fill: #777;' href='https://ourworldindata.org'>OurWorldInData.org</a> • <a style="fill: #777;" href="http://creativecommons.org/licenses/by-sa/4.0/deed.en_US" target="_blank">CC BY-SA</a></tspan></text></g></g></svg>