<svg xmlns="http://www.w3.org/2000/svg" version="1.1" style="font-family: 'Helvetica Neue', Helvetica, Arial, sans-serif; font-size: 18px; background-color: white; text-rendering: optimizeLegibility; -webkit-font-smoothing: antialiased;" width="850" height="600"><g class="ChartTab"><g class="HeaderView"><g opacity="0.8" transform="translate(778, 15) scale(0.27)"><a xmlns:xlink="http://www.w3.org/1999/xlink" xlink:href="https://ourworldindata.org" target="_blank"><g><rect x="0" y="0" fill="#1B2543" width="211.2" height="130.1"/><rect x="0" y="112.2" fill="#E63912" width="211.2" height="17.9"/><g><rect x="1.2" y="12.3" fill="none" width="210.2" height="99.2"/><path fill="#FFFFFF" d="M37.8,32.2c0,12.7-7.7,19.4-17.1,19.4c-9.7,0-16.6-7.5-16.6-18.7c0-11.7,7.3-19.3,17.1-19.3 C31.3,13.7,37.8,21.3,37.8,32.2z M9.2,32.8c0,7.9,4.3,14.9,11.8,14.9c7.5,0,11.8-6.9,11.8-15.3c0-7.3-3.8-14.9-11.8-14.9 C13.1,17.5,9.2,24.8,9.2,32.8z"/><path fill="#FFFFFF" d="M62.7,43.8c0,2.7,0.1,5.1,0.2,7.2h-4.3l-0.3-4.3h-0.1c-1.3,2.1-4,4.9-8.8,4.9c-4.2,0-9.1-2.3-9.1-11.6 V24.6h4.8v14.6c0,5,1.5,8.4,5.9,8.4c3.2,0,5.5-2.2,6.3-4.4c0.3-0.7,0.4-1.6,0.4-2.5V24.6h4.8V43.8z"/><path fill="#FFFFFF" d="M67.3,32.8c0-3.1-0.1-5.8-0.2-8.2h4.2l0.2,5.2h0.2c1.2-3.5,4.1-5.8,7.3-5.8c0.5,0,0.9,0.1,1.4,0.2v4.5 c-0.5-0.1-1-0.2-1.6-0.2c-3.4,0-5.8,2.6-6.5,6.2c-0.1,0.7-0.2,1.4-0.2,2.2V51h-4.8V32.8z"/><path fill="#FFFFFF" d="M95.4,51l-9.4-36.8h5l4.4,18.6c1.1,4.6,2.1,9.2,2.7,12.7h0.1c0.6-3.7,1.8-8,3-12.8l4.9-18.5h5l4.5,18.7 c1,4.4,2,8.7,2.6,12.6h0.1c0.8-4,1.8-8.1,3-12.7l4.9-18.5h4.9L120.6,51h-5L111,31.9c-1.1-4.7-1.9-8.3-2.4-12h-0.1 c-0.7,3.7-1.5,7.3-2.8,12L100.4,51H95.4z"/><path fill="#FFFFFF" d="M154.9,37.6c0,9.8-6.8,14-13.2,14c-7.2,0-12.7-5.2-12.7-13.6c0-8.8,5.8-14,13.1-14 C149.8,24,154.9,29.5,154.9,37.6z M133.9,37.9c0,5.8,3.3,10.1,8,10.1c4.6,0,8-4.3,8-10.3c0-4.5-2.2-10.1-7.9-10.1 C136.3,27.6,133.9,32.8,133.9,37.9z"/><path fill="#FFFFFF" d="M158.2,32.8c0-3.1-0.1-5.8-0.2-8.2h4.2l0.2,5.2h0.2c1.2-3.5,4.1-5.8,7.3-5.8c0.5,0,0.9,0.1,1.4,0.2v4.5 c-0.5-0.1-1-0.2-1.6-0.2c-3.4,0-5.8,2.6-6.5,6.2c-0.1,0.7-0.2,1.4-0.2,2.2V51h-4.8V32.8z"/><path fill="#FFFFFF" d="M173.5,12.3h4.8V51h-4.8V12.3z"/><path fill="#FFFFFF" d="M206.5,12.3v31.9c0,2.3,0.1,5,0.2,6.8h-4.3l-0.2-4.6H202c-1.5,2.9-4.7,5.2-9,5.2 c-6.4,0-11.3-5.4-11.3-13.4c-0.1-8.8,5.4-14.2,11.9-14.2c4,0,6.8,1.9,8,4h0.1V12.3H206.5z M201.7,35.4c0-0.6-0.1-1.4-0.2-2 c-0.7-3.1-3.3-5.6-6.9-5.6c-5,0-7.9,4.4-7.9,10.2c0,5.3,2.6,9.8,7.8,9.8c3.2,0,6.2-2.1,7.1-5.7c0.2-0.7,0.2-1.3,0.2-2.1V35.4z"/><path fill="#FFFFFF" d="M42.8,64c0.1,1.6-1.1,2.9-3.1,2.9c-1.7,0-2.9-1.3-2.9-2.9c0-1.7,1.3-3,3-3C41.7,61,42.8,62.3,42.8,64z M37.4,97.8V71.4h4.8v26.4H37.4z"/><path fill="#FFFFFF" d="M47.5,78.6c0-2.7-0.1-5-0.2-7.1h4.3l0.3,4.4h0.1c1.3-2.5,4.4-5,8.8-5c3.7,0,9.4,2.2,9.4,11.2v15.8h-4.8 V82.6c0-4.3-1.6-7.8-6.1-7.8c-3.2,0-5.6,2.2-6.5,4.9c-0.2,0.6-0.3,1.4-0.3,2.2v15.9h-4.8V78.6z"/><path fill="#FFFFFF" d="M84,61.6c2.9-0.4,6.3-0.8,10.1-0.8c6.8,0,11.7,1.6,14.9,4.6c3.3,3,5.2,7.3,5.2,13.2c0,6-1.9,10.9-5.3,14.3 c-3.4,3.4-9.1,5.3-16.3,5.3c-3.4,0-6.2-0.2-8.6-0.4V61.6z M88.8,94.1c1.2,0.2,3,0.3,4.8,0.3c10.2,0,15.7-5.7,15.7-15.6 c0.1-8.7-4.9-14.2-14.9-14.2c-2.5,0-4.3,0.2-5.6,0.5V94.1z"/><path fill="#FFFFFF" d="M132.1,97.8l-0.4-3.3h-0.2c-1.5,2.1-4.3,3.9-8.1,3.9c-5.4,0-8.1-3.8-8.1-7.6c0-6.4,5.7-9.9,15.9-9.8v-0.5 c0-2.2-0.6-6.1-6-6.1c-2.5,0-5,0.8-6.9,2l-1.1-3.2c2.2-1.4,5.4-2.3,8.7-2.3c8.1,0,10.1,5.5,10.1,10.8v9.9c0,2.3,0.1,4.5,0.4,6.3 H132.1z M131.4,84.4c-5.3-0.1-11.2,0.8-11.2,5.9c0,3.1,2.1,4.6,4.5,4.6c3.4,0,5.6-2.2,6.4-4.4c0.2-0.5,0.3-1,0.3-1.5V84.4z"/><path fill="#FFFFFF" d="M146.6,63.9v7.6h6.9v3.7h-6.9v14.2c0,3.3,0.9,5.1,3.6,5.1c1.3,0,2.2-0.2,2.8-0.3l0.2,3.6 c-0.9,0.4-2.4,0.7-4.3,0.7c-2.2,0-4-0.7-5.2-2c-1.4-1.4-1.9-3.8-1.9-6.9V75.1h-4.1v-3.7h4.1v-6.3L146.6,63.9z"/><path fill="#FFFFFF" d="M171.4,97.8l-0.4-3.3h-0.2c-1.5,2.1-4.3,3.9-8.1,3.9c-5.4,0-8.1-3.8-8.1-7.6c0-6.4,5.7-9.9,15.9-9.8v-0.5 c0-2.2-0.6-6.1-6-6.1c-2.5,0-5,0.8-6.9,2l-1.1-3.2c2.2-1.4,5.4-2.3,8.7-2.3c8.1,0,10.1,5.5,10.1,10.8v9.9c0,2.3,0.1,4.5,0.4,6.3 H171.4z M170.7,84.4c-5.3-0.1-11.2,0.8-11.2,5.9c0,3.1,2.1,4.6,4.5,4.6c3.4,0,5.6-2.2,6.4-4.4c0.2-0.5,0.3-1,0.3-1.5V84.4z"/></g></g></a></g><a href="https://ourworldindata.org/grapher/incidences-of-terrorism-by-country" target="_blank"><text font-size="25.20" x="15.0" y="35.2" fill="#555"><tspan x="15" y="35.160000000000004">Incidences of terrorism by country</tspan></text></a></g><g class="LineChart"><defs><clipPath id="boundsClip-1689"><rect x="37.216" y="0" width="830" height="973"></rect></clipPath></defs><g class="AxisBoxView"><g class="HorizontalAxis"><text x="47.2" y="556.5" fill="#666" text-anchor="middle" font-size="16.2">1968</text><text x="167" y="556.5" fill="#666" text-anchor="middle" font-size="16.2">1975</text><text x="252.6" y="556.5" fill="#666" text-anchor="middle" font-size="16.2">1980</text><text x="338.2" y="556.5" fill="#666" text-anchor="middle" font-size="16.2">1985</text><text x="423.8" y="556.5" fill="#666" text-anchor="middle" font-size="16.2">1990</text><text x="509.4" y="556.5" fill="#666" text-anchor="middle" font-size="16.2">1995</text><text x="595" y="556.5" fill="#666" text-anchor="middle" font-size="16.2">2000</text><text x="680.6" y="556.5" fill="#666" text-anchor="middle" font-size="16.2">2005</text><text x="749.1" y="556.5" fill="#666" text-anchor="middle" font-size="16.2">2009</text></g><g class="VerticalAxis"><text x="42.22" y="535.3" fill="#666" dominant-baseline="middle" text-anchor="end" font-size="16.2">0</text><text x="42.22" y="439.4" fill="#666" dominant-baseline="middle" text-anchor="end" font-size="16.2">100</text><text x="42.22" y="343.4" fill="#666" dominant-baseline="middle" text-anchor="end" font-size="16.2">200</text><text x="42.22" y="247.5" fill="#666" dominant-baseline="middle" text-anchor="end" font-size="16.2">300</text><text x="42.22" y="151.5" fill="#666" dominant-baseline="middle" text-anchor="end" font-size="16.2">400</text></g><g class="AxisGridLines"><line x1="47.22" y1="535.3" x2="749.09" y2="535.3" stroke="#ccc"></line><line x1="47.22" y1="439.4" x2="749.09" y2="439.4" stroke="#ddd" stroke-dasharray="3,2"></line><line x1="47.22" y1="343.4" x2="749.09" y2="343.4" stroke="#ddd" stroke-dasharray="3,2"></line><line x1="47.22" y1="247.5" x2="749.09" y2="247.5" stroke="#ddd" stroke-dasharray="3,2"></line><line x1="47.22" y1="151.5" x2="749.09" y2="151.5" stroke="#ddd" stroke-dasharray="3,2"></line></g></g><g clip-path="url(#boundsClip-1689)"><g class="HeightedLegend clickable"><g class="legendMark"><rect x="759.088" y="520.9" width="67.84800000000001" height="14.4" fill="#fff" opacity="0"></rect><rect x="759.088" y="526.85" width="10" height="2.5" fill="#3360a9"></rect><text font-size="14.40" x="774.1" y="532.4" fill="#333"><tspan x="774.088" y="532.42">Kashmir</tspan></text></g><g class="legendMark"><rect x="759.088" y="506.5" width="52.008" height="14.4" fill="#fff" opacity="0"></rect><rect x="759.088" y="512.45" width="10" height="2.5" fill="#ca2628"></rect><text font-size="14.40" x="774.1" y="518.0" fill="#333"><tspan x="774.088" y="518.02">Spain</tspan></text></g><g class="legendMark"><rect x="759.088" y="492.1" width="74.47200000000001" height="14.4" fill="#fff" opacity="0"></rect><rect x="759.088" y="498.05" width="10" height="2.5" fill="#34983f"></rect><text font-size="14.40" x="774.1" y="503.6" fill="#333"><tspan x="774.088" y="503.62">Palestine</tspan></text></g><g class="legendMark"><rect x="759.088" y="477.70000000000005" width="50.28" height="14.4" fill="#fff" opacity="0"></rect><rect x="759.088" y="483.65000000000003" width="10" height="2.5" fill="#f6a324"></rect><text font-size="14.40" x="774.1" y="489.2" fill="#333"><tspan x="774.088" y="489.22">Israel</tspan></text></g><g class="legendMark"><rect x="759.088" y="463.30000000000007" width="75.912" height="14.4" fill="#fff" opacity="0"></rect><rect x="759.088" y="469.25000000000006" width="10" height="2.5" fill="#a652ba"></rect><text font-size="14.40" x="774.1" y="474.8" fill="#333"><tspan x="774.088" y="474.82000000000005">Colombia</tspan></text></g></g><g class="Lines"><rect x="47" y="70" width="702" height="465" fill="rgba(255,255,255,0)" opacity="0"></rect><g class="key-Kashmir_0"><path stroke="#3360a9" stroke-linecap="round" d="M509 534L561 516L578 530L595 525L612 499L629 70L646 307L664 486L681 449L698 401L715 514L732 534" fill="none" stroke-width="1.5"></path><g fill="#3360a9"><circle cx="509" cy="534" r="2"></circle><circle cx="561" cy="516" r="2"></circle><circle cx="578" cy="530" r="2"></circle><circle cx="595" cy="525" r="2"></circle><circle cx="612" cy="499" r="2"></circle><circle cx="629" cy="70" r="2"></circle><circle cx="646" cy="307" r="2"></circle><circle cx="664" cy="486" r="2"></circle><circle cx="681" cy="449" r="2"></circle><circle cx="698" cy="401" r="2"></circle><circle cx="715" cy="514" r="2"></circle><circle cx="732" cy="534" r="2"></circle></g></g><g class="key-Colombia_0"><path stroke="#a652ba" stroke-linecap="round" d="M47 533L64 534L82 532L99 533L116 533L133 534L167 531L184 520L201 528L218 526L236 533L253 529L270 528L287 531L304 524L321 526L338 518L355 508L373 524L390 510L407 514L424 528L441 532L458 515L475 527L492 506L509 526L527 514L544 524L561 405L578 444L595 351L612 414L629 121L646 394L664 462L681 436L698 406L715 487L732 482L749 490" fill="none" stroke-width="1.5"></path><g fill="#a652ba"><circle cx="47" cy="533" r="2"></circle><circle cx="64" cy="534" r="2"></circle><circle cx="82" cy="532" r="2"></circle><circle cx="99" cy="533" r="2"></circle><circle cx="116" cy="533" r="2"></circle><circle cx="133" cy="534" r="2"></circle><circle cx="167" cy="531" r="2"></circle><circle cx="184" cy="520" r="2"></circle><circle cx="201" cy="528" r="2"></circle><circle cx="218" cy="526" r="2"></circle><circle cx="236" cy="533" r="2"></circle><circle cx="253" cy="529" r="2"></circle><circle cx="270" cy="528" r="2"></circle><circle cx="287" cy="531" r="2"></circle><circle cx="304" cy="524" r="2"></circle><circle cx="321" cy="526" r="2"></circle><circle cx="338" cy="518" r="2"></circle><circle cx="355" cy="508" r="2"></circle><circle cx="373" cy="524" r="2"></circle><circle cx="390" cy="510" r="2"></circle><circle cx="407" cy="514" r="2"></circle><circle cx="424" cy="528" r="2"></circle><circle cx="441" cy="532" r="2"></circle><circle cx="458" cy="515" r="2"></circle><circle cx="475" cy="527" r="2"></circle><circle cx="492" cy="506" r="2"></circle><circle cx="509" cy="526" r="2"></circle><circle cx="527" cy="514" r="2"></circle><circle cx="544" cy="524" r="2"></circle><circle cx="561" cy="405" r="2"></circle><circle cx="578" cy="444" r="2"></circle><circle cx="595" cy="351" r="2"></circle><circle cx="612" cy="414" r="2"></circle><circle cx="629" cy="121" r="2"></circle><circle cx="646" cy="394" r="2"></circle><circle cx="664" cy="462" r="2"></circle><circle cx="681" cy="436" r="2"></circle><circle cx="698" cy="406" r="2"></circle><circle cx="715" cy="487" r="2"></circle><circle cx="732" cy="482" r="2"></circle><circle cx="749" cy="490" r="2"></circle></g></g><g class="key-Palestine_0"><path stroke="#34983f" stroke-linecap="round" d="M82 534L116 534L184 534L201 534L236 533L253 534L338 529L424 532L441 533L475 534L492 531L509 531L527 533L544 534L561 506L578 526L595 375L612 221L629 121L646 378L664 199L681 77L698 508L715 520" fill="none" stroke-width="1.5"></path><g fill="#34983f"><circle cx="82" cy="534" r="2"></circle><circle cx="116" cy="534" r="2"></circle><circle cx="184" cy="534" r="2"></circle><circle cx="201" cy="534" r="2"></circle><circle cx="236" cy="533" r="2"></circle><circle cx="253" cy="534" r="2"></circle><circle cx="338" cy="529" r="2"></circle><circle cx="424" cy="532" r="2"></circle><circle cx="441" cy="533" r="2"></circle><circle cx="475" cy="534" r="2"></circle><circle cx="492" cy="531" r="2"></circle><circle cx="509" cy="531" r="2"></circle><circle cx="527" cy="533" r="2"></circle><circle cx="544" cy="534" r="2"></circle><circle cx="561" cy="506" r="2"></circle><circle cx="578" cy="526" r="2"></circle><circle cx="595" cy="375" r="2"></circle><circle cx="612" cy="221" r="2"></circle><circle cx="629" cy="121" r="2"></circle><circle cx="646" cy="378" r="2"></circle><circle cx="664" cy="199" r="2"></circle><circle cx="681" cy="77" r="2"></circle><circle cx="698" cy="508" r="2"></circle><circle cx="715" cy="520" r="2"></circle></g></g><g class="key-Israel_0"><path stroke="#f6a324" stroke-linecap="round" d="M47 523L64 530L82 532L99 532L116 517L150 523L167 527L184 529L201 526L218 521L236 507L253 524L270 529L287 530L304 532L321 526L338 492L355 509L373 505L390 506L407 509L424 513L441 521L458 525L475 521L492 512L509 525L527 526L544 530L561 516L578 522L595 517L612 454L629 432L646 464L664 509L681 463L698 126L715 488L732 242L749 497" fill="none" stroke-width="1.5"></path><g fill="#f6a324"><circle cx="47" cy="523" r="2"></circle><circle cx="64" cy="530" r="2"></circle><circle cx="82" cy="532" r="2"></circle><circle cx="99" cy="532" r="2"></circle><circle cx="116" cy="517" r="2"></circle><circle cx="150" cy="523" r="2"></circle><circle cx="167" cy="527" r="2"></circle><circle cx="184" cy="529" r="2"></circle><circle cx="201" cy="526" r="2"></circle><circle cx="218" cy="521" r="2"></circle><circle cx="236" cy="507" r="2"></circle><circle cx="253" cy="524" r="2"></circle><circle cx="270" cy="529" r="2"></circle><circle cx="287" cy="530" r="2"></circle><circle cx="304" cy="532" r="2"></circle><circle cx="321" cy="526" r="2"></circle><circle cx="338" cy="492" r="2"></circle><circle cx="355" cy="509" r="2"></circle><circle cx="373" cy="505" r="2"></circle><circle cx="390" cy="506" r="2"></circle><circle cx="407" cy="509" r="2"></circle><circle cx="424" cy="513" r="2"></circle><circle cx="441" cy="521" r="2"></circle><circle cx="458" cy="525" r="2"></circle><circle cx="475" cy="521" r="2"></circle><circle cx="492" cy="512" r="2"></circle><circle cx="509" cy="525" r="2"></circle><circle cx="527" cy="526" r="2"></circle><circle cx="544" cy="530" r="2"></circle><circle cx="561" cy="516" r="2"></circle><circle cx="578" cy="522" r="2"></circle><circle cx="595" cy="517" r="2"></circle><circle cx="612" cy="454" r="2"></circle><circle cx="629" cy="432" r="2"></circle><circle cx="646" cy="464" r="2"></circle><circle cx="664" cy="509" r="2"></circle><circle cx="681" cy="463" r="2"></circle><circle cx="698" cy="126" r="2"></circle><circle cx="715" cy="488" r="2"></circle><circle cx="732" cy="242" r="2"></circle><circle cx="749" cy="497" r="2"></circle></g></g><g class="key-Spain_0"><path stroke="#ca2628" stroke-linecap="round" d="M47 534L64 533L82 534L99 533L116 533L133 532L150 531L167 533L184 528L201 528L218 531L236 518L253 526L270 531L287 526L304 518L321 512L338 520L355 506L373 509L390 508L407 519L424 525L441 529L458 531L475 533L492 532L509 533L527 529L544 534L561 431L578 370L595 334L612 309L629 426L646 491L664 486L681 471L698 489L715 498L732 498L749 520" fill="none" stroke-width="1.5"></path><g fill="#ca2628"><circle cx="47" cy="534" r="2"></circle><circle cx="64" cy="533" r="2"></circle><circle cx="82" cy="534" r="2"></circle><circle cx="99" cy="533" r="2"></circle><circle cx="116" cy="533" r="2"></circle><circle cx="133" cy="532" r="2"></circle><circle cx="150" cy="531" r="2"></circle><circle cx="167" cy="533" r="2"></circle><circle cx="184" cy="528" r="2"></circle><circle cx="201" cy="528" r="2"></circle><circle cx="218" cy="531" r="2"></circle><circle cx="236" cy="518" r="2"></circle><circle cx="253" cy="526" r="2"></circle><circle cx="270" cy="531" r="2"></circle><circle cx="287" cy="526" r="2"></circle><circle cx="304" cy="518" r="2"></circle><circle cx="321" cy="512" r="2"></circle><circle cx="338" cy="520" r="2"></circle><circle cx="355" cy="506" r="2"></circle><circle cx="373" cy="509" r="2"></circle><circle cx="390" cy="508" r="2"></circle><circle cx="407" cy="519" r="2"></circle><circle cx="424" cy="525" r="2"></circle><circle cx="441" cy="529" r="2"></circle><circle cx="458" cy="531" r="2"></circle><circle cx="475" cy="533" r="2"></circle><circle cx="492" cy="532" r="2"></circle><circle cx="509" cy="533" r="2"></circle><circle cx="527" cy="529" r="2"></circle><circle cx="544" cy="534" r="2"></circle><circle cx="561" cy="431" r="2"></circle><circle cx="578" cy="370" r="2"></circle><circle cx="595" cy="334" r="2"></circle><circle cx="612" cy="309" r="2"></circle><circle cx="629" cy="426" r="2"></circle><circle cx="646" cy="491" r="2"></circle><circle cx="664" cy="486" r="2"></circle><circle cx="681" cy="471" r="2"></circle><circle cx="698" cy="489" r="2"></circle><circle cx="715" cy="498" r="2"></circle><circle cx="732" cy="498" r="2"></circle><circle cx="749" cy="520" r="2"></circle></g></g></g></g></g><g style="fill: #777;" class="SourcesFooter"><g style="fill: #777;" class="clickable"><text font-size="12.60" x="15.0" y="581.6"><tspan x="15" y="581.58">Source: RAND Database of Worldwide Terrorism Incidents</tspan></text></g><text font-size="12.60" x="592.3" y="581.6"><tspan x="592.3240000000001" y="581.58"><a target='_blank' style='fill: #777;' href='https://ourworldindata.org/terrorism/'>OurWorldInData.org/terrorism/</a> • <a style="fill: #777;" href="http://creativecommons.org/licenses/by-sa/4.0/deed.en_US" target="_blank">CC BY-SA</a></tspan></text></g></g></svg>