<svg xmlns="http://www.w3.org/2000/svg" version="1.1" style="font-family: 'Helvetica Neue', Helvetica, Arial, sans-serif; font-size: 18px; background-color: white; text-rendering: optimizeLegibility; -webkit-font-smoothing: antialiased;" width="850" height="600"><g class="ChartTab"><g class="HeaderView"><g opacity="0.8" transform="translate(778, 15) scale(0.27)"><a xmlns:xlink="http://www.w3.org/1999/xlink" xlink:href="https://ourworldindata.org" target="_blank"><g><rect x="0" y="0" fill="#1B2543" width="211.2" height="130.1"/><rect x="0" y="112.2" fill="#E63912" width="211.2" height="17.9"/><g><rect x="1.2" y="12.3" fill="none" width="210.2" height="99.2"/><path fill="#FFFFFF" d="M37.8,32.2c0,12.7-7.7,19.4-17.1,19.4c-9.7,0-16.6-7.5-16.6-18.7c0-11.7,7.3-19.3,17.1-19.3 C31.3,13.7,37.8,21.3,37.8,32.2z M9.2,32.8c0,7.9,4.3,14.9,11.8,14.9c7.5,0,11.8-6.9,11.8-15.3c0-7.3-3.8-14.9-11.8-14.9 C13.1,17.5,9.2,24.8,9.2,32.8z"/><path fill="#FFFFFF" d="M62.7,43.8c0,2.7,0.1,5.1,0.2,7.2h-4.3l-0.3-4.3h-0.1c-1.3,2.1-4,4.9-8.8,4.9c-4.2,0-9.1-2.3-9.1-11.6 V24.6h4.8v14.6c0,5,1.5,8.4,5.9,8.4c3.2,0,5.5-2.2,6.3-4.4c0.3-0.7,0.4-1.6,0.4-2.5V24.6h4.8V43.8z"/><path fill="#FFFFFF" d="M67.3,32.8c0-3.1-0.1-5.8-0.2-8.2h4.2l0.2,5.2h0.2c1.2-3.5,4.1-5.8,7.3-5.8c0.5,0,0.9,0.1,1.4,0.2v4.5 c-0.5-0.1-1-0.2-1.6-0.2c-3.4,0-5.8,2.6-6.5,6.2c-0.1,0.7-0.2,1.4-0.2,2.2V51h-4.8V32.8z"/><path fill="#FFFFFF" d="M95.4,51l-9.4-36.8h5l4.4,18.6c1.1,4.6,2.1,9.2,2.7,12.7h0.1c0.6-3.7,1.8-8,3-12.8l4.9-18.5h5l4.5,18.7 c1,4.4,2,8.7,2.6,12.6h0.1c0.8-4,1.8-8.1,3-12.7l4.9-18.5h4.9L120.6,51h-5L111,31.9c-1.1-4.7-1.9-8.3-2.4-12h-0.1 c-0.7,3.7-1.5,7.3-2.8,12L100.4,51H95.4z"/><path fill="#FFFFFF" d="M154.9,37.6c0,9.8-6.8,14-13.2,14c-7.2,0-12.7-5.2-12.7-13.6c0-8.8,5.8-14,13.1-14 C149.8,24,154.9,29.5,154.9,37.6z M133.9,37.9c0,5.8,3.3,10.1,8,10.1c4.6,0,8-4.3,8-10.3c0-4.5-2.2-10.1-7.9-10.1 C136.3,27.6,133.9,32.8,133.9,37.9z"/><path fill="#FFFFFF" d="M158.2,32.8c0-3.1-0.1-5.8-0.2-8.2h4.2l0.2,5.2h0.2c1.2-3.5,4.1-5.8,7.3-5.8c0.5,0,0.9,0.1,1.4,0.2v4.5 c-0.5-0.1-1-0.2-1.6-0.2c-3.4,0-5.8,2.6-6.5,6.2c-0.1,0.7-0.2,1.4-0.2,2.2V51h-4.8V32.8z"/><path fill="#FFFFFF" d="M173.5,12.3h4.8V51h-4.8V12.3z"/><path fill="#FFFFFF" d="M206.5,12.3v31.9c0,2.3,0.1,5,0.2,6.8h-4.3l-0.2-4.6H202c-1.5,2.9-4.7,5.2-9,5.2 c-6.4,0-11.3-5.4-11.3-13.4c-0.1-8.8,5.4-14.2,11.9-14.2c4,0,6.8,1.9,8,4h0.1V12.3H206.5z M201.7,35.4c0-0.6-0.1-1.4-0.2-2 c-0.7-3.1-3.3-5.6-6.9-5.6c-5,0-7.9,4.4-7.9,10.2c0,5.3,2.6,9.8,7.8,9.8c3.2,0,6.2-2.1,7.1-5.7c0.2-0.7,0.2-1.3,0.2-2.1V35.4z"/><path fill="#FFFFFF" d="M42.8,64c0.1,1.6-1.1,2.9-3.1,2.9c-1.7,0-2.9-1.3-2.9-2.9c0-1.7,1.3-3,3-3C41.7,61,42.8,62.3,42.8,64z M37.4,97.8V71.4h4.8v26.4H37.4z"/><path fill="#FFFFFF" d="M47.5,78.6c0-2.7-0.1-5-0.2-7.1h4.3l0.3,4.4h0.1c1.3-2.5,4.4-5,8.8-5c3.7,0,9.4,2.2,9.4,11.2v15.8h-4.8 V82.6c0-4.3-1.6-7.8-6.1-7.8c-3.2,0-5.6,2.2-6.5,4.9c-0.2,0.6-0.3,1.4-0.3,2.2v15.9h-4.8V78.6z"/><path fill="#FFFFFF" d="M84,61.6c2.9-0.4,6.3-0.8,10.1-0.8c6.8,0,11.7,1.6,14.9,4.6c3.3,3,5.2,7.3,5.2,13.2c0,6-1.9,10.9-5.3,14.3 c-3.4,3.4-9.1,5.3-16.3,5.3c-3.4,0-6.2-0.2-8.6-0.4V61.6z M88.8,94.1c1.2,0.2,3,0.3,4.8,0.3c10.2,0,15.7-5.7,15.7-15.6 c0.1-8.7-4.9-14.2-14.9-14.2c-2.5,0-4.3,0.2-5.6,0.5V94.1z"/><path fill="#FFFFFF" d="M132.1,97.8l-0.4-3.3h-0.2c-1.5,2.1-4.3,3.9-8.1,3.9c-5.4,0-8.1-3.8-8.1-7.6c0-6.4,5.7-9.9,15.9-9.8v-0.5 c0-2.2-0.6-6.1-6-6.1c-2.5,0-5,0.8-6.9,2l-1.1-3.2c2.2-1.4,5.4-2.3,8.7-2.3c8.1,0,10.1,5.5,10.1,10.8v9.9c0,2.3,0.1,4.5,0.4,6.3 H132.1z M131.4,84.4c-5.3-0.1-11.2,0.8-11.2,5.9c0,3.1,2.1,4.6,4.5,4.6c3.4,0,5.6-2.2,6.4-4.4c0.2-0.5,0.3-1,0.3-1.5V84.4z"/><path fill="#FFFFFF" d="M146.6,63.9v7.6h6.9v3.7h-6.9v14.2c0,3.3,0.9,5.1,3.6,5.1c1.3,0,2.2-0.2,2.8-0.3l0.2,3.6 c-0.9,0.4-2.4,0.7-4.3,0.7c-2.2,0-4-0.7-5.2-2c-1.4-1.4-1.9-3.8-1.9-6.9V75.1h-4.1v-3.7h4.1v-6.3L146.6,63.9z"/><path fill="#FFFFFF" d="M171.4,97.8l-0.4-3.3h-0.2c-1.5,2.1-4.3,3.9-8.1,3.9c-5.4,0-8.1-3.8-8.1-7.6c0-6.4,5.7-9.9,15.9-9.8v-0.5 c0-2.2-0.6-6.1-6-6.1c-2.5,0-5,0.8-6.9,2l-1.1-3.2c2.2-1.4,5.4-2.3,8.7-2.3c8.1,0,10.1,5.5,10.1,10.8v9.9c0,2.3,0.1,4.5,0.4,6.3 H171.4z M170.7,84.4c-5.3-0.1-11.2,0.8-11.2,5.9c0,3.1,2.1,4.6,4.5,4.6c3.4,0,5.6-2.2,6.4-4.4c0.2-0.5,0.3-1,0.3-1.5V84.4z"/></g></g></a></g><a href="https://ourworldindata.org/grapher/income-inequality-and-growth-in-european-sub-national-regions" target="_blank"><text font-size="24.30" x="15.0" y="34.4" fill="#555"><tspan x="15" y="34.44">Income inequality and growth across OECD European regions, 2012</tspan></text></a><text font-size="14.40" x="15.0" y="52.8" fill="#666"><tspan x="15" y="52.81999999999999">Each dot on this graph is a different sub-national region within Europe (France, for example, is divided in 22 different</tspan><tspan x="15" y="68.66">regions). The vertical axis measures the average annual growth rate of GDP per capita in the period 2008-2012, and</tspan><tspan x="15" y="84.5">the horizontal axis measures inequality in 2007 (Gini coefficients - higher values reflect more inequality).</tspan></text></g><g><g class="AxisBoxView"><g class="HorizontalAxis"><text font-size="12.60" x="241.3" y="554.0"><tspan x="241.268" y="553.98">OECD Subnational Gini Coefficients in 2007</tspan></text><text x="82.4" y="533.9" fill="#666" text-anchor="middle" font-size="16.2">22</text><text x="168.6" y="533.9" fill="#666" text-anchor="middle" font-size="16.2">24</text><text x="254.8" y="533.9" fill="#666" text-anchor="middle" font-size="16.2">26</text><text x="341" y="533.9" fill="#666" text-anchor="middle" font-size="16.2">28</text><text x="427.2" y="533.9" fill="#666" text-anchor="middle" font-size="16.2">30</text><text x="513.3" y="533.9" fill="#666" text-anchor="middle" font-size="16.2">32</text><text x="599.5" y="533.9" fill="#666" text-anchor="middle" font-size="16.2">34</text><text x="685.7" y="533.9" fill="#666" text-anchor="middle" font-size="16.2">36</text></g><g class="VerticalAxis"><text font-size="12.60" x="-463.1" y="25.1" transform="rotate(-90)"><tspan x="-463.144" y="25.080000000000002">Average annual growth rate of GDP per capita </tspan></text><text x="52.02" y="497.3" fill="#666" dominant-baseline="middle" text-anchor="end" font-size="16.2">-6</text><text x="52.02" y="445.9" fill="#666" dominant-baseline="middle" text-anchor="end" font-size="16.2">-5</text><text x="52.02" y="394.5" fill="#666" dominant-baseline="middle" text-anchor="end" font-size="16.2">-4</text><text x="52.02" y="343.1" fill="#666" dominant-baseline="middle" text-anchor="end" font-size="16.2">-3</text><text x="52.02" y="291.7" fill="#666" dominant-baseline="middle" text-anchor="end" font-size="16.2">-2</text><text x="52.02" y="240.3" fill="#666" dominant-baseline="middle" text-anchor="end" font-size="16.2">-1</text><text x="52.02" y="188.9" fill="#666" dominant-baseline="middle" text-anchor="end" font-size="16.2">0</text><text x="52.02" y="137.5" fill="#666" dominant-baseline="middle" text-anchor="end" font-size="16.2">1</text></g><g class="AxisGridLines"><line x1="57.02" y1="497.3" x2="715.00" y2="497.3" stroke="#ddd" stroke-dasharray="3,2"></line><line x1="57.02" y1="445.9" x2="715.00" y2="445.9" stroke="#ddd" stroke-dasharray="3,2"></line><line x1="57.02" y1="394.5" x2="715.00" y2="394.5" stroke="#ddd" stroke-dasharray="3,2"></line><line x1="57.02" y1="343.1" x2="715.00" y2="343.1" stroke="#ddd" stroke-dasharray="3,2"></line><line x1="57.02" y1="291.7" x2="715.00" y2="291.7" stroke="#ddd" stroke-dasharray="3,2"></line><line x1="57.02" y1="240.3" x2="715.00" y2="240.3" stroke="#ddd" stroke-dasharray="3,2"></line><line x1="57.02" y1="188.9" x2="715.00" y2="188.9" stroke="#ccc"></line><line x1="57.02" y1="137.5" x2="715.00" y2="137.5" stroke="#ddd" stroke-dasharray="3,2"></line></g><g class="AxisGridLines"><line x1="82.4" y1="512.70" x2="82.4" y2="106.70" stroke="#ddd" stroke-dasharray="3,2"></line><line x1="168.6" y1="512.70" x2="168.6" y2="106.70" stroke="#ddd" stroke-dasharray="3,2"></line><line x1="254.8" y1="512.70" x2="254.8" y2="106.70" stroke="#ddd" stroke-dasharray="3,2"></line><line x1="341" y1="512.70" x2="341" y2="106.70" stroke="#ddd" stroke-dasharray="3,2"></line><line x1="427.2" y1="512.70" x2="427.2" y2="106.70" stroke="#ddd" stroke-dasharray="3,2"></line><line x1="513.3" y1="512.70" x2="513.3" y2="106.70" stroke="#ddd" stroke-dasharray="3,2"></line><line x1="599.5" y1="512.70" x2="599.5" y2="106.70" stroke="#ddd" stroke-dasharray="3,2"></line><line x1="685.7" y1="512.70" x2="685.7" y2="106.70" stroke="#ddd" stroke-dasharray="3,2"></line></g></g><g clip-path="url(#scatterBounds-1691)" font-family="Arial Narrow, Arial, sans-serif" class="PointsWithLabels clickable"><rect x="57.018" y="106.7" width="657.982" height="406" fill="rgba(255,255,255,0)"></rect><defs><clipPath id="scatterBounds-1691"><rect x="47.018" y="96.7" width="677.982" height="426"></rect></clipPath></defs><g class="key-BE1_0"><circle cx="709.00" cy="281.00" r="1.78" fill="#000" opacity="0.8" stroke="#333" stroke-width="0.7"></circle></g><g class="key-BE2_0"><circle cx="170.00" cy="199.00" r="1.78" fill="#000" opacity="0.8" stroke="#333" stroke-width="0.7"></circle></g><g class="key-BE3_0"><circle cx="285.00" cy="219.00" r="1.78" fill="#000" opacity="0.8" stroke="#333" stroke-width="0.7"></circle></g><g class="key-CZ01_0"><circle cx="344.00" cy="235.00" r="1.78" fill="#000" opacity="0.8" stroke="#333" stroke-width="0.7"></circle></g><g class="key-CZ02_0"><circle cx="252.00" cy="214.00" r="1.78" fill="#000" opacity="0.8" stroke="#333" stroke-width="0.7"></circle></g><g class="key-CZ03_0"><circle cx="172.00" cy="147.00" r="1.78" fill="#000" opacity="0.8" stroke="#333" stroke-width="0.7"></circle></g><g class="key-CZ04_0"><circle cx="427.00" cy="209.00" r="1.78" fill="#000" opacity="0.8" stroke="#333" stroke-width="0.7"></circle></g><g class="key-CZ05_0"><circle cx="169.00" cy="163.00" r="1.78" fill="#000" opacity="0.8" stroke="#333" stroke-width="0.7"></circle></g><g class="key-CZ06_0"><circle cx="135.00" cy="168.00" r="1.78" fill="#000" opacity="0.8" stroke="#333" stroke-width="0.7"></circle></g><g class="key-CZ07_0"><circle cx="189.00" cy="137.00" r="1.78" fill="#000" opacity="0.8" stroke="#fff" stroke-width="0.7"></circle></g><g class="key-CZ08_0"><circle cx="225.00" cy="106.00" r="1.78" fill="#000" opacity="0.8" stroke="#333" stroke-width="0.7"></circle></g><g class="key-EE00_0"><circle cx="590.00" cy="117.00" r="1.78" fill="#000" opacity="0.8" stroke="#333" stroke-width="0.7"></circle></g><g class="key-ES11_0"><circle cx="405.00" cy="245.00" r="1.78" fill="#000" opacity="0.8" stroke="#333" stroke-width="0.7"></circle></g><g class="key-ES12_0"><circle cx="266.00" cy="250.00" r="1.78" fill="#000" opacity="0.8" stroke="#333" stroke-width="0.7"></circle></g><g class="key-ES13_0"><circle cx="363.00" cy="260.00" r="1.78" fill="#000" opacity="0.8" stroke="#333" stroke-width="0.7"></circle></g><g class="key-ES21_0"><circle cx="288.00" cy="209.00" r="1.78" fill="#000" opacity="0.8" stroke="#fff" stroke-width="0.7"></circle></g><g class="key-ES22_0"><circle cx="337.00" cy="219.00" r="1.78" fill="#000" opacity="0.8" stroke="#333" stroke-width="0.7"></circle></g><g class="key-ES23_0"><circle cx="378.00" cy="235.00" r="1.78" fill="#000" opacity="0.8" stroke="#fff" stroke-width="0.7"></circle></g><g class="key-ES24_0"><circle cx="344.00" cy="260.00" r="1.78" fill="#000" opacity="0.8" stroke="#fff" stroke-width="0.7"></circle></g><g class="key-ES30_0"><circle cx="521.00" cy="260.00" r="1.78" fill="#000" opacity="0.8" stroke="#333" stroke-width="0.7"></circle></g><g class="key-ES41_0"><circle cx="467.00" cy="199.00" r="1.78" fill="#000" opacity="0.8" stroke="#333" stroke-width="0.7"></circle></g><g class="key-ES42_0"><circle cx="412.00" cy="302.00" r="1.78" fill="#000" opacity="0.8" stroke="#333" stroke-width="0.7"></circle></g><g class="key-ES43_0"><circle cx="590.00" cy="266.00" r="1.78" fill="#000" opacity="0.8" stroke="#333" stroke-width="0.7"></circle></g><g class="key-ES51_0"><circle cx="399.00" cy="255.00" r="1.78" fill="#000" opacity="0.8" stroke="#fff" stroke-width="0.7"></circle></g><g class="key-ES52_0"><circle cx="372.00" cy="332.00" r="1.78" fill="#000" opacity="0.8" stroke="#333" stroke-width="0.7"></circle></g><g class="key-ES53_0"><circle cx="490.00" cy="296.00" r="1.78" fill="#000" opacity="0.8" stroke="#333" stroke-width="0.7"></circle></g><g class="key-ES61_0"><circle cx="484.00" cy="296.00" r="1.78" fill="#000" opacity="0.8" stroke="#fff" stroke-width="0.7"></circle></g><g class="key-ES62_0"><circle cx="428.00" cy="363.00" r="1.78" fill="#000" opacity="0.8" stroke="#333" stroke-width="0.7"></circle></g><g class="key-ES63_0"><circle cx="715.00" cy="312.00" r="1.78" fill="#000" opacity="0.8" stroke="#333" stroke-width="0.7"></circle></g><g class="key-ES64_0"><circle cx="664.00" cy="317.00" r="1.78" fill="#000" opacity="0.8" stroke="#fff" stroke-width="0.7"></circle></g><g class="key-ES70_0"><circle cx="528.00" cy="271.00" r="1.78" fill="#000" opacity="0.8" stroke="#fff" stroke-width="0.7"></circle></g><g class="key-FI19_0"><circle cx="183.00" cy="199.00" r="1.78" fill="#000" opacity="0.8" stroke="#fff" stroke-width="0.7"></circle></g><g class="key-FI1B_0"><circle cx="157.00" cy="266.00" r="1.78" fill="#000" opacity="0.8" stroke="#333" stroke-width="0.7"></circle></g><g class="key-FI1C_0"><circle cx="334.00" cy="183.00" r="1.78" fill="#000" opacity="0.8" stroke="#333" stroke-width="0.7"></circle></g><g class="key-FI1D_0"><circle cx="256.00" cy="183.00" r="1.78" fill="#000" opacity="0.8" stroke="#333" stroke-width="0.7"></circle></g><g class="key-FR10_0"><circle cx="367.00" cy="158.00" r="1.78" fill="#000" opacity="0.8" stroke="#333" stroke-width="0.7"></circle></g><g class="key-FR21_0"><circle cx="322.00" cy="266.00" r="1.78" fill="#000" opacity="0.8" stroke="#333" stroke-width="0.7"></circle></g><g class="key-FR22_0"><circle cx="101.00" cy="199.00" r="1.78" fill="#000" opacity="0.8" stroke="#333" stroke-width="0.7"></circle></g><g class="key-FR23_0"><circle cx="247.00" cy="168.00" r="1.78" fill="#000" opacity="0.8" stroke="#333" stroke-width="0.7"></circle></g><g class="key-FR24_0"><circle cx="256.00" cy="209.00" r="1.78" fill="#000" opacity="0.8" stroke="#fff" stroke-width="0.7"></circle></g><g class="key-FR25_0"><circle cx="214.00" cy="199.00" r="1.78" fill="#000" opacity="0.8" stroke="#333" stroke-width="0.7"></circle></g><g class="key-FR26_0"><circle cx="172.00" cy="224.00" r="1.78" fill="#000" opacity="0.8" stroke="#333" stroke-width="0.7"></circle></g><g class="key-FR30_0"><circle cx="209.00" cy="188.00" r="1.78" fill="#000" opacity="0.8" stroke="#fff" stroke-width="0.7"></circle></g><g class="key-FR41_0"><circle cx="287.00" cy="219.00" r="1.78" fill="#000" opacity="0.8" stroke="#fff" stroke-width="0.7"></circle></g><g class="key-FR42_0"><circle cx="66.00" cy="194.00" r="1.78" fill="#000" opacity="0.8" stroke="#333" stroke-width="0.7"></circle></g><g class="key-FR43_0"><circle cx="57.00" cy="199.00" r="1.78" fill="#000" opacity="0.8" stroke="#fff" stroke-width="0.7"></circle></g><g class="key-FR51_0"><circle cx="113.00" cy="199.00" r="1.78" fill="#000" opacity="0.8" stroke="#fff" stroke-width="0.7"></circle></g><g class="key-FR52_0"><circle cx="266.00" cy="209.00" r="1.78" fill="#000" opacity="0.8" stroke="#fff" stroke-width="0.7"></circle></g><g class="key-FR53_0"><circle cx="159.00" cy="183.00" r="1.78" fill="#000" opacity="0.8" stroke="#333" stroke-width="0.7"></circle></g><g class="key-FR61_0"><circle cx="268.00" cy="183.00" r="1.78" fill="#000" opacity="0.8" stroke="#fff" stroke-width="0.7"></circle></g><g class="key-FR62_0"><circle cx="407.00" cy="204.00" r="1.78" fill="#000" opacity="0.8" stroke="#fff" stroke-width="0.7"></circle></g><g class="key-FR63_0"><circle cx="250.00" cy="204.00" r="1.78" fill="#000" opacity="0.8" stroke="#fff" stroke-width="0.7"></circle></g><g class="key-FR71_0"><circle cx="221.00" cy="199.00" r="1.78" fill="#000" opacity="0.8" stroke="#fff" stroke-width="0.7"></circle></g><g class="key-FR72_0"><circle cx="155.00" cy="188.00" r="1.78" fill="#000" opacity="0.8" stroke="#fff" stroke-width="0.7"></circle></g><g class="key-FR81_0"><circle cx="343.00" cy="219.00" r="1.78" fill="#000" opacity="0.8" stroke="#fff" stroke-width="0.7"></circle></g><g class="key-FR82_0"><circle cx="305.00" cy="137.00" r="1.78" fill="#000" opacity="0.8" stroke="#333" stroke-width="0.7"></circle></g><g class="key-FR83_0"><circle cx="371.00" cy="106.00" r="1.78" fill="#000" opacity="0.8" stroke="#333" stroke-width="0.7"></circle></g><g class="key-GR1_0"><circle cx="540.00" cy="512.00" r="1.78" fill="#000" opacity="0.8" stroke="#333" stroke-width="0.7"></circle></g><g class="key-GR2_0"><circle cx="574.00" cy="502.00" r="1.78" fill="#000" opacity="0.8" stroke="#333" stroke-width="0.7"></circle></g><g class="key-GR3_0"><circle cx="566.00" cy="466.00" r="1.78" fill="#000" opacity="0.8" stroke="#333" stroke-width="0.7"></circle></g><g class="key-GR4_0"><circle cx="528.00" cy="492.00" r="1.78" fill="#000" opacity="0.8" stroke="#333" stroke-width="0.7"></circle></g><g class="key-ITC1_0"><circle cx="406.00" cy="255.00" r="1.78" fill="#000" opacity="0.8" stroke="#fff" stroke-width="0.7"></circle></g><g class="key-ITC2_0"><circle cx="322.00" cy="240.00" r="1.78" fill="#000" opacity="0.8" stroke="#fff" stroke-width="0.7"></circle></g><g class="key-ITC3_0"><circle cx="378.00" cy="276.00" r="1.78" fill="#000" opacity="0.8" stroke="#333" stroke-width="0.7"></circle></g><g class="key-ITC4_0"><circle cx="389.00" cy="255.00" r="1.78" fill="#000" opacity="0.8" stroke="#fff" stroke-width="0.7"></circle></g><g class="key-ITF1_0"><circle cx="424.00" cy="188.00" r="1.78" fill="#000" opacity="0.8" stroke="#333" stroke-width="0.7"></circle></g><g class="key-ITF2_0"><circle cx="426.00" cy="302.00" r="1.78" fill="#000" opacity="0.8" stroke="#fff" stroke-width="0.7"></circle></g><g class="key-ITF3_0"><circle cx="546.00" cy="307.00" r="1.78" fill="#000" opacity="0.8" stroke="#333" stroke-width="0.7"></circle></g><g class="key-ITF4_0"><circle cx="410.00" cy="240.00" r="1.78" fill="#000" opacity="0.8" stroke="#fff" stroke-width="0.7"></circle></g><g class="key-ITF5_0"><circle cx="462.00" cy="250.00" r="1.78" fill="#000" opacity="0.8" stroke="#333" stroke-width="0.7"></circle></g><g class="key-ITF6_0"><circle cx="530.00" cy="286.00" r="1.78" fill="#000" opacity="0.8" stroke="#333" stroke-width="0.7"></circle></g><g class="key-ITG1_0"><circle cx="478.00" cy="302.00" r="1.78" fill="#000" opacity="0.8" stroke="#fff" stroke-width="0.7"></circle></g><g class="key-ITG2_0"><circle cx="404.00" cy="266.00" r="1.78" fill="#000" opacity="0.8" stroke="#333" stroke-width="0.7"></circle></g><g class="key-ITH1_0"><circle cx="322.00" cy="183.00" r="1.78" fill="#000" opacity="0.8" stroke="#fff" stroke-width="0.7"></circle></g><g class="key-ITH2_0"><circle cx="219.00" cy="240.00" r="1.78" fill="#000" opacity="0.8" stroke="#333" stroke-width="0.7"></circle></g><g class="key-ITH3_0"><circle cx="288.00" cy="240.00" r="1.78" fill="#000" opacity="0.8" stroke="#fff" stroke-width="0.7"></circle></g><g class="key-ITH4_0"><circle cx="269.00" cy="250.00" r="1.78" fill="#000" opacity="0.8" stroke="#fff" stroke-width="0.7"></circle></g><g class="key-ITH5_0"><circle cx="437.00" cy="250.00" r="1.78" fill="#000" opacity="0.8" stroke="#333" stroke-width="0.7"></circle></g><g class="key-ITI1_0"><circle cx="339.00" cy="235.00" r="1.78" fill="#000" opacity="0.8" stroke="#fff" stroke-width="0.7"></circle></g><g class="key-ITI2_0"><circle cx="382.00" cy="312.00" r="1.78" fill="#000" opacity="0.8" stroke="#333" stroke-width="0.7"></circle></g><g class="key-ITI3_0"><circle cx="367.00" cy="266.00" r="1.78" fill="#000" opacity="0.8" stroke="#fff" stroke-width="0.7"></circle></g><g class="key-ITI4_0"><circle cx="471.00" cy="260.00" r="1.78" fill="#000" opacity="0.8" stroke="#fff" stroke-width="0.7"></circle></g><g fill="#333" class="backgroundLabels"><text x="688.10" y="278.22" font-size="11.00">BE1</text><text x="170.00" y="196.22" font-size="11.00">BE2</text><text x="285.00" y="216.22" font-size="11.00">BE3</text><text x="344.00" y="232.22" font-size="11.00">CZ01</text><text x="252.00" y="211.22" font-size="11.00">CZ02</text><text x="172.00" y="144.22" font-size="11.00">CZ03</text><text x="427.00" y="206.22" font-size="11.00">CZ04</text><text x="169.00" y="160.22" font-size="11.00">CZ05</text><text x="135.00" y="165.22" font-size="11.00">CZ06</text><text x="225.00" y="117.70" font-size="11.00">CZ08</text><text x="590.00" y="117.70" font-size="11.00">EE00</text><text x="405.00" y="242.22" font-size="11.00">ES11</text><text x="266.00" y="247.22" font-size="11.00">ES12</text><text x="363.00" y="257.22" font-size="11.00">ES13</text><text x="337.00" y="216.22" font-size="11.00">ES22</text><text x="521.00" y="257.22" font-size="11.00">ES30</text><text x="467.00" y="196.22" font-size="11.00">ES41</text><text x="412.00" y="299.22" font-size="11.00">ES42</text><text x="590.00" y="263.22" font-size="11.00">ES43</text><text x="372.00" y="329.22" font-size="11.00">ES52</text><text x="490.00" y="293.22" font-size="11.00">ES53</text><text x="428.00" y="360.22" font-size="11.00">ES62</text><text x="687.94" y="309.22" font-size="11.00">ES63</text><text x="157.00" y="263.22" font-size="11.00">FI1B</text><text x="334.00" y="180.22" font-size="11.00">FI1C</text><text x="256.00" y="180.22" font-size="11.00">FI1D</text><text x="367.00" y="155.22" font-size="11.00">FR10</text><text x="322.00" y="263.22" font-size="11.00">FR21</text><text x="101.00" y="196.22" font-size="11.00">FR22</text><text x="247.00" y="165.22" font-size="11.00">FR23</text><text x="214.00" y="196.22" font-size="11.00">FR25</text><text x="172.00" y="221.22" font-size="11.00">FR26</text><text x="66.00" y="191.22" font-size="11.00">FR42</text><text x="159.00" y="180.22" font-size="11.00">FR53</text><text x="305.00" y="134.22" font-size="11.00">FR82</text><text x="371.00" y="117.70" font-size="11.00">FR83</text><text x="540.00" y="509.22" font-size="11.00">GR1</text><text x="574.00" y="499.22" font-size="11.00">GR2</text><text x="566.00" y="463.22" font-size="11.00">GR3</text><text x="528.00" y="489.22" font-size="11.00">GR4</text><text x="378.00" y="273.22" font-size="11.00">ITC3</text><text x="424.00" y="185.22" font-size="11.00">ITF1</text><text x="546.00" y="304.22" font-size="11.00">ITF3</text><text x="462.00" y="247.22" font-size="11.00">ITF5</text><text x="530.00" y="283.22" font-size="11.00">ITF6</text><text x="404.00" y="263.22" font-size="11.00">ITG2</text><text x="219.00" y="237.22" font-size="11.00">ITH2</text><text x="437.00" y="247.22" font-size="11.00">ITH5</text><text x="382.00" y="309.22" font-size="11.00">ITI2</text></g></g><g style="cursor: pointer;" class="ScatterColorLegend clickable"></g></g><g style="fill: #777;" class="SourcesFooter"><g style="fill: #777;" class="clickable"><text font-size="12.60" x="15.0" y="581.6"><tspan x="15" y="581.58">Source: OECD based on Royuela et al. (2014)</tspan></text></g><text font-size="12.60" x="543.7" y="581.6"><tspan x="543.688" y="581.58"><a target='_blank' style='fill: #777;' href='https://ourworldindata.org/income-inequality/'>OurWorldInData.org/income-inequality/</a> • <a style="fill: #777;" href="http://creativecommons.org/licenses/by-sa/4.0/deed.en_US" target="_blank">CC BY-SA</a></tspan></text></g></g></svg>