<svg xmlns="http://www.w3.org/2000/svg" version="1.1" style="font-family:Lato, &#x27;Helvetica Neue&#x27;, Helvetica, Arial, sans-serif;font-size:18px;background-color:white;text-rendering:optimizeLegibility;-webkit-font-smoothing:antialiased" width="850" height="600"><g class="HeaderView"><a href="https://ourworldindata.org/grapher/income-inequality-in-market-and-disposable-income-across-the-world" target="_blank"><text font-size="25.20" x="15.0" y="35.2" fill="#555"><tspan x="15" y="35.160000000000004">Income inequality in market and disposable income across the world</tspan></text></a><text font-size="14.40" x="15.0" y="53.7" fill="#666"><tspan x="15" y="53.72">Unit 5 &#x27;Property and power: Mutual gains and conflict’ Section 5.12 &#x27;Measuring economic inequality&#x27; in The CORE Team, The</tspan><tspan x="15" y="69.56">Economy. Available at: https://tinyco.re/0512166 [Figure 5.16]</tspan></text></g><g><g class="AxisBoxView"><g class="HorizontalAxis"><text font-size="12.60" x="332.7" y="554.0"><tspan x="332.744" y="553.98">Market Gini</tspan></text><text x="65.3" y="533.9" fill="#666" text-anchor="middle" font-size="16.2">0</text><text x="155.3" y="533.9" fill="#666" text-anchor="middle" font-size="16.2">0.1</text><text x="245.4" y="533.9" fill="#666" text-anchor="middle" font-size="16.2">0.2</text><text x="335.4" y="533.9" fill="#666" text-anchor="middle" font-size="16.2">0.3</text><text x="425.4" y="533.9" fill="#666" text-anchor="middle" font-size="16.2">0.4</text><text x="515.5" y="533.9" fill="#666" text-anchor="middle" font-size="16.2">0.5</text><text x="605.5" y="533.9" fill="#666" text-anchor="middle" font-size="16.2">0.6</text><text x="695.6" y="533.9" fill="#666" text-anchor="middle" font-size="16.2">0.7</text></g><g class="VerticalAxis"><text font-size="12.60" x="-367.5" y="25.1" transform="rotate(-90)"><tspan x="-367.52599999999995" y="25.080000000000002">Disposable Gini</tspan></text><text x="60.28" y="512.7" fill="#666" dominant-baseline="middle" text-anchor="end" font-size="16.2">0</text><text x="60.28" y="442.8" fill="#666" dominant-baseline="middle" text-anchor="end" font-size="16.2">0.1</text><text x="60.28" y="372.9" fill="#666" dominant-baseline="middle" text-anchor="end" font-size="16.2">0.2</text><text x="60.28" y="303" fill="#666" dominant-baseline="middle" text-anchor="end" font-size="16.2">0.3</text><text x="60.28" y="233.1" fill="#666" dominant-baseline="middle" text-anchor="end" font-size="16.2">0.4</text><text x="60.28" y="163.3" fill="#666" dominant-baseline="middle" text-anchor="end" font-size="16.2">0.5</text><text x="60.28" y="93.4" fill="#666" dominant-baseline="middle" text-anchor="end" font-size="16.2">0.6</text></g><g class="AxisGridLines"><line x1="65.28" y1="512.7" x2="715.00" y2="512.7" stroke="#ccc"></line><line x1="65.28" y1="442.8" x2="715.00" y2="442.8" stroke="#ddd" stroke-dasharray="3,2"></line><line x1="65.28" y1="372.9" x2="715.00" y2="372.9" stroke="#ddd" stroke-dasharray="3,2"></line><line x1="65.28" y1="303" x2="715.00" y2="303" stroke="#ddd" stroke-dasharray="3,2"></line><line x1="65.28" y1="233.1" x2="715.00" y2="233.1" stroke="#ddd" stroke-dasharray="3,2"></line><line x1="65.28" y1="163.3" x2="715.00" y2="163.3" stroke="#ddd" stroke-dasharray="3,2"></line><line x1="65.28" y1="93.4" x2="715.00" y2="93.4" stroke="#ddd" stroke-dasharray="3,2"></line></g><g class="AxisGridLines"><line x1="65.3" y1="512.70" x2="65.3" y2="90.10" stroke="#ccc"></line><line x1="155.3" y1="512.70" x2="155.3" y2="90.10" stroke="#ddd" stroke-dasharray="3,2"></line><line x1="245.4" y1="512.70" x2="245.4" y2="90.10" stroke="#ddd" stroke-dasharray="3,2"></line><line x1="335.4" y1="512.70" x2="335.4" y2="90.10" stroke="#ddd" stroke-dasharray="3,2"></line><line x1="425.4" y1="512.70" x2="425.4" y2="90.10" stroke="#ddd" stroke-dasharray="3,2"></line><line x1="515.5" y1="512.70" x2="515.5" y2="90.10" stroke="#ddd" stroke-dasharray="3,2"></line><line x1="605.5" y1="512.70" x2="605.5" y2="90.10" stroke="#ddd" stroke-dasharray="3,2"></line><line x1="695.6" y1="512.70" x2="695.6" y2="90.10" stroke="#ddd" stroke-dasharray="3,2"></line></g></g><g class="ComparisonLine"><defs><clipPath id="axisBounds-3"><rect x="65.28" y="90.1" width="649.72" height="422.59999999999997"></rect></clipPath></defs><path d="M65.3,512.7L71.8,507.7L78.3,502.6L84.8,497.6L91.3,492.5L97.8,487.5L104.3,482.4L110.8,477.4L117.3,472.4L123.8,467.3L130.3,462.3L136.7,457.2L143.2,452.2L149.7,447.1L156.2,442.1L162.7,437.1L169.2,432L175.7,427L182.2,421.9L188.7,416.9L195.2,411.8L201.7,406.8L208.2,401.8L214.7,396.7L221.2,391.7L227.7,386.6L234.2,381.6L240.7,376.5L247.2,371.5L253.7,366.5L260.2,361.4L266.7,356.4L273.2,351.3L279.7,346.3L286.2,341.2L292.7,336.2L299.2,331.2L305.7,326.1L312.2,321.1L318.7,316L325.2,311L331.7,305.9L338.2,300.9L344.7,295.9L351.2,290.8L357.7,285.8L364.2,280.7L370.6,275.7L377.1,270.6L383.6,265.6L390.1,260.5L396.6,255.5L403.1,250.5L409.6,245.4L416.1,240.4L422.6,235.3L429.1,230.3L435.6,225.2L442.1,220.2L448.6,215.2L455.1,210.1L461.6,205.1L468.1,200L474.6,195L481.1,189.9L487.6,184.9L494.1,179.9L500.6,174.8L507.1,169.8L513.6,164.7L520.1,159.7L526.6,154.6L533.1,149.6L539.6,144.6L546.1,139.5L552.6,134.5L559.1,129.4L565.6,124.4L572.1,119.3L578.6,114.3L585.1,109.3L591.6,104.2L598.1,99.2L604.5,94.1L611,89.1L617.5,84L624,79L630.5,74L637,68.9L643.5,63.9L650,58.8L656.5,53.8L663,48.7L669.5,43.7L676,38.7L682.5,33.6L689,28.6L695.5,23.5L702,18.5L708.5,13.4" clip-path="url(#axisBounds-3)" fill="none" stroke="#ccc"></path></g><g class="PointsWithLabels clickable" clip-path="url(#scatterBounds-4)" font-family="Arial, sans-serif"><rect x="65.28" y="90.1" width="649.72" height="422.59999999999997" fill="rgba(255,255,255,0)"></rect><defs><clipPath id="scatterBounds-4"><rect x="55.28" y="80.1" width="669.72" height="442.59999999999997"></rect></clipPath></defs><g class="key-Sweden_0"><circle cx="490.00" cy="347.00" r="1.78" fill="#ffd336" opacity="0.8" stroke="#333" stroke-width="0.7"></circle></g><g class="key-Norway_0"><circle cx="469.00" cy="342.00" r="1.78" fill="#ffd336" opacity="0.8" stroke="#fff" stroke-width="0.7"></circle></g><g class="key-Iceland_0"><circle cx="428.00" cy="341.00" r="1.78" fill="#ffd336" opacity="0.8" stroke="#333" stroke-width="0.7"></circle></g><g class="key-Denmark_0"><circle cx="488.00" cy="339.00" r="1.78" fill="#ffd336" opacity="0.8" stroke="#fff" stroke-width="0.7"></circle></g><g class="key-Slovenia_0"><circle cx="441.00" cy="336.00" r="1.78" fill="#ffd336" opacity="0.8" stroke="#fff" stroke-width="0.7"></circle></g><g class="key-Netherlands_0"><circle cx="484.00" cy="335.00" r="1.78" fill="#ffd336" opacity="0.8" stroke="#333" stroke-width="0.7"></circle></g><g class="key-Finland_0"><circle cx="501.00" cy="329.00" r="1.78" fill="#ffd336" opacity="0.8" stroke="#fff" stroke-width="0.7"></circle></g><g class="key-Austria_0"><circle cx="482.00" cy="325.00" r="1.78" fill="#ffd336" opacity="0.8" stroke="#fff" stroke-width="0.7"></circle></g><g class="key-Belgium_0"><circle cx="496.00" cy="315.00" r="1.78" fill="#ffd336" opacity="0.8" stroke="#333" stroke-width="0.7"></circle></g><g class="key-Germany_0"><circle cx="532.00" cy="312.00" r="1.78" fill="#ffd336" opacity="0.8" stroke="#fff" stroke-width="0.7"></circle></g><g class="key-France_0"><circle cx="520.00" cy="311.00" r="1.78" fill="#ffd336" opacity="0.8" stroke="#fff" stroke-width="0.7"></circle></g><g class="key-Switzerland_0"><circle cx="424.00" cy="309.00" r="1.78" fill="#ffd336" opacity="0.8" stroke="#333" stroke-width="0.7"></circle></g><g class="key-Hungary_0"><circle cx="620.00" cy="309.00" r="1.78" fill="#ffd336" opacity="0.8" stroke="#333" stroke-width="0.7"></circle></g><g class="key-Ireland_0"><circle cx="581.00" cy="307.00" r="1.78" fill="#ffd336" opacity="0.8" stroke="#333" stroke-width="0.7"></circle></g><g class="key-Japan_0"><circle cx="409.00" cy="301.00" r="1.78" fill="#d14e5b" opacity="0.8" stroke="#fff" stroke-width="0.7"></circle></g><g class="key-Poland_0"><circle cx="508.00" cy="297.00" r="1.78" fill="#ffd336" opacity="0.8" stroke="#333" stroke-width="0.7"></circle></g><g class="key-South-Korea_0"><circle cx="394.00" cy="296.00" r="1.78" fill="#d14e5b" opacity="0.8" stroke="#333" stroke-width="0.7"></circle></g><g class="key-Canada_0"><circle cx="503.00" cy="291.00" r="1.78" fill="#4d824b" opacity="0.8" stroke="#fff" stroke-width="0.7"></circle></g><g class="key-Taiwan_0"><circle cx="393.00" cy="290.00" r="1.78" fill="#d14e5b" opacity="0.8" stroke="#fff" stroke-width="0.7"></circle></g><g class="key-Greece_0"><circle cx="538.00" cy="285.00" r="1.78" fill="#ffd336" opacity="0.8" stroke="#333" stroke-width="0.7"></circle></g><g class="key-Italy_0"><circle cx="512.00" cy="284.00" r="1.78" fill="#ffd336" opacity="0.8" stroke="#333" stroke-width="0.7"></circle></g><g class="key-Spain_0"><circle cx="517.00" cy="283.00" r="1.78" fill="#ffd336" opacity="0.8" stroke="#fff" stroke-width="0.7"></circle></g><g class="key-Australia_0"><circle cx="503.00" cy="282.00" r="1.78" fill="#a652ba" opacity="0.8" stroke="#fff" stroke-width="0.7"></circle></g><g class="key-United-Kingdom_0"><circle cx="567.00" cy="278.00" r="1.78" fill="#ffd336" opacity="0.8" stroke="#fff" stroke-width="0.7"></circle></g><g class="key-Russia_0"><circle cx="505.00" cy="264.00" r="1.78" fill="#ffd336" opacity="0.8" stroke="#333" stroke-width="0.7"></circle></g><g class="key-Israel_0"><circle cx="533.00" cy="246.00" r="1.78" fill="#d14e5b" opacity="0.8" stroke="#333" stroke-width="0.7"></circle></g><g class="key-United-States_0"><circle cx="535.00" cy="240.00" r="1.78" fill="#4d824b" opacity="0.8" stroke="#fff" stroke-width="0.7"></circle></g><g class="key-Mexico_0"><circle cx="511.00" cy="207.00" r="1.78" fill="#4d824b" opacity="0.8" stroke="#333" stroke-width="0.7"></circle></g><g class="key-Uruguay_0"><circle cx="572.00" cy="200.00" r="1.78" fill="#69c487" opacity="0.8" stroke="#333" stroke-width="0.7"></circle></g><g class="key-Brazil_0"><circle cx="565.00" cy="189.00" r="1.78" fill="#69c487" opacity="0.8" stroke="#fff" stroke-width="0.7"></circle></g><g class="key-Egypt_0"><circle cx="540.00" cy="173.00" r="1.78" fill="#5675c1" opacity="0.8" stroke="#333" stroke-width="0.7"></circle></g><g class="key-Colombia_0"><circle cx="547.00" cy="167.00" r="1.78" fill="#69c487" opacity="0.8" stroke="#fff" stroke-width="0.7"></circle></g><g class="key-Guatemala_0"><circle cx="571.00" cy="162.00" r="1.78" fill="#4d824b" opacity="0.8" stroke="#333" stroke-width="0.7"></circle></g><g class="key-India_0"><circle cx="526.00" cy="162.00" r="1.78" fill="#d14e5b" opacity="0.8" stroke="#fff" stroke-width="0.7"></circle></g><g class="key-China_0"><circle cx="532.00" cy="158.00" r="1.78" fill="#d14e5b" opacity="0.8" stroke="#333" stroke-width="0.7"></circle></g><g class="key-Peru_0"><circle cx="550.00" cy="151.00" r="1.78" fill="#69c487" opacity="0.8" stroke="#fff" stroke-width="0.7"></circle></g><g class="key-South-Africa_0"><circle cx="715.00" cy="90.00" r="1.78" fill="#5675c1" opacity="0.8" stroke="#333" stroke-width="0.7"></circle></g><g class="backgroundLabels" fill="#333"><text x="490.00" y="344.22" font-size="11.00">Sweden</text><text x="428.00" y="338.22" font-size="11.00">Iceland</text><text x="484.00" y="332.22" font-size="11.00">Netherlands</text><text x="496.00" y="312.22" font-size="11.00">Belgium</text><text x="424.00" y="306.22" font-size="11.00">Switzerland</text><text x="620.00" y="306.22" font-size="11.00">Hungary</text><text x="581.00" y="304.22" font-size="11.00">Ireland</text><text x="508.00" y="294.22" font-size="11.00">Poland</text><text x="394.00" y="293.22" font-size="11.00">South Korea</text><text x="538.00" y="282.22" font-size="11.00">Greece</text><text x="512.00" y="281.22" font-size="11.00">Italy</text><text x="505.00" y="261.22" font-size="11.00">Russia</text><text x="533.00" y="243.22" font-size="11.00">Israel</text><text x="511.00" y="204.22" font-size="11.00">Mexico</text><text x="572.00" y="197.22" font-size="11.00">Uruguay</text><text x="540.00" y="170.22" font-size="11.00">Egypt</text><text x="571.00" y="159.22" font-size="11.00">Guatemala</text><text x="532.00" y="155.22" font-size="11.00">China</text><text x="654.83" y="101.10" font-size="11.00">South Africa</text></g></g><g class="ScatterColorLegend clickable" style="cursor:pointer"><g class="legendMark"><rect x="735" y="87.6" width="43.256" height="17.6" fill="#fff" opacity="0"></rect>,<rect x="735" y="93.1" width="6" height="6" fill="#5675c1"></rect>,<text font-size="12.60" x="746.0" y="100.2"><tspan x="746" y="100.17999999999999">Africa</tspan></text></g><g class="legendMark"><rect x="735" y="105.19999999999999" width="35.57" height="17.6" fill="#fff" opacity="0"></rect>,<rect x="735" y="110.69999999999999" width="6" height="6" fill="#d14e5b"></rect>,<text font-size="12.60" x="746.0" y="117.8"><tspan x="746" y="117.77999999999999">Asia</tspan></text></g><g class="legendMark"><rect x="735" y="122.8" width="51.824" height="17.6" fill="#fff" opacity="0"></rect>,<rect x="735" y="128.3" width="6" height="6" fill="#ffd336"></rect>,<text font-size="12.60" x="746.0" y="135.4"><tspan x="746" y="135.38">Europe</tspan></text></g><g class="legendMark"><rect x="735" y="140.4" width="91.64" height="17.6" fill="#fff" opacity="0"></rect>,<rect x="735" y="145.9" width="6" height="6" fill="#4d824b"></rect>,<text font-size="12.60" x="746.0" y="153.0"><tspan x="746" y="152.98">North America</tspan></text></g><g class="legendMark"><rect x="735" y="158" width="58.124" height="17.6" fill="#fff" opacity="0"></rect>,<rect x="735" y="163.5" width="6" height="6" fill="#a652ba"></rect>,<text font-size="12.60" x="746.0" y="170.6"><tspan x="746" y="170.57999999999998">Oceania</tspan></text></g><g class="legendMark"><rect x="735" y="175.6" width="93.908" height="17.6" fill="#fff" opacity="0"></rect>,<rect x="735" y="181.1" width="6" height="6" fill="#69c487"></rect>,<text font-size="12.60" x="746.0" y="188.2"><tspan x="746" y="188.17999999999998">South America</tspan></text></g></g></g><g class="SourcesFooter" style="fill:#777"><g class="clickable" style="fill:#777"><text font-size="12.60" x="15.0" y="581.6"><tspan x="15" y="581.58">Source:   Wang and Caminada (2011);  Solt (2016)</tspan></text></g><text font-size="12.60" x="546.0" y="581.6"><tspan x="545.956" y="581.58"><a target='_blank' style='fill: #777;' href='https://tinyco.re/0512166'>tinyco.re/0512166</a> • <a href="https://ourworldindata.org" target="_blank">Powered by ourworldindata.org</a></tspan></text></g></svg>