<svg xmlns="http://www.w3.org/2000/svg" version="1.1" style="font-family: 'Helvetica Neue', Helvetica, Arial, sans-serif; font-size: 18px; background-color: white; text-rendering: optimizeLegibility; -webkit-font-smoothing: antialiased;" width="850" height="600"><g class="ChartTab"><g class="HeaderView"><g opacity="0.8" transform="translate(778, 15) scale(0.27)"><a xmlns:xlink="http://www.w3.org/1999/xlink" xlink:href="https://ourworldindata.org" target="_blank"><g><rect x="0" y="0" fill="#1B2543" width="211.2" height="130.1"/><rect x="0" y="112.2" fill="#E63912" width="211.2" height="17.9"/><g><rect x="1.2" y="12.3" fill="none" width="210.2" height="99.2"/><path fill="#FFFFFF" d="M37.8,32.2c0,12.7-7.7,19.4-17.1,19.4c-9.7,0-16.6-7.5-16.6-18.7c0-11.7,7.3-19.3,17.1-19.3 C31.3,13.7,37.8,21.3,37.8,32.2z M9.2,32.8c0,7.9,4.3,14.9,11.8,14.9c7.5,0,11.8-6.9,11.8-15.3c0-7.3-3.8-14.9-11.8-14.9 C13.1,17.5,9.2,24.8,9.2,32.8z"/><path fill="#FFFFFF" d="M62.7,43.8c0,2.7,0.1,5.1,0.2,7.2h-4.3l-0.3-4.3h-0.1c-1.3,2.1-4,4.9-8.8,4.9c-4.2,0-9.1-2.3-9.1-11.6 V24.6h4.8v14.6c0,5,1.5,8.4,5.9,8.4c3.2,0,5.5-2.2,6.3-4.4c0.3-0.7,0.4-1.6,0.4-2.5V24.6h4.8V43.8z"/><path fill="#FFFFFF" d="M67.3,32.8c0-3.1-0.1-5.8-0.2-8.2h4.2l0.2,5.2h0.2c1.2-3.5,4.1-5.8,7.3-5.8c0.5,0,0.9,0.1,1.4,0.2v4.5 c-0.5-0.1-1-0.2-1.6-0.2c-3.4,0-5.8,2.6-6.5,6.2c-0.1,0.7-0.2,1.4-0.2,2.2V51h-4.8V32.8z"/><path fill="#FFFFFF" d="M95.4,51l-9.4-36.8h5l4.4,18.6c1.1,4.6,2.1,9.2,2.7,12.7h0.1c0.6-3.7,1.8-8,3-12.8l4.9-18.5h5l4.5,18.7 c1,4.4,2,8.7,2.6,12.6h0.1c0.8-4,1.8-8.1,3-12.7l4.9-18.5h4.9L120.6,51h-5L111,31.9c-1.1-4.7-1.9-8.3-2.4-12h-0.1 c-0.7,3.7-1.5,7.3-2.8,12L100.4,51H95.4z"/><path fill="#FFFFFF" d="M154.9,37.6c0,9.8-6.8,14-13.2,14c-7.2,0-12.7-5.2-12.7-13.6c0-8.8,5.8-14,13.1-14 C149.8,24,154.9,29.5,154.9,37.6z M133.9,37.9c0,5.8,3.3,10.1,8,10.1c4.6,0,8-4.3,8-10.3c0-4.5-2.2-10.1-7.9-10.1 C136.3,27.6,133.9,32.8,133.9,37.9z"/><path fill="#FFFFFF" d="M158.2,32.8c0-3.1-0.1-5.8-0.2-8.2h4.2l0.2,5.2h0.2c1.2-3.5,4.1-5.8,7.3-5.8c0.5,0,0.9,0.1,1.4,0.2v4.5 c-0.5-0.1-1-0.2-1.6-0.2c-3.4,0-5.8,2.6-6.5,6.2c-0.1,0.7-0.2,1.4-0.2,2.2V51h-4.8V32.8z"/><path fill="#FFFFFF" d="M173.5,12.3h4.8V51h-4.8V12.3z"/><path fill="#FFFFFF" d="M206.5,12.3v31.9c0,2.3,0.1,5,0.2,6.8h-4.3l-0.2-4.6H202c-1.5,2.9-4.7,5.2-9,5.2 c-6.4,0-11.3-5.4-11.3-13.4c-0.1-8.8,5.4-14.2,11.9-14.2c4,0,6.8,1.9,8,4h0.1V12.3H206.5z M201.7,35.4c0-0.6-0.1-1.4-0.2-2 c-0.7-3.1-3.3-5.6-6.9-5.6c-5,0-7.9,4.4-7.9,10.2c0,5.3,2.6,9.8,7.8,9.8c3.2,0,6.2-2.1,7.1-5.7c0.2-0.7,0.2-1.3,0.2-2.1V35.4z"/><path fill="#FFFFFF" d="M42.8,64c0.1,1.6-1.1,2.9-3.1,2.9c-1.7,0-2.9-1.3-2.9-2.9c0-1.7,1.3-3,3-3C41.7,61,42.8,62.3,42.8,64z M37.4,97.8V71.4h4.8v26.4H37.4z"/><path fill="#FFFFFF" d="M47.5,78.6c0-2.7-0.1-5-0.2-7.1h4.3l0.3,4.4h0.1c1.3-2.5,4.4-5,8.8-5c3.7,0,9.4,2.2,9.4,11.2v15.8h-4.8 V82.6c0-4.3-1.6-7.8-6.1-7.8c-3.2,0-5.6,2.2-6.5,4.9c-0.2,0.6-0.3,1.4-0.3,2.2v15.9h-4.8V78.6z"/><path fill="#FFFFFF" d="M84,61.6c2.9-0.4,6.3-0.8,10.1-0.8c6.8,0,11.7,1.6,14.9,4.6c3.3,3,5.2,7.3,5.2,13.2c0,6-1.9,10.9-5.3,14.3 c-3.4,3.4-9.1,5.3-16.3,5.3c-3.4,0-6.2-0.2-8.6-0.4V61.6z M88.8,94.1c1.2,0.2,3,0.3,4.8,0.3c10.2,0,15.7-5.7,15.7-15.6 c0.1-8.7-4.9-14.2-14.9-14.2c-2.5,0-4.3,0.2-5.6,0.5V94.1z"/><path fill="#FFFFFF" d="M132.1,97.8l-0.4-3.3h-0.2c-1.5,2.1-4.3,3.9-8.1,3.9c-5.4,0-8.1-3.8-8.1-7.6c0-6.4,5.7-9.9,15.9-9.8v-0.5 c0-2.2-0.6-6.1-6-6.1c-2.5,0-5,0.8-6.9,2l-1.1-3.2c2.2-1.4,5.4-2.3,8.7-2.3c8.1,0,10.1,5.5,10.1,10.8v9.9c0,2.3,0.1,4.5,0.4,6.3 H132.1z M131.4,84.4c-5.3-0.1-11.2,0.8-11.2,5.9c0,3.1,2.1,4.6,4.5,4.6c3.4,0,5.6-2.2,6.4-4.4c0.2-0.5,0.3-1,0.3-1.5V84.4z"/><path fill="#FFFFFF" d="M146.6,63.9v7.6h6.9v3.7h-6.9v14.2c0,3.3,0.9,5.1,3.6,5.1c1.3,0,2.2-0.2,2.8-0.3l0.2,3.6 c-0.9,0.4-2.4,0.7-4.3,0.7c-2.2,0-4-0.7-5.2-2c-1.4-1.4-1.9-3.8-1.9-6.9V75.1h-4.1v-3.7h4.1v-6.3L146.6,63.9z"/><path fill="#FFFFFF" d="M171.4,97.8l-0.4-3.3h-0.2c-1.5,2.1-4.3,3.9-8.1,3.9c-5.4,0-8.1-3.8-8.1-7.6c0-6.4,5.7-9.9,15.9-9.8v-0.5 c0-2.2-0.6-6.1-6-6.1c-2.5,0-5,0.8-6.9,2l-1.1-3.2c2.2-1.4,5.4-2.3,8.7-2.3c8.1,0,10.1,5.5,10.1,10.8v9.9c0,2.3,0.1,4.5,0.4,6.3 H171.4z M170.7,84.4c-5.3-0.1-11.2,0.8-11.2,5.9c0,3.1,2.1,4.6,4.5,4.6c3.4,0,5.6-2.2,6.4-4.4c0.2-0.5,0.3-1,0.3-1.5V84.4z"/></g></g></a></g><a href="https://ourworldindata.org/grapher/increase-in-life-expectancy-by-month" target="_blank"><text font-size="25.20" x="15.0" y="35.2" fill="#555"><tspan x="15" y="35.160000000000004">Increase in life expectancy by months per year</tspan></text></a><text font-size="14.40" x="15.0" y="53.7" fill="#666"><tspan x="15" y="53.72">Measures the increase in life expectancy by months per year, calculated over five year intervals. </tspan></text></g><g class="LineChart"><defs><clipPath id="boundsClip-1709"><rect x="85.97800000000001" y="0" width="830" height="959.8"></rect></clipPath></defs><g class="AxisBoxView"><g class="HorizontalAxis"><text x="96" y="556.5" fill="#666" text-anchor="middle" font-size="16.2">1955</text><text x="149.8" y="556.5" fill="#666" text-anchor="middle" font-size="16.2">1960</text><text x="257.4" y="556.5" fill="#666" text-anchor="middle" font-size="16.2">1970</text><text x="365" y="556.5" fill="#666" text-anchor="middle" font-size="16.2">1980</text><text x="472.6" y="556.5" fill="#666" text-anchor="middle" font-size="16.2">1990</text><text x="580.2" y="556.5" fill="#666" text-anchor="middle" font-size="16.2">2000</text><text x="687.8" y="556.5" fill="#666" text-anchor="middle" font-size="16.2">2010</text><text x="741.6" y="556.5" fill="#666" text-anchor="middle" font-size="16.2">2015</text></g><g class="VerticalAxis"><text x="90.98" y="535.3" fill="#666" dominant-baseline="middle" text-anchor="end" font-size="16.2">0 months</text><text x="90.98" y="455.7" fill="#666" dominant-baseline="middle" text-anchor="end" font-size="16.2">2 months</text><text x="90.98" y="376.1" fill="#666" dominant-baseline="middle" text-anchor="end" font-size="16.2">4 months</text><text x="90.98" y="296.4" fill="#666" dominant-baseline="middle" text-anchor="end" font-size="16.2">6 months</text><text x="90.98" y="216.8" fill="#666" dominant-baseline="middle" text-anchor="end" font-size="16.2">8 months</text><text x="90.98" y="137.2" fill="#666" dominant-baseline="middle" text-anchor="end" font-size="16.2">10 months</text></g><g class="AxisGridLines"><line x1="95.98" y1="535.3" x2="741.60" y2="535.3" stroke="#ccc"></line><line x1="95.98" y1="455.7" x2="741.60" y2="455.7" stroke="#ddd" stroke-dasharray="3,2"></line><line x1="95.98" y1="376.1" x2="741.60" y2="376.1" stroke="#ddd" stroke-dasharray="3,2"></line><line x1="95.98" y1="296.4" x2="741.60" y2="296.4" stroke="#ddd" stroke-dasharray="3,2"></line><line x1="95.98" y1="216.8" x2="741.60" y2="216.8" stroke="#ddd" stroke-dasharray="3,2"></line><line x1="95.98" y1="137.2" x2="741.60" y2="137.2" stroke="#ddd" stroke-dasharray="3,2"></line></g></g><g clip-path="url(#boundsClip-1709)"><g class="HeightedLegend clickable"><g class="legendMark"><rect x="751.6" y="426.3" width="45.528000000000006" height="14.4" fill="#fff" opacity="0"></rect><rect x="751.6" y="432.25" width="10" height="2.5" fill="#a652ba"></rect><text font-size="14.40" x="766.6" y="437.8" fill="#333"><tspan x="766.6" y="437.82">Peru</tspan></text></g><g class="legendMark"><rect x="751.6" y="440.7" width="68.85600000000001" height="14.4" fill="#fff" opacity="0"></rect><rect x="751.6" y="446.65" width="10" height="2.5" fill="#f6a324"></rect><text font-size="14.40" x="766.6" y="452.2" fill="#333"><tspan x="766.6" y="452.21999999999997">Ecuador</tspan></text></g><g class="legendMark"><rect x="751.6" y="455.09999999999997" width="75.912" height="14.4" fill="#fff" opacity="0"></rect><rect x="751.6" y="461.04999999999995" width="10" height="2.5" fill="#34983f"></rect><text font-size="14.40" x="766.6" y="466.6" fill="#333"><tspan x="766.6" y="466.61999999999995">Colombia</tspan></text></g><g class="legendMark"><rect x="751.6" y="469.49999999999994" width="47.832" height="14.4" fill="#fff" opacity="0"></rect><rect x="751.6" y="475.44999999999993" width="10" height="2.5" fill="#ca2628"></rect><text font-size="14.40" x="766.6" y="481.0" fill="#333"><tspan x="766.6" y="481.0199999999999">Chile</tspan></text></g><g class="legendMark"><rect x="751.6" y="483.8999999999999" width="83.4" height="14.4" fill="#fff" opacity="0"></rect><rect x="751.6" y="489.8499999999999" width="10" height="2.5" fill="#3360a9"></rect><text font-size="14.40" x="766.6" y="495.4" fill="#333"><tspan x="766.6" y="495.4199999999999">Venezuela</tspan></text></g></g><g class="Lines"><rect x="96" y="77" width="646" height="459" fill="rgba(255,255,255,0)" opacity="0"></rect><g class="key-Venezuela_0"><path stroke="#3360a9" stroke-linecap="round" d="M96 284L150 254L204 271L257 292L311 338L365 394L419 438L473 471L526 431L580 403L634 454L688 488L742 464" fill="none" stroke-width="1.5"></path><g fill="#3360a9"><circle cx="96" cy="284" r="2"></circle><circle cx="150" cy="254" r="2"></circle><circle cx="204" cy="271" r="2"></circle><circle cx="257" cy="292" r="2"></circle><circle cx="311" cy="338" r="2"></circle><circle cx="365" cy="394" r="2"></circle><circle cx="419" cy="438" r="2"></circle><circle cx="473" cy="471" r="2"></circle><circle cx="526" cy="431" r="2"></circle><circle cx="580" cy="403" r="2"></circle><circle cx="634" cy="454" r="2"></circle><circle cx="688" cy="488" r="2"></circle><circle cx="742" cy="464" r="2"></circle></g></g><g class="key-Peru_0"><path stroke="#a652ba" stroke-linecap="round" d="M96 355L150 278L204 295L257 226L311 187L365 252L419 259L473 289L526 298L580 298L634 348L688 420L742 434" fill="none" stroke-width="1.5"></path><g fill="#a652ba"><circle cx="96" cy="355" r="2"></circle><circle cx="150" cy="278" r="2"></circle><circle cx="204" cy="295" r="2"></circle><circle cx="257" cy="226" r="2"></circle><circle cx="311" cy="187" r="2"></circle><circle cx="365" cy="252" r="2"></circle><circle cx="419" cy="259" r="2"></circle><circle cx="473" cy="289" r="2"></circle><circle cx="526" cy="298" r="2"></circle><circle cx="580" cy="298" r="2"></circle><circle cx="634" cy="348" r="2"></circle><circle cx="688" cy="420" r="2"></circle><circle cx="742" cy="434" r="2"></circle></g></g><g class="key-Ecuador_0"><path stroke="#f6a324" stroke-linecap="round" d="M96 297L150 233L204 287L257 350L311 302L365 261L419 246L473 262L526 323L580 371L634 420L688 448L742 434" fill="none" stroke-width="1.5"></path><g fill="#f6a324"><circle cx="96" cy="297" r="2"></circle><circle cx="150" cy="233" r="2"></circle><circle cx="204" cy="287" r="2"></circle><circle cx="257" cy="350" r="2"></circle><circle cx="311" cy="302" r="2"></circle><circle cx="365" cy="261" r="2"></circle><circle cx="419" cy="246" r="2"></circle><circle cx="473" cy="262" r="2"></circle><circle cx="526" cy="323" r="2"></circle><circle cx="580" cy="371" r="2"></circle><circle cx="634" cy="420" r="2"></circle><circle cx="688" cy="448" r="2"></circle><circle cx="742" cy="434" r="2"></circle></g></g><g class="key-Chile_0"><path stroke="#ca2628" stroke-linecap="round" d="M96 393L150 362L204 326L257 265L311 216L365 209L419 281L473 350L526 374L580 400L634 440L688 472L742 453" fill="none" stroke-width="1.5"></path><g fill="#ca2628"><circle cx="96" cy="393" r="2"></circle><circle cx="150" cy="362" r="2"></circle><circle cx="204" cy="326" r="2"></circle><circle cx="257" cy="265" r="2"></circle><circle cx="311" cy="216" r="2"></circle><circle cx="365" cy="209" r="2"></circle><circle cx="419" cy="281" r="2"></circle><circle cx="473" cy="350" r="2"></circle><circle cx="526" cy="374" r="2"></circle><circle cx="580" cy="400" r="2"></circle><circle cx="634" cy="440" r="2"></circle><circle cx="688" cy="472" r="2"></circle><circle cx="742" cy="453" r="2"></circle></g></g><g class="key-Colombia_0"><path stroke="#34983f" stroke-linecap="round" d="M96 77L150 195L204 311L257 362L311 356L365 276L419 336L473 468L526 427L580 383L634 413L688 438L742 452" fill="none" stroke-width="1.5"></path><g fill="#34983f"><circle cx="96" cy="77" r="2"></circle><circle cx="150" cy="195" r="2"></circle><circle cx="204" cy="311" r="2"></circle><circle cx="257" cy="362" r="2"></circle><circle cx="311" cy="356" r="2"></circle><circle cx="365" cy="276" r="2"></circle><circle cx="419" cy="336" r="2"></circle><circle cx="473" cy="468" r="2"></circle><circle cx="526" cy="427" r="2"></circle><circle cx="580" cy="383" r="2"></circle><circle cx="634" cy="413" r="2"></circle><circle cx="688" cy="438" r="2"></circle><circle cx="742" cy="452" r="2"></circle></g></g></g></g></g><g style="fill: #777;" class="SourcesFooter"><g style="fill: #777;" class="clickable"><text font-size="12.60" x="15.0" y="581.6"><tspan x="15" y="581.58">Source: OWID calculations based on UN Population Division (2017 Revision)</tspan></text></g><text font-size="12.60" x="649.0" y="581.6"><tspan x="649.024" y="581.58"><a target='_blank' style='fill: #777;' href='https://ourworldindata.org'>OurWorldInData.org</a> • <a style="fill: #777;" href="http://creativecommons.org/licenses/by-sa/4.0/deed.en_US" target="_blank">CC BY-SA</a></tspan></text></g></g></svg>