<svg xmlns="http://www.w3.org/2000/svg" version="1.1" style="font-family: 'Helvetica Neue', Helvetica, Arial, sans-serif; font-size: 18px; background-color: white; text-rendering: optimizeLegibility; -webkit-font-smoothing: antialiased;" width="850" height="600"><g class="ChartTab"><g class="HeaderView"><g opacity="0.8" transform="translate(778, 15) scale(0.27)"><a xmlns:xlink="http://www.w3.org/1999/xlink" xlink:href="https://ourworldindata.org" target="_blank"><g><rect x="0" y="0" fill="#1B2543" width="211.2" height="130.1"/><rect x="0" y="112.2" fill="#E63912" width="211.2" height="17.9"/><g><rect x="1.2" y="12.3" fill="none" width="210.2" height="99.2"/><path fill="#FFFFFF" d="M37.8,32.2c0,12.7-7.7,19.4-17.1,19.4c-9.7,0-16.6-7.5-16.6-18.7c0-11.7,7.3-19.3,17.1-19.3 C31.3,13.7,37.8,21.3,37.8,32.2z M9.2,32.8c0,7.9,4.3,14.9,11.8,14.9c7.5,0,11.8-6.9,11.8-15.3c0-7.3-3.8-14.9-11.8-14.9 C13.1,17.5,9.2,24.8,9.2,32.8z"/><path fill="#FFFFFF" d="M62.7,43.8c0,2.7,0.1,5.1,0.2,7.2h-4.3l-0.3-4.3h-0.1c-1.3,2.1-4,4.9-8.8,4.9c-4.2,0-9.1-2.3-9.1-11.6 V24.6h4.8v14.6c0,5,1.5,8.4,5.9,8.4c3.2,0,5.5-2.2,6.3-4.4c0.3-0.7,0.4-1.6,0.4-2.5V24.6h4.8V43.8z"/><path fill="#FFFFFF" d="M67.3,32.8c0-3.1-0.1-5.8-0.2-8.2h4.2l0.2,5.2h0.2c1.2-3.5,4.1-5.8,7.3-5.8c0.5,0,0.9,0.1,1.4,0.2v4.5 c-0.5-0.1-1-0.2-1.6-0.2c-3.4,0-5.8,2.6-6.5,6.2c-0.1,0.7-0.2,1.4-0.2,2.2V51h-4.8V32.8z"/><path fill="#FFFFFF" d="M95.4,51l-9.4-36.8h5l4.4,18.6c1.1,4.6,2.1,9.2,2.7,12.7h0.1c0.6-3.7,1.8-8,3-12.8l4.9-18.5h5l4.5,18.7 c1,4.4,2,8.7,2.6,12.6h0.1c0.8-4,1.8-8.1,3-12.7l4.9-18.5h4.9L120.6,51h-5L111,31.9c-1.1-4.7-1.9-8.3-2.4-12h-0.1 c-0.7,3.7-1.5,7.3-2.8,12L100.4,51H95.4z"/><path fill="#FFFFFF" d="M154.9,37.6c0,9.8-6.8,14-13.2,14c-7.2,0-12.7-5.2-12.7-13.6c0-8.8,5.8-14,13.1-14 C149.8,24,154.9,29.5,154.9,37.6z M133.9,37.9c0,5.8,3.3,10.1,8,10.1c4.6,0,8-4.3,8-10.3c0-4.5-2.2-10.1-7.9-10.1 C136.3,27.6,133.9,32.8,133.9,37.9z"/><path fill="#FFFFFF" d="M158.2,32.8c0-3.1-0.1-5.8-0.2-8.2h4.2l0.2,5.2h0.2c1.2-3.5,4.1-5.8,7.3-5.8c0.5,0,0.9,0.1,1.4,0.2v4.5 c-0.5-0.1-1-0.2-1.6-0.2c-3.4,0-5.8,2.6-6.5,6.2c-0.1,0.7-0.2,1.4-0.2,2.2V51h-4.8V32.8z"/><path fill="#FFFFFF" d="M173.5,12.3h4.8V51h-4.8V12.3z"/><path fill="#FFFFFF" d="M206.5,12.3v31.9c0,2.3,0.1,5,0.2,6.8h-4.3l-0.2-4.6H202c-1.5,2.9-4.7,5.2-9,5.2 c-6.4,0-11.3-5.4-11.3-13.4c-0.1-8.8,5.4-14.2,11.9-14.2c4,0,6.8,1.9,8,4h0.1V12.3H206.5z M201.7,35.4c0-0.6-0.1-1.4-0.2-2 c-0.7-3.1-3.3-5.6-6.9-5.6c-5,0-7.9,4.4-7.9,10.2c0,5.3,2.6,9.8,7.8,9.8c3.2,0,6.2-2.1,7.1-5.7c0.2-0.7,0.2-1.3,0.2-2.1V35.4z"/><path fill="#FFFFFF" d="M42.8,64c0.1,1.6-1.1,2.9-3.1,2.9c-1.7,0-2.9-1.3-2.9-2.9c0-1.7,1.3-3,3-3C41.7,61,42.8,62.3,42.8,64z M37.4,97.8V71.4h4.8v26.4H37.4z"/><path fill="#FFFFFF" d="M47.5,78.6c0-2.7-0.1-5-0.2-7.1h4.3l0.3,4.4h0.1c1.3-2.5,4.4-5,8.8-5c3.7,0,9.4,2.2,9.4,11.2v15.8h-4.8 V82.6c0-4.3-1.6-7.8-6.1-7.8c-3.2,0-5.6,2.2-6.5,4.9c-0.2,0.6-0.3,1.4-0.3,2.2v15.9h-4.8V78.6z"/><path fill="#FFFFFF" d="M84,61.6c2.9-0.4,6.3-0.8,10.1-0.8c6.8,0,11.7,1.6,14.9,4.6c3.3,3,5.2,7.3,5.2,13.2c0,6-1.9,10.9-5.3,14.3 c-3.4,3.4-9.1,5.3-16.3,5.3c-3.4,0-6.2-0.2-8.6-0.4V61.6z M88.8,94.1c1.2,0.2,3,0.3,4.8,0.3c10.2,0,15.7-5.7,15.7-15.6 c0.1-8.7-4.9-14.2-14.9-14.2c-2.5,0-4.3,0.2-5.6,0.5V94.1z"/><path fill="#FFFFFF" d="M132.1,97.8l-0.4-3.3h-0.2c-1.5,2.1-4.3,3.9-8.1,3.9c-5.4,0-8.1-3.8-8.1-7.6c0-6.4,5.7-9.9,15.9-9.8v-0.5 c0-2.2-0.6-6.1-6-6.1c-2.5,0-5,0.8-6.9,2l-1.1-3.2c2.2-1.4,5.4-2.3,8.7-2.3c8.1,0,10.1,5.5,10.1,10.8v9.9c0,2.3,0.1,4.5,0.4,6.3 H132.1z M131.4,84.4c-5.3-0.1-11.2,0.8-11.2,5.9c0,3.1,2.1,4.6,4.5,4.6c3.4,0,5.6-2.2,6.4-4.4c0.2-0.5,0.3-1,0.3-1.5V84.4z"/><path fill="#FFFFFF" d="M146.6,63.9v7.6h6.9v3.7h-6.9v14.2c0,3.3,0.9,5.1,3.6,5.1c1.3,0,2.2-0.2,2.8-0.3l0.2,3.6 c-0.9,0.4-2.4,0.7-4.3,0.7c-2.2,0-4-0.7-5.2-2c-1.4-1.4-1.9-3.8-1.9-6.9V75.1h-4.1v-3.7h4.1v-6.3L146.6,63.9z"/><path fill="#FFFFFF" d="M171.4,97.8l-0.4-3.3h-0.2c-1.5,2.1-4.3,3.9-8.1,3.9c-5.4,0-8.1-3.8-8.1-7.6c0-6.4,5.7-9.9,15.9-9.8v-0.5 c0-2.2-0.6-6.1-6-6.1c-2.5,0-5,0.8-6.9,2l-1.1-3.2c2.2-1.4,5.4-2.3,8.7-2.3c8.1,0,10.1,5.5,10.1,10.8v9.9c0,2.3,0.1,4.5,0.4,6.3 H171.4z M170.7,84.4c-5.3-0.1-11.2,0.8-11.2,5.9c0,3.1,2.1,4.6,4.5,4.6c3.4,0,5.6-2.2,6.4-4.4c0.2-0.5,0.3-1,0.3-1.5V84.4z"/></g></g></a></g><a href="https://ourworldindata.org/grapher/inequality-of-life-as-measured-by-mortality-gini-coefficient-1742-2002" target="_blank"><text font-size="24.30" x="15.0" y="34.4" fill="#555"><tspan x="15" y="34.44">Inequality of life as measured by mortality Gini coefficient, 1742-2002</tspan></text></a></g><g class="LineChart"><defs><clipPath id="boundsClip-1737"><rect x="32.68" y="0" width="830" height="973"></rect></clipPath></defs><g class="AxisBoxView"><g class="HorizontalAxis"><text x="42.7" y="556.5" fill="#666" text-anchor="middle" font-size="16.2">1742</text><text x="185.9" y="556.5" fill="#666" text-anchor="middle" font-size="16.2">1800</text><text x="309.3" y="556.5" fill="#666" text-anchor="middle" font-size="16.2">1850</text><text x="432.8" y="556.5" fill="#666" text-anchor="middle" font-size="16.2">1900</text><text x="556.2" y="556.5" fill="#666" text-anchor="middle" font-size="16.2">1950</text><text x="684.6" y="556.5" fill="#666" text-anchor="middle" font-size="16.2">2002</text></g><g class="VerticalAxis"><text x="37.68" y="535.3" fill="#666" dominant-baseline="middle" text-anchor="end" font-size="16.2">0</text><text x="37.68" y="455" fill="#666" dominant-baseline="middle" text-anchor="end" font-size="16.2">0.1</text><text x="37.68" y="374.8" fill="#666" dominant-baseline="middle" text-anchor="end" font-size="16.2">0.2</text><text x="37.68" y="294.5" fill="#666" dominant-baseline="middle" text-anchor="end" font-size="16.2">0.3</text><text x="37.68" y="214.3" fill="#666" dominant-baseline="middle" text-anchor="end" font-size="16.2">0.4</text><text x="37.68" y="134" fill="#666" dominant-baseline="middle" text-anchor="end" font-size="16.2">0.5</text></g><g class="AxisGridLines"><line x1="42.68" y1="535.3" x2="684.58" y2="535.3" stroke="#ccc"></line><line x1="42.68" y1="455" x2="684.58" y2="455" stroke="#ddd" stroke-dasharray="3,2"></line><line x1="42.68" y1="374.8" x2="684.58" y2="374.8" stroke="#ddd" stroke-dasharray="3,2"></line><line x1="42.68" y1="294.5" x2="684.58" y2="294.5" stroke="#ddd" stroke-dasharray="3,2"></line><line x1="42.68" y1="214.3" x2="684.58" y2="214.3" stroke="#ddd" stroke-dasharray="3,2"></line><line x1="42.68" y1="134" x2="684.58" y2="134" stroke="#ddd" stroke-dasharray="3,2"></line></g></g><g clip-path="url(#boundsClip-1737)"><g class="HeightedLegend clickable"><g class="legendMark"><rect x="694.576" y="394.6" width="59.06400000000001" height="14.4" fill="#fff" opacity="0"></rect><rect x="694.576" y="400.55" width="10" height="2.5" fill="#a652ba"></rect><text font-size="14.40" x="709.6" y="406.1" fill="#333"><tspan x="709.576" y="406.12">Russia</tspan></text></g><g class="legendMark"><rect x="694.576" y="441" width="101.83200000000001" height="14.4" fill="#fff" opacity="0"></rect><rect x="694.576" y="446.95" width="10" height="2.5" fill="#f6a324"></rect><text font-size="14.40" x="709.6" y="452.5" fill="#333"><tspan x="709.576" y="452.52">United States</tspan></text></g><g class="legendMark"><rect x="694.576" y="455.4" width="74.328" height="14.4" fill="#fff" opacity="0"></rect><rect x="694.576" y="461.34999999999997" width="10" height="2.5" fill="#34983f"></rect><text font-size="14.40" x="709.6" y="466.9" fill="#333"><tspan x="709.576" y="466.91999999999996">Germany</tspan></text></g><g class="legendMark"><rect x="694.576" y="469.79999999999995" width="140.42400000000004" height="14.4" fill="#fff" opacity="0"></rect><rect x="694.576" y="475.74999999999994" width="10" height="2.5" fill="#DC143C"></rect><text font-size="14.40" x="709.6" y="481.3" fill="#333"><tspan x="709.576" y="481.31999999999994">England and Wales</tspan></text></g><g class="legendMark"><rect x="694.576" y="484.19999999999993" width="67.272" height="14.4" fill="#fff" opacity="0"></rect><rect x="694.576" y="490.1499999999999" width="10" height="2.5" fill="#66CD00"></rect><text font-size="14.40" x="709.6" y="495.7" fill="#333"><tspan x="709.576" y="495.7199999999999">Sweden</tspan></text></g></g><g class="Lines"><rect x="43" y="70" width="642" height="465" fill="rgba(255,255,255,0)" opacity="0"></rect><g class="key-England-and-Wales_0"><path stroke="#DC143C" stroke-linecap="round" d="M290 186L302 170L314 180L327 183L339 187L351 187L364 196L376 211L388 221L401 232L413 230L425 232L438 252L450 279L462 293L475 251L487 336L499 349L512 363L524 379L536 369L549 401L561 429L574 436L586 438L598 440L611 442L623 446L635 450L648 453L660 456L672 458L685 460" fill="none" stroke-width="1.5"></path><g fill="#DC143C"><circle cx="290" cy="186" r="2"></circle><circle cx="302" cy="170" r="2"></circle><circle cx="314" cy="180" r="2"></circle><circle cx="327" cy="183" r="2"></circle><circle cx="339" cy="187" r="2"></circle><circle cx="351" cy="187" r="2"></circle><circle cx="364" cy="196" r="2"></circle><circle cx="376" cy="211" r="2"></circle><circle cx="388" cy="221" r="2"></circle><circle cx="401" cy="232" r="2"></circle><circle cx="413" cy="230" r="2"></circle><circle cx="425" cy="232" r="2"></circle><circle cx="438" cy="252" r="2"></circle><circle cx="450" cy="279" r="2"></circle><circle cx="462" cy="293" r="2"></circle><circle cx="475" cy="251" r="2"></circle><circle cx="487" cy="336" r="2"></circle><circle cx="499" cy="349" r="2"></circle><circle cx="512" cy="363" r="2"></circle><circle cx="524" cy="379" r="2"></circle><circle cx="536" cy="369" r="2"></circle><circle cx="549" cy="401" r="2"></circle><circle cx="561" cy="429" r="2"></circle><circle cx="574" cy="436" r="2"></circle><circle cx="586" cy="438" r="2"></circle><circle cx="598" cy="440" r="2"></circle><circle cx="611" cy="442" r="2"></circle><circle cx="623" cy="446" r="2"></circle><circle cx="635" cy="450" r="2"></circle><circle cx="648" cy="453" r="2"></circle><circle cx="660" cy="456" r="2"></circle><circle cx="672" cy="458" r="2"></circle><circle cx="685" cy="460" r="2"></circle></g></g><g class="key-United-States_0"><path stroke="#f6a324" stroke-linecap="round" d="M314 153L327 171L339 189L351 198L364 207L376 184L388 161L401 194L413 228L425 247L438 266L450 277L462 300L475 300L487 337L499 350L512 363L524 375L536 392L549 407L561 417L574 422L586 424L598 425L611 428L623 434L635 440L648 441L660 443L672 447L685 448" fill="none" stroke-width="1.5"></path><g fill="#f6a324"><circle cx="314" cy="153" r="2"></circle><circle cx="327" cy="171" r="2"></circle><circle cx="339" cy="189" r="2"></circle><circle cx="351" cy="198" r="2"></circle><circle cx="364" cy="207" r="2"></circle><circle cx="376" cy="184" r="2"></circle><circle cx="388" cy="161" r="2"></circle><circle cx="401" cy="194" r="2"></circle><circle cx="413" cy="228" r="2"></circle><circle cx="425" cy="247" r="2"></circle><circle cx="438" cy="266" r="2"></circle><circle cx="450" cy="277" r="2"></circle><circle cx="462" cy="300" r="2"></circle><circle cx="475" cy="300" r="2"></circle><circle cx="487" cy="337" r="2"></circle><circle cx="499" cy="350" r="2"></circle><circle cx="512" cy="363" r="2"></circle><circle cx="524" cy="375" r="2"></circle><circle cx="536" cy="392" r="2"></circle><circle cx="549" cy="407" r="2"></circle><circle cx="561" cy="417" r="2"></circle><circle cx="574" cy="422" r="2"></circle><circle cx="586" cy="424" r="2"></circle><circle cx="598" cy="425" r="2"></circle><circle cx="611" cy="428" r="2"></circle><circle cx="623" cy="434" r="2"></circle><circle cx="635" cy="440" r="2"></circle><circle cx="648" cy="441" r="2"></circle><circle cx="660" cy="443" r="2"></circle><circle cx="672" cy="447" r="2"></circle><circle cx="685" cy="448" r="2"></circle></g></g><g class="key-Russia_0"><path stroke="#a652ba" stroke-linecap="round" d="M425 70L438 78L450 141L462 140L475 116L487 138L499 186L512 194L524 201L536 228L549 304L561 356L574 394L586 403L598 413L611 410L623 406L635 409L648 417L660 412L672 407L685 402" fill="none" stroke-width="1.5"></path><g fill="#a652ba"><circle cx="425" cy="70" r="2"></circle><circle cx="438" cy="78" r="2"></circle><circle cx="450" cy="141" r="2"></circle><circle cx="462" cy="140" r="2"></circle><circle cx="475" cy="116" r="2"></circle><circle cx="487" cy="138" r="2"></circle><circle cx="499" cy="186" r="2"></circle><circle cx="512" cy="194" r="2"></circle><circle cx="524" cy="201" r="2"></circle><circle cx="536" cy="228" r="2"></circle><circle cx="549" cy="304" r="2"></circle><circle cx="561" cy="356" r="2"></circle><circle cx="574" cy="394" r="2"></circle><circle cx="586" cy="403" r="2"></circle><circle cx="598" cy="413" r="2"></circle><circle cx="611" cy="410" r="2"></circle><circle cx="623" cy="406" r="2"></circle><circle cx="635" cy="409" r="2"></circle><circle cx="648" cy="417" r="2"></circle><circle cx="660" cy="412" r="2"></circle><circle cx="672" cy="407" r="2"></circle><circle cx="685" cy="402" r="2"></circle></g></g><g class="key-Sweden_0"><path stroke="#66CD00" stroke-linecap="round" d="M70 132L80 124L92 118L104 128L117 89L129 134L141 135L154 134L166 155L179 163L191 152L203 129L216 139L228 175L240 199L253 191L265 189L277 204L290 215L302 213L314 208L327 187L339 221L351 212L364 239L376 220L388 242L401 264L413 266L425 283L438 290L450 313L462 327L475 312L487 352L499 364L512 378L524 392L536 409L549 425L561 440L574 445L586 448L598 450L611 451L623 453L635 456L648 458L660 461L672 465L685 468" fill="none" stroke-width="1.5"></path><g fill="#66CD00"><circle cx="70" cy="132" r="2"></circle><circle cx="80" cy="124" r="2"></circle><circle cx="92" cy="118" r="2"></circle><circle cx="104" cy="128" r="2"></circle><circle cx="117" cy="89" r="2"></circle><circle cx="129" cy="134" r="2"></circle><circle cx="141" cy="135" r="2"></circle><circle cx="154" cy="134" r="2"></circle><circle cx="166" cy="155" r="2"></circle><circle cx="179" cy="163" r="2"></circle><circle cx="191" cy="152" r="2"></circle><circle cx="203" cy="129" r="2"></circle><circle cx="216" cy="139" r="2"></circle><circle cx="228" cy="175" r="2"></circle><circle cx="240" cy="199" r="2"></circle><circle cx="253" cy="191" r="2"></circle><circle cx="265" cy="189" r="2"></circle><circle cx="277" cy="204" r="2"></circle><circle cx="290" cy="215" r="2"></circle><circle cx="302" cy="213" r="2"></circle><circle cx="314" cy="208" r="2"></circle><circle cx="327" cy="187" r="2"></circle><circle cx="339" cy="221" r="2"></circle><circle cx="351" cy="212" r="2"></circle><circle cx="364" cy="239" r="2"></circle><circle cx="376" cy="220" r="2"></circle><circle cx="388" cy="242" r="2"></circle><circle cx="401" cy="264" r="2"></circle><circle cx="413" cy="266" r="2"></circle><circle cx="425" cy="283" r="2"></circle><circle cx="438" cy="290" r="2"></circle><circle cx="450" cy="313" r="2"></circle><circle cx="462" cy="327" r="2"></circle><circle cx="475" cy="312" r="2"></circle><circle cx="487" cy="352" r="2"></circle><circle cx="499" cy="364" r="2"></circle><circle cx="512" cy="378" r="2"></circle><circle cx="524" cy="392" r="2"></circle><circle cx="536" cy="409" r="2"></circle><circle cx="549" cy="425" r="2"></circle><circle cx="561" cy="440" r="2"></circle><circle cx="574" cy="445" r="2"></circle><circle cx="586" cy="448" r="2"></circle><circle cx="598" cy="450" r="2"></circle><circle cx="611" cy="451" r="2"></circle><circle cx="623" cy="453" r="2"></circle><circle cx="635" cy="456" r="2"></circle><circle cx="648" cy="458" r="2"></circle><circle cx="660" cy="461" r="2"></circle><circle cx="672" cy="465" r="2"></circle><circle cx="685" cy="468" r="2"></circle></g></g><g class="key-Germany_0"><path stroke="#34983f" stroke-linecap="round" d="M43 155L70 155L80 148L92 141L104 151L117 161L129 159L141 158L154 147L166 137L179 158L191 180L203 179L216 178L228 191L240 203L253 192L265 181L277 189L290 197L302 186L314 176L327 142L339 170L351 159L364 135L376 135L388 149L401 149L413 181L425 181L438 224L450 224L462 251L475 206L487 309L499 328L512 363L524 372L536 328L549 375L561 409L574 417L586 429L598 438L611 443L623 445L635 448L648 450L660 448L672 453L685 460" fill="none" stroke-width="1.5"></path><g fill="#34983f"><circle cx="43" cy="155" r="2"></circle><circle cx="70" cy="155" r="2"></circle><circle cx="80" cy="148" r="2"></circle><circle cx="92" cy="141" r="2"></circle><circle cx="104" cy="151" r="2"></circle><circle cx="117" cy="161" r="2"></circle><circle cx="129" cy="159" r="2"></circle><circle cx="141" cy="158" r="2"></circle><circle cx="154" cy="147" r="2"></circle><circle cx="166" cy="137" r="2"></circle><circle cx="179" cy="158" r="2"></circle><circle cx="191" cy="180" r="2"></circle><circle cx="203" cy="179" r="2"></circle><circle cx="216" cy="178" r="2"></circle><circle cx="228" cy="191" r="2"></circle><circle cx="240" cy="203" r="2"></circle><circle cx="253" cy="192" r="2"></circle><circle cx="265" cy="181" r="2"></circle><circle cx="277" cy="189" r="2"></circle><circle cx="290" cy="197" r="2"></circle><circle cx="302" cy="186" r="2"></circle><circle cx="314" cy="176" r="2"></circle><circle cx="327" cy="142" r="2"></circle><circle cx="339" cy="170" r="2"></circle><circle cx="351" cy="159" r="2"></circle><circle cx="364" cy="135" r="2"></circle><circle cx="376" cy="135" r="2"></circle><circle cx="388" cy="149" r="2"></circle><circle cx="401" cy="149" r="2"></circle><circle cx="413" cy="181" r="2"></circle><circle cx="425" cy="181" r="2"></circle><circle cx="438" cy="224" r="2"></circle><circle cx="450" cy="224" r="2"></circle><circle cx="462" cy="251" r="2"></circle><circle cx="475" cy="206" r="2"></circle><circle cx="487" cy="309" r="2"></circle><circle cx="499" cy="328" r="2"></circle><circle cx="512" cy="363" r="2"></circle><circle cx="524" cy="372" r="2"></circle><circle cx="536" cy="328" r="2"></circle><circle cx="549" cy="375" r="2"></circle><circle cx="561" cy="409" r="2"></circle><circle cx="574" cy="417" r="2"></circle><circle cx="586" cy="429" r="2"></circle><circle cx="598" cy="438" r="2"></circle><circle cx="611" cy="443" r="2"></circle><circle cx="623" cy="445" r="2"></circle><circle cx="635" cy="448" r="2"></circle><circle cx="648" cy="450" r="2"></circle><circle cx="660" cy="448" r="2"></circle><circle cx="672" cy="453" r="2"></circle><circle cx="685" cy="460" r="2"></circle></g></g></g></g></g><g style="fill: #777;" class="SourcesFooter"><g style="fill: #777;" class="clickable"><text font-size="12.60" x="15.0" y="581.6"><tspan x="15" y="581.58">Source: Sam Peltzman (2009)</tspan></text></g><text font-size="12.60" x="575.2" y="581.6"><tspan x="575.188" y="581.58"><a target='_blank' style='fill: #777;' href='https://ourworldindata.org/health-meta/'>OurWorldInData.org/health-meta/</a> • <a style="fill: #777;" href="http://creativecommons.org/licenses/by-sa/4.0/deed.en_US" target="_blank">CC BY-SA</a></tspan></text></g></g></svg>