<svg xmlns="http://www.w3.org/2000/svg" version="1.1" style="font-family:&#x27;Helvetica Neue&#x27;, Helvetica, Arial, sans-serif;font-size:18px;background-color:white;text-rendering:optimizeLegibility;-webkit-font-smoothing:antialiased" width="850" height="600"><g class="ChartTab"><g class="HeaderView"><a href="https://ourworldindata.org/grapher/inflation-and-presidential-election-victory-in-the-us" target="_blank"><text font-size="25.20" x="15.0" y="35.2" fill="#555"><tspan x="15" y="35.160000000000004">Inflation and presidential election victory in the US (1912–2012)</tspan></text></a><text font-size="14.40" x="15.0" y="53.7" fill="#666"><tspan x="15" y="53.72">Unit 15 &#x27;Inflation, unemployment and monetary policy’ in The CORE Team, The Economy. Available at:</tspan><tspan x="15" y="69.56">https://tinyco.re/1500011 [Figure 15.1]</tspan></text></g><g><g class="AxisBoxView"><g class="HorizontalAxis"><text font-size="12.60" x="310.2" y="554.0"><tspan x="310.19" y="553.98">Annual inflation (%)</tspan></text><text x="141" y="533.9" fill="#666" text-anchor="middle" font-size="16.2">2</text><text x="224" y="533.9" fill="#666" text-anchor="middle" font-size="16.2">4</text><text x="307" y="533.9" fill="#666" text-anchor="middle" font-size="16.2">6</text><text x="390" y="533.9" fill="#666" text-anchor="middle" font-size="16.2">8</text><text x="473" y="533.9" fill="#666" text-anchor="middle" font-size="16.2">10</text><text x="556" y="533.9" fill="#666" text-anchor="middle" font-size="16.2">12</text><text x="639" y="533.9" fill="#666" text-anchor="middle" font-size="16.2">14</text></g><g class="VerticalAxis"><text font-size="12.60" x="-459.6" y="25.1" transform="rotate(-90)"><tspan x="-459.5609999999999" y="25.080000000000002">Ruling party margin of victory (+) or defeat (-), %</tspan></text><text x="61.09" y="456.6" fill="#666" dominant-baseline="middle" text-anchor="end" font-size="16.2">-10</text><text x="61.09" y="384.3" fill="#666" dominant-baseline="middle" text-anchor="end" font-size="16.2">-5</text><text x="61.09" y="312" fill="#666" dominant-baseline="middle" text-anchor="end" font-size="16.2">0</text><text x="61.09" y="239.7" fill="#666" dominant-baseline="middle" text-anchor="end" font-size="16.2">5</text><text x="61.09" y="167.4" fill="#666" dominant-baseline="middle" text-anchor="end" font-size="16.2">10</text><text x="61.09" y="95.1" fill="#666" dominant-baseline="middle" text-anchor="end" font-size="16.2">15</text></g><g class="AxisGridLines"><line x1="66.09" y1="456.6" x2="715.00" y2="456.6" stroke="#ddd" stroke-dasharray="3,2"></line><line x1="66.09" y1="384.3" x2="715.00" y2="384.3" stroke="#ddd" stroke-dasharray="3,2"></line><line x1="66.09" y1="312" x2="715.00" y2="312" stroke="#ccc"></line><line x1="66.09" y1="239.7" x2="715.00" y2="239.7" stroke="#ddd" stroke-dasharray="3,2"></line><line x1="66.09" y1="167.4" x2="715.00" y2="167.4" stroke="#ddd" stroke-dasharray="3,2"></line><line x1="66.09" y1="95.1" x2="715.00" y2="95.1" stroke="#ddd" stroke-dasharray="3,2"></line></g><g class="AxisGridLines"><line x1="141" y1="512.70" x2="141" y2="92.10" stroke="#ddd" stroke-dasharray="3,2"></line><line x1="224" y1="512.70" x2="224" y2="92.10" stroke="#ddd" stroke-dasharray="3,2"></line><line x1="307" y1="512.70" x2="307" y2="92.10" stroke="#ddd" stroke-dasharray="3,2"></line><line x1="390" y1="512.70" x2="390" y2="92.10" stroke="#ddd" stroke-dasharray="3,2"></line><line x1="473" y1="512.70" x2="473" y2="92.10" stroke="#ddd" stroke-dasharray="3,2"></line><line x1="556" y1="512.70" x2="556" y2="92.10" stroke="#ddd" stroke-dasharray="3,2"></line><line x1="639" y1="512.70" x2="639" y2="92.10" stroke="#ddd" stroke-dasharray="3,2"></line></g></g><g class="PointsWithLabels clickable" clip-path="url(#scatterBounds-1)" font-family="Arial Narrow, Arial, sans-serif"><rect x="66.09" y="92.1" width="648.91" height="420.59999999999997" fill="rgba(255,255,255,0)"></rect><defs><clipPath id="scatterBounds-1"><rect x="56.09" y="82.1" width="668.91" height="440.59999999999997"></rect></clipPath></defs><g class="backgroundLabels" fill="#aaa"></g><g class="key-United-States_0"><defs><marker id="key-United-States_0-arrow-1" fill="#4d824b" viewBox="0 -5 10 10" refX="5" refY="0" markerWidth="4" markerHeight="4" orient="auto"><path d="M0,-5L10,0L0,5"></path></marker><marker id="key-United-States_0-circle-1" viewBox="0 0 12 12" refX="4" refY="4" orient="auto" fill="#4d824b"><circle cx="4" cy="4" r="4"></circle></marker></defs><polyline stroke-linecap="round" stroke="rgba(0,0,0,0)" points="206.00,462.00 372.00,288.00 715.00,512.00 66.00,92.00 98.00,131.00 97.00,239.00 130.00,259.00 380.00,277.00 153.00,390.00 121.00,199.00 118.00,313.00 111.00,148.00 235.00,317.00 193.00,141.00 296.00,327.00 620.00,388.00 236.00,179.00 227.00,255.00 183.00,362.00 179.00,244.00 198.00,308.00 169.00,291.00 217.00,366.00 143.00,284.00" fill="none" stroke-width="2.0892062058076384" opacity="1" marker-start="url(#key-United-States_0-circle-1)" marker-mid="url(#key-United-States_0-circle-1)" marker-end="url(#key-United-States_0-circle-1)"></polyline></g><text x="184.39" y="470.12" font-size="9" font-family="Arial Narrow, Arial, sans-serif" fill="#333">1912</text><text x="372.00" y="288.00" font-size="9" font-family="Arial Narrow, Arial, sans-serif" fill="#333">1916</text><text x="676.19" y="512.70" font-size="9" font-family="Arial Narrow, Arial, sans-serif" fill="#333">1920</text><text x="68.70" y="101.10" font-size="9" font-family="Arial Narrow, Arial, sans-serif" fill="#333">1924</text><text x="100.63" y="126.75" font-size="9" font-family="Arial Narrow, Arial, sans-serif" fill="#333">1936</text><text x="73.95" y="244.53" font-size="9" font-family="Arial Narrow, Arial, sans-serif" fill="#333">1940</text><text x="134.85" y="257.79" font-size="9" font-family="Arial Narrow, Arial, sans-serif" fill="#333">1944</text><text x="129.92" y="395.36" font-size="9" font-family="Arial Narrow, Arial, sans-serif" fill="#333">1952</text><text x="122.44" y="194.21" font-size="9" font-family="Arial Narrow, Arial, sans-serif" fill="#333">1956</text><text x="122.55" y="310.93" font-size="9" font-family="Arial Narrow, Arial, sans-serif" fill="#333">1960</text><text x="115.91" y="147.04" font-size="9" font-family="Arial Narrow, Arial, sans-serif" fill="#333">1964</text><text x="235.17" y="312.00" font-size="9" font-family="Arial Narrow, Arial, sans-serif" fill="#333">1968</text><text x="193.43" y="150.48" font-size="9" font-family="Arial Narrow, Arial, sans-serif" fill="#333">1972</text><text x="296.81" y="322.07" font-size="9" font-family="Arial Narrow, Arial, sans-serif" fill="#333">1976</text><text x="599.34" y="396.83" font-size="9" font-family="Arial Narrow, Arial, sans-serif" fill="#333">1980</text><text x="240.63" y="177.12" font-size="9" font-family="Arial Narrow, Arial, sans-serif" fill="#333">1984</text><text x="228.60" y="250.26" font-size="9" font-family="Arial Narrow, Arial, sans-serif" fill="#333">1988</text><text x="160.04" y="360.61" font-size="9" font-family="Arial Narrow, Arial, sans-serif" fill="#333">1992</text><text x="180.12" y="239.13" font-size="9" font-family="Arial Narrow, Arial, sans-serif" fill="#333">1996</text><text x="175.02" y="306.66" font-size="9" font-family="Arial Narrow, Arial, sans-serif" fill="#333">2000</text><text x="173.89" y="296.54" font-size="9" font-family="Arial Narrow, Arial, sans-serif" fill="#333">2004</text><text x="194.09" y="372.06" font-size="9" font-family="Arial Narrow, Arial, sans-serif" fill="#333">2008</text><text x="85.38" y="280.29" font-size="9" font-family="Arial Narrow, Arial, sans-serif" fill="#333">2012</text></g><g class="ScatterColorLegend clickable" style="cursor:pointer"><g class="legendMark"><rect x="735" y="89.6" width="91.64" height="17.6" fill="#fff" opacity="0"></rect>,<rect x="735" y="95.1" width="6" height="6" fill="#4d824b"></rect>,<text font-size="12.60" x="746.0" y="102.2" style="font-weight:bold"><tspan x="746" y="102.17999999999999">North America</tspan></text></g></g><line x1="735" y1="111.69999999999999" x2="830" y2="111.69999999999999" stroke="#ccc"></line><g class="clickable"><g class="ConnectedScatterLegend"><rect x="735" y="120.69999999999999" width="100" height="12.6" fill="#fff" opacity="0"></rect><text font-size="12.60" x="735.0" y="130.8" fill="#333"><tspan x="735" y="130.77999999999997">1912</tspan></text><text font-size="12.60" x="806.8" y="130.8" fill="#333"><tspan x="806.776" y="130.77999999999997">2012</tspan></text><line x1="768.224" y1="126.49999999999999" x2="801.776" y2="126.49999999999999" stroke="#666" stroke-width="1"></line><circle cx="768.224" cy="126.49999999999999" r="2" fill="#666" stroke="#ccc" stroke-width="0.2"></circle><circle cx="779.408" cy="126.49999999999999" r="2" fill="#666" stroke="#ccc" stroke-width="0.2"></circle><circle cx="790.592" cy="126.49999999999999" r="2" fill="#666" stroke="#ccc" stroke-width="0.2"></circle><polygon points="798.78,131.50 801.78,123.50 804.78,129.50" cx="801.776" cy="126.49999999999999" r="3" fill="#666" stroke="#ccc" stroke-width="0.2" transform="rotate(90, 801.776, 126.49999999999999)"></polygon></g></g><g class="scatterTooltip"><text font-size="13.50" x="735.0" y="154.1"><tspan x="735" y="154.1">United States</tspan></text><text font-size="11.70" x="735.0" y="171.2"><tspan x="735" y="171.15999999999997">1912</tspan></text><text font-size="9.90" x="735.0" y="181.4"><tspan x="735" y="181.42000000000002">Y Axis: -10.44</tspan></text><text font-size="9.90" x="735.0" y="191.3"><tspan x="735" y="191.32">X Axis: 3.57</tspan></text><text font-size="11.70" x="735.0" y="207.7"><tspan x="735" y="207.65999999999997">2012</tspan></text><text font-size="9.90" x="735.0" y="217.9"><tspan x="735" y="217.92000000000002">Y Axis: 1.93</tspan></text><text font-size="9.90" x="735.0" y="227.8"><tspan x="735" y="227.82">X Axis: 2.07</tspan></text></g></g><g class="SourcesFooter" style="fill:#777"><g class="clickable" style="fill:#777"><text font-size="12.60" x="15.0" y="581.6"><tspan x="15" y="581.58">Source: Bordo, Eichengreen, Klingebiel and Martinez-Peria (2001); FRED (2015); US National Archives (2012)</tspan></text></g><text font-size="12.60" x="775.4" y="581.6"><tspan x="775.402" y="581.58"><a style="fill: #777;" class="cclogo" href="http://creativecommons.org/licenses/by-sa/4.0/deed.en_US" target="_blank">CC BY-SA</a></tspan></text></g></g></svg>