<svg xmlns="http://www.w3.org/2000/svg" version="1.1" style="font-family:&#x27;Helvetica Neue&#x27;, Helvetica, Arial, sans-serif;font-size:18px;background-color:white;text-rendering:optimizeLegibility;-webkit-font-smoothing:antialiased" width="850" height="600"><g class="ChartTab"><g class="HeaderView"><a href="https://ourworldindata.org/grapher/inflation-levels-and-volatility-in-high--and-low-income-economies-1960-2017" target="_blank"><text font-size="23.40" x="15.0" y="33.7" fill="#555"><tspan x="15" y="33.72">Inflation levels and volatility in high- and low-income economies (1960-2017)</tspan></text></a><text font-size="14.40" x="15.0" y="51.9" fill="#666"><tspan x="15" y="51.919999999999995">Unit 13 &#x27;Economic fluctuations and unemployment’ Section 13.8 &#x27;Measuring the economy: Inflation&#x27; in The CORE Team, The</tspan><tspan x="15" y="67.75999999999999">Economy. Available at: https://tinyco.re/1308211 [Figure 13.21]</tspan></text></g><g class="LineChart"><defs><clipPath id="boundsClip-1"><rect x="42.562" y="0" width="830" height="932.4000000000001"></rect></clipPath></defs><g class="AxisBoxView"><g class="HorizontalAxis"><text x="52.6" y="556.5" fill="#666" text-anchor="middle" font-size="16.2">1960</text><text x="147.1" y="556.5" fill="#666" text-anchor="middle" font-size="16.2">1970</text><text x="241.6" y="556.5" fill="#666" text-anchor="middle" font-size="16.2">1980</text><text x="336.2" y="556.5" fill="#666" text-anchor="middle" font-size="16.2">1990</text><text x="430.7" y="556.5" fill="#666" text-anchor="middle" font-size="16.2">2000</text><text x="525.2" y="556.5" fill="#666" text-anchor="middle" font-size="16.2">2010</text><text x="591.4" y="556.5" fill="#666" text-anchor="middle" font-size="16.2">2017</text></g><g class="VerticalAxis"><text x="47.56" y="521.3" fill="#666" dominant-baseline="middle" text-anchor="end" font-size="16.2">0%</text><text x="47.56" y="442.8" fill="#666" dominant-baseline="middle" text-anchor="end" font-size="16.2">5%</text><text x="47.56" y="364.3" fill="#666" dominant-baseline="middle" text-anchor="end" font-size="16.2">10%</text><text x="47.56" y="285.8" fill="#666" dominant-baseline="middle" text-anchor="end" font-size="16.2">15%</text><text x="47.56" y="207.3" fill="#666" dominant-baseline="middle" text-anchor="end" font-size="16.2">20%</text><text x="47.56" y="128.7" fill="#666" dominant-baseline="middle" text-anchor="end" font-size="16.2">25%</text></g><g class="AxisGridLines"><line x1="52.56" y1="521.3" x2="591.42" y2="521.3" stroke="#ccc"></line><line x1="52.56" y1="442.8" x2="591.42" y2="442.8" stroke="#ddd" stroke-dasharray="3,2"></line><line x1="52.56" y1="364.3" x2="591.42" y2="364.3" stroke="#ddd" stroke-dasharray="3,2"></line><line x1="52.56" y1="285.8" x2="591.42" y2="285.8" stroke="#ddd" stroke-dasharray="3,2"></line><line x1="52.56" y1="207.3" x2="591.42" y2="207.3" stroke="#ddd" stroke-dasharray="3,2"></line><line x1="52.56" y1="128.7" x2="591.42" y2="128.7" stroke="#ddd" stroke-dasharray="3,2"></line></g></g><g clip-path="url(#boundsClip-1)"><g class="HeightedLegend clickable"><g class="legendMark"><g class="indicator"><line x1="596.425" y1="496.2" x2="618.925" y2="496.2" stroke="#666" stroke-width="0.5"></line><line x1="618.925" y1="496.2" x2="618.925" y2="496.2" stroke="#666" stroke-width="0.5"></line><line x1="618.925" y1="496.2" x2="621.425" y2="496.2" stroke="#666" stroke-width="0.5"></line></g><rect x="591.425" y="489.45" width="193.76000000000002" height="13.5" fill="#fff" opacity="0"></rect><text font-size="13.50" x="626.4" y="500.3" fill="#7ec7ce"><tspan x="626.425" y="500.25">Middle East &amp; North Africa</tspan></text></g><g class="legendMark"><g class="indicator"><line x1="596.425" y1="492.7" x2="615.5916666666666" y2="492.7" stroke="#666" stroke-width="0.5"></line><line x1="615.5916666666666" y1="492.7" x2="615.5916666666666" y2="480.7" stroke="#666" stroke-width="0.5"></line><line x1="615.5916666666666" y1="480.7" x2="621.425" y2="480.7" stroke="#666" stroke-width="0.5"></line></g><rect x="591.425" y="473.95" width="134.09" height="13.5" fill="#fff" opacity="0"></rect><text font-size="13.50" x="626.4" y="484.8" fill="#000"><tspan x="626.425" y="484.75">OECD members</tspan></text></g><g class="legendMark"><g class="indicator"><line x1="596.425" y1="480.2" x2="612.2583333333333" y2="480.2" stroke="#666" stroke-width="0.5"></line><line x1="612.2583333333333" y1="480.2" x2="612.2583333333333" y2="465.2" stroke="#666" stroke-width="0.5"></line><line x1="612.2583333333333" y1="465.2" x2="621.425" y2="465.2" stroke="#666" stroke-width="0.5"></line></g><rect x="591.425" y="458.45" width="196.865" height="13.5" fill="#fff" opacity="0"></rect><text font-size="13.50" x="626.4" y="469.3" fill="#34983f"><tspan x="626.425" y="469.25">Latin America &amp; Caribbean</tspan></text></g><g class="legendMark"><g class="indicator"><line x1="596.425" y1="476.2" x2="608.925" y2="476.2" stroke="#666" stroke-width="0.5"></line><line x1="608.925" y1="476.2" x2="608.925" y2="442.4" stroke="#666" stroke-width="0.5"></line><line x1="608.925" y1="442.4" x2="621.425" y2="442.4" stroke="#666" stroke-width="0.5"></line></g><rect x="591.425" y="428.34999999999997" width="243.57500000000002" height="28.1" fill="#fff" opacity="0"></rect><text font-size="13.50" x="626.4" y="439.1" fill="#a652ba"><tspan x="626.425" y="439.15">East Asia &amp; Pacific (excluding high</tspan><tspan x="626.425" y="454">income)</tspan></text></g><g class="legendMark"><g class="indicator"><line x1="596.425" y1="460.7" x2="605.5916666666666" y2="460.7" stroke="#666" stroke-width="0.5"></line><line x1="605.5916666666666" y1="460.7" x2="605.5916666666666" y2="419.59999999999997" stroke="#666" stroke-width="0.5"></line><line x1="605.5916666666666" y1="419.59999999999997" x2="621.425" y2="419.59999999999997" stroke="#666" stroke-width="0.5"></line></g><rect x="591.425" y="412.84999999999997" width="100.61" height="13.5" fill="#fff" opacity="0"></rect><text font-size="13.50" x="626.4" y="423.6" fill="#ed6c2d"><tspan x="626.425" y="423.65">South Asia</tspan></text></g><g class="legendMark"><g class="indicator"><line x1="596.425" y1="437.8" x2="602.2583333333333" y2="437.8" stroke="#666" stroke-width="0.5"></line><line x1="602.2583333333333" y1="437.8" x2="602.2583333333333" y2="404.09999999999997" stroke="#666" stroke-width="0.5"></line><line x1="602.2583333333333" y1="404.09999999999997" x2="621.425" y2="404.09999999999997" stroke="#666" stroke-width="0.5"></line></g><rect x="591.425" y="397.34999999999997" width="153.26" height="13.5" fill="#fff" opacity="0"></rect><text font-size="13.50" x="626.4" y="408.1" fill="#ffd53e"><tspan x="626.425" y="408.15">Sub-Saharan Africa</tspan></text></g></g><g class="Lines"><rect x="53" y="90" width="539" height="445" fill="rgba(255,255,255,0)" opacity="0"></rect><g class="key-East-Asia-__0026-Pacific-__0028excluding-high-income__0029_0"><path stroke="#a652ba" stroke-linecap="round" d="M308 440L317 375L327 420L336 393L346 412L355 403L365 431L374 401L383 430L393 407L402 433L412 386L421 454L431 487L440 454L450 471L459 463L469 455L478 436L487 445L497 446L506 361L516 455L525 464L535 437L544 474L554 476L563 472L573 502L582 490L591 476" fill="none" stroke-width="1.5"></path><g fill="#a652ba"><circle cx="308" cy="440" r="2"></circle><circle cx="317" cy="375" r="2"></circle><circle cx="327" cy="420" r="2"></circle><circle cx="336" cy="393" r="2"></circle><circle cx="346" cy="412" r="2"></circle><circle cx="355" cy="403" r="2"></circle><circle cx="365" cy="431" r="2"></circle><circle cx="374" cy="401" r="2"></circle><circle cx="383" cy="430" r="2"></circle><circle cx="393" cy="407" r="2"></circle><circle cx="402" cy="433" r="2"></circle><circle cx="412" cy="386" r="2"></circle><circle cx="421" cy="454" r="2"></circle><circle cx="431" cy="487" r="2"></circle><circle cx="440" cy="454" r="2"></circle><circle cx="450" cy="471" r="2"></circle><circle cx="459" cy="463" r="2"></circle><circle cx="469" cy="455" r="2"></circle><circle cx="478" cy="436" r="2"></circle><circle cx="487" cy="445" r="2"></circle><circle cx="497" cy="446" r="2"></circle><circle cx="506" cy="361" r="2"></circle><circle cx="516" cy="455" r="2"></circle><circle cx="525" cy="464" r="2"></circle><circle cx="535" cy="437" r="2"></circle><circle cx="544" cy="474" r="2"></circle><circle cx="554" cy="476" r="2"></circle><circle cx="563" cy="472" r="2"></circle><circle cx="573" cy="502" r="2"></circle><circle cx="582" cy="490" r="2"></circle><circle cx="591" cy="476" r="2"></circle></g></g><g class="key-Latin-America-__0026-Caribbean_0"><path stroke="#34983f" stroke-linecap="round" d="M119 474L128 457L138 480L147 448L157 446L166 417L176 308L185 152L194 258L204 368L213 354L223 360L232 290L242 240L251 296L261 399L270 360L280 341L289 318L298 368L308 340L317 396L327 342L336 184L346 182L355 354L365 360L374 369L383 361L393 406L402 412L412 441L421 467L431 449L440 453L450 462L459 462L469 453L478 448L487 455L497 449L506 394L516 482L525 467L535 443L544 462L554 482L563 471L573 488L582 494L591 480" fill="none" stroke-width="1.5"></path><g fill="#34983f"><circle cx="119" cy="474" r="2"></circle><circle cx="128" cy="457" r="2"></circle><circle cx="138" cy="480" r="2"></circle><circle cx="147" cy="448" r="2"></circle><circle cx="157" cy="446" r="2"></circle><circle cx="166" cy="417" r="2"></circle><circle cx="176" cy="308" r="2"></circle><circle cx="185" cy="152" r="2"></circle><circle cx="194" cy="258" r="2"></circle><circle cx="204" cy="368" r="2"></circle><circle cx="213" cy="354" r="2"></circle><circle cx="223" cy="360" r="2"></circle><circle cx="232" cy="290" r="2"></circle><circle cx="242" cy="240" r="2"></circle><circle cx="251" cy="296" r="2"></circle><circle cx="261" cy="399" r="2"></circle><circle cx="270" cy="360" r="2"></circle><circle cx="280" cy="341" r="2"></circle><circle cx="289" cy="318" r="2"></circle><circle cx="298" cy="368" r="2"></circle><circle cx="308" cy="340" r="2"></circle><circle cx="317" cy="396" r="2"></circle><circle cx="327" cy="342" r="2"></circle><circle cx="336" cy="184" r="2"></circle><circle cx="346" cy="182" r="2"></circle><circle cx="355" cy="354" r="2"></circle><circle cx="365" cy="360" r="2"></circle><circle cx="374" cy="369" r="2"></circle><circle cx="383" cy="361" r="2"></circle><circle cx="393" cy="406" r="2"></circle><circle cx="402" cy="412" r="2"></circle><circle cx="412" cy="441" r="2"></circle><circle cx="421" cy="467" r="2"></circle><circle cx="431" cy="449" r="2"></circle><circle cx="440" cy="453" r="2"></circle><circle cx="450" cy="462" r="2"></circle><circle cx="459" cy="462" r="2"></circle><circle cx="469" cy="453" r="2"></circle><circle cx="478" cy="448" r="2"></circle><circle cx="487" cy="455" r="2"></circle><circle cx="497" cy="449" r="2"></circle><circle cx="506" cy="394" r="2"></circle><circle cx="516" cy="482" r="2"></circle><circle cx="525" cy="467" r="2"></circle><circle cx="535" cy="443" r="2"></circle><circle cx="544" cy="462" r="2"></circle><circle cx="554" cy="482" r="2"></circle><circle cx="563" cy="471" r="2"></circle><circle cx="573" cy="488" r="2"></circle><circle cx="582" cy="494" r="2"></circle><circle cx="591" cy="480" r="2"></circle></g></g><g class="key-Middle-East-__0026-North-Africa_0"><path stroke="#7ec7ce" stroke-linecap="round" d="M147 463L157 456L166 458L176 392L185 298L194 370L204 345L213 333L223 369L232 400L242 358L251 344L261 391L270 435L280 394L289 452L298 425L308 457L317 427L327 434L336 395L346 380L355 402L365 395L374 441L383 415L393 451L402 466L412 472L421 480L431 493L440 494L450 493L459 490L469 472L478 473L487 467L497 456L506 344L516 475L525 460L535 450L544 463L554 475L563 480L573 496L582 487L591 496" fill="none" stroke-width="1.5"></path><g fill="#7ec7ce"><circle cx="147" cy="463" r="2"></circle><circle cx="157" cy="456" r="2"></circle><circle cx="166" cy="458" r="2"></circle><circle cx="176" cy="392" r="2"></circle><circle cx="185" cy="298" r="2"></circle><circle cx="194" cy="370" r="2"></circle><circle cx="204" cy="345" r="2"></circle><circle cx="213" cy="333" r="2"></circle><circle cx="223" cy="369" r="2"></circle><circle cx="232" cy="400" r="2"></circle><circle cx="242" cy="358" r="2"></circle><circle cx="251" cy="344" r="2"></circle><circle cx="261" cy="391" r="2"></circle><circle cx="270" cy="435" r="2"></circle><circle cx="280" cy="394" r="2"></circle><circle cx="289" cy="452" r="2"></circle><circle cx="298" cy="425" r="2"></circle><circle cx="308" cy="457" r="2"></circle><circle cx="317" cy="427" r="2"></circle><circle cx="327" cy="434" r="2"></circle><circle cx="336" cy="395" r="2"></circle><circle cx="346" cy="380" r="2"></circle><circle cx="355" cy="402" r="2"></circle><circle cx="365" cy="395" r="2"></circle><circle cx="374" cy="441" r="2"></circle><circle cx="383" cy="415" r="2"></circle><circle cx="393" cy="451" r="2"></circle><circle cx="402" cy="466" r="2"></circle><circle cx="412" cy="472" r="2"></circle><circle cx="421" cy="480" r="2"></circle><circle cx="431" cy="493" r="2"></circle><circle cx="440" cy="494" r="2"></circle><circle cx="450" cy="493" r="2"></circle><circle cx="459" cy="490" r="2"></circle><circle cx="469" cy="472" r="2"></circle><circle cx="478" cy="473" r="2"></circle><circle cx="487" cy="467" r="2"></circle><circle cx="497" cy="456" r="2"></circle><circle cx="506" cy="344" r="2"></circle><circle cx="516" cy="475" r="2"></circle><circle cx="525" cy="460" r="2"></circle><circle cx="535" cy="450" r="2"></circle><circle cx="544" cy="463" r="2"></circle><circle cx="554" cy="475" r="2"></circle><circle cx="563" cy="480" r="2"></circle><circle cx="573" cy="496" r="2"></circle><circle cx="582" cy="487" r="2"></circle><circle cx="591" cy="496" r="2"></circle></g></g><g class="key-OECD-members_0"><path stroke="#000" stroke-linecap="round" d="M53 491L62 488L72 454L81 475L90 467L100 456L109 456L119 465L128 460L138 468L147 435L157 422L166 420L176 384L185 281L194 321L204 360L213 346L223 386L232 362L242 308L251 312L261 352L270 385L280 410L289 426L298 455L308 453L317 441L327 432L336 420L346 429L355 456L365 450L374 476L383 459L393 478L402 488L412 491L421 488L431 475L440 476L450 483L459 488L469 487L478 483L487 482L497 483L506 457L516 507L525 493L535 469L544 483L554 499L563 512L573 518L582 514L591 493" fill="none" stroke-width="1.5"></path><g fill="#000"><circle cx="53" cy="491" r="2"></circle><circle cx="62" cy="488" r="2"></circle><circle cx="72" cy="454" r="2"></circle><circle cx="81" cy="475" r="2"></circle><circle cx="90" cy="467" r="2"></circle><circle cx="100" cy="456" r="2"></circle><circle cx="109" cy="456" r="2"></circle><circle cx="119" cy="465" r="2"></circle><circle cx="128" cy="460" r="2"></circle><circle cx="138" cy="468" r="2"></circle><circle cx="147" cy="435" r="2"></circle><circle cx="157" cy="422" r="2"></circle><circle cx="166" cy="420" r="2"></circle><circle cx="176" cy="384" r="2"></circle><circle cx="185" cy="281" r="2"></circle><circle cx="194" cy="321" r="2"></circle><circle cx="204" cy="360" r="2"></circle><circle cx="213" cy="346" r="2"></circle><circle cx="223" cy="386" r="2"></circle><circle cx="232" cy="362" r="2"></circle><circle cx="242" cy="308" r="2"></circle><circle cx="251" cy="312" r="2"></circle><circle cx="261" cy="352" r="2"></circle><circle cx="270" cy="385" r="2"></circle><circle cx="280" cy="410" r="2"></circle><circle cx="289" cy="426" r="2"></circle><circle cx="298" cy="455" r="2"></circle><circle cx="308" cy="453" r="2"></circle><circle cx="317" cy="441" r="2"></circle><circle cx="327" cy="432" r="2"></circle><circle cx="336" cy="420" r="2"></circle><circle cx="346" cy="429" r="2"></circle><circle cx="355" cy="456" r="2"></circle><circle cx="365" cy="450" r="2"></circle><circle cx="374" cy="476" r="2"></circle><circle cx="383" cy="459" r="2"></circle><circle cx="393" cy="478" r="2"></circle><circle cx="402" cy="488" r="2"></circle><circle cx="412" cy="491" r="2"></circle><circle cx="421" cy="488" r="2"></circle><circle cx="431" cy="475" r="2"></circle><circle cx="440" cy="476" r="2"></circle><circle cx="450" cy="483" r="2"></circle><circle cx="459" cy="488" r="2"></circle><circle cx="469" cy="487" r="2"></circle><circle cx="478" cy="483" r="2"></circle><circle cx="487" cy="482" r="2"></circle><circle cx="497" cy="483" r="2"></circle><circle cx="506" cy="457" r="2"></circle><circle cx="516" cy="507" r="2"></circle><circle cx="525" cy="493" r="2"></circle><circle cx="535" cy="469" r="2"></circle><circle cx="544" cy="483" r="2"></circle><circle cx="554" cy="499" r="2"></circle><circle cx="563" cy="512" r="2"></circle><circle cx="573" cy="518" r="2"></circle><circle cx="582" cy="514" r="2"></circle><circle cx="591" cy="493" r="2"></circle></g></g><g class="key-South-Asia_0"><path stroke="#ed6c2d" stroke-linecap="round" d="M100 411L109 380L119 451L128 489L138 464L147 433L157 476L166 421L176 299L185 157L194 410L204 535L213 378L223 415L232 407L242 312L251 335L261 366L270 327L280 411L289 434L298 384L308 392L317 377L327 391L336 380L346 329L355 339L365 384L374 389L383 367L393 378L402 414L412 365L421 437L431 458L440 470L450 469L459 447L469 433L478 411L487 414L497 408L506 349L516 443L525 402L535 369L544 374L554 402L563 414L573 456L582 453L591 461" fill="none" stroke-width="1.5"></path><g fill="#ed6c2d"><circle cx="100" cy="411" r="2"></circle><circle cx="109" cy="380" r="2"></circle><circle cx="119" cy="451" r="2"></circle><circle cx="128" cy="489" r="2"></circle><circle cx="138" cy="464" r="2"></circle><circle cx="147" cy="433" r="2"></circle><circle cx="157" cy="476" r="2"></circle><circle cx="166" cy="421" r="2"></circle><circle cx="176" cy="299" r="2"></circle><circle cx="185" cy="157" r="2"></circle><circle cx="194" cy="410" r="2"></circle><circle cx="204" cy="535" r="2"></circle><circle cx="213" cy="378" r="2"></circle><circle cx="223" cy="415" r="2"></circle><circle cx="232" cy="407" r="2"></circle><circle cx="242" cy="312" r="2"></circle><circle cx="251" cy="335" r="2"></circle><circle cx="261" cy="366" r="2"></circle><circle cx="270" cy="327" r="2"></circle><circle cx="280" cy="411" r="2"></circle><circle cx="289" cy="434" r="2"></circle><circle cx="298" cy="384" r="2"></circle><circle cx="308" cy="392" r="2"></circle><circle cx="317" cy="377" r="2"></circle><circle cx="327" cy="391" r="2"></circle><circle cx="336" cy="380" r="2"></circle><circle cx="346" cy="329" r="2"></circle><circle cx="355" cy="339" r="2"></circle><circle cx="365" cy="384" r="2"></circle><circle cx="374" cy="389" r="2"></circle><circle cx="383" cy="367" r="2"></circle><circle cx="393" cy="378" r="2"></circle><circle cx="402" cy="414" r="2"></circle><circle cx="412" cy="365" r="2"></circle><circle cx="421" cy="437" r="2"></circle><circle cx="431" cy="458" r="2"></circle><circle cx="440" cy="470" r="2"></circle><circle cx="450" cy="469" r="2"></circle><circle cx="459" cy="447" r="2"></circle><circle cx="469" cy="433" r="2"></circle><circle cx="478" cy="411" r="2"></circle><circle cx="487" cy="414" r="2"></circle><circle cx="497" cy="408" r="2"></circle><circle cx="506" cy="349" r="2"></circle><circle cx="516" cy="443" r="2"></circle><circle cx="525" cy="402" r="2"></circle><circle cx="535" cy="369" r="2"></circle><circle cx="544" cy="374" r="2"></circle><circle cx="554" cy="402" r="2"></circle><circle cx="563" cy="414" r="2"></circle><circle cx="573" cy="456" r="2"></circle><circle cx="582" cy="453" r="2"></circle><circle cx="591" cy="461" r="2"></circle></g></g><g class="key-Sub__002dSaharan-Africa_0"><path stroke="#ffd53e" stroke-linecap="round" d="M194 234L204 340L213 288L223 341L232 307L242 308L251 328L261 331L270 341L280 347L289 374L298 414L308 401L317 390L327 395L336 403L346 381L355 372L365 372L374 90L383 342L393 408L402 401L412 420L421 453L431 451L440 440L450 447L459 432L469 456L478 410L487 421L497 419L506 356L516 405L525 458L535 437L544 418L554 444L563 452L573 458L582 434L591 438" fill="none" stroke-width="1.5"></path><g fill="#ffd53e"><circle cx="194" cy="234" r="2"></circle><circle cx="204" cy="340" r="2"></circle><circle cx="213" cy="288" r="2"></circle><circle cx="223" cy="341" r="2"></circle><circle cx="232" cy="307" r="2"></circle><circle cx="242" cy="308" r="2"></circle><circle cx="251" cy="328" r="2"></circle><circle cx="261" cy="331" r="2"></circle><circle cx="270" cy="341" r="2"></circle><circle cx="280" cy="347" r="2"></circle><circle cx="289" cy="374" r="2"></circle><circle cx="298" cy="414" r="2"></circle><circle cx="308" cy="401" r="2"></circle><circle cx="317" cy="390" r="2"></circle><circle cx="327" cy="395" r="2"></circle><circle cx="336" cy="403" r="2"></circle><circle cx="346" cy="381" r="2"></circle><circle cx="355" cy="372" r="2"></circle><circle cx="365" cy="372" r="2"></circle><circle cx="374" cy="90" r="2"></circle><circle cx="383" cy="342" r="2"></circle><circle cx="393" cy="408" r="2"></circle><circle cx="402" cy="401" r="2"></circle><circle cx="412" cy="420" r="2"></circle><circle cx="421" cy="453" r="2"></circle><circle cx="431" cy="451" r="2"></circle><circle cx="440" cy="440" r="2"></circle><circle cx="450" cy="447" r="2"></circle><circle cx="459" cy="432" r="2"></circle><circle cx="469" cy="456" r="2"></circle><circle cx="478" cy="410" r="2"></circle><circle cx="487" cy="421" r="2"></circle><circle cx="497" cy="419" r="2"></circle><circle cx="506" cy="356" r="2"></circle><circle cx="516" cy="405" r="2"></circle><circle cx="525" cy="458" r="2"></circle><circle cx="535" cy="437" r="2"></circle><circle cx="544" cy="418" r="2"></circle><circle cx="554" cy="444" r="2"></circle><circle cx="563" cy="452" r="2"></circle><circle cx="573" cy="458" r="2"></circle><circle cx="582" cy="434" r="2"></circle><circle cx="591" cy="438" r="2"></circle></g></g></g></g></g><g class="SourcesFooter" style="fill:#777"><g class="clickable" style="fill:#777"><text font-size="12.60" x="15.0" y="581.6"><tspan x="15" y="581.58">Source: The World Bank (2019)</tspan></text></g><text font-size="12.60" x="661.4" y="581.6"><tspan x="661.372" y="581.58"><a target='_blank' style='fill: #777;' href='https://tinyco.re/1308211'>tinyco.re/1308211</a> • <a style="fill: #777;" class="cclogo" href="http://creativecommons.org/licenses/by-sa/4.0/deed.en_US" target="_blank">CC BY-SA</a></tspan></text></g></g></svg>