<svg xmlns="http://www.w3.org/2000/svg" version="1.1" style="font-family:Lato, &#x27;Helvetica Neue&#x27;, Helvetica, Arial, sans-serif;font-size:18px;background-color:white;text-rendering:optimizeLegibility;-webkit-font-smoothing:antialiased" width="850" height="600"><g class="HeaderView"><a href="https://ourworldindata.org/grapher/inflation-levels-and-volatility-in-high--and-low-income-economies-1960-2017" target="_blank"><text font-size="22.50" x="15.0" y="33.0" fill="#555"><tspan x="15" y="33">Inflation levels and volatility in high- and low-income economies (1960-2017)</tspan></text></a><text font-size="14.40" x="15.0" y="51.0" fill="#666"><tspan x="15" y="51.019999999999996">Unit 13 &#x27;Economic fluctuations and unemployment’ Section 13.8 &#x27;Measuring the economy: Inflation&#x27; in The CORE Team, The</tspan><tspan x="15" y="66.86">Economy. Available at: https://tinyco.re/13082110 [Figure 13.21]</tspan></text></g><g class="LineChart"><defs><clipPath id="boundsClip-11"><rect x="42.562" y="0" width="830" height="938.2"></rect></clipPath></defs><g class="AxisBoxView"><g class="HorizontalAxis"><text x="52.6" y="556.5" fill="#666" text-anchor="middle" font-size="16.2">1960</text><text x="147.1" y="556.5" fill="#666" text-anchor="middle" font-size="16.2">1970</text><text x="241.6" y="556.5" fill="#666" text-anchor="middle" font-size="16.2">1980</text><text x="336.2" y="556.5" fill="#666" text-anchor="middle" font-size="16.2">1990</text><text x="430.7" y="556.5" fill="#666" text-anchor="middle" font-size="16.2">2000</text><text x="525.2" y="556.5" fill="#666" text-anchor="middle" font-size="16.2">2010</text><text x="591.4" y="556.5" fill="#666" text-anchor="middle" font-size="16.2">2017</text></g><g class="VerticalAxis"><text x="47.56" y="521.2" fill="#666" dominant-baseline="middle" text-anchor="end" font-size="16.2">0%</text><text x="47.56" y="442.2" fill="#666" dominant-baseline="middle" text-anchor="end" font-size="16.2">5%</text><text x="47.56" y="363.2" fill="#666" dominant-baseline="middle" text-anchor="end" font-size="16.2">10%</text><text x="47.56" y="284.1" fill="#666" dominant-baseline="middle" text-anchor="end" font-size="16.2">15%</text><text x="47.56" y="205.1" fill="#666" dominant-baseline="middle" text-anchor="end" font-size="16.2">20%</text><text x="47.56" y="126.1" fill="#666" dominant-baseline="middle" text-anchor="end" font-size="16.2">25%</text></g><g class="AxisGridLines"><line x1="52.56" y1="521.2" x2="591.42" y2="521.2" stroke="#ccc"></line><line x1="52.56" y1="442.2" x2="591.42" y2="442.2" stroke="#ddd" stroke-dasharray="3,2"></line><line x1="52.56" y1="363.2" x2="591.42" y2="363.2" stroke="#ddd" stroke-dasharray="3,2"></line><line x1="52.56" y1="284.1" x2="591.42" y2="284.1" stroke="#ddd" stroke-dasharray="3,2"></line><line x1="52.56" y1="205.1" x2="591.42" y2="205.1" stroke="#ddd" stroke-dasharray="3,2"></line><line x1="52.56" y1="126.1" x2="591.42" y2="126.1" stroke="#ddd" stroke-dasharray="3,2"></line></g></g><g clip-path="url(#boundsClip-11)"><g class="HeightedLegend clickable"><g class="legendMark"><g class="indicator"><line x1="596.425" y1="496" x2="618.925" y2="496" stroke="#666" stroke-width="0.5"></line><line x1="618.925" y1="496" x2="618.925" y2="496" stroke="#666" stroke-width="0.5"></line><line x1="618.925" y1="496" x2="621.425" y2="496" stroke="#666" stroke-width="0.5"></line></g><rect x="591.425" y="489.25" width="193.76000000000002" height="13.5" fill="#fff" opacity="0"></rect><text font-size="13.50" x="626.4" y="500.1" fill="#7ec7ce"><tspan x="626.425" y="500.05">Middle East &amp; North Africa</tspan></text></g><g class="legendMark"><g class="indicator"><line x1="596.425" y1="492.4" x2="615.5916666666666" y2="492.4" stroke="#666" stroke-width="0.5"></line><line x1="615.5916666666666" y1="492.4" x2="615.5916666666666" y2="480.5" stroke="#666" stroke-width="0.5"></line><line x1="615.5916666666666" y1="480.5" x2="621.425" y2="480.5" stroke="#666" stroke-width="0.5"></line></g><rect x="591.425" y="473.75" width="134.09" height="13.5" fill="#fff" opacity="0"></rect><text font-size="13.50" x="626.4" y="484.6" fill="#000"><tspan x="626.425" y="484.55">OECD members</tspan></text></g><g class="legendMark"><g class="indicator"><line x1="596.425" y1="479.8" x2="612.2583333333333" y2="479.8" stroke="#666" stroke-width="0.5"></line><line x1="612.2583333333333" y1="479.8" x2="612.2583333333333" y2="465" stroke="#666" stroke-width="0.5"></line><line x1="612.2583333333333" y1="465" x2="621.425" y2="465" stroke="#666" stroke-width="0.5"></line></g><rect x="591.425" y="458.25" width="196.865" height="13.5" fill="#fff" opacity="0"></rect><text font-size="13.50" x="626.4" y="469.1" fill="#34983f"><tspan x="626.425" y="469.05">Latin America &amp; Caribbean</tspan></text></g><g class="legendMark"><g class="indicator"><line x1="596.425" y1="475.8" x2="608.925" y2="475.8" stroke="#666" stroke-width="0.5"></line><line x1="608.925" y1="475.8" x2="608.925" y2="442.2" stroke="#666" stroke-width="0.5"></line><line x1="608.925" y1="442.2" x2="621.425" y2="442.2" stroke="#666" stroke-width="0.5"></line></g><rect x="591.425" y="428.15" width="243.57500000000002" height="28.1" fill="#fff" opacity="0"></rect><text font-size="13.50" x="626.4" y="438.9" fill="#a652ba"><tspan x="626.425" y="438.95">East Asia &amp; Pacific (excluding high</tspan><tspan x="626.425" y="453.8">income)</tspan></text></g><g class="legendMark"><g class="indicator"><line x1="596.425" y1="460.2" x2="605.5916666666666" y2="460.2" stroke="#666" stroke-width="0.5"></line><line x1="605.5916666666666" y1="460.2" x2="605.5916666666666" y2="419.4" stroke="#666" stroke-width="0.5"></line><line x1="605.5916666666666" y1="419.4" x2="621.425" y2="419.4" stroke="#666" stroke-width="0.5"></line></g><rect x="591.425" y="412.65" width="100.61" height="13.5" fill="#fff" opacity="0"></rect><text font-size="13.50" x="626.4" y="423.4" fill="#ed6c2d"><tspan x="626.425" y="423.45">South Asia</tspan></text></g><g class="legendMark"><g class="indicator"><line x1="596.425" y1="437.2" x2="602.2583333333333" y2="437.2" stroke="#666" stroke-width="0.5"></line><line x1="602.2583333333333" y1="437.2" x2="602.2583333333333" y2="403.9" stroke="#666" stroke-width="0.5"></line><line x1="602.2583333333333" y1="403.9" x2="621.425" y2="403.9" stroke="#666" stroke-width="0.5"></line></g><rect x="591.425" y="397.15" width="153.26" height="13.5" fill="#fff" opacity="0"></rect><text font-size="13.50" x="626.4" y="407.9" fill="#ffd53e"><tspan x="626.425" y="407.95">Sub-Saharan Africa</tspan></text></g></g><g class="Lines"><rect x="53" y="87" width="539" height="448" fill="rgba(255,255,255,0)" opacity="0"></rect><g class="key-East-Asia-__0026-Pacific-__0028excluding-high-income__0029_0"><path stroke="#a652ba" stroke-linecap="round" d="M308 439L317 374L327 419L336 392L346 411L355 402L365 431L374 400L383 429L393 406L402 433L412 385L421 453L431 487L440 454L450 470L459 463L469 454L478 435L487 444L497 445L506 360L516 455L525 463L535 437L544 473L554 475L563 472L573 502L582 490L591 476" fill="none" stroke-width="1.5"></path><g fill="#a652ba"><circle cx="308" cy="439" r="2"></circle><circle cx="317" cy="374" r="2"></circle><circle cx="327" cy="419" r="2"></circle><circle cx="336" cy="392" r="2"></circle><circle cx="346" cy="411" r="2"></circle><circle cx="355" cy="402" r="2"></circle><circle cx="365" cy="431" r="2"></circle><circle cx="374" cy="400" r="2"></circle><circle cx="383" cy="429" r="2"></circle><circle cx="393" cy="406" r="2"></circle><circle cx="402" cy="433" r="2"></circle><circle cx="412" cy="385" r="2"></circle><circle cx="421" cy="453" r="2"></circle><circle cx="431" cy="487" r="2"></circle><circle cx="440" cy="454" r="2"></circle><circle cx="450" cy="470" r="2"></circle><circle cx="459" cy="463" r="2"></circle><circle cx="469" cy="454" r="2"></circle><circle cx="478" cy="435" r="2"></circle><circle cx="487" cy="444" r="2"></circle><circle cx="497" cy="445" r="2"></circle><circle cx="506" cy="360" r="2"></circle><circle cx="516" cy="455" r="2"></circle><circle cx="525" cy="463" r="2"></circle><circle cx="535" cy="437" r="2"></circle><circle cx="544" cy="473" r="2"></circle><circle cx="554" cy="475" r="2"></circle><circle cx="563" cy="472" r="2"></circle><circle cx="573" cy="502" r="2"></circle><circle cx="582" cy="490" r="2"></circle><circle cx="591" cy="476" r="2"></circle></g></g><g class="key-Latin-America-__0026-Caribbean_0"><path stroke="#34983f" stroke-linecap="round" d="M119 474L128 457L138 480L147 448L157 446L166 416L176 306L185 149L194 256L204 366L213 352L223 358L232 289L242 238L251 295L261 398L270 359L280 339L289 316L298 367L308 339L317 395L327 341L336 181L346 180L355 353L365 359L374 368L383 360L393 405L402 411L412 440L421 466L431 448L440 452L450 462L459 461L469 453L478 447L487 454L497 449L506 393L516 482L525 467L535 443L544 461L554 481L563 470L573 488L582 494L591 480" fill="none" stroke-width="1.5"></path><g fill="#34983f"><circle cx="119" cy="474" r="2"></circle><circle cx="128" cy="457" r="2"></circle><circle cx="138" cy="480" r="2"></circle><circle cx="147" cy="448" r="2"></circle><circle cx="157" cy="446" r="2"></circle><circle cx="166" cy="416" r="2"></circle><circle cx="176" cy="306" r="2"></circle><circle cx="185" cy="149" r="2"></circle><circle cx="194" cy="256" r="2"></circle><circle cx="204" cy="366" r="2"></circle><circle cx="213" cy="352" r="2"></circle><circle cx="223" cy="358" r="2"></circle><circle cx="232" cy="289" r="2"></circle><circle cx="242" cy="238" r="2"></circle><circle cx="251" cy="295" r="2"></circle><circle cx="261" cy="398" r="2"></circle><circle cx="270" cy="359" r="2"></circle><circle cx="280" cy="339" r="2"></circle><circle cx="289" cy="316" r="2"></circle><circle cx="298" cy="367" r="2"></circle><circle cx="308" cy="339" r="2"></circle><circle cx="317" cy="395" r="2"></circle><circle cx="327" cy="341" r="2"></circle><circle cx="336" cy="181" r="2"></circle><circle cx="346" cy="180" r="2"></circle><circle cx="355" cy="353" r="2"></circle><circle cx="365" cy="359" r="2"></circle><circle cx="374" cy="368" r="2"></circle><circle cx="383" cy="360" r="2"></circle><circle cx="393" cy="405" r="2"></circle><circle cx="402" cy="411" r="2"></circle><circle cx="412" cy="440" r="2"></circle><circle cx="421" cy="466" r="2"></circle><circle cx="431" cy="448" r="2"></circle><circle cx="440" cy="452" r="2"></circle><circle cx="450" cy="462" r="2"></circle><circle cx="459" cy="461" r="2"></circle><circle cx="469" cy="453" r="2"></circle><circle cx="478" cy="447" r="2"></circle><circle cx="487" cy="454" r="2"></circle><circle cx="497" cy="449" r="2"></circle><circle cx="506" cy="393" r="2"></circle><circle cx="516" cy="482" r="2"></circle><circle cx="525" cy="467" r="2"></circle><circle cx="535" cy="443" r="2"></circle><circle cx="544" cy="461" r="2"></circle><circle cx="554" cy="481" r="2"></circle><circle cx="563" cy="470" r="2"></circle><circle cx="573" cy="488" r="2"></circle><circle cx="582" cy="494" r="2"></circle><circle cx="591" cy="480" r="2"></circle></g></g><g class="key-Middle-East-__0026-North-Africa_0"><path stroke="#7ec7ce" stroke-linecap="round" d="M147 462L157 455L166 457L176 391L185 296L194 368L204 343L213 332L223 368L232 399L242 357L251 343L261 390L270 434L280 393L289 452L298 424L308 457L317 426L327 434L336 394L346 379L355 401L365 394L374 440L383 415L393 451L402 465L412 472L421 479L431 493L440 494L450 492L459 490L469 472L478 472L487 466L497 455L506 343L516 475L525 459L535 450L544 462L554 474L563 479L573 496L582 487L591 496" fill="none" stroke-width="1.5"></path><g fill="#7ec7ce"><circle cx="147" cy="462" r="2"></circle><circle cx="157" cy="455" r="2"></circle><circle cx="166" cy="457" r="2"></circle><circle cx="176" cy="391" r="2"></circle><circle cx="185" cy="296" r="2"></circle><circle cx="194" cy="368" r="2"></circle><circle cx="204" cy="343" r="2"></circle><circle cx="213" cy="332" r="2"></circle><circle cx="223" cy="368" r="2"></circle><circle cx="232" cy="399" r="2"></circle><circle cx="242" cy="357" r="2"></circle><circle cx="251" cy="343" r="2"></circle><circle cx="261" cy="390" r="2"></circle><circle cx="270" cy="434" r="2"></circle><circle cx="280" cy="393" r="2"></circle><circle cx="289" cy="452" r="2"></circle><circle cx="298" cy="424" r="2"></circle><circle cx="308" cy="457" r="2"></circle><circle cx="317" cy="426" r="2"></circle><circle cx="327" cy="434" r="2"></circle><circle cx="336" cy="394" r="2"></circle><circle cx="346" cy="379" r="2"></circle><circle cx="355" cy="401" r="2"></circle><circle cx="365" cy="394" r="2"></circle><circle cx="374" cy="440" r="2"></circle><circle cx="383" cy="415" r="2"></circle><circle cx="393" cy="451" r="2"></circle><circle cx="402" cy="465" r="2"></circle><circle cx="412" cy="472" r="2"></circle><circle cx="421" cy="479" r="2"></circle><circle cx="431" cy="493" r="2"></circle><circle cx="440" cy="494" r="2"></circle><circle cx="450" cy="492" r="2"></circle><circle cx="459" cy="490" r="2"></circle><circle cx="469" cy="472" r="2"></circle><circle cx="478" cy="472" r="2"></circle><circle cx="487" cy="466" r="2"></circle><circle cx="497" cy="455" r="2"></circle><circle cx="506" cy="343" r="2"></circle><circle cx="516" cy="475" r="2"></circle><circle cx="525" cy="459" r="2"></circle><circle cx="535" cy="450" r="2"></circle><circle cx="544" cy="462" r="2"></circle><circle cx="554" cy="474" r="2"></circle><circle cx="563" cy="479" r="2"></circle><circle cx="573" cy="496" r="2"></circle><circle cx="582" cy="487" r="2"></circle><circle cx="591" cy="496" r="2"></circle></g></g><g class="key-OECD-members_0"><path stroke="#000" stroke-linecap="round" d="M53 491L62 487L72 454L81 474L90 467L100 455L109 455L119 465L128 460L138 467L147 434L157 422L166 419L176 383L185 280L194 319L204 359L213 345L223 385L232 361L242 307L251 311L261 351L270 384L280 410L289 425L298 454L308 452L317 441L327 431L336 419L346 429L355 456L365 450L374 476L383 458L393 477L402 487L412 490L421 487L431 474L440 475L450 483L459 488L469 486L478 483L487 482L497 482L506 457L516 507L525 493L535 469L544 482L554 499L563 512L573 518L582 514L591 492" fill="none" stroke-width="1.5"></path><g fill="#000"><circle cx="53" cy="491" r="2"></circle><circle cx="62" cy="487" r="2"></circle><circle cx="72" cy="454" r="2"></circle><circle cx="81" cy="474" r="2"></circle><circle cx="90" cy="467" r="2"></circle><circle cx="100" cy="455" r="2"></circle><circle cx="109" cy="455" r="2"></circle><circle cx="119" cy="465" r="2"></circle><circle cx="128" cy="460" r="2"></circle><circle cx="138" cy="467" r="2"></circle><circle cx="147" cy="434" r="2"></circle><circle cx="157" cy="422" r="2"></circle><circle cx="166" cy="419" r="2"></circle><circle cx="176" cy="383" r="2"></circle><circle cx="185" cy="280" r="2"></circle><circle cx="194" cy="319" r="2"></circle><circle cx="204" cy="359" r="2"></circle><circle cx="213" cy="345" r="2"></circle><circle cx="223" cy="385" r="2"></circle><circle cx="232" cy="361" r="2"></circle><circle cx="242" cy="307" r="2"></circle><circle cx="251" cy="311" r="2"></circle><circle cx="261" cy="351" r="2"></circle><circle cx="270" cy="384" r="2"></circle><circle cx="280" cy="410" r="2"></circle><circle cx="289" cy="425" r="2"></circle><circle cx="298" cy="454" r="2"></circle><circle cx="308" cy="452" r="2"></circle><circle cx="317" cy="441" r="2"></circle><circle cx="327" cy="431" r="2"></circle><circle cx="336" cy="419" r="2"></circle><circle cx="346" cy="429" r="2"></circle><circle cx="355" cy="456" r="2"></circle><circle cx="365" cy="450" r="2"></circle><circle cx="374" cy="476" r="2"></circle><circle cx="383" cy="458" r="2"></circle><circle cx="393" cy="477" r="2"></circle><circle cx="402" cy="487" r="2"></circle><circle cx="412" cy="490" r="2"></circle><circle cx="421" cy="487" r="2"></circle><circle cx="431" cy="474" r="2"></circle><circle cx="440" cy="475" r="2"></circle><circle cx="450" cy="483" r="2"></circle><circle cx="459" cy="488" r="2"></circle><circle cx="469" cy="486" r="2"></circle><circle cx="478" cy="483" r="2"></circle><circle cx="487" cy="482" r="2"></circle><circle cx="497" cy="482" r="2"></circle><circle cx="506" cy="457" r="2"></circle><circle cx="516" cy="507" r="2"></circle><circle cx="525" cy="493" r="2"></circle><circle cx="535" cy="469" r="2"></circle><circle cx="544" cy="482" r="2"></circle><circle cx="554" cy="499" r="2"></circle><circle cx="563" cy="512" r="2"></circle><circle cx="573" cy="518" r="2"></circle><circle cx="582" cy="514" r="2"></circle><circle cx="591" cy="492" r="2"></circle></g></g><g class="key-South-Asia_0"><path stroke="#ed6c2d" stroke-linecap="round" d="M100 410L109 379L119 450L128 488L138 464L147 433L157 476L166 420L176 297L185 154L194 409L204 535L213 377L223 415L232 407L242 311L251 333L261 365L270 326L280 410L289 433L298 383L308 391L317 376L327 390L336 379L346 328L355 338L365 383L374 389L383 365L393 377L402 413L412 364L421 436L431 458L440 469L450 469L459 446L469 433L478 410L487 413L497 408L506 348L516 443L525 401L535 368L544 373L554 401L563 413L573 456L582 453L591 460" fill="none" stroke-width="1.5"></path><g fill="#ed6c2d"><circle cx="100" cy="410" r="2"></circle><circle cx="109" cy="379" r="2"></circle><circle cx="119" cy="450" r="2"></circle><circle cx="128" cy="488" r="2"></circle><circle cx="138" cy="464" r="2"></circle><circle cx="147" cy="433" r="2"></circle><circle cx="157" cy="476" r="2"></circle><circle cx="166" cy="420" r="2"></circle><circle cx="176" cy="297" r="2"></circle><circle cx="185" cy="154" r="2"></circle><circle cx="194" cy="409" r="2"></circle><circle cx="204" cy="535" r="2"></circle><circle cx="213" cy="377" r="2"></circle><circle cx="223" cy="415" r="2"></circle><circle cx="232" cy="407" r="2"></circle><circle cx="242" cy="311" r="2"></circle><circle cx="251" cy="333" r="2"></circle><circle cx="261" cy="365" r="2"></circle><circle cx="270" cy="326" r="2"></circle><circle cx="280" cy="410" r="2"></circle><circle cx="289" cy="433" r="2"></circle><circle cx="298" cy="383" r="2"></circle><circle cx="308" cy="391" r="2"></circle><circle cx="317" cy="376" r="2"></circle><circle cx="327" cy="390" r="2"></circle><circle cx="336" cy="379" r="2"></circle><circle cx="346" cy="328" r="2"></circle><circle cx="355" cy="338" r="2"></circle><circle cx="365" cy="383" r="2"></circle><circle cx="374" cy="389" r="2"></circle><circle cx="383" cy="365" r="2"></circle><circle cx="393" cy="377" r="2"></circle><circle cx="402" cy="413" r="2"></circle><circle cx="412" cy="364" r="2"></circle><circle cx="421" cy="436" r="2"></circle><circle cx="431" cy="458" r="2"></circle><circle cx="440" cy="469" r="2"></circle><circle cx="450" cy="469" r="2"></circle><circle cx="459" cy="446" r="2"></circle><circle cx="469" cy="433" r="2"></circle><circle cx="478" cy="410" r="2"></circle><circle cx="487" cy="413" r="2"></circle><circle cx="497" cy="408" r="2"></circle><circle cx="506" cy="348" r="2"></circle><circle cx="516" cy="443" r="2"></circle><circle cx="525" cy="401" r="2"></circle><circle cx="535" cy="368" r="2"></circle><circle cx="544" cy="373" r="2"></circle><circle cx="554" cy="401" r="2"></circle><circle cx="563" cy="413" r="2"></circle><circle cx="573" cy="456" r="2"></circle><circle cx="582" cy="453" r="2"></circle><circle cx="591" cy="460" r="2"></circle></g></g><g class="key-Sub__002dSaharan-Africa_0"><path stroke="#ffd53e" stroke-linecap="round" d="M194 232L204 339L213 286L223 340L232 305L242 306L251 327L261 330L270 340L280 346L289 373L298 413L308 401L317 389L327 394L336 402L346 380L355 371L365 371L374 87L383 341L393 408L402 400L412 420L421 452L431 450L440 439L450 447L459 431L469 456L478 409L487 420L497 418L506 354L516 405L525 458L535 436L544 417L554 443L563 452L573 457L582 433L591 437" fill="none" stroke-width="1.5"></path><g fill="#ffd53e"><circle cx="194" cy="232" r="2"></circle><circle cx="204" cy="339" r="2"></circle><circle cx="213" cy="286" r="2"></circle><circle cx="223" cy="340" r="2"></circle><circle cx="232" cy="305" r="2"></circle><circle cx="242" cy="306" r="2"></circle><circle cx="251" cy="327" r="2"></circle><circle cx="261" cy="330" r="2"></circle><circle cx="270" cy="340" r="2"></circle><circle cx="280" cy="346" r="2"></circle><circle cx="289" cy="373" r="2"></circle><circle cx="298" cy="413" r="2"></circle><circle cx="308" cy="401" r="2"></circle><circle cx="317" cy="389" r="2"></circle><circle cx="327" cy="394" r="2"></circle><circle cx="336" cy="402" r="2"></circle><circle cx="346" cy="380" r="2"></circle><circle cx="355" cy="371" r="2"></circle><circle cx="365" cy="371" r="2"></circle><circle cx="374" cy="87" r="2"></circle><circle cx="383" cy="341" r="2"></circle><circle cx="393" cy="408" r="2"></circle><circle cx="402" cy="400" r="2"></circle><circle cx="412" cy="420" r="2"></circle><circle cx="421" cy="452" r="2"></circle><circle cx="431" cy="450" r="2"></circle><circle cx="440" cy="439" r="2"></circle><circle cx="450" cy="447" r="2"></circle><circle cx="459" cy="431" r="2"></circle><circle cx="469" cy="456" r="2"></circle><circle cx="478" cy="409" r="2"></circle><circle cx="487" cy="420" r="2"></circle><circle cx="497" cy="418" r="2"></circle><circle cx="506" cy="354" r="2"></circle><circle cx="516" cy="405" r="2"></circle><circle cx="525" cy="458" r="2"></circle><circle cx="535" cy="436" r="2"></circle><circle cx="544" cy="417" r="2"></circle><circle cx="554" cy="443" r="2"></circle><circle cx="563" cy="452" r="2"></circle><circle cx="573" cy="457" r="2"></circle><circle cx="582" cy="433" r="2"></circle><circle cx="591" cy="437" r="2"></circle></g></g></g></g></g><g class="SourcesFooter" style="fill:#777"><g class="clickable" style="fill:#777"><text font-size="12.60" x="15.0" y="581.6"><tspan x="15" y="581.58">Source: The World Bank (2019)</tspan></text></g><text font-size="12.60" x="538.9" y="581.6"><tspan x="538.9" y="581.58"><a target='_blank' style='fill: #777;' href='https://tinyco.re/13082110'>tinyco.re/13082110</a> • <a href="https://ourworldindata.org" target="_blank">Powered by ourworldindata.org</a></tspan></text></g></svg>