<svg xmlns="http://www.w3.org/2000/svg" version="1.1" style="font-family:&#x27;Helvetica Neue&#x27;, Helvetica, Arial, sans-serif;font-size:18px;background-color:white;text-rendering:optimizeLegibility;-webkit-font-smoothing:antialiased" width="850" height="600"><g class="ChartTab"><g class="HeaderView"><a href="https://ourworldindata.org/grapher/intergenerational-and-cross-sectional-inequality" target="_blank"><text font-size="25.20" x="15.0" y="35.2" fill="#555"><tspan x="15" y="35.160000000000004">Intergenerational and cross-sectional inequality</tspan></text></a><text font-size="14.40" x="15.0" y="53.7" fill="#666"><tspan x="15" y="53.72">Unit 19 &#x27;Economic inequality’ Section 19.2 &#x27;Accidents of birth: Another lens to study inequality&#x27; in The CORE Team, The</tspan><tspan x="15" y="69.56">Economy. Available at https://tinyco.re/1902099 [Figure 19.11]</tspan></text></g><g><g class="AxisBoxView"><g class="HorizontalAxis"><text font-size="12.60" x="210.0" y="540.3"><tspan x="210.02" y="540.28">Intergenerational inequality (intergenerational elasticity)</tspan></text><text x="74.4" y="520.1999999999999" fill="#666" text-anchor="middle" font-size="16.2">0.15</text><text x="154.4" y="520.1999999999999" fill="#666" text-anchor="middle" font-size="16.2">0.2</text><text x="234.5" y="520.1999999999999" fill="#666" text-anchor="middle" font-size="16.2">0.25</text><text x="314.6" y="520.1999999999999" fill="#666" text-anchor="middle" font-size="16.2">0.3</text><text x="394.7" y="520.1999999999999" fill="#666" text-anchor="middle" font-size="16.2">0.35</text><text x="474.8" y="520.1999999999999" fill="#666" text-anchor="middle" font-size="16.2">0.4</text><text x="554.8" y="520.1999999999999" fill="#666" text-anchor="middle" font-size="16.2">0.45</text><text x="634.9" y="520.1999999999999" fill="#666" text-anchor="middle" font-size="16.2">0.5</text><text x="715" y="520.1999999999999" fill="#666" text-anchor="middle" font-size="16.2">0.55</text><text x="715" y="537.8" style="font-size:12px;text-transform:uppercase;cursor:pointer" class="clickable">linear</text></g><g class="VerticalAxis"><text font-size="12.60" x="-436.8" y="25.1" transform="rotate(-90)"><tspan x="-436.772" y="25.080000000000002">Cross-sectional inequality (Gini coefficient)</tspan></text><text x="69.35" y="471.9" fill="#666" dominant-baseline="middle" text-anchor="end" font-size="16.2">0.44</text><text x="69.35" y="417.6" fill="#666" dominant-baseline="middle" text-anchor="end" font-size="16.2">0.46</text><text x="69.35" y="363.4" fill="#666" dominant-baseline="middle" text-anchor="end" font-size="16.2">0.48</text><text x="69.35" y="309.1" fill="#666" dominant-baseline="middle" text-anchor="end" font-size="16.2">0.5</text><text x="69.35" y="254.9" fill="#666" dominant-baseline="middle" text-anchor="end" font-size="16.2">0.52</text><text x="69.35" y="200.6" fill="#666" dominant-baseline="middle" text-anchor="end" font-size="16.2">0.54</text><text x="69.35" y="146.4" fill="#666" dominant-baseline="middle" text-anchor="end" font-size="16.2">0.56</text><text x="15" y="84.1" style="font-size:12px;text-transform:uppercase;cursor:pointer" class="clickable">linear</text></g><g class="AxisGridLines"><line x1="74.35" y1="471.9" x2="715.00" y2="471.9" stroke="#ddd" stroke-dasharray="3,2"></line><line x1="74.35" y1="417.6" x2="715.00" y2="417.6" stroke="#ddd" stroke-dasharray="3,2"></line><line x1="74.35" y1="363.4" x2="715.00" y2="363.4" stroke="#ddd" stroke-dasharray="3,2"></line><line x1="74.35" y1="309.1" x2="715.00" y2="309.1" stroke="#ddd" stroke-dasharray="3,2"></line><line x1="74.35" y1="254.9" x2="715.00" y2="254.9" stroke="#ddd" stroke-dasharray="3,2"></line><line x1="74.35" y1="200.6" x2="715.00" y2="200.6" stroke="#ddd" stroke-dasharray="3,2"></line><line x1="74.35" y1="146.4" x2="715.00" y2="146.4" stroke="#ddd" stroke-dasharray="3,2"></line></g><g class="AxisGridLines"><line x1="74.4" y1="499.00" x2="74.4" y2="92.10" stroke="#ddd" stroke-dasharray="3,2"></line><line x1="154.4" y1="499.00" x2="154.4" y2="92.10" stroke="#ddd" stroke-dasharray="3,2"></line><line x1="234.5" y1="499.00" x2="234.5" y2="92.10" stroke="#ddd" stroke-dasharray="3,2"></line><line x1="314.6" y1="499.00" x2="314.6" y2="92.10" stroke="#ddd" stroke-dasharray="3,2"></line><line x1="394.7" y1="499.00" x2="394.7" y2="92.10" stroke="#ddd" stroke-dasharray="3,2"></line><line x1="474.8" y1="499.00" x2="474.8" y2="92.10" stroke="#ddd" stroke-dasharray="3,2"></line><line x1="554.8" y1="499.00" x2="554.8" y2="92.10" stroke="#ddd" stroke-dasharray="3,2"></line><line x1="634.9" y1="499.00" x2="634.9" y2="92.10" stroke="#ddd" stroke-dasharray="3,2"></line><line x1="715" y1="499.00" x2="715" y2="92.10" stroke="#ddd" stroke-dasharray="3,2"></line></g></g><g class="ComparisonLine"><defs><clipPath id="axisBounds-1"><rect x="74.352" y="92.1" width="640.648" height="406.9"></rect></clipPath></defs><path d="M74.4,388.2L80.8,386.1L87.2,384.1L93.6,382L100,379.9L106.4,377.9L112.8,375.8L119.2,373.7L125.6,371.7L132,369.6L138.4,367.6L144.8,365.5L151.2,363.4L157.6,361.4L164,359.3L170.4,357.2L176.9,355.2L183.3,353.1L189.7,351L196.1,349L202.5,346.9L208.9,344.8L215.3,342.8L221.7,340.7L228.1,338.6L234.5,336.6L240.9,334.5L247.3,332.4L253.7,330.4L260.1,328.3L266.5,326.3L273,324.2L279.4,322.1L285.8,320.1L292.2,318L298.6,315.9L305,313.9L311.4,311.8L317.8,309.7L324.2,307.7L330.6,305.6L337,303.5L343.4,301.5L349.8,299.4L356.2,297.3L362.6,295.3L369.1,293.2L375.5,291.2L381.9,289.1L388.3,287L394.7,285L401.1,282.9L407.5,280.8L413.9,278.8L420.3,276.7L426.7,274.6L433.1,272.6L439.5,270.5L445.9,268.4L452.3,266.4L458.7,264.3L465.1,262.2L471.6,260.2L478,258.1L484.4,256L490.8,254L497.2,251.9L503.6,249.9L510,247.8L516.4,245.7L522.8,243.7L529.2,241.6L535.6,239.5L542,237.5L548.4,235.4L554.8,233.3L561.2,231.3L567.7,229.2L574.1,227.1L580.5,225.1L586.9,223L593.3,220.9L599.7,218.9L606.1,216.8L612.5,214.8L618.9,212.7L625.3,210.6L631.7,208.6L638.1,206.5L644.5,204.4L650.9,202.4L657.3,200.3L663.7,198.2L670.2,196.2L676.6,194.1L683,192L689.4,190L695.8,187.9L702.2,185.8L708.6,183.8" clip-path="url(#axisBounds-1)" fill="none" stroke="#ccc"></path><text x="296.78" y="282" fill="#999" transform="rotate(-17.863913449807235,394.7,282)" clip-path="url(#axisBounds-1)">Correlation coefficient=0.53</text></g><g class="PointsWithLabels clickable" clip-path="url(#scatterBounds-2)" font-family="Arial Narrow, Arial, sans-serif"><rect x="74.352" y="92.1" width="640.648" height="406.9" fill="rgba(255,255,255,0)"></rect><defs><clipPath id="scatterBounds-2"><rect x="64.352" y="82.1" width="660.648" height="426.9"></rect></clipPath></defs><g class="key-United-Kingdom_0"><circle cx="634.00" cy="151.00" r="1.78" fill="#000" opacity="0.8" stroke="#333" stroke-width="0.7"></circle></g><g class="key-United-States_0"><circle cx="586.00" cy="146.00" r="1.78" fill="#000" opacity="0.8" stroke="#fff" stroke-width="0.7"></circle></g><g class="key-Switzerland_0"><circle cx="570.00" cy="499.00" r="1.78" fill="#000" opacity="0.8" stroke="#333" stroke-width="0.7"></circle></g><g class="key-Spain_0"><circle cx="474.00" cy="233.00" r="1.78" fill="#000" opacity="0.8" stroke="#333" stroke-width="0.7"></circle></g><g class="key-Norway_0"><circle cx="106.00" cy="469.00" r="1.78" fill="#000" opacity="0.8" stroke="#333" stroke-width="0.7"></circle></g><g class="key-Italy_0"><circle cx="634.00" cy="165.00" r="1.78" fill="#000" opacity="0.8" stroke="#333" stroke-width="0.7"></circle></g><g class="key-Germany_0"><circle cx="346.00" cy="263.00" r="1.78" fill="#000" opacity="0.8" stroke="#333" stroke-width="0.7"></circle></g><g class="key-France_0"><circle cx="490.00" cy="263.00" r="1.78" fill="#000" opacity="0.8" stroke="#333" stroke-width="0.7"></circle></g><g class="key-Finland_0"><circle cx="122.00" cy="447.00" r="1.78" fill="#000" opacity="0.8" stroke="#333" stroke-width="0.7"></circle></g><g class="key-Denmark_0"><circle cx="74.00" cy="455.00" r="1.78" fill="#000" opacity="0.8" stroke="#333" stroke-width="0.7"></circle></g><g class="key-Canada_0"><circle cx="138.00" cy="203.00" r="1.78" fill="#000" opacity="0.8" stroke="#333" stroke-width="0.7"></circle></g><g class="key-Australia_0"><circle cx="250.00" cy="219.00" r="1.78" fill="#000" opacity="0.8" stroke="#333" stroke-width="0.7"></circle></g><g class="backgroundLabels" fill="#333"><text x="634.00" y="148.22" font-size="11.00">United Kingdom</text><text x="570.00" y="496.22" font-size="11.00">Switzerland</text><text x="474.00" y="230.22" font-size="11.00">Spain</text><text x="106.00" y="466.22" font-size="11.00">Norway</text><text x="634.00" y="162.22" font-size="11.00">Italy</text><text x="346.00" y="260.22" font-size="11.00">Germany</text><text x="490.00" y="260.22" font-size="11.00">France</text><text x="122.00" y="444.22" font-size="11.00">Finland</text><text x="74.00" y="452.22" font-size="11.00">Denmark</text><text x="138.00" y="200.22" font-size="11.00">Canada</text><text x="250.00" y="216.22" font-size="11.00">Australia</text></g></g><g class="ScatterColorLegend clickable" style="cursor:pointer"></g></g><g class="SourcesFooter" style="fill:#777"><g class="clickable" style="fill:#777"><text font-size="12.60" x="15.0" y="567.9"><tspan x="15" y="567.88">Source: Corak (2013); Chen, Förster and Llena-Nozal (2013)</tspan></text></g><text font-size="12.60" x="15.0" y="582.5"><tspan x="15" y="582.48">Note: On the &#x27;Map&#x27; tab, Cross-sectional inequality (Gini coefficient) is represented</tspan></text><text font-size="12.60" x="661.4" y="567.9"><tspan x="661.372" y="567.88"><a target='_blank' style='fill: #777;' href='https://tinyco.re/1902099'>tinyco.re/1902099</a> • <a style="fill: #777;" class="cclogo" href="http://creativecommons.org/licenses/by-sa/4.0/deed.en_US" target="_blank">CC BY-SA</a></tspan></text></g></g></svg>