<svg xmlns="http://www.w3.org/2000/svg" version="1.1" style="font-family:Lato, &#x27;Helvetica Neue&#x27;, Helvetica, Arial, sans-serif;font-size:18px;background-color:white;text-rendering:optimizeLegibility;-webkit-font-smoothing:antialiased" width="850" height="600"><g class="HeaderView"><g transform="translate(774, 15) scale(0.29)"><svg width="210" height="120" viewBox="0 0 210 120" fill="none" xmlns="http://www.w3.org/2000/svg">
    <g clip-path="url(#clip0)">
        <path d="M0 0H210V107.89H0V0Z" fill="#002147"/>
        <path d="M40.9788 32.248C40.9788 34.6093 40.6048 36.78 39.8568 38.76C39.1088 40.7253 38.0528 42.4193 36.6888 43.842C35.3248 45.2647 33.6821 46.372 31.7608 47.164C29.8541 47.9413 27.7421 48.33 25.4248 48.33C23.1074 48.33 20.9954 47.9413 19.0888 47.164C17.1821 46.372 15.5468 45.2647 14.1828 43.842C12.8188 42.4193 11.7628 40.7253 11.0148 38.76C10.2668 36.78 9.89277 34.6093 9.89277 32.248C9.89277 29.8867 10.2668 27.7233 11.0148 25.758C11.7628 23.778 12.8188 22.0767 14.1828 20.654C15.5468 19.2167 17.1821 18.102 19.0888 17.31C20.9954 16.518 23.1074 16.122 25.4248 16.122C27.7421 16.122 29.8541 16.518 31.7608 17.31C33.6821 18.102 35.3248 19.2167 36.6888 20.654C38.0528 22.0767 39.1088 23.778 39.8568 25.758C40.6048 27.7233 40.9788 29.8867 40.9788 32.248ZM36.6008 32.248C36.6008 30.312 36.3368 28.574 35.8088 27.034C35.2808 25.494 34.5328 24.196 33.5648 23.14C32.5968 22.0693 31.4234 21.248 30.0448 20.676C28.6661 20.104 27.1261 19.818 25.4248 19.818C23.7381 19.818 22.2054 20.104 20.8268 20.676C19.4481 21.248 18.2674 22.0693 17.2848 23.14C16.3168 24.196 15.5688 25.494 15.0408 27.034C14.5128 28.574 14.2488 30.312 14.2488 32.248C14.2488 34.184 14.5128 35.922 15.0408 37.462C15.5688 38.9873 16.3168 40.2853 17.2848 41.356C18.2674 42.412 19.4481 43.226 20.8268 43.798C22.2054 44.3553 23.7381 44.634 25.4248 44.634C27.1261 44.634 28.6661 44.3553 30.0448 43.798C31.4234 43.226 32.5968 42.412 33.5648 41.356C34.5328 40.2853 35.2808 38.9873 35.8088 37.462C36.3368 35.922 36.6008 34.184 36.6008 32.248ZM62.8234 25.714V48H60.4914C59.9341 48 59.5821 47.7287 59.4354 47.186L59.1274 44.788C58.1594 45.8587 57.0741 46.724 55.8714 47.384C54.6687 48.0293 53.2901 48.352 51.7354 48.352C50.5181 48.352 49.4401 48.154 48.5014 47.758C47.5774 47.3473 46.8001 46.7753 46.1694 46.042C45.5387 45.3087 45.0621 44.4213 44.7394 43.38C44.4314 42.3387 44.2774 41.1873 44.2774 39.926V25.714H48.1934V39.926C48.1934 41.6127 48.5747 42.918 49.3374 43.842C50.1147 44.766 51.2954 45.228 52.8794 45.228C54.0381 45.228 55.1161 44.9567 56.1134 44.414C57.1254 43.8567 58.0567 43.094 58.9074 42.126V25.714H62.8234ZM71.4305 30.18C72.1346 28.6547 72.9999 27.4667 74.0266 26.616C75.0532 25.7507 76.3072 25.318 77.7886 25.318C78.2579 25.318 78.7052 25.3693 79.1306 25.472C79.5706 25.5747 79.9592 25.736 80.2966 25.956L80.0106 28.882C79.9226 29.2487 79.7026 29.432 79.3506 29.432C79.1452 29.432 78.8446 29.388 78.4486 29.3C78.0526 29.212 77.6052 29.168 77.1066 29.168C76.4026 29.168 75.7719 29.2707 75.2146 29.476C74.6719 29.6813 74.1806 29.9893 73.7406 30.4C73.3152 30.796 72.9266 31.2947 72.5746 31.896C72.2372 32.4827 71.9292 33.1573 71.6506 33.92V48H67.7125V25.714H69.9566C70.3819 25.714 70.6752 25.7947 70.8366 25.956C70.9979 26.1173 71.1079 26.396 71.1666 26.792L71.4305 30.18ZM132.589 16.474L122.755 48H118.927L110.941 23.954C110.867 23.7193 110.794 23.47 110.721 23.206C110.662 22.942 110.596 22.6633 110.523 22.37C110.449 22.6633 110.376 22.942 110.303 23.206C110.23 23.47 110.156 23.7193 110.083 23.954L102.053 48H98.2248L88.3908 16.474H91.9328C92.3142 16.474 92.6295 16.5693 92.8788 16.76C93.1428 16.9507 93.3115 17.1927 93.3848 17.486L99.8968 39.398C99.9995 39.794 100.095 40.2193 100.183 40.674C100.285 41.1287 100.381 41.6127 100.469 42.126C100.571 41.6127 100.674 41.1287 100.777 40.674C100.894 40.2047 101.019 39.7793 101.151 39.398L108.565 17.486C108.653 17.2367 108.821 17.0093 109.071 16.804C109.335 16.584 109.65 16.474 110.017 16.474H111.249C111.63 16.474 111.938 16.5693 112.173 16.76C112.407 16.9507 112.583 17.1927 112.701 17.486L120.093 39.398C120.225 39.7793 120.342 40.19 120.445 40.63C120.562 41.07 120.672 41.532 120.775 42.016C120.848 41.532 120.929 41.07 121.017 40.63C121.105 40.19 121.2 39.7793 121.303 39.398L127.837 17.486C127.91 17.222 128.072 16.9873 128.321 16.782C128.585 16.5767 128.9 16.474 129.267 16.474H132.589ZM141.94 25.362C143.568 25.362 145.034 25.6333 146.34 26.176C147.645 26.7187 148.76 27.4887 149.684 28.486C150.608 29.4833 151.312 30.6933 151.796 32.116C152.294 33.524 152.544 35.1007 152.544 36.846C152.544 38.606 152.294 40.19 151.796 41.598C151.312 43.006 150.608 44.2087 149.684 45.206C148.76 46.2033 147.645 46.9733 146.34 47.516C145.034 48.044 143.568 48.308 141.94 48.308C140.297 48.308 138.816 48.044 137.496 47.516C136.19 46.9733 135.076 46.2033 134.152 45.206C133.228 44.2087 132.516 43.006 132.018 41.598C131.534 40.19 131.292 38.606 131.292 36.846C131.292 35.1007 131.534 33.524 132.018 32.116C132.516 30.6933 133.228 29.4833 134.152 28.486C135.076 27.4887 136.19 26.7187 137.496 26.176C138.816 25.6333 140.297 25.362 141.94 25.362ZM141.94 45.25C144.14 45.25 145.782 44.5167 146.868 43.05C147.953 41.5687 148.496 39.508 148.496 36.868C148.496 34.2133 147.953 32.1453 146.868 30.664C145.782 29.1827 144.14 28.442 141.94 28.442C140.825 28.442 139.85 28.6327 139.014 29.014C138.192 29.3953 137.503 29.9453 136.946 30.664C136.403 31.3827 135.992 32.27 135.714 33.326C135.45 34.3673 135.318 35.548 135.318 36.868C135.318 39.508 135.86 41.5687 136.946 43.05C138.046 44.5167 139.71 45.25 141.94 45.25ZM159.908 30.18C160.612 28.6547 161.478 27.4667 162.504 26.616C163.531 25.7507 164.785 25.318 166.266 25.318C166.736 25.318 167.183 25.3693 167.608 25.472C168.048 25.5747 168.437 25.736 168.774 25.956L168.488 28.882C168.4 29.2487 168.18 29.432 167.828 29.432C167.623 29.432 167.322 29.388 166.926 29.3C166.53 29.212 166.083 29.168 165.584 29.168C164.88 29.168 164.25 29.2707 163.692 29.476C163.15 29.6813 162.658 29.9893 162.218 30.4C161.793 30.796 161.404 31.2947 161.052 31.896C160.715 32.4827 160.407 33.1573 160.128 33.92V48H156.19V25.714H158.434C158.86 25.714 159.153 25.7947 159.314 25.956C159.476 26.1173 159.586 26.396 159.644 26.792L159.908 30.18ZM174.946 15.594V48H171.03V15.594H174.946ZM194.496 31.016C193.763 30.0333 192.971 29.3513 192.12 28.97C191.269 28.574 190.316 28.376 189.26 28.376C187.192 28.376 185.601 29.1167 184.486 30.598C183.371 32.0793 182.814 34.1913 182.814 36.934C182.814 38.386 182.939 39.6327 183.188 40.674C183.437 41.7007 183.804 42.5513 184.288 43.226C184.772 43.886 185.366 44.37 186.07 44.678C186.774 44.986 187.573 45.14 188.468 45.14C189.759 45.14 190.881 44.8467 191.834 44.26C192.802 43.6733 193.689 42.8447 194.496 41.774V31.016ZM198.412 15.594V48H196.08C195.523 48 195.171 47.7287 195.024 47.186L194.672 44.48C193.719 45.624 192.633 46.548 191.416 47.252C190.199 47.956 188.791 48.308 187.192 48.308C185.916 48.308 184.757 48.066 183.716 47.582C182.675 47.0833 181.787 46.3573 181.054 45.404C180.321 44.4507 179.756 43.2627 179.36 41.84C178.964 40.4173 178.766 38.782 178.766 36.934C178.766 35.2913 178.986 33.766 179.426 32.358C179.866 30.9353 180.497 29.7033 181.318 28.662C182.139 27.6207 183.144 26.8067 184.332 26.22C185.535 25.6187 186.884 25.318 188.38 25.318C189.744 25.318 190.91 25.5527 191.878 26.022C192.861 26.4767 193.733 27.1147 194.496 27.936V15.594H198.412ZM46.6139 70.714V93H42.6979V70.714H46.6139ZM47.4499 63.718C47.4499 64.0993 47.3692 64.4587 47.2079 64.796C47.0612 65.1187 46.8559 65.412 46.5919 65.676C46.3425 65.9253 46.0419 66.1233 45.6899 66.27C45.3525 66.4167 44.9932 66.49 44.6119 66.49C44.2305 66.49 43.8712 66.4167 43.5339 66.27C43.2112 66.1233 42.9252 65.9253 42.6759 65.676C42.4265 65.412 42.2285 65.1187 42.0819 64.796C41.9352 64.4587 41.8619 64.0993 41.8619 63.718C41.8619 63.3367 41.9352 62.9773 42.0819 62.64C42.2285 62.288 42.4265 61.9873 42.6759 61.738C42.9252 61.474 43.2112 61.2687 43.5339 61.122C43.8712 60.9753 44.2305 60.902 44.6119 60.902C44.9932 60.902 45.3525 60.9753 45.6899 61.122C46.0419 61.2687 46.3425 61.474 46.5919 61.738C46.8559 61.9873 47.0612 62.288 47.2079 62.64C47.3692 62.9773 47.4499 63.3367 47.4499 63.718ZM55.4242 73.948C55.9082 73.4053 56.4215 72.914 56.9642 72.474C57.5068 72.034 58.0788 71.66 58.6802 71.352C59.2962 71.0293 59.9415 70.7873 60.6162 70.626C61.3055 70.45 62.0462 70.362 62.8382 70.362C64.0555 70.362 65.1262 70.5673 66.0502 70.978C66.9888 71.374 67.7662 71.946 68.3822 72.694C69.0128 73.4273 69.4895 74.3147 69.8122 75.356C70.1348 76.3973 70.2962 77.5487 70.2962 78.81V93H66.3582V78.81C66.3582 77.1233 65.9695 75.818 65.1922 74.894C64.4295 73.9553 63.2635 73.486 61.6942 73.486C60.5355 73.486 59.4502 73.7647 58.4382 74.322C57.4408 74.8793 56.5168 75.6347 55.6662 76.588V93H51.7282V70.714H54.0822C54.6395 70.714 54.9842 70.9853 55.1162 71.528L55.4242 73.948ZM113.129 77.248C113.129 79.6093 112.755 81.758 112.007 83.694C111.259 85.63 110.203 87.2873 108.839 88.666C107.475 90.0447 105.832 91.1153 103.911 91.878C102.004 92.626 99.8925 93 97.5751 93H85.8051V61.474H97.5751C99.8925 61.474 102.004 61.8553 103.911 62.618C105.832 63.366 107.475 64.4367 108.839 65.83C110.203 67.2087 111.259 68.866 112.007 70.802C112.755 72.738 113.129 74.8867 113.129 77.248ZM108.751 77.248C108.751 75.312 108.487 73.5813 107.959 72.056C107.431 70.5307 106.683 69.24 105.715 68.184C104.747 67.128 103.574 66.3213 102.195 65.764C100.816 65.2067 99.2765 64.928 97.5751 64.928H90.0731V89.546H97.5751C99.2765 89.546 100.816 89.2673 102.195 88.71C103.574 88.1527 104.747 87.3533 105.715 86.312C106.683 85.256 107.431 83.9653 107.959 82.44C108.487 80.9147 108.751 79.184 108.751 77.248ZM128.553 82.968C126.749 83.0267 125.209 83.1733 123.933 83.408C122.672 83.628 121.638 83.9213 120.831 84.288C120.039 84.6547 119.46 85.0873 119.093 85.586C118.741 86.0847 118.565 86.642 118.565 87.258C118.565 87.8447 118.661 88.3507 118.851 88.776C119.042 89.2013 119.299 89.5533 119.621 89.832C119.959 90.096 120.347 90.294 120.787 90.426C121.242 90.5433 121.726 90.602 122.239 90.602C122.929 90.602 123.559 90.536 124.131 90.404C124.703 90.2573 125.239 90.052 125.737 89.788C126.251 89.524 126.735 89.2087 127.189 88.842C127.659 88.4753 128.113 88.0573 128.553 87.588V82.968ZM115.903 73.86C117.135 72.672 118.463 71.7847 119.885 71.198C121.308 70.6113 122.885 70.318 124.615 70.318C125.862 70.318 126.969 70.5233 127.937 70.934C128.905 71.3447 129.719 71.9167 130.379 72.65C131.039 73.3833 131.538 74.2707 131.875 75.312C132.213 76.3533 132.381 77.4973 132.381 78.744V93H130.643C130.262 93 129.969 92.9413 129.763 92.824C129.558 92.692 129.397 92.4427 129.279 92.076L128.839 89.964C128.253 90.5067 127.681 90.9907 127.123 91.416C126.566 91.8267 125.979 92.1787 125.363 92.472C124.747 92.7507 124.087 92.9633 123.383 93.11C122.694 93.2713 121.924 93.352 121.073 93.352C120.208 93.352 119.394 93.2347 118.631 93C117.869 92.7507 117.201 92.384 116.629 91.9C116.072 91.416 115.625 90.8073 115.287 90.074C114.965 89.326 114.803 88.446 114.803 87.434C114.803 86.554 115.045 85.7107 115.529 84.904C116.013 84.0827 116.798 83.3567 117.883 82.726C118.969 82.0953 120.384 81.582 122.129 81.186C123.875 80.7753 126.016 80.5407 128.553 80.482V78.744C128.553 77.0133 128.179 75.708 127.431 74.828C126.683 73.9333 125.591 73.486 124.153 73.486C123.185 73.486 122.371 73.6107 121.711 73.86C121.066 74.0947 120.501 74.366 120.017 74.674C119.548 74.9673 119.137 75.2387 118.785 75.488C118.448 75.7227 118.111 75.84 117.773 75.84C117.509 75.84 117.282 75.774 117.091 75.642C116.901 75.4953 116.739 75.3193 116.607 75.114L115.903 73.86ZM143.568 93.352C141.808 93.352 140.451 92.8607 139.498 91.878C138.559 90.8953 138.09 89.48 138.09 87.632V73.992H135.406C135.171 73.992 134.973 73.926 134.812 73.794C134.65 73.6473 134.57 73.4273 134.57 73.134V71.572L138.222 71.11L139.124 64.224C139.168 64.004 139.263 63.828 139.41 63.696C139.571 63.5493 139.776 63.476 140.026 63.476H142.006V71.154H148.452V73.992H142.006V87.368C142.006 88.3067 142.233 89.0033 142.688 89.458C143.142 89.9127 143.729 90.14 144.448 90.14C144.858 90.14 145.21 90.0887 145.504 89.986C145.812 89.8687 146.076 89.744 146.296 89.612C146.516 89.48 146.699 89.3627 146.846 89.26C147.007 89.1427 147.146 89.084 147.264 89.084C147.469 89.084 147.652 89.2087 147.814 89.458L148.958 91.328C148.283 91.9587 147.469 92.4573 146.516 92.824C145.562 93.176 144.58 93.352 143.568 93.352ZM163.253 82.968C161.449 83.0267 159.909 83.1733 158.633 83.408C157.372 83.628 156.338 83.9213 155.531 84.288C154.739 84.6547 154.16 85.0873 153.793 85.586C153.441 86.0847 153.265 86.642 153.265 87.258C153.265 87.8447 153.36 88.3507 153.551 88.776C153.742 89.2013 153.998 89.5533 154.321 89.832C154.658 90.096 155.047 90.294 155.487 90.426C155.942 90.5433 156.426 90.602 156.939 90.602C157.628 90.602 158.259 90.536 158.831 90.404C159.403 90.2573 159.938 90.052 160.437 89.788C160.95 89.524 161.434 89.2087 161.889 88.842C162.358 88.4753 162.813 88.0573 163.253 87.588V82.968ZM150.603 73.86C151.835 72.672 153.162 71.7847 154.585 71.198C156.008 70.6113 157.584 70.318 159.315 70.318C160.562 70.318 161.669 70.5233 162.637 70.934C163.605 71.3447 164.419 71.9167 165.079 72.65C165.739 73.3833 166.238 74.2707 166.575 75.312C166.912 76.3533 167.081 77.4973 167.081 78.744V93H165.343C164.962 93 164.668 92.9413 164.463 92.824C164.258 92.692 164.096 92.4427 163.979 92.076L163.539 89.964C162.952 90.5067 162.38 90.9907 161.823 91.416C161.266 91.8267 160.679 92.1787 160.063 92.472C159.447 92.7507 158.787 92.9633 158.083 93.11C157.394 93.2713 156.624 93.352 155.773 93.352C154.908 93.352 154.094 93.2347 153.331 93C152.568 92.7507 151.901 92.384 151.329 91.9C150.772 91.416 150.324 90.8073 149.987 90.074C149.664 89.326 149.503 88.446 149.503 87.434C149.503 86.554 149.745 85.7107 150.229 84.904C150.713 84.0827 151.498 83.3567 152.583 82.726C153.668 82.0953 155.084 81.582 156.829 81.186C158.574 80.7753 160.716 80.5407 163.253 80.482V78.744C163.253 77.0133 162.879 75.708 162.131 74.828C161.383 73.9333 160.29 73.486 158.853 73.486C157.885 73.486 157.071 73.6107 156.411 73.86C155.766 74.0947 155.201 74.366 154.717 74.674C154.248 74.9673 153.837 75.2387 153.485 75.488C153.148 75.7227 152.81 75.84 152.473 75.84C152.209 75.84 151.982 75.774 151.791 75.642C151.6 75.4953 151.439 75.3193 151.307 75.114L150.603 73.86Z" fill="white"/>
        <rect y="106.789" width="210" height="13.211" fill="#D42B21"/>
    </g>
    <defs>
        <clipPath id="clip0">
            <rect width="210" height="120" fill="white"/>
        </clipPath>
    </defs>
</svg></g><a href="https://ourworldindata.org/grapher/land-area-per-crop-type" target="_blank"><text font-size="25.20" x="15.0" y="35.2" fill="#555"><tspan x="15" y="35.160000000000004">Land area per crop type, World</tspan></text></a></g><g class="LineChart"><defs><clipPath id="boundsClip-11"><rect x="110.278" y="0" width="830" height="973"></rect></clipPath></defs><g class="AxisBoxView"><g class="HorizontalAxis"><text x="120.3" y="556.5" fill="#666" text-anchor="middle" font-size="16.2">1961</text><text x="223.7" y="556.5" fill="#666" text-anchor="middle" font-size="16.2">1970</text><text x="338.5" y="556.5" fill="#666" text-anchor="middle" font-size="16.2">1980</text><text x="453.4" y="556.5" fill="#666" text-anchor="middle" font-size="16.2">1990</text><text x="568.3" y="556.5" fill="#666" text-anchor="middle" font-size="16.2">2000</text><text x="683.2" y="556.5" fill="#666" text-anchor="middle" font-size="16.2">2010</text><text x="729.1" y="556.5" fill="#666" text-anchor="middle" font-size="16.2">2014</text></g><g class="VerticalAxis"><text x="115.28" y="535.3" fill="#666" dominant-baseline="middle" text-anchor="end" font-size="16.2">0 ha</text><text x="115.28" y="438" fill="#666" dominant-baseline="middle" text-anchor="end" font-size="16.2">50 million ha</text><text x="115.28" y="340.7" fill="#666" dominant-baseline="middle" text-anchor="end" font-size="16.2">100 million ha</text><text x="115.28" y="243.5" fill="#666" dominant-baseline="middle" text-anchor="end" font-size="16.2">150 million ha</text><text x="115.28" y="146.2" fill="#666" dominant-baseline="middle" text-anchor="end" font-size="16.2">200 million ha</text></g><g class="AxisGridLines"><line x1="120.28" y1="535.3" x2="729.13" y2="535.3" stroke="#ccc"></line><line x1="120.28" y1="438" x2="729.13" y2="438" stroke="#ddd" stroke-dasharray="3,2"></line><line x1="120.28" y1="340.7" x2="729.13" y2="340.7" stroke="#ddd" stroke-dasharray="3,2"></line><line x1="120.28" y1="243.5" x2="729.13" y2="243.5" stroke="#ddd" stroke-dasharray="3,2"></line><line x1="120.28" y1="146.2" x2="729.13" y2="146.2" stroke="#ddd" stroke-dasharray="3,2"></line></g></g><g clip-path="url(#boundsClip-11)"><g class="HeightedLegend" style="cursor:default"><g class="legendMark"><g class="indicator"><path d="M733.125,106.5 H746.625 V106.5 H760.125" stroke="#999" stroke-width="0.5" fill="none"></path></g><rect x="729.125" y="99.75" width="74.15" height="13.5" fill="#fff" opacity="0"></rect><text font-size="13.50" x="764.1" y="110.5" fill="#9ecc8a"><tspan x="764.125" y="110.55">Wheat</tspan></text></g><g class="legendMark"><g class="indicator"><path d="M733.125,175.8 H746.625 V175.8 H760.125" stroke="#999" stroke-width="0.5" fill="none"></path></g><rect x="729.125" y="169.05" width="71.045" height="13.5" fill="#fff" opacity="0"></rect><text font-size="13.50" x="764.1" y="179.9" fill="#fceb8c"><tspan x="764.125" y="179.85000000000002">Maize</tspan></text></g><g class="legendMark"><g class="indicator"><path d="M733.125,306.6 H734.7132352941177 V280.55 H760.125" stroke="#999" stroke-width="0.5" fill="none"></path></g><rect x="729.125" y="273.8" width="95.345" height="13.5" fill="#fff" opacity="0"></rect><text font-size="13.50" x="764.1" y="284.6" fill="#818282"><tspan x="764.125" y="284.6">Soybeans</tspan></text></g><g class="legendMark"><g class="indicator"><path d="M733.125,439.1 H736.3014705882354 V296.05 H760.125" stroke="#999" stroke-width="0.5" fill="none"></path></g><rect x="729.125" y="289.3" width="73.34" height="13.5" fill="#fff" opacity="0"></rect><text font-size="13.50" x="764.1" y="300.1" fill="#5eb77e"><tspan x="764.125" y="300.1">Barley</tspan></text></g><g class="legendMark"><g class="indicator"><path d="M733.125,465 H737.8897058823529 V311.55 H760.125" stroke="#999" stroke-width="0.5" fill="none"></path></g><rect x="729.125" y="304.8" width="96.83000000000001" height="13.5" fill="#fff" opacity="0"></rect><text font-size="13.50" x="764.1" y="315.6" fill="#ce8ebd"><tspan x="764.125" y="315.6">Rapeseed</tspan></text></g><g class="legendMark"><g class="indicator"><path d="M733.125,474.1 H739.4779411764706 V327.05 H760.125" stroke="#999" stroke-width="0.5" fill="none"></path></g><rect x="729.125" y="320.3" width="66.455" height="13.5" fill="#fff" opacity="0"></rect><text font-size="13.50" x="764.1" y="331.1" fill="#f07f59"><tspan x="764.125" y="331.1">Millet</tspan></text></g><g class="legendMark"><g class="indicator"><path d="M733.125,475.7 H741.0661764705883 V342.55 H760.125" stroke="#999" stroke-width="0.5" fill="none"></path></g><rect x="729.125" y="335.8" width="73.475" height="13.5" fill="#fff" opacity="0"></rect><text font-size="13.50" x="764.1" y="346.6" fill="#6bb537"><tspan x="764.125" y="346.6">Beans</tspan></text></g><g class="legendMark"><g class="indicator"><path d="M733.125,482.5 H742.654411764706 V358.05 H760.125" stroke="#999" stroke-width="0.5" fill="none"></path></g><rect x="729.125" y="351.3" width="104.39" height="13.5" fill="#fff" opacity="0"></rect><text font-size="13.50" x="764.1" y="362.1" fill="#e6332e"><tspan x="764.125" y="362.1">Sugar cane</tspan></text></g><g class="legendMark"><g class="indicator"><path d="M733.125,483.7 H744.2426470588235 V373.55 H760.125" stroke="#999" stroke-width="0.5" fill="none"></path></g><rect x="729.125" y="366.8" width="105.875" height="13.5" fill="#fff" opacity="0"></rect><text font-size="13.50" x="764.1" y="377.6" fill="#7ec7ce"><tspan x="764.125" y="377.6">Groundnuts</tspan></text></g><g class="legendMark"><g class="indicator"><path d="M733.125,488.9 H745.8308823529412 V389.05 H760.125" stroke="#999" stroke-width="0.5" fill="none"></path></g><rect x="729.125" y="382.3" width="87.65" height="13.5" fill="#fff" opacity="0"></rect><text font-size="13.50" x="764.1" y="393.1" fill="#b077b1"><tspan x="764.125" y="393.1">Cassava</tspan></text></g><g class="legendMark"><g class="indicator"><path d="M733.125,498.1 H747.4191176470589 V404.55 H760.125" stroke="#999" stroke-width="0.5" fill="none"></path></g><rect x="729.125" y="397.8" width="88.595" height="13.5" fill="#fff" opacity="0"></rect><text font-size="13.50" x="764.1" y="408.6" fill="#ffd53e"><tspan x="764.125" y="408.6">Potatoes</tspan></text></g><g class="legendMark"><g class="indicator"><path d="M733.125,516.6 H749.0073529411765 V420.05 H760.125" stroke="#999" stroke-width="0.5" fill="none"></path></g><rect x="729.125" y="413.3" width="63.620000000000005" height="13.5" fill="#fff" opacity="0"></rect><text font-size="13.50" x="764.1" y="424.1" fill="#9ecc8a"><tspan x="764.125" y="424.1">Oats</tspan></text></g><g class="legendMark"><g class="indicator"><path d="M733.125,521.8 H750.5955882352941 V435.55 H760.125" stroke="#999" stroke-width="0.5" fill="none"></path></g><rect x="729.125" y="428.8" width="65.915" height="13.5" fill="#fff" opacity="0"></rect><text font-size="13.50" x="764.1" y="439.6" fill="#e6332e"><tspan x="764.125" y="439.6">Peas</tspan></text></g><g class="legendMark"><g class="indicator"><path d="M733.125,524.8 H752.1838235294118 V451.05 H760.125" stroke="#999" stroke-width="0.5" fill="none"></path></g><rect x="729.125" y="444.3" width="88.595" height="13.5" fill="#fff" opacity="0"></rect><text font-size="13.50" x="764.1" y="455.1" fill="#2a939b"><tspan x="764.125" y="455.1">Bananas</tspan></text></g><g class="legendMark"><g class="indicator"><path d="M733.125,525 H753.7720588235294 V466.55 H760.125" stroke="#999" stroke-width="0.5" fill="none"></path></g><rect x="729.125" y="459.8" width="59.03" height="13.5" fill="#fff" opacity="0"></rect><text font-size="13.50" x="764.1" y="470.6" fill="#a652ba"><tspan x="764.125" y="470.6">Rye</tspan></text></g><g class="legendMark"><g class="indicator"><path d="M733.125,525.5 H755.3602941176471 V482.05 H760.125" stroke="#999" stroke-width="0.5" fill="none"></path></g><rect x="729.125" y="475.3" width="95.21000000000001" height="13.5" fill="#fff" opacity="0"></rect><text font-size="13.50" x="764.1" y="486.1" fill="#34983f"><tspan x="764.125" y="486.1">Tomatoes</tspan></text></g><g class="legendMark"><g class="indicator"><path d="M733.125,525.5 H756.9485294117648 V497.55 H760.125" stroke="#999" stroke-width="0.5" fill="none"></path></g><rect x="729.125" y="490.8" width="76.445" height="13.5" fill="#fff" opacity="0"></rect><text font-size="13.50" x="764.1" y="501.6" fill="#f6a324"><tspan x="764.125" y="501.6">Apples</tspan></text></g><g class="legendMark"><g class="indicator"><path d="M733.125,526.5 H758.5367647058824 V513.05 H760.125" stroke="#999" stroke-width="0.5" fill="none"></path></g><rect x="729.125" y="506.3" width="74.15" height="13.5" fill="#fff" opacity="0"></rect><text font-size="13.50" x="764.1" y="517.1" fill="#ca2628"><tspan x="764.125" y="517.0999999999999">Lentils</tspan></text></g><g class="legendMark"><g class="indicator"><path d="M733.125,526.6 H758.5367647058824 V528.55 H760.125" stroke="#999" stroke-width="0.5" fill="none"></path></g><rect x="729.125" y="521.8" width="101.42" height="13.5" fill="#fff" opacity="0"></rect><text font-size="13.50" x="764.1" y="532.6" fill="#3360a9"><tspan x="764.125" y="532.5999999999999">Sugar beet</tspan></text></g></g><g class="Lines"><rect x="120" y="70" width="609" height="465" fill="rgba(255,255,255,0)" opacity="0"></rect><g class="key-World_0"><path stroke="#9ecc8a" stroke-linecap="round" d="M120 138L132 132L143 134L155 114L166 113L178 116L189 108L201 98L212 112L224 131L235 119L247 119L258 109L270 103L281 94L293 79L304 91L316 89L327 91L339 74L350 70L362 71L373 87L385 86L396 88L408 92L419 106L430 110L442 94L453 86L465 98L476 102L488 103L499 118L511 114L522 98L534 92L545 107L557 122L568 117L580 119L591 118L603 131L614 115L626 106L637 126L649 114L660 100L672 96L683 115L695 107L706 109L718 111L729 107" fill="none" stroke-width="1.5"></path></g><g class="key-World_1"><path stroke="#5eb77e" stroke-linecap="round" d="M120 429L132 423L143 412L155 416L166 419L178 417L189 417L201 412L212 407L224 407L235 404L247 393L258 388L270 387L281 380L293 378L304 376L316 379L327 373L339 383L350 377L362 384L373 381L385 383L396 381L408 381L419 383L430 389L442 392L453 392L465 387L476 392L488 391L499 395L511 403L522 408L534 412L545 425L557 432L568 430L580 426L591 428L603 423L614 423L626 428L637 426L649 427L660 428L672 430L683 443L695 441L706 440L718 439L729 439" fill="none" stroke-width="1.5"></path></g><g class="key-World_10"><path stroke="#3360a9" stroke-linecap="round" d="M120 522L132 522L143 521L155 519L166 520L178 520L189 520L201 520L212 520L224 521L235 521L247 520L258 519L270 519L281 518L293 517L304 518L316 518L327 518L339 518L350 517L362 518L373 518L385 518L396 519L408 518L419 518L430 519L442 519L453 519L465 519L476 519L488 520L499 520L511 520L522 520L534 522L545 522L557 522L568 524L580 524L591 524L603 524L614 525L626 525L637 525L649 525L660 527L672 527L683 526L695 525L706 526L718 527L729 527" fill="none" stroke-width="1.5"></path></g><g class="key-World_11"><path stroke="#6bb537" stroke-linecap="round" d="M120 491L132 490L143 489L155 487L166 488L178 489L189 489L201 490L212 491L224 490L235 490L247 491L258 489L270 489L281 488L293 490L304 488L316 488L327 490L339 486L350 484L362 484L373 486L385 484L396 484L408 484L419 486L430 483L442 484L453 484L465 483L476 487L488 487L499 484L511 485L522 485L534 486L545 488L557 489L568 489L580 489L591 482L603 480L614 482L626 483L637 481L649 478L660 483L672 485L683 475L695 475L706 479L718 478L729 476" fill="none" stroke-width="1.5"></path></g><g class="key-World_12"><path stroke="#e6332e" stroke-linecap="round" d="M120 518L132 518L143 518L155 517L166 516L178 515L189 516L201 517L212 516L224 514L235 514L247 514L258 514L270 512L281 512L293 511L304 510L316 509L327 509L339 510L350 509L362 506L373 505L385 505L396 504L408 505L419 504L430 503L442 503L453 502L465 501L476 500L488 502L499 501L511 499L522 498L534 498L545 498L557 498L568 498L580 497L591 496L603 495L614 496L626 497L637 495L649 491L660 488L672 489L683 489L695 486L706 484L718 483L729 483" fill="none" stroke-width="1.5"></path></g><g class="key-World_13"><path stroke="#e6332e" stroke-linecap="round" d="M120 521L132 515L143 509L155 510L166 516L178 518L189 519L201 520L212 520L224 520L235 520L247 520L258 519L270 520L281 520L293 521L304 520L316 521L327 521L339 522L350 520L362 521L373 519L385 518L396 518L408 517L419 516L430 516L442 517L453 518L465 520L476 521L488 521L499 520L511 521L522 523L534 523L545 523L557 524L568 524L580 523L591 524L603 523L614 523L626 523L637 523L649 523L660 523L672 523L683 523L695 523L706 522L718 522L729 522" fill="none" stroke-width="1.5"></path></g><g class="key-World_14"><path stroke="#34983f" stroke-linecap="round" d="M120 532L132 532L143 532L155 532L166 532L178 532L189 532L201 532L212 532L224 532L235 532L247 532L258 531L270 531L281 531L293 531L304 531L316 531L327 531L339 531L350 531L362 530L373 530L385 530L396 530L408 530L419 530L430 530L442 529L453 530L465 530L476 530L488 529L499 529L511 529L522 529L534 529L545 528L557 528L568 528L580 528L591 528L603 527L614 527L626 527L637 527L649 527L660 527L672 527L683 527L695 526L706 526L718 526L729 526" fill="none" stroke-width="1.5"></path></g><g class="key-World_15"><path stroke="#7ec7ce" stroke-linecap="round" d="M120 503L132 501L143 500L155 499L166 497L178 497L189 497L201 498L212 498L224 497L235 496L247 496L258 497L270 497L281 496L293 499L304 499L316 498L327 499L339 500L350 498L362 499L373 499L385 500L396 499L408 498L419 499L430 495L442 496L453 497L465 495L476 495L488 494L499 493L511 492L522 492L534 492L545 490L557 491L568 490L580 490L591 491L603 491L614 489L626 488L637 493L649 491L660 488L672 488L683 484L695 487L706 486L718 483L729 484" fill="none" stroke-width="1.5"></path></g><g class="key-World_16"><path stroke="#f6a324" stroke-linecap="round" d="M120 532L132 532L143 532L155 532L166 531L178 531L189 531L201 531L212 531L224 530L235 530L247 530L258 529L270 529L281 529L293 529L304 529L316 529L327 528L339 528L350 528L362 528L373 528L385 528L396 527L408 526L419 526L430 525L442 525L453 525L465 526L476 525L488 525L499 524L511 523L522 523L534 524L545 524L557 524L568 525L580 525L591 526L603 526L614 526L626 526L637 526L649 526L660 526L672 526L683 526L695 526L706 526L718 525L729 526" fill="none" stroke-width="1.5"></path></g><g class="key-World_17"><path stroke="#2a939b" stroke-linecap="round" d="M120 531L132 531L143 531L155 531L166 531L178 531L189 531L201 531L212 530L224 530L235 530L247 530L258 530L270 530L281 530L293 530L304 530L316 530L327 530L339 530L350 530L362 530L373 530L385 530L396 530L408 529L419 529L430 529L442 529L453 528L465 528L476 527L488 528L499 528L511 528L522 528L534 527L545 527L557 527L568 526L580 527L591 526L603 526L614 526L626 526L637 526L649 526L660 525L672 525L683 525L695 525L706 525L718 525L729 525" fill="none" stroke-width="1.5"></path></g><g class="key-World_18"><path stroke="#ce8ebd" stroke-linecap="round" d="M120 523L132 523L143 523L155 522L166 522L178 522L189 522L201 522L212 522L224 519L235 517L247 518L258 518L270 518L281 516L293 519L304 518L316 514L327 512L339 514L350 512L362 510L373 510L385 509L396 507L408 506L419 504L430 501L442 502L453 501L465 497L476 496L488 497L499 491L511 489L522 493L534 490L545 485L557 482L568 485L580 491L591 491L603 490L614 486L626 481L637 482L649 477L660 476L672 473L683 473L695 470L706 469L718 465L729 465" fill="none" stroke-width="1.5"></path></g><g class="key-World_2"><path stroke="#f07f59" stroke-linecap="round" d="M120 451L132 452L143 450L155 451L166 451L178 451L189 447L201 451L212 447L224 448L235 451L247 455L258 447L270 453L281 455L293 457L304 457L316 459L327 463L339 461L350 463L362 466L373 462L385 466L396 464L408 462L419 469L430 459L442 462L453 462L465 464L476 462L488 466L499 461L511 465L522 465L534 465L545 464L557 465L568 463L580 467L591 471L603 462L614 469L626 466L637 465L649 466L660 466L672 469L683 465L695 469L706 475L718 476L729 474" fill="none" stroke-width="1.5"></path></g><g class="key-World_3"><path stroke="#fceb8c" stroke-linecap="round" d="M120 330L132 334L143 324L155 325L166 328L178 319L189 317L201 318L212 319L224 315L235 305L247 312L258 308L270 302L281 299L293 294L304 292L316 293L327 295L339 291L350 287L362 293L373 306L385 287L396 281L408 279L419 282L430 282L442 279L453 280L465 275L476 269L488 280L499 267L511 271L522 264L534 261L545 265L557 268L568 269L580 268L591 268L603 254L614 249L626 247L637 250L649 227L660 219L672 227L683 216L695 202L706 188L718 174L729 176" fill="none" stroke-width="1.5"></path></g><g class="key-World_4"><path stroke="#9ecc8a" stroke-linecap="round" d="M120 461L132 470L143 475L155 478L166 478L178 478L189 477L201 476L212 476L224 476L235 478L247 478L258 476L270 480L281 478L293 482L304 479L316 483L327 485L339 487L350 484L362 485L373 485L385 487L396 487L408 488L419 490L430 493L442 492L453 495L465 496L476 497L488 499L499 498L511 502L522 503L534 505L545 509L557 511L568 511L580 510L591 511L603 512L614 513L626 513L637 513L649 512L660 513L672 516L683 518L695 517L706 517L718 516L729 517" fill="none" stroke-width="1.5"></path></g><g class="key-World_5"><path stroke="#a652ba" stroke-linecap="round" d="M120 476L132 476L143 481L155 478L166 480L178 486L189 489L201 490L212 496L224 496L235 496L247 500L258 503L270 499L281 504L293 502L304 506L316 504L327 508L339 504L350 506L362 502L373 500L385 502L396 503L408 505L419 503L430 504L442 502L453 503L465 508L476 506L488 509L499 514L511 514L522 514L534 514L545 515L557 517L568 516L580 516L591 518L603 522L614 522L626 522L637 524L649 523L660 522L672 522L683 526L695 525L706 525L718 524L729 525" fill="none" stroke-width="1.5"></path></g><g class="key-World_6"><path stroke="#b077b1" stroke-linecap="round" d="M120 517L132 516L143 515L155 515L166 514L178 515L189 514L201 514L212 513L224 513L235 512L247 512L258 511L270 510L281 510L293 510L304 510L316 509L327 509L339 509L350 509L362 508L373 509L385 508L396 508L408 508L419 508L430 507L442 505L453 506L465 504L476 503L488 503L499 503L511 503L522 504L534 504L545 503L557 503L568 502L580 502L591 502L603 501L614 500L626 499L637 499L649 498L660 498L672 498L683 497L695 495L706 490L718 490L729 489" fill="none" stroke-width="1.5"></path></g><g class="key-World_7"><path stroke="#818282" stroke-linecap="round" d="M120 489L132 489L143 488L155 485L166 485L178 484L189 481L201 479L212 479L224 478L235 477L247 474L258 463L270 463L281 460L293 463L304 454L316 445L327 437L339 437L350 437L362 433L373 440L385 432L396 432L408 434L419 433L430 429L442 421L453 424L465 428L476 426L488 420L499 414L511 414L522 416L534 405L545 397L557 395L568 391L580 386L591 382L603 373L614 357L626 355L637 350L649 360L660 348L672 342L683 335L695 333L706 330L718 319L729 307" fill="none" stroke-width="1.5"></path></g><g class="key-World_8"><path stroke="#ffd53e" stroke-linecap="round" d="M120 492L132 492L143 493L155 493L166 494L178 494L189 494L201 494L212 495L224 495L235 496L247 496L258 496L270 496L281 497L293 498L304 498L316 498L327 498L339 499L350 499L362 499L373 499L385 499L396 499L408 500L419 500L430 500L442 500L453 501L465 501L476 499L488 499L499 500L511 500L522 499L534 499L545 499L557 497L568 496L580 497L591 498L603 498L614 498L626 498L637 499L649 499L660 500L672 499L683 499L695 498L706 498L718 498L729 498" fill="none" stroke-width="1.5"></path></g><g class="key-World_9"><path stroke="#ca2628" stroke-linecap="round" d="M120 532L132 532L143 532L155 532L166 532L178 532L189 532L201 532L212 532L224 532L235 532L247 532L258 532L270 531L281 531L293 531L304 531L316 531L327 531L339 531L350 531L362 530L373 530L385 530L396 530L408 529L419 529L430 529L442 529L453 529L465 529L476 529L488 529L499 529L511 529L522 529L534 529L545 529L557 528L568 528L580 528L591 528L603 528L614 528L626 527L637 528L649 528L660 529L672 528L683 527L695 527L706 527L718 527L729 527" fill="none" stroke-width="1.5"></path></g></g></g></g><g class="SourcesFooter" style="fill:#777"><g class="clickable" style="fill:#777"><text font-size="12.60" x="15.0" y="581.6"><tspan x="15" y="581.58">Source: UN Food and Agriculture Organization (FAO)</tspan></text></g><text font-size="12.60" x="796.4" y="581.6"><tspan x="796.444" y="581.58"><a style="fill: #777;" class="cclogo" href="http://creativecommons.org/licenses/by/4.0/deed.en_US" target="_blank">CC BY</a></tspan></text></g></svg>