<svg xmlns="http://www.w3.org/2000/svg" version="1.1" style="font-family: 'Helvetica Neue', Helvetica, Arial, sans-serif; font-size: 18px; background-color: white; text-rendering: optimizeLegibility; -webkit-font-smoothing: antialiased;" width="850" height="600"><g class="ChartTab"><g class="HeaderView"><g opacity="0.8" transform="translate(778, 15) scale(0.27)"><a xmlns:xlink="http://www.w3.org/1999/xlink" xlink:href="https://ourworldindata.org" target="_blank"><g><rect x="0" y="0" fill="#1B2543" width="211.2" height="130.1"/><rect x="0" y="112.2" fill="#E63912" width="211.2" height="17.9"/><g><rect x="1.2" y="12.3" fill="none" width="210.2" height="99.2"/><path fill="#FFFFFF" d="M37.8,32.2c0,12.7-7.7,19.4-17.1,19.4c-9.7,0-16.6-7.5-16.6-18.7c0-11.7,7.3-19.3,17.1-19.3 C31.3,13.7,37.8,21.3,37.8,32.2z M9.2,32.8c0,7.9,4.3,14.9,11.8,14.9c7.5,0,11.8-6.9,11.8-15.3c0-7.3-3.8-14.9-11.8-14.9 C13.1,17.5,9.2,24.8,9.2,32.8z"/><path fill="#FFFFFF" d="M62.7,43.8c0,2.7,0.1,5.1,0.2,7.2h-4.3l-0.3-4.3h-0.1c-1.3,2.1-4,4.9-8.8,4.9c-4.2,0-9.1-2.3-9.1-11.6 V24.6h4.8v14.6c0,5,1.5,8.4,5.9,8.4c3.2,0,5.5-2.2,6.3-4.4c0.3-0.7,0.4-1.6,0.4-2.5V24.6h4.8V43.8z"/><path fill="#FFFFFF" d="M67.3,32.8c0-3.1-0.1-5.8-0.2-8.2h4.2l0.2,5.2h0.2c1.2-3.5,4.1-5.8,7.3-5.8c0.5,0,0.9,0.1,1.4,0.2v4.5 c-0.5-0.1-1-0.2-1.6-0.2c-3.4,0-5.8,2.6-6.5,6.2c-0.1,0.7-0.2,1.4-0.2,2.2V51h-4.8V32.8z"/><path fill="#FFFFFF" d="M95.4,51l-9.4-36.8h5l4.4,18.6c1.1,4.6,2.1,9.2,2.7,12.7h0.1c0.6-3.7,1.8-8,3-12.8l4.9-18.5h5l4.5,18.7 c1,4.4,2,8.7,2.6,12.6h0.1c0.8-4,1.8-8.1,3-12.7l4.9-18.5h4.9L120.6,51h-5L111,31.9c-1.1-4.7-1.9-8.3-2.4-12h-0.1 c-0.7,3.7-1.5,7.3-2.8,12L100.4,51H95.4z"/><path fill="#FFFFFF" d="M154.9,37.6c0,9.8-6.8,14-13.2,14c-7.2,0-12.7-5.2-12.7-13.6c0-8.8,5.8-14,13.1-14 C149.8,24,154.9,29.5,154.9,37.6z M133.9,37.9c0,5.8,3.3,10.1,8,10.1c4.6,0,8-4.3,8-10.3c0-4.5-2.2-10.1-7.9-10.1 C136.3,27.6,133.9,32.8,133.9,37.9z"/><path fill="#FFFFFF" d="M158.2,32.8c0-3.1-0.1-5.8-0.2-8.2h4.2l0.2,5.2h0.2c1.2-3.5,4.1-5.8,7.3-5.8c0.5,0,0.9,0.1,1.4,0.2v4.5 c-0.5-0.1-1-0.2-1.6-0.2c-3.4,0-5.8,2.6-6.5,6.2c-0.1,0.7-0.2,1.4-0.2,2.2V51h-4.8V32.8z"/><path fill="#FFFFFF" d="M173.5,12.3h4.8V51h-4.8V12.3z"/><path fill="#FFFFFF" d="M206.5,12.3v31.9c0,2.3,0.1,5,0.2,6.8h-4.3l-0.2-4.6H202c-1.5,2.9-4.7,5.2-9,5.2 c-6.4,0-11.3-5.4-11.3-13.4c-0.1-8.8,5.4-14.2,11.9-14.2c4,0,6.8,1.9,8,4h0.1V12.3H206.5z M201.7,35.4c0-0.6-0.1-1.4-0.2-2 c-0.7-3.1-3.3-5.6-6.9-5.6c-5,0-7.9,4.4-7.9,10.2c0,5.3,2.6,9.8,7.8,9.8c3.2,0,6.2-2.1,7.1-5.7c0.2-0.7,0.2-1.3,0.2-2.1V35.4z"/><path fill="#FFFFFF" d="M42.8,64c0.1,1.6-1.1,2.9-3.1,2.9c-1.7,0-2.9-1.3-2.9-2.9c0-1.7,1.3-3,3-3C41.7,61,42.8,62.3,42.8,64z M37.4,97.8V71.4h4.8v26.4H37.4z"/><path fill="#FFFFFF" d="M47.5,78.6c0-2.7-0.1-5-0.2-7.1h4.3l0.3,4.4h0.1c1.3-2.5,4.4-5,8.8-5c3.7,0,9.4,2.2,9.4,11.2v15.8h-4.8 V82.6c0-4.3-1.6-7.8-6.1-7.8c-3.2,0-5.6,2.2-6.5,4.9c-0.2,0.6-0.3,1.4-0.3,2.2v15.9h-4.8V78.6z"/><path fill="#FFFFFF" d="M84,61.6c2.9-0.4,6.3-0.8,10.1-0.8c6.8,0,11.7,1.6,14.9,4.6c3.3,3,5.2,7.3,5.2,13.2c0,6-1.9,10.9-5.3,14.3 c-3.4,3.4-9.1,5.3-16.3,5.3c-3.4,0-6.2-0.2-8.6-0.4V61.6z M88.8,94.1c1.2,0.2,3,0.3,4.8,0.3c10.2,0,15.7-5.7,15.7-15.6 c0.1-8.7-4.9-14.2-14.9-14.2c-2.5,0-4.3,0.2-5.6,0.5V94.1z"/><path fill="#FFFFFF" d="M132.1,97.8l-0.4-3.3h-0.2c-1.5,2.1-4.3,3.9-8.1,3.9c-5.4,0-8.1-3.8-8.1-7.6c0-6.4,5.7-9.9,15.9-9.8v-0.5 c0-2.2-0.6-6.1-6-6.1c-2.5,0-5,0.8-6.9,2l-1.1-3.2c2.2-1.4,5.4-2.3,8.7-2.3c8.1,0,10.1,5.5,10.1,10.8v9.9c0,2.3,0.1,4.5,0.4,6.3 H132.1z M131.4,84.4c-5.3-0.1-11.2,0.8-11.2,5.9c0,3.1,2.1,4.6,4.5,4.6c3.4,0,5.6-2.2,6.4-4.4c0.2-0.5,0.3-1,0.3-1.5V84.4z"/><path fill="#FFFFFF" d="M146.6,63.9v7.6h6.9v3.7h-6.9v14.2c0,3.3,0.9,5.1,3.6,5.1c1.3,0,2.2-0.2,2.8-0.3l0.2,3.6 c-0.9,0.4-2.4,0.7-4.3,0.7c-2.2,0-4-0.7-5.2-2c-1.4-1.4-1.9-3.8-1.9-6.9V75.1h-4.1v-3.7h4.1v-6.3L146.6,63.9z"/><path fill="#FFFFFF" d="M171.4,97.8l-0.4-3.3h-0.2c-1.5,2.1-4.3,3.9-8.1,3.9c-5.4,0-8.1-3.8-8.1-7.6c0-6.4,5.7-9.9,15.9-9.8v-0.5 c0-2.2-0.6-6.1-6-6.1c-2.5,0-5,0.8-6.9,2l-1.1-3.2c2.2-1.4,5.4-2.3,8.7-2.3c8.1,0,10.1,5.5,10.1,10.8v9.9c0,2.3,0.1,4.5,0.4,6.3 H171.4z M170.7,84.4c-5.3-0.1-11.2,0.8-11.2,5.9c0,3.1,2.1,4.6,4.5,4.6c3.4,0,5.6-2.2,6.4-4.4c0.2-0.5,0.3-1,0.3-1.5V84.4z"/></g></g></a></g><a href="https://ourworldindata.org/grapher/living-planet-index-in-freshwater-species-1970-2012" target="_blank"><text font-size="25.20" x="15.0" y="35.2" fill="#555"><tspan x="15" y="35.160000000000004">Living Planet Index in freshwater species, 1970-2012</tspan></text></a><text font-size="14.40" x="15.0" y="53.7" fill="#666"><tspan x="15" y="53.72">The Living Planet Index (LPI) provides a measure of biodiversity based on the change in populations of species</tspan><tspan x="15" y="69.56">overtime. The index value is measured relative to freshwater species populations in 1970 (i.e. 1970 = 1). An index</tspan><tspan x="15" y="85.4">value of 0.5, for example,would indicate a 50 percent reduction in population levels of global species. 95% upper and</tspan><tspan x="15" y="101.24000000000001">lower confidence intervals are also shown in grey.</tspan></text></g><g class="LineChart"><defs><clipPath id="boundsClip-1871"><rect x="32.68" y="0" width="830" height="837.5999999999999"></rect></clipPath></defs><g class="AxisBoxView"><g class="HorizontalAxis"><text x="42.7" y="541.9" fill="#666" text-anchor="middle" font-size="16.2">1970</text><text x="135.8" y="541.9" fill="#666" text-anchor="middle" font-size="16.2">1975</text><text x="228.9" y="541.9" fill="#666" text-anchor="middle" font-size="16.2">1980</text><text x="322.1" y="541.9" fill="#666" text-anchor="middle" font-size="16.2">1985</text><text x="415.2" y="541.9" fill="#666" text-anchor="middle" font-size="16.2">1990</text><text x="508.3" y="541.9" fill="#666" text-anchor="middle" font-size="16.2">1995</text><text x="601.5" y="541.9" fill="#666" text-anchor="middle" font-size="16.2">2000</text><text x="694.6" y="541.9" fill="#666" text-anchor="middle" font-size="16.2">2005</text><text x="825" y="541.9" fill="#666" text-anchor="middle" font-size="16.2">2012</text></g><g class="VerticalAxis"><text x="37.68" y="520.7" fill="#666" dominant-baseline="middle" text-anchor="end" font-size="16.2">0</text><text x="37.68" y="441.2" fill="#666" dominant-baseline="middle" text-anchor="end" font-size="16.2">0.2</text><text x="37.68" y="361.7" fill="#666" dominant-baseline="middle" text-anchor="end" font-size="16.2">0.4</text><text x="37.68" y="282.1" fill="#666" dominant-baseline="middle" text-anchor="end" font-size="16.2">0.6</text><text x="37.68" y="202.6" fill="#666" dominant-baseline="middle" text-anchor="end" font-size="16.2">0.8</text><text x="37.68" y="123.1" fill="#666" dominant-baseline="middle" text-anchor="end" font-size="16.2">1</text></g><g class="AxisGridLines"><line x1="42.68" y1="520.7" x2="825.00" y2="520.7" stroke="#ccc"></line><line x1="42.68" y1="441.2" x2="825.00" y2="441.2" stroke="#ddd" stroke-dasharray="3,2"></line><line x1="42.68" y1="361.7" x2="825.00" y2="361.7" stroke="#ddd" stroke-dasharray="3,2"></line><line x1="42.68" y1="282.1" x2="825.00" y2="282.1" stroke="#ddd" stroke-dasharray="3,2"></line><line x1="42.68" y1="202.6" x2="825.00" y2="202.6" stroke="#ddd" stroke-dasharray="3,2"></line><line x1="42.68" y1="123.1" x2="825.00" y2="123.1" stroke="#ddd" stroke-dasharray="3,2"></line></g></g><g clip-path="url(#boundsClip-1871)"><g class="Lines"><rect x="43" y="123" width="782" height="398" fill="rgba(255,255,255,0)" opacity="0"></rect><g class="key-World_0"><path stroke="#c8c8c8" stroke-linecap="round" d="M43 123L61 133L80 134L99 131L117 143L136 153L154 167L173 176L192 181L210 185L229 193L248 200L266 212L285 221L304 231L322 224L341 236L359 260L378 294L397 294L415 301L434 315L453 316L471 325L490 336L508 334L527 344L546 354L564 364L583 374L602 383L620 392L639 400L657 401L676 400L695 406L713 404L732 413L751 398L769 363L788 377L806 391L825 395" fill="none" stroke-width="1.5"></path><g fill="#c8c8c8"><circle cx="43" cy="123" r="2"></circle><circle cx="61" cy="133" r="2"></circle><circle cx="80" cy="134" r="2"></circle><circle cx="99" cy="131" r="2"></circle><circle cx="117" cy="143" r="2"></circle><circle cx="136" cy="153" r="2"></circle><circle cx="154" cy="167" r="2"></circle><circle cx="173" cy="176" r="2"></circle><circle cx="192" cy="181" r="2"></circle><circle cx="210" cy="185" r="2"></circle><circle cx="229" cy="193" r="2"></circle><circle cx="248" cy="200" r="2"></circle><circle cx="266" cy="212" r="2"></circle><circle cx="285" cy="221" r="2"></circle><circle cx="304" cy="231" r="2"></circle><circle cx="322" cy="224" r="2"></circle><circle cx="341" cy="236" r="2"></circle><circle cx="359" cy="260" r="2"></circle><circle cx="378" cy="294" r="2"></circle><circle cx="397" cy="294" r="2"></circle><circle cx="415" cy="301" r="2"></circle><circle cx="434" cy="315" r="2"></circle><circle cx="453" cy="316" r="2"></circle><circle cx="471" cy="325" r="2"></circle><circle cx="490" cy="336" r="2"></circle><circle cx="508" cy="334" r="2"></circle><circle cx="527" cy="344" r="2"></circle><circle cx="546" cy="354" r="2"></circle><circle cx="564" cy="364" r="2"></circle><circle cx="583" cy="374" r="2"></circle><circle cx="602" cy="383" r="2"></circle><circle cx="620" cy="392" r="2"></circle><circle cx="639" cy="400" r="2"></circle><circle cx="657" cy="401" r="2"></circle><circle cx="676" cy="400" r="2"></circle><circle cx="695" cy="406" r="2"></circle><circle cx="713" cy="404" r="2"></circle><circle cx="732" cy="413" r="2"></circle><circle cx="751" cy="398" r="2"></circle><circle cx="769" cy="363" r="2"></circle><circle cx="788" cy="377" r="2"></circle><circle cx="806" cy="391" r="2"></circle><circle cx="825" cy="395" r="2"></circle></g></g><g class="key-World_1"><path stroke="#3360a9" stroke-linecap="round" d="M43 123L61 137L80 142L99 140L117 153L136 164L154 179L173 188L192 194L210 199L229 208L248 217L266 230L285 241L304 265L322 270L341 282L359 304L378 336L397 340L415 346L434 358L453 361L471 367L490 378L508 378L527 386L546 394L564 403L583 410L602 418L620 425L639 432L657 434L676 434L695 441L713 442L732 448L751 441L769 419L788 429L806 440L825 447" fill="none" stroke-width="1.5"></path><g fill="#3360a9"><circle cx="43" cy="123" r="2"></circle><circle cx="61" cy="137" r="2"></circle><circle cx="80" cy="142" r="2"></circle><circle cx="99" cy="140" r="2"></circle><circle cx="117" cy="153" r="2"></circle><circle cx="136" cy="164" r="2"></circle><circle cx="154" cy="179" r="2"></circle><circle cx="173" cy="188" r="2"></circle><circle cx="192" cy="194" r="2"></circle><circle cx="210" cy="199" r="2"></circle><circle cx="229" cy="208" r="2"></circle><circle cx="248" cy="217" r="2"></circle><circle cx="266" cy="230" r="2"></circle><circle cx="285" cy="241" r="2"></circle><circle cx="304" cy="265" r="2"></circle><circle cx="322" cy="270" r="2"></circle><circle cx="341" cy="282" r="2"></circle><circle cx="359" cy="304" r="2"></circle><circle cx="378" cy="336" r="2"></circle><circle cx="397" cy="340" r="2"></circle><circle cx="415" cy="346" r="2"></circle><circle cx="434" cy="358" r="2"></circle><circle cx="453" cy="361" r="2"></circle><circle cx="471" cy="367" r="2"></circle><circle cx="490" cy="378" r="2"></circle><circle cx="508" cy="378" r="2"></circle><circle cx="527" cy="386" r="2"></circle><circle cx="546" cy="394" r="2"></circle><circle cx="564" cy="403" r="2"></circle><circle cx="583" cy="410" r="2"></circle><circle cx="602" cy="418" r="2"></circle><circle cx="620" cy="425" r="2"></circle><circle cx="639" cy="432" r="2"></circle><circle cx="657" cy="434" r="2"></circle><circle cx="676" cy="434" r="2"></circle><circle cx="695" cy="441" r="2"></circle><circle cx="713" cy="442" r="2"></circle><circle cx="732" cy="448" r="2"></circle><circle cx="751" cy="441" r="2"></circle><circle cx="769" cy="419" r="2"></circle><circle cx="788" cy="429" r="2"></circle><circle cx="806" cy="440" r="2"></circle><circle cx="825" cy="447" r="2"></circle></g></g><g class="key-World_2"><path stroke="#c8c8c8" stroke-linecap="round" d="M43 123L61 140L80 149L99 149L117 163L136 175L154 190L173 200L192 206L210 212L229 222L248 232L266 247L285 258L304 300L322 313L341 324L359 343L378 373L397 378L415 383L434 393L453 396L471 402L490 411L508 411L527 418L546 425L564 432L583 438L602 444L620 449L639 456L657 458L676 458L695 466L713 467L732 473L751 469L769 455L788 462L806 471L825 478" fill="none" stroke-width="1.5"></path><g fill="#c8c8c8"><circle cx="43" cy="123" r="2"></circle><circle cx="61" cy="140" r="2"></circle><circle cx="80" cy="149" r="2"></circle><circle cx="99" cy="149" r="2"></circle><circle cx="117" cy="163" r="2"></circle><circle cx="136" cy="175" r="2"></circle><circle cx="154" cy="190" r="2"></circle><circle cx="173" cy="200" r="2"></circle><circle cx="192" cy="206" r="2"></circle><circle cx="210" cy="212" r="2"></circle><circle cx="229" cy="222" r="2"></circle><circle cx="248" cy="232" r="2"></circle><circle cx="266" cy="247" r="2"></circle><circle cx="285" cy="258" r="2"></circle><circle cx="304" cy="300" r="2"></circle><circle cx="322" cy="313" r="2"></circle><circle cx="341" cy="324" r="2"></circle><circle cx="359" cy="343" r="2"></circle><circle cx="378" cy="373" r="2"></circle><circle cx="397" cy="378" r="2"></circle><circle cx="415" cy="383" r="2"></circle><circle cx="434" cy="393" r="2"></circle><circle cx="453" cy="396" r="2"></circle><circle cx="471" cy="402" r="2"></circle><circle cx="490" cy="411" r="2"></circle><circle cx="508" cy="411" r="2"></circle><circle cx="527" cy="418" r="2"></circle><circle cx="546" cy="425" r="2"></circle><circle cx="564" cy="432" r="2"></circle><circle cx="583" cy="438" r="2"></circle><circle cx="602" cy="444" r="2"></circle><circle cx="620" cy="449" r="2"></circle><circle cx="639" cy="456" r="2"></circle><circle cx="657" cy="458" r="2"></circle><circle cx="676" cy="458" r="2"></circle><circle cx="695" cy="466" r="2"></circle><circle cx="713" cy="467" r="2"></circle><circle cx="732" cy="473" r="2"></circle><circle cx="751" cy="469" r="2"></circle><circle cx="769" cy="455" r="2"></circle><circle cx="788" cy="462" r="2"></circle><circle cx="806" cy="471" r="2"></circle><circle cx="825" cy="478" r="2"></circle></g></g></g></g></g><g style="fill: #777;" class="SourcesFooter"><g style="fill: #777;" class="clickable"><text font-size="12.60" x="15.0" y="567.0"><tspan x="15" y="566.98">Source: WWF. 2016. Living Planet Report 2016. Risk and resilience in a new era. WWF International, Gland, Switzerland</tspan></text></g><text font-size="12.60" x="15.0" y="582.5"><tspan x="15" y="582.48"><a target='_blank' style='fill: #777;' href='https://ourworldindata.org'>OurWorldInData.org</a> • <a style="fill: #777;" href="http://creativecommons.org/licenses/by-sa/4.0/deed.en_US" target="_blank">CC BY-SA</a></tspan></text></g></g></svg>