<svg xmlns="http://www.w3.org/2000/svg" version="1.1" style="font-family:Lato, &#x27;Helvetica Neue&#x27;, Helvetica, Arial, sans-serif;font-size:18px;background-color:white;text-rendering:optimizeLegibility;-webkit-font-smoothing:antialiased" width="850" height="600"><g class="HeaderView"><a href="https://ourworldindata.org/grapher/long-run-unemployment-and-real-wage-growth-across-the-oecd-19702017" target="_blank"><text font-size="22.50" x="15.0" y="33.0" fill="#555"><tspan x="15" y="33">Long-run unemployment and real wage growth across the OECD (1970–2017)</tspan></text></a><text font-size="14.40" x="15.0" y="51.0" fill="#666"><tspan x="15" y="51.019999999999996">Unit 16 &#x27;Technological progress, employment, and living standards in the long run’ Section 16.8 &#x27;Institutions and policies: Why</tspan><tspan x="15" y="66.86">do some countries do better than others?&#x27; in The CORE Team, The Economy. Available at: https://tinyco.re/1608122 [Figure</tspan><tspan x="15" y="82.7">16.12]</tspan></text></g><g><g class="AxisBoxView"><g class="HorizontalAxis"><text font-size="12.60" x="213.8" y="540.3"><tspan x="213.8" y="540.2800000000001">Unemployment rate (average annual rate, 1970-2017)</tspan></text><text x="79.7" y="520.2" fill="#666" text-anchor="middle" font-size="16.2">0%</text><text x="164.4" y="520.2" fill="#666" text-anchor="middle" font-size="16.2">2%</text><text x="249.1" y="520.2" fill="#666" text-anchor="middle" font-size="16.2">4%</text><text x="333.8" y="520.2" fill="#666" text-anchor="middle" font-size="16.2">6%</text><text x="418.5" y="520.2" fill="#666" text-anchor="middle" font-size="16.2">8%</text><text x="503.2" y="520.2" fill="#666" text-anchor="middle" font-size="16.2">10%</text><text x="587.9" y="520.2" fill="#666" text-anchor="middle" font-size="16.2">12%</text><text x="672.6" y="520.2" fill="#666" text-anchor="middle" font-size="16.2">14%</text></g><g class="VerticalAxis"><text font-size="12.60" x="-492.0" y="25.1" transform="rotate(-90)"><tspan x="-492.005" y="25.080000000000002">Real wage growth (average annual growth rate, 1970-2011) </tspan></text><text x="74.70" y="499" fill="#666" dominant-baseline="middle" text-anchor="end" font-size="16.2">0%</text><text x="74.70" y="433" fill="#666" dominant-baseline="middle" text-anchor="end" font-size="16.2">0.5%</text><text x="74.70" y="367.1" fill="#666" dominant-baseline="middle" text-anchor="end" font-size="16.2">1%</text><text x="74.70" y="301.1" fill="#666" dominant-baseline="middle" text-anchor="end" font-size="16.2">1.5%</text><text x="74.70" y="235.2" fill="#666" dominant-baseline="middle" text-anchor="end" font-size="16.2">2%</text><text x="74.70" y="169.2" fill="#666" dominant-baseline="middle" text-anchor="end" font-size="16.2">2.5%</text><text x="74.70" y="103.3" fill="#666" dominant-baseline="middle" text-anchor="end" font-size="16.2">3%</text></g><g class="AxisGridLines"><line x1="79.70" y1="499" x2="715.00" y2="499" stroke="#ccc"></line><line x1="79.70" y1="433" x2="715.00" y2="433" stroke="#ddd" stroke-dasharray="3,2"></line><line x1="79.70" y1="367.1" x2="715.00" y2="367.1" stroke="#ddd" stroke-dasharray="3,2"></line><line x1="79.70" y1="301.1" x2="715.00" y2="301.1" stroke="#ddd" stroke-dasharray="3,2"></line><line x1="79.70" y1="235.2" x2="715.00" y2="235.2" stroke="#ddd" stroke-dasharray="3,2"></line><line x1="79.70" y1="169.2" x2="715.00" y2="169.2" stroke="#ddd" stroke-dasharray="3,2"></line><line x1="79.70" y1="103.3" x2="715.00" y2="103.3" stroke="#ddd" stroke-dasharray="3,2"></line></g><g class="AxisGridLines"><line x1="79.7" y1="499.00" x2="79.7" y2="102.90" stroke="#ccc"></line><line x1="164.4" y1="499.00" x2="164.4" y2="102.90" stroke="#ddd" stroke-dasharray="3,2"></line><line x1="249.1" y1="499.00" x2="249.1" y2="102.90" stroke="#ddd" stroke-dasharray="3,2"></line><line x1="333.8" y1="499.00" x2="333.8" y2="102.90" stroke="#ddd" stroke-dasharray="3,2"></line><line x1="418.5" y1="499.00" x2="418.5" y2="102.90" stroke="#ddd" stroke-dasharray="3,2"></line><line x1="503.2" y1="499.00" x2="503.2" y2="102.90" stroke="#ddd" stroke-dasharray="3,2"></line><line x1="587.9" y1="499.00" x2="587.9" y2="102.90" stroke="#ddd" stroke-dasharray="3,2"></line><line x1="672.6" y1="499.00" x2="672.6" y2="102.90" stroke="#ddd" stroke-dasharray="3,2"></line></g></g><g class="ComparisonLine"><defs><clipPath id="axisBounds-3"><rect x="79.69800000000001" y="102.9" width="635.302" height="396.1"></rect></clipPath></defs><path d="M79.7,499L86.1,490.1L92.4,481.2L98.8,472.3L105.1,463.4L111.5,454.5L117.8,445.6L124.2,436.7L130.5,427.8L136.9,418.9L143.2,410L149.6,401.1L155.9,392.2L162.3,383.2L168.6,374.3L175,365.4L181.3,356.5L187.7,347.6L194.1,338.7L200.4,329.8L206.8,320.9L213.1,312L219.5,303.1L225.8,294.2L232.2,285.3L238.5,276.4L244.9,267.5L251.2,258.6L257.6,249.7L263.9,240.8L270.3,231.9L276.6,223L283,214.1L289.3,205.2L295.7,196.3L302.1,187.4L308.4,178.5L314.8,169.6L321.1,160.6L327.5,151.7L333.8,142.8L340.2,133.9L346.5,125L352.9,116.1L359.2,107.2L365.6,98.3L371.9,89.4L378.3,80.5L384.6,71.6L391,62.7L397.3,53.8L403.7,44.9L410.1,36L416.4,27.1L422.8,18.2L429.1,9.3L435.5,0.4L441.8,-8.5L448.2,-17.4L454.5,-26.3L460.9,-35.2L467.2,-44.1L473.6,-53L479.9,-62L486.3,-70.9L492.6,-79.8L499,-88.7L505.4,-97.6L511.7,-106.5L518.1,-115.4L524.4,-124.3L530.8,-133.2L537.1,-142.1L543.5,-151L549.8,-159.9L556.2,-168.8L562.5,-177.7L568.9,-186.6L575.2,-195.5L581.6,-204.4L587.9,-213.3L594.3,-222.2L600.6,-231.1L607,-240L613.4,-248.9L619.7,-257.8L626.1,-266.7L632.4,-275.6L638.8,-284.6L645.1,-293.5L651.5,-302.4L657.8,-311.3L664.2,-320.2L670.5,-329.1L676.9,-338L683.2,-346.9L689.6,-355.8L695.9,-364.7L702.3,-373.6L708.6,-382.5" clip-path="url(#axisBounds-3)" fill="none" stroke="#ccc"></path><text x="161.18" y="300.1" fill="#999" transform="rotate(-54.4969202687905,219.5,300.1)" clip-path="url(#axisBounds-3)">High Performers</text></g><g class="ComparisonLine"><defs><clipPath id="axisBounds-4"><rect x="79.69800000000001" y="102.9" width="635.302" height="396.1"></rect></clipPath></defs><path d="M79.7,499L86.1,493.9L92.4,488.7L98.8,483.6L105.1,478.4L111.5,473.3L117.8,468.1L124.2,463L130.5,457.8L136.9,452.7L143.2,447.6L149.6,442.4L155.9,437.3L162.3,432.1L168.6,427L175,421.8L181.3,416.7L187.7,411.5L194.1,406.4L200.4,401.3L206.8,396.1L213.1,391L219.5,385.8L225.8,380.7L232.2,375.5L238.5,370.4L244.9,365.2L251.2,360.1L257.6,355L263.9,349.8L270.3,344.7L276.6,339.5L283,334.4L289.3,329.2L295.7,324.1L302.1,318.9L308.4,313.8L314.8,308.7L321.1,303.5L327.5,298.4L333.8,293.2L340.2,288.1L346.5,282.9L352.9,277.8L359.2,272.6L365.6,267.5L371.9,262.4L378.3,257.2L384.6,252.1L391,246.9L397.3,241.8L403.7,236.6L410.1,231.5L416.4,226.3L422.8,221.2L429.1,216.1L435.5,210.9L441.8,205.8L448.2,200.6L454.5,195.5L460.9,190.3L467.2,185.2L473.6,180L479.9,174.9L486.3,169.8L492.6,164.6L499,159.5L505.4,154.3L511.7,149.2L518.1,144L524.4,138.9L530.8,133.7L537.1,128.6L543.5,123.4L549.8,118.3L556.2,113.2L562.5,108L568.9,102.9L575.2,97.7L581.6,92.6L587.9,87.4L594.3,82.3L600.6,77.1L607,72L613.4,66.9L619.7,61.7L626.1,56.6L632.4,51.4L638.8,46.3L645.1,41.1L651.5,36L657.8,30.8L664.2,25.7L670.5,20.6L676.9,15.4L683.2,10.3L689.6,5.1L695.9,0L702.3,-5.2L708.6,-10.3" clip-path="url(#axisBounds-4)" fill="none" stroke="#ccc"></path><text x="262.06" y="295.4" fill="#999" transform="rotate(-38.99672129584665,327.5,295.4)" clip-path="url(#axisBounds-4)">Middle Performers</text></g><g class="PointsWithLabels clickable" clip-path="url(#scatterBounds-5)" font-family="Arial, sans-serif"><rect x="79.69800000000001" y="102.9" width="635.302" height="396.1" fill="rgba(255,255,255,0)"></rect><defs><clipPath id="scatterBounds-5"><rect x="69.69800000000001" y="92.9" width="655.302" height="416.1"></rect></clipPath></defs><g class="key-Belgium_0"><circle cx="441.00" cy="216.00" r="1.78" fill="#ffcb1f" opacity="0.8" stroke="#333" stroke-width="0.7"></circle></g><g class="key-United-States_0"><circle cx="346.00" cy="361.00" r="1.78" fill="#ffcb1f" opacity="0.8" stroke="#333" stroke-width="0.7"></circle></g><g class="key-United-Kingdom_0"><circle cx="361.00" cy="224.00" r="1.78" fill="#ffcb1f" opacity="0.8" stroke="#333" stroke-width="0.7"></circle></g><g class="key-Sweden_0"><circle cx="300.00" cy="262.00" r="1.78" fill="#ffcb1f" opacity="0.8" stroke="#333" stroke-width="0.7"></circle></g><g class="key-Spain_0"><circle cx="705.00" cy="147.00" r="1.78" fill="#ffcb1f" opacity="0.8" stroke="#333" stroke-width="0.7"></circle></g><g class="key-Norway_0"><circle cx="219.00" cy="187.00" r="1.78" fill="#ffcb1f" opacity="0.8" stroke="#333" stroke-width="0.7"></circle></g><g class="key-Netherlands_0"><circle cx="325.00" cy="258.00" r="1.78" fill="#ffcb1f" opacity="0.8" stroke="#fff" stroke-width="0.7"></circle></g><g class="key-Japan_0"><circle cx="211.00" cy="235.00" r="1.78" fill="#ffcb1f" opacity="0.8" stroke="#333" stroke-width="0.7"></circle></g><g class="key-Italy_0"><circle cx="475.00" cy="228.00" r="1.78" fill="#ffcb1f" opacity="0.8" stroke="#333" stroke-width="0.7"></circle></g><g class="key-Germany_0"><circle cx="340.00" cy="181.00" r="1.78" fill="#ffcb1f" opacity="0.8" stroke="#333" stroke-width="0.7"></circle></g><g class="key-France_0"><circle cx="397.00" cy="180.00" r="1.78" fill="#ffcb1f" opacity="0.8" stroke="#333" stroke-width="0.7"></circle></g><g class="key-Finland_0"><circle cx="393.00" cy="102.00" r="1.78" fill="#ffcb1f" opacity="0.8" stroke="#333" stroke-width="0.7"></circle></g><g class="key-Denmark_0"><circle cx="341.00" cy="197.00" r="1.78" fill="#ffcb1f" opacity="0.8" stroke="#333" stroke-width="0.7"></circle></g><g class="key-Canada_0"><circle cx="418.00" cy="353.00" r="1.78" fill="#ffcb1f" opacity="0.8" stroke="#333" stroke-width="0.7"></circle></g><g class="backgroundLabels" fill="#333"><text x="441.00" y="213.22" font-size="11.00">Belgium</text><text x="346.00" y="358.22" font-size="11.00">United States</text><text x="361.00" y="221.22" font-size="11.00">United Kingdom</text><text x="300.00" y="259.22" font-size="11.00">Sweden</text><text x="676.73" y="144.22" font-size="11.00">Spain</text><text x="219.00" y="184.22" font-size="11.00">Norway</text><text x="211.00" y="232.22" font-size="11.00">Japan</text><text x="475.00" y="225.22" font-size="11.00">Italy</text><text x="340.00" y="178.22" font-size="11.00">Germany</text><text x="397.00" y="177.22" font-size="11.00">France</text><text x="393.00" y="113.90" font-size="11.00">Finland</text><text x="341.00" y="194.22" font-size="11.00">Denmark</text><text x="418.00" y="350.22" font-size="11.00">Canada</text></g></g><g class="ScatterColorLegend clickable" style="cursor:pointer"></g></g><g class="SourcesFooter" style="fill:#777"><g class="clickable" style="fill:#777"><text font-size="12.60" x="15.0" y="567.9"><tspan x="15" y="567.88">Source: BLS (2011), OECD(2019)</tspan></text></g><text font-size="12.60" x="15.0" y="582.5"><tspan x="15" y="582.48">Note: Real wage growth is displayed on the &#x27;MAP&#x27; tab</tspan></text><text font-size="12.60" x="546.0" y="567.9"><tspan x="545.956" y="567.88"><a target='_blank' style='fill: #777;' href='https://tinyco.re/1608122'>tinyco.re/1608122</a> • <a href="https://ourworldindata.org" target="_blank">Powered by ourworldindata.org</a></tspan></text></g></svg>