<svg xmlns="http://www.w3.org/2000/svg" version="1.1" style="font-family: 'Helvetica Neue', Helvetica, Arial, sans-serif; font-size: 18px; background-color: white; text-rendering: optimizeLegibility; -webkit-font-smoothing: antialiased;" width="850" height="600"><g class="ChartTab"><g class="HeaderView"><g opacity="0.8" transform="translate(778, 15) scale(0.27)"><a xmlns:xlink="http://www.w3.org/1999/xlink" xlink:href="https://ourworldindata.org" target="_blank"><g><rect x="0" y="0" fill="#1B2543" width="211.2" height="130.1"/><rect x="0" y="112.2" fill="#E63912" width="211.2" height="17.9"/><g><rect x="1.2" y="12.3" fill="none" width="210.2" height="99.2"/><path fill="#FFFFFF" d="M37.8,32.2c0,12.7-7.7,19.4-17.1,19.4c-9.7,0-16.6-7.5-16.6-18.7c0-11.7,7.3-19.3,17.1-19.3 C31.3,13.7,37.8,21.3,37.8,32.2z M9.2,32.8c0,7.9,4.3,14.9,11.8,14.9c7.5,0,11.8-6.9,11.8-15.3c0-7.3-3.8-14.9-11.8-14.9 C13.1,17.5,9.2,24.8,9.2,32.8z"/><path fill="#FFFFFF" d="M62.7,43.8c0,2.7,0.1,5.1,0.2,7.2h-4.3l-0.3-4.3h-0.1c-1.3,2.1-4,4.9-8.8,4.9c-4.2,0-9.1-2.3-9.1-11.6 V24.6h4.8v14.6c0,5,1.5,8.4,5.9,8.4c3.2,0,5.5-2.2,6.3-4.4c0.3-0.7,0.4-1.6,0.4-2.5V24.6h4.8V43.8z"/><path fill="#FFFFFF" d="M67.3,32.8c0-3.1-0.1-5.8-0.2-8.2h4.2l0.2,5.2h0.2c1.2-3.5,4.1-5.8,7.3-5.8c0.5,0,0.9,0.1,1.4,0.2v4.5 c-0.5-0.1-1-0.2-1.6-0.2c-3.4,0-5.8,2.6-6.5,6.2c-0.1,0.7-0.2,1.4-0.2,2.2V51h-4.8V32.8z"/><path fill="#FFFFFF" d="M95.4,51l-9.4-36.8h5l4.4,18.6c1.1,4.6,2.1,9.2,2.7,12.7h0.1c0.6-3.7,1.8-8,3-12.8l4.9-18.5h5l4.5,18.7 c1,4.4,2,8.7,2.6,12.6h0.1c0.8-4,1.8-8.1,3-12.7l4.9-18.5h4.9L120.6,51h-5L111,31.9c-1.1-4.7-1.9-8.3-2.4-12h-0.1 c-0.7,3.7-1.5,7.3-2.8,12L100.4,51H95.4z"/><path fill="#FFFFFF" d="M154.9,37.6c0,9.8-6.8,14-13.2,14c-7.2,0-12.7-5.2-12.7-13.6c0-8.8,5.8-14,13.1-14 C149.8,24,154.9,29.5,154.9,37.6z M133.9,37.9c0,5.8,3.3,10.1,8,10.1c4.6,0,8-4.3,8-10.3c0-4.5-2.2-10.1-7.9-10.1 C136.3,27.6,133.9,32.8,133.9,37.9z"/><path fill="#FFFFFF" d="M158.2,32.8c0-3.1-0.1-5.8-0.2-8.2h4.2l0.2,5.2h0.2c1.2-3.5,4.1-5.8,7.3-5.8c0.5,0,0.9,0.1,1.4,0.2v4.5 c-0.5-0.1-1-0.2-1.6-0.2c-3.4,0-5.8,2.6-6.5,6.2c-0.1,0.7-0.2,1.4-0.2,2.2V51h-4.8V32.8z"/><path fill="#FFFFFF" d="M173.5,12.3h4.8V51h-4.8V12.3z"/><path fill="#FFFFFF" d="M206.5,12.3v31.9c0,2.3,0.1,5,0.2,6.8h-4.3l-0.2-4.6H202c-1.5,2.9-4.7,5.2-9,5.2 c-6.4,0-11.3-5.4-11.3-13.4c-0.1-8.8,5.4-14.2,11.9-14.2c4,0,6.8,1.9,8,4h0.1V12.3H206.5z M201.7,35.4c0-0.6-0.1-1.4-0.2-2 c-0.7-3.1-3.3-5.6-6.9-5.6c-5,0-7.9,4.4-7.9,10.2c0,5.3,2.6,9.8,7.8,9.8c3.2,0,6.2-2.1,7.1-5.7c0.2-0.7,0.2-1.3,0.2-2.1V35.4z"/><path fill="#FFFFFF" d="M42.8,64c0.1,1.6-1.1,2.9-3.1,2.9c-1.7,0-2.9-1.3-2.9-2.9c0-1.7,1.3-3,3-3C41.7,61,42.8,62.3,42.8,64z M37.4,97.8V71.4h4.8v26.4H37.4z"/><path fill="#FFFFFF" d="M47.5,78.6c0-2.7-0.1-5-0.2-7.1h4.3l0.3,4.4h0.1c1.3-2.5,4.4-5,8.8-5c3.7,0,9.4,2.2,9.4,11.2v15.8h-4.8 V82.6c0-4.3-1.6-7.8-6.1-7.8c-3.2,0-5.6,2.2-6.5,4.9c-0.2,0.6-0.3,1.4-0.3,2.2v15.9h-4.8V78.6z"/><path fill="#FFFFFF" d="M84,61.6c2.9-0.4,6.3-0.8,10.1-0.8c6.8,0,11.7,1.6,14.9,4.6c3.3,3,5.2,7.3,5.2,13.2c0,6-1.9,10.9-5.3,14.3 c-3.4,3.4-9.1,5.3-16.3,5.3c-3.4,0-6.2-0.2-8.6-0.4V61.6z M88.8,94.1c1.2,0.2,3,0.3,4.8,0.3c10.2,0,15.7-5.7,15.7-15.6 c0.1-8.7-4.9-14.2-14.9-14.2c-2.5,0-4.3,0.2-5.6,0.5V94.1z"/><path fill="#FFFFFF" d="M132.1,97.8l-0.4-3.3h-0.2c-1.5,2.1-4.3,3.9-8.1,3.9c-5.4,0-8.1-3.8-8.1-7.6c0-6.4,5.7-9.9,15.9-9.8v-0.5 c0-2.2-0.6-6.1-6-6.1c-2.5,0-5,0.8-6.9,2l-1.1-3.2c2.2-1.4,5.4-2.3,8.7-2.3c8.1,0,10.1,5.5,10.1,10.8v9.9c0,2.3,0.1,4.5,0.4,6.3 H132.1z M131.4,84.4c-5.3-0.1-11.2,0.8-11.2,5.9c0,3.1,2.1,4.6,4.5,4.6c3.4,0,5.6-2.2,6.4-4.4c0.2-0.5,0.3-1,0.3-1.5V84.4z"/><path fill="#FFFFFF" d="M146.6,63.9v7.6h6.9v3.7h-6.9v14.2c0,3.3,0.9,5.1,3.6,5.1c1.3,0,2.2-0.2,2.8-0.3l0.2,3.6 c-0.9,0.4-2.4,0.7-4.3,0.7c-2.2,0-4-0.7-5.2-2c-1.4-1.4-1.9-3.8-1.9-6.9V75.1h-4.1v-3.7h4.1v-6.3L146.6,63.9z"/><path fill="#FFFFFF" d="M171.4,97.8l-0.4-3.3h-0.2c-1.5,2.1-4.3,3.9-8.1,3.9c-5.4,0-8.1-3.8-8.1-7.6c0-6.4,5.7-9.9,15.9-9.8v-0.5 c0-2.2-0.6-6.1-6-6.1c-2.5,0-5,0.8-6.9,2l-1.1-3.2c2.2-1.4,5.4-2.3,8.7-2.3c8.1,0,10.1,5.5,10.1,10.8v9.9c0,2.3,0.1,4.5,0.4,6.3 H171.4z M170.7,84.4c-5.3-0.1-11.2,0.8-11.2,5.9c0,3.1,2.1,4.6,4.5,4.6c3.4,0,5.6-2.2,6.4-4.4c0.2-0.5,0.3-1,0.3-1.5V84.4z"/></g></g></a></g><a href="https://ourworldindata.org/grapher/Male-Female-Ratio-of-Suicide-Rates" target="_blank"><text font-size="25.20" x="15.0" y="35.2" fill="#555"><tspan x="15" y="35.160000000000004">Male to female ratio of suicide rates</tspan></text></a><text font-size="14.40" x="15.0" y="53.7" fill="#666"><tspan x="15" y="53.72">Gender ratio of suicides per 100,000 people per year. Values higher than 1 indicate countries where more men die</tspan><tspan x="15" y="69.56">from suicide than women.</tspan></text></g><g class="LineChart"><defs><clipPath id="boundsClip-35"><rect x="19.072000000000003" y="0" width="830" height="874"></rect></clipPath></defs><g class="AxisBoxView"><g class="HorizontalAxis"><text x="29.1" y="529.1" fill="#666" text-anchor="middle" font-size="16.2">1950</text><text x="154.6" y="529.1" fill="#666" text-anchor="middle" font-size="16.2">1960</text><text x="280.2" y="529.1" fill="#666" text-anchor="middle" font-size="16.2">1970</text><text x="405.8" y="529.1" fill="#666" text-anchor="middle" font-size="16.2">1980</text><text x="531.4" y="529.1" fill="#666" text-anchor="middle" font-size="16.2">1990</text><text x="657" y="529.1" fill="#666" text-anchor="middle" font-size="16.2">2000</text><text x="707.2" y="529.1" fill="#666" text-anchor="middle" font-size="16.2">2004</text></g><g class="VerticalAxis"><text x="24.07" y="507.9" fill="#666" dominant-baseline="middle" text-anchor="end" font-size="16.2">0</text><text x="24.07" y="448.7" fill="#666" dominant-baseline="middle" text-anchor="end" font-size="16.2">1</text><text x="24.07" y="389.5" fill="#666" dominant-baseline="middle" text-anchor="end" font-size="16.2">2</text><text x="24.07" y="330.3" fill="#666" dominant-baseline="middle" text-anchor="end" font-size="16.2">3</text><text x="24.07" y="271.2" fill="#666" dominant-baseline="middle" text-anchor="end" font-size="16.2">4</text><text x="24.07" y="212" fill="#666" dominant-baseline="middle" text-anchor="end" font-size="16.2">5</text><text x="24.07" y="152.8" fill="#666" dominant-baseline="middle" text-anchor="end" font-size="16.2">6</text><text x="24.07" y="93.6" fill="#666" dominant-baseline="middle" text-anchor="end" font-size="16.2">7</text></g><g class="AxisGridLines"><line x1="29.07" y1="507.9" x2="707.18" y2="507.9" stroke="#ccc"></line><line x1="29.07" y1="448.7" x2="707.18" y2="448.7" stroke="#ddd" stroke-dasharray="3,2"></line><line x1="29.07" y1="389.5" x2="707.18" y2="389.5" stroke="#ddd" stroke-dasharray="3,2"></line><line x1="29.07" y1="330.3" x2="707.18" y2="330.3" stroke="#ddd" stroke-dasharray="3,2"></line><line x1="29.07" y1="271.2" x2="707.18" y2="271.2" stroke="#ddd" stroke-dasharray="3,2"></line><line x1="29.07" y1="212" x2="707.18" y2="212" stroke="#ddd" stroke-dasharray="3,2"></line><line x1="29.07" y1="152.8" x2="707.18" y2="152.8" stroke="#ddd" stroke-dasharray="3,2"></line><line x1="29.07" y1="93.6" x2="707.18" y2="93.6" stroke="#ddd" stroke-dasharray="3,2"></line></g></g><g clip-path="url(#boundsClip-35)"><g class="HeightedLegend clickable"><g class="legendMark"><rect x="717.184" y="121.60000000000001" width="59.06400000000001" height="14.4" fill="#fff" opacity="0"></rect><rect x="717.184" y="127.55000000000001" width="10" height="2.5" fill="#a652ba"></rect><text font-size="14.40" x="732.2" y="133.1" fill="#333"><tspan x="732.184" y="133.12">Russia</tspan></text></g><g class="legendMark"><rect x="717.184" y="182.20000000000002" width="59.208000000000006" height="14.4" fill="#fff" opacity="0"></rect><rect x="717.184" y="188.15" width="10" height="2.5" fill="#f6a324"></rect><text font-size="14.40" x="732.2" y="193.7" fill="#333"><tspan x="732.184" y="193.72000000000003">Ireland</tspan></text></g><g class="legendMark"><rect x="717.184" y="230.8" width="83.4" height="14.4" fill="#fff" opacity="0"></rect><rect x="717.184" y="236.75" width="10" height="2.5" fill="#34983f"></rect><text font-size="14.40" x="732.2" y="242.3" fill="#333"><tspan x="732.184" y="242.32000000000002">Venezuela</tspan></text></g><g class="legendMark"><rect x="717.184" y="295.5" width="74.328" height="14.4" fill="#fff" opacity="0"></rect><rect x="717.184" y="301.45" width="10" height="2.5" fill="#ca2628"></rect><text font-size="14.40" x="732.2" y="307.0" fill="#333"><tspan x="732.184" y="307.02">Germany</tspan></text></g><g class="legendMark"><rect x="717.184" y="309.9" width="117.81600000000002" height="14.4" fill="#fff" opacity="0"></rect><rect x="717.184" y="315.84999999999997" width="10" height="2.5" fill="#3360a9"></rect><text font-size="14.40" x="732.2" y="321.4" fill="#333"><tspan x="732.184" y="321.41999999999996">United Kingdom</tspan></text></g></g><g class="Lines"><rect x="29" y="92" width="678" height="416" fill="rgba(255,255,255,0)" opacity="0"></rect><g class="key-Venezuela_0"><path stroke="#34983f" stroke-linecap="round" d="M92 257L104 293L117 287L130 292L142 366L155 321L167 362L180 358L192 343L205 316L217 308L230 333L243 329L255 330L268 333L280 322L293 321L305 318L318 269L331 302L343 291L356 268L368 249L381 250L393 229L406 200L418 226L431 275L444 231L469 216L481 217L494 229L506 151L519 228L531 235L557 137L569 151L582 215L607 153L619 216L632 195L644 195L657 133L670 178L682 195L695 228L707 238" fill="none" stroke-width="1.5"></path><g fill="#34983f"><circle cx="92" cy="257" r="2"></circle><circle cx="104" cy="293" r="2"></circle><circle cx="117" cy="287" r="2"></circle><circle cx="130" cy="292" r="2"></circle><circle cx="142" cy="366" r="2"></circle><circle cx="155" cy="321" r="2"></circle><circle cx="167" cy="362" r="2"></circle><circle cx="180" cy="358" r="2"></circle><circle cx="192" cy="343" r="2"></circle><circle cx="205" cy="316" r="2"></circle><circle cx="217" cy="308" r="2"></circle><circle cx="230" cy="333" r="2"></circle><circle cx="243" cy="329" r="2"></circle><circle cx="255" cy="330" r="2"></circle><circle cx="268" cy="333" r="2"></circle><circle cx="280" cy="322" r="2"></circle><circle cx="293" cy="321" r="2"></circle><circle cx="305" cy="318" r="2"></circle><circle cx="318" cy="269" r="2"></circle><circle cx="331" cy="302" r="2"></circle><circle cx="343" cy="291" r="2"></circle><circle cx="356" cy="268" r="2"></circle><circle cx="368" cy="249" r="2"></circle><circle cx="381" cy="250" r="2"></circle><circle cx="393" cy="229" r="2"></circle><circle cx="406" cy="200" r="2"></circle><circle cx="418" cy="226" r="2"></circle><circle cx="431" cy="275" r="2"></circle><circle cx="444" cy="231" r="2"></circle><circle cx="469" cy="216" r="2"></circle><circle cx="481" cy="217" r="2"></circle><circle cx="494" cy="229" r="2"></circle><circle cx="506" cy="151" r="2"></circle><circle cx="519" cy="228" r="2"></circle><circle cx="531" cy="235" r="2"></circle><circle cx="557" cy="137" r="2"></circle><circle cx="569" cy="151" r="2"></circle><circle cx="582" cy="215" r="2"></circle><circle cx="607" cy="153" r="2"></circle><circle cx="619" cy="216" r="2"></circle><circle cx="632" cy="195" r="2"></circle><circle cx="644" cy="195" r="2"></circle><circle cx="657" cy="133" r="2"></circle><circle cx="670" cy="178" r="2"></circle><circle cx="682" cy="195" r="2"></circle><circle cx="695" cy="228" r="2"></circle><circle cx="707" cy="238" r="2"></circle></g></g><g class="key-Russia_0"><path stroke="#a652ba" stroke-linecap="round" d="M406 214L418 200L431 197L469 214L481 269L494 260L506 260L519 229L531 229L544 218L557 196L569 161L582 136L594 152L607 133L619 145L632 143L644 147L657 112L670 109L682 122L695 117L707 129" fill="none" stroke-width="1.5"></path><g fill="#a652ba"><circle cx="406" cy="214" r="2"></circle><circle cx="418" cy="200" r="2"></circle><circle cx="431" cy="197" r="2"></circle><circle cx="469" cy="214" r="2"></circle><circle cx="481" cy="269" r="2"></circle><circle cx="494" cy="260" r="2"></circle><circle cx="506" cy="260" r="2"></circle><circle cx="519" cy="229" r="2"></circle><circle cx="531" cy="229" r="2"></circle><circle cx="544" cy="218" r="2"></circle><circle cx="557" cy="196" r="2"></circle><circle cx="569" cy="161" r="2"></circle><circle cx="582" cy="136" r="2"></circle><circle cx="594" cy="152" r="2"></circle><circle cx="607" cy="133" r="2"></circle><circle cx="619" cy="145" r="2"></circle><circle cx="632" cy="143" r="2"></circle><circle cx="644" cy="147" r="2"></circle><circle cx="657" cy="112" r="2"></circle><circle cx="670" cy="109" r="2"></circle><circle cx="682" cy="122" r="2"></circle><circle cx="695" cy="117" r="2"></circle><circle cx="707" cy="129" r="2"></circle></g></g><g class="key-Germany_0"><path stroke="#ca2628" stroke-linecap="round" d="M531 342L544 339L557 335L569 328L582 320L594 322L607 325L619 320L632 308L644 316L657 308L670 306L682 315L695 312L707 303" fill="none" stroke-width="1.5"></path><g fill="#ca2628"><circle cx="531" cy="342" r="2"></circle><circle cx="544" cy="339" r="2"></circle><circle cx="557" cy="335" r="2"></circle><circle cx="569" cy="328" r="2"></circle><circle cx="582" cy="320" r="2"></circle><circle cx="594" cy="322" r="2"></circle><circle cx="607" cy="325" r="2"></circle><circle cx="619" cy="320" r="2"></circle><circle cx="632" cy="308" r="2"></circle><circle cx="644" cy="316" r="2"></circle><circle cx="657" cy="308" r="2"></circle><circle cx="670" cy="306" r="2"></circle><circle cx="682" cy="315" r="2"></circle><circle cx="695" cy="312" r="2"></circle><circle cx="707" cy="303" r="2"></circle></g></g><g class="key-Ireland_0"><path stroke="#f6a324" stroke-linecap="round" d="M29 212L42 301L54 281L67 275L79 236L92 295L104 189L117 291L130 304L142 305L155 362L167 280L180 291L192 345L205 203L217 92L230 328L243 335L255 296L268 349L280 190L293 345L305 360L318 356L331 304L343 369L356 367L368 404L381 394L393 334L406 393L418 370L431 343L444 363L456 368L469 298L481 325L494 322L506 351L519 304L531 330L544 239L557 184L569 280L582 299L594 281L607 180L619 248L632 157L644 254L657 223L670 199L682 236L695 282L707 189" fill="none" stroke-width="1.5"></path><g fill="#f6a324"><circle cx="29" cy="212" r="2"></circle><circle cx="42" cy="301" r="2"></circle><circle cx="54" cy="281" r="2"></circle><circle cx="67" cy="275" r="2"></circle><circle cx="79" cy="236" r="2"></circle><circle cx="92" cy="295" r="2"></circle><circle cx="104" cy="189" r="2"></circle><circle cx="117" cy="291" r="2"></circle><circle cx="130" cy="304" r="2"></circle><circle cx="142" cy="305" r="2"></circle><circle cx="155" cy="362" r="2"></circle><circle cx="167" cy="280" r="2"></circle><circle cx="180" cy="291" r="2"></circle><circle cx="192" cy="345" r="2"></circle><circle cx="205" cy="203" r="2"></circle><circle cx="217" cy="92" r="2"></circle><circle cx="230" cy="328" r="2"></circle><circle cx="243" cy="335" r="2"></circle><circle cx="255" cy="296" r="2"></circle><circle cx="268" cy="349" r="2"></circle><circle cx="280" cy="190" r="2"></circle><circle cx="293" cy="345" r="2"></circle><circle cx="305" cy="360" r="2"></circle><circle cx="318" cy="356" r="2"></circle><circle cx="331" cy="304" r="2"></circle><circle cx="343" cy="369" r="2"></circle><circle cx="356" cy="367" r="2"></circle><circle cx="368" cy="404" r="2"></circle><circle cx="381" cy="394" r="2"></circle><circle cx="393" cy="334" r="2"></circle><circle cx="406" cy="393" r="2"></circle><circle cx="418" cy="370" r="2"></circle><circle cx="431" cy="343" r="2"></circle><circle cx="444" cy="363" r="2"></circle><circle cx="456" cy="368" r="2"></circle><circle cx="469" cy="298" r="2"></circle><circle cx="481" cy="325" r="2"></circle><circle cx="494" cy="322" r="2"></circle><circle cx="506" cy="351" r="2"></circle><circle cx="519" cy="304" r="2"></circle><circle cx="531" cy="330" r="2"></circle><circle cx="544" cy="239" r="2"></circle><circle cx="557" cy="184" r="2"></circle><circle cx="569" cy="280" r="2"></circle><circle cx="582" cy="299" r="2"></circle><circle cx="594" cy="281" r="2"></circle><circle cx="607" cy="180" r="2"></circle><circle cx="619" cy="248" r="2"></circle><circle cx="632" cy="157" r="2"></circle><circle cx="644" cy="254" r="2"></circle><circle cx="657" cy="223" r="2"></circle><circle cx="670" cy="199" r="2"></circle><circle cx="682" cy="236" r="2"></circle><circle cx="695" cy="282" r="2"></circle><circle cx="707" cy="189" r="2"></circle></g></g><g class="key-United-Kingdom_0"><path stroke="#3360a9" stroke-linecap="round" d="M29 382L42 386L54 378L67 383L79 386L92 395L104 397L117 401L130 399L142 402L155 401L167 408L180 408L192 411L205 415L217 416L230 416L243 408L255 409L268 409L280 412L293 412L305 411L318 411L331 410L343 411L356 402L368 406L381 401L393 401L406 399L418 386L431 379L444 372L456 368L469 365L481 343L494 342L506 326L519 311L531 295L544 284L557 284L569 281L582 277L594 274L607 297L619 290L632 284L644 284L657 295L670 279L682 291L695 295L707 307" fill="none" stroke-width="1.5"></path><g fill="#3360a9"><circle cx="29" cy="382" r="2"></circle><circle cx="42" cy="386" r="2"></circle><circle cx="54" cy="378" r="2"></circle><circle cx="67" cy="383" r="2"></circle><circle cx="79" cy="386" r="2"></circle><circle cx="92" cy="395" r="2"></circle><circle cx="104" cy="397" r="2"></circle><circle cx="117" cy="401" r="2"></circle><circle cx="130" cy="399" r="2"></circle><circle cx="142" cy="402" r="2"></circle><circle cx="155" cy="401" r="2"></circle><circle cx="167" cy="408" r="2"></circle><circle cx="180" cy="408" r="2"></circle><circle cx="192" cy="411" r="2"></circle><circle cx="205" cy="415" r="2"></circle><circle cx="217" cy="416" r="2"></circle><circle cx="230" cy="416" r="2"></circle><circle cx="243" cy="408" r="2"></circle><circle cx="255" cy="409" r="2"></circle><circle cx="268" cy="409" r="2"></circle><circle cx="280" cy="412" r="2"></circle><circle cx="293" cy="412" r="2"></circle><circle cx="305" cy="411" r="2"></circle><circle cx="318" cy="411" r="2"></circle><circle cx="331" cy="410" r="2"></circle><circle cx="343" cy="411" r="2"></circle><circle cx="356" cy="402" r="2"></circle><circle cx="368" cy="406" r="2"></circle><circle cx="381" cy="401" r="2"></circle><circle cx="393" cy="401" r="2"></circle><circle cx="406" cy="399" r="2"></circle><circle cx="418" cy="386" r="2"></circle><circle cx="431" cy="379" r="2"></circle><circle cx="444" cy="372" r="2"></circle><circle cx="456" cy="368" r="2"></circle><circle cx="469" cy="365" r="2"></circle><circle cx="481" cy="343" r="2"></circle><circle cx="494" cy="342" r="2"></circle><circle cx="506" cy="326" r="2"></circle><circle cx="519" cy="311" r="2"></circle><circle cx="531" cy="295" r="2"></circle><circle cx="544" cy="284" r="2"></circle><circle cx="557" cy="284" r="2"></circle><circle cx="569" cy="281" r="2"></circle><circle cx="582" cy="277" r="2"></circle><circle cx="594" cy="274" r="2"></circle><circle cx="607" cy="297" r="2"></circle><circle cx="619" cy="290" r="2"></circle><circle cx="632" cy="284" r="2"></circle><circle cx="644" cy="284" r="2"></circle><circle cx="657" cy="295" r="2"></circle><circle cx="670" cy="279" r="2"></circle><circle cx="682" cy="291" r="2"></circle><circle cx="695" cy="295" r="2"></circle><circle cx="707" cy="307" r="2"></circle></g></g></g></g></g><g style="fill: #777;" class="SourcesFooter"><g style="fill: #777;" class="clickable"><text font-size="12.60" x="15.0" y="554.2"><tspan x="15" y="554.1800000000001">Source: World Health Organization (2005)</tspan></text></g><text font-size="12.60" x="15.0" y="568.8"><tspan x="15" y="568.7800000000001">Note: Suicide rates are adjusted for the changing age structure of the population. This chart shows a ratio and does not depict the overall number</tspan><tspan x="15" y="582.6400000000001">or frequency of suicides in a country.</tspan></text><text font-size="12.60" x="602.7" y="554.2"><tspan x="602.656" y="554.1800000000001"><a target='_blank' style='fill: #777;' href='https://ourworldindata.org/suicide/'>OurWorldInData.org/suicide/</a> • <a style="fill: #777;" href="http://creativecommons.org/licenses/by-sa/4.0/deed.en_US" target="_blank">CC BY-SA</a></tspan></text></g></g></svg>