<svg xmlns="http://www.w3.org/2000/svg" version="1.1" style="font-family: 'Helvetica Neue', Helvetica, Arial, sans-serif; font-size: 18px; background-color: white; text-rendering: optimizeLegibility; -webkit-font-smoothing: antialiased;" width="850" height="600"><g class="ChartTab"><g class="HeaderView"><g opacity="0.8" transform="translate(778, 15) scale(0.27)"><a xmlns:xlink="http://www.w3.org/1999/xlink" xlink:href="https://ourworldindata.org" target="_blank"><g><rect x="0" y="0" fill="#1B2543" width="211.2" height="130.1"/><rect x="0" y="112.2" fill="#E63912" width="211.2" height="17.9"/><g><rect x="1.2" y="12.3" fill="none" width="210.2" height="99.2"/><path fill="#FFFFFF" d="M37.8,32.2c0,12.7-7.7,19.4-17.1,19.4c-9.7,0-16.6-7.5-16.6-18.7c0-11.7,7.3-19.3,17.1-19.3 C31.3,13.7,37.8,21.3,37.8,32.2z M9.2,32.8c0,7.9,4.3,14.9,11.8,14.9c7.5,0,11.8-6.9,11.8-15.3c0-7.3-3.8-14.9-11.8-14.9 C13.1,17.5,9.2,24.8,9.2,32.8z"/><path fill="#FFFFFF" d="M62.7,43.8c0,2.7,0.1,5.1,0.2,7.2h-4.3l-0.3-4.3h-0.1c-1.3,2.1-4,4.9-8.8,4.9c-4.2,0-9.1-2.3-9.1-11.6 V24.6h4.8v14.6c0,5,1.5,8.4,5.9,8.4c3.2,0,5.5-2.2,6.3-4.4c0.3-0.7,0.4-1.6,0.4-2.5V24.6h4.8V43.8z"/><path fill="#FFFFFF" d="M67.3,32.8c0-3.1-0.1-5.8-0.2-8.2h4.2l0.2,5.2h0.2c1.2-3.5,4.1-5.8,7.3-5.8c0.5,0,0.9,0.1,1.4,0.2v4.5 c-0.5-0.1-1-0.2-1.6-0.2c-3.4,0-5.8,2.6-6.5,6.2c-0.1,0.7-0.2,1.4-0.2,2.2V51h-4.8V32.8z"/><path fill="#FFFFFF" d="M95.4,51l-9.4-36.8h5l4.4,18.6c1.1,4.6,2.1,9.2,2.7,12.7h0.1c0.6-3.7,1.8-8,3-12.8l4.9-18.5h5l4.5,18.7 c1,4.4,2,8.7,2.6,12.6h0.1c0.8-4,1.8-8.1,3-12.7l4.9-18.5h4.9L120.6,51h-5L111,31.9c-1.1-4.7-1.9-8.3-2.4-12h-0.1 c-0.7,3.7-1.5,7.3-2.8,12L100.4,51H95.4z"/><path fill="#FFFFFF" d="M154.9,37.6c0,9.8-6.8,14-13.2,14c-7.2,0-12.7-5.2-12.7-13.6c0-8.8,5.8-14,13.1-14 C149.8,24,154.9,29.5,154.9,37.6z M133.9,37.9c0,5.8,3.3,10.1,8,10.1c4.6,0,8-4.3,8-10.3c0-4.5-2.2-10.1-7.9-10.1 C136.3,27.6,133.9,32.8,133.9,37.9z"/><path fill="#FFFFFF" d="M158.2,32.8c0-3.1-0.1-5.8-0.2-8.2h4.2l0.2,5.2h0.2c1.2-3.5,4.1-5.8,7.3-5.8c0.5,0,0.9,0.1,1.4,0.2v4.5 c-0.5-0.1-1-0.2-1.6-0.2c-3.4,0-5.8,2.6-6.5,6.2c-0.1,0.7-0.2,1.4-0.2,2.2V51h-4.8V32.8z"/><path fill="#FFFFFF" d="M173.5,12.3h4.8V51h-4.8V12.3z"/><path fill="#FFFFFF" d="M206.5,12.3v31.9c0,2.3,0.1,5,0.2,6.8h-4.3l-0.2-4.6H202c-1.5,2.9-4.7,5.2-9,5.2 c-6.4,0-11.3-5.4-11.3-13.4c-0.1-8.8,5.4-14.2,11.9-14.2c4,0,6.8,1.9,8,4h0.1V12.3H206.5z M201.7,35.4c0-0.6-0.1-1.4-0.2-2 c-0.7-3.1-3.3-5.6-6.9-5.6c-5,0-7.9,4.4-7.9,10.2c0,5.3,2.6,9.8,7.8,9.8c3.2,0,6.2-2.1,7.1-5.7c0.2-0.7,0.2-1.3,0.2-2.1V35.4z"/><path fill="#FFFFFF" d="M42.8,64c0.1,1.6-1.1,2.9-3.1,2.9c-1.7,0-2.9-1.3-2.9-2.9c0-1.7,1.3-3,3-3C41.7,61,42.8,62.3,42.8,64z M37.4,97.8V71.4h4.8v26.4H37.4z"/><path fill="#FFFFFF" d="M47.5,78.6c0-2.7-0.1-5-0.2-7.1h4.3l0.3,4.4h0.1c1.3-2.5,4.4-5,8.8-5c3.7,0,9.4,2.2,9.4,11.2v15.8h-4.8 V82.6c0-4.3-1.6-7.8-6.1-7.8c-3.2,0-5.6,2.2-6.5,4.9c-0.2,0.6-0.3,1.4-0.3,2.2v15.9h-4.8V78.6z"/><path fill="#FFFFFF" d="M84,61.6c2.9-0.4,6.3-0.8,10.1-0.8c6.8,0,11.7,1.6,14.9,4.6c3.3,3,5.2,7.3,5.2,13.2c0,6-1.9,10.9-5.3,14.3 c-3.4,3.4-9.1,5.3-16.3,5.3c-3.4,0-6.2-0.2-8.6-0.4V61.6z M88.8,94.1c1.2,0.2,3,0.3,4.8,0.3c10.2,0,15.7-5.7,15.7-15.6 c0.1-8.7-4.9-14.2-14.9-14.2c-2.5,0-4.3,0.2-5.6,0.5V94.1z"/><path fill="#FFFFFF" d="M132.1,97.8l-0.4-3.3h-0.2c-1.5,2.1-4.3,3.9-8.1,3.9c-5.4,0-8.1-3.8-8.1-7.6c0-6.4,5.7-9.9,15.9-9.8v-0.5 c0-2.2-0.6-6.1-6-6.1c-2.5,0-5,0.8-6.9,2l-1.1-3.2c2.2-1.4,5.4-2.3,8.7-2.3c8.1,0,10.1,5.5,10.1,10.8v9.9c0,2.3,0.1,4.5,0.4,6.3 H132.1z M131.4,84.4c-5.3-0.1-11.2,0.8-11.2,5.9c0,3.1,2.1,4.6,4.5,4.6c3.4,0,5.6-2.2,6.4-4.4c0.2-0.5,0.3-1,0.3-1.5V84.4z"/><path fill="#FFFFFF" d="M146.6,63.9v7.6h6.9v3.7h-6.9v14.2c0,3.3,0.9,5.1,3.6,5.1c1.3,0,2.2-0.2,2.8-0.3l0.2,3.6 c-0.9,0.4-2.4,0.7-4.3,0.7c-2.2,0-4-0.7-5.2-2c-1.4-1.4-1.9-3.8-1.9-6.9V75.1h-4.1v-3.7h4.1v-6.3L146.6,63.9z"/><path fill="#FFFFFF" d="M171.4,97.8l-0.4-3.3h-0.2c-1.5,2.1-4.3,3.9-8.1,3.9c-5.4,0-8.1-3.8-8.1-7.6c0-6.4,5.7-9.9,15.9-9.8v-0.5 c0-2.2-0.6-6.1-6-6.1c-2.5,0-5,0.8-6.9,2l-1.1-3.2c2.2-1.4,5.4-2.3,8.7-2.3c8.1,0,10.1,5.5,10.1,10.8v9.9c0,2.3,0.1,4.5,0.4,6.3 H171.4z M170.7,84.4c-5.3-0.1-11.2,0.8-11.2,5.9c0,3.1,2.1,4.6,4.5,4.6c3.4,0,5.6-2.2,6.4-4.4c0.2-0.5,0.3-1,0.3-1.5V84.4z"/></g></g></a></g><a href="https://ourworldindata.org/grapher/mean-years-of-schooling-selected-countries" target="_blank"><text font-size="25.20" x="15.0" y="35.2" fill="#555"><tspan x="15" y="35.160000000000004">Mean years of schooling</tspan></text></a><text font-size="14.40" x="15.0" y="53.7" fill="#666"><tspan x="15" y="53.72">Average number of years of total schooling across all education levels, for the population aged 15-64.</tspan></text></g><g class="LineChart"><defs><clipPath id="boundsClip-1991"><rect x="28.144000000000005" y="0" width="830" height="959.8"></rect></clipPath></defs><g class="AxisBoxView"><g class="HorizontalAxis"><text x="38.1" y="556.5" fill="#666" text-anchor="middle" font-size="16.2">1870</text><text x="85.9" y="556.5" fill="#666" text-anchor="middle" font-size="16.2">1880</text><text x="181.5" y="556.5" fill="#666" text-anchor="middle" font-size="16.2">1900</text><text x="277.1" y="556.5" fill="#666" text-anchor="middle" font-size="16.2">1920</text><text x="372.7" y="556.5" fill="#666" text-anchor="middle" font-size="16.2">1940</text><text x="468.2" y="556.5" fill="#666" text-anchor="middle" font-size="16.2">1960</text><text x="563.8" y="556.5" fill="#666" text-anchor="middle" font-size="16.2">1980</text><text x="659.4" y="556.5" fill="#666" text-anchor="middle" font-size="16.2">2000</text><text x="707.2" y="556.5" fill="#666" text-anchor="middle" font-size="16.2">2010</text></g><g class="VerticalAxis"><text x="33.14" y="535.3" fill="#666" dominant-baseline="middle" text-anchor="end" font-size="16.2">0</text><text x="33.14" y="464.5" fill="#666" dominant-baseline="middle" text-anchor="end" font-size="16.2">2</text><text x="33.14" y="393.7" fill="#666" dominant-baseline="middle" text-anchor="end" font-size="16.2">4</text><text x="33.14" y="322.9" fill="#666" dominant-baseline="middle" text-anchor="end" font-size="16.2">6</text><text x="33.14" y="252.2" fill="#666" dominant-baseline="middle" text-anchor="end" font-size="16.2">8</text><text x="33.14" y="181.4" fill="#666" dominant-baseline="middle" text-anchor="end" font-size="16.2">10</text><text x="33.14" y="110.6" fill="#666" dominant-baseline="middle" text-anchor="end" font-size="16.2">12</text></g><g class="AxisGridLines"><line x1="38.14" y1="535.3" x2="707.18" y2="535.3" stroke="#ccc"></line><line x1="38.14" y1="464.5" x2="707.18" y2="464.5" stroke="#ddd" stroke-dasharray="3,2"></line><line x1="38.14" y1="393.7" x2="707.18" y2="393.7" stroke="#ddd" stroke-dasharray="3,2"></line><line x1="38.14" y1="322.9" x2="707.18" y2="322.9" stroke="#ddd" stroke-dasharray="3,2"></line><line x1="38.14" y1="252.2" x2="707.18" y2="252.2" stroke="#ddd" stroke-dasharray="3,2"></line><line x1="38.14" y1="181.4" x2="707.18" y2="181.4" stroke="#ddd" stroke-dasharray="3,2"></line><line x1="38.14" y1="110.6" x2="707.18" y2="110.6" stroke="#ddd" stroke-dasharray="3,2"></line></g></g><g clip-path="url(#boundsClip-1991)"><g class="HeightedLegend clickable"><g class="legendMark"><rect x="717.184" y="69.39999999999999" width="95.49600000000001" height="14.4" fill="#fff" opacity="0"></rect><rect x="717.184" y="75.35" width="10" height="2.5" fill="#f6a324"></rect><text font-size="14.40" x="732.2" y="80.9" fill="#333"><tspan x="732.184" y="80.92">South Korea</tspan></text></g><g class="legendMark"><rect x="717.184" y="87.1" width="117.81600000000002" height="14.4" fill="#fff" opacity="0"></rect><rect x="717.184" y="93.05" width="10" height="2.5" fill="#34983f"></rect><text font-size="14.40" x="732.2" y="98.6" fill="#333"><tspan x="732.184" y="98.62">United Kingdom</tspan></text></g><g class="legendMark"><rect x="717.184" y="197.20000000000002" width="75.912" height="14.4" fill="#fff" opacity="0"></rect><rect x="717.184" y="203.15" width="10" height="2.5" fill="#ca2628"></rect><text font-size="14.40" x="732.2" y="208.7" fill="#333"><tspan x="732.184" y="208.72000000000003">Colombia</tspan></text></g><g class="legendMark"><rect x="717.184" y="245" width="61.51200000000001" height="14.4" fill="#fff" opacity="0"></rect><rect x="717.184" y="250.95" width="10" height="2.5" fill="#3360a9"></rect><text font-size="14.40" x="732.2" y="256.5" fill="#333"><tspan x="732.184" y="256.52">Tunisia</tspan></text></g></g><g class="Lines"><rect x="38" y="77" width="669" height="459" fill="rgba(255,255,255,0)" opacity="0"></rect><g class="key-Colombia_0"><path stroke="#ca2628" stroke-linecap="round" d="M38 524L62 522L86 520L110 518L134 517L158 517L182 505L205 500L229 484L253 478L277 472L301 464L325 459L349 453L373 450L397 446L421 451L444 439L468 426L492 413L516 394L540 379L564 359L588 336L612 317L636 299L659 283L683 268L707 204" fill="none" stroke-width="1.5"></path><g fill="#ca2628"><circle cx="38" cy="524" r="2"></circle><circle cx="62" cy="522" r="2"></circle><circle cx="86" cy="520" r="2"></circle><circle cx="110" cy="518" r="2"></circle><circle cx="134" cy="517" r="2"></circle><circle cx="158" cy="517" r="2"></circle><circle cx="182" cy="505" r="2"></circle><circle cx="205" cy="500" r="2"></circle><circle cx="229" cy="484" r="2"></circle><circle cx="253" cy="478" r="2"></circle><circle cx="277" cy="472" r="2"></circle><circle cx="301" cy="464" r="2"></circle><circle cx="325" cy="459" r="2"></circle><circle cx="349" cy="453" r="2"></circle><circle cx="373" cy="450" r="2"></circle><circle cx="397" cy="446" r="2"></circle><circle cx="421" cy="451" r="2"></circle><circle cx="444" cy="439" r="2"></circle><circle cx="468" cy="426" r="2"></circle><circle cx="492" cy="413" r="2"></circle><circle cx="516" cy="394" r="2"></circle><circle cx="540" cy="379" r="2"></circle><circle cx="564" cy="359" r="2"></circle><circle cx="588" cy="336" r="2"></circle><circle cx="612" cy="317" r="2"></circle><circle cx="636" cy="299" r="2"></circle><circle cx="659" cy="283" r="2"></circle><circle cx="683" cy="268" r="2"></circle><circle cx="707" cy="204" r="2"></circle></g></g><g class="key-South-Korea_0"><path stroke="#f6a324" stroke-linecap="round" d="M38 535L62 535L86 535L110 535L134 535L158 535L182 525L205 514L229 506L253 484L277 466L301 451L325 436L349 421L373 407L397 395L421 371L444 351L468 377L492 334L516 302L540 268L564 231L588 198L612 165L636 140L659 118L683 101L707 77" fill="none" stroke-width="1.5"></path><g fill="#f6a324"><circle cx="38" cy="535" r="2"></circle><circle cx="62" cy="535" r="2"></circle><circle cx="86" cy="535" r="2"></circle><circle cx="110" cy="535" r="2"></circle><circle cx="134" cy="535" r="2"></circle><circle cx="158" cy="535" r="2"></circle><circle cx="182" cy="525" r="2"></circle><circle cx="205" cy="514" r="2"></circle><circle cx="229" cy="506" r="2"></circle><circle cx="253" cy="484" r="2"></circle><circle cx="277" cy="466" r="2"></circle><circle cx="301" cy="451" r="2"></circle><circle cx="325" cy="436" r="2"></circle><circle cx="349" cy="421" r="2"></circle><circle cx="373" cy="407" r="2"></circle><circle cx="397" cy="395" r="2"></circle><circle cx="421" cy="371" r="2"></circle><circle cx="444" cy="351" r="2"></circle><circle cx="468" cy="377" r="2"></circle><circle cx="492" cy="334" r="2"></circle><circle cx="516" cy="302" r="2"></circle><circle cx="540" cy="268" r="2"></circle><circle cx="564" cy="231" r="2"></circle><circle cx="588" cy="198" r="2"></circle><circle cx="612" cy="165" r="2"></circle><circle cx="636" cy="140" r="2"></circle><circle cx="659" cy="118" r="2"></circle><circle cx="683" cy="101" r="2"></circle><circle cx="707" cy="77" r="2"></circle></g></g><g class="key-Tunisia_0"><path stroke="#3360a9" stroke-linecap="round" d="M38 535L62 535L86 535L110 535L134 535L158 535L182 535L205 535L229 533L253 531L277 529L301 528L325 527L349 520L373 517L397 514L421 511L444 506L468 501L492 487L516 468L540 442L564 413L588 396L612 370L636 341L659 312L683 280L707 252" fill="none" stroke-width="1.5"></path><g fill="#3360a9"><circle cx="38" cy="535" r="2"></circle><circle cx="62" cy="535" r="2"></circle><circle cx="86" cy="535" r="2"></circle><circle cx="110" cy="535" r="2"></circle><circle cx="134" cy="535" r="2"></circle><circle cx="158" cy="535" r="2"></circle><circle cx="182" cy="535" r="2"></circle><circle cx="205" cy="535" r="2"></circle><circle cx="229" cy="533" r="2"></circle><circle cx="253" cy="531" r="2"></circle><circle cx="277" cy="529" r="2"></circle><circle cx="301" cy="528" r="2"></circle><circle cx="325" cy="527" r="2"></circle><circle cx="349" cy="520" r="2"></circle><circle cx="373" cy="517" r="2"></circle><circle cx="397" cy="514" r="2"></circle><circle cx="421" cy="511" r="2"></circle><circle cx="444" cy="506" r="2"></circle><circle cx="468" cy="501" r="2"></circle><circle cx="492" cy="487" r="2"></circle><circle cx="516" cy="468" r="2"></circle><circle cx="540" cy="442" r="2"></circle><circle cx="564" cy="413" r="2"></circle><circle cx="588" cy="396" r="2"></circle><circle cx="612" cy="370" r="2"></circle><circle cx="636" cy="341" r="2"></circle><circle cx="659" cy="312" r="2"></circle><circle cx="683" cy="280" r="2"></circle><circle cx="707" cy="252" r="2"></circle></g></g><g class="key-United-Kingdom_0"><path stroke="#34983f" stroke-linecap="round" d="M38 503L62 501L86 495L110 486L134 471L158 459L182 445L205 425L229 407L253 391L277 376L301 361L325 344L349 325L373 314L397 307L421 306L444 297L468 287L492 265L516 250L540 238L564 234L588 225L612 207L636 193L659 182L683 126L707 94" fill="none" stroke-width="1.5"></path><g fill="#34983f"><circle cx="38" cy="503" r="2"></circle><circle cx="62" cy="501" r="2"></circle><circle cx="86" cy="495" r="2"></circle><circle cx="110" cy="486" r="2"></circle><circle cx="134" cy="471" r="2"></circle><circle cx="158" cy="459" r="2"></circle><circle cx="182" cy="445" r="2"></circle><circle cx="205" cy="425" r="2"></circle><circle cx="229" cy="407" r="2"></circle><circle cx="253" cy="391" r="2"></circle><circle cx="277" cy="376" r="2"></circle><circle cx="301" cy="361" r="2"></circle><circle cx="325" cy="344" r="2"></circle><circle cx="349" cy="325" r="2"></circle><circle cx="373" cy="314" r="2"></circle><circle cx="397" cy="307" r="2"></circle><circle cx="421" cy="306" r="2"></circle><circle cx="444" cy="297" r="2"></circle><circle cx="468" cy="287" r="2"></circle><circle cx="492" cy="265" r="2"></circle><circle cx="516" cy="250" r="2"></circle><circle cx="540" cy="238" r="2"></circle><circle cx="564" cy="234" r="2"></circle><circle cx="588" cy="225" r="2"></circle><circle cx="612" cy="207" r="2"></circle><circle cx="636" cy="193" r="2"></circle><circle cx="659" cy="182" r="2"></circle><circle cx="683" cy="126" r="2"></circle><circle cx="707" cy="94" r="2"></circle></g></g></g></g></g><g style="fill: #777;" class="SourcesFooter"><g style="fill: #777;" class="clickable"><text font-size="12.60" x="15.0" y="581.6"><tspan x="15" y="581.58">Source: Lee and Lee (2016)</tspan></text></g><text font-size="12.60" x="513.4" y="581.6"><tspan x="513.448" y="581.58"><a target='_blank' style='fill: #777;' href='https://ourworldindata.org/global-rise-of-education'>OurWorldInData.org/global-rise-of-education</a> • <a style="fill: #777;" href="http://creativecommons.org/licenses/by-sa/4.0/deed.en_US" target="_blank">CC BY-SA</a></tspan></text></g></g></svg>