<svg xmlns="http://www.w3.org/2000/svg" version="1.1" style="font-family: 'Helvetica Neue', Helvetica, Arial, sans-serif; font-size: 18px; background-color: white; text-rendering: optimizeLegibility; -webkit-font-smoothing: antialiased;" width="850" height="600"><g class="ChartTab"><g class="HeaderView"><g opacity="0.8" transform="translate(778, 15) scale(0.27)"><a xmlns:xlink="http://www.w3.org/1999/xlink" xlink:href="https://ourworldindata.org" target="_blank"><g><rect x="0" y="0" fill="#1B2543" width="211.2" height="130.1"/><rect x="0" y="112.2" fill="#E63912" width="211.2" height="17.9"/><g><rect x="1.2" y="12.3" fill="none" width="210.2" height="99.2"/><path fill="#FFFFFF" d="M37.8,32.2c0,12.7-7.7,19.4-17.1,19.4c-9.7,0-16.6-7.5-16.6-18.7c0-11.7,7.3-19.3,17.1-19.3 C31.3,13.7,37.8,21.3,37.8,32.2z M9.2,32.8c0,7.9,4.3,14.9,11.8,14.9c7.5,0,11.8-6.9,11.8-15.3c0-7.3-3.8-14.9-11.8-14.9 C13.1,17.5,9.2,24.8,9.2,32.8z"/><path fill="#FFFFFF" d="M62.7,43.8c0,2.7,0.1,5.1,0.2,7.2h-4.3l-0.3-4.3h-0.1c-1.3,2.1-4,4.9-8.8,4.9c-4.2,0-9.1-2.3-9.1-11.6 V24.6h4.8v14.6c0,5,1.5,8.4,5.9,8.4c3.2,0,5.5-2.2,6.3-4.4c0.3-0.7,0.4-1.6,0.4-2.5V24.6h4.8V43.8z"/><path fill="#FFFFFF" d="M67.3,32.8c0-3.1-0.1-5.8-0.2-8.2h4.2l0.2,5.2h0.2c1.2-3.5,4.1-5.8,7.3-5.8c0.5,0,0.9,0.1,1.4,0.2v4.5 c-0.5-0.1-1-0.2-1.6-0.2c-3.4,0-5.8,2.6-6.5,6.2c-0.1,0.7-0.2,1.4-0.2,2.2V51h-4.8V32.8z"/><path fill="#FFFFFF" d="M95.4,51l-9.4-36.8h5l4.4,18.6c1.1,4.6,2.1,9.2,2.7,12.7h0.1c0.6-3.7,1.8-8,3-12.8l4.9-18.5h5l4.5,18.7 c1,4.4,2,8.7,2.6,12.6h0.1c0.8-4,1.8-8.1,3-12.7l4.9-18.5h4.9L120.6,51h-5L111,31.9c-1.1-4.7-1.9-8.3-2.4-12h-0.1 c-0.7,3.7-1.5,7.3-2.8,12L100.4,51H95.4z"/><path fill="#FFFFFF" d="M154.9,37.6c0,9.8-6.8,14-13.2,14c-7.2,0-12.7-5.2-12.7-13.6c0-8.8,5.8-14,13.1-14 C149.8,24,154.9,29.5,154.9,37.6z M133.9,37.9c0,5.8,3.3,10.1,8,10.1c4.6,0,8-4.3,8-10.3c0-4.5-2.2-10.1-7.9-10.1 C136.3,27.6,133.9,32.8,133.9,37.9z"/><path fill="#FFFFFF" d="M158.2,32.8c0-3.1-0.1-5.8-0.2-8.2h4.2l0.2,5.2h0.2c1.2-3.5,4.1-5.8,7.3-5.8c0.5,0,0.9,0.1,1.4,0.2v4.5 c-0.5-0.1-1-0.2-1.6-0.2c-3.4,0-5.8,2.6-6.5,6.2c-0.1,0.7-0.2,1.4-0.2,2.2V51h-4.8V32.8z"/><path fill="#FFFFFF" d="M173.5,12.3h4.8V51h-4.8V12.3z"/><path fill="#FFFFFF" d="M206.5,12.3v31.9c0,2.3,0.1,5,0.2,6.8h-4.3l-0.2-4.6H202c-1.5,2.9-4.7,5.2-9,5.2 c-6.4,0-11.3-5.4-11.3-13.4c-0.1-8.8,5.4-14.2,11.9-14.2c4,0,6.8,1.9,8,4h0.1V12.3H206.5z M201.7,35.4c0-0.6-0.1-1.4-0.2-2 c-0.7-3.1-3.3-5.6-6.9-5.6c-5,0-7.9,4.4-7.9,10.2c0,5.3,2.6,9.8,7.8,9.8c3.2,0,6.2-2.1,7.1-5.7c0.2-0.7,0.2-1.3,0.2-2.1V35.4z"/><path fill="#FFFFFF" d="M42.8,64c0.1,1.6-1.1,2.9-3.1,2.9c-1.7,0-2.9-1.3-2.9-2.9c0-1.7,1.3-3,3-3C41.7,61,42.8,62.3,42.8,64z M37.4,97.8V71.4h4.8v26.4H37.4z"/><path fill="#FFFFFF" d="M47.5,78.6c0-2.7-0.1-5-0.2-7.1h4.3l0.3,4.4h0.1c1.3-2.5,4.4-5,8.8-5c3.7,0,9.4,2.2,9.4,11.2v15.8h-4.8 V82.6c0-4.3-1.6-7.8-6.1-7.8c-3.2,0-5.6,2.2-6.5,4.9c-0.2,0.6-0.3,1.4-0.3,2.2v15.9h-4.8V78.6z"/><path fill="#FFFFFF" d="M84,61.6c2.9-0.4,6.3-0.8,10.1-0.8c6.8,0,11.7,1.6,14.9,4.6c3.3,3,5.2,7.3,5.2,13.2c0,6-1.9,10.9-5.3,14.3 c-3.4,3.4-9.1,5.3-16.3,5.3c-3.4,0-6.2-0.2-8.6-0.4V61.6z M88.8,94.1c1.2,0.2,3,0.3,4.8,0.3c10.2,0,15.7-5.7,15.7-15.6 c0.1-8.7-4.9-14.2-14.9-14.2c-2.5,0-4.3,0.2-5.6,0.5V94.1z"/><path fill="#FFFFFF" d="M132.1,97.8l-0.4-3.3h-0.2c-1.5,2.1-4.3,3.9-8.1,3.9c-5.4,0-8.1-3.8-8.1-7.6c0-6.4,5.7-9.9,15.9-9.8v-0.5 c0-2.2-0.6-6.1-6-6.1c-2.5,0-5,0.8-6.9,2l-1.1-3.2c2.2-1.4,5.4-2.3,8.7-2.3c8.1,0,10.1,5.5,10.1,10.8v9.9c0,2.3,0.1,4.5,0.4,6.3 H132.1z M131.4,84.4c-5.3-0.1-11.2,0.8-11.2,5.9c0,3.1,2.1,4.6,4.5,4.6c3.4,0,5.6-2.2,6.4-4.4c0.2-0.5,0.3-1,0.3-1.5V84.4z"/><path fill="#FFFFFF" d="M146.6,63.9v7.6h6.9v3.7h-6.9v14.2c0,3.3,0.9,5.1,3.6,5.1c1.3,0,2.2-0.2,2.8-0.3l0.2,3.6 c-0.9,0.4-2.4,0.7-4.3,0.7c-2.2,0-4-0.7-5.2-2c-1.4-1.4-1.9-3.8-1.9-6.9V75.1h-4.1v-3.7h4.1v-6.3L146.6,63.9z"/><path fill="#FFFFFF" d="M171.4,97.8l-0.4-3.3h-0.2c-1.5,2.1-4.3,3.9-8.1,3.9c-5.4,0-8.1-3.8-8.1-7.6c0-6.4,5.7-9.9,15.9-9.8v-0.5 c0-2.2-0.6-6.1-6-6.1c-2.5,0-5,0.8-6.9,2l-1.1-3.2c2.2-1.4,5.4-2.3,8.7-2.3c8.1,0,10.1,5.5,10.1,10.8v9.9c0,2.3,0.1,4.5,0.4,6.3 H171.4z M170.7,84.4c-5.3-0.1-11.2,0.8-11.2,5.9c0,3.1,2.1,4.6,4.5,4.6c3.4,0,5.6-2.2,6.4-4.4c0.2-0.5,0.3-1,0.3-1.5V84.4z"/></g></g></a></g><a href="https://ourworldindata.org/grapher/mobile-and-fixed-landline-telephone-subscriptions" target="_blank"><text font-size="25.20" x="15.0" y="35.2" fill="#555"><tspan x="15" y="35.160000000000004">Mobile and fixed landline telephone subscriptions, United Kingdom</tspan></text></a><text font-size="14.40" x="15.0" y="53.7" fill="#666"><tspan x="15" y="53.72">The number of fixed landline telephone and mobile cellular phone subscriptions, measured per 100 people.</tspan></text></g><g class="LineChart"><defs><clipPath id="boundsClip-2057"><rect x="37.216" y="0" width="830" height="959.8"></rect></clipPath></defs><g class="AxisBoxView"><g class="HorizontalAxis"><text x="47.2" y="556.5" fill="#666" text-anchor="middle" font-size="16.2">1960</text><text x="140.6" y="556.5" fill="#666" text-anchor="middle" font-size="16.2">1970</text><text x="234" y="556.5" fill="#666" text-anchor="middle" font-size="16.2">1980</text><text x="327.4" y="556.5" fill="#666" text-anchor="middle" font-size="16.2">1990</text><text x="420.8" y="556.5" fill="#666" text-anchor="middle" font-size="16.2">2000</text><text x="514.2" y="556.5" fill="#666" text-anchor="middle" font-size="16.2">2010</text><text x="560.9" y="556.5" fill="#666" text-anchor="middle" font-size="16.2">2015</text></g><g class="VerticalAxis"><text x="42.22" y="535.3" fill="#666" dominant-baseline="middle" text-anchor="end" font-size="16.2">0</text><text x="42.22" y="461.8" fill="#666" dominant-baseline="middle" text-anchor="end" font-size="16.2">20</text><text x="42.22" y="388.2" fill="#666" dominant-baseline="middle" text-anchor="end" font-size="16.2">40</text><text x="42.22" y="314.7" fill="#666" dominant-baseline="middle" text-anchor="end" font-size="16.2">60</text><text x="42.22" y="241.2" fill="#666" dominant-baseline="middle" text-anchor="end" font-size="16.2">80</text><text x="42.22" y="167.6" fill="#666" dominant-baseline="middle" text-anchor="end" font-size="16.2">100</text><text x="42.22" y="94.1" fill="#666" dominant-baseline="middle" text-anchor="end" font-size="16.2">120</text></g><g class="AxisGridLines"><line x1="47.22" y1="535.3" x2="560.88" y2="535.3" stroke="#ccc"></line><line x1="47.22" y1="461.8" x2="560.88" y2="461.8" stroke="#ddd" stroke-dasharray="3,2"></line><line x1="47.22" y1="388.2" x2="560.88" y2="388.2" stroke="#ddd" stroke-dasharray="3,2"></line><line x1="47.22" y1="314.7" x2="560.88" y2="314.7" stroke="#ddd" stroke-dasharray="3,2"></line><line x1="47.22" y1="241.2" x2="560.88" y2="241.2" stroke="#ddd" stroke-dasharray="3,2"></line><line x1="47.22" y1="167.6" x2="560.88" y2="167.6" stroke="#ddd" stroke-dasharray="3,2"></line><line x1="47.22" y1="94.1" x2="560.88" y2="94.1" stroke="#ddd" stroke-dasharray="3,2"></line></g></g><g clip-path="url(#boundsClip-2057)"><g class="HeightedLegend clickable"><g class="legendMark"><rect x="570.88" y="63.95" width="253.32000000000002" height="29.900000000000002" fill="#fff" opacity="0"></rect><rect x="570.88" y="77.65" width="10" height="2.5" fill="#ca2628"></rect><text font-size="14.40" x="585.9" y="75.5" fill="#333"><tspan x="585.88" y="75.47000000000001">Mobile cellular subscriptions (per 100</tspan><tspan x="585.88" y="91.31000000000002">people)</tspan></text></g><g class="legendMark"><rect x="570.88" y="329.05" width="264.12" height="29.900000000000002" fill="#fff" opacity="0"></rect><rect x="570.88" y="342.75" width="10" height="2.5" fill="#3360a9"></rect><text font-size="14.40" x="585.9" y="340.6" fill="#333"><tspan x="585.88" y="340.57">Fixed telephone subscriptions (per 100</tspan><tspan x="585.88" y="356.40999999999997">people)</tspan></text></g></g><g class="Lines"><rect x="47" y="77" width="514" height="459" fill="rgba(255,255,255,0)" opacity="0"></rect><g class="key-United-Kingdom_0"><path stroke="#ca2628" stroke-linecap="round" d="M47 535L94 535L141 535L187 535L197 535L206 535L215 535L225 535L234 535L243 535L253 535L262 535L271 535L281 535L290 535L299 533L309 532L318 529L327 528L337 527L346 526L355 521L365 510L374 499L383 490L393 480L402 442L412 365L421 264L430 248L440 231L449 201L458 170L468 136L477 110L486 90L496 86L505 80L514 81L524 81L533 77L542 77L552 81L561 79" fill="none" stroke-width="1.5"></path><g fill="#ca2628"><circle cx="47" cy="535" r="2"></circle><circle cx="94" cy="535" r="2"></circle><circle cx="141" cy="535" r="2"></circle><circle cx="187" cy="535" r="2"></circle><circle cx="197" cy="535" r="2"></circle><circle cx="206" cy="535" r="2"></circle><circle cx="215" cy="535" r="2"></circle><circle cx="225" cy="535" r="2"></circle><circle cx="234" cy="535" r="2"></circle><circle cx="243" cy="535" r="2"></circle><circle cx="253" cy="535" r="2"></circle><circle cx="262" cy="535" r="2"></circle><circle cx="271" cy="535" r="2"></circle><circle cx="281" cy="535" r="2"></circle><circle cx="290" cy="535" r="2"></circle><circle cx="299" cy="533" r="2"></circle><circle cx="309" cy="532" r="2"></circle><circle cx="318" cy="529" r="2"></circle><circle cx="327" cy="528" r="2"></circle><circle cx="337" cy="527" r="2"></circle><circle cx="346" cy="526" r="2"></circle><circle cx="355" cy="521" r="2"></circle><circle cx="365" cy="510" r="2"></circle><circle cx="374" cy="499" r="2"></circle><circle cx="383" cy="490" r="2"></circle><circle cx="393" cy="480" r="2"></circle><circle cx="402" cy="442" r="2"></circle><circle cx="412" cy="365" r="2"></circle><circle cx="421" cy="264" r="2"></circle><circle cx="430" cy="248" r="2"></circle><circle cx="440" cy="231" r="2"></circle><circle cx="449" cy="201" r="2"></circle><circle cx="458" cy="170" r="2"></circle><circle cx="468" cy="136" r="2"></circle><circle cx="477" cy="110" r="2"></circle><circle cx="486" cy="90" r="2"></circle><circle cx="496" cy="86" r="2"></circle><circle cx="505" cy="80" r="2"></circle><circle cx="514" cy="81" r="2"></circle><circle cx="524" cy="81" r="2"></circle><circle cx="533" cy="77" r="2"></circle><circle cx="542" cy="77" r="2"></circle><circle cx="552" cy="81" r="2"></circle><circle cx="561" cy="79" r="2"></circle></g></g><g class="key-United-Kingdom_2"><path stroke="#3360a9" stroke-linecap="round" d="M47 500L94 491L141 474L187 449L197 444L206 437L215 429L225 422L234 417L243 413L253 410L262 406L271 402L281 398L290 394L299 389L309 382L318 376L327 372L337 369L346 366L355 361L365 355L374 349L383 341L393 334L402 329L412 322L421 316L430 321L440 320L449 323L458 323L468 328L477 330L486 334L496 330L505 336L514 337L524 340L533 341L542 341L552 343L561 344" fill="none" stroke-width="1.5"></path><g fill="#3360a9"><circle cx="47" cy="500" r="2"></circle><circle cx="94" cy="491" r="2"></circle><circle cx="141" cy="474" r="2"></circle><circle cx="187" cy="449" r="2"></circle><circle cx="197" cy="444" r="2"></circle><circle cx="206" cy="437" r="2"></circle><circle cx="215" cy="429" r="2"></circle><circle cx="225" cy="422" r="2"></circle><circle cx="234" cy="417" r="2"></circle><circle cx="243" cy="413" r="2"></circle><circle cx="253" cy="410" r="2"></circle><circle cx="262" cy="406" r="2"></circle><circle cx="271" cy="402" r="2"></circle><circle cx="281" cy="398" r="2"></circle><circle cx="290" cy="394" r="2"></circle><circle cx="299" cy="389" r="2"></circle><circle cx="309" cy="382" r="2"></circle><circle cx="318" cy="376" r="2"></circle><circle cx="327" cy="372" r="2"></circle><circle cx="337" cy="369" r="2"></circle><circle cx="346" cy="366" r="2"></circle><circle cx="355" cy="361" r="2"></circle><circle cx="365" cy="355" r="2"></circle><circle cx="374" cy="349" r="2"></circle><circle cx="383" cy="341" r="2"></circle><circle cx="393" cy="334" r="2"></circle><circle cx="402" cy="329" r="2"></circle><circle cx="412" cy="322" r="2"></circle><circle cx="421" cy="316" r="2"></circle><circle cx="430" cy="321" r="2"></circle><circle cx="440" cy="320" r="2"></circle><circle cx="449" cy="323" r="2"></circle><circle cx="458" cy="323" r="2"></circle><circle cx="468" cy="328" r="2"></circle><circle cx="477" cy="330" r="2"></circle><circle cx="486" cy="334" r="2"></circle><circle cx="496" cy="330" r="2"></circle><circle cx="505" cy="336" r="2"></circle><circle cx="514" cy="337" r="2"></circle><circle cx="524" cy="340" r="2"></circle><circle cx="533" cy="341" r="2"></circle><circle cx="542" cy="341" r="2"></circle><circle cx="552" cy="343" r="2"></circle><circle cx="561" cy="344" r="2"></circle></g></g></g></g></g><g style="fill: #777;" class="SourcesFooter"><g style="fill: #777;" class="clickable"><text font-size="12.60" x="15.0" y="581.6"><tspan x="15" y="581.58">Source: World Bank, World Development Indicators (WDI)</tspan></text></g><text font-size="12.60" x="527.9" y="581.6"><tspan x="527.938" y="581.58"><a target='_blank' style='fill: #777;' href='https://ourworldindata.org/technology-adoption/'>OurWorldInData.org/technology-adoption/</a> • <a style="fill: #777;" href="http://creativecommons.org/licenses/by-sa/4.0/deed.en_US" target="_blank">CC BY-SA</a></tspan></text></g></g></svg>