<svg xmlns="http://www.w3.org/2000/svg" version="1.1" style="background-color:#fff;-webkit-font-smoothing:antialiased" width="850" height="600" viewBox="0 0 850 600" font-family="Lato,'Helvetica Neue',Helvetica,Arial,sans-serif" font-size="18" text-rendering="optimizeLegibility"><g class="HeaderView"><g transform="matrix(.29 0 0 .29 774 15)"><svg width="210" height="120" viewBox="0 0 210 120" fill="none" xmlns="http://www.w3.org/2000/svg"><g clip-path="url(#clip0)"><path d="M0 0h210v107.89H0V0z" fill="#002147"/><path d="M40.98 32.25c0 2.36-.38 4.53-1.12 6.51a14.26 14.26 0 01-8.1 8.4c-1.9.78-4.02 1.17-6.34 1.17a16.6 16.6 0 01-6.33-1.17 14.31 14.31 0 01-8.08-8.4 18.29 18.29 0 01-1.12-6.51c0-2.36.38-4.53 1.12-6.5a14.32 14.32 0 018.07-8.44c1.92-.8 4.03-1.19 6.34-1.19 2.32 0 4.43.4 6.34 1.19 1.92.8 3.56 1.9 4.93 3.34a14.87 14.87 0 013.17 5.1 18.1 18.1 0 011.12 6.5zm-4.38 0c0-1.94-.26-3.68-.8-5.22a10.91 10.91 0 00-2.24-3.89 9.68 9.68 0 00-3.52-2.46 11.95 11.95 0 00-4.62-.86c-1.68 0-3.21.28-4.6.86a9.88 9.88 0 00-3.54 2.46 10.91 10.91 0 00-2.24 3.9c-.53 1.53-.8 3.27-.8 5.2 0 1.94.27 3.68.8 5.22a11.17 11.17 0 002.24 3.9 10.01 10.01 0 003.55 2.44c1.38.56 2.9.83 4.6.83 1.7 0 3.24-.27 4.61-.83a9.8 9.8 0 003.52-2.44 11.17 11.17 0 002.25-3.9c.53-1.54.8-3.28.8-5.21zm26.22-6.54V48H60.5c-.56 0-.9-.27-1.05-.81l-.31-2.4a12.45 12.45 0 01-3.26 2.6c-1.2.64-2.58.96-4.13.96-1.22 0-2.3-.2-3.24-.6a6.52 6.52 0 01-2.33-1.7 7.37 7.37 0 01-1.43-2.67c-.3-1.04-.46-2.2-.46-3.45V25.7h3.91v14.22c0 1.68.38 2.99 1.15 3.91.77.93 1.96 1.39 3.54 1.39 1.16 0 2.24-.27 3.23-.82a10.42 10.42 0 002.8-2.28V25.7h3.91zm8.61 4.47a9.94 9.94 0 012.6-3.56 5.64 5.64 0 013.76-1.3c.47 0 .92.05 1.34.15.44.1.83.27 1.17.49l-.3 2.92c-.09.37-.3.55-.66.55-.2 0-.5-.04-.9-.13a6.21 6.21 0 00-3.24.18c-.54.2-1.03.5-1.47.92-.42.4-.81.9-1.17 1.5-.33.58-.64 1.26-.92 2.02V48H67.7V25.71h2.25c.42 0 .72.08.88.25.16.16.27.44.33.83l.26 3.39zm61.16-13.7L122.75 48h-3.82l-7.99-24.05a21.95 21.95 0 01-.42-1.58 38.36 38.36 0 01-.44 1.58L102.05 48h-3.83L88.4 16.47h3.54c.38 0 .7.1.95.29.26.2.43.43.5.73l6.52 21.9c.1.4.2.83.28 1.28.1.46.2.94.29 1.46l.3-1.46c.12-.47.25-.9.38-1.27l7.41-21.91c.1-.25.26-.48.51-.69.27-.22.58-.33.95-.33h1.23c.38 0 .69.1.92.29.24.2.41.43.53.73l7.4 21.9a28.4 28.4 0 01.68 2.62 29.52 29.52 0 01.52-2.61l6.54-21.91c.07-.27.23-.5.48-.7.27-.21.58-.32.95-.32h3.32zm9.35 8.88c1.63 0 3.1.27 4.4.82a9.43 9.43 0 015.46 5.94c.5 1.4.74 2.98.74 4.73 0 1.76-.25 3.34-.74 4.75a9.43 9.43 0 01-5.46 5.92c-1.3.52-2.77.79-4.4.79-1.64 0-3.12-.27-4.44-.8a9.42 9.42 0 01-3.35-2.3c-.92-1-1.63-2.2-2.13-3.61-.49-1.41-.73-3-.73-4.75s.24-3.33.73-4.73c.5-1.43 1.2-2.64 2.13-3.63a9.4 9.4 0 013.35-2.31c1.32-.55 2.8-.82 4.44-.82zm0 19.89c2.2 0 3.84-.73 4.93-2.2 1.08-1.48 1.63-3.54 1.63-6.18 0-2.66-.55-4.72-1.63-6.2-1.09-1.49-2.73-2.23-4.93-2.23-1.12 0-2.09.2-2.93.57a5.7 5.7 0 00-2.06 1.65 7.5 7.5 0 00-1.24 2.67c-.26 1.04-.4 2.22-.4 3.54 0 2.64.55 4.7 1.64 6.18 1.1 1.47 2.76 2.2 4.99 2.2zm17.97-15.07a9.94 9.94 0 012.6-3.56 5.64 5.64 0 013.76-1.3c.47 0 .91.05 1.34.15.44.1.83.27 1.16.49l-.28 2.92c-.09.37-.31.55-.66.55-.2 0-.5-.04-.9-.13a6.2 6.2 0 00-3.24.18c-.54.2-1.03.5-1.47.92-.43.4-.82.9-1.17 1.5a13.1 13.1 0 00-.92 2.02V48h-3.94V25.71h2.24c.43 0 .72.08.88.25.17.16.28.44.33.83l.27 3.39zm15.04-14.59V48h-3.92V15.6h3.92zm19.55 15.43a6.22 6.22 0 00-2.38-2.05 6.7 6.7 0 00-2.86-.6c-2.07 0-3.66.75-4.77 2.23-1.12 1.48-1.68 3.6-1.68 6.33 0 1.46.13 2.7.38 3.74a7.29 7.29 0 001.1 2.56 4.35 4.35 0 001.78 1.45c.7.3 1.5.46 2.4.46 1.29 0 2.41-.3 3.36-.88a9.6 9.6 0 002.67-2.49V31.02zm3.91-15.43V48h-2.33c-.56 0-.9-.27-1.06-.81l-.35-2.71a12.13 12.13 0 01-3.25 2.77 8.28 8.28 0 01-4.23 1.06 7.31 7.31 0 01-6.14-2.9c-.73-.96-1.3-2.15-1.69-3.57a18.35 18.35 0 01.07-9.48 11.29 11.29 0 011.89-3.7 8.7 8.7 0 017.06-3.34 7.96 7.96 0 016.12 2.62V15.59h3.91zM46.61 70.71V93H42.7V70.71h3.91zm.84-7c0 .39-.08.75-.24 1.09a2.81 2.81 0 01-1.52 1.47 2.67 2.67 0 01-2.16 0 2.9 2.9 0 01-1.45-1.47 2.67 2.67 0 010-2.16c.15-.35.35-.65.6-.9.25-.27.53-.47.85-.62a2.67 2.67 0 012.16 0c.35.15.65.35.9.62.27.25.47.55.62.9.16.34.24.7.24 1.08zm7.97 10.24c.49-.54 1-1.04 1.54-1.48a9.85 9.85 0 013.66-1.84 8.96 8.96 0 015.43.35c.94.4 1.72.97 2.33 1.71a7.36 7.36 0 011.43 2.67c.32 1.04.49 2.19.49 3.45V93h-3.94V78.81c0-1.69-.4-3-1.17-3.92-.76-.93-1.93-1.4-3.5-1.4a6.6 6.6 0 00-3.25.83c-1 .56-1.92 1.31-2.77 2.27V93h-3.94V70.71h2.35c.56 0 .9.28 1.04.82l.3 2.42zm57.7 3.3c0 2.36-.37 4.5-1.11 6.44a14.3 14.3 0 01-3.17 4.98 14.1 14.1 0 01-4.93 3.2c-1.9.76-4.02 1.13-6.33 1.13H85.8V61.47h11.77c2.31 0 4.42.39 6.33 1.15a13.8 13.8 0 018.1 8.18 17.75 17.75 0 011.12 6.45zm-4.37 0c0-1.94-.26-3.67-.8-5.2a10.94 10.94 0 00-2.23-3.87 9.57 9.57 0 00-3.53-2.42 12.23 12.23 0 00-4.61-.83h-7.5v24.62h7.5c1.7 0 3.24-.28 4.61-.84a9.7 9.7 0 003.53-2.4 10.94 10.94 0 002.24-3.87c.53-1.53.8-3.26.8-5.2zm19.8 5.72c-1.8.06-3.34.2-4.62.44-1.26.22-2.3.51-3.1.88-.8.36-1.37.8-1.74 1.3-.35.5-.53 1.05-.53 1.67 0 .58.1 1.1.3 1.52a3 3 0 00.76 1.05c.34.27.73.46 1.17.6.45.11.94.17 1.45.17a7.28 7.28 0 003.5-.81 11.95 11.95 0 002.82-2.2v-4.62zm-12.65-9.11a12.73 12.73 0 013.98-2.66c1.43-.59 3-.88 4.73-.88 1.25 0 2.36.2 3.33.61a6.81 6.81 0 013.94 4.38c.33 1.04.5 2.19.5 3.43V93h-1.74a1.8 1.8 0 01-.88-.18c-.2-.13-.36-.38-.48-.74l-.44-2.12c-.59.55-1.16 1.03-1.72 1.46a9.48 9.48 0 01-3.74 1.7c-.69.15-1.46.23-2.3.23-.87 0-1.69-.12-2.45-.35a5.34 5.34 0 01-3.34-2.93 6.64 6.64 0 01-.49-2.64c0-.88.25-1.72.73-2.53a6.33 6.33 0 012.35-2.17c1.09-.63 2.5-1.15 4.25-1.54 1.75-.41 3.89-.65 6.42-.7v-1.75c0-1.73-.37-3.03-1.12-3.91-.75-.9-1.84-1.34-3.28-1.34-.97 0-1.78.12-2.44.37-.64.23-1.2.5-1.7.81l-1.23.82c-.33.23-.67.35-1 .35-.27 0-.5-.07-.69-.2a2.1 2.1 0 01-.48-.53l-.7-1.25zm27.67 19.5c-1.76 0-3.12-.5-4.07-1.48-.94-.98-1.41-2.4-1.41-4.25V74h-2.68a.9.9 0 01-.6-.2c-.16-.14-.24-.36-.24-.66v-1.56l3.65-.46.9-6.89a.9.9 0 01.29-.52.88.88 0 01.62-.22H142v7.67h6.44V74H142v13.38c0 .94.22 1.63.68 2.09.45.45 1.04.68 1.76.68a3.21 3.21 0 001.85-.53l.55-.35c.16-.12.3-.18.41-.18.2 0 .4.13.55.38l1.15 1.87a7.45 7.45 0 01-2.44 1.5c-.96.35-1.94.52-2.95.52zm19.68-10.4c-1.8.07-3.34.21-4.62.45-1.26.22-2.3.51-3.1.88-.8.36-1.37.8-1.74 1.3-.35.5-.53 1.05-.53 1.67 0 .58.1 1.1.3 1.52.18.42.44.77.76 1.05.34.27.73.46 1.17.6.45.11.94.17 1.45.17a7.3 7.3 0 003.5-.81 12.04 12.04 0 002.82-2.2v-4.62zm-12.65-9.1a12.72 12.72 0 013.99-2.66c1.42-.59 3-.88 4.72-.88 1.25 0 2.36.2 3.33.61a6.81 6.81 0 013.94 4.38c.33 1.04.5 2.19.5 3.43V93h-1.74a1.8 1.8 0 01-.88-.18c-.2-.13-.36-.38-.48-.74l-.44-2.12c-.59.55-1.16 1.03-1.72 1.46a9.48 9.48 0 01-3.74 1.7c-.69.15-1.46.23-2.3.23-.87 0-1.69-.12-2.45-.35a5.33 5.33 0 01-3.34-2.93 6.62 6.62 0 01-.49-2.64c0-.88.25-1.72.73-2.53a6.33 6.33 0 012.35-2.17c1.09-.63 2.5-1.15 4.25-1.54a31.2 31.2 0 016.42-.7v-1.75c0-1.73-.37-3.03-1.12-3.91-.75-.9-1.84-1.34-3.28-1.34-.97 0-1.78.12-2.44.37-.64.23-1.2.5-1.7.81-.46.3-.87.57-1.22.82-.34.23-.68.35-1.02.35-.26 0-.49-.07-.68-.2a1.88 1.88 0 01-.48-.53l-.7-1.25z" fill="#fff"/><path fill="#D42B21" d="M0 106.79h210V120H0z"/></g><defs><clipPath id="clip0"><path fill="#fff" d="M0 0h210v120H0z"/></clipPath></defs></svg></g><a href="https://ourworldindata.org/grapher/mockupbyHRkfjgkajirejgdfvndflkna" target="_blank" font-family="&quot;Playfair Display&quot;,Georgia,&quot;Times New Roman&quot;,serif"><text font-size="25.2" x="15" y="35.2" fill="#555"><tspan x="15" y="35.16">Experience curves, 1867 to 2014</tspan></text></a></g><g class="ScatterPlot"><g class="AxisBoxView"><g class="HorizontalAxis"><text font-size="12.6" x="311.1" y="554"><tspan x="311.13" y="553.98">Cumulative production</tspan></text><text x="121.4" y="533.9" fill="#666" text-anchor="middle" font-size="16.2">0.001</text><text x="169.4" y="533.9" fill="#666" text-anchor="middle" font-size="16.2">0.01</text><text x="217.3" y="533.9" fill="#666" text-anchor="middle" font-size="16.2">0.1</text><text x="265.3" y="533.9" fill="#666" text-anchor="middle" font-size="16.2">1</text><text x="313.2" y="533.9" fill="#666" text-anchor="middle" font-size="16.2">10</text><text x="361.2" y="533.9" fill="#666" text-anchor="middle" font-size="16.2">100</text><text x="409.1" y="533.9" fill="#666" text-anchor="middle" font-size="16.2">1,000</text><text x="505" y="533.9" fill="#666" text-anchor="middle" font-size="16.2">100,000</text><text x="600.9" y="533.9" fill="#666" text-anchor="middle" font-size="16.2">10 million</text><text x="696.8" y="533.9" fill="#666" text-anchor="middle" font-size="16.2">1 billion</text></g><g class="VerticalAxis"><text font-size="12.6" x="-337.8" y="25.1" transform="rotate(-90)"><tspan x="-337.82" y="25.08">Unit cost</tspan></text><text x="114.71" y="499.6" fill="#666" dominant-baseline="middle" text-anchor="end" font-size="16.2">0.0000001</text><text x="114.71" y="460.8" fill="#666" dominant-baseline="middle" text-anchor="end" font-size="16.2">0.000001</text><text x="114.71" y="421.9" fill="#666" dominant-baseline="middle" text-anchor="end" font-size="16.2">0.00001</text><text x="114.71" y="383.1" fill="#666" dominant-baseline="middle" text-anchor="end" font-size="16.2">0.0001</text><text x="114.71" y="344.2" fill="#666" dominant-baseline="middle" text-anchor="end" font-size="16.2">0.001</text><text x="114.71" y="305.4" fill="#666" dominant-baseline="middle" text-anchor="end" font-size="16.2">0.01</text><text x="114.71" y="266.5" fill="#666" dominant-baseline="middle" text-anchor="end" font-size="16.2">0.1</text><text x="114.71" y="227.7" fill="#666" dominant-baseline="middle" text-anchor="end" font-size="16.2">1</text><text x="114.71" y="188.8" fill="#666" dominant-baseline="middle" text-anchor="end" font-size="16.2">10</text><text x="114.71" y="150" fill="#666" dominant-baseline="middle" text-anchor="end" font-size="16.2">100</text><text x="114.71" y="111.1" fill="#666" dominant-baseline="middle" text-anchor="end" font-size="16.2">1,000</text><text x="114.71" y="72.3" fill="#666" dominant-baseline="middle" text-anchor="end" font-size="16.2">10,000</text></g><g class="AxisGridLines horizontalLines" stroke="#ddd" stroke-dasharray="3,2"><path d="M119.71 499.6H733M119.71 460.8H733M119.71 421.9H733M119.71 383.1H733M119.71 344.2H733M119.71 305.4H733M119.71 266.5H733M119.71 227.7H733M119.71 188.8H733M119.71 150H733M119.71 111.1H733M119.71 72.3H733"/></g><g class="AxisGridLines verticalLines" stroke="#ddd" stroke-dasharray="3,2"><path d="M121.4 512.7V70M169.4 512.7V70M217.3 512.7V70M265.3 512.7V70M313.2 512.7V70M361.2 512.7V70M409.1 512.7V70M457.1 512.7V70M505 512.7V70M552.9 512.7V70M600.9 512.7V70M648.8 512.7V70M696.8 512.7V70"/></g></g><g class="PointsWithLabels clickable" clip-path="url(#a)" font-family="Arial, sans-serif"><path fill="rgba(255,255,255,0)" d="M119.71 70H733v442.7H119.71z"/><defs><clipPath id="a"><path d="M109.71 60H743v462.7H109.71z"/></clipPath></defs><g class="key-Wheat_0"><path stroke-width="1.68" opacity=".9" stroke="#959595" fill="none" stroke-linecap="butt" d="M372 153l17 1 10 1 8-2h5l4-1 4 2h3l4-3h2l3 4h2l3-1h2l2-3 2 5 2-3 2 3 2-4 1 3 1-1 1-1 2 2 1-2 1 5 1-3 1-2 1 2h1l1-1 1 1 1 2 1-4h1l1 3h1l1-1 1-1v3h1l1-2v1l1 1 1-2v-2l1 3h1v2h1l1-6v2l1 2v-2l1 1 1-1v1l1-1v3l1-3v2h1v1l1-3v1l1 3v-4l1-3v2h0v1l1 1v-1l1 1v3l1 3v-3l1 1v-1 1l1 1v-1l1-3v2l1-1v3l1-1v2h1v6l1-4v3l1-2v1h0l1 1h1v1l1 1v2h1v-4l1 2h1v1l1 1h1v1l1 2v-1h1v-2l1 2v-2h0l1 3v-3 3l1-1h0l1-1h0v2l1 1h0l1-1v-2 4-1h1v-2 1l1 2"/><circle cx="372" cy="153" r="1.84" fill="#959595" opacity=".9" stroke="#959595" stroke-opacity=".6"/><path cx="515" cy="175" r="3.36" fill="#959595" opacity=".9" d="M516.5 170.5v7.5l-6-4.5z"/></g><g class="key-PrimaryAluminum_0"><path stroke-width="1.68" opacity=".9" stroke="#959595" fill="none" stroke-linecap="butt" d="M412 240h2l1-4h1l1 3v1h1l2 1 1-1h2l2 2 1 3 3 4 4 1h5l4 1 2 1 1 2 2 1 2-2h6l2-1 2-1 3-1 2-1h4l2 1h2l2 3 2-1 1 1h7l2 1"/><circle cx="412" cy="240" r="1.84" fill="#959595" opacity=".9" stroke="#959595" stroke-opacity=".6"/><path cx="486" cy="254" r="3.36" fill="#959595" opacity=".9" d="M484.5 249.5l4.5 6h-7.5z"/></g><g class="key-PrimaryMagnesium_0"><path stroke-width="1.68" opacity=".9" stroke="#959595" fill="none" stroke-linecap="butt" d="M430 228l4 6 3-2h2l5 1h11l4 1h4l3 1h6l6 5 9 2 16 2 23 1h9l2 2v3h1v-1l1-1 2 1 3-2h3l2-1 1-2h2l1 1h2v1h3l2 1h2l1 1"/><circle cx="430" cy="228" r="1.84" fill="#959595" opacity=".9" stroke="#959595" stroke-opacity=".6"/><path cx="563" cy="248" r="3.36" fill="#959595" opacity=".9" d="M563 243.25l2.38 7.13-7.13-2.38z"/></g><g class="key-Milk_0"><path stroke-width="1.68" opacity=".9" stroke="#959595" fill="none" stroke-linecap="butt" d="M505 136l14-1h9l6-1 5 1h3l4 1h5l2 1h4l2-1h2l1 1h2l1 1h2l1 1h3l1 1h2l1 1 1 1h0l1 1 1 1h1v1h1l1 1h0l1 1h1v1l1 1h0l1 1h2v1h1v1h1l1 1h1v1h1v1h1v1h1v1h1v1h1v-1 1l1 1h0l1 1h1l1 1h0l1 1"/><circle cx="505" cy="136" r="1.84" fill="#959595" opacity=".9" stroke="#959595" stroke-opacity=".6"/><path cx="601" cy="162" r="3.36" fill="#959595" opacity=".9" d="M601 157.25l2.38 7.13-7.13-2.38z"/></g><g class="key-RefinedCaneSugar_0"><path stroke-width="1.68" opacity=".9" stroke="#959595" fill="none" stroke-linecap="butt" d="M398 264l1 1v1-1l1 1v-1h0v1l1 1h0l1-3v3-1h1l1 1h1v1h1l1-4v3l1 1h0"/><circle cx="398" cy="264" r="1.84" fill="#959595" opacity=".9" stroke="#959595" stroke-opacity=".6"/><path cx="408" cy="268" r="3.36" fill="#959595" opacity=".9" d="M404.64 264.64l6.72 3.36-6.72 3.36z"/></g><g class="key-Polystyrene_0"><path stroke-width="1.68" opacity=".9" stroke="#959595" fill="none" stroke-linecap="butt" d="M328 237l9 1 11 3 18 1 12 4 10-3 9-1h13l4 1h4l3 1 3 2 3 2 3 1 1 2h3l2 3 2 1 2 2 3 2h2l3-1 2 2 2 2"/><circle cx="328" cy="237" r="1.84" fill="#959595" opacity=".9" stroke="#959595" stroke-opacity=".6"/><path cx="452" cy="262" r="3.36" fill="#959595" opacity=".9" d="M452 257.25l2.38 7.13-7.13-2.38z"/></g><g class="key-CrudeOil_0"><path stroke-width="1.68" opacity=".9" stroke="#959595" fill="none" stroke-linecap="butt" d="M328 211l2-4h3l2 2h1l2-1h3l1 1 1-1 1 1h1l2 1h3v1h3l1 1"/><circle cx="328" cy="211" r="1.84" fill="#959595" opacity=".9" stroke="#959595" stroke-opacity=".6"/><path cx="354" cy="212" r="3.36" fill="#959595" opacity=".9" d="M354 207.25l2.38 7.13-7.13-2.38z"/></g><g class="key-ElectricRange_0"><path stroke-width="1.68" opacity=".9" stroke="#959595" fill="none" stroke-linecap="butt" d="M298 131h5l4 1h14l2 1 2 1v-1l1 1h1l1 1h1l1 1 1 2h2l1 1"/><circle cx="298" cy="131" r="1.84" fill="#959595" opacity=".9" stroke="#959595" stroke-opacity=".6"/><path cx="334" cy="139" r="3.36" fill="#959595" opacity=".9" d="M334 134.25l2.38 7.13-7.13-2.38z"/></g><g class="key-FreeStandingGasRange_0"><path stroke-width="1.68" opacity=".9" stroke="#959595" fill="none" stroke-linecap="butt" d="M339 147h5l1 1 1-1 1 2h2v1h2v1h2v1h1v1"/><circle cx="339" cy="147" r="1.84" fill="#959595" opacity=".9" stroke="#959595" stroke-opacity=".6"/><path cx="354" cy="153" r="3.36" fill="#959595" opacity=".9" d="M357.36 149.64l-3.36 6.72-3.36-6.72z"/></g><g class="key-MotorGasoline_0"><path stroke-width="1.68" opacity=".9" stroke="#959595" fill="none" stroke-linecap="butt" d="M312 264l2-2h2l1-1h2l2 1 1-1 2 1h1l2 1 1-1 2 2h4l1 1h3l1 1h1l2 1"/><circle cx="312" cy="264" r="1.84" fill="#959595" opacity=".9" stroke="#959595" stroke-opacity=".6"/><path cx="342" cy="267" r="3.36" fill="#959595" opacity=".9" d="M340.5 262.5l4.5 6h-7.5z"/></g><g class="key-Polyvinylchloride_0"><path stroke-width="1.68" opacity=".9" stroke="#959595" fill="none" stroke-linecap="butt" d="M388 240h6l7-1 6 1h6l6 1h4l4 1 3 2 4 1 3 3 4 1 3 2 3 2 3 3 2 1h3l3 2h3l3 1 3 2 2 1"/><circle cx="388" cy="240" r="1.84" fill="#959595" opacity=".9" stroke="#959595" stroke-opacity=".6"/><path cx="469" cy="263" r="3.36" fill="#959595" opacity=".9" d="M467.5 258.5l4.5 6h-7.5z"/></g><g class="key-MonochromeTelevision_0"><path stroke-width="1.68" opacity=".9" stroke="#959595" fill="none" stroke-linecap="butt" d="M325 131l39 3 26 2 22 1 8 1h6l6 4h4l4 2 3 1 3-1 1 2 2-1 2 2 2-1 1 2 2 2 1 2 2-1h2"/><circle cx="325" cy="131" r="1.84" fill="#959595" opacity=".9" stroke="#959595" stroke-opacity=".6"/><path cx="461" cy="151" r="3.36" fill="#959595" opacity=".9" d="M457.64 147.64l6.72 3.36-6.72 3.36z"/></g><g class="key-TitaniumSponge_0"><path stroke-width="1.68" opacity=".9" stroke="#959595" fill="none" stroke-linecap="butt" d="M349 197l48 1h40l18 4 12 5 13 5 9 3 2 3 2 2 2 2 2 1 2 1h4l2 1h3l3 1"/><circle cx="349" cy="197" r="1.84" fill="#959595" opacity=".9" stroke="#959595" stroke-opacity=".6"/><path cx="511" cy="226" r="3.36" fill="#959595" opacity=".9" d="M508.87 221.75l5.32 5.31-7.44 1.07z"/></g><g class="key-Beer_0"><path stroke-width="1.68" opacity=".9" stroke="#959595" fill="none" stroke-linecap="butt" d="M407 154l6 3 5-1h5l4 1 3 1h7l4 1 4 2h4l4 1 4 1 3-1 4 1 3 1h3"/><circle cx="407" cy="154" r="1.84" fill="#959595" opacity=".9" stroke="#959595" stroke-opacity=".6"/><path cx="470" cy="164" r="3.36" fill="#959595" opacity=".9" d="M466.64 160.64l6.72 3.36-6.72 3.36z"/></g><g class="key-Pentaerythritol_0"><path stroke-width="1.68" opacity=".9" stroke="#959595" fill="none" stroke-linecap="butt" d="M376 166h3l5 1h6l3 2 2 1h7l1 2 2 1h2l1 2 2-1 1 1 2 1 1-1 2 1 1 2 1 5"/><circle cx="376" cy="166" r="1.84" fill="#959595" opacity=".9" stroke="#959595" stroke-opacity=".6"/><path cx="418" cy="183" r="3.36" fill="#959595" opacity=".9" d="M420.64 179.05l-1.98 7.24-4.61-5.93z"/></g><g class="key-Benzene_0"><path stroke-width="1.68" opacity=".9" stroke="#959595" fill="none" stroke-linecap="butt" d="M289 240h1l2 2 2 1 1 2 1 1 2 2h1l2-1 2 5 2 1 1 1 2-1h2l3 1h1"/><circle cx="289" cy="240" r="1.84" fill="#959595" opacity=".9" stroke="#959595" stroke-opacity=".6"/><path cx="314" cy="254" r="3.36" fill="#959595" opacity=".9" d="M310.64 250.64l6.72 3.36-6.72 3.36z"/></g><g class="key-LowDensityPolyethylene_0"><path stroke-width="1.68" opacity=".9" stroke="#959595" fill="none" stroke-linecap="butt" d="M381 239l9 1 8 1 11 2 9 3h8l6 1 6 2 5 4 5 1 4 3 4 2h8l3 3 4 3"/><circle cx="381" cy="239" r="1.84" fill="#959595" opacity=".9" stroke="#959595" stroke-opacity=".6"/><path cx="471" cy="265" r="3.36" fill="#959595" opacity=".9" d="M470.33 260.3l3.36 6.72-7.4-1.35z"/></g><g class="key-Magnesium_0"><path stroke-width="1.68" opacity=".9" stroke="#959595" fill="none" stroke-linecap="butt" d="M404 170l2-2 1-2h3l1 1h5l1 1h1l2 1h1l1 1h2"/><circle cx="404" cy="170" r="1.84" fill="#959595" opacity=".9" stroke="#959595" stroke-opacity=".6"/><path cx="424" cy="170" r="3.36" fill="#959595" opacity=".9" d="M420.64 166.64l6.72 3.36-6.72 3.36z"/></g><g class="key-Ethanolamine_0"><path stroke-width="1.68" opacity=".9" stroke="#959595" fill="none" stroke-linecap="butt" d="M391 172h4l3 1 3 1 3 1h3l3 1h4l2 2h3l2 2 2 1 3 3 2 2 2 2 2 1h1"/><circle cx="391" cy="172" r="1.84" fill="#959595" opacity=".9" stroke="#959595" stroke-opacity=".6"/><path cx="433" cy="189" r="3.36" fill="#959595" opacity=".9" d="M429.64 185.64l6.72 3.36-6.72 3.36z"/></g><g class="key-PhthalicAnhydride_0"><path stroke-width="1.68" opacity=".9" stroke="#959595" fill="none" stroke-linecap="butt" d="M431 176h2l2 1h2l2 3 1-1 2-1 2 4 1 6h2l2 3 1-2 2-3 2-1 2 2 1 5 2 4 1 1"/><circle cx="431" cy="176" r="1.84" fill="#959595" opacity=".9" stroke="#959595" stroke-opacity=".6"/><path cx="460" cy="197" r="3.36" fill="#959595" opacity=".9" d="M460 192.25l2.38 7.13-7.13-2.38z"/></g><g class="key-Aluminum_0"><path stroke-width="1.68" opacity=".9" stroke="#959595" fill="none" stroke-linecap="butt" d="M465 171h6l2 1h2l1 1 2 1 2-1h6l2-1h2l1 1 2 2"/><circle cx="465" cy="171" r="1.84" fill="#959595" opacity=".9" stroke="#959595" stroke-opacity=".6"/><path cx="493" cy="175" r="3.36" fill="#959595" opacity=".9" d="M493 170.25l2.38 7.13-7.13-2.38z"/></g><g class="key-Cyclohexane_0"><path stroke-width="1.68" opacity=".9" stroke="#959595" fill="none" stroke-linecap="butt" d="M390 197l2 1h3l2 1h2l3 1 3 1 3 2 3 1 4-1 4 1 3 1 3 2 3 1h2l2 2 2 2"/><circle cx="390" cy="197" r="1.84" fill="#959595" opacity=".9" stroke="#959595" stroke-opacity=".6"/><path cx="434" cy="212" r="3.36" fill="#959595" opacity=".9" d="M434 207.25l2.38 7.13-7.13-2.38z"/></g><g class="key-Methanol_0"><path stroke-width="1.68" opacity=".9" stroke="#959595" fill="none" stroke-linecap="butt" d="M427 203l2 2h6l1 1h2l2 3 2-1 1-1 2 1 2 3 2 1 2-1 2 7 1 6"/><circle cx="427" cy="203" r="1.84" fill="#959595" opacity=".9" stroke="#959595" stroke-opacity=".6"/><path cx="454" cy="224" r="3.36" fill="#959595" opacity=".9" d="M456.76 220.13l-2.2 7.18-4.43-6.07z"/></g><g class="key-Sodium_0"><path stroke-width="1.68" opacity=".9" stroke="#959595" fill="none" stroke-linecap="butt" d="M448 179h1l1 1h2v-1l1 1 1 1 1 1h2v1l1-1"/><circle cx="448" cy="179" r="1.84" fill="#959595" opacity=".9" stroke="#959595" stroke-opacity=".6"/><path cx="458" cy="182" r="3.36" fill="#959595" opacity=".9" d="M453.25 182l7.13-2.38-2.38 7.13z"/></g><g class="key-Paraxylene_0"><path stroke-width="1.68" opacity=".9" stroke="#959595" fill="none" stroke-linecap="butt" d="M383 258l6 3h7l7 1 7 2 3 5h8l5 3h4l4 4"/><circle cx="383" cy="258" r="1.84" fill="#959595" opacity=".9" stroke="#959595" stroke-opacity=".6"/><path cx="434" cy="276" r="3.36" fill="#959595" opacity=".9" d="M434 271.25l2.38 7.13-7.13-2.38z"/></g><g class="key-PolyethyleneHD_0"><path stroke-width="1.68" opacity=".9" stroke="#959595" fill="none" stroke-linecap="butt" d="M403 168h9l4 1 6 5 5 2 5 2 5 1 4 1 4 2h4l5 3 3 3 4 1"/><circle cx="403" cy="168" r="1.84" fill="#959595" opacity=".9" stroke="#959595" stroke-opacity=".6"/><path cx="461" cy="189" r="3.36" fill="#959595" opacity=".9" d="M458.56 184.93l5.7 4.88-7.33 1.63z"/></g><g class="key-PolyethyleneLD_0"><path stroke-width="1.68" opacity=".9" stroke="#959595" fill="none" stroke-linecap="butt" d="M427 168h6l6 3 5 3 4 2 5 2 4 1h7l4 3 3 4h6l3 1 3 1"/><circle cx="427" cy="168" r="1.84" fill="#959595" opacity=".9" stroke="#959595" stroke-opacity=".6"/><path cx="483" cy="188" r="3.36" fill="#959595" opacity=".9" d="M480.87 183.75l5.32 5.31-7.44 1.07z"/></g><g class="key-SodiumChlorate_0"><path stroke-width="1.68" opacity=".9" stroke="#959595" fill="none" stroke-linecap="butt" d="M399 191h2l2 1h10l2 1 2 2 2 2 2 1h4l1 1h2"/><circle cx="399" cy="191" r="1.84" fill="#959595" opacity=".9" stroke="#959595" stroke-opacity=".6"/><path cx="428" cy="199" r="3.36" fill="#959595" opacity=".9" d="M424.64 195.64l6.72 3.36-6.72 3.36z"/></g><g class="key-Styrene_0"><path stroke-width="1.68" opacity=".9" stroke="#959595" fill="none" stroke-linecap="butt" d="M455 185h2l3 1 3 1 3 1 2 1 3 2 2 2 3-1 2 1 2 3 3 1h2l3 2 2 2"/><circle cx="455" cy="185" r="1.84" fill="#959595" opacity=".9" stroke="#959595" stroke-opacity=".6"/><path cx="490" cy="201" r="3.36" fill="#959595" opacity=".9" d="M490 196.25l2.38 7.13-7.13-2.38z"/></g><g class="key-Acrylonitrile_0"><path stroke-width="1.68" opacity=".9" stroke="#959595" fill="none" stroke-linecap="butt" d="M407 172l5 2 3 5 4 2 4 1 4-2h5l5 5 3 1h3l4 1 3 2 3 1h2"/><circle cx="407" cy="172" r="1.84" fill="#959595" opacity=".9" stroke="#959595" stroke-opacity=".6"/><path cx="455" cy="190" r="3.36" fill="#959595" opacity=".9" d="M451.64 186.64l6.72 3.36-6.72 3.36z"/></g><g class="key-BisphenolA_0"><path stroke-width="1.68" opacity=".9" stroke="#959595" fill="none" stroke-linecap="butt" d="M378 171h7l3 1 3 1 4 2 3 1 3 1h4l3 1 3 1 3 2 3 2 2 1"/><circle cx="378" cy="171" r="1.84" fill="#959595" opacity=".9" stroke="#959595" stroke-opacity=".6"/><path cx="419" cy="184" r="3.36" fill="#959595" opacity=".9" d="M417.5 179.5l4.5 6h-7.5z"/></g><g class="key-MaleicAnhydride_0"><path stroke-width="1.68" opacity=".9" stroke="#959595" fill="none" stroke-linecap="butt" d="M390 172l3 1 4 2 2 4 3 4 2 2 3 1 3-2h3l3 1 2-2 3-1 2 2 2 3"/><circle cx="390" cy="172" r="1.84" fill="#959595" opacity=".9" stroke="#959595" stroke-opacity=".6"/><path cx="425" cy="187" r="3.36" fill="#959595" opacity=".9" d="M425.93 182.34l.93 7.46-6.52-3.73z"/></g><g class="key-Phenol_0"><path stroke-width="1.68" opacity=".9" stroke="#959595" fill="none" stroke-linecap="butt" d="M446 182h4l2 3 2 4 2-1 2 1 2 1 2 1 2 3h2l2 2 2 2 2 1"/><circle cx="446" cy="182" r="1.84" fill="#959595" opacity=".9" stroke="#959595" stroke-opacity=".6"/><path cx="472" cy="199" r="3.36" fill="#959595" opacity=".9" d="M470.5 194.5l4.5 6h-7.5z"/></g><g class="key-AcrylicFiber_0"><path stroke-width="1.68" opacity=".9" stroke="#959595" fill="none" stroke-linecap="butt" d="M396 145l5 1 4 2h4l4 1 4 2 5 2 3 2 4 4 3 2h4l2 2 3 2"/><circle cx="396" cy="145" r="1.84" fill="#959595" opacity=".9" stroke="#959595" stroke-opacity=".6"/><path cx="441" cy="165" r="3.36" fill="#959595" opacity=".9" d="M440.07 160.34l3.73 6.52-7.46-.93z"/></g><g class="key-Ammonia_0"><path stroke-width="1.68" opacity=".9" stroke="#959595" fill="none" stroke-linecap="butt" d="M488 206l2-1 2 1h4l2 1 3 1 2 2 3 5 2 4 2 1h4"/><circle cx="488" cy="206" r="1.84" fill="#959595" opacity=".9" stroke="#959595" stroke-opacity=".6"/><path cx="514" cy="220" r="3.36" fill="#959595" opacity=".9" d="M510.64 216.64l6.72 3.36-6.72 3.36z"/></g><g class="key-Ethylene2_0"><path stroke-width="1.68" opacity=".9" stroke="#959595" fill="none" stroke-linecap="butt" d="M480 200h3l3 1h6l3 2h3l3 2 2 2 3 1 3 2 2 1 3 1"/><circle cx="480" cy="200" r="1.84" fill="#959595" opacity=".9" stroke="#959595" stroke-opacity=".6"/><path cx="514" cy="212" r="3.36" fill="#959595" opacity=".9" d="M511.87 207.75l5.32 5.31-7.44 1.07z"/></g><g class="key-EthyleneGlycol_0"><path stroke-width="1.68" opacity=".9" stroke="#959595" fill="none" stroke-linecap="butt" d="M459 188l2-1 2 2 2 1 2-1 2 1 2 2 2 2 2 2 2 1h2l2 1 2 2"/><circle cx="459" cy="188" r="1.84" fill="#959595" opacity=".9" stroke="#959595" stroke-opacity=".6"/><path cx="483" cy="200" r="3.36" fill="#959595" opacity=".9" d="M483 195.25l2.38 7.13-7.13-2.38z"/></g><g class="key-NeopreneRubber_0"><path stroke-width="1.68" opacity=".9" stroke="#959595" fill="none" stroke-linecap="butt" d="M426 163h8l2 1h2l1 1h2l1 1h2l1 1 1 1"/><circle cx="426" cy="163" r="1.84" fill="#959595" opacity=".9" stroke="#959595" stroke-opacity=".6"/><path cx="446" cy="168" r="3.36" fill="#959595" opacity=".9" d="M446 163.25l2.38 7.13-7.13-2.38z"/></g><g class="key-PolyesterFiber_0"><path stroke-width="1.68" opacity=".9" stroke="#959595" fill="none" stroke-linecap="butt" d="M383 145l6 1 5 1h5l6 2 6 3 6 1 6 6 6 1 7 4 6 2 6 2 5 2"/><circle cx="383" cy="145" r="1.84" fill="#959595" opacity=".9" stroke="#959595" stroke-opacity=".6"/><path cx="453" cy="170" r="3.36" fill="#959595" opacity=".9" d="M451.13 165.63l4.99 5.62-7.49.62z"/></g><g class="key-VinylAcetate_0"><path stroke-width="1.68" opacity=".9" stroke="#959595" fill="none" stroke-linecap="butt" d="M422 181h3l2 1 3 1 3 3 2 1h6l2 1 3 1 2 4 3 2 2 2"/><circle cx="422" cy="181" r="1.84" fill="#959595" opacity=".9" stroke="#959595" stroke-opacity=".6"/><path cx="453" cy="197" r="3.36" fill="#959595" opacity=".9" d="M453 192.25l2.38 7.13-7.13-2.38z"/></g><g class="key-Aniline_0"><path stroke-width="1.68" opacity=".9" stroke="#959595" fill="none" stroke-linecap="butt" d="M431 180l1 3 1-1 1 1 1 1 1 2 1 1 1 1h3l2 1 1 5"/><circle cx="431" cy="180" r="1.84" fill="#959595" opacity=".9" stroke="#959595" stroke-opacity=".6"/><path cx="444" cy="194" r="3.36" fill="#959595" opacity=".9" d="M446.64 190.05l-1.98 7.24-4.61-5.93z"/></g><g class="key-Urea_0"><path stroke-width="1.68" opacity=".9" stroke="#959595" fill="none" stroke-linecap="butt" d="M442 202h10l3 1h3l3 3 4 3 3 4 3-2 3 1 3 2"/><circle cx="442" cy="202" r="1.84" fill="#959595" opacity=".9" stroke="#959595" stroke-opacity=".6"/><path cx="477" cy="214" r="3.36" fill="#959595" opacity=".9" d="M476.07 209.34l3.73 6.52-7.46-.93z"/></g><g class="key-Caprolactam_0"><path stroke-width="1.68" opacity=".9" stroke="#959595" fill="none" stroke-linecap="butt" d="M387 164l8 2 6 1 7 2 5 4 5 4 4 1 4 2h4l3 1 4 1"/><circle cx="387" cy="164" r="1.84" fill="#959595" opacity=".9" stroke="#959595" stroke-opacity=".6"/><path cx="437" cy="182" r="3.36" fill="#959595" opacity=".9" d="M434.56 177.93l5.7 4.88-7.33 1.63z"/></g><g class="key-Formaldehyde_0"><path stroke-width="1.68" opacity=".9" stroke="#959595" fill="none" stroke-linecap="butt" d="M474 207l2 1 2 3h4l2 1 2 1 2 1h2l2 2 2 3"/><circle cx="474" cy="207" r="1.84" fill="#959595" opacity=".9" stroke="#959595" stroke-opacity=".6"/><path cx="494" cy="219" r="3.36" fill="#959595" opacity=".9" d="M494.93 214.34l.93 7.46-6.52-3.73z"/></g><g class="key-HydrofluoricAcid_0"><path stroke-width="1.68" opacity=".9" stroke="#959595" fill="none" stroke-linecap="butt" d="M424 182h2l1 1h2l2 1h1l2-1h2l2-1h1l2 2"/><circle cx="424" cy="182" r="1.84" fill="#959595" opacity=".9" stroke="#959595" stroke-opacity=".6"/><path cx="441" cy="184" r="3.36" fill="#959595" opacity=".9" d="M441 179.25l2.38 7.13-7.13-2.38z"/></g><g class="key-VinylChloride_0"><path stroke-width="1.68" opacity=".9" stroke="#959595" fill="none" stroke-linecap="butt" d="M454 193l3 1 3 2h2l3 1 3 3 3 2 3 1 3 3h3l3 1"/><circle cx="454" cy="193" r="1.84" fill="#959595" opacity=".9" stroke="#959595" stroke-opacity=".6"/><path cx="483" cy="207" r="3.36" fill="#959595" opacity=".9" d="M480.87 202.75l5.32 5.31-7.44 1.07z"/></g><g class="key-CarbonDisulfide_0"><path stroke-width="1.68" opacity=".9" stroke="#959595" fill="none" stroke-linecap="butt" d="M462 203h1l1 1h1l1 1 1-2h1l1 2 1 1 1 1"/><circle cx="462" cy="203" r="1.84" fill="#959595" opacity=".9" stroke="#959595" stroke-opacity=".6"/><path cx="471" cy="207" r="3.36" fill="#959595" opacity=".9" d="M471 202.25l2.38 7.13-7.13-2.38z"/></g><g class="key-Transistor_0"><path stroke-width="1.68" opacity=".9" stroke="#959595" fill="none" stroke-linecap="butt" d="M279 206l19 8 15 12 13 10 15 10 17 9 15 18 15 12 18 10 16 8 15 13 17 10 16 12 15 13 15 5 13 2 11 13 12 6 12 6 12 4 11 11 12 10 12 7 10 6 10 2 9 3 9 2 9 8 9 10 10 12 10 5 11 4 11 14 10 7 9 4 10 5 11 15"/><circle cx="279" cy="206" r="1.84" fill="#959595" opacity=".9" stroke="#959595" stroke-opacity=".6"/><path cx="733" cy="512" r="3.36" fill="#959595" opacity=".9" d="M733.72 507.3l1.27 7.41-6.69-3.43z"/></g><g class="key-DRAM_0"><path stroke-width="1.68" opacity=".9" stroke="#959595" fill="none" stroke-linecap="butt" d="M119 168l34 5 21 8 20 13 17 11 21 10 18 9 18 5 17 6 16 14 12 10 16 5 18 4 17 20 12 9h14l10-5 10 2 10 13 9 7 10 7 10-1 10 1h11l11 18 11 16 13 17 12 2 13 5 12 24 11 1 9 5h9l9 8 9 3 9 12"/><circle cx="119" cy="168" r="1.84" fill="#959595" opacity=".9" stroke="#959595" stroke-opacity=".6"/><path cx="598" cy="432" r="3.36" fill="#959595" opacity=".9" d="M598.67 427.3l1.35 7.39-6.72-3.36z"/></g><g class="key-NukeHult_0"><path stroke-width="1.68" opacity=".9" stroke="#959595" fill="none" stroke-linecap="butt" d="M401 204h33l22-1 13-4 8 2h2l4-3 2 3v2l1-4 2 2 1-6 1 1h3l3-3 2-2 2 2 2-4v-1"/><circle cx="401" cy="204" r="1.84" fill="#959595" opacity=".9" stroke="#959595" stroke-opacity=".6"/><path cx="502" cy="188" r="3.36" fill="#959595" opacity=".9" d="M498.64 191.36l3.36-6.72 3.36 6.72z"/></g><g class="key-Corn_0"><path stroke-width="1.68" opacity=".9" stroke="#959595" fill="none" stroke-linecap="butt" d="M377 186h13l8 2 6 2 6-3 5 3 4 1 3-7 2 5 3 2h3l2-6 1 6h2l1-1 1 3 2-5 1 6 1-3 2 2h1l1 1 1-1 1 1 1 1 1-2 1 2v2l1-2 1-1h1l1 1"/><circle cx="377" cy="186" r="1.84" fill="#959595" opacity=".9" stroke="#959595" stroke-opacity=".6"/><path cx="454" cy="195" r="3.36" fill="#959595" opacity=".9" d="M454 190.25l2.38 7.13-7.13-2.38z"/></g><g class="key-Photovoltaics_0"><path stroke-width="1.68" opacity=".9" stroke="#959595" fill="none" stroke-linecap="butt" d="M241 157l18 5 18 6 13 2 14 4 12 5 11-1 11 2 9 3 7 2 5 1 5 3h10l4-1 4 2 4 1 3 2h3l3 1 3 3h4l3 3 4 2 5 3 5 1h5l6 1 7-1h6l7-2h7l9 2 9 7 11 6 9 2 8 11 6-1 6 2"/><circle cx="241" cy="157" r="1.84" fill="#959595" opacity=".9" stroke="#959595" stroke-opacity=".6"/><path cx="515" cy="233" r="3.36" fill="#959595" opacity=".9" d="M512.87 228.75l5.32 5.31-7.44 1.07z"/></g><g class="key-GeothermalElectricity_0"><path stroke-width="1.68" opacity=".9" stroke="#959595" fill="none" stroke-linecap="butt" d="M621 185l3 1 4 1 2 1 3 1 3 1 4 1 3 1h2l3 2h3l2 1 3 1 2 1 2 1h2l1 1 2 1 1 1 1 1 2 1h2l1 1 1 1 1 1"/><circle cx="621" cy="185" r="1.84" fill="#959595" opacity=".9" stroke="#959595" stroke-opacity=".6"/><path cx="674" cy="206" r="3.36" fill="#959595" opacity=".9" d="M674 201.25l2.38 7.13-7.13-2.38z"/></g><g class="key-OnshoreGasPipeline_0"><path stroke-width="1.68" opacity=".9" stroke="#959595" fill="none" stroke-linecap="butt" d="M282 109l14-3 4 1 10 2 4 3 11 1 3-3 2-2 1-1 1 1v1l1 1 2 5"/><circle cx="282" cy="109" r="1.84" fill="#959595" opacity=".9" stroke="#959595" stroke-opacity=".6"/><path cx="335" cy="115" r="3.36" fill="#959595" opacity=".9" d="M336.87 110.63l-.62 7.49-5.62-5z"/></g><g class="key-Ethanol_0"><path stroke-width="1.68" opacity=".9" stroke="#959595" fill="none" stroke-linecap="butt" d="M434 171l15 1 10 2h9l8-1 6 5 6-1 5 3 4 2 3 2h3l2-1 3 2h2l1 2 2-2 2 3 2 1 1 11 2-11 1-3 1 2 1-1 1 4"/><circle cx="434" cy="171" r="1.84" fill="#959595" opacity=".9" stroke="#959595" stroke-opacity=".6"/><path cx="524" cy="191" r="3.36" fill="#959595" opacity=".9" d="M526.44 186.93l-1.63 7.33-4.88-5.7z"/></g><g class="key-WindTurbine_0"><path stroke-width="1.68" opacity=".9" stroke="#959595" fill="none" stroke-linecap="butt" d="M313 70h8l21 1 28 1 20 1 8 2 3 1h6l4-1 3 2 2 1 3 1 4 1 6 1 5-1 5 1h5l7 1"/><circle cx="313" cy="70" r="1.84" fill="#959595" opacity=".9" stroke="#959595" stroke-opacity=".6"/><path cx="451" cy="82" r="3.36" fill="#959595" opacity=".9" d="M448.15 78.2l6.18 4.28-7.13 2.37z"/></g><g class="key-LaserDiode_0"><path stroke-width="1.68" opacity=".9" stroke="#959595" fill="none" stroke-linecap="butt" d="M217 90l50 9 48 5 48 7 21 5 14 10 14 5 9 7 12 3 9 3h11"/><circle cx="217" cy="90" r="1.84" fill="#959595" opacity=".9" stroke="#959595" stroke-opacity=".6"/><path cx="453" cy="144" r="3.36" fill="#959595" opacity=".9" d="M449.64 140.64l6.72 3.36-6.72 3.36z"/></g><g class="key-Automotive_0"><path stroke-width="1.68" opacity=".9" stroke="#959595" fill="none" stroke-linecap="butt" d="M437 204l8 3 6 3 5 2 4 2 3 2 3 1 3 2 2 1 2 1 3 1 1 1 2 1h2l2 1 1 1 2 1h1l1 1 2 1h1"/><circle cx="437" cy="204" r="1.84" fill="#959595" opacity=".9" stroke="#959595" stroke-opacity=".6"/><path cx="491" cy="229" r="3.36" fill="#959595" opacity=".9" d="M487.64 225.64l6.72 3.36-6.72 3.36z"/></g><g class="key-CCGT_0"><path stroke-width="1.68" opacity=".9" stroke="#959595" fill="none" stroke-linecap="butt" d="M477 119l2 3 3-4 2 4 3-4 3 1 4 2 5 3h3l4 1"/><circle cx="477" cy="119" r="1.84" fill="#959595" opacity=".9" stroke="#959595" stroke-opacity=".6"/><path cx="506" cy="125" r="3.36" fill="#959595" opacity=".9" d="M503.56 120.93l5.7 4.88-7.33 1.63z"/></g><g class="key-HardDiskDrive_0"><path stroke-width="1.68" opacity=".9" stroke="#959595" fill="none" stroke-linecap="butt" d="M421 183l18 6 13 5 9 10 11 13 11 12 14 13 16 11 15 11 15 17 17 14 15 10 13 6 8 22 15-1 11 10 11 8 13 12 14 2"/><circle cx="421" cy="183" r="1.84" fill="#959595" opacity=".9" stroke="#959595" stroke-opacity=".6"/><path cx="660" cy="364" r="3.36" fill="#959595" opacity=".9" d="M657.15 360.2l6.18 4.28-7.13 2.37z"/></g><text x="517.24" y="185.47" font-size="12" font-family="Arial, sans-serif" font-weight="700" fill="#fff" stroke="#fff" stroke-linecap="round" stroke-linejoin="round" stroke-width=".25em">Wheat</text><text x="517.24" y="185.47" font-size="12" font-family="Arial, sans-serif" font-weight="700" fill="#959595">Wheat</text><text x="391.08" y="240" font-size="8" font-family="Arial, sans-serif" font-weight="400" fill="#fff" stroke="#fff" stroke-linecap="round" stroke-linejoin="round" stroke-width=".25em">1930</text><text x="391.08" y="240" font-size="8" font-family="Arial, sans-serif" font-weight="400" fill="#959595">1930</text><text x="490.47" y="262.24" font-size="12" font-family="Arial, sans-serif" font-weight="700" fill="#fff" stroke="#fff" stroke-linecap="round" stroke-linejoin="round" stroke-width=".25em">PrimaryAluminum</text><text x="490.47" y="262.24" font-size="12" font-family="Arial, sans-serif" font-weight="700" fill="#959595">PrimaryAluminum</text><text x="411.31" y="223.84" font-size="8" font-family="Arial, sans-serif" font-weight="400" fill="#fff" stroke="#fff" stroke-linecap="round" stroke-linejoin="round" stroke-width=".25em">1930</text><text x="411.31" y="223.84" font-size="8" font-family="Arial, sans-serif" font-weight="400" fill="#959595">1930</text><text x="604.54" y="171.54" font-size="12" font-family="Arial, sans-serif" font-weight="700" fill="#fff" stroke="#fff" stroke-linecap="round" stroke-linejoin="round" stroke-width=".25em">Milk</text><text x="604.54" y="171.54" font-size="12" font-family="Arial, sans-serif" font-weight="700" fill="#959595">Milk</text><text x="455.54" y="271.54" font-size="12" font-family="Arial, sans-serif" font-weight="700" fill="#fff" stroke="#fff" stroke-linecap="round" stroke-linejoin="round" stroke-width=".25em">Polystyrene</text><text x="455.54" y="271.54" font-size="12" font-family="Arial, sans-serif" font-weight="700" fill="#959595">Polystyrene</text><text x="309.84" y="219.47" font-size="8" font-family="Arial, sans-serif" font-weight="400" fill="#fff" stroke="#fff" stroke-linecap="round" stroke-linejoin="round" stroke-width=".25em">1947</text><text x="309.84" y="219.47" font-size="8" font-family="Arial, sans-serif" font-weight="400" fill="#959595">1947</text><text x="357.54" y="221.54" font-size="12" font-family="Arial, sans-serif" font-weight="700" fill="#fff" stroke="#fff" stroke-linecap="round" stroke-linejoin="round" stroke-width=".25em">CrudeOil</text><text x="357.54" y="221.54" font-size="12" font-family="Arial, sans-serif" font-weight="700" fill="#959595">CrudeOil</text><text x="277.08" y="131" font-size="8" font-family="Arial, sans-serif" font-weight="400" fill="#fff" stroke="#fff" stroke-linecap="round" stroke-linejoin="round" stroke-width=".25em">1947</text><text x="277.08" y="131" font-size="8" font-family="Arial, sans-serif" font-weight="400" fill="#959595">1947</text><text x="337.54" y="148.54" font-size="12" font-family="Arial, sans-serif" font-weight="700" fill="#fff" stroke="#fff" stroke-linecap="round" stroke-linejoin="round" stroke-width=".25em">ElectricRange</text><text x="337.54" y="148.54" font-size="12" font-family="Arial, sans-serif" font-weight="700" fill="#959595">ElectricRange</text><text x="354" y="164" font-size="12" font-family="Arial, sans-serif" font-weight="700" fill="#fff" stroke="#fff" stroke-linecap="round" stroke-linejoin="round" stroke-width=".25em">FreeStandingGasRange</text><text x="354" y="164" font-size="12" font-family="Arial, sans-serif" font-weight="700" fill="#959595">FreeStandingGasRange</text><text x="292.54" y="271.54" font-size="8" font-family="Arial, sans-serif" font-weight="400" fill="#fff" stroke="#fff" stroke-linecap="round" stroke-linejoin="round" stroke-width=".25em">1947</text><text x="292.54" y="271.54" font-size="8" font-family="Arial, sans-serif" font-weight="400" fill="#959595">1947</text><text x="346.47" y="275.24" font-size="12" font-family="Arial, sans-serif" font-weight="700" fill="#fff" stroke="#fff" stroke-linecap="round" stroke-linejoin="round" stroke-width=".25em">MotorGasoline</text><text x="346.47" y="275.24" font-size="12" font-family="Arial, sans-serif" font-weight="700" fill="#959595">MotorGasoline</text><text x="304.09" y="130.62" font-size="8" font-family="Arial, sans-serif" font-weight="400" fill="#fff" stroke="#fff" stroke-linecap="round" stroke-linejoin="round" stroke-width=".25em">1948</text><text x="304.09" y="130.62" font-size="8" font-family="Arial, sans-serif" font-weight="400" fill="#959595">1948</text><text x="466" y="151" font-size="12" font-family="Arial, sans-serif" font-weight="700" fill="#fff" stroke="#fff" stroke-linecap="round" stroke-linejoin="round" stroke-width=".25em">MonochromeTelevision</text><text x="466" y="151" font-size="12" font-family="Arial, sans-serif" font-weight="700" fill="#959595">MonochromeTelevision</text><text x="328.08" y="196.9" font-size="8" font-family="Arial, sans-serif" font-weight="400" fill="#fff" stroke="#fff" stroke-linecap="round" stroke-linejoin="round" stroke-width=".25em">1951</text><text x="328.08" y="196.9" font-size="8" font-family="Arial, sans-serif" font-weight="400" fill="#959595">1951</text><text x="515.74" y="233.58" font-size="12" font-family="Arial, sans-serif" font-weight="700" fill="#fff" stroke="#fff" stroke-linecap="round" stroke-linejoin="round" stroke-width=".25em">TitaniumSponge</text><text x="515.74" y="233.58" font-size="12" font-family="Arial, sans-serif" font-weight="700" fill="#959595">TitaniumSponge</text><text x="418.98" y="193.9" font-size="12" font-family="Arial, sans-serif" font-weight="700" fill="#fff" stroke="#fff" stroke-linecap="round" stroke-linejoin="round" stroke-width=".25em">Pentaerythritol</text><text x="418.98" y="193.9" font-size="12" font-family="Arial, sans-serif" font-weight="700" fill="#959595">Pentaerythritol</text><text x="268.08" y="240" font-size="8" font-family="Arial, sans-serif" font-weight="400" fill="#fff" stroke="#fff" stroke-linecap="round" stroke-linejoin="round" stroke-width=".25em">1953</text><text x="268.08" y="240" font-size="8" font-family="Arial, sans-serif" font-weight="400" fill="#959595">1953</text><text x="319" y="254" font-size="12" font-family="Arial, sans-serif" font-weight="700" fill="#fff" stroke="#fff" stroke-linecap="round" stroke-linejoin="round" stroke-width=".25em">Benzene</text><text x="319" y="254" font-size="12" font-family="Arial, sans-serif" font-weight="700" fill="#959595">Benzene</text><text x="463.54" y="206.54" font-size="12" font-family="Arial, sans-serif" font-weight="700" fill="#fff" stroke="#fff" stroke-linecap="round" stroke-linejoin="round" stroke-width=".25em">PhthalicAnhydride</text><text x="463.54" y="206.54" font-size="12" font-family="Arial, sans-serif" font-weight="700" fill="#959595">PhthalicAnhydride</text><text x="369.61" y="194.76" font-size="8" font-family="Arial, sans-serif" font-weight="400" fill="#fff" stroke="#fff" stroke-linecap="round" stroke-linejoin="round" stroke-width=".25em">1956</text><text x="369.61" y="194.76" font-size="8" font-family="Arial, sans-serif" font-weight="400" fill="#959595">1956</text><text x="437.54" y="221.54" font-size="12" font-family="Arial, sans-serif" font-weight="700" fill="#fff" stroke="#fff" stroke-linecap="round" stroke-linejoin="round" stroke-width=".25em">Cyclohexane</text><text x="437.54" y="221.54" font-size="12" font-family="Arial, sans-serif" font-weight="700" fill="#959595">Cyclohexane</text><text x="454.82" y="234.93" font-size="12" font-family="Arial, sans-serif" font-weight="700" fill="#fff" stroke="#fff" stroke-linecap="round" stroke-linejoin="round" stroke-width=".25em">Methanol</text><text x="454.82" y="234.93" font-size="12" font-family="Arial, sans-serif" font-weight="700" fill="#959595">Methanol</text><text x="461.54" y="178.46" font-size="12" font-family="Arial, sans-serif" font-weight="700" fill="#fff" stroke="#fff" stroke-linecap="round" stroke-linejoin="round" stroke-width=".25em">Sodium</text><text x="461.54" y="178.46" font-size="12" font-family="Arial, sans-serif" font-weight="700" fill="#959595">Sodium</text><text x="437.54" y="285.54" font-size="12" font-family="Arial, sans-serif" font-weight="700" fill="#fff" stroke="#fff" stroke-linecap="round" stroke-linejoin="round" stroke-width=".25em">Paraxylene</text><text x="437.54" y="285.54" font-size="12" font-family="Arial, sans-serif" font-weight="700" fill="#959595">Paraxylene</text><text x="519" y="220" font-size="12" font-family="Arial, sans-serif" font-weight="700" fill="#fff" stroke="#fff" stroke-linecap="round" stroke-linejoin="round" stroke-width=".25em">Ammonia</text><text x="519" y="220" font-size="12" font-family="Arial, sans-serif" font-weight="700" fill="#959595">Ammonia</text><text x="258.47" y="204.06" font-size="8" font-family="Arial, sans-serif" font-weight="400" fill="#fff" stroke="#fff" stroke-linecap="round" stroke-linejoin="round" stroke-width=".25em">1969</text><text x="258.47" y="204.06" font-size="8" font-family="Arial, sans-serif" font-weight="400" fill="#959595">1969</text><text x="682.56" y="512.7" font-size="12" font-family="Arial, sans-serif" font-weight="700" fill="#fff" stroke="#fff" stroke-linecap="round" stroke-linejoin="round" stroke-width=".25em">Transistor</text><text x="682.56" y="512.7" font-size="12" font-family="Arial, sans-serif" font-weight="700" fill="#959595">Transistor</text><text x="116.05" y="167.27" font-size="8" font-family="Arial, sans-serif" font-weight="400" fill="#fff" stroke="#fff" stroke-linecap="round" stroke-linejoin="round" stroke-width=".25em">1972</text><text x="116.05" y="167.27" font-size="8" font-family="Arial, sans-serif" font-weight="400" fill="#959595">1972</text><text x="601" y="442" font-size="12" font-family="Arial, sans-serif" font-weight="700" fill="#fff" stroke="#fff" stroke-linecap="round" stroke-linejoin="round" stroke-width=".25em">DRAM</text><text x="601" y="442" font-size="12" font-family="Arial, sans-serif" font-weight="700" fill="#959595">DRAM</text><text x="220.26" y="155.66" font-size="8" font-family="Arial, sans-serif" font-weight="400" fill="#fff" stroke="#fff" stroke-linecap="round" stroke-linejoin="round" stroke-width=".25em">1976</text><text x="220.26" y="155.66" font-size="8" font-family="Arial, sans-serif" font-weight="400" fill="#959595">1976</text><text x="519.74" y="240.58" font-size="12" font-family="Arial, sans-serif" font-weight="700" fill="#fff" stroke="#fff" stroke-linecap="round" stroke-linejoin="round" stroke-width=".25em">Photovoltaics</text><text x="519.74" y="240.58" font-size="12" font-family="Arial, sans-serif" font-weight="700" fill="#959595">Photovoltaics</text><text x="261.19" y="114.05" font-size="8" font-family="Arial, sans-serif" font-weight="400" fill="#fff" stroke="#fff" stroke-linecap="round" stroke-linejoin="round" stroke-width=".25em">1980</text><text x="261.19" y="114.05" font-size="8" font-family="Arial, sans-serif" font-weight="400" fill="#959595">1980</text><text x="336.86" y="125.64" font-size="12" font-family="Arial, sans-serif" font-weight="700" fill="#fff" stroke="#fff" stroke-linecap="round" stroke-linejoin="round" stroke-width=".25em">OnshoreGasPipeline</text><text x="336.86" y="125.64" font-size="12" font-family="Arial, sans-serif" font-weight="700" fill="#959595">OnshoreGasPipeline</text><text x="292.08" y="78" font-size="8" font-family="Arial, sans-serif" font-weight="400" fill="#fff" stroke="#fff" stroke-linecap="round" stroke-linejoin="round" stroke-width=".25em">1982</text><text x="292.08" y="78" font-size="8" font-family="Arial, sans-serif" font-weight="400" fill="#959595">1982</text><text x="455.95" y="88.71" font-size="12" font-family="Arial, sans-serif" font-weight="700" fill="#fff" stroke="#fff" stroke-linecap="round" stroke-linejoin="round" stroke-width=".25em">WindTurbine</text><text x="455.95" y="88.71" font-size="12" font-family="Arial, sans-serif" font-weight="700" fill="#959595">WindTurbine</text><text x="196.16" y="89.11" font-size="8" font-family="Arial, sans-serif" font-weight="400" fill="#fff" stroke="#fff" stroke-linecap="round" stroke-linejoin="round" stroke-width=".25em">1983</text><text x="196.16" y="89.11" font-size="8" font-family="Arial, sans-serif" font-weight="400" fill="#959595">1983</text><text x="458" y="144" font-size="12" font-family="Arial, sans-serif" font-weight="700" fill="#fff" stroke="#fff" stroke-linecap="round" stroke-linejoin="round" stroke-width=".25em">LaserDiode</text><text x="458" y="144" font-size="12" font-family="Arial, sans-serif" font-weight="700" fill="#959595">LaserDiode</text><text x="458.31" y="114.84" font-size="8" font-family="Arial, sans-serif" font-weight="400" fill="#fff" stroke="#fff" stroke-linecap="round" stroke-linejoin="round" stroke-width=".25em">1987</text><text x="458.31" y="114.84" font-size="8" font-family="Arial, sans-serif" font-weight="400" fill="#959595">1987</text><text x="510.85" y="132.21" font-size="12" font-family="Arial, sans-serif" font-weight="700" fill="#fff" stroke="#fff" stroke-linecap="round" stroke-linejoin="round" stroke-width=".25em">CCGT</text><text x="510.85" y="132.21" font-size="12" font-family="Arial, sans-serif" font-weight="700" fill="#959595">CCGT</text><text x="587.67" y="370.71" font-size="12" font-family="Arial, sans-serif" font-weight="700" fill="#fff" stroke="#fff" stroke-linecap="round" stroke-linejoin="round" stroke-width=".25em">HardDiskDrive</text><text x="587.67" y="370.71" font-size="12" font-family="Arial, sans-serif" font-weight="700" fill="#959595">HardDiskDrive</text></g><g class="ScatterColorLegend clickable" cursor="pointer"><g class="legendMark"><path fill="#959595" d="M753 71.8h9v9h-9z"/><text font-size="12.6" x="767" y="80.1" font-weight="700"><tspan x="767" y="80.08">No data</tspan></text></g></g><path stroke="#ccc" d="M753 89.6h77"/><g class="clickable"><g class="ConnectedScatterLegend"><text font-size="12.6" x="753" y="108.7" fill="#333"><tspan x="753" y="108.68">1867</tspan></text><text font-size="12.6" x="806.8" y="108.7" fill="#333"><tspan x="806.78" y="108.68">2014</tspan></text><path stroke="#666" stroke-width="1" d="M786.22 104.4h15.56"/><circle cx="786.22" cy="104.4" r="2" fill="#666" stroke="#ccc" stroke-width=".2"/><circle cx="791.41" cy="104.4" r="2" fill="#666" stroke="#ccc" stroke-width=".2"/><circle cx="796.59" cy="104.4" r="2" fill="#666" stroke="#ccc" stroke-width=".2"/><path cx="801.78" cy="104.4" r="3" fill="#666" stroke="#ccc" stroke-width=".2" d="M798.78 101.4l6 3-6 3z"/></g></g></g><g class="SourcesFooter" fill="#777"><g class="clickable" fill="#777"><text font-size="12.6" x="15" y="581.6"><tspan x="15" y="581.58">Source: Lafond et al. (2017)</tspan></text></g><text font-size="12.6" x="796.4" y="581.6"><tspan x="796.44" y="581.58"><a class="cclogo" href="http://creativecommons.org/licenses/by/4.0/deed.en_US" target="_blank" fill="#777">CC BY</a></tspan></text></g></svg>