<svg xmlns="http://www.w3.org/2000/svg" version="1.1" style="font-family: 'Helvetica Neue', Helvetica, Arial, sans-serif; font-size: 18px; background-color: white; text-rendering: optimizeLegibility; -webkit-font-smoothing: antialiased;" width="850" height="600"><g class="ChartTab"><g class="HeaderView"><g opacity="0.8" transform="translate(778, 15) scale(0.27)"><a xmlns:xlink="http://www.w3.org/1999/xlink" xlink:href="https://ourworldindata.org" target="_blank"><g><rect x="0" y="0" fill="#1B2543" width="211.2" height="130.1"/><rect x="0" y="112.2" fill="#E63912" width="211.2" height="17.9"/><g><rect x="1.2" y="12.3" fill="none" width="210.2" height="99.2"/><path fill="#FFFFFF" d="M37.8,32.2c0,12.7-7.7,19.4-17.1,19.4c-9.7,0-16.6-7.5-16.6-18.7c0-11.7,7.3-19.3,17.1-19.3 C31.3,13.7,37.8,21.3,37.8,32.2z M9.2,32.8c0,7.9,4.3,14.9,11.8,14.9c7.5,0,11.8-6.9,11.8-15.3c0-7.3-3.8-14.9-11.8-14.9 C13.1,17.5,9.2,24.8,9.2,32.8z"/><path fill="#FFFFFF" d="M62.7,43.8c0,2.7,0.1,5.1,0.2,7.2h-4.3l-0.3-4.3h-0.1c-1.3,2.1-4,4.9-8.8,4.9c-4.2,0-9.1-2.3-9.1-11.6 V24.6h4.8v14.6c0,5,1.5,8.4,5.9,8.4c3.2,0,5.5-2.2,6.3-4.4c0.3-0.7,0.4-1.6,0.4-2.5V24.6h4.8V43.8z"/><path fill="#FFFFFF" d="M67.3,32.8c0-3.1-0.1-5.8-0.2-8.2h4.2l0.2,5.2h0.2c1.2-3.5,4.1-5.8,7.3-5.8c0.5,0,0.9,0.1,1.4,0.2v4.5 c-0.5-0.1-1-0.2-1.6-0.2c-3.4,0-5.8,2.6-6.5,6.2c-0.1,0.7-0.2,1.4-0.2,2.2V51h-4.8V32.8z"/><path fill="#FFFFFF" d="M95.4,51l-9.4-36.8h5l4.4,18.6c1.1,4.6,2.1,9.2,2.7,12.7h0.1c0.6-3.7,1.8-8,3-12.8l4.9-18.5h5l4.5,18.7 c1,4.4,2,8.7,2.6,12.6h0.1c0.8-4,1.8-8.1,3-12.7l4.9-18.5h4.9L120.6,51h-5L111,31.9c-1.1-4.7-1.9-8.3-2.4-12h-0.1 c-0.7,3.7-1.5,7.3-2.8,12L100.4,51H95.4z"/><path fill="#FFFFFF" d="M154.9,37.6c0,9.8-6.8,14-13.2,14c-7.2,0-12.7-5.2-12.7-13.6c0-8.8,5.8-14,13.1-14 C149.8,24,154.9,29.5,154.9,37.6z M133.9,37.9c0,5.8,3.3,10.1,8,10.1c4.6,0,8-4.3,8-10.3c0-4.5-2.2-10.1-7.9-10.1 C136.3,27.6,133.9,32.8,133.9,37.9z"/><path fill="#FFFFFF" d="M158.2,32.8c0-3.1-0.1-5.8-0.2-8.2h4.2l0.2,5.2h0.2c1.2-3.5,4.1-5.8,7.3-5.8c0.5,0,0.9,0.1,1.4,0.2v4.5 c-0.5-0.1-1-0.2-1.6-0.2c-3.4,0-5.8,2.6-6.5,6.2c-0.1,0.7-0.2,1.4-0.2,2.2V51h-4.8V32.8z"/><path fill="#FFFFFF" d="M173.5,12.3h4.8V51h-4.8V12.3z"/><path fill="#FFFFFF" d="M206.5,12.3v31.9c0,2.3,0.1,5,0.2,6.8h-4.3l-0.2-4.6H202c-1.5,2.9-4.7,5.2-9,5.2 c-6.4,0-11.3-5.4-11.3-13.4c-0.1-8.8,5.4-14.2,11.9-14.2c4,0,6.8,1.9,8,4h0.1V12.3H206.5z M201.7,35.4c0-0.6-0.1-1.4-0.2-2 c-0.7-3.1-3.3-5.6-6.9-5.6c-5,0-7.9,4.4-7.9,10.2c0,5.3,2.6,9.8,7.8,9.8c3.2,0,6.2-2.1,7.1-5.7c0.2-0.7,0.2-1.3,0.2-2.1V35.4z"/><path fill="#FFFFFF" d="M42.8,64c0.1,1.6-1.1,2.9-3.1,2.9c-1.7,0-2.9-1.3-2.9-2.9c0-1.7,1.3-3,3-3C41.7,61,42.8,62.3,42.8,64z M37.4,97.8V71.4h4.8v26.4H37.4z"/><path fill="#FFFFFF" d="M47.5,78.6c0-2.7-0.1-5-0.2-7.1h4.3l0.3,4.4h0.1c1.3-2.5,4.4-5,8.8-5c3.7,0,9.4,2.2,9.4,11.2v15.8h-4.8 V82.6c0-4.3-1.6-7.8-6.1-7.8c-3.2,0-5.6,2.2-6.5,4.9c-0.2,0.6-0.3,1.4-0.3,2.2v15.9h-4.8V78.6z"/><path fill="#FFFFFF" d="M84,61.6c2.9-0.4,6.3-0.8,10.1-0.8c6.8,0,11.7,1.6,14.9,4.6c3.3,3,5.2,7.3,5.2,13.2c0,6-1.9,10.9-5.3,14.3 c-3.4,3.4-9.1,5.3-16.3,5.3c-3.4,0-6.2-0.2-8.6-0.4V61.6z M88.8,94.1c1.2,0.2,3,0.3,4.8,0.3c10.2,0,15.7-5.7,15.7-15.6 c0.1-8.7-4.9-14.2-14.9-14.2c-2.5,0-4.3,0.2-5.6,0.5V94.1z"/><path fill="#FFFFFF" d="M132.1,97.8l-0.4-3.3h-0.2c-1.5,2.1-4.3,3.9-8.1,3.9c-5.4,0-8.1-3.8-8.1-7.6c0-6.4,5.7-9.9,15.9-9.8v-0.5 c0-2.2-0.6-6.1-6-6.1c-2.5,0-5,0.8-6.9,2l-1.1-3.2c2.2-1.4,5.4-2.3,8.7-2.3c8.1,0,10.1,5.5,10.1,10.8v9.9c0,2.3,0.1,4.5,0.4,6.3 H132.1z M131.4,84.4c-5.3-0.1-11.2,0.8-11.2,5.9c0,3.1,2.1,4.6,4.5,4.6c3.4,0,5.6-2.2,6.4-4.4c0.2-0.5,0.3-1,0.3-1.5V84.4z"/><path fill="#FFFFFF" d="M146.6,63.9v7.6h6.9v3.7h-6.9v14.2c0,3.3,0.9,5.1,3.6,5.1c1.3,0,2.2-0.2,2.8-0.3l0.2,3.6 c-0.9,0.4-2.4,0.7-4.3,0.7c-2.2,0-4-0.7-5.2-2c-1.4-1.4-1.9-3.8-1.9-6.9V75.1h-4.1v-3.7h4.1v-6.3L146.6,63.9z"/><path fill="#FFFFFF" d="M171.4,97.8l-0.4-3.3h-0.2c-1.5,2.1-4.3,3.9-8.1,3.9c-5.4,0-8.1-3.8-8.1-7.6c0-6.4,5.7-9.9,15.9-9.8v-0.5 c0-2.2-0.6-6.1-6-6.1c-2.5,0-5,0.8-6.9,2l-1.1-3.2c2.2-1.4,5.4-2.3,8.7-2.3c8.1,0,10.1,5.5,10.1,10.8v9.9c0,2.3,0.1,4.5,0.4,6.3 H171.4z M170.7,84.4c-5.3-0.1-11.2,0.8-11.2,5.9c0,3.1,2.1,4.6,4.5,4.6c3.4,0,5.6-2.2,6.4-4.4c0.2-0.5,0.3-1,0.3-1.5V84.4z"/></g></g></a></g><a href="https://ourworldindata.org/grapher/nitrous-oxide-emissions-by-sector-gg-coe" target="_blank"><text font-size="25.20" x="15.0" y="35.2" fill="#555"><tspan x="15" y="35.160000000000004">Nitrous oxide emissions by sector (Gg CO₂e), World</tspan></text></a><text font-size="14.40" x="15.0" y="53.7" fill="#666"><tspan x="15" y="53.72">Breakdown of total global nitrous oxide (N₂O) emissions by sector, measured in gigagrams of carbon-dioxide</tspan><tspan x="15" y="69.56">equivalents (CO₂e). Carbon dioxide equivalents measures the total greenhouse gas potential of the full combination</tspan><tspan x="15" y="85.4">of gases, weighted by their relative warming impacts.</tspan></text></g><g class="StackedArea"><defs><clipPath id="boundsClip-51"><rect x="93.062" y="0" width="820" height="897.8"></rect></clipPath></defs><g class="AxisBoxView"><g class="HorizontalAxis"><text x="93.1" y="556.5" fill="#666" text-anchor="middle" font-size="16.2">1990</text><text x="246.4" y="556.5" fill="#666" text-anchor="middle" font-size="16.2">1995</text><text x="399.8" y="556.5" fill="#666" text-anchor="middle" font-size="16.2">2000</text><text x="553.2" y="556.5" fill="#666" text-anchor="middle" font-size="16.2">2005</text><text x="706.6" y="556.5" fill="#666" text-anchor="middle" font-size="16.2">2010</text></g><g class="VerticalAxis"><text x="88.06" y="535.3" fill="#666" dominant-baseline="middle" text-anchor="end" font-size="16.2">0</text><text x="88.06" y="465.5" fill="#666" dominant-baseline="middle" text-anchor="end" font-size="16.2">500,000</text><text x="88.06" y="395.6" fill="#666" dominant-baseline="middle" text-anchor="end" font-size="16.2">1 million</text><text x="88.06" y="325.8" fill="#666" dominant-baseline="middle" text-anchor="end" font-size="16.2">1.5 million</text><text x="88.06" y="256" fill="#666" dominant-baseline="middle" text-anchor="end" font-size="16.2">2 million</text><text x="88.06" y="186.1" fill="#666" dominant-baseline="middle" text-anchor="end" font-size="16.2">2.5 million</text><text x="88.06" y="116.3" fill="#666" dominant-baseline="middle" text-anchor="end" font-size="16.2">3 million</text></g><g class="AxisGridLines"><line x1="93.06" y1="535.3" x2="706.58" y2="535.3" stroke="#ccc"></line><line x1="93.06" y1="465.5" x2="706.58" y2="465.5" stroke="#ddd" stroke-dasharray="3,2"></line><line x1="93.06" y1="395.6" x2="706.58" y2="395.6" stroke="#ddd" stroke-dasharray="3,2"></line><line x1="93.06" y1="325.8" x2="706.58" y2="325.8" stroke="#ddd" stroke-dasharray="3,2"></line><line x1="93.06" y1="256" x2="706.58" y2="256" stroke="#ddd" stroke-dasharray="3,2"></line><line x1="93.06" y1="186.1" x2="706.58" y2="186.1" stroke="#ddd" stroke-dasharray="3,2"></line><line x1="93.06" y1="116.3" x2="706.58" y2="116.3" stroke="#ddd" stroke-dasharray="3,2"></line></g></g><g clip-path="url(#boundsClip-51)"><g class="HeightedLegend clickable"><g class="legendMark"><g class="indicator"><line x1="711.5799999999999" y1="122.7" x2="734.0799999999999" y2="122.7" stroke="#666" stroke-width="0.5"></line><line x1="734.0799999999999" y1="122.7" x2="734.0799999999999" y2="122.7" stroke="#666" stroke-width="0.5"></line><line x1="734.0799999999999" y1="122.7" x2="736.5799999999999" y2="122.7" stroke="#666" stroke-width="0.5"></line></g><rect x="706.5799999999999" y="115.95" width="120.05000000000001" height="13.5" fill="#fff" opacity="0"></rect><text font-size="13.50" x="741.6" y="126.7" fill="#818282"><tspan x="741.5799999999999" y="126.74999999999999">Other sources</tspan></text></g><g class="legendMark"><g class="indicator"><line x1="711.5799999999999" y1="138.5" x2="731.5799999999999" y2="138.5" stroke="#666" stroke-width="0.5"></line><line x1="731.5799999999999" y1="138.5" x2="731.5799999999999" y2="145.5" stroke="#666" stroke-width="0.5"></line><line x1="731.5799999999999" y1="145.5" x2="736.5799999999999" y2="145.5" stroke="#666" stroke-width="0.5"></line></g><rect x="706.5799999999999" y="131.45" width="109.655" height="28.1" fill="#fff" opacity="0"></rect><text font-size="13.50" x="741.6" y="142.3" fill="#7ec7ce"><tspan x="741.5799999999999" y="142.25">International</tspan><tspan x="741.5799999999999" y="157.1">bunkers</tspan></text></g><g class="legendMark"><g class="indicator"><line x1="711.5799999999999" y1="147.5" x2="729.0799999999999" y2="147.5" stroke="#666" stroke-width="0.5"></line><line x1="729.0799999999999" y1="147.5" x2="729.0799999999999" y2="168.29999999999998" stroke="#666" stroke-width="0.5"></line><line x1="729.0799999999999" y1="168.29999999999998" x2="736.5799999999999" y2="168.29999999999998" stroke="#666" stroke-width="0.5"></line></g><rect x="706.5799999999999" y="161.54999999999998" width="73.34" height="13.5" fill="#fff" opacity="0"></rect><text font-size="13.50" x="741.6" y="172.3" fill="#58888f"><tspan x="741.5799999999999" y="172.35">Waste</tspan></text></g><g class="legendMark"><g class="indicator"><line x1="711.5799999999999" y1="162.1" x2="726.5799999999999" y2="162.1" stroke="#666" stroke-width="0.5"></line><line x1="726.5799999999999" y1="162.1" x2="726.5799999999999" y2="191.1" stroke="#666" stroke-width="0.5"></line><line x1="726.5799999999999" y1="191.1" x2="736.5799999999999" y2="191.1" stroke="#666" stroke-width="0.5"></line></g><rect x="706.5799999999999" y="177.04999999999998" width="128.42000000000002" height="28.1" fill="#fff" opacity="0"></rect><text font-size="13.50" x="741.6" y="187.8" fill="#b077b1"><tspan x="741.5799999999999" y="187.85">Residential and</tspan><tspan x="741.5799999999999" y="202.7">commercial</tspan></text></g><g class="legendMark"><g class="indicator"><line x1="711.5799999999999" y1="178.1" x2="724.0799999999999" y2="178.1" stroke="#666" stroke-width="0.5"></line><line x1="724.0799999999999" y1="178.1" x2="724.0799999999999" y2="213.89999999999998" stroke="#666" stroke-width="0.5"></line><line x1="724.0799999999999" y1="213.89999999999998" x2="736.5799999999999" y2="213.89999999999998" stroke="#666" stroke-width="0.5"></line></g><rect x="706.5799999999999" y="207.14999999999998" width="83.195" height="13.5" fill="#fff" opacity="0"></rect><text font-size="13.50" x="741.6" y="217.9" fill="#ffd53e"><tspan x="741.5799999999999" y="217.95">Industry</tspan></text></g><g class="legendMark"><g class="indicator"><line x1="711.5799999999999" y1="188.9" x2="721.5799999999999" y2="188.9" stroke="#666" stroke-width="0.5"></line><line x1="721.5799999999999" y1="188.9" x2="721.5799999999999" y2="229.39999999999998" stroke="#666" stroke-width="0.5"></line><line x1="721.5799999999999" y1="229.39999999999998" x2="736.5799999999999" y2="229.39999999999998" stroke="#666" stroke-width="0.5"></line></g><rect x="706.5799999999999" y="222.64999999999998" width="92.915" height="13.5" fill="#fff" opacity="0"></rect><text font-size="13.50" x="741.6" y="233.4" fill="#ed6c2d"><tspan x="741.5799999999999" y="233.45">Transport</tspan></text></g><g class="legendMark"><g class="indicator"><line x1="711.5799999999999" y1="190" x2="719.0799999999999" y2="190" stroke="#666" stroke-width="0.5"></line><line x1="719.0799999999999" y1="190" x2="719.0799999999999" y2="244.89999999999998" stroke="#666" stroke-width="0.5"></line><line x1="719.0799999999999" y1="244.89999999999998" x2="736.5799999999999" y2="244.89999999999998" stroke="#666" stroke-width="0.5"></line></g><rect x="706.5799999999999" y="238.14999999999998" width="84.545" height="13.5" fill="#fff" opacity="0"></rect><text font-size="13.50" x="741.6" y="248.9" fill="#9ecc8a"><tspan x="741.5799999999999" y="248.95">Forestry</tspan></text></g><g class="legendMark"><g class="indicator"><line x1="711.5799999999999" y1="195.8" x2="716.5799999999999" y2="195.8" stroke="#666" stroke-width="0.5"></line><line x1="716.5799999999999" y1="195.8" x2="716.5799999999999" y2="260.4" stroke="#666" stroke-width="0.5"></line><line x1="716.5799999999999" y1="260.4" x2="736.5799999999999" y2="260.4" stroke="#666" stroke-width="0.5"></line></g><rect x="706.5799999999999" y="253.64999999999998" width="90.89" height="13.5" fill="#fff" opacity="0"></rect><text font-size="13.50" x="741.6" y="264.4" fill="#6bb537"><tspan x="741.5799999999999" y="264.45">Land use</tspan></text></g><g class="legendMark"><g class="indicator"><line x1="711.5799999999999" y1="356.2" x2="724.0799999999999" y2="356.2" stroke="#666" stroke-width="0.5"></line><line x1="724.0799999999999" y1="356.2" x2="724.0799999999999" y2="356.2" stroke="#666" stroke-width="0.5"></line><line x1="724.0799999999999" y1="356.2" x2="736.5799999999999" y2="356.2" stroke="#666" stroke-width="0.5"></line></g><rect x="706.5799999999999" y="349.45" width="99.665" height="13.5" fill="#fff" opacity="0"></rect><text font-size="13.50" x="741.6" y="360.3" fill="#34983f"><tspan x="741.5799999999999" y="360.25">Agriculture</tspan></text></g><g class="legendMark"><g class="indicator"><line x1="711.5799999999999" y1="523" x2="724.0799999999999" y2="523" stroke="#666" stroke-width="0.5"></line><line x1="724.0799999999999" y1="523" x2="724.0799999999999" y2="523" stroke="#666" stroke-width="0.5"></line><line x1="724.0799999999999" y1="523" x2="736.5799999999999" y2="523" stroke="#666" stroke-width="0.5"></line></g><rect x="706.5799999999999" y="516.25" width="77.93" height="13.5" fill="#fff" opacity="0"></rect><text font-size="13.50" x="741.6" y="527.0" fill="#3360a9"><tspan x="741.5799999999999" y="527.05">Energy</tspan></text></g></g><g class="Areas"><rect x="93.062" y="107.60000000000001" width="613.5179999999999" height="427.69999999999993" opacity="0" fill="rgba(255,255,255,0)"></rect><path stroke-linecap="round" d="M93.1 520.3L123.7 519.9L154.4 519.5L185.1 519.1L215.8 518.3L246.4 517.8L277.1 517.2L307.8 516.8L338.5 516.3L369.1 516L399.8 513.7L430.5 513.9L461.2 513.6L491.8 513.2L522.5 512.8L553.2 512.7L583.9 512L614.6 511.4L645.2 511.5L675.9 511.7L706.6 510.7L706.5799999999999 535.3L93.062 535.3" fill="#3360a9" fill-opacity="0.7" class="World_7-area"></path><path stroke-linecap="round" d="M93.1 252.3L123.7 254L154.4 254.6L185.1 256.4L215.8 253.6L246.4 247.7L277.1 243.4L307.8 244.1L338.5 239.8L369.1 236.1L399.8 235.6L430.5 232.6L461.2 233.5L491.8 230.8L522.5 222.8L553.2 220.8L583.9 216.5L614.6 208.2L645.2 208.1L675.9 207.2L706.6 201.6L706.6 510.7L675.9 511.7L645.2 511.5L614.6 511.4L583.9 512L553.2 512.7L522.5 512.8L491.8 513.2L461.2 513.6L430.5 513.9L399.8 513.7L369.1 516L338.5 516.3L307.8 516.8L277.1 517.2L246.4 517.8L215.8 518.3L185.1 519.1L154.4 519.5L123.7 519.9L93.1 520.3" fill="#34983f" fill-opacity="0.7" class="World_9-area"></path><path stroke-linecap="round" d="M93.1 240.8L123.7 242.4L154.4 243L185.1 244.8L215.8 242L246.4 236.1L277.1 232.2L307.8 227.2L338.5 222.8L369.1 223L399.8 225.8L430.5 225.9L461.2 221.6L491.8 218.7L522.5 211.6L553.2 210L583.9 204.2L614.6 197L645.2 197.1L675.9 198.7L706.6 190L706.6 201.6L675.9 207.2L645.2 208.1L614.6 208.2L583.9 216.5L553.2 220.8L522.5 222.8L491.8 230.8L461.2 233.5L430.5 232.6L399.8 235.6L369.1 236.1L338.5 239.8L307.8 244.1L277.1 243.4L246.4 247.7L215.8 253.6L185.1 256.4L154.4 254.6L123.7 254L93.1 252.3" fill="#6bb537" fill-opacity="0.7" class="World_4-area"></path><path stroke-linecap="round" d="M93.1 240.8L123.7 242.4L154.4 243L185.1 244.8L215.8 242L246.4 236.1L277.1 232.2L307.8 227.2L338.5 222.8L369.1 223L399.8 225.8L430.5 225.9L461.2 221.6L491.8 218.7L522.5 211.6L553.2 210L583.9 204.2L614.6 197L645.2 197.1L675.9 198.7L706.6 190L706.6 190L675.9 198.7L645.2 197.1L614.6 197L583.9 204.2L553.2 210L522.5 211.6L491.8 218.7L461.2 221.6L430.5 225.9L399.8 225.8L369.1 223L338.5 222.8L307.8 227.2L277.1 232.2L246.4 236.1L215.8 242L185.1 244.8L154.4 243L123.7 242.4L93.1 240.8" fill="#9ecc8a" fill-opacity="0.7" class="World_1-area"></path><path stroke-linecap="round" d="M93.1 238.9L123.7 240.5L154.4 241.1L185.1 242.9L215.8 240.1L246.4 234.2L277.1 230.2L307.8 225.2L338.5 220.7L369.1 220.8L399.8 223.7L430.5 223.8L461.2 219.3L491.8 216.4L522.5 209.3L553.2 207.6L583.9 201.6L614.6 194.4L645.2 195L675.9 196.6L706.6 187.8L706.6 190L675.9 198.7L645.2 197.1L614.6 197L583.9 204.2L553.2 210L522.5 211.6L491.8 218.7L461.2 221.6L430.5 225.9L399.8 225.8L369.1 223L338.5 222.8L307.8 227.2L277.1 232.2L246.4 236.1L215.8 242L185.1 244.8L154.4 243L123.7 242.4L93.1 240.8" fill="#ed6c2d" fill-opacity="0.7" class="World_2-area"></path><path stroke-linecap="round" d="M93.1 205.6L123.7 207.6L154.4 207.3L185.1 210.6L215.8 206.3L246.4 198.4L277.1 193.6L307.8 188.9L338.5 189.8L369.1 194L399.8 194.8L430.5 196.1L461.2 193.7L491.8 190.5L522.5 183.4L553.2 181.7L583.9 177.2L614.6 169.6L645.2 172.4L675.9 176.6L706.6 168.5L706.6 187.8L675.9 196.6L645.2 195L614.6 194.4L583.9 201.6L553.2 207.6L522.5 209.3L491.8 216.4L461.2 219.3L430.5 223.8L399.8 223.7L369.1 220.8L338.5 220.7L307.8 225.2L277.1 230.2L246.4 234.2L215.8 240.1L185.1 242.9L154.4 241.1L123.7 240.5L93.1 238.9" fill="#ffd53e" fill-opacity="0.7" class="World_8-area"></path><path stroke-linecap="round" d="M93.1 194.3L123.7 196.2L154.4 196L185.1 199.3L215.8 195.1L246.4 187L277.1 182L307.8 177.2L338.5 178.2L369.1 182.3L399.8 183.1L430.5 184.3L461.2 182L491.8 178.8L522.5 171.2L553.2 169.3L583.9 164.7L614.6 157L645.2 159.9L675.9 164.1L706.6 155.8L706.6 168.5L675.9 176.6L645.2 172.4L614.6 169.6L583.9 177.2L553.2 181.7L522.5 183.4L491.8 190.5L461.2 193.7L430.5 196.1L399.8 194.8L369.1 194L338.5 189.8L307.8 188.9L277.1 193.6L246.4 198.4L215.8 206.3L185.1 210.6L154.4 207.3L123.7 207.6L93.1 205.6" fill="#b077b1" fill-opacity="0.7" class="World_6-area"></path><path stroke-linecap="round" d="M93.1 182.6L123.7 184.2L154.4 183.7L185.1 186.9L215.8 182.2L246.4 173.8L277.1 168.5L307.8 163.4L338.5 164.3L369.1 168L399.8 168.6L430.5 169.6L461.2 167L491.8 163.5L522.5 155.7L553.2 153.6L583.9 148.8L614.6 141L645.2 143.7L675.9 147.7L706.6 139.1L706.6 155.8L675.9 164.1L645.2 159.9L614.6 157L583.9 164.7L553.2 169.3L522.5 171.2L491.8 178.8L461.2 182L430.5 184.3L399.8 183.1L369.1 182.3L338.5 178.2L307.8 177.2L277.1 182L246.4 187L215.8 195.1L185.1 199.3L154.4 196L123.7 196.2L93.1 194.3" fill="#58888f" fill-opacity="0.7" class="World_0-area"></path><path stroke-linecap="round" d="M93.1 181.8L123.7 183.4L154.4 182.9L185.1 186.1L215.8 181.4L246.4 173L277.1 167.6L307.8 162.6L338.5 163.4L369.1 167.1L399.8 167.7L430.5 168.6L461.2 166.1L491.8 162.5L522.5 154.7L553.2 152.5L583.9 147.6L614.6 139.8L645.2 142.5L675.9 146.5L706.6 137.9L706.6 139.1L675.9 147.7L645.2 143.7L614.6 141L583.9 148.8L553.2 153.6L522.5 155.7L491.8 163.5L461.2 167L430.5 169.6L399.8 168.6L369.1 168L338.5 164.3L307.8 163.4L277.1 168.5L246.4 173.8L215.8 182.2L185.1 186.9L154.4 183.7L123.7 184.2L93.1 182.6" fill="#7ec7ce" fill-opacity="0.7" class="World_5-area"></path><path stroke-linecap="round" d="M93.1 154.5L123.7 153.5L154.4 150.4L185.1 159.6L215.8 151.6L246.4 147.2L277.1 141.5L307.8 118.1L338.5 132.7L369.1 141.4L399.8 143.1L430.5 142.7L461.2 136.2L491.8 135.7L522.5 127.1L553.2 124L583.9 113.5L614.6 108.3L645.2 115L675.9 116L706.6 107.6L706.6 137.9L675.9 146.5L645.2 142.5L614.6 139.8L583.9 147.6L553.2 152.5L522.5 154.7L491.8 162.5L461.2 166.1L430.5 168.6L399.8 167.7L369.1 167.1L338.5 163.4L307.8 162.6L277.1 167.6L246.4 173L215.8 181.4L185.1 186.1L154.4 182.9L123.7 183.4L93.1 181.8" fill="#818282" fill-opacity="0.7" class="World_3-area"></path><path stroke-linecap="round" d="M93.1 520.3L123.7 519.9L154.4 519.5L185.1 519.1L215.8 518.3L246.4 517.8L277.1 517.2L307.8 516.8L338.5 516.3L369.1 516L399.8 513.7L430.5 513.9L461.2 513.6L491.8 513.2L522.5 512.8L553.2 512.7L583.9 512L614.6 511.4L645.2 511.5L675.9 511.7L706.6 510.7" stroke="rgb(43, 80, 141)" stroke-opacity="0.7" stroke-width="0.5" fill="none" class="World_7-border"></path><path stroke-linecap="round" d="M93.1 252.3L123.7 254L154.4 254.6L185.1 256.4L215.8 253.6L246.4 247.7L277.1 243.4L307.8 244.1L338.5 239.8L369.1 236.1L399.8 235.6L430.5 232.6L461.2 233.5L491.8 230.8L522.5 222.8L553.2 220.8L583.9 216.5L614.6 208.2L645.2 208.1L675.9 207.2L706.6 201.6" stroke="rgb(44, 127, 53)" stroke-opacity="0.7" stroke-width="0.5" fill="none" class="World_9-border"></path><path stroke-linecap="round" d="M93.1 240.8L123.7 242.4L154.4 243L185.1 244.8L215.8 242L246.4 236.1L277.1 232.2L307.8 227.2L338.5 222.8L369.1 223L399.8 225.8L430.5 225.9L461.2 221.6L491.8 218.7L522.5 211.6L553.2 210L583.9 204.2L614.6 197L645.2 197.1L675.9 198.7L706.6 190" stroke="rgb(90, 151, 46)" stroke-opacity="0.7" stroke-width="0.5" fill="none" class="World_4-border"></path><path stroke-linecap="round" d="M93.1 240.8L123.7 242.4L154.4 243L185.1 244.8L215.8 242L246.4 236.1L277.1 232.2L307.8 227.2L338.5 222.8L369.1 223L399.8 225.8L430.5 225.9L461.2 221.6L491.8 218.7L522.5 211.6L553.2 210L583.9 204.2L614.6 197L645.2 197.1L675.9 198.7L706.6 190" stroke="rgb(132, 171, 115)" stroke-opacity="0.7" stroke-width="0.5" fill="none" class="World_1-border"></path><path stroke-linecap="round" d="M93.1 238.9L123.7 240.5L154.4 241.1L185.1 242.9L215.8 240.1L246.4 234.2L277.1 230.2L307.8 225.2L338.5 220.7L369.1 220.8L399.8 223.7L430.5 223.8L461.2 219.3L491.8 216.4L522.5 209.3L553.2 207.6L583.9 201.6L614.6 194.4L645.2 195L675.9 196.6L706.6 187.8" stroke="rgb(198, 90, 38)" stroke-opacity="0.7" stroke-width="0.5" fill="none" class="World_2-border"></path><path stroke-linecap="round" d="M93.1 205.6L123.7 207.6L154.4 207.3L185.1 210.6L215.8 206.3L246.4 198.4L277.1 193.6L307.8 188.9L338.5 189.8L369.1 194L399.8 194.8L430.5 196.1L461.2 193.7L491.8 190.5L522.5 183.4L553.2 181.7L583.9 177.2L614.6 169.6L645.2 172.4L675.9 176.6L706.6 168.5" stroke="rgb(213, 178, 52)" stroke-opacity="0.7" stroke-width="0.5" fill="none" class="World_8-border"></path><path stroke-linecap="round" d="M93.1 194.3L123.7 196.2L154.4 196L185.1 199.3L215.8 195.1L246.4 187L277.1 182L307.8 177.2L338.5 178.2L369.1 182.3L399.8 183.1L430.5 184.3L461.2 182L491.8 178.8L522.5 171.2L553.2 169.3L583.9 164.7L614.6 157L645.2 159.9L675.9 164.1L706.6 155.8" stroke="rgb(147, 100, 148)" stroke-opacity="0.7" stroke-width="0.5" fill="none" class="World_6-border"></path><path stroke-linecap="round" d="M93.1 182.6L123.7 184.2L154.4 183.7L185.1 186.9L215.8 182.2L246.4 173.8L277.1 168.5L307.8 163.4L338.5 164.3L369.1 168L399.8 168.6L430.5 169.6L461.2 167L491.8 163.5L522.5 155.7L553.2 153.6L583.9 148.8L614.6 141L645.2 143.7L675.9 147.7L706.6 139.1" stroke="rgb(74, 114, 120)" stroke-opacity="0.7" stroke-width="0.5" fill="none" class="World_0-border"></path><path stroke-linecap="round" d="M93.1 181.8L123.7 183.4L154.4 182.9L185.1 186.1L215.8 181.4L246.4 173L277.1 167.6L307.8 162.6L338.5 163.4L369.1 167.1L399.8 167.7L430.5 168.6L461.2 166.1L491.8 162.5L522.5 154.7L553.2 152.5L583.9 147.6L614.6 139.8L645.2 142.5L675.9 146.5L706.6 137.9" stroke="rgb(105, 166, 172)" stroke-opacity="0.7" stroke-width="0.5" fill="none" class="World_5-border"></path><path stroke-linecap="round" d="M93.1 154.5L123.7 153.5L154.4 150.4L185.1 159.6L215.8 151.6L246.4 147.2L277.1 141.5L307.8 118.1L338.5 132.7L369.1 141.4L399.8 143.1L430.5 142.7L461.2 136.2L491.8 135.7L522.5 127.1L553.2 124L583.9 113.5L614.6 108.3L645.2 115L675.9 116L706.6 107.6" stroke="rgb(108, 109, 109)" stroke-opacity="0.7" stroke-width="0.5" fill="none" class="World_3-border"></path></g></g></g><g style="fill: #777;" class="SourcesFooter"><g style="fill: #777;" class="clickable"><text font-size="12.60" x="15.0" y="581.6"><tspan x="15" y="581.58">Source: UN Food and Agricultural Organization (FAO)</tspan></text></g><text font-size="12.60" x="407.4" y="581.6"><tspan x="407.356" y="581.58"><a target='_blank' style='fill: #777;' href='https://ourworldindata.org/co2-and-other-greenhouse-gas-emissions/'>OurWorldInData.org/co2-and-other-greenhouse-gas-emissions/</a> • <a style="fill: #777;" href="http://creativecommons.org/licenses/by-sa/4.0/deed.en_US" target="_blank">CC BY-SA</a></tspan></text></g></g></svg>