<svg xmlns="http://www.w3.org/2000/svg" version="1.1" style="font-family:&#x27;Helvetica Neue&#x27;, Helvetica, Arial, sans-serif;font-size:18px;background-color:white;text-rendering:optimizeLegibility;-webkit-font-smoothing:antialiased" width="850" height="600"><g class="ChartTab"><g class="HeaderView"><g opacity="0.8" transform="translate(778, 15) scale(0.27)"><a xmlns:xlink="http://www.w3.org/1999/xlink" xlink:href="https://ourworldindata.org" target="_blank"><g><rect x="0" y="0" fill="#1B2543" width="211.2" height="130.1"/><rect x="0" y="112.2" fill="#E63912" width="211.2" height="17.9"/><g><rect x="1.2" y="12.3" fill="none" width="210.2" height="99.2"/><path fill="#FFFFFF" d="M37.8,32.2c0,12.7-7.7,19.4-17.1,19.4c-9.7,0-16.6-7.5-16.6-18.7c0-11.7,7.3-19.3,17.1-19.3 C31.3,13.7,37.8,21.3,37.8,32.2z M9.2,32.8c0,7.9,4.3,14.9,11.8,14.9c7.5,0,11.8-6.9,11.8-15.3c0-7.3-3.8-14.9-11.8-14.9 C13.1,17.5,9.2,24.8,9.2,32.8z"/><path fill="#FFFFFF" d="M62.7,43.8c0,2.7,0.1,5.1,0.2,7.2h-4.3l-0.3-4.3h-0.1c-1.3,2.1-4,4.9-8.8,4.9c-4.2,0-9.1-2.3-9.1-11.6 V24.6h4.8v14.6c0,5,1.5,8.4,5.9,8.4c3.2,0,5.5-2.2,6.3-4.4c0.3-0.7,0.4-1.6,0.4-2.5V24.6h4.8V43.8z"/><path fill="#FFFFFF" d="M67.3,32.8c0-3.1-0.1-5.8-0.2-8.2h4.2l0.2,5.2h0.2c1.2-3.5,4.1-5.8,7.3-5.8c0.5,0,0.9,0.1,1.4,0.2v4.5 c-0.5-0.1-1-0.2-1.6-0.2c-3.4,0-5.8,2.6-6.5,6.2c-0.1,0.7-0.2,1.4-0.2,2.2V51h-4.8V32.8z"/><path fill="#FFFFFF" d="M95.4,51l-9.4-36.8h5l4.4,18.6c1.1,4.6,2.1,9.2,2.7,12.7h0.1c0.6-3.7,1.8-8,3-12.8l4.9-18.5h5l4.5,18.7 c1,4.4,2,8.7,2.6,12.6h0.1c0.8-4,1.8-8.1,3-12.7l4.9-18.5h4.9L120.6,51h-5L111,31.9c-1.1-4.7-1.9-8.3-2.4-12h-0.1 c-0.7,3.7-1.5,7.3-2.8,12L100.4,51H95.4z"/><path fill="#FFFFFF" d="M154.9,37.6c0,9.8-6.8,14-13.2,14c-7.2,0-12.7-5.2-12.7-13.6c0-8.8,5.8-14,13.1-14 C149.8,24,154.9,29.5,154.9,37.6z M133.9,37.9c0,5.8,3.3,10.1,8,10.1c4.6,0,8-4.3,8-10.3c0-4.5-2.2-10.1-7.9-10.1 C136.3,27.6,133.9,32.8,133.9,37.9z"/><path fill="#FFFFFF" d="M158.2,32.8c0-3.1-0.1-5.8-0.2-8.2h4.2l0.2,5.2h0.2c1.2-3.5,4.1-5.8,7.3-5.8c0.5,0,0.9,0.1,1.4,0.2v4.5 c-0.5-0.1-1-0.2-1.6-0.2c-3.4,0-5.8,2.6-6.5,6.2c-0.1,0.7-0.2,1.4-0.2,2.2V51h-4.8V32.8z"/><path fill="#FFFFFF" d="M173.5,12.3h4.8V51h-4.8V12.3z"/><path fill="#FFFFFF" d="M206.5,12.3v31.9c0,2.3,0.1,5,0.2,6.8h-4.3l-0.2-4.6H202c-1.5,2.9-4.7,5.2-9,5.2 c-6.4,0-11.3-5.4-11.3-13.4c-0.1-8.8,5.4-14.2,11.9-14.2c4,0,6.8,1.9,8,4h0.1V12.3H206.5z M201.7,35.4c0-0.6-0.1-1.4-0.2-2 c-0.7-3.1-3.3-5.6-6.9-5.6c-5,0-7.9,4.4-7.9,10.2c0,5.3,2.6,9.8,7.8,9.8c3.2,0,6.2-2.1,7.1-5.7c0.2-0.7,0.2-1.3,0.2-2.1V35.4z"/><path fill="#FFFFFF" d="M42.8,64c0.1,1.6-1.1,2.9-3.1,2.9c-1.7,0-2.9-1.3-2.9-2.9c0-1.7,1.3-3,3-3C41.7,61,42.8,62.3,42.8,64z M37.4,97.8V71.4h4.8v26.4H37.4z"/><path fill="#FFFFFF" d="M47.5,78.6c0-2.7-0.1-5-0.2-7.1h4.3l0.3,4.4h0.1c1.3-2.5,4.4-5,8.8-5c3.7,0,9.4,2.2,9.4,11.2v15.8h-4.8 V82.6c0-4.3-1.6-7.8-6.1-7.8c-3.2,0-5.6,2.2-6.5,4.9c-0.2,0.6-0.3,1.4-0.3,2.2v15.9h-4.8V78.6z"/><path fill="#FFFFFF" d="M84,61.6c2.9-0.4,6.3-0.8,10.1-0.8c6.8,0,11.7,1.6,14.9,4.6c3.3,3,5.2,7.3,5.2,13.2c0,6-1.9,10.9-5.3,14.3 c-3.4,3.4-9.1,5.3-16.3,5.3c-3.4,0-6.2-0.2-8.6-0.4V61.6z M88.8,94.1c1.2,0.2,3,0.3,4.8,0.3c10.2,0,15.7-5.7,15.7-15.6 c0.1-8.7-4.9-14.2-14.9-14.2c-2.5,0-4.3,0.2-5.6,0.5V94.1z"/><path fill="#FFFFFF" d="M132.1,97.8l-0.4-3.3h-0.2c-1.5,2.1-4.3,3.9-8.1,3.9c-5.4,0-8.1-3.8-8.1-7.6c0-6.4,5.7-9.9,15.9-9.8v-0.5 c0-2.2-0.6-6.1-6-6.1c-2.5,0-5,0.8-6.9,2l-1.1-3.2c2.2-1.4,5.4-2.3,8.7-2.3c8.1,0,10.1,5.5,10.1,10.8v9.9c0,2.3,0.1,4.5,0.4,6.3 H132.1z M131.4,84.4c-5.3-0.1-11.2,0.8-11.2,5.9c0,3.1,2.1,4.6,4.5,4.6c3.4,0,5.6-2.2,6.4-4.4c0.2-0.5,0.3-1,0.3-1.5V84.4z"/><path fill="#FFFFFF" d="M146.6,63.9v7.6h6.9v3.7h-6.9v14.2c0,3.3,0.9,5.1,3.6,5.1c1.3,0,2.2-0.2,2.8-0.3l0.2,3.6 c-0.9,0.4-2.4,0.7-4.3,0.7c-2.2,0-4-0.7-5.2-2c-1.4-1.4-1.9-3.8-1.9-6.9V75.1h-4.1v-3.7h4.1v-6.3L146.6,63.9z"/><path fill="#FFFFFF" d="M171.4,97.8l-0.4-3.3h-0.2c-1.5,2.1-4.3,3.9-8.1,3.9c-5.4,0-8.1-3.8-8.1-7.6c0-6.4,5.7-9.9,15.9-9.8v-0.5 c0-2.2-0.6-6.1-6-6.1c-2.5,0-5,0.8-6.9,2l-1.1-3.2c2.2-1.4,5.4-2.3,8.7-2.3c8.1,0,10.1,5.5,10.1,10.8v9.9c0,2.3,0.1,4.5,0.4,6.3 H171.4z M170.7,84.4c-5.3-0.1-11.2,0.8-11.2,5.9c0,3.1,2.1,4.6,4.5,4.6c3.4,0,5.6-2.2,6.4-4.4c0.2-0.5,0.3-1,0.3-1.5V84.4z"/></g></g></a></g><a href="https://ourworldindata.org/grapher/number-affected-by-natural-disasters" target="_blank"><text font-size="24.30" x="15.0" y="34.4" fill="#555"><tspan x="15" y="34.44">Number of people affected by natural disasters, All natural disasters</tspan></text></a><text font-size="14.40" x="15.0" y="52.8" fill="#666"><tspan x="15" y="52.81999999999999">Global number of people affected by natural disasters. This is defined as &quot;people requiring immediate assistance</tspan><tspan x="15" y="68.66">during a period of emergency, i.e. requiring basic survival needs such as food, water, shelter, sanitation and</tspan><tspan x="15" y="84.5">immediate medical assistance.&quot;</tspan></text></g><g class="LineChart"><defs><clipPath id="boundsClip-1"><rect x="87.598" y="0" width="830" height="870.4"></rect></clipPath></defs><g class="AxisBoxView"><g class="HorizontalAxis"><text x="97.6" y="541.9" fill="#666" text-anchor="middle" font-size="16.2">1907</text><text x="166.6" y="541.9" fill="#666" text-anchor="middle" font-size="16.2">1920</text><text x="272.9" y="541.9" fill="#666" text-anchor="middle" font-size="16.2">1940</text><text x="379.1" y="541.9" fill="#666" text-anchor="middle" font-size="16.2">1960</text><text x="485.3" y="541.9" fill="#666" text-anchor="middle" font-size="16.2">1980</text><text x="591.6" y="541.9" fill="#666" text-anchor="middle" font-size="16.2">2000</text><text x="681.9" y="541.9" fill="#666" text-anchor="middle" font-size="16.2">2017</text></g><g class="VerticalAxis"><text x="92.60" y="457.9" fill="#666" dominant-baseline="middle" text-anchor="end" font-size="16.2">100 million</text><text x="92.60" y="395" fill="#666" dominant-baseline="middle" text-anchor="end" font-size="16.2">200 million</text><text x="92.60" y="332.2" fill="#666" dominant-baseline="middle" text-anchor="end" font-size="16.2">300 million</text><text x="92.60" y="269.4" fill="#666" dominant-baseline="middle" text-anchor="end" font-size="16.2">400 million</text><text x="92.60" y="206.5" fill="#666" dominant-baseline="middle" text-anchor="end" font-size="16.2">500 million</text><text x="92.60" y="143.7" fill="#666" dominant-baseline="middle" text-anchor="end" font-size="16.2">600 million</text></g><g class="AxisGridLines"><line x1="97.60" y1="457.9" x2="681.88" y2="457.9" stroke="#ddd" stroke-dasharray="3,2"></line><line x1="97.60" y1="395" x2="681.88" y2="395" stroke="#ddd" stroke-dasharray="3,2"></line><line x1="97.60" y1="332.2" x2="681.88" y2="332.2" stroke="#ddd" stroke-dasharray="3,2"></line><line x1="97.60" y1="269.4" x2="681.88" y2="269.4" stroke="#ddd" stroke-dasharray="3,2"></line><line x1="97.60" y1="206.5" x2="681.88" y2="206.5" stroke="#ddd" stroke-dasharray="3,2"></line><line x1="97.60" y1="143.7" x2="681.88" y2="143.7" stroke="#ddd" stroke-dasharray="3,2"></line></g></g><g clip-path="url(#boundsClip-1)"><g class="HeightedLegend clickable"><g class="legendMark"><rect x="681.875" y="455.95" width="153.125" height="13.5" fill="#fff" opacity="0"></rect><text font-size="13.50" x="686.9" y="466.8" fill="#3360a9"><tspan x="686.875" y="466.75">All natural disasters</tspan></text></g></g><g class="Lines"><rect x="98" y="107" width="584" height="414" fill="rgba(255,255,255,0)" opacity="0"></rect><g class="key-All-natural-disasters_0"><path stroke="#3360a9" stroke-linecap="round" d="M98 521L103 521L114 521L140 519L151 520L156 519L167 508L172 518L183 509L188 520L204 521L209 521L220 521L225 521L246 514L257 521L273 521L289 521L294 521L299 520L305 521L315 520L321 521L326 514L331 521L337 520L342 519L347 521L358 520L363 520L369 521L374 520L379 519L384 520L390 521L395 517L400 516L406 447L411 514L416 517L422 505L427 513L432 492L438 515L443 384L448 513L454 494L459 500L464 507L469 507L475 486L480 483L485 475L491 501L496 427L501 455L507 482L512 504L517 503L523 287L528 394L533 414L539 469L544 346L549 481L554 414L560 355L565 385L570 387L576 479L581 323L586 348L592 412L597 454L602 107L608 362L613 422L618 424L623 445L629 388L634 384L639 394L645 359L650 388L655 451L661 460L666 433L671 249L677 395L682 463" fill="none" stroke-width="1.5"></path><g fill="#3360a9"><circle cx="98" cy="521" r="2"></circle><circle cx="103" cy="521" r="2"></circle><circle cx="114" cy="521" r="2"></circle><circle cx="140" cy="519" r="2"></circle><circle cx="151" cy="520" r="2"></circle><circle cx="156" cy="519" r="2"></circle><circle cx="167" cy="508" r="2"></circle><circle cx="172" cy="518" r="2"></circle><circle cx="183" cy="509" r="2"></circle><circle cx="188" cy="520" r="2"></circle><circle cx="204" cy="521" r="2"></circle><circle cx="209" cy="521" r="2"></circle><circle cx="220" cy="521" r="2"></circle><circle cx="225" cy="521" r="2"></circle><circle cx="246" cy="514" r="2"></circle><circle cx="257" cy="521" r="2"></circle><circle cx="273" cy="521" r="2"></circle><circle cx="289" cy="521" r="2"></circle><circle cx="294" cy="521" r="2"></circle><circle cx="299" cy="520" r="2"></circle><circle cx="305" cy="521" r="2"></circle><circle cx="315" cy="520" r="2"></circle><circle cx="321" cy="521" r="2"></circle><circle cx="326" cy="514" r="2"></circle><circle cx="331" cy="521" r="2"></circle><circle cx="337" cy="520" r="2"></circle><circle cx="342" cy="519" r="2"></circle><circle cx="347" cy="521" r="2"></circle><circle cx="358" cy="520" r="2"></circle><circle cx="363" cy="520" r="2"></circle><circle cx="369" cy="521" r="2"></circle><circle cx="374" cy="520" r="2"></circle><circle cx="379" cy="519" r="2"></circle><circle cx="384" cy="520" r="2"></circle><circle cx="390" cy="521" r="2"></circle><circle cx="395" cy="517" r="2"></circle><circle cx="400" cy="516" r="2"></circle><circle cx="406" cy="447" r="2"></circle><circle cx="411" cy="514" r="2"></circle><circle cx="416" cy="517" r="2"></circle><circle cx="422" cy="505" r="2"></circle><circle cx="427" cy="513" r="2"></circle><circle cx="432" cy="492" r="2"></circle><circle cx="438" cy="515" r="2"></circle><circle cx="443" cy="384" r="2"></circle><circle cx="448" cy="513" r="2"></circle><circle cx="454" cy="494" r="2"></circle><circle cx="459" cy="500" r="2"></circle><circle cx="464" cy="507" r="2"></circle><circle cx="469" cy="507" r="2"></circle><circle cx="475" cy="486" r="2"></circle><circle cx="480" cy="483" r="2"></circle><circle cx="485" cy="475" r="2"></circle><circle cx="491" cy="501" r="2"></circle><circle cx="496" cy="427" r="2"></circle><circle cx="501" cy="455" r="2"></circle><circle cx="507" cy="482" r="2"></circle><circle cx="512" cy="504" r="2"></circle><circle cx="517" cy="503" r="2"></circle><circle cx="523" cy="287" r="2"></circle><circle cx="528" cy="394" r="2"></circle><circle cx="533" cy="414" r="2"></circle><circle cx="539" cy="469" r="2"></circle><circle cx="544" cy="346" r="2"></circle><circle cx="549" cy="481" r="2"></circle><circle cx="554" cy="414" r="2"></circle><circle cx="560" cy="355" r="2"></circle><circle cx="565" cy="385" r="2"></circle><circle cx="570" cy="387" r="2"></circle><circle cx="576" cy="479" r="2"></circle><circle cx="581" cy="323" r="2"></circle><circle cx="586" cy="348" r="2"></circle><circle cx="592" cy="412" r="2"></circle><circle cx="597" cy="454" r="2"></circle><circle cx="602" cy="107" r="2"></circle><circle cx="608" cy="362" r="2"></circle><circle cx="613" cy="422" r="2"></circle><circle cx="618" cy="424" r="2"></circle><circle cx="623" cy="445" r="2"></circle><circle cx="629" cy="388" r="2"></circle><circle cx="634" cy="384" r="2"></circle><circle cx="639" cy="394" r="2"></circle><circle cx="645" cy="359" r="2"></circle><circle cx="650" cy="388" r="2"></circle><circle cx="655" cy="451" r="2"></circle><circle cx="661" cy="460" r="2"></circle><circle cx="666" cy="433" r="2"></circle><circle cx="671" cy="249" r="2"></circle><circle cx="677" cy="395" r="2"></circle><circle cx="682" cy="463" r="2"></circle></g></g></g></g></g><g class="SourcesFooter" style="fill:#777"><g class="clickable" style="fill:#777"><text font-size="12.60" x="15.0" y="567.0"><tspan x="15" y="566.98">Source: EMDAT (2017): OFDA/CRED International Disaster Database, Université catholique de Louvain – Brussels – Belgium</tspan></text></g><text font-size="12.60" x="15.0" y="582.5"><tspan x="15" y="582.48"><a target='_blank' style='fill: #777;' href='https://ourworldindata.org/natural-disasters'>OurWorldInData.org/natural-disasters</a> • <a style="fill: #777;" class="cclogo" href="http://creativecommons.org/licenses/by-sa/4.0/deed.en_US" target="_blank">CC BY-SA</a></tspan></text></g></g></svg>