<svg xmlns="http://www.w3.org/2000/svg" version="1.1" style="font-family:&#x27;Helvetica Neue&#x27;, Helvetica, Arial, sans-serif;font-size:18px;background-color:white;text-rendering:optimizeLegibility;-webkit-font-smoothing:antialiased" width="850" height="600"><g class="ChartTab"><g class="HeaderView"><g opacity="0.8" transform="translate(778, 15) scale(0.27)"><a xmlns:xlink="http://www.w3.org/1999/xlink" xlink:href="https://ourworldindata.org" target="_blank"><g><rect x="0" y="0" fill="#1B2543" width="211.2" height="130.1"/><rect x="0" y="112.2" fill="#E63912" width="211.2" height="17.9"/><g><rect x="1.2" y="12.3" fill="none" width="210.2" height="99.2"/><path fill="#FFFFFF" d="M37.8,32.2c0,12.7-7.7,19.4-17.1,19.4c-9.7,0-16.6-7.5-16.6-18.7c0-11.7,7.3-19.3,17.1-19.3 C31.3,13.7,37.8,21.3,37.8,32.2z M9.2,32.8c0,7.9,4.3,14.9,11.8,14.9c7.5,0,11.8-6.9,11.8-15.3c0-7.3-3.8-14.9-11.8-14.9 C13.1,17.5,9.2,24.8,9.2,32.8z"/><path fill="#FFFFFF" d="M62.7,43.8c0,2.7,0.1,5.1,0.2,7.2h-4.3l-0.3-4.3h-0.1c-1.3,2.1-4,4.9-8.8,4.9c-4.2,0-9.1-2.3-9.1-11.6 V24.6h4.8v14.6c0,5,1.5,8.4,5.9,8.4c3.2,0,5.5-2.2,6.3-4.4c0.3-0.7,0.4-1.6,0.4-2.5V24.6h4.8V43.8z"/><path fill="#FFFFFF" d="M67.3,32.8c0-3.1-0.1-5.8-0.2-8.2h4.2l0.2,5.2h0.2c1.2-3.5,4.1-5.8,7.3-5.8c0.5,0,0.9,0.1,1.4,0.2v4.5 c-0.5-0.1-1-0.2-1.6-0.2c-3.4,0-5.8,2.6-6.5,6.2c-0.1,0.7-0.2,1.4-0.2,2.2V51h-4.8V32.8z"/><path fill="#FFFFFF" d="M95.4,51l-9.4-36.8h5l4.4,18.6c1.1,4.6,2.1,9.2,2.7,12.7h0.1c0.6-3.7,1.8-8,3-12.8l4.9-18.5h5l4.5,18.7 c1,4.4,2,8.7,2.6,12.6h0.1c0.8-4,1.8-8.1,3-12.7l4.9-18.5h4.9L120.6,51h-5L111,31.9c-1.1-4.7-1.9-8.3-2.4-12h-0.1 c-0.7,3.7-1.5,7.3-2.8,12L100.4,51H95.4z"/><path fill="#FFFFFF" d="M154.9,37.6c0,9.8-6.8,14-13.2,14c-7.2,0-12.7-5.2-12.7-13.6c0-8.8,5.8-14,13.1-14 C149.8,24,154.9,29.5,154.9,37.6z M133.9,37.9c0,5.8,3.3,10.1,8,10.1c4.6,0,8-4.3,8-10.3c0-4.5-2.2-10.1-7.9-10.1 C136.3,27.6,133.9,32.8,133.9,37.9z"/><path fill="#FFFFFF" d="M158.2,32.8c0-3.1-0.1-5.8-0.2-8.2h4.2l0.2,5.2h0.2c1.2-3.5,4.1-5.8,7.3-5.8c0.5,0,0.9,0.1,1.4,0.2v4.5 c-0.5-0.1-1-0.2-1.6-0.2c-3.4,0-5.8,2.6-6.5,6.2c-0.1,0.7-0.2,1.4-0.2,2.2V51h-4.8V32.8z"/><path fill="#FFFFFF" d="M173.5,12.3h4.8V51h-4.8V12.3z"/><path fill="#FFFFFF" d="M206.5,12.3v31.9c0,2.3,0.1,5,0.2,6.8h-4.3l-0.2-4.6H202c-1.5,2.9-4.7,5.2-9,5.2 c-6.4,0-11.3-5.4-11.3-13.4c-0.1-8.8,5.4-14.2,11.9-14.2c4,0,6.8,1.9,8,4h0.1V12.3H206.5z M201.7,35.4c0-0.6-0.1-1.4-0.2-2 c-0.7-3.1-3.3-5.6-6.9-5.6c-5,0-7.9,4.4-7.9,10.2c0,5.3,2.6,9.8,7.8,9.8c3.2,0,6.2-2.1,7.1-5.7c0.2-0.7,0.2-1.3,0.2-2.1V35.4z"/><path fill="#FFFFFF" d="M42.8,64c0.1,1.6-1.1,2.9-3.1,2.9c-1.7,0-2.9-1.3-2.9-2.9c0-1.7,1.3-3,3-3C41.7,61,42.8,62.3,42.8,64z M37.4,97.8V71.4h4.8v26.4H37.4z"/><path fill="#FFFFFF" d="M47.5,78.6c0-2.7-0.1-5-0.2-7.1h4.3l0.3,4.4h0.1c1.3-2.5,4.4-5,8.8-5c3.7,0,9.4,2.2,9.4,11.2v15.8h-4.8 V82.6c0-4.3-1.6-7.8-6.1-7.8c-3.2,0-5.6,2.2-6.5,4.9c-0.2,0.6-0.3,1.4-0.3,2.2v15.9h-4.8V78.6z"/><path fill="#FFFFFF" d="M84,61.6c2.9-0.4,6.3-0.8,10.1-0.8c6.8,0,11.7,1.6,14.9,4.6c3.3,3,5.2,7.3,5.2,13.2c0,6-1.9,10.9-5.3,14.3 c-3.4,3.4-9.1,5.3-16.3,5.3c-3.4,0-6.2-0.2-8.6-0.4V61.6z M88.8,94.1c1.2,0.2,3,0.3,4.8,0.3c10.2,0,15.7-5.7,15.7-15.6 c0.1-8.7-4.9-14.2-14.9-14.2c-2.5,0-4.3,0.2-5.6,0.5V94.1z"/><path fill="#FFFFFF" d="M132.1,97.8l-0.4-3.3h-0.2c-1.5,2.1-4.3,3.9-8.1,3.9c-5.4,0-8.1-3.8-8.1-7.6c0-6.4,5.7-9.9,15.9-9.8v-0.5 c0-2.2-0.6-6.1-6-6.1c-2.5,0-5,0.8-6.9,2l-1.1-3.2c2.2-1.4,5.4-2.3,8.7-2.3c8.1,0,10.1,5.5,10.1,10.8v9.9c0,2.3,0.1,4.5,0.4,6.3 H132.1z M131.4,84.4c-5.3-0.1-11.2,0.8-11.2,5.9c0,3.1,2.1,4.6,4.5,4.6c3.4,0,5.6-2.2,6.4-4.4c0.2-0.5,0.3-1,0.3-1.5V84.4z"/><path fill="#FFFFFF" d="M146.6,63.9v7.6h6.9v3.7h-6.9v14.2c0,3.3,0.9,5.1,3.6,5.1c1.3,0,2.2-0.2,2.8-0.3l0.2,3.6 c-0.9,0.4-2.4,0.7-4.3,0.7c-2.2,0-4-0.7-5.2-2c-1.4-1.4-1.9-3.8-1.9-6.9V75.1h-4.1v-3.7h4.1v-6.3L146.6,63.9z"/><path fill="#FFFFFF" d="M171.4,97.8l-0.4-3.3h-0.2c-1.5,2.1-4.3,3.9-8.1,3.9c-5.4,0-8.1-3.8-8.1-7.6c0-6.4,5.7-9.9,15.9-9.8v-0.5 c0-2.2-0.6-6.1-6-6.1c-2.5,0-5,0.8-6.9,2l-1.1-3.2c2.2-1.4,5.4-2.3,8.7-2.3c8.1,0,10.1,5.5,10.1,10.8v9.9c0,2.3,0.1,4.5,0.4,6.3 H171.4z M170.7,84.4c-5.3-0.1-11.2,0.8-11.2,5.9c0,3.1,2.1,4.6,4.5,4.6c3.4,0,5.6-2.2,6.4-4.4c0.2-0.5,0.3-1,0.3-1.5V84.4z"/></g></g></a></g><a href="https://ourworldindata.org/grapher/number-homeless-from-natural-disasters" target="_blank"><text font-size="25.20" x="15.0" y="35.2" fill="#555"><tspan x="15" y="35.160000000000004">Number left homeless from natural disasters, All natural disasters</tspan></text></a><text font-size="14.40" x="15.0" y="53.7" fill="#666"><tspan x="15" y="53.72">Global number of people left homeless from natural disaster events. This is defined as &quot;number of people whose</tspan><tspan x="15" y="69.56">house is destroyed or heavily damaged and therefore need shelter after an event.&quot;</tspan></text></g><g class="StackedBarChart"><defs><clipPath id="boundsClip-2"><rect x="88.526" y="92.1" width="605.224" height="428.59999999999997"></rect></clipPath></defs><rect x="15" y="92.1" width="820" height="449.79999999999995" opacity="0" fill="rgba(255,255,255,0)"></rect><g class="VerticalAxis"><text x="83.53" y="520.7" fill="#666" dominant-baseline="middle" text-anchor="end" font-size="16.2">0</text><text x="83.53" y="447.9" fill="#666" dominant-baseline="middle" text-anchor="end" font-size="16.2">5 million</text><text x="83.53" y="375" fill="#666" dominant-baseline="middle" text-anchor="end" font-size="16.2">10 million</text><text x="83.53" y="302.2" fill="#666" dominant-baseline="middle" text-anchor="end" font-size="16.2">15 million</text><text x="83.53" y="229.4" fill="#666" dominant-baseline="middle" text-anchor="end" font-size="16.2">20 million</text><text x="83.53" y="156.6" fill="#666" dominant-baseline="middle" text-anchor="end" font-size="16.2">25 million</text></g><g class="AxisGridLines"><line x1="88.53" y1="520.7" x2="693.75" y2="520.7" stroke="#ccc"></line><line x1="88.53" y1="447.9" x2="693.75" y2="447.9" stroke="#ddd" stroke-dasharray="3,2"></line><line x1="88.53" y1="375" x2="693.75" y2="375" stroke="#ddd" stroke-dasharray="3,2"></line><line x1="88.53" y1="302.2" x2="693.75" y2="302.2" stroke="#ddd" stroke-dasharray="3,2"></line><line x1="88.53" y1="229.4" x2="693.75" y2="229.4" stroke="#ddd" stroke-dasharray="3,2"></line><line x1="88.53" y1="156.6" x2="693.75" y2="156.6" stroke="#ddd" stroke-dasharray="3,2"></line></g><g><text x="75.03756923076922" y="538.66" fill="#666" font-size="16.2">1911</text><text x="121.59326153846152" y="538.66" fill="#666" font-size="16.2">1928</text><text x="168.14895384615377" y="538.66" fill="#666" font-size="16.2">1940</text><text x="214.70464615384603" y="538.66" fill="#666" font-size="16.2">1954</text><text x="261.26033846153837" y="538.66" fill="#666" font-size="16.2">1964</text><text x="307.8160307692308" y="538.66" fill="#666" font-size="16.2">1970</text><text x="354.3717230769232" y="538.66" fill="#666" font-size="16.2">1976</text><text x="400.92741538461564" y="538.66" fill="#666" font-size="16.2">1982</text><text x="447.48310769230807" y="538.66" fill="#666" font-size="16.2">1988</text><text x="494.0388000000005" y="538.66" fill="#666" font-size="16.2">1994</text><text x="540.5944923076928" y="538.66" fill="#666" font-size="16.2">2000</text><text x="587.1501846153852" y="538.66" fill="#666" font-size="16.2">2006</text><text x="672.502287179488" y="538.66" fill="#666" font-size="16.2">2017</text></g><g clip-path="url(#boundsClip-2)"><g class="All-natural-disasters_0-segments"><rect x="90.0778564102564" y="520.7" width="6.207425641025641" height="0" fill="#3360a9" opacity="0.8"></rect><rect x="97.83713846153846" y="519.3" width="6.207425641025641" height="1.400000000000091" fill="#3360a9" opacity="0.8"></rect><rect x="105.59642051282052" y="520.5" width="6.207425641025641" height="0.20000000000004547" fill="#3360a9" opacity="0.8"></rect><rect x="113.35570256410257" y="520.3" width="6.207425641025641" height="0.40000000000009095" fill="#3360a9" opacity="0.8"></rect><rect x="121.11498461538463" y="520.5" width="6.207425641025641" height="0.20000000000004547" fill="#3360a9" opacity="0.8"></rect><rect x="128.87426666666667" y="520.1" width="6.207425641025641" height="0.6000000000000227" fill="#3360a9" opacity="0.8"></rect><rect x="136.6335487179487" y="520.7" width="6.207425641025641" height="0" fill="#3360a9" opacity="0.8"></rect><rect x="144.39283076923076" y="520.6" width="6.207425641025641" height="0.10000000000002274" fill="#3360a9" opacity="0.8"></rect><rect x="152.1521128205128" y="468.3" width="6.207425641025641" height="52.400000000000034" fill="#3360a9" opacity="0.8"></rect><rect x="159.91139487179484" y="518.5" width="6.207425641025641" height="2.2000000000000455" fill="#3360a9" opacity="0.8"></rect><rect x="167.67067692307688" y="520.6" width="6.207425641025641" height="0.10000000000002274" fill="#3360a9" opacity="0.8"></rect><rect x="175.42995897435893" y="520.6" width="6.207425641025641" height="0.10000000000002274" fill="#3360a9" opacity="0.8"></rect><rect x="183.18924102564097" y="520.7" width="6.207425641025641" height="0" fill="#3360a9" opacity="0.8"></rect><rect x="190.948523076923" y="520.3" width="6.207425641025641" height="0.40000000000009095" fill="#3360a9" opacity="0.8"></rect><rect x="198.70780512820505" y="520.7" width="6.207425641025641" height="0" fill="#3360a9" opacity="0.8"></rect><rect x="206.4670871794871" y="520.1" width="6.207425641025641" height="0.6000000000000227" fill="#3360a9" opacity="0.8"></rect><rect x="214.22636923076914" y="518.2" width="6.207425641025641" height="2.5" fill="#3360a9" opacity="0.8"></rect><rect x="221.98565128205118" y="520.6" width="6.207425641025641" height="0.10000000000002274" fill="#3360a9" opacity="0.8"></rect><rect x="229.74493333333322" y="518.7" width="6.207425641025641" height="2" fill="#3360a9" opacity="0.8"></rect><rect x="237.50421538461526" y="515.2" width="6.207425641025641" height="5.5" fill="#3360a9" opacity="0.8"></rect><rect x="245.2634974358973" y="519.6" width="6.207425641025641" height="1.1000000000000227" fill="#3360a9" opacity="0.8"></rect><rect x="253.02277948717935" y="520.7" width="6.207425641025641" height="0" fill="#3360a9" opacity="0.8"></rect><rect x="260.7820615384614" y="520.7" width="6.207425641025641" height="0" fill="#3360a9" opacity="0.8"></rect><rect x="268.54134358974346" y="520.7" width="6.207425641025641" height="0" fill="#3360a9" opacity="0.8"></rect><rect x="276.30062564102553" y="517.5" width="6.207425641025641" height="3.2000000000000455" fill="#3360a9" opacity="0.8"></rect><rect x="284.0599076923076" y="445.6" width="6.207425641025641" height="75.10000000000002" fill="#3360a9" opacity="0.8"></rect><rect x="291.8191897435897" y="490.3" width="6.207425641025641" height="30.400000000000034" fill="#3360a9" opacity="0.8"></rect><rect x="299.57847179487175" y="516.1" width="6.207425641025641" height="4.600000000000023" fill="#3360a9" opacity="0.8"></rect><rect x="307.3377538461538" y="506.3" width="6.207425641025641" height="14.400000000000034" fill="#3360a9" opacity="0.8"></rect><rect x="315.0970358974359" y="518.5" width="6.207425641025641" height="2.2000000000000455" fill="#3360a9" opacity="0.8"></rect><rect x="322.85631794871796" y="512.4" width="6.207425641025641" height="8.300000000000068" fill="#3360a9" opacity="0.8"></rect><rect x="330.61560000000003" y="490.2" width="6.207425641025641" height="30.500000000000057" fill="#3360a9" opacity="0.8"></rect><rect x="338.3748820512821" y="504.3" width="6.207425641025641" height="16.400000000000034" fill="#3360a9" opacity="0.8"></rect><rect x="346.13416410256417" y="518.4" width="6.207425641025641" height="2.300000000000068" fill="#3360a9" opacity="0.8"></rect><rect x="353.89344615384624" y="490" width="6.207425641025641" height="30.700000000000045" fill="#3360a9" opacity="0.8"></rect><rect x="361.6527282051283" y="417.5" width="6.207425641025641" height="103.20000000000005" fill="#3360a9" opacity="0.8"></rect><rect x="369.4120102564104" y="495.8" width="6.207425641025641" height="24.900000000000034" fill="#3360a9" opacity="0.8"></rect><rect x="377.17129230769245" y="431" width="6.207425641025641" height="89.70000000000005" fill="#3360a9" opacity="0.8"></rect><rect x="384.9305743589745" y="517" width="6.207425641025641" height="3.7000000000000455" fill="#3360a9" opacity="0.8"></rect><rect x="392.6898564102566" y="511.6" width="6.207425641025641" height="9.100000000000023" fill="#3360a9" opacity="0.8"></rect><rect x="400.44913846153867" y="481.3" width="6.207425641025641" height="39.400000000000034" fill="#3360a9" opacity="0.8"></rect><rect x="408.20842051282074" y="516.4" width="6.207425641025641" height="4.300000000000068" fill="#3360a9" opacity="0.8"></rect><rect x="415.9677025641028" y="504.8" width="6.207425641025641" height="15.900000000000034" fill="#3360a9" opacity="0.8"></rect><rect x="423.7269846153849" y="500.1" width="6.207425641025641" height="20.600000000000023" fill="#3360a9" opacity="0.8"></rect><rect x="431.48626666666695" y="492.6" width="6.207425641025641" height="28.100000000000023" fill="#3360a9" opacity="0.8"></rect><rect x="439.245548717949" y="490.3" width="6.207425641025641" height="30.400000000000034" fill="#3360a9" opacity="0.8"></rect><rect x="447.0048307692311" y="453.6" width="6.207425641025641" height="67.10000000000002" fill="#3360a9" opacity="0.8"></rect><rect x="454.76411282051316" y="497.3" width="6.207425641025641" height="23.400000000000034" fill="#3360a9" opacity="0.8"></rect><rect x="462.52339487179523" y="440.3" width="6.207425641025641" height="80.40000000000003" fill="#3360a9" opacity="0.8"></rect><rect x="470.2826769230773" y="489.8" width="6.207425641025641" height="30.900000000000034" fill="#3360a9" opacity="0.8"></rect><rect x="478.0419589743594" y="493.2" width="6.207425641025641" height="27.500000000000057" fill="#3360a9" opacity="0.8"></rect><rect x="485.80124102564145" y="420.9" width="6.207425641025641" height="99.80000000000007" fill="#3360a9" opacity="0.8"></rect><rect x="493.5605230769235" y="451.6" width="6.207425641025641" height="69.10000000000002" fill="#3360a9" opacity="0.8"></rect><rect x="501.3198051282056" y="503" width="6.207425641025641" height="17.700000000000045" fill="#3360a9" opacity="0.8"></rect><rect x="509.07908717948766" y="385.2" width="6.207425641025641" height="135.50000000000006" fill="#3360a9" opacity="0.8"></rect><rect x="516.8383692307697" y="435.5" width="6.207425641025641" height="85.20000000000005" fill="#3360a9" opacity="0.8"></rect><rect x="524.5976512820517" y="418.8" width="6.207425641025641" height="101.90000000000003" fill="#3360a9" opacity="0.8"></rect><rect x="532.3569333333338" y="472.1" width="6.207425641025641" height="48.60000000000002" fill="#3360a9" opacity="0.8"></rect><rect x="540.1162153846159" y="92.1" width="6.207425641025641" height="428.6" fill="#3360a9" opacity="0.8"></rect><rect x="547.875497435898" y="424.8" width="6.207425641025641" height="95.90000000000003" fill="#3360a9" opacity="0.8"></rect><rect x="555.63477948718" y="495" width="6.207425641025641" height="25.700000000000045" fill="#3360a9" opacity="0.8"></rect><rect x="563.3940615384621" y="475.3" width="6.207425641025641" height="45.400000000000034" fill="#3360a9" opacity="0.8"></rect><rect x="571.1533435897442" y="515.5" width="6.207425641025641" height="5.2000000000000455" fill="#3360a9" opacity="0.8"></rect><rect x="578.9126256410262" y="478.4" width="6.207425641025641" height="42.30000000000007" fill="#3360a9" opacity="0.8"></rect><rect x="586.6719076923083" y="483.2" width="6.207425641025641" height="37.50000000000006" fill="#3360a9" opacity="0.8"></rect><rect x="594.4311897435904" y="429.4" width="6.207425641025641" height="91.30000000000007" fill="#3360a9" opacity="0.8"></rect><rect x="602.1904717948725" y="430.3" width="6.207425641025641" height="90.40000000000003" fill="#3360a9" opacity="0.8"></rect><rect x="609.9497538461545" y="503.7" width="6.207425641025641" height="17.000000000000057" fill="#3360a9" opacity="0.8"></rect><rect x="617.7090358974366" y="473.5" width="6.207425641025641" height="47.200000000000045" fill="#3360a9" opacity="0.8"></rect><rect x="625.4683179487187" y="513.3" width="6.207425641025641" height="7.400000000000091" fill="#3360a9" opacity="0.8"></rect><rect x="633.2276000000007" y="485.4" width="6.207425641025641" height="35.30000000000007" fill="#3360a9" opacity="0.8"></rect><rect x="640.9868820512828" y="492.1" width="6.207425641025641" height="28.600000000000023" fill="#3360a9" opacity="0.8"></rect><rect x="648.7461641025649" y="506.9" width="6.207425641025641" height="13.800000000000068" fill="#3360a9" opacity="0.8"></rect><rect x="656.505446153847" y="515.9" width="6.207425641025641" height="4.800000000000068" fill="#3360a9" opacity="0.8"></rect><rect x="664.264728205129" y="500.8" width="6.207425641025641" height="19.900000000000034" fill="#3360a9" opacity="0.8"></rect><rect x="672.0240102564111" y="511.7" width="6.207425641025641" height="9.000000000000057" fill="#3360a9" opacity="0.8"></rect><rect x="679.7832923076932" y="484.9" width="6.207425641025641" height="35.80000000000007" fill="#3360a9" opacity="0.8"></rect><rect x="687.5425743589752" y="516.1" width="6.207425641025641" height="4.600000000000023" fill="#3360a9" opacity="0.8"></rect></g></g><g class="ScatterColorLegend clickable" style="cursor:pointer"><g class="legendMark"><rect x="713.75" y="89.6" width="121.25" height="17.6" fill="#fff" opacity="0"></rect>,<rect x="713.75" y="95.1" width="6" height="6" fill="#3360a9"></rect>,<text font-size="12.60" x="724.8" y="102.2"><tspan x="724.75" y="102.17999999999999">All natural disasters</tspan></text></g></g></g><g class="SourcesFooter" style="fill:#777"><g class="clickable" style="fill:#777"><text font-size="12.60" x="15.0" y="567.0"><tspan x="15" y="566.98">Source: EMDAT (2019): OFDA/CRED International Disaster Database, Université catholique de Louvain – Brussels – Belgium</tspan></text></g><text font-size="12.60" x="15.0" y="582.5"><tspan x="15" y="582.48"><a target='_blank' style='fill: #777;' href='https://ourworldindata.org/natural-disasters'>OurWorldInData.org/natural-disasters</a> • <a style="fill: #777;" class="cclogo" href="http://creativecommons.org/licenses/by-sa/4.0/deed.en_US" target="_blank">CC BY-SA</a></tspan></text></g></g></svg>