<svg xmlns="http://www.w3.org/2000/svg" version="1.1" style="font-family: 'Helvetica Neue', Helvetica, Arial, sans-serif; font-size: 18px; background-color: white; text-rendering: optimizeLegibility; -webkit-font-smoothing: antialiased;" width="850" height="600"><g class="ChartTab"><g class="HeaderView"><g opacity="0.8" transform="translate(778, 15) scale(0.27)"><a xmlns:xlink="http://www.w3.org/1999/xlink" xlink:href="https://ourworldindata.org" target="_blank"><g><rect x="0" y="0" fill="#1B2543" width="211.2" height="130.1"/><rect x="0" y="112.2" fill="#E63912" width="211.2" height="17.9"/><g><rect x="1.2" y="12.3" fill="none" width="210.2" height="99.2"/><path fill="#FFFFFF" d="M37.8,32.2c0,12.7-7.7,19.4-17.1,19.4c-9.7,0-16.6-7.5-16.6-18.7c0-11.7,7.3-19.3,17.1-19.3 C31.3,13.7,37.8,21.3,37.8,32.2z M9.2,32.8c0,7.9,4.3,14.9,11.8,14.9c7.5,0,11.8-6.9,11.8-15.3c0-7.3-3.8-14.9-11.8-14.9 C13.1,17.5,9.2,24.8,9.2,32.8z"/><path fill="#FFFFFF" d="M62.7,43.8c0,2.7,0.1,5.1,0.2,7.2h-4.3l-0.3-4.3h-0.1c-1.3,2.1-4,4.9-8.8,4.9c-4.2,0-9.1-2.3-9.1-11.6 V24.6h4.8v14.6c0,5,1.5,8.4,5.9,8.4c3.2,0,5.5-2.2,6.3-4.4c0.3-0.7,0.4-1.6,0.4-2.5V24.6h4.8V43.8z"/><path fill="#FFFFFF" d="M67.3,32.8c0-3.1-0.1-5.8-0.2-8.2h4.2l0.2,5.2h0.2c1.2-3.5,4.1-5.8,7.3-5.8c0.5,0,0.9,0.1,1.4,0.2v4.5 c-0.5-0.1-1-0.2-1.6-0.2c-3.4,0-5.8,2.6-6.5,6.2c-0.1,0.7-0.2,1.4-0.2,2.2V51h-4.8V32.8z"/><path fill="#FFFFFF" d="M95.4,51l-9.4-36.8h5l4.4,18.6c1.1,4.6,2.1,9.2,2.7,12.7h0.1c0.6-3.7,1.8-8,3-12.8l4.9-18.5h5l4.5,18.7 c1,4.4,2,8.7,2.6,12.6h0.1c0.8-4,1.8-8.1,3-12.7l4.9-18.5h4.9L120.6,51h-5L111,31.9c-1.1-4.7-1.9-8.3-2.4-12h-0.1 c-0.7,3.7-1.5,7.3-2.8,12L100.4,51H95.4z"/><path fill="#FFFFFF" d="M154.9,37.6c0,9.8-6.8,14-13.2,14c-7.2,0-12.7-5.2-12.7-13.6c0-8.8,5.8-14,13.1-14 C149.8,24,154.9,29.5,154.9,37.6z M133.9,37.9c0,5.8,3.3,10.1,8,10.1c4.6,0,8-4.3,8-10.3c0-4.5-2.2-10.1-7.9-10.1 C136.3,27.6,133.9,32.8,133.9,37.9z"/><path fill="#FFFFFF" d="M158.2,32.8c0-3.1-0.1-5.8-0.2-8.2h4.2l0.2,5.2h0.2c1.2-3.5,4.1-5.8,7.3-5.8c0.5,0,0.9,0.1,1.4,0.2v4.5 c-0.5-0.1-1-0.2-1.6-0.2c-3.4,0-5.8,2.6-6.5,6.2c-0.1,0.7-0.2,1.4-0.2,2.2V51h-4.8V32.8z"/><path fill="#FFFFFF" d="M173.5,12.3h4.8V51h-4.8V12.3z"/><path fill="#FFFFFF" d="M206.5,12.3v31.9c0,2.3,0.1,5,0.2,6.8h-4.3l-0.2-4.6H202c-1.5,2.9-4.7,5.2-9,5.2 c-6.4,0-11.3-5.4-11.3-13.4c-0.1-8.8,5.4-14.2,11.9-14.2c4,0,6.8,1.9,8,4h0.1V12.3H206.5z M201.7,35.4c0-0.6-0.1-1.4-0.2-2 c-0.7-3.1-3.3-5.6-6.9-5.6c-5,0-7.9,4.4-7.9,10.2c0,5.3,2.6,9.8,7.8,9.8c3.2,0,6.2-2.1,7.1-5.7c0.2-0.7,0.2-1.3,0.2-2.1V35.4z"/><path fill="#FFFFFF" d="M42.8,64c0.1,1.6-1.1,2.9-3.1,2.9c-1.7,0-2.9-1.3-2.9-2.9c0-1.7,1.3-3,3-3C41.7,61,42.8,62.3,42.8,64z M37.4,97.8V71.4h4.8v26.4H37.4z"/><path fill="#FFFFFF" d="M47.5,78.6c0-2.7-0.1-5-0.2-7.1h4.3l0.3,4.4h0.1c1.3-2.5,4.4-5,8.8-5c3.7,0,9.4,2.2,9.4,11.2v15.8h-4.8 V82.6c0-4.3-1.6-7.8-6.1-7.8c-3.2,0-5.6,2.2-6.5,4.9c-0.2,0.6-0.3,1.4-0.3,2.2v15.9h-4.8V78.6z"/><path fill="#FFFFFF" d="M84,61.6c2.9-0.4,6.3-0.8,10.1-0.8c6.8,0,11.7,1.6,14.9,4.6c3.3,3,5.2,7.3,5.2,13.2c0,6-1.9,10.9-5.3,14.3 c-3.4,3.4-9.1,5.3-16.3,5.3c-3.4,0-6.2-0.2-8.6-0.4V61.6z M88.8,94.1c1.2,0.2,3,0.3,4.8,0.3c10.2,0,15.7-5.7,15.7-15.6 c0.1-8.7-4.9-14.2-14.9-14.2c-2.5,0-4.3,0.2-5.6,0.5V94.1z"/><path fill="#FFFFFF" d="M132.1,97.8l-0.4-3.3h-0.2c-1.5,2.1-4.3,3.9-8.1,3.9c-5.4,0-8.1-3.8-8.1-7.6c0-6.4,5.7-9.9,15.9-9.8v-0.5 c0-2.2-0.6-6.1-6-6.1c-2.5,0-5,0.8-6.9,2l-1.1-3.2c2.2-1.4,5.4-2.3,8.7-2.3c8.1,0,10.1,5.5,10.1,10.8v9.9c0,2.3,0.1,4.5,0.4,6.3 H132.1z M131.4,84.4c-5.3-0.1-11.2,0.8-11.2,5.9c0,3.1,2.1,4.6,4.5,4.6c3.4,0,5.6-2.2,6.4-4.4c0.2-0.5,0.3-1,0.3-1.5V84.4z"/><path fill="#FFFFFF" d="M146.6,63.9v7.6h6.9v3.7h-6.9v14.2c0,3.3,0.9,5.1,3.6,5.1c1.3,0,2.2-0.2,2.8-0.3l0.2,3.6 c-0.9,0.4-2.4,0.7-4.3,0.7c-2.2,0-4-0.7-5.2-2c-1.4-1.4-1.9-3.8-1.9-6.9V75.1h-4.1v-3.7h4.1v-6.3L146.6,63.9z"/><path fill="#FFFFFF" d="M171.4,97.8l-0.4-3.3h-0.2c-1.5,2.1-4.3,3.9-8.1,3.9c-5.4,0-8.1-3.8-8.1-7.6c0-6.4,5.7-9.9,15.9-9.8v-0.5 c0-2.2-0.6-6.1-6-6.1c-2.5,0-5,0.8-6.9,2l-1.1-3.2c2.2-1.4,5.4-2.3,8.7-2.3c8.1,0,10.1,5.5,10.1,10.8v9.9c0,2.3,0.1,4.5,0.4,6.3 H171.4z M170.7,84.4c-5.3-0.1-11.2,0.8-11.2,5.9c0,3.1,2.1,4.6,4.5,4.6c3.4,0,5.6-2.2,6.4-4.4c0.2-0.5,0.3-1,0.3-1.5V84.4z"/></g></g></a></g><a href="https://ourworldindata.org/grapher/outdoor-air-pollution-deaths-by-age" target="_blank"><text font-size="25.20" x="15.0" y="35.2" fill="#555"><tspan x="15" y="35.160000000000004">Outdoor air pollution deaths by age, World</tspan></text></a><text font-size="14.40" x="15.0" y="53.7" fill="#666"><tspan x="15" y="53.72">Annual number of premature deaths attributed to outdoor (ambient) air pollution, measured for both particulate matter</tspan><tspan x="15" y="69.56">and ozone exposure. This is measured as attributed deaths linked to all established mortality and disease risks from</tspan><tspan x="15" y="85.4">air pollution. </tspan></text></g><g class="StackedArea"><defs><clipPath id="boundsClip-2445"><rect x="79.45400000000001" y="0" width="820" height="897.8"></rect></clipPath></defs><g class="AxisBoxView"><g class="HorizontalAxis"><text x="79.5" y="556.5" fill="#666" text-anchor="middle" font-size="16.2">1990</text><text x="203.3" y="556.5" fill="#666" text-anchor="middle" font-size="16.2">1995</text><text x="327.1" y="556.5" fill="#666" text-anchor="middle" font-size="16.2">2000</text><text x="450.9" y="556.5" fill="#666" text-anchor="middle" font-size="16.2">2005</text><text x="574.7" y="556.5" fill="#666" text-anchor="middle" font-size="16.2">2010</text><text x="723.3" y="556.5" fill="#666" text-anchor="middle" font-size="16.2">2016</text></g><g class="VerticalAxis"><text x="74.45" y="535.3" fill="#666" dominant-baseline="middle" text-anchor="end" font-size="16.2">0</text><text x="74.45" y="436.4" fill="#666" dominant-baseline="middle" text-anchor="end" font-size="16.2">1 million</text><text x="74.45" y="337.6" fill="#666" dominant-baseline="middle" text-anchor="end" font-size="16.2">2 million</text><text x="74.45" y="238.7" fill="#666" dominant-baseline="middle" text-anchor="end" font-size="16.2">3 million</text><text x="74.45" y="139.9" fill="#666" dominant-baseline="middle" text-anchor="end" font-size="16.2">4 million</text></g><g class="AxisGridLines"><line x1="79.45" y1="535.3" x2="723.27" y2="535.3" stroke="#ccc"></line><line x1="79.45" y1="436.4" x2="723.27" y2="436.4" stroke="#ddd" stroke-dasharray="3,2"></line><line x1="79.45" y1="337.6" x2="723.27" y2="337.6" stroke="#ddd" stroke-dasharray="3,2"></line><line x1="79.45" y1="238.7" x2="723.27" y2="238.7" stroke="#ddd" stroke-dasharray="3,2"></line><line x1="79.45" y1="139.9" x2="723.27" y2="139.9" stroke="#ddd" stroke-dasharray="3,2"></line></g></g><g clip-path="url(#boundsClip-2445)"><g class="HeightedLegend clickable"><g class="legendMark"><rect x="728.2719999999999" y="517.4" width="74.328" height="14.4" fill="#fff" opacity="0"></rect><rect x="728.2719999999999" y="523.35" width="10" height="2.5" fill="#3360a9"></rect><text font-size="14.40" x="743.3" y="528.9" fill="#333"><tspan x="743.2719999999999" y="528.92">Under-5s</tspan></text></g><g class="legendMark"><rect x="728.2719999999999" y="502.99999999999994" width="90.60000000000001" height="14.4" fill="#fff" opacity="0"></rect><rect x="728.2719999999999" y="508.94999999999993" width="10" height="2.5" fill="#2a939b"></rect><text font-size="14.40" x="743.3" y="514.5" fill="#333"><tspan x="743.2719999999999" y="514.52">5 to 9 years</tspan></text></g><g class="legendMark"><rect x="728.2719999999999" y="488.5999999999999" width="106.72800000000001" height="14.4" fill="#fff" opacity="0"></rect><rect x="728.2719999999999" y="494.5499999999999" width="10" height="2.5" fill="#7ec7ce"></rect><text font-size="14.40" x="743.3" y="500.1" fill="#333"><tspan x="743.2719999999999" y="500.1199999999999">10 to 14 years</tspan></text></g><g class="legendMark"><rect x="728.2719999999999" y="474.19999999999993" width="106.72800000000001" height="14.4" fill="#fff" opacity="0"></rect><rect x="728.2719999999999" y="480.1499999999999" width="10" height="2.5" fill="#58888f"></rect><text font-size="14.40" x="743.3" y="485.7" fill="#333"><tspan x="743.2719999999999" y="485.7199999999999">15 to 19 years</tspan></text></g><g class="legendMark"><rect x="728.2719999999999" y="459.79999999999995" width="106.72800000000001" height="14.4" fill="#fff" opacity="0"></rect><rect x="728.2719999999999" y="465.74999999999994" width="10" height="2.5" fill="#9ecc8a"></rect><text font-size="14.40" x="743.3" y="471.3" fill="#333"><tspan x="743.2719999999999" y="471.31999999999994">20 to 24 years</tspan></text></g><g class="legendMark"><rect x="728.2719999999999" y="445.4" width="106.72800000000001" height="14.4" fill="#fff" opacity="0"></rect><rect x="728.2719999999999" y="451.34999999999997" width="10" height="2.5" fill="#5eb77e"></rect><text font-size="14.40" x="743.3" y="456.9" fill="#333"><tspan x="743.2719999999999" y="456.91999999999996">25 to 29 years</tspan></text></g><g class="legendMark"><rect x="728.2719999999999" y="431" width="106.72800000000001" height="14.4" fill="#fff" opacity="0"></rect><rect x="728.2719999999999" y="436.95" width="10" height="2.5" fill="#6bb537"></rect><text font-size="14.40" x="743.3" y="442.5" fill="#333"><tspan x="743.2719999999999" y="442.52">30 to 34 years</tspan></text></g><g class="legendMark"><rect x="728.2719999999999" y="416.6" width="106.72800000000001" height="14.4" fill="#fff" opacity="0"></rect><rect x="728.2719999999999" y="422.55" width="10" height="2.5" fill="#34983f"></rect><text font-size="14.40" x="743.3" y="428.1" fill="#333"><tspan x="743.2719999999999" y="428.12">35 to 39 years</tspan></text></g><g class="legendMark"><rect x="728.2719999999999" y="402.20000000000005" width="106.72800000000001" height="14.4" fill="#fff" opacity="0"></rect><rect x="728.2719999999999" y="408.15000000000003" width="10" height="2.5" fill="#fceb8c"></rect><text font-size="14.40" x="743.3" y="413.7" fill="#333"><tspan x="743.2719999999999" y="413.72">40 to 44 years</tspan></text></g><g class="legendMark"><rect x="728.2719999999999" y="387.80000000000007" width="106.72800000000001" height="14.4" fill="#fff" opacity="0"></rect><rect x="728.2719999999999" y="393.75000000000006" width="10" height="2.5" fill="#ffd53e"></rect><text font-size="14.40" x="743.3" y="399.3" fill="#333"><tspan x="743.2719999999999" y="399.32000000000005">45 to 49 years</tspan></text></g><g class="legendMark"><rect x="728.2719999999999" y="373.4000000000001" width="106.72800000000001" height="14.4" fill="#fff" opacity="0"></rect><rect x="728.2719999999999" y="379.3500000000001" width="10" height="2.5" fill="#f07f59"></rect><text font-size="14.40" x="743.3" y="384.9" fill="#333"><tspan x="743.2719999999999" y="384.9200000000001">50 to 54 years</tspan></text></g><g class="legendMark"><rect x="728.2719999999999" y="359.0000000000001" width="106.72800000000001" height="14.4" fill="#fff" opacity="0"></rect><rect x="728.2719999999999" y="364.9500000000001" width="10" height="2.5" fill="#ed6c2d"></rect><text font-size="14.40" x="743.3" y="370.5" fill="#333"><tspan x="743.2719999999999" y="370.5200000000001">55 to 59 years</tspan></text></g><g class="legendMark"><rect x="728.2719999999999" y="344.60000000000014" width="106.72800000000001" height="14.4" fill="#fff" opacity="0"></rect><rect x="728.2719999999999" y="350.5500000000001" width="10" height="2.5" fill="#d26e66"></rect><text font-size="14.40" x="743.3" y="356.1" fill="#333"><tspan x="743.2719999999999" y="356.1200000000001">60 to 64 years</tspan></text></g><g class="legendMark"><rect x="728.2719999999999" y="330.20000000000016" width="106.72800000000001" height="14.4" fill="#fff" opacity="0"></rect><rect x="728.2719999999999" y="336.15000000000015" width="10" height="2.5" fill="#e6332e"></rect><text font-size="14.40" x="743.3" y="341.7" fill="#333"><tspan x="743.2719999999999" y="341.72000000000014">65 to 69 years</tspan></text></g><g class="legendMark"><rect x="728.2719999999999" y="293.7" width="106.72800000000001" height="14.4" fill="#fff" opacity="0"></rect><rect x="728.2719999999999" y="299.65" width="10" height="2.5" fill="#ca2628"></rect><text font-size="14.40" x="743.3" y="305.2" fill="#333"><tspan x="743.2719999999999" y="305.21999999999997">70 to 74 years</tspan></text></g><g class="legendMark"><rect x="728.2719999999999" y="239.9" width="106.72800000000001" height="14.4" fill="#fff" opacity="0"></rect><rect x="728.2719999999999" y="245.85" width="10" height="2.5" fill="#c8c8c8"></rect><text font-size="14.40" x="743.3" y="251.4" fill="#333"><tspan x="743.2719999999999" y="251.42000000000002">75 to 79 years</tspan></text></g><g class="legendMark"><rect x="728.2719999999999" y="156.3" width="78.792" height="14.4" fill="#fff" opacity="0"></rect><rect x="728.2719999999999" y="162.25" width="10" height="2.5" fill="#818282"></rect><text font-size="14.40" x="743.3" y="167.8" fill="#333"><tspan x="743.2719999999999" y="167.82000000000002">80+ years</tspan></text></g></g><g class="Areas"><rect x="79.45400000000001" y="107.60000000000001" width="643.818" height="427.69999999999993" opacity="0" fill="rgba(255,255,255,0)"></rect><path stroke-linecap="round" d="M79.5 475.3L203.3 484.3L327.1 492.6L450.9 500.1L475.6 501.6L574.7 507.5L723.3 513.8L723.2719999999999 535.3L79.45400000000001 535.3" fill="#3360a9" fill-opacity="0.7" class="World_0-area"></path><path stroke-linecap="round" d="M79.5 473.7L203.3 482.7L327.1 491.2L450.9 498.9L475.6 500.4L574.7 506.4L723.3 512.7L723.3 513.8L574.7 507.5L475.6 501.6L450.9 500.1L327.1 492.6L203.3 484.3L79.5 475.3" fill="#2a939b" fill-opacity="0.7" class="World_3-area"></path><path stroke-linecap="round" d="M79.5 473L203.3 482.1L327.1 490.5L450.9 498.3L475.6 499.8L574.7 505.9L723.3 512.1L723.3 512.7L574.7 506.4L475.6 500.4L450.9 498.9L327.1 491.2L203.3 482.7L79.5 473.7" fill="#7ec7ce" fill-opacity="0.7" class="World_9-area"></path><path stroke-linecap="round" d="M79.5 472.5L203.3 481.5L327.1 490L450.9 497.8L475.6 499.2L574.7 505.4L723.3 511.6L723.3 512.1L574.7 505.9L475.6 499.8L450.9 498.3L327.1 490.5L203.3 482.1L79.5 473" fill="#58888f" fill-opacity="0.7" class="World_11-area"></path><path stroke-linecap="round" d="M79.5 472L203.3 481L327.1 489.4L450.9 497.2L475.6 498.7L574.7 504.8L723.3 511.1L723.3 511.6L574.7 505.4L475.6 499.2L450.9 497.8L327.1 490L203.3 481.5L79.5 472.5" fill="#9ecc8a" fill-opacity="0.7" class="World_16-area"></path><path stroke-linecap="round" d="M79.5 469.4L203.3 478L327.1 486.4L450.9 494.5L475.6 495.9L574.7 502.1L723.3 508.1L723.3 511.1L574.7 504.8L475.6 498.7L450.9 497.2L327.1 489.4L203.3 481L79.5 472" fill="#5eb77e" fill-opacity="0.7" class="World_4-area"></path><path stroke-linecap="round" d="M79.5 465.7L203.3 473.8L327.1 482.1L450.9 490.2L475.6 491.7L574.7 498L723.3 503.6L723.3 508.1L574.7 502.1L475.6 495.9L450.9 494.5L327.1 486.4L203.3 478L79.5 469.4" fill="#6bb537" fill-opacity="0.7" class="World_2-area"></path><path stroke-linecap="round" d="M79.5 460.5L203.3 468L327.1 475.9L450.9 483.7L475.6 485.3L574.7 491.8L723.3 497.4L723.3 503.6L574.7 498L475.6 491.7L450.9 490.2L327.1 482.1L203.3 473.8L79.5 465.7" fill="#34983f" fill-opacity="0.7" class="World_15-area"></path><path stroke-linecap="round" d="M79.5 453.5L203.3 459.1L327.1 466.8L450.9 474.1L475.6 475.5L574.7 482.1L723.3 487.6L723.3 497.4L574.7 491.8L475.6 485.3L450.9 483.7L327.1 475.9L203.3 468L79.5 460.5" fill="#fceb8c" fill-opacity="0.7" class="World_14-area"></path><path stroke-linecap="round" d="M79.5 443.6L203.3 447.3L327.1 453L450.9 460.1L475.6 461.6L574.7 467.7L723.3 472L723.3 487.6L574.7 482.1L475.6 475.5L450.9 474.1L327.1 466.8L203.3 459.1L79.5 453.5" fill="#ffd53e" fill-opacity="0.7" class="World_7-area"></path><path stroke-linecap="round" d="M79.5 427.8L203.3 431.5L327.1 435.3L450.9 439.1L475.6 440.7L574.7 447L723.3 449.1L723.3 472L574.7 467.7L475.6 461.6L450.9 460.1L327.1 453L203.3 447.3L79.5 443.6" fill="#f07f59" fill-opacity="0.7" class="World_10-area"></path><path stroke-linecap="round" d="M79.5 405.8L203.3 408L327.1 412.9L450.9 413.8L475.6 414.9L574.7 418.7L723.3 418.9L723.3 449.1L574.7 447L475.6 440.7L450.9 439.1L327.1 435.3L203.3 431.5L79.5 427.8" fill="#ed6c2d" fill-opacity="0.7" class="World_6-area"></path><path stroke-linecap="round" d="M79.5 374.1L203.3 374.7L327.1 378.6L450.9 382L475.6 383.4L574.7 383.7L723.3 376L723.3 418.9L574.7 418.7L475.6 414.9L450.9 413.8L327.1 412.9L203.3 408L79.5 405.8" fill="#d26e66" fill-opacity="0.7" class="World_12-area"></path><path stroke-linecap="round" d="M79.5 336.4L203.3 332.5L327.1 334.8L450.9 337.4L475.6 340.1L574.7 342.8L723.3 327L723.3 376L574.7 383.7L475.6 383.4L450.9 382L327.1 378.6L203.3 374.7L79.5 374.1" fill="#e6332e" fill-opacity="0.7" class="World_8-area"></path><path stroke-linecap="round" d="M79.5 293.8L203.3 285L327.1 282.9L450.9 284.9L475.6 288.4L574.7 290.6L723.3 274.9L723.3 327L574.7 342.8L475.6 340.1L450.9 337.4L327.1 334.8L203.3 332.5L79.5 336.4" fill="#ca2628" fill-opacity="0.7" class="World_13-area"></path><path stroke-linecap="round" d="M79.5 251.7L203.3 241.6L327.1 235.2L450.9 233.4L475.6 237.1L574.7 238.8L723.3 219.4L723.3 274.9L574.7 290.6L475.6 288.4L450.9 284.9L327.1 282.9L203.3 285L79.5 293.8" fill="#c8c8c8" fill-opacity="0.7" class="World_5-area"></path><path stroke-linecap="round" d="M79.5 192.1L203.3 170.8L327.1 158.8L450.9 149.3L475.6 152.2L574.7 144.5L723.3 107.6L723.3 219.4L574.7 238.8L475.6 237.1L450.9 233.4L327.1 235.2L203.3 241.6L79.5 251.7" fill="#818282" fill-opacity="0.7" class="World_1-area"></path><path stroke-linecap="round" d="M79.5 475.3L203.3 484.3L327.1 492.6L450.9 500.1L475.6 501.6L574.7 507.5L723.3 513.8" stroke="rgb(43, 80, 141)" stroke-opacity="0.7" stroke-width="0.5" fill="none" class="World_0-border"></path><path stroke-linecap="round" d="M79.5 473.7L203.3 482.7L327.1 491.2L450.9 498.9L475.6 500.4L574.7 506.4L723.3 512.7" stroke="rgb(35, 123, 130)" stroke-opacity="0.7" stroke-width="0.5" fill="none" class="World_3-border"></path><path stroke-linecap="round" d="M79.5 473L203.3 482.1L327.1 490.5L450.9 498.3L475.6 499.8L574.7 505.9L723.3 512.1" stroke="rgb(105, 166, 172)" stroke-opacity="0.7" stroke-width="0.5" fill="none" class="World_9-border"></path><path stroke-linecap="round" d="M79.5 472.5L203.3 481.5L327.1 490L450.9 497.8L475.6 499.2L574.7 505.4L723.3 511.6" stroke="rgb(74, 114, 120)" stroke-opacity="0.7" stroke-width="0.5" fill="none" class="World_11-border"></path><path stroke-linecap="round" d="M79.5 472L203.3 481L327.1 489.4L450.9 497.2L475.6 498.7L574.7 504.8L723.3 511.1" stroke="rgb(132, 171, 115)" stroke-opacity="0.7" stroke-width="0.5" fill="none" class="World_16-border"></path><path stroke-linecap="round" d="M79.5 469.4L203.3 478L327.1 486.4L450.9 494.5L475.6 495.9L574.7 502.1L723.3 508.1" stroke="rgb(79, 153, 105)" stroke-opacity="0.7" stroke-width="0.5" fill="none" class="World_4-border"></path><path stroke-linecap="round" d="M79.5 465.7L203.3 473.8L327.1 482.1L450.9 490.2L475.6 491.7L574.7 498L723.3 503.6" stroke="rgb(90, 151, 46)" stroke-opacity="0.7" stroke-width="0.5" fill="none" class="World_2-border"></path><path stroke-linecap="round" d="M79.5 460.5L203.3 468L327.1 475.9L450.9 483.7L475.6 485.3L574.7 491.8L723.3 497.4" stroke="rgb(44, 127, 53)" stroke-opacity="0.7" stroke-width="0.5" fill="none" class="World_15-border"></path><path stroke-linecap="round" d="M79.5 453.5L203.3 459.1L327.1 466.8L450.9 474.1L475.6 475.5L574.7 482.1L723.3 487.6" stroke="rgb(211, 197, 117)" stroke-opacity="0.7" stroke-width="0.5" fill="none" class="World_14-border"></path><path stroke-linecap="round" d="M79.5 443.6L203.3 447.3L327.1 453L450.9 460.1L475.6 461.6L574.7 467.7L723.3 472" stroke="rgb(213, 178, 52)" stroke-opacity="0.7" stroke-width="0.5" fill="none" class="World_7-border"></path><path stroke-linecap="round" d="M79.5 427.8L203.3 431.5L327.1 435.3L450.9 439.1L475.6 440.7L574.7 447L723.3 449.1" stroke="rgb(201, 106, 74)" stroke-opacity="0.7" stroke-width="0.5" fill="none" class="World_10-border"></path><path stroke-linecap="round" d="M79.5 405.8L203.3 408L327.1 412.9L450.9 413.8L475.6 414.9L574.7 418.7L723.3 418.9" stroke="rgb(198, 90, 38)" stroke-opacity="0.7" stroke-width="0.5" fill="none" class="World_6-border"></path><path stroke-linecap="round" d="M79.5 374.1L203.3 374.7L327.1 378.6L450.9 382L475.6 383.4L574.7 383.7L723.3 376" stroke="rgb(176, 92, 85)" stroke-opacity="0.7" stroke-width="0.5" fill="none" class="World_12-border"></path><path stroke-linecap="round" d="M79.5 336.4L203.3 332.5L327.1 334.8L450.9 337.4L475.6 340.1L574.7 342.8L723.3 327" stroke="rgb(192, 43, 38)" stroke-opacity="0.7" stroke-width="0.5" fill="none" class="World_8-border"></path><path stroke-linecap="round" d="M79.5 293.8L203.3 285L327.1 282.9L450.9 284.9L475.6 288.4L574.7 290.6L723.3 274.9" stroke="rgb(169, 32, 33)" stroke-opacity="0.7" stroke-width="0.5" fill="none" class="World_13-border"></path><path stroke-linecap="round" d="M79.5 251.7L203.3 241.6L327.1 235.2L450.9 233.4L475.6 237.1L574.7 238.8L723.3 219.4" stroke="rgb(167, 167, 167)" stroke-opacity="0.7" stroke-width="0.5" fill="none" class="World_5-border"></path><path stroke-linecap="round" d="M79.5 192.1L203.3 170.8L327.1 158.8L450.9 149.3L475.6 152.2L574.7 144.5L723.3 107.6" stroke="rgb(108, 109, 109)" stroke-opacity="0.7" stroke-width="0.5" fill="none" class="World_1-border"></path></g></g></g><g style="fill: #777;" class="SourcesFooter"><g style="fill: #777;" class="clickable"><text font-size="12.60" x="15.0" y="581.6"><tspan x="15" y="581.58">Source: IHME, Global Burden of Disease</tspan></text></g><text font-size="12.60" x="649.0" y="581.6"><tspan x="649.024" y="581.58"><a target='_blank' style='fill: #777;' href='https://ourworldindata.org'>OurWorldInData.org</a> • <a style="fill: #777;" href="http://creativecommons.org/licenses/by-sa/4.0/deed.en_US" target="_blank">CC BY-SA</a></tspan></text></g></g></svg>