<svg xmlns="http://www.w3.org/2000/svg" version="1.1" style="font-family: 'Helvetica Neue', Helvetica, Arial, sans-serif; font-size: 18px; background-color: white; text-rendering: optimizeLegibility; -webkit-font-smoothing: antialiased;" width="850" height="600"><g class="ChartTab"><g class="HeaderView"><g opacity="0.8" transform="translate(778, 15) scale(0.27)"><a xmlns:xlink="http://www.w3.org/1999/xlink" xlink:href="https://ourworldindata.org" target="_blank"><g><rect x="0" y="0" fill="#1B2543" width="211.2" height="130.1"/><rect x="0" y="112.2" fill="#E63912" width="211.2" height="17.9"/><g><rect x="1.2" y="12.3" fill="none" width="210.2" height="99.2"/><path fill="#FFFFFF" d="M37.8,32.2c0,12.7-7.7,19.4-17.1,19.4c-9.7,0-16.6-7.5-16.6-18.7c0-11.7,7.3-19.3,17.1-19.3 C31.3,13.7,37.8,21.3,37.8,32.2z M9.2,32.8c0,7.9,4.3,14.9,11.8,14.9c7.5,0,11.8-6.9,11.8-15.3c0-7.3-3.8-14.9-11.8-14.9 C13.1,17.5,9.2,24.8,9.2,32.8z"/><path fill="#FFFFFF" d="M62.7,43.8c0,2.7,0.1,5.1,0.2,7.2h-4.3l-0.3-4.3h-0.1c-1.3,2.1-4,4.9-8.8,4.9c-4.2,0-9.1-2.3-9.1-11.6 V24.6h4.8v14.6c0,5,1.5,8.4,5.9,8.4c3.2,0,5.5-2.2,6.3-4.4c0.3-0.7,0.4-1.6,0.4-2.5V24.6h4.8V43.8z"/><path fill="#FFFFFF" d="M67.3,32.8c0-3.1-0.1-5.8-0.2-8.2h4.2l0.2,5.2h0.2c1.2-3.5,4.1-5.8,7.3-5.8c0.5,0,0.9,0.1,1.4,0.2v4.5 c-0.5-0.1-1-0.2-1.6-0.2c-3.4,0-5.8,2.6-6.5,6.2c-0.1,0.7-0.2,1.4-0.2,2.2V51h-4.8V32.8z"/><path fill="#FFFFFF" d="M95.4,51l-9.4-36.8h5l4.4,18.6c1.1,4.6,2.1,9.2,2.7,12.7h0.1c0.6-3.7,1.8-8,3-12.8l4.9-18.5h5l4.5,18.7 c1,4.4,2,8.7,2.6,12.6h0.1c0.8-4,1.8-8.1,3-12.7l4.9-18.5h4.9L120.6,51h-5L111,31.9c-1.1-4.7-1.9-8.3-2.4-12h-0.1 c-0.7,3.7-1.5,7.3-2.8,12L100.4,51H95.4z"/><path fill="#FFFFFF" d="M154.9,37.6c0,9.8-6.8,14-13.2,14c-7.2,0-12.7-5.2-12.7-13.6c0-8.8,5.8-14,13.1-14 C149.8,24,154.9,29.5,154.9,37.6z M133.9,37.9c0,5.8,3.3,10.1,8,10.1c4.6,0,8-4.3,8-10.3c0-4.5-2.2-10.1-7.9-10.1 C136.3,27.6,133.9,32.8,133.9,37.9z"/><path fill="#FFFFFF" d="M158.2,32.8c0-3.1-0.1-5.8-0.2-8.2h4.2l0.2,5.2h0.2c1.2-3.5,4.1-5.8,7.3-5.8c0.5,0,0.9,0.1,1.4,0.2v4.5 c-0.5-0.1-1-0.2-1.6-0.2c-3.4,0-5.8,2.6-6.5,6.2c-0.1,0.7-0.2,1.4-0.2,2.2V51h-4.8V32.8z"/><path fill="#FFFFFF" d="M173.5,12.3h4.8V51h-4.8V12.3z"/><path fill="#FFFFFF" d="M206.5,12.3v31.9c0,2.3,0.1,5,0.2,6.8h-4.3l-0.2-4.6H202c-1.5,2.9-4.7,5.2-9,5.2 c-6.4,0-11.3-5.4-11.3-13.4c-0.1-8.8,5.4-14.2,11.9-14.2c4,0,6.8,1.9,8,4h0.1V12.3H206.5z M201.7,35.4c0-0.6-0.1-1.4-0.2-2 c-0.7-3.1-3.3-5.6-6.9-5.6c-5,0-7.9,4.4-7.9,10.2c0,5.3,2.6,9.8,7.8,9.8c3.2,0,6.2-2.1,7.1-5.7c0.2-0.7,0.2-1.3,0.2-2.1V35.4z"/><path fill="#FFFFFF" d="M42.8,64c0.1,1.6-1.1,2.9-3.1,2.9c-1.7,0-2.9-1.3-2.9-2.9c0-1.7,1.3-3,3-3C41.7,61,42.8,62.3,42.8,64z M37.4,97.8V71.4h4.8v26.4H37.4z"/><path fill="#FFFFFF" d="M47.5,78.6c0-2.7-0.1-5-0.2-7.1h4.3l0.3,4.4h0.1c1.3-2.5,4.4-5,8.8-5c3.7,0,9.4,2.2,9.4,11.2v15.8h-4.8 V82.6c0-4.3-1.6-7.8-6.1-7.8c-3.2,0-5.6,2.2-6.5,4.9c-0.2,0.6-0.3,1.4-0.3,2.2v15.9h-4.8V78.6z"/><path fill="#FFFFFF" d="M84,61.6c2.9-0.4,6.3-0.8,10.1-0.8c6.8,0,11.7,1.6,14.9,4.6c3.3,3,5.2,7.3,5.2,13.2c0,6-1.9,10.9-5.3,14.3 c-3.4,3.4-9.1,5.3-16.3,5.3c-3.4,0-6.2-0.2-8.6-0.4V61.6z M88.8,94.1c1.2,0.2,3,0.3,4.8,0.3c10.2,0,15.7-5.7,15.7-15.6 c0.1-8.7-4.9-14.2-14.9-14.2c-2.5,0-4.3,0.2-5.6,0.5V94.1z"/><path fill="#FFFFFF" d="M132.1,97.8l-0.4-3.3h-0.2c-1.5,2.1-4.3,3.9-8.1,3.9c-5.4,0-8.1-3.8-8.1-7.6c0-6.4,5.7-9.9,15.9-9.8v-0.5 c0-2.2-0.6-6.1-6-6.1c-2.5,0-5,0.8-6.9,2l-1.1-3.2c2.2-1.4,5.4-2.3,8.7-2.3c8.1,0,10.1,5.5,10.1,10.8v9.9c0,2.3,0.1,4.5,0.4,6.3 H132.1z M131.4,84.4c-5.3-0.1-11.2,0.8-11.2,5.9c0,3.1,2.1,4.6,4.5,4.6c3.4,0,5.6-2.2,6.4-4.4c0.2-0.5,0.3-1,0.3-1.5V84.4z"/><path fill="#FFFFFF" d="M146.6,63.9v7.6h6.9v3.7h-6.9v14.2c0,3.3,0.9,5.1,3.6,5.1c1.3,0,2.2-0.2,2.8-0.3l0.2,3.6 c-0.9,0.4-2.4,0.7-4.3,0.7c-2.2,0-4-0.7-5.2-2c-1.4-1.4-1.9-3.8-1.9-6.9V75.1h-4.1v-3.7h4.1v-6.3L146.6,63.9z"/><path fill="#FFFFFF" d="M171.4,97.8l-0.4-3.3h-0.2c-1.5,2.1-4.3,3.9-8.1,3.9c-5.4,0-8.1-3.8-8.1-7.6c0-6.4,5.7-9.9,15.9-9.8v-0.5 c0-2.2-0.6-6.1-6-6.1c-2.5,0-5,0.8-6.9,2l-1.1-3.2c2.2-1.4,5.4-2.3,8.7-2.3c8.1,0,10.1,5.5,10.1,10.8v9.9c0,2.3,0.1,4.5,0.4,6.3 H171.4z M170.7,84.4c-5.3-0.1-11.2,0.8-11.2,5.9c0,3.1,2.1,4.6,4.5,4.6c3.4,0,5.6-2.2,6.4-4.4c0.2-0.5,0.3-1,0.3-1.5V84.4z"/></g></g></a></g><a href="https://ourworldindata.org/grapher/output-of-key-industries-in-england-and-the-uk" target="_blank"><text font-size="25.20" x="15.0" y="35.2" fill="#555"><tspan x="15" y="35.160000000000004">Output of key industries in England and Great Britain</tspan></text></a></g><g class="LineChart"><defs><clipPath id="boundsClip-2461"><rect x="59.896" y="0" width="830" height="916.4"></rect></clipPath></defs><g class="AxisBoxView"><g class="HorizontalAxis"><text x="69.9" y="528.2" fill="#666" text-anchor="middle" font-size="16.2">1270</text><text x="204.9" y="528.2" fill="#666" text-anchor="middle" font-size="16.2">1400</text><text x="308.7" y="528.2" fill="#666" text-anchor="middle" font-size="16.2">1500</text><text x="412.5" y="528.2" fill="#666" text-anchor="middle" font-size="16.2">1600</text><text x="516.3" y="528.2" fill="#666" text-anchor="middle" font-size="16.2">1700</text><text x="620.1" y="528.2" fill="#666" text-anchor="middle" font-size="16.2">1800</text><text x="692.8" y="528.2" fill="#666" text-anchor="middle" font-size="16.2">1870</text></g><g class="VerticalAxis"><text x="64.90" y="421.9" fill="#666" dominant-baseline="middle" text-anchor="end" font-size="16.2">1</text><text x="64.90" y="336.8" fill="#666" dominant-baseline="middle" text-anchor="end" font-size="16.2">10</text><text x="64.90" y="251.7" fill="#666" dominant-baseline="middle" text-anchor="end" font-size="16.2">100</text><text x="64.90" y="166.7" fill="#666" dominant-baseline="middle" text-anchor="end" font-size="16.2">1,000</text><text x="64.90" y="81.6" fill="#666" dominant-baseline="middle" text-anchor="end" font-size="16.2">10,000</text></g><g class="AxisGridLines"><line x1="69.90" y1="421.9" x2="692.78" y2="421.9" stroke="#ddd" stroke-dasharray="3,2"></line><line x1="69.90" y1="336.8" x2="692.78" y2="336.8" stroke="#ddd" stroke-dasharray="3,2"></line><line x1="69.90" y1="251.7" x2="692.78" y2="251.7" stroke="#ddd" stroke-dasharray="3,2"></line><line x1="69.90" y1="166.7" x2="692.78" y2="166.7" stroke="#ddd" stroke-dasharray="3,2"></line><line x1="69.90" y1="81.6" x2="692.78" y2="81.6" stroke="#ddd" stroke-dasharray="3,2"></line></g></g><g clip-path="url(#boundsClip-2461)"><g class="HeightedLegend clickable"><g class="legendMark"><rect x="702.784" y="62.8" width="39.912000000000006" height="14.4" fill="#fff" opacity="0"></rect><rect x="702.784" y="68.75" width="10" height="2.5" fill="#ffd53e"></rect><text font-size="14.40" x="717.8" y="74.3" fill="#333"><tspan x="717.784" y="74.32000000000001">Iron</tspan></text></g><g class="legendMark"><rect x="702.784" y="92.2" width="132.216" height="14.4" fill="#fff" opacity="0"></rect><rect x="702.784" y="98.15" width="10" height="2.5" fill="#9ecc8a"></rect><text font-size="14.40" x="717.8" y="103.7" fill="#333"><tspan x="717.784" y="103.72000000000001">Metals and Mining</tspan></text></g><g class="legendMark"><rect x="702.784" y="110.39999999999999" width="44.664" height="14.4" fill="#fff" opacity="0"></rect><rect x="702.784" y="116.35" width="10" height="2.5" fill="#e6332e"></rect><text font-size="14.40" x="717.8" y="121.9" fill="#333"><tspan x="717.784" y="121.92">Coal</tspan></text></g><g class="legendMark"><rect x="702.784" y="124.8" width="96.072" height="14.4" fill="#fff" opacity="0"></rect><rect x="702.784" y="130.75" width="10" height="2.5" fill="#2a939b"></rect><text font-size="14.40" x="717.8" y="136.3" fill="#333"><tspan x="717.784" y="136.32">Construction</tspan></text></g><g class="legendMark"><rect x="702.784" y="171.8" width="35.016000000000005" height="14.4" fill="#fff" opacity="0"></rect><rect x="702.784" y="177.75" width="10" height="2.5" fill="#a652ba"></rect><text font-size="14.40" x="717.8" y="183.3" fill="#333"><tspan x="717.784" y="183.32000000000002">Tin</tspan></text></g><g class="legendMark"><rect x="702.784" y="186.20000000000002" width="103.41600000000001" height="14.4" fill="#fff" opacity="0"></rect><rect x="702.784" y="192.15" width="10" height="2.5" fill="#f6a324"></rect><text font-size="14.40" x="717.8" y="197.7" fill="#333"><tspan x="717.784" y="197.72000000000003">Printed books</tspan></text></g><g class="legendMark"><rect x="702.784" y="200.60000000000002" width="64.10400000000001" height="14.4" fill="#fff" opacity="0"></rect><rect x="702.784" y="206.55" width="10" height="2.5" fill="#34983f"></rect><text font-size="14.40" x="717.8" y="212.1" fill="#333"><tspan x="717.784" y="212.12000000000003">Leather</tspan></text></g><g class="legendMark"><rect x="702.784" y="215.00000000000003" width="82.536" height="14.4" fill="#fff" opacity="0"></rect><rect x="702.784" y="220.95000000000002" width="10" height="2.5" fill="#ca2628"></rect><text font-size="14.40" x="717.8" y="226.5" fill="#333"><tspan x="717.784" y="226.52000000000004">Foodstuffs</tspan></text></g><g class="legendMark"><rect x="702.784" y="229.40000000000003" width="101.54400000000001" height="14.4" fill="#fff" opacity="0"></rect><rect x="702.784" y="235.35000000000002" width="10" height="2.5" fill="#3360a9"></rect><text font-size="14.40" x="717.8" y="240.9" fill="#333"><tspan x="717.784" y="240.92000000000004">Wool/Textiles</tspan></text></g></g><g class="Lines"><rect x="70" y="70" width="623" height="437" fill="rgba(255,255,255,0)" opacity="0"></rect><g class="key-England_0"><path stroke="#2a939b" stroke-linecap="round" d="M70 320L71 320L72 320L73 320L74 320L75 320L76 320L77 319L78 319L79 319L80 318L81 318L82 317L83 317L84 317L86 317L87 317L88 316L89 316L90 316L91 316L92 316L93 316L94 316L95 316L96 316L97 316L98 316L99 316L100 316L101 317L102 317L103 317L104 317L105 317L106 317L107 317L108 317L109 317L110 317L111 316L113 316L114 316L115 316L116 316L117 316L118 316L119 317L120 317L121 318L122 317L123 318L124 318L125 318L126 319L127 319L128 319L129 319L130 318L131 318L132 319L133 319L134 318L135 318L136 318L137 318L138 317L140 317L141 317L142 317L143 317L144 317L145 317L146 316L147 316L148 316L149 316L150 315L151 315L152 322L153 330L154 337L155 337L156 337L157 337L158 337L159 337L160 337L161 337L162 337L163 337L164 337L165 337L166 337L168 337L169 337L170 337L171 337L172 337L173 337L174 337L175 337L176 337L177 337L178 337L179 337L180 337L181 337L182 338L183 338L184 339L185 339L186 339L187 339L188 339L189 340L190 340L191 340L192 340L193 340L195 340L196 341L197 341L198 341L199 341L200 341L201 341L202 342L203 342L204 342L205 344L206 344L207 344L208 344L209 344L210 344L211 344L212 344L213 344L214 343L215 344L216 344L217 344L218 344L219 344L220 344L222 344L223 344L224 344L225 344L226 343L227 343L228 343L229 343L230 343L231 343L232 343L233 343L234 343L235 343L236 342L237 342L238 342L239 342L240 342L241 342L242 342L243 342L244 342L245 342L246 343L247 343L249 343L250 343L251 343L252 343L253 343L254 343L255 343L256 343L257 343L258 343L259 343L260 342L261 342L262 342L263 342L264 342L265 341L266 341L267 341L268 340L269 340L270 340L271 340L272 340L273 339L274 339L275 339L277 339L278 337L279 337L280 337L281 337L282 337L283 337L284 336L285 336L286 336L287 336L288 334L289 334L290 334L291 334L292 334L293 334L294 333L295 333L296 333L297 333L298 333L299 333L300 332L301 332L302 332L304 332L305 332L306 331L307 331L308 331L309 332L310 332L311 332L312 332L313 332L314 332L315 332L316 332L317 331L318 331L319 332L320 332L321 332L322 332L323 331L324 331L325 331L326 331L327 331L328 331L329 330L331 330L332 330L333 330L334 329L335 329L336 329L337 328L338 328L339 327L340 327L341 327L342 326L343 326L344 325L345 325L346 325L347 324L348 324L349 324L350 323L351 323L352 322L353 322L354 322L355 322L356 322L358 322L359 321L360 321L361 320L362 320L363 319L364 318L365 318L366 317L367 316L368 316L369 316L370 317L371 317L372 316L373 315L374 315L375 314L376 313L377 313L378 312L379 311L380 310L381 310L382 309L383 308L385 308L386 307L387 306L388 306L389 305L390 304L391 303L392 303L393 302L394 301L395 300L396 299L397 299L398 298L399 297L400 297L401 296L402 296L403 295L404 295L405 294L406 294L407 293L408 292L409 292L410 292L411 291L413 290L414 289L415 289L416 288L417 288L418 287L419 287L420 286L421 285L422 285L423 284L424 284L425 283L426 283L427 282L428 282L429 281L430 281L431 280L432 280L433 279L434 278L435 278L436 277L437 277L438 277L440 277L441 276L442 275L443 274L444 274L445 274L446 273L447 272L448 271L449 271L450 271L451 270L452 270L453 270L454 269L455 270L456 269L457 268L458 268L459 268L460 267L461 266L462 266L463 266L464 266L465 265L467 264L468 264L469 264L470 263L471 263L472 263L473 263L474 263L475 263L476 263L477 263L478 263L479 262L480 262L481 261L482 262L483 261L484 261L485 261L486 261L487 260L488 260L489 259L490 259L491 259L492 259L494 258L495 258L496 258L497 258L498 259L499 259L500 258L501 257L502 257L503 257L504 257L505 256L506 256L507 255L508 255L509 254L510 254L511 254L512 254L513 253L514 253L515 252L516 252L517 259L518 260L519 254L521 249L522 251L523 254L524 246L525 250L526 258L527 260L528 274L529 274L530 257L531 251L532 246L533 259L534 253L535 248L536 248L537 239L538 248L539 245L540 249L541 239L542 239L543 246L544 246L545 242L546 252L547 248L549 251L550 241L551 244L552 243L553 246L554 244L555 245L556 247L557 258L558 252L559 244L560 242L561 243L562 251L563 246L564 242L565 250L566 242L567 247L568 238L569 243L570 239L571 239L572 240L573 234L574 236L576 242L577 242L578 237L579 244L580 236L581 241L582 230L583 234L584 225L585 224L586 232L587 229L588 226L589 226L590 217L591 216L592 219L593 224L594 217L595 218L596 216L597 214L598 215L599 216L600 216L601 213L603 196L604 209L605 210L606 202L607 200L608 203L609 208L610 203L611 206L612 193L613 202L614 206L615 203L616 190L617 199L618 208L619 209L620 199L621 194L622 204L623 198L624 199L625 196L626 205L627 192L628 211L630 204L631 183L632 182L633 195L634 206L635 218L636 190L637 199L638 201L639 196L640 189L641 191L642 190L643 191L644 188L645 184L646 179L647 179L648 185L649 182L650 178L651 181L652 175L653 172L654 173L655 175L656 167L658 170L659 166L660 168L661 167L662 168L663 170L664 181L665 172L666 170L667 156L668 151L669 159L670 156L671 162L672 165L673 164L674 163L675 156L676 152L677 153L678 154L679 152L680 150L681 148L682 145L683 149L685 141L686 139L687 137L688 135L689 134L690 133L691 131L692 131L693 129" fill="none" stroke-width="1.5"></path></g><g class="key-England_1"><path stroke="#ca2628" stroke-linecap="round" d="M70 337L71 337L72 334L73 339L74 339L75 330L76 338L77 333L78 330L79 341L80 339L81 334L82 336L83 339L84 336L86 335L87 336L88 330L89 331L90 336L91 335L92 336L93 334L94 333L95 334L96 331L97 329L98 331L99 327L100 330L101 331L102 329L103 330L104 328L105 334L106 331L107 332L108 330L109 330L110 328L111 330L113 328L114 329L115 328L116 329L117 337L118 341L119 338L120 331L121 331L122 333L123 343L124 340L125 338L126 343L127 338L128 336L129 338L130 343L131 339L132 339L133 342L134 337L135 335L136 336L137 339L138 337L140 332L141 330L142 341L143 333L144 335L145 331L146 333L147 328L148 332L149 335L150 331L151 329L152 350L153 356L154 362L155 360L156 362L157 363L158 359L159 363L160 362L161 361L162 361L163 361L164 364L165 364L166 365L168 360L169 363L170 360L171 365L172 366L173 370L174 362L175 363L176 368L177 362L178 368L179 370L180 362L181 361L182 363L183 369L184 368L185 367L186 365L187 370L188 363L189 370L190 364L191 363L192 369L193 368L195 373L196 366L197 360L198 372L199 366L200 370L201 370L202 373L203 368L204 372L205 375L206 375L207 373L208 372L209 371L210 370L211 374L212 374L213 380L214 376L215 371L216 374L217 375L218 382L219 375L220 375L222 378L223 370L224 373L225 370L226 372L227 378L228 375L229 371L230 370L231 373L232 374L233 374L234 376L235 375L236 373L237 374L238 374L239 372L240 370L241 376L242 379L243 383L244 381L245 378L246 374L247 383L249 382L250 368L251 367L252 379L253 374L254 373L255 371L256 378L257 375L258 374L259 375L260 374L261 374L262 373L263 372L264 379L265 374L266 374L267 374L268 373L269 366L270 366L271 371L272 373L273 375L274 372L275 368L277 369L278 371L279 375L280 373L281 372L282 369L283 370L284 375L285 373L286 371L287 366L288 364L289 367L290 370L291 368L292 368L293 372L294 362L295 367L296 366L297 365L298 366L299 365L300 365L301 366L302 362L304 362L305 364L306 361L307 360L308 360L309 361L310 364L311 361L312 357L313 357L314 357L315 357L316 358L317 357L318 353L319 356L320 354L321 359L322 357L323 357L324 355L325 356L326 356L327 356L328 356L329 357L331 357L332 353L333 353L334 352L335 352L336 351L337 357L338 355L339 353L340 351L341 354L342 350L343 350L344 345L345 351L346 350L347 343L348 348L349 341L350 344L351 347L352 343L353 345L354 342L355 346L356 345L358 338L359 340L360 342L361 343L362 342L363 345L364 332L365 338L366 336L367 348L368 340L369 324L370 332L371 335L372 332L373 332L374 324L375 326L376 325L377 317L378 321L379 318L380 320L381 325L382 323L383 326L385 316L386 326L387 317L388 313L389 326L390 313L391 312L392 315L393 315L394 319L395 308L396 309L397 318L398 324L399 312L400 305L401 313L402 308L403 312L404 305L405 300L406 316L407 313L408 317L409 321L410 307L411 297L413 300L414 301L415 297L416 292L417 288L418 295L419 293L420 296L421 300L422 286L423 281L424 287L425 286L426 291L427 294L428 287L429 291L430 284L431 283L432 287L433 275L434 277L435 285L436 287L437 276L438 276L440 279L441 277L442 268L443 289L444 290L445 288L446 278L447 282L448 277L449 275L450 278L451 279L452 275L453 271L454 269L455 280L456 272L457 266L458 265L459 275L460 274L461 274L462 273L463 277L464 282L465 278L467 267L468 259L469 262L470 257L471 261L472 266L473 270L474 280L475 272L476 272L477 270L478 264L479 267L480 263L481 254L482 256L483 264L484 261L485 264L486 265L487 268L488 266L489 270L490 269L491 255L492 263L494 258L495 263L496 254L497 264L498 262L499 255L500 266L501 258L502 265L503 255L504 255L505 257L506 253L507 250L508 245L509 259L510 244L511 250L512 253L513 253L514 252L515 257L516 252L517 251L518 250L519 247L521 248L522 246L523 249L524 248L525 249L526 250L527 252L528 251L529 251L530 254L531 252L532 252L533 250L534 248L535 248L536 246L537 246L538 246L539 246L540 246L541 248L542 248L543 248L544 247L545 250L546 250L547 248L549 249L550 248L551 246L552 248L553 248L554 249L555 248L556 248L557 247L558 250L559 250L560 248L561 247L562 247L563 250L564 250L565 248L566 247L567 248L568 246L569 247L570 247L571 246L572 246L573 247L574 250L576 251L577 247L578 247L579 244L580 245L581 247L582 248L583 247L584 248L585 250L586 250L587 248L588 248L589 248L590 248L591 247L592 248L593 249L594 248L595 251L596 250L597 249L598 249L599 246L600 248L601 247L603 252L604 244L605 244L606 246L607 244L608 244L609 245L610 244L611 241L612 240L613 240L614 240L615 240L616 237L617 235L618 236L619 234L620 244L621 244L622 240L623 239L624 241L625 241L626 239L627 238L628 238L630 240L631 239L632 235L633 238L634 238L635 236L636 236L637 237L638 235L639 233L640 233L641 228L642 233L643 231L644 234L645 232L646 227L647 226L648 229L649 226L650 226L651 224L652 221L653 224L654 222L655 222L656 221L658 220L659 221L660 220L661 220L662 219L663 220L664 221L665 221L666 221L667 220L668 219L669 218L670 219L671 217L672 215L673 213L674 218L675 216L676 212L677 217L678 214L679 211L680 211L681 213L682 213L683 211L685 206L686 206L687 207L688 208L689 208L690 208L691 203L692 203L693 204" fill="none" stroke-width="1.5"></path></g><g class="key-England_2"><path stroke="#34983f" stroke-linecap="round" d="M70 279L71 279L72 280L73 280L74 280L75 280L76 281L77 280L78 280L79 280L80 279L81 279L82 279L83 278L84 279L86 279L87 280L88 281L89 282L90 282L91 281L92 280L93 279L94 278L95 277L96 277L97 276L98 276L99 276L100 275L101 275L102 275L103 274L104 274L105 274L106 273L107 274L108 274L109 274L110 274L111 274L113 275L114 275L115 276L116 277L117 277L118 278L119 279L120 279L121 279L122 280L123 281L124 281L125 281L126 282L127 283L128 284L129 284L130 283L131 283L132 283L133 283L134 283L135 282L136 281L137 282L138 281L140 279L141 278L142 277L143 276L144 275L145 275L146 274L147 274L148 274L149 272L150 272L151 272L152 272L153 273L154 273L155 274L156 274L157 275L158 275L159 274L160 273L161 274L162 274L163 275L164 275L165 276L166 276L168 278L169 277L170 278L171 278L172 278L173 279L174 278L175 279L176 280L177 280L178 280L179 280L180 280L181 281L182 281L183 282L184 282L185 282L186 282L187 282L188 280L189 279L190 280L191 279L192 280L193 280L195 280L196 280L197 280L198 280L199 279L200 279L201 279L202 280L203 280L204 280L205 280L206 279L207 279L208 278L209 278L210 278L211 280L212 280L213 282L214 283L215 282L216 282L217 284L218 283L219 282L220 282L222 282L223 280L224 280L225 279L226 280L227 281L228 282L229 282L230 282L231 283L232 284L233 283L234 283L235 283L236 283L237 281L238 281L239 280L240 278L241 280L242 282L243 281L244 281L245 280L246 281L247 280L249 279L250 279L251 279L252 279L253 279L254 278L255 278L256 277L257 277L258 276L259 278L260 278L261 278L262 278L263 278L264 279L265 278L266 279L267 279L268 279L269 279L270 279L271 278L272 277L273 277L274 277L275 276L277 276L278 276L279 276L280 276L281 276L282 276L283 276L284 276L285 276L286 275L287 275L288 275L289 275L290 274L291 274L292 274L293 274L294 275L295 275L296 275L297 275L298 275L299 282L300 282L301 282L302 282L304 281L305 281L306 280L307 280L308 280L309 280L310 280L311 279L312 279L313 279L314 279L315 279L316 278L317 278L318 278L319 278L320 278L321 277L322 277L323 277L324 277L325 277L326 276L327 276L328 276L329 276L331 276L332 275L333 275L334 275L335 275L336 275L337 274L338 274L339 274L340 274L341 274L342 273L343 273L344 273L345 273L346 273L347 272L348 272L349 272L350 272L351 272L352 272L353 271L354 271L355 271L356 271L358 270L359 270L360 270L361 270L362 273L363 274L364 276L365 274L366 273L367 274L368 274L369 271L370 271L371 267L372 269L373 267L374 266L375 268L376 267L377 264L378 266L379 266L380 265L381 263L382 264L383 263L385 261L386 260L387 260L388 261L389 261L390 262L391 265L392 265L393 268L394 272L395 275L396 277L397 277L398 272L399 275L400 274L401 276L402 275L403 268L404 268L405 268L406 270L407 272L408 272L409 272L410 267L411 267L413 266L414 265L415 266L416 265L417 263L418 262L419 258L420 263L421 261L422 261L423 262L424 261L425 269L426 267L427 265L428 264L429 264L430 264L431 265L432 269L433 270L434 266L435 266L436 263L437 262L438 264L440 266L441 270L442 271L443 274L444 276L445 276L446 276L447 275L448 279L449 278L450 279L451 279L452 273L453 272L454 271L455 269L456 271L457 267L458 269L459 270L460 268L461 267L462 265L463 262L464 260L465 260L467 259L468 259L469 259L470 258L471 261L472 262L473 261L474 270L475 269L476 266L477 267L478 256L479 257L480 258L481 258L482 258L483 257L484 261L485 261L486 264L487 261L488 262L489 263L490 263L491 261L492 261L494 263L495 264L496 265L497 263L498 263L499 261L500 270L501 266L502 268L503 268L504 255L505 256L506 254L507 255L508 253L509 253L510 254L511 252L512 252L513 253L514 253L515 253L516 252L517 251L518 252L519 253L521 253L522 251L523 252L524 250L525 249L526 266L527 265L528 264L529 263L530 266L531 263L532 260L533 262L534 259L535 258L536 257L537 254L538 254L539 251L540 252L541 252L542 251L543 251L544 251L545 252L546 254L547 252L549 253L550 253L551 253L552 252L553 251L554 249L555 249L556 250L557 249L558 253L559 252L560 253L561 255L562 255L563 256L564 255L565 253L566 254L567 252L568 251L569 252L570 250L571 250L572 251L573 251L574 250L576 251L577 250L578 249L579 250L580 249L581 247L582 248L583 245L584 247L585 248L586 249L587 250L588 249L589 249L590 248L591 247L592 246L593 247L594 247L595 248L596 246L597 246L598 247L599 247L600 246L601 245L603 244L604 245L605 244L606 245L607 244L608 244L609 246L610 243L611 242L612 242L613 241L614 240L615 241L616 238L617 241L618 241L619 242L620 241L621 240L622 239L623 243L624 243L625 239L626 239L627 239L628 238L630 237L631 236L632 239L633 241L634 236L635 235L636 230L637 230L638 226L639 227L640 229L641 232L642 231L643 231L644 227L645 224L646 225L647 230L648 227L649 221L650 220L651 219L652 222L653 226L654 221L655 217L656 219L658 218L659 219L660 218L661 216L662 219L663 212L664 209L665 209L666 206L667 206L668 212L669 209L670 211L671 209L672 211L673 210L674 213L675 203L676 210L677 212L678 210L679 199L680 211L681 206L682 207L683 208L685 207L686 206L687 202L688 201L689 197L690 203L691 198L692 204L693 197" fill="none" stroke-width="1.5"></path></g><g class="key-England_3"><path stroke="#3360a9" stroke-linecap="round" d="M70 293L71 295L72 296L73 296L74 295L75 294L76 297L77 299L78 305L79 310L80 314L81 318L82 320L83 319L84 327L86 333L87 328L88 328L89 333L90 338L91 336L92 330L93 321L94 314L95 310L96 305L97 302L98 305L99 313L100 308L101 307L102 316L103 303L104 300L105 310L106 322L107 328L108 319L109 311L110 306L111 303L113 301L114 303L115 303L116 292L117 289L118 291L119 289L120 292L121 290L122 294L123 304L124 299L125 302L126 310L127 315L128 314L129 311L130 310L131 315L132 327L133 335L134 354L135 344L136 337L137 356L138 323L140 297L141 295L142 319L143 317L144 298L145 296L146 292L147 290L148 294L149 293L150 294L151 293L152 292L153 292L154 293L155 292L156 285L157 297L158 308L159 293L160 295L161 298L162 294L163 295L164 294L165 300L166 305L168 293L169 293L170 301L171 300L172 298L173 302L174 301L175 307L176 321L177 323L178 326L179 329L180 325L181 315L182 321L183 324L184 314L185 315L186 316L187 310L188 310L189 311L190 308L191 314L192 314L193 305L195 308L196 305L197 297L198 304L199 305L200 302L201 301L202 301L203 301L204 300L205 300L206 301L207 305L208 302L209 301L210 303L211 307L212 308L213 308L214 313L215 314L216 309L217 309L218 315L219 306L220 298L222 297L223 295L224 296L225 295L226 295L227 294L228 294L229 296L230 297L231 297L232 298L233 303L234 309L235 306L236 303L237 301L238 303L239 300L240 293L241 300L242 309L243 302L244 300L245 299L246 313L247 316L249 302L250 307L251 316L252 307L253 309L254 308L255 304L256 303L257 305L258 306L259 305L260 304L261 301L262 305L263 304L264 300L265 303L266 307L267 303L268 304L269 305L270 303L271 306L272 307L273 306L274 309L275 310L277 311L278 311L279 305L280 306L281 311L282 309L283 310L284 314L285 309L286 305L287 310L288 311L289 311L290 311L291 306L292 305L293 306L294 309L295 313L296 314L297 314L298 314L299 309L300 304L301 307L302 309L304 312L305 316L306 314L307 311L308 309L309 306L310 307L311 309L312 309L313 307L314 305L315 304L316 304L317 306L318 306L319 306L320 306L321 304L322 302L323 303L324 303L325 303L326 303L327 302L328 304L329 306L331 304L332 301L333 299L334 298L335 297L336 297L337 299L338 299L339 296L340 296L341 295L342 294L343 294L344 294L345 295L346 295L347 294L348 293L349 294L350 294L351 294L352 294L353 294L354 289L355 289L356 289L358 289L359 288L360 288L361 288L362 292L363 292L364 292L365 292L366 295L367 298L368 298L369 290L370 287L371 275L372 278L373 277L374 277L375 279L376 279L377 276L378 277L379 277L380 275L381 273L382 273L383 271L385 268L386 267L387 267L388 267L389 267L390 266L391 270L392 272L393 278L394 288L395 290L396 290L397 289L398 276L399 281L400 277L401 278L402 277L403 268L404 269L405 271L406 274L407 277L408 277L409 275L410 270L411 268L413 267L414 265L415 266L416 264L417 263L418 265L419 261L420 270L421 270L422 273L423 275L424 275L425 289L426 280L427 279L428 278L429 275L430 277L431 279L432 288L433 290L434 281L435 281L436 277L437 275L438 277L440 277L441 282L442 281L443 280L444 280L445 280L446 281L447 282L448 288L449 288L450 288L451 289L452 278L453 278L454 278L455 276L456 284L457 281L458 285L459 290L460 287L461 285L462 282L463 281L464 277L465 276L467 272L468 271L469 266L470 265L471 270L472 270L473 270L474 295L475 295L476 282L477 282L478 258L479 258L480 258L481 258L482 258L483 258L484 262L485 262L486 265L487 262L488 263L489 264L490 266L491 263L492 263L494 265L495 268L496 269L497 265L498 263L499 263L500 279L501 273L502 277L503 279L504 256L505 258L506 256L507 257L508 254L509 255L510 256L511 253L512 253L513 255L514 254L515 254L516 252L517 251L518 253L519 255L521 255L522 253L523 254L524 252L525 249L526 278L527 274L528 272L529 270L530 275L531 271L532 267L533 274L534 272L535 271L536 267L537 262L538 262L539 261L540 264L541 257L542 256L543 265L544 264L545 265L546 276L547 265L549 265L550 280L551 271L552 271L553 270L554 270L555 275L556 275L557 290L558 290L559 288L560 288L561 288L562 285L563 286L564 284L565 282L566 282L567 282L568 280L569 280L570 281L571 282L572 281L573 282L574 285L576 281L577 282L578 285L579 285L580 284L581 285L582 286L583 284L584 285L585 281L586 275L587 279L588 276L589 276L590 276L591 275L592 273L593 282L594 281L595 279L596 278L597 274L598 278L599 283L600 282L601 276L603 274L604 275L605 274L606 272L607 271L608 274L609 272L610 271L611 272L612 266L613 270L614 272L615 266L616 266L617 267L618 269L619 264L620 263L621 268L622 268L623 267L624 263L625 261L626 262L627 263L628 266L630 262L631 265L632 266L633 264L634 259L635 260L636 260L637 262L638 260L639 256L640 259L641 261L642 258L643 257L644 257L645 255L646 249L647 257L648 253L649 252L650 254L651 250L652 251L653 252L654 249L655 247L656 249L658 243L659 247L660 246L661 244L662 246L663 245L664 248L665 247L666 243L667 241L668 243L669 244L670 243L671 243L672 245L673 243L674 240L675 235L676 240L677 243L678 241L679 240L680 238L681 237L682 235L683 240L685 235L686 236L687 230L688 232L689 226L690 228L691 226L692 227L693 224" fill="none" stroke-width="1.5"></path></g><g class="key-England_4"><path stroke="#e6332e" stroke-linecap="round" d="M317 342L318 349L319 347L320 343L321 339L322 335L323 334L324 333L325 332L326 330L327 329L328 328L329 326L331 325L332 324L333 322L334 321L335 320L336 319L337 317L338 316L339 315L340 313L341 312L342 311L343 310L344 308L345 307L346 306L347 304L348 303L349 302L350 300L351 299L352 298L353 297L354 295L355 294L356 293L358 291L359 290L360 289L361 287L362 286L363 285L364 287L365 289L366 291L367 331L368 332L369 332L370 332L371 333L372 333L373 334L374 334L375 335L376 336L377 332L378 335L379 329L380 338L381 327L382 318L383 319L385 319L386 319L387 318L388 316L389 315L390 314L391 312L392 311L393 310L394 309L395 307L396 306L397 305L398 310L399 317L400 313L401 308L402 304L403 299L404 294L405 290L406 286L407 288L408 284L409 286L410 285L411 284L413 282L414 281L415 280L416 279L417 277L418 276L419 275L420 274L421 273L422 275L423 277L424 279L425 275L426 273L427 274L428 273L429 276L430 273L431 269L432 268L433 266L434 259L435 265L436 260L437 281L438 269L440 269L441 268L442 267L443 266L444 263L445 261L446 259L447 257L448 263L449 261L450 264L451 261L452 255L453 277L454 296L455 289L456 282L457 276L458 269L459 268L460 268L461 267L462 266L463 265L464 264L465 264L467 263L468 262L469 261L470 263L471 264L472 266L473 252L474 257L475 257L476 251L477 254L478 251L479 269L480 283L481 274L482 253L483 256L484 252L485 251L486 260L487 259L488 255L489 251L490 251L491 251L492 247L494 250L495 249L496 246L497 251L498 247L499 248L500 246L501 253L502 249L503 255L504 265L505 265L506 256L507 261L508 255L509 257L510 260L511 257L512 261L513 255L514 251L515 249L516 252L517 245L518 266L519 257L521 250L522 252L523 257L524 259L525 250L526 247L527 254L528 250L529 252L530 252L531 244L532 247L533 245L534 242L535 245L536 244L537 244L538 240L539 240L540 240L541 242L542 240L543 237L544 238L545 242L546 238L547 242L549 240L550 242L551 238L552 242L553 237L554 237L555 240L556 238L557 242L558 232L559 242L560 240L561 238L562 240L563 240L564 238L565 240L566 242L567 237L568 240L569 235L570 236L571 236L572 235L573 238L574 233L576 235L577 240L578 232L579 234L580 235L581 233L582 230L583 230L584 230L585 227L586 229L587 227L588 226L589 226L590 223L591 220L592 223L593 225L594 223L595 220L596 220L597 221L598 223L599 219L600 219L601 219L603 216L604 215L605 214L606 213L607 217L608 211L609 208L610 210L611 207L612 207L613 209L614 210L615 205L616 208L617 206L618 210L619 205L620 199L621 205L622 198L623 198L624 194L625 194L626 192L627 196L628 190L630 195L631 190L632 189L633 189L634 190L635 185L636 185L637 182L638 185L639 183L640 184L641 181L642 182L643 180L644 176L645 176L646 175L647 172L648 175L649 174L650 171L651 168L652 168L653 165L654 165L655 165L656 162L658 160L659 157L660 156L661 156L662 155L663 154L664 153L665 155L666 156L667 148L668 150L669 145L670 144L671 146L672 143L673 140L674 140L675 140L676 134L677 133L678 132L679 130L680 131L681 130L682 128L683 127L685 126L686 125L687 123L688 122L689 121L690 121L691 120L692 119L693 118" fill="none" stroke-width="1.5"></path></g><g class="key-England_5"><path stroke="#ffd53e" stroke-linecap="round" d="M298 351L299 350L300 350L301 350L302 350L304 350L305 347L306 344L307 344L308 344L309 346L310 341L311 341L312 341L313 340L314 340L315 340L316 340L317 339L318 339L319 339L320 339L321 338L322 338L323 338L324 337L325 337L326 337L327 337L328 336L329 336L331 335L332 334L333 334L334 333L335 330L336 330L337 330L338 330L339 330L340 330L341 330L342 324L343 325L344 322L345 323L346 322L347 322L348 322L349 322L350 320L351 316L352 316L353 316L354 314L355 309L356 305L358 305L359 297L360 297L361 296L362 294L363 293L364 290L365 290L366 289L367 288L368 285L369 285L370 283L371 281L372 278L373 277L374 275L375 273L376 273L377 273L378 272L379 270L380 269L381 268L382 267L383 266L385 265L386 258L387 258L388 257L389 256L390 256L391 255L392 253L393 251L394 252L395 252L396 252L397 250L398 250L399 250L400 249L401 247L402 246L403 245L404 245L405 245L406 245L407 245L408 245L409 244L410 245L411 245L413 245L414 245L415 245L416 244L417 245L418 244L419 245L420 243L421 242L422 241L423 240L424 240L425 240L426 240L427 240L428 239L429 240L430 239L431 239L432 239L433 239L434 239L435 239L436 239L437 240L438 240L440 241L441 241L442 241L443 241L444 239L445 240L446 241L447 241L448 241L449 241L450 241L451 241L452 242L453 241L454 241L455 243L456 243L457 245L458 247L459 249L460 250L461 248L462 246L463 245L464 246L465 248L467 249L468 250L469 250L470 249L471 249L472 249L473 249L474 250L475 250L476 250L477 249L478 249L479 250L480 250L481 251L482 252L483 252L484 251L485 251L486 250L487 249L488 249L489 249L490 251L491 250L492 250L494 250L495 251L496 251L497 253L498 253L499 253L500 253L501 253L502 252L503 252L504 252L505 253L506 252L507 253L508 253L509 253L510 253L511 253L512 254L513 253L514 252L515 252L516 252L517 252L518 252L519 252L521 252L522 253L523 253L524 252L525 252L526 252L527 252L528 252L529 251L530 251L531 250L532 250L533 247L534 244L535 240L536 240L537 241L538 242L539 244L540 244L541 244L542 244L543 245L544 245L545 246L546 247L547 248L549 248L550 249L551 249L552 251L553 251L554 253L555 252L556 250L557 247L558 247L559 246L560 244L561 244L562 244L563 243L564 242L565 240L566 239L567 239L568 237L569 237L570 236L571 236L572 236L573 236L574 236L576 236L577 235L578 235L579 235L580 235L581 235L582 234L583 233L584 233L585 233L586 233L587 233L588 233L589 233L590 233L591 234L592 235L593 235L594 235L595 234L596 233L597 233L598 234L599 235L600 235L601 233L603 232L604 233L605 228L606 224L607 222L608 218L609 216L610 212L611 211L612 209L613 207L614 207L615 205L616 205L617 199L618 196L619 194L620 190L621 186L622 185L623 182L624 183L625 182L626 179L627 176L628 175L630 175L631 174L632 170L633 171L634 171L635 172L636 173L637 180L638 180L639 178L640 178L641 174L642 167L643 170L644 162L645 156L646 154L647 158L648 148L649 147L650 148L651 148L652 153L653 151L654 143L655 143L656 136L658 135L659 132L660 129L661 126L662 121L663 120L664 132L665 130L666 109L667 119L668 114L669 110L670 108L671 108L672 105L673 101L674 99L675 96L676 95L677 93L678 89L679 89L680 91L681 87L682 86L683 88L685 86L686 80L687 78L688 78L689 81L690 79L691 77L692 74L693 70" fill="none" stroke-width="1.5"></path></g><g class="key-England_6"><path stroke="#a652ba" stroke-linecap="round" d="M102 312L103 306L104 300L105 304L106 301L107 300L108 301L109 302L110 302L111 302L113 302L114 302L115 302L116 302L117 303L118 306L119 318L120 315L121 312L122 309L123 306L124 303L125 300L126 295L127 293L128 290L129 288L130 286L131 283L132 281L133 279L134 276L135 282L136 285L137 280L138 280L140 283L141 287L142 293L143 293L144 289L145 289L146 293L147 297L148 301L149 305L150 311L151 317L152 325L153 335L154 348L155 334L156 330L157 327L158 321L159 318L160 318L161 317L162 316L163 316L164 315L165 331L166 328L168 325L169 323L170 320L171 315L172 310L173 312L174 314L175 315L176 317L177 319L178 320L179 322L180 315L181 309L182 303L183 301L184 300L185 298L186 297L187 295L188 293L189 292L190 285L191 283L192 284L193 285L195 286L196 286L197 287L198 287L199 285L200 284L201 284L202 281L203 282L204 279L205 277L206 278L207 279L208 279L209 280L210 281L211 281L212 282L213 282L214 282L215 282L216 282L217 282L218 283L219 278L220 279L222 281L223 286L224 291L225 290L226 289L227 288L228 287L229 286L230 289L231 286L232 289L233 289L234 294L235 288L236 290L237 288L238 293L239 294L240 291L241 298L242 295L243 302L244 296L245 297L246 301L247 298L249 304L250 300L251 300L252 301L253 301L254 296L255 298L256 296L257 297L258 300L259 300L260 301L261 301L262 302L263 302L264 303L265 304L266 305L267 305L268 305L269 304L270 305L271 305L272 300L273 292L274 292L275 293L277 293L278 291L279 293L280 290L281 291L282 291L283 292L284 293L285 293L286 292L287 292L288 292L289 292L290 292L291 292L292 292L293 291L294 291L295 291L296 289L297 287L298 285L299 284L300 284L301 283L302 283L304 286L305 284L306 282L307 283L308 284L309 287L310 283L311 284L312 284L313 285L314 284L315 283L316 282L317 280L318 280L319 279L320 278L321 277L322 276L323 274L324 273L325 274L326 274L327 274L328 273L329 273L331 269L332 279L333 274L334 271L335 271L336 272L337 270L338 271L339 272L340 274L341 273L342 274L343 274L344 273L345 274L346 280L347 279L348 276L349 274L350 274L351 271L352 272L353 278L354 275L355 274L356 273L358 273L359 279L360 287L361 284L362 280L363 276L364 270L365 273L366 275L367 276L368 275L369 278L370 278L371 279L372 277L373 281L374 284L375 279L376 281L377 280L378 276L379 289L380 276L381 286L382 289L383 290L385 287L386 288L387 285L388 281L389 280L390 286L391 282L392 276L393 279L394 280L395 280L396 281L397 280L398 281L399 282L400 280L401 283L402 282L403 279L404 278L405 282L406 279L407 277L408 280L409 286L410 292L411 288L413 286L414 281L415 276L416 285L417 283L418 284L419 286L420 287L421 285L422 287L423 287L424 285L425 285L426 283L427 283L428 281L429 281L430 280L431 279L432 279L433 278L434 277L435 277L436 276L437 276L438 276L440 277L441 278L442 279L443 280L444 280L445 281L446 283L447 283L448 285L449 286L450 286L451 287L452 288L453 288L454 288L455 290L456 288L457 302L458 343L459 308L460 333L461 326L463 320L464 319L465 320L467 319L468 318L469 315L470 313L471 310L472 308L473 306L474 303L475 300L476 297L477 293L478 288L479 284L480 280L481 274L482 268L483 273L484 278L485 274L486 269L487 274L488 267L489 282L490 260L491 261L492 254L494 255L495 263L496 259L497 259L498 253L499 252L500 258L501 253L502 249L503 251L504 253L505 250L506 256L507 255L508 257L509 256L510 258L511 256L512 258L513 263L514 256L515 252L516 252L517 254L518 261L519 247L521 251L522 252L523 251L524 251L525 251L526 252L527 236L528 252L529 252L530 254L531 261L532 259L533 262L534 246L535 247L536 248L537 251L538 260L539 253L540 254L541 248L542 246L543 250L544 248L545 251L546 248L547 249L549 253L550 242L551 247L552 243L553 244L554 249L555 246L556 254L557 244L558 245L559 249L560 244L561 242L562 242L563 245L564 241L565 243L566 240L567 260L568 226L569 235L570 230L571 230L572 228L573 228L574 228L576 228L577 228L578 229L579 228L580 233L581 230L582 228L583 229L584 228L585 224L586 226L587 229L588 226L589 225L590 226L591 223L592 226L593 232L594 229L595 229L596 228L597 230L598 229L599 225L600 229L601 230L603 230L604 229L605 226L606 220L607 222L608 233L609 219L610 223L611 219L612 215L613 222L614 220L615 219L616 224L617 222L618 226L619 226L620 230L621 233L622 229L623 225L624 224L625 228L626 225L627 232L628 233L630 230L631 238L632 233L633 233L634 233L635 229L636 225L637 220L638 213L639 213L640 220L641 225L642 220L643 222L644 212L645 205L646 211L647 208L648 202L649 206L650 210L651 210L652 211L653 211L654 213L655 225L656 212L658 213L659 208L660 205L661 203L662 204L663 204L664 204L665 203L666 201L667 199L668 198L669 196L670 195L671 194L672 195L673 198L674 198L675 201L676 199L677 199L678 198L679 195L680 194L681 193L682 195L683 191L685 186L686 180L687 179L688 180L689 180L690 185L691 183L692 181L693 179" fill="none" stroke-width="1.5"></path></g><g class="key-England_7"><path stroke="#9ecc8a" stroke-linecap="round" d="M102 329L103 323L104 316L105 321L106 317L107 317L108 318L109 318L110 319L111 319L113 319L114 319L115 318L116 318L117 319L118 323L119 335L120 331L121 328L122 325L123 323L124 320L125 317L126 312L127 309L128 307L129 305L130 302L131 300L132 298L133 295L134 293L135 298L136 302L137 297L138 297L140 299L141 304L142 310L143 310L144 306L145 306L146 309L147 313L148 317L149 322L150 328L151 334L152 342L153 351L154 365L155 350L156 347L157 343L158 337L159 335L160 334L161 334L162 333L163 333L164 332L165 348L166 345L168 342L169 339L170 336L171 332L172 327L173 329L174 330L175 332L176 334L177 335L178 337L179 338L180 332L181 325L182 319L183 318L184 316L185 315L186 313L187 312L188 310L189 308L190 302L191 300L192 301L193 302L195 302L196 303L197 304L198 304L199 302L200 301L201 301L202 298L203 298L204 296L205 294L206 295L207 295L208 296L209 297L210 297L211 298L212 298L213 298L214 298L215 298L216 298L217 298L218 300L219 294L220 295L222 298L223 302L224 307L225 306L226 305L227 304L228 303L229 302L230 306L231 303L232 306L233 306L234 311L235 305L236 306L237 304L238 310L239 311L240 308L241 314L242 312L243 319L244 313L245 314L246 318L247 315L249 321L250 317L251 317L252 317L253 318L254 313L255 315L256 313L257 314L258 317L259 317L260 318L261 318L262 319L263 319L264 319L265 320L266 321L267 322L268 321L269 321L270 321L271 322L272 317L273 308L274 308L275 309L277 310L278 308L279 311L280 308L281 308L282 309L283 310L284 311L285 311L286 310L287 310L288 310L289 310L290 310L291 310L292 309L293 309L294 309L295 309L296 307L297 305L298 303L299 302L300 301L301 301L302 301L304 304L305 302L306 300L307 301L308 302L309 304L310 300L311 301L312 302L313 302L314 302L315 301L316 300L317 298L318 298L319 297L320 296L321 295L322 293L323 292L324 291L325 291L326 291L327 291L328 290L329 290L331 286L332 294L333 289L334 287L335 287L336 287L337 285L338 286L339 286L340 287L341 287L342 287L343 287L344 285L345 286L346 290L347 289L348 287L349 285L350 284L351 282L352 282L353 286L354 284L355 282L356 281L358 281L359 284L360 288L361 285L362 283L363 280L364 277L365 280L366 282L367 293L368 292L369 295L370 294L371 296L372 294L373 297L374 300L375 296L376 298L377 296L378 293L379 303L380 294L381 300L382 300L383 301L385 299L386 300L387 297L388 294L389 293L390 296L391 293L392 289L393 291L394 291L395 291L396 291L397 290L398 292L399 294L400 292L401 293L402 291L403 287L404 285L405 285L406 282L407 282L408 282L409 286L410 289L411 286L413 284L414 281L415 278L416 282L417 280L418 280L419 280L420 280L421 279L422 281L423 282L424 282L425 280L426 278L427 278L428 277L429 278L430 276L431 274L432 273L433 272L434 268L435 271L436 268L437 278L438 272L440 273L441 273L442 273L443 273L444 271L445 270L446 270L447 268L448 273L449 272L450 274L451 272L452 269L453 282L454 291L455 289L456 285L457 287L458 292L459 284L460 289L461 287L462 294L463 285L464 284L465 283L467 282L468 282L469 281L470 281L471 282L472 282L473 271L474 274L475 274L476 268L477 270L478 266L479 276L480 281L481 274L482 260L483 264L484 264L485 262L486 265L487 266L488 261L489 264L490 255L491 256L492 251L494 252L495 256L496 252L497 255L498 250L499 250L500 252L501 253L502 249L503 253L504 258L505 257L506 256L507 258L508 256L509 257L510 259L511 257L512 260L513 259L514 254L515 250L516 252L517 249L518 258L519 254L521 251L522 252L523 254L524 255L525 251L526 250L527 251L528 251L529 251L530 251L531 248L532 249L533 247L534 243L535 242L536 242L537 243L538 242L539 243L540 243L541 243L542 243L543 242L544 243L545 244L546 243L547 245L549 245L550 246L551 245L552 247L553 245L554 246L555 247L556 245L557 245L558 241L559 245L560 243L561 242L562 242L563 242L564 241L565 241L566 241L567 239L568 238L569 236L570 236L571 236L572 235L573 236L574 234L576 234L577 236L578 233L579 234L580 234L581 233L582 232L583 231L584 231L585 230L586 231L587 230L588 229L589 229L590 228L591 228L592 229L593 230L594 229L595 228L596 228L597 229L598 229L599 228L600 228L601 227L603 225L604 225L605 222L606 219L607 220L608 216L609 214L610 212L611 211L612 209L613 209L614 209L615 206L616 207L617 203L618 202L619 200L620 196L621 195L622 192L623 190L624 189L625 188L626 185L627 186L628 183L630 184L631 183L632 181L633 180L634 181L635 179L636 179L637 181L638 183L639 180L640 181L641 178L642 174L643 175L644 170L645 166L646 165L647 165L648 161L649 160L650 160L651 159L652 160L653 159L654 156L655 155L656 151L658 151L659 150L660 147L661 144L662 142L663 142L664 147L665 145L666 134L667 137L668 135L669 132L670 131L671 130L672 128L673 125L674 124L675 121L676 119L677 117L678 115L679 114L680 116L681 113L682 112L683 112L685 110L686 108L687 106L688 105L689 106L690 105L691 104L692 102L693 99" fill="none" stroke-width="1.5"></path></g><g class="key-England_8"><path stroke="#f6a324" stroke-linecap="round" d="M284 483L285 457L286 497L287 476L288 449L289 454L290 468L291 422L292 457L293 446L294 490L295 490L296 507L297 490L298 442L299 468L300 490L301 464L302 461L304 464L305 417L306 426L307 436L308 414L309 402L310 461L311 418L312 436L313 436L314 398L315 427L316 422L317 402L318 401L319 382L320 422L321 416L322 413L323 426L324 395L325 414L326 396L327 401L328 408L329 383L331 391L332 400L333 399L334 421L335 384L336 393L337 388L338 388L339 400L340 375L341 394L342 388L343 383L344 384L345 384L346 391L347 389L348 378L349 385L350 373L351 399L352 384L353 383L354 384L355 375L356 373L358 369L359 345L360 359L361 347L362 369L363 367L364 362L365 376L366 367L367 376L368 383L369 386L370 374L371 361L372 366L373 361L374 365L375 383L376 368L377 366L378 367L379 374L380 364L381 343L382 363L383 358L385 358L386 360L387 350L388 358L389 350L390 350L391 345L392 337L393 340L394 353L395 346L396 344L397 335L398 347L399 348L400 347L401 339L402 335L403 337L404 338L405 351L406 342L407 335L408 336L409 341L410 340L411 338L413 327L414 343L415 336L416 324L417 328L418 331L419 328L420 322L421 332L422 326L423 329L424 331L425 325L426 321L427 325L428 318L429 323L430 326L431 319L432 322L433 315L434 320L435 317L436 319L437 316L438 310L440 327L441 322L442 317L443 319L444 309L445 314L446 319L447 314L448 317L449 308L450 317L451 316L452 313L453 316L454 302L455 266L456 241L457 265L458 281L459 282L460 279L461 268L462 260L463 272L464 276L465 285L467 285L468 279L469 282L470 282L471 283L472 282L473 281L474 265L475 251L476 272L477 280L478 280L479 283L480 285L481 294L482 292L483 288L484 289L485 274L486 276L487 271L488 271L489 266L490 267L491 270L492 270L494 267L495 258L496 254L497 256L498 257L499 258L500 258L501 254L502 267L503 265L504 254L505 248L506 249L507 258L508 261L509 262L510 263L511 252L512 257L513 266L514 264L515 264L516 252L517 259L518 263L519 271L521 264L522 263L523 267L524 266L525 267L526 267L527 252L528 263L529 262L530 267L531 262L532 259L533 268L534 268L535 269L536 270L537 261L538 272L539 274L540 279L541 280L542 277L543 276L544 278L545 277L546 279L547 270L549 280L550 272L551 275L552 275L553 270L554 272L555 276L556 276L557 269L558 267L559 272L560 273L561 275L562 274L563 267L564 271L565 272L566 270L567 274L568 250L569 271L570 278L571 269L572 276L573 267L574 266L576 269L577 270L578 269L579 249L580 262L581 263L582 266L583 270L584 258L585 262L586 264L587 263L588 269L589 251L590 267L591 262L592 266L593 263L594 251L595 263L596 259L597 265L598 265L599 240L600 262L601 260L603 260L604 268L605 265L606 270L607 270L608 266L609 267L610 244L611 262L612 258L613 253L614 256L615 254L616 257L617 258L618 256L619 258L620 202L621 230L622 243L623 234L624 240L625 228L626 229L627 230L628 231L630 233L631 217L632 227L633 220L634 225L635 229L636 222L637 227L638 225L639 223L640 224L641 209L642 224L643 219L644 220L645 211L646 208L647 201L648 211L649 214L650 213L651 200L652 206L653 200L654 208L655 206L656 200L658 202L659 204L660 198L661 197L662 191L663 198L664 198L665 197L666 194L667 187L668 187L669 190L670 193L671 189L672 182L673 187L674 186L675 184L676 185L677 184L678 186L679 185L680 188L681 184L682 180L683 187L685 186L686 186L687 184L688 183L689 187L690 185L691 183L692 185L693 182" fill="none" stroke-width="1.5"></path></g></g></g></g><g style="fill: #777;" class="SourcesFooter"><g style="fill: #777;" class="clickable"><text font-size="12.60" x="15.0" y="553.3"><tspan x="15" y="553.2800000000001">Source: Output of key industries in England - using Bank of England (2017), Output of key industrial sectors in England - Bank of England (2017)</tspan></text></g><text font-size="12.60" x="15.0" y="567.9"><tspan x="15" y="567.8800000000001">Note: Data before 1700 refers to England, later data refers to Great Britain.</tspan></text><text font-size="12.60" x="15.0" y="582.5"><tspan x="15" y="582.4800000000001"><a target='_blank' style='fill: #777;' href='https://ourworldindata.org/economic-growth'>OurWorldInData.org/economic-growth</a> • <a style="fill: #777;" href="http://creativecommons.org/licenses/by-sa/4.0/deed.en_US" target="_blank">CC BY-SA</a></tspan></text></g></g></svg>