<svg xmlns="http://www.w3.org/2000/svg" version="1.1" style="font-family: 'Helvetica Neue', Helvetica, Arial, sans-serif; font-size: 18px; background-color: white; text-rendering: optimizeLegibility; -webkit-font-smoothing: antialiased;" width="850" height="600"><g class="ChartTab"><g class="HeaderView"><g opacity="0.8" transform="translate(778, 15) scale(0.27)"><a xmlns:xlink="http://www.w3.org/1999/xlink" xlink:href="https://ourworldindata.org" target="_blank"><g><rect x="0" y="0" fill="#1B2543" width="211.2" height="130.1"/><rect x="0" y="112.2" fill="#E63912" width="211.2" height="17.9"/><g><rect x="1.2" y="12.3" fill="none" width="210.2" height="99.2"/><path fill="#FFFFFF" d="M37.8,32.2c0,12.7-7.7,19.4-17.1,19.4c-9.7,0-16.6-7.5-16.6-18.7c0-11.7,7.3-19.3,17.1-19.3 C31.3,13.7,37.8,21.3,37.8,32.2z M9.2,32.8c0,7.9,4.3,14.9,11.8,14.9c7.5,0,11.8-6.9,11.8-15.3c0-7.3-3.8-14.9-11.8-14.9 C13.1,17.5,9.2,24.8,9.2,32.8z"/><path fill="#FFFFFF" d="M62.7,43.8c0,2.7,0.1,5.1,0.2,7.2h-4.3l-0.3-4.3h-0.1c-1.3,2.1-4,4.9-8.8,4.9c-4.2,0-9.1-2.3-9.1-11.6 V24.6h4.8v14.6c0,5,1.5,8.4,5.9,8.4c3.2,0,5.5-2.2,6.3-4.4c0.3-0.7,0.4-1.6,0.4-2.5V24.6h4.8V43.8z"/><path fill="#FFFFFF" d="M67.3,32.8c0-3.1-0.1-5.8-0.2-8.2h4.2l0.2,5.2h0.2c1.2-3.5,4.1-5.8,7.3-5.8c0.5,0,0.9,0.1,1.4,0.2v4.5 c-0.5-0.1-1-0.2-1.6-0.2c-3.4,0-5.8,2.6-6.5,6.2c-0.1,0.7-0.2,1.4-0.2,2.2V51h-4.8V32.8z"/><path fill="#FFFFFF" d="M95.4,51l-9.4-36.8h5l4.4,18.6c1.1,4.6,2.1,9.2,2.7,12.7h0.1c0.6-3.7,1.8-8,3-12.8l4.9-18.5h5l4.5,18.7 c1,4.4,2,8.7,2.6,12.6h0.1c0.8-4,1.8-8.1,3-12.7l4.9-18.5h4.9L120.6,51h-5L111,31.9c-1.1-4.7-1.9-8.3-2.4-12h-0.1 c-0.7,3.7-1.5,7.3-2.8,12L100.4,51H95.4z"/><path fill="#FFFFFF" d="M154.9,37.6c0,9.8-6.8,14-13.2,14c-7.2,0-12.7-5.2-12.7-13.6c0-8.8,5.8-14,13.1-14 C149.8,24,154.9,29.5,154.9,37.6z M133.9,37.9c0,5.8,3.3,10.1,8,10.1c4.6,0,8-4.3,8-10.3c0-4.5-2.2-10.1-7.9-10.1 C136.3,27.6,133.9,32.8,133.9,37.9z"/><path fill="#FFFFFF" d="M158.2,32.8c0-3.1-0.1-5.8-0.2-8.2h4.2l0.2,5.2h0.2c1.2-3.5,4.1-5.8,7.3-5.8c0.5,0,0.9,0.1,1.4,0.2v4.5 c-0.5-0.1-1-0.2-1.6-0.2c-3.4,0-5.8,2.6-6.5,6.2c-0.1,0.7-0.2,1.4-0.2,2.2V51h-4.8V32.8z"/><path fill="#FFFFFF" d="M173.5,12.3h4.8V51h-4.8V12.3z"/><path fill="#FFFFFF" d="M206.5,12.3v31.9c0,2.3,0.1,5,0.2,6.8h-4.3l-0.2-4.6H202c-1.5,2.9-4.7,5.2-9,5.2 c-6.4,0-11.3-5.4-11.3-13.4c-0.1-8.8,5.4-14.2,11.9-14.2c4,0,6.8,1.9,8,4h0.1V12.3H206.5z M201.7,35.4c0-0.6-0.1-1.4-0.2-2 c-0.7-3.1-3.3-5.6-6.9-5.6c-5,0-7.9,4.4-7.9,10.2c0,5.3,2.6,9.8,7.8,9.8c3.2,0,6.2-2.1,7.1-5.7c0.2-0.7,0.2-1.3,0.2-2.1V35.4z"/><path fill="#FFFFFF" d="M42.8,64c0.1,1.6-1.1,2.9-3.1,2.9c-1.7,0-2.9-1.3-2.9-2.9c0-1.7,1.3-3,3-3C41.7,61,42.8,62.3,42.8,64z M37.4,97.8V71.4h4.8v26.4H37.4z"/><path fill="#FFFFFF" d="M47.5,78.6c0-2.7-0.1-5-0.2-7.1h4.3l0.3,4.4h0.1c1.3-2.5,4.4-5,8.8-5c3.7,0,9.4,2.2,9.4,11.2v15.8h-4.8 V82.6c0-4.3-1.6-7.8-6.1-7.8c-3.2,0-5.6,2.2-6.5,4.9c-0.2,0.6-0.3,1.4-0.3,2.2v15.9h-4.8V78.6z"/><path fill="#FFFFFF" d="M84,61.6c2.9-0.4,6.3-0.8,10.1-0.8c6.8,0,11.7,1.6,14.9,4.6c3.3,3,5.2,7.3,5.2,13.2c0,6-1.9,10.9-5.3,14.3 c-3.4,3.4-9.1,5.3-16.3,5.3c-3.4,0-6.2-0.2-8.6-0.4V61.6z M88.8,94.1c1.2,0.2,3,0.3,4.8,0.3c10.2,0,15.7-5.7,15.7-15.6 c0.1-8.7-4.9-14.2-14.9-14.2c-2.5,0-4.3,0.2-5.6,0.5V94.1z"/><path fill="#FFFFFF" d="M132.1,97.8l-0.4-3.3h-0.2c-1.5,2.1-4.3,3.9-8.1,3.9c-5.4,0-8.1-3.8-8.1-7.6c0-6.4,5.7-9.9,15.9-9.8v-0.5 c0-2.2-0.6-6.1-6-6.1c-2.5,0-5,0.8-6.9,2l-1.1-3.2c2.2-1.4,5.4-2.3,8.7-2.3c8.1,0,10.1,5.5,10.1,10.8v9.9c0,2.3,0.1,4.5,0.4,6.3 H132.1z M131.4,84.4c-5.3-0.1-11.2,0.8-11.2,5.9c0,3.1,2.1,4.6,4.5,4.6c3.4,0,5.6-2.2,6.4-4.4c0.2-0.5,0.3-1,0.3-1.5V84.4z"/><path fill="#FFFFFF" d="M146.6,63.9v7.6h6.9v3.7h-6.9v14.2c0,3.3,0.9,5.1,3.6,5.1c1.3,0,2.2-0.2,2.8-0.3l0.2,3.6 c-0.9,0.4-2.4,0.7-4.3,0.7c-2.2,0-4-0.7-5.2-2c-1.4-1.4-1.9-3.8-1.9-6.9V75.1h-4.1v-3.7h4.1v-6.3L146.6,63.9z"/><path fill="#FFFFFF" d="M171.4,97.8l-0.4-3.3h-0.2c-1.5,2.1-4.3,3.9-8.1,3.9c-5.4,0-8.1-3.8-8.1-7.6c0-6.4,5.7-9.9,15.9-9.8v-0.5 c0-2.2-0.6-6.1-6-6.1c-2.5,0-5,0.8-6.9,2l-1.1-3.2c2.2-1.4,5.4-2.3,8.7-2.3c8.1,0,10.1,5.5,10.1,10.8v9.9c0,2.3,0.1,4.5,0.4,6.3 H171.4z M170.7,84.4c-5.3-0.1-11.2,0.8-11.2,5.9c0,3.1,2.1,4.6,4.5,4.6c3.4,0,5.6-2.2,6.4-4.4c0.2-0.5,0.3-1,0.3-1.5V84.4z"/></g></g></a></g><a href="https://ourworldindata.org/grapher/patents-for-renewables-by-country" target="_blank"><text font-size="25.20" x="15.0" y="35.2" fill="#555"><tspan x="15" y="35.160000000000004">Number of patents filed for renewable energy technologies</tspan></text></a><text font-size="14.40" x="15.0" y="53.7" fill="#666"><tspan x="15" y="53.72">Annual number of patents filed for innovations in renewable energy technologies, measured in key countries. This</tspan><tspan x="15" y="69.56">includes patents filed in wind, solar (PV and thermal), bioenergy, geothermal, marine, and hydropower. Note that</tspan><tspan x="15" y="85.4">figures for 2014-16 may be subject to a time lag; processing times of patent applications vary and some patents</tspan><tspan x="15" y="101.24000000000001">submitted over this period may not yet be recorded in statistics. These figures will be updated with time if additional</tspan><tspan x="15" y="117.08000000000001">patent applications are recorded.</tspan></text></g><g class="StackedArea"><defs><clipPath id="boundsClip-2455"><rect x="69.896" y="0" width="820" height="835.8"></rect></clipPath></defs><g class="AxisBoxView"><g class="HorizontalAxis"><text x="69.9" y="556.5" fill="#666" text-anchor="middle" font-size="16.2">2000</text><text x="152.2" y="556.5" fill="#666" text-anchor="middle" font-size="16.2">2002</text><text x="234.5" y="556.5" fill="#666" text-anchor="middle" font-size="16.2">2004</text><text x="316.7" y="556.5" fill="#666" text-anchor="middle" font-size="16.2">2006</text><text x="399" y="556.5" fill="#666" text-anchor="middle" font-size="16.2">2008</text><text x="481.3" y="556.5" fill="#666" text-anchor="middle" font-size="16.2">2010</text><text x="563.6" y="556.5" fill="#666" text-anchor="middle" font-size="16.2">2012</text><text x="645.9" y="556.5" fill="#666" text-anchor="middle" font-size="16.2">2014</text><text x="728.2" y="556.5" fill="#666" text-anchor="middle" font-size="16.2">2016</text></g><g class="VerticalAxis"><text x="64.90" y="535.3" fill="#666" dominant-baseline="middle" text-anchor="end" font-size="16.2">0</text><text x="64.90" y="477.1" fill="#666" dominant-baseline="middle" text-anchor="end" font-size="16.2">10,000</text><text x="64.90" y="418.9" fill="#666" dominant-baseline="middle" text-anchor="end" font-size="16.2">20,000</text><text x="64.90" y="360.6" fill="#666" dominant-baseline="middle" text-anchor="end" font-size="16.2">30,000</text><text x="64.90" y="302.4" fill="#666" dominant-baseline="middle" text-anchor="end" font-size="16.2">40,000</text><text x="64.90" y="244.2" fill="#666" dominant-baseline="middle" text-anchor="end" font-size="16.2">50,000</text><text x="64.90" y="186" fill="#666" dominant-baseline="middle" text-anchor="end" font-size="16.2">60,000</text></g><g class="AxisGridLines"><line x1="69.90" y1="535.3" x2="728.17" y2="535.3" stroke="#ccc"></line><line x1="69.90" y1="477.1" x2="728.17" y2="477.1" stroke="#ddd" stroke-dasharray="3,2"></line><line x1="69.90" y1="418.9" x2="728.17" y2="418.9" stroke="#ddd" stroke-dasharray="3,2"></line><line x1="69.90" y1="360.6" x2="728.17" y2="360.6" stroke="#ddd" stroke-dasharray="3,2"></line><line x1="69.90" y1="302.4" x2="728.17" y2="302.4" stroke="#ddd" stroke-dasharray="3,2"></line><line x1="69.90" y1="244.2" x2="728.17" y2="244.2" stroke="#ddd" stroke-dasharray="3,2"></line><line x1="69.90" y1="186" x2="728.17" y2="186" stroke="#ddd" stroke-dasharray="3,2"></line></g></g><g clip-path="url(#boundsClip-2455)"><g class="HeightedLegend clickable"><g class="legendMark"><rect x="733.168" y="507.8" width="52.728" height="14.4" fill="#fff" opacity="0"></rect><rect x="733.168" y="513.75" width="10" height="2.5" fill="#ca2628"></rect><text font-size="14.40" x="748.2" y="519.3" fill="#333"><tspan x="748.168" y="519.32">China</tspan></text></g><g class="legendMark"><rect x="733.168" y="482.2" width="101.83200000000001" height="14.4" fill="#fff" opacity="0"></rect><rect x="733.168" y="488.15" width="10" height="2.5" fill="#3360a9"></rect><text font-size="14.40" x="748.2" y="493.7" fill="#333"><tspan x="748.168" y="493.71999999999997">United States</tspan></text></g><g class="legendMark"><rect x="733.168" y="467.8" width="54.456" height="14.4" fill="#fff" opacity="0"></rect><rect x="733.168" y="473.75" width="10" height="2.5" fill="#ed6c2d"></rect><text font-size="14.40" x="748.2" y="479.3" fill="#333"><tspan x="748.168" y="479.32">Japan</tspan></text></g><g class="legendMark"><rect x="733.168" y="453.40000000000003" width="74.328" height="14.4" fill="#fff" opacity="0"></rect><rect x="733.168" y="459.35" width="10" height="2.5" fill="#34983f"></rect><text font-size="14.40" x="748.2" y="464.9" fill="#333"><tspan x="748.168" y="464.92">Germany</tspan></text></g><g class="legendMark"><rect x="733.168" y="439.00000000000006" width="51.144000000000005" height="14.4" fill="#fff" opacity="0"></rect><rect x="733.168" y="444.95000000000005" width="10" height="2.5" fill="#b077b1"></rect><text font-size="14.40" x="748.2" y="450.5" fill="#333"><tspan x="748.168" y="450.52000000000004">Other</tspan></text></g></g><g class="Areas"><rect x="69.896" y="138.60000000000002" width="658.272" height="396.69999999999993" opacity="0" fill="rgba(255,255,255,0)"></rect><path stroke-linecap="round" d="M69.9 530.2L111 529.1L152.2 526.4L193.3 525.3L234.5 521.7L275.6 518.7L316.7 506.7L357.9 496.9L399 481.5L440.2 458.5L481.3 437.5L522.5 421.6L563.6 411.9L604.7 417.6L645.9 422.2L687 420.9L728.2 494.8L728.168 535.3L69.896 535.3" fill="#ca2628" fill-opacity="0.7" class="China_0-area"></path><path stroke-linecap="round" d="M69.9 524L111 520.4L152.2 516.8L193.3 514.1L234.5 506.6L275.6 500.4L316.7 483.7L357.9 464.8L399 435.9L440.2 397.6L481.3 364.2L522.5 347.9L563.6 343.3L604.7 356.7L645.9 370.7L687 392.3L728.2 484.1L728.2 494.8L687 420.9L645.9 422.2L604.7 417.6L563.6 411.9L522.5 421.6L481.3 437.5L440.2 458.5L399 481.5L357.9 496.9L316.7 506.7L275.6 518.7L234.5 521.7L193.3 525.3L152.2 526.4L111 529.1L69.9 530.2" fill="#3360a9" fill-opacity="0.7" class="United-States_0-area"></path><path stroke-linecap="round" d="M69.9 502.5L111 499.6L152.2 496.9L193.3 493.4L234.5 485.5L275.6 480.2L316.7 463.1L357.9 441.7L399 406.2L440.2 356.3L481.3 315.8L522.5 295.4L563.6 286.4L604.7 314.2L645.9 340.9L687 381.1L728.2 481L728.2 484.1L687 392.3L645.9 370.7L604.7 356.7L563.6 343.3L522.5 347.9L481.3 364.2L440.2 397.6L399 435.9L357.9 464.8L316.7 483.7L275.6 500.4L234.5 506.6L193.3 514.1L152.2 516.8L111 520.4L69.9 524" fill="#ed6c2d" fill-opacity="0.7" class="Japan_0-area"></path><path stroke-linecap="round" d="M69.9 493.8L111 491.6L152.2 488.8L193.3 485.8L234.5 478.6L275.6 471.9L316.7 452.8L357.9 428.4L399 390.2L440.2 338.1L481.3 296.5L522.5 276.5L563.6 271.2L604.7 303.9L645.9 333L687 378.5L728.2 480.4L728.2 481L687 381.1L645.9 340.9L604.7 314.2L563.6 286.4L522.5 295.4L481.3 315.8L440.2 356.3L399 406.2L357.9 441.7L316.7 463.1L275.6 480.2L234.5 485.5L193.3 493.4L152.2 496.9L111 499.6L69.9 502.5" fill="#34983f" fill-opacity="0.7" class="Germany_0-area"></path><path stroke-linecap="round" d="M69.9 471.8L111 468.3L152.2 461.3L193.3 455.5L234.5 446.9L275.6 434.9L316.7 405.1L357.9 356.1L399 294.4L440.2 215.3L481.3 162.9L522.5 138.6L563.6 145.9L604.7 210.5L645.9 262.8L687 345.8L728.2 474.4L728.2 480.4L687 378.5L645.9 333L604.7 303.9L563.6 271.2L522.5 276.5L481.3 296.5L440.2 338.1L399 390.2L357.9 428.4L316.7 452.8L275.6 471.9L234.5 478.6L193.3 485.8L152.2 488.8L111 491.6L69.9 493.8" fill="#b077b1" fill-opacity="0.7" class="Other_0-area"></path><path stroke-linecap="round" d="M69.9 530.2L111 529.1L152.2 526.4L193.3 525.3L234.5 521.7L275.6 518.7L316.7 506.7L357.9 496.9L399 481.5L440.2 458.5L481.3 437.5L522.5 421.6L563.6 411.9L604.7 417.6L645.9 422.2L687 420.9L728.2 494.8" stroke="rgb(169, 32, 33)" stroke-opacity="0.7" stroke-width="0.5" fill="none" class="China_0-border"></path><path stroke-linecap="round" d="M69.9 524L111 520.4L152.2 516.8L193.3 514.1L234.5 506.6L275.6 500.4L316.7 483.7L357.9 464.8L399 435.9L440.2 397.6L481.3 364.2L522.5 347.9L563.6 343.3L604.7 356.7L645.9 370.7L687 392.3L728.2 484.1" stroke="rgb(43, 80, 141)" stroke-opacity="0.7" stroke-width="0.5" fill="none" class="United-States_0-border"></path><path stroke-linecap="round" d="M69.9 502.5L111 499.6L152.2 496.9L193.3 493.4L234.5 485.5L275.6 480.2L316.7 463.1L357.9 441.7L399 406.2L440.2 356.3L481.3 315.8L522.5 295.4L563.6 286.4L604.7 314.2L645.9 340.9L687 381.1L728.2 481" stroke="rgb(198, 90, 38)" stroke-opacity="0.7" stroke-width="0.5" fill="none" class="Japan_0-border"></path><path stroke-linecap="round" d="M69.9 493.8L111 491.6L152.2 488.8L193.3 485.8L234.5 478.6L275.6 471.9L316.7 452.8L357.9 428.4L399 390.2L440.2 338.1L481.3 296.5L522.5 276.5L563.6 271.2L604.7 303.9L645.9 333L687 378.5L728.2 480.4" stroke="rgb(44, 127, 53)" stroke-opacity="0.7" stroke-width="0.5" fill="none" class="Germany_0-border"></path><path stroke-linecap="round" d="M69.9 471.8L111 468.3L152.2 461.3L193.3 455.5L234.5 446.9L275.6 434.9L316.7 405.1L357.9 356.1L399 294.4L440.2 215.3L481.3 162.9L522.5 138.6L563.6 145.9L604.7 210.5L645.9 262.8L687 345.8L728.2 474.4" stroke="rgb(147, 100, 148)" stroke-opacity="0.7" stroke-width="0.5" fill="none" class="Other_0-border"></path></g></g></g><g style="fill: #777;" class="SourcesFooter"><g style="fill: #777;" class="clickable"><text font-size="12.60" x="15.0" y="581.6"><tspan x="15" y="581.58">Source: IRENA (&amp; EPO PATSTAT)</tspan></text></g><text font-size="12.60" x="649.0" y="581.6"><tspan x="649.024" y="581.58"><a target='_blank' style='fill: #777;' href='https://ourworldindata.org'>OurWorldInData.org</a> • <a style="fill: #777;" href="http://creativecommons.org/licenses/by-sa/4.0/deed.en_US" target="_blank">CC BY-SA</a></tspan></text></g></g></svg>