<svg xmlns="http://www.w3.org/2000/svg" version="1.1" style="font-family:&#x27;Helvetica Neue&#x27;, Helvetica, Arial, sans-serif;font-size:18px;background-color:white;text-rendering:optimizeLegibility;-webkit-font-smoothing:antialiased" width="850" height="600"><g class="ChartTab"><g class="HeaderView"><a href="https://ourworldindata.org/grapher/the-role-of-agriculture-in-the-fluctuations-of-the-aggregate-economy-in-britain" target="_blank"><text font-size="21.60" x="15.0" y="32.3" fill="#555"><tspan x="15" y="32.279999999999994">The role of agriculture in the fluctuations of the aggregate economy in Britain</tspan><tspan x="15" y="53.87999999999999">(1550–1700)</tspan></text></a><text font-size="14.40" x="15.0" y="72.7" fill="#666"><tspan x="15" y="72.72">Unit 13 &#x27;Economic fluctuations and unemployment’ Section 13.5 &#x27;How households cope with fluctuations&#x27; in The CORE Team,</tspan><tspan x="15" y="88.56">The Economy. Available at: https://tinyco.re/1305099 [Figure 13.9a]</tspan></text></g><g class="LineChart"><defs><clipPath id="boundsClip-1"><rect x="47.908" y="0" width="830" height="890.8"></rect></clipPath></defs><g class="AxisBoxView"><g class="HorizontalAxis"><text x="57.9" y="556.5" fill="#666" text-anchor="middle" font-size="16.2">1550</text><text x="175.8" y="556.5" fill="#666" text-anchor="middle" font-size="16.2">1580</text><text x="254.3" y="556.5" fill="#666" text-anchor="middle" font-size="16.2">1600</text><text x="332.9" y="556.5" fill="#666" text-anchor="middle" font-size="16.2">1620</text><text x="411.5" y="556.5" fill="#666" text-anchor="middle" font-size="16.2">1640</text><text x="490" y="556.5" fill="#666" text-anchor="middle" font-size="16.2">1660</text><text x="568.6" y="556.5" fill="#666" text-anchor="middle" font-size="16.2">1680</text><text x="647.2" y="556.5" fill="#666" text-anchor="middle" font-size="16.2">1700</text></g><g class="VerticalAxis"><text x="52.91" y="516.7" fill="#666" dominant-baseline="middle" text-anchor="end" font-size="16.2">-40%</text><text x="52.91" y="431.4" fill="#666" dominant-baseline="middle" text-anchor="end" font-size="16.2">-20%</text><text x="52.91" y="346.2" fill="#666" dominant-baseline="middle" text-anchor="end" font-size="16.2">0%</text><text x="52.91" y="261" fill="#666" dominant-baseline="middle" text-anchor="end" font-size="16.2">20%</text><text x="52.91" y="175.8" fill="#666" dominant-baseline="middle" text-anchor="end" font-size="16.2">40%</text></g><g class="AxisGridLines"><line x1="57.91" y1="516.7" x2="647.18" y2="516.7" stroke="#ddd" stroke-dasharray="3,2"></line><line x1="57.91" y1="431.4" x2="647.18" y2="431.4" stroke="#ddd" stroke-dasharray="3,2"></line><line x1="57.91" y1="346.2" x2="647.18" y2="346.2" stroke="#ccc"></line><line x1="57.91" y1="261" x2="647.18" y2="261" stroke="#ddd" stroke-dasharray="3,2"></line><line x1="57.91" y1="175.8" x2="647.18" y2="175.8" stroke="#ddd" stroke-dasharray="3,2"></line></g></g><g clip-path="url(#boundsClip-1)"><g class="HeightedLegend clickable"><g class="legendMark"><g class="indicator"><line x1="652.18" y1="285.2" x2="664.68" y2="285.2" stroke="#666" stroke-width="0.5"></line><line x1="664.68" y1="285.2" x2="664.68" y2="285.2" stroke="#666" stroke-width="0.5"></line><line x1="664.68" y1="285.2" x2="677.18" y2="285.2" stroke="#666" stroke-width="0.5"></line></g><rect x="647.18" y="278.45" width="187.82000000000002" height="13.5" fill="#fff" opacity="0"></rect><text font-size="13.50" x="682.2" y="289.3" fill="#f6a324"><tspan x="682.18" y="289.25">Growth rate of agriculture</tspan></text></g><g class="legendMark"><g class="indicator"><line x1="652.18" y1="319.6" x2="671.3466666666666" y2="319.6" stroke="#666" stroke-width="0.5"></line><line x1="671.3466666666666" y1="319.6" x2="671.3466666666666" y2="319.6" stroke="#666" stroke-width="0.5"></line><line x1="671.3466666666666" y1="319.6" x2="677.18" y2="319.6" stroke="#666" stroke-width="0.5"></line></g><rect x="647.18" y="312.85" width="143.27" height="13.5" fill="#fff" opacity="0"></rect><text font-size="13.50" x="682.2" y="323.7" fill="#34983f"><tspan x="682.18" y="323.65000000000003">Real GDP Growth</tspan></text></g><g class="legendMark"><g class="indicator"><line x1="652.18" y1="325.6" x2="664.68" y2="325.6" stroke="#666" stroke-width="0.5"></line><line x1="664.68" y1="325.6" x2="664.68" y2="335.1" stroke="#666" stroke-width="0.5"></line><line x1="664.68" y1="335.1" x2="677.18" y2="335.1" stroke="#666" stroke-width="0.5"></line></g><rect x="647.18" y="328.35" width="172.835" height="13.5" fill="#fff" opacity="0"></rect><text font-size="13.50" x="682.2" y="339.2" fill="#ca2628"><tspan x="682.18" y="339.15000000000003">Growth rate of Industry</tspan></text></g><g class="legendMark"><g class="indicator"><line x1="652.18" y1="337.5" x2="658.0133333333333" y2="337.5" stroke="#666" stroke-width="0.5"></line><line x1="658.0133333333333" y1="337.5" x2="658.0133333333333" y2="350.6" stroke="#666" stroke-width="0.5"></line><line x1="658.0133333333333" y1="350.6" x2="677.18" y2="350.6" stroke="#666" stroke-width="0.5"></line></g><rect x="647.18" y="343.85" width="176.48000000000002" height="13.5" fill="#fff" opacity="0"></rect><text font-size="13.50" x="682.2" y="354.7" fill="#3360a9"><tspan x="682.18" y="354.65000000000003">Growth rate of Services</tspan></text></g></g><g class="Lines"><rect x="58" y="111" width="589" height="424" fill="rgba(255,255,255,0)" opacity="0"></rect><g class="key-United-Kingdom_0"><path stroke="#ca2628" stroke-linecap="round" d="M58 336L62 363L66 340L70 326L74 358L78 359L82 403L85 339L89 299L93 343L97 285L101 356L105 345L109 340L113 357L117 344L121 309L125 352L129 365L133 314L137 347L140 355L144 330L148 315L152 348L156 331L160 338L164 354L168 340L172 366L176 348L180 379L184 398L188 347L192 351L195 354L199 289L203 368L207 310L211 364L215 330L219 281L223 335L227 348L231 373L235 358L239 352L243 352L247 302L250 317L254 340L258 328L262 335L266 336L270 329L274 361L278 314L282 396L286 345L290 341L294 346L298 354L302 400L305 316L309 344L313 324L317 348L321 333L325 345L329 383L333 317L337 305L341 371L345 320L349 347L353 340L357 360L360 364L364 315L368 396L372 346L376 341L380 323L384 349L388 372L392 335L396 365L400 342L404 282L408 370L412 352L415 351L419 322L423 337L427 370L431 372L435 343L439 328L443 342L447 330L451 342L455 336L459 300L463 315L467 337L470 330L474 380L478 360L482 330L486 439L490 312L494 308L498 349L502 215L506 375L510 351L514 307L518 321L522 370L525 356L529 346L533 373L537 339L541 332L545 365L549 325L553 297L557 348L561 349L565 374L569 314L573 366L577 324L580 326L584 421L588 310L592 362L596 338L600 276L604 349L608 324L612 352L616 317L620 386L624 311L628 342L632 364L635 354L639 326L643 347L647 326" fill="none" stroke-width="1.5"></path></g><g class="key-United-Kingdom_1"><path stroke="#3360a9" stroke-linecap="round" d="M58 342L62 347L66 355L70 349L74 348L78 349L82 351L85 353L89 350L93 347L97 344L101 345L105 343L109 340L113 339L117 336L121 336L125 343L129 341L133 347L137 362L140 352L144 341L148 337L152 344L156 337L160 341L164 344L168 338L172 344L176 343L180 344L184 344L188 339L192 343L195 347L199 340L203 343L207 342L211 344L215 337L219 342L223 340L227 344L231 347L235 340L239 344L243 348L247 342L250 336L254 343L258 341L262 337L266 341L270 340L274 345L278 338L282 347L286 344L290 337L294 343L298 347L302 349L305 342L309 345L313 343L317 352L321 339L325 342L329 349L333 336L337 341L341 346L345 341L349 341L353 343L357 351L360 341L364 322L368 355L372 348L376 348L380 330L384 344L388 337L392 337L396 350L400 340L404 344L408 345L412 344L415 356L419 334L423 335L427 349L431 349L435 344L439 338L443 344L447 333L451 338L455 333L459 328L463 334L467 356L470 336L474 352L478 351L482 352L486 364L490 346L494 343L498 352L502 334L506 349L510 341L514 331L518 350L522 347L525 341L529 347L533 347L537 341L541 336L545 344L549 341L553 335L557 349L561 340L565 349L569 337L573 355L577 349L580 341L584 365L588 336L592 348L596 339L600 337L604 338L608 335L612 336L616 327L620 352L624 323L628 341L632 341L635 343L639 336L643 342L647 338" fill="none" stroke-width="1.5"></path></g><g class="key-United-Kingdom_2"><path stroke="#f6a324" stroke-linecap="round" d="M58 362L62 348L66 388L70 173L74 414L78 338L82 473L85 243L89 111L93 416L97 389L101 317L105 347L109 262L113 371L117 343L121 262L125 391L129 328L133 367L137 409L140 332L144 386L148 226L152 449L156 236L160 318L164 475L168 187L172 340L176 390L180 348L184 403L188 209L192 368L195 447L199 413L203 192L207 256L211 442L215 294L219 390L223 272L227 287L231 496L235 324L239 393L243 395L247 161L250 216L254 394L258 365L262 304L266 294L270 298L274 428L278 322L282 387L286 398L290 170L294 289L298 412L302 345L305 399L309 385L313 271L317 395L321 251L325 348L329 394L333 202L337 369L341 443L345 375L349 202L353 345L357 381L360 326L364 241L368 535L372 361L376 329L380 219L384 404L388 300L392 320L396 380L400 367L404 299L408 306L412 317L415 456L419 258L423 287L427 325L431 450L435 344L439 356L443 339L447 388L451 408L455 293L459 219L463 245L467 372L470 303L474 396L478 397L482 394L486 439L490 254L494 355L498 312L502 281L506 379L510 303L514 240L518 363L522 439L525 304L529 384L533 363L537 374L541 338L545 390L549 343L553 147L557 433L561 290L565 403L569 227L573 447L577 313L580 266L584 453L588 260L592 422L596 214L600 346L604 382L608 291L612 324L616 292L620 484L624 129L628 410L632 388L635 350L639 342L643 405L647 285" fill="none" stroke-width="1.5"></path></g><g class="key-United-Kingdom_3"><path stroke="#34983f" stroke-linecap="round" d="M58 347L62 353L66 364L70 272L74 382L78 348L82 422L85 306L89 231L93 382L97 347L101 337L105 345L109 305L113 360L117 342L121 292L125 370L129 343L133 347L137 379L140 344L144 358L148 283L152 394L156 295L160 330L164 408L168 283L172 350L176 366L180 358L184 388L188 286L192 358L195 397L199 354L203 298L207 294L211 397L215 317L219 343L223 312L227 321L231 423L235 341L239 365L243 366L247 268L250 282L254 365L258 346L262 323L266 320L270 318L274 388L278 323L282 382L286 366L290 277L294 320L298 380L302 364L305 360L309 361L313 308L317 369L321 302L325 346L329 380L333 273L337 344L341 398L345 347L349 291L353 343L357 367L360 343L364 284L368 454L372 352L376 339L380 288L384 370L388 336L392 330L396 367L400 352L404 306L408 338L412 335L415 399L419 302L423 316L427 345L431 401L435 344L439 342L443 341L447 353L451 364L455 323L459 285L463 297L467 356L470 322L474 378L478 371L482 358L486 415L490 308L494 335L498 338L502 274L506 369L510 333L514 291L518 344L522 389L525 336L529 359L533 362L537 351L541 335L545 366L549 335L553 269L557 377L561 329L565 376L569 296L573 390L577 328L580 313L584 416L588 304L592 377L596 304L600 317L604 356L608 317L612 339L616 311L620 410L624 266L628 365L632 364L635 349L639 334L643 362L647 320" fill="none" stroke-width="1.5"></path></g></g></g></g><g class="SourcesFooter" style="fill:#777"><g class="clickable" style="fill:#777"><text font-size="12.60" x="15.0" y="581.6"><tspan x="15" y="581.58">Source: Broadberry, Campbell and Klein (2015)</tspan></text></g><text font-size="12.60" x="775.4" y="581.6"><tspan x="775.402" y="581.58"><a style="fill: #777;" class="cclogo" href="http://creativecommons.org/licenses/by-sa/4.0/deed.en_US" target="_blank">CC BY-SA</a></tspan></text></g></g></svg>