<svg xmlns="http://www.w3.org/2000/svg" version="1.1" style="font-family:&#x27;Helvetica Neue&#x27;, Helvetica, Arial, sans-serif;font-size:18px;background-color:white;text-rendering:optimizeLegibility;-webkit-font-smoothing:antialiased" width="850" height="600"><g class="ChartTab"><g class="HeaderView"><a href="https://ourworldindata.org/grapher/unemployment-benefit-generosity-and-unemployment-rates-across-the-oecd" target="_blank"><text font-size="21.60" x="15.0" y="32.3" fill="#555"><tspan x="15" y="32.279999999999994">Unemployment benefit generosity and unemployment rates across the OECD</tspan><tspan x="15" y="53.87999999999999">(2001–2011)</tspan></text></a><text font-size="14.40" x="15.0" y="72.7" fill="#666"><tspan x="15" y="72.72">Unit 16 &#x27;Technological progress, employment, and living standards in the long run’ Section 16.9 &#x27;Technological change, labour</tspan><tspan x="15" y="88.56">markets and trade unions&#x27; in The CORE Team, The Economy. Available at: https://tinyco.re/1609144 [Figure 16.16]</tspan></text></g><g><g class="AxisBoxView"><g class="HorizontalAxis"><text font-size="12.60" x="165.0" y="554.0"><tspan x="164.975" y="553.98">Gross unemployment benefit replacement rate (2001-2011 average, %)</tspan></text><text x="130.8" y="533.9" fill="#666" text-anchor="middle" font-size="16.2">10%</text><text x="275.5" y="533.9" fill="#666" text-anchor="middle" font-size="16.2">20%</text><text x="420.2" y="533.9" fill="#666" text-anchor="middle" font-size="16.2">30%</text><text x="564.9" y="533.9" fill="#666" text-anchor="middle" font-size="16.2">40%</text><text x="709.6" y="533.9" fill="#666" text-anchor="middle" font-size="16.2">50%</text></g><g class="VerticalAxis"><text font-size="12.60" x="-458.9" y="25.1" transform="rotate(-90)"><tspan x="-458.91799999999995" y="25.080000000000002">Unemployment rate (2000-2011 average, %)</tspan></text><text x="70.16" y="512.7" fill="#666" dominant-baseline="middle" text-anchor="end" font-size="16.2">0%</text><text x="70.16" y="458.7" fill="#666" dominant-baseline="middle" text-anchor="end" font-size="16.2">2%</text><text x="70.16" y="404.8" fill="#666" dominant-baseline="middle" text-anchor="end" font-size="16.2">4%</text><text x="70.16" y="350.8" fill="#666" dominant-baseline="middle" text-anchor="end" font-size="16.2">6%</text><text x="70.16" y="296.8" fill="#666" dominant-baseline="middle" text-anchor="end" font-size="16.2">8%</text><text x="70.16" y="242.8" fill="#666" dominant-baseline="middle" text-anchor="end" font-size="16.2">10%</text><text x="70.16" y="188.9" fill="#666" dominant-baseline="middle" text-anchor="end" font-size="16.2">12%</text><text x="70.16" y="134.9" fill="#666" dominant-baseline="middle" text-anchor="end" font-size="16.2">14%</text></g><g class="AxisGridLines"><line x1="75.16" y1="512.7" x2="715.00" y2="512.7" stroke="#ccc"></line><line x1="75.16" y1="458.7" x2="715.00" y2="458.7" stroke="#ddd" stroke-dasharray="3,2"></line><line x1="75.16" y1="404.8" x2="715.00" y2="404.8" stroke="#ddd" stroke-dasharray="3,2"></line><line x1="75.16" y1="350.8" x2="715.00" y2="350.8" stroke="#ddd" stroke-dasharray="3,2"></line><line x1="75.16" y1="296.8" x2="715.00" y2="296.8" stroke="#ddd" stroke-dasharray="3,2"></line><line x1="75.16" y1="242.8" x2="715.00" y2="242.8" stroke="#ddd" stroke-dasharray="3,2"></line><line x1="75.16" y1="188.9" x2="715.00" y2="188.9" stroke="#ddd" stroke-dasharray="3,2"></line><line x1="75.16" y1="134.9" x2="715.00" y2="134.9" stroke="#ddd" stroke-dasharray="3,2"></line></g><g class="AxisGridLines"><line x1="130.8" y1="512.70" x2="130.8" y2="111.10" stroke="#ddd" stroke-dasharray="3,2"></line><line x1="275.5" y1="512.70" x2="275.5" y2="111.10" stroke="#ddd" stroke-dasharray="3,2"></line><line x1="420.2" y1="512.70" x2="420.2" y2="111.10" stroke="#ddd" stroke-dasharray="3,2"></line><line x1="564.9" y1="512.70" x2="564.9" y2="111.10" stroke="#ddd" stroke-dasharray="3,2"></line><line x1="709.6" y1="512.70" x2="709.6" y2="111.10" stroke="#ddd" stroke-dasharray="3,2"></line></g></g><g class="PointsWithLabels clickable" clip-path="url(#scatterBounds-3)" font-family="Arial Narrow, Arial, sans-serif"><rect x="75.162" y="111.1" width="639.838" height="401.59999999999997" fill="rgba(255,255,255,0)"></rect><defs><clipPath id="scatterBounds-3"><rect x="65.162" y="101.1" width="659.838" height="421.59999999999997"></rect></clipPath></defs><g class="key-Australia_0"><circle cx="316.00" cy="368.00" r="1.78" fill="#a652ba" opacity="0.8" stroke="#333" stroke-width="0.7"></circle></g><g class="key-Austria_0"><circle cx="392.00" cy="385.00" r="1.78" fill="#ffd336" opacity="0.8" stroke="#333" stroke-width="0.7"></circle></g><g class="key-Belgium_0"><circle cx="522.00" cy="303.00" r="1.78" fill="#ffd336" opacity="0.8" stroke="#333" stroke-width="0.7"></circle></g><g class="key-Canada_0"><circle cx="190.00" cy="319.00" r="1.78" fill="#4d824b" opacity="0.8" stroke="#333" stroke-width="0.7"></circle></g><g class="key-Czech-Republic_0"><circle cx="75.00" cy="323.00" r="1.78" fill="#ffd336" opacity="0.8" stroke="#333" stroke-width="0.7"></circle></g><g class="key-Denmark_0"><circle cx="715.00" cy="375.00" r="1.78" fill="#ffd336" opacity="0.8" stroke="#333" stroke-width="0.7"></circle></g><g class="key-Finland_0"><circle cx="494.00" cy="291.00" r="1.78" fill="#ffd336" opacity="0.8" stroke="#333" stroke-width="0.7"></circle></g><g class="key-France_0"><circle cx="510.00" cy="296.00" r="1.78" fill="#ffd336" opacity="0.8" stroke="#fff" stroke-width="0.7"></circle></g><g class="key-Germany_0"><circle cx="353.00" cy="280.00" r="1.78" fill="#ffd336" opacity="0.8" stroke="#333" stroke-width="0.7"></circle></g><g class="key-Greece_0"><circle cx="124.00" cy="238.00" r="1.78" fill="#ffd336" opacity="0.8" stroke="#333" stroke-width="0.7"></circle></g><g class="key-Hungary_0"><circle cx="128.00" cy="300.00" r="1.78" fill="#ffd336" opacity="0.8" stroke="#333" stroke-width="0.7"></circle></g><g class="key-Iceland_0"><circle cx="437.00" cy="402.00" r="1.78" fill="#ffd336" opacity="0.8" stroke="#333" stroke-width="0.7"></circle></g><g class="key-Ireland_0"><circle cx="498.00" cy="319.00" r="1.78" fill="#ffd336" opacity="0.8" stroke="#333" stroke-width="0.7"></circle></g><g class="key-Italy_0"><circle cx="116.00" cy="297.00" r="1.78" fill="#ffd336" opacity="0.8" stroke="#fff" stroke-width="0.7"></circle></g><g class="key-Japan_0"><circle cx="162.00" cy="386.00" r="1.78" fill="#d14e5b" opacity="0.8" stroke="#333" stroke-width="0.7"></circle></g><g class="key-Korea_0"><circle cx="119.00" cy="417.00" r="1.78" fill="#000" opacity="0.8" stroke="#333" stroke-width="0.7"></circle></g><g class="key-Luxembourg_0"><circle cx="372.00" cy="401.00" r="1.78" fill="#ffd336" opacity="0.8" stroke="#333" stroke-width="0.7"></circle></g><g class="key-Netherlands_0"><circle cx="557.00" cy="415.00" r="1.78" fill="#ffd336" opacity="0.8" stroke="#333" stroke-width="0.7"></circle></g><g class="key-New-Zealand_0"><circle cx="414.00" cy="380.00" r="1.78" fill="#a652ba" opacity="0.8" stroke="#fff" stroke-width="0.7"></circle></g><g class="key-Norway_0"><circle cx="669.00" cy="415.00" r="1.78" fill="#ffd336" opacity="0.8" stroke="#333" stroke-width="0.7"></circle></g><g class="key-Poland_0"><circle cx="139.00" cy="139.00" r="1.78" fill="#ffd336" opacity="0.8" stroke="#333" stroke-width="0.7"></circle></g><g class="key-Portugal_0"><circle cx="544.00" cy="301.00" r="1.78" fill="#ffd336" opacity="0.8" stroke="#fff" stroke-width="0.7"></circle></g><g class="key-Slovak-Republic_0"><circle cx="121.00" cy="111.00" r="1.78" fill="#000" opacity="0.8" stroke="#333" stroke-width="0.7"></circle></g><g class="key-Spain_0"><circle cx="456.00" cy="166.00" r="1.78" fill="#ffd336" opacity="0.8" stroke="#333" stroke-width="0.7"></circle></g><g class="key-Sweden_0"><circle cx="531.00" cy="329.00" r="1.78" fill="#ffd336" opacity="0.8" stroke="#fff" stroke-width="0.7"></circle></g><g class="key-Switzerland_0"><circle cx="427.00" cy="415.00" r="1.78" fill="#ffd336" opacity="0.8" stroke="#333" stroke-width="0.7"></circle></g><g class="key-Turkey_0"><circle cx="122.00" cy="223.00" r="1.78" fill="#d14e5b" opacity="0.8" stroke="#333" stroke-width="0.7"></circle></g><g class="key-United-Kingdom_0"><circle cx="150.00" cy="356.00" r="1.78" fill="#ffd336" opacity="0.8" stroke="#333" stroke-width="0.7"></circle></g><g class="key-United-States_0"><circle cx="171.00" cy="341.00" r="1.78" fill="#4d824b" opacity="0.8" stroke="#333" stroke-width="0.7"></circle></g><g class="backgroundLabels" fill="#333"><text x="316.00" y="365.22" font-size="11.00">Australia</text><text x="392.00" y="382.22" font-size="11.00">Austria</text><text x="522.00" y="300.22" font-size="11.00">Belgium</text><text x="190.00" y="316.22" font-size="11.00">Canada</text><text x="75.00" y="320.22" font-size="11.00">Czech Republic</text><text x="670.34" y="372.22" font-size="11.00">Denmark</text><text x="494.00" y="288.22" font-size="11.00">Finland</text><text x="353.00" y="277.22" font-size="11.00">Germany</text><text x="124.00" y="235.22" font-size="11.00">Greece</text><text x="128.00" y="297.22" font-size="11.00">Hungary</text><text x="437.00" y="399.22" font-size="11.00">Iceland</text><text x="498.00" y="316.22" font-size="11.00">Ireland</text><text x="162.00" y="383.22" font-size="11.00">Japan</text><text x="119.00" y="414.22" font-size="11.00">Korea</text><text x="372.00" y="398.22" font-size="11.00">Luxembourg</text><text x="557.00" y="412.22" font-size="11.00">Netherlands</text><text x="669.00" y="412.22" font-size="11.00">Norway</text><text x="139.00" y="136.22" font-size="11.00">Poland</text><text x="121.00" y="122.10" font-size="11.00">Slovak Republic</text><text x="456.00" y="163.22" font-size="11.00">Spain</text><text x="427.00" y="412.22" font-size="11.00">Switzerland</text><text x="122.00" y="220.22" font-size="11.00">Turkey</text><text x="150.00" y="353.22" font-size="11.00">United Kingdom</text><text x="171.00" y="338.22" font-size="11.00">United States</text></g></g><g class="ScatterColorLegend clickable" style="cursor:pointer"><g class="legendMark"><rect x="735" y="108.6" width="35.57" height="17.6" fill="#fff" opacity="0"></rect>,<rect x="735" y="114.1" width="6" height="6" fill="#d14e5b"></rect>,<text font-size="12.60" x="746.0" y="121.2"><tspan x="746" y="121.17999999999999">Asia</tspan></text></g><g class="legendMark"><rect x="735" y="126.19999999999999" width="51.824" height="17.6" fill="#fff" opacity="0"></rect>,<rect x="735" y="131.7" width="6" height="6" fill="#ffd336"></rect>,<text font-size="12.60" x="746.0" y="138.8"><tspan x="746" y="138.77999999999997">Europe</tspan></text></g><g class="legendMark"><rect x="735" y="143.8" width="91.64" height="17.6" fill="#fff" opacity="0"></rect>,<rect x="735" y="149.3" width="6" height="6" fill="#4d824b"></rect>,<text font-size="12.60" x="746.0" y="156.4"><tspan x="746" y="156.38">North America</tspan></text></g><g class="legendMark"><rect x="735" y="161.4" width="58.124" height="17.6" fill="#fff" opacity="0"></rect>,<rect x="735" y="166.9" width="6" height="6" fill="#a652ba"></rect>,<text font-size="12.60" x="746.0" y="174.0"><tspan x="746" y="173.98">Oceania</tspan></text></g></g></g><g class="SourcesFooter" style="fill:#777"><g class="clickable" style="fill:#777"><text font-size="12.60" x="15.0" y="581.6"><tspan x="15" y="581.58">Source: OECD (2015)</tspan></text></g><text font-size="12.60" x="775.4" y="581.6"><tspan x="775.402" y="581.58"><a style="fill: #777;" class="cclogo" href="http://creativecommons.org/licenses/by-sa/4.0/deed.en_US" target="_blank">CC BY-SA</a></tspan></text></g></g></svg>