<svg xmlns="http://www.w3.org/2000/svg" version="1.1" style="font-family:Lato, &#x27;Helvetica Neue&#x27;, Helvetica, Arial, sans-serif;font-size:18px;background-color:white;text-rendering:optimizeLegibility;-webkit-font-smoothing:antialiased" width="850" height="600"><g class="HeaderView"><a href="https://ourworldindata.org/grapher/unemployment-benefit-generosity-and-unemployment-rates-across-the-oecd20002017" target="_blank"><text font-size="21.60" x="15.0" y="32.3" fill="#555"><tspan x="15" y="32.279999999999994">Unemployment benefit generosity and unemployment rates across the OECD</tspan><tspan x="15" y="53.87999999999999">(2000–2017)</tspan></text></a><text font-size="14.40" x="15.0" y="72.7" fill="#666"><tspan x="15" y="72.72">Unit 16 &#x27;Technological progress, employment, and living standards in the long run’ Section 16.9 &#x27;Technological change, labour</tspan><tspan x="15" y="88.56">markets and trade unions&#x27; in The CORE Team, The Economy. Available at: https://tinyco.re/1609144 [Figure 16.16]</tspan></text></g><g><g class="AxisBoxView"><g class="HorizontalAxis"><text font-size="12.60" x="165.0" y="540.3"><tspan x="164.975" y="540.28">Gross unemployment benefit replacement rate (2001-2011 average, %)</tspan></text><text x="130.8" y="520.1999999999999" fill="#666" text-anchor="middle" font-size="16.2">10%</text><text x="275.5" y="520.1999999999999" fill="#666" text-anchor="middle" font-size="16.2">20%</text><text x="420.2" y="520.1999999999999" fill="#666" text-anchor="middle" font-size="16.2">30%</text><text x="564.9" y="520.1999999999999" fill="#666" text-anchor="middle" font-size="16.2">40%</text><text x="709.6" y="520.1999999999999" fill="#666" text-anchor="middle" font-size="16.2">50%</text></g><g class="VerticalAxis"><text font-size="12.60" x="-451.1" y="25.1" transform="rotate(-90)"><tspan x="-451.068" y="25.080000000000002">Unemployment rate (2000-2017 average, %)</tspan></text><text x="70.16" y="499" fill="#666" dominant-baseline="middle" text-anchor="end" font-size="16.2">0%</text><text x="70.16" y="450.5" fill="#666" dominant-baseline="middle" text-anchor="end" font-size="16.2">2%</text><text x="70.16" y="402.1" fill="#666" dominant-baseline="middle" text-anchor="end" font-size="16.2">4%</text><text x="70.16" y="353.6" fill="#666" dominant-baseline="middle" text-anchor="end" font-size="16.2">6%</text><text x="70.16" y="305.1" fill="#666" dominant-baseline="middle" text-anchor="end" font-size="16.2">8%</text><text x="70.16" y="256.7" fill="#666" dominant-baseline="middle" text-anchor="end" font-size="16.2">10%</text><text x="70.16" y="208.2" fill="#666" dominant-baseline="middle" text-anchor="end" font-size="16.2">12%</text><text x="70.16" y="159.7" fill="#666" dominant-baseline="middle" text-anchor="end" font-size="16.2">14%</text><text x="70.16" y="111.3" fill="#666" dominant-baseline="middle" text-anchor="end" font-size="16.2">16%</text></g><g class="AxisGridLines"><line x1="75.16" y1="499" x2="715.00" y2="499" stroke="#ccc"></line><line x1="75.16" y1="450.5" x2="715.00" y2="450.5" stroke="#ddd" stroke-dasharray="3,2"></line><line x1="75.16" y1="402.1" x2="715.00" y2="402.1" stroke="#ddd" stroke-dasharray="3,2"></line><line x1="75.16" y1="353.6" x2="715.00" y2="353.6" stroke="#ddd" stroke-dasharray="3,2"></line><line x1="75.16" y1="305.1" x2="715.00" y2="305.1" stroke="#ddd" stroke-dasharray="3,2"></line><line x1="75.16" y1="256.7" x2="715.00" y2="256.7" stroke="#ddd" stroke-dasharray="3,2"></line><line x1="75.16" y1="208.2" x2="715.00" y2="208.2" stroke="#ddd" stroke-dasharray="3,2"></line><line x1="75.16" y1="159.7" x2="715.00" y2="159.7" stroke="#ddd" stroke-dasharray="3,2"></line><line x1="75.16" y1="111.3" x2="715.00" y2="111.3" stroke="#ddd" stroke-dasharray="3,2"></line></g><g class="AxisGridLines"><line x1="130.8" y1="499.00" x2="130.8" y2="109.10" stroke="#ddd" stroke-dasharray="3,2"></line><line x1="275.5" y1="499.00" x2="275.5" y2="109.10" stroke="#ddd" stroke-dasharray="3,2"></line><line x1="420.2" y1="499.00" x2="420.2" y2="109.10" stroke="#ddd" stroke-dasharray="3,2"></line><line x1="564.9" y1="499.00" x2="564.9" y2="109.10" stroke="#ddd" stroke-dasharray="3,2"></line><line x1="709.6" y1="499.00" x2="709.6" y2="109.10" stroke="#ddd" stroke-dasharray="3,2"></line></g></g><g class="PointsWithLabels clickable" clip-path="url(#scatterBounds-13)" font-family="Arial, sans-serif"><rect x="75.162" y="109.1" width="639.838" height="389.9" fill="rgba(255,255,255,0)"></rect><defs><clipPath id="scatterBounds-13"><rect x="65.162" y="99.1" width="659.838" height="409.9"></rect></clipPath></defs><g class="key-Australia_0"><circle cx="316.00" cy="365.00" r="3.57" fill="#a652ba" opacity="0.8" stroke="#333" stroke-width="0.7"></circle></g><g class="key-Austria_0"><circle cx="392.00" cy="379.00" r="3.57" fill="#ffd336" opacity="0.8" stroke="#333" stroke-width="0.7"></circle></g><g class="key-Belgium_0"><circle cx="522.00" cy="310.00" r="3.57" fill="#ffd336" opacity="0.8" stroke="#333" stroke-width="0.7"></circle></g><g class="key-Canada_0"><circle cx="190.00" cy="327.00" r="3.57" fill="#4d824b" opacity="0.8" stroke="#333" stroke-width="0.7"></circle></g><g class="key-Czech-Republic_0"><circle cx="75.00" cy="340.00" r="3.57" fill="#ffd336" opacity="0.8" stroke="#333" stroke-width="0.7"></circle></g><g class="key-Denmark_0"><circle cx="715.00" cy="364.00" r="3.57" fill="#ffd336" opacity="0.8" stroke="#333" stroke-width="0.7"></circle></g><g class="key-Finland_0"><circle cx="494.00" cy="295.00" r="3.57" fill="#ffd336" opacity="0.8" stroke="#333" stroke-width="0.7"></circle></g><g class="key-France_0"><circle cx="510.00" cy="290.00" r="3.57" fill="#ffd336" opacity="0.8" stroke="#fff" stroke-width="0.7"></circle></g><g class="key-Germany_0"><circle cx="353.00" cy="323.00" r="3.57" fill="#ffd336" opacity="0.8" stroke="#333" stroke-width="0.7"></circle></g><g class="key-Greece_0"><circle cx="124.00" cy="134.00" r="3.57" fill="#ffd336" opacity="0.8" stroke="#333" stroke-width="0.7"></circle></g><g class="key-Hungary_0"><circle cx="128.00" cy="313.00" r="3.57" fill="#ffd336" opacity="0.8" stroke="#333" stroke-width="0.7"></circle></g><g class="key-Iceland_0"><circle cx="437.00" cy="400.00" r="3.57" fill="#ffd336" opacity="0.8" stroke="#333" stroke-width="0.7"></circle></g><g class="key-Ireland_0"><circle cx="498.00" cy="298.00" r="3.57" fill="#ffd336" opacity="0.8" stroke="#fff" stroke-width="0.7"></circle></g><g class="key-Italy_0"><circle cx="116.00" cy="271.00" r="3.57" fill="#ffd336" opacity="0.8" stroke="#333" stroke-width="0.7"></circle></g><g class="key-Japan_0"><circle cx="162.00" cy="395.00" r="3.57" fill="#d14e5b" opacity="0.8" stroke="#333" stroke-width="0.7"></circle></g><g class="key-Korea_0"><circle cx="119.00" cy="412.00" r="3.57" fill="#ffcb1f" opacity="0.8" stroke="#333" stroke-width="0.7"></circle></g><g class="key-Luxembourg_0"><circle cx="372.00" cy="382.00" r="3.57" fill="#ffd336" opacity="0.8" stroke="#fff" stroke-width="0.7"></circle></g><g class="key-Netherlands_0"><circle cx="557.00" cy="391.00" r="3.57" fill="#ffd336" opacity="0.8" stroke="#333" stroke-width="0.7"></circle></g><g class="key-New-Zealand_0"><circle cx="414.00" cy="372.00" r="3.57" fill="#a652ba" opacity="0.8" stroke="#fff" stroke-width="0.7"></circle></g><g class="key-Norway_0"><circle cx="669.00" cy="409.00" r="3.57" fill="#ffd336" opacity="0.8" stroke="#333" stroke-width="0.7"></circle></g><g class="key-Poland_0"><circle cx="139.00" cy="207.00" r="3.57" fill="#ffd336" opacity="0.8" stroke="#333" stroke-width="0.7"></circle></g><g class="key-Portugal_0"><circle cx="544.00" cy="272.00" r="3.57" fill="#ffd336" opacity="0.8" stroke="#333" stroke-width="0.7"></circle></g><g class="key-Slovak-Republic_0"><circle cx="121.00" cy="158.00" r="3.57" fill="#ffcb1f" opacity="0.8" stroke="#333" stroke-width="0.7"></circle></g><g class="key-Spain_0"><circle cx="456.00" cy="109.00" r="3.57" fill="#ffd336" opacity="0.8" stroke="#333" stroke-width="0.7"></circle></g><g class="key-Sweden_0"><circle cx="531.00" cy="329.00" r="3.57" fill="#ffd336" opacity="0.8" stroke="#333" stroke-width="0.7"></circle></g><g class="key-Switzerland_0"><circle cx="427.00" cy="406.00" r="3.57" fill="#ffd336" opacity="0.8" stroke="#fff" stroke-width="0.7"></circle></g><g class="key-Turkey_0"><circle cx="122.00" cy="249.00" r="3.57" fill="#d14e5b" opacity="0.8" stroke="#333" stroke-width="0.7"></circle></g><g class="key-United-Kingdom_0"><circle cx="150.00" cy="357.00" r="3.57" fill="#ffd336" opacity="0.8" stroke="#333" stroke-width="0.7"></circle></g><g class="key-United-States_0"><circle cx="171.00" cy="350.00" r="3.57" fill="#4d824b" opacity="0.8" stroke="#fff" stroke-width="0.7"></circle></g><g class="backgroundLabels" fill="#333"><text x="316.00" y="360.43" font-size="11.00">Australia</text><text x="392.00" y="374.43" font-size="11.00">Austria</text><text x="522.00" y="305.43" font-size="11.00">Belgium</text><text x="190.00" y="322.43" font-size="11.00">Canada</text><text x="75.00" y="335.43" font-size="11.00">Czech Republic</text><text x="670.34" y="359.43" font-size="11.00">Denmark</text><text x="494.00" y="290.43" font-size="11.00">Finland</text><text x="353.00" y="318.43" font-size="11.00">Germany</text><text x="124.00" y="129.43" font-size="11.00">Greece</text><text x="128.00" y="308.43" font-size="11.00">Hungary</text><text x="437.00" y="395.43" font-size="11.00">Iceland</text><text x="116.00" y="266.43" font-size="11.00">Italy</text><text x="162.00" y="390.43" font-size="11.00">Japan</text><text x="119.00" y="407.43" font-size="11.00">Korea</text><text x="557.00" y="386.43" font-size="11.00">Netherlands</text><text x="669.00" y="404.43" font-size="11.00">Norway</text><text x="139.00" y="202.43" font-size="11.00">Poland</text><text x="544.00" y="267.43" font-size="11.00">Portugal</text><text x="121.00" y="153.43" font-size="11.00">Slovak Republic</text><text x="456.00" y="120.10" font-size="11.00">Spain</text><text x="531.00" y="324.43" font-size="11.00">Sweden</text><text x="122.00" y="244.43" font-size="11.00">Turkey</text><text x="150.00" y="352.43" font-size="11.00">United Kingdom</text></g></g><g class="ScatterColorLegend clickable" style="cursor:pointer"><g class="legendMark"><rect x="735" y="106.6" width="35.57" height="17.6" fill="#fff" opacity="0"></rect>,<rect x="735" y="112.1" width="6" height="6" fill="#d14e5b"></rect>,<text font-size="12.60" x="746.0" y="119.2"><tspan x="746" y="119.17999999999999">Asia</tspan></text></g><g class="legendMark"><rect x="735" y="124.19999999999999" width="51.824" height="17.6" fill="#fff" opacity="0"></rect>,<rect x="735" y="129.7" width="6" height="6" fill="#ffd336"></rect>,<text font-size="12.60" x="746.0" y="136.8"><tspan x="746" y="136.77999999999997">Europe</tspan></text></g><g class="legendMark"><rect x="735" y="141.8" width="91.64" height="17.6" fill="#fff" opacity="0"></rect>,<rect x="735" y="147.3" width="6" height="6" fill="#4d824b"></rect>,<text font-size="12.60" x="746.0" y="154.4"><tspan x="746" y="154.38">North America</tspan></text></g><g class="legendMark"><rect x="735" y="159.4" width="58.124" height="17.6" fill="#fff" opacity="0"></rect>,<rect x="735" y="164.9" width="6" height="6" fill="#a652ba"></rect>,<text font-size="12.60" x="746.0" y="172.0"><tspan x="746" y="171.98">Oceania</tspan></text></g></g></g><g class="SourcesFooter" style="fill:#777"><g class="clickable" style="fill:#777"><text font-size="12.60" x="15.0" y="567.9"><tspan x="15" y="567.88">Source: OECD (2019)</tspan></text></g><text font-size="12.60" x="15.0" y="582.5"><tspan x="15" y="582.48">Note: Gross unemployment benefit replacement rates are displayed on the &#x27;MAP&#x27; tab.</tspan></text><text font-size="12.60" x="546.0" y="567.9"><tspan x="545.956" y="567.88"><a target='_blank' style='fill: #777;' href='https://tinyco.re/1609144'>tinyco.re/1609144</a> • <a href="https://ourworldindata.org" target="_blank">Powered by ourworldindata.org</a></tspan></text></g></svg>