<svg xmlns="http://www.w3.org/2000/svg" version="1.1" style="font-family: 'Helvetica Neue', Helvetica, Arial, sans-serif; font-size: 18px; background-color: white; text-rendering: optimizeLegibility; -webkit-font-smoothing: antialiased;" width="850" height="600"><g class="ChartTab"><g class="HeaderView"><g opacity="0.8" transform="translate(778, 15) scale(0.27)"><a xmlns:xlink="http://www.w3.org/1999/xlink" xlink:href="https://ourworldindata.org" target="_blank"><g><rect x="0" y="0" fill="#1B2543" width="211.2" height="130.1"/><rect x="0" y="112.2" fill="#E63912" width="211.2" height="17.9"/><g><rect x="1.2" y="12.3" fill="none" width="210.2" height="99.2"/><path fill="#FFFFFF" d="M37.8,32.2c0,12.7-7.7,19.4-17.1,19.4c-9.7,0-16.6-7.5-16.6-18.7c0-11.7,7.3-19.3,17.1-19.3 C31.3,13.7,37.8,21.3,37.8,32.2z M9.2,32.8c0,7.9,4.3,14.9,11.8,14.9c7.5,0,11.8-6.9,11.8-15.3c0-7.3-3.8-14.9-11.8-14.9 C13.1,17.5,9.2,24.8,9.2,32.8z"/><path fill="#FFFFFF" d="M62.7,43.8c0,2.7,0.1,5.1,0.2,7.2h-4.3l-0.3-4.3h-0.1c-1.3,2.1-4,4.9-8.8,4.9c-4.2,0-9.1-2.3-9.1-11.6 V24.6h4.8v14.6c0,5,1.5,8.4,5.9,8.4c3.2,0,5.5-2.2,6.3-4.4c0.3-0.7,0.4-1.6,0.4-2.5V24.6h4.8V43.8z"/><path fill="#FFFFFF" d="M67.3,32.8c0-3.1-0.1-5.8-0.2-8.2h4.2l0.2,5.2h0.2c1.2-3.5,4.1-5.8,7.3-5.8c0.5,0,0.9,0.1,1.4,0.2v4.5 c-0.5-0.1-1-0.2-1.6-0.2c-3.4,0-5.8,2.6-6.5,6.2c-0.1,0.7-0.2,1.4-0.2,2.2V51h-4.8V32.8z"/><path fill="#FFFFFF" d="M95.4,51l-9.4-36.8h5l4.4,18.6c1.1,4.6,2.1,9.2,2.7,12.7h0.1c0.6-3.7,1.8-8,3-12.8l4.9-18.5h5l4.5,18.7 c1,4.4,2,8.7,2.6,12.6h0.1c0.8-4,1.8-8.1,3-12.7l4.9-18.5h4.9L120.6,51h-5L111,31.9c-1.1-4.7-1.9-8.3-2.4-12h-0.1 c-0.7,3.7-1.5,7.3-2.8,12L100.4,51H95.4z"/><path fill="#FFFFFF" d="M154.9,37.6c0,9.8-6.8,14-13.2,14c-7.2,0-12.7-5.2-12.7-13.6c0-8.8,5.8-14,13.1-14 C149.8,24,154.9,29.5,154.9,37.6z M133.9,37.9c0,5.8,3.3,10.1,8,10.1c4.6,0,8-4.3,8-10.3c0-4.5-2.2-10.1-7.9-10.1 C136.3,27.6,133.9,32.8,133.9,37.9z"/><path fill="#FFFFFF" d="M158.2,32.8c0-3.1-0.1-5.8-0.2-8.2h4.2l0.2,5.2h0.2c1.2-3.5,4.1-5.8,7.3-5.8c0.5,0,0.9,0.1,1.4,0.2v4.5 c-0.5-0.1-1-0.2-1.6-0.2c-3.4,0-5.8,2.6-6.5,6.2c-0.1,0.7-0.2,1.4-0.2,2.2V51h-4.8V32.8z"/><path fill="#FFFFFF" d="M173.5,12.3h4.8V51h-4.8V12.3z"/><path fill="#FFFFFF" d="M206.5,12.3v31.9c0,2.3,0.1,5,0.2,6.8h-4.3l-0.2-4.6H202c-1.5,2.9-4.7,5.2-9,5.2 c-6.4,0-11.3-5.4-11.3-13.4c-0.1-8.8,5.4-14.2,11.9-14.2c4,0,6.8,1.9,8,4h0.1V12.3H206.5z M201.7,35.4c0-0.6-0.1-1.4-0.2-2 c-0.7-3.1-3.3-5.6-6.9-5.6c-5,0-7.9,4.4-7.9,10.2c0,5.3,2.6,9.8,7.8,9.8c3.2,0,6.2-2.1,7.1-5.7c0.2-0.7,0.2-1.3,0.2-2.1V35.4z"/><path fill="#FFFFFF" d="M42.8,64c0.1,1.6-1.1,2.9-3.1,2.9c-1.7,0-2.9-1.3-2.9-2.9c0-1.7,1.3-3,3-3C41.7,61,42.8,62.3,42.8,64z M37.4,97.8V71.4h4.8v26.4H37.4z"/><path fill="#FFFFFF" d="M47.5,78.6c0-2.7-0.1-5-0.2-7.1h4.3l0.3,4.4h0.1c1.3-2.5,4.4-5,8.8-5c3.7,0,9.4,2.2,9.4,11.2v15.8h-4.8 V82.6c0-4.3-1.6-7.8-6.1-7.8c-3.2,0-5.6,2.2-6.5,4.9c-0.2,0.6-0.3,1.4-0.3,2.2v15.9h-4.8V78.6z"/><path fill="#FFFFFF" d="M84,61.6c2.9-0.4,6.3-0.8,10.1-0.8c6.8,0,11.7,1.6,14.9,4.6c3.3,3,5.2,7.3,5.2,13.2c0,6-1.9,10.9-5.3,14.3 c-3.4,3.4-9.1,5.3-16.3,5.3c-3.4,0-6.2-0.2-8.6-0.4V61.6z M88.8,94.1c1.2,0.2,3,0.3,4.8,0.3c10.2,0,15.7-5.7,15.7-15.6 c0.1-8.7-4.9-14.2-14.9-14.2c-2.5,0-4.3,0.2-5.6,0.5V94.1z"/><path fill="#FFFFFF" d="M132.1,97.8l-0.4-3.3h-0.2c-1.5,2.1-4.3,3.9-8.1,3.9c-5.4,0-8.1-3.8-8.1-7.6c0-6.4,5.7-9.9,15.9-9.8v-0.5 c0-2.2-0.6-6.1-6-6.1c-2.5,0-5,0.8-6.9,2l-1.1-3.2c2.2-1.4,5.4-2.3,8.7-2.3c8.1,0,10.1,5.5,10.1,10.8v9.9c0,2.3,0.1,4.5,0.4,6.3 H132.1z M131.4,84.4c-5.3-0.1-11.2,0.8-11.2,5.9c0,3.1,2.1,4.6,4.5,4.6c3.4,0,5.6-2.2,6.4-4.4c0.2-0.5,0.3-1,0.3-1.5V84.4z"/><path fill="#FFFFFF" d="M146.6,63.9v7.6h6.9v3.7h-6.9v14.2c0,3.3,0.9,5.1,3.6,5.1c1.3,0,2.2-0.2,2.8-0.3l0.2,3.6 c-0.9,0.4-2.4,0.7-4.3,0.7c-2.2,0-4-0.7-5.2-2c-1.4-1.4-1.9-3.8-1.9-6.9V75.1h-4.1v-3.7h4.1v-6.3L146.6,63.9z"/><path fill="#FFFFFF" d="M171.4,97.8l-0.4-3.3h-0.2c-1.5,2.1-4.3,3.9-8.1,3.9c-5.4,0-8.1-3.8-8.1-7.6c0-6.4,5.7-9.9,15.9-9.8v-0.5 c0-2.2-0.6-6.1-6-6.1c-2.5,0-5,0.8-6.9,2l-1.1-3.2c2.2-1.4,5.4-2.3,8.7-2.3c8.1,0,10.1,5.5,10.1,10.8v9.9c0,2.3,0.1,4.5,0.4,6.3 H171.4z M170.7,84.4c-5.3-0.1-11.2,0.8-11.2,5.9c0,3.1,2.1,4.6,4.5,4.6c3.4,0,5.6-2.2,6.4-4.4c0.2-0.5,0.3-1,0.3-1.5V84.4z"/></g></g></a></g><a href="https://ourworldindata.org/grapher/vaccinated-vs-neonatal-tetanus-incidence" target="_blank"><text font-size="21.60" x="15.0" y="32.3" fill="#555"><tspan x="15" y="32.279999999999994">Maternal tetanus vaccination % by neonatal tetanus incidence rate, 2007</tspan></text></a></g><g><g class="AxisBoxView"><g class="HorizontalAxis"><text font-size="12.60" x="112.6" y="554.0"><tspan x="112.559" y="553.98">Number of neonatal tetanus cases (WHO, 2017) per 100 000 people (population from wdi)</tspan></text><text x="69.8" y="533.9" fill="#666" text-anchor="middle" font-size="16.2">0</text><text x="231.1" y="533.9" fill="#666" text-anchor="middle" font-size="16.2">50</text><text x="392.4" y="533.9" fill="#666" text-anchor="middle" font-size="16.2">100</text><text x="553.7" y="533.9" fill="#666" text-anchor="middle" font-size="16.2">150</text><text x="715" y="533.9" fill="#666" text-anchor="middle" font-size="16.2">200</text></g><g class="VerticalAxis"><text font-size="12.60" x="-469.2" y="25.1" transform="rotate(-90)"><tspan x="-469.175" y="25.080000000000002">Protection against neonatal tetanus (share of neonates)</tspan></text><text x="64.82" y="512.7" fill="#666" dominant-baseline="middle" text-anchor="end" font-size="16.2">0</text><text x="64.82" y="424.2" fill="#666" dominant-baseline="middle" text-anchor="end" font-size="16.2">20</text><text x="64.82" y="335.6" fill="#666" dominant-baseline="middle" text-anchor="end" font-size="16.2">40</text><text x="64.82" y="247.1" fill="#666" dominant-baseline="middle" text-anchor="end" font-size="16.2">60</text><text x="64.82" y="158.5" fill="#666" dominant-baseline="middle" text-anchor="end" font-size="16.2">80</text><text x="64.82" y="70" fill="#666" dominant-baseline="middle" text-anchor="end" font-size="16.2">100</text></g><g class="AxisGridLines"><line x1="69.82" y1="512.7" x2="715.00" y2="512.7" stroke="#ccc"></line><line x1="69.82" y1="424.2" x2="715.00" y2="424.2" stroke="#ddd" stroke-dasharray="3,2"></line><line x1="69.82" y1="335.6" x2="715.00" y2="335.6" stroke="#ddd" stroke-dasharray="3,2"></line><line x1="69.82" y1="247.1" x2="715.00" y2="247.1" stroke="#ddd" stroke-dasharray="3,2"></line><line x1="69.82" y1="158.5" x2="715.00" y2="158.5" stroke="#ddd" stroke-dasharray="3,2"></line><line x1="69.82" y1="70" x2="715.00" y2="70" stroke="#ddd" stroke-dasharray="3,2"></line></g><g class="AxisGridLines"><line x1="69.8" y1="512.70" x2="69.8" y2="70.00" stroke="#ccc"></line><line x1="231.1" y1="512.70" x2="231.1" y2="70.00" stroke="#ddd" stroke-dasharray="3,2"></line><line x1="392.4" y1="512.70" x2="392.4" y2="70.00" stroke="#ddd" stroke-dasharray="3,2"></line><line x1="553.7" y1="512.70" x2="553.7" y2="70.00" stroke="#ddd" stroke-dasharray="3,2"></line><line x1="715" y1="512.70" x2="715" y2="70.00" stroke="#ddd" stroke-dasharray="3,2"></line></g></g><g clip-path="url(#scatterBounds-1)" font-family="Arial Narrow, Arial, sans-serif" class="PointsWithLabels clickable"><rect x="69.816" y="70" width="645.184" height="442.7" fill="rgba(255,255,255,0)"></rect><defs><clipPath id="scatterBounds-1"><rect x="59.816" y="60" width="665.184" height="462.7"></rect></clipPath></defs><g class="key-Haiti_0"><circle cx="82.00" cy="322.00" r="1.78" fill="#e2e2e2" opacity="0.8" stroke="#999" stroke-width="0.7"></circle></g><g class="key-Ghana_0"><circle cx="71.00" cy="132.00" r="1.78" fill="#e2e2e2" opacity="0.8" stroke="#fff" stroke-width="0.7"></circle></g><g class="key-Honduras_0"><circle cx="69.00" cy="96.00" r="1.78" fill="#e2e2e2" opacity="0.8" stroke="#fff" stroke-width="0.7"></circle></g><g class="key-Mexico_0"><circle cx="69.00" cy="127.00" r="1.78" fill="#e2e2e2" opacity="0.8" stroke="#fff" stroke-width="0.7"></circle></g><g class="key-Sierra-Leone_0"><circle cx="74.00" cy="96.00" r="1.78" fill="#e2e2e2" opacity="0.8" stroke="#fff" stroke-width="0.7"></circle></g><g class="key-Bahrain_0"><circle cx="69.00" cy="87.00" r="1.78" fill="#e2e2e2" opacity="0.8" stroke="#999" stroke-width="0.7"></circle></g><g class="key-Ecuador_0"><circle cx="70.00" cy="194.00" r="1.78" fill="#e2e2e2" opacity="0.8" stroke="#999" stroke-width="0.7"></circle></g><g class="key-Guatemala_0"><circle cx="70.00" cy="198.00" r="1.78" fill="#e2e2e2" opacity="0.8" stroke="#fff" stroke-width="0.7"></circle></g><g class="key-Philippines_0"><circle cx="74.00" cy="255.00" r="1.78" fill="#e2e2e2" opacity="0.8" stroke="#999" stroke-width="0.7"></circle></g><g class="key-Central-African-Republic_0"><circle cx="121.00" cy="273.00" r="1.78" fill="#e2e2e2" opacity="0.8" stroke="#999" stroke-width="0.7"></circle></g><g class="key-Indonesia_0"><circle cx="71.00" cy="145.00" r="1.78" fill="#e2e2e2" opacity="0.8" stroke="#fff" stroke-width="0.7"></circle></g><g class="key-Iraq_0"><circle cx="70.00" cy="207.00" r="1.78" fill="#e2e2e2" opacity="0.8" stroke="#999" stroke-width="0.7"></circle></g><g class="key-Sri-Lanka_0"><circle cx="69.00" cy="109.00" r="1.78" fill="#e2e2e2" opacity="0.8" stroke="#fff" stroke-width="0.7"></circle></g><g class="key-Malaysia_0"><circle cx="71.00" cy="127.00" r="1.78" fill="#e2e2e2" opacity="0.8" stroke="#fff" stroke-width="0.7"></circle></g><g class="key-Paraguay_0"><circle cx="69.00" cy="185.00" r="1.78" fill="#e2e2e2" opacity="0.8" stroke="#fff" stroke-width="0.7"></circle></g><g class="key-Thailand_0"><circle cx="70.00" cy="118.00" r="1.78" fill="#e2e2e2" opacity="0.8" stroke="#fff" stroke-width="0.7"></circle></g><g class="key-Tanzania_0"><circle cx="71.00" cy="154.00" r="1.78" fill="#e2e2e2" opacity="0.8" stroke="#999" stroke-width="0.7"></circle></g><g class="key-Bangladesh_0"><circle cx="74.00" cy="109.00" r="1.78" fill="#e2e2e2" opacity="0.8" stroke="#fff" stroke-width="0.7"></circle></g><g class="key-India_0"><circle cx="72.00" cy="132.00" r="1.78" fill="#e2e2e2" opacity="0.8" stroke="#fff" stroke-width="0.7"></circle></g><g class="key-Iran_0"><circle cx="70.00" cy="145.00" r="1.78" fill="#e2e2e2" opacity="0.8" stroke="#fff" stroke-width="0.7"></circle></g><g class="key-Myanmar_0"><circle cx="73.00" cy="101.00" r="1.78" fill="#e2e2e2" opacity="0.8" stroke="#fff" stroke-width="0.7"></circle></g><g class="key-Nepal_0"><circle cx="73.00" cy="140.00" r="1.78" fill="#e2e2e2" opacity="0.8" stroke="#fff" stroke-width="0.7"></circle></g><g class="key-Tunisia_0"><circle cx="69.00" cy="87.00" r="1.78" fill="#e2e2e2" opacity="0.8" stroke="#fff" stroke-width="0.7"></circle></g><g class="key-Colombia_0"><circle cx="70.00" cy="167.00" r="1.78" fill="#e2e2e2" opacity="0.8" stroke="#999" stroke-width="0.7"></circle></g><g class="key-Dominican-Republic_0"><circle cx="70.00" cy="136.00" r="1.78" fill="#e2e2e2" opacity="0.8" stroke="#fff" stroke-width="0.7"></circle></g><g class="key-Oman_0"><circle cx="69.00" cy="92.00" r="1.78" fill="#e2e2e2" opacity="0.8" stroke="#fff" stroke-width="0.7"></circle></g><g class="key-Syria_0"><circle cx="70.00" cy="105.00" r="1.78" fill="#e2e2e2" opacity="0.8" stroke="#fff" stroke-width="0.7"></circle></g><g class="key-Maldives_0"><circle cx="69.00" cy="96.00" r="1.78" fill="#e2e2e2" opacity="0.8" stroke="#fff" stroke-width="0.7"></circle></g><g class="key-Mauritius_0"><circle cx="69.00" cy="132.00" r="1.78" fill="#e2e2e2" opacity="0.8" stroke="#fff" stroke-width="0.7"></circle></g><g class="key-El-Salvador_0"><circle cx="69.00" cy="127.00" r="1.78" fill="#e2e2e2" opacity="0.8" stroke="#fff" stroke-width="0.7"></circle></g><g class="key-Ethiopia_0"><circle cx="72.00" cy="145.00" r="1.78" fill="#e2e2e2" opacity="0.8" stroke="#fff" stroke-width="0.7"></circle></g><g class="key-Jordan_0"><circle cx="69.00" cy="127.00" r="1.78" fill="#e2e2e2" opacity="0.8" stroke="#fff" stroke-width="0.7"></circle></g><g class="key-Liberia_0"><circle cx="81.00" cy="114.00" r="1.78" fill="#e2e2e2" opacity="0.8" stroke="#fff" stroke-width="0.7"></circle></g><g class="key-Pakistan_0"><circle cx="81.00" cy="167.00" r="1.78" fill="#e2e2e2" opacity="0.8" stroke="#fff" stroke-width="0.7"></circle></g><g class="key-Peru_0"><circle cx="70.00" cy="216.00" r="1.78" fill="#e2e2e2" opacity="0.8" stroke="#fff" stroke-width="0.7"></circle></g><g class="key-Gambia_0"><circle cx="69.00" cy="114.00" r="1.78" fill="#e2e2e2" opacity="0.8" stroke="#fff" stroke-width="0.7"></circle></g><g class="key-Mauritania_0"><circle cx="69.00" cy="171.00" r="1.78" fill="#e2e2e2" opacity="0.8" stroke="#fff" stroke-width="0.7"></circle></g><g class="key-Uganda_0"><circle cx="80.00" cy="136.00" r="1.78" fill="#e2e2e2" opacity="0.8" stroke="#fff" stroke-width="0.7"></circle></g><g class="key-Mali_0"><circle cx="74.00" cy="114.00" r="1.78" fill="#e2e2e2" opacity="0.8" stroke="#fff" stroke-width="0.7"></circle></g><g class="key-Nigeria_0"><circle cx="73.00" cy="233.00" r="1.78" fill="#e2e2e2" opacity="0.8" stroke="#999" stroke-width="0.7"></circle></g><g class="key-Nicaragua_0"><circle cx="69.00" cy="158.00" r="1.78" fill="#e2e2e2" opacity="0.8" stroke="#fff" stroke-width="0.7"></circle></g><g class="key-Sudan_0"><circle cx="87.00" cy="194.00" r="1.78" fill="#e2e2e2" opacity="0.8" stroke="#fff" stroke-width="0.7"></circle></g><g class="key-Somalia_0"><circle cx="78.00" cy="291.00" r="1.78" fill="#e2e2e2" opacity="0.8" stroke="#999" stroke-width="0.7"></circle></g><g class="key-Botswana_0"><circle cx="69.00" cy="140.00" r="1.78" fill="#e2e2e2" opacity="0.8" stroke="#fff" stroke-width="0.7"></circle></g><g class="key-Egypt_0"><circle cx="71.00" cy="136.00" r="1.78" fill="#e2e2e2" opacity="0.8" stroke="#fff" stroke-width="0.7"></circle></g><g class="key-Burkina-Faso_0"><circle cx="72.00" cy="158.00" r="1.78" fill="#e2e2e2" opacity="0.8" stroke="#fff" stroke-width="0.7"></circle></g><g class="key-Rwanda_0"><circle cx="70.00" cy="149.00" r="1.78" fill="#e2e2e2" opacity="0.8" stroke="#fff" stroke-width="0.7"></circle></g><g class="key-Belize_0"><circle cx="69.00" cy="127.00" r="1.78" fill="#e2e2e2" opacity="0.8" stroke="#fff" stroke-width="0.7"></circle></g><g class="key-Niger_0"><circle cx="74.00" cy="163.00" r="1.78" fill="#e2e2e2" opacity="0.8" stroke="#fff" stroke-width="0.7"></circle></g><g class="key-Madagascar_0"><circle cx="71.00" cy="194.00" r="1.78" fill="#e2e2e2" opacity="0.8" stroke="#fff" stroke-width="0.7"></circle></g><g class="key-Mozambique_0"><circle cx="72.00" cy="149.00" r="1.78" fill="#e2e2e2" opacity="0.8" stroke="#fff" stroke-width="0.7"></circle></g><g class="key-Burundi_0"><circle cx="75.00" cy="176.00" r="1.78" fill="#e2e2e2" opacity="0.8" stroke="#fff" stroke-width="0.7"></circle></g><g class="key-Angola_0"><circle cx="80.00" cy="167.00" r="1.78" fill="#e2e2e2" opacity="0.8" stroke="#fff" stroke-width="0.7"></circle></g><g class="key-Cambodia_0"><circle cx="81.00" cy="127.00" r="1.78" fill="#e2e2e2" opacity="0.8" stroke="#fff" stroke-width="0.7"></circle></g><g class="key-Malawi_0"><circle cx="71.00" cy="132.00" r="1.78" fill="#e2e2e2" opacity="0.8" stroke="#fff" stroke-width="0.7"></circle></g><g class="key-Vanuatu_0"><circle cx="69.00" cy="189.00" r="1.78" fill="#e2e2e2" opacity="0.8" stroke="#fff" stroke-width="0.7"></circle></g><g class="key-Guinea__002dBissau_0"><circle cx="78.00" cy="105.00" r="1.78" fill="#e2e2e2" opacity="0.8" stroke="#fff" stroke-width="0.7"></circle></g><g class="key-Solomon-Islands_0"><circle cx="69.00" cy="140.00" r="1.78" fill="#e2e2e2" opacity="0.8" stroke="#fff" stroke-width="0.7"></circle></g><g class="key-Comoros_0"><circle cx="74.00" cy="118.00" r="1.78" fill="#e2e2e2" opacity="0.8" stroke="#fff" stroke-width="0.7"></circle></g><g class="key-Cameroon_0"><circle cx="78.00" cy="145.00" r="1.78" fill="#e2e2e2" opacity="0.8" stroke="#fff" stroke-width="0.7"></circle></g><g class="key-Djibouti_0"><circle cx="69.00" cy="163.00" r="1.78" fill="#e2e2e2" opacity="0.8" stroke="#fff" stroke-width="0.7"></circle></g><g class="key-Bhutan_0"><circle cx="69.00" cy="140.00" r="1.78" fill="#e2e2e2" opacity="0.8" stroke="#fff" stroke-width="0.7"></circle></g><g class="key-Democratic-Republic-of-Congo_0"><circle cx="90.00" cy="202.00" r="1.78" fill="#e2e2e2" opacity="0.8" stroke="#fff" stroke-width="0.7"></circle></g><g class="key-Zimbabwe_0"><circle cx="71.00" cy="167.00" r="1.78" fill="#e2e2e2" opacity="0.8" stroke="#fff" stroke-width="0.7"></circle></g><g class="key-Gabon_0"><circle cx="69.00" cy="216.00" r="1.78" fill="#e2e2e2" opacity="0.8" stroke="#fff" stroke-width="0.7"></circle></g><g class="key-Equatorial-Guinea_0"><circle cx="73.00" cy="238.00" r="1.78" fill="#e2e2e2" opacity="0.8" stroke="#fff" stroke-width="0.7"></circle></g><g class="key-Senegal_0"><circle cx="77.00" cy="136.00" r="1.78" fill="#e2e2e2" opacity="0.8" stroke="#fff" stroke-width="0.7"></circle></g><g class="key-Laos_0"><circle cx="77.00" cy="304.00" r="1.78" fill="#e2e2e2" opacity="0.8" stroke="#999" stroke-width="0.7"></circle></g><g class="key-Kenya_0"><circle cx="74.00" cy="185.00" r="1.78" fill="#e2e2e2" opacity="0.8" stroke="#fff" stroke-width="0.7"></circle></g><g class="key-Yemen_0"><circle cx="76.00" cy="282.00" r="1.78" fill="#e2e2e2" opacity="0.8" stroke="#fff" stroke-width="0.7"></circle></g><g class="key-Congo_0"><circle cx="72.00" cy="149.00" r="1.78" fill="#e2e2e2" opacity="0.8" stroke="#fff" stroke-width="0.7"></circle></g><g class="key-Guinea_0"><circle cx="78.00" cy="92.00" r="1.78" fill="#e2e2e2" opacity="0.8" stroke="#fff" stroke-width="0.7"></circle></g><g class="key-Seychelles_0"><circle cx="69.00" cy="70.00" r="1.78" fill="#e2e2e2" opacity="0.8" stroke="#fff" stroke-width="0.7"></circle></g><g class="key-Benin_0"><circle cx="73.00" cy="101.00" r="1.78" fill="#e2e2e2" opacity="0.8" stroke="#fff" stroke-width="0.7"></circle></g><g class="key-Zambia_0"><circle cx="69.00" cy="118.00" r="1.78" fill="#e2e2e2" opacity="0.8" stroke="#fff" stroke-width="0.7"></circle></g><g class="key-Bahamas_0"><circle cx="69.00" cy="74.00" r="1.78" fill="#e2e2e2" opacity="0.8" stroke="#fff" stroke-width="0.7"></circle></g><g class="key-Bolivia_0"><circle cx="70.00" cy="198.00" r="1.78" fill="#e2e2e2" opacity="0.8" stroke="#fff" stroke-width="0.7"></circle></g><g class="key-Suriname_0"><circle cx="69.00" cy="101.00" r="1.78" fill="#e2e2e2" opacity="0.8" stroke="#fff" stroke-width="0.7"></circle></g><g class="key-Chad_0"><circle cx="99.00" cy="247.00" r="1.78" fill="#e2e2e2" opacity="0.8" stroke="#fff" stroke-width="0.7"></circle></g><g class="key-Brazil_0"><circle cx="69.00" cy="105.00" r="1.78" fill="#e2e2e2" opacity="0.8" stroke="#fff" stroke-width="0.7"></circle></g><g class="key-Morocco_0"><circle cx="70.00" cy="123.00" r="1.78" fill="#e2e2e2" opacity="0.8" stroke="#999" stroke-width="0.7"></circle></g><g class="key-Cape-Verde_0"><circle cx="69.00" cy="171.00" r="1.78" fill="#e2e2e2" opacity="0.8" stroke="#fff" stroke-width="0.7"></circle></g><g class="key-Turkey_0"><circle cx="70.00" cy="202.00" r="1.78" fill="#e2e2e2" opacity="0.8" stroke="#fff" stroke-width="0.7"></circle></g><g class="key-Togo_0"><circle cx="79.00" cy="149.00" r="1.78" fill="#e2e2e2" opacity="0.8" stroke="#fff" stroke-width="0.7"></circle></g><g class="key-Vietnam_0"><circle cx="71.00" cy="132.00" r="1.78" fill="#e2e2e2" opacity="0.8" stroke="#fff" stroke-width="0.7"></circle></g><g class="key-Cote-d__0027Ivoire_0"><circle cx="75.00" cy="185.00" r="1.78" fill="#e2e2e2" opacity="0.8" stroke="#fff" stroke-width="0.7"></circle></g><g class="key-Algeria_0"><circle cx="70.00" cy="202.00" r="1.78" fill="#e2e2e2" opacity="0.8" stroke="#fff" stroke-width="0.7"></circle></g><g class="key-North-Korea_0"><circle cx="69.00" cy="109.00" r="1.78" fill="#e2e2e2" opacity="0.8" stroke="#fff" stroke-width="0.7"></circle></g><g class="key-Albania_0"><circle cx="69.00" cy="127.00" r="1.78" fill="#e2e2e2" opacity="0.8" stroke="#fff" stroke-width="0.7"></circle></g><g class="key-Fiji_0"><circle cx="69.00" cy="96.00" r="1.78" fill="#e2e2e2" opacity="0.8" stroke="#fff" stroke-width="0.7"></circle></g><g class="key-Namibia_0"><circle cx="93.00" cy="149.00" r="1.78" fill="#e2e2e2" opacity="0.8" stroke="#fff" stroke-width="0.7"></circle></g><g class="key-Lesotho_0"><circle cx="69.00" cy="149.00" r="1.78" fill="#e2e2e2" opacity="0.8" stroke="#fff" stroke-width="0.7"></circle></g><g class="key-South-Africa_0"><circle cx="70.00" cy="194.00" r="1.78" fill="#e2e2e2" opacity="0.8" stroke="#fff" stroke-width="0.7"></circle></g><g class="key-Jamaica_0"><circle cx="69.00" cy="273.00" r="1.78" fill="#e2e2e2" opacity="0.8" stroke="#999" stroke-width="0.7"></circle></g><g class="key-Venezuela_0"><circle cx="69.00" cy="286.00" r="1.78" fill="#e2e2e2" opacity="0.8" stroke="#fff" stroke-width="0.7"></circle></g><g class="key-Timor_0"><circle cx="81.00" cy="251.00" r="1.78" fill="#e2e2e2" opacity="0.8" stroke="#fff" stroke-width="0.7"></circle></g><g class="key-Kiribati_0"><circle cx="69.00" cy="322.00" r="1.78" fill="#e2e2e2" opacity="0.8" stroke="#fff" stroke-width="0.7"></circle></g><g class="key-Sao-Tome-and-Principe_0"><circle cx="69.00" cy="78.00" r="1.78" fill="#e2e2e2" opacity="0.8" stroke="#fff" stroke-width="0.7"></circle></g><g fill="#aaa" class="backgroundLabels"><text x="82.00" y="319.22" font-size="11.00">Haiti</text><text x="69.00" y="84.22" font-size="11.00">Bahrain</text><text x="70.00" y="191.22" font-size="11.00">Ecuador</text><text x="74.00" y="252.22" font-size="11.00">Philippines</text><text x="121.00" y="270.22" font-size="11.00">Central African Republic</text><text x="70.00" y="204.22" font-size="11.00">Iraq</text><text x="71.00" y="151.22" font-size="11.00">Tanzania</text><text x="70.00" y="164.22" font-size="11.00">Colombia</text><text x="73.00" y="230.22" font-size="11.00">Nigeria</text><text x="78.00" y="288.22" font-size="11.00">Somalia</text><text x="77.00" y="301.22" font-size="11.00">Laos</text><text x="70.00" y="120.22" font-size="11.00">Morocco</text><text x="69.00" y="270.22" font-size="11.00">Jamaica</text></g><g class="key-Afghanistan_0"><circle cx="74.00" cy="140.00" fill="none" stroke="#d14e5b" r="4.78"></circle><circle cx="74.00" cy="140.00" r="1.78" fill="#d14e5b" opacity="0.8" stroke="#333" stroke-width="0.7"></circle></g><g class="key-Guyana_0"><circle cx="69.00" cy="109.00" fill="none" stroke="#69c487" r="4.78"></circle><circle cx="69.00" cy="109.00" r="1.78" fill="#69c487" opacity="0.8" stroke="#333" stroke-width="0.7"></circle></g><text x="74.00" y="137.22" font-size="13" font-family="Arial Narrow, Arial, sans-serif" fill="#333">Afghanistan</text><text x="69.00" y="106.22" font-size="13" font-family="Arial Narrow, Arial, sans-serif" fill="#333">Guyana</text></g><g style="cursor: pointer;" class="ScatterColorLegend clickable"><g fill="#ccc" class="legendMark"><rect x="735" y="67.5" width="43.256" height="17.6" fill="#fff" opacity="0"></rect>,<rect x="735" y="73" width="6" height="6"></rect>,<text font-size="12.60" x="746.0" y="80.1"><tspan x="746" y="80.08">Africa</tspan></text></g><g class="legendMark"><rect x="735" y="85.1" width="35.57" height="17.6" fill="#fff" opacity="0"></rect>,<rect x="735" y="90.6" width="6" height="6" fill="#d14e5b"></rect>,<text font-size="12.60" x="746.0" y="97.7"><tspan x="746" y="97.67999999999999">Asia</tspan></text></g><g fill="#ccc" class="legendMark"><rect x="735" y="102.7" width="51.824" height="17.6" fill="#fff" opacity="0"></rect>,<rect x="735" y="108.2" width="6" height="6"></rect>,<text font-size="12.60" x="746.0" y="115.3"><tspan x="746" y="115.28">Europe</tspan></text></g><g fill="#ccc" class="legendMark"><rect x="735" y="120.30000000000001" width="91.64" height="17.6" fill="#fff" opacity="0"></rect>,<rect x="735" y="125.80000000000001" width="6" height="6"></rect>,<text font-size="12.60" x="746.0" y="132.9"><tspan x="746" y="132.88">North America</tspan></text></g><g fill="#ccc" class="legendMark"><rect x="735" y="137.9" width="58.124" height="17.6" fill="#fff" opacity="0"></rect>,<rect x="735" y="143.4" width="6" height="6"></rect>,<text font-size="12.60" x="746.0" y="150.5"><tspan x="746" y="150.48">Oceania</tspan></text></g><g class="legendMark"><rect x="735" y="155.5" width="93.908" height="17.6" fill="#fff" opacity="0"></rect>,<rect x="735" y="161" width="6" height="6" fill="#69c487"></rect>,<text font-size="12.60" x="746.0" y="168.1"><tspan x="746" y="168.07999999999998">South America</tspan></text></g></g></g><g style="fill: #777;" class="SourcesFooter"><g style="fill: #777;" class="clickable"><text font-size="12.60" x="15.0" y="581.6"><tspan x="15" y="581.58">Source: WHO GHO (2016)</tspan></text></g><text font-size="12.60" x="775.4" y="581.6"><tspan x="775.402" y="581.58"><a style="fill: #777;" class="cclogo" href="http://creativecommons.org/licenses/by-sa/4.0/deed.en_US" target="_blank">CC BY-SA</a></tspan></text></g></g></svg>