<svg xmlns="http://www.w3.org/2000/svg" version="1.1" style="font-family:Lato, &#x27;Helvetica Neue&#x27;, Helvetica, Arial, sans-serif;font-size:18px;background-color:white;text-rendering:optimizeLegibility;-webkit-font-smoothing:antialiased" width="850" height="600"><g class="HeaderView"><a href="https://ourworldindata.org/grapher/wages-relative-to-the-cost-of-capital" target="_blank"><text font-size="21.60" x="15.0" y="32.3" fill="#555"><tspan x="15" y="32.279999999999994">Wages relative to the cost of capital (late sixteenth to the early nineteenth century)</tspan></text></a><text font-size="14.40" x="15.0" y="50.1" fill="#666"><tspan x="15" y="50.11999999999999">Unit 2 &#x27;Technology, population, and growth’ Section 2.6 &#x27;The British Industrial Revolution and incentives for new technologies&#x27;</tspan><tspan x="15" y="65.96">in The CORE Team, The Economy. Available at: https://tinyco.re/2183446 [Figure 2.11]</tspan></text></g><g class="LineChart"><defs><clipPath id="boundsClip-13"><rect x="32.68" y="0" width="830" height="912.6"></rect></clipPath></defs><g class="AxisBoxView"><g class="HorizontalAxis"><text x="42.7" y="542.8" fill="#666" text-anchor="middle" font-size="16.2">1582</text><text x="91.2" y="542.8" fill="#666" text-anchor="middle" font-size="16.2">1600</text><text x="226.1" y="542.8" fill="#666" text-anchor="middle" font-size="16.2">1650</text><text x="361" y="542.8" fill="#666" text-anchor="middle" font-size="16.2">1700</text><text x="495.9" y="542.8" fill="#666" text-anchor="middle" font-size="16.2">1750</text><text x="630.8" y="542.8" fill="#666" text-anchor="middle" font-size="16.2">1800</text><text x="703.6" y="542.8" fill="#666" text-anchor="middle" font-size="16.2">1827</text></g><g class="VerticalAxis"><text x="37.68" y="521.6" fill="#666" dominant-baseline="middle" text-anchor="end" font-size="16.2">0</text><text x="37.68" y="471.4" fill="#666" dominant-baseline="middle" text-anchor="end" font-size="16.2">0.2</text><text x="37.68" y="421.2" fill="#666" dominant-baseline="middle" text-anchor="end" font-size="16.2">0.4</text><text x="37.68" y="371" fill="#666" dominant-baseline="middle" text-anchor="end" font-size="16.2">0.6</text><text x="37.68" y="320.8" fill="#666" dominant-baseline="middle" text-anchor="end" font-size="16.2">0.8</text><text x="37.68" y="270.6" fill="#666" dominant-baseline="middle" text-anchor="end" font-size="16.2">1</text><text x="37.68" y="220.4" fill="#666" dominant-baseline="middle" text-anchor="end" font-size="16.2">1.2</text><text x="37.68" y="170.2" fill="#666" dominant-baseline="middle" text-anchor="end" font-size="16.2">1.4</text><text x="37.68" y="120" fill="#666" dominant-baseline="middle" text-anchor="end" font-size="16.2">1.6</text></g><g class="AxisGridLines"><line x1="42.68" y1="521.6" x2="703.61" y2="521.6" stroke="#ccc"></line><line x1="42.68" y1="471.4" x2="703.61" y2="471.4" stroke="#ddd" stroke-dasharray="3,2"></line><line x1="42.68" y1="421.2" x2="703.61" y2="421.2" stroke="#ddd" stroke-dasharray="3,2"></line><line x1="42.68" y1="371" x2="703.61" y2="371" stroke="#ddd" stroke-dasharray="3,2"></line><line x1="42.68" y1="320.8" x2="703.61" y2="320.8" stroke="#ddd" stroke-dasharray="3,2"></line><line x1="42.68" y1="270.6" x2="703.61" y2="270.6" stroke="#ddd" stroke-dasharray="3,2"></line><line x1="42.68" y1="220.4" x2="703.61" y2="220.4" stroke="#ddd" stroke-dasharray="3,2"></line><line x1="42.68" y1="170.2" x2="703.61" y2="170.2" stroke="#ddd" stroke-dasharray="3,2"></line><line x1="42.68" y1="120" x2="703.61" y2="120" stroke="#ddd" stroke-dasharray="3,2"></line></g></g><g clip-path="url(#boundsClip-13)"><g class="HeightedLegend"><g class="legendMark"><rect x="703.61" y="79.75" width="131.39" height="13.5" fill="#fff" opacity="0"></rect><text font-size="13.50" x="708.6" y="90.5" fill="#3360a9"><tspan x="708.61" y="90.55">United Kingdom</tspan></text></g><g class="legendMark"><rect x="703.61" y="282.95" width="77.12" height="13.5" fill="#fff" opacity="0"></rect><text font-size="13.50" x="708.6" y="293.8" fill="#ce8ebd"><tspan x="708.61" y="293.75">France</tspan></text></g></g><g class="Lines"><rect x="43" y="87" width="661" height="435" fill="rgba(255,255,255,0)" opacity="0"></rect><g class="key-France_0"><path stroke="#ce8ebd" stroke-linecap="round" d="M43 237L45 238L48 239L51 248L54 248L56 248L59 249L62 250L64 248L67 247L70 247L72 246L75 247L78 249L80 250L83 250L86 249L89 248L91 245L94 239L97 234L99 229L102 223L105 221L107 222L110 222L113 222L116 222L118 223L121 226L124 229L126 232L129 235L132 238L134 238L137 238L140 238L143 238L145 238L148 238L151 238L153 238L156 243L159 249L161 254L164 260L167 265L170 265L172 265L175 265L178 265L180 265L183 265L186 265L188 265L191 265L194 265L196 265L199 265L202 265L205 265L207 265L210 268L213 271L215 273L218 276L221 280L223 285L226 290L229 294L232 298L234 299L237 299L240 298L242 299L245 300L248 301L250 302L253 303L256 304L259 304L261 304L264 304L267 303L269 302L272 301L275 302L277 302L280 302L283 303L286 303L288 303L291 302L294 301L296 299L299 299L302 298L304 298L307 299L310 298L312 296L315 294L318 292L321 291L323 292L326 292L329 293L331 295L334 294L337 294L339 294L342 293L345 292L348 292L350 292L353 290L356 291L358 289L361 287L364 286L366 285L369 285L372 286L375 286L377 288L380 286L383 283L385 282L388 281L391 278L393 279L396 280L399 281L402 280L404 277L407 276L410 276L412 276L415 276L418 278L420 279L423 278L426 283L428 288L431 293L434 297L437 304L439 305L442 306L445 308L447 310L450 311L453 311L455 312L458 312L461 311L464 310L466 310L469 310L472 311L474 313L477 314L480 316L482 317L485 319L488 317L491 315L493 312L496 310L499 308L501 307L504 306L507 306L509 306L512 305L515 305L518 306L520 306L523 306L526 307L528 308L531 306L534 298L536 290L539 281L542 271L544 265L547 271L550 276L553 282L555 288L558 294L561 294L563 294L566 293L569 294L571 294L574 294L577 293L580 292L582 294L585 295L588 297L590 300L593 301L596 299L598 298L601 295L604 291L607 287L609 284L612 280L615 277L617 274L620 270L623 267L625 263L628 260L631 257L634 254L636 252L639 252L642 254L644 255L647 257L650 261L652 263L655 262L658 263L660 264L663 261L666 260L669 260L671 261L674 258L677 259L679 261L682 261L685 259L687 260L690 260L693 259L696 266L698 276L701 283L704 290" fill="none" stroke-width="1.5"></path><g fill="#ce8ebd"><circle cx="43" cy="237" r="2"></circle><circle cx="45" cy="238" r="2"></circle><circle cx="48" cy="239" r="2"></circle><circle cx="51" cy="248" r="2"></circle><circle cx="54" cy="248" r="2"></circle><circle cx="56" cy="248" r="2"></circle><circle cx="59" cy="249" r="2"></circle><circle cx="62" cy="250" r="2"></circle><circle cx="64" cy="248" r="2"></circle><circle cx="67" cy="247" r="2"></circle><circle cx="70" cy="247" r="2"></circle><circle cx="72" cy="246" r="2"></circle><circle cx="75" cy="247" r="2"></circle><circle cx="78" cy="249" r="2"></circle><circle cx="80" cy="250" r="2"></circle><circle cx="83" cy="250" r="2"></circle><circle cx="86" cy="249" r="2"></circle><circle cx="89" cy="248" r="2"></circle><circle cx="91" cy="245" r="2"></circle><circle cx="94" cy="239" r="2"></circle><circle cx="97" cy="234" r="2"></circle><circle cx="99" cy="229" r="2"></circle><circle cx="102" cy="223" r="2"></circle><circle cx="105" cy="221" r="2"></circle><circle cx="107" cy="222" r="2"></circle><circle cx="110" cy="222" r="2"></circle><circle cx="113" cy="222" r="2"></circle><circle cx="116" cy="222" r="2"></circle><circle cx="118" cy="223" r="2"></circle><circle cx="121" cy="226" r="2"></circle><circle cx="124" cy="229" r="2"></circle><circle cx="126" cy="232" r="2"></circle><circle cx="129" cy="235" r="2"></circle><circle cx="132" cy="238" r="2"></circle><circle cx="134" cy="238" r="2"></circle><circle cx="137" cy="238" r="2"></circle><circle cx="140" cy="238" r="2"></circle><circle cx="143" cy="238" r="2"></circle><circle cx="145" cy="238" r="2"></circle><circle cx="148" cy="238" r="2"></circle><circle cx="151" cy="238" r="2"></circle><circle cx="153" cy="238" r="2"></circle><circle cx="156" cy="243" r="2"></circle><circle cx="159" cy="249" r="2"></circle><circle cx="161" cy="254" r="2"></circle><circle cx="164" cy="260" r="2"></circle><circle cx="167" cy="265" r="2"></circle><circle cx="170" cy="265" r="2"></circle><circle cx="172" cy="265" r="2"></circle><circle cx="175" cy="265" r="2"></circle><circle cx="178" cy="265" r="2"></circle><circle cx="180" cy="265" r="2"></circle><circle cx="183" cy="265" r="2"></circle><circle cx="186" cy="265" r="2"></circle><circle cx="188" cy="265" r="2"></circle><circle cx="191" cy="265" r="2"></circle><circle cx="194" cy="265" r="2"></circle><circle cx="196" cy="265" r="2"></circle><circle cx="199" cy="265" r="2"></circle><circle cx="202" cy="265" r="2"></circle><circle cx="205" cy="265" r="2"></circle><circle cx="207" cy="265" r="2"></circle><circle cx="210" cy="268" r="2"></circle><circle cx="213" cy="271" r="2"></circle><circle cx="215" cy="273" r="2"></circle><circle cx="218" cy="276" r="2"></circle><circle cx="221" cy="280" r="2"></circle><circle cx="223" cy="285" r="2"></circle><circle cx="226" cy="290" r="2"></circle><circle cx="229" cy="294" r="2"></circle><circle cx="232" cy="298" r="2"></circle><circle cx="234" cy="299" r="2"></circle><circle cx="237" cy="299" r="2"></circle><circle cx="240" cy="298" r="2"></circle><circle cx="242" cy="299" r="2"></circle><circle cx="245" cy="300" r="2"></circle><circle cx="248" cy="301" r="2"></circle><circle cx="250" cy="302" r="2"></circle><circle cx="253" cy="303" r="2"></circle><circle cx="256" cy="304" r="2"></circle><circle cx="259" cy="304" r="2"></circle><circle cx="261" cy="304" r="2"></circle><circle cx="264" cy="304" r="2"></circle><circle cx="267" cy="303" r="2"></circle><circle cx="269" cy="302" r="2"></circle><circle cx="272" cy="301" r="2"></circle><circle cx="275" cy="302" r="2"></circle><circle cx="277" cy="302" r="2"></circle><circle cx="280" cy="302" r="2"></circle><circle cx="283" cy="303" r="2"></circle><circle cx="286" cy="303" r="2"></circle><circle cx="288" cy="303" r="2"></circle><circle cx="291" cy="302" r="2"></circle><circle cx="294" cy="301" r="2"></circle><circle cx="296" cy="299" r="2"></circle><circle cx="299" cy="299" r="2"></circle><circle cx="302" cy="298" r="2"></circle><circle cx="304" cy="298" r="2"></circle><circle cx="307" cy="299" r="2"></circle><circle cx="310" cy="298" r="2"></circle><circle cx="312" cy="296" r="2"></circle><circle cx="315" cy="294" r="2"></circle><circle cx="318" cy="292" r="2"></circle><circle cx="321" cy="291" r="2"></circle><circle cx="323" cy="292" r="2"></circle><circle cx="326" cy="292" r="2"></circle><circle cx="329" cy="293" r="2"></circle><circle cx="331" cy="295" r="2"></circle><circle cx="334" cy="294" r="2"></circle><circle cx="337" cy="294" r="2"></circle><circle cx="339" cy="294" r="2"></circle><circle cx="342" cy="293" r="2"></circle><circle cx="345" cy="292" r="2"></circle><circle cx="348" cy="292" r="2"></circle><circle cx="350" cy="292" r="2"></circle><circle cx="353" cy="290" r="2"></circle><circle cx="356" cy="291" r="2"></circle><circle cx="358" cy="289" r="2"></circle><circle cx="361" cy="287" r="2"></circle><circle cx="364" cy="286" r="2"></circle><circle cx="366" cy="285" r="2"></circle><circle cx="369" cy="285" r="2"></circle><circle cx="372" cy="286" r="2"></circle><circle cx="375" cy="286" r="2"></circle><circle cx="377" cy="288" r="2"></circle><circle cx="380" cy="286" r="2"></circle><circle cx="383" cy="283" r="2"></circle><circle cx="385" cy="282" r="2"></circle><circle cx="388" cy="281" r="2"></circle><circle cx="391" cy="278" r="2"></circle><circle cx="393" cy="279" r="2"></circle><circle cx="396" cy="280" r="2"></circle><circle cx="399" cy="281" r="2"></circle><circle cx="402" cy="280" r="2"></circle><circle cx="404" cy="277" r="2"></circle><circle cx="407" cy="276" r="2"></circle><circle cx="410" cy="276" r="2"></circle><circle cx="412" cy="276" r="2"></circle><circle cx="415" cy="276" r="2"></circle><circle cx="418" cy="278" r="2"></circle><circle cx="420" cy="279" r="2"></circle><circle cx="423" cy="278" r="2"></circle><circle cx="426" cy="283" r="2"></circle><circle cx="428" cy="288" r="2"></circle><circle cx="431" cy="293" r="2"></circle><circle cx="434" cy="297" r="2"></circle><circle cx="437" cy="304" r="2"></circle><circle cx="439" cy="305" r="2"></circle><circle cx="442" cy="306" r="2"></circle><circle cx="445" cy="308" r="2"></circle><circle cx="447" cy="310" r="2"></circle><circle cx="450" cy="311" r="2"></circle><circle cx="453" cy="311" r="2"></circle><circle cx="455" cy="312" r="2"></circle><circle cx="458" cy="312" r="2"></circle><circle cx="461" cy="311" r="2"></circle><circle cx="464" cy="310" r="2"></circle><circle cx="466" cy="310" r="2"></circle><circle cx="469" cy="310" r="2"></circle><circle cx="472" cy="311" r="2"></circle><circle cx="474" cy="313" r="2"></circle><circle cx="477" cy="314" r="2"></circle><circle cx="480" cy="316" r="2"></circle><circle cx="482" cy="317" r="2"></circle><circle cx="485" cy="319" r="2"></circle><circle cx="488" cy="317" r="2"></circle><circle cx="491" cy="315" r="2"></circle><circle cx="493" cy="312" r="2"></circle><circle cx="496" cy="310" r="2"></circle><circle cx="499" cy="308" r="2"></circle><circle cx="501" cy="307" r="2"></circle><circle cx="504" cy="306" r="2"></circle><circle cx="507" cy="306" r="2"></circle><circle cx="509" cy="306" r="2"></circle><circle cx="512" cy="305" r="2"></circle><circle cx="515" cy="305" r="2"></circle><circle cx="518" cy="306" r="2"></circle><circle cx="520" cy="306" r="2"></circle><circle cx="523" cy="306" r="2"></circle><circle cx="526" cy="307" r="2"></circle><circle cx="528" cy="308" r="2"></circle><circle cx="531" cy="306" r="2"></circle><circle cx="534" cy="298" r="2"></circle><circle cx="536" cy="290" r="2"></circle><circle cx="539" cy="281" r="2"></circle><circle cx="542" cy="271" r="2"></circle><circle cx="544" cy="265" r="2"></circle><circle cx="547" cy="271" r="2"></circle><circle cx="550" cy="276" r="2"></circle><circle cx="553" cy="282" r="2"></circle><circle cx="555" cy="288" r="2"></circle><circle cx="558" cy="294" r="2"></circle><circle cx="561" cy="294" r="2"></circle><circle cx="563" cy="294" r="2"></circle><circle cx="566" cy="293" r="2"></circle><circle cx="569" cy="294" r="2"></circle><circle cx="571" cy="294" r="2"></circle><circle cx="574" cy="294" r="2"></circle><circle cx="577" cy="293" r="2"></circle><circle cx="580" cy="292" r="2"></circle><circle cx="582" cy="294" r="2"></circle><circle cx="585" cy="295" r="2"></circle><circle cx="588" cy="297" r="2"></circle><circle cx="590" cy="300" r="2"></circle><circle cx="593" cy="301" r="2"></circle><circle cx="596" cy="299" r="2"></circle><circle cx="598" cy="298" r="2"></circle><circle cx="601" cy="295" r="2"></circle><circle cx="604" cy="291" r="2"></circle><circle cx="607" cy="287" r="2"></circle><circle cx="609" cy="284" r="2"></circle><circle cx="612" cy="280" r="2"></circle><circle cx="615" cy="277" r="2"></circle><circle cx="617" cy="274" r="2"></circle><circle cx="620" cy="270" r="2"></circle><circle cx="623" cy="267" r="2"></circle><circle cx="625" cy="263" r="2"></circle><circle cx="628" cy="260" r="2"></circle><circle cx="631" cy="257" r="2"></circle><circle cx="634" cy="254" r="2"></circle><circle cx="636" cy="252" r="2"></circle><circle cx="639" cy="252" r="2"></circle><circle cx="642" cy="254" r="2"></circle><circle cx="644" cy="255" r="2"></circle><circle cx="647" cy="257" r="2"></circle><circle cx="650" cy="261" r="2"></circle><circle cx="652" cy="263" r="2"></circle><circle cx="655" cy="262" r="2"></circle><circle cx="658" cy="263" r="2"></circle><circle cx="660" cy="264" r="2"></circle><circle cx="663" cy="261" r="2"></circle><circle cx="666" cy="260" r="2"></circle><circle cx="669" cy="260" r="2"></circle><circle cx="671" cy="261" r="2"></circle><circle cx="674" cy="258" r="2"></circle><circle cx="677" cy="259" r="2"></circle><circle cx="679" cy="261" r="2"></circle><circle cx="682" cy="261" r="2"></circle><circle cx="685" cy="259" r="2"></circle><circle cx="687" cy="260" r="2"></circle><circle cx="690" cy="260" r="2"></circle><circle cx="693" cy="259" r="2"></circle><circle cx="696" cy="266" r="2"></circle><circle cx="698" cy="276" r="2"></circle><circle cx="701" cy="283" r="2"></circle><circle cx="704" cy="290" r="2"></circle></g></g><g class="key-United-Kingdom_0"><path stroke="#3360a9" stroke-linecap="round" d="M43 282L45 281L48 284L51 288L54 288L56 288L59 286L62 286L64 283L67 283L70 284L72 287L75 289L78 291L80 294L83 295L86 293L89 293L91 292L94 291L97 293L99 300L102 303L105 307L107 310L110 311L113 306L116 303L118 303L121 301L124 300L126 301L129 303L132 305L134 304L137 304L140 306L143 307L145 305L148 306L151 307L153 302L156 298L159 292L161 286L164 280L167 277L170 274L172 274L175 274L178 273L180 272L183 271L186 271L188 270L191 271L194 267L196 264L199 260L202 256L205 255L207 257L210 257L213 257L215 254L218 252L221 255L223 247L226 241L229 237L232 231L234 225L237 229L240 233L242 238L245 241L248 242L250 243L253 242L256 241L259 242L261 242L264 243L267 242L269 242L272 241L275 241L277 241L280 242L283 243L286 244L288 244L291 244L294 244L296 244L299 244L302 244L304 244L307 244L310 245L312 244L315 244L318 242L321 241L323 239L326 238L329 237L331 238L334 239L337 240L339 238L342 236L345 235L348 234L350 232L353 234L356 235L358 235L361 233L364 230L366 226L369 222L372 216L375 213L377 211L380 208L383 208L385 207L388 207L391 207L393 206L396 201L399 196L402 192L404 189L407 188L410 190L412 192L415 194L418 194L420 194L423 195L426 197L428 199L431 202L434 205L437 206L439 205L442 200L445 195L447 190L450 184L453 180L455 178L458 176L461 175L464 174L466 174L469 174L472 174L474 172L477 171L480 170L482 168L485 167L488 167L491 167L493 168L496 168L499 168L501 168L504 168L507 168L509 170L512 171L515 172L518 173L520 172L523 171L526 170L528 169L531 169L534 169L536 169L539 169L542 169L544 169L547 170L550 172L553 174L555 172L558 171L561 168L563 162L566 156L569 153L571 151L574 148L577 148L580 148L582 150L585 150L588 150L590 150L593 150L596 148L598 149L601 155L604 160L607 166L609 169L612 171L615 168L617 168L620 168L623 170L625 174L628 169L631 173L634 158L636 145L639 144L642 152L644 139L647 142L650 150L652 139L655 130L658 129L660 128L663 122L666 120L669 110L671 106L674 105L677 105L679 101L682 102L685 100L687 96L690 94L693 95L696 94L698 89L701 89L704 87" fill="none" stroke-width="1.5"></path><g fill="#3360a9"><circle cx="43" cy="282" r="2"></circle><circle cx="45" cy="281" r="2"></circle><circle cx="48" cy="284" r="2"></circle><circle cx="51" cy="288" r="2"></circle><circle cx="54" cy="288" r="2"></circle><circle cx="56" cy="288" r="2"></circle><circle cx="59" cy="286" r="2"></circle><circle cx="62" cy="286" r="2"></circle><circle cx="64" cy="283" r="2"></circle><circle cx="67" cy="283" r="2"></circle><circle cx="70" cy="284" r="2"></circle><circle cx="72" cy="287" r="2"></circle><circle cx="75" cy="289" r="2"></circle><circle cx="78" cy="291" r="2"></circle><circle cx="80" cy="294" r="2"></circle><circle cx="83" cy="295" r="2"></circle><circle cx="86" cy="293" r="2"></circle><circle cx="89" cy="293" r="2"></circle><circle cx="91" cy="292" r="2"></circle><circle cx="94" cy="291" r="2"></circle><circle cx="97" cy="293" r="2"></circle><circle cx="99" cy="300" r="2"></circle><circle cx="102" cy="303" r="2"></circle><circle cx="105" cy="307" r="2"></circle><circle cx="107" cy="310" r="2"></circle><circle cx="110" cy="311" r="2"></circle><circle cx="113" cy="306" r="2"></circle><circle cx="116" cy="303" r="2"></circle><circle cx="118" cy="303" r="2"></circle><circle cx="121" cy="301" r="2"></circle><circle cx="124" cy="300" r="2"></circle><circle cx="126" cy="301" r="2"></circle><circle cx="129" cy="303" r="2"></circle><circle cx="132" cy="305" r="2"></circle><circle cx="134" cy="304" r="2"></circle><circle cx="137" cy="304" r="2"></circle><circle cx="140" cy="306" r="2"></circle><circle cx="143" cy="307" r="2"></circle><circle cx="145" cy="305" r="2"></circle><circle cx="148" cy="306" r="2"></circle><circle cx="151" cy="307" r="2"></circle><circle cx="153" cy="302" r="2"></circle><circle cx="156" cy="298" r="2"></circle><circle cx="159" cy="292" r="2"></circle><circle cx="161" cy="286" r="2"></circle><circle cx="164" cy="280" r="2"></circle><circle cx="167" cy="277" r="2"></circle><circle cx="170" cy="274" r="2"></circle><circle cx="172" cy="274" r="2"></circle><circle cx="175" cy="274" r="2"></circle><circle cx="178" cy="273" r="2"></circle><circle cx="180" cy="272" r="2"></circle><circle cx="183" cy="271" r="2"></circle><circle cx="186" cy="271" r="2"></circle><circle cx="188" cy="270" r="2"></circle><circle cx="191" cy="271" r="2"></circle><circle cx="194" cy="267" r="2"></circle><circle cx="196" cy="264" r="2"></circle><circle cx="199" cy="260" r="2"></circle><circle cx="202" cy="256" r="2"></circle><circle cx="205" cy="255" r="2"></circle><circle cx="207" cy="257" r="2"></circle><circle cx="210" cy="257" r="2"></circle><circle cx="213" cy="257" r="2"></circle><circle cx="215" cy="254" r="2"></circle><circle cx="218" cy="252" r="2"></circle><circle cx="221" cy="255" r="2"></circle><circle cx="223" cy="247" r="2"></circle><circle cx="226" cy="241" r="2"></circle><circle cx="229" cy="237" r="2"></circle><circle cx="232" cy="231" r="2"></circle><circle cx="234" cy="225" r="2"></circle><circle cx="237" cy="229" r="2"></circle><circle cx="240" cy="233" r="2"></circle><circle cx="242" cy="238" r="2"></circle><circle cx="245" cy="241" r="2"></circle><circle cx="248" cy="242" r="2"></circle><circle cx="250" cy="243" r="2"></circle><circle cx="253" cy="242" r="2"></circle><circle cx="256" cy="241" r="2"></circle><circle cx="259" cy="242" r="2"></circle><circle cx="261" cy="242" r="2"></circle><circle cx="264" cy="243" r="2"></circle><circle cx="267" cy="242" r="2"></circle><circle cx="269" cy="242" r="2"></circle><circle cx="272" cy="241" r="2"></circle><circle cx="275" cy="241" r="2"></circle><circle cx="277" cy="241" r="2"></circle><circle cx="280" cy="242" r="2"></circle><circle cx="283" cy="243" r="2"></circle><circle cx="286" cy="244" r="2"></circle><circle cx="288" cy="244" r="2"></circle><circle cx="291" cy="244" r="2"></circle><circle cx="294" cy="244" r="2"></circle><circle cx="296" cy="244" r="2"></circle><circle cx="299" cy="244" r="2"></circle><circle cx="302" cy="244" r="2"></circle><circle cx="304" cy="244" r="2"></circle><circle cx="307" cy="244" r="2"></circle><circle cx="310" cy="245" r="2"></circle><circle cx="312" cy="244" r="2"></circle><circle cx="315" cy="244" r="2"></circle><circle cx="318" cy="242" r="2"></circle><circle cx="321" cy="241" r="2"></circle><circle cx="323" cy="239" r="2"></circle><circle cx="326" cy="238" r="2"></circle><circle cx="329" cy="237" r="2"></circle><circle cx="331" cy="238" r="2"></circle><circle cx="334" cy="239" r="2"></circle><circle cx="337" cy="240" r="2"></circle><circle cx="339" cy="238" r="2"></circle><circle cx="342" cy="236" r="2"></circle><circle cx="345" cy="235" r="2"></circle><circle cx="348" cy="234" r="2"></circle><circle cx="350" cy="232" r="2"></circle><circle cx="353" cy="234" r="2"></circle><circle cx="356" cy="235" r="2"></circle><circle cx="358" cy="235" r="2"></circle><circle cx="361" cy="233" r="2"></circle><circle cx="364" cy="230" r="2"></circle><circle cx="366" cy="226" r="2"></circle><circle cx="369" cy="222" r="2"></circle><circle cx="372" cy="216" r="2"></circle><circle cx="375" cy="213" r="2"></circle><circle cx="377" cy="211" r="2"></circle><circle cx="380" cy="208" r="2"></circle><circle cx="383" cy="208" r="2"></circle><circle cx="385" cy="207" r="2"></circle><circle cx="388" cy="207" r="2"></circle><circle cx="391" cy="207" r="2"></circle><circle cx="393" cy="206" r="2"></circle><circle cx="396" cy="201" r="2"></circle><circle cx="399" cy="196" r="2"></circle><circle cx="402" cy="192" r="2"></circle><circle cx="404" cy="189" r="2"></circle><circle cx="407" cy="188" r="2"></circle><circle cx="410" cy="190" r="2"></circle><circle cx="412" cy="192" r="2"></circle><circle cx="415" cy="194" r="2"></circle><circle cx="418" cy="194" r="2"></circle><circle cx="420" cy="194" r="2"></circle><circle cx="423" cy="195" r="2"></circle><circle cx="426" cy="197" r="2"></circle><circle cx="428" cy="199" r="2"></circle><circle cx="431" cy="202" r="2"></circle><circle cx="434" cy="205" r="2"></circle><circle cx="437" cy="206" r="2"></circle><circle cx="439" cy="205" r="2"></circle><circle cx="442" cy="200" r="2"></circle><circle cx="445" cy="195" r="2"></circle><circle cx="447" cy="190" r="2"></circle><circle cx="450" cy="184" r="2"></circle><circle cx="453" cy="180" r="2"></circle><circle cx="455" cy="178" r="2"></circle><circle cx="458" cy="176" r="2"></circle><circle cx="461" cy="175" r="2"></circle><circle cx="464" cy="174" r="2"></circle><circle cx="466" cy="174" r="2"></circle><circle cx="469" cy="174" r="2"></circle><circle cx="472" cy="174" r="2"></circle><circle cx="474" cy="172" r="2"></circle><circle cx="477" cy="171" r="2"></circle><circle cx="480" cy="170" r="2"></circle><circle cx="482" cy="168" r="2"></circle><circle cx="485" cy="167" r="2"></circle><circle cx="488" cy="167" r="2"></circle><circle cx="491" cy="167" r="2"></circle><circle cx="493" cy="168" r="2"></circle><circle cx="496" cy="168" r="2"></circle><circle cx="499" cy="168" r="2"></circle><circle cx="501" cy="168" r="2"></circle><circle cx="504" cy="168" r="2"></circle><circle cx="507" cy="168" r="2"></circle><circle cx="509" cy="170" r="2"></circle><circle cx="512" cy="171" r="2"></circle><circle cx="515" cy="172" r="2"></circle><circle cx="518" cy="173" r="2"></circle><circle cx="520" cy="172" r="2"></circle><circle cx="523" cy="171" r="2"></circle><circle cx="526" cy="170" r="2"></circle><circle cx="528" cy="169" r="2"></circle><circle cx="531" cy="169" r="2"></circle><circle cx="534" cy="169" r="2"></circle><circle cx="536" cy="169" r="2"></circle><circle cx="539" cy="169" r="2"></circle><circle cx="542" cy="169" r="2"></circle><circle cx="544" cy="169" r="2"></circle><circle cx="547" cy="170" r="2"></circle><circle cx="550" cy="172" r="2"></circle><circle cx="553" cy="174" r="2"></circle><circle cx="555" cy="172" r="2"></circle><circle cx="558" cy="171" r="2"></circle><circle cx="561" cy="168" r="2"></circle><circle cx="563" cy="162" r="2"></circle><circle cx="566" cy="156" r="2"></circle><circle cx="569" cy="153" r="2"></circle><circle cx="571" cy="151" r="2"></circle><circle cx="574" cy="148" r="2"></circle><circle cx="577" cy="148" r="2"></circle><circle cx="580" cy="148" r="2"></circle><circle cx="582" cy="150" r="2"></circle><circle cx="585" cy="150" r="2"></circle><circle cx="588" cy="150" r="2"></circle><circle cx="590" cy="150" r="2"></circle><circle cx="593" cy="150" r="2"></circle><circle cx="596" cy="148" r="2"></circle><circle cx="598" cy="149" r="2"></circle><circle cx="601" cy="155" r="2"></circle><circle cx="604" cy="160" r="2"></circle><circle cx="607" cy="166" r="2"></circle><circle cx="609" cy="169" r="2"></circle><circle cx="612" cy="171" r="2"></circle><circle cx="615" cy="168" r="2"></circle><circle cx="617" cy="168" r="2"></circle><circle cx="620" cy="168" r="2"></circle><circle cx="623" cy="170" r="2"></circle><circle cx="625" cy="174" r="2"></circle><circle cx="628" cy="169" r="2"></circle><circle cx="631" cy="173" r="2"></circle><circle cx="634" cy="158" r="2"></circle><circle cx="636" cy="145" r="2"></circle><circle cx="639" cy="144" r="2"></circle><circle cx="642" cy="152" r="2"></circle><circle cx="644" cy="139" r="2"></circle><circle cx="647" cy="142" r="2"></circle><circle cx="650" cy="150" r="2"></circle><circle cx="652" cy="139" r="2"></circle><circle cx="655" cy="130" r="2"></circle><circle cx="658" cy="129" r="2"></circle><circle cx="660" cy="128" r="2"></circle><circle cx="663" cy="122" r="2"></circle><circle cx="666" cy="120" r="2"></circle><circle cx="669" cy="110" r="2"></circle><circle cx="671" cy="106" r="2"></circle><circle cx="674" cy="105" r="2"></circle><circle cx="677" cy="105" r="2"></circle><circle cx="679" cy="101" r="2"></circle><circle cx="682" cy="102" r="2"></circle><circle cx="685" cy="100" r="2"></circle><circle cx="687" cy="96" r="2"></circle><circle cx="690" cy="94" r="2"></circle><circle cx="693" cy="95" r="2"></circle><circle cx="696" cy="94" r="2"></circle><circle cx="698" cy="89" r="2"></circle><circle cx="701" cy="89" r="2"></circle><circle cx="704" cy="87" r="2"></circle></g></g></g></g></g><g class="SourcesFooter" style="fill:#777"><g class="clickable" style="fill:#777"><text font-size="12.60" x="15.0" y="567.9"><tspan x="15" y="567.88">Source: Allen, R. C. (2009)</tspan></text></g><text font-size="12.60" x="15.0" y="582.5"><tspan x="15" y="582.48">Note: The chart shows the wages of building labourers divided by the cost of using capital goods.</tspan></text><text font-size="12.60" x="546.0" y="567.9"><tspan x="545.956" y="567.88"><a target='_blank' style='fill: #777;' href='https://tinyco.re/2183446'>tinyco.re/2183446</a> • <a href="https://ourworldindata.org" target="_blank">Powered by ourworldindata.org</a></tspan></text></g></svg>