<svg xmlns="http://www.w3.org/2000/svg" version="1.1" style="font-family:&#x27;Helvetica Neue&#x27;, Helvetica, Arial, sans-serif;font-size:18px;background-color:white;text-rendering:optimizeLegibility;-webkit-font-smoothing:antialiased" width="850" height="600"><g class="HeaderView"><a href="https://ourworldindata.org/grapher/wages-relative-to-the-cost-of-capital" target="_blank"><text font-size="21.60" x="15.0" y="32.3" fill="#555"><tspan x="15" y="32.279999999999994">Wages relative to the cost of capital (late sixteenth to the early nineteenth century)</tspan></text></a><text font-size="14.40" x="15.0" y="50.1" fill="#666"><tspan x="15" y="50.11999999999999">Unit 2 &#x27;Technology, population, and growth’ Section 2.6 &#x27;The British Industrial Revolution and incentives for new technologies&#x27;</tspan><tspan x="15" y="65.96">in The CORE Team, The Economy. Available at: https://tinyco.re/2183446 [Figure 2.11]</tspan></text></g><g class="LineChart"><defs><clipPath id="boundsClip-5"><rect x="32.68" y="0" width="830" height="912.6"></rect></clipPath></defs><g class="AxisBoxView"><g class="HorizontalAxis"><text x="42.7" y="542.8" fill="#666" text-anchor="middle" font-size="16.2">1582</text><text x="89" y="542.8" fill="#666" text-anchor="middle" font-size="16.2">1600</text><text x="217.7" y="542.8" fill="#666" text-anchor="middle" font-size="16.2">1650</text><text x="346.4" y="542.8" fill="#666" text-anchor="middle" font-size="16.2">1700</text><text x="475.2" y="542.8" fill="#666" text-anchor="middle" font-size="16.2">1750</text><text x="603.9" y="542.8" fill="#666" text-anchor="middle" font-size="16.2">1800</text><text x="673.4" y="542.8" fill="#666" text-anchor="middle" font-size="16.2">1827</text></g><g class="VerticalAxis"><text x="37.68" y="521.6" fill="#666" dominant-baseline="middle" text-anchor="end" font-size="16.2">0</text><text x="37.68" y="471.4" fill="#666" dominant-baseline="middle" text-anchor="end" font-size="16.2">0.2</text><text x="37.68" y="421.2" fill="#666" dominant-baseline="middle" text-anchor="end" font-size="16.2">0.4</text><text x="37.68" y="371" fill="#666" dominant-baseline="middle" text-anchor="end" font-size="16.2">0.6</text><text x="37.68" y="320.8" fill="#666" dominant-baseline="middle" text-anchor="end" font-size="16.2">0.8</text><text x="37.68" y="270.6" fill="#666" dominant-baseline="middle" text-anchor="end" font-size="16.2">1</text><text x="37.68" y="220.4" fill="#666" dominant-baseline="middle" text-anchor="end" font-size="16.2">1.2</text><text x="37.68" y="170.2" fill="#666" dominant-baseline="middle" text-anchor="end" font-size="16.2">1.4</text><text x="37.68" y="120" fill="#666" dominant-baseline="middle" text-anchor="end" font-size="16.2">1.6</text><text x="15" y="78.5" style="font-size:12px;text-transform:uppercase;cursor:pointer" class="clickable">linear</text></g><g class="AxisGridLines"><line x1="42.68" y1="521.6" x2="673.37" y2="521.6" stroke="#ccc"></line><line x1="42.68" y1="471.4" x2="673.37" y2="471.4" stroke="#ddd" stroke-dasharray="3,2"></line><line x1="42.68" y1="421.2" x2="673.37" y2="421.2" stroke="#ddd" stroke-dasharray="3,2"></line><line x1="42.68" y1="371" x2="673.37" y2="371" stroke="#ddd" stroke-dasharray="3,2"></line><line x1="42.68" y1="320.8" x2="673.37" y2="320.8" stroke="#ddd" stroke-dasharray="3,2"></line><line x1="42.68" y1="270.6" x2="673.37" y2="270.6" stroke="#ddd" stroke-dasharray="3,2"></line><line x1="42.68" y1="220.4" x2="673.37" y2="220.4" stroke="#ddd" stroke-dasharray="3,2"></line><line x1="42.68" y1="170.2" x2="673.37" y2="170.2" stroke="#ddd" stroke-dasharray="3,2"></line><line x1="42.68" y1="120" x2="673.37" y2="120" stroke="#ddd" stroke-dasharray="3,2"></line></g></g><g clip-path="url(#boundsClip-5)"><g class="HeightedLegend clickable"><g class="legendMark"><rect x="673.37" y="79.75" width="161.63" height="13.5" fill="#fff" opacity="0"></rect><text font-size="13.50" x="678.4" y="90.5" fill="#3360a9"><tspan x="678.37" y="90.55">1.73 United Kingdom</tspan></text></g><g class="legendMark"><rect x="673.37" y="282.95" width="107.36" height="13.5" fill="#fff" opacity="0"></rect><text font-size="13.50" x="678.4" y="293.8" fill="#ce8ebd"><tspan x="678.37" y="293.75">0.92 France</tspan></text></g></g><g class="Lines"><rect x="43" y="87" width="631" height="435" fill="rgba(255,255,255,0)" opacity="0"></rect><g class="key-France_0"><path stroke="#ce8ebd" stroke-linecap="round" d="M43 237L45 238L48 239L50 248L53 248L56 248L58 249L61 250L63 248L66 247L68 247L71 246L74 247L76 249L79 250L81 250L84 249L86 248L89 245L92 239L94 234L97 229L99 223L102 221L105 222L107 222L110 222L112 222L115 223L117 226L120 229L123 232L125 235L128 238L130 238L133 238L135 238L138 238L141 238L143 238L146 238L148 238L151 243L153 249L156 254L159 260L161 265L164 265L166 265L169 265L171 265L174 265L177 265L179 265L182 265L184 265L187 265L189 265L192 265L195 265L197 265L200 265L202 268L205 271L207 273L210 276L213 280L215 285L218 290L220 294L223 298L226 299L228 299L231 298L233 299L236 300L238 301L241 302L244 303L246 304L249 304L251 304L254 304L256 303L259 302L262 301L264 302L267 302L269 302L272 303L274 303L277 303L280 302L282 301L285 299L287 299L290 298L292 298L295 299L298 298L300 296L303 294L305 292L308 291L310 292L313 292L316 293L318 295L321 294L323 294L326 294L328 293L331 292L334 292L336 292L339 290L341 291L344 289L346 287L349 286L352 285L354 285L357 286L359 286L362 288L365 286L367 283L370 282L372 281L375 278L377 279L380 280L383 281L385 280L388 277L390 276L393 276L395 276L398 276L401 278L403 279L406 278L408 283L411 288L413 293L416 297L419 304L421 305L424 306L426 308L429 310L431 311L434 311L437 312L439 312L442 311L444 310L447 310L449 310L452 311L455 313L457 314L460 316L462 317L465 319L467 317L470 315L473 312L475 310L478 308L480 307L483 306L486 306L488 306L491 305L493 305L496 306L498 306L501 306L504 307L506 308L509 306L511 298L514 290L516 281L519 271L522 265L524 271L527 276L529 282L532 288L534 294L537 294L540 294L542 293L545 294L547 294L550 294L552 293L555 292L558 294L560 295L563 297L565 300L568 301L570 299L573 298L576 295L578 291L581 287L583 284L586 280L588 277L591 274L594 270L596 267L599 263L601 260L604 257L606 254L609 252L612 252L614 254L617 255L619 257L622 261L625 263L627 262L630 263L632 264L635 261L637 260L640 260L643 261L645 258L648 259L650 261L653 261L655 259L658 260L661 260L663 259L666 266L668 276L671 283L673 290" fill="none" stroke-width="1.5"></path><g fill="#ce8ebd"><circle cx="43" cy="237" r="2"></circle><circle cx="45" cy="238" r="2"></circle><circle cx="48" cy="239" r="2"></circle><circle cx="50" cy="248" r="2"></circle><circle cx="53" cy="248" r="2"></circle><circle cx="56" cy="248" r="2"></circle><circle cx="58" cy="249" r="2"></circle><circle cx="61" cy="250" r="2"></circle><circle cx="63" cy="248" r="2"></circle><circle cx="66" cy="247" r="2"></circle><circle cx="68" cy="247" r="2"></circle><circle cx="71" cy="246" r="2"></circle><circle cx="74" cy="247" r="2"></circle><circle cx="76" cy="249" r="2"></circle><circle cx="79" cy="250" r="2"></circle><circle cx="81" cy="250" r="2"></circle><circle cx="84" cy="249" r="2"></circle><circle cx="86" cy="248" r="2"></circle><circle cx="89" cy="245" r="2"></circle><circle cx="92" cy="239" r="2"></circle><circle cx="94" cy="234" r="2"></circle><circle cx="97" cy="229" r="2"></circle><circle cx="99" cy="223" r="2"></circle><circle cx="102" cy="221" r="2"></circle><circle cx="105" cy="222" r="2"></circle><circle cx="107" cy="222" r="2"></circle><circle cx="110" cy="222" r="2"></circle><circle cx="112" cy="222" r="2"></circle><circle cx="115" cy="223" r="2"></circle><circle cx="117" cy="226" r="2"></circle><circle cx="120" cy="229" r="2"></circle><circle cx="123" cy="232" r="2"></circle><circle cx="125" cy="235" r="2"></circle><circle cx="128" cy="238" r="2"></circle><circle cx="130" cy="238" r="2"></circle><circle cx="133" cy="238" r="2"></circle><circle cx="135" cy="238" r="2"></circle><circle cx="138" cy="238" r="2"></circle><circle cx="141" cy="238" r="2"></circle><circle cx="143" cy="238" r="2"></circle><circle cx="146" cy="238" r="2"></circle><circle cx="148" cy="238" r="2"></circle><circle cx="151" cy="243" r="2"></circle><circle cx="153" cy="249" r="2"></circle><circle cx="156" cy="254" r="2"></circle><circle cx="159" cy="260" r="2"></circle><circle cx="161" cy="265" r="2"></circle><circle cx="164" cy="265" r="2"></circle><circle cx="166" cy="265" r="2"></circle><circle cx="169" cy="265" r="2"></circle><circle cx="171" cy="265" r="2"></circle><circle cx="174" cy="265" r="2"></circle><circle cx="177" cy="265" r="2"></circle><circle cx="179" cy="265" r="2"></circle><circle cx="182" cy="265" r="2"></circle><circle cx="184" cy="265" r="2"></circle><circle cx="187" cy="265" r="2"></circle><circle cx="189" cy="265" r="2"></circle><circle cx="192" cy="265" r="2"></circle><circle cx="195" cy="265" r="2"></circle><circle cx="197" cy="265" r="2"></circle><circle cx="200" cy="265" r="2"></circle><circle cx="202" cy="268" r="2"></circle><circle cx="205" cy="271" r="2"></circle><circle cx="207" cy="273" r="2"></circle><circle cx="210" cy="276" r="2"></circle><circle cx="213" cy="280" r="2"></circle><circle cx="215" cy="285" r="2"></circle><circle cx="218" cy="290" r="2"></circle><circle cx="220" cy="294" r="2"></circle><circle cx="223" cy="298" r="2"></circle><circle cx="226" cy="299" r="2"></circle><circle cx="228" cy="299" r="2"></circle><circle cx="231" cy="298" r="2"></circle><circle cx="233" cy="299" r="2"></circle><circle cx="236" cy="300" r="2"></circle><circle cx="238" cy="301" r="2"></circle><circle cx="241" cy="302" r="2"></circle><circle cx="244" cy="303" r="2"></circle><circle cx="246" cy="304" r="2"></circle><circle cx="249" cy="304" r="2"></circle><circle cx="251" cy="304" r="2"></circle><circle cx="254" cy="304" r="2"></circle><circle cx="256" cy="303" r="2"></circle><circle cx="259" cy="302" r="2"></circle><circle cx="262" cy="301" r="2"></circle><circle cx="264" cy="302" r="2"></circle><circle cx="267" cy="302" r="2"></circle><circle cx="269" cy="302" r="2"></circle><circle cx="272" cy="303" r="2"></circle><circle cx="274" cy="303" r="2"></circle><circle cx="277" cy="303" r="2"></circle><circle cx="280" cy="302" r="2"></circle><circle cx="282" cy="301" r="2"></circle><circle cx="285" cy="299" r="2"></circle><circle cx="287" cy="299" r="2"></circle><circle cx="290" cy="298" r="2"></circle><circle cx="292" cy="298" r="2"></circle><circle cx="295" cy="299" r="2"></circle><circle cx="298" cy="298" r="2"></circle><circle cx="300" cy="296" r="2"></circle><circle cx="303" cy="294" r="2"></circle><circle cx="305" cy="292" r="2"></circle><circle cx="308" cy="291" r="2"></circle><circle cx="310" cy="292" r="2"></circle><circle cx="313" cy="292" r="2"></circle><circle cx="316" cy="293" r="2"></circle><circle cx="318" cy="295" r="2"></circle><circle cx="321" cy="294" r="2"></circle><circle cx="323" cy="294" r="2"></circle><circle cx="326" cy="294" r="2"></circle><circle cx="328" cy="293" r="2"></circle><circle cx="331" cy="292" r="2"></circle><circle cx="334" cy="292" r="2"></circle><circle cx="336" cy="292" r="2"></circle><circle cx="339" cy="290" r="2"></circle><circle cx="341" cy="291" r="2"></circle><circle cx="344" cy="289" r="2"></circle><circle cx="346" cy="287" r="2"></circle><circle cx="349" cy="286" r="2"></circle><circle cx="352" cy="285" r="2"></circle><circle cx="354" cy="285" r="2"></circle><circle cx="357" cy="286" r="2"></circle><circle cx="359" cy="286" r="2"></circle><circle cx="362" cy="288" r="2"></circle><circle cx="365" cy="286" r="2"></circle><circle cx="367" cy="283" r="2"></circle><circle cx="370" cy="282" r="2"></circle><circle cx="372" cy="281" r="2"></circle><circle cx="375" cy="278" r="2"></circle><circle cx="377" cy="279" r="2"></circle><circle cx="380" cy="280" r="2"></circle><circle cx="383" cy="281" r="2"></circle><circle cx="385" cy="280" r="2"></circle><circle cx="388" cy="277" r="2"></circle><circle cx="390" cy="276" r="2"></circle><circle cx="393" cy="276" r="2"></circle><circle cx="395" cy="276" r="2"></circle><circle cx="398" cy="276" r="2"></circle><circle cx="401" cy="278" r="2"></circle><circle cx="403" cy="279" r="2"></circle><circle cx="406" cy="278" r="2"></circle><circle cx="408" cy="283" r="2"></circle><circle cx="411" cy="288" r="2"></circle><circle cx="413" cy="293" r="2"></circle><circle cx="416" cy="297" r="2"></circle><circle cx="419" cy="304" r="2"></circle><circle cx="421" cy="305" r="2"></circle><circle cx="424" cy="306" r="2"></circle><circle cx="426" cy="308" r="2"></circle><circle cx="429" cy="310" r="2"></circle><circle cx="431" cy="311" r="2"></circle><circle cx="434" cy="311" r="2"></circle><circle cx="437" cy="312" r="2"></circle><circle cx="439" cy="312" r="2"></circle><circle cx="442" cy="311" r="2"></circle><circle cx="444" cy="310" r="2"></circle><circle cx="447" cy="310" r="2"></circle><circle cx="449" cy="310" r="2"></circle><circle cx="452" cy="311" r="2"></circle><circle cx="455" cy="313" r="2"></circle><circle cx="457" cy="314" r="2"></circle><circle cx="460" cy="316" r="2"></circle><circle cx="462" cy="317" r="2"></circle><circle cx="465" cy="319" r="2"></circle><circle cx="467" cy="317" r="2"></circle><circle cx="470" cy="315" r="2"></circle><circle cx="473" cy="312" r="2"></circle><circle cx="475" cy="310" r="2"></circle><circle cx="478" cy="308" r="2"></circle><circle cx="480" cy="307" r="2"></circle><circle cx="483" cy="306" r="2"></circle><circle cx="486" cy="306" r="2"></circle><circle cx="488" cy="306" r="2"></circle><circle cx="491" cy="305" r="2"></circle><circle cx="493" cy="305" r="2"></circle><circle cx="496" cy="306" r="2"></circle><circle cx="498" cy="306" r="2"></circle><circle cx="501" cy="306" r="2"></circle><circle cx="504" cy="307" r="2"></circle><circle cx="506" cy="308" r="2"></circle><circle cx="509" cy="306" r="2"></circle><circle cx="511" cy="298" r="2"></circle><circle cx="514" cy="290" r="2"></circle><circle cx="516" cy="281" r="2"></circle><circle cx="519" cy="271" r="2"></circle><circle cx="522" cy="265" r="2"></circle><circle cx="524" cy="271" r="2"></circle><circle cx="527" cy="276" r="2"></circle><circle cx="529" cy="282" r="2"></circle><circle cx="532" cy="288" r="2"></circle><circle cx="534" cy="294" r="2"></circle><circle cx="537" cy="294" r="2"></circle><circle cx="540" cy="294" r="2"></circle><circle cx="542" cy="293" r="2"></circle><circle cx="545" cy="294" r="2"></circle><circle cx="547" cy="294" r="2"></circle><circle cx="550" cy="294" r="2"></circle><circle cx="552" cy="293" r="2"></circle><circle cx="555" cy="292" r="2"></circle><circle cx="558" cy="294" r="2"></circle><circle cx="560" cy="295" r="2"></circle><circle cx="563" cy="297" r="2"></circle><circle cx="565" cy="300" r="2"></circle><circle cx="568" cy="301" r="2"></circle><circle cx="570" cy="299" r="2"></circle><circle cx="573" cy="298" r="2"></circle><circle cx="576" cy="295" r="2"></circle><circle cx="578" cy="291" r="2"></circle><circle cx="581" cy="287" r="2"></circle><circle cx="583" cy="284" r="2"></circle><circle cx="586" cy="280" r="2"></circle><circle cx="588" cy="277" r="2"></circle><circle cx="591" cy="274" r="2"></circle><circle cx="594" cy="270" r="2"></circle><circle cx="596" cy="267" r="2"></circle><circle cx="599" cy="263" r="2"></circle><circle cx="601" cy="260" r="2"></circle><circle cx="604" cy="257" r="2"></circle><circle cx="606" cy="254" r="2"></circle><circle cx="609" cy="252" r="2"></circle><circle cx="612" cy="252" r="2"></circle><circle cx="614" cy="254" r="2"></circle><circle cx="617" cy="255" r="2"></circle><circle cx="619" cy="257" r="2"></circle><circle cx="622" cy="261" r="2"></circle><circle cx="625" cy="263" r="2"></circle><circle cx="627" cy="262" r="2"></circle><circle cx="630" cy="263" r="2"></circle><circle cx="632" cy="264" r="2"></circle><circle cx="635" cy="261" r="2"></circle><circle cx="637" cy="260" r="2"></circle><circle cx="640" cy="260" r="2"></circle><circle cx="643" cy="261" r="2"></circle><circle cx="645" cy="258" r="2"></circle><circle cx="648" cy="259" r="2"></circle><circle cx="650" cy="261" r="2"></circle><circle cx="653" cy="261" r="2"></circle><circle cx="655" cy="259" r="2"></circle><circle cx="658" cy="260" r="2"></circle><circle cx="661" cy="260" r="2"></circle><circle cx="663" cy="259" r="2"></circle><circle cx="666" cy="266" r="2"></circle><circle cx="668" cy="276" r="2"></circle><circle cx="671" cy="283" r="2"></circle><circle cx="673" cy="290" r="2"></circle></g></g><g class="key-United-Kingdom_0"><path stroke="#3360a9" stroke-linecap="round" d="M43 282L45 281L48 284L50 288L53 288L56 288L58 286L61 286L63 283L66 283L68 284L71 287L74 289L76 291L79 294L81 295L84 293L86 293L89 292L92 291L94 293L97 300L99 303L102 307L105 310L107 311L110 306L112 303L115 303L117 301L120 300L123 301L125 303L128 305L130 304L133 304L135 306L138 307L141 305L143 306L146 307L148 302L151 298L153 292L156 286L159 280L161 277L164 274L166 274L169 274L171 273L174 272L177 271L179 271L182 270L184 271L187 267L189 264L192 260L195 256L197 255L200 257L202 257L205 257L207 254L210 252L213 255L215 247L218 241L220 237L223 231L226 225L228 229L231 233L233 238L236 241L238 242L241 243L244 242L246 241L249 242L251 242L254 243L256 242L259 242L262 241L264 241L267 241L269 242L272 243L274 244L277 244L280 244L282 244L285 244L287 244L290 244L292 244L295 244L298 245L300 244L303 244L305 242L308 241L310 239L313 238L316 237L318 238L321 239L323 240L326 238L328 236L331 235L334 234L336 232L339 234L341 235L344 235L346 233L349 230L352 226L354 222L357 216L359 213L362 211L365 208L367 208L370 207L372 207L375 207L377 206L380 201L383 196L385 192L388 189L390 188L393 190L395 192L398 194L401 194L403 194L406 195L408 197L411 199L413 202L416 205L419 206L421 205L424 200L426 195L429 190L431 184L434 180L437 178L439 176L442 175L444 174L447 174L449 174L452 174L455 172L457 171L460 170L462 168L465 167L467 167L470 167L473 168L475 168L478 168L480 168L483 168L486 168L488 170L491 171L493 172L496 173L498 172L501 171L504 170L506 169L509 169L511 169L514 169L516 169L519 169L522 169L524 170L527 172L529 174L532 172L534 171L537 168L540 162L542 156L545 153L547 151L550 148L552 148L555 148L558 150L560 150L563 150L565 150L568 150L570 148L573 149L576 155L578 160L581 166L583 169L586 171L588 168L591 168L594 168L596 170L599 174L601 169L604 173L606 158L609 145L612 144L614 152L617 139L619 142L622 150L625 139L627 130L630 129L632 128L635 122L637 120L640 110L643 106L645 105L648 105L650 101L653 102L655 100L658 96L661 94L663 95L666 94L668 89L671 89L673 87" fill="none" stroke-width="1.5"></path><g fill="#3360a9"><circle cx="43" cy="282" r="2"></circle><circle cx="45" cy="281" r="2"></circle><circle cx="48" cy="284" r="2"></circle><circle cx="50" cy="288" r="2"></circle><circle cx="53" cy="288" r="2"></circle><circle cx="56" cy="288" r="2"></circle><circle cx="58" cy="286" r="2"></circle><circle cx="61" cy="286" r="2"></circle><circle cx="63" cy="283" r="2"></circle><circle cx="66" cy="283" r="2"></circle><circle cx="68" cy="284" r="2"></circle><circle cx="71" cy="287" r="2"></circle><circle cx="74" cy="289" r="2"></circle><circle cx="76" cy="291" r="2"></circle><circle cx="79" cy="294" r="2"></circle><circle cx="81" cy="295" r="2"></circle><circle cx="84" cy="293" r="2"></circle><circle cx="86" cy="293" r="2"></circle><circle cx="89" cy="292" r="2"></circle><circle cx="92" cy="291" r="2"></circle><circle cx="94" cy="293" r="2"></circle><circle cx="97" cy="300" r="2"></circle><circle cx="99" cy="303" r="2"></circle><circle cx="102" cy="307" r="2"></circle><circle cx="105" cy="310" r="2"></circle><circle cx="107" cy="311" r="2"></circle><circle cx="110" cy="306" r="2"></circle><circle cx="112" cy="303" r="2"></circle><circle cx="115" cy="303" r="2"></circle><circle cx="117" cy="301" r="2"></circle><circle cx="120" cy="300" r="2"></circle><circle cx="123" cy="301" r="2"></circle><circle cx="125" cy="303" r="2"></circle><circle cx="128" cy="305" r="2"></circle><circle cx="130" cy="304" r="2"></circle><circle cx="133" cy="304" r="2"></circle><circle cx="135" cy="306" r="2"></circle><circle cx="138" cy="307" r="2"></circle><circle cx="141" cy="305" r="2"></circle><circle cx="143" cy="306" r="2"></circle><circle cx="146" cy="307" r="2"></circle><circle cx="148" cy="302" r="2"></circle><circle cx="151" cy="298" r="2"></circle><circle cx="153" cy="292" r="2"></circle><circle cx="156" cy="286" r="2"></circle><circle cx="159" cy="280" r="2"></circle><circle cx="161" cy="277" r="2"></circle><circle cx="164" cy="274" r="2"></circle><circle cx="166" cy="274" r="2"></circle><circle cx="169" cy="274" r="2"></circle><circle cx="171" cy="273" r="2"></circle><circle cx="174" cy="272" r="2"></circle><circle cx="177" cy="271" r="2"></circle><circle cx="179" cy="271" r="2"></circle><circle cx="182" cy="270" r="2"></circle><circle cx="184" cy="271" r="2"></circle><circle cx="187" cy="267" r="2"></circle><circle cx="189" cy="264" r="2"></circle><circle cx="192" cy="260" r="2"></circle><circle cx="195" cy="256" r="2"></circle><circle cx="197" cy="255" r="2"></circle><circle cx="200" cy="257" r="2"></circle><circle cx="202" cy="257" r="2"></circle><circle cx="205" cy="257" r="2"></circle><circle cx="207" cy="254" r="2"></circle><circle cx="210" cy="252" r="2"></circle><circle cx="213" cy="255" r="2"></circle><circle cx="215" cy="247" r="2"></circle><circle cx="218" cy="241" r="2"></circle><circle cx="220" cy="237" r="2"></circle><circle cx="223" cy="231" r="2"></circle><circle cx="226" cy="225" r="2"></circle><circle cx="228" cy="229" r="2"></circle><circle cx="231" cy="233" r="2"></circle><circle cx="233" cy="238" r="2"></circle><circle cx="236" cy="241" r="2"></circle><circle cx="238" cy="242" r="2"></circle><circle cx="241" cy="243" r="2"></circle><circle cx="244" cy="242" r="2"></circle><circle cx="246" cy="241" r="2"></circle><circle cx="249" cy="242" r="2"></circle><circle cx="251" cy="242" r="2"></circle><circle cx="254" cy="243" r="2"></circle><circle cx="256" cy="242" r="2"></circle><circle cx="259" cy="242" r="2"></circle><circle cx="262" cy="241" r="2"></circle><circle cx="264" cy="241" r="2"></circle><circle cx="267" cy="241" r="2"></circle><circle cx="269" cy="242" r="2"></circle><circle cx="272" cy="243" r="2"></circle><circle cx="274" cy="244" r="2"></circle><circle cx="277" cy="244" r="2"></circle><circle cx="280" cy="244" r="2"></circle><circle cx="282" cy="244" r="2"></circle><circle cx="285" cy="244" r="2"></circle><circle cx="287" cy="244" r="2"></circle><circle cx="290" cy="244" r="2"></circle><circle cx="292" cy="244" r="2"></circle><circle cx="295" cy="244" r="2"></circle><circle cx="298" cy="245" r="2"></circle><circle cx="300" cy="244" r="2"></circle><circle cx="303" cy="244" r="2"></circle><circle cx="305" cy="242" r="2"></circle><circle cx="308" cy="241" r="2"></circle><circle cx="310" cy="239" r="2"></circle><circle cx="313" cy="238" r="2"></circle><circle cx="316" cy="237" r="2"></circle><circle cx="318" cy="238" r="2"></circle><circle cx="321" cy="239" r="2"></circle><circle cx="323" cy="240" r="2"></circle><circle cx="326" cy="238" r="2"></circle><circle cx="328" cy="236" r="2"></circle><circle cx="331" cy="235" r="2"></circle><circle cx="334" cy="234" r="2"></circle><circle cx="336" cy="232" r="2"></circle><circle cx="339" cy="234" r="2"></circle><circle cx="341" cy="235" r="2"></circle><circle cx="344" cy="235" r="2"></circle><circle cx="346" cy="233" r="2"></circle><circle cx="349" cy="230" r="2"></circle><circle cx="352" cy="226" r="2"></circle><circle cx="354" cy="222" r="2"></circle><circle cx="357" cy="216" r="2"></circle><circle cx="359" cy="213" r="2"></circle><circle cx="362" cy="211" r="2"></circle><circle cx="365" cy="208" r="2"></circle><circle cx="367" cy="208" r="2"></circle><circle cx="370" cy="207" r="2"></circle><circle cx="372" cy="207" r="2"></circle><circle cx="375" cy="207" r="2"></circle><circle cx="377" cy="206" r="2"></circle><circle cx="380" cy="201" r="2"></circle><circle cx="383" cy="196" r="2"></circle><circle cx="385" cy="192" r="2"></circle><circle cx="388" cy="189" r="2"></circle><circle cx="390" cy="188" r="2"></circle><circle cx="393" cy="190" r="2"></circle><circle cx="395" cy="192" r="2"></circle><circle cx="398" cy="194" r="2"></circle><circle cx="401" cy="194" r="2"></circle><circle cx="403" cy="194" r="2"></circle><circle cx="406" cy="195" r="2"></circle><circle cx="408" cy="197" r="2"></circle><circle cx="411" cy="199" r="2"></circle><circle cx="413" cy="202" r="2"></circle><circle cx="416" cy="205" r="2"></circle><circle cx="419" cy="206" r="2"></circle><circle cx="421" cy="205" r="2"></circle><circle cx="424" cy="200" r="2"></circle><circle cx="426" cy="195" r="2"></circle><circle cx="429" cy="190" r="2"></circle><circle cx="431" cy="184" r="2"></circle><circle cx="434" cy="180" r="2"></circle><circle cx="437" cy="178" r="2"></circle><circle cx="439" cy="176" r="2"></circle><circle cx="442" cy="175" r="2"></circle><circle cx="444" cy="174" r="2"></circle><circle cx="447" cy="174" r="2"></circle><circle cx="449" cy="174" r="2"></circle><circle cx="452" cy="174" r="2"></circle><circle cx="455" cy="172" r="2"></circle><circle cx="457" cy="171" r="2"></circle><circle cx="460" cy="170" r="2"></circle><circle cx="462" cy="168" r="2"></circle><circle cx="465" cy="167" r="2"></circle><circle cx="467" cy="167" r="2"></circle><circle cx="470" cy="167" r="2"></circle><circle cx="473" cy="168" r="2"></circle><circle cx="475" cy="168" r="2"></circle><circle cx="478" cy="168" r="2"></circle><circle cx="480" cy="168" r="2"></circle><circle cx="483" cy="168" r="2"></circle><circle cx="486" cy="168" r="2"></circle><circle cx="488" cy="170" r="2"></circle><circle cx="491" cy="171" r="2"></circle><circle cx="493" cy="172" r="2"></circle><circle cx="496" cy="173" r="2"></circle><circle cx="498" cy="172" r="2"></circle><circle cx="501" cy="171" r="2"></circle><circle cx="504" cy="170" r="2"></circle><circle cx="506" cy="169" r="2"></circle><circle cx="509" cy="169" r="2"></circle><circle cx="511" cy="169" r="2"></circle><circle cx="514" cy="169" r="2"></circle><circle cx="516" cy="169" r="2"></circle><circle cx="519" cy="169" r="2"></circle><circle cx="522" cy="169" r="2"></circle><circle cx="524" cy="170" r="2"></circle><circle cx="527" cy="172" r="2"></circle><circle cx="529" cy="174" r="2"></circle><circle cx="532" cy="172" r="2"></circle><circle cx="534" cy="171" r="2"></circle><circle cx="537" cy="168" r="2"></circle><circle cx="540" cy="162" r="2"></circle><circle cx="542" cy="156" r="2"></circle><circle cx="545" cy="153" r="2"></circle><circle cx="547" cy="151" r="2"></circle><circle cx="550" cy="148" r="2"></circle><circle cx="552" cy="148" r="2"></circle><circle cx="555" cy="148" r="2"></circle><circle cx="558" cy="150" r="2"></circle><circle cx="560" cy="150" r="2"></circle><circle cx="563" cy="150" r="2"></circle><circle cx="565" cy="150" r="2"></circle><circle cx="568" cy="150" r="2"></circle><circle cx="570" cy="148" r="2"></circle><circle cx="573" cy="149" r="2"></circle><circle cx="576" cy="155" r="2"></circle><circle cx="578" cy="160" r="2"></circle><circle cx="581" cy="166" r="2"></circle><circle cx="583" cy="169" r="2"></circle><circle cx="586" cy="171" r="2"></circle><circle cx="588" cy="168" r="2"></circle><circle cx="591" cy="168" r="2"></circle><circle cx="594" cy="168" r="2"></circle><circle cx="596" cy="170" r="2"></circle><circle cx="599" cy="174" r="2"></circle><circle cx="601" cy="169" r="2"></circle><circle cx="604" cy="173" r="2"></circle><circle cx="606" cy="158" r="2"></circle><circle cx="609" cy="145" r="2"></circle><circle cx="612" cy="144" r="2"></circle><circle cx="614" cy="152" r="2"></circle><circle cx="617" cy="139" r="2"></circle><circle cx="619" cy="142" r="2"></circle><circle cx="622" cy="150" r="2"></circle><circle cx="625" cy="139" r="2"></circle><circle cx="627" cy="130" r="2"></circle><circle cx="630" cy="129" r="2"></circle><circle cx="632" cy="128" r="2"></circle><circle cx="635" cy="122" r="2"></circle><circle cx="637" cy="120" r="2"></circle><circle cx="640" cy="110" r="2"></circle><circle cx="643" cy="106" r="2"></circle><circle cx="645" cy="105" r="2"></circle><circle cx="648" cy="105" r="2"></circle><circle cx="650" cy="101" r="2"></circle><circle cx="653" cy="102" r="2"></circle><circle cx="655" cy="100" r="2"></circle><circle cx="658" cy="96" r="2"></circle><circle cx="661" cy="94" r="2"></circle><circle cx="663" cy="95" r="2"></circle><circle cx="666" cy="94" r="2"></circle><circle cx="668" cy="89" r="2"></circle><circle cx="671" cy="89" r="2"></circle><circle cx="673" cy="87" r="2"></circle></g></g></g></g></g><g class="SourcesFooter" style="fill:#777"><g class="clickable" style="fill:#777"><text font-size="12.60" x="15.0" y="567.9"><tspan x="15" y="567.88">Source: Allen, R. C. (2009)</tspan></text></g><text font-size="12.60" x="15.0" y="582.5"><tspan x="15" y="582.48">Note: The chart shows the wages of building labourers divided by the cost of using capital goods.</tspan></text><text font-size="12.60" x="546.0" y="567.9"><tspan x="545.956" y="567.88"><a target='_blank' style='fill: #777;' href='https://tinyco.re/2183446'>tinyco.re/2183446</a> • <a href="https://ourworldindata.org" target="_blank">Powered by ourworldindata.org</a></tspan></text></g></svg>