<?xml version="1.0" encoding="UTF-8"?> <svg xmlns="http://www.w3.org/2000/svg" version="1.1" style="font-family:Lato, 'Helvetica Neue', Helvetica, Arial, sans-serif;font-size:18px;background-color:white;text-rendering:optimizeLegibility;-webkit-font-smoothing:antialiased" width="850" height="600" viewBox="0 0 850 600"><g class="HeaderView"><g transform="translate(774, 15) scale(0.29)"><svg xmlns="http://www.w3.org/2000/svg" width="210" height="120" viewBox="0 0 210 120" fill="none"><g clip-path="url(#clip0)"><path d="M0 0h210v107.89H0V0z" fill="#002147"></path><path d="M40.98 32.25c0 2.36-.38 4.53-1.12 6.51a14.26 14.26 0 01-8.1 8.4c-1.9.78-4.02 1.17-6.34 1.17-2.31 0-4.42-.39-6.33-1.17a14.31 14.31 0 01-8.08-8.4 18.29 18.29 0 01-1.12-6.51c0-2.36.38-4.53 1.12-6.5.75-1.97 1.8-3.67 3.17-5.1 1.37-1.43 3-2.55 4.9-3.34 1.92-.8 4.03-1.19 6.34-1.19 2.32 0 4.43.4 6.34 1.19 1.92.8 3.56 1.9 4.93 3.34a14.87 14.87 0 013.17 5.1 18.1 18.1 0 011.12 6.5zm-4.38 0c0-1.94-.26-3.68-.8-5.22a10.91 10.91 0 00-2.24-3.89 9.68 9.68 0 00-3.52-2.46 11.95 11.95 0 00-4.62-.86c-1.68 0-3.21.28-4.6.86a9.88 9.88 0 00-3.54 2.46 10.91 10.91 0 00-2.24 3.9c-.53 1.53-.8 3.27-.8 5.2 0 1.94.27 3.68.8 5.22a11.17 11.17 0 002.24 3.9 10.01 10.01 0 003.55 2.44c1.38.56 2.9.83 4.6.83 1.7 0 3.24-.27 4.61-.83a9.8 9.8 0 003.52-2.44 11.17 11.17 0 002.25-3.9c.53-1.54.8-3.28.8-5.21zm26.22-6.54V48H60.5c-.56 0-.9-.27-1.05-.81l-.31-2.4a12.45 12.45 0 01-3.26 2.6c-1.2.64-2.58.96-4.13.96-1.22 0-2.3-.2-3.24-.6a6.52 6.52 0 01-2.33-1.7 7.37 7.37 0 01-1.43-2.67c-.3-1.04-.46-2.2-.46-3.45V25.7h3.91v14.22c0 1.68.38 2.99 1.15 3.91.77.93 1.96 1.39 3.54 1.39 1.16 0 2.24-.27 3.23-.82a10.42 10.42 0 002.8-2.28V25.7h3.91zm8.61 4.47a9.94 9.94 0 012.6-3.56 5.64 5.64 0 013.76-1.3c.47 0 .92.05 1.34.15.44.1.83.27 1.17.49L80 28.88c-.09.37-.3.55-.66.55-.2 0-.5-.04-.9-.13a6.21 6.21 0 00-3.24.18c-.54.2-1.03.5-1.47.92-.42.4-.81.9-1.17 1.5-.33.58-.64 1.26-.92 2.02V48h-3.94V25.71h2.25c.42 0 .72.08.88.25.16.16.27.44.33.83l.26 3.39zm61.16-13.7L122.75 48h-3.82l-7.99-24.05a21.95 21.95 0 01-.42-1.58 38.36 38.36 0 01-.44 1.58L102.05 48h-3.83L88.4 16.47h3.54c.38 0 .7.1.95.29.26.2.43.43.5.73l6.52 21.9c.1.4.2.83.28 1.28.1.46.2.94.29 1.46l.3-1.46c.12-.47.25-.9.38-1.27l7.41-21.91c.1-.25.26-.48.51-.69.27-.22.58-.33.95-.33h1.23c.38 0 .69.1.92.29.24.2.41.43.53.73l7.4 21.9a28.4 28.4 0 01.68 2.62 29.52 29.52 0 01.52-2.61l6.54-21.91c.07-.27.23-.5.48-.7.27-.21.58-.32.95-.32h3.32zm9.35 8.88c1.63 0 3.1.27 4.4.82a9.43 9.43 0 015.46 5.94c.5 1.4.74 2.98.74 4.73 0 1.76-.25 3.34-.74 4.75a9.43 9.43 0 01-5.46 5.92c-1.3.52-2.77.79-4.4.79-1.64 0-3.12-.27-4.44-.8a9.42 9.42 0 01-3.35-2.3c-.92-1-1.63-2.2-2.13-3.61-.49-1.41-.73-3-.73-4.75s.24-3.33.73-4.73c.5-1.43 1.2-2.64 2.13-3.63.93-1 2.04-1.77 3.35-2.31 1.32-.55 2.8-.82 4.44-.82zm0 19.89c2.2 0 3.84-.73 4.93-2.2 1.08-1.48 1.63-3.54 1.63-6.18 0-2.66-.55-4.72-1.63-6.2-1.09-1.49-2.73-2.23-4.93-2.23-1.12 0-2.09.2-2.93.57-.82.39-1.5.94-2.06 1.65-.55.72-.96 1.61-1.24 2.67-.26 1.04-.4 2.22-.4 3.54 0 2.64.55 4.7 1.64 6.18 1.1 1.47 2.76 2.2 4.99 2.2zm17.97-15.07a9.94 9.94 0 012.6-3.56 5.64 5.64 0 013.76-1.3c.47 0 .91.05 1.34.15.44.1.83.27 1.16.49l-.28 2.92c-.09.37-.31.55-.66.55-.2 0-.5-.04-.9-.13a6.2 6.2 0 00-3.24.18c-.54.2-1.03.5-1.47.92-.43.4-.82.9-1.17 1.5a13.1 13.1 0 00-.92 2.02V48h-3.94V25.71h2.24c.43 0 .72.08.88.25.17.16.28.44.33.83l.27 3.39zm15.04-14.59V48h-3.92V15.6h3.92zm19.55 15.43a6.22 6.22 0 00-2.38-2.05 6.7 6.7 0 00-2.86-.6c-2.07 0-3.66.75-4.77 2.23-1.12 1.48-1.68 3.6-1.68 6.33 0 1.46.13 2.7.38 3.74a7.29 7.29 0 001.1 2.56 4.35 4.35 0 001.78 1.45c.7.3 1.5.46 2.4.46 1.29 0 2.41-.3 3.36-.88a9.6 9.6 0 002.67-2.49V31.02zm3.91-15.43V48h-2.33c-.56 0-.9-.27-1.06-.81l-.35-2.71a12.13 12.13 0 01-3.25 2.77 8.28 8.28 0 01-4.23 1.06 7.31 7.31 0 01-6.14-2.9c-.73-.96-1.3-2.15-1.69-3.57a18.35 18.35 0 01.07-9.48 11.29 11.29 0 011.89-3.7 8.7 8.7 0 017.06-3.34 7.96 7.96 0 016.12 2.62V15.59h3.91zM46.61 70.71V93H42.7V70.71h3.91zm.84-7c0 .39-.08.75-.24 1.09-.15.32-.35.61-.62.88-.25.25-.55.44-.9.59a2.67 2.67 0 01-2.16 0 2.9 2.9 0 01-1.45-1.47 2.67 2.67 0 010-2.16c.15-.35.35-.65.6-.9.25-.27.53-.47.85-.62a2.67 2.67 0 012.16 0c.35.15.65.35.9.62.27.25.47.55.62.9.16.34.24.7.24 1.08zm7.97 10.24c.49-.54 1-1.04 1.54-1.48a9.85 9.85 0 013.66-1.84 8.96 8.96 0 015.43.35c.94.4 1.72.97 2.33 1.71.63.74 1.11 1.62 1.43 2.67.32 1.04.49 2.19.49 3.45V93h-3.94V78.81c0-1.69-.4-3-1.17-3.92-.76-.93-1.93-1.4-3.5-1.4-1.15 0-2.24.27-3.25.83-1 .56-1.92 1.31-2.77 2.27V93h-3.94V70.71h2.35c.56 0 .9.28 1.04.82l.3 2.42zm57.7 3.3c0 2.36-.37 4.5-1.11 6.44a14.3 14.3 0 01-3.17 4.98c-1.37 1.37-3 2.45-4.93 3.2-1.9.76-4.02 1.13-6.33 1.13H85.8V61.47h11.77c2.31 0 4.42.39 6.33 1.15a13.8 13.8 0 018.1 8.18 17.75 17.75 0 011.12 6.45zm-4.37 0c0-1.94-.26-3.67-.8-5.2a10.94 10.94 0 00-2.23-3.87 9.57 9.57 0 00-3.53-2.42 12.23 12.23 0 00-4.61-.83h-7.5v24.62h7.5c1.7 0 3.24-.28 4.61-.84a9.7 9.7 0 003.53-2.4 10.94 10.94 0 002.24-3.87c.53-1.53.8-3.26.8-5.2zm19.8 5.72c-1.8.06-3.34.2-4.62.44-1.26.22-2.3.51-3.1.88-.8.36-1.37.8-1.74 1.3-.35.5-.53 1.05-.53 1.67 0 .58.1 1.1.3 1.52a3 3 0 00.76 1.05c.34.27.73.46 1.17.6.45.11.94.17 1.45.17a7.28 7.28 0 003.5-.81 11.95 11.95 0 002.82-2.2v-4.62zm-12.65-9.11a12.73 12.73 0 013.98-2.66c1.43-.59 3-.88 4.73-.88 1.25 0 2.36.2 3.33.61a6.81 6.81 0 013.94 4.38c.33 1.04.5 2.19.5 3.43V93h-1.74a1.8 1.8 0 01-.88-.18c-.2-.13-.36-.38-.48-.74l-.44-2.12c-.59.55-1.16 1.03-1.72 1.46a9.48 9.48 0 01-3.74 1.7c-.69.15-1.46.23-2.3.23-.87 0-1.69-.12-2.45-.35a5.34 5.34 0 01-3.34-2.93 6.64 6.64 0 01-.49-2.64c0-.88.25-1.72.73-2.53a6.33 6.33 0 012.35-2.17c1.09-.63 2.5-1.15 4.25-1.54 1.75-.41 3.89-.65 6.42-.7v-1.75c0-1.73-.37-3.03-1.12-3.91-.75-.9-1.84-1.34-3.28-1.34-.97 0-1.78.12-2.44.37-.64.23-1.2.5-1.7.81l-1.23.82c-.33.23-.67.35-1 .35-.27 0-.5-.07-.69-.2a2.1 2.1 0 01-.48-.53l-.7-1.25zm27.67 19.5c-1.76 0-3.12-.5-4.07-1.48-.94-.98-1.41-2.4-1.41-4.25V74h-2.68a.9.9 0 01-.6-.2c-.16-.14-.24-.36-.24-.66v-1.56l3.65-.46.9-6.89c.05-.22.14-.4.29-.52a.88.88 0 01.62-.22H142v7.67h6.44V74h-6.44v13.38c0 .94.22 1.63.68 2.09.45.45 1.04.68 1.76.68a3.21 3.21 0 001.85-.53l.55-.35c.16-.12.3-.18.41-.18.2 0 .4.13.55.38l1.15 1.87a7.45 7.45 0 01-2.44 1.5c-.96.35-1.94.52-2.95.52zm19.68-10.4c-1.8.07-3.34.21-4.62.45-1.26.22-2.3.51-3.1.88-.8.36-1.37.8-1.74 1.3-.35.5-.53 1.05-.53 1.67 0 .58.1 1.1.3 1.52.18.42.44.77.76 1.05.34.27.73.46 1.17.6.45.11.94.17 1.45.17a7.3 7.3 0 003.5-.81 12.04 12.04 0 002.82-2.2v-4.62zm-12.65-9.1a12.72 12.72 0 013.99-2.66c1.42-.59 3-.88 4.72-.88 1.25 0 2.36.2 3.33.61a6.81 6.81 0 013.94 4.38c.33 1.04.5 2.19.5 3.43V93h-1.74a1.8 1.8 0 01-.88-.18c-.2-.13-.36-.38-.48-.74l-.44-2.12c-.59.55-1.16 1.03-1.72 1.46a9.48 9.48 0 01-3.74 1.7c-.69.15-1.46.23-2.3.23-.87 0-1.69-.12-2.45-.35a5.33 5.33 0 01-3.34-2.93 6.62 6.62 0 01-.49-2.64c0-.88.25-1.72.73-2.53a6.33 6.33 0 012.35-2.17c1.09-.63 2.5-1.15 4.25-1.54 1.74-.41 3.89-.65 6.42-.7v-1.75c0-1.73-.37-3.03-1.12-3.91-.75-.9-1.84-1.34-3.28-1.34-.97 0-1.78.12-2.44.37-.64.23-1.2.5-1.7.81-.46.3-.87.57-1.22.82-.34.23-.68.35-1.02.35-.26 0-.49-.07-.68-.2-.19-.14-.35-.32-.48-.53l-.7-1.25z" fill="#fff"></path><path fill="#D42B21" d="M0 106.79h210V120H0z"></path></g><defs><clipPath id="clip0"><path fill="#fff" d="M0 0h210v120H0z"></path></clipPath></defs></svg></g><a href="https://ourworldindata.org/grapher/global-primary-energy" style="font-family:&quot;Playfair Display&quot;, Georgia, &quot;Times New Roman&quot;, serif"><text font-size="25.20" x="15.0" y="35.2" fill="#555"><tspan x="15" y="35.160000000000004">Global primary energy consumption</tspan></text></a><text font-size="14.40" x="15.0" y="55.7" fill="#666"><tspan x="15" y="55.72">Global primary energy consumption, measured in terawatt-hours (TWh) per year. Here 'other renewables' are</tspan><tspan x="15" y="73">renewable technologies not including solar, wind, hydropower and traditional biofuels.</tspan></text></g><g class="StackedArea"><defs><clipPath id="boundsClip-3"><rect x="117.686" y="0" width="820" height="924.6"></rect></clipPath></defs><g class="AxisBoxView"><g class="HorizontalAxis"><line x1="117.7" y1="535.3000000000001" x2="117.7" y2="539.3000000000001" stroke="#ccc"></line><line x1="257.5" y1="535.3000000000001" x2="257.5" y2="539.3000000000001" stroke="#ccc"></line><line x1="397.2" y1="535.3000000000001" x2="397.2" y2="539.3000000000001" stroke="#ccc"></line><line x1="537" y1="535.3000000000001" x2="537" y2="539.3000000000001" stroke="#ccc"></line><line x1="676.8" y1="535.3000000000001" x2="676.8" y2="539.3000000000001" stroke="#ccc"></line><line x1="727.1" y1="535.3000000000001" x2="727.1" y2="539.3000000000001" stroke="#ccc"></line><text x="117.7" y="556.5" fill="#666" text-anchor="middle" font-size="16.2">1800</text><text x="257.5" y="556.5" fill="#666" text-anchor="middle" font-size="16.2">1850</text><text x="397.2" y="556.5" fill="#666" text-anchor="middle" font-size="16.2">1900</text><text x="537" y="556.5" fill="#666" text-anchor="middle" font-size="16.2">1950</text><text x="676.8" y="556.5" fill="#666" text-anchor="middle" font-size="16.2">2000</text><text x="727.1" y="556.5" fill="#666" text-anchor="middle" font-size="16.2">2018</text></g><g class="VerticalAxis"><text x="112.69" y="535.3" fill="#666" text-anchor="end" font-size="16.2">0 TWh</text><text x="112.69" y="479.1" fill="#666" text-anchor="end" font-size="16.2">20,000 TWh</text><text x="112.69" y="423" fill="#666" text-anchor="end" font-size="16.2">40,000 TWh</text><text x="112.69" y="366.8" fill="#666" text-anchor="end" font-size="16.2">60,000 TWh</text><text x="112.69" y="310.6" fill="#666" text-anchor="end" font-size="16.2">80,000 TWh</text><text x="112.69" y="254.5" fill="#666" text-anchor="end" font-size="16.2">100,000 TWh</text><text x="112.69" y="198.3" fill="#666" text-anchor="end" font-size="16.2">120,000 TWh</text><text x="112.69" y="142.1" fill="#666" text-anchor="end" font-size="16.2">140,000 TWh</text></g><g class="AxisGridLines horizontalLines"><line x1="117.69" y1="535.3" x2="727.10" y2="535.3" stroke="#ccc"></line><line x1="117.69" y1="479.1" x2="727.10" y2="479.1" stroke="#ddd" stroke-dasharray="3,2"></line><line x1="117.69" y1="423" x2="727.10" y2="423" stroke="#ddd" stroke-dasharray="3,2"></line><line x1="117.69" y1="366.8" x2="727.10" y2="366.8" stroke="#ddd" stroke-dasharray="3,2"></line><line x1="117.69" y1="310.6" x2="727.10" y2="310.6" stroke="#ddd" stroke-dasharray="3,2"></line><line x1="117.69" y1="254.5" x2="727.10" y2="254.5" stroke="#ddd" stroke-dasharray="3,2"></line><line x1="117.69" y1="198.3" x2="727.10" y2="198.3" stroke="#ddd" stroke-dasharray="3,2"></line><line x1="117.69" y1="142.1" x2="727.10" y2="142.1" stroke="#ddd" stroke-dasharray="3,2"></line></g></g><g clip-path="url(#boundsClip-3)"><g class="HeightedLegend" style="cursor:default"><g class="legendMark"><g class="indicator"><path d="M731.1,95.1 H754.2428571428572 V108.25 H758.1" stroke="#999" stroke-width="0.5" fill="none"></path></g><rect x="727.1" y="94.2" width="104.25500000000001" height="28.1" fill="#fff" opacity="0"></rect><text font-size="13.50" x="762.1" y="105.0" fill="#2a939b"><tspan x="762.1" y="105">Other</tspan><tspan x="762.1" y="119.85">renewables</tspan></text></g><g class="legendMark"><g class="indicator"><path d="M731.1,96.8 H750.3857142857144 V131.05 H758.1" stroke="#999" stroke-width="0.5" fill="none"></path></g><rect x="727.1" y="124.30000000000001" width="66.59" height="13.5" fill="#fff" opacity="0"></rect><text font-size="13.50" x="762.1" y="135.1" fill="#ffd53e"><tspan x="762.1" y="135.10000000000002">Solar</tspan></text></g><g class="legendMark"><g class="indicator"><path d="M731.1,99.4 H746.5285714285715 V146.55 H758.1" stroke="#999" stroke-width="0.5" fill="none"></path></g><rect x="727.1" y="139.8" width="65.78" height="13.5" fill="#fff" opacity="0"></rect><text font-size="13.50" x="762.1" y="150.6" fill="#5eb77e"><tspan x="762.1" y="150.60000000000002">Wind</tspan></text></g><g class="legendMark"><g class="indicator"><path d="M731.1,105 H742.6714285714286 V162.05 H758.1" stroke="#999" stroke-width="0.5" fill="none"></path></g><rect x="727.1" y="155.3" width="81.575" height="13.5" fill="#fff" opacity="0"></rect><text font-size="13.50" x="762.1" y="166.1" fill="#ca2628"><tspan x="762.1" y="166.10000000000002">Nuclear</tspan></text></g><g class="legendMark"><g class="indicator"><path d="M731.1,114.6 H738.8142857142858 V177.55 H758.1" stroke="#999" stroke-width="0.5" fill="none"></path></g><rect x="727.1" y="170.8" width="107.9" height="13.5" fill="#fff" opacity="0"></rect><text font-size="13.50" x="762.1" y="181.6" fill="#7ec7ce"><tspan x="762.1" y="181.60000000000002">Hydropower</tspan></text></g><g class="legendMark"><g class="indicator"><path d="M731.1,174.6 H734.9571428571429 V193.05 H758.1" stroke="#999" stroke-width="0.5" fill="none"></path></g><rect x="727.1" y="186.3" width="104.25500000000001" height="13.5" fill="#fff" opacity="0"></rect><text font-size="13.50" x="762.1" y="197.1" fill="#a652ba"><tspan x="762.1" y="197.10000000000002">Natural gas</tspan></text></g><g class="legendMark"><g class="indicator"><path d="M731.1,304.8 H744.6 V304.8 H758.1" stroke="#999" stroke-width="0.5" fill="none"></path></g><rect x="727.1" y="298.05" width="89.135" height="13.5" fill="#fff" opacity="0"></rect><text font-size="13.50" x="762.1" y="308.9" fill="#3360a9"><tspan x="762.1" y="308.85">Crude oil</tspan></text></g><g class="legendMark"><g class="indicator"><path d="M731.1,442.5 H744.6 V442.5 H758.1" stroke="#999" stroke-width="0.5" fill="none"></path></g><rect x="727.1" y="435.75" width="62.81" height="13.5" fill="#fff" opacity="0"></rect><text font-size="13.50" x="762.1" y="446.6" fill="#818282"><tspan x="762.1" y="446.55">Coal</tspan></text></g><g class="legendMark"><g class="indicator"><path d="M731.1,519.7 H744.6 V519.7 H758.1" stroke="#999" stroke-width="0.5" fill="none"></path></g><rect x="727.1" y="505.65000000000003" width="98.18" height="28.1" fill="#fff" opacity="0"></rect><text font-size="13.50" x="762.1" y="516.5" fill="#932834"><tspan x="762.1" y="516.45">Traditional</tspan><tspan x="762.1" y="531.3000000000001">biofuels</tspan></text></g></g><g class="Areas"><rect x="117.686" y="94.2" width="609.414" height="441.1000000000001" opacity="0" fill="rgba(255,255,255,0)"></rect><path class="World_4-area" stroke-linecap="round" d="M117.7 519.7L145.6 518.9L173.6 518.1L201.6 517.4L229.5 515.8L257.5 515L285.4 515.8L313.4 515.8L341.3 515.8L369.3 516.6L397.2 518.1L425.2 517.4L453.1 515.8L481.1 515L509.1 515L537 514.2L565 510.3L578.9 509.6L581.7 509.4L584.5 509.3L587.3 509.1L590.1 508.9L592.9 508.8L595.7 508.6L598.5 508.5L601.3 508.3L604.1 508.2L606.9 508L609.7 507.9L612.5 507.7L615.3 507.5L618.1 507.4L620.9 507.2L623.7 506.9L626.5 506.6L629.3 506.3L632.1 506L634.8 505.7L637.6 505.4L640.4 505.1L643.2 504.7L646 504.4L648.8 504.1L651.6 503.7L654.4 503.4L657.2 503L660 502.6L662.8 502.2L665.6 501.8L668.4 501.4L671.2 501L674 500.4L676.8 500.2L679.6 500.2L682.4 500.3L685.2 500.7L688 501.2L690.8 501.4L693.6 501.6L696.3 501.8L699.1 502.1L701.9 502.3L704.7 502.5L707.5 502.9L710.3 503.2L713.1 503.5L715.9 503.8L718.7 504.1L721.5 504.1L724.3 504.1L727.1 504.1L727.1 535.3000000000001L117.686 535.3000000000001" fill="#932834" fill-opacity="0.7"></path><path class="World_0-area" stroke-linecap="round" d="M117.7 519.4L145.6 518.6L173.6 517.7L201.6 516.6L229.5 514.8L257.5 513.4L285.4 512.8L313.4 511.2L341.3 508.7L369.3 505.7L397.2 502.1L425.2 493L453.1 488.2L481.1 486.6L509.1 482.5L537 478.8L565 467L578.9 464.2L581.7 463.5L584.5 464.1L587.3 463.3L590.1 461.7L592.9 460.8L595.7 461L598.5 460.3L601.3 458.7L604.1 458.5L606.9 457.4L609.7 455.4L612.5 453.7L615.3 452.9L618.1 450.2L620.9 448.6L623.7 447.5L626.5 446.6L629.3 444.4L632.1 441.4L634.8 438.6L637.6 437.5L640.4 434.4L643.2 432L646 431L648.8 431.6L651.6 432L654.4 431.8L657.2 431.1L660 430.4L662.8 429.6L665.6 427.4L668.4 426.9L671.2 427L674 425.9L676.8 423.2L679.6 421.9L682.4 419L685.2 412.2L688 406.5L690.8 399.9L693.6 394.8L696.3 389L699.1 387.7L701.9 389.6L704.7 384.6L707.5 379.3L710.3 379.1L713.1 377.2L715.9 377.6L718.7 381L721.5 382.9L724.3 382.6L727.1 380.9L727.1 504.1L724.3 504.1L721.5 504.1L718.7 504.1L715.9 503.8L713.1 503.5L710.3 503.2L707.5 502.9L704.7 502.5L701.9 502.3L699.1 502.1L696.3 501.8L693.6 501.6L690.8 501.4L688 501.2L685.2 500.7L682.4 500.3L679.6 500.2L676.8 500.2L674 500.4L671.2 501L668.4 501.4L665.6 501.8L662.8 502.2L660 502.6L657.2 503L654.4 503.4L651.6 503.7L648.8 504.1L646 504.4L643.2 504.7L640.4 505.1L637.6 505.4L634.8 505.7L632.1 506L629.3 506.3L626.5 506.6L623.7 506.9L620.9 507.2L618.1 507.4L615.3 507.5L612.5 507.7L609.7 507.9L606.9 508L604.1 508.2L601.3 508.3L598.5 508.5L595.7 508.6L592.9 508.8L590.1 508.9L587.3 509.1L584.5 509.3L581.7 509.4L578.9 509.6L565 510.3L537 514.2L509.1 515L481.1 515L453.1 515.8L425.2 517.4L397.2 518.1L369.3 516.6L341.3 515.8L313.4 515.8L285.4 515.8L257.5 515L229.5 515.8L201.6 517.4L173.6 518.1L145.6 518.9L117.7 519.7" fill="#818282" fill-opacity="0.7"></path><path class="World_2-area" stroke-linecap="round" d="M117.7 519.4L145.6 518.6L173.6 517.7L201.6 516.6L229.5 514.8L257.5 513.4L285.4 512.8L313.4 511.2L341.3 508.6L369.3 505.5L397.2 501.5L425.2 491.9L453.1 485.7L481.1 481.7L509.1 475L537 463.6L565 435.8L578.9 413.4L581.7 408.9L584.5 405.5L587.3 399.7L590.1 392.7L592.9 386L595.7 381.6L598.5 374.9L601.3 366.6L604.1 367.7L606.9 367.5L609.7 359.7L612.5 354.7L615.3 350.5L618.1 346.1L620.9 348.6L623.7 351.2L626.5 353.2L629.3 351.6L632.1 346.5L634.8 343.5L637.6 339.5L640.4 334.5L643.2 328.8L646 326L648.8 325.4L651.6 325.8L654.4 323.8L657.2 323.8L660 320.6L662.8 318.4L665.6 313.6L668.4 310.1L671.2 309.7L674 306.5L676.8 302.3L679.6 299.9L682.4 295.9L685.2 286.3L688 275.9L690.8 267.5L693.6 260.8L696.3 253L699.1 252.3L701.9 256.6L704.7 247.4L707.5 240.6L710.3 238.8L713.1 235.1L715.9 234.3L718.7 235.1L721.5 234.4L724.3 232.2L727.1 228.6L727.1 380.9L724.3 382.6L721.5 382.9L718.7 381L715.9 377.6L713.1 377.2L710.3 379.1L707.5 379.3L704.7 384.6L701.9 389.6L699.1 387.7L696.3 389L693.6 394.8L690.8 399.9L688 406.5L685.2 412.2L682.4 419L679.6 421.9L676.8 423.2L674 425.9L671.2 427L668.4 426.9L665.6 427.4L662.8 429.6L660 430.4L657.2 431.1L654.4 431.8L651.6 432L648.8 431.6L646 431L643.2 432L640.4 434.4L637.6 437.5L634.8 438.6L632.1 441.4L629.3 444.4L626.5 446.6L623.7 447.5L620.9 448.6L618.1 450.2L615.3 452.9L612.5 453.7L609.7 455.4L606.9 457.4L604.1 458.5L601.3 458.7L598.5 460.3L595.7 461L592.9 460.8L590.1 461.7L587.3 463.3L584.5 464.1L581.7 463.5L578.9 464.2L565 467L537 478.8L509.1 482.5L481.1 486.6L453.1 488.2L425.2 493L397.2 502.1L369.3 505.7L341.3 508.7L313.4 511.2L285.4 512.8L257.5 513.4L229.5 514.8L201.6 516.6L173.6 517.7L145.6 518.6L117.7 519.4" fill="#3360a9" fill-opacity="0.7"></path><path class="World_3-area" stroke-linecap="round" d="M117.7 519.4L145.6 518.6L173.6 517.7L201.6 516.6L229.5 514.8L257.5 513.4L285.4 512.8L313.4 511.2L341.3 508.6L369.3 505.4L397.2 501.4L425.2 491.5L453.1 485L481.1 480L509.1 472.6L537 457.7L565 423.2L578.9 395.7L581.7 389.6L584.5 384.8L587.3 377.1L590.1 367.9L592.9 359L595.7 352.7L598.5 344.4L601.3 334.7L604.1 335L606.9 334.8L609.7 325L612.5 318.9L615.3 313.2L618.1 306.5L620.9 308.7L623.7 310.7L626.5 312.5L629.3 310.3L632.1 301.8L634.8 297.8L637.6 293.4L640.4 286L643.2 278L646 273L648.8 270.7L651.6 269.7L654.4 267.7L657.2 266.8L660 263.4L662.8 259.1L665.6 251.3L668.4 248.3L671.2 246.7L674 241.7L676.8 234.9L679.6 231.6L682.4 225.5L685.2 214.1L688 200.9L690.8 190.5L693.6 181.7L696.3 170.8L699.1 168.1L701.9 174.1L704.7 158.7L707.5 149.8L710.3 145.6L713.1 140.4L715.9 139.1L718.7 137.8L721.5 134.7L724.3 129.6L727.1 120.5L727.1 228.6L724.3 232.2L721.5 234.4L718.7 235.1L715.9 234.3L713.1 235.1L710.3 238.8L707.5 240.6L704.7 247.4L701.9 256.6L699.1 252.3L696.3 253L693.6 260.8L690.8 267.5L688 275.9L685.2 286.3L682.4 295.9L679.6 299.9L676.8 302.3L674 306.5L671.2 309.7L668.4 310.1L665.6 313.6L662.8 318.4L660 320.6L657.2 323.8L654.4 323.8L651.6 325.8L648.8 325.4L646 326L643.2 328.8L640.4 334.5L637.6 339.5L634.8 343.5L632.1 346.5L629.3 351.6L626.5 353.2L623.7 351.2L620.9 348.6L618.1 346.1L615.3 350.5L612.5 354.7L609.7 359.7L606.9 367.5L604.1 367.7L601.3 366.6L598.5 374.9L595.7 381.6L592.9 386L590.1 392.7L587.3 399.7L584.5 405.5L581.7 408.9L578.9 413.4L565 435.8L537 463.6L509.1 475L481.1 481.7L453.1 485.7L425.2 491.9L397.2 501.5L369.3 505.5L341.3 508.6L313.4 511.2L285.4 512.8L257.5 513.4L229.5 514.8L201.6 516.6L173.6 517.7L145.6 518.6L117.7 519.4" fill="#a652ba" fill-opacity="0.7"></path><path class="World_6-area" stroke-linecap="round" d="M117.7 519.4L145.6 518.6L173.6 517.7L201.6 516.6L229.5 514.8L257.5 513.4L285.4 512.8L313.4 511.2L341.3 508.6L369.3 505.4L397.2 501.3L425.2 491.4L453.1 484.8L481.1 479.6L509.1 472L537 456.7L565 421.3L578.9 393.1L581.7 386.8L584.5 382L587.3 374.1L590.1 364.8L592.9 355.7L595.7 349.3L598.5 340.8L601.3 331L604.1 331L606.9 330.7L609.7 320.9L612.5 314.7L615.3 308.7L618.1 301.8L620.9 303.9L623.7 305.9L626.5 307.5L629.3 305L632.1 296.4L634.8 292.2L637.6 287.7L640.4 280.3L643.2 272.1L646 267.1L648.8 264.6L651.6 263.5L654.4 261.5L657.2 260.3L660 256.7L662.8 252.1L665.6 244.2L668.4 241L671.2 239.4L674 234.4L676.8 227.4L679.6 224.3L682.4 218.1L685.2 206.7L688 193L690.8 182.3L693.6 173.2L696.3 162.1L699.1 159L701.9 164.9L704.7 149.1L707.5 140L710.3 135.3L713.1 129.8L715.9 128.2L718.7 126.9L721.5 123.4L724.3 118.1L727.1 108.8L727.1 120.5L724.3 129.6L721.5 134.7L718.7 137.8L715.9 139.1L713.1 140.4L710.3 145.6L707.5 149.8L704.7 158.7L701.9 174.1L699.1 168.1L696.3 170.8L693.6 181.7L690.8 190.5L688 200.9L685.2 214.1L682.4 225.5L679.6 231.6L676.8 234.9L674 241.7L671.2 246.7L668.4 248.3L665.6 251.3L662.8 259.1L660 263.4L657.2 266.8L654.4 267.7L651.6 269.7L648.8 270.7L646 273L643.2 278L640.4 286L637.6 293.4L634.8 297.8L632.1 301.8L629.3 310.3L626.5 312.5L623.7 310.7L620.9 308.7L618.1 306.5L615.3 313.2L612.5 318.9L609.7 325L606.9 334.8L604.1 335L601.3 334.7L598.5 344.4L595.7 352.7L592.9 359L590.1 367.9L587.3 377.1L584.5 384.8L581.7 389.6L578.9 395.7L565 423.2L537 457.7L509.1 472.6L481.1 480L453.1 485L425.2 491.5L397.2 501.4L369.3 505.4L341.3 508.6L313.4 511.2L285.4 512.8L257.5 513.4L229.5 514.8L201.6 516.6L173.6 517.7L145.6 518.6L117.7 519.4" fill="#7ec7ce" fill-opacity="0.7"></path><path class="World_7-area" stroke-linecap="round" d="M117.7 519.4L145.6 518.6L173.6 517.7L201.6 516.6L229.5 514.8L257.5 513.4L285.4 512.8L313.4 511.2L341.3 508.6L369.3 505.4L397.2 501.3L425.2 491.4L453.1 484.8L481.1 479.6L509.1 472L537 456.7L565 421.3L578.9 393.1L581.7 386.7L584.5 381.9L587.3 374L590.1 364.6L592.9 355.4L595.7 349L598.5 340.3L601.3 330.5L604.1 330.3L606.9 329.7L609.7 319.7L612.5 313.2L615.3 307L618.1 300L620.9 301.9L623.7 303.5L626.5 304.9L629.3 302.1L632.1 292.9L634.8 288.1L637.6 283.3L640.4 275.4L643.2 266.8L646 261.6L648.8 259L651.6 257.6L654.4 255.6L657.2 254.1L660 250.5L662.8 245.6L665.6 237.5L668.4 234.3L671.2 232.6L674 227.3L676.8 220.2L679.6 216.9L682.4 210.6L685.2 199.3L688 185.3L690.8 174.5L693.6 165.4L696.3 154.4L699.1 151.3L701.9 157.3L704.7 141.3L707.5 132.6L710.3 128.4L713.1 122.8L715.9 121L718.7 119.6L721.5 116L724.3 110.7L727.1 101.2L727.1 108.8L724.3 118.1L721.5 123.4L718.7 126.9L715.9 128.2L713.1 129.8L710.3 135.3L707.5 140L704.7 149.1L701.9 164.9L699.1 159L696.3 162.1L693.6 173.2L690.8 182.3L688 193L685.2 206.7L682.4 218.1L679.6 224.3L676.8 227.4L674 234.4L671.2 239.4L668.4 241L665.6 244.2L662.8 252.1L660 256.7L657.2 260.3L654.4 261.5L651.6 263.5L648.8 264.6L646 267.1L643.2 272.1L640.4 280.3L637.6 287.7L634.8 292.2L632.1 296.4L629.3 305L626.5 307.5L623.7 305.9L620.9 303.9L618.1 301.8L615.3 308.7L612.5 314.7L609.7 320.9L606.9 330.7L604.1 331L601.3 331L598.5 340.8L595.7 349.3L592.9 355.7L590.1 364.8L587.3 374.1L584.5 382L581.7 386.8L578.9 393.1L565 421.3L537 456.7L509.1 472L481.1 479.6L453.1 484.8L425.2 491.4L397.2 501.3L369.3 505.4L341.3 508.6L313.4 511.2L285.4 512.8L257.5 513.4L229.5 514.8L201.6 516.6L173.6 517.7L145.6 518.6L117.7 519.4" fill="#ca2628" fill-opacity="0.7"></path><path class="World_8-area" stroke-linecap="round" d="M117.7 519.4L145.6 518.6L173.6 517.7L201.6 516.6L229.5 514.8L257.5 513.4L285.4 512.8L313.4 511.2L341.3 508.6L369.3 505.4L397.2 501.3L425.2 491.4L453.1 484.8L481.1 479.6L509.1 472L537 456.7L565 421.3L578.9 393.1L581.7 386.7L584.5 381.9L587.3 374L590.1 364.6L592.9 355.4L595.7 349L598.5 340.3L601.3 330.5L604.1 330.3L606.9 329.7L609.7 319.7L612.5 313.2L615.3 307L618.1 300L620.9 301.9L623.7 303.5L626.5 304.9L629.3 302.1L632.1 292.9L634.8 288.1L637.6 283.3L640.4 275.4L643.2 266.8L646 261.6L648.8 259L651.6 257.6L654.4 255.5L657.2 254.1L660 250.5L662.8 245.6L665.6 237.4L668.4 234.3L671.2 232.5L674 227.2L676.8 220.1L679.6 216.7L682.4 210.4L685.2 199.1L688 185L690.8 174.2L693.6 165L696.3 153.9L699.1 150.7L701.9 156.6L704.7 140.4L707.5 131.3L710.3 126.9L713.1 121L715.9 119L718.7 117.3L721.5 113.3L724.3 107.6L727.1 97.6L727.1 101.2L724.3 110.7L721.5 116L718.7 119.6L715.9 121L713.1 122.8L710.3 128.4L707.5 132.6L704.7 141.3L701.9 157.3L699.1 151.3L696.3 154.4L693.6 165.4L690.8 174.5L688 185.3L685.2 199.3L682.4 210.6L679.6 216.9L676.8 220.2L674 227.3L671.2 232.6L668.4 234.3L665.6 237.5L662.8 245.6L660 250.5L657.2 254.1L654.4 255.6L651.6 257.6L648.8 259L646 261.6L643.2 266.8L640.4 275.4L637.6 283.3L634.8 288.1L632.1 292.9L629.3 302.1L626.5 304.9L623.7 303.5L620.9 301.9L618.1 300L615.3 307L612.5 313.2L609.7 319.7L606.9 329.7L604.1 330.3L601.3 330.5L598.5 340.3L595.7 349L592.9 355.4L590.1 364.6L587.3 374L584.5 381.9L581.7 386.7L578.9 393.1L565 421.3L537 456.7L509.1 472L481.1 479.6L453.1 484.8L425.2 491.4L397.2 501.3L369.3 505.4L341.3 508.6L313.4 511.2L285.4 512.8L257.5 513.4L229.5 514.8L201.6 516.6L173.6 517.7L145.6 518.6L117.7 519.4" fill="#5eb77e" fill-opacity="0.7"></path><path class="World_1-area" stroke-linecap="round" d="M117.7 519.4L145.6 518.6L173.6 517.7L201.6 516.6L229.5 514.8L257.5 513.4L285.4 512.8L313.4 511.2L341.3 508.6L369.3 505.4L397.2 501.3L425.2 491.4L453.1 484.8L481.1 479.6L509.1 472L537 456.7L565 421.3L578.9 393.1L581.7 386.7L584.5 381.9L587.3 374L590.1 364.6L592.9 355.4L595.7 349L598.5 340.3L601.3 330.5L604.1 330.3L606.9 329.7L609.7 319.7L612.5 313.2L615.3 307L618.1 300L620.9 301.9L623.7 303.5L626.5 304.9L629.3 302.1L632.1 292.9L634.8 288.1L637.6 283.3L640.4 275.4L643.2 266.8L646 261.6L648.8 259L651.6 257.6L654.4 255.5L657.2 254.1L660 250.5L662.8 245.6L665.6 237.4L668.4 234.3L671.2 232.5L674 227.2L676.8 220.1L679.6 216.7L682.4 210.4L685.2 199.1L688 185L690.8 174.2L693.6 165L696.3 153.9L699.1 150.6L701.9 156.5L704.7 140.3L707.5 131.2L710.3 126.6L713.1 120.6L715.9 118.5L718.7 116.6L721.5 112.4L724.3 106.3L727.1 96L727.1 97.6L724.3 107.6L721.5 113.3L718.7 117.3L715.9 119L713.1 121L710.3 126.9L707.5 131.3L704.7 140.4L701.9 156.6L699.1 150.7L696.3 153.9L693.6 165L690.8 174.2L688 185L685.2 199.1L682.4 210.4L679.6 216.7L676.8 220.1L674 227.2L671.2 232.5L668.4 234.3L665.6 237.4L662.8 245.6L660 250.5L657.2 254.1L654.4 255.5L651.6 257.6L648.8 259L646 261.6L643.2 266.8L640.4 275.4L637.6 283.3L634.8 288.1L632.1 292.9L629.3 302.1L626.5 304.9L623.7 303.5L620.9 301.9L618.1 300L615.3 307L612.5 313.2L609.7 319.7L606.9 329.7L604.1 330.3L601.3 330.5L598.5 340.3L595.7 349L592.9 355.4L590.1 364.6L587.3 374L584.5 381.9L581.7 386.7L578.9 393.1L565 421.3L537 456.7L509.1 472L481.1 479.6L453.1 484.8L425.2 491.4L397.2 501.3L369.3 505.4L341.3 508.6L313.4 511.2L285.4 512.8L257.5 513.4L229.5 514.8L201.6 516.6L173.6 517.7L145.6 518.6L117.7 519.4" fill="#ffd53e" fill-opacity="0.7"></path><path class="World_5-area" stroke-linecap="round" d="M117.7 519.4L145.6 518.6L173.6 517.7L201.6 516.6L229.5 514.8L257.5 513.4L285.4 512.8L313.4 511.2L341.3 508.6L369.3 505.4L397.2 501.3L425.2 491.4L453.1 484.8L481.1 479.6L509.1 472L537 456.7L565 421.3L578.9 393L581.7 386.7L584.5 381.8L587.3 373.9L590.1 364.5L592.9 355.4L595.7 348.9L598.5 340.3L601.3 330.4L604.1 330.2L606.9 329.6L609.7 319.6L612.5 313.1L615.3 306.9L618.1 299.8L620.9 301.8L623.7 303.4L626.5 304.7L629.3 302L632.1 292.7L634.8 287.8L637.6 283L640.4 275.1L643.2 266.5L646 261.3L648.8 258.6L651.6 257.3L654.4 255.2L657.2 253.7L660 250.1L662.8 245.2L665.6 237L668.4 233.8L671.2 232L674 226.7L676.8 219.6L679.6 216.2L682.4 209.8L685.2 198.5L688 184.4L690.8 173.5L693.6 164.2L696.3 153.1L699.1 149.7L701.9 155.6L704.7 139.2L707.5 130L710.3 125.4L713.1 119.3L715.9 117.1L718.7 115.1L721.5 110.9L724.3 104.6L727.1 94.2L727.1 96L724.3 106.3L721.5 112.4L718.7 116.6L715.9 118.5L713.1 120.6L710.3 126.6L707.5 131.2L704.7 140.3L701.9 156.5L699.1 150.6L696.3 153.9L693.6 165L690.8 174.2L688 185L685.2 199.1L682.4 210.4L679.6 216.7L676.8 220.1L674 227.2L671.2 232.5L668.4 234.3L665.6 237.4L662.8 245.6L660 250.5L657.2 254.1L654.4 255.5L651.6 257.6L648.8 259L646 261.6L643.2 266.8L640.4 275.4L637.6 283.3L634.8 288.1L632.1 292.9L629.3 302.1L626.5 304.9L623.7 303.5L620.9 301.9L618.1 300L615.3 307L612.5 313.2L609.7 319.7L606.9 329.7L604.1 330.3L601.3 330.5L598.5 340.3L595.7 349L592.9 355.4L590.1 364.6L587.3 374L584.5 381.9L581.7 386.7L578.9 393.1L565 421.3L537 456.7L509.1 472L481.1 479.6L453.1 484.8L425.2 491.4L397.2 501.3L369.3 505.4L341.3 508.6L313.4 511.2L285.4 512.8L257.5 513.4L229.5 514.8L201.6 516.6L173.6 517.7L145.6 518.6L117.7 519.4" fill="#2a939b" fill-opacity="0.7"></path><path class="World_4-border" stroke-linecap="round" d="M117.7 519.7L145.6 518.9L173.6 518.1L201.6 517.4L229.5 515.8L257.5 515L285.4 515.8L313.4 515.8L341.3 515.8L369.3 516.6L397.2 518.1L425.2 517.4L453.1 515.8L481.1 515L509.1 515L537 514.2L565 510.3L578.9 509.6L581.7 509.4L584.5 509.3L587.3 509.1L590.1 508.9L592.9 508.8L595.7 508.6L598.5 508.5L601.3 508.3L604.1 508.2L606.9 508L609.7 507.9L612.5 507.7L615.3 507.5L618.1 507.4L620.9 507.2L623.7 506.9L626.5 506.6L629.3 506.3L632.1 506L634.8 505.7L637.6 505.4L640.4 505.1L643.2 504.7L646 504.4L648.8 504.1L651.6 503.7L654.4 503.4L657.2 503L660 502.6L662.8 502.2L665.6 501.8L668.4 501.4L671.2 501L674 500.4L676.8 500.2L679.6 500.2L682.4 500.3L685.2 500.7L688 501.2L690.8 501.4L693.6 501.6L696.3 501.8L699.1 502.1L701.9 502.3L704.7 502.5L707.5 502.9L710.3 503.2L713.1 503.5L715.9 503.8L718.7 504.1L721.5 504.1L724.3 504.1L727.1 504.1" stroke="rgb(123, 33, 44)" stroke-opacity="0.7" stroke-width="0.5" fill="none"></path><path class="World_0-border" stroke-linecap="round" d="M117.7 519.4L145.6 518.6L173.6 517.7L201.6 516.6L229.5 514.8L257.5 513.4L285.4 512.8L313.4 511.2L341.3 508.7L369.3 505.7L397.2 502.1L425.2 493L453.1 488.2L481.1 486.6L509.1 482.5L537 478.8L565 467L578.9 464.2L581.7 463.5L584.5 464.1L587.3 463.3L590.1 461.7L592.9 460.8L595.7 461L598.5 460.3L601.3 458.7L604.1 458.5L606.9 457.4L609.7 455.4L612.5 453.7L615.3 452.9L618.1 450.2L620.9 448.6L623.7 447.5L626.5 446.6L629.3 444.4L632.1 441.4L634.8 438.6L637.6 437.5L640.4 434.4L643.2 432L646 431L648.8 431.6L651.6 432L654.4 431.8L657.2 431.1L660 430.4L662.8 429.6L665.6 427.4L668.4 426.9L671.2 427L674 425.9L676.8 423.2L679.6 421.9L682.4 419L685.2 412.2L688 406.5L690.8 399.9L693.6 394.8L696.3 389L699.1 387.7L701.9 389.6L704.7 384.6L707.5 379.3L710.3 379.1L713.1 377.2L715.9 377.6L718.7 381L721.5 382.9L724.3 382.6L727.1 380.9" stroke="rgb(108, 109, 109)" stroke-opacity="0.7" stroke-width="0.5" fill="none"></path><path class="World_2-border" stroke-linecap="round" d="M117.7 519.4L145.6 518.6L173.6 517.7L201.6 516.6L229.5 514.8L257.5 513.4L285.4 512.8L313.4 511.2L341.3 508.6L369.3 505.5L397.2 501.5L425.2 491.9L453.1 485.7L481.1 481.7L509.1 475L537 463.6L565 435.8L578.9 413.4L581.7 408.9L584.5 405.5L587.3 399.7L590.1 392.7L592.9 386L595.7 381.6L598.5 374.9L601.3 366.6L604.1 367.7L606.9 367.5L609.7 359.7L612.5 354.7L615.3 350.5L618.1 346.1L620.9 348.6L623.7 351.2L626.5 353.2L629.3 351.6L632.1 346.5L634.8 343.5L637.6 339.5L640.4 334.5L643.2 328.8L646 326L648.8 325.4L651.6 325.8L654.4 323.8L657.2 323.8L660 320.6L662.8 318.4L665.6 313.6L668.4 310.1L671.2 309.7L674 306.5L676.8 302.3L679.6 299.9L682.4 295.9L685.2 286.3L688 275.9L690.8 267.5L693.6 260.8L696.3 253L699.1 252.3L701.9 256.6L704.7 247.4L707.5 240.6L710.3 238.8L713.1 235.1L715.9 234.3L718.7 235.1L721.5 234.4L724.3 232.2L727.1 228.6" stroke="rgb(43, 80, 141)" stroke-opacity="0.7" stroke-width="0.5" fill="none"></path><path class="World_3-border" stroke-linecap="round" d="M117.7 519.4L145.6 518.6L173.6 517.7L201.6 516.6L229.5 514.8L257.5 513.4L285.4 512.8L313.4 511.2L341.3 508.6L369.3 505.4L397.2 501.4L425.2 491.5L453.1 485L481.1 480L509.1 472.6L537 457.7L565 423.2L578.9 395.7L581.7 389.6L584.5 384.8L587.3 377.1L590.1 367.9L592.9 359L595.7 352.7L598.5 344.4L601.3 334.7L604.1 335L606.9 334.8L609.7 325L612.5 318.9L615.3 313.2L618.1 306.5L620.9 308.7L623.7 310.7L626.5 312.5L629.3 310.3L632.1 301.8L634.8 297.8L637.6 293.4L640.4 286L643.2 278L646 273L648.8 270.7L651.6 269.7L654.4 267.7L657.2 266.8L660 263.4L662.8 259.1L665.6 251.3L668.4 248.3L671.2 246.7L674 241.7L676.8 234.9L679.6 231.6L682.4 225.5L685.2 214.1L688 200.9L690.8 190.5L693.6 181.7L696.3 170.8L699.1 168.1L701.9 174.1L704.7 158.7L707.5 149.8L710.3 145.6L713.1 140.4L715.9 139.1L718.7 137.8L721.5 134.7L724.3 129.6L727.1 120.5" stroke="rgb(139, 69, 156)" stroke-opacity="0.7" stroke-width="0.5" fill="none"></path><path class="World_6-border" stroke-linecap="round" d="M117.7 519.4L145.6 518.6L173.6 517.7L201.6 516.6L229.5 514.8L257.5 513.4L285.4 512.8L313.4 511.2L341.3 508.6L369.3 505.4L397.2 501.3L425.2 491.4L453.1 484.8L481.1 479.6L509.1 472L537 456.7L565 421.3L578.9 393.1L581.7 386.8L584.5 382L587.3 374.1L590.1 364.8L592.9 355.7L595.7 349.3L598.5 340.8L601.3 331L604.1 331L606.9 330.7L609.7 320.9L612.5 314.7L615.3 308.7L618.1 301.8L620.9 303.9L623.7 305.9L626.5 307.5L629.3 305L632.1 296.4L634.8 292.2L637.6 287.7L640.4 280.3L643.2 272.1L646 267.1L648.8 264.6L651.6 263.5L654.4 261.5L657.2 260.3L660 256.7L662.8 252.1L665.6 244.2L668.4 241L671.2 239.4L674 234.4L676.8 227.4L679.6 224.3L682.4 218.1L685.2 206.7L688 193L690.8 182.3L693.6 173.2L696.3 162.1L699.1 159L701.9 164.9L704.7 149.1L707.5 140L710.3 135.3L713.1 129.8L715.9 128.2L718.7 126.9L721.5 123.4L724.3 118.1L727.1 108.8" stroke="rgb(105, 166, 172)" stroke-opacity="0.7" stroke-width="0.5" fill="none"></path><path class="World_7-border" stroke-linecap="round" d="M117.7 519.4L145.6 518.6L173.6 517.7L201.6 516.6L229.5 514.8L257.5 513.4L285.4 512.8L313.4 511.2L341.3 508.6L369.3 505.4L397.2 501.3L425.2 491.4L453.1 484.8L481.1 479.6L509.1 472L537 456.7L565 421.3L578.9 393.1L581.7 386.7L584.5 381.9L587.3 374L590.1 364.6L592.9 355.4L595.7 349L598.5 340.3L601.3 330.5L604.1 330.3L606.9 329.7L609.7 319.7L612.5 313.2L615.3 307L618.1 300L620.9 301.9L623.7 303.5L626.5 304.9L629.3 302.1L632.1 292.9L634.8 288.1L637.6 283.3L640.4 275.4L643.2 266.8L646 261.6L648.8 259L651.6 257.6L654.4 255.6L657.2 254.1L660 250.5L662.8 245.6L665.6 237.5L668.4 234.3L671.2 232.6L674 227.3L676.8 220.2L679.6 216.9L682.4 210.6L685.2 199.3L688 185.3L690.8 174.5L693.6 165.4L696.3 154.4L699.1 151.3L701.9 157.3L704.7 141.3L707.5 132.6L710.3 128.4L713.1 122.8L715.9 121L718.7 119.6L721.5 116L724.3 110.7L727.1 101.2" stroke="rgb(169, 32, 33)" stroke-opacity="0.7" stroke-width="0.5" fill="none"></path><path class="World_8-border" stroke-linecap="round" d="M117.7 519.4L145.6 518.6L173.6 517.7L201.6 516.6L229.5 514.8L257.5 513.4L285.4 512.8L313.4 511.2L341.3 508.6L369.3 505.4L397.2 501.3L425.2 491.4L453.1 484.8L481.1 479.6L509.1 472L537 456.7L565 421.3L578.9 393.1L581.7 386.7L584.5 381.9L587.3 374L590.1 364.6L592.9 355.4L595.7 349L598.5 340.3L601.3 330.5L604.1 330.3L606.9 329.7L609.7 319.7L612.5 313.2L615.3 307L618.1 300L620.9 301.9L623.7 303.5L626.5 304.9L629.3 302.1L632.1 292.9L634.8 288.1L637.6 283.3L640.4 275.4L643.2 266.8L646 261.6L648.8 259L651.6 257.6L654.4 255.5L657.2 254.1L660 250.5L662.8 245.6L665.6 237.4L668.4 234.3L671.2 232.5L674 227.2L676.8 220.1L679.6 216.7L682.4 210.4L685.2 199.1L688 185L690.8 174.2L693.6 165L696.3 153.9L699.1 150.7L701.9 156.6L704.7 140.4L707.5 131.3L710.3 126.9L713.1 121L715.9 119L718.7 117.3L721.5 113.3L724.3 107.6L727.1 97.6" stroke="rgb(79, 153, 105)" stroke-opacity="0.7" stroke-width="0.5" fill="none"></path><path class="World_1-border" stroke-linecap="round" d="M117.7 519.4L145.6 518.6L173.6 517.7L201.6 516.6L229.5 514.8L257.5 513.4L285.4 512.8L313.4 511.2L341.3 508.6L369.3 505.4L397.2 501.3L425.2 491.4L453.1 484.8L481.1 479.6L509.1 472L537 456.7L565 421.3L578.9 393.1L581.7 386.7L584.5 381.9L587.3 374L590.1 364.6L592.9 355.4L595.7 349L598.5 340.3L601.3 330.5L604.1 330.3L606.9 329.7L609.7 319.7L612.5 313.2L615.3 307L618.1 300L620.9 301.9L623.7 303.5L626.5 304.9L629.3 302.1L632.1 292.9L634.8 288.1L637.6 283.3L640.4 275.4L643.2 266.8L646 261.6L648.8 259L651.6 257.6L654.4 255.5L657.2 254.1L660 250.5L662.8 245.6L665.6 237.4L668.4 234.3L671.2 232.5L674 227.2L676.8 220.1L679.6 216.7L682.4 210.4L685.2 199.1L688 185L690.8 174.2L693.6 165L696.3 153.9L699.1 150.6L701.9 156.5L704.7 140.3L707.5 131.2L710.3 126.6L713.1 120.6L715.9 118.5L718.7 116.6L721.5 112.4L724.3 106.3L727.1 96" stroke="rgb(213, 178, 52)" stroke-opacity="0.7" stroke-width="0.5" fill="none"></path><path class="World_5-border" stroke-linecap="round" d="M117.7 519.4L145.6 518.6L173.6 517.7L201.6 516.6L229.5 514.8L257.5 513.4L285.4 512.8L313.4 511.2L341.3 508.6L369.3 505.4L397.2 501.3L425.2 491.4L453.1 484.8L481.1 479.6L509.1 472L537 456.7L565 421.3L578.9 393L581.7 386.7L584.5 381.8L587.3 373.9L590.1 364.5L592.9 355.4L595.7 348.9L598.5 340.3L601.3 330.4L604.1 330.2L606.9 329.6L609.7 319.6L612.5 313.1L615.3 306.9L618.1 299.8L620.9 301.8L623.7 303.4L626.5 304.7L629.3 302L632.1 292.7L634.8 287.8L637.6 283L640.4 275.1L643.2 266.5L646 261.3L648.8 258.6L651.6 257.3L654.4 255.2L657.2 253.7L660 250.1L662.8 245.2L665.6 237L668.4 233.8L671.2 232L674 226.7L676.8 219.6L679.6 216.2L682.4 209.8L685.2 198.5L688 184.4L690.8 173.5L693.6 164.2L696.3 153.1L699.1 149.7L701.9 155.6L704.7 139.2L707.5 130L710.3 125.4L713.1 119.3L715.9 117.1L718.7 115.1L721.5 110.9L724.3 104.6L727.1 94.2" stroke="rgb(35, 123, 130)" stroke-opacity="0.7" stroke-width="0.5" fill="none"></path></g></g></g><g class="SourcesFooter" style="fill:#777"><g class="clickable" style="fill:#777"><text font-size="12.60" x="15.0" y="581.6"><tspan x="15" y="581.58">Source: Vaclav Smil (2017) and BP Statistical Review of World Energy</tspan></text></g><text font-size="12.60" x="796.4" y="581.6"><tspan x="796.444" y="581.58"><a style="fill: #777;" class="cclogo" href="http://creativecommons.org/licenses/by/4.0/deed.en_US">CC BY</a></tspan></text></g></svg> 