<?xml version="1.0" encoding="UTF-8"?> <svg xmlns="http://www.w3.org/2000/svg" version="1.1" style="font-family:Lato, 'Helvetica Neue', Helvetica, Arial, sans-serif;font-size:18px;background-color:white;text-rendering:optimizeLegibility;-webkit-font-smoothing:antialiased" width="850" height="600" viewBox="0 0 850 600"><g class="HeaderView"><g transform="translate(774, 15) scale(0.29)"><svg xmlns="http://www.w3.org/2000/svg" width="210" height="120" viewBox="0 0 210 120" fill="none"><g clip-path="url(#clip0)"><path d="M0 0h210v107.89H0V0z" fill="#002147"></path><path d="M40.98 32.25c0 2.36-.38 4.53-1.12 6.51a14.26 14.26 0 01-8.1 8.4c-1.9.78-4.02 1.17-6.34 1.17-2.31 0-4.42-.39-6.33-1.17a14.31 14.31 0 01-8.08-8.4 18.29 18.29 0 01-1.12-6.51c0-2.36.38-4.53 1.12-6.5.75-1.97 1.8-3.67 3.17-5.1 1.37-1.43 3-2.55 4.9-3.34 1.92-.8 4.03-1.19 6.34-1.19 2.32 0 4.43.4 6.34 1.19 1.92.8 3.56 1.9 4.93 3.34a14.87 14.87 0 013.17 5.1 18.1 18.1 0 011.12 6.5zm-4.38 0c0-1.94-.26-3.68-.8-5.22a10.91 10.91 0 00-2.24-3.89 9.68 9.68 0 00-3.52-2.46 11.95 11.95 0 00-4.62-.86c-1.68 0-3.21.28-4.6.86a9.88 9.88 0 00-3.54 2.46 10.91 10.91 0 00-2.24 3.9c-.53 1.53-.8 3.27-.8 5.2 0 1.94.27 3.68.8 5.22a11.17 11.17 0 002.24 3.9 10.01 10.01 0 003.55 2.44c1.38.56 2.9.83 4.6.83 1.7 0 3.24-.27 4.61-.83a9.8 9.8 0 003.52-2.44 11.17 11.17 0 002.25-3.9c.53-1.54.8-3.28.8-5.21zm26.22-6.54V48H60.5c-.56 0-.9-.27-1.05-.81l-.31-2.4a12.45 12.45 0 01-3.26 2.6c-1.2.64-2.58.96-4.13.96-1.22 0-2.3-.2-3.24-.6a6.52 6.52 0 01-2.33-1.7 7.37 7.37 0 01-1.43-2.67c-.3-1.04-.46-2.2-.46-3.45V25.7h3.91v14.22c0 1.68.38 2.99 1.15 3.91.77.93 1.96 1.39 3.54 1.39 1.16 0 2.24-.27 3.23-.82a10.42 10.42 0 002.8-2.28V25.7h3.91zm8.61 4.47a9.94 9.94 0 012.6-3.56 5.64 5.64 0 013.76-1.3c.47 0 .92.05 1.34.15.44.1.83.27 1.17.49L80 28.88c-.09.37-.3.55-.66.55-.2 0-.5-.04-.9-.13a6.21 6.21 0 00-3.24.18c-.54.2-1.03.5-1.47.92-.42.4-.81.9-1.17 1.5-.33.58-.64 1.26-.92 2.02V48h-3.94V25.71h2.25c.42 0 .72.08.88.25.16.16.27.44.33.83l.26 3.39zm61.16-13.7L122.75 48h-3.82l-7.99-24.05a21.95 21.95 0 01-.42-1.58 38.36 38.36 0 01-.44 1.58L102.05 48h-3.83L88.4 16.47h3.54c.38 0 .7.1.95.29.26.2.43.43.5.73l6.52 21.9c.1.4.2.83.28 1.28.1.46.2.94.29 1.46l.3-1.46c.12-.47.25-.9.38-1.27l7.41-21.91c.1-.25.26-.48.51-.69.27-.22.58-.33.95-.33h1.23c.38 0 .69.1.92.29.24.2.41.43.53.73l7.4 21.9a28.4 28.4 0 01.68 2.62 29.52 29.52 0 01.52-2.61l6.54-21.91c.07-.27.23-.5.48-.7.27-.21.58-.32.95-.32h3.32zm9.35 8.88c1.63 0 3.1.27 4.4.82a9.43 9.43 0 015.46 5.94c.5 1.4.74 2.98.74 4.73 0 1.76-.25 3.34-.74 4.75a9.43 9.43 0 01-5.46 5.92c-1.3.52-2.77.79-4.4.79-1.64 0-3.12-.27-4.44-.8a9.42 9.42 0 01-3.35-2.3c-.92-1-1.63-2.2-2.13-3.61-.49-1.41-.73-3-.73-4.75s.24-3.33.73-4.73c.5-1.43 1.2-2.64 2.13-3.63.93-1 2.04-1.77 3.35-2.31 1.32-.55 2.8-.82 4.44-.82zm0 19.89c2.2 0 3.84-.73 4.93-2.2 1.08-1.48 1.63-3.54 1.63-6.18 0-2.66-.55-4.72-1.63-6.2-1.09-1.49-2.73-2.23-4.93-2.23-1.12 0-2.09.2-2.93.57-.82.39-1.5.94-2.06 1.65-.55.72-.96 1.61-1.24 2.67-.26 1.04-.4 2.22-.4 3.54 0 2.64.55 4.7 1.64 6.18 1.1 1.47 2.76 2.2 4.99 2.2zm17.97-15.07a9.94 9.94 0 012.6-3.56 5.64 5.64 0 013.76-1.3c.47 0 .91.05 1.34.15.44.1.83.27 1.16.49l-.28 2.92c-.09.37-.31.55-.66.55-.2 0-.5-.04-.9-.13a6.2 6.2 0 00-3.24.18c-.54.2-1.03.5-1.47.92-.43.4-.82.9-1.17 1.5a13.1 13.1 0 00-.92 2.02V48h-3.94V25.71h2.24c.43 0 .72.08.88.25.17.16.28.44.33.83l.27 3.39zm15.04-14.59V48h-3.92V15.6h3.92zm19.55 15.43a6.22 6.22 0 00-2.38-2.05 6.7 6.7 0 00-2.86-.6c-2.07 0-3.66.75-4.77 2.23-1.12 1.48-1.68 3.6-1.68 6.33 0 1.46.13 2.7.38 3.74a7.29 7.29 0 001.1 2.56 4.35 4.35 0 001.78 1.45c.7.3 1.5.46 2.4.46 1.29 0 2.41-.3 3.36-.88a9.6 9.6 0 002.67-2.49V31.02zm3.91-15.43V48h-2.33c-.56 0-.9-.27-1.06-.81l-.35-2.71a12.13 12.13 0 01-3.25 2.77 8.28 8.28 0 01-4.23 1.06 7.31 7.31 0 01-6.14-2.9c-.73-.96-1.3-2.15-1.69-3.57a18.35 18.35 0 01.07-9.48 11.29 11.29 0 011.89-3.7 8.7 8.7 0 017.06-3.34 7.96 7.96 0 016.12 2.62V15.59h3.91zM46.61 70.71V93H42.7V70.71h3.91zm.84-7c0 .39-.08.75-.24 1.09-.15.32-.35.61-.62.88-.25.25-.55.44-.9.59a2.67 2.67 0 01-2.16 0 2.9 2.9 0 01-1.45-1.47 2.67 2.67 0 010-2.16c.15-.35.35-.65.6-.9.25-.27.53-.47.85-.62a2.67 2.67 0 012.16 0c.35.15.65.35.9.62.27.25.47.55.62.9.16.34.24.7.24 1.08zm7.97 10.24c.49-.54 1-1.04 1.54-1.48a9.85 9.85 0 013.66-1.84 8.96 8.96 0 015.43.35c.94.4 1.72.97 2.33 1.71.63.74 1.11 1.62 1.43 2.67.32 1.04.49 2.19.49 3.45V93h-3.94V78.81c0-1.69-.4-3-1.17-3.92-.76-.93-1.93-1.4-3.5-1.4-1.15 0-2.24.27-3.25.83-1 .56-1.92 1.31-2.77 2.27V93h-3.94V70.71h2.35c.56 0 .9.28 1.04.82l.3 2.42zm57.7 3.3c0 2.36-.37 4.5-1.11 6.44a14.3 14.3 0 01-3.17 4.98c-1.37 1.37-3 2.45-4.93 3.2-1.9.76-4.02 1.13-6.33 1.13H85.8V61.47h11.77c2.31 0 4.42.39 6.33 1.15a13.8 13.8 0 018.1 8.18 17.75 17.75 0 011.12 6.45zm-4.37 0c0-1.94-.26-3.67-.8-5.2a10.94 10.94 0 00-2.23-3.87 9.57 9.57 0 00-3.53-2.42 12.23 12.23 0 00-4.61-.83h-7.5v24.62h7.5c1.7 0 3.24-.28 4.61-.84a9.7 9.7 0 003.53-2.4 10.94 10.94 0 002.24-3.87c.53-1.53.8-3.26.8-5.2zm19.8 5.72c-1.8.06-3.34.2-4.62.44-1.26.22-2.3.51-3.1.88-.8.36-1.37.8-1.74 1.3-.35.5-.53 1.05-.53 1.67 0 .58.1 1.1.3 1.52a3 3 0 00.76 1.05c.34.27.73.46 1.17.6.45.11.94.17 1.45.17a7.28 7.28 0 003.5-.81 11.95 11.95 0 002.82-2.2v-4.62zm-12.65-9.11a12.73 12.73 0 013.98-2.66c1.43-.59 3-.88 4.73-.88 1.25 0 2.36.2 3.33.61a6.81 6.81 0 013.94 4.38c.33 1.04.5 2.19.5 3.43V93h-1.74a1.8 1.8 0 01-.88-.18c-.2-.13-.36-.38-.48-.74l-.44-2.12c-.59.55-1.16 1.03-1.72 1.46a9.48 9.48 0 01-3.74 1.7c-.69.15-1.46.23-2.3.23-.87 0-1.69-.12-2.45-.35a5.34 5.34 0 01-3.34-2.93 6.64 6.64 0 01-.49-2.64c0-.88.25-1.72.73-2.53a6.33 6.33 0 012.35-2.17c1.09-.63 2.5-1.15 4.25-1.54 1.75-.41 3.89-.65 6.42-.7v-1.75c0-1.73-.37-3.03-1.12-3.91-.75-.9-1.84-1.34-3.28-1.34-.97 0-1.78.12-2.44.37-.64.23-1.2.5-1.7.81l-1.23.82c-.33.23-.67.35-1 .35-.27 0-.5-.07-.69-.2a2.1 2.1 0 01-.48-.53l-.7-1.25zm27.67 19.5c-1.76 0-3.12-.5-4.07-1.48-.94-.98-1.41-2.4-1.41-4.25V74h-2.68a.9.9 0 01-.6-.2c-.16-.14-.24-.36-.24-.66v-1.56l3.65-.46.9-6.89c.05-.22.14-.4.29-.52a.88.88 0 01.62-.22H142v7.67h6.44V74h-6.44v13.38c0 .94.22 1.63.68 2.09.45.45 1.04.68 1.76.68a3.21 3.21 0 001.85-.53l.55-.35c.16-.12.3-.18.41-.18.2 0 .4.13.55.38l1.15 1.87a7.45 7.45 0 01-2.44 1.5c-.96.35-1.94.52-2.95.52zm19.68-10.4c-1.8.07-3.34.21-4.62.45-1.26.22-2.3.51-3.1.88-.8.36-1.37.8-1.74 1.3-.35.5-.53 1.05-.53 1.67 0 .58.1 1.1.3 1.52.18.42.44.77.76 1.05.34.27.73.46 1.17.6.45.11.94.17 1.45.17a7.3 7.3 0 003.5-.81 12.04 12.04 0 002.82-2.2v-4.62zm-12.65-9.1a12.72 12.72 0 013.99-2.66c1.42-.59 3-.88 4.72-.88 1.25 0 2.36.2 3.33.61a6.81 6.81 0 013.94 4.38c.33 1.04.5 2.19.5 3.43V93h-1.74a1.8 1.8 0 01-.88-.18c-.2-.13-.36-.38-.48-.74l-.44-2.12c-.59.55-1.16 1.03-1.72 1.46a9.48 9.48 0 01-3.74 1.7c-.69.15-1.46.23-2.3.23-.87 0-1.69-.12-2.45-.35a5.33 5.33 0 01-3.34-2.93 6.62 6.62 0 01-.49-2.64c0-.88.25-1.72.73-2.53a6.33 6.33 0 012.35-2.17c1.09-.63 2.5-1.15 4.25-1.54 1.74-.41 3.89-.65 6.42-.7v-1.75c0-1.73-.37-3.03-1.12-3.91-.75-.9-1.84-1.34-3.28-1.34-.97 0-1.78.12-2.44.37-.64.23-1.2.5-1.7.81-.46.3-.87.57-1.22.82-.34.23-.68.35-1.02.35-.26 0-.49-.07-.68-.2-.19-.14-.35-.32-.48-.53l-.7-1.25z" fill="#fff"></path><path fill="#D42B21" d="M0 106.79h210V120H0z"></path></g><defs><clipPath id="clip0"><path fill="#fff" d="M0 0h210v120H0z"></path></clipPath></defs></svg></g><a href="https://ourworldindata.org/grapher/hydro-consumption-by-region" style="font-family:&quot;Playfair Display&quot;, Georgia, &quot;Times New Roman&quot;, serif"><text font-size="25.20" x="15.0" y="35.2" fill="#555"><tspan x="15" y="35.160000000000004">Hydropower generation by region, 1965 to 2018</tspan></text></a><text font-size="14.40" x="15.0" y="55.7" fill="#666"><tspan x="15" y="55.72">Hydropower generation is measured in terawatt-hours (TWh) per year.</tspan></text></g><g class="StackedArea"><defs><clipPath id="boundsClip-7"><rect x="99.542" y="0" width="820" height="901"></rect></clipPath></defs><g class="AxisBoxView"><g class="HorizontalAxis"><line x1="99.5" y1="507.9" x2="99.5" y2="511.9" stroke="#ccc"></line><line x1="156.6" y1="507.9" x2="156.6" y2="511.9" stroke="#ccc"></line><line x1="270.7" y1="507.9" x2="270.7" y2="511.9" stroke="#ccc"></line><line x1="384.8" y1="507.9" x2="384.8" y2="511.9" stroke="#ccc"></line><line x1="498.9" y1="507.9" x2="498.9" y2="511.9" stroke="#ccc"></line><line x1="613" y1="507.9" x2="613" y2="511.9" stroke="#ccc"></line><line x1="704.3" y1="507.9" x2="704.3" y2="511.9" stroke="#ccc"></line><text x="99.5" y="529.1" fill="#666" text-anchor="middle" font-size="16.2">1965</text><text x="156.6" y="529.1" fill="#666" text-anchor="middle" font-size="16.2">1970</text><text x="270.7" y="529.1" fill="#666" text-anchor="middle" font-size="16.2">1980</text><text x="384.8" y="529.1" fill="#666" text-anchor="middle" font-size="16.2">1990</text><text x="498.9" y="529.1" fill="#666" text-anchor="middle" font-size="16.2">2000</text><text x="613" y="529.1" fill="#666" text-anchor="middle" font-size="16.2">2010</text><text x="704.3" y="529.1" fill="#666" text-anchor="middle" font-size="16.2">2018</text></g><g class="VerticalAxis"><text x="94.54" y="507.9" fill="#666" text-anchor="end" font-size="16.2">0 TWh</text><text x="94.54" y="456.7" fill="#666" text-anchor="end" font-size="16.2">500 TWh</text><text x="94.54" y="405.5" fill="#666" text-anchor="end" font-size="16.2">1,000 TWh</text><text x="94.54" y="354.3" fill="#666" text-anchor="end" font-size="16.2">1,500 TWh</text><text x="94.54" y="303.1" fill="#666" text-anchor="end" font-size="16.2">2,000 TWh</text><text x="94.54" y="251.9" fill="#666" text-anchor="end" font-size="16.2">2,500 TWh</text><text x="94.54" y="200.8" fill="#666" text-anchor="end" font-size="16.2">3,000 TWh</text><text x="94.54" y="149.6" fill="#666" text-anchor="end" font-size="16.2">3,500 TWh</text><text x="94.54" y="98.4" fill="#666" text-anchor="end" font-size="16.2">4,000 TWh</text></g><g class="AxisGridLines horizontalLines"><line x1="99.54" y1="507.9" x2="704.28" y2="507.9" stroke="#ccc"></line><line x1="99.54" y1="456.7" x2="704.28" y2="456.7" stroke="#ddd" stroke-dasharray="3,2"></line><line x1="99.54" y1="405.5" x2="704.28" y2="405.5" stroke="#ddd" stroke-dasharray="3,2"></line><line x1="99.54" y1="354.3" x2="704.28" y2="354.3" stroke="#ddd" stroke-dasharray="3,2"></line><line x1="99.54" y1="303.1" x2="704.28" y2="303.1" stroke="#ddd" stroke-dasharray="3,2"></line><line x1="99.54" y1="251.9" x2="704.28" y2="251.9" stroke="#ddd" stroke-dasharray="3,2"></line><line x1="99.54" y1="200.8" x2="704.28" y2="200.8" stroke="#ddd" stroke-dasharray="3,2"></line><line x1="99.54" y1="149.6" x2="704.28" y2="149.6" stroke="#ddd" stroke-dasharray="3,2"></line><line x1="99.54" y1="98.4" x2="704.28" y2="98.4" stroke="#ddd" stroke-dasharray="3,2"></line></g></g><g clip-path="url(#boundsClip-7)"><g class="HeightedLegend" style="cursor:default"><g class="legendMark"><g class="indicator"><path d="M708.285,79.4 H728.535 V85.35 H735.285" stroke="#999" stroke-width="0.5" fill="none"></path></g><rect x="704.285" y="78.6" width="105.74000000000001" height="13.5" fill="#fff" opacity="0"></rect><text font-size="13.50" x="739.3" y="89.4" fill="#2a939b"><tspan x="739.285" y="89.39999999999999">Middle East</tspan></text></g><g class="legendMark"><g class="indicator"><path d="M708.285,87 H721.785 V100.85 H735.285" stroke="#999" stroke-width="0.5" fill="none"></path></g><rect x="704.285" y="94.1" width="69.56" height="13.5" fill="#fff" opacity="0"></rect><text font-size="13.50" x="739.3" y="104.9" fill="#3360a9"><tspan x="739.285" y="104.89999999999999">Africa</tspan></text></g><g class="legendMark"><g class="indicator"><path d="M708.285,106.3 H715.035 V116.35 H735.285" stroke="#999" stroke-width="0.5" fill="none"></path></g><rect x="704.285" y="109.6" width="57.545" height="13.5" fill="#fff" opacity="0"></rect><text font-size="13.50" x="739.3" y="120.4" fill="#f6a324"><tspan x="739.285" y="120.39999999999999">CIS</tspan></text></g><g class="legendMark"><g class="indicator"><path d="M708.285,151.7 H721.785 V151.7 H735.285" stroke="#999" stroke-width="0.5" fill="none"></path></g><rect x="704.285" y="144.95" width="78.74000000000001" height="13.5" fill="#fff" opacity="0"></rect><text font-size="13.50" x="739.3" y="155.8" fill="#ffd53e"><tspan x="739.285" y="155.75">Europe</tspan></text></g><g class="legendMark"><g class="indicator"><path d="M708.285,222 H721.785 V222 H735.285" stroke="#999" stroke-width="0.5" fill="none"></path></g><rect x="704.285" y="207.95" width="130.715" height="28.1" fill="#fff" opacity="0"></rect><text font-size="13.50" x="739.3" y="218.8" fill="#9ecc8a"><tspan x="739.285" y="218.75">South &amp; Central</tspan><tspan x="739.285" y="233.6">America</tspan></text></g><g class="legendMark"><g class="indicator"><path d="M708.285,295.7 H721.785 V295.7 H735.285" stroke="#999" stroke-width="0.5" fill="none"></path></g><rect x="704.285" y="288.95" width="121.4" height="13.5" fill="#fff" opacity="0"></rect><text font-size="13.50" x="739.3" y="299.8" fill="#34983f"><tspan x="739.285" y="299.75">North America</tspan></text></g><g class="legendMark"><g class="indicator"><path d="M708.285,419.9 H721.785 V419.9 H735.285" stroke="#999" stroke-width="0.5" fill="none"></path></g><rect x="704.285" y="413.15" width="104.93" height="13.5" fill="#fff" opacity="0"></rect><text font-size="13.50" x="739.3" y="423.9" fill="#ca2628"><tspan x="739.285" y="423.95">Asia Pacific</tspan></text></g></g><g class="Areas"><rect x="99.542" y="78.6" width="604.7429999999999" height="429.29999999999995" opacity="0" fill="rgba(255,255,255,0)"></rect><path class="Asia-Pacific_0-area" stroke-linecap="round" d="M99.5 492.5L111 491.2L122.4 492.1L133.8 491.1L145.2 489.9L156.6 489.6L168 488L179.4 487.1L190.8 487.7L202.2 485.9L213.6 484.4L225.1 484.1L236.5 484.8L247.9 483.8L259.3 481.8L270.7 480.1L282.1 478.3L293.5 479.3L304.9 477.1L316.3 477.5L327.7 475.1L339.2 474.3L350.6 474.4L362 470.9L373.4 468.2L384.8 466.8L396.2 465.6L407.6 466.5L419 462.5L430.4 462.2L441.8 458.1L453.3 459.1L464.7 458.8L476.1 455.7L487.5 456.4L498.9 454.2L510.3 449.2L521.7 448.4L533.1 447L544.5 437.9L556 433.4L567.4 425.9L578.8 420.6L590.2 405.9L601.6 409L613 395.8L624.4 393.7L635.8 376.9L647.2 368.1L658.6 353.2L670.1 347.7L681.5 341.3L692.9 339L704.3 332L704.285 507.9L99.542 507.9" fill="#ca2628" fill-opacity="0.7"></path><path class="North-America_0-area" stroke-linecap="round" d="M99.5 459.2L111 456.5L122.4 454.1L133.8 452.5L145.2 447.2L156.6 446.2L168 442.5L179.4 439.4L190.8 439.3L202.2 432.4L213.6 431.5L225.1 431.9L236.5 439.4L247.9 430.6L259.3 428.9L270.7 426.7L282.1 425.5L293.5 418.2L304.9 413.1L316.3 412.2L327.7 411.7L339.2 409.9L350.6 413.9L362 413.8L373.4 407.7L384.8 404.1L396.2 402.4L407.6 405.8L419 398.2L430.4 400L441.8 389.2L453.3 384L464.7 384L476.1 386.3L487.5 385.3L498.9 386.4L510.3 390.8L521.7 383.7L533.1 382.9L544.5 373.8L556 366.3L567.4 357.4L578.8 355.3L590.2 337.5L601.6 340.7L613 329.7L624.4 319.1L635.8 306.7L647.2 297.9L658.6 283.9L670.1 280.1L681.5 271.5L692.9 264.8L704.3 259.4L704.3 332L692.9 339L681.5 341.3L670.1 347.7L658.6 353.2L647.2 368.1L635.8 376.9L624.4 393.7L613 395.8L601.6 409L590.2 405.9L578.8 420.6L567.4 425.9L556 433.4L544.5 437.9L533.1 447L521.7 448.4L510.3 449.2L498.9 454.2L487.5 456.4L476.1 455.7L464.7 458.8L453.3 459.1L441.8 458.1L430.4 462.2L419 462.5L407.6 466.5L396.2 465.6L384.8 466.8L373.4 468.2L362 470.9L350.6 474.4L339.2 474.3L327.7 475.1L316.3 477.5L304.9 477.1L293.5 479.3L282.1 478.3L270.7 480.1L259.3 481.8L247.9 483.8L236.5 484.8L225.1 484.1L213.6 484.4L202.2 485.9L190.8 487.7L179.4 487.1L168 488L156.6 489.6L145.2 489.9L133.8 491.1L122.4 492.1L111 491.2L99.5 492.5" fill="#34983f" fill-opacity="0.7"></path><path class="South-__0026-Central-America_0-area" stroke-linecap="round" d="M99.5 455.1L111 451.9L122.4 449.3L133.8 447.3L145.2 441.6L156.6 439.4L168 435.1L179.4 430.9L190.8 429.8L202.2 421.5L213.6 419.7L225.1 418.7L236.5 424.7L247.9 414.5L259.3 410.5L270.7 406.2L282.1 404.6L293.5 395.7L304.9 388.8L316.3 385.4L327.7 382.7L339.2 378.6L350.6 380.5L362 379L373.4 372.2L384.8 367.1L396.2 362.9L407.6 365.6L419 354.9L430.4 354.1L441.8 341.5L453.3 334.3L464.7 331.4L476.1 332.4L487.5 331.3L498.9 329.5L510.3 337.5L521.7 327.7L533.1 324.4L544.5 313.5L556 302.4L567.4 290.6L578.8 286.1L590.2 267.8L601.6 269.3L613 257.9L624.4 242.9L635.8 231.9L647.2 225.2L658.6 213.6L670.1 211.4L681.5 201.3L692.9 191L704.3 184.6L704.3 259.4L692.9 264.8L681.5 271.5L670.1 280.1L658.6 283.9L647.2 297.9L635.8 306.7L624.4 319.1L613 329.7L601.6 340.7L590.2 337.5L578.8 355.3L567.4 357.4L556 366.3L544.5 373.8L533.1 382.9L521.7 383.7L510.3 390.8L498.9 386.4L487.5 385.3L476.1 386.3L464.7 384L453.3 384L441.8 389.2L430.4 400L419 398.2L407.6 405.8L396.2 402.4L384.8 404.1L373.4 407.7L362 413.8L350.6 413.9L339.2 409.9L327.7 411.7L316.3 412.2L304.9 413.1L293.5 418.2L282.1 425.5L270.7 426.7L259.3 428.9L247.9 430.6L236.5 439.4L225.1 431.9L213.6 431.5L202.2 432.4L190.8 439.3L179.4 439.4L168 442.5L156.6 446.2L145.2 447.2L133.8 452.5L122.4 454.1L111 456.5L99.5 459.2" fill="#9ecc8a" fill-opacity="0.7"></path><path class="Europe_0-area" stroke-linecap="round" d="M99.5 424.2L111 418.6L122.4 416L133.8 412.9L145.2 407.7L156.6 403.9L168 399.1L179.4 393.7L190.8 391.9L202.2 380.6L213.6 378L225.1 380.1L236.5 378L247.9 367.8L259.3 361.4L270.7 358.5L282.1 356.4L293.5 347.9L304.9 339.6L316.3 335.6L327.7 331.3L339.2 328.8L350.6 326.3L362 321L373.4 321.7L384.8 315.7L396.2 310.4L407.6 311.3L419 298.5L430.4 297.1L441.8 283.7L453.3 278.2L464.7 273.3L476.1 271.6L487.5 270.1L498.9 266.2L510.3 274.8L521.7 269.9L533.1 270.2L544.5 255.1L556 243.8L567.4 233.1L578.8 228.4L590.2 207.1L601.6 208.9L613 191.4L624.4 184.6L635.8 167.8L647.2 157.5L658.6 147.7L670.1 146.3L681.5 134.6L692.9 131.1L704.3 118.8L704.3 184.6L692.9 191L681.5 201.3L670.1 211.4L658.6 213.6L647.2 225.2L635.8 231.9L624.4 242.9L613 257.9L601.6 269.3L590.2 267.8L578.8 286.1L567.4 290.6L556 302.4L544.5 313.5L533.1 324.4L521.7 327.7L510.3 337.5L498.9 329.5L487.5 331.3L476.1 332.4L464.7 331.4L453.3 334.3L441.8 341.5L430.4 354.1L419 354.9L407.6 365.6L396.2 362.9L384.8 367.1L373.4 372.2L362 379L350.6 380.5L339.2 378.6L327.7 382.7L316.3 385.4L304.9 388.8L293.5 395.7L282.1 404.6L270.7 406.2L259.3 410.5L247.9 414.5L236.5 424.7L225.1 418.7L213.6 419.7L202.2 421.5L190.8 429.8L179.4 430.9L168 435.1L156.6 439.4L145.2 441.6L133.8 447.3L122.4 449.3L111 451.9L99.5 455.1" fill="#ffd53e" fill-opacity="0.7"></path><path class="CIS_0-area" stroke-linecap="round" d="M99.5 415.4L111 408.8L122.4 406.5L133.8 401.7L145.2 395.5L156.6 390.8L168 385.9L179.4 380.7L190.8 379L202.2 366.7L213.6 364.8L225.1 365.8L236.5 362.5L247.9 351L259.3 343L270.7 339.7L282.1 337.3L293.5 330L304.9 321.2L316.3 314.8L327.7 311.4L339.2 308.8L350.6 306L362 299.9L373.4 301.3L384.8 294.1L396.2 288.7L407.6 289.2L419 275.7L430.4 273.9L441.8 261.1L453.3 257.8L464.7 253L476.1 251.3L487.5 249.3L498.9 244.9L510.3 252.6L521.7 248.7L533.1 249.2L544.5 232L556 220.9L567.4 210.4L578.8 205.1L590.2 185.9L601.6 186.6L613 169.2L624.4 162.8L635.8 146L647.2 134L658.6 125L670.1 124.2L681.5 110.6L692.9 106.6L704.3 93.8L704.3 118.8L692.9 131.1L681.5 134.6L670.1 146.3L658.6 147.7L647.2 157.5L635.8 167.8L624.4 184.6L613 191.4L601.6 208.9L590.2 207.1L578.8 228.4L567.4 233.1L556 243.8L544.5 255.1L533.1 270.2L521.7 269.9L510.3 274.8L498.9 266.2L487.5 270.1L476.1 271.6L464.7 273.3L453.3 278.2L441.8 283.7L430.4 297.1L419 298.5L407.6 311.3L396.2 310.4L384.8 315.7L373.4 321.7L362 321L350.6 326.3L339.2 328.8L327.7 331.3L316.3 335.6L304.9 339.6L293.5 347.9L282.1 356.4L270.7 358.5L259.3 361.4L247.9 367.8L236.5 378L225.1 380.1L213.6 378L202.2 380.6L190.8 391.9L179.4 393.7L168 399.1L156.6 403.9L145.2 407.7L133.8 412.9L122.4 416L111 418.6L99.5 424.2" fill="#f6a324" fill-opacity="0.7"></path><path class="Africa_0-area" stroke-linecap="round" d="M99.5 414L111 407.2L122.4 404.9L133.8 399.8L145.2 393.3L156.6 388L168 383.2L179.4 377.6L190.8 375.9L202.2 363.1L213.6 361L225.1 361.6L236.5 357.9L247.9 346.3L259.3 338.2L270.7 335L282.1 332.3L293.5 325L304.9 316.5L316.3 310.2L327.7 306.3L339.2 303.6L350.6 301L362 294.5L373.4 295.6L384.8 288.2L396.2 282.4L407.6 283.3L419 269.9L430.4 268L441.8 255L453.3 251.4L464.7 246.5L476.1 244.4L487.5 242.1L498.9 237.2L510.3 244.3L521.7 240L533.1 240.7L544.5 223.1L556 211.8L567.4 200.9L578.8 195.4L590.2 175.9L601.6 176.4L613 158.2L624.4 151.5L635.8 134.7L647.2 121.9L658.6 112.4L670.1 111.9L681.5 98.6L692.9 93.8L704.3 80.2L704.3 93.8L692.9 106.6L681.5 110.6L670.1 124.2L658.6 125L647.2 134L635.8 146L624.4 162.8L613 169.2L601.6 186.6L590.2 185.9L578.8 205.1L567.4 210.4L556 220.9L544.5 232L533.1 249.2L521.7 248.7L510.3 252.6L498.9 244.9L487.5 249.3L476.1 251.3L464.7 253L453.3 257.8L441.8 261.1L430.4 273.9L419 275.7L407.6 289.2L396.2 288.7L384.8 294.1L373.4 301.3L362 299.9L350.6 306L339.2 308.8L327.7 311.4L316.3 314.8L304.9 321.2L293.5 330L282.1 337.3L270.7 339.7L259.3 343L247.9 351L236.5 362.5L225.1 365.8L213.6 364.8L202.2 366.7L190.8 379L179.4 380.7L168 385.9L156.6 390.8L145.2 395.5L133.8 401.7L122.4 406.5L111 408.8L99.5 415.4" fill="#3360a9" fill-opacity="0.7"></path><path class="Middle-East_0-area" stroke-linecap="round" d="M99.5 413.7L111 406.9L122.4 404.6L133.8 399.5L145.2 393L156.6 387.6L168 382.8L179.4 377.2L190.8 375.5L202.2 362.6L213.6 360.4L225.1 361L236.5 357.1L247.9 345.2L259.3 337.2L270.7 334L282.1 331.3L293.5 323.9L304.9 315.5L316.3 309.2L327.7 305.2L339.2 302.4L350.6 299.6L362 293L373.4 294.3L384.8 286.6L396.2 281.3L407.6 281.5L419 267.9L430.4 266.3L441.8 253.1L453.3 249.5L464.7 244.8L476.1 242.7L487.5 240.9L498.9 236.1L510.3 243.1L521.7 238.3L533.1 238.8L544.5 220.7L556 209.4L567.4 198L578.8 192.6L590.2 174.5L601.6 175.1L613 156.4L624.4 149.6L635.8 132.5L647.2 119.5L658.6 110.3L670.1 110.2L681.5 96.6L692.9 91.7L704.3 78.6L704.3 80.2L692.9 93.8L681.5 98.6L670.1 111.9L658.6 112.4L647.2 121.9L635.8 134.7L624.4 151.5L613 158.2L601.6 176.4L590.2 175.9L578.8 195.4L567.4 200.9L556 211.8L544.5 223.1L533.1 240.7L521.7 240L510.3 244.3L498.9 237.2L487.5 242.1L476.1 244.4L464.7 246.5L453.3 251.4L441.8 255L430.4 268L419 269.9L407.6 283.3L396.2 282.4L384.8 288.2L373.4 295.6L362 294.5L350.6 301L339.2 303.6L327.7 306.3L316.3 310.2L304.9 316.5L293.5 325L282.1 332.3L270.7 335L259.3 338.2L247.9 346.3L236.5 357.9L225.1 361.6L213.6 361L202.2 363.1L190.8 375.9L179.4 377.6L168 383.2L156.6 388L145.2 393.3L133.8 399.8L122.4 404.9L111 407.2L99.5 414" fill="#2a939b" fill-opacity="0.7"></path><path class="Asia-Pacific_0-border" stroke-linecap="round" d="M99.5 492.5L111 491.2L122.4 492.1L133.8 491.1L145.2 489.9L156.6 489.6L168 488L179.4 487.1L190.8 487.7L202.2 485.9L213.6 484.4L225.1 484.1L236.5 484.8L247.9 483.8L259.3 481.8L270.7 480.1L282.1 478.3L293.5 479.3L304.9 477.1L316.3 477.5L327.7 475.1L339.2 474.3L350.6 474.4L362 470.9L373.4 468.2L384.8 466.8L396.2 465.6L407.6 466.5L419 462.5L430.4 462.2L441.8 458.1L453.3 459.1L464.7 458.8L476.1 455.7L487.5 456.4L498.9 454.2L510.3 449.2L521.7 448.4L533.1 447L544.5 437.9L556 433.4L567.4 425.9L578.8 420.6L590.2 405.9L601.6 409L613 395.8L624.4 393.7L635.8 376.9L647.2 368.1L658.6 353.2L670.1 347.7L681.5 341.3L692.9 339L704.3 332" stroke="rgb(169, 32, 33)" stroke-opacity="0.7" stroke-width="0.5" fill="none"></path><path class="North-America_0-border" stroke-linecap="round" d="M99.5 459.2L111 456.5L122.4 454.1L133.8 452.5L145.2 447.2L156.6 446.2L168 442.5L179.4 439.4L190.8 439.3L202.2 432.4L213.6 431.5L225.1 431.9L236.5 439.4L247.9 430.6L259.3 428.9L270.7 426.7L282.1 425.5L293.5 418.2L304.9 413.1L316.3 412.2L327.7 411.7L339.2 409.9L350.6 413.9L362 413.8L373.4 407.7L384.8 404.1L396.2 402.4L407.6 405.8L419 398.2L430.4 400L441.8 389.2L453.3 384L464.7 384L476.1 386.3L487.5 385.3L498.9 386.4L510.3 390.8L521.7 383.7L533.1 382.9L544.5 373.8L556 366.3L567.4 357.4L578.8 355.3L590.2 337.5L601.6 340.7L613 329.7L624.4 319.1L635.8 306.7L647.2 297.9L658.6 283.9L670.1 280.1L681.5 271.5L692.9 264.8L704.3 259.4" stroke="rgb(44, 127, 53)" stroke-opacity="0.7" stroke-width="0.5" fill="none"></path><path class="South-__0026-Central-America_0-border" stroke-linecap="round" d="M99.5 455.1L111 451.9L122.4 449.3L133.8 447.3L145.2 441.6L156.6 439.4L168 435.1L179.4 430.9L190.8 429.8L202.2 421.5L213.6 419.7L225.1 418.7L236.5 424.7L247.9 414.5L259.3 410.5L270.7 406.2L282.1 404.6L293.5 395.7L304.9 388.8L316.3 385.4L327.7 382.7L339.2 378.6L350.6 380.5L362 379L373.4 372.2L384.8 367.1L396.2 362.9L407.6 365.6L419 354.9L430.4 354.1L441.8 341.5L453.3 334.3L464.7 331.4L476.1 332.4L487.5 331.3L498.9 329.5L510.3 337.5L521.7 327.7L533.1 324.4L544.5 313.5L556 302.4L567.4 290.6L578.8 286.1L590.2 267.8L601.6 269.3L613 257.9L624.4 242.9L635.8 231.9L647.2 225.2L658.6 213.6L670.1 211.4L681.5 201.3L692.9 191L704.3 184.6" stroke="rgb(132, 171, 115)" stroke-opacity="0.7" stroke-width="0.5" fill="none"></path><path class="Europe_0-border" stroke-linecap="round" d="M99.5 424.2L111 418.6L122.4 416L133.8 412.9L145.2 407.7L156.6 403.9L168 399.1L179.4 393.7L190.8 391.9L202.2 380.6L213.6 378L225.1 380.1L236.5 378L247.9 367.8L259.3 361.4L270.7 358.5L282.1 356.4L293.5 347.9L304.9 339.6L316.3 335.6L327.7 331.3L339.2 328.8L350.6 326.3L362 321L373.4 321.7L384.8 315.7L396.2 310.4L407.6 311.3L419 298.5L430.4 297.1L441.8 283.7L453.3 278.2L464.7 273.3L476.1 271.6L487.5 270.1L498.9 266.2L510.3 274.8L521.7 269.9L533.1 270.2L544.5 255.1L556 243.8L567.4 233.1L578.8 228.4L590.2 207.1L601.6 208.9L613 191.4L624.4 184.6L635.8 167.8L647.2 157.5L658.6 147.7L670.1 146.3L681.5 134.6L692.9 131.1L704.3 118.8" stroke="rgb(213, 178, 52)" stroke-opacity="0.7" stroke-width="0.5" fill="none"></path><path class="CIS_0-border" stroke-linecap="round" d="M99.5 415.4L111 408.8L122.4 406.5L133.8 401.7L145.2 395.5L156.6 390.8L168 385.9L179.4 380.7L190.8 379L202.2 366.7L213.6 364.8L225.1 365.8L236.5 362.5L247.9 351L259.3 343L270.7 339.7L282.1 337.3L293.5 330L304.9 321.2L316.3 314.8L327.7 311.4L339.2 308.8L350.6 306L362 299.9L373.4 301.3L384.8 294.1L396.2 288.7L407.6 289.2L419 275.7L430.4 273.9L441.8 261.1L453.3 257.8L464.7 253L476.1 251.3L487.5 249.3L498.9 244.9L510.3 252.6L521.7 248.7L533.1 249.2L544.5 232L556 220.9L567.4 210.4L578.8 205.1L590.2 185.9L601.6 186.6L613 169.2L624.4 162.8L635.8 146L647.2 134L658.6 125L670.1 124.2L681.5 110.6L692.9 106.6L704.3 93.8" stroke="rgb(206, 136, 30)" stroke-opacity="0.7" stroke-width="0.5" fill="none"></path><path class="Africa_0-border" stroke-linecap="round" d="M99.5 414L111 407.2L122.4 404.9L133.8 399.8L145.2 393.3L156.6 388L168 383.2L179.4 377.6L190.8 375.9L202.2 363.1L213.6 361L225.1 361.6L236.5 357.9L247.9 346.3L259.3 338.2L270.7 335L282.1 332.3L293.5 325L304.9 316.5L316.3 310.2L327.7 306.3L339.2 303.6L350.6 301L362 294.5L373.4 295.6L384.8 288.2L396.2 282.4L407.6 283.3L419 269.9L430.4 268L441.8 255L453.3 251.4L464.7 246.5L476.1 244.4L487.5 242.1L498.9 237.2L510.3 244.3L521.7 240L533.1 240.7L544.5 223.1L556 211.8L567.4 200.9L578.8 195.4L590.2 175.9L601.6 176.4L613 158.2L624.4 151.5L635.8 134.7L647.2 121.9L658.6 112.4L670.1 111.9L681.5 98.6L692.9 93.8L704.3 80.2" stroke="rgb(43, 80, 141)" stroke-opacity="0.7" stroke-width="0.5" fill="none"></path><path class="Middle-East_0-border" stroke-linecap="round" d="M99.5 413.7L111 406.9L122.4 404.6L133.8 399.5L145.2 393L156.6 387.6L168 382.8L179.4 377.2L190.8 375.5L202.2 362.6L213.6 360.4L225.1 361L236.5 357.1L247.9 345.2L259.3 337.2L270.7 334L282.1 331.3L293.5 323.9L304.9 315.5L316.3 309.2L327.7 305.2L339.2 302.4L350.6 299.6L362 293L373.4 294.3L384.8 286.6L396.2 281.3L407.6 281.5L419 267.9L430.4 266.3L441.8 253.1L453.3 249.5L464.7 244.8L476.1 242.7L487.5 240.9L498.9 236.1L510.3 243.1L521.7 238.3L533.1 238.8L544.5 220.7L556 209.4L567.4 198L578.8 192.6L590.2 174.5L601.6 175.1L613 156.4L624.4 149.6L635.8 132.5L647.2 119.5L658.6 110.3L670.1 110.2L681.5 96.6L692.9 91.7L704.3 78.6" stroke="rgb(35, 123, 130)" stroke-opacity="0.7" stroke-width="0.5" fill="none"></path></g></g></g><g class="SourcesFooter" style="fill:#777"><g class="clickable" style="fill:#777"><text font-size="12.60" x="15.0" y="554.2"><tspan x="15" y="554.1800000000001">Source: BP Statistical Review of Global Energy (2019)</tspan></text></g><text font-size="12.60" x="15.0" y="568.8"><tspan x="15" y="568.7800000000001">Note: CIS (Commonwealth of Independent States) is an organization of ten post-Soviet republics in Eurasia following break-up of the Soviet</tspan><tspan x="15" y="582.6400000000001">Union.</tspan></text><text font-size="12.60" x="565.4" y="554.2"><tspan x="565.36" y="554.1800000000001"><a style="fill: #777;" href="https://ourworldindata.org/renewable-energy">OurWorldInData.org/renewable-energy</a> • <a style="fill: #777;" class="cclogo" href="http://creativecommons.org/licenses/by/4.0/deed.en_US">CC BY</a></tspan></text></g></svg> 