<svg xmlns="http://www.w3.org/2000/svg" version="1.1" style="font-family:Lato, &#x27;Helvetica Neue&#x27;, Helvetica, Arial, sans-serif;font-size:18px;background-color:white;text-rendering:optimizeLegibility;-webkit-font-smoothing:antialiased" width="850" height="600" viewBox="0 0 850 600"><g class="HeaderView"><g transform="translate(774, 15) scale(0.29)"><svg width="210" height="120" viewBox="0 0 210 120" fill="none" xmlns="http://www.w3.org/2000/svg">
<g clip-path="url(#clip0)">
  <path d="M0 0h210v107.89H0V0z" fill="#002147" />
  <path
    d="M40.98 32.25c0 2.36-.38 4.53-1.12 6.51a14.26 14.26 0 01-8.1 8.4c-1.9.78-4.02 1.17-6.34 1.17-2.31 0-4.42-.39-6.33-1.17a14.31 14.31 0 01-8.08-8.4 18.29 18.29 0 01-1.12-6.51c0-2.36.38-4.53 1.12-6.5.75-1.97 1.8-3.67 3.17-5.1 1.37-1.43 3-2.55 4.9-3.34 1.92-.8 4.03-1.19 6.34-1.19 2.32 0 4.43.4 6.34 1.19 1.92.8 3.56 1.9 4.93 3.34a14.87 14.87 0 013.17 5.1 18.1 18.1 0 011.12 6.5zm-4.38 0c0-1.94-.26-3.68-.8-5.22a10.91 10.91 0 00-2.24-3.89 9.68 9.68 0 00-3.52-2.46 11.95 11.95 0 00-4.62-.86c-1.68 0-3.21.28-4.6.86a9.88 9.88 0 00-3.54 2.46 10.91 10.91 0 00-2.24 3.9c-.53 1.53-.8 3.27-.8 5.2 0 1.94.27 3.68.8 5.22a11.17 11.17 0 002.24 3.9 10.01 10.01 0 003.55 2.44c1.38.56 2.9.83 4.6.83 1.7 0 3.24-.27 4.61-.83a9.8 9.8 0 003.52-2.44 11.17 11.17 0 002.25-3.9c.53-1.54.8-3.28.8-5.21zm26.22-6.54V48H60.5c-.56 0-.9-.27-1.05-.81l-.31-2.4a12.45 12.45 0 01-3.26 2.6c-1.2.64-2.58.96-4.13.96-1.22 0-2.3-.2-3.24-.6a6.52 6.52 0 01-2.33-1.7 7.37 7.37 0 01-1.43-2.67c-.3-1.04-.46-2.2-.46-3.45V25.7h3.91v14.22c0 1.68.38 2.99 1.15 3.91.77.93 1.96 1.39 3.54 1.39 1.16 0 2.24-.27 3.23-.82a10.42 10.42 0 002.8-2.28V25.7h3.91zm8.61 4.47a9.94 9.94 0 012.6-3.56 5.64 5.64 0 013.76-1.3c.47 0 .92.05 1.34.15.44.1.83.27 1.17.49L80 28.88c-.09.37-.3.55-.66.55-.2 0-.5-.04-.9-.13a6.21 6.21 0 00-3.24.18c-.54.2-1.03.5-1.47.92-.42.4-.81.9-1.17 1.5-.33.58-.64 1.26-.92 2.02V48h-3.94V25.71h2.25c.42 0 .72.08.88.25.16.16.27.44.33.83l.26 3.39zm61.16-13.7L122.75 48h-3.82l-7.99-24.05a21.95 21.95 0 01-.42-1.58 38.36 38.36 0 01-.44 1.58L102.05 48h-3.83L88.4 16.47h3.54c.38 0 .7.1.95.29.26.2.43.43.5.73l6.52 21.9c.1.4.2.83.28 1.28.1.46.2.94.29 1.46l.3-1.46c.12-.47.25-.9.38-1.27l7.41-21.91c.1-.25.26-.48.51-.69.27-.22.58-.33.95-.33h1.23c.38 0 .69.1.92.29.24.2.41.43.53.73l7.4 21.9a28.4 28.4 0 01.68 2.62 29.52 29.52 0 01.52-2.61l6.54-21.91c.07-.27.23-.5.48-.7.27-.21.58-.32.95-.32h3.32zm9.35 8.88c1.63 0 3.1.27 4.4.82a9.43 9.43 0 015.46 5.94c.5 1.4.74 2.98.74 4.73 0 1.76-.25 3.34-.74 4.75a9.43 9.43 0 01-5.46 5.92c-1.3.52-2.77.79-4.4.79-1.64 0-3.12-.27-4.44-.8a9.42 9.42 0 01-3.35-2.3c-.92-1-1.63-2.2-2.13-3.61-.49-1.41-.73-3-.73-4.75s.24-3.33.73-4.73c.5-1.43 1.2-2.64 2.13-3.63.93-1 2.04-1.77 3.35-2.31 1.32-.55 2.8-.82 4.44-.82zm0 19.89c2.2 0 3.84-.73 4.93-2.2 1.08-1.48 1.63-3.54 1.63-6.18 0-2.66-.55-4.72-1.63-6.2-1.09-1.49-2.73-2.23-4.93-2.23-1.12 0-2.09.2-2.93.57-.82.39-1.5.94-2.06 1.65-.55.72-.96 1.61-1.24 2.67-.26 1.04-.4 2.22-.4 3.54 0 2.64.55 4.7 1.64 6.18 1.1 1.47 2.76 2.2 4.99 2.2zm17.97-15.07a9.94 9.94 0 012.6-3.56 5.64 5.64 0 013.76-1.3c.47 0 .91.05 1.34.15.44.1.83.27 1.16.49l-.28 2.92c-.09.37-.31.55-.66.55-.2 0-.5-.04-.9-.13a6.2 6.2 0 00-3.24.18c-.54.2-1.03.5-1.47.92-.43.4-.82.9-1.17 1.5a13.1 13.1 0 00-.92 2.02V48h-3.94V25.71h2.24c.43 0 .72.08.88.25.17.16.28.44.33.83l.27 3.39zm15.04-14.59V48h-3.92V15.6h3.92zm19.55 15.43a6.22 6.22 0 00-2.38-2.05 6.7 6.7 0 00-2.86-.6c-2.07 0-3.66.75-4.77 2.23-1.12 1.48-1.68 3.6-1.68 6.33 0 1.46.13 2.7.38 3.74a7.29 7.29 0 001.1 2.56 4.35 4.35 0 001.78 1.45c.7.3 1.5.46 2.4.46 1.29 0 2.41-.3 3.36-.88a9.6 9.6 0 002.67-2.49V31.02zm3.91-15.43V48h-2.33c-.56 0-.9-.27-1.06-.81l-.35-2.71a12.13 12.13 0 01-3.25 2.77 8.28 8.28 0 01-4.23 1.06 7.31 7.31 0 01-6.14-2.9c-.73-.96-1.3-2.15-1.69-3.57a18.35 18.35 0 01.07-9.48 11.29 11.29 0 011.89-3.7 8.7 8.7 0 017.06-3.34 7.96 7.96 0 016.12 2.62V15.59h3.91zM46.61 70.71V93H42.7V70.71h3.91zm.84-7c0 .39-.08.75-.24 1.09-.15.32-.35.61-.62.88-.25.25-.55.44-.9.59a2.67 2.67 0 01-2.16 0 2.9 2.9 0 01-1.45-1.47 2.67 2.67 0 010-2.16c.15-.35.35-.65.6-.9.25-.27.53-.47.85-.62a2.67 2.67 0 012.16 0c.35.15.65.35.9.62.27.25.47.55.62.9.16.34.24.7.24 1.08zm7.97 10.24c.49-.54 1-1.04 1.54-1.48a9.85 9.85 0 013.66-1.84 8.96 8.96 0 015.43.35c.94.4 1.72.97 2.33 1.71.63.74 1.11 1.62 1.43 2.67.32 1.04.49 2.19.49 3.45V93h-3.94V78.81c0-1.69-.4-3-1.17-3.92-.76-.93-1.93-1.4-3.5-1.4-1.15 0-2.24.27-3.25.83-1 .56-1.92 1.31-2.77 2.27V93h-3.94V70.71h2.35c.56 0 .9.28 1.04.82l.3 2.42zm57.7 3.3c0 2.36-.37 4.5-1.11 6.44a14.3 14.3 0 01-3.17 4.98c-1.37 1.37-3 2.45-4.93 3.2-1.9.76-4.02 1.13-6.33 1.13H85.8V61.47h11.77c2.31 0 4.42.39 6.33 1.15a13.8 13.8 0 018.1 8.18 17.75 17.75 0 011.12 6.45zm-4.37 0c0-1.94-.26-3.67-.8-5.2a10.94 10.94 0 00-2.23-3.87 9.57 9.57 0 00-3.53-2.42 12.23 12.23 0 00-4.61-.83h-7.5v24.62h7.5c1.7 0 3.24-.28 4.61-.84a9.7 9.7 0 003.53-2.4 10.94 10.94 0 002.24-3.87c.53-1.53.8-3.26.8-5.2zm19.8 5.72c-1.8.06-3.34.2-4.62.44-1.26.22-2.3.51-3.1.88-.8.36-1.37.8-1.74 1.3-.35.5-.53 1.05-.53 1.67 0 .58.1 1.1.3 1.52a3 3 0 00.76 1.05c.34.27.73.46 1.17.6.45.11.94.17 1.45.17a7.28 7.28 0 003.5-.81 11.95 11.95 0 002.82-2.2v-4.62zm-12.65-9.11a12.73 12.73 0 013.98-2.66c1.43-.59 3-.88 4.73-.88 1.25 0 2.36.2 3.33.61a6.81 6.81 0 013.94 4.38c.33 1.04.5 2.19.5 3.43V93h-1.74a1.8 1.8 0 01-.88-.18c-.2-.13-.36-.38-.48-.74l-.44-2.12c-.59.55-1.16 1.03-1.72 1.46a9.48 9.48 0 01-3.74 1.7c-.69.15-1.46.23-2.3.23-.87 0-1.69-.12-2.45-.35a5.34 5.34 0 01-3.34-2.93 6.64 6.64 0 01-.49-2.64c0-.88.25-1.72.73-2.53a6.33 6.33 0 012.35-2.17c1.09-.63 2.5-1.15 4.25-1.54 1.75-.41 3.89-.65 6.42-.7v-1.75c0-1.73-.37-3.03-1.12-3.91-.75-.9-1.84-1.34-3.28-1.34-.97 0-1.78.12-2.44.37-.64.23-1.2.5-1.7.81l-1.23.82c-.33.23-.67.35-1 .35-.27 0-.5-.07-.69-.2a2.1 2.1 0 01-.48-.53l-.7-1.25zm27.67 19.5c-1.76 0-3.12-.5-4.07-1.48-.94-.98-1.41-2.4-1.41-4.25V74h-2.68a.9.9 0 01-.6-.2c-.16-.14-.24-.36-.24-.66v-1.56l3.65-.46.9-6.89c.05-.22.14-.4.29-.52a.88.88 0 01.62-.22H142v7.67h6.44V74h-6.44v13.38c0 .94.22 1.63.68 2.09.45.45 1.04.68 1.76.68a3.21 3.21 0 001.85-.53l.55-.35c.16-.12.3-.18.41-.18.2 0 .4.13.55.38l1.15 1.87a7.45 7.45 0 01-2.44 1.5c-.96.35-1.94.52-2.95.52zm19.68-10.4c-1.8.07-3.34.21-4.62.45-1.26.22-2.3.51-3.1.88-.8.36-1.37.8-1.74 1.3-.35.5-.53 1.05-.53 1.67 0 .58.1 1.1.3 1.52.18.42.44.77.76 1.05.34.27.73.46 1.17.6.45.11.94.17 1.45.17a7.3 7.3 0 003.5-.81 12.04 12.04 0 002.82-2.2v-4.62zm-12.65-9.1a12.72 12.72 0 013.99-2.66c1.42-.59 3-.88 4.72-.88 1.25 0 2.36.2 3.33.61a6.81 6.81 0 013.94 4.38c.33 1.04.5 2.19.5 3.43V93h-1.74a1.8 1.8 0 01-.88-.18c-.2-.13-.36-.38-.48-.74l-.44-2.12c-.59.55-1.16 1.03-1.72 1.46a9.48 9.48 0 01-3.74 1.7c-.69.15-1.46.23-2.3.23-.87 0-1.69-.12-2.45-.35a5.33 5.33 0 01-3.34-2.93 6.62 6.62 0 01-.49-2.64c0-.88.25-1.72.73-2.53a6.33 6.33 0 012.35-2.17c1.09-.63 2.5-1.15 4.25-1.54 1.74-.41 3.89-.65 6.42-.7v-1.75c0-1.73-.37-3.03-1.12-3.91-.75-.9-1.84-1.34-3.28-1.34-.97 0-1.78.12-2.44.37-.64.23-1.2.5-1.7.81-.46.3-.87.57-1.22.82-.34.23-.68.35-1.02.35-.26 0-.49-.07-.68-.2-.19-.14-.35-.32-.48-.53l-.7-1.25z"
    fill="#fff"
  />
  <path fill="#D42B21" d="M0 106.79h210V120H0z" />
</g>
<defs>
  <clipPath id="clip0"><path fill="#fff" d="M0 0h210v120H0z" /></clipPath>
</defs>
</svg></g><a href="http://localhost:3099/grapher/age-standardized-death-rate-from-non-communicable-diseases" style="font-family:&quot;Playfair Display&quot;, Georgia, &quot;Times New Roman&quot;, serif" target="_blank"><text font-size="21.60" x="15.0" y="32.3" fill="#555"><tspan x="15" y="32.279999999999994">Age-standardized death rate from non-communicable diseases, United</tspan><tspan x="15" y="53.87999999999999">Kingdom, 1990 to 2016</tspan></text></a><text font-size="14.40" x="15.0" y="74.7" fill="#666"><tspan x="15" y="74.72">The age-standardized death rate measures the number of deaths per 100,000 individuals, corrected for age differences by</tspan><tspan x="15" y="92">normalising to a constant, reference population distribution. The age-standardization death rate therefore corrects for both</tspan><tspan x="15" y="109.28">changes/differences in population sizes, and the influence of a young or aging population.</tspan></text></g><g class="LineChart"><defs><clipPath id="boundsClip-1032"><rect x="37.216" y="0" width="830" height="855.4000000000001"></rect></clipPath></defs><g class="AxisBoxView"><g class="HorizontalAxis"><line x1="47.2" y1="535.3000000000001" x2="47.2" y2="539.3000000000001" stroke="#ccc"></line><line x1="156.6" y1="535.3000000000001" x2="156.6" y2="539.3000000000001" stroke="#ccc"></line><line x1="266" y1="535.3000000000001" x2="266" y2="539.3000000000001" stroke="#ccc"></line><line x1="375.4" y1="535.3000000000001" x2="375.4" y2="539.3000000000001" stroke="#ccc"></line><line x1="484.7" y1="535.3000000000001" x2="484.7" y2="539.3000000000001" stroke="#ccc"></line><line x1="616" y1="535.3000000000001" x2="616" y2="539.3000000000001" stroke="#ccc"></line><text x="47.2" y="556.5" fill="#666" text-anchor="middle" font-size="16.2">1990</text><text x="156.6" y="556.5" fill="#666" text-anchor="middle" font-size="16.2">1995</text><text x="266" y="556.5" fill="#666" text-anchor="middle" font-size="16.2">2000</text><text x="375.4" y="556.5" fill="#666" text-anchor="middle" font-size="16.2">2005</text><text x="484.7" y="556.5" fill="#666" text-anchor="middle" font-size="16.2">2010</text><text x="616" y="556.5" fill="#666" text-anchor="middle" font-size="16.2">2016</text></g><g class="VerticalAxis"><text x="42.22" y="535.3" fill="#666" dominant-baseline="middle" text-anchor="end" font-size="16.2">0</text><text x="42.22" y="476.4" fill="#666" dominant-baseline="middle" text-anchor="end" font-size="16.2">50</text><text x="42.22" y="417.4" fill="#666" dominant-baseline="middle" text-anchor="end" font-size="16.2">100</text><text x="42.22" y="358.5" fill="#666" dominant-baseline="middle" text-anchor="end" font-size="16.2">150</text><text x="42.22" y="299.6" fill="#666" dominant-baseline="middle" text-anchor="end" font-size="16.2">200</text><text x="42.22" y="240.7" fill="#666" dominant-baseline="middle" text-anchor="end" font-size="16.2">250</text><text x="42.22" y="181.7" fill="#666" dominant-baseline="middle" text-anchor="end" font-size="16.2">300</text></g><g class="AxisGridLines horizontalLines"><line x1="47.22" y1="535.3" x2="616.00" y2="535.3" stroke="#ccc"></line><line x1="47.22" y1="476.4" x2="616.00" y2="476.4" stroke="#ddd" stroke-dasharray="3,2"></line><line x1="47.22" y1="417.4" x2="616.00" y2="417.4" stroke="#ddd" stroke-dasharray="3,2"></line><line x1="47.22" y1="358.5" x2="616.00" y2="358.5" stroke="#ddd" stroke-dasharray="3,2"></line><line x1="47.22" y1="299.6" x2="616.00" y2="299.6" stroke="#ddd" stroke-dasharray="3,2"></line><line x1="47.22" y1="240.7" x2="616.00" y2="240.7" stroke="#ddd" stroke-dasharray="3,2"></line><line x1="47.22" y1="181.7" x2="616.00" y2="181.7" stroke="#ddd" stroke-dasharray="3,2"></line></g></g><g clip-path="url(#boundsClip-1032)"><g class="HeightedLegend" style="cursor:default"><g class="legendMark"><g class="indicator"><path d="M619.995,348.1 H622.0719230769231 V343.44999999999993 H646.995" stroke="#999" stroke-width="0.5" fill="none"></path></g><rect x="615.995" y="336.69999999999993" width="85.355" height="13.5" fill="#fff" opacity="0"></rect><text font-size="13.50" x="651.0" y="347.5" fill="#CD2285"><tspan x="650.995" y="347.49999999999994">Cancers</tspan></text></g><g class="legendMark"><g class="indicator"><path d="M619.995,364.4 H624.1488461538462 V358.94999999999993 H646.995" stroke="#999" stroke-width="0.5" fill="none"></path></g><rect x="615.995" y="352.19999999999993" width="182.42000000000002" height="13.5" fill="#fff" opacity="0"></rect><text font-size="13.50" x="651.0" y="363.0" fill="#287669"><tspan x="650.995" y="362.99999999999994">Cardiovascular diseases</tspan></text></g><g class="legendMark"><g class="indicator"><path d="M619.995,486.3 H626.2257692307693 V374.44999999999993 H646.995" stroke="#999" stroke-width="0.5" fill="none"></path></g><rect x="615.995" y="367.69999999999993" width="92.915" height="13.5" fill="#fff" opacity="0"></rect><text font-size="13.50" x="651.0" y="378.5" fill="#D73C50"><tspan x="650.995" y="378.49999999999994">Dementia</tspan></text></g><g class="legendMark"><g class="indicator"><path d="M619.995,491.6 H628.3026923076924 V389.94999999999993 H646.995" stroke="#999" stroke-width="0.5" fill="none"></path></g><rect x="615.995" y="383.19999999999993" width="154.61" height="13.5" fill="#fff" opacity="0"></rect><text font-size="13.50" x="651.0" y="394.0" fill="#C05917"><tspan x="650.995" y="393.99999999999994">Respiratory disease</tspan></text></g><g class="legendMark"><g class="indicator"><path d="M619.995,492.2 H630.3796153846154 V405.44999999999993 H646.995" stroke="#999" stroke-width="0.5" fill="none"></path></g><rect x="615.995" y="398.69999999999993" width="74.15" height="13.5" fill="#fff" opacity="0"></rect><text font-size="13.50" x="651.0" y="409.5" fill="#4C6A9C"><tspan x="650.995" y="409.49999999999994">Stroke</tspan></text></g><g class="legendMark"><g class="indicator"><path d="M619.995,513.7 H632.4565384615385 V428.24999999999994 H646.995" stroke="#999" stroke-width="0.5" fill="none"></path></g><rect x="615.995" y="414.19999999999993" width="219.00500000000002" height="28.1" fill="#fff" opacity="0"></rect><text font-size="13.50" x="651.0" y="425.0" fill="#00823F"><tspan x="650.995" y="424.99999999999994">Diabetes, blood and endocrine</tspan><tspan x="650.995" y="439.84999999999997">disease</tspan></text></g><g class="legendMark"><g class="indicator"><path d="M619.995,516.8 H634.5334615384616 V451.04999999999995 H646.995" stroke="#999" stroke-width="0.5" fill="none"></path></g><rect x="615.995" y="444.29999999999995" width="141.11" height="13.5" fill="#fff" opacity="0"></rect><text font-size="13.50" x="651.0" y="455.1" fill="#883039"><tspan x="650.995" y="455.09999999999997">Digestive disease</tspan></text></g><g class="legendMark"><g class="indicator"><path d="M619.995,522.8 H636.6103846153846 V466.54999999999995 H646.995" stroke="#999" stroke-width="0.5" fill="none"></path></g><rect x="615.995" y="459.79999999999995" width="114.78500000000001" height="13.5" fill="#fff" opacity="0"></rect><text font-size="13.50" x="651.0" y="470.6" fill="#CF0A66"><tspan x="650.995" y="470.59999999999997">Liver disease</tspan></text></g><g class="legendMark"><g class="indicator"><path d="M619.995,529.1 H638.6873076923077 V482.04999999999995 H646.995" stroke="#999" stroke-width="0.5" fill="none"></path></g><rect x="615.995" y="475.29999999999995" width="126.935" height="13.5" fill="#fff" opacity="0"></rect><text font-size="13.50" x="651.0" y="486.1" fill="#6D3E91"><tspan x="650.995" y="486.09999999999997">Kidney disease</tspan></text></g><g class="legendMark"><g class="indicator"><path d="M619.995,530.5 H640.7642307692308 V497.54999999999995 H646.995" stroke="#999" stroke-width="0.5" fill="none"></path></g><rect x="615.995" y="490.79999999999995" width="155.01500000000001" height="13.5" fill="#fff" opacity="0"></rect><text font-size="13.50" x="651.0" y="501.6" fill="#00847E"><tspan x="650.995" y="501.59999999999997">Parkinson&#x27;s disease</tspan></text></g><g class="legendMark"><g class="indicator"><path d="M619.995,534.8 H642.8411538461538 V513.05 H646.995" stroke="#999" stroke-width="0.5" fill="none"></path></g><rect x="615.995" y="506.29999999999995" width="95.885" height="13.5" fill="#fff" opacity="0"></rect><text font-size="13.50" x="651.0" y="517.1" fill="#B13507"><tspan x="650.995" y="517.0999999999999">Meningitis</tspan></text></g><g class="legendMark"><g class="indicator"><path d="M619.995,535.2 H644.9180769230769 V528.55 H646.995" stroke="#999" stroke-width="0.5" fill="none"></path></g><rect x="615.995" y="521.8" width="87.65" height="13.5" fill="#fff" opacity="0"></rect><text font-size="13.50" x="651.0" y="532.6" fill="#3C4E66"><tspan x="650.995" y="532.5999999999999">Hepatitis</tspan></text></g></g><g class="Lines"><rect x="47" y="129" width="569" height="407" fill="rgba(255,255,255,0)" opacity="0"></rect><g class="key-United-Kingdom_0"><path stroke="#D73C50" stroke-linecap="round" d="M47 483L69 483L91 483L113 483L135 483L157 483L179 483L200 483L222 483L244 483L266 483L288 484L310 484L332 485L354 485L375 486L397 486L419 486L441 486L463 486L485 486L507 486L529 486L550 486L572 486L594 486L616 486" fill="none" stroke-width="1.5"></path><g fill="#D73C50"><circle cx="47" cy="483" r="2"></circle><circle cx="69" cy="483" r="2"></circle><circle cx="91" cy="483" r="2"></circle><circle cx="113" cy="483" r="2"></circle><circle cx="135" cy="483" r="2"></circle><circle cx="157" cy="483" r="2"></circle><circle cx="179" cy="483" r="2"></circle><circle cx="200" cy="483" r="2"></circle><circle cx="222" cy="483" r="2"></circle><circle cx="244" cy="483" r="2"></circle><circle cx="266" cy="483" r="2"></circle><circle cx="288" cy="484" r="2"></circle><circle cx="310" cy="484" r="2"></circle><circle cx="332" cy="485" r="2"></circle><circle cx="354" cy="485" r="2"></circle><circle cx="375" cy="486" r="2"></circle><circle cx="397" cy="486" r="2"></circle><circle cx="419" cy="486" r="2"></circle><circle cx="441" cy="486" r="2"></circle><circle cx="463" cy="486" r="2"></circle><circle cx="485" cy="486" r="2"></circle><circle cx="507" cy="486" r="2"></circle><circle cx="529" cy="486" r="2"></circle><circle cx="550" cy="486" r="2"></circle><circle cx="572" cy="486" r="2"></circle><circle cx="594" cy="486" r="2"></circle><circle cx="616" cy="486" r="2"></circle></g></g><g class="key-United-Kingdom_1"><path stroke="#287669" stroke-linecap="round" d="M47 129L69 138L91 149L113 155L135 170L157 179L179 191L200 204L222 215L244 225L266 239L288 251L310 260L332 270L354 285L375 297L397 310L419 320L441 330L463 340L485 348L507 355L529 358L550 361L572 364L594 365L616 364" fill="none" stroke-width="1.5"></path><g fill="#287669"><circle cx="47" cy="129" r="2"></circle><circle cx="69" cy="138" r="2"></circle><circle cx="91" cy="149" r="2"></circle><circle cx="113" cy="155" r="2"></circle><circle cx="135" cy="170" r="2"></circle><circle cx="157" cy="179" r="2"></circle><circle cx="179" cy="191" r="2"></circle><circle cx="200" cy="204" r="2"></circle><circle cx="222" cy="215" r="2"></circle><circle cx="244" cy="225" r="2"></circle><circle cx="266" cy="239" r="2"></circle><circle cx="288" cy="251" r="2"></circle><circle cx="310" cy="260" r="2"></circle><circle cx="332" cy="270" r="2"></circle><circle cx="354" cy="285" r="2"></circle><circle cx="375" cy="297" r="2"></circle><circle cx="397" cy="310" r="2"></circle><circle cx="419" cy="320" r="2"></circle><circle cx="441" cy="330" r="2"></circle><circle cx="463" cy="340" r="2"></circle><circle cx="485" cy="348" r="2"></circle><circle cx="507" cy="355" r="2"></circle><circle cx="529" cy="358" r="2"></circle><circle cx="550" cy="361" r="2"></circle><circle cx="572" cy="364" r="2"></circle><circle cx="594" cy="365" r="2"></circle><circle cx="616" cy="364" r="2"></circle></g></g><g class="key-United-Kingdom_10"><path stroke="#CD2285" stroke-linecap="round" d="M47 302L69 304L91 305L113 305L135 308L157 310L179 313L200 315L222 318L244 320L266 323L288 325L310 327L332 328L354 331L375 333L397 336L419 339L441 341L463 344L485 345L507 346L529 346L550 347L572 347L594 348L616 348" fill="none" stroke-width="1.5"></path><g fill="#CD2285"><circle cx="47" cy="302" r="2"></circle><circle cx="69" cy="304" r="2"></circle><circle cx="91" cy="305" r="2"></circle><circle cx="113" cy="305" r="2"></circle><circle cx="135" cy="308" r="2"></circle><circle cx="157" cy="310" r="2"></circle><circle cx="179" cy="313" r="2"></circle><circle cx="200" cy="315" r="2"></circle><circle cx="222" cy="318" r="2"></circle><circle cx="244" cy="320" r="2"></circle><circle cx="266" cy="323" r="2"></circle><circle cx="288" cy="325" r="2"></circle><circle cx="310" cy="327" r="2"></circle><circle cx="332" cy="328" r="2"></circle><circle cx="354" cy="331" r="2"></circle><circle cx="375" cy="333" r="2"></circle><circle cx="397" cy="336" r="2"></circle><circle cx="419" cy="339" r="2"></circle><circle cx="441" cy="341" r="2"></circle><circle cx="463" cy="344" r="2"></circle><circle cx="485" cy="345" r="2"></circle><circle cx="507" cy="346" r="2"></circle><circle cx="529" cy="346" r="2"></circle><circle cx="550" cy="347" r="2"></circle><circle cx="572" cy="347" r="2"></circle><circle cx="594" cy="348" r="2"></circle><circle cx="616" cy="348" r="2"></circle></g></g><g class="key-United-Kingdom_11"><path stroke="#00847E" stroke-linecap="round" d="M47 532L69 532L91 532L113 532L135 532L157 531L179 531L200 531L222 531L244 531L266 531L288 531L310 531L332 531L354 531L375 531L397 531L419 531L441 531L463 531L485 531L507 531L529 531L550 531L572 531L594 531L616 531" fill="none" stroke-width="1.5"></path><g fill="#00847E"><circle cx="47" cy="532" r="2"></circle><circle cx="69" cy="532" r="2"></circle><circle cx="91" cy="532" r="2"></circle><circle cx="113" cy="532" r="2"></circle><circle cx="135" cy="532" r="2"></circle><circle cx="157" cy="531" r="2"></circle><circle cx="179" cy="531" r="2"></circle><circle cx="200" cy="531" r="2"></circle><circle cx="222" cy="531" r="2"></circle><circle cx="244" cy="531" r="2"></circle><circle cx="266" cy="531" r="2"></circle><circle cx="288" cy="531" r="2"></circle><circle cx="310" cy="531" r="2"></circle><circle cx="332" cy="531" r="2"></circle><circle cx="354" cy="531" r="2"></circle><circle cx="375" cy="531" r="2"></circle><circle cx="397" cy="531" r="2"></circle><circle cx="419" cy="531" r="2"></circle><circle cx="441" cy="531" r="2"></circle><circle cx="463" cy="531" r="2"></circle><circle cx="485" cy="531" r="2"></circle><circle cx="507" cy="531" r="2"></circle><circle cx="529" cy="531" r="2"></circle><circle cx="550" cy="531" r="2"></circle><circle cx="572" cy="531" r="2"></circle><circle cx="594" cy="531" r="2"></circle><circle cx="616" cy="531" r="2"></circle></g></g><g class="key-United-Kingdom_2"><path stroke="#4C6A9C" stroke-linecap="round" d="M47 444L69 447L91 450L113 453L135 456L157 458L179 461L200 463L222 465L244 466L266 469L288 469L310 470L332 471L354 474L375 477L397 480L419 482L441 484L463 487L485 488L507 490L529 490L550 491L572 492L594 492L616 492" fill="none" stroke-width="1.5"></path><g fill="#4C6A9C"><circle cx="47" cy="444" r="2"></circle><circle cx="69" cy="447" r="2"></circle><circle cx="91" cy="450" r="2"></circle><circle cx="113" cy="453" r="2"></circle><circle cx="135" cy="456" r="2"></circle><circle cx="157" cy="458" r="2"></circle><circle cx="179" cy="461" r="2"></circle><circle cx="200" cy="463" r="2"></circle><circle cx="222" cy="465" r="2"></circle><circle cx="244" cy="466" r="2"></circle><circle cx="266" cy="469" r="2"></circle><circle cx="288" cy="469" r="2"></circle><circle cx="310" cy="470" r="2"></circle><circle cx="332" cy="471" r="2"></circle><circle cx="354" cy="474" r="2"></circle><circle cx="375" cy="477" r="2"></circle><circle cx="397" cy="480" r="2"></circle><circle cx="419" cy="482" r="2"></circle><circle cx="441" cy="484" r="2"></circle><circle cx="463" cy="487" r="2"></circle><circle cx="485" cy="488" r="2"></circle><circle cx="507" cy="490" r="2"></circle><circle cx="529" cy="490" r="2"></circle><circle cx="550" cy="491" r="2"></circle><circle cx="572" cy="492" r="2"></circle><circle cx="594" cy="492" r="2"></circle><circle cx="616" cy="492" r="2"></circle></g></g><g class="key-United-Kingdom_3"><path stroke="#6D3E91" stroke-linecap="round" d="M47 528L69 528L91 529L113 529L135 529L157 529L179 529L200 529L222 529L244 529L266 529L288 529L310 529L332 529L354 529L375 529L397 529L419 529L441 529L463 529L485 529L507 529L529 529L550 529L572 529L594 529L616 529" fill="none" stroke-width="1.5"></path><g fill="#6D3E91"><circle cx="47" cy="528" r="2"></circle><circle cx="69" cy="528" r="2"></circle><circle cx="91" cy="529" r="2"></circle><circle cx="113" cy="529" r="2"></circle><circle cx="135" cy="529" r="2"></circle><circle cx="157" cy="529" r="2"></circle><circle cx="179" cy="529" r="2"></circle><circle cx="200" cy="529" r="2"></circle><circle cx="222" cy="529" r="2"></circle><circle cx="244" cy="529" r="2"></circle><circle cx="266" cy="529" r="2"></circle><circle cx="288" cy="529" r="2"></circle><circle cx="310" cy="529" r="2"></circle><circle cx="332" cy="529" r="2"></circle><circle cx="354" cy="529" r="2"></circle><circle cx="375" cy="529" r="2"></circle><circle cx="397" cy="529" r="2"></circle><circle cx="419" cy="529" r="2"></circle><circle cx="441" cy="529" r="2"></circle><circle cx="463" cy="529" r="2"></circle><circle cx="485" cy="529" r="2"></circle><circle cx="507" cy="529" r="2"></circle><circle cx="529" cy="529" r="2"></circle><circle cx="550" cy="529" r="2"></circle><circle cx="572" cy="529" r="2"></circle><circle cx="594" cy="529" r="2"></circle><circle cx="616" cy="529" r="2"></circle></g></g><g class="key-United-Kingdom_4"><path stroke="#C05917" stroke-linecap="round" d="M47 485L69 485L91 485L113 485L135 486L157 485L179 485L200 485L222 486L244 485L266 486L288 486L310 486L332 485L354 486L375 487L397 488L419 488L441 489L463 490L485 490L507 490L529 490L550 490L572 491L594 491L616 492" fill="none" stroke-width="1.5"></path><g fill="#C05917"><circle cx="47" cy="485" r="2"></circle><circle cx="69" cy="485" r="2"></circle><circle cx="91" cy="485" r="2"></circle><circle cx="113" cy="485" r="2"></circle><circle cx="135" cy="486" r="2"></circle><circle cx="157" cy="485" r="2"></circle><circle cx="179" cy="485" r="2"></circle><circle cx="200" cy="485" r="2"></circle><circle cx="222" cy="486" r="2"></circle><circle cx="244" cy="485" r="2"></circle><circle cx="266" cy="486" r="2"></circle><circle cx="288" cy="486" r="2"></circle><circle cx="310" cy="486" r="2"></circle><circle cx="332" cy="485" r="2"></circle><circle cx="354" cy="486" r="2"></circle><circle cx="375" cy="487" r="2"></circle><circle cx="397" cy="488" r="2"></circle><circle cx="419" cy="488" r="2"></circle><circle cx="441" cy="489" r="2"></circle><circle cx="463" cy="490" r="2"></circle><circle cx="485" cy="490" r="2"></circle><circle cx="507" cy="490" r="2"></circle><circle cx="529" cy="490" r="2"></circle><circle cx="550" cy="490" r="2"></circle><circle cx="572" cy="491" r="2"></circle><circle cx="594" cy="491" r="2"></circle><circle cx="616" cy="492" r="2"></circle></g></g><g class="key-United-Kingdom_5"><path stroke="#CF0A66" stroke-linecap="round" d="M47 528L69 527L91 527L113 527L135 527L157 526L179 526L200 525L222 525L244 524L266 524L288 523L310 523L332 522L354 522L375 522L397 522L419 522L441 522L463 522L485 522L507 522L529 523L550 523L572 523L594 523L616 523" fill="none" stroke-width="1.5"></path><g fill="#CF0A66"><circle cx="47" cy="528" r="2"></circle><circle cx="69" cy="527" r="2"></circle><circle cx="91" cy="527" r="2"></circle><circle cx="113" cy="527" r="2"></circle><circle cx="135" cy="527" r="2"></circle><circle cx="157" cy="526" r="2"></circle><circle cx="179" cy="526" r="2"></circle><circle cx="200" cy="525" r="2"></circle><circle cx="222" cy="525" r="2"></circle><circle cx="244" cy="524" r="2"></circle><circle cx="266" cy="524" r="2"></circle><circle cx="288" cy="523" r="2"></circle><circle cx="310" cy="523" r="2"></circle><circle cx="332" cy="522" r="2"></circle><circle cx="354" cy="522" r="2"></circle><circle cx="375" cy="522" r="2"></circle><circle cx="397" cy="522" r="2"></circle><circle cx="419" cy="522" r="2"></circle><circle cx="441" cy="522" r="2"></circle><circle cx="463" cy="522" r="2"></circle><circle cx="485" cy="522" r="2"></circle><circle cx="507" cy="522" r="2"></circle><circle cx="529" cy="523" r="2"></circle><circle cx="550" cy="523" r="2"></circle><circle cx="572" cy="523" r="2"></circle><circle cx="594" cy="523" r="2"></circle><circle cx="616" cy="523" r="2"></circle></g></g><g class="key-United-Kingdom_6"><path stroke="#00823F" stroke-linecap="round" d="M47 508L69 509L91 510L113 510L135 511L157 511L179 511L200 512L222 512L244 512L266 512L288 512L310 511L332 511L354 511L375 511L397 511L419 511L441 512L463 512L485 512L507 513L529 513L550 514L572 514L594 514L616 514" fill="none" stroke-width="1.5"></path><g fill="#00823F"><circle cx="47" cy="508" r="2"></circle><circle cx="69" cy="509" r="2"></circle><circle cx="91" cy="510" r="2"></circle><circle cx="113" cy="510" r="2"></circle><circle cx="135" cy="511" r="2"></circle><circle cx="157" cy="511" r="2"></circle><circle cx="179" cy="511" r="2"></circle><circle cx="200" cy="512" r="2"></circle><circle cx="222" cy="512" r="2"></circle><circle cx="244" cy="512" r="2"></circle><circle cx="266" cy="512" r="2"></circle><circle cx="288" cy="512" r="2"></circle><circle cx="310" cy="511" r="2"></circle><circle cx="332" cy="511" r="2"></circle><circle cx="354" cy="511" r="2"></circle><circle cx="375" cy="511" r="2"></circle><circle cx="397" cy="511" r="2"></circle><circle cx="419" cy="511" r="2"></circle><circle cx="441" cy="512" r="2"></circle><circle cx="463" cy="512" r="2"></circle><circle cx="485" cy="512" r="2"></circle><circle cx="507" cy="513" r="2"></circle><circle cx="529" cy="513" r="2"></circle><circle cx="550" cy="514" r="2"></circle><circle cx="572" cy="514" r="2"></circle><circle cx="594" cy="514" r="2"></circle><circle cx="616" cy="514" r="2"></circle></g></g><g class="key-United-Kingdom_7"><path stroke="#883039" stroke-linecap="round" d="M47 514L69 514L91 514L113 514L135 514L157 514L179 514L200 514L222 514L244 514L266 514L288 514L310 514L332 514L354 514L375 514L397 515L419 515L441 515L463 516L485 516L507 516L529 516L550 517L572 517L594 517L616 517" fill="none" stroke-width="1.5"></path><g fill="#883039"><circle cx="47" cy="514" r="2"></circle><circle cx="69" cy="514" r="2"></circle><circle cx="91" cy="514" r="2"></circle><circle cx="113" cy="514" r="2"></circle><circle cx="135" cy="514" r="2"></circle><circle cx="157" cy="514" r="2"></circle><circle cx="179" cy="514" r="2"></circle><circle cx="200" cy="514" r="2"></circle><circle cx="222" cy="514" r="2"></circle><circle cx="244" cy="514" r="2"></circle><circle cx="266" cy="514" r="2"></circle><circle cx="288" cy="514" r="2"></circle><circle cx="310" cy="514" r="2"></circle><circle cx="332" cy="514" r="2"></circle><circle cx="354" cy="514" r="2"></circle><circle cx="375" cy="514" r="2"></circle><circle cx="397" cy="515" r="2"></circle><circle cx="419" cy="515" r="2"></circle><circle cx="441" cy="515" r="2"></circle><circle cx="463" cy="516" r="2"></circle><circle cx="485" cy="516" r="2"></circle><circle cx="507" cy="516" r="2"></circle><circle cx="529" cy="516" r="2"></circle><circle cx="550" cy="517" r="2"></circle><circle cx="572" cy="517" r="2"></circle><circle cx="594" cy="517" r="2"></circle><circle cx="616" cy="517" r="2"></circle></g></g><g class="key-United-Kingdom_8"><path stroke="#3C4E66" stroke-linecap="round" d="M47 535L69 535L91 535L113 535L135 535L157 535L179 535L200 535L222 535L244 535L266 535L288 535L310 535L332 535L354 535L375 535L397 535L419 535L441 535L463 535L485 535L507 535L529 535L550 535L572 535L594 535L616 535" fill="none" stroke-width="1.5"></path><g fill="#3C4E66"><circle cx="47" cy="535" r="2"></circle><circle cx="69" cy="535" r="2"></circle><circle cx="91" cy="535" r="2"></circle><circle cx="113" cy="535" r="2"></circle><circle cx="135" cy="535" r="2"></circle><circle cx="157" cy="535" r="2"></circle><circle cx="179" cy="535" r="2"></circle><circle cx="200" cy="535" r="2"></circle><circle cx="222" cy="535" r="2"></circle><circle cx="244" cy="535" r="2"></circle><circle cx="266" cy="535" r="2"></circle><circle cx="288" cy="535" r="2"></circle><circle cx="310" cy="535" r="2"></circle><circle cx="332" cy="535" r="2"></circle><circle cx="354" cy="535" r="2"></circle><circle cx="375" cy="535" r="2"></circle><circle cx="397" cy="535" r="2"></circle><circle cx="419" cy="535" r="2"></circle><circle cx="441" cy="535" r="2"></circle><circle cx="463" cy="535" r="2"></circle><circle cx="485" cy="535" r="2"></circle><circle cx="507" cy="535" r="2"></circle><circle cx="529" cy="535" r="2"></circle><circle cx="550" cy="535" r="2"></circle><circle cx="572" cy="535" r="2"></circle><circle cx="594" cy="535" r="2"></circle><circle cx="616" cy="535" r="2"></circle></g></g><g class="key-United-Kingdom_9"><path stroke="#B13507" stroke-linecap="round" d="M47 534L69 534L91 534L113 534L135 534L157 534L179 534L200 534L222 534L244 534L266 534L288 534L310 534L332 534L354 535L375 535L397 535L419 535L441 535L463 535L485 535L507 535L529 535L550 535L572 535L594 535L616 535" fill="none" stroke-width="1.5"></path><g fill="#B13507"><circle cx="47" cy="534" r="2"></circle><circle cx="69" cy="534" r="2"></circle><circle cx="91" cy="534" r="2"></circle><circle cx="113" cy="534" r="2"></circle><circle cx="135" cy="534" r="2"></circle><circle cx="157" cy="534" r="2"></circle><circle cx="179" cy="534" r="2"></circle><circle cx="200" cy="534" r="2"></circle><circle cx="222" cy="534" r="2"></circle><circle cx="244" cy="534" r="2"></circle><circle cx="266" cy="534" r="2"></circle><circle cx="288" cy="534" r="2"></circle><circle cx="310" cy="534" r="2"></circle><circle cx="332" cy="534" r="2"></circle><circle cx="354" cy="535" r="2"></circle><circle cx="375" cy="535" r="2"></circle><circle cx="397" cy="535" r="2"></circle><circle cx="419" cy="535" r="2"></circle><circle cx="441" cy="535" r="2"></circle><circle cx="463" cy="535" r="2"></circle><circle cx="485" cy="535" r="2"></circle><circle cx="507" cy="535" r="2"></circle><circle cx="529" cy="535" r="2"></circle><circle cx="550" cy="535" r="2"></circle><circle cx="572" cy="535" r="2"></circle><circle cx="594" cy="535" r="2"></circle><circle cx="616" cy="535" r="2"></circle></g></g></g></g></g><g class="SourcesFooter" style="fill:#777"><g class="clickable" style="fill:#777"><text font-size="12.60" x="15.0" y="581.6"><tspan x="15" y="581.58">Source: Institute for Health Metrics and Evaluation (IHME)</tspan></text></g><text font-size="12.60" x="796.4" y="581.6"><tspan x="796.444" y="581.58"><a style="fill: #777;" class="cclogo" href="http://creativecommons.org/licenses/by/4.0/deed.en_US" target="_blank">CC BY</a></tspan></text></g></svg>