<svg xmlns="http://www.w3.org/2000/svg" version="1.1" style="font-family:Lato, &#x27;Helvetica Neue&#x27;, Helvetica, Arial, sans-serif;font-size:18px;background-color:white;text-rendering:optimizeLegibility;-webkit-font-smoothing:antialiased" width="850" height="600" viewBox="0 0 850 600"><g class="HeaderView"><g transform="translate(774, 15) scale(0.29)"><svg width="210" height="120" viewBox="0 0 210 120" fill="none" xmlns="http://www.w3.org/2000/svg">
<g clip-path="url(#clip0)">
  <path d="M0 0h210v107.89H0V0z" fill="#002147" />
  <path
    d="M40.98 32.25c0 2.36-.38 4.53-1.12 6.51a14.26 14.26 0 01-8.1 8.4c-1.9.78-4.02 1.17-6.34 1.17-2.31 0-4.42-.39-6.33-1.17a14.31 14.31 0 01-8.08-8.4 18.29 18.29 0 01-1.12-6.51c0-2.36.38-4.53 1.12-6.5.75-1.97 1.8-3.67 3.17-5.1 1.37-1.43 3-2.55 4.9-3.34 1.92-.8 4.03-1.19 6.34-1.19 2.32 0 4.43.4 6.34 1.19 1.92.8 3.56 1.9 4.93 3.34a14.87 14.87 0 013.17 5.1 18.1 18.1 0 011.12 6.5zm-4.38 0c0-1.94-.26-3.68-.8-5.22a10.91 10.91 0 00-2.24-3.89 9.68 9.68 0 00-3.52-2.46 11.95 11.95 0 00-4.62-.86c-1.68 0-3.21.28-4.6.86a9.88 9.88 0 00-3.54 2.46 10.91 10.91 0 00-2.24 3.9c-.53 1.53-.8 3.27-.8 5.2 0 1.94.27 3.68.8 5.22a11.17 11.17 0 002.24 3.9 10.01 10.01 0 003.55 2.44c1.38.56 2.9.83 4.6.83 1.7 0 3.24-.27 4.61-.83a9.8 9.8 0 003.52-2.44 11.17 11.17 0 002.25-3.9c.53-1.54.8-3.28.8-5.21zm26.22-6.54V48H60.5c-.56 0-.9-.27-1.05-.81l-.31-2.4a12.45 12.45 0 01-3.26 2.6c-1.2.64-2.58.96-4.13.96-1.22 0-2.3-.2-3.24-.6a6.52 6.52 0 01-2.33-1.7 7.37 7.37 0 01-1.43-2.67c-.3-1.04-.46-2.2-.46-3.45V25.7h3.91v14.22c0 1.68.38 2.99 1.15 3.91.77.93 1.96 1.39 3.54 1.39 1.16 0 2.24-.27 3.23-.82a10.42 10.42 0 002.8-2.28V25.7h3.91zm8.61 4.47a9.94 9.94 0 012.6-3.56 5.64 5.64 0 013.76-1.3c.47 0 .92.05 1.34.15.44.1.83.27 1.17.49L80 28.88c-.09.37-.3.55-.66.55-.2 0-.5-.04-.9-.13a6.21 6.21 0 00-3.24.18c-.54.2-1.03.5-1.47.92-.42.4-.81.9-1.17 1.5-.33.58-.64 1.26-.92 2.02V48h-3.94V25.71h2.25c.42 0 .72.08.88.25.16.16.27.44.33.83l.26 3.39zm61.16-13.7L122.75 48h-3.82l-7.99-24.05a21.95 21.95 0 01-.42-1.58 38.36 38.36 0 01-.44 1.58L102.05 48h-3.83L88.4 16.47h3.54c.38 0 .7.1.95.29.26.2.43.43.5.73l6.52 21.9c.1.4.2.83.28 1.28.1.46.2.94.29 1.46l.3-1.46c.12-.47.25-.9.38-1.27l7.41-21.91c.1-.25.26-.48.51-.69.27-.22.58-.33.95-.33h1.23c.38 0 .69.1.92.29.24.2.41.43.53.73l7.4 21.9a28.4 28.4 0 01.68 2.62 29.52 29.52 0 01.52-2.61l6.54-21.91c.07-.27.23-.5.48-.7.27-.21.58-.32.95-.32h3.32zm9.35 8.88c1.63 0 3.1.27 4.4.82a9.43 9.43 0 015.46 5.94c.5 1.4.74 2.98.74 4.73 0 1.76-.25 3.34-.74 4.75a9.43 9.43 0 01-5.46 5.92c-1.3.52-2.77.79-4.4.79-1.64 0-3.12-.27-4.44-.8a9.42 9.42 0 01-3.35-2.3c-.92-1-1.63-2.2-2.13-3.61-.49-1.41-.73-3-.73-4.75s.24-3.33.73-4.73c.5-1.43 1.2-2.64 2.13-3.63.93-1 2.04-1.77 3.35-2.31 1.32-.55 2.8-.82 4.44-.82zm0 19.89c2.2 0 3.84-.73 4.93-2.2 1.08-1.48 1.63-3.54 1.63-6.18 0-2.66-.55-4.72-1.63-6.2-1.09-1.49-2.73-2.23-4.93-2.23-1.12 0-2.09.2-2.93.57-.82.39-1.5.94-2.06 1.65-.55.72-.96 1.61-1.24 2.67-.26 1.04-.4 2.22-.4 3.54 0 2.64.55 4.7 1.64 6.18 1.1 1.47 2.76 2.2 4.99 2.2zm17.97-15.07a9.94 9.94 0 012.6-3.56 5.64 5.64 0 013.76-1.3c.47 0 .91.05 1.34.15.44.1.83.27 1.16.49l-.28 2.92c-.09.37-.31.55-.66.55-.2 0-.5-.04-.9-.13a6.2 6.2 0 00-3.24.18c-.54.2-1.03.5-1.47.92-.43.4-.82.9-1.17 1.5a13.1 13.1 0 00-.92 2.02V48h-3.94V25.71h2.24c.43 0 .72.08.88.25.17.16.28.44.33.83l.27 3.39zm15.04-14.59V48h-3.92V15.6h3.92zm19.55 15.43a6.22 6.22 0 00-2.38-2.05 6.7 6.7 0 00-2.86-.6c-2.07 0-3.66.75-4.77 2.23-1.12 1.48-1.68 3.6-1.68 6.33 0 1.46.13 2.7.38 3.74a7.29 7.29 0 001.1 2.56 4.35 4.35 0 001.78 1.45c.7.3 1.5.46 2.4.46 1.29 0 2.41-.3 3.36-.88a9.6 9.6 0 002.67-2.49V31.02zm3.91-15.43V48h-2.33c-.56 0-.9-.27-1.06-.81l-.35-2.71a12.13 12.13 0 01-3.25 2.77 8.28 8.28 0 01-4.23 1.06 7.31 7.31 0 01-6.14-2.9c-.73-.96-1.3-2.15-1.69-3.57a18.35 18.35 0 01.07-9.48 11.29 11.29 0 011.89-3.7 8.7 8.7 0 017.06-3.34 7.96 7.96 0 016.12 2.62V15.59h3.91zM46.61 70.71V93H42.7V70.71h3.91zm.84-7c0 .39-.08.75-.24 1.09-.15.32-.35.61-.62.88-.25.25-.55.44-.9.59a2.67 2.67 0 01-2.16 0 2.9 2.9 0 01-1.45-1.47 2.67 2.67 0 010-2.16c.15-.35.35-.65.6-.9.25-.27.53-.47.85-.62a2.67 2.67 0 012.16 0c.35.15.65.35.9.62.27.25.47.55.62.9.16.34.24.7.24 1.08zm7.97 10.24c.49-.54 1-1.04 1.54-1.48a9.85 9.85 0 013.66-1.84 8.96 8.96 0 015.43.35c.94.4 1.72.97 2.33 1.71.63.74 1.11 1.62 1.43 2.67.32 1.04.49 2.19.49 3.45V93h-3.94V78.81c0-1.69-.4-3-1.17-3.92-.76-.93-1.93-1.4-3.5-1.4-1.15 0-2.24.27-3.25.83-1 .56-1.92 1.31-2.77 2.27V93h-3.94V70.71h2.35c.56 0 .9.28 1.04.82l.3 2.42zm57.7 3.3c0 2.36-.37 4.5-1.11 6.44a14.3 14.3 0 01-3.17 4.98c-1.37 1.37-3 2.45-4.93 3.2-1.9.76-4.02 1.13-6.33 1.13H85.8V61.47h11.77c2.31 0 4.42.39 6.33 1.15a13.8 13.8 0 018.1 8.18 17.75 17.75 0 011.12 6.45zm-4.37 0c0-1.94-.26-3.67-.8-5.2a10.94 10.94 0 00-2.23-3.87 9.57 9.57 0 00-3.53-2.42 12.23 12.23 0 00-4.61-.83h-7.5v24.62h7.5c1.7 0 3.24-.28 4.61-.84a9.7 9.7 0 003.53-2.4 10.94 10.94 0 002.24-3.87c.53-1.53.8-3.26.8-5.2zm19.8 5.72c-1.8.06-3.34.2-4.62.44-1.26.22-2.3.51-3.1.88-.8.36-1.37.8-1.74 1.3-.35.5-.53 1.05-.53 1.67 0 .58.1 1.1.3 1.52a3 3 0 00.76 1.05c.34.27.73.46 1.17.6.45.11.94.17 1.45.17a7.28 7.28 0 003.5-.81 11.95 11.95 0 002.82-2.2v-4.62zm-12.65-9.11a12.73 12.73 0 013.98-2.66c1.43-.59 3-.88 4.73-.88 1.25 0 2.36.2 3.33.61a6.81 6.81 0 013.94 4.38c.33 1.04.5 2.19.5 3.43V93h-1.74a1.8 1.8 0 01-.88-.18c-.2-.13-.36-.38-.48-.74l-.44-2.12c-.59.55-1.16 1.03-1.72 1.46a9.48 9.48 0 01-3.74 1.7c-.69.15-1.46.23-2.3.23-.87 0-1.69-.12-2.45-.35a5.34 5.34 0 01-3.34-2.93 6.64 6.64 0 01-.49-2.64c0-.88.25-1.72.73-2.53a6.33 6.33 0 012.35-2.17c1.09-.63 2.5-1.15 4.25-1.54 1.75-.41 3.89-.65 6.42-.7v-1.75c0-1.73-.37-3.03-1.12-3.91-.75-.9-1.84-1.34-3.28-1.34-.97 0-1.78.12-2.44.37-.64.23-1.2.5-1.7.81l-1.23.82c-.33.23-.67.35-1 .35-.27 0-.5-.07-.69-.2a2.1 2.1 0 01-.48-.53l-.7-1.25zm27.67 19.5c-1.76 0-3.12-.5-4.07-1.48-.94-.98-1.41-2.4-1.41-4.25V74h-2.68a.9.9 0 01-.6-.2c-.16-.14-.24-.36-.24-.66v-1.56l3.65-.46.9-6.89c.05-.22.14-.4.29-.52a.88.88 0 01.62-.22H142v7.67h6.44V74h-6.44v13.38c0 .94.22 1.63.68 2.09.45.45 1.04.68 1.76.68a3.21 3.21 0 001.85-.53l.55-.35c.16-.12.3-.18.41-.18.2 0 .4.13.55.38l1.15 1.87a7.45 7.45 0 01-2.44 1.5c-.96.35-1.94.52-2.95.52zm19.68-10.4c-1.8.07-3.34.21-4.62.45-1.26.22-2.3.51-3.1.88-.8.36-1.37.8-1.74 1.3-.35.5-.53 1.05-.53 1.67 0 .58.1 1.1.3 1.52.18.42.44.77.76 1.05.34.27.73.46 1.17.6.45.11.94.17 1.45.17a7.3 7.3 0 003.5-.81 12.04 12.04 0 002.82-2.2v-4.62zm-12.65-9.1a12.72 12.72 0 013.99-2.66c1.42-.59 3-.88 4.72-.88 1.25 0 2.36.2 3.33.61a6.81 6.81 0 013.94 4.38c.33 1.04.5 2.19.5 3.43V93h-1.74a1.8 1.8 0 01-.88-.18c-.2-.13-.36-.38-.48-.74l-.44-2.12c-.59.55-1.16 1.03-1.72 1.46a9.48 9.48 0 01-3.74 1.7c-.69.15-1.46.23-2.3.23-.87 0-1.69-.12-2.45-.35a5.33 5.33 0 01-3.34-2.93 6.62 6.62 0 01-.49-2.64c0-.88.25-1.72.73-2.53a6.33 6.33 0 012.35-2.17c1.09-.63 2.5-1.15 4.25-1.54 1.74-.41 3.89-.65 6.42-.7v-1.75c0-1.73-.37-3.03-1.12-3.91-.75-.9-1.84-1.34-3.28-1.34-.97 0-1.78.12-2.44.37-.64.23-1.2.5-1.7.81-.46.3-.87.57-1.22.82-.34.23-.68.35-1.02.35-.26 0-.49-.07-.68-.2-.19-.14-.35-.32-.48-.53l-.7-1.25z"
    fill="#fff"
  />
  <path fill="#D42B21" d="M0 106.79h210V120H0z" />
</g>
<defs>
  <clipPath id="clip0"><path fill="#fff" d="M0 0h210v120H0z" /></clipPath>
</defs>
</svg></g><a href="http://localhost:3099/grapher/annual-number-of-deaths-by-world-region" style="font-family:&quot;Playfair Display&quot;, Georgia, &quot;Times New Roman&quot;, serif" target="_blank"><text font-size="25.20" x="15.0" y="35.2" fill="#555"><tspan x="15" y="35.160000000000004">Annual number of deaths by world region, 1950 to 2015</tspan></text></a></g><g class="StackedArea"><defs><clipPath id="boundsClip-878"><rect x="88.526" y="0" width="820" height="973"></rect></clipPath></defs><g class="AxisBoxView"><g class="HorizontalAxis"><line x1="88.5" y1="535.3" x2="88.5" y2="539.3" stroke="#ccc"></line><line x1="185.3" y1="535.3" x2="185.3" y2="539.3" stroke="#ccc"></line><line x1="282" y1="535.3" x2="282" y2="539.3" stroke="#ccc"></line><line x1="378.7" y1="535.3" x2="378.7" y2="539.3" stroke="#ccc"></line><line x1="475.4" y1="535.3" x2="475.4" y2="539.3" stroke="#ccc"></line><line x1="572.2" y1="535.3" x2="572.2" y2="539.3" stroke="#ccc"></line><line x1="668.9" y1="535.3" x2="668.9" y2="539.3" stroke="#ccc"></line><line x1="717.2" y1="535.3" x2="717.2" y2="539.3" stroke="#ccc"></line><text x="88.5" y="556.5" fill="#666" text-anchor="middle" font-size="16.2">1950</text><text x="185.3" y="556.5" fill="#666" text-anchor="middle" font-size="16.2">1960</text><text x="282" y="556.5" fill="#666" text-anchor="middle" font-size="16.2">1970</text><text x="378.7" y="556.5" fill="#666" text-anchor="middle" font-size="16.2">1980</text><text x="475.4" y="556.5" fill="#666" text-anchor="middle" font-size="16.2">1990</text><text x="572.2" y="556.5" fill="#666" text-anchor="middle" font-size="16.2">2000</text><text x="668.9" y="556.5" fill="#666" text-anchor="middle" font-size="16.2">2010</text><text x="717.2" y="556.5" fill="#666" text-anchor="middle" font-size="16.2">2015</text></g><g class="VerticalAxis"><text x="83.53" y="535.3" fill="#666" dominant-baseline="middle" text-anchor="end" font-size="16.2">0</text><text x="83.53" y="453.2" fill="#666" dominant-baseline="middle" text-anchor="end" font-size="16.2">10 million</text><text x="83.53" y="371" fill="#666" dominant-baseline="middle" text-anchor="end" font-size="16.2">20 million</text><text x="83.53" y="288.9" fill="#666" dominant-baseline="middle" text-anchor="end" font-size="16.2">30 million</text><text x="83.53" y="206.8" fill="#666" dominant-baseline="middle" text-anchor="end" font-size="16.2">40 million</text><text x="83.53" y="124.7" fill="#666" dominant-baseline="middle" text-anchor="end" font-size="16.2">50 million</text></g><g class="AxisGridLines horizontalLines"><line x1="88.53" y1="535.3" x2="717.25" y2="535.3" stroke="#ccc"></line><line x1="88.53" y1="453.2" x2="717.25" y2="453.2" stroke="#ddd" stroke-dasharray="3,2"></line><line x1="88.53" y1="371" x2="717.25" y2="371" stroke="#ddd" stroke-dasharray="3,2"></line><line x1="88.53" y1="288.9" x2="717.25" y2="288.9" stroke="#ddd" stroke-dasharray="3,2"></line><line x1="88.53" y1="206.8" x2="717.25" y2="206.8" stroke="#ddd" stroke-dasharray="3,2"></line><line x1="88.53" y1="124.7" x2="717.25" y2="124.7" stroke="#ddd" stroke-dasharray="3,2"></line></g></g><g clip-path="url(#boundsClip-878)"><g class="HeightedLegend" style="cursor:default"><g class="legendMark"><g class="indicator"><path d="M721.245,71.1 H742.845 V76.75 H748.245" stroke="#999" stroke-width="0.5" fill="none"></path></g><rect x="717.245" y="70" width="85.49000000000001" height="13.5" fill="#fff" opacity="0"></rect><text font-size="13.50" x="752.2" y="80.8" fill="#a652ba"><tspan x="752.245" y="80.8">Oceania</tspan></text></g><g class="legendMark"><g class="indicator"><path d="M721.245,87.6 H737.4449999999999 V106.85 H748.245" stroke="#999" stroke-width="0.5" fill="none"></path></g><rect x="717.245" y="85.5" width="117.75500000000001" height="42.7" fill="#fff" opacity="0"></rect><text font-size="13.50" x="752.2" y="96.3" fill="#6bb537"><tspan x="752.245" y="96.3">Latin America</tspan><tspan x="752.245" y="111.15">and the</tspan><tspan x="752.245" y="126">Caribbean</tspan></text></g><g class="legendMark"><g class="indicator"><path d="M721.245,114.9 H732.045 V144.25 H748.245" stroke="#999" stroke-width="0.5" fill="none"></path></g><rect x="717.245" y="130.2" width="87.65" height="28.1" fill="#fff" opacity="0"></rect><text font-size="13.50" x="752.2" y="141.0" fill="#34983f"><tspan x="752.245" y="141">Northern</tspan><tspan x="752.245" y="155.85">America</tspan></text></g><g class="legendMark"><g class="indicator"><path d="M721.245,160.4 H726.645 V167.04999999999998 H748.245" stroke="#999" stroke-width="0.5" fill="none"></path></g><rect x="717.245" y="160.29999999999998" width="78.74000000000001" height="13.5" fill="#fff" opacity="0"></rect><text font-size="13.50" x="752.2" y="171.1" fill="#ffd53e"><tspan x="752.245" y="171.1">Europe</tspan></text></g><g class="legendMark"><g class="indicator"><path d="M721.245,237.5 H734.745 V237.5 H748.245" stroke="#999" stroke-width="0.5" fill="none"></path></g><rect x="717.245" y="230.75" width="69.56" height="13.5" fill="#fff" opacity="0"></rect><text font-size="13.50" x="752.2" y="241.6" fill="#3360a9"><tspan x="752.245" y="241.55">Africa</tspan></text></g><g class="legendMark"><g class="indicator"><path d="M721.245,408.1 H734.745 V408.1 H748.245" stroke="#999" stroke-width="0.5" fill="none"></path></g><rect x="717.245" y="401.35" width="61.325" height="13.5" fill="#fff" opacity="0"></rect><text font-size="13.50" x="752.2" y="412.2" fill="#932834"><tspan x="752.245" y="412.15000000000003">Asia</tspan></text></g></g><g class="Areas"><rect x="88.526" y="70" width="628.719" height="465.29999999999995" opacity="0" fill="rgba(255,255,255,0)"></rect><path class="Asia_0-area" stroke-linecap="round" d="M88.5 258.5L98.2 259.9L107.9 262.3L117.5 263.8L127.2 264.5L136.9 264.5L146.6 263.7L156.2 262.4L165.9 260.8L175.6 259.3L185.3 258.6L194.9 259L204.6 261L214.3 264.9L223.9 270.6L233.6 277.5L243.3 285.1L253 292.3L262.6 298.8L272.3 304L282 308L291.7 311L301.3 313.5L311 315.8L320.7 318.1L330.3 320.2L340 322.2L349.7 323.8L359.4 324.9L369 325.5L378.7 325.5L388.4 325.1L398 324.3L407.7 323.3L417.4 322.1L427.1 320.9L436.7 319.7L446.4 318.7L456.1 317.8L465.8 317.1L475.4 316.6L485.1 316.2L494.8 315.8L504.4 315.3L514.1 314.8L523.8 314.3L533.5 313.8L543.1 313.3L552.8 312.8L562.5 312.4L572.2 311.9L581.8 311.3L591.5 310.5L601.2 309.5L610.8 308.2L620.5 306.7L630.2 304.9L639.9 303L649.5 300.9L659.2 298.7L668.9 296.3L678.6 293.8L688.2 290.9L697.9 287.9L707.6 284.6L717.2 281L717.245 535.3L88.526 535.3" fill="#932834" fill-opacity="0.7"></path><path class="Africa_0-area" stroke-linecap="round" d="M88.5 205.5L98.2 206.9L107.9 209.2L117.5 210.6L127.2 211.2L136.9 211L146.6 210.1L156.2 208.6L165.9 206.8L175.6 205.1L185.3 204L194.9 204.1L204.6 205.8L214.3 209.3L223.9 214.6L233.6 221.1L243.3 228.1L253 234.9L262.6 240.8L272.3 245.5L282 249L291.7 251.4L301.3 253.4L311 255.2L320.7 256.9L330.3 258.5L340 259.8L349.7 260.8L359.4 261.3L369 261.2L378.7 260.5L388.4 259.4L398 257.9L407.7 256L417.4 254L427.1 251.9L436.7 249.7L446.4 247.4L456.1 245.2L465.8 242.9L475.4 240.8L485.1 238.7L494.8 236.6L504.4 234.5L514.1 232.5L523.8 230.5L533.5 228.7L543.1 226.9L552.8 225.2L562.5 223.6L572.2 222.1L581.8 220.7L591.5 219.4L601.2 218.2L610.8 216.9L620.5 215.7L630.2 214.5L639.9 213.2L649.5 211.8L659.2 210.2L668.9 208.4L678.6 206.3L688.2 203.8L697.9 200.9L707.6 197.6L717.2 194L717.2 281L707.6 284.6L697.9 287.9L688.2 290.9L678.6 293.8L668.9 296.3L659.2 298.7L649.5 300.9L639.9 303L630.2 304.9L620.5 306.7L610.8 308.2L601.2 309.5L591.5 310.5L581.8 311.3L572.2 311.9L562.5 312.4L552.8 312.8L543.1 313.3L533.5 313.8L523.8 314.3L514.1 314.8L504.4 315.3L494.8 315.8L485.1 316.2L475.4 316.6L465.8 317.1L456.1 317.8L446.4 318.7L436.7 319.7L427.1 320.9L417.4 322.1L407.7 323.3L398 324.3L388.4 325.1L378.7 325.5L369 325.5L359.4 324.9L349.7 323.8L340 322.2L330.3 320.2L320.7 318.1L311 315.8L301.3 313.5L291.7 311L282 308L272.3 304L262.6 298.8L253 292.3L243.3 285.1L233.6 277.5L223.9 270.6L214.3 264.9L204.6 261L194.9 259L185.3 258.6L175.6 259.3L165.9 260.8L156.2 262.4L146.6 263.7L136.9 264.5L127.2 264.5L117.5 263.8L107.9 262.3L98.2 259.9L88.5 258.5" fill="#3360a9" fill-opacity="0.7"></path><path class="Europe_0-area" stroke-linecap="round" d="M88.5 152.6L98.2 154.3L107.9 157.3L117.5 159.4L127.2 160.6L136.9 160.9L146.6 160.3L156.2 159.2L165.9 157.6L175.6 156L185.3 155L194.9 155L204.6 156.5L214.3 159.6L223.9 164.4L233.6 170.3L243.3 176.7L253 182.9L262.6 188.1L272.3 192.1L282 194.8L291.7 196.6L301.3 197.9L311 199L320.7 200L330.3 200.9L340 201.6L349.7 201.9L359.4 201.7L369 201L378.7 199.8L388.4 198.1L398 196.3L407.7 194.2L417.4 192L427.1 189.8L436.7 187.4L446.4 184.8L456.1 182.1L465.8 179.3L475.4 176.3L485.1 173.4L494.8 170.5L504.4 167.6L514.1 165L523.8 162.5L533.5 160.2L543.1 158L552.8 156L562.5 154.2L572.2 152.5L581.8 151L591.5 149.8L601.2 148.7L610.8 147.6L620.5 146.7L630.2 145.9L639.9 145L649.5 144.1L659.2 142.9L668.9 141.5L678.6 139.6L688.2 137.2L697.9 134.3L707.6 130.9L717.2 126.9L717.2 194L707.6 197.6L697.9 200.9L688.2 203.8L678.6 206.3L668.9 208.4L659.2 210.2L649.5 211.8L639.9 213.2L630.2 214.5L620.5 215.7L610.8 216.9L601.2 218.2L591.5 219.4L581.8 220.7L572.2 222.1L562.5 223.6L552.8 225.2L543.1 226.9L533.5 228.7L523.8 230.5L514.1 232.5L504.4 234.5L494.8 236.6L485.1 238.7L475.4 240.8L465.8 242.9L456.1 245.2L446.4 247.4L436.7 249.7L427.1 251.9L417.4 254L407.7 256L398 257.9L388.4 259.4L378.7 260.5L369 261.2L359.4 261.3L349.7 260.8L340 259.8L330.3 258.5L320.7 256.9L311 255.2L301.3 253.4L291.7 251.4L282 249L272.3 245.5L262.6 240.8L253 234.9L243.3 228.1L233.6 221.1L223.9 214.6L214.3 209.3L204.6 205.8L194.9 204.1L185.3 204L175.6 205.1L165.9 206.8L156.2 208.6L146.6 210.1L136.9 211L127.2 211.2L117.5 210.6L107.9 209.2L98.2 206.9L88.5 205.5" fill="#ffd53e" fill-opacity="0.7"></path><path class="Northern-America_0-area" stroke-linecap="round" d="M88.5 138.9L98.2 140.5L107.9 143.4L117.5 145.3L127.2 146.3L136.9 146.4L146.6 145.7L156.2 144.3L165.9 142.5L175.6 140.7L185.3 139.4L194.9 139.2L204.6 140.4L214.3 143.3L223.9 147.8L233.6 153.5L243.3 159.7L253 165.6L262.6 170.6L272.3 174.4L282 177.1L291.7 178.8L301.3 180L311 181.2L320.7 182.2L330.3 183.2L340 183.9L349.7 184.2L359.4 183.9L369 183.1L378.7 181.8L388.4 180L398 177.9L407.7 175.6L417.4 173.2L427.1 170.7L436.7 168.1L446.4 165.3L456.1 162.4L465.8 159.3L475.4 156.3L485.1 153.2L494.8 150.1L504.4 147.1L514.1 144.3L523.8 141.6L533.5 139.1L543.1 136.8L552.8 134.6L562.5 132.6L572.2 130.8L581.8 129.2L591.5 127.8L601.2 126.6L610.8 125.6L620.5 124.6L630.2 123.7L639.9 122.8L649.5 121.7L659.2 120.5L668.9 118.8L678.6 116.7L688.2 114.1L697.9 110.9L707.6 107.2L717.2 102.9L717.2 126.9L707.6 130.9L697.9 134.3L688.2 137.2L678.6 139.6L668.9 141.5L659.2 142.9L649.5 144.1L639.9 145L630.2 145.9L620.5 146.7L610.8 147.6L601.2 148.7L591.5 149.8L581.8 151L572.2 152.5L562.5 154.2L552.8 156L543.1 158L533.5 160.2L523.8 162.5L514.1 165L504.4 167.6L494.8 170.5L485.1 173.4L475.4 176.3L465.8 179.3L456.1 182.1L446.4 184.8L436.7 187.4L427.1 189.8L417.4 192L407.7 194.2L398 196.3L388.4 198.1L378.7 199.8L369 201L359.4 201.7L349.7 201.9L340 201.6L330.3 200.9L320.7 200L311 199L301.3 197.9L291.7 196.6L282 194.8L272.3 192.1L262.6 188.1L253 182.9L243.3 176.7L233.6 170.3L223.9 164.4L214.3 159.6L204.6 156.5L194.9 155L185.3 155L175.6 156L165.9 157.6L156.2 159.2L146.6 160.3L136.9 160.9L127.2 160.6L117.5 159.4L107.9 157.3L98.2 154.3L88.5 152.6" fill="#34983f" fill-opacity="0.7"></path><path class="Latin-America-and-the-Caribbean_0-area" stroke-linecap="round" d="M88.5 115.5L98.2 117.2L107.9 120.1L117.5 122L127.2 123L136.9 123.1L146.6 122.3L156.2 120.9L165.9 119L175.6 117.1L185.3 115.8L194.9 115.4L204.6 116.5L214.3 119.4L223.9 123.8L233.6 129.4L243.3 135.5L253 141.4L262.6 146.3L272.3 150.2L282 152.8L291.7 154.5L301.3 155.8L311 156.8L320.7 157.9L330.3 158.8L340 159.4L349.7 159.6L359.4 159.3L369 158.4L378.7 157L388.4 155.2L398 153.1L407.7 150.7L417.4 148.3L427.1 145.7L436.7 143.1L446.4 140.2L456.1 137.3L465.8 134.2L475.4 131L485.1 127.9L494.8 124.8L504.4 121.8L514.1 119L523.8 116.3L533.5 113.8L543.1 111.4L552.8 109.2L562.5 107.1L572.2 105.2L581.8 103.4L591.5 101.8L601.2 100.4L610.8 99.1L620.5 97.9L630.2 96.7L639.9 95.4L649.5 94L659.2 92.4L668.9 90.4L678.6 87.8L688.2 84.7L697.9 81.1L707.6 76.9L717.2 72.2L717.2 102.9L707.6 107.2L697.9 110.9L688.2 114.1L678.6 116.7L668.9 118.8L659.2 120.5L649.5 121.7L639.9 122.8L630.2 123.7L620.5 124.6L610.8 125.6L601.2 126.6L591.5 127.8L581.8 129.2L572.2 130.8L562.5 132.6L552.8 134.6L543.1 136.8L533.5 139.1L523.8 141.6L514.1 144.3L504.4 147.1L494.8 150.1L485.1 153.2L475.4 156.3L465.8 159.3L456.1 162.4L446.4 165.3L436.7 168.1L427.1 170.7L417.4 173.2L407.7 175.6L398 177.9L388.4 180L378.7 181.8L369 183.1L359.4 183.9L349.7 184.2L340 183.9L330.3 183.2L320.7 182.2L311 181.2L301.3 180L291.7 178.8L282 177.1L272.3 174.4L262.6 170.6L253 165.6L243.3 159.7L233.6 153.5L223.9 147.8L214.3 143.3L204.6 140.4L194.9 139.2L185.3 139.4L175.6 140.7L165.9 142.5L156.2 144.3L146.6 145.7L136.9 146.4L127.2 146.3L117.5 145.3L107.9 143.4L98.2 140.5L88.5 138.9" fill="#6bb537" fill-opacity="0.7"></path><path class="Oceania_0-area" stroke-linecap="round" d="M88.5 114.2L98.2 115.9L107.9 118.8L117.5 120.7L127.2 121.7L136.9 121.8L146.6 121L156.2 119.5L165.9 117.6L175.6 115.8L185.3 114.4L194.9 114L204.6 115.1L214.3 117.9L223.9 122.3L233.6 127.9L243.3 134L253 139.9L262.6 144.8L272.3 148.7L282 151.3L291.7 153L301.3 154.2L311 155.3L320.7 156.3L330.3 157.2L340 157.9L349.7 158.1L359.4 157.8L369 156.9L378.7 155.5L388.4 153.7L398 151.5L407.7 149.2L417.4 146.7L427.1 144.1L436.7 141.4L446.4 138.6L456.1 135.6L465.8 132.5L475.4 129.3L485.1 126.2L494.8 123.1L504.4 120.1L514.1 117.2L523.8 114.5L533.5 112L543.1 109.7L552.8 107.4L562.5 105.3L572.2 103.4L581.8 101.6L591.5 100L601.2 98.6L610.8 97.3L620.5 96L630.2 94.8L639.9 93.5L649.5 92.1L659.2 90.4L668.9 88.3L678.6 85.8L688.2 82.7L697.9 79L707.6 74.8L717.2 70L717.2 72.2L707.6 76.9L697.9 81.1L688.2 84.7L678.6 87.8L668.9 90.4L659.2 92.4L649.5 94L639.9 95.4L630.2 96.7L620.5 97.9L610.8 99.1L601.2 100.4L591.5 101.8L581.8 103.4L572.2 105.2L562.5 107.1L552.8 109.2L543.1 111.4L533.5 113.8L523.8 116.3L514.1 119L504.4 121.8L494.8 124.8L485.1 127.9L475.4 131L465.8 134.2L456.1 137.3L446.4 140.2L436.7 143.1L427.1 145.7L417.4 148.3L407.7 150.7L398 153.1L388.4 155.2L378.7 157L369 158.4L359.4 159.3L349.7 159.6L340 159.4L330.3 158.8L320.7 157.9L311 156.8L301.3 155.8L291.7 154.5L282 152.8L272.3 150.2L262.6 146.3L253 141.4L243.3 135.5L233.6 129.4L223.9 123.8L214.3 119.4L204.6 116.5L194.9 115.4L185.3 115.8L175.6 117.1L165.9 119L156.2 120.9L146.6 122.3L136.9 123.1L127.2 123L117.5 122L107.9 120.1L98.2 117.2L88.5 115.5" fill="#a652ba" fill-opacity="0.7"></path><path class="Asia_0-border" stroke-linecap="round" d="M88.5 258.5L98.2 259.9L107.9 262.3L117.5 263.8L127.2 264.5L136.9 264.5L146.6 263.7L156.2 262.4L165.9 260.8L175.6 259.3L185.3 258.6L194.9 259L204.6 261L214.3 264.9L223.9 270.6L233.6 277.5L243.3 285.1L253 292.3L262.6 298.8L272.3 304L282 308L291.7 311L301.3 313.5L311 315.8L320.7 318.1L330.3 320.2L340 322.2L349.7 323.8L359.4 324.9L369 325.5L378.7 325.5L388.4 325.1L398 324.3L407.7 323.3L417.4 322.1L427.1 320.9L436.7 319.7L446.4 318.7L456.1 317.8L465.8 317.1L475.4 316.6L485.1 316.2L494.8 315.8L504.4 315.3L514.1 314.8L523.8 314.3L533.5 313.8L543.1 313.3L552.8 312.8L562.5 312.4L572.2 311.9L581.8 311.3L591.5 310.5L601.2 309.5L610.8 308.2L620.5 306.7L630.2 304.9L639.9 303L649.5 300.9L659.2 298.7L668.9 296.3L678.6 293.8L688.2 290.9L697.9 287.9L707.6 284.6L717.2 281" stroke="rgb(123, 33, 44)" stroke-opacity="0.7" stroke-width="0.5" fill="none"></path><path class="Africa_0-border" stroke-linecap="round" d="M88.5 205.5L98.2 206.9L107.9 209.2L117.5 210.6L127.2 211.2L136.9 211L146.6 210.1L156.2 208.6L165.9 206.8L175.6 205.1L185.3 204L194.9 204.1L204.6 205.8L214.3 209.3L223.9 214.6L233.6 221.1L243.3 228.1L253 234.9L262.6 240.8L272.3 245.5L282 249L291.7 251.4L301.3 253.4L311 255.2L320.7 256.9L330.3 258.5L340 259.8L349.7 260.8L359.4 261.3L369 261.2L378.7 260.5L388.4 259.4L398 257.9L407.7 256L417.4 254L427.1 251.9L436.7 249.7L446.4 247.4L456.1 245.2L465.8 242.9L475.4 240.8L485.1 238.7L494.8 236.6L504.4 234.5L514.1 232.5L523.8 230.5L533.5 228.7L543.1 226.9L552.8 225.2L562.5 223.6L572.2 222.1L581.8 220.7L591.5 219.4L601.2 218.2L610.8 216.9L620.5 215.7L630.2 214.5L639.9 213.2L649.5 211.8L659.2 210.2L668.9 208.4L678.6 206.3L688.2 203.8L697.9 200.9L707.6 197.6L717.2 194" stroke="rgb(43, 80, 141)" stroke-opacity="0.7" stroke-width="0.5" fill="none"></path><path class="Europe_0-border" stroke-linecap="round" d="M88.5 152.6L98.2 154.3L107.9 157.3L117.5 159.4L127.2 160.6L136.9 160.9L146.6 160.3L156.2 159.2L165.9 157.6L175.6 156L185.3 155L194.9 155L204.6 156.5L214.3 159.6L223.9 164.4L233.6 170.3L243.3 176.7L253 182.9L262.6 188.1L272.3 192.1L282 194.8L291.7 196.6L301.3 197.9L311 199L320.7 200L330.3 200.9L340 201.6L349.7 201.9L359.4 201.7L369 201L378.7 199.8L388.4 198.1L398 196.3L407.7 194.2L417.4 192L427.1 189.8L436.7 187.4L446.4 184.8L456.1 182.1L465.8 179.3L475.4 176.3L485.1 173.4L494.8 170.5L504.4 167.6L514.1 165L523.8 162.5L533.5 160.2L543.1 158L552.8 156L562.5 154.2L572.2 152.5L581.8 151L591.5 149.8L601.2 148.7L610.8 147.6L620.5 146.7L630.2 145.9L639.9 145L649.5 144.1L659.2 142.9L668.9 141.5L678.6 139.6L688.2 137.2L697.9 134.3L707.6 130.9L717.2 126.9" stroke="rgb(213, 178, 52)" stroke-opacity="0.7" stroke-width="0.5" fill="none"></path><path class="Northern-America_0-border" stroke-linecap="round" d="M88.5 138.9L98.2 140.5L107.9 143.4L117.5 145.3L127.2 146.3L136.9 146.4L146.6 145.7L156.2 144.3L165.9 142.5L175.6 140.7L185.3 139.4L194.9 139.2L204.6 140.4L214.3 143.3L223.9 147.8L233.6 153.5L243.3 159.7L253 165.6L262.6 170.6L272.3 174.4L282 177.1L291.7 178.8L301.3 180L311 181.2L320.7 182.2L330.3 183.2L340 183.9L349.7 184.2L359.4 183.9L369 183.1L378.7 181.8L388.4 180L398 177.9L407.7 175.6L417.4 173.2L427.1 170.7L436.7 168.1L446.4 165.3L456.1 162.4L465.8 159.3L475.4 156.3L485.1 153.2L494.8 150.1L504.4 147.1L514.1 144.3L523.8 141.6L533.5 139.1L543.1 136.8L552.8 134.6L562.5 132.6L572.2 130.8L581.8 129.2L591.5 127.8L601.2 126.6L610.8 125.6L620.5 124.6L630.2 123.7L639.9 122.8L649.5 121.7L659.2 120.5L668.9 118.8L678.6 116.7L688.2 114.1L697.9 110.9L707.6 107.2L717.2 102.9" stroke="rgb(44, 127, 53)" stroke-opacity="0.7" stroke-width="0.5" fill="none"></path><path class="Latin-America-and-the-Caribbean_0-border" stroke-linecap="round" d="M88.5 115.5L98.2 117.2L107.9 120.1L117.5 122L127.2 123L136.9 123.1L146.6 122.3L156.2 120.9L165.9 119L175.6 117.1L185.3 115.8L194.9 115.4L204.6 116.5L214.3 119.4L223.9 123.8L233.6 129.4L243.3 135.5L253 141.4L262.6 146.3L272.3 150.2L282 152.8L291.7 154.5L301.3 155.8L311 156.8L320.7 157.9L330.3 158.8L340 159.4L349.7 159.6L359.4 159.3L369 158.4L378.7 157L388.4 155.2L398 153.1L407.7 150.7L417.4 148.3L427.1 145.7L436.7 143.1L446.4 140.2L456.1 137.3L465.8 134.2L475.4 131L485.1 127.9L494.8 124.8L504.4 121.8L514.1 119L523.8 116.3L533.5 113.8L543.1 111.4L552.8 109.2L562.5 107.1L572.2 105.2L581.8 103.4L591.5 101.8L601.2 100.4L610.8 99.1L620.5 97.9L630.2 96.7L639.9 95.4L649.5 94L659.2 92.4L668.9 90.4L678.6 87.8L688.2 84.7L697.9 81.1L707.6 76.9L717.2 72.2" stroke="rgb(90, 151, 46)" stroke-opacity="0.7" stroke-width="0.5" fill="none"></path><path class="Oceania_0-border" stroke-linecap="round" d="M88.5 114.2L98.2 115.9L107.9 118.8L117.5 120.7L127.2 121.7L136.9 121.8L146.6 121L156.2 119.5L165.9 117.6L175.6 115.8L185.3 114.4L194.9 114L204.6 115.1L214.3 117.9L223.9 122.3L233.6 127.9L243.3 134L253 139.9L262.6 144.8L272.3 148.7L282 151.3L291.7 153L301.3 154.2L311 155.3L320.7 156.3L330.3 157.2L340 157.9L349.7 158.1L359.4 157.8L369 156.9L378.7 155.5L388.4 153.7L398 151.5L407.7 149.2L417.4 146.7L427.1 144.1L436.7 141.4L446.4 138.6L456.1 135.6L465.8 132.5L475.4 129.3L485.1 126.2L494.8 123.1L504.4 120.1L514.1 117.2L523.8 114.5L533.5 112L543.1 109.7L552.8 107.4L562.5 105.3L572.2 103.4L581.8 101.6L591.5 100L601.2 98.6L610.8 97.3L620.5 96L630.2 94.8L639.9 93.5L649.5 92.1L659.2 90.4L668.9 88.3L678.6 85.8L688.2 82.7L697.9 79L707.6 74.8L717.2 70" stroke="rgb(139, 69, 156)" stroke-opacity="0.7" stroke-width="0.5" fill="none"></path></g></g></g><g class="SourcesFooter" style="fill:#777"><g class="clickable" style="fill:#777"><text font-size="12.60" x="15.0" y="581.6"><tspan x="15" y="581.58">Source: UN Population Division (2017 Revision)</tspan></text></g><text font-size="12.60" x="578.7" y="581.6"><tspan x="578.716" y="581.58"><a target='_blank' style='fill: #777;' href='https://ourworldindata.org/life-expectancy/'>OurWorldInData.org/life-expectancy/</a> • <a style="fill: #777;" class="cclogo" href="http://creativecommons.org/licenses/by/4.0/deed.en_US" target="_blank">CC BY</a></tspan></text></g></svg>