<svg xmlns="http://www.w3.org/2000/svg" version="1.1" style="font-family:Lato, &#x27;Helvetica Neue&#x27;, Helvetica, Arial, sans-serif;font-size:18px;background-color:white;text-rendering:optimizeLegibility;-webkit-font-smoothing:antialiased" width="850" height="600" viewBox="0 0 850 600"><g class="HeaderView"><g transform="translate(774, 15) scale(0.29)"><svg width="210" height="120" viewBox="0 0 210 120" fill="none" xmlns="http://www.w3.org/2000/svg">
<g clip-path="url(#clip0)">
  <path d="M0 0h210v107.89H0V0z" fill="#002147" />
  <path
    d="M40.98 32.25c0 2.36-.38 4.53-1.12 6.51a14.26 14.26 0 01-8.1 8.4c-1.9.78-4.02 1.17-6.34 1.17-2.31 0-4.42-.39-6.33-1.17a14.31 14.31 0 01-8.08-8.4 18.29 18.29 0 01-1.12-6.51c0-2.36.38-4.53 1.12-6.5.75-1.97 1.8-3.67 3.17-5.1 1.37-1.43 3-2.55 4.9-3.34 1.92-.8 4.03-1.19 6.34-1.19 2.32 0 4.43.4 6.34 1.19 1.92.8 3.56 1.9 4.93 3.34a14.87 14.87 0 013.17 5.1 18.1 18.1 0 011.12 6.5zm-4.38 0c0-1.94-.26-3.68-.8-5.22a10.91 10.91 0 00-2.24-3.89 9.68 9.68 0 00-3.52-2.46 11.95 11.95 0 00-4.62-.86c-1.68 0-3.21.28-4.6.86a9.88 9.88 0 00-3.54 2.46 10.91 10.91 0 00-2.24 3.9c-.53 1.53-.8 3.27-.8 5.2 0 1.94.27 3.68.8 5.22a11.17 11.17 0 002.24 3.9 10.01 10.01 0 003.55 2.44c1.38.56 2.9.83 4.6.83 1.7 0 3.24-.27 4.61-.83a9.8 9.8 0 003.52-2.44 11.17 11.17 0 002.25-3.9c.53-1.54.8-3.28.8-5.21zm26.22-6.54V48H60.5c-.56 0-.9-.27-1.05-.81l-.31-2.4a12.45 12.45 0 01-3.26 2.6c-1.2.64-2.58.96-4.13.96-1.22 0-2.3-.2-3.24-.6a6.52 6.52 0 01-2.33-1.7 7.37 7.37 0 01-1.43-2.67c-.3-1.04-.46-2.2-.46-3.45V25.7h3.91v14.22c0 1.68.38 2.99 1.15 3.91.77.93 1.96 1.39 3.54 1.39 1.16 0 2.24-.27 3.23-.82a10.42 10.42 0 002.8-2.28V25.7h3.91zm8.61 4.47a9.94 9.94 0 012.6-3.56 5.64 5.64 0 013.76-1.3c.47 0 .92.05 1.34.15.44.1.83.27 1.17.49L80 28.88c-.09.37-.3.55-.66.55-.2 0-.5-.04-.9-.13a6.21 6.21 0 00-3.24.18c-.54.2-1.03.5-1.47.92-.42.4-.81.9-1.17 1.5-.33.58-.64 1.26-.92 2.02V48h-3.94V25.71h2.25c.42 0 .72.08.88.25.16.16.27.44.33.83l.26 3.39zm61.16-13.7L122.75 48h-3.82l-7.99-24.05a21.95 21.95 0 01-.42-1.58 38.36 38.36 0 01-.44 1.58L102.05 48h-3.83L88.4 16.47h3.54c.38 0 .7.1.95.29.26.2.43.43.5.73l6.52 21.9c.1.4.2.83.28 1.28.1.46.2.94.29 1.46l.3-1.46c.12-.47.25-.9.38-1.27l7.41-21.91c.1-.25.26-.48.51-.69.27-.22.58-.33.95-.33h1.23c.38 0 .69.1.92.29.24.2.41.43.53.73l7.4 21.9a28.4 28.4 0 01.68 2.62 29.52 29.52 0 01.52-2.61l6.54-21.91c.07-.27.23-.5.48-.7.27-.21.58-.32.95-.32h3.32zm9.35 8.88c1.63 0 3.1.27 4.4.82a9.43 9.43 0 015.46 5.94c.5 1.4.74 2.98.74 4.73 0 1.76-.25 3.34-.74 4.75a9.43 9.43 0 01-5.46 5.92c-1.3.52-2.77.79-4.4.79-1.64 0-3.12-.27-4.44-.8a9.42 9.42 0 01-3.35-2.3c-.92-1-1.63-2.2-2.13-3.61-.49-1.41-.73-3-.73-4.75s.24-3.33.73-4.73c.5-1.43 1.2-2.64 2.13-3.63.93-1 2.04-1.77 3.35-2.31 1.32-.55 2.8-.82 4.44-.82zm0 19.89c2.2 0 3.84-.73 4.93-2.2 1.08-1.48 1.63-3.54 1.63-6.18 0-2.66-.55-4.72-1.63-6.2-1.09-1.49-2.73-2.23-4.93-2.23-1.12 0-2.09.2-2.93.57-.82.39-1.5.94-2.06 1.65-.55.72-.96 1.61-1.24 2.67-.26 1.04-.4 2.22-.4 3.54 0 2.64.55 4.7 1.64 6.18 1.1 1.47 2.76 2.2 4.99 2.2zm17.97-15.07a9.94 9.94 0 012.6-3.56 5.64 5.64 0 013.76-1.3c.47 0 .91.05 1.34.15.44.1.83.27 1.16.49l-.28 2.92c-.09.37-.31.55-.66.55-.2 0-.5-.04-.9-.13a6.2 6.2 0 00-3.24.18c-.54.2-1.03.5-1.47.92-.43.4-.82.9-1.17 1.5a13.1 13.1 0 00-.92 2.02V48h-3.94V25.71h2.24c.43 0 .72.08.88.25.17.16.28.44.33.83l.27 3.39zm15.04-14.59V48h-3.92V15.6h3.92zm19.55 15.43a6.22 6.22 0 00-2.38-2.05 6.7 6.7 0 00-2.86-.6c-2.07 0-3.66.75-4.77 2.23-1.12 1.48-1.68 3.6-1.68 6.33 0 1.46.13 2.7.38 3.74a7.29 7.29 0 001.1 2.56 4.35 4.35 0 001.78 1.45c.7.3 1.5.46 2.4.46 1.29 0 2.41-.3 3.36-.88a9.6 9.6 0 002.67-2.49V31.02zm3.91-15.43V48h-2.33c-.56 0-.9-.27-1.06-.81l-.35-2.71a12.13 12.13 0 01-3.25 2.77 8.28 8.28 0 01-4.23 1.06 7.31 7.31 0 01-6.14-2.9c-.73-.96-1.3-2.15-1.69-3.57a18.35 18.35 0 01.07-9.48 11.29 11.29 0 011.89-3.7 8.7 8.7 0 017.06-3.34 7.96 7.96 0 016.12 2.62V15.59h3.91zM46.61 70.71V93H42.7V70.71h3.91zm.84-7c0 .39-.08.75-.24 1.09-.15.32-.35.61-.62.88-.25.25-.55.44-.9.59a2.67 2.67 0 01-2.16 0 2.9 2.9 0 01-1.45-1.47 2.67 2.67 0 010-2.16c.15-.35.35-.65.6-.9.25-.27.53-.47.85-.62a2.67 2.67 0 012.16 0c.35.15.65.35.9.62.27.25.47.55.62.9.16.34.24.7.24 1.08zm7.97 10.24c.49-.54 1-1.04 1.54-1.48a9.85 9.85 0 013.66-1.84 8.96 8.96 0 015.43.35c.94.4 1.72.97 2.33 1.71.63.74 1.11 1.62 1.43 2.67.32 1.04.49 2.19.49 3.45V93h-3.94V78.81c0-1.69-.4-3-1.17-3.92-.76-.93-1.93-1.4-3.5-1.4-1.15 0-2.24.27-3.25.83-1 .56-1.92 1.31-2.77 2.27V93h-3.94V70.71h2.35c.56 0 .9.28 1.04.82l.3 2.42zm57.7 3.3c0 2.36-.37 4.5-1.11 6.44a14.3 14.3 0 01-3.17 4.98c-1.37 1.37-3 2.45-4.93 3.2-1.9.76-4.02 1.13-6.33 1.13H85.8V61.47h11.77c2.31 0 4.42.39 6.33 1.15a13.8 13.8 0 018.1 8.18 17.75 17.75 0 011.12 6.45zm-4.37 0c0-1.94-.26-3.67-.8-5.2a10.94 10.94 0 00-2.23-3.87 9.57 9.57 0 00-3.53-2.42 12.23 12.23 0 00-4.61-.83h-7.5v24.62h7.5c1.7 0 3.24-.28 4.61-.84a9.7 9.7 0 003.53-2.4 10.94 10.94 0 002.24-3.87c.53-1.53.8-3.26.8-5.2zm19.8 5.72c-1.8.06-3.34.2-4.62.44-1.26.22-2.3.51-3.1.88-.8.36-1.37.8-1.74 1.3-.35.5-.53 1.05-.53 1.67 0 .58.1 1.1.3 1.52a3 3 0 00.76 1.05c.34.27.73.46 1.17.6.45.11.94.17 1.45.17a7.28 7.28 0 003.5-.81 11.95 11.95 0 002.82-2.2v-4.62zm-12.65-9.11a12.73 12.73 0 013.98-2.66c1.43-.59 3-.88 4.73-.88 1.25 0 2.36.2 3.33.61a6.81 6.81 0 013.94 4.38c.33 1.04.5 2.19.5 3.43V93h-1.74a1.8 1.8 0 01-.88-.18c-.2-.13-.36-.38-.48-.74l-.44-2.12c-.59.55-1.16 1.03-1.72 1.46a9.48 9.48 0 01-3.74 1.7c-.69.15-1.46.23-2.3.23-.87 0-1.69-.12-2.45-.35a5.34 5.34 0 01-3.34-2.93 6.64 6.64 0 01-.49-2.64c0-.88.25-1.72.73-2.53a6.33 6.33 0 012.35-2.17c1.09-.63 2.5-1.15 4.25-1.54 1.75-.41 3.89-.65 6.42-.7v-1.75c0-1.73-.37-3.03-1.12-3.91-.75-.9-1.84-1.34-3.28-1.34-.97 0-1.78.12-2.44.37-.64.23-1.2.5-1.7.81l-1.23.82c-.33.23-.67.35-1 .35-.27 0-.5-.07-.69-.2a2.1 2.1 0 01-.48-.53l-.7-1.25zm27.67 19.5c-1.76 0-3.12-.5-4.07-1.48-.94-.98-1.41-2.4-1.41-4.25V74h-2.68a.9.9 0 01-.6-.2c-.16-.14-.24-.36-.24-.66v-1.56l3.65-.46.9-6.89c.05-.22.14-.4.29-.52a.88.88 0 01.62-.22H142v7.67h6.44V74h-6.44v13.38c0 .94.22 1.63.68 2.09.45.45 1.04.68 1.76.68a3.21 3.21 0 001.85-.53l.55-.35c.16-.12.3-.18.41-.18.2 0 .4.13.55.38l1.15 1.87a7.45 7.45 0 01-2.44 1.5c-.96.35-1.94.52-2.95.52zm19.68-10.4c-1.8.07-3.34.21-4.62.45-1.26.22-2.3.51-3.1.88-.8.36-1.37.8-1.74 1.3-.35.5-.53 1.05-.53 1.67 0 .58.1 1.1.3 1.52.18.42.44.77.76 1.05.34.27.73.46 1.17.6.45.11.94.17 1.45.17a7.3 7.3 0 003.5-.81 12.04 12.04 0 002.82-2.2v-4.62zm-12.65-9.1a12.72 12.72 0 013.99-2.66c1.42-.59 3-.88 4.72-.88 1.25 0 2.36.2 3.33.61a6.81 6.81 0 013.94 4.38c.33 1.04.5 2.19.5 3.43V93h-1.74a1.8 1.8 0 01-.88-.18c-.2-.13-.36-.38-.48-.74l-.44-2.12c-.59.55-1.16 1.03-1.72 1.46a9.48 9.48 0 01-3.74 1.7c-.69.15-1.46.23-2.3.23-.87 0-1.69-.12-2.45-.35a5.33 5.33 0 01-3.34-2.93 6.62 6.62 0 01-.49-2.64c0-.88.25-1.72.73-2.53a6.33 6.33 0 012.35-2.17c1.09-.63 2.5-1.15 4.25-1.54 1.74-.41 3.89-.65 6.42-.7v-1.75c0-1.73-.37-3.03-1.12-3.91-.75-.9-1.84-1.34-3.28-1.34-.97 0-1.78.12-2.44.37-.64.23-1.2.5-1.7.81-.46.3-.87.57-1.22.82-.34.23-.68.35-1.02.35-.26 0-.49-.07-.68-.2-.19-.14-.35-.32-.48-.53l-.7-1.25z"
    fill="#fff"
  />
  <path fill="#D42B21" d="M0 106.79h210V120H0z" />
</g>
<defs>
  <clipPath id="clip0"><path fill="#fff" d="M0 0h210v120H0z" /></clipPath>
</defs>
</svg></g><a href="http://localhost:3099/grapher/crop-production-in-england-over-the-long-term-million-tonnes" style="font-family:&quot;Playfair Display&quot;, Georgia, &quot;Times New Roman&quot;, serif" target="_blank"><text font-size="25.20" x="15.0" y="35.2" fill="#555"><tspan x="15" y="35.160000000000004">Crop production in England over the long-term, million tonnes</tspan></text></a><text font-size="14.40" x="15.0" y="55.7" fill="#666"><tspan x="15" y="55.72">Total agricultural output of arable crops in England from 1270-1870, measured in million tonnes per year.</tspan></text></g><g class="LineChart"><defs><clipPath id="boundsClip-754"><rect x="32.68" y="0" width="830" height="955.8"></rect></clipPath></defs><g class="AxisBoxView"><g class="HorizontalAxis"><line x1="42.7" y1="535.3" x2="42.7" y2="539.3" stroke="#ccc"></line><line x1="195.2" y1="535.3" x2="195.2" y2="539.3" stroke="#ccc"></line><line x1="312.4" y1="535.3" x2="312.4" y2="539.3" stroke="#ccc"></line><line x1="429.7" y1="535.3" x2="429.7" y2="539.3" stroke="#ccc"></line><line x1="547" y1="535.3" x2="547" y2="539.3" stroke="#ccc"></line><line x1="664.3" y1="535.3" x2="664.3" y2="539.3" stroke="#ccc"></line><line x1="746.4" y1="535.3" x2="746.4" y2="539.3" stroke="#ccc"></line><text x="42.7" y="556.5" fill="#666" text-anchor="middle" font-size="16.2">1270</text><text x="195.2" y="556.5" fill="#666" text-anchor="middle" font-size="16.2">1400</text><text x="312.4" y="556.5" fill="#666" text-anchor="middle" font-size="16.2">1500</text><text x="429.7" y="556.5" fill="#666" text-anchor="middle" font-size="16.2">1600</text><text x="547" y="556.5" fill="#666" text-anchor="middle" font-size="16.2">1700</text><text x="664.3" y="556.5" fill="#666" text-anchor="middle" font-size="16.2">1800</text><text x="746.4" y="556.5" fill="#666" text-anchor="middle" font-size="16.2">1870</text></g><g class="VerticalAxis"><text x="37.68" y="535.3" fill="#666" dominant-baseline="middle" text-anchor="end" font-size="16.2">0</text><text x="37.68" y="462.5" fill="#666" dominant-baseline="middle" text-anchor="end" font-size="16.2">0.5</text><text x="37.68" y="389.7" fill="#666" dominant-baseline="middle" text-anchor="end" font-size="16.2">1</text><text x="37.68" y="316.9" fill="#666" dominant-baseline="middle" text-anchor="end" font-size="16.2">1.5</text><text x="37.68" y="244.2" fill="#666" dominant-baseline="middle" text-anchor="end" font-size="16.2">2</text><text x="37.68" y="171.4" fill="#666" dominant-baseline="middle" text-anchor="end" font-size="16.2">2.5</text><text x="37.68" y="98.6" fill="#666" dominant-baseline="middle" text-anchor="end" font-size="16.2">3</text></g><g class="AxisGridLines horizontalLines"><line x1="42.68" y1="535.3" x2="746.40" y2="535.3" stroke="#ccc"></line><line x1="42.68" y1="462.5" x2="746.40" y2="462.5" stroke="#ddd" stroke-dasharray="3,2"></line><line x1="42.68" y1="389.7" x2="746.40" y2="389.7" stroke="#ddd" stroke-dasharray="3,2"></line><line x1="42.68" y1="316.9" x2="746.40" y2="316.9" stroke="#ddd" stroke-dasharray="3,2"></line><line x1="42.68" y1="244.2" x2="746.40" y2="244.2" stroke="#ddd" stroke-dasharray="3,2"></line><line x1="42.68" y1="171.4" x2="746.40" y2="171.4" stroke="#ddd" stroke-dasharray="3,2"></line><line x1="42.68" y1="98.6" x2="746.40" y2="98.6" stroke="#ddd" stroke-dasharray="3,2"></line></g></g><g clip-path="url(#boundsClip-754)"><g class="HeightedLegend" style="cursor:default"><g class="legendMark"><rect x="746.405" y="120.85" width="74.15" height="13.5" fill="#fff" opacity="0"></rect><text font-size="13.50" x="750.4" y="131.7" fill="#883039"><tspan x="750.405" y="131.65">Wheat</tspan></text></g><g class="legendMark"><rect x="746.405" y="340.45" width="88.595" height="13.5" fill="#fff" opacity="0"></rect><text font-size="13.50" x="750.4" y="351.3" fill="#CF0A66"><tspan x="750.405" y="351.25">Potatoes</tspan></text></g><g class="legendMark"><rect x="746.405" y="383.75" width="73.34" height="13.5" fill="#fff" opacity="0"></rect><text font-size="13.50" x="750.4" y="394.6" fill="#6D3E91"><tspan x="750.405" y="394.55">Barley</tspan></text></g><g class="legendMark"><rect x="746.405" y="481.9" width="63.620000000000005" height="13.5" fill="#fff" opacity="0"></rect><text font-size="13.50" x="750.4" y="492.7" fill="#00847E"><tspan x="750.405" y="492.7">Oats</tspan></text></g><g class="legendMark"><rect x="746.405" y="497.4" width="75.635" height="13.5" fill="#fff" opacity="0"></rect><text font-size="13.50" x="750.4" y="508.2" fill="#B13507"><tspan x="750.405" y="508.2">Pulses</tspan></text></g><g class="legendMark"><rect x="746.405" y="521.8" width="59.03" height="13.5" fill="#fff" opacity="0"></rect><text font-size="13.50" x="750.4" y="532.6" fill="#3C4E66"><tspan x="750.405" y="532.5999999999999">Rye</tspan></text></g></g><g class="Lines"><rect x="43" y="79" width="704" height="457" fill="rgba(255,255,255,0)" opacity="0"></rect><g class="key-England_0"><path stroke="#883039" stroke-linecap="round" d="M43 470L44 476L45 449L46 474L47 479L49 435L50 474L51 449L52 426L53 473L54 469L56 462L57 459L58 482L59 461L60 458L61 458L63 429L64 438L65 461L66 463L67 453L69 454L70 461L71 463L72 447L73 436L74 442L76 425L77 448L78 456L79 447L80 453L81 438L83 476L84 452L85 452L86 451L87 457L88 442L90 466L91 437L92 446L93 438L94 446L96 486L97 496L98 471L99 430L100 437L101 445L103 480L104 470L105 467L106 475L107 441L108 435L110 455L111 472L112 458L113 456L114 464L115 449L117 431L118 445L119 461L120 456L121 437L122 442L124 497L125 450L126 473L127 456L128 470L130 441L131 449L132 477L133 471L134 460L135 502L137 499L138 495L139 467L140 489L141 493L142 482L144 493L145 492L146 482L147 485L148 485L149 485L151 493L152 504L153 473L154 484L155 472L156 497L158 483L159 501L160 485L161 486L162 503L164 479L165 495L166 503L167 468L168 466L169 476L171 495L172 488L173 481L174 475L175 484L176 463L178 487L179 468L180 465L181 492L182 483L183 509L185 480L186 450L187 498L188 465L189 489L191 490L192 489L193 479L194 494L195 505L196 504L198 500L199 487L200 483L201 478L202 499L203 488L205 502L206 497L207 484L208 490L209 499L210 503L212 497L213 500L214 509L215 485L216 505L217 501L219 502L220 517L221 508L222 498L223 489L225 497L226 496L227 504L228 520L229 509L230 500L232 506L233 511L234 509L235 505L236 513L237 505L239 518L240 521L241 514L242 502L243 518L244 519L246 492L247 477L248 513L249 511L250 489L252 512L253 507L254 510L255 506L256 504L257 503L259 497L260 498L261 499L262 519L263 506L264 506L266 507L267 510L268 485L269 475L270 486L271 498L273 510L274 499L275 498L276 488L277 501L278 514L280 519L281 501L282 508L283 501L284 521L286 521L287 505L288 500L289 480L290 498L291 515L293 509L294 507L295 512L296 490L297 500L298 499L300 497L301 507L302 498L303 498L304 498L372 480L373 502L375 445L376 462L377 469L378 497L379 476L381 428L382 449L383 482L384 472L385 466L386 423L388 460L389 448L390 434L391 430L392 444L393 440L395 463L396 482L397 495L398 457L399 500L400 462L402 438L403 506L404 453L405 444L406 468L407 472L409 477L410 445L411 432L412 478L413 498L415 455L416 432L417 469L418 445L419 468L420 464L422 454L423 503L424 487L425 503L426 505L427 489L429 456L430 451L431 470L432 444L433 437L434 446L436 455L437 445L438 471L439 478L440 436L442 392L443 451L444 406L445 443L446 454L447 435L449 468L450 432L451 439L452 460L453 379L454 437L456 465L457 465L458 424L459 420L460 430L461 425L463 359L464 456L465 457L466 457L467 408L468 450L470 421L471 396L472 421L473 401L474 398L476 400L477 386L478 449L479 434L480 451L481 425L483 447L484 455L485 440L486 431L487 475L488 483L490 461L491 438L492 402L493 389L494 374L495 405L497 437L498 465L499 455L500 440L501 449L502 436L504 444L505 435L506 422L507 396L508 384L510 445L511 415L512 420L513 433L514 454L515 447L517 477L518 462L519 396L520 435L521 408L522 430L524 366L525 421L526 408L527 401L528 442L529 398L531 453L532 371L533 417L534 436L535 411L537 427L538 374L539 464L540 351L541 412L542 434L544 421L545 439L546 441L547 402L548 425L549 436L551 446L552 380L553 377L554 422L555 403L556 466L558 488L559 459L560 412L561 421L562 467L563 401L565 449L566 439L567 427L568 396L569 421L571 379L572 391L573 424L574 401L575 422L576 406L578 462L579 438L580 397L581 414L582 436L583 433L585 375L586 372L587 419L588 464L589 343L590 350L592 415L593 401L594 436L595 399L596 366L597 406L599 441L600 444L601 415L602 360L603 430L605 410L606 415L607 451L608 420L609 434L610 428L612 422L613 417L614 376L615 362L616 380L617 386L619 357L620 383L621 377L622 373L623 349L624 427L626 375L627 366L628 334L629 371L630 381L632 415L633 351L634 377L635 347L636 373L637 339L639 367L640 362L641 339L642 292L643 347L644 375L646 346L647 345L648 318L649 391L650 362L651 385L653 366L654 345L655 354L656 324L657 404L658 364L660 353L661 336L662 333L663 375L664 412L666 328L667 340L668 355L669 407L670 357L671 312L673 297L674 353L675 358L676 365L677 400L678 376L680 308L681 399L682 342L683 360L684 303L685 331L687 389L688 272L689 312L690 320L691 322L693 310L694 272L695 317L696 292L697 395L698 374L700 348L701 338L702 295L703 310L704 296L705 235L707 226L708 211L709 262L710 307L711 228L712 297L714 228L715 223L716 97L717 188L718 191L719 166L721 210L722 183L723 269L724 273L725 222L727 367L728 166L729 264L730 236L731 232L732 182L734 223L735 416L736 358L737 400L738 80L739 148L741 247L742 211L743 183L744 79L745 109L746 128" fill="none" stroke-width="1.5"></path></g><g class="key-England_1"><path stroke="#CF0A66" stroke-linecap="round" d="M547 535L548 534L549 535L551 531L552 531L553 532L554 526L555 527L556 528L558 528L559 523L560 523L561 528L562 528L563 523L565 522L566 520L567 520L568 516L569 514L571 515L572 516L573 515L574 514L575 513L576 512L578 509L579 507L580 511L581 517L582 521L583 521L585 523L586 520L587 515L588 512L589 509L590 507L592 506L593 504L594 502L595 501L596 505L597 505L599 503L600 500L601 498L602 496L603 495L605 493L606 491L607 490L608 490L609 489L610 488L612 487L613 487L614 486L615 486L616 485L617 485L619 484L620 484L621 484L622 483L623 482L624 482L626 482L627 481L628 481L629 480L630 479L632 478L633 477L634 477L635 475L636 474L637 473L639 472L640 471L641 471L642 470L643 469L644 468L646 468L647 467L648 466L649 465L650 464L651 462L653 461L654 460L655 458L656 457L657 455L658 454L660 453L661 452L662 450L663 449L664 447L666 446L667 446L668 445L669 443L670 442L671 440L673 439L674 437L675 436L676 435L677 433L678 432L680 430L681 428L682 426L683 424L684 422L685 421L687 419L688 417L689 415L690 413L691 411L693 409L694 407L695 405L696 403L697 401L698 399L700 398L701 396L702 394L703 392L704 390L705 388L707 387L708 386L709 386L710 386L711 385L712 385L714 384L715 384L716 383L717 383L718 383L719 382L721 382L722 381L723 381L724 381L725 380L727 380L728 379L729 379L730 378L731 378L732 377L734 377L735 376L736 375L737 375L738 374L739 374L741 373L742 372L743 383L744 364L745 348L746 347" fill="none" stroke-width="1.5"></path></g><g class="key-England_2"><path stroke="#6D3E91" stroke-linecap="round" d="M43 491L44 484L45 488L46 490L47 494L49 469L50 497L51 488L52 482L53 513L54 504L56 485L57 496L58 495L59 492L60 496L61 491L63 484L64 486L65 497L66 503L67 514L69 502L70 496L71 496L72 484L73 495L74 500L76 491L77 487L78 489L79 486L80 483L81 484L83 487L84 493L85 500L86 490L87 484L88 485L90 476L91 487L92 481L93 480L94 486L96 493L97 500L98 500L99 491L100 485L101 483L103 500L104 493L105 481L106 493L107 486L108 486L110 485L111 491L112 484L113 491L114 500L115 491L117 488L118 499L119 493L120 490L121 482L122 473L124 484L125 489L126 490L127 481L128 486L130 480L131 495L132 495L133 484L134 485L135 507L137 505L138 504L139 515L140 500L141 500L142 488L144 497L145 498L146 503L147 496L148 499L149 512L151 501L152 488L153 489L154 497L155 489L156 488L158 508L159 506L160 478L161 485L162 483L164 474L165 488L166 487L167 481L168 478L169 473L171 481L172 484L173 486L174 484L175 502L176 480L178 501L179 486L180 485L181 487L182 491L183 487L185 482L186 468L187 492L188 500L189 496L191 497L192 507L193 491L194 489L195 491L196 497L198 486L199 494L200 494L201 495L202 492L203 501L205 507L206 497L207 491L208 499L209 491L210 512L212 500L213 501L214 506L215 494L216 491L217 491L219 487L220 502L221 497L222 492L223 500L225 496L226 503L227 492L228 494L229 501L230 495L232 506L233 509L234 493L235 477L236 495L237 510L239 505L240 504L241 499L242 499L243 512L244 514L246 486L247 499L248 517L249 495L250 507L252 499L253 512L254 504L255 505L256 506L257 508L259 503L260 503L261 504L262 504L263 507L264 502L266 497L267 495L268 482L269 483L270 515L271 513L273 508L274 504L275 492L276 509L277 503L278 505L280 485L281 515L282 488L283 506L284 519L286 507L287 511L288 487L289 510L290 508L291 505L293 491L294 504L295 513L296 508L297 509L298 506L300 503L301 492L302 495L303 505L304 505L370 505L371 505L372 495L373 486L375 484L376 508L377 497L378 517L379 517L381 470L382 499L383 499L384 501L385 491L386 504L388 483L389 481L390 462L391 496L392 463L393 487L395 507L396 472L397 479L398 471L399 498L400 492L402 493L403 501L404 481L405 483L406 474L407 478L409 476L410 455L411 481L412 482L413 503L415 478L416 467L417 490L418 495L419 505L420 473L422 455L423 496L424 497L425 503L426 516L427 485L429 451L430 491L431 480L432 487L433 455L434 424L436 485L437 503L438 478L439 500L440 461L442 466L443 426L444 461L445 480L446 485L447 455L449 457L450 449L451 451L452 431L453 438L454 387L456 433L457 470L458 415L459 403L460 444L461 429L463 421L464 474L465 492L466 485L467 471L468 467L470 445L471 455L472 452L473 489L474 467L476 453L477 435L478 463L479 413L480 334L481 337L483 425L484 424L485 445L486 455L487 443L488 508L490 485L491 412L492 365L493 437L494 416L495 414L497 412L498 413L499 487L500 448L501 469L502 463L504 423L505 460L506 448L507 405L508 417L510 459L511 433L512 449L513 427L514 462L515 454L517 441L518 473L519 409L520 457L521 443L522 452L524 413L525 464L526 463L527 415L528 444L529 439L531 485L532 467L533 434L534 447L535 428L537 362L538 403L539 453L540 414L541 423L542 450L544 448L545 414L546 474L547 485L548 424L549 351L551 390L552 395L553 427L554 456L555 437L556 456L558 416L559 468L560 446L561 385L562 447L563 448L565 447L566 438L567 430L568 368L569 414L571 356L572 380L573 387L574 437L575 440L576 434L578 461L579 423L580 422L581 413L582 413L583 441L585 402L586 419L587 426L588 405L589 417L590 410L592 410L593 421L594 387L595 430L596 439L597 408L599 411L600 409L601 408L602 381L603 415L605 421L606 438L607 436L608 392L609 384L610 421L612 401L613 435L614 399L615 399L616 390L617 377L619 378L620 440L621 374L622 380L623 464L624 425L626 383L627 384L628 368L629 393L630 361L632 419L633 401L634 399L635 426L636 391L637 400L639 387L640 388L641 388L642 382L643 401L644 377L646 365L647 450L648 427L649 426L650 466L651 433L653 403L654 406L655 413L656 451L657 443L658 399L660 424L661 424L662 402L663 432L664 429L666 393L667 391L668 402L669 397L670 386L671 415L673 414L674 407L675 368L676 378L677 403L678 451L680 351L681 346L682 362L683 383L684 405L685 450L687 397L688 334L689 316L690 398L691 397L693 385L694 402L695 419L696 353L697 384L698 370L700 384L701 327L702 325L703 341L704 367L705 327L707 357L708 356L709 320L710 306L711 312L712 336L714 312L715 336L716 387L717 325L718 356L719 303L721 339L722 345L723 364L724 337L725 334L727 369L728 293L729 293L730 316L731 390L732 395L734 417L735 422L736 361L737 395L738 335L739 284L741 331L742 348L743 377L744 386L745 341L746 391" fill="none" stroke-width="1.5"></path></g><g class="key-England_3"><path stroke="#00847E" stroke-linecap="round" d="M43 484L44 487L45 494L46 488L47 489L49 492L50 489L51 483L52 491L53 499L54 491L56 491L57 487L58 488L59 492L60 486L61 494L63 493L64 488L65 491L66 480L67 493L69 494L70 483L71 492L72 491L73 481L74 489L76 484L77 489L78 489L79 490L80 490L81 497L83 495L84 498L85 502L86 489L87 483L88 492L90 487L91 491L92 500L93 498L94 491L96 492L97 498L98 499L99 497L100 494L101 491L103 508L104 498L105 494L106 509L107 499L108 499L110 491L111 503L112 498L113 500L114 504L115 496L117 504L118 496L119 496L120 497L121 499L122 489L124 507L125 504L126 493L127 490L128 498L130 494L131 511L132 498L133 490L134 492L135 518L137 518L138 510L139 523L140 517L141 515L142 512L144 520L145 511L146 513L147 512L148 511L149 514L151 512L152 511L153 515L154 514L155 513L156 513L158 518L159 514L160 508L161 507L162 513L164 511L165 510L166 514L167 512L168 508L169 513L171 515L172 513L173 510L174 513L175 512L176 516L178 512L179 513L180 513L181 513L182 518L183 519L185 514L186 514L187 517L188 520L189 514L191 516L192 522L193 513L194 517L195 514L196 519L198 514L199 520L200 518L201 515L202 519L203 522L205 526L206 522L207 515L208 516L209 522L210 525L212 516L213 521L214 521L215 525L216 519L217 508L219 519L220 524L221 521L222 516L223 513L225 518L226 519L227 523L228 505L229 513L230 518L232 506L233 495L234 505L235 519L236 516L237 524L239 529L240 518L241 515L242 511L243 525L244 523L246 504L247 505L248 507L249 504L250 524L252 486L253 524L254 515L255 515L256 513L257 508L259 523L260 519L261 514L262 524L263 513L264 517L266 520L267 514L268 520L269 531L270 522L271 521L273 519L274 529L275 518L276 520L277 522L278 527L280 526L281 524L282 514L283 520L284 504L286 505L287 517L288 523L289 518L290 515L291 512L293 526L294 517L295 525L296 504L297 517L298 517L300 517L301 519L302 530L303 523L304 523L305 519L307 514L375 516L376 517L377 515L378 529L379 516L381 515L382 511L383 514L384 495L385 526L386 528L388 508L389 523L390 517L391 510L392 517L393 515L395 518L396 525L397 525L398 519L399 519L400 515L402 524L403 513L404 516L405 511L406 520L407 496L409 526L410 487L411 513L412 514L413 514L415 521L416 513L417 524L418 512L419 519L420 527L422 516L423 517L424 526L425 525L426 529L427 524L429 516L430 520L431 520L432 518L433 507L434 516L436 517L437 522L438 516L439 511L440 518L442 501L443 521L444 521L445 518L446 515L447 517L449 524L450 514L451 511L452 514L453 514L454 496L456 512L457 512L458 512L459 504L460 511L461 494L463 511L464 518L465 518L466 518L467 520L468 509L470 516L471 518L472 525L473 521L474 522L476 512L477 516L478 521L479 517L480 516L481 528L483 515L484 519L485 527L486 520L487 519L488 517L490 530L491 528L492 522L493 519L494 515L495 518L497 521L498 525L499 528L500 522L501 522L502 523L504 523L505 523L506 524L507 515L508 519L510 521L511 527L512 524L513 523L514 519L515 525L517 529L518 518L519 522L520 521L521 523L522 520L524 516L525 525L526 529L527 519L528 525L529 527L531 523L532 522L533 527L534 524L535 530L537 517L538 525L539 516L540 520L541 527L542 522L544 526L545 526L546 528L547 527L548 528L549 525L551 524L552 515L553 520L554 520L555 523L556 528L558 526L559 528L560 519L561 527L562 517L563 518L565 522L566 522L567 518L568 524L569 530L571 507L572 514L573 523L574 523L575 514L576 506L578 505L579 513L580 514L581 513L582 512L583 527L585 519L586 521L587 512L588 507L589 517L590 512L592 522L593 511L594 506L595 513L596 522L597 504L599 508L600 498L601 497L602 512L603 498L605 502L606 518L607 504L608 495L609 504L610 497L612 507L613 507L614 494L615 484L616 506L617 489L619 496L620 515L621 515L622 498L623 513L624 508L626 507L627 503L628 507L629 512L630 505L632 514L633 511L634 509L635 510L636 496L637 505L639 506L640 496L641 495L642 500L643 509L644 504L646 505L647 502L648 501L649 512L650 515L651 503L653 501L654 508L655 491L656 522L657 527L658 493L660 472L661 498L662 488L663 508L664 499L666 484L667 489L668 510L669 511L670 511L671 513L673 507L674 512L675 502L676 499L677 508L678 504L680 505L681 503L682 505L683 510L684 511L685 514L687 503L688 506L689 503L690 511L691 502L693 512L694 516L695 532L696 529L697 506L698 511L700 507L701 506L702 496L703 503L704 508L705 501L707 498L708 503L709 499L710 503L711 491L712 491L714 503L715 483L716 498L717 491L718 507L719 521L721 510L722 496L723 494L724 489L725 498L727 514L728 496L729 489L730 489L731 518L732 506L734 504L735 519L736 500L737 501L738 487L739 496L741 509L742 495L743 502L744 510L745 493L746 494" fill="none" stroke-width="1.5"></path></g><g class="key-England_4"><path stroke="#B13507" stroke-linecap="round" d="M43 534L44 534L45 535L46 535L47 533L49 530L50 534L51 534L52 533L53 535L54 533L56 533L57 532L58 534L59 532L60 529L61 532L63 532L64 531L65 527L66 531L67 534L69 528L70 531L71 530L72 533L73 531L74 533L76 529L77 529L78 528L79 529L80 531L81 530L83 528L84 532L85 531L86 527L87 531L88 529L90 526L91 532L92 528L93 529L94 530L96 533L97 533L98 532L99 531L100 531L101 530L103 532L104 533L105 530L106 531L107 532L108 534L110 532L111 534L112 530L113 532L114 534L115 532L117 534L118 533L119 531L120 534L121 531L122 531L124 531L125 531L126 530L127 532L128 529L130 530L131 531L132 532L133 532L134 533L135 535L137 534L138 535L139 535L140 532L141 530L142 527L144 534L145 530L146 530L147 529L148 533L149 532L151 531L152 531L153 528L154 532L155 531L156 531L158 532L159 532L160 531L161 528L162 530L164 529L165 531L166 532L167 528L168 533L169 531L171 531L172 531L173 532L174 528L175 533L176 530L178 532L179 529L180 530L181 531L182 530L183 533L185 529L186 529L187 529L188 525L189 527L191 527L192 527L193 528L194 530L195 532L196 531L198 532L199 531L200 532L201 533L202 530L203 532L205 531L206 530L207 533L208 529L209 527L210 531L212 533L213 532L214 531L215 532L216 531L217 535L219 534L220 534L221 531L222 532L223 532L225 532L226 532L227 531L228 532L229 530L230 532L232 533L233 531L234 533L235 531L236 534L237 534L239 534L240 532L241 533L242 534L243 535L244 535L246 534L247 534L248 532L249 533L250 534L252 534L253 533L254 532L255 532L256 533L257 534L259 535L260 532L261 530L262 532L263 531L264 530L266 529L267 529L268 531L269 534L270 534L271 535L273 535L274 534L275 533L276 534L277 535L278 530L280 531L281 529L282 533L283 532L284 534L286 532L287 535L288 532L289 532L290 532L291 533L293 535L294 535L295 533L296 531L297 534L298 534L300 534L301 533L302 531L303 531L373 527L375 526L376 529L377 527L378 532L379 533L381 528L382 526L383 528L384 530L385 528L386 528L388 524L389 518L390 521L391 526L392 521L393 525L395 527L396 520L397 521L398 525L399 528L400 526L402 529L403 527L404 521L405 524L406 522L407 519L409 516L410 514L411 521L412 522L413 525L415 521L416 524L417 523L418 524L419 531L420 522L422 517L423 519L424 522L425 528L426 528L427 526L429 518L430 518L431 525L432 516L433 527L434 503L436 521L437 516L438 521L439 531L440 515L442 514L443 518L444 515L445 519L446 524L447 509L449 510L450 509L451 492L452 510L453 510L454 510L456 520L457 519L458 514L459 521L460 508L461 511L463 503L464 522L465 507L466 516L467 491L468 510L470 515L471 515L472 513L473 518L474 530L476 496L477 515L478 520L479 519L480 525L481 521L483 527L484 509L485 519L486 520L487 521L488 507L490 511L491 510L492 507L493 504L494 500L495 508L497 515L498 522L499 522L500 521L501 513L502 508L504 512L505 521L506 522L507 496L508 506L510 507L511 504L512 507L513 518L514 503L515 513L517 503L518 506L519 506L520 516L521 496L522 509L524 512L525 516L526 505L527 496L528 503L529 514L531 471L532 496L533 497L534 495L535 496L537 514L538 498L539 519L540 520L541 510L542 501L544 516L545 508L546 522L547 522L548 492L549 508L551 511L552 493L553 494L554 518L555 504L556 494L558 489L559 513L560 509L561 513L562 497L563 516L565 505L566 512L567 514L568 513L569 524L571 498L572 469L573 485L574 499L575 486L576 514L578 470L579 515L580 490L581 468L582 482L583 478L585 489L586 498L587 463L588 478L589 504L590 504L592 445L593 484L594 484L595 479L596 458L597 487L599 501L600 480L601 501L602 486L603 485L605 515L606 499L607 484L608 506L609 514L610 511L612 508L613 506L614 492L615 486L616 490L617 491L619 480L620 487L621 483L622 480L623 475L624 504L626 496L627 496L628 476L629 508L630 487L632 498L633 476L634 476L635 494L636 496L637 490L639 501L640 503L641 486L642 467L643 480L644 494L646 499L647 512L648 507L649 502L650 519L651 512L653 484L654 512L655 514L656 509L657 528L658 495L660 471L661 471L662 503L663 503L664 480L666 470L667 491L668 501L669 485L670 467L671 514L673 504L674 505L675 498L676 494L677 501L678 514L680 473L681 499L682 491L683 484L684 501L685 517L687 513L688 492L689 492L690 517L691 510L693 517L694 509L695 520L696 509L697 505L698 506L700 504L701 495L702 499L703 518L704 518L705 481L707 494L708 500L709 490L710 494L711 484L712 492L714 471L715 492L716 486L717 496L718 504L719 510L721 500L722 492L723 498L724 493L725 496L727 504L728 503L729 495L730 476L731 494L732 508L734 507L735 497L736 494L737 477L738 492L739 497L741 493L742 482L743 477L744 504L745 484L746 499" fill="none" stroke-width="1.5"></path></g><g class="key-England_5"><path stroke="#3C4E66" stroke-linecap="round" d="M43 509L44 503L45 503L46 518L47 508L49 509L50 493L51 498L52 486L53 497L54 513L56 488L57 515L58 516L59 516L60 506L61 516L63 498L64 510L65 513L66 515L67 515L69 509L70 519L71 515L72 520L73 509L74 518L76 508L77 518L78 514L79 514L80 510L81 511L83 514L84 510L85 515L86 514L87 514L88 517L90 509L91 512L92 515L93 512L94 512L96 528L97 522L98 527L99 520L100 509L101 522L103 520L104 521L105 510L106 517L107 518L108 510L110 507L111 517L112 520L113 515L114 515L115 517L117 514L118 516L119 519L120 513L121 505L122 516L124 515L125 509L126 509L127 519L128 509L130 507L131 504L132 524L133 520L134 507L135 526L137 524L138 526L139 522L140 522L141 524L142 525L144 527L145 531L146 528L147 524L148 522L149 525L151 526L152 525L153 524L154 526L155 526L156 530L158 527L159 526L160 525L161 525L162 523L164 524L165 524L166 526L167 522L168 520L169 519L171 523L172 525L173 527L174 520L175 524L176 522L178 522L179 520L180 523L181 524L182 525L183 522L185 515L186 522L187 527L188 523L189 528L191 520L192 523L193 523L194 530L195 526L196 524L198 528L199 527L200 529L201 531L202 531L203 527L205 528L206 526L207 523L208 525L209 526L210 526L212 523L213 526L214 525L215 521L216 527L217 516L219 526L220 515L221 527L222 524L223 520L225 527L226 522L227 521L228 525L229 526L230 522L232 524L233 526L234 525L235 524L236 527L237 524L239 528L240 530L241 527L242 524L243 529L244 529L246 521L247 516L248 527L249 527L250 520L252 527L253 526L254 527L255 525L256 525L257 524L259 523L260 523L261 524L262 530L263 525L264 523L266 526L267 527L268 520L269 517L270 520L271 524L273 528L274 524L275 524L276 521L277 524L278 528L280 530L281 525L282 527L283 524L284 531L286 530L287 526L288 525L289 519L290 525L291 529L293 528L294 527L295 528L296 522L297 525L298 525L300 525L301 527L302 525L303 525L372 524L373 529L375 515L376 519L377 520L378 527L379 521L381 513L382 523L383 522L384 521L385 521L386 511L388 506L389 520L390 500L391 518L392 512L393 514L395 522L396 515L397 527L398 514L399 520L400 510L402 506L403 525L404 518L405 513L406 517L407 516L409 516L410 512L411 496L412 514L413 526L415 515L416 500L417 505L418 507L419 516L420 499L422 493L423 517L424 511L425 508L426 521L427 499L429 496L430 513L431 512L432 516L433 514L434 498L436 509L437 498L438 502L439 520L440 479L442 485L443 500L444 499L445 493L446 513L447 520L449 518L450 499L451 499L452 508L453 481L454 503L456 513L457 513L458 511L459 521L460 501L461 499L463 481L464 522L465 521L466 510L467 514L468 514L470 518L471 519L472 515L473 521L474 515L476 520L477 509L478 514L479 504L480 506L481 505L483 519L484 522L485 523L486 529L487 533L488 532L490 529L491 526L492 520L493 515L494 512L495 516L497 520L498 524L499 521L500 517L501 518L502 514L504 519L505 523L506 501L507 492L508 504L510 505L511 509L512 523L513 520L514 516L515 508L517 522L518 518L519 498L520 505L521 509L522 519L524 519L525 522L526 515L527 511L528 516L529 504L531 515L532 498L533 511L534 519L535 512L537 511L538 497L539 517L540 484L541 499L542 512L544 513L545 520L546 519L547 510L548 512L549 512L551 517L552 503L553 501L554 513L555 498L556 521L558 518L559 520L560 518L561 515L562 524L563 517L565 525L566 523L567 509L568 509L569 522L571 517L572 519L573 520L574 525L575 524L576 518L578 522L579 521L580 517L581 521L582 516L583 508L585 492L586 495L587 510L588 521L589 502L590 506L592 517L593 517L594 523L595 519L596 511L597 517L599 523L600 525L601 524L602 521L603 527L605 527L606 529L607 531L608 530L609 531L610 530L612 530L613 530L614 528L615 528L616 529L617 529L619 528L620 529L621 529L622 529L623 528L624 531L626 529L627 529L628 528L629 530L630 530L632 531L633 529L634 530L635 529L636 530L637 529L639 530L640 530L641 530L642 529L643 530L644 531L646 530L647 530L648 530L649 532L650 531L651 532L653 531L654 531L655 531L656 530L657 533L658 531L660 531L661 531L662 531L663 532L664 529L666 531L667 531L668 531L669 532L670 531L671 531L673 530L674 529L675 529L676 529L677 530L678 532L680 530L681 532L682 530L683 531L684 528L685 528L687 530L688 526L689 529L690 531L691 527L693 527L694 525L695 527L696 526L697 529L698 528L700 527L701 527L702 527L703 527L704 527L705 526L707 528L708 527L709 528L710 532L711 529L712 527L714 531L715 531L716 532L717 531L718 529L719 531L721 532L722 530L723 532L724 531L725 531L727 533L728 531L729 532L730 530L731 531L732 530L734 531L735 532L736 531L737 534L738 530L739 529L741 532L742 531L743 533L744 533L745 532L746 532" fill="none" stroke-width="1.5"></path></g></g></g></g><g class="SourcesFooter" style="fill:#777"><g class="clickable" style="fill:#777"><text font-size="12.60" x="15.0" y="581.6"><tspan x="15" y="581.58">Source: Agriculture in England (1270-1870) - Bank of England (2017) </tspan></text></g><text font-size="12.60" x="796.4" y="581.6"><tspan x="796.444" y="581.58"><a style="fill: #777;" class="cclogo" href="http://creativecommons.org/licenses/by/4.0/deed.en_US" target="_blank">CC BY</a></tspan></text></g></svg>