<svg xmlns="http://www.w3.org/2000/svg" version="1.1" style="font-family:Lato, &#x27;Helvetica Neue&#x27;, Helvetica, Arial, sans-serif;font-size:18px;background-color:white;text-rendering:optimizeLegibility;-webkit-font-smoothing:antialiased" width="850" height="600" viewBox="0 0 850 600"><g class="HeaderView"><g transform="translate(774, 15) scale(0.29)"><svg width="210" height="120" viewBox="0 0 210 120" fill="none" xmlns="http://www.w3.org/2000/svg">
<g clip-path="url(#clip0)">
  <path d="M0 0h210v107.89H0V0z" fill="#002147" />
  <path
    d="M40.98 32.25c0 2.36-.38 4.53-1.12 6.51a14.26 14.26 0 01-8.1 8.4c-1.9.78-4.02 1.17-6.34 1.17-2.31 0-4.42-.39-6.33-1.17a14.31 14.31 0 01-8.08-8.4 18.29 18.29 0 01-1.12-6.51c0-2.36.38-4.53 1.12-6.5.75-1.97 1.8-3.67 3.17-5.1 1.37-1.43 3-2.55 4.9-3.34 1.92-.8 4.03-1.19 6.34-1.19 2.32 0 4.43.4 6.34 1.19 1.92.8 3.56 1.9 4.93 3.34a14.87 14.87 0 013.17 5.1 18.1 18.1 0 011.12 6.5zm-4.38 0c0-1.94-.26-3.68-.8-5.22a10.91 10.91 0 00-2.24-3.89 9.68 9.68 0 00-3.52-2.46 11.95 11.95 0 00-4.62-.86c-1.68 0-3.21.28-4.6.86a9.88 9.88 0 00-3.54 2.46 10.91 10.91 0 00-2.24 3.9c-.53 1.53-.8 3.27-.8 5.2 0 1.94.27 3.68.8 5.22a11.17 11.17 0 002.24 3.9 10.01 10.01 0 003.55 2.44c1.38.56 2.9.83 4.6.83 1.7 0 3.24-.27 4.61-.83a9.8 9.8 0 003.52-2.44 11.17 11.17 0 002.25-3.9c.53-1.54.8-3.28.8-5.21zm26.22-6.54V48H60.5c-.56 0-.9-.27-1.05-.81l-.31-2.4a12.45 12.45 0 01-3.26 2.6c-1.2.64-2.58.96-4.13.96-1.22 0-2.3-.2-3.24-.6a6.52 6.52 0 01-2.33-1.7 7.37 7.37 0 01-1.43-2.67c-.3-1.04-.46-2.2-.46-3.45V25.7h3.91v14.22c0 1.68.38 2.99 1.15 3.91.77.93 1.96 1.39 3.54 1.39 1.16 0 2.24-.27 3.23-.82a10.42 10.42 0 002.8-2.28V25.7h3.91zm8.61 4.47a9.94 9.94 0 012.6-3.56 5.64 5.64 0 013.76-1.3c.47 0 .92.05 1.34.15.44.1.83.27 1.17.49L80 28.88c-.09.37-.3.55-.66.55-.2 0-.5-.04-.9-.13a6.21 6.21 0 00-3.24.18c-.54.2-1.03.5-1.47.92-.42.4-.81.9-1.17 1.5-.33.58-.64 1.26-.92 2.02V48h-3.94V25.71h2.25c.42 0 .72.08.88.25.16.16.27.44.33.83l.26 3.39zm61.16-13.7L122.75 48h-3.82l-7.99-24.05a21.95 21.95 0 01-.42-1.58 38.36 38.36 0 01-.44 1.58L102.05 48h-3.83L88.4 16.47h3.54c.38 0 .7.1.95.29.26.2.43.43.5.73l6.52 21.9c.1.4.2.83.28 1.28.1.46.2.94.29 1.46l.3-1.46c.12-.47.25-.9.38-1.27l7.41-21.91c.1-.25.26-.48.51-.69.27-.22.58-.33.95-.33h1.23c.38 0 .69.1.92.29.24.2.41.43.53.73l7.4 21.9a28.4 28.4 0 01.68 2.62 29.52 29.52 0 01.52-2.61l6.54-21.91c.07-.27.23-.5.48-.7.27-.21.58-.32.95-.32h3.32zm9.35 8.88c1.63 0 3.1.27 4.4.82a9.43 9.43 0 015.46 5.94c.5 1.4.74 2.98.74 4.73 0 1.76-.25 3.34-.74 4.75a9.43 9.43 0 01-5.46 5.92c-1.3.52-2.77.79-4.4.79-1.64 0-3.12-.27-4.44-.8a9.42 9.42 0 01-3.35-2.3c-.92-1-1.63-2.2-2.13-3.61-.49-1.41-.73-3-.73-4.75s.24-3.33.73-4.73c.5-1.43 1.2-2.64 2.13-3.63.93-1 2.04-1.77 3.35-2.31 1.32-.55 2.8-.82 4.44-.82zm0 19.89c2.2 0 3.84-.73 4.93-2.2 1.08-1.48 1.63-3.54 1.63-6.18 0-2.66-.55-4.72-1.63-6.2-1.09-1.49-2.73-2.23-4.93-2.23-1.12 0-2.09.2-2.93.57-.82.39-1.5.94-2.06 1.65-.55.72-.96 1.61-1.24 2.67-.26 1.04-.4 2.22-.4 3.54 0 2.64.55 4.7 1.64 6.18 1.1 1.47 2.76 2.2 4.99 2.2zm17.97-15.07a9.94 9.94 0 012.6-3.56 5.64 5.64 0 013.76-1.3c.47 0 .91.05 1.34.15.44.1.83.27 1.16.49l-.28 2.92c-.09.37-.31.55-.66.55-.2 0-.5-.04-.9-.13a6.2 6.2 0 00-3.24.18c-.54.2-1.03.5-1.47.92-.43.4-.82.9-1.17 1.5a13.1 13.1 0 00-.92 2.02V48h-3.94V25.71h2.24c.43 0 .72.08.88.25.17.16.28.44.33.83l.27 3.39zm15.04-14.59V48h-3.92V15.6h3.92zm19.55 15.43a6.22 6.22 0 00-2.38-2.05 6.7 6.7 0 00-2.86-.6c-2.07 0-3.66.75-4.77 2.23-1.12 1.48-1.68 3.6-1.68 6.33 0 1.46.13 2.7.38 3.74a7.29 7.29 0 001.1 2.56 4.35 4.35 0 001.78 1.45c.7.3 1.5.46 2.4.46 1.29 0 2.41-.3 3.36-.88a9.6 9.6 0 002.67-2.49V31.02zm3.91-15.43V48h-2.33c-.56 0-.9-.27-1.06-.81l-.35-2.71a12.13 12.13 0 01-3.25 2.77 8.28 8.28 0 01-4.23 1.06 7.31 7.31 0 01-6.14-2.9c-.73-.96-1.3-2.15-1.69-3.57a18.35 18.35 0 01.07-9.48 11.29 11.29 0 011.89-3.7 8.7 8.7 0 017.06-3.34 7.96 7.96 0 016.12 2.62V15.59h3.91zM46.61 70.71V93H42.7V70.71h3.91zm.84-7c0 .39-.08.75-.24 1.09-.15.32-.35.61-.62.88-.25.25-.55.44-.9.59a2.67 2.67 0 01-2.16 0 2.9 2.9 0 01-1.45-1.47 2.67 2.67 0 010-2.16c.15-.35.35-.65.6-.9.25-.27.53-.47.85-.62a2.67 2.67 0 012.16 0c.35.15.65.35.9.62.27.25.47.55.62.9.16.34.24.7.24 1.08zm7.97 10.24c.49-.54 1-1.04 1.54-1.48a9.85 9.85 0 013.66-1.84 8.96 8.96 0 015.43.35c.94.4 1.72.97 2.33 1.71.63.74 1.11 1.62 1.43 2.67.32 1.04.49 2.19.49 3.45V93h-3.94V78.81c0-1.69-.4-3-1.17-3.92-.76-.93-1.93-1.4-3.5-1.4-1.15 0-2.24.27-3.25.83-1 .56-1.92 1.31-2.77 2.27V93h-3.94V70.71h2.35c.56 0 .9.28 1.04.82l.3 2.42zm57.7 3.3c0 2.36-.37 4.5-1.11 6.44a14.3 14.3 0 01-3.17 4.98c-1.37 1.37-3 2.45-4.93 3.2-1.9.76-4.02 1.13-6.33 1.13H85.8V61.47h11.77c2.31 0 4.42.39 6.33 1.15a13.8 13.8 0 018.1 8.18 17.75 17.75 0 011.12 6.45zm-4.37 0c0-1.94-.26-3.67-.8-5.2a10.94 10.94 0 00-2.23-3.87 9.57 9.57 0 00-3.53-2.42 12.23 12.23 0 00-4.61-.83h-7.5v24.62h7.5c1.7 0 3.24-.28 4.61-.84a9.7 9.7 0 003.53-2.4 10.94 10.94 0 002.24-3.87c.53-1.53.8-3.26.8-5.2zm19.8 5.72c-1.8.06-3.34.2-4.62.44-1.26.22-2.3.51-3.1.88-.8.36-1.37.8-1.74 1.3-.35.5-.53 1.05-.53 1.67 0 .58.1 1.1.3 1.52a3 3 0 00.76 1.05c.34.27.73.46 1.17.6.45.11.94.17 1.45.17a7.28 7.28 0 003.5-.81 11.95 11.95 0 002.82-2.2v-4.62zm-12.65-9.11a12.73 12.73 0 013.98-2.66c1.43-.59 3-.88 4.73-.88 1.25 0 2.36.2 3.33.61a6.81 6.81 0 013.94 4.38c.33 1.04.5 2.19.5 3.43V93h-1.74a1.8 1.8 0 01-.88-.18c-.2-.13-.36-.38-.48-.74l-.44-2.12c-.59.55-1.16 1.03-1.72 1.46a9.48 9.48 0 01-3.74 1.7c-.69.15-1.46.23-2.3.23-.87 0-1.69-.12-2.45-.35a5.34 5.34 0 01-3.34-2.93 6.64 6.64 0 01-.49-2.64c0-.88.25-1.72.73-2.53a6.33 6.33 0 012.35-2.17c1.09-.63 2.5-1.15 4.25-1.54 1.75-.41 3.89-.65 6.42-.7v-1.75c0-1.73-.37-3.03-1.12-3.91-.75-.9-1.84-1.34-3.28-1.34-.97 0-1.78.12-2.44.37-.64.23-1.2.5-1.7.81l-1.23.82c-.33.23-.67.35-1 .35-.27 0-.5-.07-.69-.2a2.1 2.1 0 01-.48-.53l-.7-1.25zm27.67 19.5c-1.76 0-3.12-.5-4.07-1.48-.94-.98-1.41-2.4-1.41-4.25V74h-2.68a.9.9 0 01-.6-.2c-.16-.14-.24-.36-.24-.66v-1.56l3.65-.46.9-6.89c.05-.22.14-.4.29-.52a.88.88 0 01.62-.22H142v7.67h6.44V74h-6.44v13.38c0 .94.22 1.63.68 2.09.45.45 1.04.68 1.76.68a3.21 3.21 0 001.85-.53l.55-.35c.16-.12.3-.18.41-.18.2 0 .4.13.55.38l1.15 1.87a7.45 7.45 0 01-2.44 1.5c-.96.35-1.94.52-2.95.52zm19.68-10.4c-1.8.07-3.34.21-4.62.45-1.26.22-2.3.51-3.1.88-.8.36-1.37.8-1.74 1.3-.35.5-.53 1.05-.53 1.67 0 .58.1 1.1.3 1.52.18.42.44.77.76 1.05.34.27.73.46 1.17.6.45.11.94.17 1.45.17a7.3 7.3 0 003.5-.81 12.04 12.04 0 002.82-2.2v-4.62zm-12.65-9.1a12.72 12.72 0 013.99-2.66c1.42-.59 3-.88 4.72-.88 1.25 0 2.36.2 3.33.61a6.81 6.81 0 013.94 4.38c.33 1.04.5 2.19.5 3.43V93h-1.74a1.8 1.8 0 01-.88-.18c-.2-.13-.36-.38-.48-.74l-.44-2.12c-.59.55-1.16 1.03-1.72 1.46a9.48 9.48 0 01-3.74 1.7c-.69.15-1.46.23-2.3.23-.87 0-1.69-.12-2.45-.35a5.33 5.33 0 01-3.34-2.93 6.62 6.62 0 01-.49-2.64c0-.88.25-1.72.73-2.53a6.33 6.33 0 012.35-2.17c1.09-.63 2.5-1.15 4.25-1.54 1.74-.41 3.89-.65 6.42-.7v-1.75c0-1.73-.37-3.03-1.12-3.91-.75-.9-1.84-1.34-3.28-1.34-.97 0-1.78.12-2.44.37-.64.23-1.2.5-1.7.81-.46.3-.87.57-1.22.82-.34.23-.68.35-1.02.35-.26 0-.49-.07-.68-.2-.19-.14-.35-.32-.48-.53l-.7-1.25z"
    fill="#fff"
  />
  <path fill="#D42B21" d="M0 106.79h210V120H0z" />
</g>
<defs>
  <clipPath id="clip0"><path fill="#fff" d="M0 0h210v120H0z" /></clipPath>
</defs>
</svg></g><a href="http://localhost:3099/grapher/daily-per-capita-supply-of-calories" style="font-family:&quot;Playfair Display&quot;, Georgia, &quot;Times New Roman&quot;, serif" target="_blank"><text font-size="25.20" x="15.0" y="35.2" fill="#555"><tspan x="15" y="35.160000000000004">Daily per capita supply of calories, 1705 to 2013</tspan></text></a></g><g class="LineChart"><defs><clipPath id="boundsClip-504"><rect x="84.196" y="0" width="830" height="973"></rect></clipPath></defs><g class="AxisBoxView"><g class="HorizontalAxis"><line x1="94.2" y1="535.3" x2="94.2" y2="539.3" stroke="#ccc"></line><line x1="185.4" y1="535.3" x2="185.4" y2="539.3" stroke="#ccc"></line><line x1="286.8" y1="535.3" x2="286.8" y2="539.3" stroke="#ccc"></line><line x1="388.2" y1="535.3" x2="388.2" y2="539.3" stroke="#ccc"></line><line x1="489.5" y1="535.3" x2="489.5" y2="539.3" stroke="#ccc"></line><line x1="590.9" y1="535.3" x2="590.9" y2="539.3" stroke="#ccc"></line><line x1="718.6" y1="535.3" x2="718.6" y2="539.3" stroke="#ccc"></line><text x="94.2" y="556.5" fill="#666" text-anchor="middle" font-size="16.2">1705</text><text x="185.4" y="556.5" fill="#666" text-anchor="middle" font-size="16.2">1750</text><text x="286.8" y="556.5" fill="#666" text-anchor="middle" font-size="16.2">1800</text><text x="388.2" y="556.5" fill="#666" text-anchor="middle" font-size="16.2">1850</text><text x="489.5" y="556.5" fill="#666" text-anchor="middle" font-size="16.2">1900</text><text x="590.9" y="556.5" fill="#666" text-anchor="middle" font-size="16.2">1950</text><text x="718.6" y="556.5" fill="#666" text-anchor="middle" font-size="16.2">2013</text></g><g class="VerticalAxis"><text x="89.20" y="535.3" fill="#666" dominant-baseline="middle" text-anchor="end" font-size="16.2">0 kcal</text><text x="89.20" y="474.5" fill="#666" dominant-baseline="middle" text-anchor="end" font-size="16.2">500 kcal</text><text x="89.20" y="413.7" fill="#666" dominant-baseline="middle" text-anchor="end" font-size="16.2">1,000 kcal</text><text x="89.20" y="353" fill="#666" dominant-baseline="middle" text-anchor="end" font-size="16.2">1,500 kcal</text><text x="89.20" y="292.2" fill="#666" dominant-baseline="middle" text-anchor="end" font-size="16.2">2,000 kcal</text><text x="89.20" y="231.4" fill="#666" dominant-baseline="middle" text-anchor="end" font-size="16.2">2,500 kcal</text><text x="89.20" y="170.6" fill="#666" dominant-baseline="middle" text-anchor="end" font-size="16.2">3,000 kcal</text><text x="89.20" y="109.9" fill="#666" dominant-baseline="middle" text-anchor="end" font-size="16.2">3,500 kcal</text></g><g class="AxisGridLines horizontalLines"><line x1="94.20" y1="535.3" x2="718.60" y2="535.3" stroke="#ccc"></line><line x1="94.20" y1="474.5" x2="718.60" y2="474.5" stroke="#ddd" stroke-dasharray="3,2"></line><line x1="94.20" y1="413.7" x2="718.60" y2="413.7" stroke="#ddd" stroke-dasharray="3,2"></line><line x1="94.20" y1="353" x2="718.60" y2="353" stroke="#ddd" stroke-dasharray="3,2"></line><line x1="94.20" y1="292.2" x2="718.60" y2="292.2" stroke="#ddd" stroke-dasharray="3,2"></line><line x1="94.20" y1="231.4" x2="718.60" y2="231.4" stroke="#ddd" stroke-dasharray="3,2"></line><line x1="94.20" y1="170.6" x2="718.60" y2="170.6" stroke="#ddd" stroke-dasharray="3,2"></line><line x1="94.20" y1="109.9" x2="718.60" y2="109.9" stroke="#ddd" stroke-dasharray="3,2"></line></g></g><g clip-path="url(#boundsClip-504)"><g class="HeightedLegend" style="cursor:pointer"><g class="legendMark"><g class="indicator"><path d="M722.595,87.7 H731.595 V84.53333333333333 H749.595" stroke="#999" stroke-width="0.5" fill="none"></path></g><rect x="718.595" y="77.78333333333333" width="116.405" height="13.5" fill="#fff" opacity="0"></rect><text font-size="13.50" x="753.6" y="88.6" fill="#6D3E91"><tspan x="753.595" y="88.58333333333333">United States</tspan></text></g><g class="legendMark"><g class="indicator"><path d="M722.595,100.3 H740.595 V100.03333333333333 H749.595" stroke="#999" stroke-width="0.5" fill="none"></path></g><rect x="718.595" y="93.28333333333333" width="59.84" height="13.5" fill="#fff" opacity="0"></rect><text font-size="13.50" x="753.6" y="104.1" fill="#00847E"><tspan x="753.595" y="104.08333333333333">Italy</tspan></text></g><g class="legendMark"><g class="indicator"><path d="M722.595,112.1 H740.595 V115.53333333333333 H749.595" stroke="#999" stroke-width="0.5" fill="none"></path></g><rect x="718.595" y="108.78333333333333" width="77.12" height="13.5" fill="#fff" opacity="0"></rect><text font-size="13.50" x="753.6" y="119.6" fill="#B13507"><tspan x="753.595" y="119.58333333333333">France</tspan></text></g><g class="legendMark"><g class="indicator"><path d="M722.595,157.5 H736.095 V157.5 H749.595" stroke="#999" stroke-width="0.5" fill="none"></path></g><rect x="718.595" y="150.75" width="70.37" height="13.5" fill="#fff" opacity="0"></rect><text font-size="13.50" x="753.6" y="161.6" fill="#3C4E66"><tspan x="753.595" y="161.55">China</tspan></text></g></g><g class="Lines"><rect x="94" y="70" width="624" height="465" fill="rgba(255,255,255,0)" opacity="0"></rect><g class="key-China_0"><path stroke="#3C4E66" stroke-linecap="round" d="M558 264L583 289L585 278L595 309L597 307L599 305L601 292L603 286L605 287L607 286L609 326L611 359L613 360L615 347L617 339L619 331L621 315L623 307L625 313L627 319L629 323L631 309L633 309L636 311L638 302L640 303L642 301L644 305L646 300L648 283L650 281L652 273L654 271L656 251L658 243L660 239L662 239L664 240L666 238L668 240L670 242L672 230L674 238L676 235L678 225L680 218L682 207L684 207L686 203L688 198L690 199L692 193L694 192L696 191L698 190L700 188L702 185L704 185L706 180L709 173L711 171L713 165L715 161L717 159L719 158" fill="none" stroke-width="1.5"></path><g fill="#3C4E66"><circle cx="558" cy="264" r="2"></circle><circle cx="583" cy="289" r="2"></circle><circle cx="585" cy="278" r="2"></circle><circle cx="595" cy="309" r="2"></circle><circle cx="597" cy="307" r="2"></circle><circle cx="599" cy="305" r="2"></circle><circle cx="601" cy="292" r="2"></circle><circle cx="603" cy="286" r="2"></circle><circle cx="605" cy="287" r="2"></circle><circle cx="607" cy="286" r="2"></circle><circle cx="609" cy="326" r="2"></circle><circle cx="611" cy="359" r="2"></circle><circle cx="613" cy="360" r="2"></circle><circle cx="615" cy="347" r="2"></circle><circle cx="617" cy="339" r="2"></circle><circle cx="619" cy="331" r="2"></circle><circle cx="621" cy="315" r="2"></circle><circle cx="623" cy="307" r="2"></circle><circle cx="625" cy="313" r="2"></circle><circle cx="627" cy="319" r="2"></circle><circle cx="629" cy="323" r="2"></circle><circle cx="631" cy="309" r="2"></circle><circle cx="633" cy="309" r="2"></circle><circle cx="636" cy="311" r="2"></circle><circle cx="638" cy="302" r="2"></circle><circle cx="640" cy="303" r="2"></circle><circle cx="642" cy="301" r="2"></circle><circle cx="644" cy="305" r="2"></circle><circle cx="646" cy="300" r="2"></circle><circle cx="648" cy="283" r="2"></circle><circle cx="650" cy="281" r="2"></circle><circle cx="652" cy="273" r="2"></circle><circle cx="654" cy="271" r="2"></circle><circle cx="656" cy="251" r="2"></circle><circle cx="658" cy="243" r="2"></circle><circle cx="660" cy="239" r="2"></circle><circle cx="662" cy="239" r="2"></circle><circle cx="664" cy="240" r="2"></circle><circle cx="666" cy="238" r="2"></circle><circle cx="668" cy="240" r="2"></circle><circle cx="670" cy="242" r="2"></circle><circle cx="672" cy="230" r="2"></circle><circle cx="674" cy="238" r="2"></circle><circle cx="676" cy="235" r="2"></circle><circle cx="678" cy="225" r="2"></circle><circle cx="680" cy="218" r="2"></circle><circle cx="682" cy="207" r="2"></circle><circle cx="684" cy="207" r="2"></circle><circle cx="686" cy="203" r="2"></circle><circle cx="688" cy="198" r="2"></circle><circle cx="690" cy="199" r="2"></circle><circle cx="692" cy="193" r="2"></circle><circle cx="694" cy="192" r="2"></circle><circle cx="696" cy="191" r="2"></circle><circle cx="698" cy="190" r="2"></circle><circle cx="700" cy="188" r="2"></circle><circle cx="702" cy="185" r="2"></circle><circle cx="704" cy="185" r="2"></circle><circle cx="706" cy="180" r="2"></circle><circle cx="709" cy="173" r="2"></circle><circle cx="711" cy="171" r="2"></circle><circle cx="713" cy="165" r="2"></circle><circle cx="715" cy="161" r="2"></circle><circle cx="717" cy="159" r="2"></circle><circle cx="719" cy="158" r="2"></circle></g></g><g class="key-France_0"><path stroke="#B13507" stroke-linecap="round" d="M94 334L287 311L327 294L348 278L368 246L388 190L408 188L429 160L449 160L469 144L490 147L510 131L530 155L585 249L587 211L613 147L615 139L617 142L619 144L621 142L623 144L625 137L627 137L629 136L631 133L633 136L636 140L638 138L640 138L642 141L644 137L646 130L648 124L650 125L652 125L654 120L656 120L658 115L660 117L662 112L664 115L666 106L668 103L670 103L672 109L674 105L676 104L678 105L680 108L682 106L684 108L686 104L688 99L690 97L692 97L694 93L696 91L698 99L700 103L702 105L704 108L706 114L709 104L711 106L713 106L715 108L717 115L719 112" fill="none" stroke-width="1.5"></path><g fill="#B13507"><circle cx="94" cy="334" r="2"></circle><circle cx="287" cy="311" r="2"></circle><circle cx="327" cy="294" r="2"></circle><circle cx="348" cy="278" r="2"></circle><circle cx="368" cy="246" r="2"></circle><circle cx="388" cy="190" r="2"></circle><circle cx="408" cy="188" r="2"></circle><circle cx="429" cy="160" r="2"></circle><circle cx="449" cy="160" r="2"></circle><circle cx="469" cy="144" r="2"></circle><circle cx="490" cy="147" r="2"></circle><circle cx="510" cy="131" r="2"></circle><circle cx="530" cy="155" r="2"></circle><circle cx="585" cy="249" r="2"></circle><circle cx="587" cy="211" r="2"></circle><circle cx="613" cy="147" r="2"></circle><circle cx="615" cy="139" r="2"></circle><circle cx="617" cy="142" r="2"></circle><circle cx="619" cy="144" r="2"></circle><circle cx="621" cy="142" r="2"></circle><circle cx="623" cy="144" r="2"></circle><circle cx="625" cy="137" r="2"></circle><circle cx="627" cy="137" r="2"></circle><circle cx="629" cy="136" r="2"></circle><circle cx="631" cy="133" r="2"></circle><circle cx="633" cy="136" r="2"></circle><circle cx="636" cy="140" r="2"></circle><circle cx="638" cy="138" r="2"></circle><circle cx="640" cy="138" r="2"></circle><circle cx="642" cy="141" r="2"></circle><circle cx="644" cy="137" r="2"></circle><circle cx="646" cy="130" r="2"></circle><circle cx="648" cy="124" r="2"></circle><circle cx="650" cy="125" r="2"></circle><circle cx="652" cy="125" r="2"></circle><circle cx="654" cy="120" r="2"></circle><circle cx="656" cy="120" r="2"></circle><circle cx="658" cy="115" r="2"></circle><circle cx="660" cy="117" r="2"></circle><circle cx="662" cy="112" r="2"></circle><circle cx="664" cy="115" r="2"></circle><circle cx="666" cy="106" r="2"></circle><circle cx="668" cy="103" r="2"></circle><circle cx="670" cy="103" r="2"></circle><circle cx="672" cy="109" r="2"></circle><circle cx="674" cy="105" r="2"></circle><circle cx="676" cy="104" r="2"></circle><circle cx="678" cy="105" r="2"></circle><circle cx="680" cy="108" r="2"></circle><circle cx="682" cy="106" r="2"></circle><circle cx="684" cy="108" r="2"></circle><circle cx="686" cy="104" r="2"></circle><circle cx="688" cy="99" r="2"></circle><circle cx="690" cy="97" r="2"></circle><circle cx="692" cy="97" r="2"></circle><circle cx="694" cy="93" r="2"></circle><circle cx="696" cy="91" r="2"></circle><circle cx="698" cy="99" r="2"></circle><circle cx="700" cy="103" r="2"></circle><circle cx="702" cy="105" r="2"></circle><circle cx="704" cy="108" r="2"></circle><circle cx="706" cy="114" r="2"></circle><circle cx="709" cy="104" r="2"></circle><circle cx="711" cy="106" r="2"></circle><circle cx="713" cy="106" r="2"></circle><circle cx="715" cy="108" r="2"></circle><circle cx="717" cy="115" r="2"></circle><circle cx="719" cy="112" r="2"></circle></g></g><g class="key-Italy_0"><path stroke="#00847E" stroke-linecap="round" d="M429 214L449 268L469 278L510 217L550 216L585 262L587 244L613 176L615 168L617 160L619 160L621 155L623 152L625 142L627 134L629 129L631 114L633 117L636 111L638 101L640 112L642 123L644 124L646 131L648 109L650 97L652 97L654 108L656 123L658 127L660 121L662 120L664 111L666 107L668 105L670 103L672 99L674 92L676 105L678 113L680 111L682 109L684 102L686 100L688 89L690 86L692 89L694 89L696 90L698 95L700 95L702 102L704 95L706 96L709 98L711 98L713 100L715 101L717 101L719 100" fill="none" stroke-width="1.5"></path><g fill="#00847E"><circle cx="429" cy="214" r="2"></circle><circle cx="449" cy="268" r="2"></circle><circle cx="469" cy="278" r="2"></circle><circle cx="510" cy="217" r="2"></circle><circle cx="550" cy="216" r="2"></circle><circle cx="585" cy="262" r="2"></circle><circle cx="587" cy="244" r="2"></circle><circle cx="613" cy="176" r="2"></circle><circle cx="615" cy="168" r="2"></circle><circle cx="617" cy="160" r="2"></circle><circle cx="619" cy="160" r="2"></circle><circle cx="621" cy="155" r="2"></circle><circle cx="623" cy="152" r="2"></circle><circle cx="625" cy="142" r="2"></circle><circle cx="627" cy="134" r="2"></circle><circle cx="629" cy="129" r="2"></circle><circle cx="631" cy="114" r="2"></circle><circle cx="633" cy="117" r="2"></circle><circle cx="636" cy="111" r="2"></circle><circle cx="638" cy="101" r="2"></circle><circle cx="640" cy="112" r="2"></circle><circle cx="642" cy="123" r="2"></circle><circle cx="644" cy="124" r="2"></circle><circle cx="646" cy="131" r="2"></circle><circle cx="648" cy="109" r="2"></circle><circle cx="650" cy="97" r="2"></circle><circle cx="652" cy="97" r="2"></circle><circle cx="654" cy="108" r="2"></circle><circle cx="656" cy="123" r="2"></circle><circle cx="658" cy="127" r="2"></circle><circle cx="660" cy="121" r="2"></circle><circle cx="662" cy="120" r="2"></circle><circle cx="664" cy="111" r="2"></circle><circle cx="666" cy="107" r="2"></circle><circle cx="668" cy="105" r="2"></circle><circle cx="670" cy="103" r="2"></circle><circle cx="672" cy="99" r="2"></circle><circle cx="674" cy="92" r="2"></circle><circle cx="676" cy="105" r="2"></circle><circle cx="678" cy="113" r="2"></circle><circle cx="680" cy="111" r="2"></circle><circle cx="682" cy="109" r="2"></circle><circle cx="684" cy="102" r="2"></circle><circle cx="686" cy="100" r="2"></circle><circle cx="688" cy="89" r="2"></circle><circle cx="690" cy="86" r="2"></circle><circle cx="692" cy="89" r="2"></circle><circle cx="694" cy="89" r="2"></circle><circle cx="696" cy="90" r="2"></circle><circle cx="698" cy="95" r="2"></circle><circle cx="700" cy="95" r="2"></circle><circle cx="702" cy="102" r="2"></circle><circle cx="704" cy="95" r="2"></circle><circle cx="706" cy="96" r="2"></circle><circle cx="709" cy="98" r="2"></circle><circle cx="711" cy="98" r="2"></circle><circle cx="713" cy="100" r="2"></circle><circle cx="715" cy="101" r="2"></circle><circle cx="717" cy="101" r="2"></circle><circle cx="719" cy="100" r="2"></circle></g></g><g class="key-United-States_0"><path stroke="#6D3E91" stroke-linecap="round" d="M287 177L307 179L327 182L348 184L368 169L388 221L408 192L429 167L449 142L469 154L490 145L510 162L530 139L550 122L571 134L585 141L587 148L591 146L613 185L615 188L617 188L619 180L621 180L623 176L625 173L627 171L629 167L631 167L633 164L636 163L638 166L640 167L642 167L644 151L646 154L648 152L650 145L652 149L654 144L656 147L658 143L660 137L662 125L664 128L666 116L668 115L670 118L672 111L674 107L676 103L678 97L680 90L682 100L684 99L686 92L688 91L690 89L692 79L694 85L696 76L698 76L700 72L702 70L704 76L706 79L709 86L711 92L713 92L715 92L717 87L719 88" fill="none" stroke-width="1.5"></path><g fill="#6D3E91"><circle cx="287" cy="177" r="2"></circle><circle cx="307" cy="179" r="2"></circle><circle cx="327" cy="182" r="2"></circle><circle cx="348" cy="184" r="2"></circle><circle cx="368" cy="169" r="2"></circle><circle cx="388" cy="221" r="2"></circle><circle cx="408" cy="192" r="2"></circle><circle cx="429" cy="167" r="2"></circle><circle cx="449" cy="142" r="2"></circle><circle cx="469" cy="154" r="2"></circle><circle cx="490" cy="145" r="2"></circle><circle cx="510" cy="162" r="2"></circle><circle cx="530" cy="139" r="2"></circle><circle cx="550" cy="122" r="2"></circle><circle cx="571" cy="134" r="2"></circle><circle cx="585" cy="141" r="2"></circle><circle cx="587" cy="148" r="2"></circle><circle cx="591" cy="146" r="2"></circle><circle cx="613" cy="185" r="2"></circle><circle cx="615" cy="188" r="2"></circle><circle cx="617" cy="188" r="2"></circle><circle cx="619" cy="180" r="2"></circle><circle cx="621" cy="180" r="2"></circle><circle cx="623" cy="176" r="2"></circle><circle cx="625" cy="173" r="2"></circle><circle cx="627" cy="171" r="2"></circle><circle cx="629" cy="167" r="2"></circle><circle cx="631" cy="167" r="2"></circle><circle cx="633" cy="164" r="2"></circle><circle cx="636" cy="163" r="2"></circle><circle cx="638" cy="166" r="2"></circle><circle cx="640" cy="167" r="2"></circle><circle cx="642" cy="167" r="2"></circle><circle cx="644" cy="151" r="2"></circle><circle cx="646" cy="154" r="2"></circle><circle cx="648" cy="152" r="2"></circle><circle cx="650" cy="145" r="2"></circle><circle cx="652" cy="149" r="2"></circle><circle cx="654" cy="144" r="2"></circle><circle cx="656" cy="147" r="2"></circle><circle cx="658" cy="143" r="2"></circle><circle cx="660" cy="137" r="2"></circle><circle cx="662" cy="125" r="2"></circle><circle cx="664" cy="128" r="2"></circle><circle cx="666" cy="116" r="2"></circle><circle cx="668" cy="115" r="2"></circle><circle cx="670" cy="118" r="2"></circle><circle cx="672" cy="111" r="2"></circle><circle cx="674" cy="107" r="2"></circle><circle cx="676" cy="103" r="2"></circle><circle cx="678" cy="97" r="2"></circle><circle cx="680" cy="90" r="2"></circle><circle cx="682" cy="100" r="2"></circle><circle cx="684" cy="99" r="2"></circle><circle cx="686" cy="92" r="2"></circle><circle cx="688" cy="91" r="2"></circle><circle cx="690" cy="89" r="2"></circle><circle cx="692" cy="79" r="2"></circle><circle cx="694" cy="85" r="2"></circle><circle cx="696" cy="76" r="2"></circle><circle cx="698" cy="76" r="2"></circle><circle cx="700" cy="72" r="2"></circle><circle cx="702" cy="70" r="2"></circle><circle cx="704" cy="76" r="2"></circle><circle cx="706" cy="79" r="2"></circle><circle cx="709" cy="86" r="2"></circle><circle cx="711" cy="92" r="2"></circle><circle cx="713" cy="92" r="2"></circle><circle cx="715" cy="92" r="2"></circle><circle cx="717" cy="87" r="2"></circle><circle cx="719" cy="88" r="2"></circle></g></g></g></g></g><g class="SourcesFooter" style="fill:#777"><g class="clickable" style="fill:#777"><text font-size="12.60" x="15.0" y="581.6"><tspan x="15" y="581.58">Source: FAO (2017) &amp; various historical sources (see Sources tab)</tspan></text></g><text font-size="12.60" x="573.0" y="581.6"><tspan x="573.046" y="581.58"><a target='_blank' style='fill: #777;' href='https://ourworldindata.org/food-per-person/'>OurWorldInData.org/food-per-person/</a> • <a style="fill: #777;" class="cclogo" href="http://creativecommons.org/licenses/by/4.0/deed.en_US" target="_blank">CC BY</a></tspan></text></g></svg>