<svg xmlns="http://www.w3.org/2000/svg" version="1.1" style="font-family:Lato, &#x27;Helvetica Neue&#x27;, Helvetica, Arial, sans-serif;font-size:18px;background-color:white;text-rendering:optimizeLegibility;-webkit-font-smoothing:antialiased" width="850" height="600" viewBox="0 0 850 600"><g class="HeaderView"><g transform="translate(774, 15) scale(0.29)"><svg width="210" height="120" viewBox="0 0 210 120" fill="none" xmlns="http://www.w3.org/2000/svg">
<g clip-path="url(#clip0)">
  <path d="M0 0h210v107.89H0V0z" fill="#002147" />
  <path
    d="M40.98 32.25c0 2.36-.38 4.53-1.12 6.51a14.26 14.26 0 01-8.1 8.4c-1.9.78-4.02 1.17-6.34 1.17-2.31 0-4.42-.39-6.33-1.17a14.31 14.31 0 01-8.08-8.4 18.29 18.29 0 01-1.12-6.51c0-2.36.38-4.53 1.12-6.5.75-1.97 1.8-3.67 3.17-5.1 1.37-1.43 3-2.55 4.9-3.34 1.92-.8 4.03-1.19 6.34-1.19 2.32 0 4.43.4 6.34 1.19 1.92.8 3.56 1.9 4.93 3.34a14.87 14.87 0 013.17 5.1 18.1 18.1 0 011.12 6.5zm-4.38 0c0-1.94-.26-3.68-.8-5.22a10.91 10.91 0 00-2.24-3.89 9.68 9.68 0 00-3.52-2.46 11.95 11.95 0 00-4.62-.86c-1.68 0-3.21.28-4.6.86a9.88 9.88 0 00-3.54 2.46 10.91 10.91 0 00-2.24 3.9c-.53 1.53-.8 3.27-.8 5.2 0 1.94.27 3.68.8 5.22a11.17 11.17 0 002.24 3.9 10.01 10.01 0 003.55 2.44c1.38.56 2.9.83 4.6.83 1.7 0 3.24-.27 4.61-.83a9.8 9.8 0 003.52-2.44 11.17 11.17 0 002.25-3.9c.53-1.54.8-3.28.8-5.21zm26.22-6.54V48H60.5c-.56 0-.9-.27-1.05-.81l-.31-2.4a12.45 12.45 0 01-3.26 2.6c-1.2.64-2.58.96-4.13.96-1.22 0-2.3-.2-3.24-.6a6.52 6.52 0 01-2.33-1.7 7.37 7.37 0 01-1.43-2.67c-.3-1.04-.46-2.2-.46-3.45V25.7h3.91v14.22c0 1.68.38 2.99 1.15 3.91.77.93 1.96 1.39 3.54 1.39 1.16 0 2.24-.27 3.23-.82a10.42 10.42 0 002.8-2.28V25.7h3.91zm8.61 4.47a9.94 9.94 0 012.6-3.56 5.64 5.64 0 013.76-1.3c.47 0 .92.05 1.34.15.44.1.83.27 1.17.49L80 28.88c-.09.37-.3.55-.66.55-.2 0-.5-.04-.9-.13a6.21 6.21 0 00-3.24.18c-.54.2-1.03.5-1.47.92-.42.4-.81.9-1.17 1.5-.33.58-.64 1.26-.92 2.02V48h-3.94V25.71h2.25c.42 0 .72.08.88.25.16.16.27.44.33.83l.26 3.39zm61.16-13.7L122.75 48h-3.82l-7.99-24.05a21.95 21.95 0 01-.42-1.58 38.36 38.36 0 01-.44 1.58L102.05 48h-3.83L88.4 16.47h3.54c.38 0 .7.1.95.29.26.2.43.43.5.73l6.52 21.9c.1.4.2.83.28 1.28.1.46.2.94.29 1.46l.3-1.46c.12-.47.25-.9.38-1.27l7.41-21.91c.1-.25.26-.48.51-.69.27-.22.58-.33.95-.33h1.23c.38 0 .69.1.92.29.24.2.41.43.53.73l7.4 21.9a28.4 28.4 0 01.68 2.62 29.52 29.52 0 01.52-2.61l6.54-21.91c.07-.27.23-.5.48-.7.27-.21.58-.32.95-.32h3.32zm9.35 8.88c1.63 0 3.1.27 4.4.82a9.43 9.43 0 015.46 5.94c.5 1.4.74 2.98.74 4.73 0 1.76-.25 3.34-.74 4.75a9.43 9.43 0 01-5.46 5.92c-1.3.52-2.77.79-4.4.79-1.64 0-3.12-.27-4.44-.8a9.42 9.42 0 01-3.35-2.3c-.92-1-1.63-2.2-2.13-3.61-.49-1.41-.73-3-.73-4.75s.24-3.33.73-4.73c.5-1.43 1.2-2.64 2.13-3.63.93-1 2.04-1.77 3.35-2.31 1.32-.55 2.8-.82 4.44-.82zm0 19.89c2.2 0 3.84-.73 4.93-2.2 1.08-1.48 1.63-3.54 1.63-6.18 0-2.66-.55-4.72-1.63-6.2-1.09-1.49-2.73-2.23-4.93-2.23-1.12 0-2.09.2-2.93.57-.82.39-1.5.94-2.06 1.65-.55.72-.96 1.61-1.24 2.67-.26 1.04-.4 2.22-.4 3.54 0 2.64.55 4.7 1.64 6.18 1.1 1.47 2.76 2.2 4.99 2.2zm17.97-15.07a9.94 9.94 0 012.6-3.56 5.64 5.64 0 013.76-1.3c.47 0 .91.05 1.34.15.44.1.83.27 1.16.49l-.28 2.92c-.09.37-.31.55-.66.55-.2 0-.5-.04-.9-.13a6.2 6.2 0 00-3.24.18c-.54.2-1.03.5-1.47.92-.43.4-.82.9-1.17 1.5a13.1 13.1 0 00-.92 2.02V48h-3.94V25.71h2.24c.43 0 .72.08.88.25.17.16.28.44.33.83l.27 3.39zm15.04-14.59V48h-3.92V15.6h3.92zm19.55 15.43a6.22 6.22 0 00-2.38-2.05 6.7 6.7 0 00-2.86-.6c-2.07 0-3.66.75-4.77 2.23-1.12 1.48-1.68 3.6-1.68 6.33 0 1.46.13 2.7.38 3.74a7.29 7.29 0 001.1 2.56 4.35 4.35 0 001.78 1.45c.7.3 1.5.46 2.4.46 1.29 0 2.41-.3 3.36-.88a9.6 9.6 0 002.67-2.49V31.02zm3.91-15.43V48h-2.33c-.56 0-.9-.27-1.06-.81l-.35-2.71a12.13 12.13 0 01-3.25 2.77 8.28 8.28 0 01-4.23 1.06 7.31 7.31 0 01-6.14-2.9c-.73-.96-1.3-2.15-1.69-3.57a18.35 18.35 0 01.07-9.48 11.29 11.29 0 011.89-3.7 8.7 8.7 0 017.06-3.34 7.96 7.96 0 016.12 2.62V15.59h3.91zM46.61 70.71V93H42.7V70.71h3.91zm.84-7c0 .39-.08.75-.24 1.09-.15.32-.35.61-.62.88-.25.25-.55.44-.9.59a2.67 2.67 0 01-2.16 0 2.9 2.9 0 01-1.45-1.47 2.67 2.67 0 010-2.16c.15-.35.35-.65.6-.9.25-.27.53-.47.85-.62a2.67 2.67 0 012.16 0c.35.15.65.35.9.62.27.25.47.55.62.9.16.34.24.7.24 1.08zm7.97 10.24c.49-.54 1-1.04 1.54-1.48a9.85 9.85 0 013.66-1.84 8.96 8.96 0 015.43.35c.94.4 1.72.97 2.33 1.71.63.74 1.11 1.62 1.43 2.67.32 1.04.49 2.19.49 3.45V93h-3.94V78.81c0-1.69-.4-3-1.17-3.92-.76-.93-1.93-1.4-3.5-1.4-1.15 0-2.24.27-3.25.83-1 .56-1.92 1.31-2.77 2.27V93h-3.94V70.71h2.35c.56 0 .9.28 1.04.82l.3 2.42zm57.7 3.3c0 2.36-.37 4.5-1.11 6.44a14.3 14.3 0 01-3.17 4.98c-1.37 1.37-3 2.45-4.93 3.2-1.9.76-4.02 1.13-6.33 1.13H85.8V61.47h11.77c2.31 0 4.42.39 6.33 1.15a13.8 13.8 0 018.1 8.18 17.75 17.75 0 011.12 6.45zm-4.37 0c0-1.94-.26-3.67-.8-5.2a10.94 10.94 0 00-2.23-3.87 9.57 9.57 0 00-3.53-2.42 12.23 12.23 0 00-4.61-.83h-7.5v24.62h7.5c1.7 0 3.24-.28 4.61-.84a9.7 9.7 0 003.53-2.4 10.94 10.94 0 002.24-3.87c.53-1.53.8-3.26.8-5.2zm19.8 5.72c-1.8.06-3.34.2-4.62.44-1.26.22-2.3.51-3.1.88-.8.36-1.37.8-1.74 1.3-.35.5-.53 1.05-.53 1.67 0 .58.1 1.1.3 1.52a3 3 0 00.76 1.05c.34.27.73.46 1.17.6.45.11.94.17 1.45.17a7.28 7.28 0 003.5-.81 11.95 11.95 0 002.82-2.2v-4.62zm-12.65-9.11a12.73 12.73 0 013.98-2.66c1.43-.59 3-.88 4.73-.88 1.25 0 2.36.2 3.33.61a6.81 6.81 0 013.94 4.38c.33 1.04.5 2.19.5 3.43V93h-1.74a1.8 1.8 0 01-.88-.18c-.2-.13-.36-.38-.48-.74l-.44-2.12c-.59.55-1.16 1.03-1.72 1.46a9.48 9.48 0 01-3.74 1.7c-.69.15-1.46.23-2.3.23-.87 0-1.69-.12-2.45-.35a5.34 5.34 0 01-3.34-2.93 6.64 6.64 0 01-.49-2.64c0-.88.25-1.72.73-2.53a6.33 6.33 0 012.35-2.17c1.09-.63 2.5-1.15 4.25-1.54 1.75-.41 3.89-.65 6.42-.7v-1.75c0-1.73-.37-3.03-1.12-3.91-.75-.9-1.84-1.34-3.28-1.34-.97 0-1.78.12-2.44.37-.64.23-1.2.5-1.7.81l-1.23.82c-.33.23-.67.35-1 .35-.27 0-.5-.07-.69-.2a2.1 2.1 0 01-.48-.53l-.7-1.25zm27.67 19.5c-1.76 0-3.12-.5-4.07-1.48-.94-.98-1.41-2.4-1.41-4.25V74h-2.68a.9.9 0 01-.6-.2c-.16-.14-.24-.36-.24-.66v-1.56l3.65-.46.9-6.89c.05-.22.14-.4.29-.52a.88.88 0 01.62-.22H142v7.67h6.44V74h-6.44v13.38c0 .94.22 1.63.68 2.09.45.45 1.04.68 1.76.68a3.21 3.21 0 001.85-.53l.55-.35c.16-.12.3-.18.41-.18.2 0 .4.13.55.38l1.15 1.87a7.45 7.45 0 01-2.44 1.5c-.96.35-1.94.52-2.95.52zm19.68-10.4c-1.8.07-3.34.21-4.62.45-1.26.22-2.3.51-3.1.88-.8.36-1.37.8-1.74 1.3-.35.5-.53 1.05-.53 1.67 0 .58.1 1.1.3 1.52.18.42.44.77.76 1.05.34.27.73.46 1.17.6.45.11.94.17 1.45.17a7.3 7.3 0 003.5-.81 12.04 12.04 0 002.82-2.2v-4.62zm-12.65-9.1a12.72 12.72 0 013.99-2.66c1.42-.59 3-.88 4.72-.88 1.25 0 2.36.2 3.33.61a6.81 6.81 0 013.94 4.38c.33 1.04.5 2.19.5 3.43V93h-1.74a1.8 1.8 0 01-.88-.18c-.2-.13-.36-.38-.48-.74l-.44-2.12c-.59.55-1.16 1.03-1.72 1.46a9.48 9.48 0 01-3.74 1.7c-.69.15-1.46.23-2.3.23-.87 0-1.69-.12-2.45-.35a5.33 5.33 0 01-3.34-2.93 6.62 6.62 0 01-.49-2.64c0-.88.25-1.72.73-2.53a6.33 6.33 0 012.35-2.17c1.09-.63 2.5-1.15 4.25-1.54 1.74-.41 3.89-.65 6.42-.7v-1.75c0-1.73-.37-3.03-1.12-3.91-.75-.9-1.84-1.34-3.28-1.34-.97 0-1.78.12-2.44.37-.64.23-1.2.5-1.7.81-.46.3-.87.57-1.22.82-.34.23-.68.35-1.02.35-.26 0-.49-.07-.68-.2-.19-.14-.35-.32-.48-.53l-.7-1.25z"
    fill="#fff"
  />
  <path fill="#D42B21" d="M0 106.79h210V120H0z" />
</g>
<defs>
  <clipPath id="clip0"><path fill="#fff" d="M0 0h210v120H0z" /></clipPath>
</defs>
</svg></g><a href="http://localhost:3099/grapher/female-employment-to-population-ratio" style="font-family:&quot;Playfair Display&quot;, Georgia, &quot;Times New Roman&quot;, serif" target="_blank"><text font-size="25.20" x="15.0" y="35.2" fill="#555"><tspan x="15" y="35.160000000000004">Female employment-to-population ratio, 1960 to 2017</tspan></text></a><text font-size="14.40" x="15.0" y="55.7" fill="#666"><tspan x="15" y="55.72">The female employment- to-population ratio corresponds to the proportion of a country&#x27;s female population 15+ that</tspan><tspan x="15" y="73">is employed. All figures correspond to national estimates, without ILO corrections (see limitations and exceptions in</tspan><tspan x="15" y="90.28">the sources)</tspan></text></g><g class="LineChart"><defs><clipPath id="boundsClip-765"><rect x="28.144000000000005" y="0" width="830" height="893.4"></rect></clipPath></defs><g class="AxisBoxView"><g class="HorizontalAxis"><line x1="38.1" y1="535.3" x2="38.1" y2="539.3" stroke="#ccc"></line><line x1="157.5" y1="535.3" x2="157.5" y2="539.3" stroke="#ccc"></line><line x1="276.9" y1="535.3" x2="276.9" y2="539.3" stroke="#ccc"></line><line x1="396.3" y1="535.3" x2="396.3" y2="539.3" stroke="#ccc"></line><line x1="515.7" y1="535.3" x2="515.7" y2="539.3" stroke="#ccc"></line><line x1="635" y1="535.3" x2="635" y2="539.3" stroke="#ccc"></line><line x1="718.6" y1="535.3" x2="718.6" y2="539.3" stroke="#ccc"></line><text x="38.1" y="556.5" fill="#666" text-anchor="middle" font-size="16.2">1960</text><text x="157.5" y="556.5" fill="#666" text-anchor="middle" font-size="16.2">1970</text><text x="276.9" y="556.5" fill="#666" text-anchor="middle" font-size="16.2">1980</text><text x="396.3" y="556.5" fill="#666" text-anchor="middle" font-size="16.2">1990</text><text x="515.7" y="556.5" fill="#666" text-anchor="middle" font-size="16.2">2000</text><text x="635" y="556.5" fill="#666" text-anchor="middle" font-size="16.2">2010</text><text x="718.6" y="556.5" fill="#666" text-anchor="middle" font-size="16.2">2017</text></g><g class="VerticalAxis"><text x="33.14" y="535.3" fill="#666" dominant-baseline="middle" text-anchor="end" font-size="16.2">0</text><text x="33.14" y="461.3" fill="#666" dominant-baseline="middle" text-anchor="end" font-size="16.2">10</text><text x="33.14" y="387.3" fill="#666" dominant-baseline="middle" text-anchor="end" font-size="16.2">20</text><text x="33.14" y="313.2" fill="#666" dominant-baseline="middle" text-anchor="end" font-size="16.2">30</text><text x="33.14" y="239.2" fill="#666" dominant-baseline="middle" text-anchor="end" font-size="16.2">40</text><text x="33.14" y="165.2" fill="#666" dominant-baseline="middle" text-anchor="end" font-size="16.2">50</text></g><g class="AxisGridLines horizontalLines"><line x1="38.14" y1="535.3" x2="718.60" y2="535.3" stroke="#ccc"></line><line x1="38.14" y1="461.3" x2="718.60" y2="461.3" stroke="#ddd" stroke-dasharray="3,2"></line><line x1="38.14" y1="387.3" x2="718.60" y2="387.3" stroke="#ddd" stroke-dasharray="3,2"></line><line x1="38.14" y1="313.2" x2="718.60" y2="313.2" stroke="#ddd" stroke-dasharray="3,2"></line><line x1="38.14" y1="239.2" x2="718.60" y2="239.2" stroke="#ddd" stroke-dasharray="3,2"></line><line x1="38.14" y1="165.2" x2="718.60" y2="165.2" stroke="#ddd" stroke-dasharray="3,2"></line></g></g><g clip-path="url(#boundsClip-765)"><g class="HeightedLegend" style="cursor:pointer"><g class="legendMark"><rect x="718.595" y="118.80000000000001" width="116.405" height="13.5" fill="#fff" opacity="0"></rect><text font-size="13.50" x="722.6" y="129.6" fill="#883039"><tspan x="722.595" y="129.60000000000002">United States</tspan></text></g><g class="legendMark"><rect x="718.595" y="134.3" width="90.62" height="13.5" fill="#fff" opacity="0"></rect><text font-size="13.50" x="722.6" y="145.1" fill="#CF0A66"><tspan x="722.595" y="145.10000000000002">Germany</tspan></text></g><g class="legendMark"><rect x="718.595" y="181.7" width="77.12" height="13.5" fill="#fff" opacity="0"></rect><text font-size="13.50" x="722.6" y="192.5" fill="#6D3E91"><tspan x="722.595" y="192.5">France</tspan></text></g><g class="legendMark"><rect x="718.595" y="197.2" width="65.78" height="13.5" fill="#fff" opacity="0"></rect><text font-size="13.50" x="722.6" y="208.0" fill="#00847E"><tspan x="722.595" y="208">Chile</tspan></text></g><g class="legendMark"><rect x="718.595" y="222.05" width="77.795" height="13.5" fill="#fff" opacity="0"></rect><text font-size="13.50" x="722.6" y="232.9" fill="#B13507"><tspan x="722.595" y="232.85000000000002">Mexico</tspan></text></g><g class="legendMark"><rect x="718.595" y="427.55" width="77.12" height="13.5" fill="#fff" opacity="0"></rect><text font-size="13.50" x="722.6" y="438.4" fill="#3C4E66"><tspan x="722.595" y="438.35">Algeria</tspan></text></g></g><g class="Lines"><rect x="38" y="110" width="680" height="425" fill="rgba(255,255,255,0)" opacity="0"></rect><g class="key-Algeria_0"><path stroke="#3C4E66" stroke-linecap="round" d="M217 517L325 500L623 451L635 451L683 444L695 435L707 433L719 434" fill="none" stroke-width="1.5"></path><g fill="#3C4E66"><circle cx="217" cy="517" r="2"></circle><circle cx="325" cy="500" r="2"></circle><circle cx="623" cy="451" r="2"></circle><circle cx="635" cy="451" r="2"></circle><circle cx="683" cy="444" r="2"></circle><circle cx="695" cy="435" r="2"></circle><circle cx="707" cy="433" r="2"></circle><circle cx="719" cy="434" r="2"></circle></g></g><g class="key-United-States_0"><path stroke="#883039" stroke-linecap="round" d="M38 273L50 273L62 272L74 270L86 267L98 261L110 252L122 247L134 242L146 234L158 233L170 236L181 232L193 224L205 220L217 224L229 216L241 206L253 192L265 184L277 182L289 180L301 182L313 180L325 169L337 162L349 155L361 147L372 140L384 133L396 133L408 138L420 137L432 135L444 126L456 123L468 120L480 114L492 113L504 110L516 110L528 113L540 119L552 120L563 121L575 119L587 116L599 116L611 119L623 133L635 139L647 142L659 142L671 142L683 139L695 138L707 135L719 131" fill="none" stroke-width="1.5"></path><g fill="#883039"><circle cx="38" cy="273" r="2"></circle><circle cx="50" cy="273" r="2"></circle><circle cx="62" cy="272" r="2"></circle><circle cx="74" cy="270" r="2"></circle><circle cx="86" cy="267" r="2"></circle><circle cx="98" cy="261" r="2"></circle><circle cx="110" cy="252" r="2"></circle><circle cx="122" cy="247" r="2"></circle><circle cx="134" cy="242" r="2"></circle><circle cx="146" cy="234" r="2"></circle><circle cx="158" cy="233" r="2"></circle><circle cx="170" cy="236" r="2"></circle><circle cx="181" cy="232" r="2"></circle><circle cx="193" cy="224" r="2"></circle><circle cx="205" cy="220" r="2"></circle><circle cx="217" cy="224" r="2"></circle><circle cx="229" cy="216" r="2"></circle><circle cx="241" cy="206" r="2"></circle><circle cx="253" cy="192" r="2"></circle><circle cx="265" cy="184" r="2"></circle><circle cx="277" cy="182" r="2"></circle><circle cx="289" cy="180" r="2"></circle><circle cx="301" cy="182" r="2"></circle><circle cx="313" cy="180" r="2"></circle><circle cx="325" cy="169" r="2"></circle><circle cx="337" cy="162" r="2"></circle><circle cx="349" cy="155" r="2"></circle><circle cx="361" cy="147" r="2"></circle><circle cx="372" cy="140" r="2"></circle><circle cx="384" cy="133" r="2"></circle><circle cx="396" cy="133" r="2"></circle><circle cx="408" cy="138" r="2"></circle><circle cx="420" cy="137" r="2"></circle><circle cx="432" cy="135" r="2"></circle><circle cx="444" cy="126" r="2"></circle><circle cx="456" cy="123" r="2"></circle><circle cx="468" cy="120" r="2"></circle><circle cx="480" cy="114" r="2"></circle><circle cx="492" cy="113" r="2"></circle><circle cx="504" cy="110" r="2"></circle><circle cx="516" cy="110" r="2"></circle><circle cx="528" cy="113" r="2"></circle><circle cx="540" cy="119" r="2"></circle><circle cx="552" cy="120" r="2"></circle><circle cx="563" cy="121" r="2"></circle><circle cx="575" cy="119" r="2"></circle><circle cx="587" cy="116" r="2"></circle><circle cx="599" cy="116" r="2"></circle><circle cx="611" cy="119" r="2"></circle><circle cx="623" cy="133" r="2"></circle><circle cx="635" cy="139" r="2"></circle><circle cx="647" cy="142" r="2"></circle><circle cx="659" cy="142" r="2"></circle><circle cx="671" cy="142" r="2"></circle><circle cx="683" cy="139" r="2"></circle><circle cx="695" cy="138" r="2"></circle><circle cx="707" cy="135" r="2"></circle><circle cx="719" cy="131" r="2"></circle></g></g><g class="key-Germany_0"><path stroke="#CF0A66" stroke-linecap="round" d="M313 261L325 259L337 257L349 253L361 253L372 248L384 244L396 220L408 202L420 210L432 216L444 218L456 216L468 215L480 216L492 214L504 206L516 204L528 199L540 200L552 201L563 206L575 198L587 190L599 182L611 176L623 172L635 168L647 158L659 156L671 151L683 149L695 147L707 139L719 135" fill="none" stroke-width="1.5"></path><g fill="#CF0A66"><circle cx="313" cy="261" r="2"></circle><circle cx="325" cy="259" r="2"></circle><circle cx="337" cy="257" r="2"></circle><circle cx="349" cy="253" r="2"></circle><circle cx="361" cy="253" r="2"></circle><circle cx="372" cy="248" r="2"></circle><circle cx="384" cy="244" r="2"></circle><circle cx="396" cy="220" r="2"></circle><circle cx="408" cy="202" r="2"></circle><circle cx="420" cy="210" r="2"></circle><circle cx="432" cy="216" r="2"></circle><circle cx="444" cy="218" r="2"></circle><circle cx="456" cy="216" r="2"></circle><circle cx="468" cy="215" r="2"></circle><circle cx="480" cy="216" r="2"></circle><circle cx="492" cy="214" r="2"></circle><circle cx="504" cy="206" r="2"></circle><circle cx="516" cy="204" r="2"></circle><circle cx="528" cy="199" r="2"></circle><circle cx="540" cy="200" r="2"></circle><circle cx="552" cy="201" r="2"></circle><circle cx="563" cy="206" r="2"></circle><circle cx="575" cy="198" r="2"></circle><circle cx="587" cy="190" r="2"></circle><circle cx="599" cy="182" r="2"></circle><circle cx="611" cy="176" r="2"></circle><circle cx="623" cy="172" r="2"></circle><circle cx="635" cy="168" r="2"></circle><circle cx="647" cy="158" r="2"></circle><circle cx="659" cy="156" r="2"></circle><circle cx="671" cy="151" r="2"></circle><circle cx="683" cy="149" r="2"></circle><circle cx="695" cy="147" r="2"></circle><circle cx="707" cy="139" r="2"></circle><circle cx="719" cy="135" r="2"></circle></g></g><g class="key-France_0"><path stroke="#6D3E91" stroke-linecap="round" d="M265 248L277 248L289 248L301 245L313 231L325 233L337 235L349 230L361 235L372 234L384 233L396 232L408 229L420 230L432 229L444 232L456 229L468 228L480 230L492 226L504 224L516 216L528 212L540 208L552 197L563 201L575 196L587 195L599 189L611 185L623 188L635 189L647 190L659 190L671 190L683 191L695 191L707 191L719 191" fill="none" stroke-width="1.5"></path><g fill="#6D3E91"><circle cx="265" cy="248" r="2"></circle><circle cx="277" cy="248" r="2"></circle><circle cx="289" cy="248" r="2"></circle><circle cx="301" cy="245" r="2"></circle><circle cx="313" cy="231" r="2"></circle><circle cx="325" cy="233" r="2"></circle><circle cx="337" cy="235" r="2"></circle><circle cx="349" cy="230" r="2"></circle><circle cx="361" cy="235" r="2"></circle><circle cx="372" cy="234" r="2"></circle><circle cx="384" cy="233" r="2"></circle><circle cx="396" cy="232" r="2"></circle><circle cx="408" cy="229" r="2"></circle><circle cx="420" cy="230" r="2"></circle><circle cx="432" cy="229" r="2"></circle><circle cx="444" cy="232" r="2"></circle><circle cx="456" cy="229" r="2"></circle><circle cx="468" cy="228" r="2"></circle><circle cx="480" cy="230" r="2"></circle><circle cx="492" cy="226" r="2"></circle><circle cx="504" cy="224" r="2"></circle><circle cx="516" cy="216" r="2"></circle><circle cx="528" cy="212" r="2"></circle><circle cx="540" cy="208" r="2"></circle><circle cx="552" cy="197" r="2"></circle><circle cx="563" cy="201" r="2"></circle><circle cx="575" cy="196" r="2"></circle><circle cx="587" cy="195" r="2"></circle><circle cx="599" cy="189" r="2"></circle><circle cx="611" cy="185" r="2"></circle><circle cx="623" cy="188" r="2"></circle><circle cx="635" cy="189" r="2"></circle><circle cx="647" cy="190" r="2"></circle><circle cx="659" cy="190" r="2"></circle><circle cx="671" cy="190" r="2"></circle><circle cx="683" cy="191" r="2"></circle><circle cx="695" cy="191" r="2"></circle><circle cx="707" cy="191" r="2"></circle><circle cx="719" cy="191" r="2"></circle></g></g><g class="key-Chile_0"><path stroke="#00847E" stroke-linecap="round" d="M277 360L289 356L301 370L313 356L396 318L420 301L444 303L468 291L480 286L492 283L504 290L516 290L528 296L540 297L552 289L563 282L575 274L587 265L599 257L611 247L623 248L635 232L647 215L659 211L671 206L683 202L695 203L707 205L719 202" fill="none" stroke-width="1.5"></path><g fill="#00847E"><circle cx="277" cy="360" r="2"></circle><circle cx="289" cy="356" r="2"></circle><circle cx="301" cy="370" r="2"></circle><circle cx="313" cy="356" r="2"></circle><circle cx="396" cy="318" r="2"></circle><circle cx="420" cy="301" r="2"></circle><circle cx="444" cy="303" r="2"></circle><circle cx="468" cy="291" r="2"></circle><circle cx="480" cy="286" r="2"></circle><circle cx="492" cy="283" r="2"></circle><circle cx="504" cy="290" r="2"></circle><circle cx="516" cy="290" r="2"></circle><circle cx="528" cy="296" r="2"></circle><circle cx="540" cy="297" r="2"></circle><circle cx="552" cy="289" r="2"></circle><circle cx="563" cy="282" r="2"></circle><circle cx="575" cy="274" r="2"></circle><circle cx="587" cy="265" r="2"></circle><circle cx="599" cy="257" r="2"></circle><circle cx="611" cy="247" r="2"></circle><circle cx="623" cy="248" r="2"></circle><circle cx="635" cy="232" r="2"></circle><circle cx="647" cy="215" r="2"></circle><circle cx="659" cy="211" r="2"></circle><circle cx="671" cy="206" r="2"></circle><circle cx="683" cy="202" r="2"></circle><circle cx="695" cy="203" r="2"></circle><circle cx="707" cy="205" r="2"></circle><circle cx="719" cy="202" r="2"></circle></g></g><g class="key-Mexico_0"><path stroke="#B13507" stroke-linecap="round" d="M372 273L408 295L420 288L432 281L444 279L456 281L468 276L480 260L492 258L504 261L516 257L528 263L540 259L552 263L563 250L575 244L587 236L599 234L611 235L623 236L635 237L647 235L659 227L671 227L683 232L695 229L707 227L719 229" fill="none" stroke-width="1.5"></path><g fill="#B13507"><circle cx="372" cy="273" r="2"></circle><circle cx="408" cy="295" r="2"></circle><circle cx="420" cy="288" r="2"></circle><circle cx="432" cy="281" r="2"></circle><circle cx="444" cy="279" r="2"></circle><circle cx="456" cy="281" r="2"></circle><circle cx="468" cy="276" r="2"></circle><circle cx="480" cy="260" r="2"></circle><circle cx="492" cy="258" r="2"></circle><circle cx="504" cy="261" r="2"></circle><circle cx="516" cy="257" r="2"></circle><circle cx="528" cy="263" r="2"></circle><circle cx="540" cy="259" r="2"></circle><circle cx="552" cy="263" r="2"></circle><circle cx="563" cy="250" r="2"></circle><circle cx="575" cy="244" r="2"></circle><circle cx="587" cy="236" r="2"></circle><circle cx="599" cy="234" r="2"></circle><circle cx="611" cy="235" r="2"></circle><circle cx="623" cy="236" r="2"></circle><circle cx="635" cy="237" r="2"></circle><circle cx="647" cy="235" r="2"></circle><circle cx="659" cy="227" r="2"></circle><circle cx="671" cy="227" r="2"></circle><circle cx="683" cy="232" r="2"></circle><circle cx="695" cy="229" r="2"></circle><circle cx="707" cy="227" r="2"></circle><circle cx="719" cy="229" r="2"></circle></g></g></g></g></g><g class="SourcesFooter" style="fill:#777"><g class="clickable" style="fill:#777"><text font-size="12.60" x="15.0" y="581.6"><tspan x="15" y="581.58">Source: World Bank</tspan></text></g><text font-size="12.60" x="437.1" y="581.6"><tspan x="437.092" y="581.58"><a target='_blank' style='fill: #777;' href='https://ourworldindata.org/female-labor-force-participation-key-facts'>OurWorldInData.org/female-labor-force-participation-key-facts</a> • <a style="fill: #777;" class="cclogo" href="http://creativecommons.org/licenses/by/4.0/deed.en_US" target="_blank">CC BY</a></tspan></text></g></svg>