<svg xmlns="http://www.w3.org/2000/svg" version="1.1" style="font-family:Lato, &#x27;Helvetica Neue&#x27;, Helvetica, Arial, sans-serif;font-size:18px;background-color:white;text-rendering:optimizeLegibility;-webkit-font-smoothing:antialiased" width="850" height="600" viewBox="0 0 850 600"><g class="HeaderView"><g transform="translate(774, 15) scale(0.29)"><svg width="210" height="120" viewBox="0 0 210 120" fill="none" xmlns="http://www.w3.org/2000/svg">
<g clip-path="url(#clip0)">
  <path d="M0 0h210v107.89H0V0z" fill="#002147" />
  <path
    d="M40.98 32.25c0 2.36-.38 4.53-1.12 6.51a14.26 14.26 0 01-8.1 8.4c-1.9.78-4.02 1.17-6.34 1.17-2.31 0-4.42-.39-6.33-1.17a14.31 14.31 0 01-8.08-8.4 18.29 18.29 0 01-1.12-6.51c0-2.36.38-4.53 1.12-6.5.75-1.97 1.8-3.67 3.17-5.1 1.37-1.43 3-2.55 4.9-3.34 1.92-.8 4.03-1.19 6.34-1.19 2.32 0 4.43.4 6.34 1.19 1.92.8 3.56 1.9 4.93 3.34a14.87 14.87 0 013.17 5.1 18.1 18.1 0 011.12 6.5zm-4.38 0c0-1.94-.26-3.68-.8-5.22a10.91 10.91 0 00-2.24-3.89 9.68 9.68 0 00-3.52-2.46 11.95 11.95 0 00-4.62-.86c-1.68 0-3.21.28-4.6.86a9.88 9.88 0 00-3.54 2.46 10.91 10.91 0 00-2.24 3.9c-.53 1.53-.8 3.27-.8 5.2 0 1.94.27 3.68.8 5.22a11.17 11.17 0 002.24 3.9 10.01 10.01 0 003.55 2.44c1.38.56 2.9.83 4.6.83 1.7 0 3.24-.27 4.61-.83a9.8 9.8 0 003.52-2.44 11.17 11.17 0 002.25-3.9c.53-1.54.8-3.28.8-5.21zm26.22-6.54V48H60.5c-.56 0-.9-.27-1.05-.81l-.31-2.4a12.45 12.45 0 01-3.26 2.6c-1.2.64-2.58.96-4.13.96-1.22 0-2.3-.2-3.24-.6a6.52 6.52 0 01-2.33-1.7 7.37 7.37 0 01-1.43-2.67c-.3-1.04-.46-2.2-.46-3.45V25.7h3.91v14.22c0 1.68.38 2.99 1.15 3.91.77.93 1.96 1.39 3.54 1.39 1.16 0 2.24-.27 3.23-.82a10.42 10.42 0 002.8-2.28V25.7h3.91zm8.61 4.47a9.94 9.94 0 012.6-3.56 5.64 5.64 0 013.76-1.3c.47 0 .92.05 1.34.15.44.1.83.27 1.17.49L80 28.88c-.09.37-.3.55-.66.55-.2 0-.5-.04-.9-.13a6.21 6.21 0 00-3.24.18c-.54.2-1.03.5-1.47.92-.42.4-.81.9-1.17 1.5-.33.58-.64 1.26-.92 2.02V48h-3.94V25.71h2.25c.42 0 .72.08.88.25.16.16.27.44.33.83l.26 3.39zm61.16-13.7L122.75 48h-3.82l-7.99-24.05a21.95 21.95 0 01-.42-1.58 38.36 38.36 0 01-.44 1.58L102.05 48h-3.83L88.4 16.47h3.54c.38 0 .7.1.95.29.26.2.43.43.5.73l6.52 21.9c.1.4.2.83.28 1.28.1.46.2.94.29 1.46l.3-1.46c.12-.47.25-.9.38-1.27l7.41-21.91c.1-.25.26-.48.51-.69.27-.22.58-.33.95-.33h1.23c.38 0 .69.1.92.29.24.2.41.43.53.73l7.4 21.9a28.4 28.4 0 01.68 2.62 29.52 29.52 0 01.52-2.61l6.54-21.91c.07-.27.23-.5.48-.7.27-.21.58-.32.95-.32h3.32zm9.35 8.88c1.63 0 3.1.27 4.4.82a9.43 9.43 0 015.46 5.94c.5 1.4.74 2.98.74 4.73 0 1.76-.25 3.34-.74 4.75a9.43 9.43 0 01-5.46 5.92c-1.3.52-2.77.79-4.4.79-1.64 0-3.12-.27-4.44-.8a9.42 9.42 0 01-3.35-2.3c-.92-1-1.63-2.2-2.13-3.61-.49-1.41-.73-3-.73-4.75s.24-3.33.73-4.73c.5-1.43 1.2-2.64 2.13-3.63.93-1 2.04-1.77 3.35-2.31 1.32-.55 2.8-.82 4.44-.82zm0 19.89c2.2 0 3.84-.73 4.93-2.2 1.08-1.48 1.63-3.54 1.63-6.18 0-2.66-.55-4.72-1.63-6.2-1.09-1.49-2.73-2.23-4.93-2.23-1.12 0-2.09.2-2.93.57-.82.39-1.5.94-2.06 1.65-.55.72-.96 1.61-1.24 2.67-.26 1.04-.4 2.22-.4 3.54 0 2.64.55 4.7 1.64 6.18 1.1 1.47 2.76 2.2 4.99 2.2zm17.97-15.07a9.94 9.94 0 012.6-3.56 5.64 5.64 0 013.76-1.3c.47 0 .91.05 1.34.15.44.1.83.27 1.16.49l-.28 2.92c-.09.37-.31.55-.66.55-.2 0-.5-.04-.9-.13a6.2 6.2 0 00-3.24.18c-.54.2-1.03.5-1.47.92-.43.4-.82.9-1.17 1.5a13.1 13.1 0 00-.92 2.02V48h-3.94V25.71h2.24c.43 0 .72.08.88.25.17.16.28.44.33.83l.27 3.39zm15.04-14.59V48h-3.92V15.6h3.92zm19.55 15.43a6.22 6.22 0 00-2.38-2.05 6.7 6.7 0 00-2.86-.6c-2.07 0-3.66.75-4.77 2.23-1.12 1.48-1.68 3.6-1.68 6.33 0 1.46.13 2.7.38 3.74a7.29 7.29 0 001.1 2.56 4.35 4.35 0 001.78 1.45c.7.3 1.5.46 2.4.46 1.29 0 2.41-.3 3.36-.88a9.6 9.6 0 002.67-2.49V31.02zm3.91-15.43V48h-2.33c-.56 0-.9-.27-1.06-.81l-.35-2.71a12.13 12.13 0 01-3.25 2.77 8.28 8.28 0 01-4.23 1.06 7.31 7.31 0 01-6.14-2.9c-.73-.96-1.3-2.15-1.69-3.57a18.35 18.35 0 01.07-9.48 11.29 11.29 0 011.89-3.7 8.7 8.7 0 017.06-3.34 7.96 7.96 0 016.12 2.62V15.59h3.91zM46.61 70.71V93H42.7V70.71h3.91zm.84-7c0 .39-.08.75-.24 1.09-.15.32-.35.61-.62.88-.25.25-.55.44-.9.59a2.67 2.67 0 01-2.16 0 2.9 2.9 0 01-1.45-1.47 2.67 2.67 0 010-2.16c.15-.35.35-.65.6-.9.25-.27.53-.47.85-.62a2.67 2.67 0 012.16 0c.35.15.65.35.9.62.27.25.47.55.62.9.16.34.24.7.24 1.08zm7.97 10.24c.49-.54 1-1.04 1.54-1.48a9.85 9.85 0 013.66-1.84 8.96 8.96 0 015.43.35c.94.4 1.72.97 2.33 1.71.63.74 1.11 1.62 1.43 2.67.32 1.04.49 2.19.49 3.45V93h-3.94V78.81c0-1.69-.4-3-1.17-3.92-.76-.93-1.93-1.4-3.5-1.4-1.15 0-2.24.27-3.25.83-1 .56-1.92 1.31-2.77 2.27V93h-3.94V70.71h2.35c.56 0 .9.28 1.04.82l.3 2.42zm57.7 3.3c0 2.36-.37 4.5-1.11 6.44a14.3 14.3 0 01-3.17 4.98c-1.37 1.37-3 2.45-4.93 3.2-1.9.76-4.02 1.13-6.33 1.13H85.8V61.47h11.77c2.31 0 4.42.39 6.33 1.15a13.8 13.8 0 018.1 8.18 17.75 17.75 0 011.12 6.45zm-4.37 0c0-1.94-.26-3.67-.8-5.2a10.94 10.94 0 00-2.23-3.87 9.57 9.57 0 00-3.53-2.42 12.23 12.23 0 00-4.61-.83h-7.5v24.62h7.5c1.7 0 3.24-.28 4.61-.84a9.7 9.7 0 003.53-2.4 10.94 10.94 0 002.24-3.87c.53-1.53.8-3.26.8-5.2zm19.8 5.72c-1.8.06-3.34.2-4.62.44-1.26.22-2.3.51-3.1.88-.8.36-1.37.8-1.74 1.3-.35.5-.53 1.05-.53 1.67 0 .58.1 1.1.3 1.52a3 3 0 00.76 1.05c.34.27.73.46 1.17.6.45.11.94.17 1.45.17a7.28 7.28 0 003.5-.81 11.95 11.95 0 002.82-2.2v-4.62zm-12.65-9.11a12.73 12.73 0 013.98-2.66c1.43-.59 3-.88 4.73-.88 1.25 0 2.36.2 3.33.61a6.81 6.81 0 013.94 4.38c.33 1.04.5 2.19.5 3.43V93h-1.74a1.8 1.8 0 01-.88-.18c-.2-.13-.36-.38-.48-.74l-.44-2.12c-.59.55-1.16 1.03-1.72 1.46a9.48 9.48 0 01-3.74 1.7c-.69.15-1.46.23-2.3.23-.87 0-1.69-.12-2.45-.35a5.34 5.34 0 01-3.34-2.93 6.64 6.64 0 01-.49-2.64c0-.88.25-1.72.73-2.53a6.33 6.33 0 012.35-2.17c1.09-.63 2.5-1.15 4.25-1.54 1.75-.41 3.89-.65 6.42-.7v-1.75c0-1.73-.37-3.03-1.12-3.91-.75-.9-1.84-1.34-3.28-1.34-.97 0-1.78.12-2.44.37-.64.23-1.2.5-1.7.81l-1.23.82c-.33.23-.67.35-1 .35-.27 0-.5-.07-.69-.2a2.1 2.1 0 01-.48-.53l-.7-1.25zm27.67 19.5c-1.76 0-3.12-.5-4.07-1.48-.94-.98-1.41-2.4-1.41-4.25V74h-2.68a.9.9 0 01-.6-.2c-.16-.14-.24-.36-.24-.66v-1.56l3.65-.46.9-6.89c.05-.22.14-.4.29-.52a.88.88 0 01.62-.22H142v7.67h6.44V74h-6.44v13.38c0 .94.22 1.63.68 2.09.45.45 1.04.68 1.76.68a3.21 3.21 0 001.85-.53l.55-.35c.16-.12.3-.18.41-.18.2 0 .4.13.55.38l1.15 1.87a7.45 7.45 0 01-2.44 1.5c-.96.35-1.94.52-2.95.52zm19.68-10.4c-1.8.07-3.34.21-4.62.45-1.26.22-2.3.51-3.1.88-.8.36-1.37.8-1.74 1.3-.35.5-.53 1.05-.53 1.67 0 .58.1 1.1.3 1.52.18.42.44.77.76 1.05.34.27.73.46 1.17.6.45.11.94.17 1.45.17a7.3 7.3 0 003.5-.81 12.04 12.04 0 002.82-2.2v-4.62zm-12.65-9.1a12.72 12.72 0 013.99-2.66c1.42-.59 3-.88 4.72-.88 1.25 0 2.36.2 3.33.61a6.81 6.81 0 013.94 4.38c.33 1.04.5 2.19.5 3.43V93h-1.74a1.8 1.8 0 01-.88-.18c-.2-.13-.36-.38-.48-.74l-.44-2.12c-.59.55-1.16 1.03-1.72 1.46a9.48 9.48 0 01-3.74 1.7c-.69.15-1.46.23-2.3.23-.87 0-1.69-.12-2.45-.35a5.33 5.33 0 01-3.34-2.93 6.62 6.62 0 01-.49-2.64c0-.88.25-1.72.73-2.53a6.33 6.33 0 012.35-2.17c1.09-.63 2.5-1.15 4.25-1.54 1.74-.41 3.89-.65 6.42-.7v-1.75c0-1.73-.37-3.03-1.12-3.91-.75-.9-1.84-1.34-3.28-1.34-.97 0-1.78.12-2.44.37-.64.23-1.2.5-1.7.81-.46.3-.87.57-1.22.82-.34.23-.68.35-1.02.35-.26 0-.49-.07-.68-.2-.19-.14-.35-.32-.48-.53l-.7-1.25z"
    fill="#fff"
  />
  <path fill="#D42B21" d="M0 106.79h210V120H0z" />
</g>
<defs>
  <clipPath id="clip0"><path fill="#fff" d="M0 0h210v120H0z" /></clipPath>
</defs>
</svg></g><a href="http://localhost:3099/grapher/global-demand-for-education-world-population-and-projected-growth-to-2100-by-age-group" style="font-family:&quot;Playfair Display&quot;, Georgia, &quot;Times New Roman&quot;, serif" target="_blank"><text font-size="21.60" x="15.0" y="32.3" fill="#555"><tspan x="15" y="32.279999999999994">By age group: The growth of the population to 2100, World, 1950 to 2100</tspan></text></a><text font-size="14.40" x="15.0" y="52.1" fill="#666"><tspan x="15" y="52.11999999999999">Projections from 2016 through to 2100 based on UN median estimates.</tspan></text></g><g class="LineChart"><defs><clipPath id="boundsClip-713"><rect x="78.688" y="0" width="830" height="963"></rect></clipPath></defs><g class="AxisBoxView"><g class="HorizontalAxis"><line x1="88.7" y1="535.3" x2="88.7" y2="539.3" stroke="#ccc"></line><line x1="199.4" y1="535.3" x2="199.4" y2="539.3" stroke="#ccc"></line><line x1="273.2" y1="535.3" x2="273.2" y2="539.3" stroke="#ccc"></line><line x1="347" y1="535.3" x2="347" y2="539.3" stroke="#ccc"></line><line x1="420.9" y1="535.3" x2="420.9" y2="539.3" stroke="#ccc"></line><line x1="494.7" y1="535.3" x2="494.7" y2="539.3" stroke="#ccc"></line><line x1="568.5" y1="535.3" x2="568.5" y2="539.3" stroke="#ccc"></line><line x1="642.3" y1="535.3" x2="642.3" y2="539.3" stroke="#ccc"></line><text x="88.7" y="556.5" fill="#666" text-anchor="middle" font-size="16.2">1950</text><text x="199.4" y="556.5" fill="#666" text-anchor="middle" font-size="16.2">1980</text><text x="273.2" y="556.5" fill="#666" text-anchor="middle" font-size="16.2">2000</text><text x="347" y="556.5" fill="#666" text-anchor="middle" font-size="16.2">2020</text><text x="420.9" y="556.5" fill="#666" text-anchor="middle" font-size="16.2">2040</text><text x="494.7" y="556.5" fill="#666" text-anchor="middle" font-size="16.2">2060</text><text x="568.5" y="556.5" fill="#666" text-anchor="middle" font-size="16.2">2080</text><text x="642.3" y="556.5" fill="#666" text-anchor="middle" font-size="16.2">2100</text></g><g class="VerticalAxis"><text x="83.69" y="535.3" fill="#666" dominant-baseline="middle" text-anchor="end" font-size="16.2">0  </text><text x="83.69" y="453" fill="#666" dominant-baseline="middle" text-anchor="end" font-size="16.2">2 billion  </text><text x="83.69" y="370.7" fill="#666" dominant-baseline="middle" text-anchor="end" font-size="16.2">4 billion  </text><text x="83.69" y="288.4" fill="#666" dominant-baseline="middle" text-anchor="end" font-size="16.2">6 billion  </text><text x="83.69" y="206.1" fill="#666" dominant-baseline="middle" text-anchor="end" font-size="16.2">8 billion  </text><text x="83.69" y="123.7" fill="#666" dominant-baseline="middle" text-anchor="end" font-size="16.2">10 billion  </text></g><g class="AxisGridLines horizontalLines"><line x1="88.69" y1="535.3" x2="642.32" y2="535.3" stroke="#ccc"></line><line x1="88.69" y1="453" x2="642.32" y2="453" stroke="#ddd" stroke-dasharray="3,2"></line><line x1="88.69" y1="370.7" x2="642.32" y2="370.7" stroke="#ddd" stroke-dasharray="3,2"></line><line x1="88.69" y1="288.4" x2="642.32" y2="288.4" stroke="#ddd" stroke-dasharray="3,2"></line><line x1="88.69" y1="206.1" x2="642.32" y2="206.1" stroke="#ddd" stroke-dasharray="3,2"></line><line x1="88.69" y1="123.7" x2="642.32" y2="123.7" stroke="#ddd" stroke-dasharray="3,2"></line></g></g><g clip-path="url(#boundsClip-713)"><g class="HeightedLegend" style="cursor:default"><g class="legendMark"><rect x="642.3199999999999" y="75" width="186.60500000000002" height="13.5" fill="#fff" opacity="0"></rect><text font-size="13.50" x="646.3" y="85.8" fill="#3360a9"><tspan x="646.3199999999999" y="85.8">projected total population</tspan></text></g><g class="legendMark"><rect x="642.3199999999999" y="447.25" width="192.68" height="13.5" fill="#fff" opacity="0"></rect><text font-size="13.50" x="646.3" y="458.1" fill="#932834"><tspan x="646.3199999999999" y="458.05">projected younger than 15</tspan></text></g><g class="legendMark"><rect x="642.3199999999999" y="501.75" width="185.12" height="13.5" fill="#fff" opacity="0"></rect><text font-size="13.50" x="646.3" y="512.5" fill="#674c98"><tspan x="646.3199999999999" y="512.55">projected younger than 5</tspan></text></g></g><g class="Lines"><rect x="89" y="75" width="554" height="460" fill="rgba(255,255,255,0)" opacity="0"></rect><g class="key-World_0"><path stroke="#3360a9" stroke-linecap="round" d="M329 231L332 228L336 225L340 221L343 218L347 215L351 211L354 208L358 205L362 202L366 198L369 195L373 192L377 189L380 186L384 183L388 181L391 178L395 175L399 172L402 169L406 167L410 164L414 161L417 159L421 156L425 154L428 151L432 149L436 147L439 144L443 142L447 140L450 137L454 135L458 133L462 131L465 129L469 127L473 125L476 123L480 122L484 120L487 118L491 116L495 115L498 113L502 111L506 110L509 108L513 107L517 105L521 104L524 103L528 101L532 100L535 99L539 98L543 96L546 95L550 94L554 93L557 92L561 91L565 90L569 89L572 88L576 87L580 86L583 85L587 84L591 84L594 83L598 82L602 81L605 81L609 80L613 79L617 79L620 78L624 77L628 77L631 76L635 76L639 75L642 75" fill="none" stroke-width="1.5" stroke-dasharray="1,4"></path></g><g class="key-World_1"><path stroke="#3360a9" stroke-linecap="round" d="M89 431L92 429L96 427L100 425L104 423L107 421L111 419L115 417L118 415L122 413L126 411L129 408L133 406L137 403L140 401L144 398L148 395L151 392L155 389L159 386L163 383L166 380L170 377L174 374L177 371L181 367L185 364L188 361L192 358L196 355L199 352L203 349L207 345L211 342L214 338L218 335L222 331L225 327L229 323L233 320L236 316L240 312L244 309L247 305L251 302L255 299L259 295L262 292L266 289L270 286L273 282L277 279L281 276L284 273L288 269L292 266L295 263L299 259L303 256L306 252L310 249L314 245L318 242L321 238L325 235L329 231" fill="none" stroke-width="1.5"></path><g fill="#3360a9"><circle cx="89" cy="431" r="2"></circle><circle cx="92" cy="429" r="2"></circle><circle cx="96" cy="427" r="2"></circle><circle cx="100" cy="425" r="2"></circle><circle cx="104" cy="423" r="2"></circle><circle cx="107" cy="421" r="2"></circle><circle cx="111" cy="419" r="2"></circle><circle cx="115" cy="417" r="2"></circle><circle cx="118" cy="415" r="2"></circle><circle cx="122" cy="413" r="2"></circle><circle cx="126" cy="411" r="2"></circle><circle cx="129" cy="408" r="2"></circle><circle cx="133" cy="406" r="2"></circle><circle cx="137" cy="403" r="2"></circle><circle cx="140" cy="401" r="2"></circle><circle cx="144" cy="398" r="2"></circle><circle cx="148" cy="395" r="2"></circle><circle cx="151" cy="392" r="2"></circle><circle cx="155" cy="389" r="2"></circle><circle cx="159" cy="386" r="2"></circle><circle cx="163" cy="383" r="2"></circle><circle cx="166" cy="380" r="2"></circle><circle cx="170" cy="377" r="2"></circle><circle cx="174" cy="374" r="2"></circle><circle cx="177" cy="371" r="2"></circle><circle cx="181" cy="367" r="2"></circle><circle cx="185" cy="364" r="2"></circle><circle cx="188" cy="361" r="2"></circle><circle cx="192" cy="358" r="2"></circle><circle cx="196" cy="355" r="2"></circle><circle cx="199" cy="352" r="2"></circle><circle cx="203" cy="349" r="2"></circle><circle cx="207" cy="345" r="2"></circle><circle cx="211" cy="342" r="2"></circle><circle cx="214" cy="338" r="2"></circle><circle cx="218" cy="335" r="2"></circle><circle cx="222" cy="331" r="2"></circle><circle cx="225" cy="327" r="2"></circle><circle cx="229" cy="323" r="2"></circle><circle cx="233" cy="320" r="2"></circle><circle cx="236" cy="316" r="2"></circle><circle cx="240" cy="312" r="2"></circle><circle cx="244" cy="309" r="2"></circle><circle cx="247" cy="305" r="2"></circle><circle cx="251" cy="302" r="2"></circle><circle cx="255" cy="299" r="2"></circle><circle cx="259" cy="295" r="2"></circle><circle cx="262" cy="292" r="2"></circle><circle cx="266" cy="289" r="2"></circle><circle cx="270" cy="286" r="2"></circle><circle cx="273" cy="282" r="2"></circle><circle cx="277" cy="279" r="2"></circle><circle cx="281" cy="276" r="2"></circle><circle cx="284" cy="273" r="2"></circle><circle cx="288" cy="269" r="2"></circle><circle cx="292" cy="266" r="2"></circle><circle cx="295" cy="263" r="2"></circle><circle cx="299" cy="259" r="2"></circle><circle cx="303" cy="256" r="2"></circle><circle cx="306" cy="252" r="2"></circle><circle cx="310" cy="249" r="2"></circle><circle cx="314" cy="245" r="2"></circle><circle cx="318" cy="242" r="2"></circle><circle cx="321" cy="238" r="2"></circle><circle cx="325" cy="235" r="2"></circle><circle cx="329" cy="231" r="2"></circle></g></g><g class="key-World_2"><path stroke="#674c98" stroke-linecap="round" d="M89 521L92 521L96 520L100 519L104 519L107 519L111 518L115 518L118 518L122 518L126 518L129 517L133 517L137 517L140 516L144 516L148 515L151 515L155 514L159 514L163 514L166 514L170 513L174 513L177 513L181 513L185 513L188 513L192 513L196 513L199 513L203 513L207 512L211 512L214 511L218 511L222 510L225 510L229 509L233 509L236 509L240 509L244 509L247 509L251 509L255 510L259 510L262 510L266 510L270 510L273 510L277 510L281 510L284 510L288 510L292 510L295 509L299 509L303 509L306 509L310 509L314 508L318 508L321 508L325 508L329 508" fill="none" stroke-width="1.5"></path><g fill="#674c98"><circle cx="89" cy="521" r="2"></circle><circle cx="92" cy="521" r="2"></circle><circle cx="96" cy="520" r="2"></circle><circle cx="100" cy="519" r="2"></circle><circle cx="104" cy="519" r="2"></circle><circle cx="107" cy="519" r="2"></circle><circle cx="111" cy="518" r="2"></circle><circle cx="115" cy="518" r="2"></circle><circle cx="118" cy="518" r="2"></circle><circle cx="122" cy="518" r="2"></circle><circle cx="126" cy="518" r="2"></circle><circle cx="129" cy="517" r="2"></circle><circle cx="133" cy="517" r="2"></circle><circle cx="137" cy="517" r="2"></circle><circle cx="140" cy="516" r="2"></circle><circle cx="144" cy="516" r="2"></circle><circle cx="148" cy="515" r="2"></circle><circle cx="151" cy="515" r="2"></circle><circle cx="155" cy="514" r="2"></circle><circle cx="159" cy="514" r="2"></circle><circle cx="163" cy="514" r="2"></circle><circle cx="166" cy="514" r="2"></circle><circle cx="170" cy="513" r="2"></circle><circle cx="174" cy="513" r="2"></circle><circle cx="177" cy="513" r="2"></circle><circle cx="181" cy="513" r="2"></circle><circle cx="185" cy="513" r="2"></circle><circle cx="188" cy="513" r="2"></circle><circle cx="192" cy="513" r="2"></circle><circle cx="196" cy="513" r="2"></circle><circle cx="199" cy="513" r="2"></circle><circle cx="203" cy="513" r="2"></circle><circle cx="207" cy="512" r="2"></circle><circle cx="211" cy="512" r="2"></circle><circle cx="214" cy="511" r="2"></circle><circle cx="218" cy="511" r="2"></circle><circle cx="222" cy="510" r="2"></circle><circle cx="225" cy="510" r="2"></circle><circle cx="229" cy="509" r="2"></circle><circle cx="233" cy="509" r="2"></circle><circle cx="236" cy="509" r="2"></circle><circle cx="240" cy="509" r="2"></circle><circle cx="244" cy="509" r="2"></circle><circle cx="247" cy="509" r="2"></circle><circle cx="251" cy="509" r="2"></circle><circle cx="255" cy="510" r="2"></circle><circle cx="259" cy="510" r="2"></circle><circle cx="262" cy="510" r="2"></circle><circle cx="266" cy="510" r="2"></circle><circle cx="270" cy="510" r="2"></circle><circle cx="273" cy="510" r="2"></circle><circle cx="277" cy="510" r="2"></circle><circle cx="281" cy="510" r="2"></circle><circle cx="284" cy="510" r="2"></circle><circle cx="288" cy="510" r="2"></circle><circle cx="292" cy="510" r="2"></circle><circle cx="295" cy="509" r="2"></circle><circle cx="299" cy="509" r="2"></circle><circle cx="303" cy="509" r="2"></circle><circle cx="306" cy="509" r="2"></circle><circle cx="310" cy="509" r="2"></circle><circle cx="314" cy="508" r="2"></circle><circle cx="318" cy="508" r="2"></circle><circle cx="321" cy="508" r="2"></circle><circle cx="325" cy="508" r="2"></circle><circle cx="329" cy="508" r="2"></circle></g></g><g class="key-World_3"><path stroke="#674c98" stroke-linecap="round" d="M329 508L332 508L336 507L340 507L343 507L347 507L351 507L354 507L358 507L362 507L366 507L369 507L373 507L377 507L380 507L384 507L388 507L391 507L395 507L399 507L402 507L406 507L410 507L414 507L417 507L421 507L425 507L428 507L432 507L436 507L439 507L443 507L447 506L450 506L454 506L458 506L462 506L465 506L469 506L473 507L476 507L480 507L484 507L487 507L491 507L495 507L498 507L502 507L506 507L509 507L513 507L517 507L521 507L524 507L528 507L532 507L535 507L539 507L543 507L546 507L550 507L554 507L557 507L561 507L565 507L569 507L572 507L576 507L580 507L583 507L587 507L591 508L594 508L598 508L602 508L605 508L609 508L613 508L617 508L620 508L624 508L628 508L631 508L635 508L639 509L642 509" fill="none" stroke-width="1.5" stroke-dasharray="1,4"></path></g><g class="key-World_4"><path stroke="#932834" stroke-linecap="round" d="M89 500L92 499L96 498L100 497L104 496L107 495L111 494L115 493L118 491L122 490L126 489L129 488L133 487L137 486L140 484L144 483L148 482L151 481L155 480L159 479L163 478L166 477L170 476L174 475L177 474L181 474L185 473L188 472L192 472L196 471L199 471L203 470L207 469L211 469L214 468L218 468L222 467L225 466L229 465L233 464L236 463L240 462L244 462L247 461L251 461L255 460L259 460L262 460L266 459L270 459L273 459L277 459L281 459L284 460L288 460L292 460L295 460L299 460L303 459L306 459L310 459L314 458L318 458L321 457L325 456L329 456" fill="none" stroke-width="1.5"></path><g fill="#932834"><circle cx="89" cy="500" r="2"></circle><circle cx="92" cy="499" r="2"></circle><circle cx="96" cy="498" r="2"></circle><circle cx="100" cy="497" r="2"></circle><circle cx="104" cy="496" r="2"></circle><circle cx="107" cy="495" r="2"></circle><circle cx="111" cy="494" r="2"></circle><circle cx="115" cy="493" r="2"></circle><circle cx="118" cy="491" r="2"></circle><circle cx="122" cy="490" r="2"></circle><circle cx="126" cy="489" r="2"></circle><circle cx="129" cy="488" r="2"></circle><circle cx="133" cy="487" r="2"></circle><circle cx="137" cy="486" r="2"></circle><circle cx="140" cy="484" r="2"></circle><circle cx="144" cy="483" r="2"></circle><circle cx="148" cy="482" r="2"></circle><circle cx="151" cy="481" r="2"></circle><circle cx="155" cy="480" r="2"></circle><circle cx="159" cy="479" r="2"></circle><circle cx="163" cy="478" r="2"></circle><circle cx="166" cy="477" r="2"></circle><circle cx="170" cy="476" r="2"></circle><circle cx="174" cy="475" r="2"></circle><circle cx="177" cy="474" r="2"></circle><circle cx="181" cy="474" r="2"></circle><circle cx="185" cy="473" r="2"></circle><circle cx="188" cy="472" r="2"></circle><circle cx="192" cy="472" r="2"></circle><circle cx="196" cy="471" r="2"></circle><circle cx="199" cy="471" r="2"></circle><circle cx="203" cy="470" r="2"></circle><circle cx="207" cy="469" r="2"></circle><circle cx="211" cy="469" r="2"></circle><circle cx="214" cy="468" r="2"></circle><circle cx="218" cy="468" r="2"></circle><circle cx="222" cy="467" r="2"></circle><circle cx="225" cy="466" r="2"></circle><circle cx="229" cy="465" r="2"></circle><circle cx="233" cy="464" r="2"></circle><circle cx="236" cy="463" r="2"></circle><circle cx="240" cy="462" r="2"></circle><circle cx="244" cy="462" r="2"></circle><circle cx="247" cy="461" r="2"></circle><circle cx="251" cy="461" r="2"></circle><circle cx="255" cy="460" r="2"></circle><circle cx="259" cy="460" r="2"></circle><circle cx="262" cy="460" r="2"></circle><circle cx="266" cy="459" r="2"></circle><circle cx="270" cy="459" r="2"></circle><circle cx="273" cy="459" r="2"></circle><circle cx="277" cy="459" r="2"></circle><circle cx="281" cy="459" r="2"></circle><circle cx="284" cy="460" r="2"></circle><circle cx="288" cy="460" r="2"></circle><circle cx="292" cy="460" r="2"></circle><circle cx="295" cy="460" r="2"></circle><circle cx="299" cy="460" r="2"></circle><circle cx="303" cy="459" r="2"></circle><circle cx="306" cy="459" r="2"></circle><circle cx="310" cy="459" r="2"></circle><circle cx="314" cy="458" r="2"></circle><circle cx="318" cy="458" r="2"></circle><circle cx="321" cy="457" r="2"></circle><circle cx="325" cy="456" r="2"></circle><circle cx="329" cy="456" r="2"></circle></g></g><g class="key-World_5"><path stroke="#932834" stroke-linecap="round" d="M329 456L332 455L336 455L340 454L343 454L347 454L351 453L354 453L358 453L362 452L366 452L369 452L373 452L377 452L380 452L384 452L388 452L391 452L395 452L399 452L402 452L406 452L410 452L414 451L417 451L421 451L425 451L428 451L432 451L436 451L439 450L443 450L447 450L450 450L454 450L458 450L462 449L465 449L469 449L473 449L476 449L480 449L484 449L487 449L491 449L495 449L498 449L502 449L506 449L509 450L513 450L517 450L521 450L524 450L528 450L532 450L535 450L539 450L543 450L546 450L550 450L554 450L557 450L561 450L565 451L569 451L572 451L576 451L580 451L583 451L587 451L591 451L594 451L598 452L602 452L605 452L609 452L613 452L617 453L620 453L624 453L628 453L631 453L635 454L639 454L642 454" fill="none" stroke-width="1.5" stroke-dasharray="1,4"></path></g></g></g></g><g class="SourcesFooter" style="fill:#777"><g class="clickable" style="fill:#777"><text font-size="12.60" x="15.0" y="581.6"><tspan x="15" y="581.58">Source: UN Population Division (2015 Revision)</tspan></text></g><text font-size="12.60" x="443.8" y="581.6"><tspan x="443.77" y="581.58"><a target='_blank' style='fill: #777;' href='https://ourworldindata.org/world-population-future-eductation-now/'>OurWorldInData.org/world-population-future-eductation-now/</a> • <a style="fill: #777;" class="cclogo" href="http://creativecommons.org/licenses/by/4.0/deed.en_US" target="_blank">CC BY</a></tspan></text></g></svg>