<svg xmlns="http://www.w3.org/2000/svg" version="1.1" style="font-family:Lato, &#x27;Helvetica Neue&#x27;, Helvetica, Arial, sans-serif;font-size:18px;background-color:white;text-rendering:optimizeLegibility;-webkit-font-smoothing:antialiased" width="850" height="600" viewBox="0 0 850 600"><g class="HeaderView"><g transform="translate(774, 15) scale(0.29)"><svg width="210" height="120" viewBox="0 0 210 120" fill="none" xmlns="http://www.w3.org/2000/svg">
<g clip-path="url(#clip0)">
  <path d="M0 0h210v107.89H0V0z" fill="#002147" />
  <path
    d="M40.98 32.25c0 2.36-.38 4.53-1.12 6.51a14.26 14.26 0 01-8.1 8.4c-1.9.78-4.02 1.17-6.34 1.17-2.31 0-4.42-.39-6.33-1.17a14.31 14.31 0 01-8.08-8.4 18.29 18.29 0 01-1.12-6.51c0-2.36.38-4.53 1.12-6.5.75-1.97 1.8-3.67 3.17-5.1 1.37-1.43 3-2.55 4.9-3.34 1.92-.8 4.03-1.19 6.34-1.19 2.32 0 4.43.4 6.34 1.19 1.92.8 3.56 1.9 4.93 3.34a14.87 14.87 0 013.17 5.1 18.1 18.1 0 011.12 6.5zm-4.38 0c0-1.94-.26-3.68-.8-5.22a10.91 10.91 0 00-2.24-3.89 9.68 9.68 0 00-3.52-2.46 11.95 11.95 0 00-4.62-.86c-1.68 0-3.21.28-4.6.86a9.88 9.88 0 00-3.54 2.46 10.91 10.91 0 00-2.24 3.9c-.53 1.53-.8 3.27-.8 5.2 0 1.94.27 3.68.8 5.22a11.17 11.17 0 002.24 3.9 10.01 10.01 0 003.55 2.44c1.38.56 2.9.83 4.6.83 1.7 0 3.24-.27 4.61-.83a9.8 9.8 0 003.52-2.44 11.17 11.17 0 002.25-3.9c.53-1.54.8-3.28.8-5.21zm26.22-6.54V48H60.5c-.56 0-.9-.27-1.05-.81l-.31-2.4a12.45 12.45 0 01-3.26 2.6c-1.2.64-2.58.96-4.13.96-1.22 0-2.3-.2-3.24-.6a6.52 6.52 0 01-2.33-1.7 7.37 7.37 0 01-1.43-2.67c-.3-1.04-.46-2.2-.46-3.45V25.7h3.91v14.22c0 1.68.38 2.99 1.15 3.91.77.93 1.96 1.39 3.54 1.39 1.16 0 2.24-.27 3.23-.82a10.42 10.42 0 002.8-2.28V25.7h3.91zm8.61 4.47a9.94 9.94 0 012.6-3.56 5.64 5.64 0 013.76-1.3c.47 0 .92.05 1.34.15.44.1.83.27 1.17.49L80 28.88c-.09.37-.3.55-.66.55-.2 0-.5-.04-.9-.13a6.21 6.21 0 00-3.24.18c-.54.2-1.03.5-1.47.92-.42.4-.81.9-1.17 1.5-.33.58-.64 1.26-.92 2.02V48h-3.94V25.71h2.25c.42 0 .72.08.88.25.16.16.27.44.33.83l.26 3.39zm61.16-13.7L122.75 48h-3.82l-7.99-24.05a21.95 21.95 0 01-.42-1.58 38.36 38.36 0 01-.44 1.58L102.05 48h-3.83L88.4 16.47h3.54c.38 0 .7.1.95.29.26.2.43.43.5.73l6.52 21.9c.1.4.2.83.28 1.28.1.46.2.94.29 1.46l.3-1.46c.12-.47.25-.9.38-1.27l7.41-21.91c.1-.25.26-.48.51-.69.27-.22.58-.33.95-.33h1.23c.38 0 .69.1.92.29.24.2.41.43.53.73l7.4 21.9a28.4 28.4 0 01.68 2.62 29.52 29.52 0 01.52-2.61l6.54-21.91c.07-.27.23-.5.48-.7.27-.21.58-.32.95-.32h3.32zm9.35 8.88c1.63 0 3.1.27 4.4.82a9.43 9.43 0 015.46 5.94c.5 1.4.74 2.98.74 4.73 0 1.76-.25 3.34-.74 4.75a9.43 9.43 0 01-5.46 5.92c-1.3.52-2.77.79-4.4.79-1.64 0-3.12-.27-4.44-.8a9.42 9.42 0 01-3.35-2.3c-.92-1-1.63-2.2-2.13-3.61-.49-1.41-.73-3-.73-4.75s.24-3.33.73-4.73c.5-1.43 1.2-2.64 2.13-3.63.93-1 2.04-1.77 3.35-2.31 1.32-.55 2.8-.82 4.44-.82zm0 19.89c2.2 0 3.84-.73 4.93-2.2 1.08-1.48 1.63-3.54 1.63-6.18 0-2.66-.55-4.72-1.63-6.2-1.09-1.49-2.73-2.23-4.93-2.23-1.12 0-2.09.2-2.93.57-.82.39-1.5.94-2.06 1.65-.55.72-.96 1.61-1.24 2.67-.26 1.04-.4 2.22-.4 3.54 0 2.64.55 4.7 1.64 6.18 1.1 1.47 2.76 2.2 4.99 2.2zm17.97-15.07a9.94 9.94 0 012.6-3.56 5.64 5.64 0 013.76-1.3c.47 0 .91.05 1.34.15.44.1.83.27 1.16.49l-.28 2.92c-.09.37-.31.55-.66.55-.2 0-.5-.04-.9-.13a6.2 6.2 0 00-3.24.18c-.54.2-1.03.5-1.47.92-.43.4-.82.9-1.17 1.5a13.1 13.1 0 00-.92 2.02V48h-3.94V25.71h2.24c.43 0 .72.08.88.25.17.16.28.44.33.83l.27 3.39zm15.04-14.59V48h-3.92V15.6h3.92zm19.55 15.43a6.22 6.22 0 00-2.38-2.05 6.7 6.7 0 00-2.86-.6c-2.07 0-3.66.75-4.77 2.23-1.12 1.48-1.68 3.6-1.68 6.33 0 1.46.13 2.7.38 3.74a7.29 7.29 0 001.1 2.56 4.35 4.35 0 001.78 1.45c.7.3 1.5.46 2.4.46 1.29 0 2.41-.3 3.36-.88a9.6 9.6 0 002.67-2.49V31.02zm3.91-15.43V48h-2.33c-.56 0-.9-.27-1.06-.81l-.35-2.71a12.13 12.13 0 01-3.25 2.77 8.28 8.28 0 01-4.23 1.06 7.31 7.31 0 01-6.14-2.9c-.73-.96-1.3-2.15-1.69-3.57a18.35 18.35 0 01.07-9.48 11.29 11.29 0 011.89-3.7 8.7 8.7 0 017.06-3.34 7.96 7.96 0 016.12 2.62V15.59h3.91zM46.61 70.71V93H42.7V70.71h3.91zm.84-7c0 .39-.08.75-.24 1.09-.15.32-.35.61-.62.88-.25.25-.55.44-.9.59a2.67 2.67 0 01-2.16 0 2.9 2.9 0 01-1.45-1.47 2.67 2.67 0 010-2.16c.15-.35.35-.65.6-.9.25-.27.53-.47.85-.62a2.67 2.67 0 012.16 0c.35.15.65.35.9.62.27.25.47.55.62.9.16.34.24.7.24 1.08zm7.97 10.24c.49-.54 1-1.04 1.54-1.48a9.85 9.85 0 013.66-1.84 8.96 8.96 0 015.43.35c.94.4 1.72.97 2.33 1.71.63.74 1.11 1.62 1.43 2.67.32 1.04.49 2.19.49 3.45V93h-3.94V78.81c0-1.69-.4-3-1.17-3.92-.76-.93-1.93-1.4-3.5-1.4-1.15 0-2.24.27-3.25.83-1 .56-1.92 1.31-2.77 2.27V93h-3.94V70.71h2.35c.56 0 .9.28 1.04.82l.3 2.42zm57.7 3.3c0 2.36-.37 4.5-1.11 6.44a14.3 14.3 0 01-3.17 4.98c-1.37 1.37-3 2.45-4.93 3.2-1.9.76-4.02 1.13-6.33 1.13H85.8V61.47h11.77c2.31 0 4.42.39 6.33 1.15a13.8 13.8 0 018.1 8.18 17.75 17.75 0 011.12 6.45zm-4.37 0c0-1.94-.26-3.67-.8-5.2a10.94 10.94 0 00-2.23-3.87 9.57 9.57 0 00-3.53-2.42 12.23 12.23 0 00-4.61-.83h-7.5v24.62h7.5c1.7 0 3.24-.28 4.61-.84a9.7 9.7 0 003.53-2.4 10.94 10.94 0 002.24-3.87c.53-1.53.8-3.26.8-5.2zm19.8 5.72c-1.8.06-3.34.2-4.62.44-1.26.22-2.3.51-3.1.88-.8.36-1.37.8-1.74 1.3-.35.5-.53 1.05-.53 1.67 0 .58.1 1.1.3 1.52a3 3 0 00.76 1.05c.34.27.73.46 1.17.6.45.11.94.17 1.45.17a7.28 7.28 0 003.5-.81 11.95 11.95 0 002.82-2.2v-4.62zm-12.65-9.11a12.73 12.73 0 013.98-2.66c1.43-.59 3-.88 4.73-.88 1.25 0 2.36.2 3.33.61a6.81 6.81 0 013.94 4.38c.33 1.04.5 2.19.5 3.43V93h-1.74a1.8 1.8 0 01-.88-.18c-.2-.13-.36-.38-.48-.74l-.44-2.12c-.59.55-1.16 1.03-1.72 1.46a9.48 9.48 0 01-3.74 1.7c-.69.15-1.46.23-2.3.23-.87 0-1.69-.12-2.45-.35a5.34 5.34 0 01-3.34-2.93 6.64 6.64 0 01-.49-2.64c0-.88.25-1.72.73-2.53a6.33 6.33 0 012.35-2.17c1.09-.63 2.5-1.15 4.25-1.54 1.75-.41 3.89-.65 6.42-.7v-1.75c0-1.73-.37-3.03-1.12-3.91-.75-.9-1.84-1.34-3.28-1.34-.97 0-1.78.12-2.44.37-.64.23-1.2.5-1.7.81l-1.23.82c-.33.23-.67.35-1 .35-.27 0-.5-.07-.69-.2a2.1 2.1 0 01-.48-.53l-.7-1.25zm27.67 19.5c-1.76 0-3.12-.5-4.07-1.48-.94-.98-1.41-2.4-1.41-4.25V74h-2.68a.9.9 0 01-.6-.2c-.16-.14-.24-.36-.24-.66v-1.56l3.65-.46.9-6.89c.05-.22.14-.4.29-.52a.88.88 0 01.62-.22H142v7.67h6.44V74h-6.44v13.38c0 .94.22 1.63.68 2.09.45.45 1.04.68 1.76.68a3.21 3.21 0 001.85-.53l.55-.35c.16-.12.3-.18.41-.18.2 0 .4.13.55.38l1.15 1.87a7.45 7.45 0 01-2.44 1.5c-.96.35-1.94.52-2.95.52zm19.68-10.4c-1.8.07-3.34.21-4.62.45-1.26.22-2.3.51-3.1.88-.8.36-1.37.8-1.74 1.3-.35.5-.53 1.05-.53 1.67 0 .58.1 1.1.3 1.52.18.42.44.77.76 1.05.34.27.73.46 1.17.6.45.11.94.17 1.45.17a7.3 7.3 0 003.5-.81 12.04 12.04 0 002.82-2.2v-4.62zm-12.65-9.1a12.72 12.72 0 013.99-2.66c1.42-.59 3-.88 4.72-.88 1.25 0 2.36.2 3.33.61a6.81 6.81 0 013.94 4.38c.33 1.04.5 2.19.5 3.43V93h-1.74a1.8 1.8 0 01-.88-.18c-.2-.13-.36-.38-.48-.74l-.44-2.12c-.59.55-1.16 1.03-1.72 1.46a9.48 9.48 0 01-3.74 1.7c-.69.15-1.46.23-2.3.23-.87 0-1.69-.12-2.45-.35a5.33 5.33 0 01-3.34-2.93 6.62 6.62 0 01-.49-2.64c0-.88.25-1.72.73-2.53a6.33 6.33 0 012.35-2.17c1.09-.63 2.5-1.15 4.25-1.54 1.74-.41 3.89-.65 6.42-.7v-1.75c0-1.73-.37-3.03-1.12-3.91-.75-.9-1.84-1.34-3.28-1.34-.97 0-1.78.12-2.44.37-.64.23-1.2.5-1.7.81-.46.3-.87.57-1.22.82-.34.23-.68.35-1.02.35-.26 0-.49-.07-.68-.2-.19-.14-.35-.32-.48-.53l-.7-1.25z"
    fill="#fff"
  />
  <path fill="#D42B21" d="M0 106.79h210V120H0z" />
</g>
<defs>
  <clipPath id="clip0"><path fill="#fff" d="M0 0h210v120H0z" /></clipPath>
</defs>
</svg></g><a href="http://localhost:3099/grapher/long-term-wheat-yields-in-europe" style="font-family:&quot;Playfair Display&quot;, Georgia, &quot;Times New Roman&quot;, serif" target="_blank"><text font-size="25.20" x="15.0" y="35.2" fill="#555"><tspan x="15" y="35.160000000000004">Long-term wheat yields in Europe, 1850 to 2014</tspan></text></a><text font-size="14.40" x="15.0" y="55.7" fill="#666"><tspan x="15" y="55.72">Wheat yields across selected countries in Europe, measured in tonnes per hectare.</tspan></text></g><g class="LineChart"><defs><clipPath id="boundsClip-639"><rect x="95.212" y="0" width="830" height="955.8"></rect></clipPath></defs><g class="AxisBoxView"><g class="HorizontalAxis"><line x1="105.2" y1="535.3" x2="105.2" y2="539.3" stroke="#ccc"></line><line x1="214.7" y1="535.3" x2="214.7" y2="539.3" stroke="#ccc"></line><line x1="287.7" y1="535.3" x2="287.7" y2="539.3" stroke="#ccc"></line><line x1="360.6" y1="535.3" x2="360.6" y2="539.3" stroke="#ccc"></line><line x1="433.6" y1="535.3" x2="433.6" y2="539.3" stroke="#ccc"></line><line x1="506.6" y1="535.3" x2="506.6" y2="539.3" stroke="#ccc"></line><line x1="579.6" y1="535.3" x2="579.6" y2="539.3" stroke="#ccc"></line><line x1="652.5" y1="535.3" x2="652.5" y2="539.3" stroke="#ccc"></line><line x1="703.6" y1="535.3" x2="703.6" y2="539.3" stroke="#ccc"></line><text x="105.2" y="556.5" fill="#666" text-anchor="middle" font-size="16.2">1850</text><text x="214.7" y="556.5" fill="#666" text-anchor="middle" font-size="16.2">1880</text><text x="287.7" y="556.5" fill="#666" text-anchor="middle" font-size="16.2">1900</text><text x="360.6" y="556.5" fill="#666" text-anchor="middle" font-size="16.2">1920</text><text x="433.6" y="556.5" fill="#666" text-anchor="middle" font-size="16.2">1940</text><text x="506.6" y="556.5" fill="#666" text-anchor="middle" font-size="16.2">1960</text><text x="579.6" y="556.5" fill="#666" text-anchor="middle" font-size="16.2">1980</text><text x="652.5" y="556.5" fill="#666" text-anchor="middle" font-size="16.2">2000</text><text x="703.6" y="556.5" fill="#666" text-anchor="middle" font-size="16.2">2014</text></g><g class="VerticalAxis"><text x="100.21" y="535.3" fill="#666" dominant-baseline="middle" text-anchor="end" font-size="16.2">0 tonnes/ha</text><text x="100.21" y="438.8" fill="#666" dominant-baseline="middle" text-anchor="end" font-size="16.2">2 tonnes/ha</text><text x="100.21" y="342.3" fill="#666" dominant-baseline="middle" text-anchor="end" font-size="16.2">4 tonnes/ha</text><text x="100.21" y="245.8" fill="#666" dominant-baseline="middle" text-anchor="end" font-size="16.2">6 tonnes/ha</text><text x="100.21" y="149.3" fill="#666" dominant-baseline="middle" text-anchor="end" font-size="16.2">8 tonnes/ha</text></g><g class="AxisGridLines horizontalLines"><line x1="105.21" y1="535.3" x2="703.61" y2="535.3" stroke="#ccc"></line><line x1="105.21" y1="438.8" x2="703.61" y2="438.8" stroke="#ddd" stroke-dasharray="3,2"></line><line x1="105.21" y1="342.3" x2="703.61" y2="342.3" stroke="#ddd" stroke-dasharray="3,2"></line><line x1="105.21" y1="245.8" x2="703.61" y2="245.8" stroke="#ddd" stroke-dasharray="3,2"></line><line x1="105.21" y1="149.3" x2="703.61" y2="149.3" stroke="#ddd" stroke-dasharray="3,2"></line></g></g><g clip-path="url(#boundsClip-639)"><g class="HeightedLegend" style="cursor:default"><g class="legendMark"><g class="indicator"><path d="M707.61,81.1 H725.61 V85.35 H734.61" stroke="#999" stroke-width="0.5" fill="none"></path></g><rect x="703.61" y="78.6" width="83.87" height="13.5" fill="#fff" opacity="0"></rect><text font-size="13.50" x="738.6" y="89.4" fill="#C45267"><tspan x="738.61" y="89.39999999999999">Belgium</tspan></text></g><g class="legendMark"><g class="indicator"><path d="M707.61,92.9 H716.61 V100.85 H734.61" stroke="#999" stroke-width="0.5" fill="none"></path></g><rect x="703.61" y="94.1" width="108.03500000000001" height="13.5" fill="#fff" opacity="0"></rect><text font-size="13.50" x="738.6" y="104.9" fill="#9A5129"><tspan x="738.61" y="104.89999999999999">Netherlands</tspan></text></g><g class="legendMark"><g class="indicator"><path d="M707.61,118.9 H716.61 V116.35 H734.61" stroke="#999" stroke-width="0.5" fill="none"></path></g><rect x="703.61" y="109.6" width="90.62" height="13.5" fill="#fff" opacity="0"></rect><text font-size="13.50" x="738.6" y="120.4" fill="#0F739C"><tspan x="738.61" y="120.39999999999999">Germany</tspan></text></g><g class="legendMark"><g class="indicator"><path d="M707.61,121.4 H716.61 V131.85 H734.61" stroke="#999" stroke-width="0.5" fill="none"></path></g><rect x="703.61" y="125.1" width="131.39" height="13.5" fill="#fff" opacity="0"></rect><text font-size="13.50" x="738.6" y="135.9" fill="#CD2285"><tspan x="738.61" y="135.9">United Kingdom</tspan></text></g><g class="legendMark"><g class="indicator"><path d="M707.61,159.8 H721.11 V159.8 H734.61" stroke="#999" stroke-width="0.5" fill="none"></path></g><rect x="703.61" y="153.05" width="89.81" height="13.5" fill="#fff" opacity="0"></rect><text font-size="13.50" x="738.6" y="163.9" fill="#287669"><tspan x="738.61" y="163.85000000000002">Denmark</tspan></text></g><g class="legendMark"><g class="indicator"><path d="M707.61,180.5 H721.11 V180.5 H734.61" stroke="#999" stroke-width="0.5" fill="none"></path></g><rect x="703.61" y="173.75" width="77.12" height="13.5" fill="#fff" opacity="0"></rect><text font-size="13.50" x="738.6" y="184.6" fill="#D73C50"><tspan x="738.61" y="184.55">France</tspan></text></g><g class="legendMark"><g class="indicator"><path d="M707.61,249.6 H721.11 V249.6 H734.61" stroke="#999" stroke-width="0.5" fill="none"></path></g><rect x="703.61" y="242.85" width="77.12" height="13.5" fill="#fff" opacity="0"></rect><text font-size="13.50" x="738.6" y="253.7" fill="#C05917"><tspan x="738.61" y="253.65000000000003">Austria</tspan></text></g><g class="legendMark"><g class="indicator"><path d="M707.61,297.9 H721.11 V294.75 H734.61" stroke="#999" stroke-width="0.5" fill="none"></path></g><rect x="703.61" y="288" width="80.765" height="13.5" fill="#fff" opacity="0"></rect><text font-size="13.50" x="738.6" y="298.8" fill="#4C6A9C"><tspan x="738.61" y="298.8">Norway</tspan></text></g><g class="legendMark"><g class="indicator"><path d="M707.61,307.1 H721.11 V310.25 H734.61" stroke="#999" stroke-width="0.5" fill="none"></path></g><rect x="703.61" y="303.5" width="86.165" height="13.5" fill="#fff" opacity="0"></rect><text font-size="13.50" x="738.6" y="314.3" fill="#00823F"><tspan x="738.61" y="314.3">Hungary</tspan></text></g><g class="legendMark"><g class="indicator"><path d="M707.61,331.8 H721.11 V331.8 H734.61" stroke="#999" stroke-width="0.5" fill="none"></path></g><rect x="703.61" y="325.05" width="84.68" height="13.5" fill="#fff" opacity="0"></rect><text font-size="13.50" x="738.6" y="335.9" fill="#883039"><tspan x="738.61" y="335.85">Bulgaria</tspan></text></g><g class="legendMark"><g class="indicator"><path d="M707.61,351.4 H721.11 V348.79999999999995 H734.61" stroke="#999" stroke-width="0.5" fill="none"></path></g><rect x="703.61" y="342.04999999999995" width="59.84" height="13.5" fill="#fff" opacity="0"></rect><text font-size="13.50" x="738.6" y="352.8" fill="#CF0A66"><tspan x="738.61" y="352.84999999999997">Italy</tspan></text></g><g class="legendMark"><g class="indicator"><path d="M707.61,361.7 H721.11 V364.29999999999995 H734.61" stroke="#999" stroke-width="0.5" fill="none"></path></g><rect x="703.61" y="357.54999999999995" width="89.135" height="13.5" fill="#fff" opacity="0"></rect><text font-size="13.50" x="738.6" y="368.3" fill="#6D3E91"><tspan x="738.61" y="368.34999999999997">Romania</tspan></text></g><g class="legendMark"><g class="indicator"><path d="M707.61,389.4 H721.11 V382.7 H734.61" stroke="#999" stroke-width="0.5" fill="none"></path></g><rect x="703.61" y="375.95" width="79.415" height="13.5" fill="#fff" opacity="0"></rect><text font-size="13.50" x="738.6" y="386.8" fill="#00847E"><tspan x="738.61" y="386.75">Greece</tspan></text></g><g class="legendMark"><g class="indicator"><path d="M707.61,391.5 H721.11 V398.2 H734.61" stroke="#999" stroke-width="0.5" fill="none"></path></g><rect x="703.61" y="391.45" width="69.695" height="13.5" fill="#fff" opacity="0"></rect><text font-size="13.50" x="738.6" y="402.3" fill="#B13507"><tspan x="738.61" y="402.25">Spain</tspan></text></g><g class="legendMark"><g class="indicator"><path d="M707.61,414.8 H721.11 V414.8 H734.61" stroke="#999" stroke-width="0.5" fill="none"></path></g><rect x="703.61" y="408.05" width="76.31" height="13.5" fill="#fff" opacity="0"></rect><text font-size="13.50" x="738.6" y="418.9" fill="#3C4E66"><tspan x="738.61" y="418.85">Russia</tspan></text></g></g><g class="Lines"><rect x="105" y="79" width="598" height="457" fill="rgba(255,255,255,0)" opacity="0"></rect><g class="key-Denmark_0"><path stroke="#287669" stroke-linecap="round" d="M105 477L321 376L412 400L463 359L510 337L514 334L518 358L521 331L525 320L529 329L532 311L536 303L539 325L543 319L547 301L550 323L554 322L558 277L561 289L565 309L569 283L572 281L576 286L580 309L583 267L587 213L591 227L594 182L598 254L601 238L605 258L609 210L612 185L616 177L620 194L623 239L627 199L631 222L634 170L638 198L642 188L645 186L649 197L653 174L656 180L660 196L664 194L667 191L671 186L674 198L678 219L682 156L685 148L689 216L693 223L696 180L700 183L704 160" fill="none" stroke-width="1.5"></path></g><g class="key-Greece_0"><path stroke="#00847E" stroke-linecap="round" d="M105 513L321 488L412 491L463 530L510 472L514 466L518 472L521 456L525 456L529 449L532 446L536 466L539 458L543 440L547 439L550 439L554 439L558 422L561 425L565 412L569 445L572 404L576 418L580 394L583 402L587 396L591 434L594 406L598 437L601 408L605 410L609 400L612 390L616 442L620 385L623 418L627 425L631 403L634 408L638 419L642 419L645 418L649 420L653 405L656 414L660 422L664 438L667 416L671 418L674 425L678 427L682 393L685 409L689 378L693 405L696 407L700 401L704 389" fill="none" stroke-width="1.5"></path></g><g class="key-Hungary_0"><path stroke="#00823F" stroke-linecap="round" d="M321 472L412 481L463 469L510 443L514 449L518 460L521 446L525 431L529 431L532 410L536 414L539 404L543 432L547 387L550 385L554 367L558 354L561 381L565 348L569 340L572 328L576 378L580 305L583 342L587 323L591 322L594 273L598 302L601 325L605 322L609 271L612 281L616 290L620 285L623 339L627 387L631 313L634 334L638 377L642 332L645 336L649 362L653 361L656 327L660 365L664 408L667 288L671 318L674 339L678 362L682 294L685 349L689 357L693 333L696 354L700 312L704 307" fill="none" stroke-width="1.5"></path></g><g class="key-Norway_0"><path stroke="#4C6A9C" stroke-linecap="round" d="M105 508L321 455L412 441L463 436L510 399L514 436L518 412L521 400L525 401L529 422L532 380L536 371L539 395L543 390L547 361L550 374L554 351L558 324L561 376L565 379L569 356L572 348L576 342L580 333L583 315L587 317L591 331L594 289L598 325L601 342L605 328L609 371L612 359L616 310L620 311L623 365L627 276L631 337L634 306L638 317L642 327L645 309L649 321L653 313L656 339L660 338L664 313L667 305L671 299L674 334L678 323L682 301L685 371L689 314L693 350L696 337L700 348L704 298" fill="none" stroke-width="1.5"></path></g><g class="key-Romania_0"><path stroke="#6D3E91" stroke-linecap="round" d="M321 473L412 497L463 486L510 471L514 471L518 472L521 473L525 439L529 455L532 439L536 452L539 459L543 466L547 427L550 420L554 423L558 435L561 435L565 400L569 399L572 406L576 431L580 401L583 415L587 398L591 428L594 384L598 423L601 414L605 400L609 362L612 372L616 379L620 413L623 429L627 423L631 413L634 386L638 450L642 392L645 410L649 400L653 424L656 388L660 436L664 451L667 368L671 391L674 402L678 458L682 370L685 418L689 405L693 359L696 407L700 368L704 362" fill="none" stroke-width="1.5"></path></g><g class="key-Bulgaria_0"><path stroke="#883039" stroke-linecap="round" d="M321 505L412 491L463 476L510 461L514 455L518 459L521 450L525 412L529 400L532 388L536 419L539 416L543 391L547 388L550 355L554 367L558 373L561 377L565 351L569 356L572 356L576 366L580 344L583 328L587 312L591 381L594 328L598 397L601 350L605 351L609 342L612 305L616 316L620 355L623 385L627 397L631 398L634 395L638 445L642 393L645 400L649 403L653 398L656 390L660 390L664 420L667 352L671 383L674 371L678 429L682 334L685 382L689 362L693 346L696 354L700 333L704 332" fill="none" stroke-width="1.5"></path></g><g class="key-Austria_0"><path stroke="#C05917" stroke-linecap="round" d="M105 498L321 469L412 448L463 453L510 411L514 409L518 414L521 407L525 420L529 397L532 376L536 370L539 375L543 393L547 364L550 384L554 365L558 338L561 366L565 330L569 354L572 334L576 384L580 320L583 355L587 329L591 317L594 306L598 300L601 325L605 317L609 278L612 299L616 292L620 291L623 275L627 332L631 284L634 290L638 294L642 284L645 290L649 273L653 320L656 282L660 296L664 324L667 250L671 293L674 299L678 305L682 261L685 297L689 294L693 253L696 336L700 276L704 250" fill="none" stroke-width="1.5"></path></g><g class="key-Russia_0"><path stroke="#3C4E66" stroke-linecap="round" d="M105 514L321 502L412 496L463 495L510 487L514 488L518 500L521 486L525 497L529 470L532 483L536 472L539 480L543 466L547 465L550 469L554 457L558 472L561 487L565 461L569 468L572 448L576 464L580 463L583 473L587 468L591 465L594 474L598 465L601 450L605 455L609 456L612 447L616 433L620 460L623 444L627 450L631 465L634 468L638 461L642 446L645 470L649 460L653 457L656 436L660 436L664 453L667 440L671 442L674 441L678 434L682 417L685 423L689 443L693 426L696 450L700 428L704 415" fill="none" stroke-width="1.5"></path></g><g class="key-Spain_0"><path stroke="#B13507" stroke-linecap="round" d="M105 513L321 491L412 464L463 493L510 493L514 481L518 480L521 489L525 482L529 479L532 471L536 471L539 476L543 483L547 463L550 474L554 475L558 466L561 457L565 458L569 463L572 451L576 458L580 427L583 473L587 455L591 456L594 409L598 410L601 435L605 410L609 401L612 421L616 421L620 417L623 442L627 417L631 430L634 464L638 391L642 427L645 398L649 434L653 386L656 424L660 399L664 394L667 378L671 450L674 397L678 363L682 379L685 405L689 388L693 369L696 421L700 359L704 392" fill="none" stroke-width="1.5"></path></g><g class="key-Italy_0"><path stroke="#CF0A66" stroke-linecap="round" d="M105 503L321 485L412 487L463 462L510 443L514 435L518 446L521 441L525 425L529 429L532 420L536 427L539 426L543 422L547 412L550 418L554 417L558 411L561 406L565 411L569 428L572 408L576 410L580 406L583 405L587 405L591 409L594 387L598 401L601 395L605 389L609 402L612 414L616 394L620 366L623 364L627 364L631 367L634 381L638 375L642 398L645 363L649 379L653 380L656 400L660 385L664 403L667 358L671 360L674 355L678 371L682 349L685 362L689 355L693 350L696 336L700 350L704 351" fill="none" stroke-width="1.5"></path></g><g class="key-Germany_0"><path stroke="#0F739C" stroke-linecap="round" d="M105 488L321 419L412 439L463 409L510 397L514 372L518 372L521 367L525 379L529 379L532 341L536 332L539 348L543 356L547 322L550 341L554 326L558 312L561 327L565 346L569 325L572 300L576 305L580 307L583 300L587 282L591 284L594 249L598 254L601 241L605 257L609 235L612 261L616 233L620 209L623 247L627 218L631 209L634 203L638 183L642 185L645 188L649 171L653 184L656 155L660 202L664 222L667 141L671 175L674 188L678 199L682 145L685 159L689 183L693 197L696 182L700 149L704 119" fill="none" stroke-width="1.5"></path></g><g class="key-Netherlands_0"><path stroke="#9A5129" stroke-linecap="round" d="M105 485L321 422L412 435L463 359L510 346L514 316L518 333L521 308L525 321L529 340L532 304L536 322L539 325L543 316L547 296L550 327L554 282L558 259L561 297L565 273L569 283L572 219L576 249L580 236L583 212L587 179L591 196L594 155L598 215L601 149L605 201L609 187L612 169L616 166L620 166L623 149L627 112L631 146L634 119L638 103L642 162L645 164L649 133L653 132L656 152L660 158L664 113L667 105L671 121L674 130L678 185L682 114L685 87L689 105L693 160L696 121L700 114L704 93" fill="none" stroke-width="1.5"></path></g><g class="key-Belgium_0"><path stroke="#C45267" stroke-linecap="round" d="M105 485L321 413L412 402L463 380L510 356L514 333L518 338L521 325L525 344L529 408L532 330L536 338L539 351L543 350L547 319L550 322L554 297L558 273L561 352L565 321L569 337L572 282L576 288L580 313L583 277L587 255L591 283L594 205L598 234L601 210L605 256L609 221L612 210L616 244L620 213L623 220L627 191L631 182L634 197L638 105L642 153L645 137L649 145L653 153L656 147L660 136L664 121L667 102L671 136L674 137L678 155L682 113L685 79L689 109L693 130L696 128L700 104L704 81" fill="none" stroke-width="1.5"></path></g><g class="key-France_0"><path stroke="#D73C50" stroke-linecap="round" d="M105 502L321 472L412 467L463 447L510 420L514 387L518 407L521 383L525 378L529 399L532 360L536 359L539 363L543 370L547 349L550 315L554 318L558 314L561 348L565 353L569 331L572 293L576 305L580 285L583 294L587 283L591 288L594 224L598 246L601 272L605 267L609 239L612 229L616 223L620 213L623 226L627 223L631 214L634 221L638 191L642 216L645 168L649 186L653 192L656 216L660 176L664 234L667 170L671 198L674 210L678 234L682 193L685 176L689 225L693 237L696 191L700 185L704 181" fill="none" stroke-width="1.5"></path></g><g class="key-United-Kingdom_0"><path stroke="#CD2285" stroke-linecap="round" d="M105 488L321 433L412 432L463 404L510 365L514 325L518 347L521 330L525 339L529 350L532 334L536 364L539 341L543 333L547 324L550 331L554 325L558 295L561 326L565 350L569 299L572 282L576 283L580 252L583 253L587 236L591 228L594 163L598 230L601 199L605 246L609 236L612 210L616 199L620 185L623 206L627 182L631 181L634 164L638 142L642 179L645 171L649 147L653 149L656 194L660 149L664 160L667 160L671 151L674 148L678 187L682 136L685 153L689 165L693 161L696 214L700 179L704 121" fill="none" stroke-width="1.5"></path></g></g></g></g><g class="SourcesFooter" style="fill:#777"><g class="clickable" style="fill:#777"><text font-size="12.60" x="15.0" y="581.6"><tspan x="15" y="581.58">Source: Long-term wheat yields - FAO (2017) &amp; Bayliss-Smith (1984)</tspan></text></g><text font-size="12.60" x="475.6" y="581.6"><tspan x="475.648" y="581.58"><a target='_blank' style='fill: #777;' href='https://ourworldindata.org/yields-and-land-use-in-agriculture/'>OurWorldInData.org/yields-and-land-use-in-agriculture/</a> • <a style="fill: #777;" class="cclogo" href="http://creativecommons.org/licenses/by/4.0/deed.en_US" target="_blank">CC BY</a></tspan></text></g></svg>