<svg xmlns="http://www.w3.org/2000/svg" version="1.1" style="font-family:Lato, &#x27;Helvetica Neue&#x27;, Helvetica, Arial, sans-serif;font-size:18px;background-color:white;text-rendering:optimizeLegibility;-webkit-font-smoothing:antialiased" width="850" height="600" viewBox="0 0 850 600"><g class="HeaderView"><g transform="translate(774, 15) scale(0.29)"><svg width="210" height="120" viewBox="0 0 210 120" fill="none" xmlns="http://www.w3.org/2000/svg">
<g clip-path="url(#clip0)">
  <path d="M0 0h210v107.89H0V0z" fill="#002147" />
  <path
    d="M40.98 32.25c0 2.36-.38 4.53-1.12 6.51a14.26 14.26 0 01-8.1 8.4c-1.9.78-4.02 1.17-6.34 1.17-2.31 0-4.42-.39-6.33-1.17a14.31 14.31 0 01-8.08-8.4 18.29 18.29 0 01-1.12-6.51c0-2.36.38-4.53 1.12-6.5.75-1.97 1.8-3.67 3.17-5.1 1.37-1.43 3-2.55 4.9-3.34 1.92-.8 4.03-1.19 6.34-1.19 2.32 0 4.43.4 6.34 1.19 1.92.8 3.56 1.9 4.93 3.34a14.87 14.87 0 013.17 5.1 18.1 18.1 0 011.12 6.5zm-4.38 0c0-1.94-.26-3.68-.8-5.22a10.91 10.91 0 00-2.24-3.89 9.68 9.68 0 00-3.52-2.46 11.95 11.95 0 00-4.62-.86c-1.68 0-3.21.28-4.6.86a9.88 9.88 0 00-3.54 2.46 10.91 10.91 0 00-2.24 3.9c-.53 1.53-.8 3.27-.8 5.2 0 1.94.27 3.68.8 5.22a11.17 11.17 0 002.24 3.9 10.01 10.01 0 003.55 2.44c1.38.56 2.9.83 4.6.83 1.7 0 3.24-.27 4.61-.83a9.8 9.8 0 003.52-2.44 11.17 11.17 0 002.25-3.9c.53-1.54.8-3.28.8-5.21zm26.22-6.54V48H60.5c-.56 0-.9-.27-1.05-.81l-.31-2.4a12.45 12.45 0 01-3.26 2.6c-1.2.64-2.58.96-4.13.96-1.22 0-2.3-.2-3.24-.6a6.52 6.52 0 01-2.33-1.7 7.37 7.37 0 01-1.43-2.67c-.3-1.04-.46-2.2-.46-3.45V25.7h3.91v14.22c0 1.68.38 2.99 1.15 3.91.77.93 1.96 1.39 3.54 1.39 1.16 0 2.24-.27 3.23-.82a10.42 10.42 0 002.8-2.28V25.7h3.91zm8.61 4.47a9.94 9.94 0 012.6-3.56 5.64 5.64 0 013.76-1.3c.47 0 .92.05 1.34.15.44.1.83.27 1.17.49L80 28.88c-.09.37-.3.55-.66.55-.2 0-.5-.04-.9-.13a6.21 6.21 0 00-3.24.18c-.54.2-1.03.5-1.47.92-.42.4-.81.9-1.17 1.5-.33.58-.64 1.26-.92 2.02V48h-3.94V25.71h2.25c.42 0 .72.08.88.25.16.16.27.44.33.83l.26 3.39zm61.16-13.7L122.75 48h-3.82l-7.99-24.05a21.95 21.95 0 01-.42-1.58 38.36 38.36 0 01-.44 1.58L102.05 48h-3.83L88.4 16.47h3.54c.38 0 .7.1.95.29.26.2.43.43.5.73l6.52 21.9c.1.4.2.83.28 1.28.1.46.2.94.29 1.46l.3-1.46c.12-.47.25-.9.38-1.27l7.41-21.91c.1-.25.26-.48.51-.69.27-.22.58-.33.95-.33h1.23c.38 0 .69.1.92.29.24.2.41.43.53.73l7.4 21.9a28.4 28.4 0 01.68 2.62 29.52 29.52 0 01.52-2.61l6.54-21.91c.07-.27.23-.5.48-.7.27-.21.58-.32.95-.32h3.32zm9.35 8.88c1.63 0 3.1.27 4.4.82a9.43 9.43 0 015.46 5.94c.5 1.4.74 2.98.74 4.73 0 1.76-.25 3.34-.74 4.75a9.43 9.43 0 01-5.46 5.92c-1.3.52-2.77.79-4.4.79-1.64 0-3.12-.27-4.44-.8a9.42 9.42 0 01-3.35-2.3c-.92-1-1.63-2.2-2.13-3.61-.49-1.41-.73-3-.73-4.75s.24-3.33.73-4.73c.5-1.43 1.2-2.64 2.13-3.63.93-1 2.04-1.77 3.35-2.31 1.32-.55 2.8-.82 4.44-.82zm0 19.89c2.2 0 3.84-.73 4.93-2.2 1.08-1.48 1.63-3.54 1.63-6.18 0-2.66-.55-4.72-1.63-6.2-1.09-1.49-2.73-2.23-4.93-2.23-1.12 0-2.09.2-2.93.57-.82.39-1.5.94-2.06 1.65-.55.72-.96 1.61-1.24 2.67-.26 1.04-.4 2.22-.4 3.54 0 2.64.55 4.7 1.64 6.18 1.1 1.47 2.76 2.2 4.99 2.2zm17.97-15.07a9.94 9.94 0 012.6-3.56 5.64 5.64 0 013.76-1.3c.47 0 .91.05 1.34.15.44.1.83.27 1.16.49l-.28 2.92c-.09.37-.31.55-.66.55-.2 0-.5-.04-.9-.13a6.2 6.2 0 00-3.24.18c-.54.2-1.03.5-1.47.92-.43.4-.82.9-1.17 1.5a13.1 13.1 0 00-.92 2.02V48h-3.94V25.71h2.24c.43 0 .72.08.88.25.17.16.28.44.33.83l.27 3.39zm15.04-14.59V48h-3.92V15.6h3.92zm19.55 15.43a6.22 6.22 0 00-2.38-2.05 6.7 6.7 0 00-2.86-.6c-2.07 0-3.66.75-4.77 2.23-1.12 1.48-1.68 3.6-1.68 6.33 0 1.46.13 2.7.38 3.74a7.29 7.29 0 001.1 2.56 4.35 4.35 0 001.78 1.45c.7.3 1.5.46 2.4.46 1.29 0 2.41-.3 3.36-.88a9.6 9.6 0 002.67-2.49V31.02zm3.91-15.43V48h-2.33c-.56 0-.9-.27-1.06-.81l-.35-2.71a12.13 12.13 0 01-3.25 2.77 8.28 8.28 0 01-4.23 1.06 7.31 7.31 0 01-6.14-2.9c-.73-.96-1.3-2.15-1.69-3.57a18.35 18.35 0 01.07-9.48 11.29 11.29 0 011.89-3.7 8.7 8.7 0 017.06-3.34 7.96 7.96 0 016.12 2.62V15.59h3.91zM46.61 70.71V93H42.7V70.71h3.91zm.84-7c0 .39-.08.75-.24 1.09-.15.32-.35.61-.62.88-.25.25-.55.44-.9.59a2.67 2.67 0 01-2.16 0 2.9 2.9 0 01-1.45-1.47 2.67 2.67 0 010-2.16c.15-.35.35-.65.6-.9.25-.27.53-.47.85-.62a2.67 2.67 0 012.16 0c.35.15.65.35.9.62.27.25.47.55.62.9.16.34.24.7.24 1.08zm7.97 10.24c.49-.54 1-1.04 1.54-1.48a9.85 9.85 0 013.66-1.84 8.96 8.96 0 015.43.35c.94.4 1.72.97 2.33 1.71.63.74 1.11 1.62 1.43 2.67.32 1.04.49 2.19.49 3.45V93h-3.94V78.81c0-1.69-.4-3-1.17-3.92-.76-.93-1.93-1.4-3.5-1.4-1.15 0-2.24.27-3.25.83-1 .56-1.92 1.31-2.77 2.27V93h-3.94V70.71h2.35c.56 0 .9.28 1.04.82l.3 2.42zm57.7 3.3c0 2.36-.37 4.5-1.11 6.44a14.3 14.3 0 01-3.17 4.98c-1.37 1.37-3 2.45-4.93 3.2-1.9.76-4.02 1.13-6.33 1.13H85.8V61.47h11.77c2.31 0 4.42.39 6.33 1.15a13.8 13.8 0 018.1 8.18 17.75 17.75 0 011.12 6.45zm-4.37 0c0-1.94-.26-3.67-.8-5.2a10.94 10.94 0 00-2.23-3.87 9.57 9.57 0 00-3.53-2.42 12.23 12.23 0 00-4.61-.83h-7.5v24.62h7.5c1.7 0 3.24-.28 4.61-.84a9.7 9.7 0 003.53-2.4 10.94 10.94 0 002.24-3.87c.53-1.53.8-3.26.8-5.2zm19.8 5.72c-1.8.06-3.34.2-4.62.44-1.26.22-2.3.51-3.1.88-.8.36-1.37.8-1.74 1.3-.35.5-.53 1.05-.53 1.67 0 .58.1 1.1.3 1.52a3 3 0 00.76 1.05c.34.27.73.46 1.17.6.45.11.94.17 1.45.17a7.28 7.28 0 003.5-.81 11.95 11.95 0 002.82-2.2v-4.62zm-12.65-9.11a12.73 12.73 0 013.98-2.66c1.43-.59 3-.88 4.73-.88 1.25 0 2.36.2 3.33.61a6.81 6.81 0 013.94 4.38c.33 1.04.5 2.19.5 3.43V93h-1.74a1.8 1.8 0 01-.88-.18c-.2-.13-.36-.38-.48-.74l-.44-2.12c-.59.55-1.16 1.03-1.72 1.46a9.48 9.48 0 01-3.74 1.7c-.69.15-1.46.23-2.3.23-.87 0-1.69-.12-2.45-.35a5.34 5.34 0 01-3.34-2.93 6.64 6.64 0 01-.49-2.64c0-.88.25-1.72.73-2.53a6.33 6.33 0 012.35-2.17c1.09-.63 2.5-1.15 4.25-1.54 1.75-.41 3.89-.65 6.42-.7v-1.75c0-1.73-.37-3.03-1.12-3.91-.75-.9-1.84-1.34-3.28-1.34-.97 0-1.78.12-2.44.37-.64.23-1.2.5-1.7.81l-1.23.82c-.33.23-.67.35-1 .35-.27 0-.5-.07-.69-.2a2.1 2.1 0 01-.48-.53l-.7-1.25zm27.67 19.5c-1.76 0-3.12-.5-4.07-1.48-.94-.98-1.41-2.4-1.41-4.25V74h-2.68a.9.9 0 01-.6-.2c-.16-.14-.24-.36-.24-.66v-1.56l3.65-.46.9-6.89c.05-.22.14-.4.29-.52a.88.88 0 01.62-.22H142v7.67h6.44V74h-6.44v13.38c0 .94.22 1.63.68 2.09.45.45 1.04.68 1.76.68a3.21 3.21 0 001.85-.53l.55-.35c.16-.12.3-.18.41-.18.2 0 .4.13.55.38l1.15 1.87a7.45 7.45 0 01-2.44 1.5c-.96.35-1.94.52-2.95.52zm19.68-10.4c-1.8.07-3.34.21-4.62.45-1.26.22-2.3.51-3.1.88-.8.36-1.37.8-1.74 1.3-.35.5-.53 1.05-.53 1.67 0 .58.1 1.1.3 1.52.18.42.44.77.76 1.05.34.27.73.46 1.17.6.45.11.94.17 1.45.17a7.3 7.3 0 003.5-.81 12.04 12.04 0 002.82-2.2v-4.62zm-12.65-9.1a12.72 12.72 0 013.99-2.66c1.42-.59 3-.88 4.72-.88 1.25 0 2.36.2 3.33.61a6.81 6.81 0 013.94 4.38c.33 1.04.5 2.19.5 3.43V93h-1.74a1.8 1.8 0 01-.88-.18c-.2-.13-.36-.38-.48-.74l-.44-2.12c-.59.55-1.16 1.03-1.72 1.46a9.48 9.48 0 01-3.74 1.7c-.69.15-1.46.23-2.3.23-.87 0-1.69-.12-2.45-.35a5.33 5.33 0 01-3.34-2.93 6.62 6.62 0 01-.49-2.64c0-.88.25-1.72.73-2.53a6.33 6.33 0 012.35-2.17c1.09-.63 2.5-1.15 4.25-1.54 1.74-.41 3.89-.65 6.42-.7v-1.75c0-1.73-.37-3.03-1.12-3.91-.75-.9-1.84-1.34-3.28-1.34-.97 0-1.78.12-2.44.37-.64.23-1.2.5-1.7.81-.46.3-.87.57-1.22.82-.34.23-.68.35-1.02.35-.26 0-.49-.07-.68-.2-.19-.14-.35-.32-.48-.53l-.7-1.25z"
    fill="#fff"
  />
  <path fill="#D42B21" d="M0 106.79h210V120H0z" />
</g>
<defs>
  <clipPath id="clip0"><path fill="#fff" d="M0 0h210v120H0z" /></clipPath>
</defs>
</svg></g><a href="http://localhost:3099/grapher/long-term-cereal-yields-in-the-united-kingdom" style="font-family:&quot;Playfair Display&quot;, Georgia, &quot;Times New Roman&quot;, serif" target="_blank"><text font-size="25.20" x="15.0" y="35.2" fill="#555"><tspan x="15" y="35.160000000000004">Long-term cereal yields in the United Kingdom, 1270 to 2014</tspan></text></a><text font-size="14.40" x="15.0" y="55.7" fill="#666"><tspan x="15" y="55.72">Average agricultural yields in key crops in the United Kingdom from 1270-2014, measured in tonnes per hectare.</tspan></text></g><g class="LineChart"><defs><clipPath id="boundsClip-614"><rect x="50.824" y="0" width="830" height="955.8"></rect></clipPath></defs><g class="AxisBoxView"><g class="HorizontalAxis"><line x1="60.8" y1="535.3" x2="60.8" y2="539.3" stroke="#ccc"></line><line x1="183.1" y1="535.3" x2="183.1" y2="539.3" stroke="#ccc"></line><line x1="277.2" y1="535.3" x2="277.2" y2="539.3" stroke="#ccc"></line><line x1="371.3" y1="535.3" x2="371.3" y2="539.3" stroke="#ccc"></line><line x1="465.4" y1="535.3" x2="465.4" y2="539.3" stroke="#ccc"></line><line x1="559.5" y1="535.3" x2="559.5" y2="539.3" stroke="#ccc"></line><line x1="653.6" y1="535.3" x2="653.6" y2="539.3" stroke="#ccc"></line><line x1="760.9" y1="535.3" x2="760.9" y2="539.3" stroke="#ccc"></line><text x="60.8" y="556.5" fill="#666" text-anchor="middle" font-size="16.2">1270</text><text x="183.1" y="556.5" fill="#666" text-anchor="middle" font-size="16.2">1400</text><text x="277.2" y="556.5" fill="#666" text-anchor="middle" font-size="16.2">1500</text><text x="371.3" y="556.5" fill="#666" text-anchor="middle" font-size="16.2">1600</text><text x="465.4" y="556.5" fill="#666" text-anchor="middle" font-size="16.2">1700</text><text x="559.5" y="556.5" fill="#666" text-anchor="middle" font-size="16.2">1800</text><text x="653.6" y="556.5" fill="#666" text-anchor="middle" font-size="16.2">1900</text><text x="760.9" y="556.5" fill="#666" text-anchor="middle" font-size="16.2">2014</text></g><g class="VerticalAxis"><text x="55.82" y="535.3" fill="#666" dominant-baseline="middle" text-anchor="end" font-size="16.2">0 t/ha</text><text x="55.82" y="428.8" fill="#666" dominant-baseline="middle" text-anchor="end" font-size="16.2">2 t/ha</text><text x="55.82" y="322.3" fill="#666" dominant-baseline="middle" text-anchor="end" font-size="16.2">4 t/ha</text><text x="55.82" y="215.8" fill="#666" dominant-baseline="middle" text-anchor="end" font-size="16.2">6 t/ha</text><text x="55.82" y="109.3" fill="#666" dominant-baseline="middle" text-anchor="end" font-size="16.2">8 t/ha</text></g><g class="AxisGridLines horizontalLines"><line x1="60.82" y1="535.3" x2="760.85" y2="535.3" stroke="#ccc"></line><line x1="60.82" y1="428.8" x2="760.85" y2="428.8" stroke="#ddd" stroke-dasharray="3,2"></line><line x1="60.82" y1="322.3" x2="760.85" y2="322.3" stroke="#ddd" stroke-dasharray="3,2"></line><line x1="60.82" y1="215.8" x2="760.85" y2="215.8" stroke="#ddd" stroke-dasharray="3,2"></line><line x1="60.82" y1="109.3" x2="760.85" y2="109.3" stroke="#ddd" stroke-dasharray="3,2"></line></g></g><g clip-path="url(#boundsClip-614)"><g class="HeightedLegend" style="cursor:pointer"><g class="legendMark"><rect x="760.85" y="78.6" width="74.15" height="13.5" fill="#fff" opacity="0"></rect><text font-size="13.50" x="764.9" y="89.4" fill="#00847E"><tspan x="764.85" y="89.39999999999999">Wheat</tspan></text></g><g class="legendMark"><rect x="760.85" y="187.85" width="73.34" height="13.5" fill="#fff" opacity="0"></rect><text font-size="13.50" x="764.9" y="198.7" fill="#B13507"><tspan x="764.85" y="198.65">Barley</tspan></text></g><g class="legendMark"><rect x="760.85" y="209.85" width="63.620000000000005" height="13.5" fill="#fff" opacity="0"></rect><text font-size="13.50" x="764.9" y="220.7" fill="#3C4E66"><tspan x="764.85" y="220.65">Oats</tspan></text></g></g><g class="Lines"><rect x="61" y="79" width="700" height="457" fill="rgba(255,255,255,0)" opacity="0"></rect><g class="key-United-Kingdom_0"><path stroke="#00847E" stroke-linecap="round" d="M61 508L62 510L63 499L64 510L65 512L66 493L67 510L67 500L68 490L69 510L70 509L71 506L72 505L73 515L74 507L75 506L76 507L77 497L78 501L79 509L80 510L81 507L82 507L83 509L83 510L84 504L85 501L86 503L87 497L88 505L89 508L90 504L91 507L92 501L93 515L94 506L95 506L96 506L97 508L98 503L99 511L99 501L100 504L101 501L102 504L103 518L104 521L105 512L106 497L107 499L108 502L109 515L110 511L111 510L112 512L113 499L114 497L115 505L115 511L116 506L117 505L118 509L119 503L120 497L121 502L122 508L123 506L124 500L125 501L126 522L127 505L128 513L129 507L130 512L131 502L131 505L132 515L133 513L134 509L135 522L136 519L137 515L138 501L139 512L140 514L141 509L142 514L143 513L144 509L145 510L146 510L146 510L147 514L148 520L149 504L150 510L151 503L152 516L153 509L154 518L155 510L156 510L157 519L158 507L159 515L160 519L161 501L162 500L162 505L163 515L164 511L165 507L166 504L167 508L168 498L169 510L170 500L171 498L172 512L173 507L174 521L175 505L176 489L177 515L178 496L178 510L179 510L180 509L181 503L182 512L183 518L184 517L185 515L186 507L187 505L188 502L189 514L190 508L191 516L192 513L193 505L194 509L194 514L195 516L196 513L197 515L198 520L199 506L200 518L201 515L202 516L203 525L204 519L205 513L206 508L207 513L208 512L209 517L210 527L210 520L211 515L212 518L213 521L214 520L215 518L216 522L217 517L218 525L219 527L220 523L221 515L222 525L223 525L224 509L225 500L226 522L226 521L227 507L228 521L229 518L230 520L231 517L232 516L233 516L234 512L235 513L236 513L237 525L238 517L239 518L240 518L241 520L242 505L242 498L243 505L244 513L245 520L246 513L247 512L248 507L249 514L250 522L251 525L252 514L253 519L254 515L255 527L256 527L257 517L258 514L258 502L259 513L260 523L261 520L262 518L263 522L264 508L265 514L266 513L267 512L268 518L269 513L270 513L271 513L325 505L326 517L327 486L328 495L329 499L330 514L331 503L332 477L333 488L334 506L335 500L336 497L337 473L337 494L338 488L339 480L340 478L341 485L342 484L343 496L344 506L345 514L346 493L347 516L348 496L349 483L350 520L351 492L352 487L353 500L353 502L354 505L355 488L356 481L357 505L358 516L359 494L360 482L361 501L362 489L363 501L364 499L365 493L366 519L367 511L368 519L369 520L369 511L370 495L371 492L372 503L373 489L374 486L375 491L376 495L377 490L378 503L379 507L380 486L381 464L382 494L383 471L384 490L385 495L385 486L386 502L387 484L388 488L389 499L390 459L391 488L392 501L393 501L394 481L395 479L396 484L397 482L398 450L399 497L400 498L401 498L401 474L402 495L403 481L404 469L405 481L406 472L407 470L408 471L409 464L410 494L411 487L412 495L413 483L414 493L415 497L416 491L417 486L417 507L418 511L419 500L420 490L421 473L422 467L423 460L424 474L425 489L426 502L427 497L428 490L429 495L430 488L431 492L432 488L433 482L433 469L434 463L435 493L436 478L437 481L438 487L439 497L440 494L441 508L442 501L443 469L444 488L445 475L446 486L447 455L448 481L449 474L449 471L450 490L451 469L452 496L453 456L454 478L455 488L456 476L457 484L458 458L459 501L460 448L461 477L462 487L463 481L464 490L465 491L465 472L466 483L467 488L468 493L469 461L470 460L471 482L472 472L473 503L474 513L475 499L476 477L477 481L478 503L479 471L480 494L481 490L481 484L482 469L483 481L484 461L485 466L486 482L487 471L488 481L489 473L490 500L491 489L492 468L493 477L494 488L495 487L496 459L497 457L497 480L498 501L499 443L500 447L501 478L502 471L503 488L504 470L505 454L506 473L507 490L508 492L509 478L510 451L511 485L512 475L513 478L513 495L514 481L515 488L516 485L517 483L518 481L519 461L520 457L521 465L522 469L523 456L524 468L525 465L526 464L527 453L528 489L528 460L529 459L530 450L531 466L532 471L533 485L534 459L535 468L536 453L537 470L538 456L539 469L540 469L541 461L542 441L543 464L544 469L544 463L545 464L546 456L547 483L548 472L549 481L550 474L551 466L552 474L553 460L554 489L555 477L556 469L557 467L558 468L559 481L560 487L560 460L561 458L562 466L563 485L564 463L565 453L566 447L567 470L568 469L569 460L570 485L571 477L572 452L573 481L574 466L575 473L576 447L576 451L577 481L578 439L579 455L580 460L581 462L582 458L583 443L584 458L585 451L586 479L587 466L588 458L589 449L590 450L591 456L592 454L592 437L593 448L594 436L595 445L596 449L597 433L598 450L599 431L600 446L601 412L602 439L603 434L604 414L605 434L606 417L607 438L608 438L608 434L609 455L610 421L611 453L612 434L613 442L614 425L615 437L616 465L617 446L618 438L619 400L620 418L621 443L622 438L623 430L624 409L624 418L625 417L640 426L663 420L682 417L693 399L711 347L712 304L713 327L714 309L715 319L716 331L717 313L718 346L719 320L720 312L720 302L721 310L722 303L723 271L724 305L725 330L726 274L727 256L728 257L729 222L730 224L731 205L732 196L733 124L734 198L735 164L735 217L736 204L737 177L738 164L739 149L740 172L741 145L742 144L743 125L744 102L745 143L746 133L747 107L748 109L749 158L750 109L751 121L751 121L752 111L753 107L754 151L755 94L756 113L757 127L758 123L759 181L760 142L761 79" fill="none" stroke-width="1.5"></path></g><g class="key-United-Kingdom_1"><path stroke="#B13507" stroke-linecap="round" d="M61 493L62 487L63 490L64 492L65 496L66 472L67 499L67 490L68 485L69 514L70 506L71 487L72 498L73 498L74 495L75 498L76 494L77 487L78 489L79 500L80 506L81 515L82 505L83 499L83 499L84 488L85 498L86 503L87 494L88 490L89 492L90 490L91 487L92 488L93 491L94 497L95 502L96 493L97 488L98 488L99 481L99 490L100 485L101 484L102 490L103 497L104 502L105 503L106 494L107 489L108 486L109 502L110 496L111 485L112 496L113 490L114 489L115 488L115 494L116 487L117 494L118 502L119 494L120 491L121 501L122 496L123 493L124 485L125 478L126 487L127 492L128 493L129 485L130 490L131 484L131 498L132 498L133 488L134 489L135 508L136 506L137 506L138 516L139 502L140 502L141 490L142 499L143 500L144 504L145 498L146 501L146 513L147 502L148 490L149 490L150 498L151 491L152 489L153 509L154 507L155 480L156 487L157 485L158 476L159 490L160 489L161 483L162 480L162 475L163 483L164 486L165 487L166 486L167 503L168 481L169 502L170 487L171 486L172 488L173 492L174 488L175 482L176 469L177 492L178 500L178 496L179 497L180 507L181 491L182 489L183 491L184 497L185 486L186 494L187 494L188 495L189 492L190 501L191 507L192 497L193 490L194 499L194 491L195 512L196 500L197 500L198 506L199 494L200 491L201 491L202 487L203 501L204 497L205 492L206 499L207 496L208 503L209 491L210 494L210 500L211 494L212 506L213 508L214 492L215 476L216 494L217 510L218 504L219 503L220 499L221 499L222 511L223 513L224 485L225 499L226 517L226 494L227 507L228 498L229 512L230 503L231 504L232 506L233 507L234 502L235 503L236 503L237 504L238 507L239 502L240 496L241 495L242 481L242 482L243 515L244 513L245 508L246 503L247 492L248 508L249 503L250 504L251 485L252 515L253 488L254 506L255 518L256 507L257 511L258 487L258 510L259 507L260 505L261 491L262 504L263 513L264 508L265 510L266 506L267 503L268 492L269 495L270 505L271 505L323 508L324 508L325 499L326 491L327 489L328 511L329 501L330 519L331 519L332 477L333 503L334 503L335 505L336 496L337 507L337 488L338 486L339 470L340 501L341 472L342 493L343 510L344 479L345 486L346 479L347 503L348 498L349 499L350 506L351 489L352 490L353 483L353 487L354 485L355 467L356 489L357 491L358 508L359 488L360 478L361 498L362 502L363 510L364 484L365 469L366 503L367 504L368 509L369 520L369 494L370 466L371 499L372 491L373 497L374 471L375 447L376 496L377 510L378 491L379 509L380 479L381 483L382 454L383 480L384 494L385 498L385 476L386 478L387 472L388 474L389 460L390 466L391 431L392 464L393 490L394 452L395 443L396 471L397 461L398 457L399 494L400 506L401 501L401 492L402 490L403 477L404 483L405 480L406 505L407 491L408 482L409 470L410 488L411 456L412 407L413 408L414 464L415 464L416 478L417 485L417 477L418 518L419 504L420 458L421 429L422 473L423 461L424 460L425 459L426 458L427 505L428 480L429 493L430 488L431 462L432 487L433 479L433 452L434 458L435 486L436 469L437 479L438 465L439 488L440 483L441 474L442 495L443 453L444 485L445 476L446 481L447 455L448 489L449 487L449 454L450 473L451 471L452 502L453 489L454 467L455 476L456 464L457 421L458 448L459 481L460 456L461 461L462 480L463 478L464 456L465 495L465 503L466 463L467 418L468 440L469 443L470 464L471 482L472 469L473 482L474 455L475 489L476 474L477 435L478 476L479 476L480 475L481 468L481 462L482 418L483 450L484 409L485 426L486 431L487 466L488 467L489 463L490 482L491 453L492 454L493 450L494 451L495 471L496 445L497 455L497 458L498 442L499 450L500 444L501 444L502 451L503 425L504 457L505 464L506 442L507 443L508 440L509 439L510 417L511 442L512 447L513 459L513 458L514 423L515 417L516 446L517 429L518 457L519 428L520 428L521 421L522 411L523 412L524 461L525 408L526 413L527 479L528 449L528 415L529 417L530 403L531 423L532 398L533 443L534 429L535 427L536 448L537 421L538 428L539 417L540 418L541 419L542 414L543 429L544 410L544 400L545 467L546 449L547 448L548 479L549 453L550 429L551 431L552 436L553 466L554 460L555 426L556 446L557 446L558 428L559 452L560 450L560 421L561 419L562 428L563 425L564 418L565 442L566 441L567 437L568 408L569 416L570 436L571 472L572 399L573 397L574 406L575 422L576 439L576 471L577 432L578 396L579 385L580 442L581 443L582 436L583 440L584 454L585 414L586 436L587 426L588 438L589 399L590 404L591 415L592 432L592 409L593 428L594 427L595 408L596 391L597 395L598 416L599 406L600 419L601 435L602 412L603 430L604 395L605 411L606 410L607 426L608 416L608 420L609 436L610 402L611 405L612 413L613 436L614 440L615 451L616 449L617 431L618 442L619 411L620 398L621 410L622 418L623 437L624 436L624 412L625 449L640 431L663 431L682 428L693 409L711 362L712 342L713 348L714 339L715 336L716 348L717 334L718 352L719 344L720 357L720 336L721 320L722 324L723 316L724 342L725 349L726 302L727 312L728 317L729 300L730 301L731 273L732 288L733 238L734 272L735 257L735 267L736 288L737 275L738 258L739 244L740 233L741 260L742 249L743 230L744 209L745 229L746 254L747 238L748 229L749 251L750 239L751 221L751 229L752 223L753 219L754 234L755 218L756 225L757 232L758 234L759 242L760 224L761 195" fill="none" stroke-width="1.5"></path></g><g class="key-United-Kingdom_2"><path stroke="#3C4E66" stroke-linecap="round" d="M61 494L62 496L63 502L64 498L65 498L66 500L67 499L67 494L68 500L69 506L70 500L71 500L72 497L73 498L74 502L75 498L76 504L77 503L78 500L79 502L80 494L81 504L82 504L83 496L83 503L84 502L85 495L86 501L87 497L88 501L89 501L90 501L91 501L92 506L93 505L94 507L95 510L96 500L97 495L98 502L99 499L99 502L100 508L101 507L102 502L103 503L104 506L105 507L106 505L107 502L108 499L109 513L110 504L111 500L112 513L113 504L114 504L115 498L115 508L116 504L117 506L118 509L119 502L120 509L121 503L122 503L123 504L124 506L125 498L126 513L127 510L128 502L129 500L130 506L131 503L131 516L132 507L133 500L134 502L135 519L136 517L137 504L138 520L139 513L140 510L141 506L142 516L143 505L144 507L145 506L146 504L146 509L147 505L148 504L149 509L150 508L151 507L152 507L153 512L154 507L155 500L156 498L157 506L158 503L159 502L160 507L161 504L162 499L162 505L163 509L164 505L165 500L166 504L167 503L168 508L169 503L170 504L171 504L172 503L173 510L174 512L175 504L176 504L177 509L178 512L178 504L179 506L180 515L181 502L182 508L183 503L184 510L185 502L186 512L187 509L188 505L189 510L190 514L191 521L192 515L193 504L194 506L194 514L195 519L196 505L197 513L198 513L199 519L200 509L201 492L202 509L203 517L204 512L205 505L206 499L207 508L208 509L209 515L210 487L210 499L211 508L212 488L213 470L214 487L215 509L216 503L217 518L218 526L219 508L220 502L221 495L222 518L223 515L224 484L225 484L226 488L226 483L227 516L228 452L229 516L230 500L231 500L232 497L233 488L234 514L235 507L236 500L237 516L238 498L239 503L240 509L241 499L242 509L242 529L243 512L244 510L245 507L246 524L247 506L248 509L249 511L250 520L251 520L252 515L253 498L254 509L255 479L256 482L257 504L258 514L258 505L259 500L260 495L261 518L262 502L263 516L264 478L265 502L266 502L267 502L268 506L269 525L270 513L271 513L272 505L273 497L327 495L328 496L329 492L330 522L331 493L332 492L333 483L334 489L335 450L336 516L337 519L337 475L338 509L339 496L340 479L341 494L342 490L343 497L344 511L345 513L346 499L347 498L348 490L349 511L350 485L351 492L352 479L353 499L353 444L354 514L355 420L356 483L357 484L358 485L359 502L360 480L361 508L362 479L363 495L364 514L365 488L366 491L367 512L368 510L369 520L369 507L370 486L371 496L372 496L373 491L374 461L375 487L376 487L377 501L378 484L379 471L380 489L381 444L382 497L383 498L384 488L385 481L385 486L386 504L387 478L388 467L389 476L390 474L391 424L392 470L393 469L394 469L395 446L396 466L397 417L398 465L399 484L400 484L401 484L401 491L402 455L403 478L404 482L405 504L406 493L407 494L408 464L409 474L410 492L411 478L412 476L413 513L414 471L415 484L416 508L417 486L417 482L418 477L419 518L420 511L421 490L422 482L423 469L424 477L425 488L426 501L427 510L428 491L429 492L430 495L431 494L432 494L433 500L433 467L434 484L435 488L436 507L437 498L438 494L439 482L440 501L441 514L442 478L443 491L444 486L445 494L446 485L447 469L448 500L449 516L449 481L450 502L451 507L452 493L453 489L454 508L455 496L456 518L457 472L458 498L459 469L460 484L461 508L462 490L463 501L464 501L465 509L465 505L466 509L467 495L468 498L469 468L470 482L471 488L472 494L473 510L474 505L475 512L476 484L477 506L478 474L479 480L480 493L481 496L481 481L482 502L483 521L484 451L485 471L486 498L487 499L488 473L489 451L490 449L491 472L492 472L493 465L494 459L495 510L496 480L497 489L497 464L498 451L499 482L500 470L501 499L502 469L503 456L504 474L505 497L506 446L507 459L508 433L509 432L510 474L511 436L512 448L513 491L513 455L514 432L515 456L516 436L517 462L518 463L519 429L520 402L521 459L522 415L523 433L524 481L525 481L526 437L527 479L528 465L528 461L529 452L530 462L531 470L532 454L533 477L534 468L535 463L536 465L537 428L538 453L539 454L540 428L541 428L542 441L543 465L544 452L544 454L545 444L546 439L547 468L548 477L549 445L550 434L551 455L552 410L553 492L554 502L555 418L556 364L557 431L558 407L559 457L560 435L560 396L561 401L562 459L563 462L564 460L565 464L566 446L567 461L568 431L569 425L570 450L571 439L572 441L573 435L574 430L575 444L576 446L576 453L577 412L578 418L579 431L580 455L581 429L582 440L583 465L584 476L585 437L586 430L587 428L588 415L589 406L590 397L591 422L592 431L592 407L593 405L594 406L595 410L596 399L597 370L598 393L599 424L600 377L601 415L602 388L603 429L604 432L605 433L606 389L607 390L608 379L608 411L609 452L610 411L611 397L612 397L613 445L614 418L615 421L616 436L617 413L618 426L619 382L620 410L621 416L622 385L623 414L624 441L624 380L625 381L640 447L663 444L682 430L693 420L711 395L712 382L713 386L714 378L715 375L716 373L717 355L718 364L719 353L720 363L720 336L721 324L722 331L723 336L724 354L725 362L726 319L727 327L728 323L729 319L730 306L731 298L732 306L733 276L734 291L735 259L735 293L736 292L737 298L738 271L739 266L740 269L741 257L742 243L743 242L744 208L745 228L746 217L747 222L748 223L749 240L750 217L751 208L751 226L752 224L753 215L754 241L755 226L756 228L757 241L758 236L759 262L760 245L761 217" fill="none" stroke-width="1.5"></path></g></g></g></g><g class="SourcesFooter" style="fill:#777"><g class="clickable" style="fill:#777"><text font-size="12.60" x="15.0" y="581.6"><tspan x="15" y="581.58">Source: OWID Long-term crop yields in UK - OWID (2017)</tspan></text></g><text font-size="12.60" x="475.6" y="581.6"><tspan x="475.648" y="581.58"><a target='_blank' style='fill: #777;' href='https://ourworldindata.org/yields-and-land-use-in-agriculture/'>OurWorldInData.org/yields-and-land-use-in-agriculture/</a> • <a style="fill: #777;" class="cclogo" href="http://creativecommons.org/licenses/by/4.0/deed.en_US" target="_blank">CC BY</a></tspan></text></g></svg>