<svg xmlns="http://www.w3.org/2000/svg" version="1.1" style="font-family:Lato, &#x27;Helvetica Neue&#x27;, Helvetica, Arial, sans-serif;font-size:18px;background-color:white;text-rendering:optimizeLegibility;-webkit-font-smoothing:antialiased" width="850" height="600" viewBox="0 0 850 600"><g class="HeaderView"><g transform="translate(774, 15) scale(0.29)"><svg width="210" height="120" viewBox="0 0 210 120" fill="none" xmlns="http://www.w3.org/2000/svg">
<g clip-path="url(#clip0)">
  <path d="M0 0h210v107.89H0V0z" fill="#002147" />
  <path
    d="M40.98 32.25c0 2.36-.38 4.53-1.12 6.51a14.26 14.26 0 01-8.1 8.4c-1.9.78-4.02 1.17-6.34 1.17-2.31 0-4.42-.39-6.33-1.17a14.31 14.31 0 01-8.08-8.4 18.29 18.29 0 01-1.12-6.51c0-2.36.38-4.53 1.12-6.5.75-1.97 1.8-3.67 3.17-5.1 1.37-1.43 3-2.55 4.9-3.34 1.92-.8 4.03-1.19 6.34-1.19 2.32 0 4.43.4 6.34 1.19 1.92.8 3.56 1.9 4.93 3.34a14.87 14.87 0 013.17 5.1 18.1 18.1 0 011.12 6.5zm-4.38 0c0-1.94-.26-3.68-.8-5.22a10.91 10.91 0 00-2.24-3.89 9.68 9.68 0 00-3.52-2.46 11.95 11.95 0 00-4.62-.86c-1.68 0-3.21.28-4.6.86a9.88 9.88 0 00-3.54 2.46 10.91 10.91 0 00-2.24 3.9c-.53 1.53-.8 3.27-.8 5.2 0 1.94.27 3.68.8 5.22a11.17 11.17 0 002.24 3.9 10.01 10.01 0 003.55 2.44c1.38.56 2.9.83 4.6.83 1.7 0 3.24-.27 4.61-.83a9.8 9.8 0 003.52-2.44 11.17 11.17 0 002.25-3.9c.53-1.54.8-3.28.8-5.21zm26.22-6.54V48H60.5c-.56 0-.9-.27-1.05-.81l-.31-2.4a12.45 12.45 0 01-3.26 2.6c-1.2.64-2.58.96-4.13.96-1.22 0-2.3-.2-3.24-.6a6.52 6.52 0 01-2.33-1.7 7.37 7.37 0 01-1.43-2.67c-.3-1.04-.46-2.2-.46-3.45V25.7h3.91v14.22c0 1.68.38 2.99 1.15 3.91.77.93 1.96 1.39 3.54 1.39 1.16 0 2.24-.27 3.23-.82a10.42 10.42 0 002.8-2.28V25.7h3.91zm8.61 4.47a9.94 9.94 0 012.6-3.56 5.64 5.64 0 013.76-1.3c.47 0 .92.05 1.34.15.44.1.83.27 1.17.49L80 28.88c-.09.37-.3.55-.66.55-.2 0-.5-.04-.9-.13a6.21 6.21 0 00-3.24.18c-.54.2-1.03.5-1.47.92-.42.4-.81.9-1.17 1.5-.33.58-.64 1.26-.92 2.02V48h-3.94V25.71h2.25c.42 0 .72.08.88.25.16.16.27.44.33.83l.26 3.39zm61.16-13.7L122.75 48h-3.82l-7.99-24.05a21.95 21.95 0 01-.42-1.58 38.36 38.36 0 01-.44 1.58L102.05 48h-3.83L88.4 16.47h3.54c.38 0 .7.1.95.29.26.2.43.43.5.73l6.52 21.9c.1.4.2.83.28 1.28.1.46.2.94.29 1.46l.3-1.46c.12-.47.25-.9.38-1.27l7.41-21.91c.1-.25.26-.48.51-.69.27-.22.58-.33.95-.33h1.23c.38 0 .69.1.92.29.24.2.41.43.53.73l7.4 21.9a28.4 28.4 0 01.68 2.62 29.52 29.52 0 01.52-2.61l6.54-21.91c.07-.27.23-.5.48-.7.27-.21.58-.32.95-.32h3.32zm9.35 8.88c1.63 0 3.1.27 4.4.82a9.43 9.43 0 015.46 5.94c.5 1.4.74 2.98.74 4.73 0 1.76-.25 3.34-.74 4.75a9.43 9.43 0 01-5.46 5.92c-1.3.52-2.77.79-4.4.79-1.64 0-3.12-.27-4.44-.8a9.42 9.42 0 01-3.35-2.3c-.92-1-1.63-2.2-2.13-3.61-.49-1.41-.73-3-.73-4.75s.24-3.33.73-4.73c.5-1.43 1.2-2.64 2.13-3.63.93-1 2.04-1.77 3.35-2.31 1.32-.55 2.8-.82 4.44-.82zm0 19.89c2.2 0 3.84-.73 4.93-2.2 1.08-1.48 1.63-3.54 1.63-6.18 0-2.66-.55-4.72-1.63-6.2-1.09-1.49-2.73-2.23-4.93-2.23-1.12 0-2.09.2-2.93.57-.82.39-1.5.94-2.06 1.65-.55.72-.96 1.61-1.24 2.67-.26 1.04-.4 2.22-.4 3.54 0 2.64.55 4.7 1.64 6.18 1.1 1.47 2.76 2.2 4.99 2.2zm17.97-15.07a9.94 9.94 0 012.6-3.56 5.64 5.64 0 013.76-1.3c.47 0 .91.05 1.34.15.44.1.83.27 1.16.49l-.28 2.92c-.09.37-.31.55-.66.55-.2 0-.5-.04-.9-.13a6.2 6.2 0 00-3.24.18c-.54.2-1.03.5-1.47.92-.43.4-.82.9-1.17 1.5a13.1 13.1 0 00-.92 2.02V48h-3.94V25.71h2.24c.43 0 .72.08.88.25.17.16.28.44.33.83l.27 3.39zm15.04-14.59V48h-3.92V15.6h3.92zm19.55 15.43a6.22 6.22 0 00-2.38-2.05 6.7 6.7 0 00-2.86-.6c-2.07 0-3.66.75-4.77 2.23-1.12 1.48-1.68 3.6-1.68 6.33 0 1.46.13 2.7.38 3.74a7.29 7.29 0 001.1 2.56 4.35 4.35 0 001.78 1.45c.7.3 1.5.46 2.4.46 1.29 0 2.41-.3 3.36-.88a9.6 9.6 0 002.67-2.49V31.02zm3.91-15.43V48h-2.33c-.56 0-.9-.27-1.06-.81l-.35-2.71a12.13 12.13 0 01-3.25 2.77 8.28 8.28 0 01-4.23 1.06 7.31 7.31 0 01-6.14-2.9c-.73-.96-1.3-2.15-1.69-3.57a18.35 18.35 0 01.07-9.48 11.29 11.29 0 011.89-3.7 8.7 8.7 0 017.06-3.34 7.96 7.96 0 016.12 2.62V15.59h3.91zM46.61 70.71V93H42.7V70.71h3.91zm.84-7c0 .39-.08.75-.24 1.09-.15.32-.35.61-.62.88-.25.25-.55.44-.9.59a2.67 2.67 0 01-2.16 0 2.9 2.9 0 01-1.45-1.47 2.67 2.67 0 010-2.16c.15-.35.35-.65.6-.9.25-.27.53-.47.85-.62a2.67 2.67 0 012.16 0c.35.15.65.35.9.62.27.25.47.55.62.9.16.34.24.7.24 1.08zm7.97 10.24c.49-.54 1-1.04 1.54-1.48a9.85 9.85 0 013.66-1.84 8.96 8.96 0 015.43.35c.94.4 1.72.97 2.33 1.71.63.74 1.11 1.62 1.43 2.67.32 1.04.49 2.19.49 3.45V93h-3.94V78.81c0-1.69-.4-3-1.17-3.92-.76-.93-1.93-1.4-3.5-1.4-1.15 0-2.24.27-3.25.83-1 .56-1.92 1.31-2.77 2.27V93h-3.94V70.71h2.35c.56 0 .9.28 1.04.82l.3 2.42zm57.7 3.3c0 2.36-.37 4.5-1.11 6.44a14.3 14.3 0 01-3.17 4.98c-1.37 1.37-3 2.45-4.93 3.2-1.9.76-4.02 1.13-6.33 1.13H85.8V61.47h11.77c2.31 0 4.42.39 6.33 1.15a13.8 13.8 0 018.1 8.18 17.75 17.75 0 011.12 6.45zm-4.37 0c0-1.94-.26-3.67-.8-5.2a10.94 10.94 0 00-2.23-3.87 9.57 9.57 0 00-3.53-2.42 12.23 12.23 0 00-4.61-.83h-7.5v24.62h7.5c1.7 0 3.24-.28 4.61-.84a9.7 9.7 0 003.53-2.4 10.94 10.94 0 002.24-3.87c.53-1.53.8-3.26.8-5.2zm19.8 5.72c-1.8.06-3.34.2-4.62.44-1.26.22-2.3.51-3.1.88-.8.36-1.37.8-1.74 1.3-.35.5-.53 1.05-.53 1.67 0 .58.1 1.1.3 1.52a3 3 0 00.76 1.05c.34.27.73.46 1.17.6.45.11.94.17 1.45.17a7.28 7.28 0 003.5-.81 11.95 11.95 0 002.82-2.2v-4.62zm-12.65-9.11a12.73 12.73 0 013.98-2.66c1.43-.59 3-.88 4.73-.88 1.25 0 2.36.2 3.33.61a6.81 6.81 0 013.94 4.38c.33 1.04.5 2.19.5 3.43V93h-1.74a1.8 1.8 0 01-.88-.18c-.2-.13-.36-.38-.48-.74l-.44-2.12c-.59.55-1.16 1.03-1.72 1.46a9.48 9.48 0 01-3.74 1.7c-.69.15-1.46.23-2.3.23-.87 0-1.69-.12-2.45-.35a5.34 5.34 0 01-3.34-2.93 6.64 6.64 0 01-.49-2.64c0-.88.25-1.72.73-2.53a6.33 6.33 0 012.35-2.17c1.09-.63 2.5-1.15 4.25-1.54 1.75-.41 3.89-.65 6.42-.7v-1.75c0-1.73-.37-3.03-1.12-3.91-.75-.9-1.84-1.34-3.28-1.34-.97 0-1.78.12-2.44.37-.64.23-1.2.5-1.7.81l-1.23.82c-.33.23-.67.35-1 .35-.27 0-.5-.07-.69-.2a2.1 2.1 0 01-.48-.53l-.7-1.25zm27.67 19.5c-1.76 0-3.12-.5-4.07-1.48-.94-.98-1.41-2.4-1.41-4.25V74h-2.68a.9.9 0 01-.6-.2c-.16-.14-.24-.36-.24-.66v-1.56l3.65-.46.9-6.89c.05-.22.14-.4.29-.52a.88.88 0 01.62-.22H142v7.67h6.44V74h-6.44v13.38c0 .94.22 1.63.68 2.09.45.45 1.04.68 1.76.68a3.21 3.21 0 001.85-.53l.55-.35c.16-.12.3-.18.41-.18.2 0 .4.13.55.38l1.15 1.87a7.45 7.45 0 01-2.44 1.5c-.96.35-1.94.52-2.95.52zm19.68-10.4c-1.8.07-3.34.21-4.62.45-1.26.22-2.3.51-3.1.88-.8.36-1.37.8-1.74 1.3-.35.5-.53 1.05-.53 1.67 0 .58.1 1.1.3 1.52.18.42.44.77.76 1.05.34.27.73.46 1.17.6.45.11.94.17 1.45.17a7.3 7.3 0 003.5-.81 12.04 12.04 0 002.82-2.2v-4.62zm-12.65-9.1a12.72 12.72 0 013.99-2.66c1.42-.59 3-.88 4.72-.88 1.25 0 2.36.2 3.33.61a6.81 6.81 0 013.94 4.38c.33 1.04.5 2.19.5 3.43V93h-1.74a1.8 1.8 0 01-.88-.18c-.2-.13-.36-.38-.48-.74l-.44-2.12c-.59.55-1.16 1.03-1.72 1.46a9.48 9.48 0 01-3.74 1.7c-.69.15-1.46.23-2.3.23-.87 0-1.69-.12-2.45-.35a5.33 5.33 0 01-3.34-2.93 6.62 6.62 0 01-.49-2.64c0-.88.25-1.72.73-2.53a6.33 6.33 0 012.35-2.17c1.09-.63 2.5-1.15 4.25-1.54 1.74-.41 3.89-.65 6.42-.7v-1.75c0-1.73-.37-3.03-1.12-3.91-.75-.9-1.84-1.34-3.28-1.34-.97 0-1.78.12-2.44.37-.64.23-1.2.5-1.7.81-.46.3-.87.57-1.22.82-.34.23-.68.35-1.02.35-.26 0-.49-.07-.68-.2-.19-.14-.35-.32-.48-.53l-.7-1.25z"
    fill="#fff"
  />
  <path fill="#D42B21" d="M0 106.79h210V120H0z" />
</g>
<defs>
  <clipPath id="clip0"><path fill="#fff" d="M0 0h210v120H0z" /></clipPath>
</defs>
</svg></g><a href="http://localhost:3099/grapher/number-of-under-five-deaths" style="font-family:&quot;Playfair Display&quot;, Georgia, &quot;Times New Roman&quot;, serif" target="_blank"><text font-size="25.20" x="15.0" y="35.2" fill="#555"><tspan x="15" y="35.160000000000004">Number of under-five deaths, 1960 to 2017</tspan></text></a><text font-size="14.40" x="15.0" y="55.7" fill="#666"><tspan x="15" y="55.72">Number of children dying before reaching age five.</tspan></text></g><g class="LineChart"><defs><clipPath id="boundsClip-1267"><rect x="78.526" y="0" width="830" height="955.8"></rect></clipPath></defs><g class="AxisBoxView"><g class="HorizontalAxis"><line x1="88.5" y1="535.3" x2="88.5" y2="539.3" stroke="#ccc"></line><line x1="202.4" y1="535.3" x2="202.4" y2="539.3" stroke="#ccc"></line><line x1="316.3" y1="535.3" x2="316.3" y2="539.3" stroke="#ccc"></line><line x1="430.2" y1="535.3" x2="430.2" y2="539.3" stroke="#ccc"></line><line x1="544" y1="535.3" x2="544" y2="539.3" stroke="#ccc"></line><line x1="657.9" y1="535.3" x2="657.9" y2="539.3" stroke="#ccc"></line><line x1="737.6" y1="535.3" x2="737.6" y2="539.3" stroke="#ccc"></line><text x="88.5" y="556.5" fill="#666" text-anchor="middle" font-size="16.2">1960</text><text x="202.4" y="556.5" fill="#666" text-anchor="middle" font-size="16.2">1970</text><text x="316.3" y="556.5" fill="#666" text-anchor="middle" font-size="16.2">1980</text><text x="430.2" y="556.5" fill="#666" text-anchor="middle" font-size="16.2">1990</text><text x="544" y="556.5" fill="#666" text-anchor="middle" font-size="16.2">2000</text><text x="657.9" y="556.5" fill="#666" text-anchor="middle" font-size="16.2">2010</text><text x="737.6" y="556.5" fill="#666" text-anchor="middle" font-size="16.2">2017</text></g><g class="VerticalAxis"><text x="83.53" y="535.3" fill="#666" dominant-baseline="middle" text-anchor="end" font-size="16.2">0</text><text x="83.53" y="462.7" fill="#666" dominant-baseline="middle" text-anchor="end" font-size="16.2">2 million</text><text x="83.53" y="390.1" fill="#666" dominant-baseline="middle" text-anchor="end" font-size="16.2">4 million</text><text x="83.53" y="317.5" fill="#666" dominant-baseline="middle" text-anchor="end" font-size="16.2">6 million</text><text x="83.53" y="244.9" fill="#666" dominant-baseline="middle" text-anchor="end" font-size="16.2">8 million</text><text x="83.53" y="172.3" fill="#666" dominant-baseline="middle" text-anchor="end" font-size="16.2">10 million</text><text x="83.53" y="99.7" fill="#666" dominant-baseline="middle" text-anchor="end" font-size="16.2">12 million</text></g><g class="AxisGridLines horizontalLines"><line x1="88.53" y1="535.3" x2="737.63" y2="535.3" stroke="#ccc"></line><line x1="88.53" y1="462.7" x2="737.63" y2="462.7" stroke="#ddd" stroke-dasharray="3,2"></line><line x1="88.53" y1="390.1" x2="737.63" y2="390.1" stroke="#ddd" stroke-dasharray="3,2"></line><line x1="88.53" y1="317.5" x2="737.63" y2="317.5" stroke="#ddd" stroke-dasharray="3,2"></line><line x1="88.53" y1="244.9" x2="737.63" y2="244.9" stroke="#ddd" stroke-dasharray="3,2"></line><line x1="88.53" y1="172.3" x2="737.63" y2="172.3" stroke="#ddd" stroke-dasharray="3,2"></line><line x1="88.53" y1="99.7" x2="737.63" y2="99.7" stroke="#ddd" stroke-dasharray="3,2"></line></g></g><g clip-path="url(#boundsClip-1267)"><g class="HeightedLegend" style="cursor:pointer"><g class="legendMark"><g class="indicator"><path d="M741.63,338.7 H755.13 V338.7 H768.63" stroke="#999" stroke-width="0.5" fill="none"></path></g><rect x="737.63" y="331.95" width="70.235" height="13.5" fill="#fff" opacity="0"></rect><text font-size="13.50" x="772.6" y="342.8" fill="#00823F"><tspan x="772.63" y="342.75">World</tspan></text></g><g class="legendMark"><g class="indicator"><path d="M741.63,499.4 H745.4871428571429 V451.04999999999995 H768.63" stroke="#999" stroke-width="0.5" fill="none"></path></g><rect x="737.63" y="444.29999999999995" width="64.43" height="13.5" fill="#fff" opacity="0"></rect><text font-size="13.50" x="772.6" y="455.1" fill="#883039"><tspan x="772.63" y="455.09999999999997">India</tspan></text></g><g class="legendMark"><g class="indicator"><path d="M741.63,529.7 H749.3442857142858 V466.54999999999995 H768.63" stroke="#999" stroke-width="0.5" fill="none"></path></g><rect x="737.63" y="459.79999999999995" width="70.37" height="13.5" fill="#fff" opacity="0"></rect><text font-size="13.50" x="772.6" y="470.6" fill="#CF0A66"><tspan x="772.63" y="470.59999999999997">China</tspan></text></g><g class="legendMark"><g class="indicator"><path d="M741.63,533.7 H753.2014285714286 V482.04999999999995 H768.63" stroke="#999" stroke-width="0.5" fill="none"></path></g><rect x="737.63" y="475.29999999999995" width="68.75" height="13.5" fill="#fff" opacity="0"></rect><text font-size="13.50" x="772.6" y="486.1" fill="#6D3E91"><tspan x="772.63" y="486.09999999999997">Brazil</tspan></text></g><g class="legendMark"><g class="indicator"><path d="M741.63,534.3 H757.0585714285714 V497.54999999999995 H768.63" stroke="#999" stroke-width="0.5" fill="none"></path></g><rect x="737.63" y="490.79999999999995" width="97.37" height="13.5" fill="#fff" opacity="0"></rect><text font-size="13.50" x="772.6" y="501.6" fill="#00847E"><tspan x="772.63" y="501.59999999999997">Zimbabwe</tspan></text></g><g class="legendMark"><g class="indicator"><path d="M741.63,534.6 H760.9157142857143 V513.05 H768.63" stroke="#999" stroke-width="0.5" fill="none"></path></g><rect x="737.63" y="506.29999999999995" width="62" height="13.5" fill="#fff" opacity="0"></rect><text font-size="13.50" x="772.6" y="517.1" fill="#B13507"><tspan x="772.63" y="517.0999999999999">Haiti</tspan></text></g><g class="legendMark"><g class="indicator"><path d="M741.63,535.2 H764.7728571428572 V528.55 H768.63" stroke="#999" stroke-width="0.5" fill="none"></path></g><rect x="737.63" y="521.8" width="94.535" height="13.5" fill="#fff" opacity="0"></rect><text font-size="13.50" x="772.6" y="532.6" fill="#3C4E66"><tspan x="772.63" y="532.5999999999999">Botswana</tspan></text></g></g><g class="Lines"><rect x="89" y="79" width="649" height="457" fill="rgba(255,255,255,0)" opacity="0"></rect><g class="key-World_0"><path stroke="#00823F" stroke-linecap="round" d="M430 79L442 87L453 97L464 107L476 115L487 126L499 137L510 147L521 157L533 168L544 179L555 190L567 201L578 212L590 222L601 233L612 244L624 254L635 263L647 274L658 282L669 292L681 301L692 310L704 317L715 325L726 332L738 339" fill="none" stroke-width="1.5"></path><g fill="#00823F"><circle cx="430" cy="79" r="2"></circle><circle cx="442" cy="87" r="2"></circle><circle cx="453" cy="97" r="2"></circle><circle cx="464" cy="107" r="2"></circle><circle cx="476" cy="115" r="2"></circle><circle cx="487" cy="126" r="2"></circle><circle cx="499" cy="137" r="2"></circle><circle cx="510" cy="147" r="2"></circle><circle cx="521" cy="157" r="2"></circle><circle cx="533" cy="168" r="2"></circle><circle cx="544" cy="179" r="2"></circle><circle cx="555" cy="190" r="2"></circle><circle cx="567" cy="201" r="2"></circle><circle cx="578" cy="212" r="2"></circle><circle cx="590" cy="222" r="2"></circle><circle cx="601" cy="233" r="2"></circle><circle cx="612" cy="244" r="2"></circle><circle cx="624" cy="254" r="2"></circle><circle cx="635" cy="263" r="2"></circle><circle cx="647" cy="274" r="2"></circle><circle cx="658" cy="282" r="2"></circle><circle cx="669" cy="292" r="2"></circle><circle cx="681" cy="301" r="2"></circle><circle cx="692" cy="310" r="2"></circle><circle cx="704" cy="317" r="2"></circle><circle cx="715" cy="325" r="2"></circle><circle cx="726" cy="332" r="2"></circle><circle cx="738" cy="339" r="2"></circle></g></g><g class="key-India_0"><path stroke="#883039" stroke-linecap="round" d="M89 375L100 375L111 375L123 375L134 375L146 375L157 375L168 374L180 374L191 374L202 374L214 374L225 374L237 375L248 376L259 377L271 379L282 381L294 383L305 385L316 388L328 390L339 392L350 393L362 395L373 397L385 400L396 403L407 406L419 409L430 412L442 415L453 418L464 421L476 424L487 427L499 430L510 433L521 437L533 440L544 444L555 447L567 451L578 454L590 458L601 461L612 465L624 468L635 472L647 476L658 479L669 483L681 486L692 489L704 492L715 495L726 497L738 499" fill="none" stroke-width="1.5"></path><g fill="#883039"><circle cx="89" cy="375" r="2"></circle><circle cx="100" cy="375" r="2"></circle><circle cx="111" cy="375" r="2"></circle><circle cx="123" cy="375" r="2"></circle><circle cx="134" cy="375" r="2"></circle><circle cx="146" cy="375" r="2"></circle><circle cx="157" cy="375" r="2"></circle><circle cx="168" cy="374" r="2"></circle><circle cx="180" cy="374" r="2"></circle><circle cx="191" cy="374" r="2"></circle><circle cx="202" cy="374" r="2"></circle><circle cx="214" cy="374" r="2"></circle><circle cx="225" cy="374" r="2"></circle><circle cx="237" cy="375" r="2"></circle><circle cx="248" cy="376" r="2"></circle><circle cx="259" cy="377" r="2"></circle><circle cx="271" cy="379" r="2"></circle><circle cx="282" cy="381" r="2"></circle><circle cx="294" cy="383" r="2"></circle><circle cx="305" cy="385" r="2"></circle><circle cx="316" cy="388" r="2"></circle><circle cx="328" cy="390" r="2"></circle><circle cx="339" cy="392" r="2"></circle><circle cx="350" cy="393" r="2"></circle><circle cx="362" cy="395" r="2"></circle><circle cx="373" cy="397" r="2"></circle><circle cx="385" cy="400" r="2"></circle><circle cx="396" cy="403" r="2"></circle><circle cx="407" cy="406" r="2"></circle><circle cx="419" cy="409" r="2"></circle><circle cx="430" cy="412" r="2"></circle><circle cx="442" cy="415" r="2"></circle><circle cx="453" cy="418" r="2"></circle><circle cx="464" cy="421" r="2"></circle><circle cx="476" cy="424" r="2"></circle><circle cx="487" cy="427" r="2"></circle><circle cx="499" cy="430" r="2"></circle><circle cx="510" cy="433" r="2"></circle><circle cx="521" cy="437" r="2"></circle><circle cx="533" cy="440" r="2"></circle><circle cx="544" cy="444" r="2"></circle><circle cx="555" cy="447" r="2"></circle><circle cx="567" cy="451" r="2"></circle><circle cx="578" cy="454" r="2"></circle><circle cx="590" cy="458" r="2"></circle><circle cx="601" cy="461" r="2"></circle><circle cx="612" cy="465" r="2"></circle><circle cx="624" cy="468" r="2"></circle><circle cx="635" cy="472" r="2"></circle><circle cx="647" cy="476" r="2"></circle><circle cx="658" cy="479" r="2"></circle><circle cx="669" cy="483" r="2"></circle><circle cx="681" cy="486" r="2"></circle><circle cx="692" cy="489" r="2"></circle><circle cx="704" cy="492" r="2"></circle><circle cx="715" cy="495" r="2"></circle><circle cx="726" cy="497" r="2"></circle><circle cx="738" cy="499" r="2"></circle></g></g><g class="key-China_0"><path stroke="#CF0A66" stroke-linecap="round" d="M248 449L259 458L271 466L282 473L294 479L305 484L316 488L328 490L339 490L350 490L362 489L373 488L385 486L396 484L407 483L419 483L430 485L442 487L453 490L464 494L476 497L487 501L499 504L510 507L521 509L533 511L544 513L555 515L567 517L578 518L590 520L601 521L612 522L624 523L635 524L647 525L658 526L669 526L681 527L692 528L704 528L715 529L726 529L738 530" fill="none" stroke-width="1.5"></path><g fill="#CF0A66"><circle cx="248" cy="449" r="2"></circle><circle cx="259" cy="458" r="2"></circle><circle cx="271" cy="466" r="2"></circle><circle cx="282" cy="473" r="2"></circle><circle cx="294" cy="479" r="2"></circle><circle cx="305" cy="484" r="2"></circle><circle cx="316" cy="488" r="2"></circle><circle cx="328" cy="490" r="2"></circle><circle cx="339" cy="490" r="2"></circle><circle cx="350" cy="490" r="2"></circle><circle cx="362" cy="489" r="2"></circle><circle cx="373" cy="488" r="2"></circle><circle cx="385" cy="486" r="2"></circle><circle cx="396" cy="484" r="2"></circle><circle cx="407" cy="483" r="2"></circle><circle cx="419" cy="483" r="2"></circle><circle cx="430" cy="485" r="2"></circle><circle cx="442" cy="487" r="2"></circle><circle cx="453" cy="490" r="2"></circle><circle cx="464" cy="494" r="2"></circle><circle cx="476" cy="497" r="2"></circle><circle cx="487" cy="501" r="2"></circle><circle cx="499" cy="504" r="2"></circle><circle cx="510" cy="507" r="2"></circle><circle cx="521" cy="509" r="2"></circle><circle cx="533" cy="511" r="2"></circle><circle cx="544" cy="513" r="2"></circle><circle cx="555" cy="515" r="2"></circle><circle cx="567" cy="517" r="2"></circle><circle cx="578" cy="518" r="2"></circle><circle cx="590" cy="520" r="2"></circle><circle cx="601" cy="521" r="2"></circle><circle cx="612" cy="522" r="2"></circle><circle cx="624" cy="523" r="2"></circle><circle cx="635" cy="524" r="2"></circle><circle cx="647" cy="525" r="2"></circle><circle cx="658" cy="526" r="2"></circle><circle cx="669" cy="526" r="2"></circle><circle cx="681" cy="527" r="2"></circle><circle cx="692" cy="528" r="2"></circle><circle cx="704" cy="528" r="2"></circle><circle cx="715" cy="529" r="2"></circle><circle cx="726" cy="529" r="2"></circle><circle cx="738" cy="530" r="2"></circle></g></g><g class="key-Brazil_0"><path stroke="#6D3E91" stroke-linecap="round" d="M89 517L100 517L111 518L123 518L134 518L146 518L157 518L168 519L180 519L191 519L202 519L214 520L225 520L237 520L248 521L259 521L271 521L282 521L294 521L305 522L316 522L328 523L339 523L350 523L362 524L373 524L385 525L396 525L407 526L419 526L430 527L442 527L453 528L464 528L476 529L487 529L499 529L510 530L521 530L533 531L544 531L555 531L567 532L578 532L590 532L601 532L612 533L624 533L635 533L647 533L658 533L669 533L681 533L692 534L704 534L715 534L726 534L738 534" fill="none" stroke-width="1.5"></path><g fill="#6D3E91"><circle cx="89" cy="517" r="2"></circle><circle cx="100" cy="517" r="2"></circle><circle cx="111" cy="518" r="2"></circle><circle cx="123" cy="518" r="2"></circle><circle cx="134" cy="518" r="2"></circle><circle cx="146" cy="518" r="2"></circle><circle cx="157" cy="518" r="2"></circle><circle cx="168" cy="519" r="2"></circle><circle cx="180" cy="519" r="2"></circle><circle cx="191" cy="519" r="2"></circle><circle cx="202" cy="519" r="2"></circle><circle cx="214" cy="520" r="2"></circle><circle cx="225" cy="520" r="2"></circle><circle cx="237" cy="520" r="2"></circle><circle cx="248" cy="521" r="2"></circle><circle cx="259" cy="521" r="2"></circle><circle cx="271" cy="521" r="2"></circle><circle cx="282" cy="521" r="2"></circle><circle cx="294" cy="521" r="2"></circle><circle cx="305" cy="522" r="2"></circle><circle cx="316" cy="522" r="2"></circle><circle cx="328" cy="523" r="2"></circle><circle cx="339" cy="523" r="2"></circle><circle cx="350" cy="523" r="2"></circle><circle cx="362" cy="524" r="2"></circle><circle cx="373" cy="524" r="2"></circle><circle cx="385" cy="525" r="2"></circle><circle cx="396" cy="525" r="2"></circle><circle cx="407" cy="526" r="2"></circle><circle cx="419" cy="526" r="2"></circle><circle cx="430" cy="527" r="2"></circle><circle cx="442" cy="527" r="2"></circle><circle cx="453" cy="528" r="2"></circle><circle cx="464" cy="528" r="2"></circle><circle cx="476" cy="529" r="2"></circle><circle cx="487" cy="529" r="2"></circle><circle cx="499" cy="529" r="2"></circle><circle cx="510" cy="530" r="2"></circle><circle cx="521" cy="530" r="2"></circle><circle cx="533" cy="531" r="2"></circle><circle cx="544" cy="531" r="2"></circle><circle cx="555" cy="531" r="2"></circle><circle cx="567" cy="532" r="2"></circle><circle cx="578" cy="532" r="2"></circle><circle cx="590" cy="532" r="2"></circle><circle cx="601" cy="532" r="2"></circle><circle cx="612" cy="533" r="2"></circle><circle cx="624" cy="533" r="2"></circle><circle cx="635" cy="533" r="2"></circle><circle cx="647" cy="533" r="2"></circle><circle cx="658" cy="533" r="2"></circle><circle cx="669" cy="533" r="2"></circle><circle cx="681" cy="533" r="2"></circle><circle cx="692" cy="534" r="2"></circle><circle cx="704" cy="534" r="2"></circle><circle cx="715" cy="534" r="2"></circle><circle cx="726" cy="534" r="2"></circle><circle cx="738" cy="534" r="2"></circle></g></g><g class="key-Haiti_0"><path stroke="#B13507" stroke-linecap="round" d="M100 534L111 534L123 534L134 534L146 534L157 534L168 534L180 534L191 534L202 534L214 534L225 534L237 534L248 534L259 534L271 534L282 534L294 534L305 534L316 534L328 534L339 534L350 534L362 534L373 534L385 534L396 534L407 534L419 534L430 534L442 534L453 534L464 534L476 534L487 534L499 534L510 534L521 534L533 534L544 534L555 534L567 534L578 534L590 534L601 534L612 535L624 535L635 535L647 535L658 533L669 535L681 535L692 535L704 535L715 535L726 535L738 535" fill="none" stroke-width="1.5"></path><g fill="#B13507"><circle cx="100" cy="534" r="2"></circle><circle cx="111" cy="534" r="2"></circle><circle cx="123" cy="534" r="2"></circle><circle cx="134" cy="534" r="2"></circle><circle cx="146" cy="534" r="2"></circle><circle cx="157" cy="534" r="2"></circle><circle cx="168" cy="534" r="2"></circle><circle cx="180" cy="534" r="2"></circle><circle cx="191" cy="534" r="2"></circle><circle cx="202" cy="534" r="2"></circle><circle cx="214" cy="534" r="2"></circle><circle cx="225" cy="534" r="2"></circle><circle cx="237" cy="534" r="2"></circle><circle cx="248" cy="534" r="2"></circle><circle cx="259" cy="534" r="2"></circle><circle cx="271" cy="534" r="2"></circle><circle cx="282" cy="534" r="2"></circle><circle cx="294" cy="534" r="2"></circle><circle cx="305" cy="534" r="2"></circle><circle cx="316" cy="534" r="2"></circle><circle cx="328" cy="534" r="2"></circle><circle cx="339" cy="534" r="2"></circle><circle cx="350" cy="534" r="2"></circle><circle cx="362" cy="534" r="2"></circle><circle cx="373" cy="534" r="2"></circle><circle cx="385" cy="534" r="2"></circle><circle cx="396" cy="534" r="2"></circle><circle cx="407" cy="534" r="2"></circle><circle cx="419" cy="534" r="2"></circle><circle cx="430" cy="534" r="2"></circle><circle cx="442" cy="534" r="2"></circle><circle cx="453" cy="534" r="2"></circle><circle cx="464" cy="534" r="2"></circle><circle cx="476" cy="534" r="2"></circle><circle cx="487" cy="534" r="2"></circle><circle cx="499" cy="534" r="2"></circle><circle cx="510" cy="534" r="2"></circle><circle cx="521" cy="534" r="2"></circle><circle cx="533" cy="534" r="2"></circle><circle cx="544" cy="534" r="2"></circle><circle cx="555" cy="534" r="2"></circle><circle cx="567" cy="534" r="2"></circle><circle cx="578" cy="534" r="2"></circle><circle cx="590" cy="534" r="2"></circle><circle cx="601" cy="534" r="2"></circle><circle cx="612" cy="535" r="2"></circle><circle cx="624" cy="535" r="2"></circle><circle cx="635" cy="535" r="2"></circle><circle cx="647" cy="535" r="2"></circle><circle cx="658" cy="533" r="2"></circle><circle cx="669" cy="535" r="2"></circle><circle cx="681" cy="535" r="2"></circle><circle cx="692" cy="535" r="2"></circle><circle cx="704" cy="535" r="2"></circle><circle cx="715" cy="535" r="2"></circle><circle cx="726" cy="535" r="2"></circle><circle cx="738" cy="535" r="2"></circle></g></g><g class="key-Botswana_0"><path stroke="#3C4E66" stroke-linecap="round" d="M89 535L100 535L111 535L123 535L134 535L146 535L157 535L168 535L180 535L191 535L202 535L214 535L225 535L237 535L248 535L259 535L271 535L282 535L294 535L305 535L316 535L328 535L339 535L350 535L362 535L373 535L385 535L396 535L407 535L419 535L430 535L442 535L453 535L464 535L476 535L487 535L499 535L510 535L521 535L533 535L544 535L555 535L567 535L578 535L590 535L601 535L612 535L624 535L635 535L647 535L658 535L669 535L681 535L692 535L704 535L715 535L726 535L738 535" fill="none" stroke-width="1.5"></path><g fill="#3C4E66"><circle cx="89" cy="535" r="2"></circle><circle cx="100" cy="535" r="2"></circle><circle cx="111" cy="535" r="2"></circle><circle cx="123" cy="535" r="2"></circle><circle cx="134" cy="535" r="2"></circle><circle cx="146" cy="535" r="2"></circle><circle cx="157" cy="535" r="2"></circle><circle cx="168" cy="535" r="2"></circle><circle cx="180" cy="535" r="2"></circle><circle cx="191" cy="535" r="2"></circle><circle cx="202" cy="535" r="2"></circle><circle cx="214" cy="535" r="2"></circle><circle cx="225" cy="535" r="2"></circle><circle cx="237" cy="535" r="2"></circle><circle cx="248" cy="535" r="2"></circle><circle cx="259" cy="535" r="2"></circle><circle cx="271" cy="535" r="2"></circle><circle cx="282" cy="535" r="2"></circle><circle cx="294" cy="535" r="2"></circle><circle cx="305" cy="535" r="2"></circle><circle cx="316" cy="535" r="2"></circle><circle cx="328" cy="535" r="2"></circle><circle cx="339" cy="535" r="2"></circle><circle cx="350" cy="535" r="2"></circle><circle cx="362" cy="535" r="2"></circle><circle cx="373" cy="535" r="2"></circle><circle cx="385" cy="535" r="2"></circle><circle cx="396" cy="535" r="2"></circle><circle cx="407" cy="535" r="2"></circle><circle cx="419" cy="535" r="2"></circle><circle cx="430" cy="535" r="2"></circle><circle cx="442" cy="535" r="2"></circle><circle cx="453" cy="535" r="2"></circle><circle cx="464" cy="535" r="2"></circle><circle cx="476" cy="535" r="2"></circle><circle cx="487" cy="535" r="2"></circle><circle cx="499" cy="535" r="2"></circle><circle cx="510" cy="535" r="2"></circle><circle cx="521" cy="535" r="2"></circle><circle cx="533" cy="535" r="2"></circle><circle cx="544" cy="535" r="2"></circle><circle cx="555" cy="535" r="2"></circle><circle cx="567" cy="535" r="2"></circle><circle cx="578" cy="535" r="2"></circle><circle cx="590" cy="535" r="2"></circle><circle cx="601" cy="535" r="2"></circle><circle cx="612" cy="535" r="2"></circle><circle cx="624" cy="535" r="2"></circle><circle cx="635" cy="535" r="2"></circle><circle cx="647" cy="535" r="2"></circle><circle cx="658" cy="535" r="2"></circle><circle cx="669" cy="535" r="2"></circle><circle cx="681" cy="535" r="2"></circle><circle cx="692" cy="535" r="2"></circle><circle cx="704" cy="535" r="2"></circle><circle cx="715" cy="535" r="2"></circle><circle cx="726" cy="535" r="2"></circle><circle cx="738" cy="535" r="2"></circle></g></g><g class="key-Zimbabwe_0"><path stroke="#00847E" stroke-linecap="round" d="M89 534L100 534L111 534L123 534L134 534L146 534L157 534L168 534L180 534L191 534L202 534L214 534L225 534L237 534L248 534L259 534L271 534L282 534L294 534L305 534L316 534L328 534L339 534L350 534L362 534L373 534L385 534L396 534L407 534L419 534L430 534L442 534L453 534L464 534L476 534L487 534L499 534L510 534L521 534L533 534L544 534L555 534L567 534L578 534L590 534L601 534L612 534L624 534L635 534L647 534L658 534L669 534L681 534L692 534L704 534L715 534L726 534L738 534" fill="none" stroke-width="1.5"></path><g fill="#00847E"><circle cx="89" cy="534" r="2"></circle><circle cx="100" cy="534" r="2"></circle><circle cx="111" cy="534" r="2"></circle><circle cx="123" cy="534" r="2"></circle><circle cx="134" cy="534" r="2"></circle><circle cx="146" cy="534" r="2"></circle><circle cx="157" cy="534" r="2"></circle><circle cx="168" cy="534" r="2"></circle><circle cx="180" cy="534" r="2"></circle><circle cx="191" cy="534" r="2"></circle><circle cx="202" cy="534" r="2"></circle><circle cx="214" cy="534" r="2"></circle><circle cx="225" cy="534" r="2"></circle><circle cx="237" cy="534" r="2"></circle><circle cx="248" cy="534" r="2"></circle><circle cx="259" cy="534" r="2"></circle><circle cx="271" cy="534" r="2"></circle><circle cx="282" cy="534" r="2"></circle><circle cx="294" cy="534" r="2"></circle><circle cx="305" cy="534" r="2"></circle><circle cx="316" cy="534" r="2"></circle><circle cx="328" cy="534" r="2"></circle><circle cx="339" cy="534" r="2"></circle><circle cx="350" cy="534" r="2"></circle><circle cx="362" cy="534" r="2"></circle><circle cx="373" cy="534" r="2"></circle><circle cx="385" cy="534" r="2"></circle><circle cx="396" cy="534" r="2"></circle><circle cx="407" cy="534" r="2"></circle><circle cx="419" cy="534" r="2"></circle><circle cx="430" cy="534" r="2"></circle><circle cx="442" cy="534" r="2"></circle><circle cx="453" cy="534" r="2"></circle><circle cx="464" cy="534" r="2"></circle><circle cx="476" cy="534" r="2"></circle><circle cx="487" cy="534" r="2"></circle><circle cx="499" cy="534" r="2"></circle><circle cx="510" cy="534" r="2"></circle><circle cx="521" cy="534" r="2"></circle><circle cx="533" cy="534" r="2"></circle><circle cx="544" cy="534" r="2"></circle><circle cx="555" cy="534" r="2"></circle><circle cx="567" cy="534" r="2"></circle><circle cx="578" cy="534" r="2"></circle><circle cx="590" cy="534" r="2"></circle><circle cx="601" cy="534" r="2"></circle><circle cx="612" cy="534" r="2"></circle><circle cx="624" cy="534" r="2"></circle><circle cx="635" cy="534" r="2"></circle><circle cx="647" cy="534" r="2"></circle><circle cx="658" cy="534" r="2"></circle><circle cx="669" cy="534" r="2"></circle><circle cx="681" cy="534" r="2"></circle><circle cx="692" cy="534" r="2"></circle><circle cx="704" cy="534" r="2"></circle><circle cx="715" cy="534" r="2"></circle><circle cx="726" cy="534" r="2"></circle><circle cx="738" cy="534" r="2"></circle></g></g></g></g></g><g class="SourcesFooter" style="fill:#777"><g class="clickable" style="fill:#777"><text font-size="12.60" x="15.0" y="581.6"><tspan x="15" y="581.58">Source: World Bank</tspan></text></g><text font-size="12.60" x="796.4" y="581.6"><tspan x="796.444" y="581.58"><a style="fill: #777;" class="cclogo" href="http://creativecommons.org/licenses/by/4.0/deed.en_US" target="_blank">CC BY</a></tspan></text></g></svg>