<svg xmlns="http://www.w3.org/2000/svg" version="1.1" style="font-family:Lato, &#x27;Helvetica Neue&#x27;, Helvetica, Arial, sans-serif;font-size:18px;background-color:white;text-rendering:optimizeLegibility;-webkit-font-smoothing:antialiased" width="850" height="600" viewBox="0 0 850 600"><g class="HeaderView"><g transform="translate(774, 15) scale(0.29)"><svg width="210" height="120" viewBox="0 0 210 120" fill="none" xmlns="http://www.w3.org/2000/svg">
<g clip-path="url(#clip0)">
  <path d="M0 0h210v107.89H0V0z" fill="#002147" />
  <path
    d="M40.98 32.25c0 2.36-.38 4.53-1.12 6.51a14.26 14.26 0 01-8.1 8.4c-1.9.78-4.02 1.17-6.34 1.17-2.31 0-4.42-.39-6.33-1.17a14.31 14.31 0 01-8.08-8.4 18.29 18.29 0 01-1.12-6.51c0-2.36.38-4.53 1.12-6.5.75-1.97 1.8-3.67 3.17-5.1 1.37-1.43 3-2.55 4.9-3.34 1.92-.8 4.03-1.19 6.34-1.19 2.32 0 4.43.4 6.34 1.19 1.92.8 3.56 1.9 4.93 3.34a14.87 14.87 0 013.17 5.1 18.1 18.1 0 011.12 6.5zm-4.38 0c0-1.94-.26-3.68-.8-5.22a10.91 10.91 0 00-2.24-3.89 9.68 9.68 0 00-3.52-2.46 11.95 11.95 0 00-4.62-.86c-1.68 0-3.21.28-4.6.86a9.88 9.88 0 00-3.54 2.46 10.91 10.91 0 00-2.24 3.9c-.53 1.53-.8 3.27-.8 5.2 0 1.94.27 3.68.8 5.22a11.17 11.17 0 002.24 3.9 10.01 10.01 0 003.55 2.44c1.38.56 2.9.83 4.6.83 1.7 0 3.24-.27 4.61-.83a9.8 9.8 0 003.52-2.44 11.17 11.17 0 002.25-3.9c.53-1.54.8-3.28.8-5.21zm26.22-6.54V48H60.5c-.56 0-.9-.27-1.05-.81l-.31-2.4a12.45 12.45 0 01-3.26 2.6c-1.2.64-2.58.96-4.13.96-1.22 0-2.3-.2-3.24-.6a6.52 6.52 0 01-2.33-1.7 7.37 7.37 0 01-1.43-2.67c-.3-1.04-.46-2.2-.46-3.45V25.7h3.91v14.22c0 1.68.38 2.99 1.15 3.91.77.93 1.96 1.39 3.54 1.39 1.16 0 2.24-.27 3.23-.82a10.42 10.42 0 002.8-2.28V25.7h3.91zm8.61 4.47a9.94 9.94 0 012.6-3.56 5.64 5.64 0 013.76-1.3c.47 0 .92.05 1.34.15.44.1.83.27 1.17.49L80 28.88c-.09.37-.3.55-.66.55-.2 0-.5-.04-.9-.13a6.21 6.21 0 00-3.24.18c-.54.2-1.03.5-1.47.92-.42.4-.81.9-1.17 1.5-.33.58-.64 1.26-.92 2.02V48h-3.94V25.71h2.25c.42 0 .72.08.88.25.16.16.27.44.33.83l.26 3.39zm61.16-13.7L122.75 48h-3.82l-7.99-24.05a21.95 21.95 0 01-.42-1.58 38.36 38.36 0 01-.44 1.58L102.05 48h-3.83L88.4 16.47h3.54c.38 0 .7.1.95.29.26.2.43.43.5.73l6.52 21.9c.1.4.2.83.28 1.28.1.46.2.94.29 1.46l.3-1.46c.12-.47.25-.9.38-1.27l7.41-21.91c.1-.25.26-.48.51-.69.27-.22.58-.33.95-.33h1.23c.38 0 .69.1.92.29.24.2.41.43.53.73l7.4 21.9a28.4 28.4 0 01.68 2.62 29.52 29.52 0 01.52-2.61l6.54-21.91c.07-.27.23-.5.48-.7.27-.21.58-.32.95-.32h3.32zm9.35 8.88c1.63 0 3.1.27 4.4.82a9.43 9.43 0 015.46 5.94c.5 1.4.74 2.98.74 4.73 0 1.76-.25 3.34-.74 4.75a9.43 9.43 0 01-5.46 5.92c-1.3.52-2.77.79-4.4.79-1.64 0-3.12-.27-4.44-.8a9.42 9.42 0 01-3.35-2.3c-.92-1-1.63-2.2-2.13-3.61-.49-1.41-.73-3-.73-4.75s.24-3.33.73-4.73c.5-1.43 1.2-2.64 2.13-3.63.93-1 2.04-1.77 3.35-2.31 1.32-.55 2.8-.82 4.44-.82zm0 19.89c2.2 0 3.84-.73 4.93-2.2 1.08-1.48 1.63-3.54 1.63-6.18 0-2.66-.55-4.72-1.63-6.2-1.09-1.49-2.73-2.23-4.93-2.23-1.12 0-2.09.2-2.93.57-.82.39-1.5.94-2.06 1.65-.55.72-.96 1.61-1.24 2.67-.26 1.04-.4 2.22-.4 3.54 0 2.64.55 4.7 1.64 6.18 1.1 1.47 2.76 2.2 4.99 2.2zm17.97-15.07a9.94 9.94 0 012.6-3.56 5.64 5.64 0 013.76-1.3c.47 0 .91.05 1.34.15.44.1.83.27 1.16.49l-.28 2.92c-.09.37-.31.55-.66.55-.2 0-.5-.04-.9-.13a6.2 6.2 0 00-3.24.18c-.54.2-1.03.5-1.47.92-.43.4-.82.9-1.17 1.5a13.1 13.1 0 00-.92 2.02V48h-3.94V25.71h2.24c.43 0 .72.08.88.25.17.16.28.44.33.83l.27 3.39zm15.04-14.59V48h-3.92V15.6h3.92zm19.55 15.43a6.22 6.22 0 00-2.38-2.05 6.7 6.7 0 00-2.86-.6c-2.07 0-3.66.75-4.77 2.23-1.12 1.48-1.68 3.6-1.68 6.33 0 1.46.13 2.7.38 3.74a7.29 7.29 0 001.1 2.56 4.35 4.35 0 001.78 1.45c.7.3 1.5.46 2.4.46 1.29 0 2.41-.3 3.36-.88a9.6 9.6 0 002.67-2.49V31.02zm3.91-15.43V48h-2.33c-.56 0-.9-.27-1.06-.81l-.35-2.71a12.13 12.13 0 01-3.25 2.77 8.28 8.28 0 01-4.23 1.06 7.31 7.31 0 01-6.14-2.9c-.73-.96-1.3-2.15-1.69-3.57a18.35 18.35 0 01.07-9.48 11.29 11.29 0 011.89-3.7 8.7 8.7 0 017.06-3.34 7.96 7.96 0 016.12 2.62V15.59h3.91zM46.61 70.71V93H42.7V70.71h3.91zm.84-7c0 .39-.08.75-.24 1.09-.15.32-.35.61-.62.88-.25.25-.55.44-.9.59a2.67 2.67 0 01-2.16 0 2.9 2.9 0 01-1.45-1.47 2.67 2.67 0 010-2.16c.15-.35.35-.65.6-.9.25-.27.53-.47.85-.62a2.67 2.67 0 012.16 0c.35.15.65.35.9.62.27.25.47.55.62.9.16.34.24.7.24 1.08zm7.97 10.24c.49-.54 1-1.04 1.54-1.48a9.85 9.85 0 013.66-1.84 8.96 8.96 0 015.43.35c.94.4 1.72.97 2.33 1.71.63.74 1.11 1.62 1.43 2.67.32 1.04.49 2.19.49 3.45V93h-3.94V78.81c0-1.69-.4-3-1.17-3.92-.76-.93-1.93-1.4-3.5-1.4-1.15 0-2.24.27-3.25.83-1 .56-1.92 1.31-2.77 2.27V93h-3.94V70.71h2.35c.56 0 .9.28 1.04.82l.3 2.42zm57.7 3.3c0 2.36-.37 4.5-1.11 6.44a14.3 14.3 0 01-3.17 4.98c-1.37 1.37-3 2.45-4.93 3.2-1.9.76-4.02 1.13-6.33 1.13H85.8V61.47h11.77c2.31 0 4.42.39 6.33 1.15a13.8 13.8 0 018.1 8.18 17.75 17.75 0 011.12 6.45zm-4.37 0c0-1.94-.26-3.67-.8-5.2a10.94 10.94 0 00-2.23-3.87 9.57 9.57 0 00-3.53-2.42 12.23 12.23 0 00-4.61-.83h-7.5v24.62h7.5c1.7 0 3.24-.28 4.61-.84a9.7 9.7 0 003.53-2.4 10.94 10.94 0 002.24-3.87c.53-1.53.8-3.26.8-5.2zm19.8 5.72c-1.8.06-3.34.2-4.62.44-1.26.22-2.3.51-3.1.88-.8.36-1.37.8-1.74 1.3-.35.5-.53 1.05-.53 1.67 0 .58.1 1.1.3 1.52a3 3 0 00.76 1.05c.34.27.73.46 1.17.6.45.11.94.17 1.45.17a7.28 7.28 0 003.5-.81 11.95 11.95 0 002.82-2.2v-4.62zm-12.65-9.11a12.73 12.73 0 013.98-2.66c1.43-.59 3-.88 4.73-.88 1.25 0 2.36.2 3.33.61a6.81 6.81 0 013.94 4.38c.33 1.04.5 2.19.5 3.43V93h-1.74a1.8 1.8 0 01-.88-.18c-.2-.13-.36-.38-.48-.74l-.44-2.12c-.59.55-1.16 1.03-1.72 1.46a9.48 9.48 0 01-3.74 1.7c-.69.15-1.46.23-2.3.23-.87 0-1.69-.12-2.45-.35a5.34 5.34 0 01-3.34-2.93 6.64 6.64 0 01-.49-2.64c0-.88.25-1.72.73-2.53a6.33 6.33 0 012.35-2.17c1.09-.63 2.5-1.15 4.25-1.54 1.75-.41 3.89-.65 6.42-.7v-1.75c0-1.73-.37-3.03-1.12-3.91-.75-.9-1.84-1.34-3.28-1.34-.97 0-1.78.12-2.44.37-.64.23-1.2.5-1.7.81l-1.23.82c-.33.23-.67.35-1 .35-.27 0-.5-.07-.69-.2a2.1 2.1 0 01-.48-.53l-.7-1.25zm27.67 19.5c-1.76 0-3.12-.5-4.07-1.48-.94-.98-1.41-2.4-1.41-4.25V74h-2.68a.9.9 0 01-.6-.2c-.16-.14-.24-.36-.24-.66v-1.56l3.65-.46.9-6.89c.05-.22.14-.4.29-.52a.88.88 0 01.62-.22H142v7.67h6.44V74h-6.44v13.38c0 .94.22 1.63.68 2.09.45.45 1.04.68 1.76.68a3.21 3.21 0 001.85-.53l.55-.35c.16-.12.3-.18.41-.18.2 0 .4.13.55.38l1.15 1.87a7.45 7.45 0 01-2.44 1.5c-.96.35-1.94.52-2.95.52zm19.68-10.4c-1.8.07-3.34.21-4.62.45-1.26.22-2.3.51-3.1.88-.8.36-1.37.8-1.74 1.3-.35.5-.53 1.05-.53 1.67 0 .58.1 1.1.3 1.52.18.42.44.77.76 1.05.34.27.73.46 1.17.6.45.11.94.17 1.45.17a7.3 7.3 0 003.5-.81 12.04 12.04 0 002.82-2.2v-4.62zm-12.65-9.1a12.72 12.72 0 013.99-2.66c1.42-.59 3-.88 4.72-.88 1.25 0 2.36.2 3.33.61a6.81 6.81 0 013.94 4.38c.33 1.04.5 2.19.5 3.43V93h-1.74a1.8 1.8 0 01-.88-.18c-.2-.13-.36-.38-.48-.74l-.44-2.12c-.59.55-1.16 1.03-1.72 1.46a9.48 9.48 0 01-3.74 1.7c-.69.15-1.46.23-2.3.23-.87 0-1.69-.12-2.45-.35a5.33 5.33 0 01-3.34-2.93 6.62 6.62 0 01-.49-2.64c0-.88.25-1.72.73-2.53a6.33 6.33 0 012.35-2.17c1.09-.63 2.5-1.15 4.25-1.54 1.74-.41 3.89-.65 6.42-.7v-1.75c0-1.73-.37-3.03-1.12-3.91-.75-.9-1.84-1.34-3.28-1.34-.97 0-1.78.12-2.44.37-.64.23-1.2.5-1.7.81-.46.3-.87.57-1.22.82-.34.23-.68.35-1.02.35-.26 0-.49-.07-.68-.2-.19-.14-.35-.32-.48-.53l-.7-1.25z"
    fill="#fff"
  />
  <path fill="#D42B21" d="M0 106.79h210V120H0z" />
</g>
<defs>
  <clipPath id="clip0"><path fill="#fff" d="M0 0h210v120H0z" /></clipPath>
</defs>
</svg></g><a href="http://localhost:3099/grapher/number-of-enrolled-children-in-pre-primary-education" style="font-family:&quot;Playfair Display&quot;, Georgia, &quot;Times New Roman&quot;, serif" target="_blank"><text font-size="24.30" x="15.0" y="34.4" fill="#555"><tspan x="15" y="34.44">Number of enrolled children in pre-primary education, 1973 to 2014</tspan></text></a><text font-size="14.40" x="15.0" y="54.8" fill="#666"><tspan x="15" y="54.81999999999999">Total number of students enrolled in public and private pre-primary education institutions (ISCED 0.2) regardless of</tspan><tspan x="15" y="72.1">age. Within ISCED 0, early childhood educational development programmes are targeted at children aged 0 to 2</tspan><tspan x="15" y="89.38">years; and pre-primary education programmes are targeted at children aged 3 years until the age to start ISCED 1.</tspan></text></g><g class="StackedArea"><defs><clipPath id="boundsClip-923"><rect x="102.134" y="0" width="820" height="895.2"></rect></clipPath></defs><g class="AxisBoxView"><g class="HorizontalAxis"><line x1="102.1" y1="535.3000000000001" x2="102.1" y2="539.3000000000001" stroke="#ccc"></line><line x1="203.5" y1="535.3000000000001" x2="203.5" y2="539.3000000000001" stroke="#ccc"></line><line x1="276" y1="535.3000000000001" x2="276" y2="539.3000000000001" stroke="#ccc"></line><line x1="348.4" y1="535.3000000000001" x2="348.4" y2="539.3000000000001" stroke="#ccc"></line><line x1="420.8" y1="535.3000000000001" x2="420.8" y2="539.3000000000001" stroke="#ccc"></line><line x1="493.2" y1="535.3000000000001" x2="493.2" y2="539.3000000000001" stroke="#ccc"></line><line x1="565.7" y1="535.3000000000001" x2="565.7" y2="539.3000000000001" stroke="#ccc"></line><line x1="638.1" y1="535.3000000000001" x2="638.1" y2="539.3000000000001" stroke="#ccc"></line><line x1="696" y1="535.3000000000001" x2="696" y2="539.3000000000001" stroke="#ccc"></line><text x="102.1" y="556.5" fill="#666" text-anchor="middle" font-size="16.2">1973</text><text x="203.5" y="556.5" fill="#666" text-anchor="middle" font-size="16.2">1980</text><text x="276" y="556.5" fill="#666" text-anchor="middle" font-size="16.2">1985</text><text x="348.4" y="556.5" fill="#666" text-anchor="middle" font-size="16.2">1990</text><text x="420.8" y="556.5" fill="#666" text-anchor="middle" font-size="16.2">1995</text><text x="493.2" y="556.5" fill="#666" text-anchor="middle" font-size="16.2">2000</text><text x="565.7" y="556.5" fill="#666" text-anchor="middle" font-size="16.2">2005</text><text x="638.1" y="556.5" fill="#666" text-anchor="middle" font-size="16.2">2010</text><text x="696" y="556.5" fill="#666" text-anchor="middle" font-size="16.2">2014</text></g><g class="VerticalAxis"><text x="97.13" y="535.3" fill="#666" dominant-baseline="middle" text-anchor="end" font-size="16.2">0  </text><text x="97.13" y="471.3" fill="#666" dominant-baseline="middle" text-anchor="end" font-size="16.2">20 million  </text><text x="97.13" y="407.2" fill="#666" dominant-baseline="middle" text-anchor="end" font-size="16.2">40 million  </text><text x="97.13" y="343.2" fill="#666" dominant-baseline="middle" text-anchor="end" font-size="16.2">60 million  </text><text x="97.13" y="279.2" fill="#666" dominant-baseline="middle" text-anchor="end" font-size="16.2">80 million  </text><text x="97.13" y="215.1" fill="#666" dominant-baseline="middle" text-anchor="end" font-size="16.2">100 million  </text><text x="97.13" y="151.1" fill="#666" dominant-baseline="middle" text-anchor="end" font-size="16.2">120 million  </text></g><g class="AxisGridLines horizontalLines"><line x1="102.13" y1="535.3" x2="696.05" y2="535.3" stroke="#ccc"></line><line x1="102.13" y1="471.3" x2="696.05" y2="471.3" stroke="#ddd" stroke-dasharray="3,2"></line><line x1="102.13" y1="407.2" x2="696.05" y2="407.2" stroke="#ddd" stroke-dasharray="3,2"></line><line x1="102.13" y1="343.2" x2="696.05" y2="343.2" stroke="#ddd" stroke-dasharray="3,2"></line><line x1="102.13" y1="279.2" x2="696.05" y2="279.2" stroke="#ddd" stroke-dasharray="3,2"></line><line x1="102.13" y1="215.1" x2="696.05" y2="215.1" stroke="#ddd" stroke-dasharray="3,2"></line><line x1="102.13" y1="151.1" x2="696.05" y2="151.1" stroke="#ddd" stroke-dasharray="3,2"></line></g></g><g clip-path="url(#boundsClip-923)"><g class="HeightedLegend" style="cursor:default"><g class="legendMark"><rect x="696.05" y="125.64999999999999" width="130.58" height="28.1" fill="#fff" opacity="0"></rect><text font-size="13.50" x="700.0" y="136.4" fill="#6bb537"><tspan x="700.05" y="136.45">Latin America &amp;</tspan><tspan x="700.05" y="151.29999999999998">Caribbean</tspan></text></g><g class="legendMark"><rect x="696.05" y="178.65" width="121.4" height="13.5" fill="#fff" opacity="0"></rect><text font-size="13.50" x="700.0" y="189.5" fill="#34983f"><tspan x="700.05" y="189.45000000000002">North America</tspan></text></g><g class="legendMark"><rect x="696.05" y="199.75" width="138.95" height="28.1" fill="#fff" opacity="0"></rect><text font-size="13.50" x="700.0" y="210.6" fill="#ffd53e"><tspan x="700.05" y="210.55">Europe &amp; Central</tspan><tspan x="700.05" y="225.4">Asia</tspan></text></g><g class="legendMark"><rect x="696.05" y="229.85" width="118.56500000000001" height="28.1" fill="#fff" opacity="0"></rect><text font-size="13.50" x="700.0" y="240.7" fill="#d26e66"><tspan x="700.05" y="240.65">Middle East &amp;</tspan><tspan x="700.05" y="255.5">North Africa</tspan></text></g><g class="legendMark"><rect x="696.05" y="261.55" width="114.92" height="28.1" fill="#fff" opacity="0"></rect><text font-size="13.50" x="700.0" y="272.4" fill="#3360a9"><tspan x="700.05" y="272.35">Sub-Saharan</tspan><tspan x="700.05" y="287.20000000000005">Africa</tspan></text></g><g class="legendMark"><rect x="696.05" y="326.85" width="100.61" height="13.5" fill="#fff" opacity="0"></rect><text font-size="13.50" x="700.0" y="337.7" fill="#f9bc8f"><tspan x="700.05" y="337.65000000000003">South Asia</tspan></text></g><g class="legendMark"><rect x="696.05" y="435.05" width="105.065" height="28.1" fill="#fff" opacity="0"></rect><text font-size="13.50" x="700.0" y="445.9" fill="#932834"><tspan x="700.05" y="445.85">East Asia &amp;</tspan><tspan x="700.05" y="460.70000000000005">Pacific</tspan></text></g></g><g class="Areas"><rect x="102.134" y="108.9" width="593.9159999999999" height="426.4000000000001" opacity="0" fill="rgba(255,255,255,0)"></rect><path class="East-Asia-__0026-Pacific_0-area" stroke-linecap="round" d="M102.1 520.1L116.6 519.5L131.1 518.2L145.6 506.5L160.1 481.3L174.6 496.3L189 499.3L203.5 494.5L218 485.3L232.5 487.7L247 486.4L261.5 484.9L276 479.5L290.4 472.6L304.9 466.6L319.4 458.8L333.9 456.1L348.4 456.3L362.9 452L377.4 444.3L391.8 436.5L406.3 430.8L420.8 427.2L435.3 424.9L449.8 425.1L464.3 429L478.8 431.6L493.2 434.2L507.7 436.5L522.2 443.2L536.7 441.7L551.2 440L565.7 437.1L580.2 432.4L594.6 427.3L609.1 423L623.6 417.4L638.1 412.2L652.6 400.6L667.1 381.8L681.6 371.2L696 362.9L696.05 535.3000000000001L102.134 535.3000000000001" fill="#932834" fill-opacity="0.7"></path><path class="South-Asia_0-area" stroke-linecap="round" d="M102.1 509.2L116.6 508L131.1 505.9L145.6 493.5L160.1 467.3L174.6 481.6L189 483.6L203.5 477.8L218 467.4L232.5 469.3L247 466.4L261.5 464L276 457.4L290.4 448.8L304.9 441.6L319.4 432.3L333.9 429.6L348.4 430L362.9 425.2L377.4 417.8L391.8 409.9L406.3 402.7L420.8 399L435.3 397L449.8 396.8L464.3 393.1L478.8 398.4L493.2 402.3L507.7 406L522.2 410.5L536.7 408.6L551.2 407L565.7 402.7L580.2 391L594.6 383L609.1 372.5L623.6 370L638.1 364.8L652.6 348.1L667.1 327.4L681.6 311L696 304.4L696 362.9L681.6 371.2L667.1 381.8L652.6 400.6L638.1 412.2L623.6 417.4L609.1 423L594.6 427.3L580.2 432.4L565.7 437.1L551.2 440L536.7 441.7L522.2 443.2L507.7 436.5L493.2 434.2L478.8 431.6L464.3 429L449.8 425.1L435.3 424.9L420.8 427.2L406.3 430.8L391.8 436.5L377.4 444.3L362.9 452L348.4 456.3L333.9 456.1L319.4 458.8L304.9 466.6L290.4 472.6L276 479.5L261.5 484.9L247 486.4L232.5 487.7L218 485.3L203.5 494.5L189 499.3L174.6 496.3L160.1 481.3L145.6 506.5L131.1 518.2L116.6 519.5L102.1 520.1" fill="#f9bc8f" fill-opacity="0.7"></path><path class="Sub__002dSaharan-Africa_0-area" stroke-linecap="round" d="M102.1 501.3L116.6 499.8L131.1 497.5L145.6 484.7L160.1 458.1L174.6 471.9L189 473.5L203.5 467.3L218 456.7L232.5 458.4L247 455.5L261.5 452.9L276 446.2L290.4 437.1L304.9 429L319.4 419L333.9 415.9L348.4 415.9L362.9 410.9L377.4 402.9L391.8 394.8L406.3 387.2L420.8 383L435.3 380.2L449.8 379.4L464.3 374.1L478.8 379.2L493.2 381.1L507.7 383.4L522.2 385L536.7 380L551.2 375.1L565.7 368L580.2 352.5L594.6 347.7L609.1 336.6L623.6 330.9L638.1 324.1L652.6 305.3L667.1 279L681.6 259.6L696 246.9L696 304.4L681.6 311L667.1 327.4L652.6 348.1L638.1 364.8L623.6 370L609.1 372.5L594.6 383L580.2 391L565.7 402.7L551.2 407L536.7 408.6L522.2 410.5L507.7 406L493.2 402.3L478.8 398.4L464.3 393.1L449.8 396.8L435.3 397L420.8 399L406.3 402.7L391.8 409.9L377.4 417.8L362.9 425.2L348.4 430L333.9 429.6L319.4 432.3L304.9 441.6L290.4 448.8L276 457.4L261.5 464L247 466.4L232.5 469.3L218 467.4L203.5 477.8L189 483.6L174.6 481.6L160.1 467.3L145.6 493.5L131.1 505.9L116.6 508L102.1 509.2" fill="#3360a9" fill-opacity="0.7"></path><path class="Middle-East-__0026-North-Africa_0-area" stroke-linecap="round" d="M102.1 499.4L116.6 497.8L131.1 495.1L145.6 481.9L160.1 455L174.6 468.6L189 470L203.5 463.7L218 453L232.5 454.5L247 451.5L261.5 448.6L276 442L290.4 432.7L304.9 424.5L319.4 414.3L333.9 410.9L348.4 410.7L362.9 405.4L377.4 397.3L391.8 389.3L406.3 381.8L420.8 377.5L435.3 374.4L449.8 373.3L464.3 367.5L478.8 372.9L493.2 374.5L507.7 376.8L522.2 378.1L536.7 372.8L551.2 367.5L565.7 359.9L580.2 343.7L594.6 338.8L609.1 327L623.6 320.5L638.1 313L652.6 294.3L667.1 268L681.6 248.3L696 234.1L696 246.9L681.6 259.6L667.1 279L652.6 305.3L638.1 324.1L623.6 330.9L609.1 336.6L594.6 347.7L580.2 352.5L565.7 368L551.2 375.1L536.7 380L522.2 385L507.7 383.4L493.2 381.1L478.8 379.2L464.3 374.1L449.8 379.4L435.3 380.2L420.8 383L406.3 387.2L391.8 394.8L377.4 402.9L362.9 410.9L348.4 415.9L333.9 415.9L319.4 419L304.9 429L290.4 437.1L276 446.2L261.5 452.9L247 455.5L232.5 458.4L218 456.7L203.5 467.3L189 473.5L174.6 471.9L160.1 458.1L145.6 484.7L131.1 497.5L116.6 499.8L102.1 501.3" fill="#d26e66" fill-opacity="0.7"></path><path class="Europe-__0026-Central-Asia_0-area" stroke-linecap="round" d="M102.1 465.3L116.6 463.7L131.1 459.9L145.6 446L160.1 417.9L174.6 429.8L189 429.9L203.5 422.7L218 413.4L232.5 414.1L247 410.4L261.5 406.9L276 399L290.4 388.6L304.9 379.4L319.4 367.9L333.9 363.3L348.4 362.3L362.9 358L377.4 351.2L391.8 345.8L406.3 343L420.8 340.7L435.3 339.9L449.8 341.7L464.3 339.6L478.8 347.1L493.2 349.9L507.7 352.7L522.2 353.9L536.7 348.2L551.2 342.7L565.7 334.7L580.2 317.6L594.6 311.7L609.1 298.4L623.6 290.7L638.1 281.9L652.6 261.8L667.1 233.8L681.6 216.2L696 200.3L696 234.1L681.6 248.3L667.1 268L652.6 294.3L638.1 313L623.6 320.5L609.1 327L594.6 338.8L580.2 343.7L565.7 359.9L551.2 367.5L536.7 372.8L522.2 378.1L507.7 376.8L493.2 374.5L478.8 372.9L464.3 367.5L449.8 373.3L435.3 374.4L420.8 377.5L406.3 381.8L391.8 389.3L377.4 397.3L362.9 405.4L348.4 410.7L333.9 410.9L319.4 414.3L304.9 424.5L290.4 432.7L276 442L261.5 448.6L247 451.5L232.5 454.5L218 453L203.5 463.7L189 470L174.6 468.6L160.1 455L145.6 481.9L131.1 495.1L116.6 497.8L102.1 499.4" fill="#ffd53e" fill-opacity="0.7"></path><path class="North-America_0-area" stroke-linecap="round" d="M102.1 450.5L116.6 448.5L131.1 443.4L145.6 428.3L160.1 400.6L174.6 413.2L189 413.3L203.5 406.1L218 395.6L232.5 396.1L247 391.7L261.5 387.3L276 379L290.4 367.1L304.9 357.1L319.4 345.4L333.9 340.7L348.4 339.2L362.9 333.1L377.4 325.5L391.8 319.2L406.3 315.8L420.8 312.7L435.3 311.2L449.8 315.1L464.3 315.2L478.8 322.4L493.2 325.5L507.7 327L522.2 327.8L536.7 323.5L551.2 317.3L565.7 309.6L580.2 292.5L594.6 286.1L609.1 273.8L623.6 266L638.1 251.9L652.6 231.3L667.1 202.7L681.6 186.5L696 170.4L696 200.3L681.6 216.2L667.1 233.8L652.6 261.8L638.1 281.9L623.6 290.7L609.1 298.4L594.6 311.7L580.2 317.6L565.7 334.7L551.2 342.7L536.7 348.2L522.2 353.9L507.7 352.7L493.2 349.9L478.8 347.1L464.3 339.6L449.8 341.7L435.3 339.9L420.8 340.7L406.3 343L391.8 345.8L377.4 351.2L362.9 358L348.4 362.3L333.9 363.3L319.4 367.9L304.9 379.4L290.4 388.6L276 399L261.5 406.9L247 410.4L232.5 414.1L218 413.4L203.5 422.7L189 429.9L174.6 429.8L160.1 417.9L145.6 446L131.1 459.9L116.6 463.7L102.1 465.3" fill="#34983f" fill-opacity="0.7"></path><path class="Latin-America-__0026-Caribbean_0-area" stroke-linecap="round" d="M102.1 443.9L116.6 441.5L131.1 435.6L145.6 419.3L160.1 390.6L174.6 402.2L189 401L203.5 392.8L218 380.2L232.5 378.1L247 371.5L261.5 364.5L276 354.5L290.4 340L304.9 323.6L319.4 311.1L333.9 305.9L348.4 300.7L362.9 295.2L377.4 285.4L391.8 277.6L406.3 273.4L420.8 268.9L435.3 265.8L449.8 268.8L464.3 267.7L478.8 274.6L493.2 275L507.7 276L522.2 276.4L536.7 271.4L551.2 263.4L565.7 254.3L580.2 236.2L594.6 229L609.1 214.7L623.6 206.2L638.1 193L652.6 172.1L667.1 142.8L681.6 125.2L696 108.9L696 170.4L681.6 186.5L667.1 202.7L652.6 231.3L638.1 251.9L623.6 266L609.1 273.8L594.6 286.1L580.2 292.5L565.7 309.6L551.2 317.3L536.7 323.5L522.2 327.8L507.7 327L493.2 325.5L478.8 322.4L464.3 315.2L449.8 315.1L435.3 311.2L420.8 312.7L406.3 315.8L391.8 319.2L377.4 325.5L362.9 333.1L348.4 339.2L333.9 340.7L319.4 345.4L304.9 357.1L290.4 367.1L276 379L261.5 387.3L247 391.7L232.5 396.1L218 395.6L203.5 406.1L189 413.3L174.6 413.2L160.1 400.6L145.6 428.3L131.1 443.4L116.6 448.5L102.1 450.5" fill="#6bb537" fill-opacity="0.7"></path><path class="East-Asia-__0026-Pacific_0-border" stroke-linecap="round" d="M102.1 520.1L116.6 519.5L131.1 518.2L145.6 506.5L160.1 481.3L174.6 496.3L189 499.3L203.5 494.5L218 485.3L232.5 487.7L247 486.4L261.5 484.9L276 479.5L290.4 472.6L304.9 466.6L319.4 458.8L333.9 456.1L348.4 456.3L362.9 452L377.4 444.3L391.8 436.5L406.3 430.8L420.8 427.2L435.3 424.9L449.8 425.1L464.3 429L478.8 431.6L493.2 434.2L507.7 436.5L522.2 443.2L536.7 441.7L551.2 440L565.7 437.1L580.2 432.4L594.6 427.3L609.1 423L623.6 417.4L638.1 412.2L652.6 400.6L667.1 381.8L681.6 371.2L696 362.9" stroke="rgb(123, 33, 44)" stroke-opacity="0.7" stroke-width="0.5" fill="none"></path><path class="South-Asia_0-border" stroke-linecap="round" d="M102.1 509.2L116.6 508L131.1 505.9L145.6 493.5L160.1 467.3L174.6 481.6L189 483.6L203.5 477.8L218 467.4L232.5 469.3L247 466.4L261.5 464L276 457.4L290.4 448.8L304.9 441.6L319.4 432.3L333.9 429.6L348.4 430L362.9 425.2L377.4 417.8L391.8 409.9L406.3 402.7L420.8 399L435.3 397L449.8 396.8L464.3 393.1L478.8 398.4L493.2 402.3L507.7 406L522.2 410.5L536.7 408.6L551.2 407L565.7 402.7L580.2 391L594.6 383L609.1 372.5L623.6 370L638.1 364.8L652.6 348.1L667.1 327.4L681.6 311L696 304.4" stroke="rgb(208, 157, 120)" stroke-opacity="0.7" stroke-width="0.5" fill="none"></path><path class="Sub__002dSaharan-Africa_0-border" stroke-linecap="round" d="M102.1 501.3L116.6 499.8L131.1 497.5L145.6 484.7L160.1 458.1L174.6 471.9L189 473.5L203.5 467.3L218 456.7L232.5 458.4L247 455.5L261.5 452.9L276 446.2L290.4 437.1L304.9 429L319.4 419L333.9 415.9L348.4 415.9L362.9 410.9L377.4 402.9L391.8 394.8L406.3 387.2L420.8 383L435.3 380.2L449.8 379.4L464.3 374.1L478.8 379.2L493.2 381.1L507.7 383.4L522.2 385L536.7 380L551.2 375.1L565.7 368L580.2 352.5L594.6 347.7L609.1 336.6L623.6 330.9L638.1 324.1L652.6 305.3L667.1 279L681.6 259.6L696 246.9" stroke="rgb(43, 80, 141)" stroke-opacity="0.7" stroke-width="0.5" fill="none"></path><path class="Middle-East-__0026-North-Africa_0-border" stroke-linecap="round" d="M102.1 499.4L116.6 497.8L131.1 495.1L145.6 481.9L160.1 455L174.6 468.6L189 470L203.5 463.7L218 453L232.5 454.5L247 451.5L261.5 448.6L276 442L290.4 432.7L304.9 424.5L319.4 414.3L333.9 410.9L348.4 410.7L362.9 405.4L377.4 397.3L391.8 389.3L406.3 381.8L420.8 377.5L435.3 374.4L449.8 373.3L464.3 367.5L478.8 372.9L493.2 374.5L507.7 376.8L522.2 378.1L536.7 372.8L551.2 367.5L565.7 359.9L580.2 343.7L594.6 338.8L609.1 327L623.6 320.5L638.1 313L652.6 294.3L667.1 268L681.6 248.3L696 234.1" stroke="rgb(176, 92, 85)" stroke-opacity="0.7" stroke-width="0.5" fill="none"></path><path class="Europe-__0026-Central-Asia_0-border" stroke-linecap="round" d="M102.1 465.3L116.6 463.7L131.1 459.9L145.6 446L160.1 417.9L174.6 429.8L189 429.9L203.5 422.7L218 413.4L232.5 414.1L247 410.4L261.5 406.9L276 399L290.4 388.6L304.9 379.4L319.4 367.9L333.9 363.3L348.4 362.3L362.9 358L377.4 351.2L391.8 345.8L406.3 343L420.8 340.7L435.3 339.9L449.8 341.7L464.3 339.6L478.8 347.1L493.2 349.9L507.7 352.7L522.2 353.9L536.7 348.2L551.2 342.7L565.7 334.7L580.2 317.6L594.6 311.7L609.1 298.4L623.6 290.7L638.1 281.9L652.6 261.8L667.1 233.8L681.6 216.2L696 200.3" stroke="rgb(213, 178, 52)" stroke-opacity="0.7" stroke-width="0.5" fill="none"></path><path class="North-America_0-border" stroke-linecap="round" d="M102.1 450.5L116.6 448.5L131.1 443.4L145.6 428.3L160.1 400.6L174.6 413.2L189 413.3L203.5 406.1L218 395.6L232.5 396.1L247 391.7L261.5 387.3L276 379L290.4 367.1L304.9 357.1L319.4 345.4L333.9 340.7L348.4 339.2L362.9 333.1L377.4 325.5L391.8 319.2L406.3 315.8L420.8 312.7L435.3 311.2L449.8 315.1L464.3 315.2L478.8 322.4L493.2 325.5L507.7 327L522.2 327.8L536.7 323.5L551.2 317.3L565.7 309.6L580.2 292.5L594.6 286.1L609.1 273.8L623.6 266L638.1 251.9L652.6 231.3L667.1 202.7L681.6 186.5L696 170.4" stroke="rgb(44, 127, 53)" stroke-opacity="0.7" stroke-width="0.5" fill="none"></path><path class="Latin-America-__0026-Caribbean_0-border" stroke-linecap="round" d="M102.1 443.9L116.6 441.5L131.1 435.6L145.6 419.3L160.1 390.6L174.6 402.2L189 401L203.5 392.8L218 380.2L232.5 378.1L247 371.5L261.5 364.5L276 354.5L290.4 340L304.9 323.6L319.4 311.1L333.9 305.9L348.4 300.7L362.9 295.2L377.4 285.4L391.8 277.6L406.3 273.4L420.8 268.9L435.3 265.8L449.8 268.8L464.3 267.7L478.8 274.6L493.2 275L507.7 276L522.2 276.4L536.7 271.4L551.2 263.4L565.7 254.3L580.2 236.2L594.6 229L609.1 214.7L623.6 206.2L638.1 193L652.6 172.1L667.1 142.8L681.6 125.2L696 108.9" stroke="rgb(90, 151, 46)" stroke-opacity="0.7" stroke-width="0.5" fill="none"></path></g></g></g><g class="SourcesFooter" style="fill:#777"><g class="clickable" style="fill:#777"><text font-size="12.60" x="15.0" y="581.6"><tspan x="15" y="581.58">Source: World Bank</tspan></text></g><text font-size="12.60" x="539.5" y="581.6"><tspan x="539.53" y="581.58"><a target='_blank' style='fill: #777;' href='https://ourworldindata.org/pre-primary-education/'>OurWorldInData.org/pre-primary-education/</a> • <a style="fill: #777;" class="cclogo" href="http://creativecommons.org/licenses/by/4.0/deed.en_US" target="_blank">CC BY</a></tspan></text></g></svg>