<svg xmlns="http://www.w3.org/2000/svg" version="1.1" style="font-family:Lato, &#x27;Helvetica Neue&#x27;, Helvetica, Arial, sans-serif;font-size:18px;background-color:white;text-rendering:optimizeLegibility;-webkit-font-smoothing:antialiased" width="850" height="600" viewBox="0 0 850 600"><g class="HeaderView"><g transform="translate(774, 15) scale(0.29)"><svg width="210" height="120" viewBox="0 0 210 120" fill="none" xmlns="http://www.w3.org/2000/svg">
<g clip-path="url(#clip0)">
  <path d="M0 0h210v107.89H0V0z" fill="#002147" />
  <path
    d="M40.98 32.25c0 2.36-.38 4.53-1.12 6.51a14.26 14.26 0 01-8.1 8.4c-1.9.78-4.02 1.17-6.34 1.17-2.31 0-4.42-.39-6.33-1.17a14.31 14.31 0 01-8.08-8.4 18.29 18.29 0 01-1.12-6.51c0-2.36.38-4.53 1.12-6.5.75-1.97 1.8-3.67 3.17-5.1 1.37-1.43 3-2.55 4.9-3.34 1.92-.8 4.03-1.19 6.34-1.19 2.32 0 4.43.4 6.34 1.19 1.92.8 3.56 1.9 4.93 3.34a14.87 14.87 0 013.17 5.1 18.1 18.1 0 011.12 6.5zm-4.38 0c0-1.94-.26-3.68-.8-5.22a10.91 10.91 0 00-2.24-3.89 9.68 9.68 0 00-3.52-2.46 11.95 11.95 0 00-4.62-.86c-1.68 0-3.21.28-4.6.86a9.88 9.88 0 00-3.54 2.46 10.91 10.91 0 00-2.24 3.9c-.53 1.53-.8 3.27-.8 5.2 0 1.94.27 3.68.8 5.22a11.17 11.17 0 002.24 3.9 10.01 10.01 0 003.55 2.44c1.38.56 2.9.83 4.6.83 1.7 0 3.24-.27 4.61-.83a9.8 9.8 0 003.52-2.44 11.17 11.17 0 002.25-3.9c.53-1.54.8-3.28.8-5.21zm26.22-6.54V48H60.5c-.56 0-.9-.27-1.05-.81l-.31-2.4a12.45 12.45 0 01-3.26 2.6c-1.2.64-2.58.96-4.13.96-1.22 0-2.3-.2-3.24-.6a6.52 6.52 0 01-2.33-1.7 7.37 7.37 0 01-1.43-2.67c-.3-1.04-.46-2.2-.46-3.45V25.7h3.91v14.22c0 1.68.38 2.99 1.15 3.91.77.93 1.96 1.39 3.54 1.39 1.16 0 2.24-.27 3.23-.82a10.42 10.42 0 002.8-2.28V25.7h3.91zm8.61 4.47a9.94 9.94 0 012.6-3.56 5.64 5.64 0 013.76-1.3c.47 0 .92.05 1.34.15.44.1.83.27 1.17.49L80 28.88c-.09.37-.3.55-.66.55-.2 0-.5-.04-.9-.13a6.21 6.21 0 00-3.24.18c-.54.2-1.03.5-1.47.92-.42.4-.81.9-1.17 1.5-.33.58-.64 1.26-.92 2.02V48h-3.94V25.71h2.25c.42 0 .72.08.88.25.16.16.27.44.33.83l.26 3.39zm61.16-13.7L122.75 48h-3.82l-7.99-24.05a21.95 21.95 0 01-.42-1.58 38.36 38.36 0 01-.44 1.58L102.05 48h-3.83L88.4 16.47h3.54c.38 0 .7.1.95.29.26.2.43.43.5.73l6.52 21.9c.1.4.2.83.28 1.28.1.46.2.94.29 1.46l.3-1.46c.12-.47.25-.9.38-1.27l7.41-21.91c.1-.25.26-.48.51-.69.27-.22.58-.33.95-.33h1.23c.38 0 .69.1.92.29.24.2.41.43.53.73l7.4 21.9a28.4 28.4 0 01.68 2.62 29.52 29.52 0 01.52-2.61l6.54-21.91c.07-.27.23-.5.48-.7.27-.21.58-.32.95-.32h3.32zm9.35 8.88c1.63 0 3.1.27 4.4.82a9.43 9.43 0 015.46 5.94c.5 1.4.74 2.98.74 4.73 0 1.76-.25 3.34-.74 4.75a9.43 9.43 0 01-5.46 5.92c-1.3.52-2.77.79-4.4.79-1.64 0-3.12-.27-4.44-.8a9.42 9.42 0 01-3.35-2.3c-.92-1-1.63-2.2-2.13-3.61-.49-1.41-.73-3-.73-4.75s.24-3.33.73-4.73c.5-1.43 1.2-2.64 2.13-3.63.93-1 2.04-1.77 3.35-2.31 1.32-.55 2.8-.82 4.44-.82zm0 19.89c2.2 0 3.84-.73 4.93-2.2 1.08-1.48 1.63-3.54 1.63-6.18 0-2.66-.55-4.72-1.63-6.2-1.09-1.49-2.73-2.23-4.93-2.23-1.12 0-2.09.2-2.93.57-.82.39-1.5.94-2.06 1.65-.55.72-.96 1.61-1.24 2.67-.26 1.04-.4 2.22-.4 3.54 0 2.64.55 4.7 1.64 6.18 1.1 1.47 2.76 2.2 4.99 2.2zm17.97-15.07a9.94 9.94 0 012.6-3.56 5.64 5.64 0 013.76-1.3c.47 0 .91.05 1.34.15.44.1.83.27 1.16.49l-.28 2.92c-.09.37-.31.55-.66.55-.2 0-.5-.04-.9-.13a6.2 6.2 0 00-3.24.18c-.54.2-1.03.5-1.47.92-.43.4-.82.9-1.17 1.5a13.1 13.1 0 00-.92 2.02V48h-3.94V25.71h2.24c.43 0 .72.08.88.25.17.16.28.44.33.83l.27 3.39zm15.04-14.59V48h-3.92V15.6h3.92zm19.55 15.43a6.22 6.22 0 00-2.38-2.05 6.7 6.7 0 00-2.86-.6c-2.07 0-3.66.75-4.77 2.23-1.12 1.48-1.68 3.6-1.68 6.33 0 1.46.13 2.7.38 3.74a7.29 7.29 0 001.1 2.56 4.35 4.35 0 001.78 1.45c.7.3 1.5.46 2.4.46 1.29 0 2.41-.3 3.36-.88a9.6 9.6 0 002.67-2.49V31.02zm3.91-15.43V48h-2.33c-.56 0-.9-.27-1.06-.81l-.35-2.71a12.13 12.13 0 01-3.25 2.77 8.28 8.28 0 01-4.23 1.06 7.31 7.31 0 01-6.14-2.9c-.73-.96-1.3-2.15-1.69-3.57a18.35 18.35 0 01.07-9.48 11.29 11.29 0 011.89-3.7 8.7 8.7 0 017.06-3.34 7.96 7.96 0 016.12 2.62V15.59h3.91zM46.61 70.71V93H42.7V70.71h3.91zm.84-7c0 .39-.08.75-.24 1.09-.15.32-.35.61-.62.88-.25.25-.55.44-.9.59a2.67 2.67 0 01-2.16 0 2.9 2.9 0 01-1.45-1.47 2.67 2.67 0 010-2.16c.15-.35.35-.65.6-.9.25-.27.53-.47.85-.62a2.67 2.67 0 012.16 0c.35.15.65.35.9.62.27.25.47.55.62.9.16.34.24.7.24 1.08zm7.97 10.24c.49-.54 1-1.04 1.54-1.48a9.85 9.85 0 013.66-1.84 8.96 8.96 0 015.43.35c.94.4 1.72.97 2.33 1.71.63.74 1.11 1.62 1.43 2.67.32 1.04.49 2.19.49 3.45V93h-3.94V78.81c0-1.69-.4-3-1.17-3.92-.76-.93-1.93-1.4-3.5-1.4-1.15 0-2.24.27-3.25.83-1 .56-1.92 1.31-2.77 2.27V93h-3.94V70.71h2.35c.56 0 .9.28 1.04.82l.3 2.42zm57.7 3.3c0 2.36-.37 4.5-1.11 6.44a14.3 14.3 0 01-3.17 4.98c-1.37 1.37-3 2.45-4.93 3.2-1.9.76-4.02 1.13-6.33 1.13H85.8V61.47h11.77c2.31 0 4.42.39 6.33 1.15a13.8 13.8 0 018.1 8.18 17.75 17.75 0 011.12 6.45zm-4.37 0c0-1.94-.26-3.67-.8-5.2a10.94 10.94 0 00-2.23-3.87 9.57 9.57 0 00-3.53-2.42 12.23 12.23 0 00-4.61-.83h-7.5v24.62h7.5c1.7 0 3.24-.28 4.61-.84a9.7 9.7 0 003.53-2.4 10.94 10.94 0 002.24-3.87c.53-1.53.8-3.26.8-5.2zm19.8 5.72c-1.8.06-3.34.2-4.62.44-1.26.22-2.3.51-3.1.88-.8.36-1.37.8-1.74 1.3-.35.5-.53 1.05-.53 1.67 0 .58.1 1.1.3 1.52a3 3 0 00.76 1.05c.34.27.73.46 1.17.6.45.11.94.17 1.45.17a7.28 7.28 0 003.5-.81 11.95 11.95 0 002.82-2.2v-4.62zm-12.65-9.11a12.73 12.73 0 013.98-2.66c1.43-.59 3-.88 4.73-.88 1.25 0 2.36.2 3.33.61a6.81 6.81 0 013.94 4.38c.33 1.04.5 2.19.5 3.43V93h-1.74a1.8 1.8 0 01-.88-.18c-.2-.13-.36-.38-.48-.74l-.44-2.12c-.59.55-1.16 1.03-1.72 1.46a9.48 9.48 0 01-3.74 1.7c-.69.15-1.46.23-2.3.23-.87 0-1.69-.12-2.45-.35a5.34 5.34 0 01-3.34-2.93 6.64 6.64 0 01-.49-2.64c0-.88.25-1.72.73-2.53a6.33 6.33 0 012.35-2.17c1.09-.63 2.5-1.15 4.25-1.54 1.75-.41 3.89-.65 6.42-.7v-1.75c0-1.73-.37-3.03-1.12-3.91-.75-.9-1.84-1.34-3.28-1.34-.97 0-1.78.12-2.44.37-.64.23-1.2.5-1.7.81l-1.23.82c-.33.23-.67.35-1 .35-.27 0-.5-.07-.69-.2a2.1 2.1 0 01-.48-.53l-.7-1.25zm27.67 19.5c-1.76 0-3.12-.5-4.07-1.48-.94-.98-1.41-2.4-1.41-4.25V74h-2.68a.9.9 0 01-.6-.2c-.16-.14-.24-.36-.24-.66v-1.56l3.65-.46.9-6.89c.05-.22.14-.4.29-.52a.88.88 0 01.62-.22H142v7.67h6.44V74h-6.44v13.38c0 .94.22 1.63.68 2.09.45.45 1.04.68 1.76.68a3.21 3.21 0 001.85-.53l.55-.35c.16-.12.3-.18.41-.18.2 0 .4.13.55.38l1.15 1.87a7.45 7.45 0 01-2.44 1.5c-.96.35-1.94.52-2.95.52zm19.68-10.4c-1.8.07-3.34.21-4.62.45-1.26.22-2.3.51-3.1.88-.8.36-1.37.8-1.74 1.3-.35.5-.53 1.05-.53 1.67 0 .58.1 1.1.3 1.52.18.42.44.77.76 1.05.34.27.73.46 1.17.6.45.11.94.17 1.45.17a7.3 7.3 0 003.5-.81 12.04 12.04 0 002.82-2.2v-4.62zm-12.65-9.1a12.72 12.72 0 013.99-2.66c1.42-.59 3-.88 4.72-.88 1.25 0 2.36.2 3.33.61a6.81 6.81 0 013.94 4.38c.33 1.04.5 2.19.5 3.43V93h-1.74a1.8 1.8 0 01-.88-.18c-.2-.13-.36-.38-.48-.74l-.44-2.12c-.59.55-1.16 1.03-1.72 1.46a9.48 9.48 0 01-3.74 1.7c-.69.15-1.46.23-2.3.23-.87 0-1.69-.12-2.45-.35a5.33 5.33 0 01-3.34-2.93 6.62 6.62 0 01-.49-2.64c0-.88.25-1.72.73-2.53a6.33 6.33 0 012.35-2.17c1.09-.63 2.5-1.15 4.25-1.54 1.74-.41 3.89-.65 6.42-.7v-1.75c0-1.73-.37-3.03-1.12-3.91-.75-.9-1.84-1.34-3.28-1.34-.97 0-1.78.12-2.44.37-.64.23-1.2.5-1.7.81-.46.3-.87.57-1.22.82-.34.23-.68.35-1.02.35-.26 0-.49-.07-.68-.2-.19-.14-.35-.32-.48-.53l-.7-1.25z"
    fill="#fff"
  />
  <path fill="#D42B21" d="M0 106.79h210V120H0z" />
</g>
<defs>
  <clipPath id="clip0"><path fill="#fff" d="M0 0h210v120H0z" /></clipPath>
</defs>
</svg></g><a href="http://localhost:3099/grapher/real-commodity-price-index-metals" style="font-family:&quot;Playfair Display&quot;, Georgia, &quot;Times New Roman&quot;, serif" target="_blank"><text font-size="25.20" x="15.0" y="35.2" fill="#555"><tspan x="15" y="35.160000000000004">Real commodity price index, metals, 1850 to 2015</tspan></text></a><text font-size="14.40" x="15.0" y="55.7" fill="#666"><tspan x="15" y="55.72">Real commodity price index across a range of metal resources, where prices are measured relative to the year</tspan><tspan x="15" y="73">1900 (1900 = 100).</tspan></text></g><g class="LineChart"><defs><clipPath id="boundsClip-647"><rect x="37.216" y="0" width="830" height="924.6"></rect></clipPath></defs><g class="AxisBoxView"><g class="HorizontalAxis"><line x1="47.2" y1="535.3000000000001" x2="47.2" y2="539.3000000000001" stroke="#ccc"></line><line x1="88.5" y1="535.3000000000001" x2="88.5" y2="539.3000000000001" stroke="#ccc"></line><line x1="171.2" y1="535.3000000000001" x2="171.2" y2="539.3000000000001" stroke="#ccc"></line><line x1="253.9" y1="535.3000000000001" x2="253.9" y2="539.3000000000001" stroke="#ccc"></line><line x1="336.5" y1="535.3000000000001" x2="336.5" y2="539.3000000000001" stroke="#ccc"></line><line x1="419.2" y1="535.3000000000001" x2="419.2" y2="539.3000000000001" stroke="#ccc"></line><line x1="501.8" y1="535.3000000000001" x2="501.8" y2="539.3000000000001" stroke="#ccc"></line><line x1="584.5" y1="535.3000000000001" x2="584.5" y2="539.3000000000001" stroke="#ccc"></line><line x1="667.1" y1="535.3000000000001" x2="667.1" y2="539.3000000000001" stroke="#ccc"></line><line x1="729.1" y1="535.3000000000001" x2="729.1" y2="539.3000000000001" stroke="#ccc"></line><text x="47.2" y="556.5" fill="#666" text-anchor="middle" font-size="16.2">1850</text><text x="88.5" y="556.5" fill="#666" text-anchor="middle" font-size="16.2">1860</text><text x="171.2" y="556.5" fill="#666" text-anchor="middle" font-size="16.2">1880</text><text x="253.9" y="556.5" fill="#666" text-anchor="middle" font-size="16.2">1900</text><text x="336.5" y="556.5" fill="#666" text-anchor="middle" font-size="16.2">1920</text><text x="419.2" y="556.5" fill="#666" text-anchor="middle" font-size="16.2">1940</text><text x="501.8" y="556.5" fill="#666" text-anchor="middle" font-size="16.2">1960</text><text x="584.5" y="556.5" fill="#666" text-anchor="middle" font-size="16.2">1980</text><text x="667.1" y="556.5" fill="#666" text-anchor="middle" font-size="16.2">2000</text><text x="729.1" y="556.5" fill="#666" text-anchor="middle" font-size="16.2">2015</text></g><g class="VerticalAxis"><text x="42.22" y="535.3" fill="#666" dominant-baseline="middle" text-anchor="end" font-size="16.2">0</text><text x="42.22" y="453.7" fill="#666" dominant-baseline="middle" text-anchor="end" font-size="16.2">100</text><text x="42.22" y="372" fill="#666" dominant-baseline="middle" text-anchor="end" font-size="16.2">200</text><text x="42.22" y="290.4" fill="#666" dominant-baseline="middle" text-anchor="end" font-size="16.2">300</text><text x="42.22" y="208.7" fill="#666" dominant-baseline="middle" text-anchor="end" font-size="16.2">400</text><text x="42.22" y="127.1" fill="#666" dominant-baseline="middle" text-anchor="end" font-size="16.2">500</text></g><g class="AxisGridLines horizontalLines"><line x1="47.22" y1="535.3" x2="729.13" y2="535.3" stroke="#ccc"></line><line x1="47.22" y1="453.7" x2="729.13" y2="453.7" stroke="#ddd" stroke-dasharray="3,2"></line><line x1="47.22" y1="372" x2="729.13" y2="372" stroke="#ddd" stroke-dasharray="3,2"></line><line x1="47.22" y1="290.4" x2="729.13" y2="290.4" stroke="#ddd" stroke-dasharray="3,2"></line><line x1="47.22" y1="208.7" x2="729.13" y2="208.7" stroke="#ddd" stroke-dasharray="3,2"></line><line x1="47.22" y1="127.1" x2="729.13" y2="127.1" stroke="#ddd" stroke-dasharray="3,2"></line></g></g><g clip-path="url(#boundsClip-647)"><g class="HeightedLegend" style="cursor:pointer"><g class="legendMark"><g class="indicator"><path d="M733.125,425.8 H735.5795454545455 V373.5500000000002 H760.125" stroke="#999" stroke-width="0.5" fill="none"></path></g><rect x="729.125" y="366.8000000000002" width="105.875" height="13.5" fill="#fff" opacity="0"></rect><text font-size="13.50" x="764.1" y="377.6" fill="#287669"><tspan x="764.125" y="377.6000000000002">Manganese</tspan></text></g><g class="legendMark"><g class="indicator"><path d="M733.125,427.9 H738.034090909091 V389.0500000000002 H760.125" stroke="#999" stroke-width="0.5" fill="none"></path></g><rect x="729.125" y="382.3000000000002" width="97.23500000000001" height="13.5" fill="#fff" opacity="0"></rect><text font-size="13.50" x="764.1" y="393.1" fill="#D73C50"><tspan x="764.125" y="393.1000000000002">Chromium</tspan></text></g><g class="legendMark"><g class="indicator"><path d="M733.125,458.1 H740.4886363636364 V404.5500000000002 H760.125" stroke="#999" stroke-width="0.5" fill="none"></path></g><rect x="729.125" y="397.8000000000002" width="65.915" height="13.5" fill="#fff" opacity="0"></rect><text font-size="13.50" x="764.1" y="408.6" fill="#C05917"><tspan x="764.125" y="408.6000000000002">Steel</tspan></text></g><g class="legendMark"><g class="indicator"><path d="M733.125,459.1 H742.9431818181819 V420.0500000000002 H760.125" stroke="#999" stroke-width="0.5" fill="none"></path></g><rect x="729.125" y="413.3000000000002" width="53.765" height="13.5" fill="#fff" opacity="0"></rect><text font-size="13.50" x="764.1" y="424.1" fill="#4C6A9C"><tspan x="764.125" y="424.1000000000002">Tin</tspan></text></g><g class="legendMark"><g class="indicator"><path d="M733.125,472.9 H745.3977272727274 V435.5500000000002 H760.125" stroke="#999" stroke-width="0.5" fill="none"></path></g><rect x="729.125" y="428.8000000000002" width="60.515" height="13.5" fill="#fff" opacity="0"></rect><text font-size="13.50" x="764.1" y="439.6" fill="#00823F"><tspan x="764.125" y="439.6000000000002">Zinc</tspan></text></g><g class="legendMark"><g class="indicator"><path d="M733.125,481.5 H747.8522727272727 V451.0500000000002 H760.125" stroke="#999" stroke-width="0.5" fill="none"></path></g><rect x="729.125" y="444.3000000000002" width="65.24000000000001" height="13.5" fill="#fff" opacity="0"></rect><text font-size="13.50" x="764.1" y="455.1" fill="#883039"><tspan x="764.125" y="455.1000000000002">Lead</tspan></text></g><g class="legendMark"><g class="indicator"><path d="M733.125,489.9 H750.3068181818182 V466.5500000000002 H760.125" stroke="#999" stroke-width="0.5" fill="none"></path></g><rect x="729.125" y="459.8000000000002" width="81.71000000000001" height="13.5" fill="#fff" opacity="0"></rect><text font-size="13.50" x="764.1" y="470.6" fill="#CF0A66"><tspan x="764.125" y="470.6000000000002">Iron ore</tspan></text></g><g class="legendMark"><g class="indicator"><path d="M733.125,490.7 H752.7613636363636 V482.0500000000002 H760.125" stroke="#999" stroke-width="0.5" fill="none"></path></g><rect x="729.125" y="475.3000000000002" width="79.415" height="13.5" fill="#fff" opacity="0"></rect><text font-size="13.50" x="764.1" y="486.1" fill="#6D3E91"><tspan x="764.125" y="486.1000000000002">Copper</tspan></text></g><g class="legendMark"><g class="indicator"><path d="M733.125,505 H755.2159090909091 V497.5500000000002 H760.125" stroke="#999" stroke-width="0.5" fill="none"></path></g><rect x="729.125" y="490.8000000000002" width="71.72" height="13.5" fill="#fff" opacity="0"></rect><text font-size="13.50" x="764.1" y="501.6" fill="#00847E"><tspan x="764.125" y="501.6000000000002">Nickel</tspan></text></g><g class="legendMark"><g class="indicator"><path d="M733.125,515.8 H757.6704545454546 V513.0500000000002 H760.125" stroke="#999" stroke-width="0.5" fill="none"></path></g><rect x="729.125" y="506.3000000000002" width="80.225" height="13.5" fill="#fff" opacity="0"></rect><text font-size="13.50" x="764.1" y="517.1" fill="#B13507"><tspan x="764.125" y="517.1000000000001">Bauxite</tspan></text></g><g class="legendMark"><g class="indicator"><path d="M733.125,528.5 H757.6704545454546 V528.5500000000002 H760.125" stroke="#999" stroke-width="0.5" fill="none"></path></g><rect x="729.125" y="521.8000000000002" width="95.075" height="13.5" fill="#fff" opacity="0"></rect><text font-size="13.50" x="764.1" y="532.6" fill="#3C4E66"><tspan x="764.125" y="532.6000000000001">Aluminum</tspan></text></g></g><g class="Lines"><rect x="47" y="94" width="682" height="441" fill="rgba(255,255,255,0)" opacity="0"></rect><g class="key-World_0"><path stroke="#CF0A66" stroke-linecap="round" d="M254 454L258 478L262 474L266 473L270 485L275 477L279 468L283 457L287 464L291 467L295 460L299 475L303 477L308 473L312 484L316 482L320 472L324 467L328 470L332 483L337 477L341 488L345 479L349 478L353 489L357 494L361 495L365 495L370 495L374 492L378 494L382 492L386 506L390 459L394 480L399 481L403 481L407 480L411 484L415 474L419 485L423 484L427 490L432 493L436 492L440 493L444 492L448 492L452 490L456 482L461 478L465 477L469 469L473 463L477 464L481 459L485 455L489 454L494 454L498 453L502 456L506 449L510 453L514 450L518 449L523 452L527 453L531 454L535 456L539 457L543 460L547 459L551 454L556 454L560 446L564 433L568 423L572 419L576 415L580 415L585 417L589 419L593 422L597 404L601 427L605 434L609 447L613 462L618 468L622 464L626 468L630 473L634 478L638 485L642 487L647 484L651 483L655 483L659 481L663 490L667 493L671 496L675 495L680 488L684 480L688 472L692 460L696 454L700 437L704 412L709 404L713 390L717 426L721 422L725 455L729 490" fill="none" stroke-width="1.5"></path></g><g class="key-World_1"><path stroke="#B13507" stroke-linecap="round" d="M254 454L258 458L262 463L266 467L270 471L275 454L279 464L283 464L287 456L291 447L295 456L299 463L303 468L308 463L312 465L316 446L320 488L324 484L328 488L332 474L337 484L341 477L345 494L349 484L353 489L357 492L361 494L365 491L370 491L374 488L378 485L382 479L386 471L390 454L394 441L399 443L403 443L407 449L411 440L415 445L419 450L423 456L427 463L432 465L436 467L440 466L444 473L448 484L452 489L456 491L461 490L465 493L469 492L473 491L477 491L481 486L485 485L489 482L494 482L498 481L502 483L506 479L510 469L514 465L518 464L523 472L527 473L531 467L535 471L539 472L543 480L547 482L551 480L556 486L560 445L564 469L568 461L572 461L576 464L580 473L585 481L589 480L593 475L597 484L601 485L605 488L609 491L613 499L618 500L622 497L626 498L630 496L634 499L638 501L642 505L647 508L651 505L655 508L659 511L663 512L667 512L671 512L675 515L680 517L684 514L688 513L692 511L696 509L700 514L704 511L709 511L713 510L717 513L721 514L725 513L729 516" fill="none" stroke-width="1.5"></path></g><g class="key-World_2"><path stroke="#4C6A9C" stroke-linecap="round" d="M47 485L51 481L56 480L60 462L64 466L68 468L72 456L76 458L80 464L84 454L89 456L93 467L97 477L101 487L105 502L109 507L113 509L118 506L122 502L126 489L130 487L134 480L138 475L142 480L146 492L151 497L155 500L159 503L163 504L167 498L171 492L175 489L180 485L184 488L188 494L192 490L196 483L200 476L204 473L208 484L213 483L217 485L221 484L225 490L229 495L233 497L237 499L242 498L246 492L250 460L254 454L258 468L262 464L266 462L270 463L275 454L279 434L283 442L287 462L291 460L295 453L299 433L303 426L308 433L312 457L316 447L320 445L324 428L328 404L332 454L337 482L341 498L345 492L349 480L353 470L357 462L361 453L365 453L370 470L374 477L378 493L382 500L386 500L390 468L394 449L399 454L403 461L407 451L411 469L415 455L419 456L423 457L427 464L432 469L436 470L440 471L444 473L448 458L452 444L456 443L461 447L465 427L469 434L473 456L477 459L481 457L485 452L489 459L494 462L498 458L502 459L506 451L510 451L514 451L518 422L523 410L527 423L531 433L535 441L539 436L543 436L547 444L551 441L556 422L560 357L564 395L568 387L572 339L576 321L580 317L585 307L589 359L593 385L597 391L601 402L605 413L609 461L613 470L618 469L622 458L626 483L630 489L634 487L638 495L642 494L647 490L651 491L655 496L659 497L663 499L667 500L671 507L675 510L680 506L684 485L688 493L692 487L696 457L700 439L704 464L709 430L713 405L717 432L721 428L725 431L729 459" fill="none" stroke-width="1.5"></path></g><g class="key-World_3"><path stroke="#00823F" stroke-linecap="round" d="M47 465L51 467L56 458L60 410L64 402L68 429L72 418L76 396L80 409L84 434L89 438L93 454L97 453L101 434L105 403L109 432L113 425L118 432L122 427L126 417L130 428L134 440L138 440L142 421L146 435L151 435L155 429L159 445L163 458L167 456L171 451L175 455L180 453L184 465L188 464L192 464L196 462L200 459L204 454L208 450L213 439L217 449L221 455L225 464L229 471L233 467L237 462L242 457L246 449L250 426L254 454L258 461L262 446L266 435L270 445L275 430L279 428L283 434L287 454L291 440L295 443L299 438L303 420L308 444L312 453L316 313L320 340L324 426L328 452L332 470L337 474L341 492L345 480L349 473L353 476L357 466L361 469L365 480L370 482L374 478L378 494L382 499L386 503L390 488L394 488L399 487L403 481L407 466L411 485L415 479L419 467L423 458L427 458L432 463L436 464L440 466L444 467L448 464L452 448L456 458L461 448L465 430L469 442L473 474L477 475L481 465L485 460L489 480L494 492L498 482L502 478L506 486L510 493L514 488L518 463L523 467L527 475L531 479L535 483L539 481L543 483L547 482L551 473L556 405L560 362L564 440L568 449L572 468L576 472L580 465L585 472L589 471L593 482L597 482L601 474L605 485L609 488L613 487L618 463L622 431L626 448L630 473L634 467L638 485L642 484L647 484L651 485L655 473L659 488L663 486L667 485L671 497L675 502L680 501L684 493L688 481L692 412L696 416L700 468L704 476L709 460L713 461L717 470L721 473L725 465L729 473" fill="none" stroke-width="1.5"></path></g><g class="key-World_4"><path stroke="#C05917" stroke-linecap="round" d="M47 488L51 486L56 485L60 480L64 483L68 499L72 500L76 501L80 499L84 499L89 499L93 500L97 500L101 492L105 491L109 498L113 493L118 490L122 492L126 493L130 494L134 496L138 496L142 493L146 492L151 491L155 490L159 489L163 487L167 489L171 494L175 494L180 494L184 493L188 492L192 492L196 487L200 487L204 483L208 481L213 481L217 481L221 484L225 483L229 481L233 480L237 480L242 485L246 487L250 435L254 454L258 463L262 457L266 460L270 472L275 464L279 464L283 463L287 467L291 474L295 471L299 479L303 480L308 476L312 486L316 480L320 439L324 423L328 456L332 477L337 474L341 492L345 494L349 479L353 482L357 487L361 489L365 492L370 490L374 489L378 493L382 491L386 488L390 483L394 480L399 481L403 478L407 466L411 467L415 470L419 472L423 475L427 481L432 484L436 485L440 485L444 483L448 485L452 482L456 477L461 476L465 477L469 477L473 473L477 471L481 466L485 462L489 458L494 459L498 455L502 456L506 457L510 458L514 458L518 456L523 458L527 460L531 462L535 463L539 462L543 461L547 455L551 465L556 458L560 445L564 448L568 453L572 449L576 447L580 456L585 454L589 458L593 462L597 451L601 448L605 443L609 445L613 473L618 475L622 470L626 471L630 473L634 484L638 483L642 483L647 484L651 485L655 485L659 488L663 495L667 488L671 501L675 497L680 487L684 462L688 445L692 453L696 462L700 422L704 447L709 444L713 438L717 444L721 451L725 453L729 458" fill="none" stroke-width="1.5"></path></g><g class="key-World_5"><path stroke="#287669" stroke-linecap="round" d="M254 454L258 444L262 444L266 389L270 456L275 440L279 377L283 389L287 450L291 443L295 442L299 444L303 460L308 451L312 454L316 449L320 401L324 431L328 396L332 402L337 454L341 506L345 479L349 464L353 475L357 469L361 472L365 478L370 473L374 471L378 479L382 486L386 462L390 450L394 473L399 471L403 479L407 481L411 463L415 462L419 471L423 469L427 475L432 476L436 464L440 457L444 463L448 469L452 472L456 465L461 451L465 454L469 444L473 432L477 440L481 448L485 434L489 412L494 428L498 435L502 443L506 436L510 452L514 465L518 462L523 465L527 464L531 467L535 477L539 485L543 485L547 484L551 476L556 472L560 442L564 423L568 411L572 408L576 409L580 409L585 412L589 422L593 403L597 431L601 424L605 430L609 437L613 436L618 417L622 395L626 384L630 365L634 402L638 415L642 419L647 423L651 417L655 422L659 431L663 443L667 438L671 450L675 460L680 442L684 370L688 431L692 422L696 371L700 218L704 352L709 338L713 320L717 360L721 392L725 398L729 426" fill="none" stroke-width="1.5"></path></g><g class="key-World_6"><path stroke="#3C4E66" stroke-linecap="round" d="M254 454L258 454L262 455L266 457L270 453L275 452L279 452L283 435L287 470L291 485L295 486L299 491L303 488L308 485L312 496L316 464L320 419L324 454L328 490L332 498L337 504L341 511L345 513L349 505L353 503L357 504L361 504L365 506L370 507L374 507L378 506L382 504L386 501L390 499L394 503L399 505L403 505L407 507L411 507L415 506L419 508L423 513L427 517L432 518L436 518L440 518L444 521L448 523L452 522L456 521L461 520L465 520L469 520L473 519L477 519L481 517L485 517L489 517L494 518L498 518L502 518L506 518L510 519L514 520L518 520L523 520L527 520L531 520L535 520L539 520L543 520L547 521L551 523L556 524L560 521L564 520L568 520L572 518L576 519L580 519L585 518L589 518L593 519L597 519L601 519L605 520L609 518L613 522L618 514L622 520L626 523L630 526L634 527L638 528L642 526L647 524L651 526L655 526L659 527L663 527L667 527L671 527L675 528L680 528L684 527L688 526L692 523L696 523L700 524L704 528L709 526L713 525L717 527L721 528L725 528L729 529" fill="none" stroke-width="1.5"></path></g><g class="key-World_7"><path stroke="#D73C50" stroke-linecap="round" d="M254 454L258 450L262 468L266 477L270 472L275 476L279 480L283 487L287 482L291 484L295 490L299 490L303 497L308 498L312 501L316 495L320 486L324 481L328 442L332 486L337 511L341 519L345 517L349 516L353 515L357 518L361 519L365 518L370 518L374 517L378 511L382 500L386 489L390 499L394 501L399 496L403 497L407 500L411 499L415 500L419 500L423 502L427 495L432 491L436 488L440 489L444 504L448 501L452 498L456 498L461 499L465 499L469 493L473 487L477 498L481 497L485 493L489 488L494 489L498 480L502 501L506 508L510 486L514 490L518 488L523 486L527 491L531 488L535 488L539 491L543 496L547 480L551 479L556 479L560 458L564 406L568 431L572 438L576 452L580 440L585 443L589 443L593 452L597 458L601 453L605 451L609 462L613 467L618 430L622 417L626 454L630 457L634 461L638 479L642 480L647 441L651 465L655 460L659 469L663 485L667 483L671 478L675 483L680 476L684 449L688 444L692 452L696 420L700 343L704 423L709 391L713 398L717 396L721 416L725 408L729 428" fill="none" stroke-width="1.5"></path></g><g class="key-World_8"><path stroke="#6D3E91" stroke-linecap="round" d="M47 441L51 439L56 426L60 405L64 406L68 409L72 415L76 413L80 423L84 424L89 427L93 440L97 453L101 471L105 482L109 487L113 487L118 490L122 489L126 487L130 488L134 482L138 463L142 469L146 470L151 465L155 468L159 474L163 477L167 480L171 477L175 478L180 474L184 476L188 483L192 493L196 495L200 492L204 455L208 483L213 479L217 482L221 489L225 491L229 491L233 487L237 482L242 479L246 476L250 451L254 454L258 455L262 481L266 472L270 474L275 460L279 445L283 445L287 475L291 475L295 479L299 480L303 464L308 470L312 478L316 463L320 430L324 448L328 468L332 491L337 500L341 507L345 503L349 501L353 504L357 502L361 503L365 505L370 501L374 492L378 503L382 513L386 519L390 513L394 510L399 509L403 507L407 498L411 506L415 503L419 502L423 502L427 506L432 507L436 508L440 508L444 506L448 497L452 498L456 502L461 499L465 497L469 498L473 491L477 490L481 478L485 472L489 492L494 499L498 491L502 491L506 494L510 494L514 494L518 493L523 490L527 490L531 488L535 486L539 482L543 474L547 483L551 486L556 481L560 472L564 487L568 486L572 491L576 494L580 483L585 484L589 498L593 504L597 503L601 509L605 510L609 511L613 505L618 493L622 491L626 496L630 502L634 504L638 510L642 505L647 498L651 507L655 508L659 516L663 517L667 515L671 518L675 519L680 517L684 506L688 499L692 471L696 469L700 473L704 489L709 469L713 460L717 469L721 475L725 480L729 491" fill="none" stroke-width="1.5"></path></g><g class="key-World_9"><path stroke="#883039" stroke-linecap="round" d="M47 422L51 423L56 421L60 381L64 393L68 400L72 388L76 397L80 401L84 401L89 404L93 419L97 433L101 453L105 469L109 474L113 471L118 469L122 468L126 465L130 465L134 461L138 453L142 438L146 438L151 433L155 434L159 438L163 452L167 460L171 455L175 462L180 465L184 471L188 478L192 475L196 465L200 468L204 463L208 465L213 463L217 467L221 477L225 479L229 480L233 472L237 467L242 460L246 456L250 443L254 454L258 455L262 461L266 460L270 459L275 451L279 437L283 447L287 464L291 462L295 462L299 462L303 463L308 466L312 475L316 462L320 437L324 431L328 461L332 485L337 475L341 497L345 483L349 471L353 463L357 457L361 463L365 476L370 479L374 475L378 485L382 493L386 500L390 490L394 491L399 490L403 484L407 472L411 484L415 480L419 479L423 476L427 475L432 478L436 479L440 480L444 472L448 435L452 421L456 437L461 451L465 433L469 441L473 459L477 456L481 449L485 446L489 456L494 472L498 472L502 474L506 480L510 487L514 480L518 469L523 458L527 465L531 472L535 478L539 474L543 474L547 484L551 481L556 480L560 466L564 475L568 474L572 458L576 457L580 425L585 457L589 474L593 498L597 504L601 500L605 510L609 509L613 498L618 496L622 497L626 491L630 506L634 508L638 515L642 509L647 506L651 500L655 508L659 512L663 514L667 517L671 516L675 517L680 515L684 502L688 500L692 490L696 447L700 466L704 478L709 465L713 459L717 471L721 470L725 472L729 482" fill="none" stroke-width="1.5"></path></g><g class="key-World_10"><path stroke="#00847E" stroke-linecap="round" d="M47 196L51 188L56 192L60 233L64 257L68 286L72 281L76 307L80 335L84 337L89 337L93 348L97 388L101 355L105 335L109 394L113 401L118 394L122 425L126 395L130 401L134 387L138 282L142 94L146 161L151 165L155 212L159 325L163 404L167 413L171 408L175 413L180 402L184 383L188 437L192 442L196 465L200 446L204 452L208 438L213 437L217 452L221 422L225 456L229 444L233 486L237 481L242 481L246 481L250 482L254 454L258 444L262 463L266 473L270 474L275 473L279 474L283 470L287 468L291 475L295 477L299 477L303 479L308 477L312 479L316 479L320 483L324 492L328 499L332 505L337 507L341 504L345 505L349 507L353 512L357 510L361 508L365 508L370 507L374 508L378 507L382 505L386 501L390 499L394 501L399 501L403 502L407 503L411 502L415 502L419 502L423 504L427 509L432 511L436 511L440 512L444 511L448 514L452 515L456 513L461 510L465 508L469 507L473 506L477 505L481 502L485 504L489 500L494 501L498 502L502 502L506 501L510 500L514 501L518 501L523 502L527 503L531 500L535 499L539 497L543 491L547 492L551 491L556 490L560 488L564 484L568 483L572 486L576 494L580 487L585 490L589 496L593 505L597 507L601 508L605 507L609 514L613 510L618 465L622 471L626 494L630 499L634 505L638 513L642 510L647 503L651 506L655 509L659 518L663 514L667 505L671 515L675 513L680 504L684 491L688 490L692 463L696 427L700 476L704 494L709 475L713 474L717 489L721 496L725 492L729 505" fill="none" stroke-width="1.5"></path></g></g></g></g><g class="SourcesFooter" style="fill:#777"><g class="clickable" style="fill:#777"><text font-size="12.60" x="15.0" y="581.6"><tspan x="15" y="581.58">Source: Jacks (2016). Chartbook for “From Boom to Bust”.</tspan></text></g><text font-size="12.60" x="796.4" y="581.6"><tspan x="796.444" y="581.58"><a style="fill: #777;" class="cclogo" href="http://creativecommons.org/licenses/by/4.0/deed.en_US" target="_blank">CC BY</a></tspan></text></g></svg>