<svg xmlns="http://www.w3.org/2000/svg" version="1.1" style="font-family:Lato, &#x27;Helvetica Neue&#x27;, Helvetica, Arial, sans-serif;font-size:18px;background-color:white;text-rendering:optimizeLegibility;-webkit-font-smoothing:antialiased" width="850" height="600" viewBox="0 0 850 600"><g class="HeaderView"><g transform="translate(774, 15) scale(0.29)"><svg width="210" height="120" viewBox="0 0 210 120" fill="none" xmlns="http://www.w3.org/2000/svg">
<g clip-path="url(#clip0)">
  <path d="M0 0h210v107.89H0V0z" fill="#002147" />
  <path
    d="M40.98 32.25c0 2.36-.38 4.53-1.12 6.51a14.26 14.26 0 01-8.1 8.4c-1.9.78-4.02 1.17-6.34 1.17-2.31 0-4.42-.39-6.33-1.17a14.31 14.31 0 01-8.08-8.4 18.29 18.29 0 01-1.12-6.51c0-2.36.38-4.53 1.12-6.5.75-1.97 1.8-3.67 3.17-5.1 1.37-1.43 3-2.55 4.9-3.34 1.92-.8 4.03-1.19 6.34-1.19 2.32 0 4.43.4 6.34 1.19 1.92.8 3.56 1.9 4.93 3.34a14.87 14.87 0 013.17 5.1 18.1 18.1 0 011.12 6.5zm-4.38 0c0-1.94-.26-3.68-.8-5.22a10.91 10.91 0 00-2.24-3.89 9.68 9.68 0 00-3.52-2.46 11.95 11.95 0 00-4.62-.86c-1.68 0-3.21.28-4.6.86a9.88 9.88 0 00-3.54 2.46 10.91 10.91 0 00-2.24 3.9c-.53 1.53-.8 3.27-.8 5.2 0 1.94.27 3.68.8 5.22a11.17 11.17 0 002.24 3.9 10.01 10.01 0 003.55 2.44c1.38.56 2.9.83 4.6.83 1.7 0 3.24-.27 4.61-.83a9.8 9.8 0 003.52-2.44 11.17 11.17 0 002.25-3.9c.53-1.54.8-3.28.8-5.21zm26.22-6.54V48H60.5c-.56 0-.9-.27-1.05-.81l-.31-2.4a12.45 12.45 0 01-3.26 2.6c-1.2.64-2.58.96-4.13.96-1.22 0-2.3-.2-3.24-.6a6.52 6.52 0 01-2.33-1.7 7.37 7.37 0 01-1.43-2.67c-.3-1.04-.46-2.2-.46-3.45V25.7h3.91v14.22c0 1.68.38 2.99 1.15 3.91.77.93 1.96 1.39 3.54 1.39 1.16 0 2.24-.27 3.23-.82a10.42 10.42 0 002.8-2.28V25.7h3.91zm8.61 4.47a9.94 9.94 0 012.6-3.56 5.64 5.64 0 013.76-1.3c.47 0 .92.05 1.34.15.44.1.83.27 1.17.49L80 28.88c-.09.37-.3.55-.66.55-.2 0-.5-.04-.9-.13a6.21 6.21 0 00-3.24.18c-.54.2-1.03.5-1.47.92-.42.4-.81.9-1.17 1.5-.33.58-.64 1.26-.92 2.02V48h-3.94V25.71h2.25c.42 0 .72.08.88.25.16.16.27.44.33.83l.26 3.39zm61.16-13.7L122.75 48h-3.82l-7.99-24.05a21.95 21.95 0 01-.42-1.58 38.36 38.36 0 01-.44 1.58L102.05 48h-3.83L88.4 16.47h3.54c.38 0 .7.1.95.29.26.2.43.43.5.73l6.52 21.9c.1.4.2.83.28 1.28.1.46.2.94.29 1.46l.3-1.46c.12-.47.25-.9.38-1.27l7.41-21.91c.1-.25.26-.48.51-.69.27-.22.58-.33.95-.33h1.23c.38 0 .69.1.92.29.24.2.41.43.53.73l7.4 21.9a28.4 28.4 0 01.68 2.62 29.52 29.52 0 01.52-2.61l6.54-21.91c.07-.27.23-.5.48-.7.27-.21.58-.32.95-.32h3.32zm9.35 8.88c1.63 0 3.1.27 4.4.82a9.43 9.43 0 015.46 5.94c.5 1.4.74 2.98.74 4.73 0 1.76-.25 3.34-.74 4.75a9.43 9.43 0 01-5.46 5.92c-1.3.52-2.77.79-4.4.79-1.64 0-3.12-.27-4.44-.8a9.42 9.42 0 01-3.35-2.3c-.92-1-1.63-2.2-2.13-3.61-.49-1.41-.73-3-.73-4.75s.24-3.33.73-4.73c.5-1.43 1.2-2.64 2.13-3.63.93-1 2.04-1.77 3.35-2.31 1.32-.55 2.8-.82 4.44-.82zm0 19.89c2.2 0 3.84-.73 4.93-2.2 1.08-1.48 1.63-3.54 1.63-6.18 0-2.66-.55-4.72-1.63-6.2-1.09-1.49-2.73-2.23-4.93-2.23-1.12 0-2.09.2-2.93.57-.82.39-1.5.94-2.06 1.65-.55.72-.96 1.61-1.24 2.67-.26 1.04-.4 2.22-.4 3.54 0 2.64.55 4.7 1.64 6.18 1.1 1.47 2.76 2.2 4.99 2.2zm17.97-15.07a9.94 9.94 0 012.6-3.56 5.64 5.64 0 013.76-1.3c.47 0 .91.05 1.34.15.44.1.83.27 1.16.49l-.28 2.92c-.09.37-.31.55-.66.55-.2 0-.5-.04-.9-.13a6.2 6.2 0 00-3.24.18c-.54.2-1.03.5-1.47.92-.43.4-.82.9-1.17 1.5a13.1 13.1 0 00-.92 2.02V48h-3.94V25.71h2.24c.43 0 .72.08.88.25.17.16.28.44.33.83l.27 3.39zm15.04-14.59V48h-3.92V15.6h3.92zm19.55 15.43a6.22 6.22 0 00-2.38-2.05 6.7 6.7 0 00-2.86-.6c-2.07 0-3.66.75-4.77 2.23-1.12 1.48-1.68 3.6-1.68 6.33 0 1.46.13 2.7.38 3.74a7.29 7.29 0 001.1 2.56 4.35 4.35 0 001.78 1.45c.7.3 1.5.46 2.4.46 1.29 0 2.41-.3 3.36-.88a9.6 9.6 0 002.67-2.49V31.02zm3.91-15.43V48h-2.33c-.56 0-.9-.27-1.06-.81l-.35-2.71a12.13 12.13 0 01-3.25 2.77 8.28 8.28 0 01-4.23 1.06 7.31 7.31 0 01-6.14-2.9c-.73-.96-1.3-2.15-1.69-3.57a18.35 18.35 0 01.07-9.48 11.29 11.29 0 011.89-3.7 8.7 8.7 0 017.06-3.34 7.96 7.96 0 016.12 2.62V15.59h3.91zM46.61 70.71V93H42.7V70.71h3.91zm.84-7c0 .39-.08.75-.24 1.09-.15.32-.35.61-.62.88-.25.25-.55.44-.9.59a2.67 2.67 0 01-2.16 0 2.9 2.9 0 01-1.45-1.47 2.67 2.67 0 010-2.16c.15-.35.35-.65.6-.9.25-.27.53-.47.85-.62a2.67 2.67 0 012.16 0c.35.15.65.35.9.62.27.25.47.55.62.9.16.34.24.7.24 1.08zm7.97 10.24c.49-.54 1-1.04 1.54-1.48a9.85 9.85 0 013.66-1.84 8.96 8.96 0 015.43.35c.94.4 1.72.97 2.33 1.71.63.74 1.11 1.62 1.43 2.67.32 1.04.49 2.19.49 3.45V93h-3.94V78.81c0-1.69-.4-3-1.17-3.92-.76-.93-1.93-1.4-3.5-1.4-1.15 0-2.24.27-3.25.83-1 .56-1.92 1.31-2.77 2.27V93h-3.94V70.71h2.35c.56 0 .9.28 1.04.82l.3 2.42zm57.7 3.3c0 2.36-.37 4.5-1.11 6.44a14.3 14.3 0 01-3.17 4.98c-1.37 1.37-3 2.45-4.93 3.2-1.9.76-4.02 1.13-6.33 1.13H85.8V61.47h11.77c2.31 0 4.42.39 6.33 1.15a13.8 13.8 0 018.1 8.18 17.75 17.75 0 011.12 6.45zm-4.37 0c0-1.94-.26-3.67-.8-5.2a10.94 10.94 0 00-2.23-3.87 9.57 9.57 0 00-3.53-2.42 12.23 12.23 0 00-4.61-.83h-7.5v24.62h7.5c1.7 0 3.24-.28 4.61-.84a9.7 9.7 0 003.53-2.4 10.94 10.94 0 002.24-3.87c.53-1.53.8-3.26.8-5.2zm19.8 5.72c-1.8.06-3.34.2-4.62.44-1.26.22-2.3.51-3.1.88-.8.36-1.37.8-1.74 1.3-.35.5-.53 1.05-.53 1.67 0 .58.1 1.1.3 1.52a3 3 0 00.76 1.05c.34.27.73.46 1.17.6.45.11.94.17 1.45.17a7.28 7.28 0 003.5-.81 11.95 11.95 0 002.82-2.2v-4.62zm-12.65-9.11a12.73 12.73 0 013.98-2.66c1.43-.59 3-.88 4.73-.88 1.25 0 2.36.2 3.33.61a6.81 6.81 0 013.94 4.38c.33 1.04.5 2.19.5 3.43V93h-1.74a1.8 1.8 0 01-.88-.18c-.2-.13-.36-.38-.48-.74l-.44-2.12c-.59.55-1.16 1.03-1.72 1.46a9.48 9.48 0 01-3.74 1.7c-.69.15-1.46.23-2.3.23-.87 0-1.69-.12-2.45-.35a5.34 5.34 0 01-3.34-2.93 6.64 6.64 0 01-.49-2.64c0-.88.25-1.72.73-2.53a6.33 6.33 0 012.35-2.17c1.09-.63 2.5-1.15 4.25-1.54 1.75-.41 3.89-.65 6.42-.7v-1.75c0-1.73-.37-3.03-1.12-3.91-.75-.9-1.84-1.34-3.28-1.34-.97 0-1.78.12-2.44.37-.64.23-1.2.5-1.7.81l-1.23.82c-.33.23-.67.35-1 .35-.27 0-.5-.07-.69-.2a2.1 2.1 0 01-.48-.53l-.7-1.25zm27.67 19.5c-1.76 0-3.12-.5-4.07-1.48-.94-.98-1.41-2.4-1.41-4.25V74h-2.68a.9.9 0 01-.6-.2c-.16-.14-.24-.36-.24-.66v-1.56l3.65-.46.9-6.89c.05-.22.14-.4.29-.52a.88.88 0 01.62-.22H142v7.67h6.44V74h-6.44v13.38c0 .94.22 1.63.68 2.09.45.45 1.04.68 1.76.68a3.21 3.21 0 001.85-.53l.55-.35c.16-.12.3-.18.41-.18.2 0 .4.13.55.38l1.15 1.87a7.45 7.45 0 01-2.44 1.5c-.96.35-1.94.52-2.95.52zm19.68-10.4c-1.8.07-3.34.21-4.62.45-1.26.22-2.3.51-3.1.88-.8.36-1.37.8-1.74 1.3-.35.5-.53 1.05-.53 1.67 0 .58.1 1.1.3 1.52.18.42.44.77.76 1.05.34.27.73.46 1.17.6.45.11.94.17 1.45.17a7.3 7.3 0 003.5-.81 12.04 12.04 0 002.82-2.2v-4.62zm-12.65-9.1a12.72 12.72 0 013.99-2.66c1.42-.59 3-.88 4.72-.88 1.25 0 2.36.2 3.33.61a6.81 6.81 0 013.94 4.38c.33 1.04.5 2.19.5 3.43V93h-1.74a1.8 1.8 0 01-.88-.18c-.2-.13-.36-.38-.48-.74l-.44-2.12c-.59.55-1.16 1.03-1.72 1.46a9.48 9.48 0 01-3.74 1.7c-.69.15-1.46.23-2.3.23-.87 0-1.69-.12-2.45-.35a5.33 5.33 0 01-3.34-2.93 6.62 6.62 0 01-.49-2.64c0-.88.25-1.72.73-2.53a6.33 6.33 0 012.35-2.17c1.09-.63 2.5-1.15 4.25-1.54 1.74-.41 3.89-.65 6.42-.7v-1.75c0-1.73-.37-3.03-1.12-3.91-.75-.9-1.84-1.34-3.28-1.34-.97 0-1.78.12-2.44.37-.64.23-1.2.5-1.7.81-.46.3-.87.57-1.22.82-.34.23-.68.35-1.02.35-.26 0-.49-.07-.68-.2-.19-.14-.35-.32-.48-.53l-.7-1.25z"
    fill="#fff"
  />
  <path fill="#D42B21" d="M0 106.79h210V120H0z" />
</g>
<defs>
  <clipPath id="clip0"><path fill="#fff" d="M0 0h210v120H0z" /></clipPath>
</defs>
</svg></g><a href="http://localhost:3099/grapher/revenues-for-public-schools-by-source-gdp-us" style="font-family:&quot;Playfair Display&quot;, Georgia, &quot;Times New Roman&quot;, serif" target="_blank"><text font-size="25.20" x="15.0" y="35.2" fill="#555"><tspan x="15" y="35.160000000000004">Funding sources for public schools, United States, 1890 to 2010</tspan></text></a><text font-size="14.40" x="15.0" y="55.7" fill="#666"><tspan x="15" y="55.72">Revenues for public elementary and secondary schools in the US, as share of GDP, by source of funds.</tspan></text></g><g class="StackedArea"><defs><clipPath id="boundsClip-140"><rect x="57.098" y="0" width="820" height="955.8"></rect></clipPath></defs><g class="AxisBoxView"><g class="HorizontalAxis"><line x1="57.1" y1="535.3" x2="57.1" y2="539.3" stroke="#ccc"></line><line x1="108.9" y1="535.3" x2="108.9" y2="539.3" stroke="#ccc"></line><line x1="212.5" y1="535.3" x2="212.5" y2="539.3" stroke="#ccc"></line><line x1="316.1" y1="535.3" x2="316.1" y2="539.3" stroke="#ccc"></line><line x1="419.7" y1="535.3" x2="419.7" y2="539.3" stroke="#ccc"></line><line x1="523.4" y1="535.3" x2="523.4" y2="539.3" stroke="#ccc"></line><line x1="627" y1="535.3" x2="627" y2="539.3" stroke="#ccc"></line><line x1="678.8" y1="535.3" x2="678.8" y2="539.3" stroke="#ccc"></line><text x="57.1" y="556.5" fill="#666" text-anchor="middle" font-size="16.2">1890</text><text x="108.9" y="556.5" fill="#666" text-anchor="middle" font-size="16.2">1900</text><text x="212.5" y="556.5" fill="#666" text-anchor="middle" font-size="16.2">1920</text><text x="316.1" y="556.5" fill="#666" text-anchor="middle" font-size="16.2">1940</text><text x="419.7" y="556.5" fill="#666" text-anchor="middle" font-size="16.2">1960</text><text x="523.4" y="556.5" fill="#666" text-anchor="middle" font-size="16.2">1980</text><text x="627" y="556.5" fill="#666" text-anchor="middle" font-size="16.2">2000</text><text x="678.8" y="556.5" fill="#666" text-anchor="middle" font-size="16.2">2010</text></g><g class="VerticalAxis"><text x="52.10" y="535.3" fill="#666" dominant-baseline="middle" text-anchor="end" font-size="16.2">0%</text><text x="52.10" y="480.9" fill="#666" dominant-baseline="middle" text-anchor="end" font-size="16.2">0.5%</text><text x="52.10" y="426.5" fill="#666" dominant-baseline="middle" text-anchor="end" font-size="16.2">1%</text><text x="52.10" y="372" fill="#666" dominant-baseline="middle" text-anchor="end" font-size="16.2">1.5%</text><text x="52.10" y="317.6" fill="#666" dominant-baseline="middle" text-anchor="end" font-size="16.2">2%</text><text x="52.10" y="263.2" fill="#666" dominant-baseline="middle" text-anchor="end" font-size="16.2">2.5%</text><text x="52.10" y="208.8" fill="#666" dominant-baseline="middle" text-anchor="end" font-size="16.2">3%</text><text x="52.10" y="154.3" fill="#666" dominant-baseline="middle" text-anchor="end" font-size="16.2">3.5%</text><text x="52.10" y="99.9" fill="#666" dominant-baseline="middle" text-anchor="end" font-size="16.2">4%</text></g><g class="AxisGridLines horizontalLines"><line x1="57.10" y1="535.3" x2="678.77" y2="535.3" stroke="#ccc"></line><line x1="57.10" y1="480.9" x2="678.77" y2="480.9" stroke="#ddd" stroke-dasharray="3,2"></line><line x1="57.10" y1="426.5" x2="678.77" y2="426.5" stroke="#ddd" stroke-dasharray="3,2"></line><line x1="57.10" y1="372" x2="678.77" y2="372" stroke="#ddd" stroke-dasharray="3,2"></line><line x1="57.10" y1="317.6" x2="678.77" y2="317.6" stroke="#ddd" stroke-dasharray="3,2"></line><line x1="57.10" y1="263.2" x2="678.77" y2="263.2" stroke="#ddd" stroke-dasharray="3,2"></line><line x1="57.10" y1="208.8" x2="678.77" y2="208.8" stroke="#ddd" stroke-dasharray="3,2"></line><line x1="57.10" y1="154.3" x2="678.77" y2="154.3" stroke="#ddd" stroke-dasharray="3,2"></line><line x1="57.10" y1="99.9" x2="678.77" y2="99.9" stroke="#ddd" stroke-dasharray="3,2"></line></g></g><g clip-path="url(#boundsClip-140)"><g class="HeightedLegend" style="cursor:default"><g class="legendMark"><rect x="678.77" y="182.85" width="67.4" height="13.5" fill="#fff" opacity="0"></rect><text font-size="13.50" x="682.8" y="193.7" fill="#ffd53e"><tspan x="682.77" y="193.65">Local</tspan></text></g><g class="legendMark"><rect x="678.77" y="376.05" width="66.725" height="13.5" fill="#fff" opacity="0"></rect><text font-size="13.50" x="682.8" y="386.9" fill="#34983f"><tspan x="682.77" y="386.85">State</tspan></text></g><g class="legendMark"><rect x="678.77" y="500.35" width="156.23000000000002" height="13.5" fill="#fff" opacity="0"></rect><text font-size="13.50" x="682.8" y="511.2" fill="#3360a9"><tspan x="682.77" y="511.15000000000003">Federal/Unassigned</tspan></text></g></g><g class="Areas"><rect x="57.098" y="78.6" width="621.672" height="456.69999999999993" opacity="0" fill="rgba(255,255,255,0)"></rect><path class="United-States_2-area" stroke-linecap="round" d="M57.1 518.7L62.3 517.9L67.5 519.3L72.6 517.2L77.8 514.6L83 517.3L88.2 517.3L93.4 514.4L98.5 514.8L103.7 520.9L108.9 516.1L114.1 516.9L119.3 518.7L124.4 517.2L129.6 514.9L134.8 514.5L140 516L145.2 507.4L150.3 509.8L155.5 518.7L160.7 518L165.9 520.7L171.1 522.6L176.3 520.7L181.4 521.5L186.6 523.9L191.8 523.8L202.2 535L212.5 535L222.9 534.9L233.2 534.8L243.6 534.7L254 534.6L264.3 534.4L274.7 533.8L285 531.8L295.4 534L305.8 531.9L316.1 531L326.5 533L336.9 533.5L347.2 533.3L357.6 530.4L367.9 529.5L378.3 528.4L388.7 525.1L399 524.3L409.4 524L419.7 521.8L430.1 521.2L440.5 520.6L450.8 507.7L461.2 501.7L471.5 501.5L523.4 498.2L575.2 511.5L585.5 508.7L590.7 507.1L595.9 507.1L601.1 508L606.2 508.8L611.4 509.1L616.6 507.8L621.8 506.8L627 505.7L632.1 504.5L637.3 501.4L642.5 498.7L647.7 496.9L652.9 496.7L658 496.7L663.2 498.8L668.4 499.1L673.6 491.6L678.8 478.9L678.77 535.3L57.098 535.3" fill="#3360a9" fill-opacity="0.7"></path><path class="United-States_1-area" stroke-linecap="round" d="M57.1 497.1L62.3 493.5L67.5 496.5L72.6 490.3L77.8 486.1L83 489.9L88.2 488.7L93.4 489.1L98.5 490.1L103.7 499L108.9 494L114.1 498L119.3 499L124.4 498.2L129.6 494.4L134.8 495.4L140 497.8L145.2 491.3L150.3 487L155.5 497.8L160.7 498L165.9 499.7L171.1 501.6L176.3 499.3L181.4 496.7L186.6 499.1L191.8 502.4L202.2 513L212.5 516L222.9 500.9L233.2 501.1L243.6 502.7L254 497.2L264.3 492.2L274.7 457.6L285 462L295.4 458.9L305.8 449L316.1 457.6L326.5 481.9L336.9 491L347.2 481.3L357.6 462.6L367.9 449.3L378.3 453.1L388.7 440.9L399 429L409.4 412.1L419.7 402.6L430.1 395L440.5 388.1L450.8 370.6L461.2 354.9L471.5 333.2L523.4 321.2L575.2 327.1L585.5 322L590.7 322L595.9 326.7L601.1 320.5L606.2 319L611.4 317.8L616.6 312.7L621.8 309.8L627 303.7L632.1 293.3L637.3 290.2L642.5 289.3L647.7 297.5L652.9 299.9L658 300L663.2 294.8L668.4 285L673.6 278.4L678.8 286.7L678.8 478.9L673.6 491.6L668.4 499.1L663.2 498.8L658 496.7L652.9 496.7L647.7 496.9L642.5 498.7L637.3 501.4L632.1 504.5L627 505.7L621.8 506.8L616.6 507.8L611.4 509.1L606.2 508.8L601.1 508L595.9 507.1L590.7 507.1L585.5 508.7L575.2 511.5L523.4 498.2L471.5 501.5L461.2 501.7L450.8 507.7L440.5 520.6L430.1 521.2L419.7 521.8L409.4 524L399 524.3L388.7 525.1L378.3 528.4L367.9 529.5L357.6 530.4L347.2 533.3L336.9 533.5L326.5 533L316.1 531L305.8 531.9L295.4 534L285 531.8L274.7 533.8L264.3 534.4L254 534.6L243.6 534.7L233.2 534.8L222.9 534.9L212.5 535L202.2 535L191.8 523.8L186.6 523.9L181.4 521.5L176.3 520.7L171.1 522.6L165.9 520.7L160.7 518L155.5 518.7L150.3 509.8L145.2 507.4L140 516L134.8 514.5L129.6 514.9L124.4 517.2L119.3 518.7L114.1 516.9L108.9 516.1L103.7 520.9L98.5 514.8L93.4 514.4L88.2 517.3L83 517.3L77.8 514.6L72.6 517.2L67.5 519.3L62.3 517.9L57.1 518.7" fill="#34983f" fill-opacity="0.7"></path><path class="United-States_0-area" stroke-linecap="round" d="M57.1 416.5L62.3 406.4L67.5 415.8L72.6 405.2L77.8 388.4L83 396.7L88.2 386.4L93.4 392.2L98.5 393.9L103.7 408.3L108.9 407.2L114.1 411.7L119.3 411.8L124.4 415.5L129.6 402.7L134.8 404.3L140 413.2L145.2 408.2L150.3 385.2L155.5 403.6L160.7 401.8L165.9 398.2L171.1 405.7L176.3 395.9L181.4 376.8L186.6 374.8L191.8 392.4L202.2 402.5L212.5 419.9L222.9 326.9L233.2 335.3L243.6 329.9L254 308.1L264.3 286L274.7 151.7L285 236.7L295.4 279.3L305.8 254.3L316.1 292.7L326.5 372.8L336.9 406.3L347.2 385.4L357.6 360.9L367.9 333.8L378.3 340.2L388.7 310.2L399 294.3L409.4 251.5L419.7 230.4L430.1 209.6L440.5 198.3L450.8 184.9L461.2 153.6L471.5 113.2L523.4 157.1L575.2 144L585.5 132.7L590.7 131.1L595.9 135.6L601.1 134.3L606.2 135.8L611.4 136.8L616.6 131.9L621.8 131.1L627 127.4L632.1 110.6L637.3 106.3L642.5 105.4L647.7 111.6L652.9 115.2L658 112.4L663.2 105.2L668.4 92.4L673.6 78.6L678.8 92.5L678.8 286.7L673.6 278.4L668.4 285L663.2 294.8L658 300L652.9 299.9L647.7 297.5L642.5 289.3L637.3 290.2L632.1 293.3L627 303.7L621.8 309.8L616.6 312.7L611.4 317.8L606.2 319L601.1 320.5L595.9 326.7L590.7 322L585.5 322L575.2 327.1L523.4 321.2L471.5 333.2L461.2 354.9L450.8 370.6L440.5 388.1L430.1 395L419.7 402.6L409.4 412.1L399 429L388.7 440.9L378.3 453.1L367.9 449.3L357.6 462.6L347.2 481.3L336.9 491L326.5 481.9L316.1 457.6L305.8 449L295.4 458.9L285 462L274.7 457.6L264.3 492.2L254 497.2L243.6 502.7L233.2 501.1L222.9 500.9L212.5 516L202.2 513L191.8 502.4L186.6 499.1L181.4 496.7L176.3 499.3L171.1 501.6L165.9 499.7L160.7 498L155.5 497.8L150.3 487L145.2 491.3L140 497.8L134.8 495.4L129.6 494.4L124.4 498.2L119.3 499L114.1 498L108.9 494L103.7 499L98.5 490.1L93.4 489.1L88.2 488.7L83 489.9L77.8 486.1L72.6 490.3L67.5 496.5L62.3 493.5L57.1 497.1" fill="#ffd53e" fill-opacity="0.7"></path><path class="United-States_2-border" stroke-linecap="round" d="M57.1 518.7L62.3 517.9L67.5 519.3L72.6 517.2L77.8 514.6L83 517.3L88.2 517.3L93.4 514.4L98.5 514.8L103.7 520.9L108.9 516.1L114.1 516.9L119.3 518.7L124.4 517.2L129.6 514.9L134.8 514.5L140 516L145.2 507.4L150.3 509.8L155.5 518.7L160.7 518L165.9 520.7L171.1 522.6L176.3 520.7L181.4 521.5L186.6 523.9L191.8 523.8L202.2 535L212.5 535L222.9 534.9L233.2 534.8L243.6 534.7L254 534.6L264.3 534.4L274.7 533.8L285 531.8L295.4 534L305.8 531.9L316.1 531L326.5 533L336.9 533.5L347.2 533.3L357.6 530.4L367.9 529.5L378.3 528.4L388.7 525.1L399 524.3L409.4 524L419.7 521.8L430.1 521.2L440.5 520.6L450.8 507.7L461.2 501.7L471.5 501.5L523.4 498.2L575.2 511.5L585.5 508.7L590.7 507.1L595.9 507.1L601.1 508L606.2 508.8L611.4 509.1L616.6 507.8L621.8 506.8L627 505.7L632.1 504.5L637.3 501.4L642.5 498.7L647.7 496.9L652.9 496.7L658 496.7L663.2 498.8L668.4 499.1L673.6 491.6L678.8 478.9" stroke="rgb(43, 80, 141)" stroke-opacity="0.7" stroke-width="0.5" fill="none"></path><path class="United-States_1-border" stroke-linecap="round" d="M57.1 497.1L62.3 493.5L67.5 496.5L72.6 490.3L77.8 486.1L83 489.9L88.2 488.7L93.4 489.1L98.5 490.1L103.7 499L108.9 494L114.1 498L119.3 499L124.4 498.2L129.6 494.4L134.8 495.4L140 497.8L145.2 491.3L150.3 487L155.5 497.8L160.7 498L165.9 499.7L171.1 501.6L176.3 499.3L181.4 496.7L186.6 499.1L191.8 502.4L202.2 513L212.5 516L222.9 500.9L233.2 501.1L243.6 502.7L254 497.2L264.3 492.2L274.7 457.6L285 462L295.4 458.9L305.8 449L316.1 457.6L326.5 481.9L336.9 491L347.2 481.3L357.6 462.6L367.9 449.3L378.3 453.1L388.7 440.9L399 429L409.4 412.1L419.7 402.6L430.1 395L440.5 388.1L450.8 370.6L461.2 354.9L471.5 333.2L523.4 321.2L575.2 327.1L585.5 322L590.7 322L595.9 326.7L601.1 320.5L606.2 319L611.4 317.8L616.6 312.7L621.8 309.8L627 303.7L632.1 293.3L637.3 290.2L642.5 289.3L647.7 297.5L652.9 299.9L658 300L663.2 294.8L668.4 285L673.6 278.4L678.8 286.7" stroke="rgb(44, 127, 53)" stroke-opacity="0.7" stroke-width="0.5" fill="none"></path><path class="United-States_0-border" stroke-linecap="round" d="M57.1 416.5L62.3 406.4L67.5 415.8L72.6 405.2L77.8 388.4L83 396.7L88.2 386.4L93.4 392.2L98.5 393.9L103.7 408.3L108.9 407.2L114.1 411.7L119.3 411.8L124.4 415.5L129.6 402.7L134.8 404.3L140 413.2L145.2 408.2L150.3 385.2L155.5 403.6L160.7 401.8L165.9 398.2L171.1 405.7L176.3 395.9L181.4 376.8L186.6 374.8L191.8 392.4L202.2 402.5L212.5 419.9L222.9 326.9L233.2 335.3L243.6 329.9L254 308.1L264.3 286L274.7 151.7L285 236.7L295.4 279.3L305.8 254.3L316.1 292.7L326.5 372.8L336.9 406.3L347.2 385.4L357.6 360.9L367.9 333.8L378.3 340.2L388.7 310.2L399 294.3L409.4 251.5L419.7 230.4L430.1 209.6L440.5 198.3L450.8 184.9L461.2 153.6L471.5 113.2L523.4 157.1L575.2 144L585.5 132.7L590.7 131.1L595.9 135.6L601.1 134.3L606.2 135.8L611.4 136.8L616.6 131.9L621.8 131.1L627 127.4L632.1 110.6L637.3 106.3L642.5 105.4L647.7 111.6L652.9 115.2L658 112.4L663.2 105.2L668.4 92.4L673.6 78.6L678.8 92.5" stroke="rgb(213, 178, 52)" stroke-opacity="0.7" stroke-width="0.5" fill="none"></path></g></g></g><g class="SourcesFooter" style="fill:#777"><g class="clickable" style="fill:#777"><text font-size="12.60" x="15.0" y="581.6"><tspan x="15" y="581.58">Source: US Bureau of the Census and NCES (2017)</tspan></text></g><text font-size="12.60" x="556.8" y="581.6"><tspan x="556.7919999999999" y="581.58"><a target='_blank' style='fill: #777;' href='https://ourworldindata.org/financing-education'>OurWorldInData.org/financing-education</a> • <a style="fill: #777;" class="cclogo" href="http://creativecommons.org/licenses/by/4.0/deed.en_US" target="_blank">CC BY</a></tspan></text></g></svg>