<svg xmlns="http://www.w3.org/2000/svg" version="1.1" style="font-family: 'Helvetica Neue', Helvetica, Arial, sans-serif; font-size: 18px; background-color: white; text-rendering: optimizeLegibility; -webkit-font-smoothing: antialiased;" width="850" height="600"><g class="ChartTab"><g class="HeaderView"><g opacity="0.8" transform="translate(770, 15) scale(0.31)"><a xmlns:xlink="http://www.w3.org/1999/xlink" xlink:href="https://ourworldindata.org" target="_blank"><g><rect x="0" y="0" fill="#1B2543" width="211.2" height="130.1"/><rect x="0" y="112.2" fill="#E63912" width="211.2" height="17.9"/><g><rect x="1.2" y="12.3" fill="none" width="210.2" height="99.2"/><path fill="#FFFFFF" d="M37.8,32.2c0,12.7-7.7,19.4-17.1,19.4c-9.7,0-16.6-7.5-16.6-18.7c0-11.7,7.3-19.3,17.1-19.3 C31.3,13.7,37.8,21.3,37.8,32.2z M9.2,32.8c0,7.9,4.3,14.9,11.8,14.9c7.5,0,11.8-6.9,11.8-15.3c0-7.3-3.8-14.9-11.8-14.9 C13.1,17.5,9.2,24.8,9.2,32.8z"/><path fill="#FFFFFF" d="M62.7,43.8c0,2.7,0.1,5.1,0.2,7.2h-4.3l-0.3-4.3h-0.1c-1.3,2.1-4,4.9-8.8,4.9c-4.2,0-9.1-2.3-9.1-11.6 V24.6h4.8v14.6c0,5,1.5,8.4,5.9,8.4c3.2,0,5.5-2.2,6.3-4.4c0.3-0.7,0.4-1.6,0.4-2.5V24.6h4.8V43.8z"/><path fill="#FFFFFF" d="M67.3,32.8c0-3.1-0.1-5.8-0.2-8.2h4.2l0.2,5.2h0.2c1.2-3.5,4.1-5.8,7.3-5.8c0.5,0,0.9,0.1,1.4,0.2v4.5 c-0.5-0.1-1-0.2-1.6-0.2c-3.4,0-5.8,2.6-6.5,6.2c-0.1,0.7-0.2,1.4-0.2,2.2V51h-4.8V32.8z"/><path fill="#FFFFFF" d="M95.4,51l-9.4-36.8h5l4.4,18.6c1.1,4.6,2.1,9.2,2.7,12.7h0.1c0.6-3.7,1.8-8,3-12.8l4.9-18.5h5l4.5,18.7 c1,4.4,2,8.7,2.6,12.6h0.1c0.8-4,1.8-8.1,3-12.7l4.9-18.5h4.9L120.6,51h-5L111,31.9c-1.1-4.7-1.9-8.3-2.4-12h-0.1 c-0.7,3.7-1.5,7.3-2.8,12L100.4,51H95.4z"/><path fill="#FFFFFF" d="M154.9,37.6c0,9.8-6.8,14-13.2,14c-7.2,0-12.7-5.2-12.7-13.6c0-8.8,5.8-14,13.1-14 C149.8,24,154.9,29.5,154.9,37.6z M133.9,37.9c0,5.8,3.3,10.1,8,10.1c4.6,0,8-4.3,8-10.3c0-4.5-2.2-10.1-7.9-10.1 C136.3,27.6,133.9,32.8,133.9,37.9z"/><path fill="#FFFFFF" d="M158.2,32.8c0-3.1-0.1-5.8-0.2-8.2h4.2l0.2,5.2h0.2c1.2-3.5,4.1-5.8,7.3-5.8c0.5,0,0.9,0.1,1.4,0.2v4.5 c-0.5-0.1-1-0.2-1.6-0.2c-3.4,0-5.8,2.6-6.5,6.2c-0.1,0.7-0.2,1.4-0.2,2.2V51h-4.8V32.8z"/><path fill="#FFFFFF" d="M173.5,12.3h4.8V51h-4.8V12.3z"/><path fill="#FFFFFF" d="M206.5,12.3v31.9c0,2.3,0.1,5,0.2,6.8h-4.3l-0.2-4.6H202c-1.5,2.9-4.7,5.2-9,5.2 c-6.4,0-11.3-5.4-11.3-13.4c-0.1-8.8,5.4-14.2,11.9-14.2c4,0,6.8,1.9,8,4h0.1V12.3H206.5z M201.7,35.4c0-0.6-0.1-1.4-0.2-2 c-0.7-3.1-3.3-5.6-6.9-5.6c-5,0-7.9,4.4-7.9,10.2c0,5.3,2.6,9.8,7.8,9.8c3.2,0,6.2-2.1,7.1-5.7c0.2-0.7,0.2-1.3,0.2-2.1V35.4z"/><path fill="#FFFFFF" d="M42.8,64c0.1,1.6-1.1,2.9-3.1,2.9c-1.7,0-2.9-1.3-2.9-2.9c0-1.7,1.3-3,3-3C41.7,61,42.8,62.3,42.8,64z M37.4,97.8V71.4h4.8v26.4H37.4z"/><path fill="#FFFFFF" d="M47.5,78.6c0-2.7-0.1-5-0.2-7.1h4.3l0.3,4.4h0.1c1.3-2.5,4.4-5,8.8-5c3.7,0,9.4,2.2,9.4,11.2v15.8h-4.8 V82.6c0-4.3-1.6-7.8-6.1-7.8c-3.2,0-5.6,2.2-6.5,4.9c-0.2,0.6-0.3,1.4-0.3,2.2v15.9h-4.8V78.6z"/><path fill="#FFFFFF" d="M84,61.6c2.9-0.4,6.3-0.8,10.1-0.8c6.8,0,11.7,1.6,14.9,4.6c3.3,3,5.2,7.3,5.2,13.2c0,6-1.9,10.9-5.3,14.3 c-3.4,3.4-9.1,5.3-16.3,5.3c-3.4,0-6.2-0.2-8.6-0.4V61.6z M88.8,94.1c1.2,0.2,3,0.3,4.8,0.3c10.2,0,15.7-5.7,15.7-15.6 c0.1-8.7-4.9-14.2-14.9-14.2c-2.5,0-4.3,0.2-5.6,0.5V94.1z"/><path fill="#FFFFFF" d="M132.1,97.8l-0.4-3.3h-0.2c-1.5,2.1-4.3,3.9-8.1,3.9c-5.4,0-8.1-3.8-8.1-7.6c0-6.4,5.7-9.9,15.9-9.8v-0.5 c0-2.2-0.6-6.1-6-6.1c-2.5,0-5,0.8-6.9,2l-1.1-3.2c2.2-1.4,5.4-2.3,8.7-2.3c8.1,0,10.1,5.5,10.1,10.8v9.9c0,2.3,0.1,4.5,0.4,6.3 H132.1z M131.4,84.4c-5.3-0.1-11.2,0.8-11.2,5.9c0,3.1,2.1,4.6,4.5,4.6c3.4,0,5.6-2.2,6.4-4.4c0.2-0.5,0.3-1,0.3-1.5V84.4z"/><path fill="#FFFFFF" d="M146.6,63.9v7.6h6.9v3.7h-6.9v14.2c0,3.3,0.9,5.1,3.6,5.1c1.3,0,2.2-0.2,2.8-0.3l0.2,3.6 c-0.9,0.4-2.4,0.7-4.3,0.7c-2.2,0-4-0.7-5.2-2c-1.4-1.4-1.9-3.8-1.9-6.9V75.1h-4.1v-3.7h4.1v-6.3L146.6,63.9z"/><path fill="#FFFFFF" d="M171.4,97.8l-0.4-3.3h-0.2c-1.5,2.1-4.3,3.9-8.1,3.9c-5.4,0-8.1-3.8-8.1-7.6c0-6.4,5.7-9.9,15.9-9.8v-0.5 c0-2.2-0.6-6.1-6-6.1c-2.5,0-5,0.8-6.9,2l-1.1-3.2c2.2-1.4,5.4-2.3,8.7-2.3c8.1,0,10.1,5.5,10.1,10.8v9.9c0,2.3,0.1,4.5,0.4,6.3 H171.4z M170.7,84.4c-5.3-0.1-11.2,0.8-11.2,5.9c0,3.1,2.1,4.6,4.5,4.6c3.4,0,5.6-2.2,6.4-4.4c0.2-0.5,0.3-1,0.3-1.5V84.4z"/></g></g></a></g><a href="https://ourworldindata.org/grapher/annual-number-of-deaths-by-cause?country=IND" target="_blank"><text font-size="27.00" x="15.0" y="36.6" fill="#555"><tspan x="15" y="36.6">Annual number of deaths by cause, India, 2016</tspan></text></a><text font-size="14.40" x="15.0" y="55.5" fill="#666"><tspan x="15" y="55.519999999999996">Data refers to the specific cause of death, which is distinguished from risk factors for death, such as air pollution,</tspan><tspan x="15" y="71.36">diet and other lifestyle factors. See sources for further details on definitions of specific cause categories.</tspan></text></g><g class="DiscreteBarChart"><rect x="15" y="93.9" width="810" height="448" opacity="0" fill="rgba(255,255,255,0)"></rect><g class="HorizontalAxis"><text x="303.6" y="541.9" fill="#666" text-anchor="middle" font-size="16.2">0</text><text x="385.9" y="541.9" fill="#666" text-anchor="middle" font-size="16.2">500,000</text><text x="468.2" y="541.9" fill="#666" text-anchor="middle" font-size="16.2">1 million</text><text x="550.5" y="541.9" fill="#666" text-anchor="middle" font-size="16.2">1.5 million</text><text x="632.8" y="541.9" fill="#666" text-anchor="middle" font-size="16.2">2 million</text><text x="756.6" y="541.9" fill="#666" text-anchor="middle" font-size="16.2">2.75 million</text></g><g class="AxisGridLines"><line x1="303.6" y1="520.70" x2="303.6" y2="93.90" stroke="#ccc"></line><line x1="385.9" y1="520.70" x2="385.9" y2="93.90" stroke="#ddd" stroke-dasharray="3,2"></line><line x1="468.2" y1="520.70" x2="468.2" y2="93.90" stroke="#ddd" stroke-dasharray="3,2"></line><line x1="550.5" y1="520.70" x2="550.5" y2="93.90" stroke="#ddd" stroke-dasharray="3,2"></line><line x1="632.8" y1="520.70" x2="632.8" y2="93.90" stroke="#ddd" stroke-dasharray="3,2"></line><line x1="715.1" y1="520.70" x2="715.1" y2="93.90" stroke="#ddd" stroke-dasharray="3,2"></line></g><g class="bar"><text x="298.558" y="99.40709677419355" fill="#666" dominant-baseline="middle" text-anchor="end" font-size="13.5">Cardiovascular diseases</text><rect x="303.6" y="93.9" width="453" height="11.014193548387098" fill="#F2585B" opacity="0.85"></rect><text x="761.6" y="99.40709677419355" fill="#666" dominant-baseline="middle" text-anchor="start" font-size="13.5">2.75 million</text></g><g class="bar"><text x="298.558" y="113.17483870967742" fill="#666" dominant-baseline="middle" text-anchor="end" font-size="13.5">Respiratory disease</text><rect x="303.6" y="107.66774193548386" width="176.2" height="11.014193548387098" fill="#F2585B" opacity="0.85"></rect><text x="484.8" y="113.17483870967742" fill="#666" dominant-baseline="middle" text-anchor="start" font-size="13.5">1.07 million</text></g><g class="bar"><text x="298.558" y="126.94258064516129" fill="#666" dominant-baseline="middle" text-anchor="end" font-size="13.5">Cancers</text><rect x="303.6" y="121.43548387096774" width="133.7" height="11.014193548387098" fill="#F2585B" opacity="0.85"></rect><text x="442.3" y="126.94258064516129" fill="#666" dominant-baseline="middle" text-anchor="start" font-size="13.5">812,750</text></g><g class="bar"><text x="298.558" y="140.71032258064517" fill="#666" dominant-baseline="middle" text-anchor="end" font-size="13.5">Diarrheal diseases</text><rect x="303.6" y="135.20322580645163" width="128" height="11.014193548387098" fill="#F2585B" opacity="0.85"></rect><text x="436.6" y="140.71032258064517" fill="#666" dominant-baseline="middle" text-anchor="start" font-size="13.5">777,991</text></g><g class="bar"><text x="298.558" y="154.47806451612905" fill="#666" dominant-baseline="middle" text-anchor="end" font-size="13.5">Diabetes, blood and endocrine disease</text><rect x="303.6" y="148.9709677419355" width="105.5" height="11.014193548387098" fill="#F2585B" opacity="0.85"></rect><text x="414.1" y="154.47806451612905" fill="#666" dominant-baseline="middle" text-anchor="start" font-size="13.5">641,232</text></g><g class="bar"><text x="298.558" y="168.24580645161294" fill="#666" dominant-baseline="middle" text-anchor="end" font-size="13.5">Protein-energy malnutrition</text><rect x="303.6" y="162.7387096774194" width="95.59999999999997" height="11.014193548387098" fill="#F2585B" opacity="0.85"></rect><text x="404.2" y="168.24580645161294" fill="#666" dominant-baseline="middle" text-anchor="start" font-size="13.5">581,329</text></g><g class="bar"><text x="298.558" y="182.01354838709682" fill="#666" dominant-baseline="middle" text-anchor="end" font-size="13.5">Lower respiratory infections</text><rect x="303.6" y="176.50645161290328" width="81.5" height="11.014193548387098" fill="#F2585B" opacity="0.85"></rect><text x="390.1" y="182.01354838709682" fill="#666" dominant-baseline="middle" text-anchor="start" font-size="13.5">495,510.79</text></g><g class="bar"><text x="298.558" y="195.7812903225807" fill="#666" dominant-baseline="middle" text-anchor="end" font-size="13.5">Tuberculosis</text><rect x="303.6" y="190.27419354838716" width="71.59999999999997" height="11.014193548387098" fill="#F2585B" opacity="0.85"></rect><text x="380.2" y="195.7812903225807" fill="#666" dominant-baseline="middle" text-anchor="start" font-size="13.5">435,448</text></g><g class="bar"><text x="298.558" y="209.54903225806459" fill="#666" dominant-baseline="middle" text-anchor="end" font-size="13.5">Neonatal deaths</text><rect x="303.6" y="204.04193548387104" width="61.89999999999998" height="11.014193548387098" fill="#F2585B" opacity="0.85"></rect><text x="370.5" y="209.54903225806459" fill="#666" dominant-baseline="middle" text-anchor="start" font-size="13.5">376,280</text></g><g class="bar"><text x="298.558" y="223.31677419354847" fill="#666" dominant-baseline="middle" text-anchor="end" font-size="13.5">Road accidents</text><rect x="303.6" y="217.80967741935493" width="41.799999999999955" height="11.014193548387098" fill="#F2585B" opacity="0.85"></rect><text x="350.4" y="223.31677419354847" fill="#666" dominant-baseline="middle" text-anchor="start" font-size="13.5">253,994</text></g><g class="bar"><text x="298.558" y="237.08451612903235" fill="#666" dominant-baseline="middle" text-anchor="end" font-size="13.5">Kidney disease</text><rect x="303.6" y="231.5774193548388" width="38.5" height="11.014193548387098" fill="#F2585B" opacity="0.85"></rect><text x="347.1" y="237.08451612903235" fill="#666" dominant-baseline="middle" text-anchor="start" font-size="13.5">234,345</text></g><g class="bar"><text x="298.558" y="250.85225806451623" fill="#666" dominant-baseline="middle" text-anchor="end" font-size="13.5">Suicide</text><rect x="303.6" y="245.3451612903227" width="37.89999999999998" height="11.014193548387098" fill="#F2585B" opacity="0.85"></rect><text x="346.5" y="250.85225806451623" fill="#666" dominant-baseline="middle" text-anchor="start" font-size="13.5">230,314</text></g><g class="bar"><text x="298.558" y="264.6200000000001" fill="#666" dominant-baseline="middle" text-anchor="end" font-size="13.5">Digestive disease</text><rect x="303.6" y="259.1129032258066" width="34.69999999999999" height="11.014193548387098" fill="#F2585B" opacity="0.85"></rect><text x="343.3" y="264.6200000000001" fill="#666" dominant-baseline="middle" text-anchor="start" font-size="13.5">210,905</text></g><g class="bar"><text x="298.558" y="278.387741935484" fill="#666" dominant-baseline="middle" text-anchor="end" font-size="13.5">Liver disease</text><rect x="303.6" y="272.88064516129043" width="33.599999999999966" height="11.014193548387098" fill="#F2585B" opacity="0.85"></rect><text x="342.2" y="278.387741935484" fill="#666" dominant-baseline="middle" text-anchor="start" font-size="13.5">204,205</text></g><g class="bar"><text x="298.558" y="292.1554838709678" fill="#666" dominant-baseline="middle" text-anchor="end" font-size="13.5">Dementia</text><rect x="303.6" y="286.6483870967743" width="23.5" height="11.014193548387098" fill="#F2585B" opacity="0.85"></rect><text x="332.1" y="292.1554838709678" fill="#666" dominant-baseline="middle" text-anchor="start" font-size="13.5">142,927</text></g><g class="bar"><text x="298.558" y="305.9232258064517" fill="#666" dominant-baseline="middle" text-anchor="end" font-size="13.5">HIV/AIDS</text><rect x="303.6" y="300.41612903225814" width="15.099999999999966" height="11.014193548387098" fill="#F2585B" opacity="0.85"></rect><text x="323.7" y="305.9232258064517" fill="#666" dominant-baseline="middle" text-anchor="start" font-size="13.5">92,275</text></g><g class="bar"><text x="298.558" y="319.69096774193554" fill="#666" dominant-baseline="middle" text-anchor="end" font-size="13.5">Intestinal infectious diseases</text><rect x="303.6" y="314.183870967742" width="13.5" height="11.014193548387098" fill="#F2585B" opacity="0.85"></rect><text x="322.1" y="319.69096774193554" fill="#666" dominant-baseline="middle" text-anchor="start" font-size="13.5">82,156.06</text></g><g class="bar"><text x="298.558" y="333.4587096774194" fill="#666" dominant-baseline="middle" text-anchor="end" font-size="13.5">Hepatitis</text><rect x="303.6" y="327.95161290322585" width="11.5" height="11.014193548387098" fill="#F2585B" opacity="0.85"></rect><text x="320.1" y="333.4587096774194" fill="#666" dominant-baseline="middle" text-anchor="start" font-size="13.5">70,063</text></g><g class="bar"><text x="298.558" y="347.22645161290325" fill="#666" dominant-baseline="middle" text-anchor="end" font-size="13.5">Meningitis</text><rect x="303.6" y="341.7193548387097" width="10.299999999999955" height="11.014193548387098" fill="#F2585B" opacity="0.85"></rect><text x="318.9" y="347.22645161290325" fill="#666" dominant-baseline="middle" text-anchor="start" font-size="13.5">63,001.31</text></g><g class="bar"><text x="298.558" y="360.9941935483871" fill="#666" dominant-baseline="middle" text-anchor="end" font-size="13.5">Drowning</text><rect x="303.6" y="355.48709677419356" width="10.299999999999955" height="11.014193548387098" fill="#F2585B" opacity="0.85"></rect><text x="318.9" y="360.9941935483871" fill="#666" dominant-baseline="middle" text-anchor="start" font-size="13.5">62,569</text></g><g class="bar"><text x="298.558" y="374.76193548387096" fill="#666" dominant-baseline="middle" text-anchor="end" font-size="13.5">Homicide</text><rect x="303.6" y="369.2548387096774" width="8" height="11.014193548387098" fill="#F2585B" opacity="0.85"></rect><text x="316.6" y="374.76193548387096" fill="#666" dominant-baseline="middle" text-anchor="start" font-size="13.5">48,579</text></g><g class="bar"><text x="298.558" y="388.5296774193548" fill="#666" dominant-baseline="middle" text-anchor="end" font-size="13.5">Malaria</text><rect x="303.6" y="383.02258064516127" width="7.899999999999977" height="11.014193548387098" fill="#F2585B" opacity="0.85"></rect><text x="316.5" y="388.5296774193548" fill="#666" dominant-baseline="middle" text-anchor="start" font-size="13.5">47,998</text></g><g class="bar"><text x="298.558" y="402.29741935483867" fill="#666" dominant-baseline="middle" text-anchor="end" font-size="13.5">Nutritional deficiencies</text><rect x="303.6" y="396.7903225806451" width="7.899999999999977" height="11.014193548387098" fill="#F2585B" opacity="0.85"></rect><text x="316.5" y="402.29741935483867" fill="#666" dominant-baseline="middle" text-anchor="start" font-size="13.5">47,951</text></g><g class="bar"><text x="298.558" y="416.0651612903225" fill="#666" dominant-baseline="middle" text-anchor="end" font-size="13.5">Maternal deaths</text><rect x="303.6" y="410.558064516129" width="7.399999999999977" height="11.014193548387098" fill="#F2585B" opacity="0.85"></rect><text x="316" y="416.0651612903225" fill="#666" dominant-baseline="middle" text-anchor="start" font-size="13.5">45,162</text></g><g class="bar"><text x="298.558" y="429.8329032258064" fill="#666" dominant-baseline="middle" text-anchor="end" font-size="13.5">Fire</text><rect x="303.6" y="424.32580645161283" width="4.7999999999999545" height="11.014193548387098" fill="#F2585B" opacity="0.85"></rect><text x="313.4" y="429.8329032258064" fill="#666" dominant-baseline="middle" text-anchor="start" font-size="13.5">29,179</text></g><g class="bar"><text x="298.558" y="443.60064516129023" fill="#666" dominant-baseline="middle" text-anchor="end" font-size="13.5">Alcohol disorder</text><rect x="303.6" y="438.0935483870967" width="4.399999999999977" height="11.014193548387098" fill="#F2585B" opacity="0.85"></rect><text x="313" y="443.60064516129023" fill="#666" dominant-baseline="middle" text-anchor="start" font-size="13.5">27,103</text></g><g class="bar"><text x="298.558" y="457.3683870967741" fill="#666" dominant-baseline="middle" text-anchor="end" font-size="13.5">Parkinson's disease</text><rect x="303.6" y="451.86129032258054" width="2.7999999999999545" height="11.014193548387098" fill="#F2585B" opacity="0.85"></rect><text x="311.4" y="457.3683870967741" fill="#666" dominant-baseline="middle" text-anchor="start" font-size="13.5">17,539</text></g><g class="bar"><text x="298.558" y="471.13612903225794" fill="#666" dominant-baseline="middle" text-anchor="end" font-size="13.5">Heat-related deaths (hot or cold exposure)</text><rect x="303.6" y="465.6290322580644" width="2.599999999999966" height="11.014193548387098" fill="#F2585B" opacity="0.85"></rect><text x="311.2" y="471.13612903225794" fill="#666" dominant-baseline="middle" text-anchor="start" font-size="13.5">16,239</text></g><g class="bar"><text x="298.558" y="484.9038709677418" fill="#666" dominant-baseline="middle" text-anchor="end" font-size="13.5">Drug disorder</text><rect x="303.6" y="479.39677419354825" width="1.7999999999999545" height="11.014193548387098" fill="#F2585B" opacity="0.85"></rect><text x="310.4" y="484.9038709677418" fill="#666" dominant-baseline="middle" text-anchor="start" font-size="13.5">10,905</text></g><g class="bar"><text x="298.558" y="498.67161290322565" fill="#666" dominant-baseline="middle" text-anchor="end" font-size="13.5">Natural disasters</text><rect x="303.6" y="493.1645161290321" width="0.0999999999999659" height="11.014193548387098" fill="#F2585B" opacity="0.85"></rect><text x="308.7" y="498.67161290322565" fill="#666" dominant-baseline="middle" text-anchor="start" font-size="13.5">1,099</text></g><g class="bar"><text x="298.558" y="512.4393548387095" fill="#666" dominant-baseline="middle" text-anchor="end" font-size="13.5">Terrorism Fatalities</text><rect x="303.6" y="506.93225806451596" width="0" height="11.014193548387098" fill="#F2585B" opacity="0.85"></rect><text x="308.6" y="512.4393548387095" fill="#666" dominant-baseline="middle" text-anchor="start" font-size="13.5">462</text></g></g><g style="fill: #777;" class="SourcesFooter"><g style="fill: #777;" class="clickable"><text font-size="12.60" x="15.0" y="567.0"><tspan x="15" y="566.98">Source: Institute for Health Metrics and Evaluation (IHME); Global Terrorism Database (GTD); Amnesty International</tspan></text></g><text font-size="12.60" x="15.0" y="582.5"><tspan x="15" y="582.48"><a target='_blank' style='fill: #777;' href='https://ourworldindata.org/causes-of-death/'>OurWorldInData.org/causes-of-death/</a> • <a style="fill: #777;" href="http://creativecommons.org/licenses/by-sa/4.0/deed.en_US" target="_blank">CC BY-SA</a></tspan></text></g></g></svg>