<svg xmlns="http://www.w3.org/2000/svg" version="1.1" style="background-color:#fff;-webkit-font-smoothing:antialiased" width="850" height="600" font-family="'Helvetica Neue',Helvetica,Arial,sans-serif" font-size="18" text-rendering="optimizeLegibility"><g class="ChartTab"><g class="HeaderView"><g opacity=".8" transform="matrix(.31 0 0 .31 770 15)"><a xmlns:xlink="http://www.w3.org/1999/xlink" xlink:href="https://ourworldindata.org" target="_blank"><g><path fill="#1B2543" d="M0 0h211.2v130.1H0z"/><path fill="#E63912" d="M0 112.2h211.2v17.9H0z"/><g><path fill="none" d="M1.2 12.3h210.2v99.2H1.2z"/><path fill="#FFF" d="M37.8 32.2c0 12.7-7.7 19.4-17.1 19.4-9.7 0-16.6-7.5-16.6-18.7 0-11.7 7.3-19.3 17.1-19.3 10.1.1 16.6 7.7 16.6 18.6zm-28.6.6c0 7.9 4.3 14.9 11.8 14.9 7.5 0 11.8-6.9 11.8-15.3 0-7.3-3.8-14.9-11.8-14.9-7.9 0-11.8 7.3-11.8 15.3zM62.7 43.8c0 2.7.1 5.1.2 7.2h-4.3l-.3-4.3h-.1c-1.3 2.1-4 4.9-8.8 4.9-4.2 0-9.1-2.3-9.1-11.6V24.6h4.8v14.6c0 5 1.5 8.4 5.9 8.4 3.2 0 5.5-2.2 6.3-4.4.3-.7.4-1.6.4-2.5V24.6h4.8v19.2zM67.3 32.8c0-3.1-.1-5.8-.2-8.2h4.2l.2 5.2h.2c1.2-3.5 4.1-5.8 7.3-5.8.5 0 .9.1 1.4.2v4.5c-.5-.1-1-.2-1.6-.2-3.4 0-5.8 2.6-6.5 6.2-.1.7-.2 1.4-.2 2.2V51h-4.8V32.8zM95.4 51L86 14.2h5l4.4 18.6c1.1 4.6 2.1 9.2 2.7 12.7h.1c.6-3.7 1.8-8 3-12.8l4.9-18.5h5l4.5 18.7c1 4.4 2 8.7 2.6 12.6h.1c.8-4 1.8-8.1 3-12.7l4.9-18.5h4.9L120.6 51h-5L111 31.9c-1.1-4.7-1.9-8.3-2.4-12h-.1c-.7 3.7-1.5 7.3-2.8 12L100.4 51h-5zM154.9 37.6c0 9.8-6.8 14-13.2 14-7.2 0-12.7-5.2-12.7-13.6 0-8.8 5.8-14 13.1-14 7.7 0 12.8 5.5 12.8 13.6zm-21 .3c0 5.8 3.3 10.1 8 10.1 4.6 0 8-4.3 8-10.3 0-4.5-2.2-10.1-7.9-10.1s-8.1 5.2-8.1 10.3zM158.2 32.8c0-3.1-.1-5.8-.2-8.2h4.2l.2 5.2h.2c1.2-3.5 4.1-5.8 7.3-5.8.5 0 .9.1 1.4.2v4.5c-.5-.1-1-.2-1.6-.2-3.4 0-5.8 2.6-6.5 6.2-.1.7-.2 1.4-.2 2.2V51h-4.8V32.8zM173.5 12.3h4.8V51h-4.8V12.3zM206.5 12.3v31.9c0 2.3.1 5 .2 6.8h-4.3l-.2-4.6h-.2c-1.5 2.9-4.7 5.2-9 5.2-6.4 0-11.3-5.4-11.3-13.4-.1-8.8 5.4-14.2 11.9-14.2 4 0 6.8 1.9 8 4h.1V12.3h4.8zm-4.8 23.1c0-.6-.1-1.4-.2-2a7 7 0 00-6.9-5.6c-5 0-7.9 4.4-7.9 10.2 0 5.3 2.6 9.8 7.8 9.8 3.2 0 6.2-2.1 7.1-5.7.2-.7.2-1.3.2-2.1v-4.6zM42.8 64c.1 1.6-1.1 2.9-3.1 2.9-1.7 0-2.9-1.3-2.9-2.9 0-1.7 1.3-3 3-3 1.9 0 3 1.3 3 3zm-5.4 33.8V71.4h4.8v26.4h-4.8zM47.5 78.6c0-2.7-.1-5-.2-7.1h4.3l.3 4.4h.1c1.3-2.5 4.4-5 8.8-5 3.7 0 9.4 2.2 9.4 11.2v15.8h-4.8V82.6c0-4.3-1.6-7.8-6.1-7.8-3.2 0-5.6 2.2-6.5 4.9-.2.6-.3 1.4-.3 2.2v15.9h-4.8V78.6zM84 61.6c2.9-.4 6.3-.8 10.1-.8 6.8 0 11.7 1.6 14.9 4.6 3.3 3 5.2 7.3 5.2 13.2 0 6-1.9 10.9-5.3 14.3-3.4 3.4-9.1 5.3-16.3 5.3-3.4 0-6.2-.2-8.6-.4V61.6zm4.8 32.5c1.2.2 3 .3 4.8.3 10.2 0 15.7-5.7 15.7-15.6.1-8.7-4.9-14.2-14.9-14.2-2.5 0-4.3.2-5.6.5v29zM132.1 97.8l-.4-3.3h-.2a9.79 9.79 0 01-8.1 3.9c-5.4 0-8.1-3.8-8.1-7.6 0-6.4 5.7-9.9 15.9-9.8v-.5c0-2.2-.6-6.1-6-6.1-2.5 0-5 .8-6.9 2l-1.1-3.2c2.2-1.4 5.4-2.3 8.7-2.3 8.1 0 10.1 5.5 10.1 10.8v9.9c0 2.3.1 4.5.4 6.3h-4.3zm-.7-13.4c-5.3-.1-11.2.8-11.2 5.9 0 3.1 2.1 4.6 4.5 4.6 3.4 0 5.6-2.2 6.4-4.4.2-.5.3-1 .3-1.5v-4.6zM146.6 63.9v7.6h6.9v3.7h-6.9v14.2c0 3.3.9 5.1 3.6 5.1 1.3 0 2.2-.2 2.8-.3l.2 3.6c-.9.4-2.4.7-4.3.7-2.2 0-4-.7-5.2-2-1.4-1.4-1.9-3.8-1.9-6.9V75.1h-4.1v-3.7h4.1v-6.3l4.8-1.2zM171.4 97.8l-.4-3.3h-.2a9.79 9.79 0 01-8.1 3.9c-5.4 0-8.1-3.8-8.1-7.6 0-6.4 5.7-9.9 15.9-9.8v-.5c0-2.2-.6-6.1-6-6.1-2.5 0-5 .8-6.9 2l-1.1-3.2c2.2-1.4 5.4-2.3 8.7-2.3 8.1 0 10.1 5.5 10.1 10.8v9.9c0 2.3.1 4.5.4 6.3h-4.3zm-.7-13.4c-5.3-.1-11.2.8-11.2 5.9 0 3.1 2.1 4.6 4.5 4.6 3.4 0 5.6-2.2 6.4-4.4.2-.5.3-1 .3-1.5v-4.6z"/></g></g></a></g><a href="https://ourworldindata.org/grapher/annual-number-of-deaths-by-cause?country=IRQ" target="_blank"><text font-size="27" x="15" y="36.6" fill="#555"><tspan x="15" y="36.6">Annual number of deaths by cause, Iraq, 2016</tspan></text></a><text font-size="14.4" x="15" y="55.5" fill="#666"><tspan x="15" y="55.52">Data refers to the specific cause of death, which is distinguished from risk factors for death, such as air pollution,</tspan><tspan x="15" y="71.36">diet and other lifestyle factors. See sources for further details on definitions of specific cause categories.</tspan></text></g><g class="DiscreteBarChart"><g class="HorizontalAxis" fill="#666" text-anchor="middle" font-size="16.2"><text x="303.6" y="541.9">0</text><text x="364" y="541.9">10,000</text><text x="424.4" y="541.9">20,000</text><text x="484.8" y="541.9">30,000</text><text x="545.2" y="541.9">40,000</text><text x="605.6" y="541.9">50,000</text><text x="666" y="541.9">60,000</text><text x="772.1" y="541.9">77,556</text></g><g class="AxisGridLines"><path stroke="#ccc" d="M303.6 520.7V93.9"/><path stroke="#ddd" stroke-dasharray="3,2" d="M364 520.7V93.9M424.4 520.7V93.9M484.8 520.7V93.9M545.2 520.7V93.9M605.6 520.7V93.9M666 520.7V93.9M726.4 520.7V93.9"/></g><g class="bar"><text x="298.56" y="99.24" fill="#666" dominant-baseline="middle" text-anchor="end" font-size="13.5">Cardiovascular diseases</text><path fill="#F2585B" opacity=".85" d="M303.6 93.9h468.5v10.67H303.6z"/><text x="777.1" y="99.24" fill="#666" dominant-baseline="middle" text-anchor="start" font-size="13.5">77,556</text></g><g class="bar"><text x="298.56" y="112.57" fill="#666" dominant-baseline="middle" text-anchor="end" font-size="13.5">Neonatal deaths</text><path fill="#F2585B" opacity=".85" d="M303.6 107.24h131.8v10.67H303.6z"/><text x="440.4" y="112.57" fill="#666" dominant-baseline="middle" text-anchor="start" font-size="13.5">21,824</text></g><g class="bar"><text x="298.56" y="125.91" fill="#666" dominant-baseline="middle" text-anchor="end" font-size="13.5">Diabetes, blood and endocrine disease</text><path fill="#F2585B" opacity=".85" d="M303.6 120.58h122.1v10.67H303.6z"/><text x="430.7" y="125.91" fill="#666" dominant-baseline="middle" text-anchor="start" font-size="13.5">20,226</text></g><g class="bar"><text x="298.56" y="139.25" fill="#666" dominant-baseline="middle" text-anchor="end" font-size="13.5">Cancers</text><path fill="#F2585B" opacity=".85" d="M303.6 133.91h101v10.67h-101z"/><text x="409.6" y="139.25" fill="#666" dominant-baseline="middle" text-anchor="start" font-size="13.5">16,729</text></g><g class="bar"><text x="298.56" y="152.59" fill="#666" dominant-baseline="middle" text-anchor="end" font-size="13.5">Terrorism</text><path fill="#F2585B" opacity=".85" d="M303.6 147.25h73.6v10.67h-73.6z"/><text x="382.2" y="152.59" fill="#666" dominant-baseline="middle" text-anchor="start" font-size="13.5">12,187</text></g><g class="bar"><text x="298.56" y="165.92" fill="#666" dominant-baseline="middle" text-anchor="end" font-size="13.5">Road accidents</text><path fill="#F2585B" opacity=".85" d="M303.6 160.59h49.8v10.67h-49.8z"/><text x="358.4" y="165.92" fill="#666" dominant-baseline="middle" text-anchor="start" font-size="13.5">8,250</text></g><g class="bar"><text x="298.56" y="179.26" fill="#666" dominant-baseline="middle" text-anchor="end" font-size="13.5">Lower respiratory infections</text><path fill="#F2585B" opacity=".85" d="M303.6 173.93h42v10.67h-42z"/><text x="350.6" y="179.26" fill="#666" dominant-baseline="middle" text-anchor="start" font-size="13.5">6,957.63</text></g><g class="bar"><text x="298.56" y="192.6" fill="#666" dominant-baseline="middle" text-anchor="end" font-size="13.5">Kidney disease</text><path fill="#F2585B" opacity=".85" d="M303.6 187.26h41.6v10.67h-41.6z"/><text x="350.2" y="192.6" fill="#666" dominant-baseline="middle" text-anchor="start" font-size="13.5">6,889</text></g><g class="bar"><text x="298.56" y="205.94" fill="#666" dominant-baseline="middle" text-anchor="end" font-size="13.5">Respiratory disease</text><path fill="#F2585B" opacity=".85" d="M303.6 200.6h32.6v10.67h-32.6z"/><text x="341.2" y="205.94" fill="#666" dominant-baseline="middle" text-anchor="start" font-size="13.5">5,406</text></g><g class="bar"><text x="298.56" y="219.27" fill="#666" dominant-baseline="middle" text-anchor="end" font-size="13.5">Dementia</text><path fill="#F2585B" opacity=".85" d="M303.6 213.94h25.9v10.67h-25.9z"/><text x="334.5" y="219.27" fill="#666" dominant-baseline="middle" text-anchor="start" font-size="13.5">4,294</text></g><g class="bar"><text x="298.56" y="232.61" fill="#666" dominant-baseline="middle" text-anchor="end" font-size="13.5">Suicide</text><path fill="#F2585B" opacity=".85" d="M303.6 227.28h17.6v10.67h-17.6z"/><text x="326.2" y="232.61" fill="#666" dominant-baseline="middle" text-anchor="start" font-size="13.5">2,918</text></g><g class="bar"><text x="298.56" y="245.95" fill="#666" dominant-baseline="middle" text-anchor="end" font-size="13.5">Homicide</text><path fill="#F2585B" opacity=".85" d="M303.6 240.61h16.2v10.67h-16.2z"/><text x="324.8" y="245.95" fill="#666" dominant-baseline="middle" text-anchor="start" font-size="13.5">2,691</text></g><g class="bar"><text x="298.56" y="259.29" fill="#666" dominant-baseline="middle" text-anchor="end" font-size="13.5">Diarrheal diseases</text><path fill="#F2585B" opacity=".85" d="M303.6 253.95h14.9v10.67h-14.9z"/><text x="323.5" y="259.29" fill="#666" dominant-baseline="middle" text-anchor="start" font-size="13.5">2,467</text></g><g class="bar"><text x="298.56" y="272.62" fill="#666" dominant-baseline="middle" text-anchor="end" font-size="13.5">Liver disease</text><path fill="#F2585B" opacity=".85" d="M303.6 267.29h11.6v10.67h-11.6z"/><text x="320.2" y="272.62" fill="#666" dominant-baseline="middle" text-anchor="start" font-size="13.5">1,919</text></g><g class="bar"><text x="298.56" y="285.96" fill="#666" dominant-baseline="middle" text-anchor="end" font-size="13.5">Meningitis</text><path fill="#F2585B" opacity=".85" d="M303.6 280.63h9.3v10.67h-9.3z"/><text x="317.9" y="285.96" fill="#666" dominant-baseline="middle" text-anchor="start" font-size="13.5">1,548.79</text></g><g class="bar"><text x="298.56" y="299.3" fill="#666" dominant-baseline="middle" text-anchor="end" font-size="13.5">Tuberculosis</text><path fill="#F2585B" opacity=".85" d="M303.6 293.96h8.1v10.67h-8.1z"/><text x="316.7" y="299.3" fill="#666" dominant-baseline="middle" text-anchor="start" font-size="13.5">1,350</text></g><g class="bar"><text x="298.56" y="312.63" fill="#666" dominant-baseline="middle" text-anchor="end" font-size="13.5">Digestive disease</text><path fill="#F2585B" opacity=".85" d="M303.6 307.3h7.9v10.67h-7.9z"/><text x="316.5" y="312.63" fill="#666" dominant-baseline="middle" text-anchor="start" font-size="13.5">1,313</text></g><g class="bar"><text x="298.56" y="325.97" fill="#666" dominant-baseline="middle" text-anchor="end" font-size="13.5">Drowning</text><path fill="#F2585B" opacity=".85" d="M303.6 320.64h7.4v10.67h-7.4z"/><text x="316" y="325.97" fill="#666" dominant-baseline="middle" text-anchor="start" font-size="13.5">1,230</text></g><g class="bar"><text x="298.56" y="339.31" fill="#666" dominant-baseline="middle" text-anchor="end" font-size="13.5">Drug disorder</text><path fill="#F2585B" opacity=".85" d="M303.6 333.97h6.8v10.67h-6.8z"/><text x="315.4" y="339.31" fill="#666" dominant-baseline="middle" text-anchor="start" font-size="13.5">1,136</text></g><g class="bar"><text x="298.56" y="352.65" fill="#666" dominant-baseline="middle" text-anchor="end" font-size="13.5">Fire</text><path fill="#F2585B" opacity=".85" d="M303.6 347.31h6.7v10.67h-6.7z"/><text x="315.3" y="352.65" fill="#666" dominant-baseline="middle" text-anchor="start" font-size="13.5">1,113</text></g><g class="bar"><text x="298.56" y="365.98" fill="#666" dominant-baseline="middle" text-anchor="end" font-size="13.5">Maternal deaths</text><path fill="#F2585B" opacity=".85" d="M303.6 360.65h5.2v10.67h-5.2z"/><text x="313.8" y="365.98" fill="#666" dominant-baseline="middle" text-anchor="start" font-size="13.5">868</text></g><g class="bar"><text x="298.56" y="379.32" fill="#666" dominant-baseline="middle" text-anchor="end" font-size="13.5">Nutritional deficiencies</text><path fill="#F2585B" opacity=".85" d="M303.6 373.99h2.2v10.67h-2.2z"/><text x="310.8" y="379.32" fill="#666" dominant-baseline="middle" text-anchor="start" font-size="13.5">375</text></g><g class="bar"><text x="298.56" y="392.66" fill="#666" dominant-baseline="middle" text-anchor="end" font-size="13.5">Hepatitis</text><path fill="#F2585B" opacity=".85" d="M303.6 387.32h1.8v10.67h-1.8z"/><text x="310.4" y="392.66" fill="#666" dominant-baseline="middle" text-anchor="start" font-size="13.5">309</text></g><g class="bar"><text x="298.56" y="406" fill="#666" dominant-baseline="middle" text-anchor="end" font-size="13.5">Parkinson&apos;s disease</text><path fill="#F2585B" opacity=".85" d="M303.6 400.66h1.8v10.67h-1.8z"/><text x="310.4" y="406" fill="#666" dominant-baseline="middle" text-anchor="start" font-size="13.5">299</text></g><g class="bar"><text x="298.56" y="419.33" fill="#666" dominant-baseline="middle" text-anchor="end" font-size="13.5">Protein-energy malnutrition</text><path fill="#F2585B" opacity=".85" d="M303.6 414h1.8v10.67h-1.8z"/><text x="310.4" y="419.33" fill="#666" dominant-baseline="middle" text-anchor="start" font-size="13.5">297.93</text></g><g class="bar"><text x="298.56" y="432.67" fill="#666" dominant-baseline="middle" text-anchor="end" font-size="13.5">Heat-related deaths (hot or cold exposure)</text><path fill="#F2585B" opacity=".85" d="M303.6 427.34h1.7v10.67h-1.7z"/><text x="310.3" y="432.67" fill="#666" dominant-baseline="middle" text-anchor="start" font-size="13.5">287</text></g><g class="bar"><text x="298.56" y="446.01" fill="#666" dominant-baseline="middle" text-anchor="end" font-size="13.5">HIV/AIDS</text><path fill="#F2585B" opacity=".85" d="M303.6 440.67h1.5v10.67h-1.5z"/><text x="310.1" y="446.01" fill="#666" dominant-baseline="middle" text-anchor="start" font-size="13.5">249</text></g><g class="bar"><text x="298.56" y="459.35" fill="#666" dominant-baseline="middle" text-anchor="end" font-size="13.5">Intestinal infectious diseases</text><path fill="#F2585B" opacity=".85" d="M303.6 454.01h1.1v10.67h-1.1z"/><text x="309.7" y="459.35" fill="#666" dominant-baseline="middle" text-anchor="start" font-size="13.5">189.84</text></g><g class="bar"><text x="298.56" y="472.68" fill="#666" dominant-baseline="middle" text-anchor="end" font-size="13.5">Alcohol disorder</text><path fill="#F2585B" opacity=".85" d="M303.6 467.35h.8v10.67h-.8z"/><text x="309.4" y="472.68" fill="#666" dominant-baseline="middle" text-anchor="start" font-size="13.5">142</text></g><g class="bar"><text x="298.56" y="486.02" fill="#666" dominant-baseline="middle" text-anchor="end" font-size="13.5">Execution</text><path fill="#F2585B" opacity=".85" d="M303.6 480.69h.5v10.67h-.5z"/><text x="309.1" y="486.02" fill="#666" dominant-baseline="middle" text-anchor="start" font-size="13.5">88</text></g><g class="bar" fill="#666" dominant-baseline="middle" font-size="13.5"><text x="298.56" y="499.36" text-anchor="end">Malaria</text><text x="308.6" y="499.36" text-anchor="start">0</text></g><g class="bar" fill="#666" dominant-baseline="middle" font-size="13.5"><text x="298.56" y="512.7" text-anchor="end">Natural disasters</text><text x="308.6" y="512.7" text-anchor="start">0</text></g></g><g class="SourcesFooter" fill="#777"><g class="clickable" fill="#777"><text font-size="12.6" x="15" y="567"><tspan x="15" y="566.98">Source: Institute for Health Metrics and Evaluation (IHME); Global Terrorism Database (GTD); Amnesty International</tspan></text></g><text font-size="12.6" x="15" y="582.5"><tspan x="15" y="582.48"><a target="_blank" href="https://ourworldindata.org/causes-of-death/" fill="#777">OurWorldInData.org/causes-of-death/</a> • <a href="http://creativecommons.org/licenses/by-sa/4.0/deed.en_US" target="_blank" fill="#777">CC BY-SA</a></tspan></text></g></g></svg>