<svg xmlns="http://www.w3.org/2000/svg" version="1.1" style="font-family: 'Helvetica Neue', Helvetica, Arial, sans-serif; font-size: 18px; background-color: white; text-rendering: optimizeLegibility; -webkit-font-smoothing: antialiased;" width="850" height="600"><g class="ChartTab"><g class="HeaderView"><g opacity="0.8" transform="translate(770, 15) scale(0.31)"><a xmlns:xlink="http://www.w3.org/1999/xlink" xlink:href="https://ourworldindata.org" target="_blank"><g><rect x="0" y="0" fill="#1B2543" width="211.2" height="130.1"/><rect x="0" y="112.2" fill="#E63912" width="211.2" height="17.9"/><g><rect x="1.2" y="12.3" fill="none" width="210.2" height="99.2"/><path fill="#FFFFFF" d="M37.8,32.2c0,12.7-7.7,19.4-17.1,19.4c-9.7,0-16.6-7.5-16.6-18.7c0-11.7,7.3-19.3,17.1-19.3 C31.3,13.7,37.8,21.3,37.8,32.2z M9.2,32.8c0,7.9,4.3,14.9,11.8,14.9c7.5,0,11.8-6.9,11.8-15.3c0-7.3-3.8-14.9-11.8-14.9 C13.1,17.5,9.2,24.8,9.2,32.8z"/><path fill="#FFFFFF" d="M62.7,43.8c0,2.7,0.1,5.1,0.2,7.2h-4.3l-0.3-4.3h-0.1c-1.3,2.1-4,4.9-8.8,4.9c-4.2,0-9.1-2.3-9.1-11.6 V24.6h4.8v14.6c0,5,1.5,8.4,5.9,8.4c3.2,0,5.5-2.2,6.3-4.4c0.3-0.7,0.4-1.6,0.4-2.5V24.6h4.8V43.8z"/><path fill="#FFFFFF" d="M67.3,32.8c0-3.1-0.1-5.8-0.2-8.2h4.2l0.2,5.2h0.2c1.2-3.5,4.1-5.8,7.3-5.8c0.5,0,0.9,0.1,1.4,0.2v4.5 c-0.5-0.1-1-0.2-1.6-0.2c-3.4,0-5.8,2.6-6.5,6.2c-0.1,0.7-0.2,1.4-0.2,2.2V51h-4.8V32.8z"/><path fill="#FFFFFF" d="M95.4,51l-9.4-36.8h5l4.4,18.6c1.1,4.6,2.1,9.2,2.7,12.7h0.1c0.6-3.7,1.8-8,3-12.8l4.9-18.5h5l4.5,18.7 c1,4.4,2,8.7,2.6,12.6h0.1c0.8-4,1.8-8.1,3-12.7l4.9-18.5h4.9L120.6,51h-5L111,31.9c-1.1-4.7-1.9-8.3-2.4-12h-0.1 c-0.7,3.7-1.5,7.3-2.8,12L100.4,51H95.4z"/><path fill="#FFFFFF" d="M154.9,37.6c0,9.8-6.8,14-13.2,14c-7.2,0-12.7-5.2-12.7-13.6c0-8.8,5.8-14,13.1-14 C149.8,24,154.9,29.5,154.9,37.6z M133.9,37.9c0,5.8,3.3,10.1,8,10.1c4.6,0,8-4.3,8-10.3c0-4.5-2.2-10.1-7.9-10.1 C136.3,27.6,133.9,32.8,133.9,37.9z"/><path fill="#FFFFFF" d="M158.2,32.8c0-3.1-0.1-5.8-0.2-8.2h4.2l0.2,5.2h0.2c1.2-3.5,4.1-5.8,7.3-5.8c0.5,0,0.9,0.1,1.4,0.2v4.5 c-0.5-0.1-1-0.2-1.6-0.2c-3.4,0-5.8,2.6-6.5,6.2c-0.1,0.7-0.2,1.4-0.2,2.2V51h-4.8V32.8z"/><path fill="#FFFFFF" d="M173.5,12.3h4.8V51h-4.8V12.3z"/><path fill="#FFFFFF" d="M206.5,12.3v31.9c0,2.3,0.1,5,0.2,6.8h-4.3l-0.2-4.6H202c-1.5,2.9-4.7,5.2-9,5.2 c-6.4,0-11.3-5.4-11.3-13.4c-0.1-8.8,5.4-14.2,11.9-14.2c4,0,6.8,1.9,8,4h0.1V12.3H206.5z M201.7,35.4c0-0.6-0.1-1.4-0.2-2 c-0.7-3.1-3.3-5.6-6.9-5.6c-5,0-7.9,4.4-7.9,10.2c0,5.3,2.6,9.8,7.8,9.8c3.2,0,6.2-2.1,7.1-5.7c0.2-0.7,0.2-1.3,0.2-2.1V35.4z"/><path fill="#FFFFFF" d="M42.8,64c0.1,1.6-1.1,2.9-3.1,2.9c-1.7,0-2.9-1.3-2.9-2.9c0-1.7,1.3-3,3-3C41.7,61,42.8,62.3,42.8,64z M37.4,97.8V71.4h4.8v26.4H37.4z"/><path fill="#FFFFFF" d="M47.5,78.6c0-2.7-0.1-5-0.2-7.1h4.3l0.3,4.4h0.1c1.3-2.5,4.4-5,8.8-5c3.7,0,9.4,2.2,9.4,11.2v15.8h-4.8 V82.6c0-4.3-1.6-7.8-6.1-7.8c-3.2,0-5.6,2.2-6.5,4.9c-0.2,0.6-0.3,1.4-0.3,2.2v15.9h-4.8V78.6z"/><path fill="#FFFFFF" d="M84,61.6c2.9-0.4,6.3-0.8,10.1-0.8c6.8,0,11.7,1.6,14.9,4.6c3.3,3,5.2,7.3,5.2,13.2c0,6-1.9,10.9-5.3,14.3 c-3.4,3.4-9.1,5.3-16.3,5.3c-3.4,0-6.2-0.2-8.6-0.4V61.6z M88.8,94.1c1.2,0.2,3,0.3,4.8,0.3c10.2,0,15.7-5.7,15.7-15.6 c0.1-8.7-4.9-14.2-14.9-14.2c-2.5,0-4.3,0.2-5.6,0.5V94.1z"/><path fill="#FFFFFF" d="M132.1,97.8l-0.4-3.3h-0.2c-1.5,2.1-4.3,3.9-8.1,3.9c-5.4,0-8.1-3.8-8.1-7.6c0-6.4,5.7-9.9,15.9-9.8v-0.5 c0-2.2-0.6-6.1-6-6.1c-2.5,0-5,0.8-6.9,2l-1.1-3.2c2.2-1.4,5.4-2.3,8.7-2.3c8.1,0,10.1,5.5,10.1,10.8v9.9c0,2.3,0.1,4.5,0.4,6.3 H132.1z M131.4,84.4c-5.3-0.1-11.2,0.8-11.2,5.9c0,3.1,2.1,4.6,4.5,4.6c3.4,0,5.6-2.2,6.4-4.4c0.2-0.5,0.3-1,0.3-1.5V84.4z"/><path fill="#FFFFFF" d="M146.6,63.9v7.6h6.9v3.7h-6.9v14.2c0,3.3,0.9,5.1,3.6,5.1c1.3,0,2.2-0.2,2.8-0.3l0.2,3.6 c-0.9,0.4-2.4,0.7-4.3,0.7c-2.2,0-4-0.7-5.2-2c-1.4-1.4-1.9-3.8-1.9-6.9V75.1h-4.1v-3.7h4.1v-6.3L146.6,63.9z"/><path fill="#FFFFFF" d="M171.4,97.8l-0.4-3.3h-0.2c-1.5,2.1-4.3,3.9-8.1,3.9c-5.4,0-8.1-3.8-8.1-7.6c0-6.4,5.7-9.9,15.9-9.8v-0.5 c0-2.2-0.6-6.1-6-6.1c-2.5,0-5,0.8-6.9,2l-1.1-3.2c2.2-1.4,5.4-2.3,8.7-2.3c8.1,0,10.1,5.5,10.1,10.8v9.9c0,2.3,0.1,4.5,0.4,6.3 H171.4z M170.7,84.4c-5.3-0.1-11.2,0.8-11.2,5.9c0,3.1,2.1,4.6,4.5,4.6c3.4,0,5.6-2.2,6.4-4.4c0.2-0.5,0.3-1,0.3-1.5V84.4z"/></g></g></a></g><a href="https://ourworldindata.org/grapher/annual-deaths-by-cause-2001?country=USA" target="_blank"><text font-size="27.00" x="15.0" y="36.6" fill="#555"><tspan x="15" y="36.6">Annual number of deaths by cause, United States, 2001</tspan></text></a><text font-size="14.40" x="15.0" y="55.5" fill="#666"><tspan x="15" y="55.519999999999996">Data refers to the specific cause of death, which is distinguished from risk factors for death, such as air pollution,</tspan><tspan x="15" y="71.36">diet and other lifestyle factors. See sources for further details on definitions of specific cause categories.</tspan></text></g><g class="DiscreteBarChart"><rect x="15" y="93.9" width="810" height="462.6" opacity="0" fill="rgba(255,255,255,0)"></rect><g class="HorizontalAxis"><text x="292.7" y="556.5" fill="#666" text-anchor="middle" font-size="16.2">0</text><text x="399.6" y="556.5" fill="#666" text-anchor="middle" font-size="16.2">200,000</text><text x="506.5" y="556.5" fill="#666" text-anchor="middle" font-size="16.2">400,000</text><text x="613.3" y="556.5" fill="#666" text-anchor="middle" font-size="16.2">600,000</text><text x="720.2" y="556.5" fill="#666" text-anchor="middle" font-size="16.2">800,000</text></g><g class="AxisGridLines"><line x1="292.7" y1="535.30" x2="292.7" y2="93.90" stroke="#ccc"></line><line x1="399.6" y1="535.30" x2="399.6" y2="93.90" stroke="#ddd" stroke-dasharray="3,2"></line><line x1="506.5" y1="535.30" x2="506.5" y2="93.90" stroke="#ddd" stroke-dasharray="3,2"></line><line x1="613.3" y1="535.30" x2="613.3" y2="93.90" stroke="#ddd" stroke-dasharray="3,2"></line><line x1="720.2" y1="535.30" x2="720.2" y2="93.90" stroke="#ddd" stroke-dasharray="3,2"></line></g><g class="bar"><text x="287.695" y="99.4175" fill="#666" dominant-baseline="middle" text-anchor="end" font-size="13.5">Cardiovascular diseases</text><rect x="292.7" y="93.9" width="483.2" height="11.035000000000002" fill="#F2585B" opacity="0.85"></rect><text x="780.9" y="99.4175" fill="#666" dominant-baseline="middle" text-anchor="start" font-size="13.5">904,090</text></g><g class="bar"><text x="287.695" y="113.21125" fill="#666" dominant-baseline="middle" text-anchor="end" font-size="13.5">Cancers</text><rect x="292.7" y="107.69375000000001" width="307.2" height="11.035000000000002" fill="#F2585B" opacity="0.85"></rect><text x="604.9" y="113.21125" fill="#666" dominant-baseline="middle" text-anchor="start" font-size="13.5">574,868</text></g><g class="bar"><text x="287.695" y="127.00500000000001" fill="#666" dominant-baseline="middle" text-anchor="end" font-size="13.5">Dementia</text><rect x="292.7" y="121.48750000000001" width="87.5" height="11.035000000000002" fill="#F2585B" opacity="0.85"></rect><text x="385.2" y="127.00500000000001" fill="#666" dominant-baseline="middle" text-anchor="start" font-size="13.5">163,728</text></g><g class="bar"><text x="287.695" y="140.79875" fill="#666" dominant-baseline="middle" text-anchor="end" font-size="13.5">Diabetes, blood, and endocrine diseases</text><rect x="292.7" y="135.28125" width="83.40000000000003" height="11.035000000000002" fill="#F2585B" opacity="0.85"></rect><text x="381.1" y="140.79875" fill="#666" dominant-baseline="middle" text-anchor="start" font-size="13.5">156,049</text></g><g class="bar"><text x="287.695" y="154.5925" fill="#666" dominant-baseline="middle" text-anchor="end" font-size="13.5">Respiratory diseases</text><rect x="292.7" y="149.075" width="78.40000000000003" height="11.035000000000002" fill="#F2585B" opacity="0.85"></rect><text x="376.1" y="154.5925" fill="#666" dominant-baseline="middle" text-anchor="start" font-size="13.5">146,742</text></g><g class="bar"><text x="287.695" y="168.38625" fill="#666" dominant-baseline="middle" text-anchor="end" font-size="13.5">Lower respiratory infections</text><rect x="292.7" y="162.86874999999998" width="41" height="11.035000000000002" fill="#F2585B" opacity="0.85"></rect><text x="338.7" y="168.38625" fill="#666" dominant-baseline="middle" text-anchor="start" font-size="13.5">76,792</text></g><g class="bar"><text x="287.695" y="182.17999999999998" fill="#666" dominant-baseline="middle" text-anchor="end" font-size="13.5">Kidney disease</text><rect x="292.7" y="176.66249999999997" width="26.600000000000023" height="11.035000000000002" fill="#F2585B" opacity="0.85"></rect><text x="324.3" y="182.17999999999998" fill="#666" dominant-baseline="middle" text-anchor="start" font-size="13.5">49,847</text></g><g class="bar"><text x="287.695" y="195.97374999999997" fill="#666" dominant-baseline="middle" text-anchor="end" font-size="13.5">Road accidents</text><rect x="292.7" y="190.45624999999995" width="26" height="11.035000000000002" fill="#F2585B" opacity="0.85"></rect><text x="323.7" y="195.97374999999997" fill="#666" dominant-baseline="middle" text-anchor="start" font-size="13.5">48,644</text></g><g class="bar"><text x="287.695" y="209.76749999999996" fill="#666" dominant-baseline="middle" text-anchor="end" font-size="13.5">Digestive diseases</text><rect x="292.7" y="204.24999999999994" width="23.5" height="11.035000000000002" fill="#F2585B" opacity="0.85"></rect><text x="321.2" y="209.76749999999996" fill="#666" dominant-baseline="middle" text-anchor="start" font-size="13.5">44,008</text></g><g class="bar"><text x="287.695" y="223.56124999999994" fill="#666" dominant-baseline="middle" text-anchor="end" font-size="13.5">Liver disease</text><rect x="292.7" y="218.04374999999993" width="21.900000000000034" height="11.035000000000002" fill="#F2585B" opacity="0.85"></rect><text x="319.6" y="223.56124999999994" fill="#666" dominant-baseline="middle" text-anchor="start" font-size="13.5">40,896</text></g><g class="bar"><text x="287.695" y="237.35499999999993" fill="#666" dominant-baseline="middle" text-anchor="end" font-size="13.5">Suicide</text><rect x="292.7" y="231.83749999999992" width="19.5" height="11.035000000000002" fill="#F2585B" opacity="0.85"></rect><text x="317.2" y="237.35499999999993" fill="#666" dominant-baseline="middle" text-anchor="start" font-size="13.5">36,412</text></g><g class="bar"><text x="287.695" y="251.14874999999992" fill="#666" dominant-baseline="middle" text-anchor="end" font-size="13.5">Homicide</text><rect x="292.7" y="245.6312499999999" width="9.800000000000011" height="11.035000000000002" fill="#F2585B" opacity="0.85"></rect><text x="307.5" y="251.14874999999992" fill="#666" dominant-baseline="middle" text-anchor="start" font-size="13.5">18,372</text></g><g class="bar"><text x="287.695" y="264.94249999999994" fill="#666" dominant-baseline="middle" text-anchor="end" font-size="13.5">Parkinson disease</text><rect x="292.7" y="259.42499999999995" width="9.400000000000034" height="11.035000000000002" fill="#F2585B" opacity="0.85"></rect><text x="307.1" y="264.94249999999994" fill="#666" dominant-baseline="middle" text-anchor="start" font-size="13.5">17,659</text></g><g class="bar"><text x="287.695" y="278.7362499999999" fill="#666" dominant-baseline="middle" text-anchor="end" font-size="13.5">Drug use disorders</text><rect x="292.7" y="273.21874999999994" width="8.800000000000011" height="11.035000000000002" fill="#F2585B" opacity="0.85"></rect><text x="306.5" y="278.7362499999999" fill="#666" dominant-baseline="middle" text-anchor="start" font-size="13.5">16,441</text></g><g class="bar"><text x="287.695" y="292.5299999999999" fill="#666" dominant-baseline="middle" text-anchor="end" font-size="13.5">HIV/AIDS</text><rect x="292.7" y="287.01249999999993" width="8.199999999999989" height="11.035000000000002" fill="#F2585B" opacity="0.85"></rect><text x="305.9" y="292.5299999999999" fill="#666" dominant-baseline="middle" text-anchor="start" font-size="13.5">15,391</text></g><g class="bar"><text x="287.695" y="306.3237499999999" fill="#666" dominant-baseline="middle" text-anchor="end" font-size="13.5">Neonatal disorders</text><rect x="292.7" y="300.8062499999999" width="7.600000000000023" height="11.035000000000002" fill="#F2585B" opacity="0.85"></rect><text x="305.3" y="306.3237499999999" fill="#666" dominant-baseline="middle" text-anchor="start" font-size="13.5">14,213</text></g><g class="bar"><text x="287.695" y="320.1174999999999" fill="#666" dominant-baseline="middle" text-anchor="end" font-size="13.5">Alcohol disorders</text><rect x="292.7" y="314.5999999999999" width="4.199999999999989" height="11.035000000000002" fill="#F2585B" opacity="0.85"></rect><text x="301.9" y="320.1174999999999" fill="#666" dominant-baseline="middle" text-anchor="start" font-size="13.5">7,886</text></g><g class="bar"><text x="287.695" y="333.9112499999999" fill="#666" dominant-baseline="middle" text-anchor="end" font-size="13.5">Fire</text><rect x="292.7" y="328.3937499999999" width="3.1999999999999886" height="11.035000000000002" fill="#F2585B" opacity="0.85"></rect><text x="300.9" y="333.9112499999999" fill="#666" dominant-baseline="middle" text-anchor="start" font-size="13.5">6,019</text></g><g class="bar"><text x="287.695" y="347.70499999999987" fill="#666" dominant-baseline="middle" text-anchor="end" font-size="13.5">Hepatitis</text><rect x="292.7" y="342.1874999999999" width="2.5" height="11.035000000000002" fill="#F2585B" opacity="0.85"></rect><text x="300.2" y="347.70499999999987" fill="#666" dominant-baseline="middle" text-anchor="start" font-size="13.5">4,750</text></g><g class="bar"><text x="287.695" y="361.49874999999986" fill="#666" dominant-baseline="middle" text-anchor="end" font-size="13.5">Nutritional deficiencies</text><rect x="292.7" y="355.9812499999999" width="2.400000000000034" height="11.035000000000002" fill="#F2585B" opacity="0.85"></rect><text x="300.1" y="361.49874999999986" fill="#666" dominant-baseline="middle" text-anchor="start" font-size="13.5">4,540</text></g><g class="bar"><text x="287.695" y="375.29249999999985" fill="#666" dominant-baseline="middle" text-anchor="end" font-size="13.5">Drowning</text><rect x="292.7" y="369.77499999999986" width="2.1000000000000227" height="11.035000000000002" fill="#F2585B" opacity="0.85"></rect><text x="299.8" y="375.29249999999985" fill="#666" dominant-baseline="middle" text-anchor="start" font-size="13.5">3,995</text></g><g class="bar"><text x="287.695" y="389.08624999999984" fill="#666" dominant-baseline="middle" text-anchor="end" font-size="13.5">Protein-energy malnutrition</text><rect x="292.7" y="383.56874999999985" width="2.1000000000000227" height="11.035000000000002" fill="#F2585B" opacity="0.85"></rect><text x="299.8" y="389.08624999999984" fill="#666" dominant-baseline="middle" text-anchor="start" font-size="13.5">3,873</text></g><g class="bar"><text x="287.695" y="402.8799999999998" fill="#666" dominant-baseline="middle" text-anchor="end" font-size="13.5">Diarrheal diseases</text><rect x="292.7" y="397.36249999999984" width="1.8000000000000114" height="11.035000000000002" fill="#F2585B" opacity="0.85"></rect><text x="299.5" y="402.8799999999998" fill="#666" dominant-baseline="middle" text-anchor="start" font-size="13.5">3,344</text></g><g class="bar"><text x="287.695" y="416.6737499999998" fill="#666" dominant-baseline="middle" text-anchor="end" font-size="13.5">Terrorism</text><rect x="292.7" y="411.15624999999983" width="1.6000000000000227" height="11.035000000000002" fill="#F2585B" opacity="0.85"></rect><text x="299.3" y="416.6737499999998" fill="#666" dominant-baseline="middle" text-anchor="start" font-size="13.5">3,005</text></g><g class="bar"><text x="287.695" y="430.4674999999998" fill="#666" dominant-baseline="middle" text-anchor="end" font-size="13.5">Meningitis</text><rect x="292.7" y="424.9499999999998" width="1" height="11.035000000000002" fill="#F2585B" opacity="0.85"></rect><text x="298.7" y="430.4674999999998" fill="#666" dominant-baseline="middle" text-anchor="start" font-size="13.5">1,965</text></g><g class="bar"><text x="287.695" y="444.2612499999998" fill="#666" dominant-baseline="middle" text-anchor="end" font-size="13.5">Hot or cold-related deaths</text><rect x="292.7" y="438.7437499999998" width="0.8000000000000114" height="11.035000000000002" fill="#F2585B" opacity="0.85"></rect><text x="298.5" y="444.2612499999998" fill="#666" dominant-baseline="middle" text-anchor="start" font-size="13.5">1,440</text></g><g class="bar"><text x="287.695" y="458.0549999999998" fill="#666" dominant-baseline="middle" text-anchor="end" font-size="13.5">Tuberculosis</text><rect x="292.7" y="452.5374999999998" width="0.6999999999999886" height="11.035000000000002" fill="#F2585B" opacity="0.85"></rect><text x="298.4" y="458.0549999999998" fill="#666" dominant-baseline="middle" text-anchor="start" font-size="13.5">1,247</text></g><g class="bar"><text x="287.695" y="471.84874999999977" fill="#666" dominant-baseline="middle" text-anchor="end" font-size="13.5">Maternal disorders</text><rect x="292.7" y="466.3312499999998" width="0.30000000000001137" height="11.035000000000002" fill="#F2585B" opacity="0.85"></rect><text x="298" y="471.84874999999977" fill="#666" dominant-baseline="middle" text-anchor="start" font-size="13.5">656</text></g><g class="bar"><text x="287.695" y="485.64249999999976" fill="#666" dominant-baseline="middle" text-anchor="end" font-size="13.5">Conflict</text><rect x="292.7" y="480.1249999999998" width="0.10000000000002274" height="11.035000000000002" fill="#F2585B" opacity="0.85"></rect><text x="297.8" y="485.64249999999976" fill="#666" dominant-baseline="middle" text-anchor="start" font-size="13.5">175</text></g><g class="bar"><text x="287.695" y="499.43624999999975" fill="#666" dominant-baseline="middle" text-anchor="end" font-size="13.5">Natural disasters</text><rect x="292.7" y="493.91874999999976" width="0.10000000000002274" height="11.035000000000002" fill="#F2585B" opacity="0.85"></rect><text x="297.8" y="499.43624999999975" fill="#666" dominant-baseline="middle" text-anchor="start" font-size="13.5">162</text></g><g class="bar"><text x="287.695" y="513.2299999999998" fill="#666" dominant-baseline="middle" text-anchor="end" font-size="13.5">Intestinal infectious diseases</text><rect x="292.7" y="507.7124999999998" width="0" height="11.035000000000002" fill="#F2585B" opacity="0.85"></rect><text x="297.7" y="513.2299999999998" fill="#666" dominant-baseline="middle" text-anchor="start" font-size="13.5">29</text></g><g class="bar"><text x="287.695" y="527.0237499999998" fill="#666" dominant-baseline="middle" text-anchor="end" font-size="13.5">Malaria</text><rect x="292.7" y="521.5062499999998" width="0" height="11.035000000000002" fill="#F2585B" opacity="0.85"></rect><text x="297.7" y="527.0237499999998" fill="#666" dominant-baseline="middle" text-anchor="start" font-size="13.5">0</text></g></g><g style="fill: #777;" class="SourcesFooter"><g style="fill: #777;" class="clickable"><text font-size="12.60" x="15.0" y="581.6"><tspan x="15" y="581.58">Source: IHME, Global Burden of Disease (GBD); Global Terrorism Database; Amnesty International</tspan></text></g><text font-size="12.60" x="649.0" y="581.6"><tspan x="649.024" y="581.58"><a target='_blank' style='fill: #777;' href='https://ourworldindata.org'>OurWorldInData.org</a> • <a style="fill: #777;" href="http://creativecommons.org/licenses/by-sa/4.0/deed.en_US" target="_blank">CC BY-SA</a></tspan></text></g></g></svg>