<svg xmlns="http://www.w3.org/2000/svg" version="1.1" style="background-color:#fff;-webkit-font-smoothing:antialiased" width="850" height="600" font-family="'Helvetica Neue',Helvetica,Arial,sans-serif" font-size="18" text-rendering="optimizeLegibility"><g class="ChartTab"><g class="HeaderView"><g opacity=".8" transform="matrix(.31 0 0 .31 770 15)"><a xmlns:xlink="http://www.w3.org/1999/xlink" xlink:href="https://ourworldindata.org" target="_blank"><g><path fill="#1B2543" d="M0 0h211.2v130.1H0z"/><path fill="#E63912" d="M0 112.2h211.2v17.9H0z"/><g><path fill="none" d="M1.2 12.3h210.2v99.2H1.2z"/><path fill="#FFF" d="M37.8 32.2c0 12.7-7.7 19.4-17.1 19.4-9.7 0-16.6-7.5-16.6-18.7 0-11.7 7.3-19.3 17.1-19.3 10.1.1 16.6 7.7 16.6 18.6zm-28.6.6c0 7.9 4.3 14.9 11.8 14.9 7.5 0 11.8-6.9 11.8-15.3 0-7.3-3.8-14.9-11.8-14.9-7.9 0-11.8 7.3-11.8 15.3zM62.7 43.8c0 2.7.1 5.1.2 7.2h-4.3l-.3-4.3h-.1c-1.3 2.1-4 4.9-8.8 4.9-4.2 0-9.1-2.3-9.1-11.6V24.6h4.8v14.6c0 5 1.5 8.4 5.9 8.4 3.2 0 5.5-2.2 6.3-4.4.3-.7.4-1.6.4-2.5V24.6h4.8v19.2zM67.3 32.8c0-3.1-.1-5.8-.2-8.2h4.2l.2 5.2h.2c1.2-3.5 4.1-5.8 7.3-5.8.5 0 .9.1 1.4.2v4.5c-.5-.1-1-.2-1.6-.2-3.4 0-5.8 2.6-6.5 6.2-.1.7-.2 1.4-.2 2.2V51h-4.8V32.8zM95.4 51L86 14.2h5l4.4 18.6c1.1 4.6 2.1 9.2 2.7 12.7h.1c.6-3.7 1.8-8 3-12.8l4.9-18.5h5l4.5 18.7c1 4.4 2 8.7 2.6 12.6h.1c.8-4 1.8-8.1 3-12.7l4.9-18.5h4.9L120.6 51h-5L111 31.9c-1.1-4.7-1.9-8.3-2.4-12h-.1c-.7 3.7-1.5 7.3-2.8 12L100.4 51h-5zM154.9 37.6c0 9.8-6.8 14-13.2 14-7.2 0-12.7-5.2-12.7-13.6 0-8.8 5.8-14 13.1-14 7.7 0 12.8 5.5 12.8 13.6zm-21 .3c0 5.8 3.3 10.1 8 10.1 4.6 0 8-4.3 8-10.3 0-4.5-2.2-10.1-7.9-10.1s-8.1 5.2-8.1 10.3zM158.2 32.8c0-3.1-.1-5.8-.2-8.2h4.2l.2 5.2h.2c1.2-3.5 4.1-5.8 7.3-5.8.5 0 .9.1 1.4.2v4.5c-.5-.1-1-.2-1.6-.2-3.4 0-5.8 2.6-6.5 6.2-.1.7-.2 1.4-.2 2.2V51h-4.8V32.8zM173.5 12.3h4.8V51h-4.8V12.3zM206.5 12.3v31.9c0 2.3.1 5 .2 6.8h-4.3l-.2-4.6h-.2c-1.5 2.9-4.7 5.2-9 5.2-6.4 0-11.3-5.4-11.3-13.4-.1-8.8 5.4-14.2 11.9-14.2 4 0 6.8 1.9 8 4h.1V12.3h4.8zm-4.8 23.1c0-.6-.1-1.4-.2-2a7 7 0 00-6.9-5.6c-5 0-7.9 4.4-7.9 10.2 0 5.3 2.6 9.8 7.8 9.8 3.2 0 6.2-2.1 7.1-5.7.2-.7.2-1.3.2-2.1v-4.6zM42.8 64c.1 1.6-1.1 2.9-3.1 2.9-1.7 0-2.9-1.3-2.9-2.9 0-1.7 1.3-3 3-3 1.9 0 3 1.3 3 3zm-5.4 33.8V71.4h4.8v26.4h-4.8zM47.5 78.6c0-2.7-.1-5-.2-7.1h4.3l.3 4.4h.1c1.3-2.5 4.4-5 8.8-5 3.7 0 9.4 2.2 9.4 11.2v15.8h-4.8V82.6c0-4.3-1.6-7.8-6.1-7.8-3.2 0-5.6 2.2-6.5 4.9-.2.6-.3 1.4-.3 2.2v15.9h-4.8V78.6zM84 61.6c2.9-.4 6.3-.8 10.1-.8 6.8 0 11.7 1.6 14.9 4.6 3.3 3 5.2 7.3 5.2 13.2 0 6-1.9 10.9-5.3 14.3-3.4 3.4-9.1 5.3-16.3 5.3-3.4 0-6.2-.2-8.6-.4V61.6zm4.8 32.5c1.2.2 3 .3 4.8.3 10.2 0 15.7-5.7 15.7-15.6.1-8.7-4.9-14.2-14.9-14.2-2.5 0-4.3.2-5.6.5v29zM132.1 97.8l-.4-3.3h-.2a9.79 9.79 0 01-8.1 3.9c-5.4 0-8.1-3.8-8.1-7.6 0-6.4 5.7-9.9 15.9-9.8v-.5c0-2.2-.6-6.1-6-6.1-2.5 0-5 .8-6.9 2l-1.1-3.2c2.2-1.4 5.4-2.3 8.7-2.3 8.1 0 10.1 5.5 10.1 10.8v9.9c0 2.3.1 4.5.4 6.3h-4.3zm-.7-13.4c-5.3-.1-11.2.8-11.2 5.9 0 3.1 2.1 4.6 4.5 4.6 3.4 0 5.6-2.2 6.4-4.4.2-.5.3-1 .3-1.5v-4.6zM146.6 63.9v7.6h6.9v3.7h-6.9v14.2c0 3.3.9 5.1 3.6 5.1 1.3 0 2.2-.2 2.8-.3l.2 3.6c-.9.4-2.4.7-4.3.7-2.2 0-4-.7-5.2-2-1.4-1.4-1.9-3.8-1.9-6.9V75.1h-4.1v-3.7h4.1v-6.3l4.8-1.2zM171.4 97.8l-.4-3.3h-.2a9.79 9.79 0 01-8.1 3.9c-5.4 0-8.1-3.8-8.1-7.6 0-6.4 5.7-9.9 15.9-9.8v-.5c0-2.2-.6-6.1-6-6.1-2.5 0-5 .8-6.9 2l-1.1-3.2c2.2-1.4 5.4-2.3 8.7-2.3 8.1 0 10.1 5.5 10.1 10.8v9.9c0 2.3.1 4.5.4 6.3h-4.3zm-.7-13.4c-5.3-.1-11.2.8-11.2 5.9 0 3.1 2.1 4.6 4.5 4.6 3.4 0 5.6-2.2 6.4-4.4.2-.5.3-1 .3-1.5v-4.6z"/></g></g></a></g><a href="https://ourworldindata.org/grapher/antibiotic-use-in-livestock-in-europe" target="_blank"><text font-size="27" x="15" y="36.6" fill="#555"><tspan x="15" y="36.6">Antibiotic use in livestock in Europe</tspan></text></a><text font-size="14.4" x="15" y="55.5" fill="#666"><tspan x="15" y="55.52">Antibiotics are used in livestock for animal health and productivity, but also pose a risk for antibiotic resistance in</tspan><tspan x="15" y="71.36">both humans and livestock. Data is measured as the milligrams of total antibiotic use per kilogram of meat</tspan><tspan x="15" y="87.2">production. This is corrected for differences in livestock numbers and types, normalising to a population-corrected</tspan><tspan x="15" y="103.04">unit (PCU). A suggested global cap of antibiotic use in livestock is set at 50mg/PCU.</tspan></text></g><g class="LineChart"><defs><clipPath id="a"><path d="M64.27 0h830v834h-830z"/></clipPath></defs><g class="AxisBoxView"><g class="HorizontalAxis" fill="#666" text-anchor="middle" font-size="16.2"><text x="74.3" y="541.9">2011</text><text x="200.9" y="541.9">2012</text><text x="327.4" y="541.9">2013</text><text x="454" y="541.9">2014</text><text x="580.6" y="541.9">2015</text><text x="707.2" y="541.9">2016</text></g><g class="VerticalAxis" fill="#666" dominant-baseline="middle" text-anchor="end" font-size="16.2"><text x="69.27" y="520.7">0 mg</text><text x="69.27" y="429.5">100 mg</text><text x="69.27" y="338.4">200 mg</text><text x="69.27" y="247.2">300 mg</text><text x="69.27" y="156.1">400 mg</text></g><g class="AxisGridLines"><path stroke="#ccc" d="M74.27 520.7h632.91"/><path stroke="#ddd" stroke-dasharray="3,2" d="M74.27 429.5h632.91M74.27 338.4h632.91M74.27 247.2h632.91M74.27 156.1h632.91"/></g><g class="AxisGridLines" stroke="#ddd" stroke-dasharray="3,2"><path d="M74.3 520.7V124.9M200.9 520.7V124.9M327.4 520.7V124.9M454 520.7V124.9M580.6 520.7V124.9M707.2 520.7V124.9"/></g></g><g clip-path="url(#a)"><g class="HeightedLegend clickable"><g class="legendMark"><path fill="#3360a9" d="M717.18 512.25h10v2.5h-10z"/><text font-size="14.4" x="732.2" y="517.8" fill="#333"><tspan x="732.18" y="517.82">Norway</tspan></text></g><g class="legendMark"><path fill="#ca2628" d="M717.18 497.85h10v2.5h-10z"/><text font-size="14.4" x="732.2" y="503.4" fill="#333"><tspan x="732.18" y="503.42">Sweden</tspan></text></g><g class="legendMark"><path fill="#34983f" d="M717.18 483.45h10v2.5h-10z"/><text font-size="14.4" x="732.2" y="489" fill="#333"><tspan x="732.18" y="489.02">Finland</tspan></text></g><g class="legendMark"><path fill="#f6a324" d="M717.18 469.05h10v2.5h-10z"/><text font-size="14.4" x="732.2" y="474.6" fill="#333"><tspan x="732.18" y="474.62">United Kingdom</tspan></text></g><g class="legendMark"><path fill="#a652ba" d="M717.18 454.65h10v2.5h-10z"/><text font-size="14.4" x="732.2" y="460.2" fill="#333"><tspan x="732.18" y="460.22">France</tspan></text></g><g class="legendMark"><path fill="#2a939b" d="M717.18 430.25h10v2.5h-10z"/><text font-size="14.4" x="732.2" y="435.8" fill="#333"><tspan x="732.18" y="435.82">Germany</tspan></text></g><g class="legendMark"><path fill="#e6332e" d="M717.18 225.95h10v2.5h-10z"/><text font-size="14.4" x="732.2" y="231.5" fill="#333"><tspan x="732.18" y="231.52">Italy</tspan></text></g><g class="legendMark"><path fill="#9ecc8a" d="M717.18 153.05h10v2.5h-10z"/><text font-size="14.4" x="732.2" y="158.6" fill="#333"><tspan x="732.18" y="158.62">Spain</tspan></text></g><g class="legendMark"><path fill="#ffd53e" d="M717.18 123.65h10v2.5h-10z"/><text font-size="14.4" x="732.2" y="129.2" fill="#333"><tspan x="732.18" y="129.22">Cyprus</tspan></text></g></g><g class="Lines"><g class="key-Cyprus_0"><path stroke="#ffd53e" stroke-linecap="round" d="M74 149l127 10 126-26 127 31 127-39" fill="none" stroke-width="1.5"/><g fill="#ffd53e"><circle cx="74" cy="149" r="2"/><circle cx="201" cy="159" r="2"/><circle cx="327" cy="133" r="2"/><circle cx="454" cy="164" r="2"/><circle cx="581" cy="125" r="2"/></g></g><g class="key-Finland_0"><path stroke="#34983f" stroke-linecap="round" d="M74 501h127l126-1h127l127 2" fill="none" stroke-width="1.5"/><g fill="#34983f"><circle cx="74" cy="501" r="2"/><circle cx="201" cy="501" r="2"/><circle cx="327" cy="500" r="2"/><circle cx="454" cy="500" r="2"/><circle cx="581" cy="502" r="2"/></g></g><g class="key-France_0"><path stroke="#a652ba" stroke-linecap="round" d="M74 415l127 12 126 7 127-11 127 34" fill="none" stroke-width="1.5"/><g fill="#a652ba"><circle cx="74" cy="415" r="2"/><circle cx="201" cy="427" r="2"/><circle cx="327" cy="434" r="2"/><circle cx="454" cy="423" r="2"/><circle cx="581" cy="457" r="2"/></g></g><g class="key-Germany_0"><path stroke="#2a939b" stroke-linecap="round" d="M74 328l127 6 126 23 127 28 127 47" fill="none" stroke-width="1.5"/><g fill="#2a939b"><circle cx="74" cy="328" r="2"/><circle cx="201" cy="334" r="2"/><circle cx="327" cy="357" r="2"/><circle cx="454" cy="385" r="2"/><circle cx="581" cy="432" r="2"/></g></g><g class="key-Italy_0"><path stroke="#e6332e" stroke-linecap="round" d="M74 183l127 27 126 36 127-53 127 34" fill="none" stroke-width="1.5"/><g fill="#e6332e"><circle cx="74" cy="183" r="2"/><circle cx="201" cy="210" r="2"/><circle cx="327" cy="246" r="2"/><circle cx="454" cy="193" r="2"/><circle cx="581" cy="227" r="2"/></g></g><g class="key-Norway_0"><path stroke="#3360a9" stroke-linecap="round" d="M74 517h253l127 1h127" fill="none" stroke-width="1.5"/><g fill="#3360a9"><circle cx="74" cy="517" r="2"/><circle cx="201" cy="517" r="2"/><circle cx="327" cy="517" r="2"/><circle cx="454" cy="518" r="2"/><circle cx="581" cy="518" r="2"/></g></g><g class="key-Spain_0"><path stroke="#9ecc8a" stroke-linecap="round" d="M74 215l253 17 127-93 127 15" fill="none" stroke-width="1.5"/><g fill="#9ecc8a"><circle cx="74" cy="215" r="2"/><circle cx="327" cy="232" r="2"/><circle cx="454" cy="139" r="2"/><circle cx="581" cy="154" r="2"/></g></g><g class="key-Sweden_0"><path stroke="#ca2628" stroke-linecap="round" d="M74 508h127l126 1 127 1h127" fill="none" stroke-width="1.5"/><g fill="#ca2628"><circle cx="74" cy="508" r="2"/><circle cx="201" cy="508" r="2"/><circle cx="327" cy="509" r="2"/><circle cx="454" cy="510" r="2"/><circle cx="581" cy="510" r="2"/></g></g><g class="key-United-Kingdom_0"><path stroke="#f6a324" stroke-linecap="round" d="M74 474l127-13 126 3h127l127 5 126 11" fill="none" stroke-width="1.5"/><g fill="#f6a324"><circle cx="74" cy="474" r="2"/><circle cx="201" cy="461" r="2"/><circle cx="327" cy="464" r="2"/><circle cx="454" cy="464" r="2"/><circle cx="581" cy="469" r="2"/><circle cx="707" cy="480" r="2"/></g></g></g></g></g><g class="SourcesFooter" fill="#777"><g class="clickable" fill="#777"><text font-size="12.6" x="15" y="567"><tspan x="15" y="566.98">Source: European Medicines Agency, European Surveillance of Veterinary Antimicrobial Consumption (2017) &amp; Van Boeckel et al. (2015)</tspan></text></g><text font-size="12.6" x="15" y="582.5"><tspan x="15" y="582.48"><a target="_blank" href="https://ourworldindata.org/antibiotic-resistance-from-livestock" fill="#777">OurWorldInData.org/antibiotic-resistance-from-livestock</a> • <a href="http://creativecommons.org/licenses/by-sa/4.0/deed.en_US" target="_blank" fill="#777">CC BY-SA</a></tspan></text></g></g></svg>