<svg xmlns="http://www.w3.org/2000/svg" version="1.1" style="background-color:#fff;-webkit-font-smoothing:antialiased" width="850" height="600" font-family="'Helvetica Neue',Helvetica,Arial,sans-serif" font-size="18" text-rendering="optimizeLegibility"><g class="ChartTab"><g class="HeaderView"><g opacity=".8" transform="matrix(.27 0 0 .27 778 15)"><a xmlns:xlink="http://www.w3.org/1999/xlink" xlink:href="https://ourworldindata.org" target="_blank"><g><path fill="#1B2543" d="M0 0h211.2v130.1H0z"/><path fill="#E63912" d="M0 112.2h211.2v17.9H0z"/><g><path fill="none" d="M1.2 12.3h210.2v99.2H1.2z"/><path fill="#FFF" d="M37.8 32.2c0 12.7-7.7 19.4-17.1 19.4-9.7 0-16.6-7.5-16.6-18.7 0-11.7 7.3-19.3 17.1-19.3 10.1.1 16.6 7.7 16.6 18.6zm-28.6.6c0 7.9 4.3 14.9 11.8 14.9 7.5 0 11.8-6.9 11.8-15.3 0-7.3-3.8-14.9-11.8-14.9-7.9 0-11.8 7.3-11.8 15.3zM62.7 43.8c0 2.7.1 5.1.2 7.2h-4.3l-.3-4.3h-.1c-1.3 2.1-4 4.9-8.8 4.9-4.2 0-9.1-2.3-9.1-11.6V24.6h4.8v14.6c0 5 1.5 8.4 5.9 8.4 3.2 0 5.5-2.2 6.3-4.4.3-.7.4-1.6.4-2.5V24.6h4.8v19.2zM67.3 32.8c0-3.1-.1-5.8-.2-8.2h4.2l.2 5.2h.2c1.2-3.5 4.1-5.8 7.3-5.8.5 0 .9.1 1.4.2v4.5c-.5-.1-1-.2-1.6-.2-3.4 0-5.8 2.6-6.5 6.2-.1.7-.2 1.4-.2 2.2V51h-4.8V32.8zM95.4 51L86 14.2h5l4.4 18.6c1.1 4.6 2.1 9.2 2.7 12.7h.1c.6-3.7 1.8-8 3-12.8l4.9-18.5h5l4.5 18.7c1 4.4 2 8.7 2.6 12.6h.1c.8-4 1.8-8.1 3-12.7l4.9-18.5h4.9L120.6 51h-5L111 31.9c-1.1-4.7-1.9-8.3-2.4-12h-.1c-.7 3.7-1.5 7.3-2.8 12L100.4 51h-5zM154.9 37.6c0 9.8-6.8 14-13.2 14-7.2 0-12.7-5.2-12.7-13.6 0-8.8 5.8-14 13.1-14 7.7 0 12.8 5.5 12.8 13.6zm-21 .3c0 5.8 3.3 10.1 8 10.1 4.6 0 8-4.3 8-10.3 0-4.5-2.2-10.1-7.9-10.1s-8.1 5.2-8.1 10.3zM158.2 32.8c0-3.1-.1-5.8-.2-8.2h4.2l.2 5.2h.2c1.2-3.5 4.1-5.8 7.3-5.8.5 0 .9.1 1.4.2v4.5c-.5-.1-1-.2-1.6-.2-3.4 0-5.8 2.6-6.5 6.2-.1.7-.2 1.4-.2 2.2V51h-4.8V32.8zM173.5 12.3h4.8V51h-4.8V12.3zM206.5 12.3v31.9c0 2.3.1 5 .2 6.8h-4.3l-.2-4.6h-.2c-1.5 2.9-4.7 5.2-9 5.2-6.4 0-11.3-5.4-11.3-13.4-.1-8.8 5.4-14.2 11.9-14.2 4 0 6.8 1.9 8 4h.1V12.3h4.8zm-4.8 23.1c0-.6-.1-1.4-.2-2a7 7 0 00-6.9-5.6c-5 0-7.9 4.4-7.9 10.2 0 5.3 2.6 9.8 7.8 9.8 3.2 0 6.2-2.1 7.1-5.7.2-.7.2-1.3.2-2.1v-4.6zM42.8 64c.1 1.6-1.1 2.9-3.1 2.9-1.7 0-2.9-1.3-2.9-2.9 0-1.7 1.3-3 3-3 1.9 0 3 1.3 3 3zm-5.4 33.8V71.4h4.8v26.4h-4.8zM47.5 78.6c0-2.7-.1-5-.2-7.1h4.3l.3 4.4h.1c1.3-2.5 4.4-5 8.8-5 3.7 0 9.4 2.2 9.4 11.2v15.8h-4.8V82.6c0-4.3-1.6-7.8-6.1-7.8-3.2 0-5.6 2.2-6.5 4.9-.2.6-.3 1.4-.3 2.2v15.9h-4.8V78.6zM84 61.6c2.9-.4 6.3-.8 10.1-.8 6.8 0 11.7 1.6 14.9 4.6 3.3 3 5.2 7.3 5.2 13.2 0 6-1.9 10.9-5.3 14.3-3.4 3.4-9.1 5.3-16.3 5.3-3.4 0-6.2-.2-8.6-.4V61.6zm4.8 32.5c1.2.2 3 .3 4.8.3 10.2 0 15.7-5.7 15.7-15.6.1-8.7-4.9-14.2-14.9-14.2-2.5 0-4.3.2-5.6.5v29zM132.1 97.8l-.4-3.3h-.2a9.79 9.79 0 01-8.1 3.9c-5.4 0-8.1-3.8-8.1-7.6 0-6.4 5.7-9.9 15.9-9.8v-.5c0-2.2-.6-6.1-6-6.1-2.5 0-5 .8-6.9 2l-1.1-3.2c2.2-1.4 5.4-2.3 8.7-2.3 8.1 0 10.1 5.5 10.1 10.8v9.9c0 2.3.1 4.5.4 6.3h-4.3zm-.7-13.4c-5.3-.1-11.2.8-11.2 5.9 0 3.1 2.1 4.6 4.5 4.6 3.4 0 5.6-2.2 6.4-4.4.2-.5.3-1 .3-1.5v-4.6zM146.6 63.9v7.6h6.9v3.7h-6.9v14.2c0 3.3.9 5.1 3.6 5.1 1.3 0 2.2-.2 2.8-.3l.2 3.6c-.9.4-2.4.7-4.3.7-2.2 0-4-.7-5.2-2-1.4-1.4-1.9-3.8-1.9-6.9V75.1h-4.1v-3.7h4.1v-6.3l4.8-1.2zM171.4 97.8l-.4-3.3h-.2a9.79 9.79 0 01-8.1 3.9c-5.4 0-8.1-3.8-8.1-7.6 0-6.4 5.7-9.9 15.9-9.8v-.5c0-2.2-.6-6.1-6-6.1-2.5 0-5 .8-6.9 2l-1.1-3.2c2.2-1.4 5.4-2.3 8.7-2.3 8.1 0 10.1 5.5 10.1 10.8v9.9c0 2.3.1 4.5.4 6.3h-4.3zm-.7-13.4c-5.3-.1-11.2.8-11.2 5.9 0 3.1 2.1 4.6 4.5 4.6 3.4 0 5.6-2.2 6.4-4.4.2-.5.3-1 .3-1.5v-4.6z"/></g></g></a></g><a href="https://ourworldindata.org/grapher/birth-rate-vs-death-rate" target="_blank"><text font-size="25.2" x="15" y="35.2" fill="#555"><tspan x="15" y="35.16">Birth rate vs Death rate, 2016</tspan></text></a><text font-size="14.4" x="15" y="53.7" fill="#666"><tspan x="15" y="53.72">Both the birth and death rate are given per 1,000 people of the country&apos;s population.</tspan></text></g><g><g class="AxisBoxView"><g class="HorizontalAxis"><text font-size="12.6" x="316.4" y="554"><tspan x="316.43" y="553.98">Deaths per 1,000</tspan></text><text x="83.4" y="533.9" fill="#666" text-anchor="middle" font-size="16.2">2</text><text x="179.8" y="533.9" fill="#666" text-anchor="middle" font-size="16.2">4</text><text x="276.2" y="533.9" fill="#666" text-anchor="middle" font-size="16.2">6</text><text x="372.7" y="533.9" fill="#666" text-anchor="middle" font-size="16.2">8</text><text x="469.1" y="533.9" fill="#666" text-anchor="middle" font-size="16.2">10</text><text x="565.5" y="533.9" fill="#666" text-anchor="middle" font-size="16.2">12</text><text x="662" y="533.9" fill="#666" text-anchor="middle" font-size="16.2">14</text></g><g class="VerticalAxis"><text font-size="12.6" x="-361.2" y="25.1" transform="rotate(-90)"><tspan x="-361.22" y="25.08">Births per 1,000</tspan></text><text x="55.74" y="512.7" fill="#666" dominant-baseline="middle" text-anchor="end" font-size="16.2">0</text><text x="55.74" y="422.1" fill="#666" dominant-baseline="middle" text-anchor="end" font-size="16.2">10</text><text x="55.74" y="331.5" fill="#666" dominant-baseline="middle" text-anchor="end" font-size="16.2">20</text><text x="55.74" y="240.9" fill="#666" dominant-baseline="middle" text-anchor="end" font-size="16.2">30</text><text x="55.74" y="150.3" fill="#666" dominant-baseline="middle" text-anchor="end" font-size="16.2">40</text></g><g class="AxisGridLines"><path stroke="#ccc" d="M60.74 512.7H715"/><path stroke="#ddd" stroke-dasharray="3,2" d="M60.74 422.1H715M60.74 331.5H715M60.74 240.9H715M60.74 150.3H715"/></g><g class="AxisGridLines" stroke="#ddd" stroke-dasharray="3,2"><path d="M83.4 512.7V76.6M179.8 512.7V76.6M276.2 512.7V76.6M372.7 512.7V76.6M469.1 512.7V76.6M565.5 512.7V76.6M662 512.7V76.6"/></g></g><g clip-path="url(#a)" font-family="Arial Narrow, Arial, sans-serif" class="PointsWithLabels clickable"><path fill="rgba(255,255,255,0)" d="M60.74 76.6H715v436.1H60.74z"/><defs><clipPath id="a"><path d="M50.74 66.6H725v456.1H50.74z"/></clipPath></defs><g class="key-China_0"><circle cx="338" cy="404" r="17.84" fill="#d14e5b" opacity=".8" stroke="#333" stroke-width=".7"/></g><g class="key-India_0"><circle cx="339" cy="340" r="17.29" fill="#d14e5b" opacity=".8" stroke="#333" stroke-width=".7"/></g><g class="key-United-States_0"><circle cx="391" cy="400" r="8.78" fill="#4d824b" opacity=".8" stroke="#333" stroke-width=".7"/></g><g class="key-Indonesia_0"><circle cx="330" cy="340" r="7.78" fill="#d14e5b" opacity=".8" stroke="#fff" stroke-width=".7"/></g><g class="key-Brazil_0"><circle cx="284" cy="384" r="7.04" fill="#69c487" opacity=".8" stroke="#333" stroke-width=".7"/></g><g class="key-Pakistan_0"><circle cx="338" cy="256" r="6.76" fill="#d14e5b" opacity=".8" stroke="#333" stroke-width=".7"/></g><g class="key-Nigeria_0"><circle cx="587" cy="160" r="6.54" fill="#5675c1" opacity=".8" stroke="#333" stroke-width=".7"/></g><g class="key-Bangladesh_0"><circle cx="241" cy="341" r="6.24" fill="#d14e5b" opacity=".8" stroke="#333" stroke-width=".7"/></g><g class="key-Russia_0"><circle cx="608" cy="395" r="6.02" fill="#ffd336" opacity=".8" stroke="#333" stroke-width=".7"/></g><g class="key-Japan_0"><circle cx="493" cy="442" r="5.7" fill="#d14e5b" opacity=".8" stroke="#333" stroke-width=".7"/></g><g class="key-Mexico_0"><circle cx="220" cy="348" r="5.51" fill="#4d824b" opacity=".8" stroke="#fff" stroke-width=".7"/></g><g class="key-Philippines_0"><circle cx="301" cy="302" r="5.09" fill="#d14e5b" opacity=".8" stroke="#333" stroke-width=".7"/></g><g class="key-Vietnam_0"><circle cx="267" cy="361" r="4.92" fill="#d14e5b" opacity=".8" stroke="#333" stroke-width=".7"/></g><g class="key-Ethiopia_0"><circle cx="316" cy="224" r="4.86" fill="#5675c1" opacity=".8" stroke="#333" stroke-width=".7"/></g><g class="key-Egypt_0"><circle cx="271" cy="272" r="4.79" fill="#5675c1" opacity=".8" stroke="#333" stroke-width=".7"/></g><g class="key-Germany_0"><circle cx="527" cy="428" r="4.71" fill="#ffd336" opacity=".8" stroke="#333" stroke-width=".7"/></g><g class="key-Iran_0"><circle cx="204" cy="362" r="4.57" fill="#d14e5b" opacity=".8" stroke="#333" stroke-width=".7"/></g><g class="key-Turkey_0"><circle cx="267" cy="365" r="4.54" fill="#d14e5b" opacity=".8" stroke="#fff" stroke-width=".7"/></g><g class="key-Democratic-Republic-of-Congo_0"><circle cx="465" cy="129" r="4.44" fill="#5675c1" opacity=".8" stroke="#333" stroke-width=".7"/></g><g class="key-Thailand_0"><circle cx="366" cy="419" r="4.41" fill="#d14e5b" opacity=".8" stroke="#333" stroke-width=".7"/></g><g class="key-France_0"><circle cx="411" cy="406" r="4.24" fill="#ffd336" opacity=".8" stroke="#fff" stroke-width=".7"/></g><g class="key-United-Kingdom_0"><circle cx="425" cy="405" r="4.22" fill="#ffd336" opacity=".8" stroke="#fff" stroke-width=".7"/></g><g class="key-Italy_0"><circle cx="473" cy="442" r="4.16" fill="#ffd336" opacity=".8" stroke="#fff" stroke-width=".7"/></g><g class="key-South-Africa_0"><circle cx="459" cy="322" r="3.87" fill="#5675c1" opacity=".8" stroke="#333" stroke-width=".7"/></g><g class="key-Tanzania_0"><circle cx="311" cy="166" r="3.82" fill="#5675c1" opacity=".8" stroke="#333" stroke-width=".7"/></g><g class="key-Myanmar_0"><circle cx="379" cy="351" r="3.82" fill="#d14e5b" opacity=".8" stroke="#333" stroke-width=".7"/></g><g class="key-South-Korea_0"><circle cx="252" cy="441" r="3.81" fill="#d14e5b" opacity=".8" stroke="#333" stroke-width=".7"/></g><g class="key-Colombia_0"><circle cx="276" cy="375" r="3.79" fill="#69c487" opacity=".8" stroke="#fff" stroke-width=".7"/></g><g class="key-Spain_0"><circle cx="411" cy="433" r="3.75" fill="#ffd336" opacity=".8" stroke="#333" stroke-width=".7"/></g><g class="key-Ukraine_0"><circle cx="695" cy="419" r="3.68" fill="#ffd336" opacity=".8" stroke="#333" stroke-width=".7"/></g><g class="key-Kenya_0"><circle cx="263" cy="229" r="3.66" fill="#5675c1" opacity=".8" stroke="#333" stroke-width=".7"/></g><g class="key-Argentina_0"><circle cx="351" cy="357" r="3.58" fill="#69c487" opacity=".8" stroke="#fff" stroke-width=".7"/></g><g class="key-Poland_0"><circle cx="478" cy="421" r="3.47" fill="#ffd336" opacity=".8" stroke="#333" stroke-width=".7"/></g><g class="key-Algeria_0"><circle cx="216" cy="303" r="3.43" fill="#5675c1" opacity=".8" stroke="#333" stroke-width=".7"/></g><g class="key-Uganda_0"><circle cx="406" cy="130" r="3.42" fill="#5675c1" opacity=".8" stroke="#333" stroke-width=".7"/></g><g class="key-Sudan_0"><circle cx="345" cy="214" r="3.39" fill="#5675c1" opacity=".8" stroke="#fff" stroke-width=".7"/></g><g class="key-Canada_0"><circle cx="348" cy="414" r="3.36" fill="#4d824b" opacity=".8" stroke="#fff" stroke-width=".7"/></g><g class="key-Iraq_0"><circle cx="229" cy="211" r="3.35" fill="#d14e5b" opacity=".8" stroke="#333" stroke-width=".7"/></g><g class="key-Afghanistan_0"><circle cx="312" cy="211" r="3.34" fill="#d14e5b" opacity=".8" stroke="#333" stroke-width=".7"/></g><g class="key-Morocco_0"><circle cx="234" cy="331" r="3.29" fill="#5675c1" opacity=".8" stroke="#fff" stroke-width=".7"/></g><g class="key-Nepal_0"><circle cx="289" cy="334" r="3.24" fill="#d14e5b" opacity=".8" stroke="#fff" stroke-width=".7"/></g><g class="key-Venezuela_0"><circle cx="257" cy="340" r="3.2" fill="#69c487" opacity=".8" stroke="#fff" stroke-width=".7"/></g><g class="key-Peru_0"><circle cx="259" cy="338" r="3.19" fill="#69c487" opacity=".8" stroke="#fff" stroke-width=".7"/></g><g class="key-Malaysia_0"><circle cx="224" cy="358" r="3.18" fill="#d14e5b" opacity=".8" stroke="#fff" stroke-width=".7"/></g><g class="key-Saudi-Arabia_0"><circle cx="158" cy="335" r="3.16" fill="#d14e5b" opacity=".8" stroke="#333" stroke-width=".7"/></g><g class="key-Uzbekistan_0"><circle cx="223" cy="306" r="3.12" fill="#d14e5b" opacity=".8" stroke="#fff" stroke-width=".7"/></g><g class="key-Ghana_0"><circle cx="379" cy="231" r="3.04" fill="#5675c1" opacity=".8" stroke="#333" stroke-width=".7"/></g><g class="key-Mozambique_0"><circle cx="473" cy="159" r="3" fill="#5675c1" opacity=".8" stroke="#333" stroke-width=".7"/></g><g class="key-North-Korea_0"><circle cx="413" cy="387" r="2.98" fill="#d14e5b" opacity=".8" stroke="#fff" stroke-width=".7"/></g><g class="key-Australia_0"><circle cx="300" cy="399" r="2.93" fill="#a652ba" opacity=".8" stroke="#fff" stroke-width=".7"/></g><g class="key-Madagascar_0"><circle cx="292" cy="212" r="2.9" fill="#5675c1" opacity=".8" stroke="#fff" stroke-width=".7"/></g><g class="key-Sri-Lanka_0"><circle cx="319" cy="374" r="2.85" fill="#d14e5b" opacity=".8" stroke="#333" stroke-width=".7"/></g><g class="key-Romania_0"><circle cx="613" cy="425" r="2.85" fill="#ffd336" opacity=".8" stroke="#fff" stroke-width=".7"/></g><g class="key-Cote-d__0027Ivoire_0"><circle cx="576" cy="179" r="2.84" fill="#5675c1" opacity=".8" stroke="#333" stroke-width=".7"/></g><g class="key-Cameroon_0"><circle cx="472" cy="183" r="2.83" fill="#5675c1" opacity=".8" stroke="#333" stroke-width=".7"/></g><g class="key-Angola_0"><circle cx="397" cy="133" r="2.83" fill="#5675c1" opacity=".8" stroke="#fff" stroke-width=".7"/></g><g class="key-Burkina-Faso_0"><circle cx="400" cy="160" r="2.71" fill="#5675c1" opacity=".8" stroke="#333" stroke-width=".7"/></g><g class="key-Chile_0"><circle cx="281" cy="392" r="2.69" fill="#69c487" opacity=".8" stroke="#333" stroke-width=".7"/></g><g class="key-Niger_0"><circle cx="454" cy="76" r="2.68" fill="#5675c1" opacity=".8" stroke="#333" stroke-width=".7"/></g><g class="key-Mali_0"><circle cx="484" cy="126" r="2.66" fill="#5675c1" opacity=".8" stroke="#fff" stroke-width=".7"/></g><g class="key-Netherlands_0"><circle cx="406" cy="421" r="2.66" fill="#ffd336" opacity=".8" stroke="#fff" stroke-width=".7"/></g><g class="key-Kazakhstan_0"><circle cx="342" cy="308" r="2.65" fill="#d14e5b" opacity=".8" stroke="#fff" stroke-width=".7"/></g><g class="key-Malawi_0"><circle cx="337" cy="180" r="2.64" fill="#5675c1" opacity=".8" stroke="#333" stroke-width=".7"/></g><g class="key-Guatemala_0"><circle cx="220" cy="283" r="2.6" fill="#4d824b" opacity=".8" stroke="#333" stroke-width=".7"/></g><g class="key-Ecuador_0"><circle cx="233" cy="329" r="2.58" fill="#69c487" opacity=".8" stroke="#fff" stroke-width=".7"/></g><g class="key-Cambodia_0"><circle cx="278" cy="301" r="2.56" fill="#d14e5b" opacity=".8" stroke="#fff" stroke-width=".7"/></g><g class="key-Zambia_0"><circle cx="362" cy="167" r="2.55" fill="#5675c1" opacity=".8" stroke="#333" stroke-width=".7"/></g><g class="key-Senegal_0"><circle cx="271" cy="190" r="2.51" fill="#5675c1" opacity=".8" stroke="#333" stroke-width=".7"/></g><g class="key-Zimbabwe_0"><circle cx="376" cy="212" r="2.5" fill="#5675c1" opacity=".8" stroke="#333" stroke-width=".7"/></g><g class="key-Chad_0"><circle cx="611" cy="120" r="2.45" fill="#5675c1" opacity=".8" stroke="#fff" stroke-width=".7"/></g><g class="key-Rwanda_0"><circle cx="274" cy="230" r="2.42" fill="#5675c1" opacity=".8" stroke="#fff" stroke-width=".7"/></g><g class="key-Greece_0"><circle cx="517" cy="434" r="2.42" fill="#ffd336" opacity=".8" stroke="#fff" stroke-width=".7"/></g><g class="key-Cuba_0"><circle cx="372" cy="414" r="2.41" fill="#4d824b" opacity=".8" stroke="#fff" stroke-width=".7"/></g><g class="key-South-Sudan_0"><circle cx="516" cy="187" r="2.39" fill="#5675c1" opacity=".8" stroke="#fff" stroke-width=".7"/></g><g class="key-Belgium_0"><circle cx="445" cy="414" r="2.38" fill="#ffd336" opacity=".8" stroke="#fff" stroke-width=".7"/></g><g class="key-Tunisia_0"><circle cx="292" cy="347" r="2.38" fill="#5675c1" opacity=".8" stroke="#fff" stroke-width=".7"/></g><g class="key-Guinea_0"><circle cx="433" cy="187" r="2.38" fill="#5675c1" opacity=".8" stroke="#333" stroke-width=".7"/></g><g class="key-Portugal_0"><circle cx="502" cy="436" r="2.38" fill="#ffd336" opacity=".8" stroke="#fff" stroke-width=".7"/></g><g class="key-Czech-Republic_0"><circle cx="478" cy="415" r="2.37" fill="#ffd336" opacity=".8" stroke="#fff" stroke-width=".7"/></g><g class="key-Bolivia_0"><circle cx="338" cy="302" r="2.36" fill="#69c487" opacity=".8" stroke="#fff" stroke-width=".7"/></g><g class="key-Haiti_0"><circle cx="401" cy="293" r="2.36" fill="#4d824b" opacity=".8" stroke="#333" stroke-width=".7"/></g><g class="key-Dominican-Republic_0"><circle cx="281" cy="330" r="2.36" fill="#4d824b" opacity=".8" stroke="#fff" stroke-width=".7"/></g><g class="key-Somalia_0"><circle cx="535" cy="119" r="2.35" fill="#5675c1" opacity=".8" stroke="#fff" stroke-width=".7"/></g><g class="key-Hungary_0"><circle cx="613" cy="424" r="2.34" fill="#ffd336" opacity=".8" stroke="#333" stroke-width=".7"/></g><g class="key-Serbia_0"><circle cx="676" cy="429" r="2.34" fill="#ffd336" opacity=".8" stroke="#333" stroke-width=".7"/></g><g class="key-Benin_0"><circle cx="429" cy="177" r="2.33" fill="#5675c1" opacity=".8" stroke="#fff" stroke-width=".7"/></g><g class="key-Sweden_0"><circle cx="430" cy="405" r="2.32" fill="#ffd336" opacity=".8" stroke="#333" stroke-width=".7"/></g><g class="key-Azerbaijan_0"><circle cx="266" cy="365" r="2.32" fill="#d14e5b" opacity=".8" stroke="#fff" stroke-width=".7"/></g><g class="key-Belarus_0"><circle cx="594" cy="400" r="2.32" fill="#ffd336" opacity=".8" stroke="#fff" stroke-width=".7"/></g><g class="key-Burundi_0"><circle cx="507" cy="129" r="2.29" fill="#5675c1" opacity=".8" stroke="#fff" stroke-width=".7"/></g><g class="key-Austria_0"><circle cx="430" cy="422" r="2.27" fill="#ffd336" opacity=".8" stroke="#fff" stroke-width=".7"/></g><g class="key-United-Arab-Emirates_0"><circle cx="63" cy="425" r="2.25" fill="#d14e5b" opacity=".8" stroke="#333" stroke-width=".7"/></g><g class="key-Honduras_0"><circle cx="218" cy="316" r="2.25" fill="#4d824b" opacity=".8" stroke="#333" stroke-width=".7"/></g><g class="key-Israel_0"><circle cx="232" cy="320" r="2.23" fill="#d14e5b" opacity=".8" stroke="#fff" stroke-width=".7"/></g><g class="key-Switzerland_0"><circle cx="363" cy="417" r="2.23" fill="#ffd336" opacity=".8" stroke="#fff" stroke-width=".7"/></g><g class="key-Bulgaria_0"><circle cx="715" cy="430" r="2.21" fill="#ffd336" opacity=".8" stroke="#fff" stroke-width=".7"/></g><g class="key-Papua-New-Guinea_0"><circle cx="329" cy="262" r="2.21" fill="#a652ba" opacity=".8" stroke="#fff" stroke-width=".7"/></g><g class="key-Hong-Kong_0"><circle cx="295" cy="437" r="2.21" fill="#d14e5b" opacity=".8" stroke="#fff" stroke-width=".7"/></g><g class="key-Tajikistan_0"><circle cx="235" cy="251" r="2.2" fill="#d14e5b" opacity=".8" stroke="#333" stroke-width=".7"/></g><g class="key-Paraguay_0"><circle cx="263" cy="322" r="2.18" fill="#69c487" opacity=".8" stroke="#fff" stroke-width=".7"/></g><g class="key-Jordan_0"><circle cx="171" cy="272" r="2.17" fill="#d14e5b" opacity=".8" stroke="#333" stroke-width=".7"/></g><g class="key-Libya_0"><circle cx="238" cy="334" r="2.17" fill="#5675c1" opacity=".8" stroke="#fff" stroke-width=".7"/></g><g class="key-Laos_0"><circle cx="308" cy="296" r="2.16" fill="#d14e5b" opacity=".8" stroke="#fff" stroke-width=".7"/></g><g class="key-Togo_0"><circle cx="405" cy="204" r="2.16" fill="#5675c1" opacity=".8" stroke="#fff" stroke-width=".7"/></g><g class="key-El-Salvador_0"><circle cx="311" cy="344" r="2.15" fill="#4d824b" opacity=".8" stroke="#333" stroke-width=".7"/></g><g class="key-Sierra-Leone_0"><circle cx="601" cy="195" r="2.15" fill="#5675c1" opacity=".8" stroke="#333" stroke-width=".7"/></g><g class="key-Nicaragua_0"><circle cx="217" cy="335" r="2.14" fill="#4d824b" opacity=".8" stroke="#fff" stroke-width=".7"/></g><g class="key-Eritrea_0"><circle cx="317" cy="221" r="2.12" fill="#5675c1" opacity=".8" stroke="#fff" stroke-width=".7"/></g><g class="key-Denmark_0"><circle cx="430" cy="414" r="2.12" fill="#ffd336" opacity=".8" stroke="#fff" stroke-width=".7"/></g><g class="key-Kyrgyzstan_0"><circle cx="252" cy="277" r="2.11" fill="#d14e5b" opacity=".8" stroke="#fff" stroke-width=".7"/></g><g class="key-Slovakia_0"><circle cx="449" cy="416" r="2.11" fill="#ffd336" opacity=".8" stroke="#fff" stroke-width=".7"/></g><g class="key-Finland_0"><circle cx="459" cy="425" r="2.11" fill="#ffd336" opacity=".8" stroke="#fff" stroke-width=".7"/></g><g class="key-Singapore_0"><circle cx="218" cy="427" r="2.1" fill="#d14e5b" opacity=".8" stroke="#333" stroke-width=".7"/></g><g class="key-Turkmenistan_0"><circle cx="328" cy="282" r="2.1" fill="#d14e5b" opacity=".8" stroke="#333" stroke-width=".7"/></g><g class="key-Norway_0"><circle cx="363" cy="411" r="2.08" fill="#ffd336" opacity=".8" stroke="#fff" stroke-width=".7"/></g><g class="key-Costa-Rica_0"><circle cx="225" cy="383" r="2.08" fill="#4d824b" opacity=".8" stroke="#333" stroke-width=".7"/></g><g class="key-Central-African-Republic_0"><circle cx="639" cy="189" r="2.06" fill="#5675c1" opacity=".8" stroke="#fff" stroke-width=".7"/></g><g class="key-Ireland_0"><circle cx="295" cy="390" r="2.06" fill="#ffd336" opacity=".8" stroke="#fff" stroke-width=".7"/></g><g class="key-New-Zealand_0"><circle cx="307" cy="398" r="2.06" fill="#a652ba" opacity=".8" stroke="#fff" stroke-width=".7"/></g><g class="key-Croatia_0"><circle cx="580" cy="431" r="2.05" fill="#ffd336" opacity=".8" stroke="#fff" stroke-width=".7"/></g><g class="key-Liberia_0"><circle cx="367" cy="201" r="2.05" fill="#5675c1" opacity=".8" stroke="#fff" stroke-width=".7"/></g><g class="key-Congo_0"><circle cx="340" cy="199" r="2.05" fill="#5675c1" opacity=".8" stroke="#fff" stroke-width=".7"/></g><g class="key-Lebanon_0"><circle cx="209" cy="372" r="2.05" fill="#d14e5b" opacity=".8" stroke="#fff" stroke-width=".7"/></g><g class="key-Georgia_0"><circle cx="624" cy="390" r="2.04" fill="#d14e5b" opacity=".8" stroke="#fff" stroke-width=".7"/></g><g class="key-Puerto-Rico_0"><circle cx="377" cy="431" r="2.01" fill="#4d824b" opacity=".8" stroke="#fff" stroke-width=".7"/></g><g class="key-Bosnia-and-Herzegovina_0"><circle cx="519" cy="429" r="2.01" fill="#ffd336" opacity=".8" stroke="#fff" stroke-width=".7"/></g><g class="key-Mauritania_0"><circle cx="366" cy="203" r="2.01" fill="#5675c1" opacity=".8" stroke="#fff" stroke-width=".7"/></g><g class="key-Panama_0"><circle cx="228" cy="335" r="2.01" fill="#4d824b" opacity=".8" stroke="#fff" stroke-width=".7"/></g><g class="key-Moldova_0"><circle cx="540" cy="419" r="2" fill="#ffd336" opacity=".8" stroke="#fff" stroke-width=".7"/></g><g class="key-Uruguay_0"><circle cx="438" cy="385" r="1.99" fill="#69c487" opacity=".8" stroke="#fff" stroke-width=".7"/></g><g class="key-Lithuania_0"><circle cx="676" cy="415" r="1.98" fill="#ffd336" opacity=".8" stroke="#fff" stroke-width=".7"/></g><g class="key-Albania_0"><circle cx="342" cy="405" r="1.98" fill="#ffd336" opacity=".8" stroke="#333" stroke-width=".7"/></g><g class="key-Armenia_0"><circle cx="454" cy="390" r="1.98" fill="#d14e5b" opacity=".8" stroke="#fff" stroke-width=".7"/></g><g class="key-Kuwait_0"><circle cx="119" cy="364" r="1.97" fill="#d14e5b" opacity=".8" stroke="#333" stroke-width=".7"/></g><g class="key-Oman_0"><circle cx="109" cy="343" r="1.97" fill="#d14e5b" opacity=".8" stroke="#333" stroke-width=".7"/></g><g class="key-Mongolia_0"><circle cx="291" cy="295" r="1.96" fill="#d14e5b" opacity=".8" stroke="#fff" stroke-width=".7"/></g><g class="key-Jamaica_0"><circle cx="323" cy="362" r="1.96" fill="#4d824b" opacity=".8" stroke="#333" stroke-width=".7"/></g><g class="key-Namibia_0"><circle cx="335" cy="248" r="1.93" fill="#5675c1" opacity=".8" stroke="#fff" stroke-width=".7"/></g><g class="key-Lesotho_0"><circle cx="599" cy="260" r="1.92" fill="#5675c1" opacity=".8" stroke="#333" stroke-width=".7"/></g><g class="key-Latvia_0"><circle cx="690" cy="411" r="1.92" fill="#ffd336" opacity=".8" stroke="#fff" stroke-width=".7"/></g><g class="key-Botswana_0"><circle cx="309" cy="298" r="1.91" fill="#5675c1" opacity=".8" stroke="#fff" stroke-width=".7"/></g><g class="key-Macedonia_0"><circle cx="459" cy="410" r="1.91" fill="#ffd336" opacity=".8" stroke="#fff" stroke-width=".7"/></g><g class="key-Slovenia_0"><circle cx="445" cy="423" r="1.91" fill="#ffd336" opacity=".8" stroke="#fff" stroke-width=".7"/></g><g class="key-Qatar_0"><circle cx="60" cy="420" r="1.91" fill="#d14e5b" opacity=".8" stroke="#fff" stroke-width=".7"/></g><g class="key-Gambia_0"><circle cx="375" cy="155" r="1.9" fill="#5675c1" opacity=".8" stroke="#fff" stroke-width=".7"/></g><g class="key-Guinea__002dBissau_0"><circle cx="495" cy="181" r="1.89" fill="#5675c1" opacity=".8" stroke="#fff" stroke-width=".7"/></g><g class="key-Gabon_0"><circle cx="354" cy="245" r="1.88" fill="#5675c1" opacity=".8" stroke="#fff" stroke-width=".7"/></g><g class="key-Bahrain_0"><circle cx="100" cy="379" r="1.87" fill="#d14e5b" opacity=".8" stroke="#333" stroke-width=".7"/></g><g class="key-Trinidad-and-Tobago_0"><circle cx="450" cy="389" r="1.87" fill="#4d824b" opacity=".8" stroke="#fff" stroke-width=".7"/></g><g class="key-Estonia_0"><circle cx="551" cy="415" r="1.87" fill="#ffd336" opacity=".8" stroke="#fff" stroke-width=".7"/></g><g class="key-Mauritius_0"><circle cx="377" cy="418" r="1.87" fill="#5675c1" opacity=".8" stroke="#fff" stroke-width=".7"/></g><g class="key-Eswatini_0"><circle cx="449" cy="251" r="1.86" fill="#5675c1" opacity=".8" stroke="#333" stroke-width=".7"/></g><g class="key-Cyprus_0"><circle cx="319" cy="414" r="1.86" fill="#ffd336" opacity=".8" stroke="#fff" stroke-width=".7"/></g><g class="key-Djibouti_0"><circle cx="389" cy="304" r="1.84" fill="#5675c1" opacity=".8" stroke="#333" stroke-width=".7"/></g><g class="key-Fiji_0"><circle cx="328" cy="337" r="1.84" fill="#a652ba" opacity=".8" stroke="#fff" stroke-width=".7"/></g><g class="key-Comoros_0"><circle cx="343" cy="215" r="1.83" fill="#5675c1" opacity=".8" stroke="#fff" stroke-width=".7"/></g><g class="key-Bhutan_0"><circle cx="277" cy="348" r="1.83" fill="#d14e5b" opacity=".8" stroke="#fff" stroke-width=".7"/></g><g class="key-Equatorial-Guinea_0"><circle cx="478" cy="203" r="1.83" fill="#5675c1" opacity=".8" stroke="#333" stroke-width=".7"/></g><g class="key-Guyana_0"><circle cx="382" cy="326" r="1.83" fill="#69c487" opacity=".8" stroke="#333" stroke-width=".7"/></g><g class="key-Montenegro_0"><circle cx="462" cy="409" r="1.82" fill="#ffd336" opacity=".8" stroke="#fff" stroke-width=".7"/></g><g class="key-Solomon-Islands_0"><circle cx="217" cy="252" r="1.82" fill="#a652ba" opacity=".8" stroke="#fff" stroke-width=".7"/></g><g class="key-Macao_0"><circle cx="170" cy="402" r="1.82" fill="#d14e5b" opacity=".8" stroke="#333" stroke-width=".7"/></g><g class="key-Suriname_0"><circle cx="339" cy="347" r="1.82" fill="#69c487" opacity=".8" stroke="#fff" stroke-width=".7"/></g><g class="key-Luxembourg_0"><circle cx="314" cy="418" r="1.82" fill="#ffd336" opacity=".8" stroke="#fff" stroke-width=".7"/></g><g class="key-Cape-Verde_0"><circle cx="253" cy="323" r="1.82" fill="#5675c1" opacity=".8" stroke="#fff" stroke-width=".7"/></g><g class="key-Malta_0"><circle cx="353" cy="420" r="1.81" fill="#ffd336" opacity=".8" stroke="#fff" stroke-width=".7"/></g><g class="key-Brunei_0"><circle cx="159" cy="368" r="1.81" fill="#d14e5b" opacity=".8" stroke="#333" stroke-width=".7"/></g><g class="key-Bahamas_0"><circle cx="293" cy="383" r="1.81" fill="#4d824b" opacity=".8" stroke="#fff" stroke-width=".7"/></g><g class="key-Iceland_0"><circle cx="319" cy="404" r="1.8" fill="#ffd336" opacity=".8" stroke="#fff" stroke-width=".7"/></g><g class="key-Belize_0"><circle cx="251" cy="308" r="1.8" fill="#4d824b" opacity=".8" stroke="#fff" stroke-width=".7"/></g><g class="key-Maldives_0"><circle cx="147" cy="347" r="1.8" fill="#d14e5b" opacity=".8" stroke="#333" stroke-width=".7"/></g><g class="key-French-Polynesia_0"><circle cx="249" cy="373" r="1.8" fill="#a652ba" opacity=".8" stroke="#fff" stroke-width=".7"/></g><g class="key-Barbados_0"><circle cx="505" cy="404" r="1.8" fill="#4d824b" opacity=".8" stroke="#333" stroke-width=".7"/></g><g class="key-New-Caledonia_0"><circle cx="261" cy="373" r="1.8" fill="#a652ba" opacity=".8" stroke="#fff" stroke-width=".7"/></g><g class="key-Vanuatu_0"><circle cx="217" cy="278" r="1.8" fill="#a652ba" opacity=".8" stroke="#fff" stroke-width=".7"/></g><g class="key-Guam_0"><circle cx="231" cy="360" r="1.8" fill="#a652ba" opacity=".8" stroke="#333" stroke-width=".7"/></g><g class="key-Samoa_0"><circle cx="226" cy="289" r="1.8" fill="#a652ba" opacity=".8" stroke="#fff" stroke-width=".7"/></g><g class="key-Saint-Lucia_0"><circle cx="348" cy="403" r="1.79" fill="#4d824b" opacity=".8" stroke="#fff" stroke-width=".7"/></g><g class="key-Sao-Tome-and-Principe_0"><circle cx="309" cy="206" r="1.79" fill="#5675c1" opacity=".8" stroke="#fff" stroke-width=".7"/></g><g class="key-Saint-Vincent-and-the-Grenadines_0"><circle cx="333" cy="372" r="1.79" fill="#4d824b" opacity=".8" stroke="#fff" stroke-width=".7"/></g><g class="key-Aruba_0"><circle cx="409" cy="413" r="1.79" fill="#4d824b" opacity=".8" stroke="#fff" stroke-width=".7"/></g><g class="key-Grenada_0"><circle cx="329" cy="343" r="1.79" fill="#4d824b" opacity=".8" stroke="#fff" stroke-width=".7"/></g><g class="key-Tonga_0"><circle cx="275" cy="295" r="1.79" fill="#a652ba" opacity=".8" stroke="#fff" stroke-width=".7"/></g><g class="key-Kiribati_0"><circle cx="323" cy="257" r="1.79" fill="#a652ba" opacity=".8" stroke="#fff" stroke-width=".7"/></g><g class="key-Antigua-and-Barbuda_0"><circle cx="266" cy="365" r="1.79" fill="#4d824b" opacity=".8" stroke="#fff" stroke-width=".7"/></g><g class="key-Andorra_0"><circle cx="194" cy="433" r="1.79" fill="#ffd336" opacity=".8" stroke="#fff" stroke-width=".7"/></g><g class="key-Seychelles_0"><circle cx="367" cy="355" r="1.79" fill="#5675c1" opacity=".8" stroke="#fff" stroke-width=".7"/></g><g class="key-American-Samoa_0"><circle cx="189" cy="354" r="1.79" fill="#a652ba" opacity=".8" stroke="#fff" stroke-width=".7"/></g><g class="key-Dominica_0"><circle cx="382" cy="404" r="1.79" fill="#4d824b" opacity=".8" stroke="#fff" stroke-width=".7"/></g><g class="key-Bermuda_0"><circle cx="372" cy="425" r="1.79" fill="#4d824b" opacity=".8" stroke="#fff" stroke-width=".7"/></g><g class="key-Cayman-Islands_0"><circle cx="121" cy="415" r="1.79" fill="#4d824b" opacity=".8" stroke="#fff" stroke-width=".7"/></g><g class="key-Greenland_0"><circle cx="406" cy="378" r="1.79" fill="#4d824b" opacity=".8" stroke="#333" stroke-width=".7"/></g><g class="key-Marshall-Islands_0"><circle cx="165" cy="229" r="1.79" fill="#a652ba" opacity=".8" stroke="#333" stroke-width=".7"/></g><g class="key-Faeroe-Islands_0"><circle cx="353" cy="389" r="1.79" fill="#ffd336" opacity=".8" stroke="#fff" stroke-width=".7"/></g><g class="key-Liechtenstein_0"><circle cx="334" cy="422" r="1.79" fill="#ffd336" opacity=".8" stroke="#fff" stroke-width=".7"/></g><g class="key-Monaco_0"><circle cx="367" cy="442" r="1.79" fill="#ffd336" opacity=".8" stroke="#333" stroke-width=".7"/></g><g class="key-San-Marino_0"><circle cx="353" cy="441" r="1.79" fill="#ffd336" opacity=".8" stroke="#fff" stroke-width=".7"/></g><g class="key-Palau_0"><circle cx="469" cy="404" r="1.78" fill="#a652ba" opacity=".8" stroke="#fff" stroke-width=".7"/></g><g class="key-Micronesia-__0028country__0029_0"><circle cx="286" cy="297" r="1.78" fill="#a652ba" opacity=".8" stroke="#fff" stroke-width=".7"/></g><g class="key-Syrian-Arab-Republic_0"><circle cx="253" cy="318" r="1.78" fill="#000" opacity=".8" stroke="#fff" stroke-width=".7"/></g><g class="key-Timor_0"><circle cx="253" cy="195" r="1.78" fill="#d14e5b" opacity=".8" stroke="#fff" stroke-width=".7"/></g><g class="key-United-States-Virgin-Islands_0"><circle cx="353" cy="394" r="1.78" fill="#4d824b" opacity=".8" stroke="#fff" stroke-width=".7"/></g><g class="key-Yemen_0"><circle cx="298" cy="226" r="1.78" fill="#d14e5b" opacity=".8" stroke="#fff" stroke-width=".7"/></g><g class="key-Middle-income_0"><circle cx="342" cy="344" r="1.78" fill="#000" opacity=".8" stroke="#fff" stroke-width=".7"/></g><g class="key-North-America_0"><circle cx="387" cy="401" r="1.78" fill="#000" opacity=".8" stroke="#fff" stroke-width=".7"/></g><g class="key-OECD-members_0"><circle cx="391" cy="406" r="1.78" fill="#000" opacity=".8" stroke="#fff" stroke-width=".7"/></g><g class="key-Other-small-states_0"><circle cx="346" cy="296" r="1.78" fill="#000" opacity=".8" stroke="#fff" stroke-width=".7"/></g><g class="key-Pacific-island-small-states_0"><circle cx="274" cy="297" r="1.78" fill="#000" opacity=".8" stroke="#fff" stroke-width=".7"/></g><g class="key-Post__002ddemographic-dividend_0"><circle cx="434" cy="417" r="1.78" fill="#000" opacity=".8" stroke="#fff" stroke-width=".7"/></g><g class="key-Pre__002ddemographic-dividend_0"><circle cx="435" cy="168" r="1.78" fill="#000" opacity=".8" stroke="#fff" stroke-width=".7"/></g><g class="key-Small-states_0"><circle cx="344" cy="308" r="1.78" fill="#000" opacity=".8" stroke="#fff" stroke-width=".7"/></g><g class="key-South-Asia_0"><circle cx="328" cy="329" r="1.78" fill="#000" opacity=".8" stroke="#fff" stroke-width=".7"/></g><g class="key-South-Asia-__0028IDA-__0026-IBRD__0029_0"><circle cx="328" cy="329" r="1.78" fill="#000" opacity=".8" stroke="#fff" stroke-width=".7"/></g><g class="key-Sub__002dSaharan-Africa_0"><circle cx="432" cy="183" r="1.78" fill="#000" opacity=".8" stroke="#fff" stroke-width=".7"/></g><g class="key-Sub__002dSaharan-Africa-__0028excluding-high-income__0029_0"><circle cx="432" cy="183" r="1.78" fill="#000" opacity=".8" stroke="#fff" stroke-width=".7"/></g><g class="key-Sub__002dSaharan-Africa-__0028IDA-__0026-IBRD__0029_0"><circle cx="432" cy="183" r="1.78" fill="#000" opacity=".8" stroke="#fff" stroke-width=".7"/></g><g class="key-Upper-middle-income_0"><circle cx="334" cy="384" r="1.78" fill="#000" opacity=".8" stroke="#fff" stroke-width=".7"/></g><g class="key-World_0"><circle cx="355" cy="341" r="1.78" fill="#000" opacity=".8" stroke="#fff" stroke-width=".7"/></g><g class="key-Channel-Islands_0"><circle cx="420" cy="428" r="1.78" fill="#ffd336" opacity=".8" stroke="#fff" stroke-width=".7"/></g><g class="key-Arab-World_0"><circle cx="254" cy="277" r="1.78" fill="#000" opacity=".8" stroke="#fff" stroke-width=".7"/></g><g class="key-Caribbean-small-states_0"><circle cx="357" cy="363" r="1.78" fill="#000" opacity=".8" stroke="#fff" stroke-width=".7"/></g><g class="key-Central-Europe-and-the-Baltics_0"><circle cx="546" cy="422" r="1.78" fill="#000" opacity=".8" stroke="#fff" stroke-width=".7"/></g><g class="key-Early__002ddemographic-dividend_0"><circle cx="311" cy="323" r="1.78" fill="#000" opacity=".8" stroke="#fff" stroke-width=".7"/></g><g class="key-East-Asia-__0026-Pacific_0"><circle cx="339" cy="390" r="1.78" fill="#000" opacity=".8" stroke="#fff" stroke-width=".7"/></g><g class="key-East-Asia-__0026-Pacific-__0028excluding-high-income__0029_0"><circle cx="333" cy="385" r="1.78" fill="#000" opacity=".8" stroke="#fff" stroke-width=".7"/></g><g class="key-East-Asia-__0026-Pacific-__0028IDA-__0026-IBRD__0029_0"><circle cx="332" cy="385" r="1.78" fill="#000" opacity=".8" stroke="#fff" stroke-width=".7"/></g><g class="key-Euro-area_0"><circle cx="461" cy="425" r="1.78" fill="#000" opacity=".8" stroke="#fff" stroke-width=".7"/></g><g class="key-Europe-__0026-Central-Asia_0"><circle cx="469" cy="401" r="1.78" fill="#000" opacity=".8" stroke="#fff" stroke-width=".7"/></g><g class="key-Europe-__0026-Central-Asia-__0028excluding-high-income__0029_0"><circle cx="482" cy="377" r="1.78" fill="#000" opacity=".8" stroke="#333" stroke-width=".7"/></g><g class="key-Europe-__0026-Central-Asia-__0028IDA-__0026-IBRD__0029_0"><circle cx="483" cy="382" r="1.78" fill="#000" opacity=".8" stroke="#fff" stroke-width=".7"/></g><g class="key-European-Union_0"><circle cx="471" cy="422" r="1.78" fill="#000" opacity=".8" stroke="#fff" stroke-width=".7"/></g><g class="key-Fragile-and-conflict-affected-situations_0"><circle cx="396" cy="209" r="1.78" fill="#000" opacity=".8" stroke="#fff" stroke-width=".7"/></g><g class="key-Heavily-indebted-poor-countries-__0028HIPC__0029_0"><circle cx="391" cy="183" r="1.78" fill="#000" opacity=".8" stroke="#fff" stroke-width=".7"/></g><g class="key-High-income_0"><circle cx="401" cy="412" r="1.78" fill="#000" opacity=".8" stroke="#fff" stroke-width=".7"/></g><g class="key-IBRD-only_0"><circle cx="336" cy="363" r="1.78" fill="#000" opacity=".8" stroke="#fff" stroke-width=".7"/></g><g class="key-IDA-__0026-IBRD-total_0"><circle cx="347" cy="328" r="1.78" fill="#000" opacity=".8" stroke="#fff" stroke-width=".7"/></g><g class="key-IDA-blend_0"><circle cx="421" cy="219" r="1.78" fill="#000" opacity=".8" stroke="#fff" stroke-width=".7"/></g><g class="key-IDA-only_0"><circle cx="356" cy="227" r="1.78" fill="#000" opacity=".8" stroke="#fff" stroke-width=".7"/></g><g class="key-IDA-total_0"><circle cx="377" cy="224" r="1.78" fill="#000" opacity=".8" stroke="#fff" stroke-width=".7"/></g><g class="key-Late__002ddemographic-dividend_0"><circle cx="348" cy="396" r="1.78" fill="#000" opacity=".8" stroke="#fff" stroke-width=".7"/></g><g class="key-Latin-America-__0026-Caribbean_0"><circle cx="274" cy="360" r="1.78" fill="#000" opacity=".8" stroke="#fff" stroke-width=".7"/></g><g class="key-Latin-America-__0026-Caribbean-__0028excluding-high-income__0029_0"><circle cx="266" cy="358" r="1.78" fill="#000" opacity=".8" stroke="#fff" stroke-width=".7"/></g><g class="key-Latin-America-__0026-Caribbean-__0028IDA-__0026-IBRD__0029_0"><circle cx="271" cy="358" r="1.78" fill="#000" opacity=".8" stroke="#fff" stroke-width=".7"/></g><g class="key-Least-developed-countries__003a-UN-classification_0"><circle cx="357" cy="221" r="1.78" fill="#000" opacity=".8" stroke="#fff" stroke-width=".7"/></g><g class="key-Low-__0026-middle-income_0"><circle cx="346" cy="327" r="1.78" fill="#000" opacity=".8" stroke="#fff" stroke-width=".7"/></g><g class="key-Low-income_0"><circle cx="381" cy="195" r="1.78" fill="#000" opacity=".8" stroke="#fff" stroke-width=".7"/></g><g class="key-Lower-middle-income_0"><circle cx="348" cy="310" r="1.78" fill="#000" opacity=".8" stroke="#fff" stroke-width=".7"/></g><g class="key-Middle-East-__0026-North-Africa_0"><circle cx="226" cy="306" r="1.78" fill="#000" opacity=".8" stroke="#fff" stroke-width=".7"/></g><g class="key-Middle-East-__0026-North-Africa-__0028excluding-high-income__0029_0"><circle cx="240" cy="298" r="1.78" fill="#000" opacity=".8" stroke="#fff" stroke-width=".7"/></g><g class="key-Middle-East-__0026-North-Africa-__0028IDA-__0026-IBRD__0029_0"><circle cx="241" cy="299" r="1.78" fill="#000" opacity=".8" stroke="#fff" stroke-width=".7"/></g><g class="key-Kosovo_0"><circle cx="324" cy="360" r="1.78" fill="#ffd336" opacity=".8" stroke="#fff" stroke-width=".7"/></g><g class="key-Saint-Martin-__0028French-part__0029_0"><circle cx="189" cy="375" r="1.78" fill="#4d824b" opacity=".8" stroke="#fff" stroke-width=".7"/></g><g class="key-Palestine_0"><circle cx="155" cy="224" r="1.78" fill="#d14e5b" opacity=".8" stroke="#fff" stroke-width=".7"/></g><g class="key-Sint-Maarten-__0028Dutch-part__0029_0"><circle cx="208" cy="385" r="1.78" fill="#4d824b" opacity=".8" stroke="#fff" stroke-width=".7"/></g><g class="key-Curacao_0"><circle cx="435" cy="411" r="1.78" fill="#4d824b" opacity=".8" stroke="#fff" stroke-width=".7"/></g><g fill="#333" class="backgroundLabels"><text x="338" y="385.16" font-size="14.3">China</text><text x="339" y="321.71" font-size="14.1">India</text><text x="391" y="390.22" font-size="11.77">United States</text><text x="284" y="375.96" font-size="11.49">Brazil</text><text x="338" y="248.24" font-size="11.44">Pakistan</text><text x="587" y="152.46" font-size="11.41">Nigeria</text><text x="241" y="333.76" font-size="11.37">Bangladesh</text><text x="608" y="387.98" font-size="11.35">Russia</text><text x="493" y="435.3" font-size="11.31">Japan</text><text x="301" y="295.91" font-size="11.24">Philippines</text><text x="267" y="355.08" font-size="11.22">Vietnam</text><text x="316" y="218.14" font-size="11.21">Ethiopia</text><text x="271" y="266.21" font-size="11.21">Egypt</text><text x="527" y="422.29" font-size="11.2">Germany</text><text x="204" y="356.43" font-size="11.19">Iran</text><text x="465" y="123.56" font-size="11.17">Democratic Republic of Congo</text><text x="366" y="413.59" font-size="11.17">Thailand</text><text x="459" y="317.13" font-size="11.12">South Africa</text><text x="311" y="161.18" font-size="11.12">Tanzania</text><text x="379" y="346.18" font-size="11.12">Myanmar</text><text x="252" y="436.19" font-size="11.12">South Korea</text><text x="411" y="428.25" font-size="11.11">Spain</text><text x="656.68" y="414.32" font-size="11.11">Ukraine</text><text x="263" y="224.34" font-size="11.11">Kenya</text><text x="478" y="416.53" font-size="11.09">Poland</text><text x="216" y="298.57" font-size="11.09">Algeria</text><text x="406" y="125.58" font-size="11.09">Uganda</text><text x="229" y="206.65" font-size="11.08">Iraq</text><text x="312" y="206.66" font-size="11.08">Afghanistan</text><text x="158" y="330.84" font-size="11.07">Saudi Arabia</text><text x="379" y="226.96" font-size="11.06">Ghana</text><text x="473" y="155" font-size="11.06">Mozambique</text><text x="319" y="370.15" font-size="11.05">Sri Lanka</text><text x="576" y="175.16" font-size="11.05">Cote d&apos;Ivoire</text><text x="472" y="179.17" font-size="11.05">Cameroon</text><text x="400" y="156.29" font-size="11.04">Burkina Faso</text><text x="281" y="388.31" font-size="11.04">Chile</text><text x="454" y="87.64" font-size="11.04">Niger</text><text x="337" y="176.36" font-size="11.04">Malawi</text><text x="220" y="279.4" font-size="11.04">Guatemala</text><text x="362" y="163.45" font-size="11.03">Zambia</text><text x="271" y="186.49" font-size="11.03">Senegal</text><text x="376" y="208.5" font-size="11.03">Zimbabwe</text><text x="433" y="183.62" font-size="11.03">Guinea</text><text x="401" y="289.64" font-size="11.03">Haiti</text><text x="613" y="420.66" font-size="11.02">Hungary</text><text x="676" y="425.66" font-size="11.02">Serbia</text><text x="430" y="401.68" font-size="11.02">Sweden</text><text x="63" y="421.75" font-size="11.02">United Arab Emirates</text><text x="218" y="312.75" font-size="11.02">Honduras</text><text x="235" y="247.8" font-size="11.02">Tajikistan</text><text x="171" y="268.83" font-size="11.02">Jordan</text><text x="311" y="340.85" font-size="11.02">El Salvador</text><text x="601" y="191.85" font-size="11.02">Sierra Leone</text><text x="218" y="423.9" font-size="11.01">Singapore</text><text x="328" y="278.9" font-size="11.01">Turkmenistan</text><text x="225" y="379.92" font-size="11.01">Costa Rica</text><text x="342" y="402.02" font-size="11.01">Albania</text><text x="119" y="361.03" font-size="11.01">Kuwait</text><text x="109" y="340.03" font-size="11.01">Oman</text><text x="323" y="359.04" font-size="11.01">Jamaica</text><text x="599" y="257.08" font-size="11.01">Lesotho</text><text x="100" y="376.13" font-size="11">Bahrain</text><text x="449" y="248.14" font-size="11">Eswatini</text><text x="389" y="301.16" font-size="11">Djibouti</text><text x="478" y="200.17" font-size="11">Equatorial Guinea</text><text x="382" y="323.17" font-size="11">Guyana</text><text x="170" y="399.18" font-size="11">Macao</text><text x="159" y="365.19" font-size="11">Brunei</text><text x="147" y="344.2" font-size="11">Maldives</text><text x="505" y="401.2" font-size="11">Barbados</text><text x="231" y="357.2" font-size="11">Guam</text><text x="406" y="375.21" font-size="11">Greenland</text><text x="165" y="226.21" font-size="11">Marshall Islands</text><text x="367" y="439.21" font-size="11">Monaco</text><text x="482" y="374.22" font-size="11">Europe &amp; Central Asia (excluding high income)</text></g></g><g class="ScatterColorLegend clickable" cursor="pointer"><g class="legendMark">,<path fill="#5675c1" d="M735 79.6h6v6h-6z"/>,<text font-size="12.6" x="746" y="86.7"><tspan x="746" y="86.68">Africa</tspan></text></g><g class="legendMark">,<path fill="#d14e5b" d="M735 97.2h6v6h-6z"/>,<text font-size="12.6" x="746" y="104.3"><tspan x="746" y="104.28">Asia</tspan></text></g><g class="legendMark">,<path fill="#ffd336" d="M735 114.8h6v6h-6z"/>,<text font-size="12.6" x="746" y="121.9"><tspan x="746" y="121.88">Europe</tspan></text></g><g class="legendMark">,<path fill="#4d824b" d="M735 132.4h6v6h-6z"/>,<text font-size="12.6" x="746" y="139.5"><tspan x="746" y="139.48">North America</tspan></text></g><g class="legendMark">,<path fill="#a652ba" d="M735 150h6v6h-6z"/>,<text font-size="12.6" x="746" y="157.1"><tspan x="746" y="157.08">Oceania</tspan></text></g><g class="legendMark">,<path fill="#69c487" d="M735 167.6h6v6h-6z"/>,<text font-size="12.6" x="746" y="174.7"><tspan x="746" y="174.68">South America</tspan></text></g></g></g><g class="SourcesFooter" fill="#777"><g class="clickable" fill="#777"><text font-size="12.6" x="15" y="581.6"><tspan x="15" y="581.58">Source: World Bank</tspan></text></g><text font-size="12.6" x="507.1" y="581.6"><tspan x="507.15" y="581.58"><a target="_blank" href="https://ourworldindata.org/world-population-growth/" fill="#777">OurWorldInData.org/world-population-growth/</a> • <a class="cclogo" href="http://creativecommons.org/licenses/by-sa/4.0/deed.en_US" target="_blank" fill="#777">CC BY-SA</a></tspan></text></g></g></svg>