<svg xmlns="http://www.w3.org/2000/svg" version="1.1" style="background-color:#fff;-webkit-font-smoothing:antialiased" width="850" height="600" font-family="'Helvetica Neue',Helvetica,Arial,sans-serif" font-size="18" text-rendering="optimizeLegibility"><g class="ChartTab"><g class="HeaderView"><g opacity=".8" transform="matrix(.31 0 0 .31 770 15)"><a xmlns:xlink="http://www.w3.org/1999/xlink" xlink:href="https://ourworldindata.org" target="_blank"><g><path fill="#1B2543" d="M0 0h211.2v130.1H0z"/><path fill="#E63912" d="M0 112.2h211.2v17.9H0z"/><g><path fill="none" d="M1.2 12.3h210.2v99.2H1.2z"/><path fill="#FFF" d="M37.8 32.2c0 12.7-7.7 19.4-17.1 19.4-9.7 0-16.6-7.5-16.6-18.7 0-11.7 7.3-19.3 17.1-19.3 10.1.1 16.6 7.7 16.6 18.6zm-28.6.6c0 7.9 4.3 14.9 11.8 14.9 7.5 0 11.8-6.9 11.8-15.3 0-7.3-3.8-14.9-11.8-14.9-7.9 0-11.8 7.3-11.8 15.3zM62.7 43.8c0 2.7.1 5.1.2 7.2h-4.3l-.3-4.3h-.1c-1.3 2.1-4 4.9-8.8 4.9-4.2 0-9.1-2.3-9.1-11.6V24.6h4.8v14.6c0 5 1.5 8.4 5.9 8.4 3.2 0 5.5-2.2 6.3-4.4.3-.7.4-1.6.4-2.5V24.6h4.8v19.2zM67.3 32.8c0-3.1-.1-5.8-.2-8.2h4.2l.2 5.2h.2c1.2-3.5 4.1-5.8 7.3-5.8.5 0 .9.1 1.4.2v4.5c-.5-.1-1-.2-1.6-.2-3.4 0-5.8 2.6-6.5 6.2-.1.7-.2 1.4-.2 2.2V51h-4.8V32.8zM95.4 51L86 14.2h5l4.4 18.6c1.1 4.6 2.1 9.2 2.7 12.7h.1c.6-3.7 1.8-8 3-12.8l4.9-18.5h5l4.5 18.7c1 4.4 2 8.7 2.6 12.6h.1c.8-4 1.8-8.1 3-12.7l4.9-18.5h4.9L120.6 51h-5L111 31.9c-1.1-4.7-1.9-8.3-2.4-12h-.1c-.7 3.7-1.5 7.3-2.8 12L100.4 51h-5zM154.9 37.6c0 9.8-6.8 14-13.2 14-7.2 0-12.7-5.2-12.7-13.6 0-8.8 5.8-14 13.1-14 7.7 0 12.8 5.5 12.8 13.6zm-21 .3c0 5.8 3.3 10.1 8 10.1 4.6 0 8-4.3 8-10.3 0-4.5-2.2-10.1-7.9-10.1s-8.1 5.2-8.1 10.3zM158.2 32.8c0-3.1-.1-5.8-.2-8.2h4.2l.2 5.2h.2c1.2-3.5 4.1-5.8 7.3-5.8.5 0 .9.1 1.4.2v4.5c-.5-.1-1-.2-1.6-.2-3.4 0-5.8 2.6-6.5 6.2-.1.7-.2 1.4-.2 2.2V51h-4.8V32.8zM173.5 12.3h4.8V51h-4.8V12.3zM206.5 12.3v31.9c0 2.3.1 5 .2 6.8h-4.3l-.2-4.6h-.2c-1.5 2.9-4.7 5.2-9 5.2-6.4 0-11.3-5.4-11.3-13.4-.1-8.8 5.4-14.2 11.9-14.2 4 0 6.8 1.9 8 4h.1V12.3h4.8zm-4.8 23.1c0-.6-.1-1.4-.2-2a7 7 0 00-6.9-5.6c-5 0-7.9 4.4-7.9 10.2 0 5.3 2.6 9.8 7.8 9.8 3.2 0 6.2-2.1 7.1-5.7.2-.7.2-1.3.2-2.1v-4.6zM42.8 64c.1 1.6-1.1 2.9-3.1 2.9-1.7 0-2.9-1.3-2.9-2.9 0-1.7 1.3-3 3-3 1.9 0 3 1.3 3 3zm-5.4 33.8V71.4h4.8v26.4h-4.8zM47.5 78.6c0-2.7-.1-5-.2-7.1h4.3l.3 4.4h.1c1.3-2.5 4.4-5 8.8-5 3.7 0 9.4 2.2 9.4 11.2v15.8h-4.8V82.6c0-4.3-1.6-7.8-6.1-7.8-3.2 0-5.6 2.2-6.5 4.9-.2.6-.3 1.4-.3 2.2v15.9h-4.8V78.6zM84 61.6c2.9-.4 6.3-.8 10.1-.8 6.8 0 11.7 1.6 14.9 4.6 3.3 3 5.2 7.3 5.2 13.2 0 6-1.9 10.9-5.3 14.3-3.4 3.4-9.1 5.3-16.3 5.3-3.4 0-6.2-.2-8.6-.4V61.6zm4.8 32.5c1.2.2 3 .3 4.8.3 10.2 0 15.7-5.7 15.7-15.6.1-8.7-4.9-14.2-14.9-14.2-2.5 0-4.3.2-5.6.5v29zM132.1 97.8l-.4-3.3h-.2a9.79 9.79 0 01-8.1 3.9c-5.4 0-8.1-3.8-8.1-7.6 0-6.4 5.7-9.9 15.9-9.8v-.5c0-2.2-.6-6.1-6-6.1-2.5 0-5 .8-6.9 2l-1.1-3.2c2.2-1.4 5.4-2.3 8.7-2.3 8.1 0 10.1 5.5 10.1 10.8v9.9c0 2.3.1 4.5.4 6.3h-4.3zm-.7-13.4c-5.3-.1-11.2.8-11.2 5.9 0 3.1 2.1 4.6 4.5 4.6 3.4 0 5.6-2.2 6.4-4.4.2-.5.3-1 .3-1.5v-4.6zM146.6 63.9v7.6h6.9v3.7h-6.9v14.2c0 3.3.9 5.1 3.6 5.1 1.3 0 2.2-.2 2.8-.3l.2 3.6c-.9.4-2.4.7-4.3.7-2.2 0-4-.7-5.2-2-1.4-1.4-1.9-3.8-1.9-6.9V75.1h-4.1v-3.7h4.1v-6.3l4.8-1.2zM171.4 97.8l-.4-3.3h-.2a9.79 9.79 0 01-8.1 3.9c-5.4 0-8.1-3.8-8.1-7.6 0-6.4 5.7-9.9 15.9-9.8v-.5c0-2.2-.6-6.1-6-6.1-2.5 0-5 .8-6.9 2l-1.1-3.2c2.2-1.4 5.4-2.3 8.7-2.3 8.1 0 10.1 5.5 10.1 10.8v9.9c0 2.3.1 4.5.4 6.3h-4.3zm-.7-13.4c-5.3-.1-11.2.8-11.2 5.9 0 3.1 2.1 4.6 4.5 4.6 3.4 0 5.6-2.2 6.4-4.4.2-.5.3-1 .3-1.5v-4.6z"/></g></g></a></g><a href="https://ourworldindata.org/grapher/broadband-penetration-by-country" target="_blank"><text font-size="27" x="15" y="36.6" fill="#555"><tspan x="15" y="36.6">Broadband penetration by country</tspan></text></a></g><g class="LineChart"><defs><clipPath id="a"><path d="M42.56 0h830v963h-830z"/></clipPath></defs><g class="AxisBoxView"><g class="HorizontalAxis" fill="#666" text-anchor="middle" font-size="16.2"><text x="52.6" y="556.5">1998</text><text x="136.4" y="556.5">2000</text><text x="220.2" y="556.5">2002</text><text x="304" y="556.5">2004</text><text x="387.9" y="556.5">2006</text><text x="471.7" y="556.5">2008</text><text x="555.5" y="556.5">2010</text><text x="639.3" y="556.5">2012</text><text x="723.2" y="556.5">2014</text></g><g class="VerticalAxis" fill="#666" dominant-baseline="middle" text-anchor="end" font-size="16.2"><text x="47.56" y="535.3">0%</text><text x="47.56" y="477.8">5%</text><text x="47.56" y="420.2">10%</text><text x="47.56" y="362.7">15%</text><text x="47.56" y="305.1">20%</text><text x="47.56" y="247.6">25%</text><text x="47.56" y="190.1">30%</text><text x="47.56" y="132.5">35%</text><text x="47.56" y="75">40%</text></g><g class="AxisGridLines"><path stroke="#ccc" d="M52.56 535.3h670.61"/><path stroke="#ddd" stroke-dasharray="3,2" d="M52.56 477.8h670.61M52.56 420.2h670.61M52.56 362.7h670.61M52.56 305.1h670.61M52.56 247.6h670.61M52.56 190.1h670.61M52.56 132.5h670.61M52.56 75h670.61"/></g><g class="AxisGridLines" stroke="#ddd" stroke-dasharray="3,2"><path d="M52.6 535.3V75M136.4 535.3V75M220.2 535.3V75M304 535.3V75M387.9 535.3V75M471.7 535.3V75M555.5 535.3V75M639.3 535.3V75M723.2 535.3V75"/></g></g><g clip-path="url(#a)"><g class="HeightedLegend clickable"><g class="legendMark"><path fill="#3360a9" d="M733.17 526.85h10v2.5h-10z"/><text font-size="14.4" x="748.2" y="532.4" fill="#333"><tspan x="748.17" y="532.42">Afghanistan</tspan></text></g><g class="legendMark"><path fill="#ca2628" d="M733.17 512.45h10v2.5h-10z"/><text font-size="14.4" x="748.2" y="518" fill="#333"><tspan x="748.17" y="518.02">Pakistan</tspan></text></g><g class="legendMark"><path fill="#34983f" d="M733.17 498.05h10v2.5h-10z"/><text font-size="14.4" x="748.2" y="503.6" fill="#333"><tspan x="748.17" y="503.62">Paraguay</tspan></text></g><g class="legendMark"><path fill="#f6a324" d="M733.17 377.15h10v2.5h-10z"/><text font-size="14.4" x="748.2" y="382.7" fill="#333"><tspan x="748.17" y="382.72">China</tspan></text></g><g class="legendMark"><path fill="#a652ba" d="M733.17 333.25h10v2.5h-10z"/><text font-size="14.4" x="748.2" y="338.8" fill="#333"><tspan x="748.17" y="338.82">Russia</tspan></text></g><g class="legendMark"><path fill="#2a939b" d="M733.17 219.15h10v2.5h-10z"/><text font-size="14.4" x="748.2" y="224.7" fill="#333"><tspan x="748.17" y="224.72">Estonia</tspan></text></g><g class="legendMark"><path fill="#e6332e" d="M733.17 184.55h10v2.5h-10z"/><text font-size="14.4" x="748.2" y="190.1" fill="#333"><tspan x="748.17" y="190.12">United States</tspan></text></g><g class="legendMark"><path fill="#9ecc8a" d="M733.17 170.15h10v2.5h-10z"/><text font-size="14.4" x="748.2" y="175.7" fill="#333"><tspan x="748.17" y="175.72">Hong Kong</tspan></text></g><g class="legendMark"><path fill="#ffd53e" d="M733.17 122.35h10v2.5h-10z"/><text font-size="14.4" x="748.2" y="127.9" fill="#333"><tspan x="748.17" y="127.92">Germany</tspan></text></g></g><g class="Lines"><g class="key-China_0"><path stroke="#f6a324" stroke-linecap="round" d="M136 535h42l42-3 42-7 42-12 42-10 42-12 42-13 84-31 42-19 83-39 42-11" fill="none" stroke-width="1.5"/><g fill="#f6a324"><circle cx="136" cy="535" r="2"/><circle cx="178" cy="535" r="2"/><circle cx="220" cy="532" r="2"/><circle cx="262" cy="525" r="2"/><circle cx="304" cy="513" r="2"/><circle cx="346" cy="503" r="2"/><circle cx="388" cy="491" r="2"/><circle cx="430" cy="478" r="2"/><circle cx="514" cy="447" r="2"/><circle cx="556" cy="428" r="2"/><circle cx="639" cy="389" r="2"/><circle cx="681" cy="378" r="2"/></g></g><g class="key-Estonia_0"><path stroke="#2a939b" stroke-linecap="round" d="M178 521l42-25 42-38 42-42 42-36 42-60 42-17 42-27 42-18 42-31 41-2 42-1 42-11 42 7" fill="none" stroke-width="1.5"/><g fill="#2a939b"><circle cx="178" cy="521" r="2"/><circle cx="220" cy="496" r="2"/><circle cx="262" cy="458" r="2"/><circle cx="304" cy="416" r="2"/><circle cx="346" cy="380" r="2"/><circle cx="388" cy="320" r="2"/><circle cx="430" cy="303" r="2"/><circle cx="472" cy="276" r="2"/><circle cx="514" cy="258" r="2"/><circle cx="556" cy="227" r="2"/><circle cx="597" cy="225" r="2"/><circle cx="639" cy="224" r="2"/><circle cx="681" cy="213" r="2"/><circle cx="723" cy="220" r="2"/></g></g><g class="key-Hong-Kong_0"><path stroke="#9ecc8a" stroke-linecap="round" d="M53 533l42-12 41-60 42-45 42-54 42-38 42-42 42-23 42-23 42-16 42-4 42-18 42-17 41-18 42 9 42 6 42-2" fill="none" stroke-width="1.5"/><g fill="#9ecc8a"><circle cx="53" cy="533" r="2"/><circle cx="95" cy="521" r="2"/><circle cx="136" cy="461" r="2"/><circle cx="178" cy="416" r="2"/><circle cx="220" cy="362" r="2"/><circle cx="262" cy="324" r="2"/><circle cx="304" cy="282" r="2"/><circle cx="346" cy="259" r="2"/><circle cx="388" cy="236" r="2"/><circle cx="430" cy="220" r="2"/><circle cx="472" cy="216" r="2"/><circle cx="514" cy="198" r="2"/><circle cx="556" cy="181" r="2"/><circle cx="597" cy="163" r="2"/><circle cx="639" cy="172" r="2"/><circle cx="681" cy="178" r="2"/><circle cx="723" cy="176" r="2"/></g></g><g class="key-Pakistan_0"><path stroke="#ca2628" stroke-linecap="round" d="M346 535h84l42-1 42-1 42-3 41-2 42-2 42-1 42-2" fill="none" stroke-width="1.5"/><g fill="#ca2628"><circle cx="346" cy="535" r="2"/><circle cx="388" cy="535" r="2"/><circle cx="430" cy="535" r="2"/><circle cx="472" cy="534" r="2"/><circle cx="514" cy="533" r="2"/><circle cx="556" cy="530" r="2"/><circle cx="597" cy="528" r="2"/><circle cx="639" cy="526" r="2"/><circle cx="681" cy="525" r="2"/><circle cx="723" cy="523" r="2"/></g></g><g class="key-Paraguay_0"><path stroke="#34983f" stroke-linecap="round" d="M136 535h168l42-1h84l42-1 42-12 42-2 41-5 42-2 42-3" fill="none" stroke-width="1.5"/><g fill="#34983f"><circle cx="136" cy="535" r="2"/><circle cx="178" cy="535" r="2"/><circle cx="220" cy="535" r="2"/><circle cx="262" cy="535" r="2"/><circle cx="304" cy="535" r="2"/><circle cx="346" cy="534" r="2"/><circle cx="388" cy="534" r="2"/><circle cx="430" cy="534" r="2"/><circle cx="472" cy="533" r="2"/><circle cx="514" cy="521" r="2"/><circle cx="556" cy="519" r="2"/><circle cx="597" cy="514" r="2"/><circle cx="639" cy="512" r="2"/><circle cx="681" cy="509" r="2"/></g></g><g class="key-Afghanistan_0"><path stroke="#3360a9" stroke-linecap="round" d="M304 535h419" fill="none" stroke-width="1.5"/><g fill="#3360a9"><circle cx="304" cy="535" r="2"/><circle cx="346" cy="535" r="2"/><circle cx="388" cy="535" r="2"/><circle cx="430" cy="535" r="2"/><circle cx="472" cy="535" r="2"/><circle cx="514" cy="535" r="2"/><circle cx="556" cy="535" r="2"/><circle cx="639" cy="535" r="2"/><circle cx="681" cy="535" r="2"/><circle cx="723" cy="535" r="2"/></g></g><g class="key-United-States_0"><path stroke="#e6332e" stroke-linecap="round" d="M53 532l42-8 41-17 42-23 42-27 42-31 42-36 42-52 42-33 42-41 42-18 42-8 42-14 41-11 42-13 42-10 42-4" fill="none" stroke-width="1.5"/><g fill="#e6332e"><circle cx="53" cy="532" r="2"/><circle cx="95" cy="524" r="2"/><circle cx="136" cy="507" r="2"/><circle cx="178" cy="484" r="2"/><circle cx="220" cy="457" r="2"/><circle cx="262" cy="426" r="2"/><circle cx="304" cy="390" r="2"/><circle cx="346" cy="338" r="2"/><circle cx="388" cy="305" r="2"/><circle cx="430" cy="264" r="2"/><circle cx="472" cy="246" r="2"/><circle cx="514" cy="238" r="2"/><circle cx="556" cy="224" r="2"/><circle cx="597" cy="213" r="2"/><circle cx="639" cy="200" r="2"/><circle cx="681" cy="190" r="2"/><circle cx="723" cy="186" r="2"/></g></g><g class="key-Russia_0"><path stroke="#a652ba" stroke-linecap="round" d="M220 535l42-2 42-3 42-7 42-11 42-16 84-64 42-22 41-16 42-27 42-23 42-9" fill="none" stroke-width="1.5"/><g fill="#a652ba"><circle cx="220" cy="535" r="2"/><circle cx="262" cy="533" r="2"/><circle cx="304" cy="530" r="2"/><circle cx="346" cy="523" r="2"/><circle cx="388" cy="512" r="2"/><circle cx="430" cy="496" r="2"/><circle cx="514" cy="432" r="2"/><circle cx="556" cy="410" r="2"/><circle cx="597" cy="394" r="2"/><circle cx="639" cy="367" r="2"/><circle cx="681" cy="344" r="2"/><circle cx="723" cy="335" r="2"/></g></g><g class="key-Germany_0"><path stroke="#ffd53e" stroke-linecap="round" d="M136 532l42-26 42-15 42-17 42-35 42-52 42-57 42-67 42-41 42-32 42-17 41-16 42-10 42-10 42-13" fill="none" stroke-width="1.5"/><g fill="#ffd53e"><circle cx="136" cy="532" r="2"/><circle cx="178" cy="506" r="2"/><circle cx="220" cy="491" r="2"/><circle cx="262" cy="474" r="2"/><circle cx="304" cy="439" r="2"/><circle cx="346" cy="387" r="2"/><circle cx="388" cy="330" r="2"/><circle cx="430" cy="263" r="2"/><circle cx="472" cy="222" r="2"/><circle cx="514" cy="190" r="2"/><circle cx="556" cy="173" r="2"/><circle cx="597" cy="157" r="2"/><circle cx="639" cy="147" r="2"/><circle cx="681" cy="137" r="2"/><circle cx="723" cy="124" r="2"/></g></g></g></g></g><g class="SourcesFooter" fill="#777"><g class="clickable" fill="#777"><text font-size="12.6" x="15" y="581.6"><tspan x="15" y="581.58">Source: Science and Technology - World Bank (2015)</tspan></text></g><text font-size="12.6" x="599.8" y="581.6"><tspan x="599.76" y="581.58"><a target="_blank" href="https://ourworldindata.org/internet/" fill="#777">OurWorldInData.org/internet/</a> • <a href="http://creativecommons.org/licenses/by-sa/4.0/deed.en_US" target="_blank" fill="#777">CC BY-SA</a></tspan></text></g></g></svg>