<svg xmlns="http://www.w3.org/2000/svg" version="1.1" style="background-color:#fff;-webkit-font-smoothing:antialiased" width="850" height="600" font-family="'Helvetica Neue',Helvetica,Arial,sans-serif" font-size="18" text-rendering="optimizeLegibility"><g class="ChartTab"><g class="HeaderView"><g opacity=".8" transform="matrix(.31 0 0 .31 770 15)"><a xmlns:xlink="http://www.w3.org/1999/xlink" xlink:href="https://ourworldindata.org" target="_blank"><g><path fill="#1B2543" d="M0 0h211.2v130.1H0z"/><path fill="#E63912" d="M0 112.2h211.2v17.9H0z"/><g><path fill="none" d="M1.2 12.3h210.2v99.2H1.2z"/><path fill="#FFF" d="M37.8 32.2c0 12.7-7.7 19.4-17.1 19.4-9.7 0-16.6-7.5-16.6-18.7 0-11.7 7.3-19.3 17.1-19.3 10.1.1 16.6 7.7 16.6 18.6zm-28.6.6c0 7.9 4.3 14.9 11.8 14.9 7.5 0 11.8-6.9 11.8-15.3 0-7.3-3.8-14.9-11.8-14.9-7.9 0-11.8 7.3-11.8 15.3zM62.7 43.8c0 2.7.1 5.1.2 7.2h-4.3l-.3-4.3h-.1c-1.3 2.1-4 4.9-8.8 4.9-4.2 0-9.1-2.3-9.1-11.6V24.6h4.8v14.6c0 5 1.5 8.4 5.9 8.4 3.2 0 5.5-2.2 6.3-4.4.3-.7.4-1.6.4-2.5V24.6h4.8v19.2zM67.3 32.8c0-3.1-.1-5.8-.2-8.2h4.2l.2 5.2h.2c1.2-3.5 4.1-5.8 7.3-5.8.5 0 .9.1 1.4.2v4.5c-.5-.1-1-.2-1.6-.2-3.4 0-5.8 2.6-6.5 6.2-.1.7-.2 1.4-.2 2.2V51h-4.8V32.8zM95.4 51L86 14.2h5l4.4 18.6c1.1 4.6 2.1 9.2 2.7 12.7h.1c.6-3.7 1.8-8 3-12.8l4.9-18.5h5l4.5 18.7c1 4.4 2 8.7 2.6 12.6h.1c.8-4 1.8-8.1 3-12.7l4.9-18.5h4.9L120.6 51h-5L111 31.9c-1.1-4.7-1.9-8.3-2.4-12h-.1c-.7 3.7-1.5 7.3-2.8 12L100.4 51h-5zM154.9 37.6c0 9.8-6.8 14-13.2 14-7.2 0-12.7-5.2-12.7-13.6 0-8.8 5.8-14 13.1-14 7.7 0 12.8 5.5 12.8 13.6zm-21 .3c0 5.8 3.3 10.1 8 10.1 4.6 0 8-4.3 8-10.3 0-4.5-2.2-10.1-7.9-10.1s-8.1 5.2-8.1 10.3zM158.2 32.8c0-3.1-.1-5.8-.2-8.2h4.2l.2 5.2h.2c1.2-3.5 4.1-5.8 7.3-5.8.5 0 .9.1 1.4.2v4.5c-.5-.1-1-.2-1.6-.2-3.4 0-5.8 2.6-6.5 6.2-.1.7-.2 1.4-.2 2.2V51h-4.8V32.8zM173.5 12.3h4.8V51h-4.8V12.3zM206.5 12.3v31.9c0 2.3.1 5 .2 6.8h-4.3l-.2-4.6h-.2c-1.5 2.9-4.7 5.2-9 5.2-6.4 0-11.3-5.4-11.3-13.4-.1-8.8 5.4-14.2 11.9-14.2 4 0 6.8 1.9 8 4h.1V12.3h4.8zm-4.8 23.1c0-.6-.1-1.4-.2-2a7 7 0 00-6.9-5.6c-5 0-7.9 4.4-7.9 10.2 0 5.3 2.6 9.8 7.8 9.8 3.2 0 6.2-2.1 7.1-5.7.2-.7.2-1.3.2-2.1v-4.6zM42.8 64c.1 1.6-1.1 2.9-3.1 2.9-1.7 0-2.9-1.3-2.9-2.9 0-1.7 1.3-3 3-3 1.9 0 3 1.3 3 3zm-5.4 33.8V71.4h4.8v26.4h-4.8zM47.5 78.6c0-2.7-.1-5-.2-7.1h4.3l.3 4.4h.1c1.3-2.5 4.4-5 8.8-5 3.7 0 9.4 2.2 9.4 11.2v15.8h-4.8V82.6c0-4.3-1.6-7.8-6.1-7.8-3.2 0-5.6 2.2-6.5 4.9-.2.6-.3 1.4-.3 2.2v15.9h-4.8V78.6zM84 61.6c2.9-.4 6.3-.8 10.1-.8 6.8 0 11.7 1.6 14.9 4.6 3.3 3 5.2 7.3 5.2 13.2 0 6-1.9 10.9-5.3 14.3-3.4 3.4-9.1 5.3-16.3 5.3-3.4 0-6.2-.2-8.6-.4V61.6zm4.8 32.5c1.2.2 3 .3 4.8.3 10.2 0 15.7-5.7 15.7-15.6.1-8.7-4.9-14.2-14.9-14.2-2.5 0-4.3.2-5.6.5v29zM132.1 97.8l-.4-3.3h-.2a9.79 9.79 0 01-8.1 3.9c-5.4 0-8.1-3.8-8.1-7.6 0-6.4 5.7-9.9 15.9-9.8v-.5c0-2.2-.6-6.1-6-6.1-2.5 0-5 .8-6.9 2l-1.1-3.2c2.2-1.4 5.4-2.3 8.7-2.3 8.1 0 10.1 5.5 10.1 10.8v9.9c0 2.3.1 4.5.4 6.3h-4.3zm-.7-13.4c-5.3-.1-11.2.8-11.2 5.9 0 3.1 2.1 4.6 4.5 4.6 3.4 0 5.6-2.2 6.4-4.4.2-.5.3-1 .3-1.5v-4.6zM146.6 63.9v7.6h6.9v3.7h-6.9v14.2c0 3.3.9 5.1 3.6 5.1 1.3 0 2.2-.2 2.8-.3l.2 3.6c-.9.4-2.4.7-4.3.7-2.2 0-4-.7-5.2-2-1.4-1.4-1.9-3.8-1.9-6.9V75.1h-4.1v-3.7h4.1v-6.3l4.8-1.2zM171.4 97.8l-.4-3.3h-.2a9.79 9.79 0 01-8.1 3.9c-5.4 0-8.1-3.8-8.1-7.6 0-6.4 5.7-9.9 15.9-9.8v-.5c0-2.2-.6-6.1-6-6.1-2.5 0-5 .8-6.9 2l-1.1-3.2c2.2-1.4 5.4-2.3 8.7-2.3 8.1 0 10.1 5.5 10.1 10.8v9.9c0 2.3.1 4.5.4 6.3h-4.3zm-.7-13.4c-5.3-.1-11.2.8-11.2 5.9 0 3.1 2.1 4.6 4.5 4.6 3.4 0 5.6-2.2 6.4-4.4.2-.5.3-1 .3-1.5v-4.6z"/></g></g></a></g><a href="https://ourworldindata.org/grapher/cancer-death-rates-by-type" target="_blank"><text font-size="27" x="15" y="36.6" fill="#555"><tspan x="15" y="36.6">Cancer death rates by type (per 100,000), World</tspan></text></a><text font-size="14.4" x="15" y="55.5" fill="#666"><tspan x="15" y="55.52">Age-standardized death rates across cancer types, measured as the number of deaths per 100,000 individuals.</tspan><tspan x="15" y="71.36">Age-standardization assumes a constant population age &amp; structure to allow for comparisons between countries and</tspan><tspan x="15" y="87.2">with time without the effects of a changing age distribution within a population (e.g. aging).</tspan></text></g><g class="LineChart"><defs><clipPath id="a"><path d="M28.14 0h830v894.2h-830z"/></clipPath></defs><g class="AxisBoxView"><g class="HorizontalAxis" fill="#666" text-anchor="middle" font-size="16.2"><text x="38.1" y="556.5">1990</text><text x="141.4" y="556.5">1995</text><text x="244.7" y="556.5">2000</text><text x="348" y="556.5">2005</text><text x="451.3" y="556.5">2010</text><text x="575.3" y="556.5">2016</text></g><g class="VerticalAxis" fill="#666" dominant-baseline="middle" text-anchor="end" font-size="16.2"><text x="33.14" y="535.3">0</text><text x="33.14" y="464.3">5</text><text x="33.14" y="393.3">10</text><text x="33.14" y="322.2">15</text><text x="33.14" y="251.2">20</text><text x="33.14" y="180.2">25</text></g><g class="AxisGridLines"><path stroke="#ccc" d="M38.14 535.3h537.14"/><path stroke="#ddd" stroke-dasharray="3,2" d="M38.14 464.3h537.14M38.14 393.3h537.14M38.14 322.2h537.14M38.14 251.2h537.14M38.14 180.2h537.14"/></g><g class="AxisGridLines" stroke="#ddd" stroke-dasharray="3,2"><path d="M38.1 535.3V109.4M141.4 535.3V109.4M244.7 535.3V109.4M348 535.3V109.4M451.3 535.3V109.4M554.6 535.3V109.4"/></g></g><g clip-path="url(#a)"><g class="HeightedLegend clickable"><g class="legendMark"><path fill="#3360a9" d="M585.28 526.85h10v2.5h-10z"/><text font-size="14.4" x="600.3" y="532.4" fill="#333"><tspan x="600.28" y="532.42">Testicular cancer</tspan></text></g><g class="legendMark"><path fill="#ca2628" d="M585.28 512.45h10v2.5h-10z"/><text font-size="14.4" x="600.3" y="518" fill="#333"><tspan x="600.28" y="518.02">Thyroid cancer</tspan></text></g><g class="legendMark"><path fill="#34983f" d="M585.28 498.05h10v2.5h-10z"/><text font-size="14.4" x="600.3" y="503.6" fill="#333"><tspan x="600.28" y="503.62">Non-melanoma skin cancer</tspan></text></g><g class="legendMark"><path fill="#f6a324" d="M585.28 483.65h10v2.5h-10z"/><text font-size="14.4" x="600.3" y="489.2" fill="#333"><tspan x="600.28" y="489.22">Nasopharynx cancer</tspan></text></g><g class="legendMark"><path fill="#a652ba" d="M585.28 469.25h10v2.5h-10z"/><text font-size="14.4" x="600.3" y="474.8" fill="#333"><tspan x="600.28" y="474.82">Uterine cancer</tspan></text></g><g class="legendMark"><path fill="#2a939b" d="M585.28 454.85h10v2.5h-10z"/><text font-size="14.4" x="600.3" y="460.4" fill="#333"><tspan x="600.28" y="460.42">Larynx cancer</tspan></text></g><g class="legendMark"><path fill="#e6332e" d="M585.28 440.45h10v2.5h-10z"/><text font-size="14.4" x="600.3" y="446" fill="#333"><tspan x="600.28" y="446.02">Other pharynx cancer</tspan></text></g><g class="legendMark"><path fill="#9ecc8a" d="M585.28 426.05h10v2.5h-10z"/><text font-size="14.4" x="600.3" y="431.6" fill="#333"><tspan x="600.28" y="431.62">Kidney cancer</tspan></text></g><g class="legendMark"><path fill="#ffd53e" d="M585.28 411.65h10v2.5h-10z"/><text font-size="14.4" x="600.3" y="417.2" fill="#333"><tspan x="600.28" y="417.22">Ovarian cancer</tspan></text></g><g class="legendMark"><path fill="#b077b1" d="M585.28 397.25h10v2.5h-10z"/><text font-size="14.4" x="600.3" y="402.8" fill="#333"><tspan x="600.28" y="402.82">Gallbladder and biliary tract cancer</tspan></text></g><g class="legendMark"><path fill="#7ec7ce" d="M585.28 382.85h10v2.5h-10z"/><text font-size="14.4" x="600.3" y="388.4" fill="#333"><tspan x="600.28" y="388.42">Lip and oral cavity cancer</tspan></text></g><g class="legendMark"><path fill="#e6332e" d="M585.28 368.45h10v2.5h-10z"/><text font-size="14.4" x="600.3" y="374" fill="#333"><tspan x="600.28" y="374.02">Bladder cancer</tspan></text></g><g class="legendMark"><path fill="#6bb537" d="M585.28 354.05h10v2.5h-10z"/><text font-size="14.4" x="600.3" y="359.6" fill="#333"><tspan x="600.28" y="359.62">Brain and nervous system cancer</tspan></text></g><g class="legendMark"><path fill="#f07f59" d="M585.28 339.65h10v2.5h-10z"/><text font-size="14.4" x="600.3" y="345.2" fill="#333"><tspan x="600.28" y="345.22">Cervical cancer</tspan></text></g><g class="legendMark"><path fill="#ce8ebd" d="M585.28 325.25h10v2.5h-10z"/><text font-size="14.4" x="600.3" y="330.8" fill="#333"><tspan x="600.28" y="330.82">Prostate cancer</tspan></text></g><g class="legendMark"><path fill="#5eb77e" d="M585.28 310.85h10v2.5h-10z"/><text font-size="14.4" x="600.3" y="316.4" fill="#333"><tspan x="600.28" y="316.42">Pancreatic cancer</tspan></text></g><g class="legendMark"><path fill="#818282" d="M585.28 296.45h10v2.5h-10z"/><text font-size="14.4" x="600.3" y="302" fill="#333"><tspan x="600.28" y="302.02">Esophageal cancer</tspan></text></g><g class="legendMark"><path fill="#fceb8c" d="M585.28 282.05h10v2.5h-10z"/><text font-size="14.4" x="600.3" y="287.6" fill="#333"><tspan x="600.28" y="287.62">Breast cancer</tspan></text></g><g class="legendMark"><path fill="#9ecc8a" d="M585.28 267.65h10v2.5h-10z"/><text font-size="14.4" x="600.3" y="273.2" fill="#333"><tspan x="600.28" y="273.22">Liver cancer</tspan></text></g><g class="legendMark"><path fill="#cfcd1e" d="M585.28 253.25h10v2.5h-10z"/><text font-size="14.4" x="600.3" y="258.8" fill="#333"><tspan x="600.28" y="258.82">Stomach cancer</tspan></text></g><g class="legendMark"><path fill="#58888f" d="M585.28 238.85h10v2.5h-10z"/><text font-size="14.4" x="600.3" y="244.4" fill="#333"><tspan x="600.28" y="244.42">Colon and rectum cancer</tspan></text></g><g class="legendMark"><path fill="#932834" d="M585.28 167.35h10v2.5h-10z"/><text font-size="14.4" x="600.3" y="172.9" fill="#333"><tspan x="600.28" y="172.92">Tracheal, bronchus, and lung cancer</tspan></text></g></g><g class="Lines"><g class="key-World_0"><path stroke="#ce8ebd" stroke-linecap="round" d="M38 445l21-1 21-1 20-1 21-1h41l21 1h41l21 1h62l20 1 21 1h21l20 1h21l21 1h20l21 1h21l20 1h21l21-1h20" fill="none" stroke-width="1.5"/></g><g class="key-World_1"><path stroke="#fceb8c" stroke-linecap="round" d="M38 400h21l21-1 20-2h41l21 1 21 2 20 1h21l21 1 20 1h21l21 2 20 2 21 1 21 2 20 2 21 1 21 2 20 1 21 1 21 2 20 1h21l21 1 20 1" fill="none" stroke-width="1.5"/></g><g class="key-World_10"><path stroke="#ca2628" stroke-linecap="round" d="M38 524h103l21 1h186l21 1h206" fill="none" stroke-width="1.5"/></g><g class="key-World_11"><path stroke="#a652ba" stroke-linecap="round" d="M38 510h103l21 1h83l20 1h42l20 1h21l21 1h62l20 1h42l20 1h42l20 1" fill="none" stroke-width="1.5"/></g><g class="key-World_12"><path stroke="#e6332e" stroke-linecap="round" d="M38 485h21l21-1h41l20 1h21l21 1h41l21 1h20l21 1h21l20 1 21 1h21l20 1h21l21 1h41l21 1h62l20 1" fill="none" stroke-width="1.5"/></g><g class="key-World_13"><path stroke="#f07f59" stroke-linecap="round" d="M38 461l21 1 21 1h20l21 1 20 1 21 1 21 1 20 1 21 1h21l20 1 21 1 21 1 20 1 21 2 21 1 20 1 21 2 21 1 20 1 21 1 21 1h20l21 1 21 1 20 1" fill="none" stroke-width="1.5"/></g><g class="key-World_14"><path stroke="#9ecc8a" stroke-linecap="round" d="M38 508h21l21-1h165l20-1h207l21 1h82" fill="none" stroke-width="1.5"/></g><g class="key-World_15"><path stroke="#cfcd1e" stroke-linecap="round" d="M38 216l21 7 21 3 20 1 21 4 20 8 21 9 21 7 20 5 21 2 21 3 20 3 21 2 21 9 20 8 21 7 21 10 20 8 21 6 21 6 20 6 21 6 21 6 20 4 21 3 21 4 20 3" fill="none" stroke-width="1.5"/></g><g class="key-World_16"><path stroke="#f6a324" stroke-linecap="round" d="M38 518h103l21 1h103l21 1h41l21 1h83l20 1h104l20 1" fill="none" stroke-width="1.5"/></g><g class="key-World_17"><path stroke="#3360a9" stroke-linecap="round" d="M38 533h372l21 1h144" fill="none" stroke-width="1.5"/></g><g class="key-World_18"><path stroke="#e6332e" stroke-linecap="round" d="M38 511h434l21 1 20-1h62" fill="none" stroke-width="1.5"/></g><g class="key-World_19"><path stroke="#818282" stroke-linecap="round" d="M38 405h21l21-1 20-1h21l20 1 21 2h21l20 1 21 1h41l21 2 21 3 20 3 21 3 21 5 20 4 21 4 21 3 20 2 21 3 21 3 20 1 21 1 21 1 20 1" fill="none" stroke-width="1.5"/></g><g class="key-World_2"><path stroke="#5eb77e" stroke-linecap="round" d="M38 447h124l21 1h20l21-1h41l21-1h248l21 1h20" fill="none" stroke-width="1.5"/></g><g class="key-World_20"><path stroke="#34983f" stroke-linecap="round" d="M38 523h207l20-1h21l21 1h248l20 1" fill="none" stroke-width="1.5"/></g><g class="key-World_21"><path stroke="#932834" stroke-linecap="round" d="M38 118h21l21-2 20-4 21-3 20 3 21 5 21 4 20 2 21-2h41l21-1 21 3 20 2 21-1 21 7 20 4 21 3 21 3 20 2 21 6 21 4 20 4 21 3 21 4 20 5" fill="none" stroke-width="1.5"/></g><g class="key-World_3"><path stroke="#6bb537" stroke-linecap="round" d="M38 488h42l20-1h21l20-1h124l21 1h21l20 1h42l20 1h186" fill="none" stroke-width="1.5"/></g><g class="key-World_4"><path stroke="#7ec7ce" stroke-linecap="round" d="M38 499h21l21-1h103l20 1h372" fill="none" stroke-width="1.5"/></g><g class="key-World_5"><path stroke="#58888f" stroke-linecap="round" d="M38 321h42l20-2h21l20 1 21 3 21 2 20 1h21l21 1 20 1h21l21 2 20 3 21 2 21 2 20 2 21 1 21 3 20 1 21 3 21 1 20 2 21 1 21 1 20 2" fill="none" stroke-width="1.5"/></g><g class="key-World_6"><path stroke="#b077b1" stroke-linecap="round" d="M38 489l21 1h62l20 1 21 1h21l20 1h21l21 1h62l20 1h21l21 1h20l21 1h21l20 1h21l21 1h20l21 1h41" fill="none" stroke-width="1.5"/></g><g class="key-World_7"><path stroke="#9ecc8a" stroke-linecap="round" d="M38 357l21-2 21-2 20-3 21-3 20-2 21-2 21-2 20-1h42l20 1 21 1 21 3 20 3 21 2 21 2 20 2 21 2 21 2 20 2 21 2 21 2h62l20-1" fill="none" stroke-width="1.5"/></g><g class="key-World_8"><path stroke="#2a939b" stroke-linecap="round" d="M38 501h83l20 1 21 1h21l20 1h21l21 1 20 1h21l21 1 20 1h21l21 1h20l21 1h21l20 1h42l20 1h62" fill="none" stroke-width="1.5"/></g><g class="key-World_9"><path stroke="#ffd53e" stroke-linecap="round" d="M38 495h103l21 1h41l21 1h83l20 1h21l21 1h41l21 1h62l20 1h62" fill="none" stroke-width="1.5"/></g></g></g></g><g class="SourcesFooter" fill="#777"><g class="clickable" fill="#777"><text font-size="12.6" x="15" y="581.6"><tspan x="15" y="581.58">Source: IHME, Global Burden of Disease (GBD)</tspan></text></g><text font-size="12.6" x="649" y="581.6"><tspan x="649.02" y="581.58"><a target="_blank" href="https://ourworldindata.org" fill="#777">OurWorldInData.org</a> • <a href="http://creativecommons.org/licenses/by-sa/4.0/deed.en_US" target="_blank" fill="#777">CC BY-SA</a></tspan></text></g></g></svg>