<svg xmlns="http://www.w3.org/2000/svg" version="1.1" style="background-color:#fff;-webkit-font-smoothing:antialiased" width="850" height="600" font-family="'Helvetica Neue',Helvetica,Arial,sans-serif" font-size="18" text-rendering="optimizeLegibility"><g class="ChartTab"><g class="HeaderView"><g opacity=".8" transform="matrix(.31 0 0 .31 770 15)"><a xmlns:xlink="http://www.w3.org/1999/xlink" xlink:href="https://ourworldindata.org" target="_blank"><g><path fill="#1B2543" d="M0 0h211.2v130.1H0z"/><path fill="#E63912" d="M0 112.2h211.2v17.9H0z"/><g><path fill="none" d="M1.2 12.3h210.2v99.2H1.2z"/><path fill="#FFF" d="M37.8 32.2c0 12.7-7.7 19.4-17.1 19.4-9.7 0-16.6-7.5-16.6-18.7 0-11.7 7.3-19.3 17.1-19.3 10.1.1 16.6 7.7 16.6 18.6zm-28.6.6c0 7.9 4.3 14.9 11.8 14.9 7.5 0 11.8-6.9 11.8-15.3 0-7.3-3.8-14.9-11.8-14.9-7.9 0-11.8 7.3-11.8 15.3zM62.7 43.8c0 2.7.1 5.1.2 7.2h-4.3l-.3-4.3h-.1c-1.3 2.1-4 4.9-8.8 4.9-4.2 0-9.1-2.3-9.1-11.6V24.6h4.8v14.6c0 5 1.5 8.4 5.9 8.4 3.2 0 5.5-2.2 6.3-4.4.3-.7.4-1.6.4-2.5V24.6h4.8v19.2zM67.3 32.8c0-3.1-.1-5.8-.2-8.2h4.2l.2 5.2h.2c1.2-3.5 4.1-5.8 7.3-5.8.5 0 .9.1 1.4.2v4.5c-.5-.1-1-.2-1.6-.2-3.4 0-5.8 2.6-6.5 6.2-.1.7-.2 1.4-.2 2.2V51h-4.8V32.8zM95.4 51L86 14.2h5l4.4 18.6c1.1 4.6 2.1 9.2 2.7 12.7h.1c.6-3.7 1.8-8 3-12.8l4.9-18.5h5l4.5 18.7c1 4.4 2 8.7 2.6 12.6h.1c.8-4 1.8-8.1 3-12.7l4.9-18.5h4.9L120.6 51h-5L111 31.9c-1.1-4.7-1.9-8.3-2.4-12h-.1c-.7 3.7-1.5 7.3-2.8 12L100.4 51h-5zM154.9 37.6c0 9.8-6.8 14-13.2 14-7.2 0-12.7-5.2-12.7-13.6 0-8.8 5.8-14 13.1-14 7.7 0 12.8 5.5 12.8 13.6zm-21 .3c0 5.8 3.3 10.1 8 10.1 4.6 0 8-4.3 8-10.3 0-4.5-2.2-10.1-7.9-10.1s-8.1 5.2-8.1 10.3zM158.2 32.8c0-3.1-.1-5.8-.2-8.2h4.2l.2 5.2h.2c1.2-3.5 4.1-5.8 7.3-5.8.5 0 .9.1 1.4.2v4.5c-.5-.1-1-.2-1.6-.2-3.4 0-5.8 2.6-6.5 6.2-.1.7-.2 1.4-.2 2.2V51h-4.8V32.8zM173.5 12.3h4.8V51h-4.8V12.3zM206.5 12.3v31.9c0 2.3.1 5 .2 6.8h-4.3l-.2-4.6h-.2c-1.5 2.9-4.7 5.2-9 5.2-6.4 0-11.3-5.4-11.3-13.4-.1-8.8 5.4-14.2 11.9-14.2 4 0 6.8 1.9 8 4h.1V12.3h4.8zm-4.8 23.1c0-.6-.1-1.4-.2-2a7 7 0 00-6.9-5.6c-5 0-7.9 4.4-7.9 10.2 0 5.3 2.6 9.8 7.8 9.8 3.2 0 6.2-2.1 7.1-5.7.2-.7.2-1.3.2-2.1v-4.6zM42.8 64c.1 1.6-1.1 2.9-3.1 2.9-1.7 0-2.9-1.3-2.9-2.9 0-1.7 1.3-3 3-3 1.9 0 3 1.3 3 3zm-5.4 33.8V71.4h4.8v26.4h-4.8zM47.5 78.6c0-2.7-.1-5-.2-7.1h4.3l.3 4.4h.1c1.3-2.5 4.4-5 8.8-5 3.7 0 9.4 2.2 9.4 11.2v15.8h-4.8V82.6c0-4.3-1.6-7.8-6.1-7.8-3.2 0-5.6 2.2-6.5 4.9-.2.6-.3 1.4-.3 2.2v15.9h-4.8V78.6zM84 61.6c2.9-.4 6.3-.8 10.1-.8 6.8 0 11.7 1.6 14.9 4.6 3.3 3 5.2 7.3 5.2 13.2 0 6-1.9 10.9-5.3 14.3-3.4 3.4-9.1 5.3-16.3 5.3-3.4 0-6.2-.2-8.6-.4V61.6zm4.8 32.5c1.2.2 3 .3 4.8.3 10.2 0 15.7-5.7 15.7-15.6.1-8.7-4.9-14.2-14.9-14.2-2.5 0-4.3.2-5.6.5v29zM132.1 97.8l-.4-3.3h-.2a9.79 9.79 0 01-8.1 3.9c-5.4 0-8.1-3.8-8.1-7.6 0-6.4 5.7-9.9 15.9-9.8v-.5c0-2.2-.6-6.1-6-6.1-2.5 0-5 .8-6.9 2l-1.1-3.2c2.2-1.4 5.4-2.3 8.7-2.3 8.1 0 10.1 5.5 10.1 10.8v9.9c0 2.3.1 4.5.4 6.3h-4.3zm-.7-13.4c-5.3-.1-11.2.8-11.2 5.9 0 3.1 2.1 4.6 4.5 4.6 3.4 0 5.6-2.2 6.4-4.4.2-.5.3-1 .3-1.5v-4.6zM146.6 63.9v7.6h6.9v3.7h-6.9v14.2c0 3.3.9 5.1 3.6 5.1 1.3 0 2.2-.2 2.8-.3l.2 3.6c-.9.4-2.4.7-4.3.7-2.2 0-4-.7-5.2-2-1.4-1.4-1.9-3.8-1.9-6.9V75.1h-4.1v-3.7h4.1v-6.3l4.8-1.2zM171.4 97.8l-.4-3.3h-.2a9.79 9.79 0 01-8.1 3.9c-5.4 0-8.1-3.8-8.1-7.6 0-6.4 5.7-9.9 15.9-9.8v-.5c0-2.2-.6-6.1-6-6.1-2.5 0-5 .8-6.9 2l-1.1-3.2c2.2-1.4 5.4-2.3 8.7-2.3 8.1 0 10.1 5.5 10.1 10.8v9.9c0 2.3.1 4.5.4 6.3h-4.3zm-.7-13.4c-5.3-.1-11.2.8-11.2 5.9 0 3.1 2.1 4.6 4.5 4.6 3.4 0 5.6-2.2 6.4-4.4.2-.5.3-1 .3-1.5v-4.6z"/></g></g></a></g><a href="https://ourworldindata.org/grapher/cancer-deaths-by-type-grouped" target="_blank"><text font-size="27" x="15" y="36.6" fill="#555"><tspan x="15" y="36.6">Cancer deaths by type, World</tspan></text></a><text font-size="14.4" x="15" y="55.5" fill="#666"><tspan x="15" y="55.52">Annual cancer deaths by cancer type, measured as the total number of deaths across all age categories and both</tspan><tspan x="15" y="71.36">sexes. Smaller categories of cancer types with global deaths &lt;100,000 in 2016 have been grouped into a collective</tspan><tspan x="15" y="87.2">category &apos;Other cancers&apos;. See sources for list of grouped cancers.</tspan></text></g><g class="StackedArea"><defs><clipPath id="a"><path d="M79.45 0h820v894.2h-820z"/></clipPath></defs><g class="AxisBoxView"><g class="HorizontalAxis" fill="#666" text-anchor="middle" font-size="16.2"><text x="79.5" y="556.5">1990</text><text x="196.3" y="556.5">1995</text><text x="313.2" y="556.5">2000</text><text x="430.1" y="556.5">2005</text><text x="547" y="556.5">2010</text><text x="687.3" y="556.5">2016</text></g><g class="VerticalAxis" fill="#666" dominant-baseline="middle" text-anchor="end" font-size="16.2"><text x="74.45" y="535.3">0</text><text x="74.45" y="439.2">2 million</text><text x="74.45" y="343.2">4 million</text><text x="74.45" y="247.1">6 million</text><text x="74.45" y="151.1">8 million</text></g><g class="AxisGridLines"><path stroke="#ccc" d="M79.45 535.3h607.82"/><path stroke="#ddd" stroke-dasharray="3,2" d="M79.45 439.2h607.82M79.45 343.2h607.82M79.45 247.1h607.82M79.45 151.1h607.82"/></g><g class="AxisGridLines" stroke="#ddd" stroke-dasharray="3,2"><path d="M79.5 535.3V109.4M196.3 535.3V109.4M313.2 535.3V109.4M430.1 535.3V109.4M547 535.3V109.4M663.9 535.3V109.4"/></g></g><g clip-path="url(#a)"><g class="HeightedLegend clickable"><g class="legendMark"><path fill="#34983f" d="M692.27 129.95h10v2.5h-10z"/><text font-size="14.4" x="707.3" y="135.5" fill="#333"><tspan x="707.27" y="135.52">Other cancers</tspan></text></g><g class="legendMark"><path fill="#4FA552" d="M692.27 154.15h10v2.5h-10z"/><text font-size="14.4" x="707.3" y="159.7" fill="#333"><tspan x="707.27" y="159.72">Gallbladder cancer</tspan></text></g><g class="legendMark"><path fill="#69B265" d="M692.27 168.55h10v2.5h-10z"/><text font-size="14.4" x="707.3" y="174.1" fill="#333"><tspan x="707.27" y="174.12">Larynx cancer</tspan></text></g><g class="legendMark"><path fill="#84BF78" d="M692.27 190.7h10v2.5h-10z"/><text font-size="14.4" x="707.3" y="188.5" fill="#333"><tspan x="707.27" y="188.52">Other pharynx</tspan><tspan x="707.27" y="204.36">cancer</tspan></text></g><g class="legendMark"><path fill="#9ecc8a" d="M692.27 212.85h10v2.5h-10z"/><text font-size="14.4" x="707.3" y="218.4" fill="#333"><tspan x="707.27" y="218.42">Kidney cancer</tspan></text></g><g class="legendMark"><path fill="#B7CF77" d="M692.27 227.25h10v2.5h-10z"/><text font-size="14.4" x="707.3" y="232.8" fill="#333"><tspan x="707.27" y="232.82">Ovarian cancer</tspan></text></g><g class="legendMark"><path fill="#CFD164" d="M692.27 249.4h10v2.5h-10z"/><text font-size="14.4" x="707.3" y="247.2" fill="#333"><tspan x="707.27" y="247.22">Lip and oral cavity</tspan><tspan x="707.27" y="263.06">cancer</tspan></text></g><g class="legendMark"><path fill="#E7D351" d="M692.27 271.55h10v2.5h-10z"/><text font-size="14.4" x="707.3" y="277.1" fill="#333"><tspan x="707.27" y="277.12">Bladder cancer</tspan></text></g><g class="legendMark"><path fill="#ffd53e" d="M692.27 293.7h10v2.5h-10z"/><text font-size="14.4" x="707.3" y="291.5" fill="#333"><tspan x="707.27" y="291.52">Brain and nervous</tspan><tspan x="707.27" y="307.36">system cancer</tspan></text></g><g class="legendMark"><path fill="#F2AA39" d="M692.27 323.6h10v2.5h-10z"/><text font-size="14.4" x="707.3" y="321.4" fill="#333"><tspan x="707.27" y="321.42">Non-Hodgkin</tspan><tspan x="707.27" y="337.26">lymphoma</tspan></text></g><g class="legendMark"><path fill="#E57E33" d="M692.27 345.75h10v2.5h-10z"/><text font-size="14.4" x="707.3" y="351.3" fill="#333"><tspan x="707.27" y="351.32">Cervical cancer</tspan></text></g><g class="legendMark"><path fill="#D8522E" d="M692.27 360.15h10v2.5h-10z"/><text font-size="14.4" x="707.3" y="365.7" fill="#333"><tspan x="707.27" y="365.72">Leukemia</tspan></text></g><g class="legendMark"><path fill="#ca2628" d="M692.27 374.55h10v2.5h-10z"/><text font-size="14.4" x="707.3" y="380.1" fill="#333"><tspan x="707.27" y="380.12">Prostate cancer</tspan></text></g><g class="legendMark"><path fill="#D12A2A" d="M692.27 388.95h10v2.5h-10z"/><text font-size="14.4" x="707.3" y="394.5" fill="#333"><tspan x="707.27" y="394.52">Pancreatic cancer</tspan></text></g><g class="legendMark"><path fill="#D82D2B" d="M692.27 403.35h10v2.5h-10z"/><text font-size="14.4" x="707.3" y="408.9" fill="#333"><tspan x="707.27" y="408.92">Esophageal cancer</tspan></text></g><g class="legendMark"><path fill="#e6332e" d="M692.27 417.75h10v2.5h-10z"/><text font-size="14.4" x="707.3" y="423.3" fill="#333"><tspan x="707.27" y="423.32">Breast cancer</tspan></text></g><g class="legendMark"><path fill="#886365" d="M692.27 432.15h10v2.5h-10z"/><text font-size="14.4" x="707.3" y="437.7" fill="#333"><tspan x="707.27" y="437.72">Liver cancer</tspan></text></g><g class="legendMark"><path fill="#2a939b" d="M692.27 454.3h10v2.5h-10z"/><text font-size="14.4" x="707.3" y="452.1" fill="#333"><tspan x="707.27" y="452.12">Colon and rectum</tspan><tspan x="707.27" y="467.96">cancer</tspan></text></g><g class="legendMark"><path fill="#2F7AA2" d="M692.27 476.45h10v2.5h-10z"/><text font-size="14.4" x="707.3" y="482" fill="#333"><tspan x="707.27" y="482.02">Stomach cancer</tspan></text></g><g class="legendMark"><path fill="#3360a9" d="M692.27 498.6h10v2.5h-10z"/><text font-size="14.4" x="707.3" y="496.4" fill="#333"><tspan x="707.27" y="496.42">Tracheal, bronchus,</tspan><tspan x="707.27" y="512.26">and lung cancer</tspan></text></g></g><g class="Areas"><path d="M79.5 485.8l23.3-1 23.4-1.3 23.4-1.8 23.4-1.5 23.3-1 23.4-.6 23.4-.6 23.4-1 23.4-1.6 23.3-1.5 23.4-1.4 23.4-1.6 23.4-1.2 23.3-1.3 23.4-1.9 23.4-.5 23.4-1 23.4-1.3 23.3-1.4 23.4-1.5 23.4-.9 23.4-1.1 23.3-1.3 23.4-1.5 23.4-1.4 23.4-1.3-.03 82H79.45" fill="#3360a9" fill-opacity=".7" class="World_19-area"/><path d="M79.5 448.2l23.3-1 23.4-1.8 23.4-2.6 23.4-1.9 23.3-.9 23.4-.2 23.4-.6 23.4-1.2 23.4-2.1 23.3-2.1 23.4-1.9 23.4-2.2 23.4-.8 23.3-1.2 23.4-1.7 23.4.3 23.4-.6 23.4-1.2 23.3-1.3 23.4-1.6 23.4-.5 23.4-1.2 23.3-1.4 23.4-2 23.4-1.6 23.4-1.6v40l-23.4 1.3-23.4 1.4-23.4 1.5-23.3 1.3-23.4 1.1-23.4.9-23.4 1.5-23.3 1.4-23.4 1.3-23.4 1-23.4.5-23.4 1.9-23.3 1.3-23.4 1.2-23.4 1.6-23.4 1.4-23.3 1.5-23.4 1.6-23.4 1-23.4.6-23.4.6-23.3 1-23.4 1.5-23.4 1.8-23.4 1.3-23.3 1" fill="#2F7AA2" fill-opacity=".7" class="World_18-area"/><path d="M79.5 424.3l23.3-1.5 23.4-2.5 23.4-3.4 23.4-2.6 23.3-1.3 23.4-.6 23.4-.9 23.4-1.7 23.4-2.9 23.3-2.7 23.4-2.5 23.4-2.8 23.4-1.4 23.3-1.6 23.4-2.4h23.4l23.4-1.3 23.4-1.8 23.3-1.9 23.4-2.3 23.4-1.1 23.4-1.8 23.3-2.2 23.4-2.8 23.4-2.4 23.4-2.5v39.9l-23.4 1.6-23.4 1.6-23.4 2-23.3 1.4-23.4 1.2-23.4.5-23.4 1.6-23.3 1.3-23.4 1.2-23.4.6-23.4-.3-23.4 1.7-23.3 1.2-23.4.8-23.4 2.2-23.4 1.9-23.3 2.1-23.4 2.1-23.4 1.2-23.4.6-23.4.2-23.3.9-23.4 1.9-23.4 2.6-23.4 1.8-23.3 1" fill="#2a939b" fill-opacity=".7" class="World_4-area"/><path d="M79.5 402l23.3-2.3 23.4-3.3 23.4-4.4 23.4-3.6 23.3-2.2 23.4-1.4 23.4-1.8 23.4-2.5 23.4-3.6 23.3-3.3 23.4-3 23.4-3.3 23.4-1.6 23.3-2 23.4-2.8 23.4-.3 23.4-1.7 23.4-2.3 23.3-2.4 23.4-2.7 23.4-1.6 23.4-2.4 23.3-3 23.4-3.8 23.4-3.4 23.4-3.7v39.8l-23.4 2.5-23.4 2.4-23.4 2.8-23.3 2.2-23.4 1.8-23.4 1.1-23.4 2.3-23.3 1.9-23.4 1.8-23.4 1.3h-23.4l-23.4 2.4-23.3 1.6-23.4 1.4-23.4 2.8-23.4 2.5-23.3 2.7-23.4 2.9-23.4 1.7-23.4.9-23.4.6-23.3 1.3-23.4 2.6-23.4 3.4-23.4 2.5-23.3 1.5" fill="#886365" fill-opacity=".7" class="World_11-area"/><path d="M79.5 385.6l23.3-2.6 23.4-3.9 23.4-5L173 370l23.3-2.6 23.4-1.7 23.4-2 23.4-2.8 23.4-4.1 23.3-3.7 23.4-3.4L360 346l23.4-2 23.3-2.1 23.4-3.2 23.4-.5 23.4-2 23.4-2.6 23.3-2.7 23.4-3.1 23.4-1.8 23.4-2.9 23.3-3.4 23.4-4.3 23.4-3.9 23.4-4.1v26.2l-23.4 3.7-23.4 3.4-23.4 3.8-23.3 3-23.4 2.4-23.4 1.6-23.4 2.7-23.3 2.4-23.4 2.3-23.4 1.7-23.4.3-23.4 2.8-23.3 2-23.4 1.6-23.4 3.3-23.4 3-23.3 3.3-23.4 3.6-23.4 2.5-23.4 1.8-23.4 1.4-23.3 2.2-23.4 3.6-23.4 4.4-23.4 3.3-23.3 2.3" fill="#e6332e" fill-opacity=".7" class="World_2-area"/><path d="M79.5 370.1l23.3-3 23.4-4.3 23.4-5.5 23.4-4.6 23.3-2.8 23.4-1.9 23.4-2.3 23.4-3.1 23.4-4.4 23.3-4.1 23.4-3.8 23.4-4 23.4-1.8 23.3-2.2 23.4-3.2 23.4-.2 23.4-1.7 23.4-2.5 23.3-2.6L547 309l23.4-1.7 23.4-2.9 23.3-3.6 23.4-4.7 23.4-4.2 23.4-4.4v19.9l-23.4 4.1-23.4 3.9-23.4 4.3-23.3 3.4-23.4 2.9-23.4 1.8-23.4 3.1-23.3 2.7-23.4 2.6-23.4 2-23.4.5-23.4 3.2-23.3 2.1-23.4 2-23.4 3.7-23.4 3.4-23.3 3.7-23.4 4.1-23.4 2.8-23.4 2-23.4 1.7L173 370l-23.4 4.1-23.4 5-23.4 3.9-23.3 2.6" fill="#D82D2B" fill-opacity=".7" class="World_5-area"/><path d="M79.5 360.1l23.3-3.2 23.4-4.6 23.4-5.7 23.4-4.9 23.3-3.1 23.4-2.1 23.4-2.5 23.4-3.4 23.4-4.8 23.3-4.4 23.4-4.2 23.4-4.3 23.4-2.2 23.3-2.5 23.4-3.7 23.4-.5 23.4-2.2 23.4-2.9 23.3-3.1 23.4-3.5 23.4-2.2 23.4-3.4 23.3-4 23.4-5.1 23.4-4.7 23.4-4.9v19.5l-23.4 4.4-23.4 4.2-23.4 4.7-23.3 3.6-23.4 2.9L547 309l-23.4 3.1-23.3 2.6-23.4 2.5-23.4 1.7-23.4.2-23.4 3.2-23.3 2.2-23.4 1.8-23.4 4-23.4 3.8-23.3 4.1-23.4 4.4-23.4 3.1-23.4 2.3-23.4 1.9-23.3 2.8-23.4 4.6-23.4 5.5-23.4 4.3-23.3 3" fill="#D12A2A" fill-opacity=".7" class="World_16-area"/><path d="M79.5 350.9l23.3-3.5 23.4-5 23.4-6.1 23.4-5.1 23.3-3.5 23.4-2.3 23.4-2.8 23.4-3.7 23.4-5 23.3-4.8 23.4-4.4 23.4-4.6 23.4-2.5 23.3-2.8 23.4-4 23.4-.8 23.4-2.5 23.4-3.3 23.3-3.4 23.4-3.9 23.4-2.5 23.4-3.8 23.3-4.5 23.4-5.6 23.4-5.2 23.4-5.6V268l-23.4 4.9-23.4 4.7-23.4 5.1-23.3 4-23.4 3.4-23.4 2.2-23.4 3.5-23.3 3.1-23.4 2.9-23.4 2.2-23.4.5-23.4 3.7-23.3 2.5-23.4 2.2-23.4 4.3-23.4 4.2-23.3 4.4-23.4 4.8-23.4 3.4-23.4 2.5-23.4 2.1-23.3 3.1-23.4 4.9-23.4 5.7-23.4 4.6-23.3 3.2" fill="#ca2628" fill-opacity=".7" class="World_17-area"/><path d="M79.5 339.3l23.3-3.7 23.4-5.1 23.4-6.3 23.4-5.4 23.3-3.6 23.4-2.5 23.4-2.9 23.4-3.9 23.4-5.1 23.3-4.9 23.4-4.5 23.4-4.8 23.4-2.6 23.3-2.8 23.4-4 23.4-.9 23.4-2.5 23.4-3.4 23.3-3.5 23.4-4 23.4-2.7 23.4-3.8 23.3-4.6 23.4-5.8 23.4-5.4 23.4-5.8v14.9l-23.4 5.6-23.4 5.2-23.4 5.6-23.3 4.5-23.4 3.8-23.4 2.5-23.4 3.9-23.3 3.4-23.4 3.3-23.4 2.5-23.4.8-23.4 4-23.3 2.8-23.4 2.5-23.4 4.6-23.4 4.4-23.3 4.8-23.4 5-23.4 3.7-23.4 2.8-23.4 2.3-23.3 3.5-23.4 5.1-23.4 6.1-23.4 5-23.3 3.5" fill="#D8522E" fill-opacity=".7" class="World_9-area"/><path d="M79.5 329.9l23.3-3.7 23.4-5.3 23.4-6.5 23.4-5.5 23.3-3.8 23.4-2.6 23.4-3 23.4-3.9 23.4-5.3 23.3-5.1 23.4-4.5 23.4-4.9 23.4-2.7 23.3-2.9 23.4-4.1 23.4-.9 23.4-2.5 23.4-3.4 23.3-3.6 23.4-4.1 23.4-2.7 23.4-3.9 23.3-4.8 23.4-5.9 23.4-5.5 23.4-5.9v11.9l-23.4 5.8-23.4 5.4-23.4 5.8-23.3 4.6-23.4 3.8-23.4 2.7-23.4 4-23.3 3.5-23.4 3.4-23.4 2.5-23.4.9-23.4 4-23.3 2.8-23.4 2.6-23.4 4.8-23.4 4.5-23.3 4.9-23.4 5.1-23.4 3.9-23.4 2.9-23.4 2.5-23.3 3.6-23.4 5.4-23.4 6.3-23.4 5.1-23.3 3.7" fill="#E57E33" fill-opacity=".7" class="World_3-area"/><path d="M79.5 323.8l23.3-4 23.4-5.5 23.4-6.7 23.4-5.8 23.3-3.9 23.4-2.8 23.4-3.2 23.4-4.1 23.4-5.5 23.3-5.2 23.4-4.7 23.4-5 23.4-2.8 23.3-3.1 23.4-4.2 23.4-1.1 23.4-2.7 23.4-3.7 23.3-3.7 23.4-4.4 23.4-2.9 23.4-4.2 23.3-5 23.4-6.2 23.4-5.9 23.4-6.1v11.5l-23.4 5.9-23.4 5.5-23.4 5.9-23.3 4.8-23.4 3.9-23.4 2.7-23.4 4.1-23.3 3.6-23.4 3.4-23.4 2.5-23.4.9-23.4 4.1-23.3 2.9-23.4 2.7-23.4 4.9-23.4 4.5-23.3 5.1-23.4 5.3-23.4 3.9-23.4 3-23.4 2.6-23.3 3.8-23.4 5.5-23.4 6.5-23.4 5.3-23.3 3.7" fill="#F2AA39" fill-opacity=".7" class="World_12-area"/><path d="M79.5 317.1l23.3-4.1 23.4-5.7 23.4-6.9 23.4-6 23.3-4.2 23.4-3 23.4-3.3 23.4-4.2 23.4-5.6 23.3-5.4 23.4-4.8 23.4-5.1 23.4-2.9 23.3-3.1 23.4-4.4 23.4-1.2 23.4-2.8 23.4-3.8 23.3-4 23.4-4.5 23.4-3.1 23.4-4.4 23.3-5.2 23.4-6.5 23.4-6.1 23.4-6.3v10.9l-23.4 6.1-23.4 5.9-23.4 6.2-23.3 5-23.4 4.2-23.4 2.9-23.4 4.4-23.3 3.7-23.4 3.7-23.4 2.7-23.4 1.1-23.4 4.2-23.3 3.1-23.4 2.8-23.4 5-23.4 4.7-23.3 5.2-23.4 5.5-23.4 4.1-23.4 3.2-23.4 2.8-23.3 3.9-23.4 5.8-23.4 6.7-23.4 5.5-23.3 4" fill="#ffd53e" fill-opacity=".7" class="World_1-area"/><path d="M79.5 311.7l23.3-4.3 23.4-5.8 23.4-7.1 23.4-6.1 23.3-4.3 23.4-3.1 23.4-3.4 23.4-4.4 23.4-5.7 23.3-5.4 23.4-5 23.4-5.2 23.4-2.9 23.3-3.2 23.4-4.5 23.4-1.3 23.4-3 23.4-3.9 23.3-4.1 23.4-4.7 23.4-3.3 23.4-4.6 23.3-5.3 23.4-6.7 23.4-6.3 23.4-6.5v8.9l-23.4 6.3-23.4 6.1-23.4 6.5-23.3 5.2-23.4 4.4-23.4 3.1-23.4 4.5-23.3 4-23.4 3.8-23.4 2.8-23.4 1.2-23.4 4.4-23.3 3.1-23.4 2.9-23.4 5.1-23.4 4.8-23.3 5.4-23.4 5.6-23.4 4.2-23.4 3.3-23.4 3-23.3 4.2-23.4 6-23.4 6.9-23.4 5.7-23.3 4.1" fill="#E7D351" fill-opacity=".7" class="World_0-area"/><path d="M79.5 307.2l23.3-4.4 23.4-5.9 23.4-7.2 23.4-6.3 23.3-4.4 23.4-3.2 23.4-3.5 23.4-4.4 23.4-5.9 23.3-5.6 23.4-5L360 246l23.4-3 23.3-3.4 23.4-4.7 23.4-1.4 23.4-3.1 23.4-4.1 23.3-4.3 23.4-4.9 23.4-3.5 23.4-4.7 23.3-5.6 23.4-6.9 23.4-6.5 23.4-6.8v8.5l-23.4 6.5-23.4 6.3-23.4 6.7-23.3 5.3-23.4 4.6-23.4 3.3-23.4 4.7-23.3 4.1-23.4 3.9-23.4 3-23.4 1.3-23.4 4.5-23.3 3.2-23.4 2.9-23.4 5.2-23.4 5-23.3 5.4-23.4 5.7-23.4 4.4-23.4 3.4-23.4 3.1-23.3 4.3-23.4 6.1-23.4 7.1-23.4 5.8-23.3 4.3" fill="#CFD164" fill-opacity=".7" class="World_10-area"/><path d="M79.5 302.4l23.3-4.5 23.4-6 23.4-7.4 23.4-6.4 23.3-4.5 23.4-3.2 23.4-3.6 23.4-4.6 23.4-5.9 23.3-5.7 23.4-5.2L360 240l23.4-3.2 23.3-3.5 23.4-4.8 23.4-1.5 23.4-3.2 23.4-4.3 23.3-4.4 23.4-5 23.4-3.6 23.4-4.9 23.3-5.7 23.4-7 23.4-6.8 23.4-6.9v7.9l-23.4 6.8-23.4 6.5-23.4 6.9-23.3 5.6-23.4 4.7-23.4 3.5-23.4 4.9-23.3 4.3-23.4 4.1-23.4 3.1-23.4 1.4-23.4 4.7-23.3 3.4-23.4 3-23.4 5.4-23.4 5-23.3 5.6-23.4 5.9-23.4 4.4-23.4 3.5-23.4 3.2-23.3 4.4-23.4 6.3-23.4 7.2-23.4 5.9-23.3 4.4" fill="#B7CF77" fill-opacity=".7" class="World_15-area"/><path d="M79.5 299.2l23.3-4.6 23.4-6.2 23.4-7.4 23.4-6.5 23.3-4.6 23.4-3.3 23.4-3.7 23.4-4.6 23.4-6.1 23.3-5.8 23.4-5.3 23.4-5.6 23.4-3.3 23.3-3.6 23.4-5 23.4-1.5 23.4-3.4 23.4-4.4 23.3-4.5 23.4-5.2 23.4-3.7 23.4-5 23.3-5.9 23.4-7.2 23.4-6.8 23.4-7.2v6.4l-23.4 6.9-23.4 6.8-23.4 7-23.3 5.7-23.4 4.9-23.4 3.6-23.4 5-23.3 4.4-23.4 4.3-23.4 3.2-23.4 1.5-23.4 4.8-23.3 3.5L360 240l-23.4 5.4-23.4 5.2-23.3 5.7-23.4 5.9-23.4 4.6-23.4 3.6-23.4 3.2-23.3 4.5-23.4 6.4-23.4 7.4-23.4 6-23.3 4.5" fill="#9ecc8a" fill-opacity=".7" class="World_7-area"/><path d="M79.5 296.2l23.3-4.7 23.4-6.2 23.4-7.6 23.4-6.6 23.3-4.6 23.4-3.4 23.4-3.8 23.4-4.7 23.4-6.1 23.3-5.9 23.4-5.4 23.4-5.7 23.4-3.4 23.3-3.6 23.4-5.1 23.4-1.7 23.4-3.5 23.4-4.5 23.3-4.6 23.4-5.3 23.4-3.8 23.4-5.2 23.3-6 23.4-7.3 23.4-7.1 23.4-7.3v5.7l-23.4 7.2-23.4 6.8-23.4 7.2-23.3 5.9-23.4 5-23.4 3.7-23.4 5.2-23.3 4.5-23.4 4.4-23.4 3.4-23.4 1.5-23.4 5-23.3 3.6-23.4 3.3-23.4 5.6-23.4 5.3-23.3 5.8-23.4 6.1-23.4 4.6-23.4 3.7-23.4 3.3-23.3 4.6-23.4 6.5-23.4 7.4-23.4 6.2-23.3 4.6" fill="#84BF78" fill-opacity=".7" class="World_14-area"/><path d="M79.5 292l23.3-4.7 23.4-6.4 23.4-7.6 23.4-6.7 23.3-4.7 23.4-3.4 23.4-3.7 23.4-4.7 23.4-6.2 23.3-6 23.4-5.4 23.4-5.7 23.4-3.3 23.3-3.7 23.4-5.1 23.4-1.7 23.4-3.5 23.4-4.6 23.3-4.6 23.4-5.4 23.4-3.8 23.4-5.2 23.3-6.1 23.4-7.4 23.4-7.2 23.4-7.4v5.3l-23.4 7.3-23.4 7.1-23.4 7.3-23.3 6-23.4 5.2-23.4 3.8-23.4 5.3-23.3 4.6-23.4 4.5-23.4 3.5-23.4 1.7-23.4 5.1-23.3 3.6-23.4 3.4-23.4 5.7-23.4 5.4-23.3 5.9-23.4 6.1-23.4 4.7-23.4 3.8-23.4 3.4-23.3 4.6-23.4 6.6-23.4 7.6-23.4 6.2-23.3 4.7" fill="#69B265" fill-opacity=".7" class="World_8-area"/><path d="M79.5 288.7l23.3-4.8 23.4-6.3 23.4-7.7 23.4-6.8 23.3-4.6 23.4-3.4 23.4-3.8 23.4-4.8 23.4-6.3 23.3-6 23.4-5.4 23.4-5.7 23.4-3.5 23.3-3.7 23.4-5.2 23.4-1.7 23.4-3.6 23.4-4.6 23.3-4.7 23.4-5.5 23.4-3.9 23.4-5.3 23.3-6.2 23.4-7.5 23.4-7.3 23.4-7.5v4.9l-23.4 7.4-23.4 7.2-23.4 7.4-23.3 6.1-23.4 5.2-23.4 3.8-23.4 5.4-23.3 4.6-23.4 4.6-23.4 3.5-23.4 1.7-23.4 5.1-23.3 3.7-23.4 3.3-23.4 5.7-23.4 5.4-23.3 6-23.4 6.2-23.4 4.7-23.4 3.7-23.4 3.4-23.3 4.7-23.4 6.7-23.4 7.6-23.4 6.4-23.3 4.7" fill="#4FA552" fill-opacity=".7" class="World_6-area"/><path d="M79.5 263.4l23.3-5.2 23.4-6.9 23.4-8.4 23.4-7.4 23.3-5.3 23.4-3.7 23.4-4.3 23.4-5.4 23.4-7.1 23.3-6.8 23.4-6 23.4-6.4 23.4-4.1 23.3-4.3 23.4-6 23.4-2.3 23.4-4.3 23.4-5.5 23.3-5.6L547 152l23.4-4.6 23.4-6.2 23.3-7.1 23.4-8.3 23.4-8.1 23.4-8.3v43.5l-23.4 7.5-23.4 7.3-23.4 7.5-23.3 6.2-23.4 5.3-23.4 3.9-23.4 5.5-23.3 4.7-23.4 4.6-23.4 3.6-23.4 1.7-23.4 5.2-23.3 3.7-23.4 3.5-23.4 5.7-23.4 5.4-23.3 6-23.4 6.3-23.4 4.8-23.4 3.8-23.4 3.4-23.3 4.6-23.4 6.8-23.4 7.7-23.4 6.3-23.3 4.8" fill="#34983f" fill-opacity=".7" class="World_13-area"/><path stroke-linecap="round" d="M79.5 485.8l23.3-1 23.4-1.3 23.4-1.8 23.4-1.5 23.3-1 23.4-.6 23.4-.6 23.4-1 23.4-1.6 23.3-1.5 23.4-1.4 23.4-1.6 23.4-1.2 23.3-1.3 23.4-1.9 23.4-.5 23.4-1 23.4-1.3 23.3-1.4 23.4-1.5 23.4-.9 23.4-1.1 23.3-1.3 23.4-1.5 23.4-1.4 23.4-1.3" stroke="#2B508D" stroke-opacity=".7" stroke-width=".5" fill="none" class="World_19-border"/><path stroke-linecap="round" d="M79.5 448.2l23.3-1 23.4-1.8 23.4-2.6 23.4-1.9 23.3-.9 23.4-.2 23.4-.6 23.4-1.2 23.4-2.1 23.3-2.1 23.4-1.9 23.4-2.2 23.4-.8 23.3-1.2 23.4-1.7 23.4.3 23.4-.6 23.4-1.2 23.3-1.3 23.4-1.6 23.4-.5 23.4-1.2 23.3-1.4 23.4-2 23.4-1.6 23.4-1.6" stroke="#276688" stroke-opacity=".7" stroke-width=".5" fill="none" class="World_18-border"/><path stroke-linecap="round" d="M79.5 424.3l23.3-1.5 23.4-2.5 23.4-3.4 23.4-2.6 23.3-1.3 23.4-.6 23.4-.9 23.4-1.7 23.4-2.9 23.3-2.7 23.4-2.5 23.4-2.8 23.4-1.4 23.3-1.6 23.4-2.4h23.4l23.4-1.3 23.4-1.8 23.3-1.9 23.4-2.3 23.4-1.1 23.4-1.8 23.3-2.2 23.4-2.8 23.4-2.4 23.4-2.5" stroke="#237B82" stroke-opacity=".7" stroke-width=".5" fill="none" class="World_4-border"/><path stroke-linecap="round" d="M79.5 402l23.3-2.3 23.4-3.3 23.4-4.4 23.4-3.6 23.3-2.2 23.4-1.4 23.4-1.8 23.4-2.5 23.4-3.6 23.3-3.3 23.4-3 23.4-3.3 23.4-1.6 23.3-2 23.4-2.8 23.4-.3 23.4-1.7 23.4-2.3 23.3-2.4 23.4-2.7 23.4-1.6 23.4-2.4 23.3-3 23.4-3.8 23.4-3.4 23.4-3.7" stroke="#725355" stroke-opacity=".7" stroke-width=".5" fill="none" class="World_11-border"/><path stroke-linecap="round" d="M79.5 385.6l23.3-2.6 23.4-3.9 23.4-5L173 370l23.3-2.6 23.4-1.7 23.4-2 23.4-2.8 23.4-4.1 23.3-3.7 23.4-3.4L360 346l23.4-2 23.3-2.1 23.4-3.2 23.4-.5 23.4-2 23.4-2.6 23.3-2.7 23.4-3.1 23.4-1.8 23.4-2.9 23.3-3.4 23.4-4.3 23.4-3.9 23.4-4.1" stroke="#C02B26" stroke-opacity=".7" stroke-width=".5" fill="none" class="World_2-border"/><path stroke-linecap="round" d="M79.5 370.1l23.3-3 23.4-4.3 23.4-5.5 23.4-4.6 23.3-2.8 23.4-1.9 23.4-2.3 23.4-3.1 23.4-4.4 23.3-4.1 23.4-3.8 23.4-4 23.4-1.8 23.3-2.2 23.4-3.2 23.4-.2 23.4-1.7 23.4-2.5 23.3-2.6L547 309l23.4-1.7 23.4-2.9 23.3-3.6 23.4-4.7 23.4-4.2 23.4-4.4" stroke="#B52624" stroke-opacity=".7" stroke-width=".5" fill="none" class="World_5-border"/><path stroke-linecap="round" d="M79.5 360.1l23.3-3.2 23.4-4.6 23.4-5.7 23.4-4.9 23.3-3.1 23.4-2.1 23.4-2.5 23.4-3.4 23.4-4.8 23.3-4.4 23.4-4.2 23.4-4.3 23.4-2.2 23.3-2.5 23.4-3.7 23.4-.5 23.4-2.2 23.4-2.9 23.3-3.1 23.4-3.5 23.4-2.2 23.4-3.4 23.3-4 23.4-5.1 23.4-4.7 23.4-4.9" stroke="#AF2323" stroke-opacity=".7" stroke-width=".5" fill="none" class="World_16-border"/><path stroke-linecap="round" d="M79.5 350.9l23.3-3.5 23.4-5 23.4-6.1 23.4-5.1 23.3-3.5 23.4-2.3 23.4-2.8 23.4-3.7 23.4-5 23.3-4.8 23.4-4.4 23.4-4.6 23.4-2.5 23.3-2.8 23.4-4 23.4-.8 23.4-2.5 23.4-3.3 23.3-3.4 23.4-3.9 23.4-2.5 23.4-3.8 23.3-4.5 23.4-5.6 23.4-5.2 23.4-5.6" stroke="#A92021" stroke-opacity=".7" stroke-width=".5" fill="none" class="World_17-border"/><path stroke-linecap="round" d="M79.5 339.3l23.3-3.7 23.4-5.1 23.4-6.3 23.4-5.4 23.3-3.6 23.4-2.5 23.4-2.9 23.4-3.9 23.4-5.1 23.3-4.9 23.4-4.5 23.4-4.8 23.4-2.6 23.3-2.8 23.4-4 23.4-.9 23.4-2.5 23.4-3.4 23.3-3.5 23.4-4 23.4-2.7 23.4-3.8 23.3-4.6 23.4-5.8 23.4-5.4 23.4-5.8" stroke="#B54526" stroke-opacity=".7" stroke-width=".5" fill="none" class="World_9-border"/><path stroke-linecap="round" d="M79.5 329.9l23.3-3.7 23.4-5.3 23.4-6.5 23.4-5.5 23.3-3.8 23.4-2.6 23.4-3 23.4-3.9 23.4-5.3 23.3-5.1 23.4-4.5 23.4-4.9 23.4-2.7 23.3-2.9 23.4-4.1 23.4-.9 23.4-2.5 23.4-3.4 23.3-3.6 23.4-4.1 23.4-2.7 23.4-3.9 23.3-4.8 23.4-5.9 23.4-5.5 23.4-5.9" stroke="#C0692B" stroke-opacity=".7" stroke-width=".5" fill="none" class="World_3-border"/><path stroke-linecap="round" d="M79.5 323.8l23.3-4 23.4-5.5 23.4-6.7 23.4-5.8 23.3-3.9 23.4-2.8 23.4-3.2 23.4-4.1 23.4-5.5 23.3-5.2 23.4-4.7 23.4-5 23.4-2.8 23.3-3.1 23.4-4.2 23.4-1.1 23.4-2.7 23.4-3.7 23.3-3.7 23.4-4.4 23.4-2.9 23.4-4.2 23.3-5 23.4-6.2 23.4-5.9 23.4-6.1" stroke="#CA8E30" stroke-opacity=".7" stroke-width=".5" fill="none" class="World_12-border"/><path stroke-linecap="round" d="M79.5 317.1l23.3-4.1 23.4-5.7 23.4-6.9 23.4-6 23.3-4.2 23.4-3 23.4-3.3 23.4-4.2 23.4-5.6 23.3-5.4 23.4-4.8 23.4-5.1 23.4-2.9 23.3-3.1 23.4-4.4 23.4-1.2 23.4-2.8 23.4-3.8 23.3-4 23.4-4.5 23.4-3.1 23.4-4.4 23.3-5.2 23.4-6.5 23.4-6.1 23.4-6.3" stroke="#D5B234" stroke-opacity=".7" stroke-width=".5" fill="none" class="World_1-border"/><path stroke-linecap="round" d="M79.5 311.7l23.3-4.3 23.4-5.8 23.4-7.1 23.4-6.1 23.3-4.3 23.4-3.1 23.4-3.4 23.4-4.4 23.4-5.7 23.3-5.4 23.4-5 23.4-5.2 23.4-2.9 23.3-3.2 23.4-4.5 23.4-1.3 23.4-3 23.4-3.9 23.3-4.1 23.4-4.7 23.4-3.3 23.4-4.6 23.3-5.3 23.4-6.7 23.4-6.3 23.4-6.5" stroke="#C1B144" stroke-opacity=".7" stroke-width=".5" fill="none" class="World_0-border"/><path stroke-linecap="round" d="M79.5 307.2l23.3-4.4 23.4-5.9 23.4-7.2 23.4-6.3 23.3-4.4 23.4-3.2 23.4-3.5 23.4-4.4 23.4-5.9 23.3-5.6 23.4-5L360 246l23.4-3 23.3-3.4 23.4-4.7 23.4-1.4 23.4-3.1 23.4-4.1 23.3-4.3 23.4-4.9 23.4-3.5 23.4-4.7 23.3-5.6 23.4-6.9 23.4-6.5 23.4-6.8" stroke="#ADAF54" stroke-opacity=".7" stroke-width=".5" fill="none" class="World_10-border"/><path stroke-linecap="round" d="M79.5 302.4l23.3-4.5 23.4-6 23.4-7.4 23.4-6.4 23.3-4.5 23.4-3.2 23.4-3.6 23.4-4.6 23.4-5.9 23.3-5.7 23.4-5.2L360 240l23.4-3.2 23.3-3.5 23.4-4.8 23.4-1.5 23.4-3.2 23.4-4.3 23.3-4.4 23.4-5 23.4-3.6 23.4-4.9 23.3-5.7 23.4-7 23.4-6.8 23.4-6.9" stroke="#99AD64" stroke-opacity=".7" stroke-width=".5" fill="none" class="World_15-border"/><path stroke-linecap="round" d="M79.5 299.2l23.3-4.6 23.4-6.2 23.4-7.4 23.4-6.5 23.3-4.6 23.4-3.3 23.4-3.7 23.4-4.6 23.4-6.1 23.3-5.8 23.4-5.3 23.4-5.6 23.4-3.3 23.3-3.6 23.4-5 23.4-1.5 23.4-3.4 23.4-4.4 23.3-4.5 23.4-5.2 23.4-3.7 23.4-5 23.3-5.9 23.4-7.2 23.4-6.8 23.4-7.2" stroke="#84AB73" stroke-opacity=".7" stroke-width=".5" fill="none" class="World_7-border"/><path stroke-linecap="round" d="M79.5 296.2l23.3-4.7 23.4-6.2 23.4-7.6 23.4-6.6 23.3-4.6 23.4-3.4 23.4-3.8 23.4-4.7 23.4-6.1 23.3-5.9 23.4-5.4 23.4-5.7 23.4-3.4 23.3-3.6 23.4-5.1 23.4-1.7 23.4-3.5 23.4-4.5 23.3-4.6 23.4-5.3 23.4-3.8 23.4-5.2 23.3-6 23.4-7.3 23.4-7.1 23.4-7.3" stroke="#6EA064" stroke-opacity=".7" stroke-width=".5" fill="none" class="World_14-border"/><path stroke-linecap="round" d="M79.5 292l23.3-4.7 23.4-6.4 23.4-7.6 23.4-6.7 23.3-4.7 23.4-3.4 23.4-3.7 23.4-4.7 23.4-6.2 23.3-6 23.4-5.4 23.4-5.7 23.4-3.3 23.3-3.7 23.4-5.1 23.4-1.7 23.4-3.5 23.4-4.6 23.3-4.6 23.4-5.4 23.4-3.8 23.4-5.2 23.3-6.1 23.4-7.4 23.4-7.2 23.4-7.4" stroke="#589555" stroke-opacity=".7" stroke-width=".5" fill="none" class="World_8-border"/><path stroke-linecap="round" d="M79.5 288.7l23.3-4.8 23.4-6.3 23.4-7.7 23.4-6.8 23.3-4.6 23.4-3.4 23.4-3.8 23.4-4.8 23.4-6.3 23.3-6 23.4-5.4 23.4-5.7 23.4-3.5 23.3-3.7 23.4-5.2 23.4-1.7 23.4-3.6 23.4-4.6 23.3-4.7 23.4-5.5 23.4-3.9 23.4-5.3 23.3-6.2 23.4-7.5 23.4-7.3 23.4-7.5" stroke="#428A45" stroke-opacity=".7" stroke-width=".5" fill="none" class="World_6-border"/><path stroke-linecap="round" d="M79.5 263.4l23.3-5.2 23.4-6.9 23.4-8.4 23.4-7.4 23.3-5.3 23.4-3.7 23.4-4.3 23.4-5.4 23.4-7.1 23.3-6.8 23.4-6 23.4-6.4 23.4-4.1 23.3-4.3 23.4-6 23.4-2.3 23.4-4.3 23.4-5.5 23.3-5.6L547 152l23.4-4.6 23.4-6.2 23.3-7.1 23.4-8.3 23.4-8.1 23.4-8.3" stroke="#2C7F35" stroke-opacity=".7" stroke-width=".5" fill="none" class="World_13-border"/></g></g></g><g class="SourcesFooter" fill="#777"><g class="clickable" fill="#777"><text font-size="12.6" x="15" y="581.6"><tspan x="15" y="581.58">Source: IHME, Global Burden of Disease (GBD)</tspan></text></g><text font-size="12.6" x="649" y="581.6"><tspan x="649.02" y="581.58"><a target="_blank" href="https://ourworldindata.org" fill="#777">OurWorldInData.org</a> • <a href="http://creativecommons.org/licenses/by-sa/4.0/deed.en_US" target="_blank" fill="#777">CC BY-SA</a></tspan></text></g></g></svg>