<svg xmlns="http://www.w3.org/2000/svg" version="1.1" style="background-color:#fff;-webkit-font-smoothing:antialiased" width="850" height="600" font-family="'Helvetica Neue',Helvetica,Arial,sans-serif" font-size="18" text-rendering="optimizeLegibility"><g class="ChartTab"><g class="HeaderView"><g opacity=".8" transform="matrix(.31 0 0 .31 770 15)"><a xmlns:xlink="http://www.w3.org/1999/xlink" xlink:href="https://ourworldindata.org" target="_blank"><g><path fill="#1B2543" d="M0 0h211.2v130.1H0z"/><path fill="#E63912" d="M0 112.2h211.2v17.9H0z"/><g><path fill="none" d="M1.2 12.3h210.2v99.2H1.2z"/><path fill="#FFF" d="M37.8 32.2c0 12.7-7.7 19.4-17.1 19.4-9.7 0-16.6-7.5-16.6-18.7 0-11.7 7.3-19.3 17.1-19.3 10.1.1 16.6 7.7 16.6 18.6zm-28.6.6c0 7.9 4.3 14.9 11.8 14.9 7.5 0 11.8-6.9 11.8-15.3 0-7.3-3.8-14.9-11.8-14.9-7.9 0-11.8 7.3-11.8 15.3zM62.7 43.8c0 2.7.1 5.1.2 7.2h-4.3l-.3-4.3h-.1c-1.3 2.1-4 4.9-8.8 4.9-4.2 0-9.1-2.3-9.1-11.6V24.6h4.8v14.6c0 5 1.5 8.4 5.9 8.4 3.2 0 5.5-2.2 6.3-4.4.3-.7.4-1.6.4-2.5V24.6h4.8v19.2zM67.3 32.8c0-3.1-.1-5.8-.2-8.2h4.2l.2 5.2h.2c1.2-3.5 4.1-5.8 7.3-5.8.5 0 .9.1 1.4.2v4.5c-.5-.1-1-.2-1.6-.2-3.4 0-5.8 2.6-6.5 6.2-.1.7-.2 1.4-.2 2.2V51h-4.8V32.8zM95.4 51L86 14.2h5l4.4 18.6c1.1 4.6 2.1 9.2 2.7 12.7h.1c.6-3.7 1.8-8 3-12.8l4.9-18.5h5l4.5 18.7c1 4.4 2 8.7 2.6 12.6h.1c.8-4 1.8-8.1 3-12.7l4.9-18.5h4.9L120.6 51h-5L111 31.9c-1.1-4.7-1.9-8.3-2.4-12h-.1c-.7 3.7-1.5 7.3-2.8 12L100.4 51h-5zM154.9 37.6c0 9.8-6.8 14-13.2 14-7.2 0-12.7-5.2-12.7-13.6 0-8.8 5.8-14 13.1-14 7.7 0 12.8 5.5 12.8 13.6zm-21 .3c0 5.8 3.3 10.1 8 10.1 4.6 0 8-4.3 8-10.3 0-4.5-2.2-10.1-7.9-10.1s-8.1 5.2-8.1 10.3zM158.2 32.8c0-3.1-.1-5.8-.2-8.2h4.2l.2 5.2h.2c1.2-3.5 4.1-5.8 7.3-5.8.5 0 .9.1 1.4.2v4.5c-.5-.1-1-.2-1.6-.2-3.4 0-5.8 2.6-6.5 6.2-.1.7-.2 1.4-.2 2.2V51h-4.8V32.8zM173.5 12.3h4.8V51h-4.8V12.3zM206.5 12.3v31.9c0 2.3.1 5 .2 6.8h-4.3l-.2-4.6h-.2c-1.5 2.9-4.7 5.2-9 5.2-6.4 0-11.3-5.4-11.3-13.4-.1-8.8 5.4-14.2 11.9-14.2 4 0 6.8 1.9 8 4h.1V12.3h4.8zm-4.8 23.1c0-.6-.1-1.4-.2-2a7 7 0 00-6.9-5.6c-5 0-7.9 4.4-7.9 10.2 0 5.3 2.6 9.8 7.8 9.8 3.2 0 6.2-2.1 7.1-5.7.2-.7.2-1.3.2-2.1v-4.6zM42.8 64c.1 1.6-1.1 2.9-3.1 2.9-1.7 0-2.9-1.3-2.9-2.9 0-1.7 1.3-3 3-3 1.9 0 3 1.3 3 3zm-5.4 33.8V71.4h4.8v26.4h-4.8zM47.5 78.6c0-2.7-.1-5-.2-7.1h4.3l.3 4.4h.1c1.3-2.5 4.4-5 8.8-5 3.7 0 9.4 2.2 9.4 11.2v15.8h-4.8V82.6c0-4.3-1.6-7.8-6.1-7.8-3.2 0-5.6 2.2-6.5 4.9-.2.6-.3 1.4-.3 2.2v15.9h-4.8V78.6zM84 61.6c2.9-.4 6.3-.8 10.1-.8 6.8 0 11.7 1.6 14.9 4.6 3.3 3 5.2 7.3 5.2 13.2 0 6-1.9 10.9-5.3 14.3-3.4 3.4-9.1 5.3-16.3 5.3-3.4 0-6.2-.2-8.6-.4V61.6zm4.8 32.5c1.2.2 3 .3 4.8.3 10.2 0 15.7-5.7 15.7-15.6.1-8.7-4.9-14.2-14.9-14.2-2.5 0-4.3.2-5.6.5v29zM132.1 97.8l-.4-3.3h-.2a9.79 9.79 0 01-8.1 3.9c-5.4 0-8.1-3.8-8.1-7.6 0-6.4 5.7-9.9 15.9-9.8v-.5c0-2.2-.6-6.1-6-6.1-2.5 0-5 .8-6.9 2l-1.1-3.2c2.2-1.4 5.4-2.3 8.7-2.3 8.1 0 10.1 5.5 10.1 10.8v9.9c0 2.3.1 4.5.4 6.3h-4.3zm-.7-13.4c-5.3-.1-11.2.8-11.2 5.9 0 3.1 2.1 4.6 4.5 4.6 3.4 0 5.6-2.2 6.4-4.4.2-.5.3-1 .3-1.5v-4.6zM146.6 63.9v7.6h6.9v3.7h-6.9v14.2c0 3.3.9 5.1 3.6 5.1 1.3 0 2.2-.2 2.8-.3l.2 3.6c-.9.4-2.4.7-4.3.7-2.2 0-4-.7-5.2-2-1.4-1.4-1.9-3.8-1.9-6.9V75.1h-4.1v-3.7h4.1v-6.3l4.8-1.2zM171.4 97.8l-.4-3.3h-.2a9.79 9.79 0 01-8.1 3.9c-5.4 0-8.1-3.8-8.1-7.6 0-6.4 5.7-9.9 15.9-9.8v-.5c0-2.2-.6-6.1-6-6.1-2.5 0-5 .8-6.9 2l-1.1-3.2c2.2-1.4 5.4-2.3 8.7-2.3 8.1 0 10.1 5.5 10.1 10.8v9.9c0 2.3.1 4.5.4 6.3h-4.3zm-.7-13.4c-5.3-.1-11.2.8-11.2 5.9 0 3.1 2.1 4.6 4.5 4.6 3.4 0 5.6-2.2 6.4-4.4.2-.5.3-1 .3-1.5v-4.6z"/></g></g></a></g><a href="https://ourworldindata.org/grapher/causes-of-death-in-15-49-year-olds" target="_blank"><text font-size="27" x="15" y="36.6" fill="#555"><tspan x="15" y="36.6">Causes of death in 15-49 year olds, World, 2016</tspan></text></a><text font-size="14.4" x="15" y="55.5" fill="#666"><tspan x="15" y="55.52">Annual number of deaths by cause in children aged 15 to 49 years old, across both sexes. Data refers to the</tspan><tspan x="15" y="71.36">specific cause of death,which is distinguished from risk factors for death, such as air pollution, diet and other lifestyle</tspan><tspan x="15" y="87.2">factors. See sources for further details on definitions of specific cause categories. Data on deaths related to</tspan><tspan x="15" y="103.04">terrorism and executions are not available by age group, so have been excluded.</tspan></text></g><g class="DiscreteBarChart"><g class="HorizontalAxis" fill="#666" text-anchor="middle" font-size="16.2"><text x="303.6" y="556.5">0</text><text x="371" y="556.5">200,000</text><text x="438.5" y="556.5">400,000</text><text x="505.9" y="556.5">600,000</text><text x="573.4" y="556.5">800,000</text><text x="708.3" y="556.5">1.2 million</text></g><g class="AxisGridLines"><path stroke="#ccc" d="M303.6 535.3V124.9"/><path stroke="#ddd" stroke-dasharray="3,2" d="M371 535.3V124.9M438.5 535.3V124.9M505.9 535.3V124.9M573.4 535.3V124.9M640.8 535.3V124.9M708.3 535.3V124.9"/></g><g class="bar"><text x="298.56" y="131.21" fill="#666" dominant-baseline="middle" text-anchor="end" font-size="13.5">Cardiovascular disease</text><path fill="#F2585B" opacity=".85" d="M303.6 124.9h453v12.63h-453z"/><text x="761.6" y="131.21" fill="#666" dominant-baseline="middle" text-anchor="start" font-size="13.5">1.34 million</text></g><g class="bar"><text x="298.56" y="147" fill="#666" dominant-baseline="middle" text-anchor="end" font-size="13.5">Cancers</text><path fill="#F2585B" opacity=".85" d="M303.6 140.68h371.8v12.63H303.6z"/><text x="680.4" y="147" fill="#666" dominant-baseline="middle" text-anchor="start" font-size="13.5">1.1 million</text></g><g class="bar"><text x="298.56" y="162.78" fill="#666" dominant-baseline="middle" text-anchor="end" font-size="13.5">HIV/AIDS</text><path fill="#F2585B" opacity=".85" d="M303.6 156.47h259v12.63h-259z"/><text x="567.6" y="162.78" fill="#666" dominant-baseline="middle" text-anchor="start" font-size="13.5">767,944.53</text></g><g class="bar"><text x="298.56" y="178.57" fill="#666" dominant-baseline="middle" text-anchor="end" font-size="13.5">Road accidents</text><path fill="#F2585B" opacity=".85" d="M303.6 172.25h258.1v12.63H303.6z"/><text x="566.7" y="178.57" fill="#666" dominant-baseline="middle" text-anchor="start" font-size="13.5">765,415.5</text></g><g class="bar"><text x="298.56" y="194.35" fill="#666" dominant-baseline="middle" text-anchor="end" font-size="13.5">Suicide</text><path fill="#F2585B" opacity=".85" d="M303.6 188.04h164v12.63h-164z"/><text x="472.6" y="194.35" fill="#666" dominant-baseline="middle" text-anchor="start" font-size="13.5">486,294.46</text></g><g class="bar"><text x="298.56" y="210.14" fill="#666" dominant-baseline="middle" text-anchor="end" font-size="13.5">Tuberculosis</text><path fill="#F2585B" opacity=".85" d="M303.6 203.82h141.5v12.63H303.6z"/><text x="450.1" y="210.14" fill="#666" dominant-baseline="middle" text-anchor="start" font-size="13.5">419,583.99</text></g><g class="bar"><text x="298.56" y="225.92" fill="#666" dominant-baseline="middle" text-anchor="end" font-size="13.5">Diabetes, blood, and endocrine diseases</text><path fill="#F2585B" opacity=".85" d="M303.6 219.61h129.1v12.63H303.6z"/><text x="437.7" y="225.92" fill="#666" dominant-baseline="middle" text-anchor="start" font-size="13.5">382,957.78</text></g><g class="bar"><text x="298.56" y="241.71" fill="#666" dominant-baseline="middle" text-anchor="end" font-size="13.5">Liver disease</text><path fill="#F2585B" opacity=".85" d="M303.6 235.39h113.9v12.63H303.6z"/><text x="422.5" y="241.71" fill="#666" dominant-baseline="middle" text-anchor="start" font-size="13.5">337,777.64</text></g><g class="bar"><text x="298.56" y="257.49" fill="#666" dominant-baseline="middle" text-anchor="end" font-size="13.5">Homicide</text><path fill="#F2585B" opacity=".85" d="M303.6 251.18h99.5v12.63h-99.5z"/><text x="408.1" y="257.49" fill="#666" dominant-baseline="middle" text-anchor="start" font-size="13.5">295,211.81</text></g><g class="bar"><text x="298.56" y="273.28" fill="#666" dominant-baseline="middle" text-anchor="end" font-size="13.5">Lower respiratory infections</text><path fill="#F2585B" opacity=".85" d="M303.6 266.96h65.5v12.63h-65.5z"/><text x="374.1" y="273.28" fill="#666" dominant-baseline="middle" text-anchor="start" font-size="13.5">194,296.78</text></g><g class="bar"><text x="298.56" y="289.06" fill="#666" dominant-baseline="middle" text-anchor="end" font-size="13.5">Diarrheal diseases</text><path fill="#F2585B" opacity=".85" d="M303.6 282.75h61v12.63h-61z"/><text x="369.6" y="289.06" fill="#666" dominant-baseline="middle" text-anchor="start" font-size="13.5">181,116.77</text></g><g class="bar"><text x="298.56" y="304.84" fill="#666" dominant-baseline="middle" text-anchor="end" font-size="13.5">Digestive diseases</text><path fill="#F2585B" opacity=".85" d="M303.6 298.53h59.7v12.63h-59.7z"/><text x="368.3" y="304.84" fill="#666" dominant-baseline="middle" text-anchor="start" font-size="13.5">177,178.86</text></g><g class="bar"><text x="298.56" y="320.63" fill="#666" dominant-baseline="middle" text-anchor="end" font-size="13.5">Respiratory disease</text><path fill="#F2585B" opacity=".85" d="M303.6 314.32h58.5v12.63h-58.5z"/><text x="367.1" y="320.63" fill="#666" dominant-baseline="middle" text-anchor="start" font-size="13.5">173,452.57</text></g><g class="bar"><text x="298.56" y="336.41" fill="#666" dominant-baseline="middle" text-anchor="end" font-size="13.5">Kidney disease</text><path fill="#F2585B" opacity=".85" d="M303.6 330.1h55.3v12.63h-55.3z"/><text x="363.9" y="336.41" fill="#666" dominant-baseline="middle" text-anchor="start" font-size="13.5">163,979.78</text></g><g class="bar"><text x="298.56" y="352.2" fill="#666" dominant-baseline="middle" text-anchor="end" font-size="13.5">Drowning</text><path fill="#F2585B" opacity=".85" d="M303.6 345.88h40v12.63h-40z"/><text x="348.6" y="352.2" fill="#666" dominant-baseline="middle" text-anchor="start" font-size="13.5">118,740.87</text></g><g class="bar"><text x="298.56" y="367.98" fill="#666" dominant-baseline="middle" text-anchor="end" font-size="13.5">Drug disorder</text><path fill="#F2585B" opacity=".85" d="M303.6 361.67h28.3v12.63h-28.3z"/><text x="336.9" y="367.98" fill="#666" dominant-baseline="middle" text-anchor="start" font-size="13.5">84,174.3</text></g><g class="bar"><text x="298.56" y="383.77" fill="#666" dominant-baseline="middle" text-anchor="end" font-size="13.5">Alcohol disorder</text><path fill="#F2585B" opacity=".85" d="M303.6 377.45h25.8v12.63h-25.8z"/><text x="334.4" y="383.77" fill="#666" dominant-baseline="middle" text-anchor="start" font-size="13.5">76,728.11</text></g><g class="bar"><text x="298.56" y="399.55" fill="#666" dominant-baseline="middle" text-anchor="end" font-size="13.5">Malaria</text><path fill="#F2585B" opacity=".85" d="M303.6 393.24h23.3v12.63h-23.3z"/><text x="331.9" y="399.55" fill="#666" dominant-baseline="middle" text-anchor="start" font-size="13.5">69,181.52</text></g><g class="bar"><text x="298.56" y="415.34" fill="#666" dominant-baseline="middle" text-anchor="end" font-size="13.5">Hepatitis</text><path fill="#F2585B" opacity=".85" d="M303.6 409.02h17.3v12.63h-17.3z"/><text x="325.9" y="415.34" fill="#666" dominant-baseline="middle" text-anchor="start" font-size="13.5">51,565.5</text></g><g class="bar"><text x="298.56" y="431.12" fill="#666" dominant-baseline="middle" text-anchor="end" font-size="13.5">Fire</text><path fill="#F2585B" opacity=".85" d="M303.6 424.81h15.9v12.63h-15.9z"/><text x="324.5" y="431.12" fill="#666" dominant-baseline="middle" text-anchor="start" font-size="13.5">47,253.38</text></g><g class="bar"><text x="298.56" y="446.91" fill="#666" dominant-baseline="middle" text-anchor="end" font-size="13.5">Nutritional deficiencies</text><path fill="#F2585B" opacity=".85" d="M303.6 440.59H314v12.63h-10.4z"/><text x="319" y="446.91" fill="#666" dominant-baseline="middle" text-anchor="start" font-size="13.5">30,884.38</text></g><g class="bar"><text x="298.56" y="462.69" fill="#666" dominant-baseline="middle" text-anchor="end" font-size="13.5">Protein-energy malnutrition</text><path fill="#F2585B" opacity=".85" d="M303.6 456.38h6.1v12.63h-6.1z"/><text x="314.7" y="462.69" fill="#666" dominant-baseline="middle" text-anchor="start" font-size="13.5">18,210.85</text></g><g class="bar"><text x="298.56" y="478.48" fill="#666" dominant-baseline="middle" text-anchor="end" font-size="13.5">Heat-related deaths (hot or cold exposure)</text><path fill="#F2585B" opacity=".85" d="M303.6 472.16h5.7v12.63h-5.7z"/><text x="314.3" y="478.48" fill="#666" dominant-baseline="middle" text-anchor="start" font-size="13.5">16,899.03</text></g><g class="bar"><text x="298.56" y="494.26" fill="#666" dominant-baseline="middle" text-anchor="end" font-size="13.5">Natural disasters</text><path fill="#F2585B" opacity=".85" d="M303.6 487.95h1.1v12.63h-1.1z"/><text x="309.7" y="494.26" fill="#666" dominant-baseline="middle" text-anchor="start" font-size="13.5">3,453.16</text></g><g class="bar"><text x="298.56" y="510.04" fill="#666" dominant-baseline="middle" text-anchor="end" font-size="13.5">Dementia</text><path fill="#F2585B" opacity=".85" d="M303.6 503.73h.8v12.63h-.8z"/><text x="309.4" y="510.04" fill="#666" dominant-baseline="middle" text-anchor="start" font-size="13.5">2,637.07</text></g><g class="bar"><text x="298.56" y="525.83" fill="#666" dominant-baseline="middle" text-anchor="end" font-size="13.5">Parkinson&apos;s disease</text><path fill="#F2585B" opacity=".85" d="M303.6 519.52h.5v12.63h-.5z"/><text x="309.1" y="525.83" fill="#666" dominant-baseline="middle" text-anchor="start" font-size="13.5">1,501.57</text></g></g><g class="SourcesFooter" fill="#777"><g class="clickable" fill="#777"><text font-size="12.6" x="15" y="581.6"><tspan x="15" y="581.58">Source: IHME, Global Burden of Disease (GBD)</tspan></text></g><text font-size="12.6" x="551.2" y="581.6"><tspan x="551.25" y="581.58"><a target="_blank" href="https://ourworldindata.org/causes-of-death/" fill="#777">OurWorldInData.org/causes-of-death/</a> • <a href="http://creativecommons.org/licenses/by-sa/4.0/deed.en_US" target="_blank" fill="#777">CC BY-SA</a></tspan></text></g></g></svg>