<svg xmlns="http://www.w3.org/2000/svg" version="1.1" style="background-color:#fff;-webkit-font-smoothing:antialiased" width="850" height="600" font-family="'Helvetica Neue',Helvetica,Arial,sans-serif" font-size="18" text-rendering="optimizeLegibility"><g class="ChartTab"><g class="HeaderView"><g opacity=".8" transform="matrix(.31 0 0 .31 770 15)"><a xmlns:xlink="http://www.w3.org/1999/xlink" xlink:href="https://ourworldindata.org" target="_blank"><g><path fill="#1B2543" d="M0 0h211.2v130.1H0z"/><path fill="#E63912" d="M0 112.2h211.2v17.9H0z"/><g><path fill="none" d="M1.2 12.3h210.2v99.2H1.2z"/><path fill="#FFF" d="M37.8 32.2c0 12.7-7.7 19.4-17.1 19.4-9.7 0-16.6-7.5-16.6-18.7 0-11.7 7.3-19.3 17.1-19.3 10.1.1 16.6 7.7 16.6 18.6zm-28.6.6c0 7.9 4.3 14.9 11.8 14.9 7.5 0 11.8-6.9 11.8-15.3 0-7.3-3.8-14.9-11.8-14.9-7.9 0-11.8 7.3-11.8 15.3zM62.7 43.8c0 2.7.1 5.1.2 7.2h-4.3l-.3-4.3h-.1c-1.3 2.1-4 4.9-8.8 4.9-4.2 0-9.1-2.3-9.1-11.6V24.6h4.8v14.6c0 5 1.5 8.4 5.9 8.4 3.2 0 5.5-2.2 6.3-4.4.3-.7.4-1.6.4-2.5V24.6h4.8v19.2zM67.3 32.8c0-3.1-.1-5.8-.2-8.2h4.2l.2 5.2h.2c1.2-3.5 4.1-5.8 7.3-5.8.5 0 .9.1 1.4.2v4.5c-.5-.1-1-.2-1.6-.2-3.4 0-5.8 2.6-6.5 6.2-.1.7-.2 1.4-.2 2.2V51h-4.8V32.8zM95.4 51L86 14.2h5l4.4 18.6c1.1 4.6 2.1 9.2 2.7 12.7h.1c.6-3.7 1.8-8 3-12.8l4.9-18.5h5l4.5 18.7c1 4.4 2 8.7 2.6 12.6h.1c.8-4 1.8-8.1 3-12.7l4.9-18.5h4.9L120.6 51h-5L111 31.9c-1.1-4.7-1.9-8.3-2.4-12h-.1c-.7 3.7-1.5 7.3-2.8 12L100.4 51h-5zM154.9 37.6c0 9.8-6.8 14-13.2 14-7.2 0-12.7-5.2-12.7-13.6 0-8.8 5.8-14 13.1-14 7.7 0 12.8 5.5 12.8 13.6zm-21 .3c0 5.8 3.3 10.1 8 10.1 4.6 0 8-4.3 8-10.3 0-4.5-2.2-10.1-7.9-10.1s-8.1 5.2-8.1 10.3zM158.2 32.8c0-3.1-.1-5.8-.2-8.2h4.2l.2 5.2h.2c1.2-3.5 4.1-5.8 7.3-5.8.5 0 .9.1 1.4.2v4.5c-.5-.1-1-.2-1.6-.2-3.4 0-5.8 2.6-6.5 6.2-.1.7-.2 1.4-.2 2.2V51h-4.8V32.8zM173.5 12.3h4.8V51h-4.8V12.3zM206.5 12.3v31.9c0 2.3.1 5 .2 6.8h-4.3l-.2-4.6h-.2c-1.5 2.9-4.7 5.2-9 5.2-6.4 0-11.3-5.4-11.3-13.4-.1-8.8 5.4-14.2 11.9-14.2 4 0 6.8 1.9 8 4h.1V12.3h4.8zm-4.8 23.1c0-.6-.1-1.4-.2-2a7 7 0 00-6.9-5.6c-5 0-7.9 4.4-7.9 10.2 0 5.3 2.6 9.8 7.8 9.8 3.2 0 6.2-2.1 7.1-5.7.2-.7.2-1.3.2-2.1v-4.6zM42.8 64c.1 1.6-1.1 2.9-3.1 2.9-1.7 0-2.9-1.3-2.9-2.9 0-1.7 1.3-3 3-3 1.9 0 3 1.3 3 3zm-5.4 33.8V71.4h4.8v26.4h-4.8zM47.5 78.6c0-2.7-.1-5-.2-7.1h4.3l.3 4.4h.1c1.3-2.5 4.4-5 8.8-5 3.7 0 9.4 2.2 9.4 11.2v15.8h-4.8V82.6c0-4.3-1.6-7.8-6.1-7.8-3.2 0-5.6 2.2-6.5 4.9-.2.6-.3 1.4-.3 2.2v15.9h-4.8V78.6zM84 61.6c2.9-.4 6.3-.8 10.1-.8 6.8 0 11.7 1.6 14.9 4.6 3.3 3 5.2 7.3 5.2 13.2 0 6-1.9 10.9-5.3 14.3-3.4 3.4-9.1 5.3-16.3 5.3-3.4 0-6.2-.2-8.6-.4V61.6zm4.8 32.5c1.2.2 3 .3 4.8.3 10.2 0 15.7-5.7 15.7-15.6.1-8.7-4.9-14.2-14.9-14.2-2.5 0-4.3.2-5.6.5v29zM132.1 97.8l-.4-3.3h-.2a9.79 9.79 0 01-8.1 3.9c-5.4 0-8.1-3.8-8.1-7.6 0-6.4 5.7-9.9 15.9-9.8v-.5c0-2.2-.6-6.1-6-6.1-2.5 0-5 .8-6.9 2l-1.1-3.2c2.2-1.4 5.4-2.3 8.7-2.3 8.1 0 10.1 5.5 10.1 10.8v9.9c0 2.3.1 4.5.4 6.3h-4.3zm-.7-13.4c-5.3-.1-11.2.8-11.2 5.9 0 3.1 2.1 4.6 4.5 4.6 3.4 0 5.6-2.2 6.4-4.4.2-.5.3-1 .3-1.5v-4.6zM146.6 63.9v7.6h6.9v3.7h-6.9v14.2c0 3.3.9 5.1 3.6 5.1 1.3 0 2.2-.2 2.8-.3l.2 3.6c-.9.4-2.4.7-4.3.7-2.2 0-4-.7-5.2-2-1.4-1.4-1.9-3.8-1.9-6.9V75.1h-4.1v-3.7h4.1v-6.3l4.8-1.2zM171.4 97.8l-.4-3.3h-.2a9.79 9.79 0 01-8.1 3.9c-5.4 0-8.1-3.8-8.1-7.6 0-6.4 5.7-9.9 15.9-9.8v-.5c0-2.2-.6-6.1-6-6.1-2.5 0-5 .8-6.9 2l-1.1-3.2c2.2-1.4 5.4-2.3 8.7-2.3 8.1 0 10.1 5.5 10.1 10.8v9.9c0 2.3.1 4.5.4 6.3h-4.3zm-.7-13.4c-5.3-.1-11.2.8-11.2 5.9 0 3.1 2.1 4.6 4.5 4.6 3.4 0 5.6-2.2 6.4-4.4.2-.5.3-1 .3-1.5v-4.6z"/></g></g></a></g><a href="https://ourworldindata.org/grapher/causes-of-death-in-5-14-year-olds" target="_blank"><text font-size="27" x="15" y="36.6" fill="#555"><tspan x="15" y="36.6">Causes of death in 5-14 year olds, World, 2016</tspan></text></a><text font-size="14.4" x="15" y="55.5" fill="#666"><tspan x="15" y="55.52">Annual number of deaths by cause in children aged 5 to 14 years old, across both sexes. Data refers to the specific</tspan><tspan x="15" y="71.36">cause of death, which is distinguished from risk factors for death, such as air pollution, diet and other lifestyle</tspan><tspan x="15" y="87.2">factors. See sources for further details on definitions of specific cause categories. Data on deaths related to</tspan><tspan x="15" y="103.04">terrorism and executions are not available by age group, so have been excluded.</tspan></text></g><g class="DiscreteBarChart"><g class="HorizontalAxis" fill="#666" text-anchor="middle" font-size="16.2"><text x="303.6" y="556.5">0</text><text x="375.3" y="556.5">10,000</text><text x="447" y="556.5">20,000</text><text x="518.7" y="556.5">30,000</text><text x="590.5" y="556.5">40,000</text><text x="662.2" y="556.5">50,000</text><text x="733.9" y="556.5">60,000</text></g><g class="AxisGridLines"><path stroke="#ccc" d="M303.6 535.3V124.9"/><path stroke="#ddd" stroke-dasharray="3,2" d="M375.3 535.3V124.9M447 535.3V124.9M518.7 535.3V124.9M590.5 535.3V124.9M662.2 535.3V124.9M733.9 535.3V124.9"/></g><g class="bar"><text x="298.56" y="132.36" fill="#666" dominant-baseline="middle" text-anchor="end" font-size="13.5">Malaria</text><path fill="#F2585B" opacity=".85" d="M303.6 124.9h479.8v14.92H303.6z"/><text x="788.4" y="132.36" fill="#666" dominant-baseline="middle" text-anchor="start" font-size="13.5">66,901</text></g><g class="bar"><text x="298.56" y="151.02" fill="#666" dominant-baseline="middle" text-anchor="end" font-size="13.5">Road accidents</text><path fill="#F2585B" opacity=".85" d="M303.6 143.55H749v14.92H303.6z"/><text x="754" y="151.02" fill="#666" dominant-baseline="middle" text-anchor="start" font-size="13.5">62,108</text></g><g class="bar"><text x="298.56" y="169.67" fill="#666" dominant-baseline="middle" text-anchor="end" font-size="13.5">HIV/AIDS</text><path fill="#F2585B" opacity=".85" d="M303.6 162.21h375v14.92h-375z"/><text x="683.6" y="169.67" fill="#666" dominant-baseline="middle" text-anchor="start" font-size="13.5">52,285</text></g><g class="bar"><text x="298.56" y="188.33" fill="#666" dominant-baseline="middle" text-anchor="end" font-size="13.5">Cancers</text><path fill="#F2585B" opacity=".85" d="M303.6 180.86h373.1v14.92H303.6z"/><text x="681.7" y="188.33" fill="#666" dominant-baseline="middle" text-anchor="start" font-size="13.5">52,020</text></g><g class="bar"><text x="298.56" y="206.98" fill="#666" dominant-baseline="middle" text-anchor="end" font-size="13.5">Lower respiratory infections</text><path fill="#F2585B" opacity=".85" d="M303.6 199.52h371.1v14.92H303.6z"/><text x="679.7" y="206.98" fill="#666" dominant-baseline="middle" text-anchor="start" font-size="13.5">51,739</text></g><g class="bar"><text x="298.56" y="225.63" fill="#666" dominant-baseline="middle" text-anchor="end" font-size="13.5">Diarrheal diseases</text><path fill="#F2585B" opacity=".85" d="M303.6 218.17h369.5v14.92H303.6z"/><text x="678.1" y="225.63" fill="#666" dominant-baseline="middle" text-anchor="start" font-size="13.5">51,523</text></g><g class="bar"><text x="298.56" y="244.29" fill="#666" dominant-baseline="middle" text-anchor="end" font-size="13.5">Drowning</text><path fill="#F2585B" opacity=".85" d="M303.6 236.83h352.3v14.92H303.6z"/><text x="660.9" y="244.29" fill="#666" dominant-baseline="middle" text-anchor="start" font-size="13.5">49,123</text></g><g class="bar"><text x="298.56" y="262.94" fill="#666" dominant-baseline="middle" text-anchor="end" font-size="13.5">Diabetes, blood, and endocrine diseases</text><path fill="#F2585B" opacity=".85" d="M303.6 255.48h185.2v14.92H303.6z"/><text x="493.8" y="262.94" fill="#666" dominant-baseline="middle" text-anchor="start" font-size="13.5">25,819</text></g><g class="bar"><text x="298.56" y="281.6" fill="#666" dominant-baseline="middle" text-anchor="end" font-size="13.5">Cardiovascular disease</text><path fill="#F2585B" opacity=".85" d="M303.6 274.14H436v14.92H303.6z"/><text x="441" y="281.6" fill="#666" dominant-baseline="middle" text-anchor="start" font-size="13.5">18,469</text></g><g class="bar"><text x="298.56" y="300.25" fill="#666" dominant-baseline="middle" text-anchor="end" font-size="13.5">Tuberculosis</text><path fill="#F2585B" opacity=".85" d="M303.6 292.79h95.5v14.92h-95.5z"/><text x="404.1" y="300.25" fill="#666" dominant-baseline="middle" text-anchor="start" font-size="13.5">13,315</text></g><g class="bar"><text x="298.56" y="318.91" fill="#666" dominant-baseline="middle" text-anchor="end" font-size="13.5">Nutritional deficiencies</text><path fill="#F2585B" opacity=".85" d="M303.6 311.45h93v14.92h-93z"/><text x="401.6" y="318.91" fill="#666" dominant-baseline="middle" text-anchor="start" font-size="13.5">12,966</text></g><g class="bar"><text x="298.56" y="337.56" fill="#666" dominant-baseline="middle" text-anchor="end" font-size="13.5">Digestive diseases</text><path fill="#F2585B" opacity=".85" d="M303.6 330.1h87.6v14.92h-87.6z"/><text x="396.2" y="337.56" fill="#666" dominant-baseline="middle" text-anchor="start" font-size="13.5">12,224</text></g><g class="bar"><text x="298.56" y="356.22" fill="#666" dominant-baseline="middle" text-anchor="end" font-size="13.5">Homicide</text><path fill="#F2585B" opacity=".85" d="M303.6 348.75h80.7v14.92h-80.7z"/><text x="389.3" y="356.22" fill="#666" dominant-baseline="middle" text-anchor="start" font-size="13.5">11,253</text></g><g class="bar"><text x="298.56" y="374.87" fill="#666" dominant-baseline="middle" text-anchor="end" font-size="13.5">Protein-energy malnutrition</text><path fill="#F2585B" opacity=".85" d="M303.6 367.41h80.3v14.92h-80.3z"/><text x="388.9" y="374.87" fill="#666" dominant-baseline="middle" text-anchor="start" font-size="13.5">11,198</text></g><g class="bar"><text x="298.56" y="393.53" fill="#666" dominant-baseline="middle" text-anchor="end" font-size="13.5">Suicide</text><path fill="#F2585B" opacity=".85" d="M303.6 386.06h57.2v14.92h-57.2z"/><text x="365.8" y="393.53" fill="#666" dominant-baseline="middle" text-anchor="start" font-size="13.5">7,975</text></g><g class="bar"><text x="298.56" y="412.18" fill="#666" dominant-baseline="middle" text-anchor="end" font-size="13.5">Respiratory disease</text><path fill="#F2585B" opacity=".85" d="M303.6 404.72h51.7v14.92h-51.7z"/><text x="360.3" y="412.18" fill="#666" dominant-baseline="middle" text-anchor="start" font-size="13.5">7,215</text></g><g class="bar"><text x="298.56" y="430.83" fill="#666" dominant-baseline="middle" text-anchor="end" font-size="13.5">Fire</text><path fill="#F2585B" opacity=".85" d="M303.6 423.37h51.3v14.92h-51.3z"/><text x="359.9" y="430.83" fill="#666" dominant-baseline="middle" text-anchor="start" font-size="13.5">7,162</text></g><g class="bar"><text x="298.56" y="449.49" fill="#666" dominant-baseline="middle" text-anchor="end" font-size="13.5">Kidney disease</text><path fill="#F2585B" opacity=".85" d="M303.6 442.03h48.8v14.92h-48.8z"/><text x="357.4" y="449.49" fill="#666" dominant-baseline="middle" text-anchor="start" font-size="13.5">6,808</text></g><g class="bar"><text x="298.56" y="468.14" fill="#666" dominant-baseline="middle" text-anchor="end" font-size="13.5">Liver disease</text><path fill="#F2585B" opacity=".85" d="M303.6 460.68h47.1v14.92h-47.1z"/><text x="355.7" y="468.14" fill="#666" dominant-baseline="middle" text-anchor="start" font-size="13.5">6,577</text></g><g class="bar"><text x="298.56" y="486.8" fill="#666" dominant-baseline="middle" text-anchor="end" font-size="13.5">Hepatitis</text><path fill="#F2585B" opacity=".85" d="M303.6 479.34h39.5v14.92h-39.5z"/><text x="348.1" y="486.8" fill="#666" dominant-baseline="middle" text-anchor="start" font-size="13.5">5,518</text></g><g class="bar"><text x="298.56" y="505.45" fill="#666" dominant-baseline="middle" text-anchor="end" font-size="13.5">Heat-related deaths (hot or cold exposure)</text><path fill="#F2585B" opacity=".85" d="M303.6 497.99h7.8v14.92h-7.8z"/><text x="316.4" y="505.45" fill="#666" dominant-baseline="middle" text-anchor="start" font-size="13.5">1,088</text></g><g class="bar"><text x="298.56" y="524.11" fill="#666" dominant-baseline="middle" text-anchor="end" font-size="13.5">Natural disasters</text><path fill="#F2585B" opacity=".85" d="M303.6 516.65h6.8v14.92h-6.8z"/><text x="315.4" y="524.11" fill="#666" dominant-baseline="middle" text-anchor="start" font-size="13.5">956</text></g></g><g class="SourcesFooter" fill="#777"><g class="clickable" fill="#777"><text font-size="12.6" x="15" y="581.6"><tspan x="15" y="581.58">Source: IHME, Global Burden of Disease (GBD)</tspan></text></g><text font-size="12.6" x="551.2" y="581.6"><tspan x="551.25" y="581.58"><a target="_blank" href="https://ourworldindata.org/causes-of-death/" fill="#777">OurWorldInData.org/causes-of-death/</a> • <a href="http://creativecommons.org/licenses/by-sa/4.0/deed.en_US" target="_blank" fill="#777">CC BY-SA</a></tspan></text></g></g></svg>