<svg xmlns="http://www.w3.org/2000/svg" version="1.1" style="font-family: 'Helvetica Neue', Helvetica, Arial, sans-serif; font-size: 18px; background-color: white; text-rendering: optimizeLegibility; -webkit-font-smoothing: antialiased;" width="850" height="600"><g class="ChartTab"><g class="HeaderView"><g opacity="0.8" transform="translate(770, 15) scale(0.31)"><a xmlns:xlink="http://www.w3.org/1999/xlink" xlink:href="https://ourworldindata.org" target="_blank"><g><rect x="0" y="0" fill="#1B2543" width="211.2" height="130.1"/><rect x="0" y="112.2" fill="#E63912" width="211.2" height="17.9"/><g><rect x="1.2" y="12.3" fill="none" width="210.2" height="99.2"/><path fill="#FFFFFF" d="M37.8,32.2c0,12.7-7.7,19.4-17.1,19.4c-9.7,0-16.6-7.5-16.6-18.7c0-11.7,7.3-19.3,17.1-19.3 C31.3,13.7,37.8,21.3,37.8,32.2z M9.2,32.8c0,7.9,4.3,14.9,11.8,14.9c7.5,0,11.8-6.9,11.8-15.3c0-7.3-3.8-14.9-11.8-14.9 C13.1,17.5,9.2,24.8,9.2,32.8z"/><path fill="#FFFFFF" d="M62.7,43.8c0,2.7,0.1,5.1,0.2,7.2h-4.3l-0.3-4.3h-0.1c-1.3,2.1-4,4.9-8.8,4.9c-4.2,0-9.1-2.3-9.1-11.6 V24.6h4.8v14.6c0,5,1.5,8.4,5.9,8.4c3.2,0,5.5-2.2,6.3-4.4c0.3-0.7,0.4-1.6,0.4-2.5V24.6h4.8V43.8z"/><path fill="#FFFFFF" d="M67.3,32.8c0-3.1-0.1-5.8-0.2-8.2h4.2l0.2,5.2h0.2c1.2-3.5,4.1-5.8,7.3-5.8c0.5,0,0.9,0.1,1.4,0.2v4.5 c-0.5-0.1-1-0.2-1.6-0.2c-3.4,0-5.8,2.6-6.5,6.2c-0.1,0.7-0.2,1.4-0.2,2.2V51h-4.8V32.8z"/><path fill="#FFFFFF" d="M95.4,51l-9.4-36.8h5l4.4,18.6c1.1,4.6,2.1,9.2,2.7,12.7h0.1c0.6-3.7,1.8-8,3-12.8l4.9-18.5h5l4.5,18.7 c1,4.4,2,8.7,2.6,12.6h0.1c0.8-4,1.8-8.1,3-12.7l4.9-18.5h4.9L120.6,51h-5L111,31.9c-1.1-4.7-1.9-8.3-2.4-12h-0.1 c-0.7,3.7-1.5,7.3-2.8,12L100.4,51H95.4z"/><path fill="#FFFFFF" d="M154.9,37.6c0,9.8-6.8,14-13.2,14c-7.2,0-12.7-5.2-12.7-13.6c0-8.8,5.8-14,13.1-14 C149.8,24,154.9,29.5,154.9,37.6z M133.9,37.9c0,5.8,3.3,10.1,8,10.1c4.6,0,8-4.3,8-10.3c0-4.5-2.2-10.1-7.9-10.1 C136.3,27.6,133.9,32.8,133.9,37.9z"/><path fill="#FFFFFF" d="M158.2,32.8c0-3.1-0.1-5.8-0.2-8.2h4.2l0.2,5.2h0.2c1.2-3.5,4.1-5.8,7.3-5.8c0.5,0,0.9,0.1,1.4,0.2v4.5 c-0.5-0.1-1-0.2-1.6-0.2c-3.4,0-5.8,2.6-6.5,6.2c-0.1,0.7-0.2,1.4-0.2,2.2V51h-4.8V32.8z"/><path fill="#FFFFFF" d="M173.5,12.3h4.8V51h-4.8V12.3z"/><path fill="#FFFFFF" d="M206.5,12.3v31.9c0,2.3,0.1,5,0.2,6.8h-4.3l-0.2-4.6H202c-1.5,2.9-4.7,5.2-9,5.2 c-6.4,0-11.3-5.4-11.3-13.4c-0.1-8.8,5.4-14.2,11.9-14.2c4,0,6.8,1.9,8,4h0.1V12.3H206.5z M201.7,35.4c0-0.6-0.1-1.4-0.2-2 c-0.7-3.1-3.3-5.6-6.9-5.6c-5,0-7.9,4.4-7.9,10.2c0,5.3,2.6,9.8,7.8,9.8c3.2,0,6.2-2.1,7.1-5.7c0.2-0.7,0.2-1.3,0.2-2.1V35.4z"/><path fill="#FFFFFF" d="M42.8,64c0.1,1.6-1.1,2.9-3.1,2.9c-1.7,0-2.9-1.3-2.9-2.9c0-1.7,1.3-3,3-3C41.7,61,42.8,62.3,42.8,64z M37.4,97.8V71.4h4.8v26.4H37.4z"/><path fill="#FFFFFF" d="M47.5,78.6c0-2.7-0.1-5-0.2-7.1h4.3l0.3,4.4h0.1c1.3-2.5,4.4-5,8.8-5c3.7,0,9.4,2.2,9.4,11.2v15.8h-4.8 V82.6c0-4.3-1.6-7.8-6.1-7.8c-3.2,0-5.6,2.2-6.5,4.9c-0.2,0.6-0.3,1.4-0.3,2.2v15.9h-4.8V78.6z"/><path fill="#FFFFFF" d="M84,61.6c2.9-0.4,6.3-0.8,10.1-0.8c6.8,0,11.7,1.6,14.9,4.6c3.3,3,5.2,7.3,5.2,13.2c0,6-1.9,10.9-5.3,14.3 c-3.4,3.4-9.1,5.3-16.3,5.3c-3.4,0-6.2-0.2-8.6-0.4V61.6z M88.8,94.1c1.2,0.2,3,0.3,4.8,0.3c10.2,0,15.7-5.7,15.7-15.6 c0.1-8.7-4.9-14.2-14.9-14.2c-2.5,0-4.3,0.2-5.6,0.5V94.1z"/><path fill="#FFFFFF" d="M132.1,97.8l-0.4-3.3h-0.2c-1.5,2.1-4.3,3.9-8.1,3.9c-5.4,0-8.1-3.8-8.1-7.6c0-6.4,5.7-9.9,15.9-9.8v-0.5 c0-2.2-0.6-6.1-6-6.1c-2.5,0-5,0.8-6.9,2l-1.1-3.2c2.2-1.4,5.4-2.3,8.7-2.3c8.1,0,10.1,5.5,10.1,10.8v9.9c0,2.3,0.1,4.5,0.4,6.3 H132.1z M131.4,84.4c-5.3-0.1-11.2,0.8-11.2,5.9c0,3.1,2.1,4.6,4.5,4.6c3.4,0,5.6-2.2,6.4-4.4c0.2-0.5,0.3-1,0.3-1.5V84.4z"/><path fill="#FFFFFF" d="M146.6,63.9v7.6h6.9v3.7h-6.9v14.2c0,3.3,0.9,5.1,3.6,5.1c1.3,0,2.2-0.2,2.8-0.3l0.2,3.6 c-0.9,0.4-2.4,0.7-4.3,0.7c-2.2,0-4-0.7-5.2-2c-1.4-1.4-1.9-3.8-1.9-6.9V75.1h-4.1v-3.7h4.1v-6.3L146.6,63.9z"/><path fill="#FFFFFF" d="M171.4,97.8l-0.4-3.3h-0.2c-1.5,2.1-4.3,3.9-8.1,3.9c-5.4,0-8.1-3.8-8.1-7.6c0-6.4,5.7-9.9,15.9-9.8v-0.5 c0-2.2-0.6-6.1-6-6.1c-2.5,0-5,0.8-6.9,2l-1.1-3.2c2.2-1.4,5.4-2.3,8.7-2.3c8.1,0,10.1,5.5,10.1,10.8v9.9c0,2.3,0.1,4.5,0.4,6.3 H171.4z M170.7,84.4c-5.3-0.1-11.2,0.8-11.2,5.9c0,3.1,2.1,4.6,4.5,4.6c3.4,0,5.6-2.2,6.4-4.4c0.2-0.5,0.3-1,0.3-1.5V84.4z"/></g></g></a></g><a href="https://ourworldindata.org/grapher/change-in-global-hunger-index-1992-2017-global-hunger-index-2017-vs-population-growth-1992-2015-un-population-division" target="_blank"><text font-size="21.60" x="15.0" y="32.3" fill="#555"><tspan x="15" y="32.279999999999994">Change in Global Hunger Index, 1992-2017 vs. Population growth</tspan><tspan x="15" y="53.87999999999999">1992-2015 (UN Population Division), 2017</tspan></text></a></g><g><g class="AxisBoxView"><g class="HorizontalAxis"><text font-size="12.60" x="211.8" y="554.0"><tspan x="211.784" y="553.98">Population growth 1992-2015 (UN Population Division)</tspan></text><text x="136.8" y="533.9" fill="#666" text-anchor="middle" font-size="16.2">0%</text><text x="218.6" y="533.9" fill="#666" text-anchor="middle" font-size="16.2">20%</text><text x="300.5" y="533.9" fill="#666" text-anchor="middle" font-size="16.2">40%</text><text x="382.3" y="533.9" fill="#666" text-anchor="middle" font-size="16.2">60%</text><text x="464.2" y="533.9" fill="#666" text-anchor="middle" font-size="16.2">80%</text><text x="546" y="533.9" fill="#666" text-anchor="middle" font-size="16.2">100%</text><text x="627.8" y="533.9" fill="#666" text-anchor="middle" font-size="16.2">120%</text><text x="709.7" y="533.9" fill="#666" text-anchor="middle" font-size="16.2">140%</text></g><g class="VerticalAxis"><text font-size="12.60" x="-520.6" y="25.1" transform="rotate(-90)"><tspan x="-520.593" y="25.080000000000002">Change in Global Hunger Index, 1992-2017 (Global Hunger Index 2017)</tspan></text><text x="61.09" y="471.2" fill="#666" dominant-baseline="middle" text-anchor="end" font-size="16.2">-30</text><text x="61.09" y="408.3" fill="#666" dominant-baseline="middle" text-anchor="end" font-size="16.2">-25</text><text x="61.09" y="345.4" fill="#666" dominant-baseline="middle" text-anchor="end" font-size="16.2">-20</text><text x="61.09" y="282.6" fill="#666" dominant-baseline="middle" text-anchor="end" font-size="16.2">-15</text><text x="61.09" y="219.7" fill="#666" dominant-baseline="middle" text-anchor="end" font-size="16.2">-10</text><text x="61.09" y="156.8" fill="#666" dominant-baseline="middle" text-anchor="end" font-size="16.2">-5</text><text x="61.09" y="93.9" fill="#666" dominant-baseline="middle" text-anchor="end" font-size="16.2">0</text></g><g class="AxisGridLines"><line x1="66.09" y1="471.2" x2="715.00" y2="471.2" stroke="#ddd" stroke-dasharray="3,2"></line><line x1="66.09" y1="408.3" x2="715.00" y2="408.3" stroke="#ddd" stroke-dasharray="3,2"></line><line x1="66.09" y1="345.4" x2="715.00" y2="345.4" stroke="#ddd" stroke-dasharray="3,2"></line><line x1="66.09" y1="282.6" x2="715.00" y2="282.6" stroke="#ddd" stroke-dasharray="3,2"></line><line x1="66.09" y1="219.7" x2="715.00" y2="219.7" stroke="#ddd" stroke-dasharray="3,2"></line><line x1="66.09" y1="156.8" x2="715.00" y2="156.8" stroke="#ddd" stroke-dasharray="3,2"></line><line x1="66.09" y1="93.9" x2="715.00" y2="93.9" stroke="#ccc"></line></g><g class="AxisGridLines"><line x1="136.8" y1="512.70" x2="136.8" y2="80.10" stroke="#ccc"></line><line x1="218.6" y1="512.70" x2="218.6" y2="80.10" stroke="#ddd" stroke-dasharray="3,2"></line><line x1="300.5" y1="512.70" x2="300.5" y2="80.10" stroke="#ddd" stroke-dasharray="3,2"></line><line x1="382.3" y1="512.70" x2="382.3" y2="80.10" stroke="#ddd" stroke-dasharray="3,2"></line><line x1="464.2" y1="512.70" x2="464.2" y2="80.10" stroke="#ddd" stroke-dasharray="3,2"></line><line x1="546" y1="512.70" x2="546" y2="80.10" stroke="#ddd" stroke-dasharray="3,2"></line><line x1="627.8" y1="512.70" x2="627.8" y2="80.10" stroke="#ddd" stroke-dasharray="3,2"></line><line x1="709.7" y1="512.70" x2="709.7" y2="80.10" stroke="#ddd" stroke-dasharray="3,2"></line></g></g><g class="ComparisonLine"><defs><clipPath id="axisBounds-1"><rect x="66.09" y="80.1" width="648.91" height="432.59999999999997"></rect></clipPath></defs><path d="M66.1,180.9L72.6,182.4L79.1,184L85.6,185.6L92,187.1L98.5,188.7L105,190.3L111.5,191.8L118,193.4L124.5,195L131,196.5L137.5,198.1L144,199.7L150.4,201.2L156.9,202.8L163.4,204.4L169.9,205.9L176.4,207.5L182.9,209.1L189.4,210.6L195.9,212.2L202.4,213.8L208.9,215.3L215.3,216.9L221.8,218.5L228.3,220L234.8,221.6L241.3,223.2L247.8,224.7L254.3,226.3L260.8,227.9L267.3,229.4L273.7,231L280.2,232.6L286.7,234.1L293.2,235.7L299.7,237.3L306.2,238.8L312.7,240.4L319.2,242L325.7,243.5L332.1,245.1L338.6,246.7L345.1,248.2L351.6,249.8L358.1,251.4L364.6,252.9L371.1,254.5L377.6,256.1L384.1,257.6L390.5,259.2L397,260.8L403.5,262.3L410,263.9L416.5,265.5L423,267L429.5,268.6L436,270.2L442.5,271.7L448.9,273.3L455.4,274.9L461.9,276.4L468.4,278L474.9,279.6L481.4,281.1L487.9,282.7L494.4,284.3L500.9,285.9L507.3,287.4L513.8,289L520.3,290.6L526.8,292.1L533.3,293.7L539.8,295.3L546.3,296.8L552.8,298.4L559.3,300L565.8,301.5L572.2,303.1L578.7,304.7L585.2,306.2L591.7,307.8L598.2,309.4L604.7,310.9L611.2,312.5L617.7,314.1L624.2,315.6L630.6,317.2L637.1,318.8L643.6,320.3L650.1,321.9L656.6,323.5L663.1,325L669.6,326.6L676.1,328.2L682.6,329.7L689,331.3L695.5,332.9L702,334.4L708.5,336" clip-path="url(#axisBounds-1)" fill="none" stroke="#ccc"></path></g><g clip-path="url(#scatterBounds-2)" class="PointsWithLabels clickable"><rect x="66.09" y="80.1" width="648.91" height="432.59999999999997" fill="rgba(255,255,255,0)"></rect><defs><clipPath id="scatterBounds-2"><rect x="56.09" y="70.1" width="668.91" height="452.59999999999997"></rect></clipPath></defs><circle cx="202" cy="325" r="17.841241161527712" fill="#d14e5b" opacity="0.8"></circle><circle cx="318" cy="280" r="17.28513580264652" fill="#d14e5b" opacity="0.8"></circle><circle cx="290" cy="257" r="7.770691844799752" fill="#d14e5b" opacity="0.8"></circle><circle cx="272" cy="226" r="7.032206328926718" fill="#69c487" opacity="0.8"></circle><circle cx="408" cy="220" r="6.748446877379977" fill="#d14e5b" opacity="0.8"></circle><circle cx="467" cy="386" r="6.533903075279258" fill="#5675c1" opacity="0.8"></circle><circle cx="320" cy="434" r="6.2340736055887565" fill="#d14e5b" opacity="0.8"></circle><circle cx="307" cy="188" r="5.504778733353002" fill="#4d824b" opacity="0.8"></circle><circle cx="367" cy="226" r="5.080502523666103" fill="#d14e5b" opacity="0.8"></circle><circle cx="265" cy="398" r="4.907374879192166" fill="#d14e5b" opacity="0.8"></circle><circle cx="366" cy="161" r="4.781033289572434" fill="#5675c1" opacity="0.8"></circle><circle cx="285" cy="218" r="4.55825751828951" fill="#d14e5b" opacity="0.8"></circle><circle cx="302" cy="242" r="4.531520037806328" fill="#d14e5b" opacity="0.8"></circle><circle cx="213" cy="285" r="4.398667351238016" fill="#d14e5b" opacity="0.8"></circle><circle cx="302" cy="160" r="3.857612084909947" fill="#5675c1" opacity="0.8"></circle><circle cx="537" cy="271" r="3.802265314975986" fill="#5675c1" opacity="0.8"></circle><circle cx="241" cy="508" r="3.8012479424985686" fill="#d14e5b" opacity="0.8"></circle><circle cx="282" cy="176" r="3.7720213128807885" fill="#69c487" opacity="0.8"></circle><circle cx="501" cy="321" r="3.6392988511942934" fill="#5675c1" opacity="0.8"></circle><circle cx="255" cy="114" r="3.5603899375297656" fill="#69c487" opacity="0.8"></circle><circle cx="327" cy="194" r="3.4110240567628964" fill="#5675c1" opacity="0.8"></circle><circle cx="608" cy="209" r="3.4033786789328855" fill="#5675c1" opacity="0.8"></circle><circle cx="528" cy="80" r="3.335129982346726" fill="#d14e5b" opacity="0.8"></circle><circle cx="715" cy="306" r="3.3255101051835894" fill="#d14e5b" opacity="0.8"></circle><circle cx="279" cy="200" r="3.2701538882341383" fill="#5675c1" opacity="0.8"></circle><circle cx="320" cy="351" r="3.2204875800283044" fill="#d14e5b" opacity="0.8"></circle><circle cx="340" cy="121" r="3.1771744378244344" fill="#69c487" opacity="0.8"></circle><circle cx="292" cy="345" r="3.167471596463151" fill="#69c487" opacity="0.8"></circle><circle cx="388" cy="214" r="3.156911509354842" fill="#d14e5b" opacity="0.8"></circle><circle cx="470" cy="184" r="3.1396818844236614" fill="#d14e5b" opacity="0.8"></circle><circle cx="457" cy="417" r="3.0196450951042415" fill="#5675c1" opacity="0.8"></circle><circle cx="542" cy="510" r="2.9769873925075188" fill="#5675c1" opacity="0.8"></circle><circle cx="221" cy="140" r="2.9623858393432556" fill="#d14e5b" opacity="0.8"></circle><circle cx="533" cy="164" r="2.879041066243024" fill="#5675c1" opacity="0.8"></circle><circle cx="205" cy="170" r="2.8318880625261986" fill="#d14e5b" opacity="0.8"></circle><circle cx="75" cy="145" r="2.829632622292855" fill="#ffd336" opacity="0.8"></circle><circle cx="446" cy="174" r="2.818073493739405" fill="#5675c1" opacity="0.8"></circle><circle cx="480" cy="319" r="2.8121535899888985" fill="#5675c1" opacity="0.8"></circle><circle cx="606" cy="512" r="2.8039319196957786" fill="#5675c1" opacity="0.8"></circle><circle cx="524" cy="337" r="2.689829598069254" fill="#5675c1" opacity="0.8"></circle><circle cx="259" cy="136" r="2.6709227667399014" fill="#69c487" opacity="0.8"></circle><circle cx="679" cy="492" r="2.6563550920803647" fill="#5675c1" opacity="0.8"></circle><circle cx="533" cy="380" r="2.6374482997079665" fill="#5675c1" opacity="0.8"></circle><circle cx="466" cy="483" r="2.619745896834008" fill="#5675c1" opacity="0.8"></circle><circle cx="412" cy="192" r="2.580526407180168" fill="#4d824b" opacity="0.8"></circle><circle cx="344" cy="193" r="2.559496463696814" fill="#69c487" opacity="0.8"></circle><circle cx="387" cy="390" r="2.541064702800009" fill="#d14e5b" opacity="0.8"></circle><circle cx="507" cy="223" r="2.525433066168793" fill="#5675c1" opacity="0.8"></circle><circle cx="490" cy="334" r="2.485617436745565" fill="#5675c1" opacity="0.8"></circle><circle cx="331" cy="119" r="2.4797200721870762" fill="#5675c1" opacity="0.8"></circle><circle cx="630" cy="332" r="2.423624243519392" fill="#5675c1" opacity="0.8"></circle><circle cx="437" cy="369" r="2.3979668172569353" fill="#5675c1" opacity="0.8"></circle><circle cx="164" cy="194" r="2.3802995552189805" fill="#4d824b" opacity="0.8"></circle><circle cx="263" cy="194" r="2.359222739753202" fill="#5675c1" opacity="0.8"></circle><circle cx="459" cy="319" r="2.356271908863545" fill="#5675c1" opacity="0.8"></circle><circle cx="342" cy="339" r="2.339285980145036" fill="#69c487" opacity="0.8"></circle><circle cx="320" cy="312" r="2.3382280948478393" fill="#4d824b" opacity="0.8"></circle><circle cx="304" cy="247" r="2.3342666280035287" fill="#4d824b" opacity="0.8"></circle><circle cx="539" cy="346" r="2.299126390235601" fill="#5675c1" opacity="0.8"></circle><circle cx="426" cy="239" r="2.220359616755018" fill="#4d824b" opacity="0.8"></circle><circle cx="66" cy="125" r="2.182325265617023" fill="#ffd336" opacity="0.8"></circle><circle cx="340" cy="165" r="2.1528373121919757" fill="#69c487" opacity="0.8"></circle><circle cx="672" cy="178" r="2.140666114630047" fill="#d14e5b" opacity="0.8"></circle><circle cx="333" cy="405" r="2.1344824847717883" fill="#d14e5b" opacity="0.8"></circle><circle cx="491" cy="386" r="2.1319629913114513" fill="#5675c1" opacity="0.8"></circle><circle cx="205" cy="199" r="2.1259806790590328" fill="#4d824b" opacity="0.8"></circle><circle cx="411" cy="329" r="2.123385077303916" fill="#5675c1" opacity="0.8"></circle><circle cx="302" cy="376" r="2.1116994330466796" fill="#4d824b" opacity="0.8"></circle><circle cx="331" cy="121" r="2.0457764611402482" fill="#4d824b" opacity="0.8"></circle><circle cx="328" cy="110" r="2.0348006915527095" fill="#5675c1" opacity="0.8"></circle><circle cx="637" cy="293" r="2.016592363901194" fill="#5675c1" opacity="0.8"></circle><circle cx="520" cy="263" r="2.015180748141731" fill="#5675c1" opacity="0.8"></circle><circle cx="576" cy="135" r="2.015172749946737" fill="#d14e5b" opacity="0.8"></circle><circle cx="526" cy="272" r="1.9791965103666516" fill="#5675c1" opacity="0.8"></circle><circle cx="358" cy="228" r="1.977663866349063" fill="#4d824b" opacity="0.8"></circle><circle cx="172" cy="184" r="1.9614649888392848" fill="#69c487" opacity="0.8"></circle><circle cx="96" cy="215" r="1.9516981907130433" fill="#ffd336" opacity="0.8"></circle><circle cx="567" cy="314" r="1.9350330761473313" fill="#d14e5b" opacity="0.8"></circle><circle cx="594" cy="213" r="1.9349322810888652" fill="#d14e5b" opacity="0.8"></circle><circle cx="270" cy="397" r="1.930764644674908" fill="#d14e5b" opacity="0.8"></circle><circle cx="204" cy="144" r="1.923744232910236" fill="#4d824b" opacity="0.8"></circle><circle cx="383" cy="215" r="1.9015125153872925" fill="#5675c1" opacity="0.8"></circle><circle cx="261" cy="124" r="1.8914637535700487" fill="#5675c1" opacity="0.8"></circle><circle cx="348" cy="212" r="1.8812898850914335" fill="#5675c1" opacity="0.8"></circle><circle cx="553" cy="244" r="1.8689061431152214" fill="#5675c1" opacity="0.8"></circle><circle cx="409" cy="268" r="1.8526137965533562" fill="#5675c1" opacity="0.8"></circle><circle cx="513" cy="224" r="1.8514424912476537" fill="#5675c1" opacity="0.8"></circle><circle cx="177" cy="189" r="1.8364216486165303" fill="#4d824b" opacity="0.8"></circle><circle cx="203" cy="145" r="1.8342383547215957" fill="#5675c1" opacity="0.8"></circle><circle cx="323" cy="129" r="1.828944564943982" fill="#5675c1" opacity="0.8"></circle><circle cx="344" cy="457" r="1.8100119313035703" fill="#5675c1" opacity="0.8"></circle><circle cx="217" cy="136" r="1.8063420639187966" fill="#a652ba" opacity="0.8"></circle><circle cx="147" cy="202" r="1.7983901934223026" fill="#69c487" opacity="0.8"></circle><circle cx="263" cy="183" r="1.7841241161527712" fill="#69c487" opacity="0.8"></circle><circle cx="554" cy="187" r="1.7487500462370535" fill="#d14e5b" opacity="0.8"></circle><text x="202" y="306.1587588384723" font-size="14.3" font-family="Arial Narrow, Arial, sans-serif" fill="#666">China</text><text x="318" y="261.7148641973535" font-size="14.095440781497027" font-family="Arial Narrow, Arial, sans-serif" fill="#666">India</text><text x="272" y="217.96779367107328" font-size="11.48452602321462" font-family="Arial Narrow, Arial, sans-serif" fill="#666">Brazil</text><text x="408" y="212.25155312262" font-size="11.443576508653418" font-family="Arial Narrow, Arial, sans-serif" fill="#666">Pakistan</text><text x="467" y="378.4660969247207" font-size="11.413735086993116" font-family="Arial Narrow, Arial, sans-serif" fill="#666">Nigeria</text><text x="320" y="426.7659263944112" font-size="11.373646106166479" font-family="Arial Narrow, Arial, sans-serif" fill="#666">Bangladesh</text><text x="307" y="181.495221266647" font-size="11.283994635609893" font-family="Arial Narrow, Arial, sans-serif" fill="#666">Mexico</text><text x="265" y="392.09262512080784" font-size="11.218856217899784" font-family="Arial Narrow, Arial, sans-serif" fill="#666">Vietnam</text><text x="366" y="155.21896671042757" font-size="11.206038007909497" font-family="Arial Narrow, Arial, sans-serif" fill="#666">Egypt</text><text x="302" y="236.46847996219367" font-size="11.181705268401913" font-family="Arial Narrow, Arial, sans-serif" fill="#666">Turkey</text><text x="213" y="279.60133264876197" font-size="11.169281323082288" font-family="Arial Narrow, Arial, sans-serif" fill="#666">Thailand</text><text x="302" y="155.14238791509004" font-size="11.122501924943366" font-family="Arial Narrow, Arial, sans-serif" fill="#666">South Africa</text><text x="537" y="266.197734685024" font-size="11.11806233645245" font-family="Arial Narrow, Arial, sans-serif" fill="#666">Tanzania</text><text x="241" y="503.19875205750145" font-size="11.117981329385065" font-family="Arial Narrow, Arial, sans-serif" fill="#666">Myanmar</text><text x="501" y="316.36070114880573" font-size="11.105362705790597" font-family="Arial Narrow, Arial, sans-serif" fill="#666">Kenya</text><text x="255" y="109.43961006247024" font-size="11.09941337103119" font-family="Arial Narrow, Arial, sans-serif" fill="#666">Argentina</text><text x="608" y="204.59662132106712" font-size="11.087963416940257" font-family="Arial Narrow, Arial, sans-serif" fill="#666">Uganda</text><text x="528" y="91.18314741369909" font-size="11.083147413699091" font-family="Arial Narrow, Arial, sans-serif" fill="#666">Iraq</text><text x="656.1520501742717" y="301.6744898948164" font-size="11.082476426690821" font-family="Arial Narrow, Arial, sans-serif" fill="#666">Afghanistan</text><text x="279" y="195.72984611176585" font-size="11.07865299316694" font-family="Arial Narrow, Arial, sans-serif" fill="#666">Morocco</text><text x="320" y="346.7795124199717" font-size="11.075277182218672" font-family="Arial Narrow, Arial, sans-serif" fill="#666">Nepal</text><text x="340" y="116.82282556217557" font-size="11.07237536801414" font-family="Arial Narrow, Arial, sans-serif" fill="#666">Venezuela</text><text x="292" y="340.83252840353686" font-size="11.071730701745656" font-family="Arial Narrow, Arial, sans-serif" fill="#666">Peru</text><text x="470" y="179.86031811557635" font-size="11.069895236929446" font-family="Arial Narrow, Arial, sans-serif" fill="#666">Saudi Arabia</text><text x="457" y="412.98035490489576" font-size="11.062152825450546" font-family="Arial Narrow, Arial, sans-serif" fill="#666">Ghana</text><text x="542" y="506.0230126074925" font-size="11.059474067251472" font-family="Arial Narrow, Arial, sans-serif" fill="#666">Mozambique</text><text x="221" y="136.03761416065674" font-size="11.058565894872169" font-family="Arial Narrow, Arial, sans-serif" fill="#666">North Korea</text><text x="533" y="160.12095893375698" font-size="11.053467588461137" font-family="Arial Narrow, Arial, sans-serif" fill="#666">Madagascar</text><text x="205" y="166.1681119374738" font-size="11.050647616748835" font-family="Arial Narrow, Arial, sans-serif" fill="#666">Sri Lanka</text><text x="75" y="141.17036737770715" font-size="11.05051389777362" font-family="Arial Narrow, Arial, sans-serif" fill="#666">Romania</text><text x="606" y="508.1960680803042" font-size="11.048997696391051" font-family="Arial Narrow, Arial, sans-serif" fill="#666">Angola</text><text x="524" y="333.31017040193075" font-size="11.042433328659605" font-family="Arial Narrow, Arial, sans-serif" fill="#666">Burkina Faso</text><text x="679" y="488.3436449079196" font-size="11.040559254586972" font-family="Arial Narrow, Arial, sans-serif" fill="#666">Niger</text><text x="533" y="376.36255170029204" font-size="11.039511126688833" font-family="Arial Narrow, Arial, sans-serif" fill="#666">Mali</text><text x="466" y="479.380254103166" font-size="11.038536552605596" font-family="Arial Narrow, Arial, sans-serif" fill="#666">Malawi</text><text x="412" y="188.41947359281983" font-size="11.036400771985546" font-family="Arial Narrow, Arial, sans-serif" fill="#666">Guatemala</text><text x="344" y="189.4405035363032" font-size="11.035268810175483" font-family="Arial Narrow, Arial, sans-serif" fill="#666">Ecuador</text><text x="387" y="386.4589352972" font-size="11.034284315422195" font-family="Arial Narrow, Arial, sans-serif" fill="#666">Cambodia</text><text x="507" y="219.4745669338312" font-size="11.033454959548614" font-family="Arial Narrow, Arial, sans-serif" fill="#666">Zambia</text><text x="630" y="328.5763757564806" font-size="11.028178574074442" font-family="Arial Narrow, Arial, sans-serif" fill="#666">Chad</text><text x="437" y="365.60203318274307" font-size="11.026883089993476" font-family="Arial Narrow, Arial, sans-serif" fill="#666">Rwanda</text><text x="164" y="190.61970044478102" font-size="11.025999057506542" font-family="Arial Narrow, Arial, sans-serif" fill="#666">Cuba</text><text x="459" y="315.64372809113644" font-size="11.024807255963285" font-family="Arial Narrow, Arial, sans-serif" fill="#666">Guinea</text><text x="342" y="335.66071401985494" font-size="11.023972027830174" font-family="Arial Narrow, Arial, sans-serif" fill="#666">Bolivia</text><text x="320" y="308.66177190515214" font-size="11.023920209632646" font-family="Arial Narrow, Arial, sans-serif" fill="#666">Haiti</text><text x="426" y="235.77964038324498" font-size="11.018293472720584" font-family="Arial Narrow, Arial, sans-serif" fill="#666">Honduras</text><text x="66" y="121.81767473438298" font-size="11.016539906253499" font-family="Arial Narrow, Arial, sans-serif" fill="#666">Bulgaria</text><text x="672" y="174.85933388536995" font-size="11.014653985662257" font-family="Arial Narrow, Arial, sans-serif" fill="#666">Jordan</text><text x="333" y="401.8655175152282" font-size="11.014377149182302" font-family="Arial Narrow, Arial, sans-serif" fill="#666">Laos</text><text x="205" y="195.87401932094096" font-size="11.013997837159256" font-family="Arial Narrow, Arial, sans-serif" fill="#666">El Salvador</text><text x="302" y="372.8883005669533" font-size="11.013364079984989" font-family="Arial Narrow, Arial, sans-serif" fill="#666">Nicaragua</text><text x="637" y="289.98340763609883" font-size="11.009252471031711" font-family="Arial Narrow, Arial, sans-serif" fill="#666">Liberia</text><text x="576" y="131.98482725005326" font-size="11.009192534156094" font-family="Arial Narrow, Arial, sans-serif" fill="#666">Lebanon</text><text x="358" y="225.02233613365092" font-size="11.007624179434632" font-family="Arial Narrow, Arial, sans-serif" fill="#666">Panama</text><text x="96" y="212.04830180928695" font-size="11.006555739055633" font-family="Arial Narrow, Arial, sans-serif" fill="#666">Albania</text><text x="567" y="311.0649669238527" font-size="11.005877439651394" font-family="Arial Narrow, Arial, sans-serif" fill="#666">Kuwait</text><text x="261" y="121.10853624642995" font-size="11.004131574149975" font-family="Arial Narrow, Arial, sans-serif" fill="#666">Lesotho</text><text x="348" y="209.11871011490857" font-size="11.003729623085011" font-family="Arial Narrow, Arial, sans-serif" fill="#666">Botswana</text><text x="553" y="241.13109385688477" font-size="11.003243289253428" font-family="Arial Narrow, Arial, sans-serif" fill="#666">Gambia</text><text x="409" y="265.1473862034467" font-size="11.002608349370151" font-family="Arial Narrow, Arial, sans-serif" fill="#666">Guinea-Bissau</text><text x="344" y="454.18998806869644" font-size="11.000974357941345" font-family="Arial Narrow, Arial, sans-serif" fill="#666">Djibouti</text><text x="554" y="184.2512499537629" font-size="10.998691294835126" font-family="Arial Narrow, Arial, sans-serif" fill="#666">Yemen</text></g><g style="cursor: pointer;" class="ScatterColorLegend clickable"><g class="legendMark"><rect x="735" y="77.6" width="43.256" height="17.6" fill="#fff" opacity="0"></rect>,<rect x="735" y="83.1" width="6" height="6" fill="#5675c1"></rect>,<text font-size="12.60" x="746.0" y="90.2"><tspan x="746" y="90.17999999999999">Africa</tspan></text></g><g class="legendMark"><rect x="735" y="95.19999999999999" width="35.57" height="17.6" fill="#fff" opacity="0"></rect>,<rect x="735" y="100.69999999999999" width="6" height="6" fill="#d14e5b"></rect>,<text font-size="12.60" x="746.0" y="107.8"><tspan x="746" y="107.77999999999999">Asia</tspan></text></g><g class="legendMark"><rect x="735" y="112.8" width="51.824" height="17.6" fill="#fff" opacity="0"></rect>,<rect x="735" y="118.3" width="6" height="6" fill="#ffd336"></rect>,<text font-size="12.60" x="746.0" y="125.4"><tspan x="746" y="125.38">Europe</tspan></text></g><g class="legendMark"><rect x="735" y="130.4" width="91.64" height="17.6" fill="#fff" opacity="0"></rect>,<rect x="735" y="135.9" width="6" height="6" fill="#4d824b"></rect>,<text font-size="12.60" x="746.0" y="143.0"><tspan x="746" y="142.98">North America</tspan></text></g><g class="legendMark"><rect x="735" y="148" width="58.124" height="17.6" fill="#fff" opacity="0"></rect>,<rect x="735" y="153.5" width="6" height="6" fill="#a652ba"></rect>,<text font-size="12.60" x="746.0" y="160.6"><tspan x="746" y="160.57999999999998">Oceania</tspan></text></g><g class="legendMark"><rect x="735" y="165.6" width="93.908" height="17.6" fill="#fff" opacity="0"></rect>,<rect x="735" y="171.1" width="6" height="6" fill="#69c487"></rect>,<text font-size="12.60" x="746.0" y="178.2"><tspan x="746" y="178.17999999999998">South America</tspan></text></g></g></g><g style="fill: #777;" class="SourcesFooter"><g style="fill: #777;" class="clickable"><text font-size="12.60" x="15.0" y="581.6"><tspan x="15" y="581.58">Source: IFPRI 2017 Global Hunger Index, UN Population Division (2015)</tspan></text></g><text font-size="12.60" x="649.0" y="581.6"><tspan x="649.024" y="581.58"><a target='_blank' style='fill: #777;' href='https://ourworldindata.org'>OurWorldInData.org</a> • <a style="fill: #777;" href="http://creativecommons.org/licenses/by-sa/4.0/deed.en_US" target="_blank">CC BY-SA</a></tspan></text></g></g></svg>