<svg xmlns="http://www.w3.org/2000/svg" version="1.1" style="background-color:#fff;-webkit-font-smoothing:antialiased" width="850" height="600" font-family="'Helvetica Neue',Helvetica,Arial,sans-serif" font-size="18" text-rendering="optimizeLegibility"><g class="ChartTab"><g class="HeaderView"><g opacity=".8" transform="matrix(.27 0 0 .27 778 15)"><a xmlns:xlink="http://www.w3.org/1999/xlink" xlink:href="https://ourworldindata.org" target="_blank"><g><path fill="#1B2543" d="M0 0h211.2v130.1H0z"/><path fill="#E63912" d="M0 112.2h211.2v17.9H0z"/><g><path fill="none" d="M1.2 12.3h210.2v99.2H1.2z"/><path fill="#FFF" d="M37.8 32.2c0 12.7-7.7 19.4-17.1 19.4-9.7 0-16.6-7.5-16.6-18.7 0-11.7 7.3-19.3 17.1-19.3 10.1.1 16.6 7.7 16.6 18.6zm-28.6.6c0 7.9 4.3 14.9 11.8 14.9 7.5 0 11.8-6.9 11.8-15.3 0-7.3-3.8-14.9-11.8-14.9-7.9 0-11.8 7.3-11.8 15.3zM62.7 43.8c0 2.7.1 5.1.2 7.2h-4.3l-.3-4.3h-.1c-1.3 2.1-4 4.9-8.8 4.9-4.2 0-9.1-2.3-9.1-11.6V24.6h4.8v14.6c0 5 1.5 8.4 5.9 8.4 3.2 0 5.5-2.2 6.3-4.4.3-.7.4-1.6.4-2.5V24.6h4.8v19.2zM67.3 32.8c0-3.1-.1-5.8-.2-8.2h4.2l.2 5.2h.2c1.2-3.5 4.1-5.8 7.3-5.8.5 0 .9.1 1.4.2v4.5c-.5-.1-1-.2-1.6-.2-3.4 0-5.8 2.6-6.5 6.2-.1.7-.2 1.4-.2 2.2V51h-4.8V32.8zM95.4 51L86 14.2h5l4.4 18.6c1.1 4.6 2.1 9.2 2.7 12.7h.1c.6-3.7 1.8-8 3-12.8l4.9-18.5h5l4.5 18.7c1 4.4 2 8.7 2.6 12.6h.1c.8-4 1.8-8.1 3-12.7l4.9-18.5h4.9L120.6 51h-5L111 31.9c-1.1-4.7-1.9-8.3-2.4-12h-.1c-.7 3.7-1.5 7.3-2.8 12L100.4 51h-5zM154.9 37.6c0 9.8-6.8 14-13.2 14-7.2 0-12.7-5.2-12.7-13.6 0-8.8 5.8-14 13.1-14 7.7 0 12.8 5.5 12.8 13.6zm-21 .3c0 5.8 3.3 10.1 8 10.1 4.6 0 8-4.3 8-10.3 0-4.5-2.2-10.1-7.9-10.1s-8.1 5.2-8.1 10.3zM158.2 32.8c0-3.1-.1-5.8-.2-8.2h4.2l.2 5.2h.2c1.2-3.5 4.1-5.8 7.3-5.8.5 0 .9.1 1.4.2v4.5c-.5-.1-1-.2-1.6-.2-3.4 0-5.8 2.6-6.5 6.2-.1.7-.2 1.4-.2 2.2V51h-4.8V32.8zM173.5 12.3h4.8V51h-4.8V12.3zM206.5 12.3v31.9c0 2.3.1 5 .2 6.8h-4.3l-.2-4.6h-.2c-1.5 2.9-4.7 5.2-9 5.2-6.4 0-11.3-5.4-11.3-13.4-.1-8.8 5.4-14.2 11.9-14.2 4 0 6.8 1.9 8 4h.1V12.3h4.8zm-4.8 23.1c0-.6-.1-1.4-.2-2a7 7 0 00-6.9-5.6c-5 0-7.9 4.4-7.9 10.2 0 5.3 2.6 9.8 7.8 9.8 3.2 0 6.2-2.1 7.1-5.7.2-.7.2-1.3.2-2.1v-4.6zM42.8 64c.1 1.6-1.1 2.9-3.1 2.9-1.7 0-2.9-1.3-2.9-2.9 0-1.7 1.3-3 3-3 1.9 0 3 1.3 3 3zm-5.4 33.8V71.4h4.8v26.4h-4.8zM47.5 78.6c0-2.7-.1-5-.2-7.1h4.3l.3 4.4h.1c1.3-2.5 4.4-5 8.8-5 3.7 0 9.4 2.2 9.4 11.2v15.8h-4.8V82.6c0-4.3-1.6-7.8-6.1-7.8-3.2 0-5.6 2.2-6.5 4.9-.2.6-.3 1.4-.3 2.2v15.9h-4.8V78.6zM84 61.6c2.9-.4 6.3-.8 10.1-.8 6.8 0 11.7 1.6 14.9 4.6 3.3 3 5.2 7.3 5.2 13.2 0 6-1.9 10.9-5.3 14.3-3.4 3.4-9.1 5.3-16.3 5.3-3.4 0-6.2-.2-8.6-.4V61.6zm4.8 32.5c1.2.2 3 .3 4.8.3 10.2 0 15.7-5.7 15.7-15.6.1-8.7-4.9-14.2-14.9-14.2-2.5 0-4.3.2-5.6.5v29zM132.1 97.8l-.4-3.3h-.2a9.79 9.79 0 01-8.1 3.9c-5.4 0-8.1-3.8-8.1-7.6 0-6.4 5.7-9.9 15.9-9.8v-.5c0-2.2-.6-6.1-6-6.1-2.5 0-5 .8-6.9 2l-1.1-3.2c2.2-1.4 5.4-2.3 8.7-2.3 8.1 0 10.1 5.5 10.1 10.8v9.9c0 2.3.1 4.5.4 6.3h-4.3zm-.7-13.4c-5.3-.1-11.2.8-11.2 5.9 0 3.1 2.1 4.6 4.5 4.6 3.4 0 5.6-2.2 6.4-4.4.2-.5.3-1 .3-1.5v-4.6zM146.6 63.9v7.6h6.9v3.7h-6.9v14.2c0 3.3.9 5.1 3.6 5.1 1.3 0 2.2-.2 2.8-.3l.2 3.6c-.9.4-2.4.7-4.3.7-2.2 0-4-.7-5.2-2-1.4-1.4-1.9-3.8-1.9-6.9V75.1h-4.1v-3.7h4.1v-6.3l4.8-1.2zM171.4 97.8l-.4-3.3h-.2a9.79 9.79 0 01-8.1 3.9c-5.4 0-8.1-3.8-8.1-7.6 0-6.4 5.7-9.9 15.9-9.8v-.5c0-2.2-.6-6.1-6-6.1-2.5 0-5 .8-6.9 2l-1.1-3.2c2.2-1.4 5.4-2.3 8.7-2.3 8.1 0 10.1 5.5 10.1 10.8v9.9c0 2.3.1 4.5.4 6.3h-4.3zm-.7-13.4c-5.3-.1-11.2.8-11.2 5.9 0 3.1 2.1 4.6 4.5 4.6 3.4 0 5.6-2.2 6.4-4.4.2-.5.3-1 .3-1.5v-4.6z"/></g></g></a></g><a href="https://ourworldindata.org/grapher/child-mortality-vs-population-growth" target="_blank"><text font-size="25.2" x="15" y="35.2" fill="#555"><tspan x="15" y="35.16">Population growth rate vs Child mortality rate, 2015</tspan></text></a><text font-size="14.4" x="15" y="53.7" fill="#666"><tspan x="15" y="53.72">The child mortality rate measures the share of children that are born alive and die before they are five years old. The</tspan><tspan x="15" y="69.56">rate of natural population increase is determined by births and deaths only and migration flows are not taken into</tspan><tspan x="15" y="85.4">account.</tspan></text></g><g><g class="AxisBoxView"><g class="HorizontalAxis"><text font-size="12.6" x="312.4" y="554"><tspan x="312.39" y="553.98">Child mortality rate</tspan></text><text x="66.1" y="533.9" fill="#666" text-anchor="middle" font-size="16.2">0%</text><text x="159.3" y="533.9" fill="#666" text-anchor="middle" font-size="16.2">2%</text><text x="252.6" y="533.9" fill="#666" text-anchor="middle" font-size="16.2">4%</text><text x="345.8" y="533.9" fill="#666" text-anchor="middle" font-size="16.2">6%</text><text x="439" y="533.9" fill="#666" text-anchor="middle" font-size="16.2">8%</text><text x="532.3" y="533.9" fill="#666" text-anchor="middle" font-size="16.2">10%</text><text x="625.5" y="533.9" fill="#666" text-anchor="middle" font-size="16.2">12%</text></g><g class="VerticalAxis"><text font-size="12.6" x="-453.8" y="25.1" transform="rotate(-90)"><tspan x="-453.77" y="25.08">Annual Rate of Natural Population Increase</tspan></text><text x="61.09" y="459.8" fill="#666" dominant-baseline="middle" text-anchor="end" font-size="16.2">0%</text><text x="61.09" y="368.3" fill="#666" dominant-baseline="middle" text-anchor="end" font-size="16.2">1%</text><text x="61.09" y="276.8" fill="#666" dominant-baseline="middle" text-anchor="end" font-size="16.2">2%</text><text x="61.09" y="185.3" fill="#666" dominant-baseline="middle" text-anchor="end" font-size="16.2">3%</text></g><g class="AxisGridLines"><path stroke="#ccc" d="M66.09 459.8H715"/><path stroke="#ddd" stroke-dasharray="3,2" d="M66.09 368.3H715M66.09 276.8H715M66.09 185.3H715"/></g><g class="AxisGridLines"><path stroke="#ccc" d="M66.1 512.7V107.6"/><path stroke="#ddd" stroke-dasharray="3,2" d="M159.3 512.7V107.6M252.6 512.7V107.6M345.8 512.7V107.6M439 512.7V107.6M532.3 512.7V107.6M625.5 512.7V107.6"/></g></g><g clip-path="url(#a)" font-family="Arial Narrow, Arial, sans-serif" class="PointsWithLabels clickable"><path fill="rgba(255,255,255,0)" d="M66.09 107.6H715v405.1H66.09z"/><defs><clipPath id="a"><path d="M56.09 97.6H725v425.1H56.09z"/></clipPath></defs><g class="key-China_0"><circle cx="123" cy="414" r="17.84" fill="#d14e5b" opacity=".8" stroke="#333" stroke-width=".7"/></g><g class="key-India_0"><circle cx="289" cy="350" r="17.29" fill="#d14e5b" opacity=".8" stroke="#333" stroke-width=".7"/></g><g class="key-United-States_0"><circle cx="96" cy="421" r="8.78" fill="#4d824b" opacity=".8" stroke="#333" stroke-width=".7"/></g><g class="key-Indonesia_0"><circle cx="195" cy="347" r="7.78" fill="#d14e5b" opacity=".8" stroke="#333" stroke-width=".7"/></g><g class="key-Brazil_0"><circle cx="143" cy="383" r="7.04" fill="#69c487" opacity=".8" stroke="#333" stroke-width=".7"/></g><g class="key-Pakistan_0"><circle cx="452" cy="264" r="6.76" fill="#d14e5b" opacity=".8" stroke="#333" stroke-width=".7"/></g><g class="key-Nigeria_0"><circle cx="588" cy="216" r="6.54" fill="#5675c1" opacity=".8" stroke="#333" stroke-width=".7"/></g><g class="key-Bangladesh_0"><circle cx="236" cy="331" r="6.24" fill="#d14e5b" opacity=".8" stroke="#fff" stroke-width=".7"/></g><g class="key-Russia_0"><circle cx="109" cy="464" r="6.02" fill="#ffd336" opacity=".8" stroke="#333" stroke-width=".7"/></g><g class="key-Japan_0"><circle cx="79" cy="479" r="5.7" fill="#d14e5b" opacity=".8" stroke="#333" stroke-width=".7"/></g><g class="key-Mexico_0"><circle cx="168" cy="334" r="5.51" fill="#4d824b" opacity=".8" stroke="#fff" stroke-width=".7"/></g><g class="key-Philippines_0"><circle cx="193" cy="304" r="5.09" fill="#d14e5b" opacity=".8" stroke="#333" stroke-width=".7"/></g><g class="key-Vietnam_0"><circle cx="170" cy="358" r="4.92" fill="#d14e5b" opacity=".8" stroke="#333" stroke-width=".7"/></g><g class="key-Ethiopia_0"><circle cx="348" cy="228" r="4.86" fill="#5675c1" opacity=".8" stroke="#333" stroke-width=".7"/></g><g class="key-Egypt_0"><circle cx="167" cy="265" r="4.79" fill="#5675c1" opacity=".8" stroke="#333" stroke-width=".7"/></g><g class="key-Germany_0"><circle cx="81" cy="482" r="4.71" fill="#ffd336" opacity=".8" stroke="#fff" stroke-width=".7"/></g><g class="key-Iran_0"><circle cx="138" cy="344" r="4.57" fill="#d14e5b" opacity=".8" stroke="#333" stroke-width=".7"/></g><g class="key-Turkey_0"><circle cx="142" cy="361" r="4.54" fill="#d14e5b" opacity=".8" stroke="#fff" stroke-width=".7"/></g><g class="key-Democratic-Republic-of-Congo_0"><circle cx="566" cy="161" r="4.44" fill="#5675c1" opacity=".8" stroke="#333" stroke-width=".7"/></g><g class="key-Thailand_0"><circle cx="121" cy="433" r="4.41" fill="#d14e5b" opacity=".8" stroke="#333" stroke-width=".7"/></g><g class="key-France_0"><circle cx="83" cy="432" r="4.24" fill="#ffd336" opacity=".8" stroke="#333" stroke-width=".7"/></g><g class="key-United-Kingdom_0"><circle cx="87" cy="429" r="4.22" fill="#ffd336" opacity=".8" stroke="#fff" stroke-width=".7"/></g><g class="key-Italy_0"><circle cx="80" cy="478" r="4.16" fill="#ffd336" opacity=".8" stroke="#fff" stroke-width=".7"/></g><g class="key-South-Africa_0"><circle cx="256" cy="357" r="3.87" fill="#5675c1" opacity=".8" stroke="#333" stroke-width=".7"/></g><g class="key-Tanzania_0"><circle cx="337" cy="170" r="3.82" fill="#5675c1" opacity=".8" stroke="#333" stroke-width=".7"/></g><g class="key-Myanmar_0"><circle cx="320" cy="369" r="3.82" fill="#d14e5b" opacity=".8" stroke="#333" stroke-width=".7"/></g><g class="key-South-Korea_0"><circle cx="81" cy="430" r="3.81" fill="#d14e5b" opacity=".8" stroke="#fff" stroke-width=".7"/></g><g class="key-Colombia_0"><circle cx="176" cy="372" r="3.79" fill="#69c487" opacity=".8" stroke="#333" stroke-width=".7"/></g><g class="key-Spain_0"><circle cx="80" cy="459" r="3.75" fill="#ffd336" opacity=".8" stroke="#333" stroke-width=".7"/></g><g class="key-Ukraine_0"><circle cx="109" cy="497" r="3.68" fill="#ffd336" opacity=".8" stroke="#333" stroke-width=".7"/></g><g class="key-Kenya_0"><circle cx="300" cy="222" r="3.66" fill="#5675c1" opacity=".8" stroke="#333" stroke-width=".7"/></g><g class="key-Argentina_0"><circle cx="136" cy="370" r="3.58" fill="#69c487" opacity=".8" stroke="#fff" stroke-width=".7"/></g><g class="key-Poland_0"><circle cx="89" cy="465" r="3.47" fill="#ffd336" opacity=".8" stroke="#fff" stroke-width=".7"/></g><g class="key-Algeria_0"><circle cx="204" cy="284" r="3.43" fill="#5675c1" opacity=".8" stroke="#333" stroke-width=".7"/></g><g class="key-Uganda_0"><circle cx="471" cy="151" r="3.42" fill="#5675c1" opacity=".8" stroke="#fff" stroke-width=".7"/></g><g class="key-Sudan_0"><circle cx="393" cy="223" r="3.39" fill="#5675c1" opacity=".8" stroke="#333" stroke-width=".7"/></g><g class="key-Canada_0"><circle cx="90" cy="429" r="3.36" fill="#4d824b" opacity=".8" stroke="#fff" stroke-width=".7"/></g><g class="key-Iraq_0"><circle cx="229" cy="198" r="3.35" fill="#d14e5b" opacity=".8" stroke="#333" stroke-width=".7"/></g><g class="key-Afghanistan_0"><circle cx="412" cy="212" r="3.34" fill="#d14e5b" opacity=".8" stroke="#fff" stroke-width=".7"/></g><g class="key-Morocco_0"><circle cx="202" cy="320" r="3.29" fill="#5675c1" opacity=".8" stroke="#333" stroke-width=".7"/></g><g class="key-Nepal_0"><circle cx="230" cy="335" r="3.24" fill="#d14e5b" opacity=".8" stroke="#fff" stroke-width=".7"/></g><g class="key-Venezuela_0"><circle cx="135" cy="333" r="3.2" fill="#69c487" opacity=".8" stroke="#fff" stroke-width=".7"/></g><g class="key-Peru_0"><circle cx="191" cy="332" r="3.19" fill="#69c487" opacity=".8" stroke="#fff" stroke-width=".7"/></g><g class="key-Malaysia_0"><circle cx="100" cy="347" r="3.18" fill="#d14e5b" opacity=".8" stroke="#fff" stroke-width=".7"/></g><g class="key-Saudi-Arabia_0"><circle cx="131" cy="309" r="3.16" fill="#d14e5b" opacity=".8" stroke="#fff" stroke-width=".7"/></g><g class="key-Uzbekistan_0"><circle cx="223" cy="317" r="3.12" fill="#d14e5b" opacity=".8" stroke="#fff" stroke-width=".7"/></g><g class="key-Ghana_0"><circle cx="360" cy="247" r="3.04" fill="#5675c1" opacity=".8" stroke="#333" stroke-width=".7"/></g><g class="key-Mozambique_0"><circle cx="525" cy="194" r="3" fill="#5675c1" opacity=".8" stroke="#333" stroke-width=".7"/></g><g class="key-North-Korea_0"><circle cx="164" cy="412" r="2.98" fill="#d14e5b" opacity=".8" stroke="#fff" stroke-width=".7"/></g><g class="key-Australia_0"><circle cx="85" cy="401" r="2.93" fill="#a652ba" opacity=".8" stroke="#fff" stroke-width=".7"/></g><g class="key-Taiwan_0"><circle cx="89" cy="444" r="2.92" fill="#d14e5b" opacity=".8" stroke="#333" stroke-width=".7"/></g><g class="key-Madagascar_0"><circle cx="294" cy="213" r="2.9" fill="#5675c1" opacity=".8" stroke="#fff" stroke-width=".7"/></g><g class="key-Syria_0"><circle cx="158" cy="308" r="2.86" fill="#d14e5b" opacity=".8" stroke="#333" stroke-width=".7"/></g><g class="key-Sri-Lanka_0"><circle cx="106" cy="379" r="2.85" fill="#d14e5b" opacity=".8" stroke="#fff" stroke-width=".7"/></g><g class="key-Romania_0"><circle cx="110" cy="487" r="2.85" fill="#ffd336" opacity=".8" stroke="#fff" stroke-width=".7"/></g><g class="key-Cote-d__0027Ivoire_0"><circle cx="486" cy="235" r="2.84" fill="#5675c1" opacity=".8" stroke="#333" stroke-width=".7"/></g><g class="key-Cameroon_0"><circle cx="514" cy="217" r="2.83" fill="#5675c1" opacity=".8" stroke="#333" stroke-width=".7"/></g><g class="key-Angola_0"><circle cx="503" cy="152" r="2.83" fill="#5675c1" opacity=".8" stroke="#fff" stroke-width=".7"/></g><g class="key-Burkina-Faso_0"><circle cx="485" cy="179" r="2.71" fill="#5675c1" opacity=".8" stroke="#333" stroke-width=".7"/></g><g class="key-Chile_0"><circle cx="104" cy="392" r="2.69" fill="#69c487" opacity=".8" stroke="#fff" stroke-width=".7"/></g><g class="key-Niger_0"><circle cx="579" cy="107" r="2.68" fill="#5675c1" opacity=".8" stroke="#333" stroke-width=".7"/></g><g class="key-Mali_0"><circle cx="599" cy="162" r="2.66" fill="#5675c1" opacity=".8" stroke="#333" stroke-width=".7"/></g><g class="key-Netherlands_0"><circle cx="82" cy="440" r="2.66" fill="#ffd336" opacity=".8" stroke="#fff" stroke-width=".7"/></g><g class="key-Kazakhstan_0"><circle cx="137" cy="340" r="2.65" fill="#d14e5b" opacity=".8" stroke="#fff" stroke-width=".7"/></g><g class="key-Malawi_0"><circle cx="432" cy="189" r="2.64" fill="#5675c1" opacity=".8" stroke="#333" stroke-width=".7"/></g><g class="key-Guatemala_0"><circle cx="204" cy="269" r="2.6" fill="#4d824b" opacity=".8" stroke="#333" stroke-width=".7"/></g><g class="key-Ecuador_0"><circle cx="177" cy="319" r="2.58" fill="#69c487" opacity=".8" stroke="#fff" stroke-width=".7"/></g><g class="key-Cambodia_0"><circle cx="203" cy="299" r="2.56" fill="#d14e5b" opacity=".8" stroke="#fff" stroke-width=".7"/></g><g class="key-Zambia_0"><circle cx="405" cy="181" r="2.55" fill="#5675c1" opacity=".8" stroke="#fff" stroke-width=".7"/></g><g class="key-Senegal_0"><circle cx="288" cy="184" r="2.51" fill="#5675c1" opacity=".8" stroke="#333" stroke-width=".7"/></g><g class="key-Zimbabwe_0"><circle cx="354" cy="226" r="2.5" fill="#5675c1" opacity=".8" stroke="#fff" stroke-width=".7"/></g><g class="key-Chad_0"><circle cx="711" cy="179" r="2.45" fill="#5675c1" opacity=".8" stroke="#333" stroke-width=".7"/></g><g class="key-Rwanda_0"><circle cx="326" cy="225" r="2.42" fill="#5675c1" opacity=".8" stroke="#fff" stroke-width=".7"/></g><g class="key-Greece_0"><circle cx="83" cy="479" r="2.42" fill="#ffd336" opacity=".8" stroke="#fff" stroke-width=".7"/></g><g class="key-Cuba_0"><circle cx="96" cy="431" r="2.41" fill="#4d824b" opacity=".8" stroke="#fff" stroke-width=".7"/></g><g class="key-South-Sudan_0"><circle cx="591" cy="230" r="2.39" fill="#5675c1" opacity=".8" stroke="#333" stroke-width=".7"/></g><g class="key-Belgium_0"><circle cx="84" cy="444" r="2.38" fill="#ffd336" opacity=".8" stroke="#fff" stroke-width=".7"/></g><g class="key-Tunisia_0"><circle cx="153" cy="347" r="2.38" fill="#5675c1" opacity=".8" stroke="#fff" stroke-width=".7"/></g><g class="key-Guinea_0"><circle cx="491" cy="214" r="2.38" fill="#5675c1" opacity=".8" stroke="#fff" stroke-width=".7"/></g><g class="key-Portugal_0"><circle cx="79" cy="483" r="2.38" fill="#ffd336" opacity=".8" stroke="#fff" stroke-width=".7"/></g><g class="key-Czech-Republic_0"><circle cx="79" cy="461" r="2.37" fill="#ffd336" opacity=".8" stroke="#fff" stroke-width=".7"/></g><g class="key-Bolivia_0"><circle cx="371" cy="311" r="2.36" fill="#69c487" opacity=".8" stroke="#333" stroke-width=".7"/></g><g class="key-Haiti_0"><circle cx="406" cy="314" r="2.36" fill="#4d824b" opacity=".8" stroke="#333" stroke-width=".7"/></g><g class="key-Dominican-Republic_0"><circle cx="188" cy="327" r="2.36" fill="#4d824b" opacity=".8" stroke="#fff" stroke-width=".7"/></g><g class="key-Somalia_0"><circle cx="639" cy="166" r="2.35" fill="#5675c1" opacity=".8" stroke="#333" stroke-width=".7"/></g><g class="key-Hungary_0"><circle cx="90" cy="493" r="2.34" fill="#ffd336" opacity=".8" stroke="#fff" stroke-width=".7"/></g><g class="key-Benin_0"><circle cx="534" cy="202" r="2.33" fill="#5675c1" opacity=".8" stroke="#fff" stroke-width=".7"/></g><g class="key-Sweden_0"><circle cx="78" cy="433" r="2.32" fill="#ffd336" opacity=".8" stroke="#fff" stroke-width=".7"/></g><g class="key-Azerbaijan_0"><circle cx="221" cy="353" r="2.32" fill="#d14e5b" opacity=".8" stroke="#fff" stroke-width=".7"/></g><g class="key-Belarus_0"><circle cx="85" cy="471" r="2.32" fill="#ffd336" opacity=".8" stroke="#fff" stroke-width=".7"/></g><g class="key-Burundi_0"><circle cx="606" cy="170" r="2.29" fill="#5675c1" opacity=".8" stroke="#fff" stroke-width=".7"/></g><g class="key-Austria_0"><circle cx="81" cy="459" r="2.27" fill="#ffd336" opacity=".8" stroke="#fff" stroke-width=".7"/></g><g class="key-United-Arab-Emirates_0"><circle cx="97" cy="383" r="2.25" fill="#d14e5b" opacity=".8" stroke="#fff" stroke-width=".7"/></g><g class="key-Honduras_0"><circle cx="242" cy="302" r="2.25" fill="#4d824b" opacity=".8" stroke="#fff" stroke-width=".7"/></g><g class="key-Israel_0"><circle cx="83" cy="320" r="2.23" fill="#d14e5b" opacity=".8" stroke="#333" stroke-width=".7"/></g><g class="key-Switzerland_0"><circle cx="85" cy="438" r="2.23" fill="#ffd336" opacity=".8" stroke="#fff" stroke-width=".7"/></g><g class="key-Bulgaria_0"><circle cx="108" cy="512" r="2.21" fill="#ffd336" opacity=".8" stroke="#333" stroke-width=".7"/></g><g class="key-Papua-New-Guinea_0"><circle cx="347" cy="269" r="2.21" fill="#a652ba" opacity=".8" stroke="#333" stroke-width=".7"/></g><g class="key-Hong-Kong_0"><circle cx="77" cy="420" r="2.21" fill="#d14e5b" opacity=".8" stroke="#fff" stroke-width=".7"/></g><g class="key-Tajikistan_0"><circle cx="276" cy="238" r="2.2" fill="#d14e5b" opacity=".8" stroke="#333" stroke-width=".7"/></g><g class="key-Paraguay_0"><circle cx="224" cy="318" r="2.18" fill="#69c487" opacity=".8" stroke="#fff" stroke-width=".7"/></g><g class="key-Jordan_0"><circle cx="152" cy="247" r="2.17" fill="#d14e5b" opacity=".8" stroke="#333" stroke-width=".7"/></g><g class="key-Libya_0"><circle cx="191" cy="322" r="2.17" fill="#5675c1" opacity=".8" stroke="#fff" stroke-width=".7"/></g><g class="key-Laos_0"><circle cx="322" cy="299" r="2.16" fill="#d14e5b" opacity=".8" stroke="#333" stroke-width=".7"/></g><g class="key-Togo_0"><circle cx="436" cy="224" r="2.16" fill="#5675c1" opacity=".8" stroke="#333" stroke-width=".7"/></g><g class="key-El-Salvador_0"><circle cx="150" cy="350" r="2.15" fill="#4d824b" opacity=".8" stroke="#fff" stroke-width=".7"/></g><g class="key-Sierra-Leone_0"><circle cx="635" cy="253" r="2.15" fill="#5675c1" opacity=".8" stroke="#333" stroke-width=".7"/></g><g class="key-Nicaragua_0"><circle cx="166" cy="321" r="2.14" fill="#4d824b" opacity=".8" stroke="#fff" stroke-width=".7"/></g><g class="key-Eritrea_0"><circle cx="303" cy="224" r="2.12" fill="#5675c1" opacity=".8" stroke="#fff" stroke-width=".7"/></g><g class="key-Denmark_0"><circle cx="83" cy="450" r="2.12" fill="#ffd336" opacity=".8" stroke="#fff" stroke-width=".7"/></g><g class="key-Kyrgyzstan_0"><circle cx="162" cy="279" r="2.11" fill="#d14e5b" opacity=".8" stroke="#fff" stroke-width=".7"/></g><g class="key-Slovakia_0"><circle cx="95" cy="453" r="2.11" fill="#ffd336" opacity=".8" stroke="#fff" stroke-width=".7"/></g><g class="key-Finland_0"><circle cx="77" cy="449" r="2.11" fill="#ffd336" opacity=".8" stroke="#fff" stroke-width=".7"/></g><g class="key-Singapore_0"><circle cx="77" cy="422" r="2.1" fill="#d14e5b" opacity=".8" stroke="#fff" stroke-width=".7"/></g><g class="key-Turkmenistan_0"><circle cx="314" cy="286" r="2.1" fill="#d14e5b" opacity=".8" stroke="#333" stroke-width=".7"/></g><g class="key-Norway_0"><circle cx="77" cy="424" r="2.08" fill="#ffd336" opacity=".8" stroke="#fff" stroke-width=".7"/></g><g class="key-Costa-Rica_0"><circle cx="117" cy="371" r="2.08" fill="#4d824b" opacity=".8" stroke="#fff" stroke-width=".7"/></g><g class="key-Central-African-Republic_0"><circle cx="715" cy="257" r="2.06" fill="#5675c1" opacity=".8" stroke="#fff" stroke-width=".7"/></g><g class="key-Ireland_0"><circle cx="80" cy="385" r="2.06" fill="#ffd336" opacity=".8" stroke="#333" stroke-width=".7"/></g><g class="key-New-Zealand_0"><circle cx="89" cy="400" r="2.06" fill="#a652ba" opacity=".8" stroke="#fff" stroke-width=".7"/></g><g class="key-Croatia_0"><circle cx="87" cy="490" r="2.05" fill="#ffd336" opacity=".8" stroke="#fff" stroke-width=".7"/></g><g class="key-Liberia_0"><circle cx="396" cy="216" r="2.05" fill="#5675c1" opacity=".8" stroke="#fff" stroke-width=".7"/></g><g class="key-Congo_0"><circle cx="343" cy="206" r="2.05" fill="#5675c1" opacity=".8" stroke="#333" stroke-width=".7"/></g><g class="key-Lebanon_0"><circle cx="113" cy="361" r="2.05" fill="#d14e5b" opacity=".8" stroke="#333" stroke-width=".7"/></g><g class="key-Georgia_0"><circle cx="119" cy="454" r="2.04" fill="#d14e5b" opacity=".8" stroke="#fff" stroke-width=".7"/></g><g class="key-Puerto-Rico_0"><circle cx="97" cy="433" r="2.01" fill="#4d824b" opacity=".8" stroke="#fff" stroke-width=".7"/></g><g class="key-Bosnia-and-Herzegovina_0"><circle cx="104" cy="475" r="2.01" fill="#ffd336" opacity=".8" stroke="#fff" stroke-width=".7"/></g><g class="key-Mauritania_0"><circle cx="481" cy="216" r="2.01" fill="#5675c1" opacity=".8" stroke="#fff" stroke-width=".7"/></g><g class="key-Panama_0"><circle cx="153" cy="323" r="2.01" fill="#4d824b" opacity=".8" stroke="#333" stroke-width=".7"/></g><g class="key-Moldova_0"><circle cx="138" cy="468" r="2" fill="#ffd336" opacity=".8" stroke="#fff" stroke-width=".7"/></g><g class="key-Uruguay_0"><circle cx="131" cy="416" r="1.99" fill="#69c487" opacity=".8" stroke="#fff" stroke-width=".7"/></g><g class="key-Lithuania_0"><circle cx="89" cy="489" r="1.98" fill="#ffd336" opacity=".8" stroke="#fff" stroke-width=".7"/></g><g class="key-Albania_0"><circle cx="137" cy="417" r="1.98" fill="#ffd336" opacity=".8" stroke="#fff" stroke-width=".7"/></g><g class="key-Armenia_0"><circle cx="134" cy="422" r="1.98" fill="#d14e5b" opacity=".8" stroke="#fff" stroke-width=".7"/></g><g class="key-Kuwait_0"><circle cx="112" cy="330" r="1.97" fill="#d14e5b" opacity=".8" stroke="#333" stroke-width=".7"/></g><g class="key-Oman_0"><circle cx="113" cy="304" r="1.97" fill="#d14e5b" opacity=".8" stroke="#333" stroke-width=".7"/></g><g class="key-Mongolia_0"><circle cx="183" cy="291" r="1.96" fill="#d14e5b" opacity=".8" stroke="#fff" stroke-width=".7"/></g><g class="key-Jamaica_0"><circle cx="144" cy="369" r="1.96" fill="#4d824b" opacity=".8" stroke="#fff" stroke-width=".7"/></g><g class="key-Namibia_0"><circle cx="256" cy="257" r="1.93" fill="#5675c1" opacity=".8" stroke="#333" stroke-width=".7"/></g><g class="key-Lesotho_0"><circle cx="399" cy="320" r="1.92" fill="#5675c1" opacity=".8" stroke="#fff" stroke-width=".7"/></g><g class="key-Latvia_0"><circle cx="98" cy="501" r="1.92" fill="#ffd336" opacity=".8" stroke="#fff" stroke-width=".7"/></g><g class="key-Botswana_0"><circle cx="245" cy="303" r="1.91" fill="#5675c1" opacity=".8" stroke="#fff" stroke-width=".7"/></g><g class="key-Macedonia_0"><circle cx="110" cy="445" r="1.91" fill="#ffd336" opacity=".8" stroke="#fff" stroke-width=".7"/></g><g class="key-Slovenia_0"><circle cx="79" cy="452" r="1.91" fill="#ffd336" opacity=".8" stroke="#fff" stroke-width=".7"/></g><g class="key-Qatar_0"><circle cx="103" cy="379" r="1.91" fill="#d14e5b" opacity=".8" stroke="#fff" stroke-width=".7"/></g><g class="key-Gambia_0"><circle cx="396" cy="169" r="1.9" fill="#5675c1" opacity=".8" stroke="#fff" stroke-width=".7"/></g><g class="key-Guinea__002dBissau_0"><circle cx="651" cy="218" r="1.89" fill="#5675c1" opacity=".8" stroke="#fff" stroke-width=".7"/></g><g class="key-Gabon_0"><circle cx="309" cy="256" r="1.88" fill="#5675c1" opacity=".8" stroke="#333" stroke-width=".7"/></g><g class="key-Bahrain_0"><circle cx="104" cy="343" r="1.87" fill="#d14e5b" opacity=".8" stroke="#fff" stroke-width=".7"/></g><g class="key-Trinidad-and-Tobago_0"><circle cx="204" cy="418" r="1.87" fill="#4d824b" opacity=".8" stroke="#333" stroke-width=".7"/></g><g class="key-Estonia_0"><circle cx="84" cy="470" r="1.87" fill="#ffd336" opacity=".8" stroke="#fff" stroke-width=".7"/></g><g class="key-Mauritius_0"><circle cx="128" cy="433" r="1.87" fill="#5675c1" opacity=".8" stroke="#fff" stroke-width=".7"/></g><g class="key-Swaziland_0"><circle cx="363" cy="282" r="1.86" fill="#5675c1" opacity=".8" stroke="#fff" stroke-width=".7"/></g><g class="key-Cyprus_0"><circle cx="87" cy="421" r="1.86" fill="#ffd336" opacity=".8" stroke="#fff" stroke-width=".7"/></g><g class="key-Djibouti_0"><circle cx="436" cy="322" r="1.84" fill="#5675c1" opacity=".8" stroke="#333" stroke-width=".7"/></g><g class="key-Fiji_0"><circle cx="151" cy="343" r="1.84" fill="#a652ba" opacity=".8" stroke="#fff" stroke-width=".7"/></g><g class="key-Reunion_0"><circle cx="86" cy="368" r="1.84" fill="#5675c1" opacity=".8" stroke="#fff" stroke-width=".7"/></g><g class="key-Comoros_0"><circle cx="408" cy="223" r="1.83" fill="#5675c1" opacity=".8" stroke="#fff" stroke-width=".7"/></g><g class="key-Bhutan_0"><circle cx="219" cy="346" r="1.83" fill="#d14e5b" opacity=".8" stroke="#fff" stroke-width=".7"/></g><g class="key-Equatorial-Guinea_0"><circle cx="535" cy="237" r="1.83" fill="#5675c1" opacity=".8" stroke="#fff" stroke-width=".7"/></g><g class="key-Guyana_0"><circle cx="251" cy="344" r="1.83" fill="#69c487" opacity=".8" stroke="#fff" stroke-width=".7"/></g><g class="key-Montenegro_0"><circle cx="95" cy="444" r="1.82" fill="#ffd336" opacity=".8" stroke="#fff" stroke-width=".7"/></g><g class="key-Western-Sahara_0"><circle cx="242" cy="309" r="1.82" fill="#5675c1" opacity=".8" stroke="#fff" stroke-width=".7"/></g><g class="key-Solomon-Islands_0"><circle cx="217" cy="236" r="1.82" fill="#a652ba" opacity=".8" stroke="#fff" stroke-width=".7"/></g><g class="key-Macao_0"><circle cx="83" cy="384" r="1.82" fill="#d14e5b" opacity=".8" stroke="#fff" stroke-width=".7"/></g><g class="key-Suriname_0"><circle cx="166" cy="357" r="1.82" fill="#69c487" opacity=".8" stroke="#fff" stroke-width=".7"/></g><g class="key-Luxembourg_0"><circle cx="83" cy="423" r="1.82" fill="#ffd336" opacity=".8" stroke="#fff" stroke-width=".7"/></g><g class="key-Cape-Verde_0"><circle cx="182" cy="317" r="1.82" fill="#5675c1" opacity=".8" stroke="#fff" stroke-width=".7"/></g><g class="key-Malta_0"><circle cx="90" cy="450" r="1.81" fill="#ffd336" opacity=".8" stroke="#fff" stroke-width=".7"/></g><g class="key-Brunei_0"><circle cx="100" cy="344" r="1.81" fill="#d14e5b" opacity=".8" stroke="#333" stroke-width=".7"/></g><g class="key-Martinique_0"><circle cx="97" cy="431" r="1.81" fill="#4d824b" opacity=".8" stroke="#fff" stroke-width=".7"/></g><g class="key-Bahamas_0"><circle cx="124" cy="385" r="1.81" fill="#4d824b" opacity=".8" stroke="#fff" stroke-width=".7"/></g><g class="key-Iceland_0"><circle cx="75" cy="395" r="1.8" fill="#ffd336" opacity=".8" stroke="#fff" stroke-width=".7"/></g><g class="key-Belize_0"><circle cx="136" cy="302" r="1.8" fill="#4d824b" opacity=".8" stroke="#fff" stroke-width=".7"/></g><g class="key-Maldives_0"><circle cx="106" cy="318" r="1.8" fill="#d14e5b" opacity=".8" stroke="#fff" stroke-width=".7"/></g><g class="key-French-Polynesia_0"><circle cx="97" cy="366" r="1.8" fill="#a652ba" opacity=".8" stroke="#fff" stroke-width=".7"/></g><g class="key-Barbados_0"><circle cx="113" cy="447" r="1.8" fill="#4d824b" opacity=".8" stroke="#fff" stroke-width=".7"/></g><g class="key-New-Caledonia_0"><circle cx="132" cy="377" r="1.8" fill="#a652ba" opacity=".8" stroke="#fff" stroke-width=".7"/></g><g class="key-Vanuatu_0"><circle cx="191" cy="264" r="1.8" fill="#a652ba" opacity=".8" stroke="#fff" stroke-width=".7"/></g><g class="key-French-Guiana_0"><circle cx="116" cy="263" r="1.8" fill="#69c487" opacity=".8" stroke="#fff" stroke-width=".7"/></g><g class="key-Mayotte_0"><circle cx="86" cy="209" r="1.8" fill="#5675c1" opacity=".8" stroke="#333" stroke-width=".7"/></g><g class="key-Guam_0"><circle cx="114" cy="351" r="1.8" fill="#a652ba" opacity=".8" stroke="#fff" stroke-width=".7"/></g><g class="key-Samoa_0"><circle cx="159" cy="275" r="1.8" fill="#a652ba" opacity=".8" stroke="#333" stroke-width=".7"/></g><g class="key-Saint-Lucia_0"><circle cx="129" cy="416" r="1.79" fill="#4d824b" opacity=".8" stroke="#fff" stroke-width=".7"/></g><g class="key-Sao-Tome-and-Principe_0"><circle cx="350" cy="208" r="1.79" fill="#5675c1" opacity=".8" stroke="#fff" stroke-width=".7"/></g><g class="key-Saint-Vincent-and-the-Grenadines_0"><circle cx="158" cy="380" r="1.79" fill="#4d824b" opacity=".8" stroke="#fff" stroke-width=".7"/></g><g class="key-Aruba_0"><circle cx="143" cy="438" r="1.79" fill="#4d824b" opacity=".8" stroke="#fff" stroke-width=".7"/></g><g class="key-Grenada_0"><circle cx="123" cy="351" r="1.79" fill="#4d824b" opacity=".8" stroke="#fff" stroke-width=".7"/></g><g class="key-Tonga_0"><circle cx="176" cy="291" r="1.79" fill="#a652ba" opacity=".8" stroke="#fff" stroke-width=".7"/></g><g class="key-Kiribati_0"><circle cx="334" cy="262" r="1.79" fill="#a652ba" opacity=".8" stroke="#fff" stroke-width=".7"/></g><g class="key-Antigua-and-Barbuda_0"><circle cx="115" cy="363" r="1.79" fill="#4d824b" opacity=".8" stroke="#fff" stroke-width=".7"/></g><g class="key-Seychelles_0"><circle cx="119" cy="382" r="1.79" fill="#5675c1" opacity=".8" stroke="#fff" stroke-width=".7"/></g><g class="key-World_0"><circle cx="275" cy="355" r="1.78" fill="#000" opacity=".8" stroke="#fff" stroke-width=".7"/></g><g class="key-More-developed-regions_0"><circle cx="92" cy="451" r="1.78" fill="#000" opacity=".8" stroke="#fff" stroke-width=".7"/></g><g class="key-Less-developed-regions_0"><circle cx="295" cy="335" r="1.78" fill="#000" opacity=".8" stroke="#fff" stroke-width=".7"/></g><g class="key-Least-developed-countries_0"><circle cx="425" cy="233" r="1.78" fill="#000" opacity=".8" stroke="#fff" stroke-width=".7"/></g><g class="key-Less-developed-regions__002c-excluding-least-developed-countries_0"><circle cx="253" cy="354" r="1.78" fill="#000" opacity=".8" stroke="#fff" stroke-width=".7"/></g><g class="key-Less-developed-regions__002c-excluding-China_0"><circle cx="322" cy="311" r="1.78" fill="#000" opacity=".8" stroke="#fff" stroke-width=".7"/></g><g class="key-High__002dincome-countries_0"><circle cx="91" cy="437" r="1.78" fill="#000" opacity=".8" stroke="#fff" stroke-width=".7"/></g><g class="key-Middle__002dincome-countries_0"><circle cx="258" cy="355" r="1.78" fill="#000" opacity=".8" stroke="#fff" stroke-width=".7"/></g><g class="key-Upper__002dmiddle__002dincome-countries_0"><circle cx="144" cy="395" r="1.78" fill="#000" opacity=".8" stroke="#fff" stroke-width=".7"/></g><g class="key-Lower__002dmiddle__002dincome-countries_0"><circle cx="321" cy="320" r="1.78" fill="#000" opacity=".8" stroke="#fff" stroke-width=".7"/></g><g class="key-Low__002dincome-countries_0"><circle cx="455" cy="208" r="1.78" fill="#000" opacity=".8" stroke="#fff" stroke-width=".7"/></g><g class="key-Sub__002dSaharan-Africa_0"><circle cx="475" cy="209" r="1.78" fill="#000" opacity=".8" stroke="#fff" stroke-width=".7"/></g><g class="key-Africa_0"><circle cx="440" cy="222" r="1.78" fill="#000" opacity=".8" stroke="#fff" stroke-width=".7"/></g><g class="key-Eastern-Africa_0"><circle cx="399" cy="202" r="1.78" fill="#000" opacity=".8" stroke="#333" stroke-width=".7"/></g><g class="key-Middle-Africa_0"><circle cx="556" cy="175" r="1.78" fill="#000" opacity=".8" stroke="#333" stroke-width=".7"/></g><g class="key-Northern-Africa_0"><circle cx="227" cy="276" r="1.78" fill="#000" opacity=".8" stroke="#fff" stroke-width=".7"/></g><g class="key-Southern-Africa_0"><circle cx="265" cy="348" r="1.78" fill="#000" opacity=".8" stroke="#fff" stroke-width=".7"/></g><g class="key-Western-Africa_0"><circle cx="539" cy="208" r="1.78" fill="#000" opacity=".8" stroke="#fff" stroke-width=".7"/></g><g class="key-Asia_0"><circle cx="230" cy="367" r="1.78" fill="#000" opacity=".8" stroke="#333" stroke-width=".7"/></g><g class="key-Eastern-Asia_0"><circle cx="120" cy="419" r="1.78" fill="#000" opacity=".8" stroke="#fff" stroke-width=".7"/></g><g class="key-South__002dCentral-Asia_0"><circle cx="301" cy="336" r="1.78" fill="#000" opacity=".8" stroke="#fff" stroke-width=".7"/></g><g class="key-Central-Asia_0"><circle cx="213" cy="307" r="1.78" fill="#000" opacity=".8" stroke="#fff" stroke-width=".7"/></g><g class="key-Southern-Asia_0"><circle cx="304" cy="337" r="1.78" fill="#000" opacity=".8" stroke="#fff" stroke-width=".7"/></g><g class="key-South__002dEastern-Asia_0"><circle cx="194" cy="352" r="1.78" fill="#000" opacity=".8" stroke="#fff" stroke-width=".7"/></g><g class="key-Timor_0"><circle cx="297" cy="186" r="1.78" fill="#d14e5b" opacity=".8" stroke="#fff" stroke-width=".7"/></g><g class="key-Western-Asia_0"><circle cx="190" cy="307" r="1.78" fill="#000" opacity=".8" stroke="#fff" stroke-width=".7"/></g><g class="key-Palestine_0"><circle cx="169" cy="198" r="1.78" fill="#d14e5b" opacity=".8" stroke="#333" stroke-width=".7"/></g><g class="key-Yemen_0"><circle cx="339" cy="224" r="1.78" fill="#d14e5b" opacity=".8" stroke="#fff" stroke-width=".7"/></g><g class="key-Europe_0"><circle cx="93" cy="462" r="1.78" fill="#000" opacity=".8" stroke="#fff" stroke-width=".7"/></g><g class="key-Eastern-Europe_0"><circle cx="105" cy="473" r="1.78" fill="#000" opacity=".8" stroke="#fff" stroke-width=".7"/></g><g class="key-Northern-Europe_0"><circle cx="85" cy="433" r="1.78" fill="#000" opacity=".8" stroke="#fff" stroke-width=".7"/></g><g class="key-Channel-Islands_0"><circle cx="106" cy="455" r="1.78" fill="#ffd336" opacity=".8" stroke="#fff" stroke-width=".7"/></g><g class="key-Southern-Europe_0"><circle cx="86" cy="471" r="1.78" fill="#000" opacity=".8" stroke="#fff" stroke-width=".7"/></g><g class="key-Serbia-__0028including-Kosovo__0029_0"><circle cx="115" cy="477" r="1.78" fill="#000" opacity=".8" stroke="#333" stroke-width=".7"/></g><g class="key-Western-Europe_0"><circle cx="82" cy="456" r="1.78" fill="#000" opacity=".8" stroke="#fff" stroke-width=".7"/></g><g class="key-Latin-America-and-the-Caribbean_0"><circle cx="170" cy="357" r="1.78" fill="#000" opacity=".8" stroke="#fff" stroke-width=".7"/></g><g class="key-Caribbean_0"><circle cx="239" cy="371" r="1.78" fill="#000" opacity=".8" stroke="#fff" stroke-width=".7"/></g><g class="key-Curacao_0"><circle cx="118" cy="420" r="1.78" fill="#4d824b" opacity=".8" stroke="#fff" stroke-width=".7"/></g><g class="key-Guadeloupe-__0028including-Saint__002dBarth__00e9lemy-and-Saint__002dMartin__0029_0"><circle cx="93" cy="429" r="1.78" fill="#000" opacity=".8" stroke="#fff" stroke-width=".7"/></g><g class="key-United-States-Virgin-Islands_0"><circle cx="113" cy="412" r="1.78" fill="#4d824b" opacity=".8" stroke="#fff" stroke-width=".7"/></g><g class="key-Central-America_0"><circle cx="174" cy="327" r="1.78" fill="#000" opacity=".8" stroke="#fff" stroke-width=".7"/></g><g class="key-South-America_0"><circle cx="160" cy="368" r="1.78" fill="#000" opacity=".8" stroke="#fff" stroke-width=".7"/></g><g class="key-Northern-America_0"><circle cx="96" cy="422" r="1.78" fill="#000" opacity=".8" stroke="#fff" stroke-width=".7"/></g><g class="key-Oceania_0"><circle cx="183" cy="367" r="1.78" fill="#000" opacity=".8" stroke="#fff" stroke-width=".7"/></g><g class="key-Australia__002fNew-Zealand_0"><circle cx="86" cy="401" r="1.78" fill="#000" opacity=".8" stroke="#fff" stroke-width=".7"/></g><g class="key-Melanesia_0"><circle cx="319" cy="276" r="1.78" fill="#000" opacity=".8" stroke="#fff" stroke-width=".7"/></g><g class="key-Micronesia-__0028region__0029_0"><circle cx="222" cy="324" r="1.78" fill="#000" opacity=".8" stroke="#fff" stroke-width=".7"/></g><g class="key-Micronesia-__0028country__0029_0"><circle cx="249" cy="300" r="1.78" fill="#a652ba" opacity=".8" stroke="#fff" stroke-width=".7"/></g><g class="key-Polynesia_0"><circle cx="144" cy="323" r="1.78" fill="#000" opacity=".8" stroke="#fff" stroke-width=".7"/></g><g fill="#333" class="backgroundLabels"><text x="123" y="395.16" font-size="14.3">China</text><text x="289" y="331.71" font-size="14.1">India</text><text x="96" y="411.22" font-size="11.77">United States</text><text x="195" y="338.22" font-size="11.6">Indonesia</text><text x="143" y="374.96" font-size="11.49">Brazil</text><text x="452" y="256.24" font-size="11.44">Pakistan</text><text x="588" y="208.46" font-size="11.41">Nigeria</text><text x="109" y="456.98" font-size="11.35">Russia</text><text x="79" y="472.3" font-size="11.31">Japan</text><text x="193" y="297.91" font-size="11.24">Philippines</text><text x="170" y="352.08" font-size="11.22">Vietnam</text><text x="348" y="222.14" font-size="11.21">Ethiopia</text><text x="167" y="259.21" font-size="11.21">Egypt</text><text x="138" y="338.43" font-size="11.19">Iran</text><text x="414.04" y="155.56" font-size="11.17">Democratic Republic of Congo</text><text x="121" y="427.59" font-size="11.17">Thailand</text><text x="83" y="426.76" font-size="11.15">France</text><text x="256" y="352.13" font-size="11.12">South Africa</text><text x="337" y="165.18" font-size="11.12">Tanzania</text><text x="320" y="364.18" font-size="11.12">Myanmar</text><text x="176" y="367.21" font-size="11.12">Colombia</text><text x="80" y="454.25" font-size="11.11">Spain</text><text x="109" y="492.32" font-size="11.11">Ukraine</text><text x="300" y="217.34" font-size="11.11">Kenya</text><text x="204" y="279.57" font-size="11.09">Algeria</text><text x="393" y="218.61" font-size="11.09">Sudan</text><text x="229" y="193.65" font-size="11.08">Iraq</text><text x="202" y="315.71" font-size="11.08">Morocco</text><text x="360" y="242.96" font-size="11.06">Ghana</text><text x="525" y="190" font-size="11.06">Mozambique</text><text x="89" y="440.08" font-size="11.06">Taiwan</text><text x="158" y="304.14" font-size="11.05">Syria</text><text x="486" y="231.16" font-size="11.05">Cote d&apos;Ivoire</text><text x="514" y="213.17" font-size="11.05">Cameroon</text><text x="485" y="175.29" font-size="11.04">Burkina Faso</text><text x="579" y="118.64" font-size="11.04">Niger</text><text x="599" y="158.34" font-size="11.04">Mali</text><text x="432" y="185.36" font-size="11.04">Malawi</text><text x="204" y="265.4" font-size="11.04">Guatemala</text><text x="288" y="180.49" font-size="11.03">Senegal</text><text x="684.53" y="175.55" font-size="11.03">Chad</text><text x="591" y="226.61" font-size="11.03">South Sudan</text><text x="371" y="307.64" font-size="11.03">Bolivia</text><text x="406" y="310.64" font-size="11.03">Haiti</text><text x="639" y="162.65" font-size="11.02">Somalia</text><text x="83" y="316.77" font-size="11.02">Israel</text><text x="108" y="508.79" font-size="11.02">Bulgaria</text><text x="347" y="265.79" font-size="11.02">Papua New Guinea</text><text x="276" y="234.8" font-size="11.02">Tajikistan</text><text x="152" y="243.83" font-size="11.02">Jordan</text><text x="322" y="295.84" font-size="11.02">Laos</text><text x="436" y="220.84" font-size="11.02">Togo</text><text x="635" y="249.85" font-size="11.02">Sierra Leone</text><text x="314" y="282.9" font-size="11.01">Turkmenistan</text><text x="80" y="381.94" font-size="11.01">Ireland</text><text x="343" y="202.95" font-size="11.01">Congo</text><text x="113" y="357.95" font-size="11.01">Lebanon</text><text x="153" y="319.99" font-size="11.01">Panama</text><text x="112" y="327.03" font-size="11.01">Kuwait</text><text x="113" y="301.03" font-size="11.01">Oman</text><text x="256" y="254.07" font-size="11.01">Namibia</text><text x="309" y="253.12" font-size="11">Gabon</text><text x="204" y="415.13" font-size="11">Trinidad and Tobago</text><text x="436" y="319.16" font-size="11">Djibouti</text><text x="100" y="341.19" font-size="11">Brunei</text><text x="86" y="206.2" font-size="11">Mayotte</text><text x="159" y="272.2" font-size="11">Samoa</text><text x="399" y="199.22" font-size="11">Eastern Africa</text><text x="556" y="172.22" font-size="11">Middle Africa</text><text x="230" y="364.22" font-size="11">Asia</text><text x="169" y="195.22" font-size="11">Palestine</text><text x="115" y="474.22" font-size="11">Serbia (including Kosovo)</text></g></g><g class="ScatterColorLegend clickable" cursor="pointer"><g class="legendMark">,<path fill="#5675c1" d="M735 110.6h6v6h-6z"/>,<text font-size="12.6" x="746" y="117.7"><tspan x="746" y="117.68">Africa</tspan></text></g><g class="legendMark">,<path fill="#d14e5b" d="M735 128.2h6v6h-6z"/>,<text font-size="12.6" x="746" y="135.3"><tspan x="746" y="135.28">Asia</tspan></text></g><g class="legendMark">,<path fill="#ffd336" d="M735 145.8h6v6h-6z"/>,<text font-size="12.6" x="746" y="152.9"><tspan x="746" y="152.88">Europe</tspan></text></g><g class="legendMark">,<path fill="#4d824b" d="M735 163.4h6v6h-6z"/>,<text font-size="12.6" x="746" y="170.5"><tspan x="746" y="170.48">North America</tspan></text></g><g class="legendMark">,<path fill="#a652ba" d="M735 181h6v6h-6z"/>,<text font-size="12.6" x="746" y="188.1"><tspan x="746" y="188.08">Oceania</tspan></text></g><g class="legendMark">,<path fill="#69c487" d="M735 198.6h6v6h-6z"/>,<text font-size="12.6" x="746" y="205.7"><tspan x="746" y="205.68">South America</tspan></text></g></g></g><g class="SourcesFooter" fill="#777"><g class="clickable" fill="#777"><text font-size="12.6" x="15" y="581.6"><tspan x="15" y="581.58">Source: UN Population Division (2017 Revision)</tspan></text></g><text font-size="12.6" x="507.1" y="581.6"><tspan x="507.15" y="581.58"><a target="_blank" href="https://ourworldindata.org/world-population-growth/" fill="#777">OurWorldInData.org/world-population-growth/</a> • <a class="cclogo" href="http://creativecommons.org/licenses/by-sa/4.0/deed.en_US" target="_blank" fill="#777">CC BY-SA</a></tspan></text></g></g></svg>