<svg xmlns="http://www.w3.org/2000/svg" version="1.1" style="background-color:#fff;-webkit-font-smoothing:antialiased" width="850" height="600" font-family="'Helvetica Neue',Helvetica,Arial,sans-serif" font-size="18" text-rendering="optimizeLegibility"><g class="ChartTab"><g class="HeaderView"><g opacity=".8" transform="matrix(.31 0 0 .31 770 15)"><a xmlns:xlink="http://www.w3.org/1999/xlink" xlink:href="https://ourworldindata.org" target="_blank"><g><path fill="#1B2543" d="M0 0h211.2v130.1H0z"/><path fill="#E63912" d="M0 112.2h211.2v17.9H0z"/><g><path fill="none" d="M1.2 12.3h210.2v99.2H1.2z"/><path fill="#FFF" d="M37.8 32.2c0 12.7-7.7 19.4-17.1 19.4-9.7 0-16.6-7.5-16.6-18.7 0-11.7 7.3-19.3 17.1-19.3 10.1.1 16.6 7.7 16.6 18.6zm-28.6.6c0 7.9 4.3 14.9 11.8 14.9 7.5 0 11.8-6.9 11.8-15.3 0-7.3-3.8-14.9-11.8-14.9-7.9 0-11.8 7.3-11.8 15.3zM62.7 43.8c0 2.7.1 5.1.2 7.2h-4.3l-.3-4.3h-.1c-1.3 2.1-4 4.9-8.8 4.9-4.2 0-9.1-2.3-9.1-11.6V24.6h4.8v14.6c0 5 1.5 8.4 5.9 8.4 3.2 0 5.5-2.2 6.3-4.4.3-.7.4-1.6.4-2.5V24.6h4.8v19.2zM67.3 32.8c0-3.1-.1-5.8-.2-8.2h4.2l.2 5.2h.2c1.2-3.5 4.1-5.8 7.3-5.8.5 0 .9.1 1.4.2v4.5c-.5-.1-1-.2-1.6-.2-3.4 0-5.8 2.6-6.5 6.2-.1.7-.2 1.4-.2 2.2V51h-4.8V32.8zM95.4 51L86 14.2h5l4.4 18.6c1.1 4.6 2.1 9.2 2.7 12.7h.1c.6-3.7 1.8-8 3-12.8l4.9-18.5h5l4.5 18.7c1 4.4 2 8.7 2.6 12.6h.1c.8-4 1.8-8.1 3-12.7l4.9-18.5h4.9L120.6 51h-5L111 31.9c-1.1-4.7-1.9-8.3-2.4-12h-.1c-.7 3.7-1.5 7.3-2.8 12L100.4 51h-5zM154.9 37.6c0 9.8-6.8 14-13.2 14-7.2 0-12.7-5.2-12.7-13.6 0-8.8 5.8-14 13.1-14 7.7 0 12.8 5.5 12.8 13.6zm-21 .3c0 5.8 3.3 10.1 8 10.1 4.6 0 8-4.3 8-10.3 0-4.5-2.2-10.1-7.9-10.1s-8.1 5.2-8.1 10.3zM158.2 32.8c0-3.1-.1-5.8-.2-8.2h4.2l.2 5.2h.2c1.2-3.5 4.1-5.8 7.3-5.8.5 0 .9.1 1.4.2v4.5c-.5-.1-1-.2-1.6-.2-3.4 0-5.8 2.6-6.5 6.2-.1.7-.2 1.4-.2 2.2V51h-4.8V32.8zM173.5 12.3h4.8V51h-4.8V12.3zM206.5 12.3v31.9c0 2.3.1 5 .2 6.8h-4.3l-.2-4.6h-.2c-1.5 2.9-4.7 5.2-9 5.2-6.4 0-11.3-5.4-11.3-13.4-.1-8.8 5.4-14.2 11.9-14.2 4 0 6.8 1.9 8 4h.1V12.3h4.8zm-4.8 23.1c0-.6-.1-1.4-.2-2a7 7 0 00-6.9-5.6c-5 0-7.9 4.4-7.9 10.2 0 5.3 2.6 9.8 7.8 9.8 3.2 0 6.2-2.1 7.1-5.7.2-.7.2-1.3.2-2.1v-4.6zM42.8 64c.1 1.6-1.1 2.9-3.1 2.9-1.7 0-2.9-1.3-2.9-2.9 0-1.7 1.3-3 3-3 1.9 0 3 1.3 3 3zm-5.4 33.8V71.4h4.8v26.4h-4.8zM47.5 78.6c0-2.7-.1-5-.2-7.1h4.3l.3 4.4h.1c1.3-2.5 4.4-5 8.8-5 3.7 0 9.4 2.2 9.4 11.2v15.8h-4.8V82.6c0-4.3-1.6-7.8-6.1-7.8-3.2 0-5.6 2.2-6.5 4.9-.2.6-.3 1.4-.3 2.2v15.9h-4.8V78.6zM84 61.6c2.9-.4 6.3-.8 10.1-.8 6.8 0 11.7 1.6 14.9 4.6 3.3 3 5.2 7.3 5.2 13.2 0 6-1.9 10.9-5.3 14.3-3.4 3.4-9.1 5.3-16.3 5.3-3.4 0-6.2-.2-8.6-.4V61.6zm4.8 32.5c1.2.2 3 .3 4.8.3 10.2 0 15.7-5.7 15.7-15.6.1-8.7-4.9-14.2-14.9-14.2-2.5 0-4.3.2-5.6.5v29zM132.1 97.8l-.4-3.3h-.2a9.79 9.79 0 01-8.1 3.9c-5.4 0-8.1-3.8-8.1-7.6 0-6.4 5.7-9.9 15.9-9.8v-.5c0-2.2-.6-6.1-6-6.1-2.5 0-5 .8-6.9 2l-1.1-3.2c2.2-1.4 5.4-2.3 8.7-2.3 8.1 0 10.1 5.5 10.1 10.8v9.9c0 2.3.1 4.5.4 6.3h-4.3zm-.7-13.4c-5.3-.1-11.2.8-11.2 5.9 0 3.1 2.1 4.6 4.5 4.6 3.4 0 5.6-2.2 6.4-4.4.2-.5.3-1 .3-1.5v-4.6zM146.6 63.9v7.6h6.9v3.7h-6.9v14.2c0 3.3.9 5.1 3.6 5.1 1.3 0 2.2-.2 2.8-.3l.2 3.6c-.9.4-2.4.7-4.3.7-2.2 0-4-.7-5.2-2-1.4-1.4-1.9-3.8-1.9-6.9V75.1h-4.1v-3.7h4.1v-6.3l4.8-1.2zM171.4 97.8l-.4-3.3h-.2a9.79 9.79 0 01-8.1 3.9c-5.4 0-8.1-3.8-8.1-7.6 0-6.4 5.7-9.9 15.9-9.8v-.5c0-2.2-.6-6.1-6-6.1-2.5 0-5 .8-6.9 2l-1.1-3.2c2.2-1.4 5.4-2.3 8.7-2.3 8.1 0 10.1 5.5 10.1 10.8v9.9c0 2.3.1 4.5.4 6.3h-4.3zm-.7-13.4c-5.3-.1-11.2.8-11.2 5.9 0 3.1 2.1 4.6 4.5 4.6 3.4 0 5.6-2.2 6.4-4.4.2-.5.3-1 .3-1.5v-4.6z"/></g></g></a></g><a href="https://ourworldindata.org/grapher/child-mortality-vs-population-growth" target="_blank"><text font-size="27" x="15" y="36.6" fill="#555"><tspan x="15" y="36.6">Population growth rate vs Child mortality rate, 2015</tspan></text></a><text font-size="14.4" x="15" y="55.5" fill="#666"><tspan x="15" y="55.52">The child mortality rate measures the share of children that are born alive and die before they are five years old. The</tspan><tspan x="15" y="71.36">rate of natural population increase is determined by births and deaths only and migration flows are not taken into</tspan><tspan x="15" y="87.2">account.</tspan></text></g><g><g class="AxisBoxView"><g class="HorizontalAxis"><text font-size="12.6" x="312.4" y="554"><tspan x="312.39" y="553.98">Child mortality rate</tspan></text><text x="309.5" y="533.9" fill="#666" text-anchor="middle" font-size="16.2">1%</text><text x="664.1" y="533.9" fill="#666" text-anchor="middle" font-size="16.2">10%</text></g><g class="VerticalAxis"><text font-size="12.6" x="-454.7" y="25.1" transform="rotate(-90)"><tspan x="-454.67" y="25.08">Annual Rate of Natural Population Increase</tspan></text><text x="61.09" y="460" fill="#666" dominant-baseline="middle" text-anchor="end" font-size="16.2">0%</text><text x="61.09" y="368.9" fill="#666" dominant-baseline="middle" text-anchor="end" font-size="16.2">1%</text><text x="61.09" y="277.9" fill="#666" dominant-baseline="middle" text-anchor="end" font-size="16.2">2%</text><text x="61.09" y="186.8" fill="#666" dominant-baseline="middle" text-anchor="end" font-size="16.2">3%</text></g><g class="AxisGridLines"><path stroke="#ccc" d="M66.09 460H715"/><path stroke="#ddd" stroke-dasharray="3,2" d="M66.09 368.9H715M66.09 277.9H715M66.09 186.8H715"/></g><g class="AxisGridLines" stroke="#ddd" stroke-dasharray="3,2"><path d="M309.5 512.7V109.4M664.1 512.7V109.4"/></g></g><g clip-path="url(#a)" class="PointsWithLabels clickable"><path fill="rgba(255,255,255,0)" d="M66.09 109.4H715v403.3H66.09z"/><defs><clipPath id="a"><path d="M56.09 99.4H725v423.3H56.09z"/></clipPath></defs><circle cx="340" cy="414" r="17.84" fill="#d14e5b" opacity=".8"/><circle cx="551" cy="351" r="17.29" fill="#d14e5b" opacity=".8"/><circle cx="243" cy="421" r="8.78" fill="#4d824b" opacity=".8"/><circle cx="467" cy="348" r="7.78" fill="#d14e5b" opacity=".8"/><circle cx="386" cy="384" r="7.04" fill="#69c487" opacity=".8"/><circle cx="635" cy="265" r="6.76" fill="#d14e5b" opacity=".8"/><circle cx="681" cy="217" r="6.54" fill="#5675c1" opacity=".8"/><circle cx="508" cy="332" r="6.24" fill="#d14e5b" opacity=".8"/><circle cx="298" cy="464" r="6.02" fill="#ffd336" opacity=".8"/><circle cx="116" cy="479" r="5.7" fill="#d14e5b" opacity=".8"/><circle cx="430" cy="335" r="5.51" fill="#4d824b" opacity=".8"/><circle cx="463" cy="305" r="5.09" fill="#d14e5b" opacity=".8"/><circle cx="434" cy="358" r="4.92" fill="#d14e5b" opacity=".8"/><circle cx="586" cy="229" r="4.86" fill="#5675c1" opacity=".8"/><circle cx="429" cy="266" r="4.79" fill="#5675c1" opacity=".8"/><circle cx="137" cy="482" r="4.71" fill="#ffd336" opacity=".8"/><circle cx="376" cy="345" r="4.57" fill="#d14e5b" opacity=".8"/><circle cx="386" cy="362" r="4.54" fill="#d14e5b" opacity=".8"/><circle cx="675" cy="162" r="4.44" fill="#5675c1" opacity=".8"/><circle cx="336" cy="434" r="4.41" fill="#d14e5b" opacity=".8"/><circle cx="156" cy="432" r="4.24" fill="#ffd336" opacity=".8"/><circle cx="189" cy="429" r="4.22" fill="#ffd336" opacity=".8"/><circle cx="130" cy="479" r="4.16" fill="#ffd336" opacity=".8"/><circle cx="526" cy="358" r="3.87" fill="#5675c1" opacity=".8"/><circle cx="580" cy="172" r="3.82" fill="#5675c1" opacity=".8"/><circle cx="570" cy="369" r="3.82" fill="#d14e5b" opacity=".8"/><circle cx="139" cy="431" r="3.81" fill="#d14e5b" opacity=".8"/><circle cx="441" cy="373" r="3.79" fill="#69c487" opacity=".8"/><circle cx="131" cy="459" r="3.75" fill="#ffd336" opacity=".8"/><circle cx="297" cy="497" r="3.68" fill="#ffd336" opacity=".8"/><circle cx="558" cy="223" r="3.66" fill="#5675c1" opacity=".8"/><circle cx="371" cy="370" r="3.58" fill="#69c487" opacity=".8"/><circle cx="200" cy="465" r="3.47" fill="#ffd336" opacity=".8"/><circle cx="476" cy="285" r="3.43" fill="#5675c1" opacity=".8"/><circle cx="642" cy="152" r="3.42" fill="#5675c1" opacity=".8"/><circle cx="609" cy="225" r="3.39" fill="#5675c1" opacity=".8"/><circle cx="209" cy="429" r="3.36" fill="#4d824b" opacity=".8"/><circle cx="502" cy="200" r="3.35" fill="#d14e5b" opacity=".8"/><circle cx="618" cy="213" r="3.34" fill="#d14e5b" opacity=".8"/><circle cx="474" cy="321" r="3.29" fill="#5675c1" opacity=".8"/><circle cx="503" cy="335" r="3.24" fill="#d14e5b" opacity=".8"/><circle cx="371" cy="334" r="3.2" fill="#69c487" opacity=".8"/><circle cx="461" cy="332" r="3.19" fill="#69c487" opacity=".8"/><circle cx="264" cy="348" r="3.18" fill="#d14e5b" opacity=".8"/><circle cx="361" cy="310" r="3.16" fill="#d14e5b" opacity=".8"/><circle cx="496" cy="318" r="3.12" fill="#d14e5b" opacity=".8"/><circle cx="593" cy="248" r="3.04" fill="#5675c1" opacity=".8"/><circle cx="661" cy="196" r="3" fill="#5675c1" opacity=".8"/><circle cx="424" cy="413" r="2.98" fill="#d14e5b" opacity=".8"/><circle cx="174" cy="401" r="2.93" fill="#a652ba" opacity=".8"/><circle cx="200" cy="444" r="2.92" fill="#d14e5b" opacity=".8"/><circle cx="554" cy="214" r="2.9" fill="#5675c1" opacity=".8"/><circle cx="414" cy="309" r="2.86" fill="#d14e5b" opacity=".8"/><circle cx="288" cy="380" r="2.85" fill="#d14e5b" opacity=".8"/><circle cx="300" cy="487" r="2.85" fill="#ffd336" opacity=".8"/><circle cx="648" cy="236" r="2.84" fill="#5675c1" opacity=".8"/><circle cx="658" cy="218" r="2.83" fill="#5675c1" opacity=".8"/><circle cx="654" cy="153" r="2.83" fill="#5675c1" opacity=".8"/><circle cx="647" cy="181" r="2.71" fill="#5675c1" opacity=".8"/><circle cx="278" cy="392" r="2.69" fill="#69c487" opacity=".8"/><circle cx="679" cy="109" r="2.68" fill="#5675c1" opacity=".8"/><circle cx="684" cy="163" r="2.66" fill="#5675c1" opacity=".8"/><circle cx="149" cy="441" r="2.66" fill="#ffd336" opacity=".8"/><circle cx="375" cy="341" r="2.65" fill="#d14e5b" opacity=".8"/><circle cx="626" cy="190" r="2.64" fill="#5675c1" opacity=".8"/><circle cx="477" cy="270" r="2.6" fill="#4d824b" opacity=".8"/><circle cx="444" cy="320" r="2.58" fill="#69c487" opacity=".8"/><circle cx="475" cy="300" r="2.56" fill="#d14e5b" opacity=".8"/><circle cx="615" cy="182" r="2.55" fill="#5675c1" opacity=".8"/><circle cx="550" cy="185" r="2.51" fill="#5675c1" opacity=".8"/><circle cx="590" cy="227" r="2.5" fill="#5675c1" opacity=".8"/><circle cx="714" cy="180" r="2.45" fill="#5675c1" opacity=".8"/><circle cx="574" cy="226" r="2.42" fill="#5675c1" opacity=".8"/><circle cx="157" cy="479" r="2.42" fill="#ffd336" opacity=".8"/><circle cx="242" cy="432" r="2.41" fill="#4d824b" opacity=".8"/><circle cx="682" cy="231" r="2.39" fill="#5675c1" opacity=".8"/><circle cx="163" cy="445" r="2.38" fill="#ffd336" opacity=".8"/><circle cx="406" cy="348" r="2.38" fill="#5675c1" opacity=".8"/><circle cx="649" cy="216" r="2.38" fill="#5675c1" opacity=".8"/><circle cx="113" cy="483" r="2.38" fill="#ffd336" opacity=".8"/><circle cx="119" cy="461" r="2.37" fill="#ffd336" opacity=".8"/><circle cx="599" cy="312" r="2.36" fill="#69c487" opacity=".8"/><circle cx="615" cy="315" r="2.36" fill="#4d824b" opacity=".8"/><circle cx="458" cy="328" r="2.36" fill="#4d824b" opacity=".8"/><circle cx="695" cy="168" r="2.35" fill="#5675c1" opacity=".8"/><circle cx="211" cy="493" r="2.34" fill="#ffd336" opacity=".8"/><circle cx="664" cy="204" r="2.33" fill="#5675c1" opacity=".8"/><circle cx="101" cy="433" r="2.32" fill="#ffd336" opacity=".8"/><circle cx="495" cy="354" r="2.32" fill="#d14e5b" opacity=".8"/><circle cx="172" cy="471" r="2.32" fill="#ffd336" opacity=".8"/><circle cx="686" cy="171" r="2.29" fill="#5675c1" opacity=".8"/><circle cx="138" cy="459" r="2.27" fill="#ffd336" opacity=".8"/><circle cx="247" cy="384" r="2.25" fill="#d14e5b" opacity=".8"/><circle cx="514" cy="303" r="2.25" fill="#4d824b" opacity=".8"/><circle cx="159" cy="321" r="2.23" fill="#d14e5b" opacity=".8"/><circle cx="171" cy="438" r="2.23" fill="#ffd336" opacity=".8"/><circle cx="296" cy="512" r="2.21" fill="#ffd336" opacity=".8"/><circle cx="586" cy="270" r="2.21" fill="#a652ba" opacity=".8"/><circle cx="85" cy="421" r="2.21" fill="#d14e5b" opacity=".8"/><circle cx="541" cy="240" r="2.2" fill="#d14e5b" opacity=".8"/><circle cx="497" cy="319" r="2.18" fill="#69c487" opacity=".8"/><circle cx="404" cy="248" r="2.17" fill="#d14e5b" opacity=".8"/><circle cx="462" cy="323" r="2.17" fill="#5675c1" opacity=".8"/><circle cx="572" cy="300" r="2.16" fill="#d14e5b" opacity=".8"/><circle cx="628" cy="225" r="2.16" fill="#5675c1" opacity=".8"/><circle cx="400" cy="350" r="2.15" fill="#4d824b" opacity=".8"/><circle cx="694" cy="254" r="2.15" fill="#5675c1" opacity=".8"/><circle cx="426" cy="322" r="2.14" fill="#4d824b" opacity=".8"/><circle cx="560" cy="225" r="2.12" fill="#5675c1" opacity=".8"/><circle cx="159" cy="451" r="2.12" fill="#ffd336" opacity=".8"/><circle cx="421" cy="280" r="2.11" fill="#d14e5b" opacity=".8"/><circle cx="240" cy="453" r="2.11" fill="#ffd336" opacity=".8"/><circle cx="88" cy="449" r="2.11" fill="#ffd336" opacity=".8"/><circle cx="91" cy="422" r="2.1" fill="#d14e5b" opacity=".8"/><circle cx="567" cy="287" r="2.1" fill="#d14e5b" opacity=".8"/><circle cx="96" cy="424" r="2.08" fill="#ffd336" opacity=".8"/><circle cx="325" cy="372" r="2.08" fill="#4d824b" opacity=".8"/><circle cx="715" cy="258" r="2.06" fill="#5675c1" opacity=".8"/><circle cx="131" cy="386" r="2.06" fill="#ffd336" opacity=".8"/><circle cx="205" cy="401" r="2.06" fill="#a652ba" opacity=".8"/><circle cx="186" cy="490" r="2.05" fill="#ffd336" opacity=".8"/><circle cx="611" cy="217" r="2.05" fill="#5675c1" opacity=".8"/><circle cx="583" cy="207" r="2.05" fill="#5675c1" opacity=".8"/><circle cx="311" cy="361" r="2.05" fill="#d14e5b" opacity=".8"/><circle cx="331" cy="455" r="2.04" fill="#d14e5b" opacity=".8"/><circle cx="247" cy="434" r="2.01" fill="#4d824b" opacity=".8"/><circle cx="277" cy="476" r="2.01" fill="#ffd336" opacity=".8"/><circle cx="646" cy="217" r="2.01" fill="#5675c1" opacity=".8"/><circle cx="406" cy="324" r="2.01" fill="#4d824b" opacity=".8"/><circle cx="376" cy="468" r="2" fill="#ffd336" opacity=".8"/><circle cx="362" cy="416" r="1.99" fill="#69c487" opacity=".8"/><circle cx="200" cy="490" r="1.98" fill="#ffd336" opacity=".8"/><circle cx="375" cy="417" r="1.98" fill="#ffd336" opacity=".8"/><circle cx="367" cy="422" r="1.98" fill="#d14e5b" opacity=".8"/><circle cx="308" cy="330" r="1.97" fill="#d14e5b" opacity=".8"/><circle cx="313" cy="305" r="1.97" fill="#d14e5b" opacity=".8"/><circle cx="451" cy="292" r="1.96" fill="#d14e5b" opacity=".8"/><circle cx="388" cy="370" r="1.96" fill="#4d824b" opacity=".8"/><circle cx="526" cy="258" r="1.93" fill="#5675c1" opacity=".8"/><circle cx="612" cy="321" r="1.92" fill="#5675c1" opacity=".8"/><circle cx="254" cy="501" r="1.92" fill="#ffd336" opacity=".8"/><circle cx="516" cy="304" r="1.91" fill="#5675c1" opacity=".8"/><circle cx="301" cy="445" r="1.91" fill="#ffd336" opacity=".8"/><circle cx="118" cy="452" r="1.91" fill="#ffd336" opacity=".8"/><circle cx="276" cy="379" r="1.91" fill="#d14e5b" opacity=".8"/><circle cx="611" cy="170" r="1.9" fill="#5675c1" opacity=".8"/><circle cx="699" cy="219" r="1.89" fill="#5675c1" opacity=".8"/><circle cx="564" cy="257" r="1.88" fill="#5675c1" opacity=".8"/><circle cx="278" cy="343" r="1.87" fill="#d14e5b" opacity=".8"/><circle cx="476" cy="419" r="1.87" fill="#4d824b" opacity=".8"/><circle cx="163" cy="470" r="1.87" fill="#ffd336" opacity=".8"/><circle cx="354" cy="433" r="1.87" fill="#5675c1" opacity=".8"/><circle cx="595" cy="283" r="1.86" fill="#5675c1" opacity=".8"/><circle cx="190" cy="422" r="1.86" fill="#ffd336" opacity=".8"/><circle cx="628" cy="323" r="1.84" fill="#5675c1" opacity=".8"/><circle cx="403" cy="343" r="1.84" fill="#a652ba" opacity=".8"/><circle cx="181" cy="368" r="1.84" fill="#5675c1" opacity=".8"/><circle cx="616" cy="224" r="1.83" fill="#5675c1" opacity=".8"/><circle cx="492" cy="346" r="1.83" fill="#d14e5b" opacity=".8"/><circle cx="665" cy="238" r="1.83" fill="#5675c1" opacity=".8"/><circle cx="521" cy="345" r="1.83" fill="#69c487" opacity=".8"/><circle cx="237" cy="444" r="1.82" fill="#ffd336" opacity=".8"/><circle cx="514" cy="310" r="1.82" fill="#5675c1" opacity=".8"/><circle cx="490" cy="237" r="1.82" fill="#a652ba" opacity=".8"/><circle cx="159" cy="385" r="1.82" fill="#d14e5b" opacity=".8"/><circle cx="427" cy="358" r="1.82" fill="#69c487" opacity=".8"/><circle cx="160" cy="423" r="1.82" fill="#ffd336" opacity=".8"/><circle cx="450" cy="318" r="1.82" fill="#5675c1" opacity=".8"/><circle cx="211" cy="450" r="1.81" fill="#ffd336" opacity=".8"/><circle cx="260" cy="345" r="1.81" fill="#d14e5b" opacity=".8"/><circle cx="248" cy="432" r="1.81" fill="#4d824b" opacity=".8"/><circle cx="344" cy="385" r="1.81" fill="#4d824b" opacity=".8"/><circle cx="66" cy="396" r="1.8" fill="#ffd336" opacity=".8"/><circle cx="371" cy="303" r="1.8" fill="#4d824b" opacity=".8"/><circle cx="288" cy="319" r="1.8" fill="#d14e5b" opacity=".8"/><circle cx="249" cy="367" r="1.8" fill="#a652ba" opacity=".8"/><circle cx="311" cy="447" r="1.8" fill="#4d824b" opacity=".8"/><circle cx="362" cy="377" r="1.8" fill="#a652ba" opacity=".8"/><circle cx="461" cy="265" r="1.8" fill="#a652ba" opacity=".8"/><circle cx="320" cy="264" r="1.8" fill="#69c487" opacity=".8"/><circle cx="181" cy="211" r="1.8" fill="#5675c1" opacity=".8"/><circle cx="314" cy="351" r="1.8" fill="#a652ba" opacity=".8"/><circle cx="417" cy="276" r="1.8" fill="#a652ba" opacity=".8"/><circle cx="357" cy="416" r="1.79" fill="#4d824b" opacity=".8"/><circle cx="588" cy="209" r="1.79" fill="#5675c1" opacity=".8"/><circle cx="415" cy="381" r="1.79" fill="#4d824b" opacity=".8"/><circle cx="386" cy="438" r="1.79" fill="#4d824b" opacity=".8"/><circle cx="341" cy="352" r="1.79" fill="#4d824b" opacity=".8"/><circle cx="442" cy="292" r="1.79" fill="#a652ba" opacity=".8"/><circle cx="578" cy="263" r="1.79" fill="#a652ba" opacity=".8"/><circle cx="317" cy="363" r="1.79" fill="#4d824b" opacity=".8"/><circle cx="331" cy="382" r="1.79" fill="#5675c1" opacity=".8"/><circle cx="541" cy="356" r="1.78" fill="#000" opacity=".8"/><circle cx="224" cy="451" r="1.78" fill="#000" opacity=".8"/><circle cx="554" cy="336" r="1.78" fill="#000" opacity=".8"/><circle cx="623" cy="235" r="1.78" fill="#000" opacity=".8"/><circle cx="523" cy="355" r="1.78" fill="#000" opacity=".8"/><circle cx="572" cy="312" r="1.78" fill="#000" opacity=".8"/><circle cx="213" cy="438" r="1.78" fill="#000" opacity=".8"/><circle cx="528" cy="355" r="1.78" fill="#000" opacity=".8"/><circle cx="388" cy="395" r="1.78" fill="#000" opacity=".8"/><circle cx="571" cy="320" r="1.78" fill="#000" opacity=".8"/><circle cx="636" cy="209" r="1.78" fill="#000" opacity=".8"/><circle cx="644" cy="211" r="1.78" fill="#000" opacity=".8"/><circle cx="630" cy="223" r="1.78" fill="#000" opacity=".8"/><circle cx="612" cy="203" r="1.78" fill="#000" opacity=".8"/><circle cx="672" cy="177" r="1.78" fill="#000" opacity=".8"/><circle cx="500" cy="277" r="1.78" fill="#000" opacity=".8"/><circle cx="533" cy="349" r="1.78" fill="#000" opacity=".8"/><circle cx="520" cy="301" r="1.78" fill="#a652ba" opacity=".8"/><circle cx="389" cy="324" r="1.78" fill="#000" opacity=".8"/><circle cx="666" cy="209" r="1.78" fill="#000" opacity=".8"/><circle cx="503" cy="368" r="1.78" fill="#000" opacity=".8"/><circle cx="332" cy="420" r="1.78" fill="#000" opacity=".8"/><circle cx="558" cy="336" r="1.78" fill="#000" opacity=".8"/><circle cx="486" cy="308" r="1.78" fill="#000" opacity=".8"/><circle cx="561" cy="337" r="1.78" fill="#000" opacity=".8"/><circle cx="466" cy="352" r="1.78" fill="#000" opacity=".8"/><circle cx="556" cy="188" r="1.78" fill="#d14e5b" opacity=".8"/><circle cx="460" cy="308" r="1.78" fill="#000" opacity=".8"/><circle cx="431" cy="199" r="1.78" fill="#d14e5b" opacity=".8"/><circle cx="581" cy="226" r="1.78" fill="#d14e5b" opacity=".8"/><circle cx="226" cy="463" r="1.78" fill="#000" opacity=".8"/><circle cx="282" cy="473" r="1.78" fill="#000" opacity=".8"/><circle cx="172" cy="433" r="1.78" fill="#000" opacity=".8"/><circle cx="288" cy="456" r="1.78" fill="#ffd336" opacity=".8"/><circle cx="178" cy="471" r="1.78" fill="#000" opacity=".8"/><circle cx="318" cy="478" r="1.78" fill="#000" opacity=".8"/><circle cx="149" cy="456" r="1.78" fill="#000" opacity=".8"/><circle cx="433" cy="358" r="1.78" fill="#000" opacity=".8"/><circle cx="511" cy="372" r="1.78" fill="#000" opacity=".8"/><circle cx="328" cy="421" r="1.78" fill="#4d824b" opacity=".8"/><circle cx="226" cy="429" r="1.78" fill="#000" opacity=".8"/><circle cx="312" cy="413" r="1.78" fill="#4d824b" opacity=".8"/><circle cx="440" cy="328" r="1.78" fill="#000" opacity=".8"/><circle cx="418" cy="369" r="1.78" fill="#000" opacity=".8"/><circle cx="241" cy="422" r="1.78" fill="#000" opacity=".8"/><circle cx="451" cy="368" r="1.78" fill="#000" opacity=".8"/><circle cx="179" cy="401" r="1.78" fill="#000" opacity=".8"/><circle cx="570" cy="278" r="1.78" fill="#000" opacity=".8"/><circle cx="495" cy="325" r="1.78" fill="#000" opacity=".8"/><text x="340" y="395.16" font-size="14.3" font-family="Arial Narrow, Arial, sans-serif" fill="#666">China</text><text x="551" y="332.71" font-size="14.1" font-family="Arial Narrow, Arial, sans-serif" fill="#666">India</text><text x="243" y="411.22" font-size="11.77" font-family="Arial Narrow, Arial, sans-serif" fill="#666">United States</text><text x="467" y="339.22" font-size="11.6" font-family="Arial Narrow, Arial, sans-serif" fill="#666">Indonesia</text><text x="386" y="375.96" font-size="11.49" font-family="Arial Narrow, Arial, sans-serif" fill="#666">Brazil</text><text x="635" y="257.24" font-size="11.44" font-family="Arial Narrow, Arial, sans-serif" fill="#666">Pakistan</text><text x="644.81" y="209.46" font-size="11.41" font-family="Arial Narrow, Arial, sans-serif" fill="#666">Nigeria</text><text x="298" y="456.98" font-size="11.35" font-family="Arial Narrow, Arial, sans-serif" fill="#666">Russia</text><text x="116" y="472.3" font-size="11.31" font-family="Arial Narrow, Arial, sans-serif" fill="#666">Japan</text><text x="430" y="328.49" font-size="11.29" font-family="Arial Narrow, Arial, sans-serif" fill="#666">Mexico</text><text x="463" y="298.91" font-size="11.24" font-family="Arial Narrow, Arial, sans-serif" fill="#666">Philippines</text><text x="434" y="352.08" font-size="11.22" font-family="Arial Narrow, Arial, sans-serif" fill="#666">Vietnam</text><text x="586" y="223.14" font-size="11.21" font-family="Arial Narrow, Arial, sans-serif" fill="#666">Ethiopia</text><text x="429" y="260.21" font-size="11.21" font-family="Arial Narrow, Arial, sans-serif" fill="#666">Egypt</text><text x="376" y="339.43" font-size="11.19" font-family="Arial Narrow, Arial, sans-serif" fill="#666">Iran</text><text x="386" y="356.46" font-size="11.18" font-family="Arial Narrow, Arial, sans-serif" fill="#666">Turkey</text><text x="523.04" y="156.56" font-size="11.17" font-family="Arial Narrow, Arial, sans-serif" fill="#666">Democratic Republic of Congo</text><text x="336" y="428.59" font-size="11.17" font-family="Arial Narrow, Arial, sans-serif" fill="#666">Thailand</text><text x="156" y="426.76" font-size="11.15" font-family="Arial Narrow, Arial, sans-serif" fill="#666">France</text><text x="526" y="353.13" font-size="11.12" font-family="Arial Narrow, Arial, sans-serif" fill="#666">South Africa</text><text x="441" y="368.21" font-size="11.12" font-family="Arial Narrow, Arial, sans-serif" fill="#666">Colombia</text><text x="131" y="454.25" font-size="11.11" font-family="Arial Narrow, Arial, sans-serif" fill="#666">Spain</text><text x="297" y="492.32" font-size="11.11" font-family="Arial Narrow, Arial, sans-serif" fill="#666">Ukraine</text><text x="200" y="460.53" font-size="11.09" font-family="Arial Narrow, Arial, sans-serif" fill="#666">Poland</text><text x="476" y="280.57" font-size="11.09" font-family="Arial Narrow, Arial, sans-serif" fill="#666">Algeria</text><text x="209" y="424.64" font-size="11.08" font-family="Arial Narrow, Arial, sans-serif" fill="#666">Canada</text><text x="502" y="195.65" font-size="11.08" font-family="Arial Narrow, Arial, sans-serif" fill="#666">Iraq</text><text x="474" y="316.71" font-size="11.08" font-family="Arial Narrow, Arial, sans-serif" fill="#666">Morocco</text><text x="264" y="343.82" font-size="11.07" font-family="Arial Narrow, Arial, sans-serif" fill="#666">Malaysia</text><text x="361" y="305.84" font-size="11.07" font-family="Arial Narrow, Arial, sans-serif" fill="#666">Saudi Arabia</text><text x="593" y="243.96" font-size="11.06" font-family="Arial Narrow, Arial, sans-serif" fill="#666">Ghana</text><text x="597.51" y="192" font-size="11.06" font-family="Arial Narrow, Arial, sans-serif" fill="#666">Mozambique</text><text x="424" y="409.02" font-size="11.06" font-family="Arial Narrow, Arial, sans-serif" fill="#666">North Korea</text><text x="174" y="397.07" font-size="11.06" font-family="Arial Narrow, Arial, sans-serif" fill="#666">Australia</text><text x="200" y="440.08" font-size="11.06" font-family="Arial Narrow, Arial, sans-serif" fill="#666">Taiwan</text><text x="554" y="210.1" font-size="11.05" font-family="Arial Narrow, Arial, sans-serif" fill="#666">Madagascar</text><text x="288" y="376.15" font-size="11.05" font-family="Arial Narrow, Arial, sans-serif" fill="#666">Sri Lanka</text><text x="648" y="232.16" font-size="11.05" font-family="Arial Narrow, Arial, sans-serif" fill="#666">Cote d&apos;Ivoire</text><text x="647" y="177.29" font-size="11.04" font-family="Arial Narrow, Arial, sans-serif" fill="#666">Burkina Faso</text><text x="278" y="388.31" font-size="11.04" font-family="Arial Narrow, Arial, sans-serif" fill="#666">Chile</text><text x="679" y="120.44" font-size="11.04" font-family="Arial Narrow, Arial, sans-serif" fill="#666">Niger</text><text x="684" y="159.34" font-size="11.04" font-family="Arial Narrow, Arial, sans-serif" fill="#666">Mali</text><text x="477" y="266.4" font-size="11.04" font-family="Arial Narrow, Arial, sans-serif" fill="#666">Guatemala</text><text x="550" y="181.49" font-size="11.03" font-family="Arial Narrow, Arial, sans-serif" fill="#666">Senegal</text><text x="157" y="475.58" font-size="11.03" font-family="Arial Narrow, Arial, sans-serif" fill="#666">Greece</text><text x="599" y="308.64" font-size="11.03" font-family="Arial Narrow, Arial, sans-serif" fill="#666">Bolivia</text><text x="211" y="489.66" font-size="11.02" font-family="Arial Narrow, Arial, sans-serif" fill="#666">Hungary</text><text x="101" y="429.68" font-size="11.02" font-family="Arial Narrow, Arial, sans-serif" fill="#666">Sweden</text><text x="159" y="317.77" font-size="11.02" font-family="Arial Narrow, Arial, sans-serif" fill="#666">Israel</text><text x="296" y="508.79" font-size="11.02" font-family="Arial Narrow, Arial, sans-serif" fill="#666">Bulgaria</text><text x="85" y="417.79" font-size="11.02" font-family="Arial Narrow, Arial, sans-serif" fill="#666">Hong Kong</text><text x="541" y="236.8" font-size="11.02" font-family="Arial Narrow, Arial, sans-serif" fill="#666">Tajikistan</text><text x="404" y="244.83" font-size="11.02" font-family="Arial Narrow, Arial, sans-serif" fill="#666">Jordan</text><text x="572" y="296.84" font-size="11.02" font-family="Arial Narrow, Arial, sans-serif" fill="#666">Laos</text><text x="421" y="276.89" font-size="11.01" font-family="Arial Narrow, Arial, sans-serif" fill="#666">Kyrgyzstan</text><text x="240" y="449.89" font-size="11.01" font-family="Arial Narrow, Arial, sans-serif" fill="#666">Slovakia</text><text x="88" y="445.89" font-size="11.01" font-family="Arial Narrow, Arial, sans-serif" fill="#666">Finland</text><text x="567" y="283.9" font-size="11.01" font-family="Arial Narrow, Arial, sans-serif" fill="#666">Turkmenistan</text><text x="131" y="382.94" font-size="11.01" font-family="Arial Narrow, Arial, sans-serif" fill="#666">Ireland</text><text x="311" y="357.95" font-size="11.01" font-family="Arial Narrow, Arial, sans-serif" fill="#666">Lebanon</text><text x="277" y="472.99" font-size="11.01" font-family="Arial Narrow, Arial, sans-serif" fill="#666">Bosnia and Herzegovina</text><text x="362" y="413.01" font-size="11.01" font-family="Arial Narrow, Arial, sans-serif" fill="#666">Uruguay</text><text x="308" y="327.03" font-size="11.01" font-family="Arial Narrow, Arial, sans-serif" fill="#666">Kuwait</text><text x="313" y="302.03" font-size="11.01" font-family="Arial Narrow, Arial, sans-serif" fill="#666">Oman</text><text x="526" y="255.07" font-size="11.01" font-family="Arial Narrow, Arial, sans-serif" fill="#666">Namibia</text><text x="254" y="498.08" font-size="11.01" font-family="Arial Narrow, Arial, sans-serif" fill="#666">Latvia</text><text x="301" y="442.09" font-size="11" font-family="Arial Narrow, Arial, sans-serif" fill="#666">Macedonia</text><text x="628" y="320.16" font-size="11" font-family="Arial Narrow, Arial, sans-serif" fill="#666">Djibouti</text><text x="403" y="340.16" font-size="11" font-family="Arial Narrow, Arial, sans-serif" fill="#666">Fiji</text><text x="181" y="365.16" font-size="11" font-family="Arial Narrow, Arial, sans-serif" fill="#666">Reunion</text><text x="66" y="393.2" font-size="11" font-family="Arial Narrow, Arial, sans-serif" fill="#666">Iceland</text><text x="320" y="261.2" font-size="11" font-family="Arial Narrow, Arial, sans-serif" fill="#666">French Guiana</text><text x="181" y="208.2" font-size="11" font-family="Arial Narrow, Arial, sans-serif" fill="#666">Mayotte</text><text x="386" y="435.21" font-size="11" font-family="Arial Narrow, Arial, sans-serif" fill="#666">Aruba</text><text x="578" y="260.21" font-size="11" font-family="Arial Narrow, Arial, sans-serif" fill="#666">Kiribati</text><text x="388" y="392.22" font-size="11" font-family="Arial Narrow, Arial, sans-serif" fill="#666">Upper-middle-income countries</text><text x="503" y="365.22" font-size="11" font-family="Arial Narrow, Arial, sans-serif" fill="#666">Asia</text><text x="431" y="196.22" font-size="11" font-family="Arial Narrow, Arial, sans-serif" fill="#666">Palestine</text></g><g class="ScatterColorLegend clickable" cursor="pointer"><g class="legendMark">,<path fill="#5675c1" d="M735 112.4h6v6h-6z"/>,<text font-size="12.6" x="746" y="119.5"><tspan x="746" y="119.48">Africa</tspan></text></g><g class="legendMark">,<path fill="#d14e5b" d="M735 130h6v6h-6z"/>,<text font-size="12.6" x="746" y="137.1"><tspan x="746" y="137.08">Asia</tspan></text></g><g class="legendMark">,<path fill="#ffd336" d="M735 147.6h6v6h-6z"/>,<text font-size="12.6" x="746" y="154.7"><tspan x="746" y="154.68">Europe</tspan></text></g><g class="legendMark">,<path fill="#4d824b" d="M735 165.2h6v6h-6z"/>,<text font-size="12.6" x="746" y="172.3"><tspan x="746" y="172.28">North America</tspan></text></g><g class="legendMark">,<path fill="#a652ba" d="M735 182.8h6v6h-6z"/>,<text font-size="12.6" x="746" y="189.9"><tspan x="746" y="189.88">Oceania</tspan></text></g><g class="legendMark">,<path fill="#69c487" d="M735 200.4h6v6h-6z"/>,<text font-size="12.6" x="746" y="207.5"><tspan x="746" y="207.48">South America</tspan></text></g></g></g><g class="SourcesFooter" fill="#777"><g class="clickable" fill="#777"><text font-size="12.6" x="15" y="581.6"><tspan x="15" y="581.58">Source: UN Population Division (2017 Revision)</tspan></text></g><text font-size="12.6" x="507.1" y="581.6"><tspan x="507.15" y="581.58"><a target="_blank" href="https://ourworldindata.org/world-population-growth/" fill="#777">OurWorldInData.org/world-population-growth/</a> • <a href="http://creativecommons.org/licenses/by-sa/4.0/deed.en_US" target="_blank" fill="#777">CC BY-SA</a></tspan></text></g></g></svg>