<svg xmlns="http://www.w3.org/2000/svg" version="1.1" style="background-color:#fff;-webkit-font-smoothing:antialiased" width="850" height="600" font-family="'Helvetica Neue',Helvetica,Arial,sans-serif" font-size="18" text-rendering="optimizeLegibility"><g class="ChartTab"><g class="HeaderView"><g opacity=".8" transform="matrix(.31 0 0 .31 770 15)"><a xmlns:xlink="http://www.w3.org/1999/xlink" xlink:href="https://ourworldindata.org" target="_blank"><g><path fill="#1B2543" d="M0 0h211.2v130.1H0z"/><path fill="#E63912" d="M0 112.2h211.2v17.9H0z"/><g><path fill="none" d="M1.2 12.3h210.2v99.2H1.2z"/><path fill="#FFF" d="M37.8 32.2c0 12.7-7.7 19.4-17.1 19.4-9.7 0-16.6-7.5-16.6-18.7 0-11.7 7.3-19.3 17.1-19.3 10.1.1 16.6 7.7 16.6 18.6zm-28.6.6c0 7.9 4.3 14.9 11.8 14.9 7.5 0 11.8-6.9 11.8-15.3 0-7.3-3.8-14.9-11.8-14.9-7.9 0-11.8 7.3-11.8 15.3zM62.7 43.8c0 2.7.1 5.1.2 7.2h-4.3l-.3-4.3h-.1c-1.3 2.1-4 4.9-8.8 4.9-4.2 0-9.1-2.3-9.1-11.6V24.6h4.8v14.6c0 5 1.5 8.4 5.9 8.4 3.2 0 5.5-2.2 6.3-4.4.3-.7.4-1.6.4-2.5V24.6h4.8v19.2zM67.3 32.8c0-3.1-.1-5.8-.2-8.2h4.2l.2 5.2h.2c1.2-3.5 4.1-5.8 7.3-5.8.5 0 .9.1 1.4.2v4.5c-.5-.1-1-.2-1.6-.2-3.4 0-5.8 2.6-6.5 6.2-.1.7-.2 1.4-.2 2.2V51h-4.8V32.8zM95.4 51L86 14.2h5l4.4 18.6c1.1 4.6 2.1 9.2 2.7 12.7h.1c.6-3.7 1.8-8 3-12.8l4.9-18.5h5l4.5 18.7c1 4.4 2 8.7 2.6 12.6h.1c.8-4 1.8-8.1 3-12.7l4.9-18.5h4.9L120.6 51h-5L111 31.9c-1.1-4.7-1.9-8.3-2.4-12h-.1c-.7 3.7-1.5 7.3-2.8 12L100.4 51h-5zM154.9 37.6c0 9.8-6.8 14-13.2 14-7.2 0-12.7-5.2-12.7-13.6 0-8.8 5.8-14 13.1-14 7.7 0 12.8 5.5 12.8 13.6zm-21 .3c0 5.8 3.3 10.1 8 10.1 4.6 0 8-4.3 8-10.3 0-4.5-2.2-10.1-7.9-10.1s-8.1 5.2-8.1 10.3zM158.2 32.8c0-3.1-.1-5.8-.2-8.2h4.2l.2 5.2h.2c1.2-3.5 4.1-5.8 7.3-5.8.5 0 .9.1 1.4.2v4.5c-.5-.1-1-.2-1.6-.2-3.4 0-5.8 2.6-6.5 6.2-.1.7-.2 1.4-.2 2.2V51h-4.8V32.8zM173.5 12.3h4.8V51h-4.8V12.3zM206.5 12.3v31.9c0 2.3.1 5 .2 6.8h-4.3l-.2-4.6h-.2c-1.5 2.9-4.7 5.2-9 5.2-6.4 0-11.3-5.4-11.3-13.4-.1-8.8 5.4-14.2 11.9-14.2 4 0 6.8 1.9 8 4h.1V12.3h4.8zm-4.8 23.1c0-.6-.1-1.4-.2-2a7 7 0 00-6.9-5.6c-5 0-7.9 4.4-7.9 10.2 0 5.3 2.6 9.8 7.8 9.8 3.2 0 6.2-2.1 7.1-5.7.2-.7.2-1.3.2-2.1v-4.6zM42.8 64c.1 1.6-1.1 2.9-3.1 2.9-1.7 0-2.9-1.3-2.9-2.9 0-1.7 1.3-3 3-3 1.9 0 3 1.3 3 3zm-5.4 33.8V71.4h4.8v26.4h-4.8zM47.5 78.6c0-2.7-.1-5-.2-7.1h4.3l.3 4.4h.1c1.3-2.5 4.4-5 8.8-5 3.7 0 9.4 2.2 9.4 11.2v15.8h-4.8V82.6c0-4.3-1.6-7.8-6.1-7.8-3.2 0-5.6 2.2-6.5 4.9-.2.6-.3 1.4-.3 2.2v15.9h-4.8V78.6zM84 61.6c2.9-.4 6.3-.8 10.1-.8 6.8 0 11.7 1.6 14.9 4.6 3.3 3 5.2 7.3 5.2 13.2 0 6-1.9 10.9-5.3 14.3-3.4 3.4-9.1 5.3-16.3 5.3-3.4 0-6.2-.2-8.6-.4V61.6zm4.8 32.5c1.2.2 3 .3 4.8.3 10.2 0 15.7-5.7 15.7-15.6.1-8.7-4.9-14.2-14.9-14.2-2.5 0-4.3.2-5.6.5v29zM132.1 97.8l-.4-3.3h-.2a9.79 9.79 0 01-8.1 3.9c-5.4 0-8.1-3.8-8.1-7.6 0-6.4 5.7-9.9 15.9-9.8v-.5c0-2.2-.6-6.1-6-6.1-2.5 0-5 .8-6.9 2l-1.1-3.2c2.2-1.4 5.4-2.3 8.7-2.3 8.1 0 10.1 5.5 10.1 10.8v9.9c0 2.3.1 4.5.4 6.3h-4.3zm-.7-13.4c-5.3-.1-11.2.8-11.2 5.9 0 3.1 2.1 4.6 4.5 4.6 3.4 0 5.6-2.2 6.4-4.4.2-.5.3-1 .3-1.5v-4.6zM146.6 63.9v7.6h6.9v3.7h-6.9v14.2c0 3.3.9 5.1 3.6 5.1 1.3 0 2.2-.2 2.8-.3l.2 3.6c-.9.4-2.4.7-4.3.7-2.2 0-4-.7-5.2-2-1.4-1.4-1.9-3.8-1.9-6.9V75.1h-4.1v-3.7h4.1v-6.3l4.8-1.2zM171.4 97.8l-.4-3.3h-.2a9.79 9.79 0 01-8.1 3.9c-5.4 0-8.1-3.8-8.1-7.6 0-6.4 5.7-9.9 15.9-9.8v-.5c0-2.2-.6-6.1-6-6.1-2.5 0-5 .8-6.9 2l-1.1-3.2c2.2-1.4 5.4-2.3 8.7-2.3 8.1 0 10.1 5.5 10.1 10.8v9.9c0 2.3.1 4.5.4 6.3h-4.3zm-.7-13.4c-5.3-.1-11.2.8-11.2 5.9 0 3.1 2.1 4.6 4.5 4.6 3.4 0 5.6-2.2 6.4-4.4.2-.5.3-1 .3-1.5v-4.6z"/></g></g></a></g><a href="https://ourworldindata.org/grapher/CO2-by-source" target="_blank"><text font-size="27" x="15" y="36.6" fill="#555"><tspan x="15" y="36.6">CO₂ emissions by source, World</tspan></text></a><text font-size="14.4" x="15" y="55.5" fill="#666"><tspan x="15" y="55.52">Annual carbon dioxide (CO₂) emissions in million tonnes from solid fuel (e.g. coal); liquid (e.g. oil); gas (e.g. natural</tspan><tspan x="15" y="71.36">gas); cement production and gas flaring</tspan></text></g><g class="StackedArea"><defs><clipPath id="a"><path d="M69.9 0h820v925.2h-820z"/></clipPath></defs><g class="AxisBoxView"><g class="HorizontalAxis" fill="#666" text-anchor="middle" font-size="16.2"><text x="69.9" y="556.5">1751</text><text x="186.3" y="556.5">1800</text><text x="305.1" y="556.5">1850</text><text x="423.9" y="556.5">1900</text><text x="542.6" y="556.5">1950</text><text x="692.3" y="556.5">2013</text></g><g class="VerticalAxis" fill="#666" dominant-baseline="middle" text-anchor="end" font-size="16.2"><text x="64.9" y="535.3">0</text><text x="64.9" y="473.7">5,000</text><text x="64.9" y="412.2">10,000</text><text x="64.9" y="350.6">15,000</text><text x="64.9" y="289">20,000</text><text x="64.9" y="227.4">25,000</text><text x="64.9" y="165.9">30,000</text><text x="64.9" y="104.3">35,000</text></g><g class="AxisGridLines"><path stroke="#ccc" d="M69.9 535.3h622.41"/><path stroke="#ddd" stroke-dasharray="3,2" d="M69.9 473.7h622.41M69.9 412.2h622.41M69.9 350.6h622.41M69.9 289h622.41M69.9 227.4h622.41M69.9 165.9h622.41M69.9 104.3h622.41"/></g><g class="AxisGridLines" stroke="#ddd" stroke-dasharray="3,2"><path d="M186.3 535.3V93.9M305.1 535.3V93.9M423.9 535.3V93.9M542.6 535.3V93.9M661.4 535.3V93.9"/></g></g><g clip-path="url(#a)"><g class="HeightedLegend clickable"><g class="legendMark"><path fill="#ffd53e" d="M697.31 526.85h10v2.5h-10z"/><text font-size="14.4" x="712.3" y="532.4" fill="#333"><tspan x="712.31" y="532.42">CO₂ from flaring</tspan></text></g><g class="legendMark"><path fill="#3360a9" d="M697.31 512.45h10v2.5h-10z"/><text font-size="14.4" x="712.3" y="518" fill="#333"><tspan x="712.31" y="518.02">CO₂ from cement</tspan></text></g><g class="legendMark"><path fill="#9ecc8a" d="M697.31 433.35h10v2.5h-10z"/><text font-size="14.4" x="712.3" y="438.9" fill="#333"><tspan x="712.31" y="438.92">CO₂ from liquid</tspan></text></g><g class="legendMark"><path fill="#818282" d="M697.31 267.45h10v2.5h-10z"/><text font-size="14.4" x="712.3" y="273" fill="#333"><tspan x="712.31" y="273.02">CO₂ from solid fuel</tspan></text></g><g class="legendMark"><path fill="#2a939b" d="M697.31 133.45h10v2.5h-10z"/><text font-size="14.4" x="712.3" y="139" fill="#333"><tspan x="712.31" y="139.02">CO₂ from gas</tspan></text></g></g><g class="Areas"><path d="M69.9 535.3H540.3l2.3-1 2.4-.1 2.4-.1H552.1l2.4-.2h2.4l2.4-.2H564l2.4-.2 2.4-.1 2.4-.1 2.3-.1 2.4-.2 2.4-.2 2.4-.2 2.3-.3 2.4-.3 2.4-.3 2.4-.3 2.3-.1 2.4-.3 2.4-.7 2.4.2 2.3.6 2.4-.7 2.4.2 2.4-.1 2.3.4 2.4.5 2.4 1h2.4l2.3.3 2.4.3 2.4.1 2.4.1 2.3.1 2.4-.3 2.4.4 2.4.1 2.3-.2 2.4.4 2.4-.1 2.4-.1h7.1l2.4.2h2.4l2.3-.5h2.4l2.4-.1h2.4l2.3-.2 2.4-.3 2.4-.1 2.4-.2 2.3-.1 2.4.2 2.4-.1 2.4.1h2.3l2.4-.2.01 3.1H69.9" fill="#ffd53e" fill-opacity=".7" class="World_4-area"/><path d="M69.9 535.3H488l2.4-.5H495.1l2.4.1 2.4.1h2.4l2.3-.1h2.4l2.4-.1H514.1l2.4-.1 2.4.1h7.1l2.4.2h2.4l2.3-.2h2.4l2.4-.1 2.4-.1 2.3-1.2 2.4-.1 2.4-.2 2.4-.1 2.3-.1 2.4-.4 2.4-.1 2.4-.2 2.4-.1 2.3-.2 2.4-.3 2.4-.2 2.4-.3 2.3-.2 2.4-.5 2.4-.2 2.4-.5 2.3-.3 2.4-.6 2.4-.5 2.4-.5 2.3-.3 2.4-.5 2.4-1 2.4.1 2.3.8 2.4-1.1 2.4-.1 2.4-.4 2.3.2 2.4.5 2.4.9h2.4l2.3.1 2.4.2h2.4l2.4-.2 2.3-.1 2.4-.7 2.4.2h2.4l2.3-.4 2.4.1 2.4-.4 2.4-.6 2.4-.5 2.3-.3 2.4-.2 2.4.1 2.4-.3 2.3-.9 2.4-.5 2.4-.8 2.4-1 2.3-1.3 2.4-1.3 2.4-1.7 2.4-1.3 2.3-.4 2.4-1 2.4-1.6 2.4-2.1 2.3-1.1 2.4-1.7v25l-2.4.2h-2.3l-2.4-.1-2.4.1-2.4-.2-2.3.1-2.4.2-2.4.1-2.4.3-2.3.2h-2.4l-2.4.1h-2.4l-2.3.5h-2.4l-2.4-.2h-7.1l-2.4.1-2.4.1-2.4-.4-2.3.2-2.4-.1-2.4-.4-2.4.3-2.3-.1-2.4-.1-2.4-.1-2.4-.3-2.3-.3h-2.4l-2.4-1-2.4-.5-2.3-.4-2.4.1-2.4-.2-2.4.7-2.3-.6-2.4-.2-2.4.7-2.4.3-2.3.1-2.4.3-2.4.3-2.4.3-2.3.3-2.4.2-2.4.2-2.4.2-2.3.1-2.4.1-2.4.1-2.4.2H559.3l-2.4.2h-2.4l-2.4.2H547.4l-2.4.1-2.4.1-2.3 1H69.9" fill="#3360a9" fill-opacity=".7" class="World_3-area"/><path d="M69.9 535.3H366.9l2.3-.1H376.4l2.3-.1h2.4l2.4.1 2.4-.1h9.5l2.3-.1 2.4-.1h4.8l2.3-.1 2.4.1 2.4-.1h2.4l2.3-.1h4.8l2.4-.1 2.3-.1 2.4-.1h2.4l2.4-.1H438.1l2.4-.3 2.4-.1h2.3l2.4-.1 2.4-.1 2.4-.1 2.3-.2h2.4l2.4-.1 2.4-.2 2.4-.2h2.3l2.4-.4 2.4-.7 2.4-.3 2.3-.4 2.4-.8h2.4l2.4-.2 2.3-.2 2.4-.7 2.4-.8 2.4-.8 2.3.4 2.4.3 2.4.3 2.4-.6 2.3-.4 2.4-.7 2.4-.8 2.4-1.2 2.3.2 2.4-.4 2.4-.2 2.4-.4 2.3.7 2.4-.7 2.4-1.5h2.4l2.3-.9 2.4-1.5 2.4-2h2.4l2.3-3.9 2.4-2.6 2.4-1.3 2.4-1.5 2.3-1.2 2.4-3.4 2.4-2.6 2.4-1.8 2.4-.8 2.3-2.9 2.4-2.9 2.4-2.7 2.4-3.8 2.3-3.4 2.4-4.3 2.4-4 2.4-5.1 2.3-4.9 2.4-6.3 2.4-6 2.4-8 2.3-5.2 2.4-5.5 2.4-9.3h2.4l2.3 5.8 2.4-9.3 2.4-3.9 2.4-.1 2.3-6.7 2.4 6 2.4 6.9 2.4 4.3 2.3 1 2.4-.9 2.4.6 2.4-5 2.3-.8 2.4-5.4 2.4-1.9 2.4-1.4 2.3-5.5 2.4 4.7 2.4-1 2.4-1.5 2.4-1.6 2.3-3.4 2.4-3.5 2.4-2.5 2.4.5 2.3-5.6 2.4-.6 2.4-.1 2.4-6.8 2.3-5.1 2.4-2.4 2.4-2.8 2.4-1.6 2.3-1.6 2.4 1.7 2.4-4.5 2.4-3.4 2.3-3.6 2.4-1.8v145.2l-2.4 1.7-2.3 1.1-2.4 2.1-2.4 1.6-2.4 1-2.3.4-2.4 1.3-2.4 1.7-2.4 1.3-2.3 1.3-2.4 1-2.4.8-2.4.5-2.3.9-2.4.3-2.4-.1-2.4.2-2.3.3-2.4.5-2.4.6-2.4.4-2.4-.1-2.3.4h-2.4l-2.4-.2-2.4.7-2.3.1-2.4.2h-2.4l-2.4-.2-2.3-.1h-2.4l-2.4-.9-2.4-.5-2.3-.2-2.4.4-2.4.1-2.4 1.1-2.3-.8-2.4-.1-2.4 1-2.4.5-2.3.3-2.4.5-2.4.5-2.4.6-2.3.3-2.4.5-2.4.2-2.4.5-2.3.2-2.4.3-2.4.2-2.4.3-2.3.2-2.4.1-2.4.2-2.4.1-2.4.4-2.3.1-2.4.1-2.4.2-2.4.1-2.3 1.2-2.4.1-2.4.1h-2.4l-2.3.2h-2.4l-2.4-.2h-7.1l-2.4-.1-2.4.1H509.4l-2.4.1h-2.4l-2.3.1h-2.4l-2.4-.1-2.4-.1H490.4l-2.4.5H69.9" fill="#9ecc8a" fill-opacity=".7" class="World_2-area"/><path d="M69.9 535.2H115l2.4-.1H162.5l2.4-.1h19l2.4-.1h2.4l2.4-.1 2.3.1h4.8l2.4-.1h21.3l2.4-.1h11.9l2.4-.1H243.3l2.4-.1h9.5l2.4-.3 2.3.1h2.4l2.4-.1H269.4l2.4-.2h2.4l2.4-.1h2.4l2.3-.1h2.4l2.4-.1 2.4-.1 2.3-.1 2.4-.1h2.4l2.4-.2h2.3l2.4-.2 2.4-.1h2.4l2.3-.2 2.4-.1 2.4-.4 2.4-.1 2.3-.2 2.4-.1h2.4l2.4-.2 2.3-.4 2.4-.2h2.4l2.4-.4 2.3-.4 2.4-.3 2.4-.1 2.4-.4 2.3-.2 2.4-.3 2.4-.2 2.4-.5 2.3-.8 2.4-.4 2.4.4 2.4-.6 2.4-.1 2.3-.2 2.4-.1 2.4-.6 2.4-1.2 2.3-.3 2.4-.6 2.4-.7 2.4-.1 2.3-.1 2.4-.1 2.4-.6 2.4-1.3 2.3-.1 2.4-1.3 2.4-.8 2.4-.1 2.3.2 2.4-.6 2.4-1 2.4-.6 2.3-1 2.4-1.1 2.4-1.9 2.4-1.2 2.3-.8 2.4-.6 2.4-2.3 2.4-.3 2.3-1.8 2.4-1.9 2.4-3.4 2.4 1.5 2.3-1.6 2.4-1.5 2.4-.7 2.4-1.9 2.3-3 2.4 4.3 2.4.6 2.4-2.8 2.4-2.5 2.3.9 2.4 5.9 2.4-5.7 2.4 5.8 2.3-1.9 2.4-5.5 2.4.5 2.4-.6 2.3-.3 2.4-3.4 2.4-.1 2.4-3.3 2.3 4.2 2.4 4.9 2.4 4.1 2.4-2 2.3-3.5 2.4-2.3 2.4-4.5 2.4-3.4 2.3 3 2.4-2.2 2.4-4.7 2.4-1.5 2.3-.2 2.4-2.1 2.4.6 2.4 10.2 2.3-3.3 2.4-6.8 2.4-3 2.4 2.5 2.3-8.9 2.4-5.3 2.4-.9 2.4-1.7 2.3-.8 2.4-7.5 2.4-5.5 2.4-3.5 2.4-2 2.3-5 2.4-4.2h2.4l2.4-3.8 2.3-5.5 2.4-6 2.4-5.1 2.4-5.9 2.3-3.6 2.4-6.3 2.4-7.7 2.4-11.2 2.3-5.3 2.4-6.3 2.4-9.4h2.4l2.3 1.5 2.4-10.9 2.4-6 2.4-1.2 2.3-10.9 2.4 3.3 2.4 8.1 2.4 1.2 2.3.9 2.4-5.2 2.4-5.9 2.4-7.7 2.3-3.6 2.4-7.6 2.4-3.8 2.4.6 2.3-2.2 2.4 4.2 2.4 1.8 2.4-4 2.4-5.3 2.3-4.4 2.4-4.6 2.4 2.1 2.4 2 2.3-6.3 2.4-6 2.4-1.2 2.4-17 2.3-14.6 2.4-11.1 2.4-10.4 2.4-6.8 2.3-8.3 2.4 2.3 2.4-17.1 2.4-13.8 2.3-6.4 2.4-3.7V362l-2.4 1.8-2.3 3.6-2.4 3.4-2.4 4.5-2.4-1.7-2.3 1.6-2.4 1.6-2.4 2.8-2.4 2.4-2.3 5.1-2.4 6.8-2.4.1-2.4.6-2.3 5.6-2.4-.5-2.4 2.5-2.4 3.5-2.3 3.4-2.4 1.6-2.4 1.5-2.4 1-2.4-4.7-2.3 5.5-2.4 1.4-2.4 1.9-2.4 5.4-2.3.8-2.4 5-2.4-.6-2.4.9-2.3-1-2.4-4.3-2.4-6.9-2.4-6-2.3 6.7-2.4.1-2.4 3.9-2.4 9.3-2.3-5.8h-2.4l-2.4 9.3-2.4 5.5-2.3 5.2-2.4 8-2.4 6-2.4 6.3-2.3 4.9-2.4 5.1-2.4 4-2.4 4.3-2.3 3.4-2.4 3.8-2.4 2.7-2.4 2.9-2.3 2.9-2.4.8-2.4 1.8-2.4 2.6-2.4 3.4-2.3 1.2-2.4 1.5-2.4 1.3-2.4 2.6-2.3 3.9h-2.4l-2.4 2-2.4 1.5-2.3.9h-2.4l-2.4 1.5-2.4.7-2.3-.7-2.4.4-2.4.2-2.4.4-2.3-.2-2.4 1.2-2.4.8-2.4.7-2.3.4-2.4.6-2.4-.3-2.4-.3-2.3-.4-2.4.8-2.4.8-2.4.7-2.3.2-2.4.2h-2.4l-2.4.8-2.3.4-2.4.3-2.4.7-2.4.4h-2.3l-2.4.2-2.4.2-2.4.1h-2.4l-2.3.2-2.4.1-2.4.1-2.4.1h-2.3l-2.4.1-2.4.3H433.4l-2.4.1h-2.4l-2.4.1-2.3.1-2.4.1h-4.8l-2.3.1H412l-2.4.1-2.4-.1-2.3.1h-4.8l-2.4.1-2.3.1h-9.5l-2.4.1-2.4-.1h-2.4l-2.3.1H369.2l-2.3.1H69.9" fill="#818282" fill-opacity=".7" class="World_1-area"/><path d="M69.9 535.2H115l2.4-.1H162.5l2.4-.1h19l2.4-.1h2.4l2.4-.1 2.3.1h4.8l2.4-.1h21.3l2.4-.1h11.9l2.4-.1H243.3l2.4-.1h9.5l2.4-.3 2.3.1h2.4l2.4-.1H269.4l2.4-.2h2.4l2.4-.1h2.4l2.3-.1h2.4l2.4-.1 2.4-.1 2.3-.1 2.4-.1h2.4l2.4-.2h2.3l2.4-.2 2.4-.1h2.4l2.3-.2 2.4-.1 2.4-.4 2.4-.1 2.3-.2 2.4-.1h2.4l2.4-.2 2.3-.4 2.4-.2h2.4l2.4-.4 2.3-.4 2.4-.3 2.4-.1 2.4-.4 2.3-.2 2.4-.3 2.4-.2 2.4-.5 2.3-.8 2.4-.4 2.4.4 2.4-.6 2.4-.1 2.3-.2 2.4-.1 2.4-.6 2.4-1.2 2.3-.3 2.4-.6 2.4-.7 2.4-.1 2.3-.2 2.4-.1 2.4-.6 2.4-1.5h2.3l2.4-1.3 2.4-.7 2.4-.1 2.3.2 2.4-.6 2.4-1 2.4-.6 2.3-1 2.4-1.1 2.4-1.9 2.4-1.2 2.3-.9 2.4-.6 2.4-2.3 2.4-.3 2.3-1.8 2.4-2 2.4-3.4 2.4 1.6 2.3-1.6 2.4-1.6 2.4-.7 2.4-2 2.3-2.9 2.4 4.2 2.4.6 2.4-2.8 2.4-2.6 2.3.9 2.4 5.9 2.4-5.7 2.4 5.8 2.3-1.9 2.4-5.6 2.4.4 2.4-.6 2.3-.4 2.4-3.6 2.4-.1 2.4-3.6 2.3 4.2 2.4 5.1 2.4 4.2 2.4-2.2 2.3-3.5 2.4-2.4 2.4-4.7 2.4-3.6 2.3 3 2.4-2.2 2.4-4.9 2.4-1.5 2.3-.4 2.4-2.2 2.4.3 2.4 10.1 2.3-3.5 2.4-7 2.4-3.4 2.4 2.2 2.3-9.5 2.4-6.2 2.4-1.3 2.4-2 2.3-1.1 2.4-8.1 2.4-6 2.4-4.2 2.4-2.7 2.3-5.6 2.4-5.2 2.4-.5 2.4-4.8 2.3-6.6 2.4-7.4 2.4-6 2.4-7.2 2.3-4.8 2.4-7.7 2.4-9.7 2.4-12.3 2.3-7 2.4-7.6 2.4-10.8 2.4-.4 2.3 1.3 2.4-12.2 2.4-6.8 2.4-2.6 2.3-12.8 2.4 2.6 2.4 7.3 2.4 1.9 2.3.9 2.4-8.3 2.4-7.1 2.4-7.5 2.3-6.4 2.4-9.5 2.4-5.9 2.4-1.3 2.3-3.5 2.4 2.8 2.4.2 2.4-4.6 2.4-6.2 2.3-6.6 2.4-4.4 2.4.8 2.4.5 2.3-7.6 2.4-7.1 2.4-2.7 2.4-19.1 2.3-16.6 2.4-13 2.4-12.8 2.4-8.2 2.3-11.3 2.4 4.4 2.4-22.4 2.4-16.7 2.3-7.4 2.4-4.7v81.6l-2.4 3.7-2.3 6.4-2.4 13.8-2.4 17.1-2.4-2.3-2.3 8.3-2.4 6.8-2.4 10.4-2.4 11.1-2.3 14.6-2.4 17-2.4 1.2-2.4 6-2.3 6.3-2.4-2-2.4-2.1-2.4 4.6-2.3 4.4-2.4 5.3-2.4 4-2.4-1.8-2.4-4.2-2.3 2.2-2.4-.6-2.4 3.8-2.4 7.6-2.3 3.6-2.4 7.7-2.4 5.9-2.4 5.2-2.3-.9-2.4-1.2-2.4-8.1-2.4-3.3-2.3 10.9-2.4 1.2-2.4 6L602 355l-2.3-1.5h-2.4l-2.4 9.4-2.4 6.3-2.3 5.3-2.4 11.2-2.4 7.7-2.4 6.3-2.3 3.6-2.4 5.9-2.4 5.1-2.4 6-2.3 5.5-2.4 3.8h-2.4l-2.4 4.2-2.3 5-2.4 2-2.4 3.5-2.4 5.5-2.4 7.5-2.3.8-2.4 1.7-2.4.9-2.4 5.3-2.3 8.9-2.4-2.5-2.4 3-2.4 6.8-2.3 3.3-2.4-10.2-2.4-.6-2.4 2.1-2.3.2-2.4 1.5-2.4 4.7-2.4 2.2-2.3-3-2.4 3.4-2.4 4.5-2.4 2.3-2.3 3.5-2.4 2-2.4-4.1-2.4-4.9-2.3-4.2-2.4 3.3-2.4.1-2.4 3.4-2.3.3-2.4.6-2.4-.5-2.4 5.5-2.3 1.9-2.4-5.8-2.4 5.7-2.4-5.9-2.3-.9-2.4 2.5-2.4 2.8-2.4-.6-2.4-4.3-2.3 3-2.4 1.9-2.4.7-2.4 1.5-2.3 1.6-2.4-1.5-2.4 3.4-2.4 1.9-2.3 1.8-2.4.3-2.4 2.3-2.4.6-2.3.8-2.4 1.2-2.4 1.9-2.4 1.1-2.3 1-2.4.6-2.4 1-2.4.6-2.3-.2-2.4.1-2.4.8-2.4 1.3-2.3.1-2.4 1.3-2.4.6-2.4.1-2.3.1-2.4.1-2.4.7-2.4.6-2.3.3-2.4 1.2-2.4.6-2.4.1-2.3.2-2.4.1-2.4.6-2.4-.4-2.4.4-2.3.8-2.4.5-2.4.2-2.4.3-2.3.2-2.4.4-2.4.1-2.4.3-2.3.4-2.4.4h-2.4l-2.4.2-2.3.4-2.4.2h-2.4l-2.4.1-2.3.2-2.4.1-2.4.4-2.4.1-2.3.2h-2.4l-2.4.1-2.4.2H298l-2.4.2h-2.4l-2.4.1-2.3.1-2.4.1-2.4.1h-2.4l-2.3.1h-2.4l-2.4.1h-2.4l-2.4.2H264.7l-2.4.1h-2.4l-2.3-.1-2.4.3h-9.5l-2.4.1H238.6l-2.4.1h-11.9l-2.4.1h-21.3l-2.4.1h-4.8l-2.3-.1-2.4.1h-2.4l-2.4.1H164.9l-2.4.1H117.4l-2.4.1H69.9" fill="#2a939b" fill-opacity=".7" class="World_0-area"/><path stroke-linecap="round" d="M69.9 535.3H540.3l2.3-1 2.4-.1 2.4-.1H552.1l2.4-.2h2.4l2.4-.2H564l2.4-.2 2.4-.1 2.4-.1 2.3-.1 2.4-.2 2.4-.2 2.4-.2 2.3-.3 2.4-.3 2.4-.3 2.4-.3 2.3-.1 2.4-.3 2.4-.7 2.4.2 2.3.6 2.4-.7 2.4.2 2.4-.1 2.3.4 2.4.5 2.4 1h2.4l2.3.3 2.4.3 2.4.1 2.4.1 2.3.1 2.4-.3 2.4.4 2.4.1 2.3-.2 2.4.4 2.4-.1 2.4-.1h7.1l2.4.2h2.4l2.3-.5h2.4l2.4-.1h2.4l2.3-.2 2.4-.3 2.4-.1 2.4-.2 2.3-.1 2.4.2 2.4-.1 2.4.1h2.3l2.4-.2" stroke="#D5B234" stroke-opacity=".7" stroke-width=".5" fill="none" class="World_4-border"/><path stroke-linecap="round" d="M69.9 535.3H488l2.4-.5H495.1l2.4.1 2.4.1h2.4l2.3-.1h2.4l2.4-.1H514.1l2.4-.1 2.4.1h7.1l2.4.2h2.4l2.3-.2h2.4l2.4-.1 2.4-.1 2.3-1.2 2.4-.1 2.4-.2 2.4-.1 2.3-.1 2.4-.4 2.4-.1 2.4-.2 2.4-.1 2.3-.2 2.4-.3 2.4-.2 2.4-.3 2.3-.2 2.4-.5 2.4-.2 2.4-.5 2.3-.3 2.4-.6 2.4-.5 2.4-.5 2.3-.3 2.4-.5 2.4-1 2.4.1 2.3.8 2.4-1.1 2.4-.1 2.4-.4 2.3.2 2.4.5 2.4.9h2.4l2.3.1 2.4.2h2.4l2.4-.2 2.3-.1 2.4-.7 2.4.2h2.4l2.3-.4 2.4.1 2.4-.4 2.4-.6 2.4-.5 2.3-.3 2.4-.2 2.4.1 2.4-.3 2.3-.9 2.4-.5 2.4-.8 2.4-1 2.3-1.3 2.4-1.3 2.4-1.7 2.4-1.3 2.3-.4 2.4-1 2.4-1.6 2.4-2.1 2.3-1.1 2.4-1.7" stroke="#2B508D" stroke-opacity=".7" stroke-width=".5" fill="none" class="World_3-border"/><path stroke-linecap="round" d="M69.9 535.3H366.9l2.3-.1H376.4l2.3-.1h2.4l2.4.1 2.4-.1h9.5l2.3-.1 2.4-.1h4.8l2.3-.1 2.4.1 2.4-.1h2.4l2.3-.1h4.8l2.4-.1 2.3-.1 2.4-.1h2.4l2.4-.1H438.1l2.4-.3 2.4-.1h2.3l2.4-.1 2.4-.1 2.4-.1 2.3-.2h2.4l2.4-.1 2.4-.2 2.4-.2h2.3l2.4-.4 2.4-.7 2.4-.3 2.3-.4 2.4-.8h2.4l2.4-.2 2.3-.2 2.4-.7 2.4-.8 2.4-.8 2.3.4 2.4.3 2.4.3 2.4-.6 2.3-.4 2.4-.7 2.4-.8 2.4-1.2 2.3.2 2.4-.4 2.4-.2 2.4-.4 2.3.7 2.4-.7 2.4-1.5h2.4l2.3-.9 2.4-1.5 2.4-2h2.4l2.3-3.9 2.4-2.6 2.4-1.3 2.4-1.5 2.3-1.2 2.4-3.4 2.4-2.6 2.4-1.8 2.4-.8 2.3-2.9 2.4-2.9 2.4-2.7 2.4-3.8 2.3-3.4 2.4-4.3 2.4-4 2.4-5.1 2.3-4.9 2.4-6.3 2.4-6 2.4-8 2.3-5.2 2.4-5.5 2.4-9.3h2.4l2.3 5.8 2.4-9.3 2.4-3.9 2.4-.1 2.3-6.7 2.4 6 2.4 6.9 2.4 4.3 2.3 1 2.4-.9 2.4.6 2.4-5 2.3-.8 2.4-5.4 2.4-1.9 2.4-1.4 2.3-5.5 2.4 4.7 2.4-1 2.4-1.5 2.4-1.6 2.3-3.4 2.4-3.5 2.4-2.5 2.4.5 2.3-5.6 2.4-.6 2.4-.1 2.4-6.8 2.3-5.1 2.4-2.4 2.4-2.8 2.4-1.6 2.3-1.6 2.4 1.7 2.4-4.5 2.4-3.4 2.3-3.6 2.4-1.8" stroke="#84AB73" stroke-opacity=".7" stroke-width=".5" fill="none" class="World_2-border"/><path stroke-linecap="round" d="M69.9 535.2H115l2.4-.1H162.5l2.4-.1h19l2.4-.1h2.4l2.4-.1 2.3.1h4.8l2.4-.1h21.3l2.4-.1h11.9l2.4-.1H243.3l2.4-.1h9.5l2.4-.3 2.3.1h2.4l2.4-.1H269.4l2.4-.2h2.4l2.4-.1h2.4l2.3-.1h2.4l2.4-.1 2.4-.1 2.3-.1 2.4-.1h2.4l2.4-.2h2.3l2.4-.2 2.4-.1h2.4l2.3-.2 2.4-.1 2.4-.4 2.4-.1 2.3-.2 2.4-.1h2.4l2.4-.2 2.3-.4 2.4-.2h2.4l2.4-.4 2.3-.4 2.4-.3 2.4-.1 2.4-.4 2.3-.2 2.4-.3 2.4-.2 2.4-.5 2.3-.8 2.4-.4 2.4.4 2.4-.6 2.4-.1 2.3-.2 2.4-.1 2.4-.6 2.4-1.2 2.3-.3 2.4-.6 2.4-.7 2.4-.1 2.3-.1 2.4-.1 2.4-.6 2.4-1.3 2.3-.1 2.4-1.3 2.4-.8 2.4-.1 2.3.2 2.4-.6 2.4-1 2.4-.6 2.3-1 2.4-1.1 2.4-1.9 2.4-1.2 2.3-.8 2.4-.6 2.4-2.3 2.4-.3 2.3-1.8 2.4-1.9 2.4-3.4 2.4 1.5 2.3-1.6 2.4-1.5 2.4-.7 2.4-1.9 2.3-3 2.4 4.3 2.4.6 2.4-2.8 2.4-2.5 2.3.9 2.4 5.9 2.4-5.7 2.4 5.8 2.3-1.9 2.4-5.5 2.4.5 2.4-.6 2.3-.3 2.4-3.4 2.4-.1 2.4-3.3 2.3 4.2 2.4 4.9 2.4 4.1 2.4-2 2.3-3.5 2.4-2.3 2.4-4.5 2.4-3.4 2.3 3 2.4-2.2 2.4-4.7 2.4-1.5 2.3-.2 2.4-2.1 2.4.6 2.4 10.2 2.3-3.3 2.4-6.8 2.4-3 2.4 2.5 2.3-8.9 2.4-5.3 2.4-.9 2.4-1.7 2.3-.8 2.4-7.5 2.4-5.5 2.4-3.5 2.4-2 2.3-5 2.4-4.2h2.4l2.4-3.8 2.3-5.5 2.4-6 2.4-5.1 2.4-5.9 2.3-3.6 2.4-6.3 2.4-7.7 2.4-11.2 2.3-5.3 2.4-6.3 2.4-9.4h2.4l2.3 1.5 2.4-10.9 2.4-6 2.4-1.2 2.3-10.9 2.4 3.3 2.4 8.1 2.4 1.2 2.3.9 2.4-5.2 2.4-5.9 2.4-7.7 2.3-3.6 2.4-7.6 2.4-3.8 2.4.6 2.3-2.2 2.4 4.2 2.4 1.8 2.4-4 2.4-5.3 2.3-4.4 2.4-4.6 2.4 2.1 2.4 2 2.3-6.3 2.4-6 2.4-1.2 2.4-17 2.3-14.6 2.4-11.1 2.4-10.4 2.4-6.8 2.3-8.3 2.4 2.3 2.4-17.1 2.4-13.8 2.3-6.4 2.4-3.7" stroke="#6C6D6D" stroke-opacity=".7" stroke-width=".5" fill="none" class="World_1-border"/><path stroke-linecap="round" d="M69.9 535.2H115l2.4-.1H162.5l2.4-.1h19l2.4-.1h2.4l2.4-.1 2.3.1h4.8l2.4-.1h21.3l2.4-.1h11.9l2.4-.1H243.3l2.4-.1h9.5l2.4-.3 2.3.1h2.4l2.4-.1H269.4l2.4-.2h2.4l2.4-.1h2.4l2.3-.1h2.4l2.4-.1 2.4-.1 2.3-.1 2.4-.1h2.4l2.4-.2h2.3l2.4-.2 2.4-.1h2.4l2.3-.2 2.4-.1 2.4-.4 2.4-.1 2.3-.2 2.4-.1h2.4l2.4-.2 2.3-.4 2.4-.2h2.4l2.4-.4 2.3-.4 2.4-.3 2.4-.1 2.4-.4 2.3-.2 2.4-.3 2.4-.2 2.4-.5 2.3-.8 2.4-.4 2.4.4 2.4-.6 2.4-.1 2.3-.2 2.4-.1 2.4-.6 2.4-1.2 2.3-.3 2.4-.6 2.4-.7 2.4-.1 2.3-.2 2.4-.1 2.4-.6 2.4-1.5h2.3l2.4-1.3 2.4-.7 2.4-.1 2.3.2 2.4-.6 2.4-1 2.4-.6 2.3-1 2.4-1.1 2.4-1.9 2.4-1.2 2.3-.9 2.4-.6 2.4-2.3 2.4-.3 2.3-1.8 2.4-2 2.4-3.4 2.4 1.6 2.3-1.6 2.4-1.6 2.4-.7 2.4-2 2.3-2.9 2.4 4.2 2.4.6 2.4-2.8 2.4-2.6 2.3.9 2.4 5.9 2.4-5.7 2.4 5.8 2.3-1.9 2.4-5.6 2.4.4 2.4-.6 2.3-.4 2.4-3.6 2.4-.1 2.4-3.6 2.3 4.2 2.4 5.1 2.4 4.2 2.4-2.2 2.3-3.5 2.4-2.4 2.4-4.7 2.4-3.6 2.3 3 2.4-2.2 2.4-4.9 2.4-1.5 2.3-.4 2.4-2.2 2.4.3 2.4 10.1 2.3-3.5 2.4-7 2.4-3.4 2.4 2.2 2.3-9.5 2.4-6.2 2.4-1.3 2.4-2 2.3-1.1 2.4-8.1 2.4-6 2.4-4.2 2.4-2.7 2.3-5.6 2.4-5.2 2.4-.5 2.4-4.8 2.3-6.6 2.4-7.4 2.4-6 2.4-7.2 2.3-4.8 2.4-7.7 2.4-9.7 2.4-12.3 2.3-7 2.4-7.6 2.4-10.8 2.4-.4 2.3 1.3 2.4-12.2 2.4-6.8 2.4-2.6 2.3-12.8 2.4 2.6 2.4 7.3 2.4 1.9 2.3.9 2.4-8.3 2.4-7.1 2.4-7.5 2.3-6.4 2.4-9.5 2.4-5.9 2.4-1.3 2.3-3.5 2.4 2.8 2.4.2 2.4-4.6 2.4-6.2 2.3-6.6 2.4-4.4 2.4.8 2.4.5 2.3-7.6 2.4-7.1 2.4-2.7 2.4-19.1 2.3-16.6 2.4-13 2.4-12.8 2.4-8.2 2.3-11.3 2.4 4.4 2.4-22.4 2.4-16.7 2.3-7.4 2.4-4.7" stroke="#237B82" stroke-opacity=".7" stroke-width=".5" fill="none" class="World_0-border"/></g></g></g><g class="SourcesFooter" fill="#777"><g class="clickable" fill="#777"><text font-size="12.6" x="15" y="581.6"><tspan x="15" y="581.58">Source: CDIAC</tspan></text></g><text font-size="12.6" x="407.4" y="581.6"><tspan x="407.36" y="581.58"><a target="_blank" href="https://ourworldindata.org/co2-and-other-greenhouse-gas-emissions/" fill="#777">OurWorldInData.org/co2-and-other-greenhouse-gas-emissions/</a> • <a href="http://creativecommons.org/licenses/by-sa/4.0/deed.en_US" target="_blank" fill="#777">CC BY-SA</a></tspan></text></g></g></svg>