<svg xmlns="http://www.w3.org/2000/svg" version="1.1" style="background-color:#fff;-webkit-font-smoothing:antialiased" width="850" height="600" font-family="'Helvetica Neue',Helvetica,Arial,sans-serif" font-size="18" text-rendering="optimizeLegibility"><g class="ChartTab"><g class="HeaderView"><g opacity=".8" transform="matrix(.27 0 0 .27 778 15)"><a xmlns:xlink="http://www.w3.org/1999/xlink" xlink:href="https://ourworldindata.org" target="_blank"><g><path fill="#1B2543" d="M0 0h211.2v130.1H0z"/><path fill="#E63912" d="M0 112.2h211.2v17.9H0z"/><g><path fill="none" d="M1.2 12.3h210.2v99.2H1.2z"/><path fill="#FFF" d="M37.8 32.2c0 12.7-7.7 19.4-17.1 19.4-9.7 0-16.6-7.5-16.6-18.7 0-11.7 7.3-19.3 17.1-19.3 10.1.1 16.6 7.7 16.6 18.6zm-28.6.6c0 7.9 4.3 14.9 11.8 14.9 7.5 0 11.8-6.9 11.8-15.3 0-7.3-3.8-14.9-11.8-14.9-7.9 0-11.8 7.3-11.8 15.3zM62.7 43.8c0 2.7.1 5.1.2 7.2h-4.3l-.3-4.3h-.1c-1.3 2.1-4 4.9-8.8 4.9-4.2 0-9.1-2.3-9.1-11.6V24.6h4.8v14.6c0 5 1.5 8.4 5.9 8.4 3.2 0 5.5-2.2 6.3-4.4.3-.7.4-1.6.4-2.5V24.6h4.8v19.2zM67.3 32.8c0-3.1-.1-5.8-.2-8.2h4.2l.2 5.2h.2c1.2-3.5 4.1-5.8 7.3-5.8.5 0 .9.1 1.4.2v4.5c-.5-.1-1-.2-1.6-.2-3.4 0-5.8 2.6-6.5 6.2-.1.7-.2 1.4-.2 2.2V51h-4.8V32.8zM95.4 51L86 14.2h5l4.4 18.6c1.1 4.6 2.1 9.2 2.7 12.7h.1c.6-3.7 1.8-8 3-12.8l4.9-18.5h5l4.5 18.7c1 4.4 2 8.7 2.6 12.6h.1c.8-4 1.8-8.1 3-12.7l4.9-18.5h4.9L120.6 51h-5L111 31.9c-1.1-4.7-1.9-8.3-2.4-12h-.1c-.7 3.7-1.5 7.3-2.8 12L100.4 51h-5zM154.9 37.6c0 9.8-6.8 14-13.2 14-7.2 0-12.7-5.2-12.7-13.6 0-8.8 5.8-14 13.1-14 7.7 0 12.8 5.5 12.8 13.6zm-21 .3c0 5.8 3.3 10.1 8 10.1 4.6 0 8-4.3 8-10.3 0-4.5-2.2-10.1-7.9-10.1s-8.1 5.2-8.1 10.3zM158.2 32.8c0-3.1-.1-5.8-.2-8.2h4.2l.2 5.2h.2c1.2-3.5 4.1-5.8 7.3-5.8.5 0 .9.1 1.4.2v4.5c-.5-.1-1-.2-1.6-.2-3.4 0-5.8 2.6-6.5 6.2-.1.7-.2 1.4-.2 2.2V51h-4.8V32.8zM173.5 12.3h4.8V51h-4.8V12.3zM206.5 12.3v31.9c0 2.3.1 5 .2 6.8h-4.3l-.2-4.6h-.2c-1.5 2.9-4.7 5.2-9 5.2-6.4 0-11.3-5.4-11.3-13.4-.1-8.8 5.4-14.2 11.9-14.2 4 0 6.8 1.9 8 4h.1V12.3h4.8zm-4.8 23.1c0-.6-.1-1.4-.2-2a7 7 0 00-6.9-5.6c-5 0-7.9 4.4-7.9 10.2 0 5.3 2.6 9.8 7.8 9.8 3.2 0 6.2-2.1 7.1-5.7.2-.7.2-1.3.2-2.1v-4.6zM42.8 64c.1 1.6-1.1 2.9-3.1 2.9-1.7 0-2.9-1.3-2.9-2.9 0-1.7 1.3-3 3-3 1.9 0 3 1.3 3 3zm-5.4 33.8V71.4h4.8v26.4h-4.8zM47.5 78.6c0-2.7-.1-5-.2-7.1h4.3l.3 4.4h.1c1.3-2.5 4.4-5 8.8-5 3.7 0 9.4 2.2 9.4 11.2v15.8h-4.8V82.6c0-4.3-1.6-7.8-6.1-7.8-3.2 0-5.6 2.2-6.5 4.9-.2.6-.3 1.4-.3 2.2v15.9h-4.8V78.6zM84 61.6c2.9-.4 6.3-.8 10.1-.8 6.8 0 11.7 1.6 14.9 4.6 3.3 3 5.2 7.3 5.2 13.2 0 6-1.9 10.9-5.3 14.3-3.4 3.4-9.1 5.3-16.3 5.3-3.4 0-6.2-.2-8.6-.4V61.6zm4.8 32.5c1.2.2 3 .3 4.8.3 10.2 0 15.7-5.7 15.7-15.6.1-8.7-4.9-14.2-14.9-14.2-2.5 0-4.3.2-5.6.5v29zM132.1 97.8l-.4-3.3h-.2a9.79 9.79 0 01-8.1 3.9c-5.4 0-8.1-3.8-8.1-7.6 0-6.4 5.7-9.9 15.9-9.8v-.5c0-2.2-.6-6.1-6-6.1-2.5 0-5 .8-6.9 2l-1.1-3.2c2.2-1.4 5.4-2.3 8.7-2.3 8.1 0 10.1 5.5 10.1 10.8v9.9c0 2.3.1 4.5.4 6.3h-4.3zm-.7-13.4c-5.3-.1-11.2.8-11.2 5.9 0 3.1 2.1 4.6 4.5 4.6 3.4 0 5.6-2.2 6.4-4.4.2-.5.3-1 .3-1.5v-4.6zM146.6 63.9v7.6h6.9v3.7h-6.9v14.2c0 3.3.9 5.1 3.6 5.1 1.3 0 2.2-.2 2.8-.3l.2 3.6c-.9.4-2.4.7-4.3.7-2.2 0-4-.7-5.2-2-1.4-1.4-1.9-3.8-1.9-6.9V75.1h-4.1v-3.7h4.1v-6.3l4.8-1.2zM171.4 97.8l-.4-3.3h-.2a9.79 9.79 0 01-8.1 3.9c-5.4 0-8.1-3.8-8.1-7.6 0-6.4 5.7-9.9 15.9-9.8v-.5c0-2.2-.6-6.1-6-6.1-2.5 0-5 .8-6.9 2l-1.1-3.2c2.2-1.4 5.4-2.3 8.7-2.3 8.1 0 10.1 5.5 10.1 10.8v9.9c0 2.3.1 4.5.4 6.3h-4.3zm-.7-13.4c-5.3-.1-11.2.8-11.2 5.9 0 3.1 2.1 4.6 4.5 4.6 3.4 0 5.6-2.2 6.4-4.4.2-.5.3-1 .3-1.5v-4.6z"/></g></g></a></g><a href="https://ourworldindata.org/grapher/coal-uk-opencast-deep-mine" target="_blank"><text font-size="25.2" x="15" y="35.2" fill="#555"><tspan x="15" y="35.16">Coal output from opencast and deepmines in the United Kingdom</tspan></text></a><text font-size="14.4" x="15" y="53.7" fill="#666"><tspan x="15" y="53.72">Coal output in the United Kingdom, measured from opencast and deepmined sources. This is measured in tonnes of</tspan><tspan x="15" y="69.56">coal per year.</tspan></text></g><g class="StackedArea"><defs><clipPath id="a"><path d="M106.67 0h820v928.8h-820z"/></clipPath></defs><g class="AxisBoxView"><g class="HorizontalAxis" fill="#666" text-anchor="middle" font-size="16.2"><text x="106.7" y="556.5">1913</text><text x="261.3" y="556.5">1940</text><text x="375.8" y="556.5">1960</text><text x="490.3" y="556.5">1980</text><text x="604.8" y="556.5">2000</text><text x="702.1" y="556.5">2017</text></g><g class="VerticalAxis" fill="#666" dominant-baseline="middle" text-anchor="end" font-size="16.2"><text x="101.67" y="535.3">0 t</text><text x="101.67" y="459.4">50 million t</text><text x="101.67" y="383.5">100 million t</text><text x="101.67" y="307.6">150 million t</text><text x="101.67" y="231.7">200 million t</text><text x="101.67" y="155.8">250 million t</text></g><g class="AxisGridLines"><path stroke="#ccc" d="M106.67 535.3h595.46"/><path stroke="#ddd" stroke-dasharray="3,2" d="M106.67 459.4h595.46M106.67 383.5h595.46M106.67 307.6h595.46M106.67 231.7h595.46M106.67 155.8h595.46"/></g></g><g clip-path="url(#a)"><g class="HeightedLegend clickable"><g class="legendMark"><g class="indicator" stroke="#666" stroke-width=".5"><path d="M707.13 535.3h22.5M729.63 535.3v-6.75M729.63 528.55h2.5"/></g><text font-size="13.5" x="737.1" y="532.6" fill="#3360a9"><tspan x="737.13" y="532.6">Deepmined coal</tspan></text></g><g class="legendMark"><g class="indicator" stroke="#666" stroke-width=".5"><path d="M707.13 533h12.5M719.63 533v-19.95M719.63 513.05h12.5"/></g><text font-size="13.5" x="737.1" y="517.1" fill="#ca2628"><tspan x="737.13" y="517.1">Opencast coal</tspan></text></g></g><g class="Areas"><path class="United-Kingdom_0-area" d="M106.7 92.1l5.7 33.4 5.7 19.7 5.7-4.5 5.8 12.1 5.7 31.9 5.7-3h5.7l5.8 101.6 5.7-133.5 5.7-39.5 5.8 13.7 5.7 36.4 5.7 180.6 5.7-192.7 5.8 21.2 5.7-31.9 5.7 21.3 5.7 37.9 5.8 16.7 5.7 3.1 5.7-21.3 5.7-3 5.8-9.1 5.7-18.2 5.7 19.7 5.7-6.1 5.8 10.6 5.7 27.4 5.7 4.5 5.7 13.7 5.8 16.7 5.7 15.1 5.7-10.6 5.7-9.1 5.8-15.2 5.7-9.1 5.7-1.5 5.7-12.1 5.8-1.5 5.7 1.5 5.7-3.1 5.7 4.6 5.8 1.5h5.7l5.7 12.1 5.7 10.7 5.8 13.6 5.7 6.1 5.7-10.6 5.7-1.5 5.8 4.5 5.7 10.6 5.7 18.3 5.7 4.5 5.8 12.2 5.7 19.7 5.7 15.2 5.8 1.5 5.7 41 5.7-16.7 5.7 30.3 5.8-25.8 5.7 10.6 5.7 4.6 5.7-1.5h5.8l5.7-6.1 5.7 3 5.7 6.1 5.8 6.1 5.7 101.7 5.7-60.7 5.7-22.8 5.8 6.1 5.7 3 5.7 6.1 5.7 10.6h5.8l5.7 10.6 5.7 24.3 5.7 27.3 5.8-4.5 5.7 4.5 5.7 3.1 5.7 6 5.8 7.6 5.7 6.1h5.7l5.7 1.5h5.8l5.7 4.6 5.7 4.5 5.7 1.5 5.8 1.6h11.4l5.7 1.5h5.8l5.7 1.5 5.7 3h5.7l5.8 1.5 5.7 4.6h5.72-595.45" fill="#3360a9" fill-opacity=".7"/><path class="United-Kingdom_1-area" d="M106.7 92.1l5.7 33.4 5.7 19.7 5.7-4.5 5.8 12.1 5.7 31.9 5.7-3h5.7l5.8 101.6 5.7-133.5 5.7-39.5 5.8 13.7 5.7 36.4 5.7 180.6 5.7-192.7 5.8 21.2 5.7-31.9 5.7 21.3 5.7 37.9 5.8 16.7 5.7 3.1 5.7-21.3 5.7-3 5.8-9.1 5.7-18.2 5.7 19.7 5.7-6.1 5.8 10.6 5.7 27.4 5.7 3 5.7 9.1 5.8 9.1 5.7 16.7 5.7-12.1 5.7-10.7 5.8-16.7 5.7-10.6 5.7-1.5 5.7-10.6 5.8-3.1 5.7 1.6h5.7l5.7 1.5h5.8l5.7-1.5 5.7 10.6 5.7 15.2 5.8 18.2 5.7 4.5 5.7-10.6 5.7 1.5 5.8 4.6 5.7 9.1 5.7 18.2 5.7 3 5.8 12.2 5.7 21.2 5.7 12.2 5.8-7.6 5.7 39.4 5.7-7.6 5.7 33.4 5.8-27.3 5.7 6.1 5.7 3 5.7-3 5.8 1.5 5.7-10.6 5.7 4.5 5.7 3.1 5.8 7.6 5.7 104.7 5.7-65.3 5.7-21.2 5.8 4.5 5.7 1.5 5.7 6.1 5.7 10.6 5.8-1.5 5.7 13.7 5.7 25.8 5.7 27.3 5.8-4.5 5.7 4.5 5.7 3 5.7 10.7 5.8 6 5.7 9.1 5.7-1.5 5.7 3.1 5.8 1.5 5.7 4.5 5.7 7.6 5.7 4.6 5.8 1.5 5.7-1.5h17.2l5.7 1.5 5.7 6.1 5.7 1.5 5.8 4.5 5.7 7.6 5.7 1.5v4.6h-5.7l-5.7-4.6-5.8-1.5h-5.7l-5.7-3-5.7-1.5H662l-5.7-1.5h-11.4l-5.8-1.6-5.7-1.5-5.7-4.5-5.7-4.6h-5.8l-5.7-1.5h-5.7l-5.7-6.1-5.8-7.6-5.7-6-5.7-3.1-5.7-4.5-5.8 4.5-5.7-27.3-5.7-24.3-5.7-10.6h-5.8l-5.7-10.6-5.7-6.1-5.7-3-5.8-6.1-5.7 22.8-5.7 60.7-5.7-101.7-5.8-6.1-5.7-6.1-5.7-3-5.7 6.1h-5.8l-5.7 1.5-5.7-4.6-5.7-10.6-5.8 25.8-5.7-30.3-5.7 16.7-5.7-41-5.8-1.5-5.7-15.2-5.7-19.7-5.8-12.2-5.7-4.5-5.7-18.3-5.7-10.6-5.8-4.5-5.7 1.5-5.7 10.6-5.7-6.1-5.8-13.6-5.7-10.7-5.7-12.1h-5.7l-5.8-1.5-5.7-4.6-5.7 3.1-5.7-1.5-5.8 1.5-5.7 12.1-5.7 1.5-5.7 9.1-5.8 15.2-5.7 9.1-5.7 10.6-5.7-15.1-5.8-16.7-5.7-13.7-5.7-4.5-5.7-27.4-5.8-10.6-5.7 6.1-5.7-19.7-5.7 18.2-5.8 9.1-5.7 3-5.7 21.3-5.7-3.1-5.8-16.7-5.7-37.9-5.7-21.3-5.7 31.9-5.8-21.2-5.7 192.7-5.7-180.6-5.7-36.4-5.8-13.7-5.7 39.5-5.7 133.5-5.8-101.6H141l-5.7 3-5.7-31.9-5.8-12.1-5.7 4.5-5.7-19.7-5.7-33.4" fill="#ca2628" fill-opacity=".7"/><path class="United-Kingdom_0-border" stroke-linecap="round" d="M106.7 92.1l5.7 33.4 5.7 19.7 5.7-4.5 5.8 12.1 5.7 31.9 5.7-3h5.7l5.8 101.6 5.7-133.5 5.7-39.5 5.8 13.7 5.7 36.4 5.7 180.6 5.7-192.7 5.8 21.2 5.7-31.9 5.7 21.3 5.7 37.9 5.8 16.7 5.7 3.1 5.7-21.3 5.7-3 5.8-9.1 5.7-18.2 5.7 19.7 5.7-6.1 5.8 10.6 5.7 27.4 5.7 4.5 5.7 13.7 5.8 16.7 5.7 15.1 5.7-10.6 5.7-9.1 5.8-15.2 5.7-9.1 5.7-1.5 5.7-12.1 5.8-1.5 5.7 1.5 5.7-3.1 5.7 4.6 5.8 1.5h5.7l5.7 12.1 5.7 10.7 5.8 13.6 5.7 6.1 5.7-10.6 5.7-1.5 5.8 4.5 5.7 10.6 5.7 18.3 5.7 4.5 5.8 12.2 5.7 19.7 5.7 15.2 5.8 1.5 5.7 41 5.7-16.7 5.7 30.3 5.8-25.8 5.7 10.6 5.7 4.6 5.7-1.5h5.8l5.7-6.1 5.7 3 5.7 6.1 5.8 6.1 5.7 101.7 5.7-60.7 5.7-22.8 5.8 6.1 5.7 3 5.7 6.1 5.7 10.6h5.8l5.7 10.6 5.7 24.3 5.7 27.3 5.8-4.5 5.7 4.5 5.7 3.1 5.7 6 5.8 7.6 5.7 6.1h5.7l5.7 1.5h5.8l5.7 4.6 5.7 4.5 5.7 1.5 5.8 1.6h11.4l5.7 1.5h5.8l5.7 1.5 5.7 3h5.7l5.8 1.5 5.7 4.6h5.7" stroke="#2B508D" stroke-opacity=".7" stroke-width=".5" fill="none"/><path class="United-Kingdom_1-border" stroke-linecap="round" d="M106.7 92.1l5.7 33.4 5.7 19.7 5.7-4.5 5.8 12.1 5.7 31.9 5.7-3h5.7l5.8 101.6 5.7-133.5 5.7-39.5 5.8 13.7 5.7 36.4 5.7 180.6 5.7-192.7 5.8 21.2 5.7-31.9 5.7 21.3 5.7 37.9 5.8 16.7 5.7 3.1 5.7-21.3 5.7-3 5.8-9.1 5.7-18.2 5.7 19.7 5.7-6.1 5.8 10.6 5.7 27.4 5.7 3 5.7 9.1 5.8 9.1 5.7 16.7 5.7-12.1 5.7-10.7 5.8-16.7 5.7-10.6 5.7-1.5 5.7-10.6 5.8-3.1 5.7 1.6h5.7l5.7 1.5h5.8l5.7-1.5 5.7 10.6 5.7 15.2 5.8 18.2 5.7 4.5 5.7-10.6 5.7 1.5 5.8 4.6 5.7 9.1 5.7 18.2 5.7 3 5.8 12.2 5.7 21.2 5.7 12.2 5.8-7.6 5.7 39.4 5.7-7.6 5.7 33.4 5.8-27.3 5.7 6.1 5.7 3 5.7-3 5.8 1.5 5.7-10.6 5.7 4.5 5.7 3.1 5.8 7.6 5.7 104.7 5.7-65.3 5.7-21.2 5.8 4.5 5.7 1.5 5.7 6.1 5.7 10.6 5.8-1.5 5.7 13.7 5.7 25.8 5.7 27.3 5.8-4.5 5.7 4.5 5.7 3 5.7 10.7 5.8 6 5.7 9.1 5.7-1.5 5.7 3.1 5.8 1.5 5.7 4.5 5.7 7.6 5.7 4.6 5.8 1.5 5.7-1.5h17.2l5.7 1.5 5.7 6.1 5.7 1.5 5.8 4.5 5.7 7.6 5.7 1.5" stroke="#A92021" stroke-opacity=".7" stroke-width=".5" fill="none"/></g></g></g><g class="SourcesFooter" fill="#777"><g class="clickable" fill="#777"><text font-size="12.6" x="15" y="581.6"><tspan x="15" y="581.58">Source: Department for Energy and Climate Change (DECC)</tspan></text></g><text font-size="12.6" x="775.4" y="581.6"><tspan x="775.4" y="581.58"><a class="cclogo" href="http://creativecommons.org/licenses/by-sa/4.0/deed.en_US" target="_blank" fill="#777">CC BY-SA</a></tspan></text></g></g></svg>