<svg xmlns="http://www.w3.org/2000/svg" version="1.1" style="background-color:#fff;-webkit-font-smoothing:antialiased" width="850" height="600" font-family="'Helvetica Neue',Helvetica,Arial,sans-serif" font-size="18" text-rendering="optimizeLegibility"><g class="ChartTab"><g class="HeaderView"><g opacity=".8" transform="matrix(.31 0 0 .31 770 15)"><a xmlns:xlink="http://www.w3.org/1999/xlink" xlink:href="https://ourworldindata.org" target="_blank"><g><path fill="#1B2543" d="M0 0h211.2v130.1H0z"/><path fill="#E63912" d="M0 112.2h211.2v17.9H0z"/><g><path fill="none" d="M1.2 12.3h210.2v99.2H1.2z"/><path fill="#FFF" d="M37.8 32.2c0 12.7-7.7 19.4-17.1 19.4-9.7 0-16.6-7.5-16.6-18.7 0-11.7 7.3-19.3 17.1-19.3 10.1.1 16.6 7.7 16.6 18.6zm-28.6.6c0 7.9 4.3 14.9 11.8 14.9 7.5 0 11.8-6.9 11.8-15.3 0-7.3-3.8-14.9-11.8-14.9-7.9 0-11.8 7.3-11.8 15.3zM62.7 43.8c0 2.7.1 5.1.2 7.2h-4.3l-.3-4.3h-.1c-1.3 2.1-4 4.9-8.8 4.9-4.2 0-9.1-2.3-9.1-11.6V24.6h4.8v14.6c0 5 1.5 8.4 5.9 8.4 3.2 0 5.5-2.2 6.3-4.4.3-.7.4-1.6.4-2.5V24.6h4.8v19.2zM67.3 32.8c0-3.1-.1-5.8-.2-8.2h4.2l.2 5.2h.2c1.2-3.5 4.1-5.8 7.3-5.8.5 0 .9.1 1.4.2v4.5c-.5-.1-1-.2-1.6-.2-3.4 0-5.8 2.6-6.5 6.2-.1.7-.2 1.4-.2 2.2V51h-4.8V32.8zM95.4 51L86 14.2h5l4.4 18.6c1.1 4.6 2.1 9.2 2.7 12.7h.1c.6-3.7 1.8-8 3-12.8l4.9-18.5h5l4.5 18.7c1 4.4 2 8.7 2.6 12.6h.1c.8-4 1.8-8.1 3-12.7l4.9-18.5h4.9L120.6 51h-5L111 31.9c-1.1-4.7-1.9-8.3-2.4-12h-.1c-.7 3.7-1.5 7.3-2.8 12L100.4 51h-5zM154.9 37.6c0 9.8-6.8 14-13.2 14-7.2 0-12.7-5.2-12.7-13.6 0-8.8 5.8-14 13.1-14 7.7 0 12.8 5.5 12.8 13.6zm-21 .3c0 5.8 3.3 10.1 8 10.1 4.6 0 8-4.3 8-10.3 0-4.5-2.2-10.1-7.9-10.1s-8.1 5.2-8.1 10.3zM158.2 32.8c0-3.1-.1-5.8-.2-8.2h4.2l.2 5.2h.2c1.2-3.5 4.1-5.8 7.3-5.8.5 0 .9.1 1.4.2v4.5c-.5-.1-1-.2-1.6-.2-3.4 0-5.8 2.6-6.5 6.2-.1.7-.2 1.4-.2 2.2V51h-4.8V32.8zM173.5 12.3h4.8V51h-4.8V12.3zM206.5 12.3v31.9c0 2.3.1 5 .2 6.8h-4.3l-.2-4.6h-.2c-1.5 2.9-4.7 5.2-9 5.2-6.4 0-11.3-5.4-11.3-13.4-.1-8.8 5.4-14.2 11.9-14.2 4 0 6.8 1.9 8 4h.1V12.3h4.8zm-4.8 23.1c0-.6-.1-1.4-.2-2a7 7 0 00-6.9-5.6c-5 0-7.9 4.4-7.9 10.2 0 5.3 2.6 9.8 7.8 9.8 3.2 0 6.2-2.1 7.1-5.7.2-.7.2-1.3.2-2.1v-4.6zM42.8 64c.1 1.6-1.1 2.9-3.1 2.9-1.7 0-2.9-1.3-2.9-2.9 0-1.7 1.3-3 3-3 1.9 0 3 1.3 3 3zm-5.4 33.8V71.4h4.8v26.4h-4.8zM47.5 78.6c0-2.7-.1-5-.2-7.1h4.3l.3 4.4h.1c1.3-2.5 4.4-5 8.8-5 3.7 0 9.4 2.2 9.4 11.2v15.8h-4.8V82.6c0-4.3-1.6-7.8-6.1-7.8-3.2 0-5.6 2.2-6.5 4.9-.2.6-.3 1.4-.3 2.2v15.9h-4.8V78.6zM84 61.6c2.9-.4 6.3-.8 10.1-.8 6.8 0 11.7 1.6 14.9 4.6 3.3 3 5.2 7.3 5.2 13.2 0 6-1.9 10.9-5.3 14.3-3.4 3.4-9.1 5.3-16.3 5.3-3.4 0-6.2-.2-8.6-.4V61.6zm4.8 32.5c1.2.2 3 .3 4.8.3 10.2 0 15.7-5.7 15.7-15.6.1-8.7-4.9-14.2-14.9-14.2-2.5 0-4.3.2-5.6.5v29zM132.1 97.8l-.4-3.3h-.2a9.79 9.79 0 01-8.1 3.9c-5.4 0-8.1-3.8-8.1-7.6 0-6.4 5.7-9.9 15.9-9.8v-.5c0-2.2-.6-6.1-6-6.1-2.5 0-5 .8-6.9 2l-1.1-3.2c2.2-1.4 5.4-2.3 8.7-2.3 8.1 0 10.1 5.5 10.1 10.8v9.9c0 2.3.1 4.5.4 6.3h-4.3zm-.7-13.4c-5.3-.1-11.2.8-11.2 5.9 0 3.1 2.1 4.6 4.5 4.6 3.4 0 5.6-2.2 6.4-4.4.2-.5.3-1 .3-1.5v-4.6zM146.6 63.9v7.6h6.9v3.7h-6.9v14.2c0 3.3.9 5.1 3.6 5.1 1.3 0 2.2-.2 2.8-.3l.2 3.6c-.9.4-2.4.7-4.3.7-2.2 0-4-.7-5.2-2-1.4-1.4-1.9-3.8-1.9-6.9V75.1h-4.1v-3.7h4.1v-6.3l4.8-1.2zM171.4 97.8l-.4-3.3h-.2a9.79 9.79 0 01-8.1 3.9c-5.4 0-8.1-3.8-8.1-7.6 0-6.4 5.7-9.9 15.9-9.8v-.5c0-2.2-.6-6.1-6-6.1-2.5 0-5 .8-6.9 2l-1.1-3.2c2.2-1.4 5.4-2.3 8.7-2.3 8.1 0 10.1 5.5 10.1 10.8v9.9c0 2.3.1 4.5.4 6.3h-4.3zm-.7-13.4c-5.3-.1-11.2.8-11.2 5.9 0 3.1 2.1 4.6 4.5 4.6 3.4 0 5.6-2.2 6.4-4.4.2-.5.3-1 .3-1.5v-4.6z"/></g></g></a></g><a href="https://ourworldindata.org/grapher/correlation-between-education-and-democracy" target="_blank"><text font-size="25.2" x="15" y="35.2" fill="#555"><tspan x="15" y="35.16">Correlation between education in the past and democracy today</tspan></text></a><text font-size="14.4" x="15" y="53.7" fill="#666"><tspan x="15" y="53.72">Average years of schooling for total population aged 15-64 in 1970, and political regime according to the Polity IV</tspan><tspan x="15" y="69.56">assessment (ranging from -10 for ‘Fully Autocratic’ to +10 for ‘Fully Democratic’) in 2015.</tspan></text></g><g><g class="AxisBoxView"><g class="HorizontalAxis"><text font-size="12.6" x="275.7" y="554"><tspan x="275.67" y="553.98">Total years of schooling in 1970</tspan></text><text x="66.1" y="533.9" fill="#666" text-anchor="middle" font-size="16.2">0</text><text x="182.3" y="533.9" fill="#666" text-anchor="middle" font-size="16.2">2</text><text x="298.5" y="533.9" fill="#666" text-anchor="middle" font-size="16.2">4</text><text x="414.7" y="533.9" fill="#666" text-anchor="middle" font-size="16.2">6</text><text x="530.8" y="533.9" fill="#666" text-anchor="middle" font-size="16.2">8</text><text x="647" y="533.9" fill="#666" text-anchor="middle" font-size="16.2">10</text></g><g class="VerticalAxis"><text font-size="12.6" x="-529.2" y="25.1" transform="rotate(-90)"><tspan x="-529.24" y="25.08">Political Regime (OurWorldInData based on Polity IV and Wimmer &amp; Min)</tspan></text><text x="61.09" y="512.7" fill="#666" dominant-baseline="middle" text-anchor="end" font-size="16.2">-10</text><text x="61.09" y="407.5" fill="#666" dominant-baseline="middle" text-anchor="end" font-size="16.2">-5</text><text x="61.09" y="302.4" fill="#666" dominant-baseline="middle" text-anchor="end" font-size="16.2">0</text><text x="61.09" y="197.3" fill="#666" dominant-baseline="middle" text-anchor="end" font-size="16.2">5</text><text x="61.09" y="92.1" fill="#666" dominant-baseline="middle" text-anchor="end" font-size="16.2">10</text></g><g class="AxisGridLines"><path stroke="#ddd" stroke-dasharray="3,2" d="M66.09 512.7H715M66.09 407.5H715"/><path stroke="#ccc" d="M66.09 302.4H715"/><path stroke="#ddd" stroke-dasharray="3,2" d="M66.09 197.3H715M66.09 92.1H715"/></g><g class="AxisGridLines"><path stroke="#ccc" d="M66.1 512.7V92.1"/><path stroke="#ddd" stroke-dasharray="3,2" d="M182.3 512.7V92.1M298.5 512.7V92.1M414.7 512.7V92.1M530.8 512.7V92.1M647 512.7V92.1"/></g></g><g clip-path="url(#a)" class="PointsWithLabels clickable"><path fill="rgba(255,255,255,0)" d="M66.09 92.1H715v420.6H66.09z"/><defs><clipPath id="a"><path d="M56.09 82.1H725v440.6H56.09z"/></clipPath></defs><circle cx="307" cy="449" r="17.84" fill="#d14e5b" opacity=".8"/><circle cx="161" cy="113" r="17.29" fill="#d14e5b" opacity=".8"/><circle cx="710" cy="92" r="8.77" fill="#4d824b" opacity=".8"/><circle cx="239" cy="113" r="7.77" fill="#d14e5b" opacity=".8"/><circle cx="256" cy="134" r="7.03" fill="#69c487" opacity=".8"/><circle cx="150" cy="155" r="6.75" fill="#d14e5b" opacity=".8"/><circle cx="148" cy="281" r="6.23" fill="#d14e5b" opacity=".8"/><circle cx="437" cy="218" r="6.01" fill="#ffd336" opacity=".8"/><circle cx="545" cy="92" r="5.69" fill="#d14e5b" opacity=".8"/><circle cx="268" cy="134" r="5.5" fill="#4d824b" opacity=".8"/><circle cx="346" cy="134" r="5.08" fill="#d14e5b" opacity=".8"/><circle cx="148" cy="386" r="4.78" fill="#5675c1" opacity=".8"/><circle cx="478" cy="92" r="4.69" fill="#ffd336" opacity=".8"/><circle cx="192" cy="449" r="4.56" fill="#d14e5b" opacity=".8"/><circle cx="216" cy="239" r="4.53" fill="#d14e5b" opacity=".8"/><circle cx="142" cy="197" r="4.43" fill="#5675c1" opacity=".8"/><circle cx="225" cy="365" r="4.4" fill="#d14e5b" opacity=".8"/><circle cx="383" cy="113" r="4.23" fill="#ffd336" opacity=".8"/><circle cx="534" cy="92" r="4.21" fill="#ffd336" opacity=".8"/><circle cx="407" cy="92" r="4.15" fill="#ffd336" opacity=".8"/><circle cx="339" cy="113" r="3.86" fill="#5675c1" opacity=".8"/><circle cx="154" cy="365" r="3.8" fill="#d14e5b" opacity=".8"/><circle cx="448" cy="134" r="3.79" fill="#d14e5b" opacity=".8"/><circle cx="297" cy="155" r="3.77" fill="#69c487" opacity=".8"/><circle cx="375" cy="92" r="3.74" fill="#ffd336" opacity=".8"/><circle cx="198" cy="113" r="3.64" fill="#5675c1" opacity=".8"/><circle cx="442" cy="113" r="3.56" fill="#69c487" opacity=".8"/><circle cx="509" cy="92" r="3.46" fill="#ffd336" opacity=".8"/><circle cx="164" cy="260" r="3.41" fill="#5675c1" opacity=".8"/><circle cx="157" cy="323" r="3.4" fill="#5675c1" opacity=".8"/><circle cx="616" cy="92" r="3.34" fill="#4d824b" opacity=".8"/><circle cx="155" cy="176" r="3.34" fill="#d14e5b" opacity=".8"/><circle cx="107" cy="323" r="3.33" fill="#d14e5b" opacity=".8"/><circle cx="127" cy="386" r="3.27" fill="#5675c1" opacity=".8"/><circle cx="96" cy="176" r="3.22" fill="#d14e5b" opacity=".8"/><circle cx="268" cy="218" r="3.18" fill="#69c487" opacity=".8"/><circle cx="325" cy="113" r="3.17" fill="#69c487" opacity=".8"/><circle cx="322" cy="197" r="3.16" fill="#d14e5b" opacity=".8"/><circle cx="260" cy="134" r="3.02" fill="#5675c1" opacity=".8"/><circle cx="127" cy="197" r="2.98" fill="#5675c1" opacity=".8"/><circle cx="653" cy="92" r="2.91" fill="#a652ba" opacity=".8"/><circle cx="362" cy="92" r="2.9" fill="#d14e5b" opacity=".8"/><circle cx="193" cy="491" r="2.84" fill="#d14e5b" opacity=".8"/><circle cx="451" cy="176" r="2.83" fill="#d14e5b" opacity=".8"/><circle cx="478" cy="113" r="2.83" fill="#ffd336" opacity=".8"/><circle cx="143" cy="218" r="2.82" fill="#5675c1" opacity=".8"/><circle cx="177" cy="386" r="2.81" fill="#5675c1" opacity=".8"/><circle cx="425" cy="92" r="2.67" fill="#69c487" opacity=".8"/><circle cx="92" cy="176" r="2.66" fill="#5675c1" opacity=".8"/><circle cx="84" cy="197" r="2.64" fill="#5675c1" opacity=".8"/><circle cx="558" cy="92" r="2.64" fill="#ffd336" opacity=".8"/><circle cx="160" cy="176" r="2.62" fill="#5675c1" opacity=".8"/><circle cx="169" cy="134" r="2.58" fill="#4d824b" opacity=".8"/><circle cx="330" cy="197" r="2.56" fill="#69c487" opacity=".8"/><circle cx="177" cy="260" r="2.54" fill="#d14e5b" opacity=".8"/><circle cx="247" cy="155" r="2.53" fill="#5675c1" opacity=".8"/><circle cx="199" cy="155" r="2.49" fill="#5675c1" opacity=".8"/><circle cx="253" cy="218" r="2.48" fill="#5675c1" opacity=".8"/><circle cx="463" cy="92" r="2.39" fill="#ffd336" opacity=".8"/><circle cx="380" cy="449" r="2.38" fill="#4d824b" opacity=".8"/><circle cx="529" cy="134" r="2.36" fill="#ffd336" opacity=".8"/><circle cx="176" cy="155" r="2.36" fill="#5675c1" opacity=".8"/><circle cx="250" cy="92" r="2.35" fill="#ffd336" opacity=".8"/><circle cx="557" cy="113" r="2.35" fill="#ffd336" opacity=".8"/><circle cx="306" cy="155" r="2.34" fill="#69c487" opacity=".8"/><circle cx="137" cy="302" r="2.34" fill="#4d824b" opacity=".8"/><circle cx="283" cy="134" r="2.33" fill="#4d824b" opacity=".8"/><circle cx="546" cy="92" r="2.32" fill="#ffd336" opacity=".8"/><circle cx="419" cy="134" r="2.31" fill="#ffd336" opacity=".8"/><circle cx="116" cy="155" r="2.3" fill="#5675c1" opacity=".8"/><circle cx="568" cy="92" r="2.3" fill="#ffd336" opacity=".8"/><circle cx="487" cy="92" r="2.24" fill="#ffd336" opacity=".8"/><circle cx="204" cy="155" r="2.22" fill="#4d824b" opacity=".8"/><circle cx="641" cy="92" r="2.2" fill="#ffd336" opacity=".8"/><circle cx="446" cy="113" r="2.18" fill="#ffd336" opacity=".8"/><circle cx="317" cy="113" r="2.15" fill="#69c487" opacity=".8"/><circle cx="311" cy="365" r="2.14" fill="#d14e5b" opacity=".8"/><circle cx="162" cy="302" r="2.14" fill="#5675c1" opacity=".8"/><circle cx="119" cy="344" r="2.13" fill="#5675c1" opacity=".8"/><circle cx="234" cy="134" r="2.13" fill="#4d824b" opacity=".8"/><circle cx="116" cy="155" r="2.12" fill="#5675c1" opacity=".8"/><circle cx="244" cy="113" r="2.11" fill="#4d824b" opacity=".8"/><circle cx="483" cy="92" r="2.09" fill="#ffd336" opacity=".8"/><circle cx="414" cy="92" r="2.08" fill="#ffd336" opacity=".8"/><circle cx="558" cy="92" r="2.05" fill="#ffd336" opacity=".8"/><circle cx="300" cy="92" r="2.05" fill="#4d824b" opacity=".8"/><circle cx="533" cy="92" r="2.03" fill="#ffd336" opacity=".8"/><circle cx="715" cy="92" r="2.03" fill="#a652ba" opacity=".8"/><circle cx="133" cy="176" r="2.02" fill="#5675c1" opacity=".8"/><circle cx="379" cy="113" r="1.98" fill="#4d824b" opacity=".8"/><circle cx="411" cy="92" r="1.96" fill="#69c487" opacity=".8"/><circle cx="335" cy="113" r="1.95" fill="#ffd336" opacity=".8"/><circle cx="260" cy="449" r="1.94" fill="#d14e5b" opacity=".8"/><circle cx="354" cy="113" r="1.92" fill="#4d824b" opacity=".8"/><circle cx="282" cy="134" r="1.89" fill="#5675c1" opacity=".8"/><circle cx="99" cy="407" r="1.87" fill="#5675c1" opacity=".8"/><circle cx="444" cy="92" r="1.84" fill="#4d824b" opacity=".8"/><circle cx="355" cy="92" r="1.83" fill="#5675c1" opacity=".8"/><circle cx="240" cy="491" r="1.83" fill="#5675c1" opacity=".8"/><circle cx="435" cy="92" r="1.82" fill="#ffd336" opacity=".8"/><circle cx="395" cy="260" r="1.81" fill="#a652ba" opacity=".8"/><circle cx="400" cy="155" r="1.8" fill="#69c487" opacity=".8"/><circle cx="488" cy="92" r="1.78" fill="#ffd336" opacity=".8"/><circle cx="70" cy="302" r="1.75" fill="#d14e5b" opacity=".8"/><text x="307" y="430.16" font-size="14.3" font-family="Arial Narrow, Arial, sans-serif" fill="#666">China</text><text x="161" y="106.2" font-size="14.1" font-family="Arial Narrow, Arial, sans-serif" fill="#666">India</text><text x="639.01" y="103.87" font-size="11.77" font-family="Arial Narrow, Arial, sans-serif" fill="#666">United States</text><text x="239" y="104.23" font-size="11.6" font-family="Arial Narrow, Arial, sans-serif" fill="#666">Indonesia</text><text x="256" y="125.97" font-size="11.48" font-family="Arial Narrow, Arial, sans-serif" fill="#666">Brazil</text><text x="150" y="147.25" font-size="11.44" font-family="Arial Narrow, Arial, sans-serif" fill="#666">Pakistan</text><text x="148" y="273.77" font-size="11.37" font-family="Arial Narrow, Arial, sans-serif" fill="#666">Bangladesh</text><text x="437" y="210.99" font-size="11.34" font-family="Arial Narrow, Arial, sans-serif" fill="#666">Russia</text><text x="545" y="103.41" font-size="11.31" font-family="Arial Narrow, Arial, sans-serif" fill="#666">Japan</text><text x="346" y="127.92" font-size="11.24" font-family="Arial Narrow, Arial, sans-serif" fill="#666">Philippines</text><text x="148" y="380.22" font-size="11.21" font-family="Arial Narrow, Arial, sans-serif" fill="#666">Egypt</text><text x="478" y="103.3" font-size="11.2" font-family="Arial Narrow, Arial, sans-serif" fill="#666">Germany</text><text x="192" y="443.44" font-size="11.18" font-family="Arial Narrow, Arial, sans-serif" fill="#666">Iran</text><text x="216" y="233.47" font-size="11.18" font-family="Arial Narrow, Arial, sans-serif" fill="#666">Turkey</text><text x="142" y="191.57" font-size="11.17" font-family="Arial Narrow, Arial, sans-serif" fill="#666">Democratic Republic of Congo</text><text x="225" y="359.6" font-size="11.17" font-family="Arial Narrow, Arial, sans-serif" fill="#666">Thailand</text><text x="383" y="107.77" font-size="11.15" font-family="Arial Narrow, Arial, sans-serif" fill="#666">France</text><text x="154" y="360.2" font-size="11.12" font-family="Arial Narrow, Arial, sans-serif" fill="#666">Myanmar</text><text x="448" y="129.21" font-size="11.12" font-family="Arial Narrow, Arial, sans-serif" fill="#666">South Korea</text><text x="297" y="150.23" font-size="11.12" font-family="Arial Narrow, Arial, sans-serif" fill="#666">Colombia</text><text x="198" y="108.36" font-size="11.11" font-family="Arial Narrow, Arial, sans-serif" fill="#666">Kenya</text><text x="164" y="255.59" font-size="11.09" font-family="Arial Narrow, Arial, sans-serif" fill="#666">Algeria</text><text x="157" y="318.6" font-size="11.09" font-family="Arial Narrow, Arial, sans-serif" fill="#666">Uganda</text><text x="155" y="171.66" font-size="11.08" font-family="Arial Narrow, Arial, sans-serif" fill="#666">Iraq</text><text x="96" y="171.78" font-size="11.08" font-family="Arial Narrow, Arial, sans-serif" fill="#666">Nepal</text><text x="268" y="213.82" font-size="11.07" font-family="Arial Narrow, Arial, sans-serif" fill="#666">Venezuela</text><text x="325" y="108.83" font-size="11.07" font-family="Arial Narrow, Arial, sans-serif" fill="#666">Peru</text><text x="322" y="192.84" font-size="11.07" font-family="Arial Narrow, Arial, sans-serif" fill="#666">Malaysia</text><text x="193" y="487.16" font-size="11.05" font-family="Arial Narrow, Arial, sans-serif" fill="#666">Syria</text><text x="451" y="172.17" font-size="11.05" font-family="Arial Narrow, Arial, sans-serif" fill="#666">Sri Lanka</text><text x="143" y="214.18" font-size="11.05" font-family="Arial Narrow, Arial, sans-serif" fill="#666">Cote d&apos;Ivoire</text><text x="177" y="382.19" font-size="11.05" font-family="Arial Narrow, Arial, sans-serif" fill="#666">Cameroon</text><text x="425" y="103.14" font-size="11.04" font-family="Arial Narrow, Arial, sans-serif" fill="#666">Chile</text><text x="84" y="193.36" font-size="11.04" font-family="Arial Narrow, Arial, sans-serif" fill="#666">Mali</text><text x="169" y="130.42" font-size="11.04" font-family="Arial Narrow, Arial, sans-serif" fill="#666">Guatemala</text><text x="247" y="151.47" font-size="11.03" font-family="Arial Narrow, Arial, sans-serif" fill="#666">Zambia</text><text x="199" y="151.51" font-size="11.03" font-family="Arial Narrow, Arial, sans-serif" fill="#666">Senegal</text><text x="380" y="445.62" font-size="11.03" font-family="Arial Narrow, Arial, sans-serif" fill="#666">Cuba</text><text x="529" y="130.64" font-size="11.02" font-family="Arial Narrow, Arial, sans-serif" fill="#666">Belgium</text><text x="137" y="298.66" font-size="11.02" font-family="Arial Narrow, Arial, sans-serif" fill="#666">Haiti</text><text x="116" y="151.7" font-size="11.02" font-family="Arial Narrow, Arial, sans-serif" fill="#666">Benin</text><text x="311" y="361.86" font-size="11.01" font-family="Arial Narrow, Arial, sans-serif" fill="#666">Jordan</text><text x="162" y="298.86" font-size="11.01" font-family="Arial Narrow, Arial, sans-serif" fill="#666">Libya</text><text x="119" y="340.87" font-size="11.01" font-family="Arial Narrow, Arial, sans-serif" fill="#666">Togo</text><text x="260" y="446.06" font-size="11.01" font-family="Arial Narrow, Arial, sans-serif" fill="#666">Kuwait</text><text x="99" y="404.13" font-size="11" font-family="Arial Narrow, Arial, sans-serif" fill="#666">Gambia</text><text x="240" y="488.17" font-size="11" font-family="Arial Narrow, Arial, sans-serif" fill="#666">Swaziland</text><text x="395" y="257.19" font-size="11" font-family="Arial Narrow, Arial, sans-serif" fill="#666">Fiji</text><text x="400" y="152.2" font-size="11" font-family="Arial Narrow, Arial, sans-serif" fill="#666">Guyana</text><text x="70" y="299.25" font-size="11" font-family="Arial Narrow, Arial, sans-serif" fill="#666">Yemen</text></g><g class="ScatterColorLegend clickable" cursor="pointer"><g class="legendMark">,<path fill="#5675c1" d="M735 95.1h6v6h-6z"/>,<text font-size="12.6" x="746" y="102.2"><tspan x="746" y="102.18">Africa</tspan></text></g><g class="legendMark">,<path fill="#d14e5b" d="M735 112.7h6v6h-6z"/>,<text font-size="12.6" x="746" y="119.8"><tspan x="746" y="119.78">Asia</tspan></text></g><g class="legendMark">,<path fill="#ffd336" d="M735 130.3h6v6h-6z"/>,<text font-size="12.6" x="746" y="137.4"><tspan x="746" y="137.38">Europe</tspan></text></g><g class="legendMark">,<path fill="#4d824b" d="M735 147.9h6v6h-6z"/>,<text font-size="12.6" x="746" y="155"><tspan x="746" y="154.98">North America</tspan></text></g><g class="legendMark">,<path fill="#a652ba" d="M735 165.5h6v6h-6z"/>,<text font-size="12.6" x="746" y="172.6"><tspan x="746" y="172.58">Oceania</tspan></text></g><g class="legendMark">,<path fill="#69c487" d="M735 183.1h6v6h-6z"/>,<text font-size="12.6" x="746" y="190.2"><tspan x="746" y="190.18">South America</tspan></text></g></g></g><g class="SourcesFooter" fill="#777"><g class="clickable" fill="#777"><text font-size="12.6" x="15" y="581.6"><tspan x="15" y="581.58">Source: Lee and Lee (2016), Political Regime (OWID based on Polity IV and Wimmer &amp; Min)</tspan></text></g><text font-size="12.6" x="580.2" y="581.6"><tspan x="580.23" y="581.58"><a target="_blank" href="https://ourworldindata.org/democracy/" fill="#777">OurWorldInData.org/democracy/</a> • <a href="http://creativecommons.org/licenses/by-sa/4.0/deed.en_US" target="_blank" fill="#777">CC BY-SA</a></tspan></text></g></g></svg>