<svg xmlns="http://www.w3.org/2000/svg" version="1.1" style="background-color:#fff;-webkit-font-smoothing:antialiased" width="850" height="600" font-family="'Helvetica Neue',Helvetica,Arial,sans-serif" font-size="18" text-rendering="optimizeLegibility"><g class="ChartTab"><g class="HeaderView"><g opacity=".8" transform="matrix(.27 0 0 .27 778 15)"><a xmlns:xlink="http://www.w3.org/1999/xlink" xlink:href="https://ourworldindata.org" target="_blank"><g><path fill="#1B2543" d="M0 0h211.2v130.1H0z"/><path fill="#E63912" d="M0 112.2h211.2v17.9H0z"/><g><path fill="none" d="M1.2 12.3h210.2v99.2H1.2z"/><path fill="#FFF" d="M37.8 32.2c0 12.7-7.7 19.4-17.1 19.4-9.7 0-16.6-7.5-16.6-18.7 0-11.7 7.3-19.3 17.1-19.3 10.1.1 16.6 7.7 16.6 18.6zm-28.6.6c0 7.9 4.3 14.9 11.8 14.9 7.5 0 11.8-6.9 11.8-15.3 0-7.3-3.8-14.9-11.8-14.9-7.9 0-11.8 7.3-11.8 15.3zM62.7 43.8c0 2.7.1 5.1.2 7.2h-4.3l-.3-4.3h-.1c-1.3 2.1-4 4.9-8.8 4.9-4.2 0-9.1-2.3-9.1-11.6V24.6h4.8v14.6c0 5 1.5 8.4 5.9 8.4 3.2 0 5.5-2.2 6.3-4.4.3-.7.4-1.6.4-2.5V24.6h4.8v19.2zM67.3 32.8c0-3.1-.1-5.8-.2-8.2h4.2l.2 5.2h.2c1.2-3.5 4.1-5.8 7.3-5.8.5 0 .9.1 1.4.2v4.5c-.5-.1-1-.2-1.6-.2-3.4 0-5.8 2.6-6.5 6.2-.1.7-.2 1.4-.2 2.2V51h-4.8V32.8zM95.4 51L86 14.2h5l4.4 18.6c1.1 4.6 2.1 9.2 2.7 12.7h.1c.6-3.7 1.8-8 3-12.8l4.9-18.5h5l4.5 18.7c1 4.4 2 8.7 2.6 12.6h.1c.8-4 1.8-8.1 3-12.7l4.9-18.5h4.9L120.6 51h-5L111 31.9c-1.1-4.7-1.9-8.3-2.4-12h-.1c-.7 3.7-1.5 7.3-2.8 12L100.4 51h-5zM154.9 37.6c0 9.8-6.8 14-13.2 14-7.2 0-12.7-5.2-12.7-13.6 0-8.8 5.8-14 13.1-14 7.7 0 12.8 5.5 12.8 13.6zm-21 .3c0 5.8 3.3 10.1 8 10.1 4.6 0 8-4.3 8-10.3 0-4.5-2.2-10.1-7.9-10.1s-8.1 5.2-8.1 10.3zM158.2 32.8c0-3.1-.1-5.8-.2-8.2h4.2l.2 5.2h.2c1.2-3.5 4.1-5.8 7.3-5.8.5 0 .9.1 1.4.2v4.5c-.5-.1-1-.2-1.6-.2-3.4 0-5.8 2.6-6.5 6.2-.1.7-.2 1.4-.2 2.2V51h-4.8V32.8zM173.5 12.3h4.8V51h-4.8V12.3zM206.5 12.3v31.9c0 2.3.1 5 .2 6.8h-4.3l-.2-4.6h-.2c-1.5 2.9-4.7 5.2-9 5.2-6.4 0-11.3-5.4-11.3-13.4-.1-8.8 5.4-14.2 11.9-14.2 4 0 6.8 1.9 8 4h.1V12.3h4.8zm-4.8 23.1c0-.6-.1-1.4-.2-2a7 7 0 00-6.9-5.6c-5 0-7.9 4.4-7.9 10.2 0 5.3 2.6 9.8 7.8 9.8 3.2 0 6.2-2.1 7.1-5.7.2-.7.2-1.3.2-2.1v-4.6zM42.8 64c.1 1.6-1.1 2.9-3.1 2.9-1.7 0-2.9-1.3-2.9-2.9 0-1.7 1.3-3 3-3 1.9 0 3 1.3 3 3zm-5.4 33.8V71.4h4.8v26.4h-4.8zM47.5 78.6c0-2.7-.1-5-.2-7.1h4.3l.3 4.4h.1c1.3-2.5 4.4-5 8.8-5 3.7 0 9.4 2.2 9.4 11.2v15.8h-4.8V82.6c0-4.3-1.6-7.8-6.1-7.8-3.2 0-5.6 2.2-6.5 4.9-.2.6-.3 1.4-.3 2.2v15.9h-4.8V78.6zM84 61.6c2.9-.4 6.3-.8 10.1-.8 6.8 0 11.7 1.6 14.9 4.6 3.3 3 5.2 7.3 5.2 13.2 0 6-1.9 10.9-5.3 14.3-3.4 3.4-9.1 5.3-16.3 5.3-3.4 0-6.2-.2-8.6-.4V61.6zm4.8 32.5c1.2.2 3 .3 4.8.3 10.2 0 15.7-5.7 15.7-15.6.1-8.7-4.9-14.2-14.9-14.2-2.5 0-4.3.2-5.6.5v29zM132.1 97.8l-.4-3.3h-.2a9.79 9.79 0 01-8.1 3.9c-5.4 0-8.1-3.8-8.1-7.6 0-6.4 5.7-9.9 15.9-9.8v-.5c0-2.2-.6-6.1-6-6.1-2.5 0-5 .8-6.9 2l-1.1-3.2c2.2-1.4 5.4-2.3 8.7-2.3 8.1 0 10.1 5.5 10.1 10.8v9.9c0 2.3.1 4.5.4 6.3h-4.3zm-.7-13.4c-5.3-.1-11.2.8-11.2 5.9 0 3.1 2.1 4.6 4.5 4.6 3.4 0 5.6-2.2 6.4-4.4.2-.5.3-1 .3-1.5v-4.6zM146.6 63.9v7.6h6.9v3.7h-6.9v14.2c0 3.3.9 5.1 3.6 5.1 1.3 0 2.2-.2 2.8-.3l.2 3.6c-.9.4-2.4.7-4.3.7-2.2 0-4-.7-5.2-2-1.4-1.4-1.9-3.8-1.9-6.9V75.1h-4.1v-3.7h4.1v-6.3l4.8-1.2zM171.4 97.8l-.4-3.3h-.2a9.79 9.79 0 01-8.1 3.9c-5.4 0-8.1-3.8-8.1-7.6 0-6.4 5.7-9.9 15.9-9.8v-.5c0-2.2-.6-6.1-6-6.1-2.5 0-5 .8-6.9 2l-1.1-3.2c2.2-1.4 5.4-2.3 8.7-2.3 8.1 0 10.1 5.5 10.1 10.8v9.9c0 2.3.1 4.5.4 6.3h-4.3zm-.7-13.4c-5.3-.1-11.2.8-11.2 5.9 0 3.1 2.1 4.6 4.5 4.6 3.4 0 5.6-2.2 6.4-4.4.2-.5.3-1 .3-1.5v-4.6z"/></g></g></a></g><a href="https://ourworldindata.org/grapher/cross-country-literacy-rates?year=1960&amp;country=ARG+BOL+BRA+COL+PRY+URY" target="_blank"><text font-size="25.2" x="15" y="35.2" fill="#555"><tspan x="15" y="35.16">Adult literacy rate</tspan></text></a><text font-size="14.4" x="15" y="53.7" fill="#666"><tspan x="15" y="53.72">National literacy rates among adults corresponds to the share of the population 15+ able to read and write. Specific</tspan><tspan x="15" y="69.56">definitions and measurement methodologies vary across countries and time. See source for more details.</tspan></text></g><g class="LineChart"><defs><clipPath id="a"><path d="M51.63 0h830v928.8h-830z"/></clipPath></defs><g class="AxisBoxView"><g class="HorizontalAxis" fill="#666" text-anchor="middle" font-size="16.2"><text x="61.6" y="556.5">1900</text><text x="179.9" y="556.5">1920</text><text x="298.3" y="556.5">1940</text><text x="416.6" y="556.5">1960</text><text x="534.9" y="556.5">1980</text><text x="653.2" y="556.5">2000</text><text x="742" y="556.5">2015</text></g><g class="VerticalAxis" fill="#666" dominant-baseline="middle" text-anchor="end" font-size="16.2"><text x="56.63" y="535.3">0%</text><text x="56.63" y="446.7">20%</text><text x="56.63" y="358">40%</text><text x="56.63" y="269.4">60%</text><text x="56.63" y="180.7">80%</text><text x="56.63" y="92.1">100%</text></g><g class="AxisGridLines"><path stroke="#ccc" d="M61.63 535.3h680.32"/><path stroke="#ddd" stroke-dasharray="3,2" d="M61.63 446.7h680.32M61.63 358h680.32M61.63 269.4h680.32M61.63 180.7h680.32M61.63 92.1h680.32"/></g></g><g clip-path="url(#a)"><g class="HeightedLegend clickable"><g class="legendMark"><g class="indicator" stroke="#666" stroke-width=".5"><path d="M746.95 99h22.5M769.45 99h0M769.45 99h2.5"/></g><text font-size="13.5" x="777" y="103" fill="#2a939b"><tspan x="776.95" y="103.05">Uruguay</tspan></text></g><g class="legendMark"><g class="indicator" stroke="#666" stroke-width=".5"><path d="M746.95 100.6h19.17M766.12 100.6v13.9M766.12 114.5h5.83"/></g><text font-size="13.5" x="777" y="118.5" fill="#a652ba"><tspan x="776.95" y="118.55">Argentina</tspan></text></g><g class="legendMark"><g class="indicator" stroke="#666" stroke-width=".5"><path d="M746.95 111.9h15.83M762.78 111.9V130M762.78 130h9.17"/></g><text font-size="13.5" x="777" y="134.1" fill="#f6a324"><tspan x="776.95" y="134.05">Paraguay</tspan></text></g><g class="legendMark"><g class="indicator" stroke="#666" stroke-width=".5"><path d="M746.95 113.6h12.5M759.45 113.6v31.9M759.45 145.5h12.5"/></g><text font-size="13.5" x="777" y="149.6" fill="#34983f"><tspan x="776.95" y="149.55">Bolivia</tspan></text></g><g class="legendMark"><g class="indicator" stroke="#666" stroke-width=".5"><path d="M746.95 116.1h9.17M756.12 116.1V161M756.12 161h15.83"/></g><text font-size="13.5" x="777" y="165.1" fill="#ca2628"><tspan x="776.95" y="165.05">Colombia</tspan></text></g><g class="legendMark"><g class="indicator" stroke="#666" stroke-width=".5"><path d="M746.95 125h5.83M752.78 125v51.5M752.78 176.5h19.17"/></g><text font-size="13.5" x="777" y="180.6" fill="#3360a9"><tspan x="776.95" y="180.55">Brazil</tspan></text></g></g><g class="Lines"><g class="key-Argentina_0"><path stroke="#a652ba" stroke-linecap="round" d="M62 308l59-40 59-35 59-30 59-30 59-26 60-17 59-7 53-5 6 1 65-10 59-4 77-4h6" fill="none" stroke-width="1.5"/><g fill="#a652ba"><circle cx="62" cy="308" r="2"/><circle cx="121" cy="268" r="2"/><circle cx="180" cy="233" r="2"/><circle cx="239" cy="203" r="2"/><circle cx="298" cy="173" r="2"/><circle cx="357" cy="147" r="2"/><circle cx="417" cy="130" r="2"/><circle cx="476" cy="123" r="2"/><circle cx="529" cy="118" r="2"/><circle cx="535" cy="119" r="2"/><circle cx="600" cy="109" r="2"/><circle cx="659" cy="105" r="2"/><circle cx="736" cy="101" r="2"/><circle cx="742" cy="101" r="2"/></g></g><g class="key-Bolivia_0"><path stroke="#34983f" stroke-linecap="round" d="M62 456l59-9 59-9 59-13 59-14 59-17 60-54 59-62 6-4 6-5 6-4 5-4 6-5 6-1 95-74 53-30 36-18h6l6-2 11-4 6-10 18-3" fill="none" stroke-width="1.5"/><g fill="#34983f"><circle cx="62" cy="456" r="2"/><circle cx="121" cy="447" r="2"/><circle cx="180" cy="438" r="2"/><circle cx="239" cy="425" r="2"/><circle cx="298" cy="411" r="2"/><circle cx="357" cy="394" r="2"/><circle cx="417" cy="340" r="2"/><circle cx="476" cy="278" r="2"/><circle cx="482" cy="274" r="2"/><circle cx="488" cy="269" r="2"/><circle cx="494" cy="265" r="2"/><circle cx="499" cy="261" r="2"/><circle cx="505" cy="256" r="2"/><circle cx="511" cy="255" r="2"/><circle cx="606" cy="181" r="2"/><circle cx="659" cy="151" r="2"/><circle cx="695" cy="133" r="2"/><circle cx="701" cy="133" r="2"/><circle cx="707" cy="131" r="2"/><circle cx="718" cy="127" r="2"/><circle cx="724" cy="117" r="2"/><circle cx="742" cy="114" r="2"/></g></g><g class="key-Brazil_0"><path stroke="#3360a9" stroke-linecap="round" d="M62 380h118l59-17 59-23 59-22 60-49 59-35 53-31 6 2 118-52 24-10 12-5 6-2h6l6-1h5l6-5 6 1 6-1 12-5" fill="none" stroke-width="1.5"/><g fill="#3360a9"><circle cx="62" cy="380" r="2"/><circle cx="121" cy="380" r="2"/><circle cx="180" cy="380" r="2"/><circle cx="239" cy="363" r="2"/><circle cx="298" cy="340" r="2"/><circle cx="357" cy="318" r="2"/><circle cx="417" cy="269" r="2"/><circle cx="476" cy="234" r="2"/><circle cx="529" cy="203" r="2"/><circle cx="535" cy="205" r="2"/><circle cx="653" cy="153" r="2"/><circle cx="677" cy="143" r="2"/><circle cx="689" cy="138" r="2"/><circle cx="695" cy="136" r="2"/><circle cx="701" cy="136" r="2"/><circle cx="707" cy="135" r="2"/><circle cx="712" cy="135" r="2"/><circle cx="718" cy="130" r="2"/><circle cx="724" cy="131" r="2"/><circle cx="730" cy="130" r="2"/><circle cx="742" cy="125" r="2"/></g></g><g class="key-Colombia_0"><path stroke="#ca2628" stroke-linecap="round" d="M62 385l59-22 59-23 59-35 59-22 59-22 60-36 59-35 6-5h6l6-4 5-5h6l6-4h6l6-5 6-4h6l6-4 71-27 18-1 47-7h6l6 2 6-1 6-4 6 1h5l6-1 18-3 6-2" fill="none" stroke-width="1.5"/><g fill="#ca2628"><circle cx="62" cy="385" r="2"/><circle cx="121" cy="363" r="2"/><circle cx="180" cy="340" r="2"/><circle cx="239" cy="305" r="2"/><circle cx="298" cy="283" r="2"/><circle cx="357" cy="261" r="2"/><circle cx="417" cy="225" r="2"/><circle cx="476" cy="190" r="2"/><circle cx="482" cy="185" r="2"/><circle cx="488" cy="185" r="2"/><circle cx="494" cy="181" r="2"/><circle cx="499" cy="176" r="2"/><circle cx="505" cy="176" r="2"/><circle cx="511" cy="172" r="2"/><circle cx="517" cy="172" r="2"/><circle cx="523" cy="167" r="2"/><circle cx="529" cy="163" r="2"/><circle cx="535" cy="163" r="2"/><circle cx="541" cy="159" r="2"/><circle cx="612" cy="132" r="2"/><circle cx="630" cy="131" r="2"/><circle cx="677" cy="124" r="2"/><circle cx="683" cy="124" r="2"/><circle cx="689" cy="126" r="2"/><circle cx="695" cy="125" r="2"/><circle cx="701" cy="121" r="2"/><circle cx="707" cy="122" r="2"/><circle cx="712" cy="122" r="2"/><circle cx="718" cy="121" r="2"/><circle cx="736" cy="118" r="2"/><circle cx="742" cy="116" r="2"/></g></g><g class="key-Paraguay_0"><path stroke="#f6a324" stroke-linecap="round" d="M62 398l59-31 59-31 59-31 59-31 59-31 60-31 59-31h6l6-5 6-4h5l6-5 6-4h6l6-4h6l6-5h6l6-4 59-15 89-19 6 6 6-2 5-1 24-3 6-4" fill="none" stroke-width="1.5"/><g fill="#f6a324"><circle cx="62" cy="398" r="2"/><circle cx="121" cy="367" r="2"/><circle cx="180" cy="336" r="2"/><circle cx="239" cy="305" r="2"/><circle cx="298" cy="274" r="2"/><circle cx="357" cy="243" r="2"/><circle cx="417" cy="212" r="2"/><circle cx="476" cy="181" r="2"/><circle cx="482" cy="181" r="2"/><circle cx="488" cy="176" r="2"/><circle cx="494" cy="172" r="2"/><circle cx="499" cy="172" r="2"/><circle cx="505" cy="167" r="2"/><circle cx="511" cy="163" r="2"/><circle cx="517" cy="163" r="2"/><circle cx="523" cy="159" r="2"/><circle cx="529" cy="159" r="2"/><circle cx="535" cy="154" r="2"/><circle cx="541" cy="154" r="2"/><circle cx="547" cy="150" r="2"/><circle cx="606" cy="135" r="2"/><circle cx="695" cy="116" r="2"/><circle cx="701" cy="122" r="2"/><circle cx="707" cy="120" r="2"/><circle cx="712" cy="119" r="2"/><circle cx="736" cy="116" r="2"/><circle cx="742" cy="112" r="2"/></g></g><g class="key-Uruguay_0"><path stroke="#2a939b" stroke-linecap="round" d="M62 274l59-27 59-22 59-26 59-23 59-22 60-13 59-18h18l5-4h6l60-6 65-7 59-4h6l6-2h6l5 1 6-1 6-1h18" fill="none" stroke-width="1.5"/><g fill="#2a939b"><circle cx="62" cy="274" r="2"/><circle cx="121" cy="247" r="2"/><circle cx="180" cy="225" r="2"/><circle cx="239" cy="199" r="2"/><circle cx="298" cy="176" r="2"/><circle cx="357" cy="154" r="2"/><circle cx="417" cy="141" r="2"/><circle cx="476" cy="123" r="2"/><circle cx="482" cy="123" r="2"/><circle cx="488" cy="123" r="2"/><circle cx="494" cy="123" r="2"/><circle cx="499" cy="119" r="2"/><circle cx="505" cy="119" r="2"/><circle cx="565" cy="113" r="2"/><circle cx="630" cy="106" r="2"/><circle cx="689" cy="102" r="2"/><circle cx="695" cy="102" r="2"/><circle cx="701" cy="100" r="2"/><circle cx="707" cy="100" r="2"/><circle cx="712" cy="101" r="2"/><circle cx="718" cy="100" r="2"/><circle cx="724" cy="99" r="2"/><circle cx="730" cy="99" r="2"/><circle cx="736" cy="99" r="2"/><circle cx="742" cy="99" r="2"/></g></g></g></g></g><g class="SourcesFooter" fill="#777"><g class="clickable" fill="#777"><text font-size="12.6" x="15" y="581.6"><tspan x="15" y="581.58">Source: Literacy rates - WDI, CIA World Factbook, &amp; other sources</tspan></text></g><text font-size="12.6" x="775.4" y="581.6"><tspan x="775.4" y="581.58"><a class="cclogo" href="http://creativecommons.org/licenses/by-sa/4.0/deed.en_US" target="_blank" fill="#777">CC BY-SA</a></tspan></text></g></g></svg>