<svg xmlns="http://www.w3.org/2000/svg" version="1.1" style="background-color:#fff;-webkit-font-smoothing:antialiased" width="850" height="600" font-family="'Helvetica Neue',Helvetica,Arial,sans-serif" font-size="18" text-rendering="optimizeLegibility"><g class="ChartTab"><g class="HeaderView"><g opacity=".8" transform="matrix(.31 0 0 .31 770 15)"><a xmlns:xlink="http://www.w3.org/1999/xlink" xlink:href="https://ourworldindata.org" target="_blank"><g><path fill="#1B2543" d="M0 0h211.2v130.1H0z"/><path fill="#E63912" d="M0 112.2h211.2v17.9H0z"/><g><path fill="none" d="M1.2 12.3h210.2v99.2H1.2z"/><path fill="#FFF" d="M37.8 32.2c0 12.7-7.7 19.4-17.1 19.4-9.7 0-16.6-7.5-16.6-18.7 0-11.7 7.3-19.3 17.1-19.3 10.1.1 16.6 7.7 16.6 18.6zm-28.6.6c0 7.9 4.3 14.9 11.8 14.9 7.5 0 11.8-6.9 11.8-15.3 0-7.3-3.8-14.9-11.8-14.9-7.9 0-11.8 7.3-11.8 15.3zM62.7 43.8c0 2.7.1 5.1.2 7.2h-4.3l-.3-4.3h-.1c-1.3 2.1-4 4.9-8.8 4.9-4.2 0-9.1-2.3-9.1-11.6V24.6h4.8v14.6c0 5 1.5 8.4 5.9 8.4 3.2 0 5.5-2.2 6.3-4.4.3-.7.4-1.6.4-2.5V24.6h4.8v19.2zM67.3 32.8c0-3.1-.1-5.8-.2-8.2h4.2l.2 5.2h.2c1.2-3.5 4.1-5.8 7.3-5.8.5 0 .9.1 1.4.2v4.5c-.5-.1-1-.2-1.6-.2-3.4 0-5.8 2.6-6.5 6.2-.1.7-.2 1.4-.2 2.2V51h-4.8V32.8zM95.4 51L86 14.2h5l4.4 18.6c1.1 4.6 2.1 9.2 2.7 12.7h.1c.6-3.7 1.8-8 3-12.8l4.9-18.5h5l4.5 18.7c1 4.4 2 8.7 2.6 12.6h.1c.8-4 1.8-8.1 3-12.7l4.9-18.5h4.9L120.6 51h-5L111 31.9c-1.1-4.7-1.9-8.3-2.4-12h-.1c-.7 3.7-1.5 7.3-2.8 12L100.4 51h-5zM154.9 37.6c0 9.8-6.8 14-13.2 14-7.2 0-12.7-5.2-12.7-13.6 0-8.8 5.8-14 13.1-14 7.7 0 12.8 5.5 12.8 13.6zm-21 .3c0 5.8 3.3 10.1 8 10.1 4.6 0 8-4.3 8-10.3 0-4.5-2.2-10.1-7.9-10.1s-8.1 5.2-8.1 10.3zM158.2 32.8c0-3.1-.1-5.8-.2-8.2h4.2l.2 5.2h.2c1.2-3.5 4.1-5.8 7.3-5.8.5 0 .9.1 1.4.2v4.5c-.5-.1-1-.2-1.6-.2-3.4 0-5.8 2.6-6.5 6.2-.1.7-.2 1.4-.2 2.2V51h-4.8V32.8zM173.5 12.3h4.8V51h-4.8V12.3zM206.5 12.3v31.9c0 2.3.1 5 .2 6.8h-4.3l-.2-4.6h-.2c-1.5 2.9-4.7 5.2-9 5.2-6.4 0-11.3-5.4-11.3-13.4-.1-8.8 5.4-14.2 11.9-14.2 4 0 6.8 1.9 8 4h.1V12.3h4.8zm-4.8 23.1c0-.6-.1-1.4-.2-2a7 7 0 00-6.9-5.6c-5 0-7.9 4.4-7.9 10.2 0 5.3 2.6 9.8 7.8 9.8 3.2 0 6.2-2.1 7.1-5.7.2-.7.2-1.3.2-2.1v-4.6zM42.8 64c.1 1.6-1.1 2.9-3.1 2.9-1.7 0-2.9-1.3-2.9-2.9 0-1.7 1.3-3 3-3 1.9 0 3 1.3 3 3zm-5.4 33.8V71.4h4.8v26.4h-4.8zM47.5 78.6c0-2.7-.1-5-.2-7.1h4.3l.3 4.4h.1c1.3-2.5 4.4-5 8.8-5 3.7 0 9.4 2.2 9.4 11.2v15.8h-4.8V82.6c0-4.3-1.6-7.8-6.1-7.8-3.2 0-5.6 2.2-6.5 4.9-.2.6-.3 1.4-.3 2.2v15.9h-4.8V78.6zM84 61.6c2.9-.4 6.3-.8 10.1-.8 6.8 0 11.7 1.6 14.9 4.6 3.3 3 5.2 7.3 5.2 13.2 0 6-1.9 10.9-5.3 14.3-3.4 3.4-9.1 5.3-16.3 5.3-3.4 0-6.2-.2-8.6-.4V61.6zm4.8 32.5c1.2.2 3 .3 4.8.3 10.2 0 15.7-5.7 15.7-15.6.1-8.7-4.9-14.2-14.9-14.2-2.5 0-4.3.2-5.6.5v29zM132.1 97.8l-.4-3.3h-.2a9.79 9.79 0 01-8.1 3.9c-5.4 0-8.1-3.8-8.1-7.6 0-6.4 5.7-9.9 15.9-9.8v-.5c0-2.2-.6-6.1-6-6.1-2.5 0-5 .8-6.9 2l-1.1-3.2c2.2-1.4 5.4-2.3 8.7-2.3 8.1 0 10.1 5.5 10.1 10.8v9.9c0 2.3.1 4.5.4 6.3h-4.3zm-.7-13.4c-5.3-.1-11.2.8-11.2 5.9 0 3.1 2.1 4.6 4.5 4.6 3.4 0 5.6-2.2 6.4-4.4.2-.5.3-1 .3-1.5v-4.6zM146.6 63.9v7.6h6.9v3.7h-6.9v14.2c0 3.3.9 5.1 3.6 5.1 1.3 0 2.2-.2 2.8-.3l.2 3.6c-.9.4-2.4.7-4.3.7-2.2 0-4-.7-5.2-2-1.4-1.4-1.9-3.8-1.9-6.9V75.1h-4.1v-3.7h4.1v-6.3l4.8-1.2zM171.4 97.8l-.4-3.3h-.2a9.79 9.79 0 01-8.1 3.9c-5.4 0-8.1-3.8-8.1-7.6 0-6.4 5.7-9.9 15.9-9.8v-.5c0-2.2-.6-6.1-6-6.1-2.5 0-5 .8-6.9 2l-1.1-3.2c2.2-1.4 5.4-2.3 8.7-2.3 8.1 0 10.1 5.5 10.1 10.8v9.9c0 2.3.1 4.5.4 6.3h-4.3zm-.7-13.4c-5.3-.1-11.2.8-11.2 5.9 0 3.1 2.1 4.6 4.5 4.6 3.4 0 5.6-2.2 6.4-4.4.2-.5.3-1 .3-1.5v-4.6z"/></g></g></a></g><a href="https://ourworldindata.org/grapher/crude-oil-prices" target="_blank"><text font-size="27" x="15" y="36.6" fill="#555"><tspan x="15" y="36.6">Crude oil prices over the long term, US$ per barrel</tspan></text></a><text font-size="14.4" x="15" y="55.5" fill="#666"><tspan x="15" y="55.52">Global crude oil prices, measured in 2016 US dollars per barrel.</tspan></text></g><g class="LineChart"><defs><clipPath id="a"><path d="M46.29 0h830v956.2h-830z"/></clipPath></defs><g class="AxisBoxView"><g class="HorizontalAxis" fill="#666" text-anchor="middle" font-size="16.2"><text x="56.3" y="556.5">1861</text><text x="150.5" y="556.5">1880</text><text x="249.7" y="556.5">1900</text><text x="348.9" y="556.5">1920</text><text x="448.1" y="556.5">1940</text><text x="547.3" y="556.5">1960</text><text x="646.5" y="556.5">1980</text><text x="745.6" y="556.5">2000</text><text x="825" y="556.5">2016</text></g><g class="VerticalAxis" fill="#666" dominant-baseline="middle" text-anchor="end" font-size="16.2"><text x="51.29" y="535.3">$0</text><text x="51.29" y="461.1">$20</text><text x="51.29" y="386.9">$40</text><text x="51.29" y="312.8">$60</text><text x="51.29" y="238.6">$80</text><text x="51.29" y="164.4">$100</text><text x="51.29" y="90.2">$120</text></g><g class="AxisGridLines"><path stroke="#ccc" d="M56.29 535.3H825"/><path stroke="#ddd" stroke-dasharray="3,2" d="M56.29 461.1H825M56.29 386.9H825M56.29 312.8H825M56.29 238.6H825M56.29 164.4H825M56.29 90.2H825"/></g><g class="AxisGridLines" stroke="#ddd" stroke-dasharray="3,2"><path d="M150.5 535.3V78.4M249.7 535.3V78.4M348.9 535.3V78.4M448.1 535.3V78.4M547.3 535.3V78.4M646.5 535.3V78.4M745.6 535.3V78.4"/></g></g><g clip-path="url(#a)"><g class="Lines"><g class="key-__0024-2016_0"><path stroke="#3360a9" stroke-linecap="round" d="M56 487l5-45 5-133 5-231 5 76 5 155 5 73 5-88 5-1 5-28 5-51 5 52 5 134 5 44 5-18 5-104 5 12 5 92 5 28 5-6 5 8 4 8 5-24 5 12 5-3 5 16 5 4 5-20 5-6 5 7 5 19 5 11 5-8 5-23 5-59 5 20 5 41 5-13 5-40 5 11 5 24 5 20 5-10 5 7 5 24 5-11 4 4 5-3 5 2 5 11h5l5-10 5-17 5 14 5 15 5-33 5-19 5-9 5 14 5-33 5 50 5 1 5 15 5-4 5-11 5-9 5 28 5 6 5-6 5 3 4 25 5-18 5 10 5-20 5 3 5-7 5-3 5 2 5 6 5 1 5-5 5 4 5 4h5l5 9 5 1 5-24 5 2 5 7 5 3 5 5 5 1 5-7h10l4 1 5 3 5-4 5 1 5 6 5 4h5l5 1 5 1 5 1 5 1 5 1 5 2 5 3 5 2 5-8 5-3 5-14 5-143 5 19 5-10 5-4 5 13 5-196 5-11 4 46 5 48 5 40 5 18 5 18 5 111 5-27 5 32 5-18 5-31 5 31 5 8 5 18 5 9 5-4 5-18 5 11 5 37 5-27 5-51 5 24h5l5-16 5-41 4-68 5-39 5-23 5-92 5 146 5-68 5-116 5 7 5 18 5 43 5 176 5 34" fill="none" stroke-width="1.5"/><g fill="#3360a9"><circle cx="56" cy="487" r="2"/><circle cx="61" cy="442" r="2"/><circle cx="66" cy="309" r="2"/><circle cx="71" cy="78" r="2"/><circle cx="76" cy="154" r="2"/><circle cx="81" cy="309" r="2"/><circle cx="86" cy="382" r="2"/><circle cx="91" cy="294" r="2"/><circle cx="96" cy="293" r="2"/><circle cx="101" cy="265" r="2"/><circle cx="106" cy="214" r="2"/><circle cx="111" cy="266" r="2"/><circle cx="116" cy="400" r="2"/><circle cx="121" cy="444" r="2"/><circle cx="126" cy="426" r="2"/><circle cx="131" cy="322" r="2"/><circle cx="136" cy="334" r="2"/><circle cx="141" cy="426" r="2"/><circle cx="146" cy="454" r="2"/><circle cx="151" cy="448" r="2"/><circle cx="156" cy="456" r="2"/><circle cx="160" cy="464" r="2"/><circle cx="165" cy="440" r="2"/><circle cx="170" cy="452" r="2"/><circle cx="175" cy="449" r="2"/><circle cx="180" cy="465" r="2"/><circle cx="185" cy="469" r="2"/><circle cx="190" cy="449" r="2"/><circle cx="195" cy="443" r="2"/><circle cx="200" cy="450" r="2"/><circle cx="205" cy="469" r="2"/><circle cx="210" cy="480" r="2"/><circle cx="215" cy="472" r="2"/><circle cx="220" cy="449" r="2"/><circle cx="225" cy="390" r="2"/><circle cx="230" cy="410" r="2"/><circle cx="235" cy="451" r="2"/><circle cx="240" cy="438" r="2"/><circle cx="245" cy="398" r="2"/><circle cx="250" cy="409" r="2"/><circle cx="255" cy="433" r="2"/><circle cx="260" cy="453" r="2"/><circle cx="265" cy="443" r="2"/><circle cx="270" cy="450" r="2"/><circle cx="275" cy="474" r="2"/><circle cx="280" cy="463" r="2"/><circle cx="284" cy="467" r="2"/><circle cx="289" cy="464" r="2"/><circle cx="294" cy="466" r="2"/><circle cx="299" cy="477" r="2"/><circle cx="304" cy="477" r="2"/><circle cx="309" cy="467" r="2"/><circle cx="314" cy="450" r="2"/><circle cx="319" cy="464" r="2"/><circle cx="324" cy="479" r="2"/><circle cx="329" cy="446" r="2"/><circle cx="334" cy="427" r="2"/><circle cx="339" cy="418" r="2"/><circle cx="344" cy="432" r="2"/><circle cx="349" cy="399" r="2"/><circle cx="354" cy="449" r="2"/><circle cx="359" cy="450" r="2"/><circle cx="364" cy="465" r="2"/><circle cx="369" cy="461" r="2"/><circle cx="374" cy="450" r="2"/><circle cx="379" cy="441" r="2"/><circle cx="384" cy="469" r="2"/><circle cx="389" cy="475" r="2"/><circle cx="394" cy="469" r="2"/><circle cx="399" cy="472" r="2"/><circle cx="403" cy="497" r="2"/><circle cx="408" cy="479" r="2"/><circle cx="413" cy="489" r="2"/><circle cx="418" cy="469" r="2"/><circle cx="423" cy="472" r="2"/><circle cx="428" cy="465" r="2"/><circle cx="433" cy="462" r="2"/><circle cx="438" cy="464" r="2"/><circle cx="443" cy="470" r="2"/><circle cx="448" cy="471" r="2"/><circle cx="453" cy="466" r="2"/><circle cx="458" cy="470" r="2"/><circle cx="463" cy="474" r="2"/><circle cx="468" cy="474" r="2"/><circle cx="473" cy="483" r="2"/><circle cx="478" cy="484" r="2"/><circle cx="483" cy="460" r="2"/><circle cx="488" cy="462" r="2"/><circle cx="493" cy="469" r="2"/><circle cx="498" cy="472" r="2"/><circle cx="503" cy="477" r="2"/><circle cx="508" cy="478" r="2"/><circle cx="513" cy="471" r="2"/><circle cx="518" cy="471" r="2"/><circle cx="523" cy="471" r="2"/><circle cx="527" cy="472" r="2"/><circle cx="532" cy="475" r="2"/><circle cx="537" cy="471" r="2"/><circle cx="542" cy="472" r="2"/><circle cx="547" cy="478" r="2"/><circle cx="552" cy="482" r="2"/><circle cx="557" cy="482" r="2"/><circle cx="562" cy="483" r="2"/><circle cx="567" cy="484" r="2"/><circle cx="572" cy="485" r="2"/><circle cx="577" cy="486" r="2"/><circle cx="582" cy="487" r="2"/><circle cx="587" cy="489" r="2"/><circle cx="592" cy="492" r="2"/><circle cx="597" cy="494" r="2"/><circle cx="602" cy="486" r="2"/><circle cx="607" cy="483" r="2"/><circle cx="612" cy="469" r="2"/><circle cx="617" cy="326" r="2"/><circle cx="622" cy="345" r="2"/><circle cx="627" cy="335" r="2"/><circle cx="632" cy="331" r="2"/><circle cx="637" cy="344" r="2"/><circle cx="642" cy="148" r="2"/><circle cx="647" cy="137" r="2"/><circle cx="651" cy="183" r="2"/><circle cx="656" cy="231" r="2"/><circle cx="661" cy="271" r="2"/><circle cx="666" cy="289" r="2"/><circle cx="671" cy="307" r="2"/><circle cx="676" cy="418" r="2"/><circle cx="681" cy="391" r="2"/><circle cx="686" cy="423" r="2"/><circle cx="691" cy="405" r="2"/><circle cx="696" cy="374" r="2"/><circle cx="701" cy="405" r="2"/><circle cx="706" cy="413" r="2"/><circle cx="711" cy="431" r="2"/><circle cx="716" cy="440" r="2"/><circle cx="721" cy="436" r="2"/><circle cx="726" cy="418" r="2"/><circle cx="731" cy="429" r="2"/><circle cx="736" cy="466" r="2"/><circle cx="741" cy="439" r="2"/><circle cx="746" cy="388" r="2"/><circle cx="751" cy="412" r="2"/><circle cx="756" cy="412" r="2"/><circle cx="761" cy="396" r="2"/><circle cx="766" cy="355" r="2"/><circle cx="770" cy="287" r="2"/><circle cx="775" cy="248" r="2"/><circle cx="780" cy="225" r="2"/><circle cx="785" cy="133" r="2"/><circle cx="790" cy="279" r="2"/><circle cx="795" cy="211" r="2"/><circle cx="800" cy="95" r="2"/><circle cx="805" cy="102" r="2"/><circle cx="810" cy="120" r="2"/><circle cx="815" cy="163" r="2"/><circle cx="820" cy="339" r="2"/><circle cx="825" cy="373" r="2"/></g></g></g></g></g><g class="SourcesFooter" fill="#777"><g class="clickable" fill="#777"><text font-size="12.6" x="15" y="581.6"><tspan x="15" y="581.58">Source: BP Statistical Review 2016</tspan></text></g><text font-size="12.6" x="367.9" y="581.6"><tspan x="367.92" y="581.58"><a target="_blank" href="https://ourworldindata.org/energy-production-and-changing-energy-sources/" fill="#777">OurWorldInData.org/energy-production-and-changing-energy-sources/</a> • <a href="http://creativecommons.org/licenses/by-sa/4.0/deed.en_US" target="_blank" fill="#777">CC BY-SA</a></tspan></text></g></g></svg>