<svg xmlns="http://www.w3.org/2000/svg" version="1.1" style="background-color:#fff;-webkit-font-smoothing:antialiased" width="850" height="600" font-family="'Helvetica Neue',Helvetica,Arial,sans-serif" font-size="18" text-rendering="optimizeLegibility"><g class="ChartTab"><g class="HeaderView"><g opacity=".8" transform="matrix(.31 0 0 .31 770 15)"><a xmlns:xlink="http://www.w3.org/1999/xlink" xlink:href="https://ourworldindata.org" target="_blank"><g><path fill="#1B2543" d="M0 0h211.2v130.1H0z"/><path fill="#E63912" d="M0 112.2h211.2v17.9H0z"/><g><path fill="none" d="M1.2 12.3h210.2v99.2H1.2z"/><path fill="#FFF" d="M37.8 32.2c0 12.7-7.7 19.4-17.1 19.4-9.7 0-16.6-7.5-16.6-18.7 0-11.7 7.3-19.3 17.1-19.3 10.1.1 16.6 7.7 16.6 18.6zm-28.6.6c0 7.9 4.3 14.9 11.8 14.9 7.5 0 11.8-6.9 11.8-15.3 0-7.3-3.8-14.9-11.8-14.9-7.9 0-11.8 7.3-11.8 15.3zM62.7 43.8c0 2.7.1 5.1.2 7.2h-4.3l-.3-4.3h-.1c-1.3 2.1-4 4.9-8.8 4.9-4.2 0-9.1-2.3-9.1-11.6V24.6h4.8v14.6c0 5 1.5 8.4 5.9 8.4 3.2 0 5.5-2.2 6.3-4.4.3-.7.4-1.6.4-2.5V24.6h4.8v19.2zM67.3 32.8c0-3.1-.1-5.8-.2-8.2h4.2l.2 5.2h.2c1.2-3.5 4.1-5.8 7.3-5.8.5 0 .9.1 1.4.2v4.5c-.5-.1-1-.2-1.6-.2-3.4 0-5.8 2.6-6.5 6.2-.1.7-.2 1.4-.2 2.2V51h-4.8V32.8zM95.4 51L86 14.2h5l4.4 18.6c1.1 4.6 2.1 9.2 2.7 12.7h.1c.6-3.7 1.8-8 3-12.8l4.9-18.5h5l4.5 18.7c1 4.4 2 8.7 2.6 12.6h.1c.8-4 1.8-8.1 3-12.7l4.9-18.5h4.9L120.6 51h-5L111 31.9c-1.1-4.7-1.9-8.3-2.4-12h-.1c-.7 3.7-1.5 7.3-2.8 12L100.4 51h-5zM154.9 37.6c0 9.8-6.8 14-13.2 14-7.2 0-12.7-5.2-12.7-13.6 0-8.8 5.8-14 13.1-14 7.7 0 12.8 5.5 12.8 13.6zm-21 .3c0 5.8 3.3 10.1 8 10.1 4.6 0 8-4.3 8-10.3 0-4.5-2.2-10.1-7.9-10.1s-8.1 5.2-8.1 10.3zM158.2 32.8c0-3.1-.1-5.8-.2-8.2h4.2l.2 5.2h.2c1.2-3.5 4.1-5.8 7.3-5.8.5 0 .9.1 1.4.2v4.5c-.5-.1-1-.2-1.6-.2-3.4 0-5.8 2.6-6.5 6.2-.1.7-.2 1.4-.2 2.2V51h-4.8V32.8zM173.5 12.3h4.8V51h-4.8V12.3zM206.5 12.3v31.9c0 2.3.1 5 .2 6.8h-4.3l-.2-4.6h-.2c-1.5 2.9-4.7 5.2-9 5.2-6.4 0-11.3-5.4-11.3-13.4-.1-8.8 5.4-14.2 11.9-14.2 4 0 6.8 1.9 8 4h.1V12.3h4.8zm-4.8 23.1c0-.6-.1-1.4-.2-2a7 7 0 00-6.9-5.6c-5 0-7.9 4.4-7.9 10.2 0 5.3 2.6 9.8 7.8 9.8 3.2 0 6.2-2.1 7.1-5.7.2-.7.2-1.3.2-2.1v-4.6zM42.8 64c.1 1.6-1.1 2.9-3.1 2.9-1.7 0-2.9-1.3-2.9-2.9 0-1.7 1.3-3 3-3 1.9 0 3 1.3 3 3zm-5.4 33.8V71.4h4.8v26.4h-4.8zM47.5 78.6c0-2.7-.1-5-.2-7.1h4.3l.3 4.4h.1c1.3-2.5 4.4-5 8.8-5 3.7 0 9.4 2.2 9.4 11.2v15.8h-4.8V82.6c0-4.3-1.6-7.8-6.1-7.8-3.2 0-5.6 2.2-6.5 4.9-.2.6-.3 1.4-.3 2.2v15.9h-4.8V78.6zM84 61.6c2.9-.4 6.3-.8 10.1-.8 6.8 0 11.7 1.6 14.9 4.6 3.3 3 5.2 7.3 5.2 13.2 0 6-1.9 10.9-5.3 14.3-3.4 3.4-9.1 5.3-16.3 5.3-3.4 0-6.2-.2-8.6-.4V61.6zm4.8 32.5c1.2.2 3 .3 4.8.3 10.2 0 15.7-5.7 15.7-15.6.1-8.7-4.9-14.2-14.9-14.2-2.5 0-4.3.2-5.6.5v29zM132.1 97.8l-.4-3.3h-.2a9.79 9.79 0 01-8.1 3.9c-5.4 0-8.1-3.8-8.1-7.6 0-6.4 5.7-9.9 15.9-9.8v-.5c0-2.2-.6-6.1-6-6.1-2.5 0-5 .8-6.9 2l-1.1-3.2c2.2-1.4 5.4-2.3 8.7-2.3 8.1 0 10.1 5.5 10.1 10.8v9.9c0 2.3.1 4.5.4 6.3h-4.3zm-.7-13.4c-5.3-.1-11.2.8-11.2 5.9 0 3.1 2.1 4.6 4.5 4.6 3.4 0 5.6-2.2 6.4-4.4.2-.5.3-1 .3-1.5v-4.6zM146.6 63.9v7.6h6.9v3.7h-6.9v14.2c0 3.3.9 5.1 3.6 5.1 1.3 0 2.2-.2 2.8-.3l.2 3.6c-.9.4-2.4.7-4.3.7-2.2 0-4-.7-5.2-2-1.4-1.4-1.9-3.8-1.9-6.9V75.1h-4.1v-3.7h4.1v-6.3l4.8-1.2zM171.4 97.8l-.4-3.3h-.2a9.79 9.79 0 01-8.1 3.9c-5.4 0-8.1-3.8-8.1-7.6 0-6.4 5.7-9.9 15.9-9.8v-.5c0-2.2-.6-6.1-6-6.1-2.5 0-5 .8-6.9 2l-1.1-3.2c2.2-1.4 5.4-2.3 8.7-2.3 8.1 0 10.1 5.5 10.1 10.8v9.9c0 2.3.1 4.5.4 6.3h-4.3zm-.7-13.4c-5.3-.1-11.2.8-11.2 5.9 0 3.1 2.1 4.6 4.5 4.6 3.4 0 5.6-2.2 6.4-4.4.2-.5.3-1 .3-1.5v-4.6z"/></g></g></a></g><a href="https://ourworldindata.org/grapher/daily-per-capita-fat-supply-vs-gdp-per-capita" target="_blank"><text font-size="27" x="15" y="36.6" fill="#555"><tspan x="15" y="36.6">Daily per capita fat supply vs. GDP per capita, 1961 to 2013</tspan></text></a><text font-size="14.4" x="15" y="55.5" fill="#666"><tspan x="15" y="55.52">Daily per capita dietary fat supply, measured in grams per person per day versus gross domestic product (GDP)</tspan><tspan x="15" y="71.36">percapita, measured in 2011 international-$.</tspan></text></g><g><g class="AxisBoxView"><g class="HorizontalAxis"><text font-size="12.6" x="287.7" y="554"><tspan x="287.7" y="553.98">GDP per capita (2011 int-$)</tspan></text><text x="248.6" y="533.9" fill="#666" text-anchor="middle" font-size="16.2">$1,000</text><text x="443.8" y="533.9" fill="#666" text-anchor="middle" font-size="16.2">$10,000</text><text x="639" y="533.9" fill="#666" text-anchor="middle" font-size="16.2">$100,000</text></g><g class="VerticalAxis"><text font-size="12.6" x="-443.9" y="25.1" transform="rotate(-90)"><tspan x="-443.89" y="25.08">Daily per capita fat supply (grams per day)</tspan></text><text x="78.42" y="512.7" fill="#666" dominant-baseline="middle" text-anchor="end" font-size="16.2">0 g</text><text x="78.42" y="463.8" fill="#666" dominant-baseline="middle" text-anchor="end" font-size="16.2">20 g</text><text x="78.42" y="414.9" fill="#666" dominant-baseline="middle" text-anchor="end" font-size="16.2">40 g</text><text x="78.42" y="366.1" fill="#666" dominant-baseline="middle" text-anchor="end" font-size="16.2">60 g</text><text x="78.42" y="317.2" fill="#666" dominant-baseline="middle" text-anchor="end" font-size="16.2">80 g</text><text x="78.42" y="268.3" fill="#666" dominant-baseline="middle" text-anchor="end" font-size="16.2">100 g</text><text x="78.42" y="219.4" fill="#666" dominant-baseline="middle" text-anchor="end" font-size="16.2">120 g</text><text x="78.42" y="170.5" fill="#666" dominant-baseline="middle" text-anchor="end" font-size="16.2">140 g</text><text x="78.42" y="121.7" fill="#666" dominant-baseline="middle" text-anchor="end" font-size="16.2">160 g</text></g><g class="AxisGridLines"><path stroke="#ccc" d="M83.42 512.7H715"/><path stroke="#ddd" stroke-dasharray="3,2" d="M83.42 463.8H715M83.42 414.9H715M83.42 366.1H715M83.42 317.2H715M83.42 268.3H715M83.42 219.4H715M83.42 170.5H715M83.42 121.7H715"/></g><g class="AxisGridLines" stroke="#ddd" stroke-dasharray="3,2"><path d="M248.6 512.7V93.9M443.8 512.7V93.9M639 512.7V93.9"/></g></g><g clip-path="url(#a)" class="PointsWithLabels clickable"><path fill="rgba(255,255,255,0)" d="M83.42 93.9H715v418.8H83.42z"/><defs><clipPath id="a"><path d="M73.42 83.9H725v438.8H73.42z"/></clipPath></defs><g class="key-Indonesia_0" stroke="#ccc"><circle cx="244" cy="446" r="1.31" fill="#e2e2e2" opacity=".6"/><path stroke-linecap="round" fill="none" stroke-width=".79" opacity=".6" d="M244 446l6-2h-5l-1-5-2 1-7 1 3 2 6 2h-3l7-2h3l6 2 10-4 13-5v2l4 1 7-7 4-3 12-5 10 3 5-12v-2l4-5 4-5 1 1-1-4 2-4 2-7 5-3 8 24 5-5 5-3 5 2 6-2 5-3 7 1v6l-8 2-5-1-4-2 1-2-2-2-2-7 6 1 5-2 8-2 7-7 12 3 8-3 13-4 14-4 3-2 3-3"/><path cx="439" cy="371" r="1.49" fill="#e2e2e2" stroke-width=".2" opacity=".6" d="M433.34 374.56l6.71-4.61-1.05 3.15z"/></g><g class="key-Pakistan_0" stroke="#ccc"><circle cx="264" cy="430" r="1.23" fill="#e2e2e2" opacity=".6"/><path stroke-linecap="round" fill="none" stroke-width=".72" opacity=".6" d="M264 430l3-2 3-2 4-3 5-2 7 1v1l2 1 5-4h5l-1-1 1-3 2-3v-4l-2-1h3l1-3 2-3 2-2 2-1 2-1 1-6 2-4 2 4 3 2 1-4 3-3 3-15 1 5v-3l-1 2 3-14-1-3 1 8 2-14h3l-3 6 3-3v-6l1 5h-1l2-3 1-6 5 2 5-5 5-5 5-5 2-1 5 2 4-1 6-3h0l2-1"/><path cx="375" cy="329" r="1.42" fill="#e2e2e2" stroke-width=".2" opacity=".6" d="M368.48 330.67l7.8-2.3-1.92 2.54z"/></g><g class="key-Nigeria_0" stroke="#ccc"><circle cx="362" cy="376" r="1.23" fill="#e2e2e2" opacity=".6"/><path stroke-linecap="round" fill="none" stroke-width=".71" opacity=".6" d="M362 376v-10l3 6 3 4 2-1-9 18-13-7 3 2 22-9 3 11 8 4 4 10 9-1 11-14-5 13 1-3 10-9h-3l-7 6-9-5-4 3-2-3-3 12-10 5 6-7-102-15-24 14-11-6-4-3-7-8-16-2-15-4-15-9-9 2-6 2v-4l5-1-6-2 19-4 34 6 16-7 16-2 28-2 32-2 36-5 2-2 20 4v2l6 18 7-1-1 1 7 1-3 2"/><path cx="391" cy="374" r="1.41" fill="#e2e2e2" stroke-width=".2" opacity=".6" d="M397.27 371.52l-7.44 3.26 1.56-2.73z"/></g><g class="key-Bangladesh_0" stroke="#ccc"><circle cx="279" cy="472" r="1.24" fill="#e2e2e2" opacity=".6"/><path stroke-linecap="round" fill="none" stroke-width=".69" opacity=".6" d="M279 472l4 3 3-3-2 1-2-1v2l-4 3v-1l2-1 4-1-4 2-6 1-16-1-1 1h-6l10-6 2 8-1-3 3-2-2 2-1-1-3-2v-2l5 2 1-6v2l-1-6h1l8-1 1 8 2-5v-6l1 5 2 2 1-4 1-1-2-12-1-13-3 18-1-9 1 1 2 8 1-5 1-3 2-1 7-4 8 1 7 3 7-5 9 2 9-2 4-2 4 1"/><path cx="336" cy="439" r="1.39" fill="#e2e2e2" stroke-width=".2" opacity=".6" d="M329.92 436.05l7.43 3.29-3.04.67z"/></g><g class="key-Russia_0" stroke="#ccc"><circle cx="500" cy="255" r="1.38" fill="#e2e2e2" opacity=".6"/><path stroke-linecap="round" fill="none" stroke-width=".68" opacity=".6" d="M500 255l-6 40 5 19-17-3-15 3-6 4-23 11-3-7-5 2 5 4 13-3-3-7 1-6 7-6 9-5 10-6 11-5 10-7 9-4-9-1 10-10 10-3 3-5 1-6"/><path cx="517" cy="254" r="1.38" fill="#e2e2e2" stroke-width=".2" opacity=".6" d="M514.55 260.3l2.68-7.66.9 2.94z"/></g><g class="key-Mexico_0" stroke="#ccc"><circle cx="396" cy="383" r="1.22" fill="#e2e2e2" opacity=".6"/><path stroke-linecap="round" fill="none" stroke-width=".64" opacity=".6" d="M396 383l1 1 5 3 8-2h2l2-4 2 1 4 1 1-3 2-4 1 2 5-6 4-4 2-7 2-4 3-1v-8l6-10 6-3 8-8 4-10-2-16-7-6-1 17-1-4-8-1v10l-3-6 1 10 3 8 1-13h2l-1-4 3-1-9 5 3-6 4-2h2l3 4 5-3v-10l1 1 5-6 3-4 5 4 3-4h0l-5 3 5-2 4-6 1 4v-5"/><path cx="481" cy="284" r="1.34" fill="#e2e2e2" stroke-width=".2" opacity=".6" d="M479.66 290.66l1.34-8 1.34 2.68z"/></g><g class="key-Philippines_0" stroke="#ccc"><circle cx="303" cy="440" r="1.19" fill="#e2e2e2" opacity=".6"/><path stroke-linecap="round" fill="none" stroke-width=".62" opacity=".6" d="M303 440l3-1 3-2-2 2 2-7 2-5v1l3 1 2-5 3 3 2 2 2 2 7-3v-1l2 4 3-5 2-8 3 3v6l5-4 1 2 1 6-2 2-6 1-6 7 3-5 5-8 6-4 4-4 3-8 2-3 1 1h2l7-6 7 3 6-4h-1l-4 1-2-13v-1l-3 6-2 1v1h1l-1 3 5-7 5-5 4 2 4-5 7-2 5-1h3l6 4"/><path cx="406" cy="387" r="1.32" fill="#e2e2e2" stroke-width=".2" opacity=".6" d="M401.17 382.2l5.93 5.53-2.93-.36z"/></g><g class="key-Vietnam_0" stroke="#ccc"><circle cx="229" cy="463" r="1.23" fill="#e2e2e2" opacity=".6"/><path stroke-linecap="round" fill="none" stroke-width=".61" opacity=".6" d="M229 463l1-1h-4v2l1 7 7-1h9l3-2-5 1 3-5 5-4 4-2 4-3h3l1-2v-3l2 1 2-2h9l5-5 3-4 3-5 5-3 5-2 6 1 3-6 4-7h3l4-8 5-6 4-4 8-10 8-9 6-12 5-7 6-8 4-10 10-1 6-8 6 4 3-3"/><path cx="386" cy="336" r="1.31" fill="#e2e2e2" stroke-width=".2" opacity=".6" d="M380.34 339.8l6.58-4.72-.92 2.77z"/></g><g class="key-Ethiopia_0" stroke="#ccc"><circle cx="181" cy="444" r="1.18" fill="#e2e2e2" opacity=".6"/><path stroke-linecap="round" fill="none" stroke-width=".6" opacity=".6" d="M181 444l1 1 1 1 4 1 4 2h1v-2l2 2 5-1-2-1-1 3 9 6v1l-4 1 5 1 3-2h-3l4-1-3-2 9-1 9 1 9-1 11 1 4 5-13-5 2-2-5 8-3-6-1 3 7-1h-9l-13-1 1 18-11-2 5 2-2-3 5 2-12 1-2-1-4-2 6-1-11-5-3-1 12-1 11-3 1 1 16-3 7-9v6l9-6 13-2 6 4 6-1"/><path cx="267" cy="449" r="1.3" fill="#e2e2e2" stroke-width=".2" opacity=".6" d="M260.18 448.81l8.1-.02-2.35 1.71z"/></g><g class="key-Egypt_0" stroke="#ccc"><circle cx="213" cy="418" r="1.2" fill="#e2e2e2" opacity=".6"/><path stroke-linecap="round" fill="none" stroke-width=".6" opacity=".6" d="M213 418l2-6h6l8 5 1-8 1-2h1l7-3 4-3 9-1v2l4-5-1-2 6-6 2-3 1-9 3-4 2-5-2-7v-3l13-9h-2l10 14 8 3 4-1-2-2 1 3-4 1 7 3 8 7h11l6 2 11-1 10-1 12-3 14 3 3 1-1-2 3-2 3-2 2 3 1-5 2-2 2 9 2-5h7l10-10 8-1 7 6 10-7 9-4v-2 4"/><path cx="442" cy="358" r="1.3" fill="#e2e2e2" stroke-width=".2" opacity=".6" d="M443.3 351.3l-1.3 8-1.3-2.6z"/></g><g class="key-Germany_0" stroke="#ccc"><circle cx="448" cy="236" r="1.28" fill="#e2e2e2" opacity=".6"/><path stroke-linecap="round" fill="none" stroke-width=".59" opacity=".6" d="M448 236l3-9 1 3 6-4 3-7 2 3-1-4 4-6 6 3 5-7 3-1 4-10 4 7 1 4v-2l4-11 4 4 3-11 4-3v2l-3-2-1-5v-9h1v-4l6 13 3 3h4l4-7 5-7 5-1 3-13v20h5l1-16 3 3 3-1 4 7v-5l2 14v-5h0l2 2v-1l4-5 5-13 2 5-4 3 4-3 5-4 1 4 2 6"/><path cx="570" cy="166" r="1.29" fill="#e2e2e2" stroke-width=".2" opacity=".6" d="M569.1 159.23l1.3 8-2.04-2.05z"/></g><g class="key-Iran_0" stroke="#ccc"><circle cx="329" cy="445" r="1.18" fill="#e2e2e2" opacity=".6"/><path stroke-linecap="round" fill="none" stroke-width=".59" opacity=".6" d="M329 445l1-3 1-1-1-8 7-1 5 3 6-4 5-13 1 10 6-9 10 7 9-9 14 1 30-18v-8l2 9-9-4h-15l-6-5-32-13-10-6 7 6-2-10-10-3-3 8-11 4 1-1-9 14 4-21 13-13 12 1h6l16 1 6-4 2-13 13 11 3 1v-14l9 13 9 2 8-1 13 3 9-6 9-13 15 5h5l9-9-2-8-1-7 6 4 4 6-14 2 3-3"/><path cx="483" cy="328" r="1.29" fill="#e2e2e2" stroke-width=".2" opacity=".6" d="M477.34 331.84l6.57-4.75-.91 2.73z"/></g><g class="key-Turkey_0" stroke="#ccc"><circle cx="377" cy="342" r="1.2" fill="#e2e2e2" opacity=".6"/><path stroke-linecap="round" fill="none" stroke-width=".58" opacity=".6" d="M377 342l3 9 6-16 1-4v18l10-22 1 9 4-10 2 23 4-15v-6l5-21 2 29 7-8 4-15 7-13-3 26-5-9-3 8-3-28 7 25-2-12 2 20 3-20 3-7 3-3 7-4 1-19-3-4 4 10-3 1 2 4 6-12-6-2 3 3 8-7 3 2-3 8-4 3 6-15-4 11-1-5-5-4 10-14h6l8-8 5-13 5 8-3-6 7-3 7-17 4 2 2 1"/><path cx="497" cy="220" r="1.28" fill="#e2e2e2" stroke-width=".2" opacity=".6" d="M491.57 215.85l6.58 4.72h-2.87z"/></g><g class="key-Thailand_0" stroke="#ccc"><circle cx="261" cy="436" r="1.19" fill="#e2e2e2" opacity=".6"/><path stroke-linecap="round" fill="none" stroke-width=".58" opacity=".6" d="M261 436l1-1h3l4 1 7 4 8-6 1 6 3-1 6 1 23 1 1 4 2-1 7-1-1 1 1-1 6-1 5 1 7-7 2 5 1-6 2-5 2-1 2-1 5-4 2-7 1 2 5-1 6-4 6-6 6-7 6-4 9-4 7 3 8-3 9-2 8-2-6-1-10-1v2l1-11v1l5-7h13l3-2h7l7-10 3 7 2 5 9-5 4-3 5 4-3 1"/><path cx="472" cy="369" r="1.28" fill="#e2e2e2" stroke-width=".2" opacity=".6" d="M478.78 368.08l-7.99 1.32 2.02-2.01z"/></g><g class="key-Italy_0" stroke="#ccc"><circle cx="422" cy="324" r="1.24" fill="#e2e2e2" opacity=".6"/><path stroke-linecap="round" fill="none" stroke-width=".56" opacity=".6" d="M422 324l5-21 3-10 2 6 2-9 4-2 5-15 5-5 5-7 11-24 1-2 4-9h8l-1 4h7l4 11 5-34 7-10 4-1-2 1h-1v-4l1-2v-15l6-13 4-11h4l4-2 4-6 3-4 1 18-1 1 3-6 4 1 1-5 3-3 5-17 2-6 3 14 1-4h-3l-1 7v5l-1 6 4-21h4l2 1-2 8v-9l1-3v-1 8"/><path cx="552" cy="134" r="1.26" fill="#e2e2e2" stroke-width=".2" opacity=".6" d="M553.26 127.26l-1.26 8-1.26-2.52z"/></g><g class="key-South-Africa_0" stroke="#ccc"><circle cx="400" cy="364" r="1.17" fill="#e2e2e2" opacity=".6"/><path stroke-linecap="round" fill="none" stroke-width=".54" opacity=".6" d="M400 364l1 2 3-3h4l2-10 2 4 4-2 1-3 4-1 2 2-1 2 2-2 9-10 3 9-5 3-2 1-3 2 2 1h3l9-2-2-1-3-1-1-5 2 1-4-5-4 2 1-7 1 9v3l-2-4h-2l-3 2 1 1v-9l3-3 2 5v-9l1 5 3-3 1-10 4-6 2-3 2 2 4-5h5l4 2v-9l-2-9 2 2 4 5v-2l1 3"/><path cx="460" cy="308" r="1.24" fill="#e2e2e2" stroke-width=".2" opacity=".6" d="M459.04 301.2l1.35 7.98-1.96-1.97z"/></g><g class="key-Tanzania_0" stroke="#ccc"><circle cx="267" cy="454" r="1.15" fill="#e2e2e2" opacity=".6"/><path stroke-linecap="round" fill="none" stroke-width=".54" opacity=".6" d="M267 454h5l5 1 9-2-3-4 4-5 1-2 3 2 2 4 4-3 1 1h3l3-2v-2l3-6 5-3-5-1-1 3h0l-6 1h-15v-1l2 4 4-4h9l-35-1-23-1 21-5-7 4h2l-3-1-9-1-5 3-6 5h1l5 2 5-2 5-2 4-2h3l5-3 6-5 3-8 3 1 6-14 3 8 6-11 4 9 3 1h7l5-13 1-1 1 1"/><path cx="311" cy="399" r="1.24" fill="#e2e2e2" stroke-width=".2" opacity=".6" d="M307.1 393.34l4.78 6.54-2.63-.88z"/></g><g class="key-Myanmar_0" stroke="#ccc"><circle cx="134" cy="443" r="1.18" fill="#e2e2e2" opacity=".6"/><path stroke-linecap="round" fill="none" stroke-width=".54" opacity=".6" d="M134 443l8-8-8-7 2 9 3 4-10 2 3 1 2 1 93-5v-4l-2 3 1 6 2-7 1 4h2l1 1v-3l1-8 5 10 3-10 2-8 4 1 4-4v-9l-2-1-5 4-12 5 1 15-1-18-4 5 6 2 5-6 2 6 6-3h1v-2h3l4 7 7-7h3l4-7 8-4 11-10 13-8 12-4 8-14 7-12 8-13 18-7 9-2 14 5h5"/><path cx="382" cy="343" r="1.24" fill="#e2e2e2" stroke-width=".2" opacity=".6" d="M375.24 341.76l8 1.24-2.48 1.24z"/></g><g class="key-South-Korea_0" stroke="#ccc"><circle cx="263" cy="476" r="1.19" fill="#e2e2e2" opacity=".6"/><path stroke-linecap="round" fill="none" stroke-width=".54" opacity=".6" d="M263 476l-1 1h8l5-2 2-3 8-1 3-4 8-4 9-6 6-1 11-5 10-1 15-1 10-4 9-6 10-7 7 2 7-7 2-6h-9l3-5 6-3 9-1 7-9 4-3 12-3 10-8 11-5 6-3 8-9 9-5 6-6 7 1 8-17 9 10 4-9 4-9-6-5 8-4 4-7 3 6 7-6 2-14 4-2 3-1 2-5 4-8-1-5 2-11 5-7v-7l2-6 2 7"/><path cx="547" cy="262" r="1.24" fill="#e2e2e2" stroke-width=".2" opacity=".6" d="M546.33 255.16l1.01 8.03-1.87-2.04z"/></g><g class="key-Colombia_0" stroke="#ccc"><circle cx="356" cy="414" r="1.17" fill="#e2e2e2" opacity=".6"/><path stroke-linecap="round" fill="none" stroke-width=".54" opacity=".6" d="M356 414l1-4v7l5-3-3 3 2 3 1-1 2-3h4l5-4 6-4 6 1 8 2 3-5 3 4 5-10 3-3 4 4v-3l2-5-2-9-2 5-2-2v-2l-1-1 5-1-2-5 1-3v-3l1-2v-1l1-1 3-9 3-5 2-6v-4 1l-3-1h-5l1-11-1 1v-1l2 1 3 3 4-5 7-5h7l5-3 2 7 6-9 8-2 2-4 3-5"/><path cx="461" cy="311" r="1.24" fill="#e2e2e2" stroke-width=".2" opacity=".6" d="M456.46 316.16l5.18-6.22-.22 2.76z"/></g><g class="key-Spain_0" stroke="#ccc"><circle cx="405" cy="339" r="1.2" fill="#e2e2e2" opacity=".6"/><path stroke-linecap="round" fill="none" stroke-width=".53" opacity=".6" d="M405 339l7-22h7l4 19 3-27 6 9 4-13 5-2 7 7 3-14 3-6 6-9 5 9 1-45v-10l4 10 2 6h3l1 2v-28l-6 11-3-13h-2l-2 3-1-11 6-15 6 1 6-16 6-5h6l4-39 2 2v16l4-2 4 11 3-26 6 13 6-12 3 4 4-14 2 6 3-3v11l2 10 2-1 6 2 6-6 1 8h-5l-1-1v2h1"/><path cx="545" cy="161" r="1.23" fill="#e2e2e2" stroke-width=".2" opacity=".6" d="M538.23 159.77l8 1.23-2.46 1.23z"/></g><g class="key-Ukraine_0" stroke="#ccc"><circle cx="451" cy="255" r="1.24" fill="#e2e2e2" opacity=".6"/><path stroke-linecap="round" fill="none" stroke-width=".53" opacity=".6" d="M451 255l-6 40-7-7-18 19-16 16-12 6-7 10-7-7-3 3v2l2-2 5-2 5-16 8-6 12-12 8-4 9-5 11-10 6-5-12 5 6 6 9 5 3-2 3-3"/><path cx="450" cy="286" r="1.23" fill="#e2e2e2" stroke-width=".2" opacity=".6" d="M444.34 289.92l6.53-4.79-.87 2.6z"/></g><g class="key-Kenya_0" stroke="#ccc"><circle cx="293" cy="424" r="1.14" fill="#e2e2e2" opacity=".6"/><path stroke-linecap="round" fill="none" stroke-width=".53" opacity=".6" d="M293 424l3 1v5l4-3v-6l6 5 1 2-3-3 2-3-6 2 3-3 4-1-2 4h4l-5-2v-7l10-6v-3l-4 3-1-3-3-1h0l1 3 3 4-1-1 4-5h-3l1-1-1-4v-5l-4 5 2 3 9-4-6-5 2 2-2 1v1l-2-4-4 3-1-1-2 3-2-1v-3l2-3h11l1 1 5-10 5 3 3 7 4 3 2-2"/><path cx="333" cy="395" r="1.23" fill="#e2e2e2" stroke-width=".2" opacity=".6" d="M327.34 398.92l6.53-4.79-.87 2.6z"/></g><g class="key-Argentina_0" stroke="#ccc"><circle cx="349" cy="283" r="1.18" fill="#e2e2e2" opacity=".6"/><path stroke-linecap="round" fill="none" stroke-width=".52" opacity=".6" d="M349 283l-5-13-2-3 4 14 11-15-2-26 3-1 1-7 6-6v15l3 15v9l4-11h2l-2-23-3 6h2l-4-5 7 1 3-6h-2l-1 22 6 12 4-4-5-10 10 5 5-7 3 9-3 5 5 10 15-13 14-15 11-10 12-2 8 5 20 4 2 3v-9l-6-11-2 7-7 5-7 37h3l6-5 5-14 7-1 6-8 3-2-1 1 8-4 7 1v-6l2-4"/><path cx="505" cy="228" r="1.22" fill="#e2e2e2" stroke-width=".2" opacity=".6" d="M500.88 233.51l4.67-6.6v2.73z"/></g><g class="key-Poland_0" stroke="#ccc"><circle cx="389" cy="258" r="1.2" fill="#e2e2e2" opacity=".6"/><path stroke-linecap="round" fill="none" stroke-width=".52" opacity=".6" d="M389 258l6-5 3-5 3-9 5-3 4-8 2-1 2-4v-2h-1l-10 7-6 6v28l6-11 7-3 6-11 5-9 4-1 6-2 5-4-9 21-5-1 6-10 7 5 7 10 8-5 4-2 5 4 5-9 4-1 2 2 1-1 3-6-1 4 5 4 1-1 5 3 8 1 3-1 6-11 5-1 6-2h5l2-4"/><path cx="519" cy="220" r="1.22" fill="#e2e2e2" stroke-width=".2" opacity=".6" d="M514.88 225.52l4.66-6.6v2.71z"/></g><g class="key-Algeria_0" stroke="#ccc"><circle cx="376" cy="439" r="1.15" fill="#e2e2e2" opacity=".6"/><path stroke-linecap="round" fill="none" stroke-width=".51" opacity=".6" d="M376 439l-20 12 14-4 3-6 5-2-14 2 10-4 4-1 4-4 9-2h-5l8-6 5 7 28-22-6 11 4 7 5-34 5-5 11-7 5-10 4-24h-2l2 13 1 4 2-4-16 20-8-4-10-20v-7l3-6v6l-5-14-7 4-4 10 2-5 7 18-1-9-3 2 5-6 17 3-4-11v11l7 11 3-7 12 6 7-18-2 4h4l-13 4 10-9 6-16h1l-3-2"/><path cx="466" cy="325" r="1.21" fill="#e2e2e2" stroke-width=".2" opacity=".6" d="M470.97 329.77l-5.98-5.44 2.7.33z"/></g><g class="key-Uganda_0" stroke="#ccc"><circle cx="228" cy="428" r="1.14" fill="#e2e2e2" opacity=".6"/><path stroke-linecap="round" fill="none" stroke-width=".51" opacity=".6" d="M228 428v1l1-1 9 5-3-3 3-1-4 4 1-3 4-7 12-4-8-6 11 3 2 6-9 6 1 2 4 2v-1l-7-1-15 26-7 4-3-3 11-3 7-2-5 1-4 5-2-2 2-5 2-1v-4l-1-18-2 3 2-7 1-2 22-4-3 6-1 3 2-2 4 2 1 1 1 3 3 2 2-8 1-11 2-7 5-2 4-2 3 4 4-7 8-2 4-4 4-4v6l1 2"/><path cx="298" cy="398" r="1.21" fill="#e2e2e2" stroke-width=".2" opacity=".6" d="M296.05 391.39l2.5 7.7-2.18-1.63z"/></g><g class="key-Sudan_0" stroke="#ccc"><circle cx="350" cy="341" r="1.21" fill="#e2e2e2" opacity=".6"/><path stroke-linecap="round" fill="none" stroke-width=".51" opacity=".6" d="M350 341l9 2"/><path cx="359" cy="343" r="1.21" fill="#e2e2e2" stroke-width=".2" opacity=".6" d="M352.64 340.34l7.54 2.92-2.63.66z"/></g><g class="key-Canada_0" stroke="#ccc"><circle cx="471" cy="252" r="1.17" fill="#e2e2e2" opacity=".6"/><path stroke-linecap="round" fill="none" stroke-width=".51" opacity=".6" d="M471 252l3-2 3-6 4 2 4-2 4-6 1-11 2 3 3-1 1 2 3 1 3-3 6 1 4-7-1 12 4-16 1 4 2 2 3-1 1-11 1 4-4 1 2-7 5-3 3-10 1-7 4 3 4 6 1-6-1 7-3-8v-4l1 2 4-4 3-6 1-2 3-15 1-14 4 3 5-1-1 5-1 7 2-14 3 2 2 8 1 2 2-4v-2l-7 1 3-7 3-4v2l1 5"/><path cx="565" cy="153" r="1.21" fill="#e2e2e2" stroke-width=".2" opacity=".6" d="M564.85 146.1l.39 8.09-1.66-2.14z"/></g><g class="key-Iraq_0" stroke="#ccc"><circle cx="351" cy="417" r="1.15" fill="#e2e2e2" opacity=".6"/><path stroke-linecap="round" fill="none" stroke-width=".51" opacity=".6" d="M351 417l2-1-5 3 13 3h6l9-3h11l-2-8 12-13 18-11-2-5-18-19-4-9-12-8-2-11-1-8 4-6 13-3h1l-10-2-3 18-94 94 17-20 31-27-8-25-20-20 32-1 14 27 23 12 10 12-1 5v-10l-8 11-38 9 36-26v-9l13 11 10 3 13-13 13-11 15-6 21-5 7 10h1"/><path cx="468" cy="355" r="1.21" fill="#e2e2e2" stroke-width=".2" opacity=".6" d="M461.2 353.8l8 1.2-2.4 1.2z"/></g><g class="key-Morocco_0" stroke="#ccc"><circle cx="292" cy="432" r="1.15" fill="#e2e2e2" opacity=".6"/><path stroke-linecap="round" fill="none" stroke-width=".51" opacity=".6" d="M292 432l9-6 11 6 3 3-3-8h-5l1 2 3-30 7 25-6-6 3-21v20l1-8h7l1-13 4 10v-4l2-6 3-10-2 11-2-12 6-7 5 6 4-6 6-3 8-11 1 9 8-8-1-7-1 13h9l-2-1v8l8-4-2-9 13 4-8-5 1-3-5 1-5 2h1l-1 3 3-5-1 5-3-4 7-3 5-6 8 2 7-5 4 1 6-2 1-10 3 3"/><path cx="414" cy="343" r="1.21" fill="#e2e2e2" stroke-width=".2" opacity=".6" d="M410.05 337.34l4.8 6.51-2.55-.85z"/></g><g class="key-Nepal_0" stroke="#ccc"><circle cx="217" cy="449" r="1.15" fill="#e2e2e2" opacity=".6"/><path stroke-linecap="round" fill="none" stroke-width=".5" opacity=".6" d="M217 449l1-1-1-1h6l-2 5h4-3l-2 1 3-1 3-1-3 1h0l-2-1h3-1 1l1 1 1-3h3l-8 2 5-4 4 4-2-5 5 4 3-16 2 6v-5l5-10h4l1-1 4 2v-1l5-1 8-4 2 1 5 5-3-3-1-2v-5 4l3-2-3-1-1-5h2v-2l3 3 4-6 7-9 7-6 9-2 5-9 4 2 2-2"/><path cx="310" cy="381" r="1.2" fill="#e2e2e2" stroke-width=".2" opacity=".6" d="M304.34 384.96l6.51-4.81-.85 2.55z"/></g><g class="key-Venezuela_0" stroke="#ccc"><circle cx="413" cy="385" r="1.14" fill="#e2e2e2" opacity=".6"/><path stroke-linecap="round" fill="none" stroke-width=".5" opacity=".6" d="M413 385l1-1 2 3 6-8-1 1-4 7v-5l6-1 1-2 7 3-5 2v4l8-8 5-2-4-9 5-5 1-14-4-9 5-13 5 1-1-15-9 9-1 2 1-19-5 5-9 22 2-5-2-21 1 40 6-6-3 9-1-10-5 1-3 17v-12 9l-3 5-9-8-2-1 11-12-1 1-5 12-3-7 21-22 17 19 13-8 10-10 10-27h-13l14 4 9-2 1 8-8 4"/><path cx="480" cy="311" r="1.2" fill="#e2e2e2" stroke-width=".2" opacity=".6" d="M486.62 309.03l-7.7 2.5 1.62-2.14z"/></g><g class="key-Peru_0" stroke="#ccc"><circle cx="331" cy="425" r="1.15" fill="#e2e2e2" opacity=".6"/><path stroke-linecap="round" fill="none" stroke-width=".5" opacity=".6" d="M331 425l4 1 3 6 5-7 2 5 4-15 2 16-1-12 2 5 4 10v1-4l6-4 4 4-2 4-1-2-2 4-3 4 6-9 2-14 1-7-1-8-8-11 3 12 1-5 5-4 8-6-6-3-17 25h0l2-8v1l4 1 12-5 9-2 2-2 5 3-3 12-1-5 1-4v2l4-2 5 15 6-2 7 1 12-3 8-3 4-10h1l10-3 6-2 3-6 2-2"/><path cx="451" cy="387" r="1.2" fill="#e2e2e2" stroke-width=".2" opacity=".6" d="M445.34 390.96l6.5-4.8-.84 2.54z"/></g><g class="key-Malaysia_0" stroke="#ccc"><circle cx="326" cy="392" r="1.14" fill="#e2e2e2" opacity=".6"/><path stroke-linecap="round" fill="none" stroke-width=".5" opacity=".6" d="M326 392l2 2 1-7 2-2h6l2-3-2-7 1 2 5 3 3-4 14-3h18l8-8-6-11 13-7 6 2 2-9 8-6 5-11-2-15 2-2 3-6 7-12-6-1-10-1 5 5 6 14 3-13h5l5 15 5-8 6-2h6l7-3 7 13 3-1-6-1 4-2h4l-3-1 3-2 5 3 6-5 5 6 4 4 5-1h7-4l5-11 6 1 3-2 1-2"/><path cx="511" cy="293" r="1.2" fill="#e2e2e2" stroke-width=".2" opacity=".6" d="M506.89 298.55l4.65-6.62v2.68z"/></g><g class="key-Saudi-Arabia_0" stroke="#ccc"><circle cx="560" cy="437" r="1.13" fill="#e2e2e2" opacity=".6"/><path stroke-linecap="round" fill="none" stroke-width=".5" opacity=".6" d="M560 437l21-9 23-4 7 14 27 1-8-13-15-11-13-26-27-24 16-27 22-1-10-18-49-13-41-10-12 27 15 18-21-23-8 5-1-4h1l10-19-1 8 3 17-3-4-6 16-2-7 4-1-2-6-10-13 8-3 12-17-7 1 6 12 4-4 12 19 14-9 11-6 6 6 18-3-17-2 15-21h20l2-37-4 3"/><path cx="580" cy="249" r="1.2" fill="#e2e2e2" stroke-width=".2" opacity=".6" d="M586.16 245.88l-7.12 3.84 1.2-2.4z"/></g><g class="key-Uzbekistan_0" stroke="#ccc"><circle cx="385" cy="255" r="1.18" fill="#e2e2e2" opacity=".6"/><path stroke-linecap="round" fill="none" stroke-width=".5" opacity=".6" d="M385 255l-4 40-19 45 14-7-13-5h-1l-1 10 2-1 1-2 5 21-2-3 2 3 1 6 5-2 5-3 4-6-2-2 8-1 5 1 5 3 9-4 5-9 3-4 7-2"/><path cx="424" cy="333" r="1.2" fill="#e2e2e2" stroke-width=".2" opacity=".6" d="M417.13 333.72l8.02-1.05-1.97 1.8z"/></g><g class="key-Ghana_0" stroke="#ccc"><circle cx="331" cy="429" r="1.14" fill="#e2e2e2" opacity=".6"/><path stroke-linecap="round" fill="none" stroke-width=".49" opacity=".6" d="M331 429l-2 6 3 2 2-1-6-3h-3l-2-5 1-1 4 5 10-17-2-1-11 1 7-2 5-3-11 5-11 1 8 13-1 2-4 2v-2l-9-10-16 8-3-1 6-5 4 2 1-6 1-1 5-2-4 1v9l3 4-2-5 1-2 2-3 1 4-1 6 6-1-2-12 8 1v-2l-7 3 4-16 4 7h4v-6l-2-9 3 11 4-16-1 5 4-5 21 12 9-9-3 7"/><path cx="359" cy="400" r="1.19" fill="#e2e2e2" stroke-width=".2" opacity=".6" d="M362.78 394.2l-4.25 6.9-.15-2.66z"/></g><g class="key-Mozambique_0" stroke="#ccc"><circle cx="192" cy="461" r="1.14" fill="#e2e2e2" opacity=".6"/><path stroke-linecap="round" fill="none" stroke-width=".49" opacity=".6" d="M192 461l6-2 1 4 1-8h0v-3l6-3 4 1 3-5h-3l4-2 2 3 2-5 3 1v-1l2 1-2 1-2-4 1-3v-2l1-1-6 3-12-4 4 1-6 1 1-2-10-13-3-1 6 2-2 1 1 1-16 2 2 7 6 4-11-20 18-1 11-1 5 1h-3l5 4 5 4 10-3 4 5h6l4-7 4 5 1 1 2-7-1 7-3-7-1-3 3-3h10"/><path cx="255" cy="410" r="1.19" fill="#e2e2e2" stroke-width=".2" opacity=".6" d="M248.19 408.81l8 1.19-2.38 1.19z"/></g><g class="key-Australia_0" stroke="#ccc"><circle cx="472" cy="240" r="1.15" fill="#e2e2e2" opacity=".6"/><path stroke-linecap="round" fill="none" stroke-width=".48" opacity=".6" d="M472 240l4-1 5-1 2 4v1h4l2 2 4-2 5-5 1-4v-2l3-13 3 11-3 18-1-12 2 3v5l3-1 2-2 2-3 3-2-3-8 3 7 2 1 2-11v-7l5-7 5 1 2-9-2-5-1 1 2-9 3 6 3 5 4 5 3 1 3-5 3 5 3-14v2l3-11 1 8h3l2-7 2-8 2-15 2-2v8l-1-7 3-5 1-7-1-9v4"/><path cx="567" cy="144" r="1.18" fill="#e2e2e2" stroke-width=".2" opacity=".6" d="M568.18 137.18l-1.18 8-1.18-2.36z"/></g><g class="key-Taiwan_0" stroke="#ccc"><circle cx="326" cy="419" r="1.15" fill="#e2e2e2" opacity=".6"/><path stroke-linecap="round" fill="none" stroke-width=".48" opacity=".6" d="M326 419l5 7 7-6 8-11 4 6 6-1 6-20 6 6 6-7 6-16 9 7 10-11 8-3-6-5 4-15 12 5 8-9 9-17 3-8 2 15 5-11 3-9 7-10 8-3 2-20 12-7 8-7 3-4 7-11 5-21 6-26 5-1 5-13 5-7 4-8 5 2 5 8 4 7 3-2 4-15-2 16 3-3 1 8 3-7 2-1 3 3 3 4-4 1h0l7 3 1 2 1 1 3-2"/><path cx="566" cy="203" r="1.18" fill="#e2e2e2" stroke-width=".2" opacity=".6" d="M559.67 205.8l7.31-3.46-1.3 2.3z"/></g><g class="key-Madagascar_0" stroke="#ccc"><circle cx="271" cy="430" r="1.13" fill="#e2e2e2" opacity=".6"/><path stroke-linecap="round" fill="none" stroke-width=".48" opacity=".6" d="M271 430h2-1v-3l-4 5 2-7h6l2 1 3 2 1-1h-3l-6 3-4 1-3-4-2-2-1 8-6-9v1l-2-2-4 1 4 8 4-1 5-1 4 1-2 1-5 1-4 1-5-1h-3l-4 2-5 2h0l-1 2-1-2 2 2 1-2 3 6 2 1 3 2 4 3-9 1 6-2v1l1-2-38-5-13 2h-2l-7 5 22 1 56 1-9 2-5-1"/><path cx="255" cy="452" r="1.18" fill="#e2e2e2" stroke-width=".2" opacity=".6" d="M261.45 454.5l-7.6-2.73 2.54-.7z"/></g><g class="key-Sri-Lanka_0" stroke="#ccc"><circle cx="331" cy="406" r="1.15" fill="#e2e2e2" opacity=".6"/><path stroke-linecap="round" fill="none" stroke-width=".48" opacity=".6" d="M331 406l4-7-5-5 1 4 1 3v9-12l5-1h1l3-5-1 8 1-4 4 9-1 3-5-1-7 3-4-1-3-4-15-5h-7l9 3v1l2 2 6-3 9 4 5-3 2 9 1-5 2-3 2 3 1-1 5 9 6-9 5-5 4 3 6 3 3 3 4-5-2-3v1l-1 2 2 3 5-5 1 6 3-4 7-4 7-2 5 3 11-2 8 1 7-4 5-7h6"/><path cx="439" cy="391" r="1.18" fill="#e2e2e2" stroke-width=".2" opacity=".6" d="M432.18 389.82l8 1.18-2.36 1.18z"/></g><g class="key-Romania_0" stroke="#ccc"><circle cx="284" cy="376" r="1.17" fill="#e2e2e2" opacity=".6"/><path stroke-linecap="round" fill="none" stroke-width=".48" opacity=".6" d="M284 376l7-11 7 4 4-10 8-2 4 2 8-9 4-1 4-2 5-8 9-9 8-13 7-4 9 4 7-14 10-18 5-9 5-1 6-3 2 15-2 4 4 6 3-4 4-12 2 7 2 7 1 3 2 2-5 9-3-47-8 18-7 28 4 1 6 6 4-14 2-3v11l2-10 4 2 2-12 7-8 4-9 4-8 8 15 2-19 12-7 12-2 14-2v1l4 8 4 3 8-1h3"/><path cx="502" cy="260" r="1.18" fill="#e2e2e2" stroke-width=".2" opacity=".6" d="M495.18 258.82l8 1.18-2.36 1.18z"/></g><g class="key-Cote-d__0027Ivoire_0" stroke="#ccc"><circle cx="298" cy="438" r="1.13" fill="#e2e2e2" opacity=".6"/><path stroke-linecap="round" fill="none" stroke-width=".48" opacity=".6" d="M298 438l1-5h10l12-6-13 1 6-7 1 5 8-19 6 4 5-7-5 2v-4l4 9 4-3-5-3 11-4 7-12v-1l-4-3-23-4-1-7-2 5v1l6-7h8l-2 4-6 21-2 1 5-5-10-1-1 3h1l-3 10 2-9 5-6 5-8-2-5 1 8-2-4-12 1 9-5h1l-7-4-4 3-2-4 3 7v-1l9 13 6-8 7 4-5-16 11 1 5-6"/><path cx="346" cy="367" r="1.18" fill="#e2e2e2" stroke-width=".2" opacity=".6" d="M340.73 371.49l6.02-5.4-.6 2.57z"/></g><g class="key-Cameroon_0" stroke="#ccc"><circle cx="269" cy="437" r="1.13" fill="#e2e2e2" opacity=".6"/><path stroke-linecap="round" fill="none" stroke-width=".48" opacity=".6" d="M269 437l-2-2 4-1 1 3 3-3 1-6-10-7 4-6 4-9 2-2 4-5 6-1 1 4v-6l7-3-4-2 9 9 13 3 1-6-3-3 8 6 7 2 9 1 8 2 2-2-10 4-6 2h-5l-1-2-1 1-4 4h-5l-4 2v-2l3 1 3 2h0l2-5 2-6v-4l-1 9v-13l3-5h0l-1-3 4-2v1l-2-5 1-1 1-1 2-3 2-2 2-2"/><path cx="329" cy="373" r="1.18" fill="#e2e2e2" stroke-width=".2" opacity=".6" d="M323.34 377l6.5-4.83-.84 2.5z"/></g><g class="key-Angola_0" stroke="#ccc"><circle cx="380" cy="434" r="1.13" fill="#e2e2e2" opacity=".6"/><path stroke-linecap="round" fill="none" stroke-width=".48" opacity=".6" d="M380 434l3-3-2 2 5-1h0l-6 1-7-5-2-19-7-9-3-3 3 3-6 4-6 8 1 2-3 3 5 1-17-1 6 1-5-6 3-4 1-6-22 7 6 3-10 9 4 8-3-5 27-6-12 3 10-2-7 1-18-3 9-1 9-2-5-7h12l16-5 17-1 4-4 11-3-12-2 23-1 17-7 1-1 3-2"/><path cx="423" cy="381" r="1.18" fill="#e2e2e2" stroke-width=".2" opacity=".6" d="M416.67 383.8l7.3-3.45-1.3 2.28z"/></g><g class="key-Burkina-Faso_0" stroke="#ccc"><circle cx="213" cy="450" r="1.13" fill="#e2e2e2" opacity=".6"/><path stroke-linecap="round" fill="none" stroke-width=".47" opacity=".6" d="M213 450l6 2-3 5 4-12-1-1h0l6 2 2-3 1 3-4 6-3-2 13 5-6 4 4-9-1-1-1-2 4 9 7-12 4-6-3 8 3-7-3-6-7-2-1 7 6-26 4-12-3 16 3-10-1 4-3-11 4 7-2-6 1-3-8-10 2 3 7 1 2 2 6-3 3-1-2-3 3 2 2-16 4-5 1 1 4 10 1-3-2 4 1-13v3l5-10 4 5 3-3 1 1"/><path cx="280" cy="362" r="1.17" fill="#e2e2e2" stroke-width=".2" opacity=".6" d="M276 356.34l4.83 6.49-2.48-.83z"/></g><g class="key-Niger_0" stroke="#ccc"><circle cx="278" cy="445" r="1.12" fill="#e2e2e2" opacity=".6"/><path stroke-linecap="round" fill="none" stroke-width=".47" opacity=".6" d="M278 445l7-3 6-2h-4l2-3-4-2v-5l-1-3-10 4 2 5 1-1-4 6-15 1 7-4-15-1 3-12 6-10v8l13 2 1-9-8 1v5l-2-4-24 3 5 6-3 4-2-5-2 7-4-4 1-8-2 6-4-1h-3l-2 7 3-13-2-6-3-11 6 5-2-4-6-1 3-4 1-7v-7l-5-1 1-3 1 4v-2l4-11-2 4h3l1-3 7 4 1 7"/><path cx="234" cy="384" r="1.17" fill="#e2e2e2" stroke-width=".2" opacity=".6" d="M234.19 377.07l-.02 8.09-1.5-2.15z"/></g><g class="key-Mali_0" stroke="#ccc"><circle cx="196" cy="430" r="1.13" fill="#e2e2e2" opacity=".6"/><path stroke-linecap="round" fill="none" stroke-width=".47" opacity=".6" d="M196 430l-2-2 3-24-16 11 4-14v8l1 1h9v-2l5-9v12l-13 8 1 4-6-15 7-20 11 7 3 1-4 10 8 1h-5l5 3 6-4-4 12-2 6 17-17 6-6-5 5-9-28 6 4v-8l-1-1 6 14 12 1-4-13 8 16 3 4 4-12h4v3h-5l10-11 1-2-1-1 3-2v1l7-5 2-1 3-5 3-3 3 6 2-4-4 5-2-9"/><path cx="276" cy="355" r="1.17" fill="#e2e2e2" stroke-width=".2" opacity=".6" d="M276.34 361.92l-.6-8.06 1.65 2.03z"/></g><g class="key-Netherlands_0" stroke="#ccc"><circle cx="457" cy="210" r="1.15" fill="#e2e2e2" opacity=".6"/><path stroke-linecap="round" fill="none" stroke-width=".47" opacity=".6" d="M457 210l3-4 3-3h5l5 5 2-9 4-9 6 7 4 1h3l4 3 3 1h5l5-3-2 21 3-9 1-12 3-1h0l2-5h-2l-3-3v6l1-9v1h3v-5l3-1 4 11 3-26 3 6 1 6 1-30 3 29 3-22 3-7 6 5 7-24 4 21 6 4 1 6v-1l-4 34 2-8 1-16 4 19 6 2 3-3-4 14v4l2 7v-5l2-3"/><path cx="575" cy="205" r="1.17" fill="#e2e2e2" stroke-width=".2" opacity=".6" d="M570.24 210.04l5.4-6.01-.32 2.59z"/></g><g class="key-Kazakhstan_0" stroke="#ccc"><circle cx="453" cy="255" r="1.17" fill="#e2e2e2" opacity=".6"/><path stroke-linecap="round" fill="none" stroke-width=".47" opacity=".6" d="M453 255l-1 40 5 22-28-3-18 1-11 16v11l-4 14-6 4 1-6 12-20 6-16 6-13 9-11 10-5 12-36 15-9 11-18 12-10-5 5 15 12 15-40 1-2 3-8"/><path cx="513" cy="183" r="1.17" fill="#e2e2e2" stroke-width=".2" opacity=".6" d="M509.5 188.99l3.9-7.08.28 2.6z"/></g><g class="key-Malawi_0" stroke="#ccc"><circle cx="236" cy="415" r="1.13" fill="#e2e2e2" opacity=".6"/><path stroke-linecap="round" fill="none" stroke-width=".47" opacity=".6" d="M236 415l-1 3v-2l-3-5 11-8 9 2-1 13v-7l4 2 3-3 8-12 5 5-5 5 3 2 1 5-1 2-1-3-1-1h-7v8l3-8 2 3 4 15 5 4 5 2-10-3-10 2-10 8 1 4-5-1 4 1-10 4 6-2 8 3v-9l-3 4 7-2-15-3h-3l-3-2-9-7h13l8 4 1-2 1-3 13-5 1-8-11-4-2 4 4-4-5 4-10-8"/><path cx="240" cy="412" r="1.17" fill="#e2e2e2" stroke-width=".2" opacity=".6" d="M244.6 417.18l-5.51-5.9 2.55.54z"/></g><g class="key-Guatemala_0" stroke="#ccc"><circle cx="323" cy="436" r="1.13" fill="#e2e2e2" opacity=".6"/><path stroke-linecap="round" fill="none" stroke-width=".46" opacity=".6" d="M323 436l1-4 3-6 2-3 1 2 2 1 1 1 5-2 3-2 4-2 1 1h2l4-1h-1v-3l3 4 8-5-1-4 1-2 1-1-2-10-4 14-1 8-1 4-3-8 3-11-3 10 2-3 2-6 1-3 4 4v4l3 1 3-2 4 5 1-2 3 2 3-4 1-3 2-6 2-9 2-10 1-4 1-1 1-7 4-3 5-1 2-1 2 7 3-2 3-3 1 6h1"/><path cx="409" cy="376" r="1.16" fill="#e2e2e2" stroke-width=".2" opacity=".6" d="M402.16 374.84l8 1.16-2.32 1.16z"/></g><g class="key-Ecuador_0" stroke="#ccc"><circle cx="331" cy="399" r="1.13" fill="#e2e2e2" opacity=".6"/><path stroke-linecap="round" fill="none" stroke-width=".46" opacity=".6" d="M331 399l2-1-1-4 4 1-1-2 1-1 3-3 2 3-1-1 4-1 1 1 3-5 9 2 17-2-1-8 6-8 8 4h1l6-5 3-2-1-17-1-6-6-3 1 7v3l-6-18-6-5 2 10 1-8h4v-1l1-6-4 13 2 3v-21h1l1-8-2 9-3-5 6 5 1 4 7-15 5 4 7-7 9-3 6-1 3-7 7-11-2 10 4-4 8-5 4 5 3-8"/><path cx="449" cy="281" r="1.16" fill="#e2e2e2" stroke-width=".2" opacity=".6" d="M445.51 287l3.9-7.09.27 2.59z"/></g><g class="key-Cambodia_0" stroke="#ccc"><circle cx="292" cy="459" r="1.14" fill="#e2e2e2" opacity=".6"/><path stroke-linecap="round" fill="none" stroke-width=".46" opacity=".6" d="M292 459l-6-4-6 5-20 1-5 2-1 8 1 4-11 2 3 5h-10l-4-2h0l-3-9 1-5 1 1 1-3 1 1 13-3 8-1 1-3-2-1 4-1 3-7-8-7 4 2 5 1h-6 4l7-4h4l5-4 6-3 6-2h6l9-4 5-4h6l8 3h0l2 4 5-2 5 2 6-7"/><path cx="340" cy="424" r="1.16" fill="#e2e2e2" stroke-width=".2" opacity=".6" d="M334.67 428.44l6.09-5.32-.63 2.52z"/></g><g class="key-Zambia_0" stroke="#ccc"><circle cx="326" cy="424" r="1.12" fill="#e2e2e2" opacity=".6"/><path stroke-linecap="round" fill="none" stroke-width=".46" opacity=".6" d="M326 424l-4 4 3-1 11 4 3 2 17-18 6 2 2-1 10-7h-18l-21 2 4 1 6 1-7-3-16-2 3-9-20 7-12 8 4 7-11 6 3-3-3 3 1 2 12 4 7 7-15-5 4 9v-5l-20-3-2-13 1 18h-19l-5-2-2 5 2-7 8-1-5 1-5-4h13l5 4 6-7 3-1 5-7 6-1 13 8 25 1 1-5 9-10 9-6 9 1h3l3-1"/><path cx="358" cy="409" r="1.16" fill="#e2e2e2" stroke-width=".2" opacity=".6" d="M351.14 410.06l7.96-1.43-1.83 1.84z"/></g><g class="key-Senegal_0" stroke="#ccc"><circle cx="315" cy="391" r="1.12" fill="#e2e2e2" opacity=".6"/><path stroke-linecap="round" fill="none" stroke-width=".46" opacity=".6" d="M315 391l-2-5-1-49v57l-3-4 1 9-3 4-6-1-12-9 7 4h-3l1-6-8 6h6l1 9 3-7-1 10-4 5 4-5-7-16-1-52 11 13 3 26 3-14 6-14 3 17-1 26v-1l-4 12v-9l-4-35-1-5-5-18-1 15-2 5 3 8v-10l2-1 1 3v1l1-8-2 2 2 3h2v2l3 3-1-26 5-3v-4 8h3"/><path cx="314" cy="337" r="1.16" fill="#e2e2e2" stroke-width=".2" opacity=".6" d="M307.16 335.84l8 1.16-2.32 1.16z"/></g><g class="key-Zimbabwe_0" stroke="#ccc"><circle cx="311" cy="417" r="1.13" fill="#e2e2e2" opacity=".6"/><path stroke-linecap="round" fill="none" stroke-width=".46" opacity=".6" d="M311 417l-3-1-1-11-4 3 5 2h-6l-1-7-8 1 16-1 14-15 5-7 7-9 1-1 5 8-5 8-3-6-12 2 6 4 1-5 2-1 13 2 2 9h10l-8 10 5-6v7l-2-2 11-13 7 2 3 2 11 1-11 5h2l7 2-5-2 9-4-14-1-11-3-9-4-10-1-7-4h-19l-15-2-8 2-18-2h-11l4-2-27-7 45-2h-3l-1-2h9l10 7"/><path cx="299" cy="373" r="1.16" fill="#e2e2e2" stroke-width=".2" opacity=".6" d="M294.06 368.13l5.89 5.53-2.56-.38z"/></g><g class="key-Chad_0" stroke="#ccc"><circle cx="308" cy="374" r="1.12" fill="#e2e2e2" opacity=".6"/><path stroke-linecap="round" fill="none" stroke-width=".45" opacity=".6" d="M308 374l9-6-7 4-2 3 3-3-3 14-1 2-1-4 3 5 3 3 1 9-7 9-10 3h6l3 5-2 5-3-7v3l-39-4-7 2-12 2 3 6 23-1 4-10 3 4-1-2-2 3 5-2 1-8-1 8 2-22-2-7-3 8-1-1v-17l-5-1 7-17h-4v-3l-7 6v-4h-22l11 8 33-1 15 4-9 6 1 14-2-4-11 7 19-1-7-1 8 9 6-3"/><path cx="306" cy="397" r="1.15" fill="#e2e2e2" stroke-width=".2" opacity=".6" d="M299.36 399.03l7.67-2.55-1.55 2.07z"/></g><g class="key-Rwanda_0" stroke="#ccc"><circle cx="241" cy="484" r="1.12" fill="#e2e2e2" opacity=".6"/><path stroke-linecap="round" fill="none" stroke-width=".45" opacity=".6" d="M241 484l8-2-12 1-11-2h6l3-9 3 4 7 2 3-2-2 1 1 1h1l-1 2-2-9 11-1 3-1-3 1 9 1h-5l9-1h-5 2-5l1-5v2l-8 2-2 3 4-1-4 1-8-5h8l-2-10-61-2 18 6 9 10 9 4v-2l-4-1 5-1 2-1 8-3-1-3 6-4h7l7-7h-4l9-1 6-14 3 4 7-1 4 6 3 7"/><path cx="283" cy="454" r="1.15" fill="#e2e2e2" stroke-width=".2" opacity=".6" d="M281.36 447.25l2.1 7.8-1.97-1.65z"/></g><g class="key-Greece_0" stroke="#ccc"><circle cx="392" cy="299" r="1.14" fill="#e2e2e2" opacity=".6"/><path stroke-linecap="round" fill="none" stroke-width=".45" opacity=".6" d="M392 299l-1-2 10-3 6-4 8-2 6-6 4-2 5-15 9-2 7-15 6-24 8 12 6-33-8 19 3-6h5l1-5h5l1-1-1 5v-4l-3-8-1-9 2-13 2-6 4 18-1-9 6-9 4-9 2 7 5-6 2-12v14l4-13h3l3 1 6-4 4-2h1l2 15 4-1 6-12h1l5-4-4-1 7 2 3-3 3-7-2-4-6 4-8-4-3 13 1 5"/><path cx="524" cy="154" r="1.15" fill="#e2e2e2" stroke-width=".2" opacity=".6" d="M523.79 147.06l.44 8.07-1.58-2.03z"/></g><g class="key-Belgium_0" stroke="#ccc"><circle cx="451" cy="231" r="1.14" fill="#e2e2e2" opacity=".6"/><path stroke-linecap="round" fill="none" stroke-width=".45" opacity=".6" d="M451 231l4-2 2-3 5-10 3 5 2-10 3-6 3 3 5-7 5 6 3-24 5 5 6-6 3-8-2 24 5 5 2 2h3l3-9 3-16-6 2-2-19-3-9v-5l-1 5 5-12 3 10 6-31 5 21 3-1 2-11 3-3v-2l3 2h3v-4l5-4 2 3 4 1 5-6v-8l2-2-3 9 1 3 1-6 2-1 4-3 1 6v8l3-5 3-16 2 15 1-1"/><path cx="568" cy="116" r="1.15" fill="#e2e2e2" stroke-width=".2" opacity=".6" d="M562.34 120.03l6.47-4.84-.81 2.43z"/></g><g class="key-Tunisia_0" stroke="#ccc"><circle cx="293" cy="405" r="1.13" fill="#e2e2e2" opacity=".6"/><path stroke-linecap="round" fill="none" stroke-width=".45" opacity=".6" d="M293 405l-1-14 7-15-1 1 1-19 2 5-2-5 6-3 1 5 21-3 5 1 12-8-1-7 8-5 2-10 2 23 2 5 3 2 6-13 6-12 3 3-1-17 3-8 2-1 3 5-3-12 4 9 2-8 1-4 4-1 4 21 6-13 4 1 7-4 5 8 11-5-1-14-1-10 2-23-1 17 1 2-2 16 2 5 2-7 1 16 4-20 5 15 4-23 2 19 3 2-3-3 1-9-1-2"/><path cx="445" cy="288" r="1.15" fill="#e2e2e2" stroke-width=".2" opacity=".6" d="M447.04 294.64l-2.55-7.67 2.05 1.54z"/></g><g class="key-Guinea_0" stroke="#ccc"><circle cx="308" cy="416" r="1.13" fill="#e2e2e2" opacity=".6"/><path stroke-linecap="round" fill="none" stroke-width=".45" opacity=".6" d="M308 416l1-3 7-8-10 2 2-5-2-8-1-5-1-1-3 3-5-6 4 3 1 5 1-6 3 4 3-2 6 2-4-5 5-3h-1l3 4-4-3v5l-1 3h-1l2 4-1 5v4l2 6 1-3-3-3-1-7-6-11-1-7 1 16 1-8 5-4-9 11-5-1-7-7-5-5-7 7-6-4-9-9-5-6-3 2-1-3 2 2 6 2h-7l10-8 2-6 1 2h3"/><path cx="271" cy="361" r="1.15" fill="#e2e2e2" stroke-width=".2" opacity=".6" d="M264.15 359.85l8 1.15-2.3 1.15z"/></g><g class="key-Portugal_0" stroke="#ccc"><circle cx="375" cy="376" r="1.14" fill="#e2e2e2" opacity=".6"/><path stroke-linecap="round" fill="none" stroke-width=".45" opacity=".6" d="M375 376l6-1 5-2 2-5 5-48 2 11 6-12 13 4 4-8 5 6 6-2 6-9 7 2-2-11h-6l3-4 4-10 1 8 3 1 1 7-3-3v-8h-1l-3 1 2-10 9-5 6-22 7-19 6-3 6-23 4 5 4 3v-7l5-4 3 3 3-11 6 9 5-4 4-18 3-2 1 2 1-4v1l1 5 3-9 4-1 4-8 1-10 1 3 1 6-2 1 1-6 2 4"/><path cx="530" cy="169" r="1.15" fill="#e2e2e2" stroke-width=".2" opacity=".6" d="M527.96 162.36l2.55 7.67-2.05-1.54z"/></g><g class="key-Czech-Republic_0" stroke="#ccc"><circle cx="495" cy="231" r="1.15" fill="#e2e2e2" opacity=".6"/><path stroke-linecap="round" fill="none" stroke-width=".45" opacity=".6" d="M495 231l3 32 3-13 5-9-2 1v-14 6l1 6 5-7 1-3 2-12 4 9 2-28 5-23 7 8v-8l-1 3v-3l4 11 1-10h3"/><path cx="538" cy="177" r="1.15" fill="#e2e2e2" stroke-width=".2" opacity=".6" d="M531.15 175.85l8 1.15-2.3 1.15z"/></g><g class="key-Bolivia_0" stroke="#ccc"><circle cx="281" cy="427" r="1.12" fill="#e2e2e2" opacity=".6"/><path stroke-linecap="round" fill="none" stroke-width=".45" opacity=".6" d="M281 427l1 2 3-4 5-2 7 2 2-4 3-1-12-2 2-7 2-5 3 4h-1l4-3 10-8-4-3 4 2 2-1-4 2 3-1 1-12 2 12-1 6-3-2 4 15 3-3-4 8 1-3-7-5 4-1 4 6 3-3 2-5 4 4 6-3 7-8 6-7h0l1 13v-1 2l2-1 2-4 4-5 5 1 4-2 7-4 3-5 7-3v11l8-6 8-7 4-4h3"/><path cx="401" cy="382" r="1.15" fill="#e2e2e2" stroke-width=".2" opacity=".6" d="M394.15 380.85l8 1.15-2.3 1.15z"/></g><g class="key-Haiti_0" stroke="#ccc"><circle cx="258" cy="449" r="1.13" fill="#e2e2e2" opacity=".6"/><path stroke-linecap="round" fill="none" stroke-width=".45" opacity=".6" d="M258 449l6-1-1 1h-1l-2-1-1 1-3-1 1 1 1-1 3 1v-1l-1-1 4 1 4-1v-3l12-7v2l1-4 3-1 4 1-8-7-4 1h0l2-3 1-1v-3l-3 18-1 4-6 3-2-5-1 1-4-2-8 5-8-5h20l11-4 3-16v-4l7-8 9-2-4 4-2 2-6 10-2-5 2 15v-10l4-2-4-11 4-3-8-10 3-9-1 1 3 4"/><path cx="285" cy="393" r="1.15" fill="#e2e2e2" stroke-width=".2" opacity=".6" d="M281.8 386.83l3.89 7.09-2.3-1.15z"/></g><g class="key-Dominican-Republic_0" stroke="#ccc"><circle cx="321" cy="427" r="1.12" fill="#e2e2e2" opacity=".6"/><path stroke-linecap="round" fill="none" stroke-width=".45" opacity=".6" d="M321 427l16-6 2 5 1-2-12 2 3-22v-4h-3l5-2 11-2 6-1 5-2h7l6-1 6 4-4-6 3-6-4 4 2-8 8-7 3-2-2 2 3 12-4-2-1 4 1-15 2-4 4 4v-10l-6-10 1 13 8-4 6-9 3-7 2-4 4 4 7-6 6-5 4-7 2-6 2 5 3 2-3 3 2-10 5 1 7-5 6-8v-4l3 1 6-9 1-8 2 4 2 1"/><path cx="458" cy="294" r="1.15" fill="#e2e2e2" stroke-width=".2" opacity=".6" d="M452.38 289.9l6.65 4.61h-2.57z"/></g><g class="key-Hungary_0" stroke="#ccc"><circle cx="394" cy="249" r="1.15" fill="#e2e2e2" opacity=".6"/><path stroke-linecap="round" fill="none" stroke-width=".45" opacity=".6" d="M394 249h4l4 5 4-10v-10l2-6 9 2 8 6 8 3 8-18 7-1 2-14 1-7-1-10 1 18-1-18 3-6 6-23 3 11 3-6v15l-9 26 2-22 4 3 5 12 4 7v2l2 3 3-7 3 5 3-26 9 13 5-16v17l2-12v-11l4-2 3-1 3 1 1 6h3l3 2 1 8 4-12"/><path cx="520" cy="176" r="1.15" fill="#e2e2e2" stroke-width=".2" opacity=".6" d="M516.75 182.14l3.61-7.23.36 2.54z"/></g><g class="key-Serbia_0" stroke="#ccc"><circle cx="444" cy="303" r="1.15" fill="#e2e2e2" opacity=".6"/><path stroke-linecap="round" fill="none" stroke-width=".45" opacity=".6" d="M444 303l4 8 8-7 1 5h-1l5 11 3 1 5-2"/><path cx="469" cy="319" r="1.15" fill="#e2e2e2" stroke-width=".2" opacity=".6" d="M462.21 320.48l7.85-1.9-1.7 1.91z"/></g><g class="key-Benin_0" stroke="#ccc"><circle cx="286" cy="434" r="1.12" fill="#e2e2e2" opacity=".6"/><path stroke-linecap="round" fill="none" stroke-width=".45" opacity=".6" d="M286 434l-5-12h2l3 6 4-8v5l1-11 5 1 1-3 6-1v15l3-25v2l-15 4 2-10h-6 2l3 3 8 8 6-6-25-14v15l7-10 4 4-11 17-9 9v-2l-8-2v-8l1 4-1 2 1-4-12 9 6-7 4 1 4 1 2-4 5-2 6-4 3-14 5-12 3 4 4 8 1-3-1 17 1-9 1-8v7l-2-5-1 2 2-4 3 1"/><path cx="299" cy="391" r="1.15" fill="#e2e2e2" stroke-width=".2" opacity=".6" d="M292.86 387.75l7.23 3.61-2.54.36z"/></g><g class="key-Sweden_0" stroke="#ccc"><circle cx="473" cy="216" r="1.14" fill="#e2e2e2" opacity=".6"/><path stroke-linecap="round" fill="none" stroke-width=".45" opacity=".6" d="M473 216l2 6 4 6 5-11 3 8v8l3-1 2 1 4 3 5-9v1l1 5 3 1 1-4 3-8 1-6-4-2v-3l3 1v-5 5h1l5-4 1 5 4-9 3 9 3-2h4l1 2h-2l-1-3-3-13 5 8 6-18 1 23 4-13 4 13 6-2 4 4-1-4v-1l1 3 2-4-3 3 5 5h7v-9l-5-4 4-6 3-6 1-5v10"/><path cx="569" cy="194" r="1.15" fill="#e2e2e2" stroke-width=".2" opacity=".6" d="M570.15 187.15l-1.15 8-1.15-2.3z"/></g><g class="key-Azerbaijan_0" stroke="#ccc"><circle cx="415" cy="255" r="1.14" fill="#e2e2e2" opacity=".6"/><path stroke-linecap="round" fill="none" stroke-width=".45" opacity=".6" d="M415 255l15 40-32 122-17 7-28-5-34 2-3-11-1 22-5-4 6-7h15l8-4-1-5 5-13 5-9h30l32 2 26 3 23-3-5-9 18-10 16-2-2-1-2-3"/><path cx="484" cy="367" r="1.15" fill="#e2e2e2" stroke-width=".2" opacity=".6" d="M486.85 373.34l-3.49-7.3 2.23 1.28z"/></g><g class="key-Belarus_0" stroke="#ccc"><circle cx="468" cy="255" r="1.15" fill="#e2e2e2" opacity=".6"/><path stroke-linecap="round" fill="none" stroke-width=".44" opacity=".6" d="M468 255l-1 40-15-9-20-7-10-5-3 3 3-8v-1l1-4v-2l2 14 3-19 2 5 3 21 6-4 8-18 9-23 8-15 11-2-2 20 6-32 14-25 6 8v3"/><path cx="499" cy="195" r="1.14" fill="#e2e2e2" stroke-width=".2" opacity=".6" d="M500.14 188.14l-1.14 8-1.14-2.28z"/></g><g class="key-Austria_0" stroke="#ccc"><circle cx="442" cy="239" r="1.14" fill="#e2e2e2" opacity=".6"/><path stroke-linecap="round" fill="none" stroke-width=".44" opacity=".6" d="M442 239l2-7 3-11 4-6 2 2h6l3-3 4-1 5-5 3-7 5-4 5-8 2 10v-1l2-20 4 3v-5l4-11v-13l-1-5 1-7 2 1v1l1-7 4-1 4 1 5 9 5-12 5-2 4-7 3-5 2 5 4 1 4 15 2-8 3-2 5 1 2-2 3-4-1-4 1 15v8l2-11v8l4-24 4-2 2 3-1-15 1-6 4 10 3-4 2-6"/><path cx="575" cy="96" r="1.14" fill="#e2e2e2" stroke-width=".2" opacity=".6" d="M571.75 102.15l3.61-7.23.36 2.52z"/></g><g class="key-United-Arab-Emirates_0" stroke="#ccc"><circle cx="714" cy="268" r="1.11" fill="#e2e2e2" opacity=".6"/><path stroke-linecap="round" fill="none" stroke-width=".44" opacity=".6" d="M714 268l1 18-7 23-1-10-4 42v-26l2-62 1 46-18-16 6-18 9-107-12 2-13 12-8 49-1-23-11 28-23 25-3-23-8 19 6-38 12 27-4 6h-1l-20 8v-17l5 12 3 8 2 9-12 9 6-5 18 14-9 18-2-9 1-8-1 24v3l1 3-6-3-4-14-24 1-5 4 9-9v9h6"/><path cx="605" cy="299" r="1.14" fill="#e2e2e2" stroke-width=".2" opacity=".6" d="M598.14 297.86l8 1.14-2.28 1.14z"/></g><g class="key-Honduras_0" stroke="#ccc"><circle cx="312" cy="436" r="1.12" fill="#e2e2e2" opacity=".6"/><path stroke-linecap="round" fill="none" stroke-width=".44" opacity=".6" d="M312 436l2-3-1-3 3 1 4-4-1-4h1l3-7-4 1-1 1h-2 4l4-7-7-1-1-2 12-9 10 4 3 11-2 4-1-5-4-10-2 1-4 1 2-6 1-8 2-11 2-4 3-5v-1l-2 7 3 1 1-12 1 3v2l4-8v-2l2-11h1l-5-2 4 1 1-9h1l2 10 3-1 3-4 4-7 4-5h0v6h3l4-4 1 2-1-3"/><path cx="372" cy="334" r="1.14" fill="#e2e2e2" stroke-width=".2" opacity=".6" d="M373.09 340.87l-1.45-7.95 1.8 1.8z"/></g><g class="key-Israel_0" stroke="#ccc"><circle cx="440" cy="324" r="1.12" fill="#e2e2e2" opacity=".6"/><path stroke-linecap="round" fill="none" stroke-width=".44" opacity=".6" d="M440 324v-9l6 2 5 7-1-16 6-18-4-10 1-9 10-13 7 9 6-13 6 3 4-17 1 13-1-6-1-3-2 2h1l2 9-1 3 3-9 3-13 3 2-1-12 1-2 4 2 5-1 3-12-3 27 6-2 7-21 4-2 1 13 4 12 3-28 4-8 2 4 3 1 2 4 6-16v-21l-1-8-5 3-2-20h-2l2-6 2 10-1-3v4l1 4 1-12 2-3 2-3"/><path cx="544" cy="142" r="1.14" fill="#e2e2e2" stroke-width=".2" opacity=".6" d="M539.25 147.08l5.38-6.03-.31 2.53z"/></g><g class="key-Switzerland_0" stroke="#ccc"><circle cx="505" cy="185" r="1.13" fill="#e2e2e2" opacity=".6"/><path stroke-linecap="round" fill="none" stroke-width=".44" opacity=".6" d="M505 185l2-11 3 4 3-8 2 7 2-11 2 18 3-17 3-1 3-19 4 1 2-2 2-18v18l-7-1h1l1-9 3 1 2-5 2-13 1 5-1-2 1 8 3 2 1-1 4-2 2-1 1 1 3 3h3l-1 6-2 2v6l2-3v6l1 1 4 5 4-8v5l2-6v-2l-1-9-2 1 1 3 3-3 6-10 7 6 4-7-1 4h0l5-4 3 17 2-5"/><path cx="593" cy="137" r="1.14" fill="#e2e2e2" stroke-width=".2" opacity=".6" d="M589.4 142.95l4.02-7 .21 2.53z"/></g><g class="key-Bulgaria_0" stroke="#ccc"><circle cx="378" cy="310" r="1.14" fill="#e2e2e2" opacity=".6"/><path stroke-linecap="round" fill="none" stroke-width=".44" opacity=".6" d="M378 310l5-10 6-5 6-3 6-4 7-16 5-5 4-1 5-3 6-10 2 2 5-12 4-3 4-5 3-1 3-7 1-10 7-2h4l-2-2v52l3 12-14-15-7 7 1 22 2-3-14 9-7 6 4-25v9h8l6-1 2-4 5-2 2-2 8 7 11-2 7 3 2-8 2-1 2 5h5"/><path cx="487" cy="282" r="1.14" fill="#e2e2e2" stroke-width=".2" opacity=".6" d="M480.14 280.86l8 1.14-2.28 1.14z"/></g><g class="key-Hong-Kong_0" stroke="#ccc"><circle cx="363" cy="339" r="1.12" fill="#e2e2e2" opacity=".6"/><path stroke-linecap="round" fill="none" stroke-width=".44" opacity=".6" d="M363 339l8-18 11 4 5-15 11 32 3-23 2-8 4-15 8 1 5-13 7-17 9 2 7-3-4 19 2 10 11-19 7-9 4 8 7-12 7-7 2-3 2-5 3-1 7-7 2-6 5-4 9-9 6-33 3-14 2 2 6-12 6 33 5-10 5-26v16l6 9 4-1h-5l-1 3 6 7 1-11 4-1 2-8 5-3 7 7 2-8 5 14v-1l-3-4 4 2 2 7v-13l3-6"/><path cx="582" cy="170" r="1.14" fill="#e2e2e2" stroke-width=".2" opacity=".6" d="M577.91 175.63l4.6-6.65v2.55z"/></g><g class="key-Tajikistan_0" stroke="#ccc"><circle cx="408" cy="255" r="1.13" fill="#e2e2e2" opacity=".6"/><path stroke-linecap="round" fill="none" stroke-width=".44" opacity=".6" d="M408 255l-3 40-57 86-7-11-26 9-4 8-25 6 17 9-10-1-10 11 1-3 6-13 7-1 8-6 7-4 1-18 2 13 1-8v-1h2l6-1 1-2 7-2 3-1"/><path cx="335" cy="365" r="1.14" fill="#e2e2e2" stroke-width=".2" opacity=".6" d="M328.13 366.1l7.95-1.46-1.8 1.8z"/></g><g class="key-Paraguay_0" stroke="#ccc"><circle cx="289" cy="396" r="1.12" fill="#e2e2e2" opacity=".6"/><path stroke-linecap="round" fill="none" stroke-width=".44" opacity=".6" d="M289 396v-3l2 7 2-21 3-2h0l3 4 2-5 2-4 5 3 2-5 4 2 5 4 2-2 1-2 6-4 10-6 5 3-2-15 10-18 8 22-3-14-5 4v3l1-30-3 44v-12l5 1 4-2v-2l1-10v-5l2 2 3-16 2 8 1-3h0v-5l-4-25-7-6 2 2 20-7 4-10 1 15-2 9 4-7 6 6 6-2h2l12-7 7-1v1l7 1"/><path cx="425" cy="286" r="1.14" fill="#e2e2e2" stroke-width=".2" opacity=".6" d="M418.37 283.9l7.75 2.26-2.4.8z"/></g><g class="key-Jordan_0" stroke="#ccc"><circle cx="351" cy="410" r="1.12" fill="#e2e2e2" opacity=".6"/><path stroke-linecap="round" fill="none" stroke-width=".44" opacity=".6" d="M351 410l-1-3v-4l10-2 6-1h-3l3 4-2-14h-7l-13 2-4-9 1-1-7 2-2 8-7 1 11-4 6-3 14-14h12l12-6-3-5-4-6-2 4 9-8-4-5h2l7-1-2-6-3 19-21-9-12-22 7 3v-22l4 22 1-2-2 10 3-22 3-3 3 23 1-19 4-20 5-17 2 25 5-44 8 24 9-2 10-3 18 20 12-12 2-13 4-8 1-1v2"/><path cx="447" cy="268" r="1.14" fill="#e2e2e2" stroke-width=".2" opacity=".6" d="M448.14 261.14l-1.14 8-1.14-2.28z"/></g><g class="key-Laos_0" stroke="#ccc"><circle cx="228" cy="462" r="1.12" fill="#e2e2e2" opacity=".6"/><path stroke-linecap="round" fill="none" stroke-width=".44" opacity=".6" d="M228 462h2l5 3 1 2 4 2 1-2-3-1 1 2-4-3 7-5 11-2 4-1 3 1-3-1 8 8 1-5h-2v3l6-3 3-2 1 2 2-2 3 1 4-3 4-3 4-2 3-2 2-1h7-2l5-1 3-2 1-2 4-3-1-7h9l13-2 7-2 13-4 6-1 11-2 10-2 4-3"/><path cx="386" cy="417" r="1.14" fill="#e2e2e2" stroke-width=".2" opacity=".6" d="M379.83 420.21l7.08-3.9-1.14 2.28z"/></g><g class="key-Togo_0" stroke="#ccc"><circle cx="252" cy="437" r="1.12" fill="#e2e2e2" opacity=".6"/><path stroke-linecap="round" fill="none" stroke-width=".43" opacity=".6" d="M252 437l-2-22 3 8 7-2 6-5 11 13 3-5 3 5 5 7-4-5 2-5-2 5-4 1h21l-20 4v5l10 3 3-3-2-4h-2l-9-1v7l-7-4 1-3-3-3v8l-3-5 2-20 2 1 3-9-5 7-4-8-17 8 9-7-2-9 11 2 4 9-11 3 4-2-5-3-1-15 3 2-3-4h-1l-2 4 7 2 4 4-9-5 5-1 2-5v-1l-2 3 10 4"/><path cx="273" cy="396" r="1.13" fill="#e2e2e2" stroke-width=".2" opacity=".6" d="M267.05 392.4l7 4.02-2.53.21z"/></g><g class="key-El-Salvador_0" stroke="#ccc"><circle cx="222" cy="424" r="1.12" fill="#e2e2e2" opacity=".6"/><path stroke-linecap="round" fill="none" stroke-width=".43" opacity=".6" d="M222 424l5-2 1-1 4 2 3-3 3-2h1l-2 2-1 1 5 1h-1l3-1 4-5-3-6 1-7 11-1 12-3-7-1-2-3h-9l-11-6-4 5 1 3 3-6 4 4 5 2v-1l4-6 2-1-1 2 4 1 7-4 9 1 9-2 10 4 4-1 7 2 7-12 5-4 5-5 7-10 6 1 7 2 6 6 9-8 10-3 11-1 9 11 6-6 12 7 16-2 1 1 1-9"/><path cx="421" cy="360" r="1.13" fill="#e2e2e2" stroke-width=".2" opacity=".6" d="M419.11 366.7l2.02-7.83.87 2.38z"/></g><g class="key-Sierra-Leone_0" stroke="#ccc"><circle cx="243" cy="365" r="1.12" fill="#e2e2e2" opacity=".6"/><path stroke-linecap="round" fill="none" stroke-width=".43" opacity=".6" d="M243 365h3l4-5 13-5 1-1-2 3-10-4h5l3-6 15-4-1 12 2 6 2 15v5l-2-9-4 1-1 3 1 2v3l-3-20 2-2h3l-4 15 2-2h0v-8l4-1 1 8 4 1 6 6 3-4-5-4 10-2 9 2-5-5-14-5-10-1-12 23-27 13 10 6h9l8-10-2 4-2-9-5-1 2-6 2 10 3-3 3-3 3-6 3-1 15-4 12-4"/><path cx="297" cy="368" r="1.13" fill="#e2e2e2" stroke-width=".2" opacity=".6" d="M290.13 369.1l7.95-1.46-1.8 1.8z"/></g><g class="key-Nicaragua_0" stroke="#ccc"><circle cx="379" cy="437" r="1.12" fill="#e2e2e2" opacity=".6"/><path stroke-linecap="round" fill="none" stroke-width=".43" opacity=".6" d="M379 437l7-6 5-1 7-1 8-5-3-4 3 1v1h1l-1-4 1-2-1 4 4-2 7-3-10-2 9-1h8l-15 3-40 3 14-2v-6l-5 19 3-11-3 4 1-5-6-4 3 2-31-1h-6l1 4 1-7-2-8-1 1 2-8 4-6 1 22 1 1 3-10 1 2 2-10 1-9v8h0l1-6 2-12 1-6 3-6 2 1 1 6 1-8 3 5 2 1 1-11"/><path cx="370" cy="358" r="1.13" fill="#e2e2e2" stroke-width=".2" opacity=".6" d="M368.25 364.74l1.85-7.87.93 2.36z"/></g><g class="key-Denmark_0" stroke="#ccc"><circle cx="467" cy="179" r="1.13" fill="#e2e2e2" opacity=".6"/><path stroke-linecap="round" fill="none" stroke-width=".43" opacity=".6" d="M467 179l4 18 1-7 7-7 3-2 2-1 4 4 5-12 5 3 1-6 2-13 3 19 4 21h-3l-2 2 6 14 2-16 2 2 3-12-2-10-4 7 1 14 1 13 2 2 2-19 7 13 1-10-1-16 2 6 1 9 1 2 3-29-1 9 4 8 3-16 3 16 6 12 4-13 1 6 4-5v-4l1 12-4 1 4-8-1-10 5 16 3 1 3 8-3-10 3 3 2-3 2-6 1-2"/><path cx="570" cy="183" r="1.13" fill="#e2e2e2" stroke-width=".2" opacity=".6" d="M565.92 188.64l4.59-6.65v2.53z"/></g><g class="key-Kyrgyzstan_0" stroke="#ccc"><circle cx="418" cy="255" r="1.13" fill="#e2e2e2" opacity=".6"/><path stroke-linecap="round" fill="none" stroke-width=".43" opacity=".6" d="M418 255l-1 40-21 50-14 17-22 4-20 29-5-11-11-1-16-9 1 15 1 1v-2l-4-3 6-4 3-9-4 1 5-4 10-7 6-6 4 2 2-6 15 2-7-5 4-3"/><path cx="350" cy="346" r="1.13" fill="#e2e2e2" stroke-width=".2" opacity=".6" d="M343.83 349.22l7.08-3.9-1.14 2.26z"/></g><g class="key-Slovakia_0" stroke="#ccc"><circle cx="463" cy="268" r="1.13" fill="#e2e2e2" opacity=".6"/><path stroke-linecap="round" fill="none" stroke-width=".43" opacity=".6" d="M463 268l4-8 4 1 2 13 2-4v-16h-2l3 21 4-20h3l3-1 3 3 5 8 8-9 11 9 7 10-3-27 4-7 1-2 4-8 4 5"/><path cx="530" cy="236" r="1.13" fill="#e2e2e2" stroke-width=".2" opacity=".6" d="M526.6 229.93l4.1 6.95-2.3-1.06z"/></g><g class="key-Finland_0" stroke="#ccc"><circle cx="445" cy="221" r="1.13" fill="#e2e2e2" opacity=".6"/><path stroke-linecap="round" fill="none" stroke-width=".43" opacity=".6" d="M445 221l1-3 1-4 4 5 5-3 2-4h1l3 2 9-9 7 5 1-10 5-2 6-6 2 6-1-19v5l-1 9 1 8 7-4 3-5-1 7 1-16 1 14 2 9v4l4-8 3 10 7-6 5-15-1 18h-8l-4-14-1 11 5 8 8-14 1 9 8-14 7-10 4 14 4 13 1-9-1-2-1 3h4l1-3 3-4 7-7h3l-5 2 1-8 3-9 1 1-1-7"/><path cx="562" cy="169" r="1.13" fill="#e2e2e2" stroke-width=".2" opacity=".6" d="M561.85 175.96l-.01-8.08 1.44 2.08z"/></g><g class="key-Turkmenistan_0" stroke="#ccc"><circle cx="448" cy="255" r="1.13" fill="#e2e2e2" opacity=".6"/><path stroke-linecap="round" fill="none" stroke-width=".43" opacity=".6" d="M448 255l-7 40-15 51 8-14-32 6-7 3 3 8-6 4 8-7 6-4 20 5-8 8 2-9h1l3-9h17l9 7 3-25v-5l16-5 8-6 8 7 6-4 9 1"/><path cx="500" cy="307" r="1.13" fill="#e2e2e2" stroke-width=".2" opacity=".6" d="M493.3 305.12l7.82 2-2.37.88z"/></g><g class="key-Norway_0" stroke="#ccc"><circle cx="460" cy="263" r="1.13" fill="#e2e2e2" opacity=".6"/><path stroke-linecap="round" fill="none" stroke-width=".43" opacity=".6" d="M460 263l2-22 2 15 5-13 4-4 3-24 5 6 3-15 2 1 2-14 4-12 3-8 4-1 2 14 1-14 3-13 2 9 2-5 5 2 6-15 1 17-1 3 1 11 4-7 2 6-2-3v-5l-2 24 1-3 2 7 2-12v1l3-1 3-6 4 5 7-8 7 3v-16l5 2 11 4v-7l-2-9h1l7-14 7-13 7 19 4 2 6 2h-8l3-4 4-3h3l2 3"/><path cx="602" cy="148" r="1.13" fill="#e2e2e2" stroke-width=".2" opacity=".6" d="M599.13 141.66l3.5 7.28-2.2-1.25z"/></g><g class="key-Costa-Rica_0" stroke="#ccc"><circle cx="375" cy="406" r="1.12" fill="#e2e2e2" opacity=".6"/><path stroke-linecap="round" fill="none" stroke-width=".43" opacity=".6" d="M375 406l2-6 2-4 3 1 3-1 3 2h1l3-3 2-4 5-1v-5l4 1 4-5-4-1 3-2 7-6 10-6v1-4l-2 2-7 5h-6v1l4-2 1-10 6-4-3-8v3l2 2-1-17v-3l6-5 4 4 4-2 2-10h-2l4 12 5 2 5-4-3-7-2 2 1-4 3 1 1-9 2-1 4-9 5-4h3l4 3 2-4 3-4 3-2"/><path cx="471" cy="291" r="1.13" fill="#e2e2e2" stroke-width=".2" opacity=".6" d="M464.66 293.87l7.28-3.5-1.25 2.2z"/></g><g class="key-Central-African-Republic_0" stroke="#ccc"><circle cx="278" cy="407" r="1.12" fill="#e2e2e2" opacity=".6"/><path stroke-linecap="round" fill="none" stroke-width=".43" opacity=".6" d="M278 407l-1-10-6 9h1l-2 1-2-9-8-20 15 3-1-3 2-3-4 1-4-8 4 1-8-27-3 14 1-9 3 6v8l-5-5-8-1 11-5-3 2-7 3 5 18 6 4-3-10-9-6h3l2-7-2 10-4 4-5 3-4 3 8-9-1 4h-12l4-1 2 5-2-8 1 1v-8l-2-5-6 1 1-6v4l1-1 2-12-1-6-3 5 2 8 4 6 1 7-38 8"/><path cx="203" cy="367" r="1.13" fill="#e2e2e2" stroke-width=".2" opacity=".6" d="M209.96 366.69l-8.06.54 1.97-1.57z"/></g><g class="key-Ireland_0" stroke="#ccc"><circle cx="411" cy="243" r="1.12" fill="#e2e2e2" opacity=".6"/><path stroke-linecap="round" fill="none" stroke-width=".43" opacity=".6" d="M411 243l2-10 4-1 3-13 1 2 2-2 5-5 6 5 4-7v-4l3-5h7l5 3-6-4 1 6 4-2 6-4 7-15 2 6v-23l2-3-1 12 1-1 1-3 2-2 4-3 4 2 7-2 6 11 1 9h3l4 23 5-15 10 5 6-8 9-26 10 1 5 1h7l3 9 4 5v1l3-2h3l6 22 7-10-7-9-5 7 1-1 3 2 2-1 1 11"/><path cx="574" cy="205" r="1.13" fill="#e2e2e2" stroke-width=".2" opacity=".6" d="M574.5 198.05l-.4 8.07-1.33-2.14z"/></g><g class="key-New-Zealand_0" stroke="#ccc"><circle cx="474" cy="247" r="1.12" fill="#e2e2e2" opacity=".6"/><path stroke-linecap="round" fill="none" stroke-width=".43" opacity=".6" d="M474 247l1-9 5 8 3-14 3 2 3-16-7-3-2 7 8 17-4-5 2-30 6-2 6 8-3 3-6-4 2-12-3 17v8-3l-1-6 2-10 1 20 4-15 2-13v25l4-16 3 8 3-2h1l-1-24-2 9 1 6 6 5 4 22 4-17 2 3h2l1 21 4-1 1-1 2 5 1-7 2 2v-9l-1-2 2 1 4-6h-2l1 11 2-5 2-3 1 7 4 2"/><path cx="547" cy="229" r="1.13" fill="#e2e2e2" stroke-width=".2" opacity=".6" d="M541.36 224.92l6.65 4.58h-2.52z"/></g><g class="key-Croatia_0" stroke="#ccc"><circle cx="444" cy="345" r="1.13" fill="#e2e2e2" opacity=".6"/><path stroke-linecap="round" fill="none" stroke-width=".43" opacity=".6" d="M444 345l-7 19 6-10 7-21 6 4 8 2 5 8v-24l3-9 1-3 4-15h5l5-31 1-15 6-18 9-13 5-7-4 24-3 21 4-2 2-21 1-11"/><path cx="508" cy="223" r="1.13" fill="#e2e2e2" stroke-width=".2" opacity=".6" d="M506.25 229.74l1.85-7.86.92 2.35z"/></g><g class="key-Liberia_0" stroke="#ccc"><circle cx="276" cy="440" r="1.12" fill="#e2e2e2" opacity=".6"/><path stroke-linecap="round" fill="none" stroke-width=".43" opacity=".6" d="M276 440l-2-21 5-4 2-5 4 5 8 2-7-2 2-10-2 3 4-6-1-7-6-5 7-4-5-1-1-4-2 5-10 13-16 4-4-15-4-7-7 2-1-12-2 9 4 16 6 6 3 11h-58l-9-51-37-2-33 10-22-5-6 7-3-1 55-17 16 14 11 10 28 11 16 1 20-4-38-7-3-7 3-3h8l2 6 6-3 7 1 5-4 2-7 4 2 5 2"/><path cx="230" cy="366" r="1.13" fill="#e2e2e2" stroke-width=".2" opacity=".6" d="M224.04 362.4l7 4.02-2.5.2z"/></g><g class="key-Congo_0" stroke="#ccc"><circle cx="251" cy="431" r="1.12" fill="#e2e2e2" opacity=".6"/><path stroke-linecap="round" fill="none" stroke-width=".43" opacity=".6" d="M251 431l10-7 3-2h3-1l-1-11 4-1 4-1 5 6 3 1v-4l1 2 16 3-4-8 1-1-2-6v9l11-3 15 1 9 7 7-17 14-6 13-9-3 10-40 6-2-10-12 1 5 5-8 15 5-22-20-9 3 14-12 3-5 5 15-8-8 4h-20l20-10 37-6-8-8 4-3-1 7 15 4 20 18 7-14-14 6 7 10h-2l38-1 7-8-3 12-2-8"/><path cx="385" cy="397" r="1.13" fill="#e2e2e2" stroke-width=".2" opacity=".6" d="M385.57 403.94l-.84-8.03 1.64 1.91z"/></g><g class="key-Lebanon_0" stroke="#ccc"><circle cx="401" cy="340" r="1.12" fill="#e2e2e2" opacity=".6"/><path stroke-linecap="round" fill="none" stroke-width=".43" opacity=".6" d="M401 340l5 9 7 1 3-5v-2l-33 8-72-7 49-17 2 1 11-9 2-19 1 1-40-9h23l33-4 11 4-10 2 16 2-26-20-45-15 25-1 27-1-14-1 3 3 5 4 5-2 3 1 3-14 11-11 6-11 5 11 8-10 9 12 7 4 13 1 11 9-4-14h7l5 8 14-7 1 9-7 9-4 8-1-6"/><path cx="476" cy="262" r="1.13" fill="#e2e2e2" stroke-width=".2" opacity=".6" d="M476.02 268.96l-.2-8.07 1.48 2.04z"/></g><g class="key-Georgia_0" stroke="#ccc"><circle cx="449" cy="255" r="1.13" fill="#e2e2e2" opacity=".6"/><path stroke-linecap="round" fill="none" stroke-width=".43" opacity=".6" d="M449 255l-13 40-66 140-45 5-6-8 7-25 9 3 5-1-2-15 1 11v-2l5-37 6 15 10-8 6-7 9-16 12 3 12-4 8 12 4-18 6-30 8 46 5-7 5 2"/><path cx="435" cy="354" r="1.13" fill="#e2e2e2" stroke-width=".2" opacity=".6" d="M429.04 350.4l7 4.02-2.5.2z"/></g><g class="key-Bosnia-and-Herzegovina_0" stroke="#ccc"><circle cx="267" cy="429" r="1.13" fill="#e2e2e2" opacity=".6"/><path stroke-linecap="round" fill="none" stroke-width=".43" opacity=".6" d="M267 429l1-10 11-2 22-6 51-39 27-1 3 4 11-11v3l2-15 5 7 1 12 3-15 4-9 10-1 8-5 5-5 1 5v-10l3-1 3 2 3 5"/><path cx="441" cy="337" r="1.13" fill="#e2e2e2" stroke-width=".2" opacity=".6" d="M438.43 330.53l3.15 7.44-2.12-1.36z"/></g><g class="key-Mauritania_0" stroke="#ccc"><circle cx="253" cy="373" r="1.11" fill="#e2e2e2" opacity=".6"/><path stroke-linecap="round" fill="none" stroke-width=".43" opacity=".6" d="M253 373h6l1 2 34 1 14 2-2-2 5 1 9 1-5 4 9-4-2 1-3 8-1 4 2 5 7-10 4 4-2-5-8-3 4-2-3-10v-7h-9l-1-7-3 9v1l1-6v-11l1 8v9l-4-10 1 11-2-15 6 4 2 10-5-15 7-3-6 11-1 1 3-15-3 4-1 1 4-7 4 1-1-3 2-3h23l-5 1-6-4-4 5 12-17 9-8-6-2-2 19"/><path cx="338" cy="332" r="1.13" fill="#e2e2e2" stroke-width=".2" opacity=".6" d="M339.84 325.28l-1.96 7.84-.88-2.36z"/></g><g class="key-Panama_0" stroke="#ccc"><circle cx="340" cy="411" r="1.12" fill="#e2e2e2" opacity=".6"/><path stroke-linecap="round" fill="none" stroke-width=".43" opacity=".6" d="M340 411l5-5 5-3 2 2 6 2 3-6 6-5 3-5 5-3 11 17 7-17 3-2h1l-3-7-2-2-1-2-4-6 8 4-1 2 8-6 4 5-1-14 1-5-2-8h0l5-13 3 16-11 19-2 1 2-24 7 9 6-1 4 1v5l-2-8 3-6 6-3 6-5 1-5 2 21 1 1 3 2 7 4 3 6 9-3 6-3-3-4 6-10 6-2 4-9 9-9 6-4 12-1"/><path cx="503" cy="322" r="1.13" fill="#e2e2e2" stroke-width=".2" opacity=".6" d="M496.06 321.45l8.06.46-2.15 1.3z"/></g><g class="key-Moldova_0" stroke="#ccc"><circle cx="390" cy="255" r="1.13" fill="#e2e2e2" opacity=".6"/><path stroke-linecap="round" fill="none" stroke-width=".42" opacity=".6" d="M390 255l-4 40-46 73v8l-13 5 5 6-6-2-2 16-14-9-11 6v10l5 1 7-7 7-17 6-9 5-12 6-16 5-21 7-17 3-13 10 12 12-4 1-4 6 2"/><path cx="379" cy="303" r="1.12" fill="#e2e2e2" stroke-width=".2" opacity=".6" d="M372.83 299.76l7.24 3.6-2.5.35z"/></g><g class="key-Uruguay_0" stroke="#ccc"><circle cx="414" cy="243" r="1.12" fill="#e2e2e2" opacity=".6"/><path stroke-linecap="round" fill="none" stroke-width=".42" opacity=".6" d="M414 243l1 9-3-2 2-11-2 18 3 4-4 10 1-26 5-4 5-15 1 25-2 6 3 6-2-18 2-2 1 4-1 8 4 4 7-1 4-5 1 7-9-8-10 41-2-8v4l10 7 7-9v-3 8l-2 11 3-24 9-5 3-5 7-8-1 21 5-15 1 9 1-1-5-4-5-3-4-8-8 19-1 6 3-1 4 11 5-3 8-13 9-15h7l11-4 7-3 3 9 5-13"/><path cx="501" cy="253" r="1.12" fill="#e2e2e2" stroke-width=".2" opacity=".6" d="M497.48 259.01l3.92-7.06.25 2.5z"/></g><g class="key-Lithuania_0" stroke="#ccc"><circle cx="466" cy="255" r="1.13" fill="#e2e2e2" opacity=".6"/><path stroke-linecap="round" fill="none" stroke-width=".42" opacity=".6" d="M466 255l-8 40-15 11-14 19-5 18 2 19 7-20 9-15 6 1 3-10 6 10 6-22 6-14 7-9 4-3 4-14 7-1 11-5 5 1-10 9 7-2 8-1 8 14h7"/><path cx="527" cy="281" r="1.12" fill="#e2e2e2" stroke-width=".2" opacity=".6" d="M520.12 279.88l8 1.12-2.24 1.12z"/></g><g class="key-Albania_0" stroke="#ccc"><circle cx="351" cy="385" r="1.12" fill="#e2e2e2" opacity=".6"/><path stroke-linecap="round" fill="none" stroke-width=".42" opacity=".6" d="M351 385l1 8 1 11 2-11 1-8 2-5 1-9 2-4 1 5 1-9 3 6 1-5-1 7 2-13v7l-2 8 3-1h-1l-3-4 4-5h-3l-16-18-20-4 18-10 17-2 7-7 15-12-18 23v-4l11-4 2 3 3-11 1-3 5-3 7-16 4 1 7-7h8l9-10 7-16h1l2-2 7-8 1-1"/><path cx="444" cy="252" r="1.12" fill="#e2e2e2" stroke-width=".2" opacity=".6" d="M438.34 256.07l6.45-4.86-.79 2.38z"/></g><g class="key-Armenia_0" stroke="#ccc"><circle cx="398" cy="255" r="1.12" fill="#e2e2e2" opacity=".6"/><path stroke-linecap="round" fill="none" stroke-width=".42" opacity=".6" d="M398 255l-9 40-45 140-8 10-10-28 5-12 6-1h-5l2 14v1l4-8 8-3 10-15 10-21 8 4 11-18 12-8 13-25 5-12-8 9 7-10 9-3 3-25 2-8"/><path cx="428" cy="276" r="1.12" fill="#e2e2e2" stroke-width=".2" opacity=".6" d="M425.24 282.4l3.03-7.49.55 2.45z"/></g><g class="key-Kuwait_0" stroke="#ccc"><circle cx="541" cy="346" r="1.11" fill="#e2e2e2" opacity=".6"/><path stroke-linecap="round" fill="none" stroke-width=".42" opacity=".6" d="M541 346l14 3-1-9-5-1 58 8-18-7 1-17-4 7-8-9 25-16-1-14-20 11-20-25-2-1-2-4-8 16-26-8 10-2-15-10 10-1-25 79-43 58 59-50 30-26 11-36 4-29 2-1-1-20v7l-7-3v-18l-10-14 4 10 14 2 16 1 19-14 13-1 2-2 5-1-28 13 5 1 15 7 4 4-6-8"/><path cx="612" cy="226" r="1.12" fill="#e2e2e2" stroke-width=".2" opacity=".6" d="M615.23 232.18l-3.9-7.08 2.24 1.12z"/></g><g class="key-Oman_0" stroke="#ccc"><circle cx="449" cy="363" r="1.12" fill="#e2e2e2" opacity=".6"/><path stroke-linecap="round" fill="none" stroke-width=".42" opacity=".6" d="M449 363l-6-27 3 1-2 2-2-3 4-7 7 7 6 4-7-2 12-1 21 8 4-14 7 17 8-19 20 12 3-4 32-6 7-4 13-17-17-2 7 1 2 1 1-13-7-6"/><path cx="565" cy="291" r="1.12" fill="#e2e2e2" stroke-width=".2" opacity=".6" d="M569.5 296.33l-5.35-6.06 2.43.6z"/></g><g class="key-Mongolia_0" stroke="#ccc"><circle cx="265" cy="304" r="1.12" fill="#e2e2e2" opacity=".6"/><path stroke-linecap="round" fill="none" stroke-width=".42" opacity=".6" d="M265 304l2 11v-2l5 5 1-8 2-8h1l6 21 2-21 1 1 9 7h-8l11 6 9-1 9 6-2 7 4-2h5l3 3-3-3 28-12-27-9-5 25-18 8 6 3 22-4-8-5 4-4-5-5 4-12 11 6 8 2 7 10 7-2 14-3 14-3 16 3 8-17h1l-5-23 13 7 14 5 11 3 6-8"/><path cx="448" cy="291" r="1.12" fill="#e2e2e2" stroke-width=".2" opacity=".6" d="M442.98 295.83l5.7-5.73-.46 2.47z"/></g><g class="key-Jamaica_0" stroke="#ccc"><circle cx="383" cy="408" r="1.12" fill="#e2e2e2" opacity=".6"/><path stroke-linecap="round" fill="none" stroke-width=".42" opacity=".6" d="M383 408l-1-7 8-5v-10l-1 2 3-3-2-10-2-6 2-1 11-7 1 3 7-6v10l-5-6 1-2-7-11-4-5-4 9-10 1-11 3h-7l-1 1 1-3 1-4-11 6 10-7 7-5 4 3 1 9 5-19 1 2 6 4 3-10 1 9 1-1 2-15 1-7 1 2 1-3 1-4 2-5 2-4 5-4 2-3 3 1 4 1 4-2-3 22v9l1-11 3 11-1-8v-1"/><path cx="419" cy="321" r="1.12" fill="#e2e2e2" stroke-width=".2" opacity=".6" d="M417.88 327.88l1.12-8 1.12 2.24z"/></g><g class="key-Namibia_0" stroke="#ccc"><circle cx="365" cy="387" r="1.11" fill="#e2e2e2" opacity=".6"/><path stroke-linecap="round" fill="none" stroke-width=".42" opacity=".6" d="M365 387l8 8 5-1 10 2 3 5 2-1-5-2 1 1 3 1 1 4h2l-1 2 1 3 3-1-1 10-1-5v-5l-1-1v-2h12l-12 11-5 4-6 5h-3l3 1h-5l12 3 3-1-2 3-7-2h-8l3 3-6 3 4 4 4-1 4-3 1-23 1-4v-7l4-16h2l3 12-1-8 8-14 2 10 9-3 3-1 6 2 1 8 1-1 7 4 8-4 3 2"/><path cx="444" cy="392" r="1.12" fill="#e2e2e2" stroke-width=".2" opacity=".6" d="M438.9 387.25l6.03 5.37-2.48-.3z"/></g><g class="key-Lesotho_0" stroke="#ccc"><circle cx="197" cy="452" r="1.11" fill="#e2e2e2" opacity=".6"/><path stroke-linecap="round" fill="none" stroke-width=".42" opacity=".6" d="M197 452l12-1 9-1 6 4-2-2 6 8 4-6-1 1v3l1-2-10-5 14-6 16 2-2-2-3 1-1-3 13 7 17-5-18-8-4-2-1-5-3-3-3 4-3-6 4 5 1-9h0l9 1 2 1 3 3-1-2 3 2 6 1 4 1 3 3h2l3-3 3 1 3-1 4-1 6-1v5l2-1 3-1 2-3 2 4 3 4-2-2 4 3 6-1 1 2-1-3"/><path cx="319" cy="433" r="1.12" fill="#e2e2e2" stroke-width=".2" opacity=".6" d="M320.11 439.88l-1.46-7.94 1.77 1.77z"/></g><g class="key-Latvia_0" stroke="#ccc"><circle cx="485" cy="255" r="1.12" fill="#e2e2e2" opacity=".6"/><path stroke-linecap="round" fill="none" stroke-width=".42" opacity=".6" d="M485 255l-8 40-32-13-6 13-10-2-3-27 1 14 6 11 8 3h5l3-8 5-20 8-21 4-6 6-19 6 2 11-23 13 10 2 9-12-1 1 2h8l6 5 5-4"/><path cx="512" cy="220" r="1.12" fill="#e2e2e2" stroke-width=".2" opacity=".6" d="M505.93 223.42l6.94-4.12-1.04 2.27z"/></g><g class="key-Botswana_0" stroke="#ccc"><circle cx="180" cy="422" r="1.11" fill="#e2e2e2" opacity=".6"/><path stroke-linecap="round" fill="none" stroke-width=".42" opacity=".6" d="M180 422h5l4-3 4-6-6 2 4 3 11-1 12-3-1-3 16-3 16-4 16-2 14 15 5 8 5-1 6-4h4l1 1 9-12h12l5-2-2-2 4 8 11-26 15 21h16l7-13 11-15 19 14 1-20 2-14-1 12 1 22 2 4 6-16 14-3 5 3-3 9 11-4 5 5-3 2 3 2 2-2 5-20 10-12 4 19 1-5-5 1-8-6 9 6 8-13-2-11 3-2"/><path cx="473" cy="351" r="1.12" fill="#e2e2e2" stroke-width=".2" opacity=".6" d="M466.65 353.89l7.28-3.51-1.24 2.17z"/></g><g class="key-Macedonia_0" stroke="#ccc"><circle cx="407" cy="369" r="1.12" fill="#e2e2e2" opacity=".6"/><path stroke-linecap="round" fill="none" stroke-width=".42" opacity=".6" d="M407 369l-1-6 3-21 4 11 1-17v3l3-33 7-7 1 11v-5l-3-10v-8l2-22 7 9 4-27 7-29 6 36 5-2 2 5-1 8 2-5 6 1"/><path cx="462" cy="261" r="1.12" fill="#e2e2e2" stroke-width=".2" opacity=".6" d="M455.4 258.76l7.7 2.42-2.39.74z"/></g><g class="key-Slovenia_0" stroke="#ccc"><circle cx="482" cy="289" r="1.12" fill="#e2e2e2" opacity=".6"/><path stroke-linecap="round" fill="none" stroke-width=".42" opacity=".6" d="M482 289l6-23 6-7 6 8 4-14 2 4 2 15 3-18 2-5 2-19 3-1 1-11 5-1 1 8 4-3 5-2 4-6h-6l-1 1 1 5 1 2 1-2"/><path cx="534" cy="220" r="1.12" fill="#e2e2e2" stroke-width=".2" opacity=".6" d="M529.92 225.65l4.58-6.65v2.5z"/></g><g class="key-Gambia_0" stroke="#ccc"><circle cx="285" cy="384" r="1.11" fill="#e2e2e2" opacity=".6"/><path stroke-linecap="round" fill="none" stroke-width=".42" opacity=".6" d="M285 384h-3l4-5 5-9 8-12v4l-2 1h0l-3 4 9 14-3-1-1 5 1-3 4-1 2 5-4-7-2 8 3 9-6 10-3 10 12-23h3l-7-4-1 4v4l-3-5-3-8-1 7h0v-19l-1 4-1-29 1-8v23h-3l1 1-1-18v-28l3 8 3 3v-16l-10 16 3-10 9-8-4 10-3 14-1 3v6l1-2 2-7-11-3 3 4 1 3"/><path cx="286" cy="338" r="1.12" fill="#e2e2e2" stroke-width=".2" opacity=".6" d="M284.89 331.12l1.46 7.94-1.77-1.77z"/></g><g class="key-Guinea__002dBissau_0" stroke="#ccc"><circle cx="241" cy="390" r="1.11" fill="#e2e2e2" opacity=".6"/><path stroke-linecap="round" fill="none" stroke-width=".42" opacity=".6" d="M241 390l-1 2h8l6 4 3-6-7 4 10 6 2-1 8 2 7 4-4 1 3-19 1 26 2-15 5-2 5-3-16-14 12-3 1 9-8-4-9 10 1-5-4 9v-5l-14-40 17-2v25l2 14 1-5 2-11 2 7-13-21 7 15h7v7l11 5-16 1 13 4-4-8-2 5-3-5-2 2 1-4-2-4-5-1 1-9v2l-3-2 2-3 10-4-10-1h-3"/><path cx="265" cy="357" r="1.12" fill="#e2e2e2" stroke-width=".2" opacity=".6" d="M271.88 358.12l-8-1.12 2.24-1.12z"/></g><g class="key-Trinidad-and-Tobago_0" stroke="#ccc"><circle cx="428" cy="383" r="1.11" fill="#e2e2e2" opacity=".6"/><path stroke-linecap="round" fill="none" stroke-width=".42" opacity=".6" d="M428 383l-3 3 9-1 1-3-9-5 12 3 6 4h4l2-3-3 1-3-4 6-1 7 3 25-20 2 15 8-10h3l2-15 9 6 10-11-3-13-8-15-12-9-6-8-1-1-15 5-10 19-5 14-6-4 5 20-5-16-7-5h-5l3-2v6h-2l2 1v-6l12-2 15-3-4-6 3-12 20 7 13-3 11 6 14-3 9-8 14 10-31-2 7-4 13-9 1-6 1-10"/><path cx="539" cy="286" r="1.12" fill="#e2e2e2" stroke-width=".2" opacity=".6" d="M537.2 292.74l1.91-7.85.89 2.33z"/></g><g class="key-Estonia_0" stroke="#ccc"><circle cx="455" cy="255" r="1.12" fill="#e2e2e2" opacity=".6"/><path stroke-linecap="round" fill="none" stroke-width=".42" opacity=".6" d="M455 255l8 40-24 30-3-9-1-7 9-17-7-3 6-1 8-8 4-18 7 39 5-7 6-24 5-6 7 9 8 15 9-8 11 4 1-1-8-4 3 8 10 7 7-12 3 9"/><path cx="529" cy="291" r="1.12" fill="#e2e2e2" stroke-width=".2" opacity=".6" d="M527.88 284.12l1.47 7.94-1.76-1.77z"/></g><g class="key-Mauritius_0" stroke="#ccc"><circle cx="368" cy="396" r="1.11" fill="#e2e2e2" opacity=".6"/><path stroke-linecap="round" fill="none" stroke-width=".42" opacity=".6" d="M368 396l4 2 16-3 2-4-12 5 2-6v-2l-17 5h1l8-4h1l5-7 1 3 5-8-4 4 18-7v-5l1-4v-13l-8 1-1-13 5 3 3 5 1 5 4-7 13-4 10-8 2 12 3 2 6-16 5-3 6-4 3-6 3-26 8 9 8 3-2 14 4-13-3 3 2-3-2 3v-12l-1 9 1-1-7-5 5-5 7 2 1-1 3 5 2-4 4-8 2-2h3"/><path cx="489" cy="287" r="1.12" fill="#e2e2e2" stroke-width=".2" opacity=".6" d="M482.12 285.88l8 1.12-2.24 1.12z"/></g><g class="key-Swaziland_0" stroke="#ccc"><circle cx="319" cy="417" r="1.11" fill="#e2e2e2" opacity=".6"/><path stroke-linecap="round" fill="none" stroke-width=".42" opacity=".6" d="M319 417l-6-2 15-1h-4l-2-10 19-3 9 1-3 12-8-4-4 4 4-1 14 3 4-1 5 3-3-3-6 4 10-1 17-6 5-11 2-11 10 12 2 6 4-12 5 13-2-1 15 9 5 2-6-27v9l-5 5 5-6 1 8-8-12-3-3 2-28 2 10 2 19 2-2 1 12 2 1 1-1-2 1h8l-2-7"/><path cx="426" cy="398" r="1.12" fill="#e2e2e2" stroke-width=".2" opacity=".6" d="M426.82 404.93l-1.13-8 1.69 1.84z"/></g><g class="key-Cyprus_0" stroke="#ccc"><circle cx="371" cy="318" r="1.11" fill="#e2e2e2" opacity=".6"/><path stroke-linecap="round" fill="none" stroke-width=".42" opacity=".6" d="M371 318l14 28v-6l-12-14 20-24 5 6 7-26 3-10 9-21v12l7-18 3-1-2-2-9 58-17-4 22 31 17-12 8-27 11-8 5 7v9l6-42 2 27 9-24 2-4 2-22 6 21 6-7 6-1 4 21-2-31 6 20-3-13 5-8 3 13-1-3 1-3 4 9 4 6 5-11 4-4v11l-2 2 5-1 3-11 5-16 4 13 6-7-2-7v4l-5-15-3 13-7 6"/><path cx="535" cy="232" r="1.12" fill="#e2e2e2" stroke-width=".2" opacity=".6" d="M540.95 228.37l-6.8 4.36.97-2.3z"/></g><g class="key-Djibouti_0" stroke="#ccc"><circle cx="422" cy="429" r="1.11" fill="#e2e2e2" opacity=".6"/><path stroke-linecap="round" fill="none" stroke-width=".42" opacity=".6" d="M422 429l1-2-2-1-1 2-10-2 2-6-2 1-20 7-14 3-5 8-2-9h-1l-4-9-1 1-2 4-2-1-5 6-7 3-6 3-7 7-2 2h-15l7-3 20-7-25-2 10-13-10 5 7-7-2-9 9-5-4-11-3 4-6-3 3-11 2-7 3-20 4-4-4-7 5-3-1 14-1 17-2-6 4 4 4-7"/><path cx="337" cy="365" r="1.12" fill="#e2e2e2" stroke-width=".2" opacity=".6" d="M332.62 370.42l4.93-6.39-.14 2.5z"/></g><g class="key-Fiji_0" stroke="#ccc"><circle cx="336" cy="375" r="1.11" fill="#e2e2e2" opacity=".6"/><path stroke-linecap="round" fill="none" stroke-width=".41" opacity=".6" d="M336 375l-2-9 12-16 9 10-21-4 1 4 4 3 8 1 2 5 6-6 4-8 5-3 8 7 5-16 7 12-2-22 4-13 1-5 9-4-1-19-8 2-3 20-4-10 3 6 1-11 1 19-1-16 2-24 7 10 6-12-3-10 2-1 1-10 2 20 1-6 3 3-4-1-1 3 4-3-3 6v-3l1 8h-1l3-6-1 2h3v2l2 4 1-3 3 4 5-4 1 7 3-7"/><path cx="421" cy="281" r="1.11" fill="#e2e2e2" stroke-width=".2" opacity=".6" d="M417.26 286.89l4.18-6.91.15 2.48z"/></g><g class="key-Montenegro_0" stroke="#ccc"><circle cx="449" cy="226" r="1.11" fill="#e2e2e2" opacity=".6"/><path stroke-linecap="round" fill="none" stroke-width=".41" opacity=".6" d="M449 226l11-2 6-7-1-9 1-1 4-10-2 4 5-11"/><path cx="473" cy="190" r="1.11" fill="#e2e2e2" stroke-width=".2" opacity=".6" d="M469.14 195.8l4.32-6.81.1 2.48z"/></g><g class="key-Macao_0" stroke="#ccc"><circle cx="405" cy="382" r="1.11" fill="#e2e2e2" opacity=".6"/><path stroke-linecap="round" fill="none" stroke-width=".41" opacity=".6" d="M405 382l5-22 7-28 6 7 8-2 7 4 7-7 7-14 7-20 6-33 6 2 5 7 1-12 5-31 5 13-2 12 4 9 11 6 6-9 2-23 7 1 3-7 14 6 4-10 1-5 3-18-1 16-3 3-7 15-2 12 1-4h1l7-6 10-9 19-10 5-16 13 8 13-12 5 1h4l22-6 18 21 7-10 7-7"/><path cx="659" cy="204" r="1.11" fill="#e2e2e2" stroke-width=".2" opacity=".6" d="M653.34 208.08l6.45-4.87-.79 2.36z"/></g><g class="key-Suriname_0" stroke="#ccc"><circle cx="377" cy="403" r="1.11" fill="#e2e2e2" opacity=".6"/><path stroke-linecap="round" fill="none" stroke-width=".41" opacity=".6" d="M377 403l5 1 3-1 5-3-8-2 8-5 4-4 11-5 5 7-2-2-8 3 4-5-3 4v7l-2-9 8 3-5-6-10 1 11 2 2 10 1-4 1-12v4l-7 2-2 6-5-15 13-9 6-17 4-8-15 5 11-4 4 9 5-20 9-2 6-2 5 1 6-1 5-3 6 5 5-9 8-12 6 10 2-10 2-2"/><path cx="481" cy="311" r="1.11" fill="#e2e2e2" stroke-width=".2" opacity=".6" d="M475.34 315.08l6.45-4.87-.79 2.36z"/></g><g class="key-Luxembourg_0" stroke="#ccc"><circle cx="610" cy="159" r="1.11" fill="#e2e2e2" opacity=".6"/><path stroke-linecap="round" fill="none" stroke-width=".41" opacity=".6" d="M610 159l-3-20 2 4v-3l5-8-1 9 8 13 5 4 1-3-6 6 3 8 6 7v-7l1-3"/><path cx="631" cy="166" r="1.11" fill="#e2e2e2" stroke-width=".2" opacity=".6" d="M627.77 172.18l3.58-7.24.35 2.47z"/></g><g class="key-Malta_0" stroke="#ccc"><circle cx="319" cy="313" r="1.11" fill="#e2e2e2" opacity=".6"/><path stroke-linecap="round" fill="none" stroke-width=".41" opacity=".6" d="M319 313l-1 3v-7l2-10 5-9 8 8 6-6 7-26 9 8 7-7 5 2 6 4 6 20 1 1 26-25 14-12 6-12h9l5-1 5-1 4 4 3 5-4-3-1 9 1-20 3 23 3-18 9 6 5-12 4 21 5-16 1 4 2 12 4 19 5-30 2 2 9 2 8-3 6-1 5 5-2-8 4 14-1-2v-9l1 6 1-13 4 5 3-5 1 2 4-14v6l3-8 2 2"/><path cx="539" cy="228" r="1.11" fill="#e2e2e2" stroke-width=".2" opacity=".6" d="M534.92 222.34l4.87 6.45-2.36-.79z"/></g><g class="key-Brunei_0" stroke="#ccc"><circle cx="630" cy="409" r="1.11" fill="#e2e2e2" opacity=".6"/><path stroke-linecap="round" fill="none" stroke-width=".41" opacity=".6" d="M630 409l5-7 4 7 3 3h8l-4-6 10-6 4-1-1-12 15-6 5-8h-9l-24-4-7-8-2-15-10-10-41 11 6 7-15-24 6-5 3-2-4 17 1-2h-7l-7-13-8 11 23-3-15-6-13-17 12 15 16 8-5 3 1-25 7-1 10 4 14 2 8 7-6-5 11-8-25 9 3-3 16-5h-1l-7-1"/><path cx="610" cy="310" r="1.11" fill="#e2e2e2" stroke-width=".2" opacity=".6" d="M616.66 312.08l-7.76-2.24 2.36-.78z"/></g><g class="key-Bahamas_0" stroke="#ccc"><circle cx="467" cy="305" r="1.11" fill="#e2e2e2" opacity=".6"/><path stroke-linecap="round" fill="none" stroke-width=".41" opacity=".6" d="M467 305h-1l-4 3 4 7-20-2-6 10 5-1 12 26 12 9 27-18-1-38-10 15-5-19-3 2 11-4 8 3 2-17h1l1 1 6-1-1 19-7-8-3 17-1 6 2 5 2 12 12-3 4-32h8l6-13 3-1-3-4h6l-4 9-4-2h4l-1 1 2-2-4-1-8-12v6l-2 8-1-29 1 9"/><path cx="517" cy="266" r="1.11" fill="#e2e2e2" stroke-width=".2" opacity=".6" d="M517.35 259.03l-.23 8.08-1.35-2.1z"/></g><g class="key-Iceland_0" stroke="#ccc"><circle cx="457" cy="173" r="1.11" fill="#e2e2e2" opacity=".6"/><path stroke-linecap="round" fill="none" stroke-width=".41" opacity=".6" d="M457 173h1l8 28 11 11 8-9 5 18-3 10-9 17 1-4 7-20 17 9-2-33 10 17 5 3-5-21 1 15 12-4 2-4 1-22 3 3 4-23 2 17-11 3 7-2-1 2 4-11 9 28 1 7-4-1-1 3 2 10-5-4v10l1-3 1 3 2 6 7-12 7-8 3-13v-4l1 4-1-24-3-2 7-14h4l2-11 2-5-1 3-5 8-6 4 1-2 1-9 4-4"/><path cx="564" cy="143" r="1.11" fill="#e2e2e2" stroke-width=".2" opacity=".6" d="M558.34 147.08l6.45-4.87-.79 2.36z"/></g><g class="key-Belize_0" stroke="#ccc"><circle cx="364" cy="359" r="1.11" fill="#e2e2e2" opacity=".6"/><path stroke-linecap="round" fill="none" stroke-width=".41" opacity=".6" d="M364 359l5-1 2 1-6 3 15-4-5-4-14-4h7l1-5 4-12 11-4-19 1v-2l-2 5v1l8 1 7 2 7-5 3-2 5 36 9-13-7-3 4-16 8 5 6-3 6-3-10 9-3-6v20l5-8 3 3 3-9 2-4 1 12-1-12 2-2 1 9-3-1-2-4 4-7 1 2 2-15v7"/><path cx="424" cy="327" r="1.11" fill="#e2e2e2" stroke-width=".2" opacity=".6" d="M425.11 320.11l-1.11 8-1.11-2.22z"/></g><g class="key-Maldives_0" stroke="#ccc"><circle cx="285" cy="411" r="1.11" fill="#e2e2e2" opacity=".6"/><path stroke-linecap="round" fill="none" stroke-width=".41" opacity=".6" d="M285 411l1 4-1 21-2-10 3 6-6 5-9-4 5 9h12l15 4 26-15 2-1 14 2-11-12 8-6 7 1 5-2 5 1 4-6 5-20 9 18 5-5 2-4 3-6 3-2 3 2 8-2 6-7 6-11 1-4 8-1 2-2 4-3 8 8 13-6-9 5 18 8 11-11 1-3-9-1v-12h6l1 20 2-11"/><path cx="470" cy="358" r="1.11" fill="#e2e2e2" stroke-width=".2" opacity=".6" d="M467.67 364.58l2.53-7.67.7 2.38z"/></g><g class="key-Barbados_0" stroke="#ccc"><circle cx="434" cy="376" r="1.11" fill="#e2e2e2" opacity=".6"/><path stroke-linecap="round" fill="none" stroke-width=".41" opacity=".6" d="M434 376l4-5 4-12-3-5v-10l4 9 10-8 1-3 10-10 9-12 3-24-1-5h4-5l7 13-21-12 1 10-2-7 4-4 3-9-3-6-4-5 1 20 3-6v1l8-18 7-2 3 2 8-20h-1l1 12v-2l4 7 4 1 2-2 10 8 4-22-2 27 1-5 1 18-7 10-3 1-1 1 2 1 2-12 1 7v-7l-5-2-4-3-8 3-8 7-6 3-1-3"/><path cx="475" cy="296" r="1.11" fill="#e2e2e2" stroke-width=".2" opacity=".6" d="M476.12 302.89l-1.47-7.95 1.76 1.76z"/></g><g class="key-Saint-Lucia_0" stroke="#ccc"><circle cx="339" cy="378" r="1.11" fill="#e2e2e2" opacity=".6"/><path stroke-linecap="round" fill="none" stroke-width=".41" opacity=".6" d="M339 378l4-5h0l2 2 5 4-3-1 22-3 7-17 10-1 2 8-2 2-5-7 3-6 3 2 5-13 6 4 8 12 2 13 5 10v-9l3-6-2-15h4l1-8-3-14 4 3 6-5-3-2 4 5 1-15-6-1-9 12 4-4 14-1 5-9v-4h-9l10 3 4 9 2 1 1-5 2 5-1-2-1-2"/><path cx="444" cy="318" r="1.11" fill="#e2e2e2" stroke-width=".2" opacity=".6" d="M446.09 324.66L443.5 317l2 1.49z"/></g><g class="key-Sao-Tome-and-Principe_0" stroke="#ccc"><circle cx="308" cy="350" r="1.11" fill="#e2e2e2" opacity=".6"/><path stroke-linecap="round" fill="none" stroke-width=".41" opacity=".6" d="M308 350l3 5 1 1 2 3 3 1 3-7-1 12 13-11 4 2 10-1-17-4-11 1 1-14-5-7-4 3 2-7-6 17h-4l-5-24 9 2h-3l-3 18-3 18-1 2-2 2-5 6 3 4v2l5-3-2-7 4-12 6-7 1-4 2-4 4 5 2-6 2-5-1 1 2-2 1-5 9 2 8-2h7l2-3"/><path cx="344" cy="322" r="1.11" fill="#e2e2e2" stroke-width=".2" opacity=".6" d="M339.25 327.11l5.37-6.04-.31 2.47z"/></g><g class="key-Saint-Vincent-and-the-Grenadines_0" stroke="#ccc"><circle cx="342" cy="373" r="1.11" fill="#e2e2e2" opacity=".6"/><path stroke-linecap="round" fill="none" stroke-width=".41" opacity=".6" d="M342 373l2-5h16-7l-9 5-17 1 27-1-9-3 11 3v-5 2l7-3h4l4-4 4 2 3-7 5 3v-7l13 3-1-1-2-19h8l11-2-3 3-3 30 4-15 2 5-1-1-3 2 4-10 3 11v-6l5-17 4-3 3-6 2-3 5-1v1l5-4v-4l-3-7 1 1 1 9 2-3"/><path cx="440" cy="317" r="1.11" fill="#e2e2e2" stroke-width=".2" opacity=".6" d="M435.25 322.11l5.37-6.04-.31 2.47z"/></g><g class="key-Grenada_0" stroke="#ccc"><circle cx="297" cy="352" r="1.11" fill="#e2e2e2" opacity=".6"/><path stroke-linecap="round" fill="none" stroke-width=".41" opacity=".6" d="M297 352l6-2 8-1 5 4 6-3h9l7 4 1-10 6-3 3-2-6 3-4-4 2 9v5l5-10 5-2v1l12-39 3 6 10 5 6-5h1l12 15-2-9 4-1v3l8-6 2-2 9 2 3 4 3-1v-17l4 11h7l1-9 10 5v-10l6 4 3 2-4 3 1-12 2 8-1 1 1 1"/><path cx="451" cy="300" r="1.11" fill="#e2e2e2" stroke-width=".2" opacity=".6" d="M446.92 294.34l4.87 6.45-2.36-.79z"/></g><g class="key-Antigua-and-Barbuda_0" stroke="#ccc"><circle cx="376" cy="334" r="1.11" fill="#e2e2e2" opacity=".6"/><path stroke-linecap="round" fill="none" stroke-width=".41" opacity=".6" d="M376 334l5 2 4 16 6 18 3 3-6-10-9 18 6 12v-10l18-17-3-25 4-9 20 5 4-9-11-33 8 12 15-8 6-10 11-5 4-19 4 8 1-20v20l5 21 2 34-6 6 2-5 3-4 4 1 2-3 1 6-1 5 3-2 2-1 3-1 5-17 9-3 8-5 5 5-5-1h-7v-9l2-8h0"/><path cx="503" cy="292" r="1.11" fill="#e2e2e2" stroke-width=".2" opacity=".6" d="M496.11 290.89l8 1.11-2.22 1.11z"/></g><g class="key-Dominica_0" stroke="#ccc"><circle cx="352" cy="399" r="1.11" fill="#e2e2e2" opacity=".6"/><path stroke-linecap="round" fill="none" stroke-width=".41" opacity=".6" d="M352 399l3 2 8-6 10-3v1l2-6 1 6-2-22 9-4-14 10 4-8 12-1 5-2h5l2-17 2 1 9-21 4-9 4 5-1-22 6 3-5 9 10 2 3-7-2 9 1 5-1-6-2-2 8 5 1 1-3-20-3 1h0l-3 7 2 3v9l6 4 5-8 6-5v12l1-3h1-2v6"/><path cx="444" cy="328" r="1.11" fill="#e2e2e2" stroke-width=".2" opacity=".6" d="M445.11 321.11l-1.11 8-1.11-2.22z"/></g><g class="key-Bermuda_0" stroke="#ccc"><circle cx="503" cy="208" r="1.11" fill="#e2e2e2" opacity=".6"/><path stroke-linecap="round" fill="none" stroke-width=".41" opacity=".6" d="M503 208l2 10 1-4v3l2-1 8-1 1 8v-23l4-2 3-2-2-6 3 6 2-14-1 16 4-12 5 16 3 4v5l-2-1-1 19-2-27 3 1 1 53 4-7 3 2 4-8 4-1 4 19 4-8 9-5-1-3 5-6 4 15 3-12 6-7 6-8 5-14-2 7h2v1l-4-3-1 26"/><path cx="592" cy="244" r="1.11" fill="#e2e2e2" stroke-width=".2" opacity=".6" d="M593.38 237.16l-1.42 7.95-1.03-2.26z"/></g><g class="key-Saint-Kitts-and-Nevis_0" stroke="#ccc"><circle cx="341" cy="358" r="1.11" fill="#e2e2e2" opacity=".6"/><path stroke-linecap="round" fill="none" stroke-width=".41" opacity=".6" d="M341 358l9-3 7-4h-10l24-5h5l3 1 2-9 9 4 9-7 6 12 5 3-2-25 1-2 8-4 4-8 9-19 6-3-1 2 6 2 5 18 3-5-1 2 3 20 6-1 3-11 7-6 1 9 3 8 9 6 1-21-3 5 4-9-7 2 7-8 8 13 4 2 4-1 5-14-2 12v-7l3-5v4l5-11"/><path cx="509" cy="295" r="1.11" fill="#e2e2e2" stroke-width=".2" opacity=".6" d="M505.14 300.81l4.32-6.82.1 2.48z"/></g><g class="key-Yemen_0" stroke="#ccc"><circle cx="205" cy="409" r="1.11" fill="#e2e2e2" opacity=".6"/><path stroke-linecap="round" fill="none" stroke-width=".41" opacity=".6" d="M205 409l12 3-6 6-2-7-2-1-1 8 7 1 13 8 8-5 8 2 7-3 8-10 10 4 11-7 14-6 21-8 33 1 4-2 2 2 5 7v4l11 1-7-2-8-7v-3"/><path cx="353" cy="395" r="1.11" fill="#e2e2e2" stroke-width=".2" opacity=".6" d="M351.89 401.89l1.11-8 1.11 2.22z"/></g><text x="379.47" y="326.76" font-size="11.44" font-family="Arial Narrow, Arial, sans-serif" fill="#aaa">Pakistan</text><text x="517.82" y="249.07" font-size="11.35" font-family="Arial Narrow, Arial, sans-serif" fill="#aaa">Russia</text><text x="271.93" y="448.18" font-size="11.21" font-family="Arial Narrow, Arial, sans-serif" fill="#aaa">Ethiopia</text><text x="486.54" y="324.46" font-size="11.19" font-family="Arial Narrow, Arial, sans-serif" fill="#aaa">Iran</text><text x="424.25" y="376.17" font-size="11.17" font-family="Arial Narrow, Arial, sans-serif" fill="#aaa">Thailand</text><text x="552" y="144.57" font-size="11.15" font-family="Arial Narrow, Arial, sans-serif" fill="#aaa">Italy</text><text x="314.54" y="408.1" font-size="11.12" font-family="Arial Narrow, Arial, sans-serif" fill="#aaa">Tanzania</text><text x="387" y="343" font-size="11.12" font-family="Arial Narrow, Arial, sans-serif" fill="#aaa">Myanmar</text><text x="548.37" y="272.37" font-size="11.12" font-family="Arial Narrow, Arial, sans-serif" fill="#aaa">South Korea</text><text x="463.57" y="306.71" font-size="11.12" font-family="Arial Narrow, Arial, sans-serif" fill="#aaa">Colombia</text><text x="550" y="161" font-size="11.11" font-family="Arial Narrow, Arial, sans-serif" fill="#aaa">Spain</text><text x="521.24" y="215.53" font-size="11.09" font-family="Arial Narrow, Arial, sans-serif" fill="#aaa">Poland</text><text x="427.24" y="322.23" font-size="11.09" font-family="Arial Narrow, Arial, sans-serif" fill="#aaa">Algeria</text><text x="313.54" y="377.46" font-size="11.08" font-family="Arial Narrow, Arial, sans-serif" fill="#aaa">Nepal</text><text x="570.16" y="200.23" font-size="11.06" font-family="Arial Narrow, Arial, sans-serif" fill="#aaa">Taiwan</text><text x="444" y="391" font-size="11.05" font-family="Arial Narrow, Arial, sans-serif" fill="#aaa">Sri Lanka</text><text x="349.2" y="363.16" font-size="11.05" font-family="Arial Narrow, Arial, sans-serif" fill="#aaa">Cote d&apos;Ivoire</text><text x="234.71" y="394.47" font-size="11.04" font-family="Arial Narrow, Arial, sans-serif" fill="#aaa">Niger</text><text x="254.71" y="350.12" font-size="11.04" font-family="Arial Narrow, Arial, sans-serif" fill="#aaa">Mali</text><text x="201.76" y="408.88" font-size="11.04" font-family="Arial Narrow, Arial, sans-serif" fill="#aaa">Malawi</text><text x="343.25" y="420.2" font-size="11.04" font-family="Arial Narrow, Arial, sans-serif" fill="#aaa">Cambodia</text><text x="362.74" y="407.42" font-size="11.03" font-family="Arial Narrow, Arial, sans-serif" fill="#aaa">Zambia</text><text x="319" y="337" font-size="11.03" font-family="Arial Narrow, Arial, sans-serif" fill="#aaa">Senegal</text><text x="310.47" y="394.76" font-size="11.03" font-family="Arial Narrow, Arial, sans-serif" fill="#aaa">Chad</text><text x="571.54" y="112.46" font-size="11.03" font-family="Arial Narrow, Arial, sans-serif" fill="#aaa">Belgium</text><text x="407.15" y="283.53" font-size="11.03" font-family="Arial Narrow, Arial, sans-serif" fill="#aaa">Tunisia</text><text x="276" y="361" font-size="11.03" font-family="Arial Narrow, Arial, sans-serif" fill="#aaa">Guinea</text><text x="288" y="402.51" font-size="11.03" font-family="Arial Narrow, Arial, sans-serif" fill="#aaa">Haiti</text><text x="610" y="299" font-size="11.02" font-family="Arial Narrow, Arial, sans-serif" fill="#aaa">United Arab Emirates</text><text x="604.77" y="157.67" font-size="11.01" font-family="Arial Narrow, Arial, sans-serif" fill="#aaa">Norway</text><text x="574.45" y="215.49" font-size="11.01" font-family="Arial Narrow, Arial, sans-serif" fill="#aaa">Ireland</text><text x="551.47" y="236.74" font-size="11.01" font-family="Arial Narrow, Arial, sans-serif" fill="#aaa">New Zealand</text><text x="234.64" y="373.36" font-size="11.01" font-family="Arial Narrow, Arial, sans-serif" fill="#aaa">Liberia</text><text x="443.57" y="346.79" font-size="11.01" font-family="Arial Narrow, Arial, sans-serif" fill="#aaa">Bosnia and Herzegovina</text><text x="507.98" y="321.58" font-size="11.01" font-family="Arial Narrow, Arial, sans-serif" fill="#aaa">Panama</text><text x="383.74" y="310.09" font-size="11.01" font-family="Arial Narrow, Arial, sans-serif" fill="#aaa">Moldova</text><text x="287.58" y="348.25" font-size="11" font-family="Arial Narrow, Arial, sans-serif" fill="#aaa">Gambia</text><text x="475.07" y="185.45" font-size="11" font-family="Arial Narrow, Arial, sans-serif" fill="#aaa">Montenegro</text><text x="662.54" y="200.46" font-size="11" font-family="Arial Narrow, Arial, sans-serif" fill="#aaa">Macao</text><g class="key-China_0"><defs><marker id="c" fill="#d14e5b" viewBox="0 -5 10 10" refX="5" refY="0" marker-width="4" marker-height="4" orient="auto"><path d="M0-5l10 5L0 5"/></marker><marker id="b" viewBox="0 0 12 12" refX="4" refY="4" orient="auto" fill="#d14e5b"><circle cx="4" cy="4" r="4"/></marker></defs><circle cx="234" cy="475" r="2.69" fill="none" stroke="#d14e5b" opacity=".6"/><path stroke-linecap="round" stroke="#d14e5b" fill="none" stroke-width="1.69" opacity=".6" marker-start="url(#b)" marker-mid="url(#b)" marker-end="url(#c)" d="M234 475l8-3 7-8 8-6 5-4 4-3-6-1-6 3 8 2 7-2 4-2-2-1 4-1h-1l2-1-2 2 1-2 10-5 2-7 1-8 2-3 7-6 4-2 8-7 5-6 3-3 5-4 1-3-2-5 1-8 4-3 6-3 6-8 6-11 9-6 2 1 5-5-1-8 5-3 4-8h6l8-4 7-5 8-2 9-5 9-7 8-6 2-3 7-8 7-4h6l6-4 5-1"/></g><g class="key-India_0"><defs><marker id="e" fill="#d14e5b" viewBox="0 -5 10 10" refX="5" refY="0" marker-width="4" marker-height="4" orient="auto"><path d="M0-5l10 5L0 5"/></marker><marker id="d" viewBox="0 0 12 12" refX="4" refY="4" orient="auto" fill="#d14e5b"><circle cx="4" cy="4" r="4"/></marker></defs><circle cx="252" cy="437" r="2.66" fill="none" stroke="#d14e5b" opacity=".6"/><path stroke-linecap="round" stroke="#d14e5b" fill="none" stroke-width="1.66" opacity=".6" marker-start="url(#d)" marker-mid="url(#d)" marker-end="url(#e)" d="M252 437l2-2 4 2 4 1-3 1-3 1h5l2-1h7l-1-2 1 2 1 1 3-5-4 3 6-3-2 2-2-5-3-2-8 4-2-2-2-2h-2l-1-5-2-2-1 2 3-2h4l5-6 4-4 3 2h1l3-3 4 4 4-5 5-4 6-7 3-2 4 6 5-7 2 4 3 3 4-2h6l5-2 7-4 8-4 8-4 5 4 8-7 9 2 7-2 3-1 4 1"/></g><g class="key-United-States_0"><defs><marker id="g" fill="#4d824b" viewBox="0 -5 10 10" refX="5" refY="0" marker-width="4" marker-height="4" orient="auto"><path d="M0-5l10 5L0 5"/></marker><marker id="f" viewBox="0 0 12 12" refX="4" refY="4" orient="auto" fill="#4d824b"><circle cx="4" cy="4" r="4"/></marker></defs><circle cx="492" cy="243" r="2.24" fill="none" stroke="#4d824b" opacity=".6"/><path stroke-linecap="round" stroke="#4d824b" fill="none" stroke-width="1.24" opacity=".6" marker-start="url(#f)" marker-mid="url(#f)" marker-end="url(#g)" d="M492 243l4 3 2-4 4-9 4 3 5-3 1-4 3-4 2-1-1-4 2-1 4-4 4 12-2-4-2 1 5-20 3 7 4-9 1-4-2 1 1-11-2 4 3-9 6-6 3-15 2 12 2-5 2-3 2 10 1-4-1-4 2-3 2-3 3-5 1 12 3 8 3-6 3-8 3-9 2-19v-1l1-13 1 4 3-8 2-8 1 6 1-2-2 5-3 5 1-2 1-4 1-1 1 1"/></g><g class="key-Brazil_0"><defs><marker id="i" fill="#69c487" viewBox="0 -5 10 10" refX="5" refY="0" marker-width="4" marker-height="4" orient="auto"><path d="M0-5l10 5L0 5"/></marker><marker id="h" viewBox="0 0 12 12" refX="4" refY="4" orient="auto" fill="#69c487"><circle cx="4" cy="4" r="4"/></marker></defs><circle cx="329" cy="419" r="2.15" fill="none" stroke="#69c487" opacity=".6"/><path stroke-linecap="round" stroke="#69c487" fill="none" stroke-width="1.15" opacity=".6" marker-start="url(#h)" marker-mid="url(#h)" marker-end="url(#i)" d="M329 419l3-5-1 2 1-4v-2l3-5 3 1 5-6 2 1 8-2 7-1 8-4 10 1 2-19 2 3 6 3 1-14 1-11 3-3-2-4-1 5 1 2h-3 3l2-4 9-13 1-4v-8-9l-4 3 4-11 1 4 5 4 9-2 12-3 14-3-4-8-4-3-5-24v-7h-2v-3l-1-7 4-4v7l7-7 8-4 7-10 3 1 12-6 8-7-1-2 2-3"/></g><g class="key-Japan_0"><defs><marker id="k" fill="#d14e5b" viewBox="0 -5 10 10" refX="5" refY="0" marker-width="4" marker-height="4" orient="auto"><path d="M0-5l10 5L0 5"/></marker><marker id="j" viewBox="0 0 12 12" refX="4" refY="4" orient="auto" fill="#d14e5b"><circle cx="4" cy="4" r="4"/></marker></defs><circle cx="399" cy="428" r="2.08" fill="none" stroke="#d14e5b" opacity=".6"/><path stroke-linecap="round" stroke="#d14e5b" fill="none" stroke-width="1.08" opacity=".6" marker-start="url(#j)" marker-mid="url(#j)" marker-end="url(#k)" d="M399 428l7-5 6-7 8-4 4-3 8-10 8-4 9-4 9-8 7-5 4-5 7-9 5-4-3 1 1-1 5-6 4-2 6-6 4-2 2-3-1-6h-2l-2-4v-3l2-2 5-5 5-3 8-6 7-2 6-1 5-1 2-2h2l3-4 4 1 2-10h0l-2 3-1-1 2-3v1 3l1 1 2-5v-1l1 3 2 1h-2l-3 8 3-5-1 1h2l1 2"/></g><g class="key-France_0"><defs><marker id="m" fill="#ffd336" viewBox="0 -5 10 10" refX="5" refY="0" marker-width="4" marker-height="4" orient="auto"><path d="M0-5l10 5L0 5"/></marker><marker id="l" viewBox="0 0 12 12" refX="4" refY="4" orient="auto" fill="#ffd336"><circle cx="4" cy="4" r="4"/></marker></defs><circle cx="450" cy="251" r="2.01" fill="none" stroke="#ffd336" opacity=".6"/><path stroke-linecap="round" stroke="#ffd336" fill="none" stroke-width="1.01" opacity=".6" marker-start="url(#l)" marker-mid="url(#l)" marker-end="url(#m)" d="M450 251l4-6 4-3 5-1 3-14h4l3-11 3-11 5-1 5-1 4-2 4-3 5 1 1-3v-2l4-11 2-9 5-12 3-6v-5l-3-7v5l-1-3-2-3-1-7h3l2-16 5-3 3-5 2 7v-6l1-3v2l1 1 2-2 1 4 5-9 5-4 3-1 4-4 2-4 1 1-5 7 2 16 2-3h2l5 6v-17l-1 6 2 4 2 5v9l3-4"/></g><g class="key-United-Kingdom_0"><defs><marker id="o" fill="#ffd336" viewBox="0 -5 10 10" refX="5" refY="0" marker-width="4" marker-height="4" orient="auto"><path d="M0-5l10 5L0 5"/></marker><marker id="n" viewBox="0 0 12 12" refX="4" refY="4" orient="auto" fill="#ffd336"><circle cx="4" cy="4" r="4"/></marker></defs><circle cx="460" cy="180" r="2.01" fill="none" stroke="#ffd336" opacity=".6"/><path stroke-linecap="round" stroke="#ffd336" fill="none" stroke-width="1.01" opacity=".6" marker-start="url(#n)" marker-mid="url(#n)" marker-end="url(#o)" d="M460 180l1-4 2 7 5-1 1-3 2-8 2 4 2-6h2l2-3 1 2 2 4 4 4-5 3-1 9 4-7 4 12 7-7 5-6 2 3-2 1v1l2-3 1 3 2-6 2-4 5-1 4 4 3 4 1-4-1 1 1-21 3 9 2 6 4 4 4-8 6-1 4-2 3-2 5 4 2-2 1 15v5l3-10 1-5 2-19 1 16-2 2-4 1-2-7v11l3-1h3"/></g><g class="key-Chile_0"><defs><marker id="q" fill="#69c487" viewBox="0 -5 10 10" refX="5" refY="0" marker-width="4" marker-height="4" orient="auto"><path d="M0-5l10 5L0 5"/></marker><marker id="p" viewBox="0 0 12 12" refX="4" refY="4" orient="auto" fill="#69c487"><circle cx="4" cy="4" r="4"/></marker></defs><circle cx="382" cy="383" r="1.93" fill="none" stroke="#69c487" opacity=".6"/><path stroke-linecap="round" stroke="#69c487" fill="none" stroke-width=".93" opacity=".6" marker-start="url(#p)" marker-mid="url(#p)" marker-end="url(#q)" d="M382 383l16-1 3-9v13l-1-1 7-9 2-5 2-13 5 8-2-1 7 8-2 4-4 16-3-18-21 12 5-5 3 2 5-16 7 1 3-8 3 4-14 3-3-1v8-1l3 2 4 3 8-4 5-3v-13l5-9 7-9 3-6 7-6 11-7 2-3 1 1-2-3-4 1 1-9-1-2v-2l4-2 9 3 6 9 13-15 6-3-2 4 1 6 11 3 6-5 2-3 2-8"/></g><g class="key-Gabon_0"><defs><marker id="s" fill="#5675c1" viewBox="0 -5 10 10" refX="5" refY="0" marker-width="4" marker-height="4" orient="auto"><path d="M0-5l10 5L0 5"/></marker><marker id="r" viewBox="0 0 12 12" refX="4" refY="4" orient="auto" fill="#5675c1"><circle cx="4" cy="4" r="4"/></marker></defs><circle cx="337" cy="453" r="1.89" fill="none" stroke="#5675c1" opacity=".6"/><path stroke-linecap="round" stroke="#5675c1" fill="none" stroke-width=".89" opacity=".6" marker-start="url(#r)" marker-mid="url(#r)" marker-end="url(#s)" d="M337 453l9-1 15-3 8 1h9l-10-2 10-4v-7l4-5 11-1 8-3-5-1 11 9 23-9-1-13 15 4-4-3 7-16 7 9 10 1-1-1-9-11 6 7-3-14-10 19-20 1-9-8-7-2 23-18-2 19 4-10-6 2-3-10 4 8h1l7-2-15-1-11-6 10-11 19 2h-3v4l9-1 15 2 28-5-7-5-1 2 2 17-24 1 4-6 15-12 2 1-5-4"/></g><text x="213.4" y="480.76" font-size="8" font-family="Arial Narrow, Arial, sans-serif" fill="#333">1961</text><text x="460.9" y="277.02" font-size="15.6" font-family="Arial Narrow, Arial, sans-serif" fill="#333">China</text><text x="232.54" y="444.54" font-size="8" font-family="Arial Narrow, Arial, sans-serif" fill="#333">1961</text><text x="388.85" y="393.9" font-size="15.38" font-family="Arial Narrow, Arial, sans-serif" fill="#333">India</text><text x="472.08" y="240" font-size="8" font-family="Arial Narrow, Arial, sans-serif" fill="#333">1961</text><text x="585.54" y="126.96" font-size="12.84" font-family="Arial Narrow, Arial, sans-serif" fill="#333">United States</text><text x="310.51" y="427.29" font-size="8" font-family="Arial Narrow, Arial, sans-serif" fill="#333">1961</text><text x="480.77" y="219.84" font-size="12.53" font-family="Arial Narrow, Arial, sans-serif" fill="#333">Brazil</text><text x="379.01" y="434.91" font-size="8" font-family="Arial Narrow, Arial, sans-serif" fill="#333">1961</text><text x="553.24" y="311.64" font-size="12.33" font-family="Arial Narrow, Arial, sans-serif" fill="#333">Japan</text><text x="431.31" y="259.16" font-size="8" font-family="Arial Narrow, Arial, sans-serif" fill="#333">1961</text><text x="442.87" y="188.85" font-size="8" font-family="Arial Narrow, Arial, sans-serif" fill="#333">1961</text><text x="564" y="174" font-size="12.17" font-family="Arial Narrow, Arial, sans-serif" fill="#333">United Kingdom</text><text x="361.09" y="387.31" font-size="8" font-family="Arial Narrow, Arial, sans-serif" fill="#333">1961</text><text x="509.21" y="289.15" font-size="12.05" font-family="Arial Narrow, Arial, sans-serif" fill="#333">Chile</text><text x="316.11" y="457.55" font-size="8" font-family="Arial Narrow, Arial, sans-serif" fill="#333">1961</text><text x="436.84" y="363.88" font-size="12" font-family="Arial Narrow, Arial, sans-serif" fill="#333">Gabon</text></g><g class="ScatterColorLegend clickable" cursor="pointer"><g class="legendMark">,<path fill="#5675c1" d="M735 96.9h6v6h-6z"/>,<text font-size="12.6" x="746" y="104"><tspan x="746" y="103.98">Africa</tspan></text></g><g class="legendMark">,<path fill="#d14e5b" d="M735 114.5h6v6h-6z"/>,<text font-size="12.6" x="746" y="121.6"><tspan x="746" y="121.58">Asia</tspan></text></g><g class="legendMark">,<path fill="#ffd336" d="M735 132.1h6v6h-6z"/>,<text font-size="12.6" x="746" y="139.2"><tspan x="746" y="139.18">Europe</tspan></text></g><g class="legendMark">,<path fill="#4d824b" d="M735 149.7h6v6h-6z"/>,<text font-size="12.6" x="746" y="156.8"><tspan x="746" y="156.78">North America</tspan></text></g><g fill="#ccc" class="legendMark">,<path d="M735 167.3h6v6h-6z"/>,<text font-size="12.6" x="746" y="174.4"><tspan x="746" y="174.38">Oceania</tspan></text></g><g class="legendMark">,<path fill="#69c487" d="M735 184.9h6v6h-6z"/>,<text font-size="12.6" x="746" y="192"><tspan x="746" y="191.98">South America</tspan></text></g></g><path stroke="#ccc" d="M735 201.5h95"/><g class="clickable"><g class="ConnectedScatterLegend"><text font-size="12.6" x="735" y="220.6" fill="#333"><tspan x="735" y="220.58">1961</tspan></text><text font-size="12.6" x="806.8" y="220.6" fill="#333"><tspan x="806.78" y="220.58">2013</tspan></text><path stroke="#666" stroke-width="1" d="M768.22 216.3h33.56"/><circle cx="768.22" cy="216.3" r="2" fill="#666" stroke="#ccc" stroke-width=".2"/><circle cx="779.41" cy="216.3" r="2" fill="#666" stroke="#ccc" stroke-width=".2"/><circle cx="790.59" cy="216.3" r="2" fill="#666" stroke="#ccc" stroke-width=".2"/><path cx="801.78" cy="216.3" r="3" fill="#666" stroke="#ccc" stroke-width=".2" d="M796.78 213.3l8 3-6 3z"/></g></g></g><g class="SourcesFooter" fill="#777"><g class="clickable" fill="#777"><text font-size="12.6" x="15" y="581.6"><tspan x="15" y="581.58">Source: Penn World Table 9.0; and FAOstat</tspan></text></g><text font-size="12.6" x="552" y="581.6"><tspan x="552" y="581.58"><a target="_blank" href="https://ourworldindata.org/food-per-person/" fill="#777">OurWorldInData.org/food-per-person/</a>  <a href="http://creativecommons.org/licenses/by-sa/4.0/deed.en_US" target="_blank" fill="#777">CC BY-SA</a></tspan></text></g></g></svg>