<svg xmlns="http://www.w3.org/2000/svg" version="1.1" style="background-color:#fff;-webkit-font-smoothing:antialiased" width="850" height="600" font-family="'Helvetica Neue',Helvetica,Arial,sans-serif" font-size="18" text-rendering="optimizeLegibility"><g class="ChartTab"><g class="HeaderView"><g opacity=".8" transform="matrix(.31 0 0 .31 770 15)"><a xmlns:xlink="http://www.w3.org/1999/xlink" xlink:href="https://ourworldindata.org" target="_blank"><g><path fill="#1B2543" d="M0 0h211.2v130.1H0z"/><path fill="#E63912" d="M0 112.2h211.2v17.9H0z"/><g><path fill="none" d="M1.2 12.3h210.2v99.2H1.2z"/><path fill="#FFF" d="M37.8 32.2c0 12.7-7.7 19.4-17.1 19.4-9.7 0-16.6-7.5-16.6-18.7 0-11.7 7.3-19.3 17.1-19.3 10.1.1 16.6 7.7 16.6 18.6zm-28.6.6c0 7.9 4.3 14.9 11.8 14.9 7.5 0 11.8-6.9 11.8-15.3 0-7.3-3.8-14.9-11.8-14.9-7.9 0-11.8 7.3-11.8 15.3zM62.7 43.8c0 2.7.1 5.1.2 7.2h-4.3l-.3-4.3h-.1c-1.3 2.1-4 4.9-8.8 4.9-4.2 0-9.1-2.3-9.1-11.6V24.6h4.8v14.6c0 5 1.5 8.4 5.9 8.4 3.2 0 5.5-2.2 6.3-4.4.3-.7.4-1.6.4-2.5V24.6h4.8v19.2zM67.3 32.8c0-3.1-.1-5.8-.2-8.2h4.2l.2 5.2h.2c1.2-3.5 4.1-5.8 7.3-5.8.5 0 .9.1 1.4.2v4.5c-.5-.1-1-.2-1.6-.2-3.4 0-5.8 2.6-6.5 6.2-.1.7-.2 1.4-.2 2.2V51h-4.8V32.8zM95.4 51L86 14.2h5l4.4 18.6c1.1 4.6 2.1 9.2 2.7 12.7h.1c.6-3.7 1.8-8 3-12.8l4.9-18.5h5l4.5 18.7c1 4.4 2 8.7 2.6 12.6h.1c.8-4 1.8-8.1 3-12.7l4.9-18.5h4.9L120.6 51h-5L111 31.9c-1.1-4.7-1.9-8.3-2.4-12h-.1c-.7 3.7-1.5 7.3-2.8 12L100.4 51h-5zM154.9 37.6c0 9.8-6.8 14-13.2 14-7.2 0-12.7-5.2-12.7-13.6 0-8.8 5.8-14 13.1-14 7.7 0 12.8 5.5 12.8 13.6zm-21 .3c0 5.8 3.3 10.1 8 10.1 4.6 0 8-4.3 8-10.3 0-4.5-2.2-10.1-7.9-10.1s-8.1 5.2-8.1 10.3zM158.2 32.8c0-3.1-.1-5.8-.2-8.2h4.2l.2 5.2h.2c1.2-3.5 4.1-5.8 7.3-5.8.5 0 .9.1 1.4.2v4.5c-.5-.1-1-.2-1.6-.2-3.4 0-5.8 2.6-6.5 6.2-.1.7-.2 1.4-.2 2.2V51h-4.8V32.8zM173.5 12.3h4.8V51h-4.8V12.3zM206.5 12.3v31.9c0 2.3.1 5 .2 6.8h-4.3l-.2-4.6h-.2c-1.5 2.9-4.7 5.2-9 5.2-6.4 0-11.3-5.4-11.3-13.4-.1-8.8 5.4-14.2 11.9-14.2 4 0 6.8 1.9 8 4h.1V12.3h4.8zm-4.8 23.1c0-.6-.1-1.4-.2-2a7 7 0 00-6.9-5.6c-5 0-7.9 4.4-7.9 10.2 0 5.3 2.6 9.8 7.8 9.8 3.2 0 6.2-2.1 7.1-5.7.2-.7.2-1.3.2-2.1v-4.6zM42.8 64c.1 1.6-1.1 2.9-3.1 2.9-1.7 0-2.9-1.3-2.9-2.9 0-1.7 1.3-3 3-3 1.9 0 3 1.3 3 3zm-5.4 33.8V71.4h4.8v26.4h-4.8zM47.5 78.6c0-2.7-.1-5-.2-7.1h4.3l.3 4.4h.1c1.3-2.5 4.4-5 8.8-5 3.7 0 9.4 2.2 9.4 11.2v15.8h-4.8V82.6c0-4.3-1.6-7.8-6.1-7.8-3.2 0-5.6 2.2-6.5 4.9-.2.6-.3 1.4-.3 2.2v15.9h-4.8V78.6zM84 61.6c2.9-.4 6.3-.8 10.1-.8 6.8 0 11.7 1.6 14.9 4.6 3.3 3 5.2 7.3 5.2 13.2 0 6-1.9 10.9-5.3 14.3-3.4 3.4-9.1 5.3-16.3 5.3-3.4 0-6.2-.2-8.6-.4V61.6zm4.8 32.5c1.2.2 3 .3 4.8.3 10.2 0 15.7-5.7 15.7-15.6.1-8.7-4.9-14.2-14.9-14.2-2.5 0-4.3.2-5.6.5v29zM132.1 97.8l-.4-3.3h-.2a9.79 9.79 0 01-8.1 3.9c-5.4 0-8.1-3.8-8.1-7.6 0-6.4 5.7-9.9 15.9-9.8v-.5c0-2.2-.6-6.1-6-6.1-2.5 0-5 .8-6.9 2l-1.1-3.2c2.2-1.4 5.4-2.3 8.7-2.3 8.1 0 10.1 5.5 10.1 10.8v9.9c0 2.3.1 4.5.4 6.3h-4.3zm-.7-13.4c-5.3-.1-11.2.8-11.2 5.9 0 3.1 2.1 4.6 4.5 4.6 3.4 0 5.6-2.2 6.4-4.4.2-.5.3-1 .3-1.5v-4.6zM146.6 63.9v7.6h6.9v3.7h-6.9v14.2c0 3.3.9 5.1 3.6 5.1 1.3 0 2.2-.2 2.8-.3l.2 3.6c-.9.4-2.4.7-4.3.7-2.2 0-4-.7-5.2-2-1.4-1.4-1.9-3.8-1.9-6.9V75.1h-4.1v-3.7h4.1v-6.3l4.8-1.2zM171.4 97.8l-.4-3.3h-.2a9.79 9.79 0 01-8.1 3.9c-5.4 0-8.1-3.8-8.1-7.6 0-6.4 5.7-9.9 15.9-9.8v-.5c0-2.2-.6-6.1-6-6.1-2.5 0-5 .8-6.9 2l-1.1-3.2c2.2-1.4 5.4-2.3 8.7-2.3 8.1 0 10.1 5.5 10.1 10.8v9.9c0 2.3.1 4.5.4 6.3h-4.3zm-.7-13.4c-5.3-.1-11.2.8-11.2 5.9 0 3.1 2.1 4.6 4.5 4.6 3.4 0 5.6-2.2 6.4-4.4.2-.5.3-1 .3-1.5v-4.6z"/></g></g></a></g><a href="https://ourworldindata.org/grapher/dalys-from-mental-health-and-substance-use-disorders" target="_blank"><text font-size="21.6" x="15" y="32.3" fill="#555"><tspan x="15" y="32.28">DALYs (Disability-Adjusted Life Years) from mental health and substance</tspan><tspan x="15" y="53.88">use disorders, World</tspan></text></a><text font-size="14.4" x="15" y="72.7" fill="#666"><tspan x="15" y="72.72">Annual DALYs (Disability-Adjusted Life Years) lost from mental health and substance use disorders. DALYs are used to</tspan><tspan x="15" y="88.56">measure total burden of disease - both from years of life lost and years lived with a disability. One DALY equals one lost year of</tspan><tspan x="15" y="104.4">healthy life.</tspan></text></g><g class="StackedArea"><defs><clipPath id="a"><path d="M97.6 0h820v859.8h-820z"/></clipPath></defs><g class="AxisBoxView"><g class="HorizontalAxis" fill="#666" text-anchor="middle" font-size="16.2"><text x="97.6" y="556.5">1990</text><text x="212.1" y="556.5">1995</text><text x="326.6" y="556.5">2000</text><text x="441.1" y="556.5">2005</text><text x="555.6" y="556.5">2010</text><text x="693" y="556.5">2016</text></g><g class="VerticalAxis" fill="#666" dominant-baseline="middle" text-anchor="end" font-size="16.2"><text x="92.6" y="535.3">0</text><text x="92.6" y="473.9">20 million</text><text x="92.6" y="412.6">40 million</text><text x="92.6" y="351.2">60 million</text><text x="92.6" y="289.9">80 million</text><text x="92.6" y="228.5">100 million</text><text x="92.6" y="167.1">120 million</text></g><g class="AxisGridLines"><path stroke="#ccc" d="M97.6 535.3h595.43"/><path stroke="#ddd" stroke-dasharray="3,2" d="M97.6 473.9h595.43M97.6 412.6h595.43M97.6 351.2h595.43M97.6 289.9h595.43M97.6 228.5h595.43M97.6 167.1h595.43"/></g><g class="AxisGridLines" stroke="#ddd" stroke-dasharray="3,2"><path d="M97.6 535.3V126.6M212.1 535.3V126.6M326.6 535.3V126.6M441.1 535.3V126.6M555.6 535.3V126.6M670.1 535.3V126.6"/></g></g><g clip-path="url(#a)"><g class="HeightedLegend clickable"><g class="legendMark"><path fill="#818282" d="M698.03 141.25h10v2.5h-10z"/><text font-size="14.4" x="713" y="131.3" fill="#333"><tspan x="713.03" y="131.32">Other mental and</tspan><tspan x="713.03" y="147.16">substance use</tspan><tspan x="713.03" y="163">disorders</tspan></text></g><g class="legendMark"><path fill="#7ec7ce" d="M698.03 171.15h10v2.5h-10z"/><text font-size="14.4" x="713" y="176.7" fill="#333"><tspan x="713.03" y="176.72">Eating disorders</tspan></text></g><g class="legendMark"><path fill="#34983f" d="M698.03 185.55h10v2.5h-10z"/><text font-size="14.4" x="713" y="191.1" fill="#333"><tspan x="713.03" y="191.12">Schizophrenia</tspan></text></g><g class="legendMark"><path fill="#f6a324" d="M698.03 229.85h10v2.5h-10z"/><text font-size="14.4" x="713" y="227.7" fill="#333"><tspan x="713.03" y="227.67">Alcohol use</tspan><tspan x="713.03" y="243.51">disorders</tspan></text></g><g class="legendMark"><path fill="#a652ba" d="M698.03 286.05h10v2.5h-10z"/><text font-size="14.4" x="713" y="291.6" fill="#333"><tspan x="713.03" y="291.62">Drug use disorders</tspan></text></g><g class="legendMark"><path fill="#ca2628" d="M698.03 357.85h10v2.5h-10z"/><text font-size="14.4" x="713" y="363.4" fill="#333"><tspan x="713.03" y="363.42">Anxiety disorders</tspan></text></g><g class="legendMark"><path fill="#3360a9" d="M698.03 466.25h10v2.5h-10z"/><text font-size="14.4" x="713" y="464.1" fill="#333"><tspan x="713.03" y="464.07">Depressive</tspan><tspan x="713.03" y="479.91">disorders</tspan></text></g></g><g class="Areas"><path d="M97.6 444.8l22.9-1.6 22.9-1.7 22.9-1.6 22.9-1.8 22.9-1.7 22.9-2 22.9-1.8 22.9-2 22.9-2 22.9-2.2 22.9-1.8 22.9-1.9 22.9-1.9 22.9-2 22.9-2 22.9-1.3 22.9-1.4 22.9-1.4 22.9-1.4 22.9-1.5 22.9-1.6 22.9-1.6 22.9-1.6 22.9-1.8 22.9-1.8 22.9-1.7.03 135.6H97.6" fill="#3360a9" fill-opacity=".7" class="World_0-area"/><path d="M97.6 389.9l22.9-2.6 22.9-2.7 22.9-2.8 22.9-2.8 22.9-2.7 22.9-3.2 22.9-3 22.9-3.1 22.9-3.2 22.9-3.3 22.9-2.9 22.9-2.8 22.9-2.9 22.9-3 22.9-2.8 22.9-2.3 22.9-2.5 22.9-2.4 22.9-2.4 22.9-2.4 22.9-2.6 22.9-2.5 22.9-2.5 22.9-2.5 22.9-2.8 22.9-2.6v81.1l-22.9 1.7-22.9 1.8-22.9 1.8-22.9 1.6-22.9 1.6-22.9 1.6-22.9 1.5-22.9 1.4-22.9 1.4-22.9 1.4-22.9 1.3-22.9 2-22.9 2-22.9 1.9-22.9 1.9-22.9 1.8-22.9 2.2-22.9 2-22.9 2-22.9 1.8-22.9 2-22.9 1.7-22.9 1.8-22.9 1.6-22.9 1.7-22.9 1.6" fill="#ca2628" fill-opacity=".7" class="World_1-area"/><path d="M97.6 346.2l22.9-3.8 22.9-3.9 22.9-3.9 22.9-4.1 22.9-3.6 22.9-4.1 22.9-3.7 22.9-3.7 22.9-3.6 22.9-3.8 22.9-3.2 22.9-3.2 22.9-3.3 22.9-3.4 22.9-3.4 22.9-2.9 22.9-3.3 22.9-3.2 22.9-3.1 22.9-3.1 22.9-3.2 22.9-3.1 22.9-3.3 22.9-3.4 22.9-3.6 22.9-3.2v62.5l-22.9 2.6-22.9 2.8-22.9 2.5-22.9 2.5-22.9 2.5-22.9 2.6-22.9 2.4-22.9 2.4-22.9 2.4-22.9 2.5-22.9 2.3-22.9 2.8-22.9 3-22.9 2.9-22.9 2.8-22.9 2.9-22.9 3.3-22.9 3.2-22.9 3.1-22.9 3-22.9 3.2-22.9 2.7-22.9 2.8-22.9 2.8-22.9 2.7-22.9 2.6" fill="#a652ba" fill-opacity=".7" class="World_6-area"/><path d="M97.6 311.6l22.9-4.9 22.9-5.5 22.9-6 22.9-5.9 22.9-4.2 22.9-4 22.9-3.6 22.9-4.2 22.9-4.8 22.9-5.1 22.9-4.1 22.9-4.1 22.9-4 22.9-3.9 22.9-3.8 22.9-2.7 22.9-3.1 22.9-3.3 22.9-2.8 22.9-3.2 22.9-3.2 22.9-3.2 22.9-3.7 22.9-3.9 22.9-4.2 22.9-4v49.9l-22.9 3.2-22.9 3.6-22.9 3.4-22.9 3.3-22.9 3.1-22.9 3.2-22.9 3.1-22.9 3.1-22.9 3.2-22.9 3.3-22.9 2.9-22.9 3.4-22.9 3.4-22.9 3.3-22.9 3.2-22.9 3.2-22.9 3.8-22.9 3.6-22.9 3.7-22.9 3.7-22.9 4.1-22.9 3.6-22.9 4.1-22.9 3.9-22.9 3.9-22.9 3.8" fill="#f6a324" fill-opacity=".7" class="World_3-area"/><path d="M97.6 285.7l22.9-5.4 22.9-6.2 22.9-6.7 22.9-6.5 22.9-4.8 22.9-4.6 22.9-4.2 22.9-4.8 22.9-5.2 22.9-5.8 22.9-4.6 22.9-4.6 22.9-4.6 22.9-4.4 22.9-4.5 22.9-3.2 22.9-3.8 22.9-3.9 22.9-3.4 22.9-3.8 22.9-3.8 22.9-3.8 22.9-4.3 22.9-4.4 22.9-4.8 22.9-4.5v41.1l-22.9 4-22.9 4.2-22.9 3.9-22.9 3.7-22.9 3.2-22.9 3.2-22.9 3.2-22.9 2.8-22.9 3.3-22.9 3.1-22.9 2.7-22.9 3.8-22.9 3.9-22.9 4-22.9 4.1-22.9 4.1-22.9 5.1-22.9 4.8-22.9 4.2-22.9 3.6-22.9 4-22.9 4.2-22.9 5.9-22.9 6-22.9 5.5-22.9 4.9" fill="#34983f" fill-opacity=".7" class="World_4-area"/><path d="M97.6 281.4l22.9-5.5 22.9-6.3 22.9-6.8 22.9-6.5 22.9-4.9 22.9-4.7 22.9-4.3 22.9-4.9 22.9-5.3 22.9-5.8 22.9-4.8 22.9-4.7 22.9-4.7 22.9-4.5 22.9-4.5 22.9-3.4 22.9-3.8 22.9-4 22.9-3.6 22.9-3.9 22.9-3.9 22.9-3.9 22.9-4.4 22.9-4.4 22.9-5 22.9-4.5v6.7l-22.9 4.5-22.9 4.8-22.9 4.4-22.9 4.3-22.9 3.8-22.9 3.8-22.9 3.8-22.9 3.4-22.9 3.9-22.9 3.8-22.9 3.2-22.9 4.5-22.9 4.4-22.9 4.6-22.9 4.6-22.9 4.6-22.9 5.8-22.9 5.2-22.9 4.8-22.9 4.2-22.9 4.6-22.9 4.8-22.9 6.5-22.9 6.7-22.9 6.2-22.9 5.4" fill="#7ec7ce" fill-opacity=".7" class="World_2-area"/><path d="M97.6 261.6l22.9-6 22.9-6.6 22.9-7.2 22.9-7.1 22.9-5.3 22.9-5.1 22.9-4.8 22.9-5.2 22.9-5.8 22.9-6.3 22.9-5.2 22.9-5.1 22.9-5.2 22.9-5 22.9-5 22.9-3.8 22.9-4.3 22.9-4.5 22.9-4.1 22.9-4.4 22.9-4.4 22.9-4.3 22.9-4.9 22.9-4.9 22.9-5.4 22.9-5.1v31.8l-22.9 4.5-22.9 5-22.9 4.4-22.9 4.4-22.9 3.9-22.9 3.9-22.9 3.9-22.9 3.6-22.9 4-22.9 3.8-22.9 3.4-22.9 4.5-22.9 4.5-22.9 4.7-22.9 4.7-22.9 4.8-22.9 5.8-22.9 5.3-22.9 4.9-22.9 4.3-22.9 4.7-22.9 4.9-22.9 6.5-22.9 6.8-22.9 6.3-22.9 5.5" fill="#818282" fill-opacity=".7" class="World_5-area"/><path stroke-linecap="round" d="M97.6 444.8l22.9-1.6 22.9-1.7 22.9-1.6 22.9-1.8 22.9-1.7 22.9-2 22.9-1.8 22.9-2 22.9-2 22.9-2.2 22.9-1.8 22.9-1.9 22.9-1.9 22.9-2 22.9-2 22.9-1.3 22.9-1.4 22.9-1.4 22.9-1.4 22.9-1.5 22.9-1.6 22.9-1.6 22.9-1.6 22.9-1.8 22.9-1.8 22.9-1.7" stroke="#2B508D" stroke-opacity=".7" stroke-width=".5" fill="none" class="World_0-border"/><path stroke-linecap="round" d="M97.6 389.9l22.9-2.6 22.9-2.7 22.9-2.8 22.9-2.8 22.9-2.7 22.9-3.2 22.9-3 22.9-3.1 22.9-3.2 22.9-3.3 22.9-2.9 22.9-2.8 22.9-2.9 22.9-3 22.9-2.8 22.9-2.3 22.9-2.5 22.9-2.4 22.9-2.4 22.9-2.4 22.9-2.6 22.9-2.5 22.9-2.5 22.9-2.5 22.9-2.8 22.9-2.6" stroke="#A92021" stroke-opacity=".7" stroke-width=".5" fill="none" class="World_1-border"/><path stroke-linecap="round" d="M97.6 346.2l22.9-3.8 22.9-3.9 22.9-3.9 22.9-4.1 22.9-3.6 22.9-4.1 22.9-3.7 22.9-3.7 22.9-3.6 22.9-3.8 22.9-3.2 22.9-3.2 22.9-3.3 22.9-3.4 22.9-3.4 22.9-2.9 22.9-3.3 22.9-3.2 22.9-3.1 22.9-3.1 22.9-3.2 22.9-3.1 22.9-3.3 22.9-3.4 22.9-3.6 22.9-3.2" stroke="#8B459C" stroke-opacity=".7" stroke-width=".5" fill="none" class="World_6-border"/><path stroke-linecap="round" d="M97.6 311.6l22.9-4.9 22.9-5.5 22.9-6 22.9-5.9 22.9-4.2 22.9-4 22.9-3.6 22.9-4.2 22.9-4.8 22.9-5.1 22.9-4.1 22.9-4.1 22.9-4 22.9-3.9 22.9-3.8 22.9-2.7 22.9-3.1 22.9-3.3 22.9-2.8 22.9-3.2 22.9-3.2 22.9-3.2 22.9-3.7 22.9-3.9 22.9-4.2 22.9-4" stroke="#CE881E" stroke-opacity=".7" stroke-width=".5" fill="none" class="World_3-border"/><path stroke-linecap="round" d="M97.6 285.7l22.9-5.4 22.9-6.2 22.9-6.7 22.9-6.5 22.9-4.8 22.9-4.6 22.9-4.2 22.9-4.8 22.9-5.2 22.9-5.8 22.9-4.6 22.9-4.6 22.9-4.6 22.9-4.4 22.9-4.5 22.9-3.2 22.9-3.8 22.9-3.9 22.9-3.4 22.9-3.8 22.9-3.8 22.9-3.8 22.9-4.3 22.9-4.4 22.9-4.8 22.9-4.5" stroke="#2C7F35" stroke-opacity=".7" stroke-width=".5" fill="none" class="World_4-border"/><path stroke-linecap="round" d="M97.6 281.4l22.9-5.5 22.9-6.3 22.9-6.8 22.9-6.5 22.9-4.9 22.9-4.7 22.9-4.3 22.9-4.9 22.9-5.3 22.9-5.8 22.9-4.8 22.9-4.7 22.9-4.7 22.9-4.5 22.9-4.5 22.9-3.4 22.9-3.8 22.9-4 22.9-3.6 22.9-3.9 22.9-3.9 22.9-3.9 22.9-4.4 22.9-4.4 22.9-5 22.9-4.5" stroke="#69A6AC" stroke-opacity=".7" stroke-width=".5" fill="none" class="World_2-border"/><path stroke-linecap="round" d="M97.6 261.6l22.9-6 22.9-6.6 22.9-7.2 22.9-7.1 22.9-5.3 22.9-5.1 22.9-4.8 22.9-5.2 22.9-5.8 22.9-6.3 22.9-5.2 22.9-5.1 22.9-5.2 22.9-5 22.9-5 22.9-3.8 22.9-4.3 22.9-4.5 22.9-4.1 22.9-4.4 22.9-4.4 22.9-4.3 22.9-4.9 22.9-4.9 22.9-5.4 22.9-5.1" stroke="#6C6D6D" stroke-opacity=".7" stroke-width=".5" fill="none" class="World_5-border"/></g></g></g><g class="SourcesFooter" fill="#777"><g class="clickable" fill="#777"><text font-size="12.6" x="15" y="581.6"><tspan x="15" y="581.58">Source: IHME, Global Burden of Disease (GBD)</tspan></text></g><text font-size="12.6" x="568.9" y="581.6"><tspan x="568.89" y="581.58"><a target="_blank" href="https://ourworldindata.org/mental-health" fill="#777">OurWorldInData.org/mental-health</a> • <a href="http://creativecommons.org/licenses/by-sa/4.0/deed.en_US" target="_blank" fill="#777">CC BY-SA</a></tspan></text></g></g></svg>