<svg xmlns="http://www.w3.org/2000/svg" version="1.1" style="background-color:#fff;-webkit-font-smoothing:antialiased" width="850" height="600" font-family="'Helvetica Neue',Helvetica,Arial,sans-serif" font-size="18" text-rendering="optimizeLegibility"><g class="ChartTab"><g class="HeaderView"><g opacity=".8" transform="matrix(.27 0 0 .27 778 15)"><a xmlns:xlink="http://www.w3.org/1999/xlink" xlink:href="https://ourworldindata.org" target="_blank"><g><path fill="#1B2543" d="M0 0h211.2v130.1H0z"/><path fill="#E63912" d="M0 112.2h211.2v17.9H0z"/><g><path fill="none" d="M1.2 12.3h210.2v99.2H1.2z"/><path fill="#FFF" d="M37.8 32.2c0 12.7-7.7 19.4-17.1 19.4-9.7 0-16.6-7.5-16.6-18.7 0-11.7 7.3-19.3 17.1-19.3 10.1.1 16.6 7.7 16.6 18.6zm-28.6.6c0 7.9 4.3 14.9 11.8 14.9 7.5 0 11.8-6.9 11.8-15.3 0-7.3-3.8-14.9-11.8-14.9-7.9 0-11.8 7.3-11.8 15.3zM62.7 43.8c0 2.7.1 5.1.2 7.2h-4.3l-.3-4.3h-.1c-1.3 2.1-4 4.9-8.8 4.9-4.2 0-9.1-2.3-9.1-11.6V24.6h4.8v14.6c0 5 1.5 8.4 5.9 8.4 3.2 0 5.5-2.2 6.3-4.4.3-.7.4-1.6.4-2.5V24.6h4.8v19.2zM67.3 32.8c0-3.1-.1-5.8-.2-8.2h4.2l.2 5.2h.2c1.2-3.5 4.1-5.8 7.3-5.8.5 0 .9.1 1.4.2v4.5c-.5-.1-1-.2-1.6-.2-3.4 0-5.8 2.6-6.5 6.2-.1.7-.2 1.4-.2 2.2V51h-4.8V32.8zM95.4 51L86 14.2h5l4.4 18.6c1.1 4.6 2.1 9.2 2.7 12.7h.1c.6-3.7 1.8-8 3-12.8l4.9-18.5h5l4.5 18.7c1 4.4 2 8.7 2.6 12.6h.1c.8-4 1.8-8.1 3-12.7l4.9-18.5h4.9L120.6 51h-5L111 31.9c-1.1-4.7-1.9-8.3-2.4-12h-.1c-.7 3.7-1.5 7.3-2.8 12L100.4 51h-5zM154.9 37.6c0 9.8-6.8 14-13.2 14-7.2 0-12.7-5.2-12.7-13.6 0-8.8 5.8-14 13.1-14 7.7 0 12.8 5.5 12.8 13.6zm-21 .3c0 5.8 3.3 10.1 8 10.1 4.6 0 8-4.3 8-10.3 0-4.5-2.2-10.1-7.9-10.1s-8.1 5.2-8.1 10.3zM158.2 32.8c0-3.1-.1-5.8-.2-8.2h4.2l.2 5.2h.2c1.2-3.5 4.1-5.8 7.3-5.8.5 0 .9.1 1.4.2v4.5c-.5-.1-1-.2-1.6-.2-3.4 0-5.8 2.6-6.5 6.2-.1.7-.2 1.4-.2 2.2V51h-4.8V32.8zM173.5 12.3h4.8V51h-4.8V12.3zM206.5 12.3v31.9c0 2.3.1 5 .2 6.8h-4.3l-.2-4.6h-.2c-1.5 2.9-4.7 5.2-9 5.2-6.4 0-11.3-5.4-11.3-13.4-.1-8.8 5.4-14.2 11.9-14.2 4 0 6.8 1.9 8 4h.1V12.3h4.8zm-4.8 23.1c0-.6-.1-1.4-.2-2a7 7 0 00-6.9-5.6c-5 0-7.9 4.4-7.9 10.2 0 5.3 2.6 9.8 7.8 9.8 3.2 0 6.2-2.1 7.1-5.7.2-.7.2-1.3.2-2.1v-4.6zM42.8 64c.1 1.6-1.1 2.9-3.1 2.9-1.7 0-2.9-1.3-2.9-2.9 0-1.7 1.3-3 3-3 1.9 0 3 1.3 3 3zm-5.4 33.8V71.4h4.8v26.4h-4.8zM47.5 78.6c0-2.7-.1-5-.2-7.1h4.3l.3 4.4h.1c1.3-2.5 4.4-5 8.8-5 3.7 0 9.4 2.2 9.4 11.2v15.8h-4.8V82.6c0-4.3-1.6-7.8-6.1-7.8-3.2 0-5.6 2.2-6.5 4.9-.2.6-.3 1.4-.3 2.2v15.9h-4.8V78.6zM84 61.6c2.9-.4 6.3-.8 10.1-.8 6.8 0 11.7 1.6 14.9 4.6 3.3 3 5.2 7.3 5.2 13.2 0 6-1.9 10.9-5.3 14.3-3.4 3.4-9.1 5.3-16.3 5.3-3.4 0-6.2-.2-8.6-.4V61.6zm4.8 32.5c1.2.2 3 .3 4.8.3 10.2 0 15.7-5.7 15.7-15.6.1-8.7-4.9-14.2-14.9-14.2-2.5 0-4.3.2-5.6.5v29zM132.1 97.8l-.4-3.3h-.2a9.79 9.79 0 01-8.1 3.9c-5.4 0-8.1-3.8-8.1-7.6 0-6.4 5.7-9.9 15.9-9.8v-.5c0-2.2-.6-6.1-6-6.1-2.5 0-5 .8-6.9 2l-1.1-3.2c2.2-1.4 5.4-2.3 8.7-2.3 8.1 0 10.1 5.5 10.1 10.8v9.9c0 2.3.1 4.5.4 6.3h-4.3zm-.7-13.4c-5.3-.1-11.2.8-11.2 5.9 0 3.1 2.1 4.6 4.5 4.6 3.4 0 5.6-2.2 6.4-4.4.2-.5.3-1 .3-1.5v-4.6zM146.6 63.9v7.6h6.9v3.7h-6.9v14.2c0 3.3.9 5.1 3.6 5.1 1.3 0 2.2-.2 2.8-.3l.2 3.6c-.9.4-2.4.7-4.3.7-2.2 0-4-.7-5.2-2-1.4-1.4-1.9-3.8-1.9-6.9V75.1h-4.1v-3.7h4.1v-6.3l4.8-1.2zM171.4 97.8l-.4-3.3h-.2a9.79 9.79 0 01-8.1 3.9c-5.4 0-8.1-3.8-8.1-7.6 0-6.4 5.7-9.9 15.9-9.8v-.5c0-2.2-.6-6.1-6-6.1-2.5 0-5 .8-6.9 2l-1.1-3.2c2.2-1.4 5.4-2.3 8.7-2.3 8.1 0 10.1 5.5 10.1 10.8v9.9c0 2.3.1 4.5.4 6.3h-4.3zm-.7-13.4c-5.3-.1-11.2.8-11.2 5.9 0 3.1 2.1 4.6 4.5 4.6 3.4 0 5.6-2.2 6.4-4.4.2-.5.3-1 .3-1.5v-4.6z"/></g></g></a></g><a href="https://ourworldindata.org/grapher/daly-rates-from-all-causes-by-age" target="_blank"><text font-size="25.2" x="15" y="35.2" fill="#555"><tspan x="15" y="35.16">DALY rates from all causes, by age, World</tspan></text></a><text font-size="14.4" x="15" y="53.7" fill="#666"><tspan x="15" y="53.72">DALY (Disability-Adjusted Life Year) rates by age group per 100,000 individuals from all causes. DALYs are used to</tspan><tspan x="15" y="69.56">measure total burden of disease - both from years of life lost and years lived with a disability. One DALY equals one</tspan><tspan x="15" y="85.4">lost year of healthy life.</tspan></text></g><g class="LineChart"><defs><clipPath id="a"><path d="M68.97 0h830v897.8h-830z"/></clipPath></defs><g class="AxisBoxView"><g class="HorizontalAxis" fill="#666" text-anchor="middle" font-size="16.2"><text x="79" y="556.5">1990</text><text x="197.2" y="556.5">1995</text><text x="315.4" y="556.5">2000</text><text x="433.7" y="556.5">2005</text><text x="551.9" y="556.5">2010</text><text x="693.8" y="556.5">2016</text></g><g class="VerticalAxis" fill="#666" dominant-baseline="middle" text-anchor="end" font-size="16.2"><text x="73.97" y="535.3">0</text><text x="73.97" y="482.8">20,000</text><text x="73.97" y="430.4">40,000</text><text x="73.97" y="377.9">60,000</text><text x="73.97" y="325.5">80,000</text><text x="73.97" y="273">100,000</text><text x="73.97" y="220.6">120,000</text><text x="73.97" y="168.1">140,000</text><text x="73.97" y="115.7">160,000</text></g><g class="AxisGridLines"><path stroke="#ccc" d="M78.97 535.3h614.78"/><path stroke="#ddd" stroke-dasharray="3,2" d="M78.97 482.8h614.78M78.97 430.4h614.78M78.97 377.9h614.78M78.97 325.5h614.78M78.97 273h614.78M78.97 220.6h614.78M78.97 168.1h614.78M78.97 115.7h614.78"/></g></g><g clip-path="url(#a)"><g class="HeightedLegend clickable"><g class="legendMark"><g class="indicator" stroke="#666" stroke-width=".5"><path d="M698.75 289h12.5M711.25 289h0M711.25 289h12.5"/></g><text font-size="13.5" x="728.8" y="293.1" fill="#e6332e"><tspan x="728.75" y="293.05">70+ years old</tspan></text></g><g class="legendMark"><g class="indicator" stroke="#666" stroke-width=".5"><path d="M698.75 345h12.5M711.25 345h0M711.25 345h12.5"/></g><text font-size="13.5" x="728.8" y="349.1" fill="#2a939b"><tspan x="728.75" y="349.05">Under-5s</tspan></text></g><g class="legendMark"><g class="indicator" stroke="#666" stroke-width=".5"><path d="M698.75 409.1h12.5M711.25 409.1h0M711.25 409.1h12.5"/></g><text font-size="13.5" x="728.8" y="413.2" fill="#a652ba"><tspan x="728.75" y="413.15">50-69 year olds</tspan></text></g><g class="legendMark"><g class="indicator" stroke="#666" stroke-width=".5"><path d="M698.75 447.1h22.5M721.25 447.1h0M721.25 447.1h2.5"/></g><text font-size="13.5" x="728.8" y="451.2" fill="#f6a324"><tspan x="728.75" y="451.15">Age-standardized</tspan></text></g><g class="legendMark"><g class="indicator" stroke="#666" stroke-width=".5"><path d="M698.75 450.5h12.5M711.25 450.5v12.1M711.25 462.6h12.5"/></g><text font-size="13.5" x="728.8" y="466.7" fill="#34983f"><tspan x="728.75" y="466.65">All ages</tspan></text></g><g class="legendMark"><g class="indicator" stroke="#666" stroke-width=".5"><path d="M698.75 479.9h12.5M711.25 479.9h0M711.25 479.9h12.5"/></g><text font-size="13.5" x="728.8" y="483.9" fill="#ca2628"><tspan x="728.75" y="483.95">15-49 year olds</tspan></text></g><g class="legendMark"><g class="indicator" stroke="#666" stroke-width=".5"><path d="M698.75 508.6h12.5M711.25 508.6h0M711.25 508.6h12.5"/></g><text font-size="13.5" x="728.8" y="512.6" fill="#3360a9"><tspan x="728.75" y="512.65">5-14 year olds</tspan></text></g></g><g class="Lines"><g class="key-World_0"><path stroke="#34983f" stroke-linecap="round" d="M79 413l24 2 23 2 24 1h24l23 2 24 2 24 2 23 1 24 1 23 1 24 2 24 1 23 1 24 1 24 2 23 2 24 2 24 1 23 2 24 1 24 2 23 1 24 2 24 1 23 1 24 2" fill="none" stroke-width="1.5"/><g fill="#34983f"><circle cx="79" cy="413" r="2"/><circle cx="103" cy="415" r="2"/><circle cx="126" cy="417" r="2"/><circle cx="150" cy="418" r="2"/><circle cx="174" cy="418" r="2"/><circle cx="197" cy="420" r="2"/><circle cx="221" cy="422" r="2"/><circle cx="245" cy="424" r="2"/><circle cx="268" cy="425" r="2"/><circle cx="292" cy="426" r="2"/><circle cx="315" cy="427" r="2"/><circle cx="339" cy="429" r="2"/><circle cx="363" cy="430" r="2"/><circle cx="386" cy="431" r="2"/><circle cx="410" cy="432" r="2"/><circle cx="434" cy="434" r="2"/><circle cx="457" cy="436" r="2"/><circle cx="481" cy="438" r="2"/><circle cx="505" cy="439" r="2"/><circle cx="528" cy="441" r="2"/><circle cx="552" cy="442" r="2"/><circle cx="576" cy="444" r="2"/><circle cx="599" cy="445" r="2"/><circle cx="623" cy="447" r="2"/><circle cx="647" cy="448" r="2"/><circle cx="670" cy="449" r="2"/><circle cx="694" cy="451" r="2"/></g></g><g class="key-World_1"><path stroke="#2a939b" stroke-linecap="round" d="M79 108l24 10 23 11 24 9 24 4 23 9 24 7 24 9 23 7 24 8 23 8 24 9 24 8 23 10 24 8 24 10 23 10 24 10 24 10 23 11 24 9 24 11 23 11 24 10 24 10 23 10 24 8" fill="none" stroke-width="1.5"/><g fill="#2a939b"><circle cx="79" cy="108" r="2"/><circle cx="103" cy="118" r="2"/><circle cx="126" cy="129" r="2"/><circle cx="150" cy="138" r="2"/><circle cx="174" cy="142" r="2"/><circle cx="197" cy="151" r="2"/><circle cx="221" cy="158" r="2"/><circle cx="245" cy="167" r="2"/><circle cx="268" cy="174" r="2"/><circle cx="292" cy="182" r="2"/><circle cx="315" cy="190" r="2"/><circle cx="339" cy="199" r="2"/><circle cx="363" cy="207" r="2"/><circle cx="386" cy="217" r="2"/><circle cx="410" cy="225" r="2"/><circle cx="434" cy="235" r="2"/><circle cx="457" cy="245" r="2"/><circle cx="481" cy="255" r="2"/><circle cx="505" cy="265" r="2"/><circle cx="528" cy="276" r="2"/><circle cx="552" cy="285" r="2"/><circle cx="576" cy="296" r="2"/><circle cx="599" cy="307" r="2"/><circle cx="623" cy="317" r="2"/><circle cx="647" cy="327" r="2"/><circle cx="670" cy="337" r="2"/><circle cx="694" cy="345" r="2"/></g></g><g class="key-World_2"><path stroke="#e6332e" stroke-linecap="round" d="M79 226l24 2 23 1h24l24 1 23 2 24 4 24 3 23 3 24 1 23 2 24 2 24 1 23 5 24 4 24 3 23 5 24 3 24 2 23 3 24 2 24 4 23 2 24 3 24 2 23 1 24 2" fill="none" stroke-width="1.5"/><g fill="#e6332e"><circle cx="79" cy="226" r="2"/><circle cx="103" cy="228" r="2"/><circle cx="126" cy="229" r="2"/><circle cx="150" cy="229" r="2"/><circle cx="174" cy="230" r="2"/><circle cx="197" cy="232" r="2"/><circle cx="221" cy="236" r="2"/><circle cx="245" cy="239" r="2"/><circle cx="268" cy="242" r="2"/><circle cx="292" cy="243" r="2"/><circle cx="315" cy="245" r="2"/><circle cx="339" cy="247" r="2"/><circle cx="363" cy="248" r="2"/><circle cx="386" cy="253" r="2"/><circle cx="410" cy="257" r="2"/><circle cx="434" cy="260" r="2"/><circle cx="457" cy="265" r="2"/><circle cx="481" cy="268" r="2"/><circle cx="505" cy="270" r="2"/><circle cx="528" cy="273" r="2"/><circle cx="552" cy="275" r="2"/><circle cx="576" cy="279" r="2"/><circle cx="599" cy="281" r="2"/><circle cx="623" cy="284" r="2"/><circle cx="647" cy="286" r="2"/><circle cx="670" cy="287" r="2"/><circle cx="694" cy="289" r="2"/></g></g><g class="key-World_3"><path stroke="#3360a9" stroke-linecap="round" d="M79 497h24l23 1 24 1 24-1 23 2h48l23 1h24l23 1h24l24 1h71l23 1h48l23 1h24l24 1 23 1h48l23 1 24 1" fill="none" stroke-width="1.5"/><g fill="#3360a9"><circle cx="79" cy="497" r="2"/><circle cx="103" cy="497" r="2"/><circle cx="126" cy="498" r="2"/><circle cx="150" cy="499" r="2"/><circle cx="174" cy="498" r="2"/><circle cx="197" cy="500" r="2"/><circle cx="221" cy="500" r="2"/><circle cx="245" cy="500" r="2"/><circle cx="268" cy="501" r="2"/><circle cx="292" cy="501" r="2"/><circle cx="315" cy="502" r="2"/><circle cx="339" cy="502" r="2"/><circle cx="363" cy="503" r="2"/><circle cx="386" cy="503" r="2"/><circle cx="410" cy="503" r="2"/><circle cx="434" cy="503" r="2"/><circle cx="457" cy="504" r="2"/><circle cx="481" cy="504" r="2"/><circle cx="505" cy="504" r="2"/><circle cx="528" cy="505" r="2"/><circle cx="552" cy="505" r="2"/><circle cx="576" cy="506" r="2"/><circle cx="599" cy="507" r="2"/><circle cx="623" cy="507" r="2"/><circle cx="647" cy="507" r="2"/><circle cx="670" cy="508" r="2"/><circle cx="694" cy="509" r="2"/></g></g><g class="key-World_4"><path stroke="#a652ba" stroke-linecap="round" d="M79 373l24 1h23l24-2h24l23 1 24 2 24 2 23 2 24 1 23 1 24 2 24 2 23 2 24 2 24 2 23 3 24 2 24 2 23 2 24 2 24 1 23 2 24 1 24 1 23 1 24 1" fill="none" stroke-width="1.5"/><g fill="#a652ba"><circle cx="79" cy="373" r="2"/><circle cx="103" cy="374" r="2"/><circle cx="126" cy="374" r="2"/><circle cx="150" cy="372" r="2"/><circle cx="174" cy="372" r="2"/><circle cx="197" cy="373" r="2"/><circle cx="221" cy="375" r="2"/><circle cx="245" cy="377" r="2"/><circle cx="268" cy="379" r="2"/><circle cx="292" cy="380" r="2"/><circle cx="315" cy="381" r="2"/><circle cx="339" cy="383" r="2"/><circle cx="363" cy="385" r="2"/><circle cx="386" cy="387" r="2"/><circle cx="410" cy="389" r="2"/><circle cx="434" cy="391" r="2"/><circle cx="457" cy="394" r="2"/><circle cx="481" cy="396" r="2"/><circle cx="505" cy="398" r="2"/><circle cx="528" cy="400" r="2"/><circle cx="552" cy="402" r="2"/><circle cx="576" cy="403" r="2"/><circle cx="599" cy="405" r="2"/><circle cx="623" cy="406" r="2"/><circle cx="647" cy="407" r="2"/><circle cx="670" cy="408" r="2"/><circle cx="694" cy="409" r="2"/></g></g><g class="key-World_5"><path stroke="#ca2628" stroke-linecap="round" d="M79 472l24-1h23l24-1 24-2 23 1 24 1h47l24-1 23 1h48l23 1h24l24 1 23 1 24 1h24l23 1 24 1 24 1 23 1h24l24 1h23l24 1" fill="none" stroke-width="1.5"/><g fill="#ca2628"><circle cx="79" cy="472" r="2"/><circle cx="103" cy="471" r="2"/><circle cx="126" cy="471" r="2"/><circle cx="150" cy="470" r="2"/><circle cx="174" cy="468" r="2"/><circle cx="197" cy="469" r="2"/><circle cx="221" cy="470" r="2"/><circle cx="245" cy="470" r="2"/><circle cx="268" cy="470" r="2"/><circle cx="292" cy="469" r="2"/><circle cx="315" cy="470" r="2"/><circle cx="339" cy="470" r="2"/><circle cx="363" cy="470" r="2"/><circle cx="386" cy="471" r="2"/><circle cx="410" cy="471" r="2"/><circle cx="434" cy="472" r="2"/><circle cx="457" cy="473" r="2"/><circle cx="481" cy="474" r="2"/><circle cx="505" cy="474" r="2"/><circle cx="528" cy="475" r="2"/><circle cx="552" cy="476" r="2"/><circle cx="576" cy="477" r="2"/><circle cx="599" cy="478" r="2"/><circle cx="623" cy="478" r="2"/><circle cx="647" cy="479" r="2"/><circle cx="670" cy="479" r="2"/><circle cx="694" cy="480" r="2"/></g></g><g class="key-World_6"><path stroke="#f6a324" stroke-linecap="round" d="M79 408l24 1 23 1 24 1 24-1 23 2 24 2 24 1 23 1 24 1 23 2 24 1 24 1 23 2 24 2 24 2 23 2 24 2 24 2 23 2 24 2 24 2 23 2 24 1 24 2 23 2 24 1" fill="none" stroke-width="1.5"/><g fill="#f6a324"><circle cx="79" cy="408" r="2"/><circle cx="103" cy="409" r="2"/><circle cx="126" cy="410" r="2"/><circle cx="150" cy="411" r="2"/><circle cx="174" cy="410" r="2"/><circle cx="197" cy="412" r="2"/><circle cx="221" cy="414" r="2"/><circle cx="245" cy="415" r="2"/><circle cx="268" cy="416" r="2"/><circle cx="292" cy="417" r="2"/><circle cx="315" cy="419" r="2"/><circle cx="339" cy="420" r="2"/><circle cx="363" cy="421" r="2"/><circle cx="386" cy="423" r="2"/><circle cx="410" cy="425" r="2"/><circle cx="434" cy="427" r="2"/><circle cx="457" cy="429" r="2"/><circle cx="481" cy="431" r="2"/><circle cx="505" cy="433" r="2"/><circle cx="528" cy="435" r="2"/><circle cx="552" cy="437" r="2"/><circle cx="576" cy="439" r="2"/><circle cx="599" cy="441" r="2"/><circle cx="623" cy="442" r="2"/><circle cx="647" cy="444" r="2"/><circle cx="670" cy="446" r="2"/><circle cx="694" cy="447" r="2"/></g></g></g></g></g><g class="SourcesFooter" fill="#777"><g class="clickable" fill="#777"><text font-size="12.6" x="15" y="581.6"><tspan x="15" y="581.58">Source: IHME, Global Burden of Disease</tspan></text></g><text font-size="12.6" x="775.4" y="581.6"><tspan x="775.4" y="581.58"><a class="cclogo" href="http://creativecommons.org/licenses/by-sa/4.0/deed.en_US" target="_blank" fill="#777">CC BY-SA</a></tspan></text></g></g></svg>