<svg xmlns="http://www.w3.org/2000/svg" version="1.1" style="background-color:#fff;-webkit-font-smoothing:antialiased" width="850" height="600" font-family="'Helvetica Neue',Helvetica,Arial,sans-serif" font-size="18" text-rendering="optimizeLegibility"><g class="ChartTab"><g class="HeaderView"><g opacity=".8" transform="matrix(.27 0 0 .27 778 15)"><a xmlns:xlink="http://www.w3.org/1999/xlink" xlink:href="https://ourworldindata.org" target="_blank"><g><path fill="#1B2543" d="M0 0h211.2v130.1H0z"/><path fill="#E63912" d="M0 112.2h211.2v17.9H0z"/><g><path fill="none" d="M1.2 12.3h210.2v99.2H1.2z"/><path fill="#FFF" d="M37.8 32.2c0 12.7-7.7 19.4-17.1 19.4-9.7 0-16.6-7.5-16.6-18.7 0-11.7 7.3-19.3 17.1-19.3 10.1.1 16.6 7.7 16.6 18.6zm-28.6.6c0 7.9 4.3 14.9 11.8 14.9 7.5 0 11.8-6.9 11.8-15.3 0-7.3-3.8-14.9-11.8-14.9-7.9 0-11.8 7.3-11.8 15.3zM62.7 43.8c0 2.7.1 5.1.2 7.2h-4.3l-.3-4.3h-.1c-1.3 2.1-4 4.9-8.8 4.9-4.2 0-9.1-2.3-9.1-11.6V24.6h4.8v14.6c0 5 1.5 8.4 5.9 8.4 3.2 0 5.5-2.2 6.3-4.4.3-.7.4-1.6.4-2.5V24.6h4.8v19.2zM67.3 32.8c0-3.1-.1-5.8-.2-8.2h4.2l.2 5.2h.2c1.2-3.5 4.1-5.8 7.3-5.8.5 0 .9.1 1.4.2v4.5c-.5-.1-1-.2-1.6-.2-3.4 0-5.8 2.6-6.5 6.2-.1.7-.2 1.4-.2 2.2V51h-4.8V32.8zM95.4 51L86 14.2h5l4.4 18.6c1.1 4.6 2.1 9.2 2.7 12.7h.1c.6-3.7 1.8-8 3-12.8l4.9-18.5h5l4.5 18.7c1 4.4 2 8.7 2.6 12.6h.1c.8-4 1.8-8.1 3-12.7l4.9-18.5h4.9L120.6 51h-5L111 31.9c-1.1-4.7-1.9-8.3-2.4-12h-.1c-.7 3.7-1.5 7.3-2.8 12L100.4 51h-5zM154.9 37.6c0 9.8-6.8 14-13.2 14-7.2 0-12.7-5.2-12.7-13.6 0-8.8 5.8-14 13.1-14 7.7 0 12.8 5.5 12.8 13.6zm-21 .3c0 5.8 3.3 10.1 8 10.1 4.6 0 8-4.3 8-10.3 0-4.5-2.2-10.1-7.9-10.1s-8.1 5.2-8.1 10.3zM158.2 32.8c0-3.1-.1-5.8-.2-8.2h4.2l.2 5.2h.2c1.2-3.5 4.1-5.8 7.3-5.8.5 0 .9.1 1.4.2v4.5c-.5-.1-1-.2-1.6-.2-3.4 0-5.8 2.6-6.5 6.2-.1.7-.2 1.4-.2 2.2V51h-4.8V32.8zM173.5 12.3h4.8V51h-4.8V12.3zM206.5 12.3v31.9c0 2.3.1 5 .2 6.8h-4.3l-.2-4.6h-.2c-1.5 2.9-4.7 5.2-9 5.2-6.4 0-11.3-5.4-11.3-13.4-.1-8.8 5.4-14.2 11.9-14.2 4 0 6.8 1.9 8 4h.1V12.3h4.8zm-4.8 23.1c0-.6-.1-1.4-.2-2a7 7 0 00-6.9-5.6c-5 0-7.9 4.4-7.9 10.2 0 5.3 2.6 9.8 7.8 9.8 3.2 0 6.2-2.1 7.1-5.7.2-.7.2-1.3.2-2.1v-4.6zM42.8 64c.1 1.6-1.1 2.9-3.1 2.9-1.7 0-2.9-1.3-2.9-2.9 0-1.7 1.3-3 3-3 1.9 0 3 1.3 3 3zm-5.4 33.8V71.4h4.8v26.4h-4.8zM47.5 78.6c0-2.7-.1-5-.2-7.1h4.3l.3 4.4h.1c1.3-2.5 4.4-5 8.8-5 3.7 0 9.4 2.2 9.4 11.2v15.8h-4.8V82.6c0-4.3-1.6-7.8-6.1-7.8-3.2 0-5.6 2.2-6.5 4.9-.2.6-.3 1.4-.3 2.2v15.9h-4.8V78.6zM84 61.6c2.9-.4 6.3-.8 10.1-.8 6.8 0 11.7 1.6 14.9 4.6 3.3 3 5.2 7.3 5.2 13.2 0 6-1.9 10.9-5.3 14.3-3.4 3.4-9.1 5.3-16.3 5.3-3.4 0-6.2-.2-8.6-.4V61.6zm4.8 32.5c1.2.2 3 .3 4.8.3 10.2 0 15.7-5.7 15.7-15.6.1-8.7-4.9-14.2-14.9-14.2-2.5 0-4.3.2-5.6.5v29zM132.1 97.8l-.4-3.3h-.2a9.79 9.79 0 01-8.1 3.9c-5.4 0-8.1-3.8-8.1-7.6 0-6.4 5.7-9.9 15.9-9.8v-.5c0-2.2-.6-6.1-6-6.1-2.5 0-5 .8-6.9 2l-1.1-3.2c2.2-1.4 5.4-2.3 8.7-2.3 8.1 0 10.1 5.5 10.1 10.8v9.9c0 2.3.1 4.5.4 6.3h-4.3zm-.7-13.4c-5.3-.1-11.2.8-11.2 5.9 0 3.1 2.1 4.6 4.5 4.6 3.4 0 5.6-2.2 6.4-4.4.2-.5.3-1 .3-1.5v-4.6zM146.6 63.9v7.6h6.9v3.7h-6.9v14.2c0 3.3.9 5.1 3.6 5.1 1.3 0 2.2-.2 2.8-.3l.2 3.6c-.9.4-2.4.7-4.3.7-2.2 0-4-.7-5.2-2-1.4-1.4-1.9-3.8-1.9-6.9V75.1h-4.1v-3.7h4.1v-6.3l4.8-1.2zM171.4 97.8l-.4-3.3h-.2a9.79 9.79 0 01-8.1 3.9c-5.4 0-8.1-3.8-8.1-7.6 0-6.4 5.7-9.9 15.9-9.8v-.5c0-2.2-.6-6.1-6-6.1-2.5 0-5 .8-6.9 2l-1.1-3.2c2.2-1.4 5.4-2.3 8.7-2.3 8.1 0 10.1 5.5 10.1 10.8v9.9c0 2.3.1 4.5.4 6.3h-4.3zm-.7-13.4c-5.3-.1-11.2.8-11.2 5.9 0 3.1 2.1 4.6 4.5 4.6 3.4 0 5.6-2.2 6.4-4.4.2-.5.3-1 .3-1.5v-4.6z"/></g></g></a></g><a href="https://ourworldindata.org/grapher/deaths-from-terrorist-attacks" target="_blank"><text font-size="25.2" x="15" y="35.2" fill="#555"><tspan x="15" y="35.16">Number of deaths from terrorist attacks, World</tspan></text></a></g><g class="StackedBarChart"><defs><clipPath id="a"><path d="M69.9 70H715v465.3H69.9z"/></clipPath></defs><g class="VerticalAxis" fill="#666" dominant-baseline="middle" text-anchor="end" font-size="16.2"><text x="64.9" y="535.3">0</text><text x="64.9" y="430.7">10,000</text><text x="64.9" y="326.1">20,000</text><text x="64.9" y="221.5">30,000</text><text x="64.9" y="117">40,000</text></g><g class="AxisGridLines"><path stroke="#ccc" d="M69.9 535.3H715"/><path stroke="#ddd" stroke-dasharray="3,2" d="M69.9 430.7H715M69.9 326.1H715M69.9 221.5H715M69.9 117H715"/></g><g fill="#666" font-size="16.2"><text x="59.99" y="553.26">1970</text><text x="114.89" y="553.26">1974</text><text x="169.79" y="553.26">1978</text><text x="224.69" y="553.26">1982</text><text x="279.6" y="553.26">1986</text><text x="334.5" y="553.26">1990</text><text x="389.4" y="553.26">1995</text><text x="444.3" y="553.26">1999</text><text x="499.21" y="553.26">2003</text><text x="554.11" y="553.26">2007</text><text x="609.01" y="553.26">2011</text><text x="691.37" y="553.26">2017</text></g><g clip-path="url(#a)"><g class="World_0-segments" fill="#34983f"><path opacity=".8" d="M72.64 533.5h10.98v1.8H72.64zM86.37 533.5h10.98v1.8H86.37zM100.09 529.4h10.98v5.9h-10.98zM113.82 531.4h10.98v3.9h-10.98zM127.54 529.7h10.98v5.6h-10.98zM141.27 528.8h10.98v6.5h-10.98zM154.99 528.3h10.98v7h-10.98zM168.72 530.5h10.98v4.8h-10.98zM182.45 520h10.98v15.3h-10.98zM196.17 513.3h10.98v22h-10.98zM209.9 489.3h10.98v46H209.9zM223.62 484.6h10.98v50.7h-10.98zM237.35 481.6h10.98v53.7h-10.98zM251.07 436.5h10.98v98.8h-10.98zM264.8 426h10.98v109.3H264.8zM278.53 461.1h10.98v74.2h-10.98zM292.25 483.3h10.98v52h-10.98zM305.98 467.5h10.98v67.8h-10.98zM319.7 459.9h10.98v75.4H319.7zM333.43 450h10.98v85.3h-10.98zM347.15 460.5h10.98v74.8h-10.98zM360.88 447.1h10.98v88.2h-10.98zM374.6 433.4h10.98v101.9H374.6zM388.33 454.9h10.98v80.4h-10.98zM402.06 471.5h10.98v63.8h-10.98zM415.78 462.4h10.98v72.9h-10.98zM429.51 421.1h10.98v114.2h-10.98zM443.23 486.3h10.98v49h-10.98zM456.96 499.8h10.98v35.5h-10.98zM470.68 489.3h10.98v46h-10.98zM484.41 454.5h10.98v80.8h-10.98zM498.14 485h10.98v50.3h-10.98zM511.86 500.6h10.98v34.7h-10.98zM525.59 475.2h10.98v60.1h-10.98zM539.31 469.1h10.98v66.2h-10.98zM553.04 437.2h10.98v98.1h-10.98zM566.76 401.2h10.98v134.1h-10.98zM580.49 439.5h10.98v95.8h-10.98zM594.21 438.3h10.98v97h-10.98zM607.94 453.4h10.98v81.9h-10.98zM621.67 449.1h10.98v86.2h-10.98zM635.39 373.2h10.98v162.1h-10.98zM649.12 302.4h10.98v232.9h-10.98zM662.84 70h10.98v465.3h-10.98zM676.57 129h10.98v406.3h-10.98zM690.29 170.6h10.98v364.7h-10.98zM704.02 258.7H715v276.6h-10.98z"/></g></g><g class="ScatterColorLegend clickable" cursor="pointer"><g class="legendMark">,<path fill="#34983f" d="M735 73h6v6h-6z"/>,<text font-size="12.6" x="746" y="80.1"><tspan x="746" y="80.08">World</tspan></text></g></g></g><g class="SourcesFooter" fill="#777"><g class="clickable" fill="#777"><text font-size="12.6" x="15" y="581.6"><tspan x="15" y="581.58">Source: Global Terrorism Database (2018)</tspan></text></g><text font-size="12.6" x="775.4" y="581.6"><tspan x="775.4" y="581.58"><a class="cclogo" href="http://creativecommons.org/licenses/by-sa/4.0/deed.en_US" target="_blank" fill="#777">CC BY-SA</a></tspan></text></g></g></svg>