<svg xmlns="http://www.w3.org/2000/svg" version="1.1" style="background-color:#fff;-webkit-font-smoothing:antialiased" width="850" height="600" font-family="'Helvetica Neue',Helvetica,Arial,sans-serif" font-size="18" text-rendering="optimizeLegibility"><g class="ChartTab"><g class="HeaderView"><g opacity=".8" transform="matrix(.27 0 0 .27 778 15)"><a xmlns:xlink="http://www.w3.org/1999/xlink" xlink:href="https://ourworldindata.org" target="_blank"><g><path fill="#1B2543" d="M0 0h211.2v130.1H0z"/><path fill="#E63912" d="M0 112.2h211.2v17.9H0z"/><g><path fill="none" d="M1.2 12.3h210.2v99.2H1.2z"/><path fill="#FFF" d="M37.8 32.2c0 12.7-7.7 19.4-17.1 19.4-9.7 0-16.6-7.5-16.6-18.7 0-11.7 7.3-19.3 17.1-19.3 10.1.1 16.6 7.7 16.6 18.6zm-28.6.6c0 7.9 4.3 14.9 11.8 14.9 7.5 0 11.8-6.9 11.8-15.3 0-7.3-3.8-14.9-11.8-14.9-7.9 0-11.8 7.3-11.8 15.3zM62.7 43.8c0 2.7.1 5.1.2 7.2h-4.3l-.3-4.3h-.1c-1.3 2.1-4 4.9-8.8 4.9-4.2 0-9.1-2.3-9.1-11.6V24.6h4.8v14.6c0 5 1.5 8.4 5.9 8.4 3.2 0 5.5-2.2 6.3-4.4.3-.7.4-1.6.4-2.5V24.6h4.8v19.2zM67.3 32.8c0-3.1-.1-5.8-.2-8.2h4.2l.2 5.2h.2c1.2-3.5 4.1-5.8 7.3-5.8.5 0 .9.1 1.4.2v4.5c-.5-.1-1-.2-1.6-.2-3.4 0-5.8 2.6-6.5 6.2-.1.7-.2 1.4-.2 2.2V51h-4.8V32.8zM95.4 51L86 14.2h5l4.4 18.6c1.1 4.6 2.1 9.2 2.7 12.7h.1c.6-3.7 1.8-8 3-12.8l4.9-18.5h5l4.5 18.7c1 4.4 2 8.7 2.6 12.6h.1c.8-4 1.8-8.1 3-12.7l4.9-18.5h4.9L120.6 51h-5L111 31.9c-1.1-4.7-1.9-8.3-2.4-12h-.1c-.7 3.7-1.5 7.3-2.8 12L100.4 51h-5zM154.9 37.6c0 9.8-6.8 14-13.2 14-7.2 0-12.7-5.2-12.7-13.6 0-8.8 5.8-14 13.1-14 7.7 0 12.8 5.5 12.8 13.6zm-21 .3c0 5.8 3.3 10.1 8 10.1 4.6 0 8-4.3 8-10.3 0-4.5-2.2-10.1-7.9-10.1s-8.1 5.2-8.1 10.3zM158.2 32.8c0-3.1-.1-5.8-.2-8.2h4.2l.2 5.2h.2c1.2-3.5 4.1-5.8 7.3-5.8.5 0 .9.1 1.4.2v4.5c-.5-.1-1-.2-1.6-.2-3.4 0-5.8 2.6-6.5 6.2-.1.7-.2 1.4-.2 2.2V51h-4.8V32.8zM173.5 12.3h4.8V51h-4.8V12.3zM206.5 12.3v31.9c0 2.3.1 5 .2 6.8h-4.3l-.2-4.6h-.2c-1.5 2.9-4.7 5.2-9 5.2-6.4 0-11.3-5.4-11.3-13.4-.1-8.8 5.4-14.2 11.9-14.2 4 0 6.8 1.9 8 4h.1V12.3h4.8zm-4.8 23.1c0-.6-.1-1.4-.2-2a7 7 0 00-6.9-5.6c-5 0-7.9 4.4-7.9 10.2 0 5.3 2.6 9.8 7.8 9.8 3.2 0 6.2-2.1 7.1-5.7.2-.7.2-1.3.2-2.1v-4.6zM42.8 64c.1 1.6-1.1 2.9-3.1 2.9-1.7 0-2.9-1.3-2.9-2.9 0-1.7 1.3-3 3-3 1.9 0 3 1.3 3 3zm-5.4 33.8V71.4h4.8v26.4h-4.8zM47.5 78.6c0-2.7-.1-5-.2-7.1h4.3l.3 4.4h.1c1.3-2.5 4.4-5 8.8-5 3.7 0 9.4 2.2 9.4 11.2v15.8h-4.8V82.6c0-4.3-1.6-7.8-6.1-7.8-3.2 0-5.6 2.2-6.5 4.9-.2.6-.3 1.4-.3 2.2v15.9h-4.8V78.6zM84 61.6c2.9-.4 6.3-.8 10.1-.8 6.8 0 11.7 1.6 14.9 4.6 3.3 3 5.2 7.3 5.2 13.2 0 6-1.9 10.9-5.3 14.3-3.4 3.4-9.1 5.3-16.3 5.3-3.4 0-6.2-.2-8.6-.4V61.6zm4.8 32.5c1.2.2 3 .3 4.8.3 10.2 0 15.7-5.7 15.7-15.6.1-8.7-4.9-14.2-14.9-14.2-2.5 0-4.3.2-5.6.5v29zM132.1 97.8l-.4-3.3h-.2a9.79 9.79 0 01-8.1 3.9c-5.4 0-8.1-3.8-8.1-7.6 0-6.4 5.7-9.9 15.9-9.8v-.5c0-2.2-.6-6.1-6-6.1-2.5 0-5 .8-6.9 2l-1.1-3.2c2.2-1.4 5.4-2.3 8.7-2.3 8.1 0 10.1 5.5 10.1 10.8v9.9c0 2.3.1 4.5.4 6.3h-4.3zm-.7-13.4c-5.3-.1-11.2.8-11.2 5.9 0 3.1 2.1 4.6 4.5 4.6 3.4 0 5.6-2.2 6.4-4.4.2-.5.3-1 .3-1.5v-4.6zM146.6 63.9v7.6h6.9v3.7h-6.9v14.2c0 3.3.9 5.1 3.6 5.1 1.3 0 2.2-.2 2.8-.3l.2 3.6c-.9.4-2.4.7-4.3.7-2.2 0-4-.7-5.2-2-1.4-1.4-1.9-3.8-1.9-6.9V75.1h-4.1v-3.7h4.1v-6.3l4.8-1.2zM171.4 97.8l-.4-3.3h-.2a9.79 9.79 0 01-8.1 3.9c-5.4 0-8.1-3.8-8.1-7.6 0-6.4 5.7-9.9 15.9-9.8v-.5c0-2.2-.6-6.1-6-6.1-2.5 0-5 .8-6.9 2l-1.1-3.2c2.2-1.4 5.4-2.3 8.7-2.3 8.1 0 10.1 5.5 10.1 10.8v9.9c0 2.3.1 4.5.4 6.3h-4.3zm-.7-13.4c-5.3-.1-11.2.8-11.2 5.9 0 3.1 2.1 4.6 4.5 4.6 3.4 0 5.6-2.2 6.4-4.4.2-.5.3-1 .3-1.5v-4.6z"/></g></g></a></g><a href="https://ourworldindata.org/grapher/deaths-from-smallpox-in-london" target="_blank"><text font-size="21.6" x="15" y="32.3" fill="#555"><tspan x="15" y="32.28">Deaths caused by smallpox as a share of all deaths in London, (1629-1902)</tspan></text></a></g><g class="LineChart"><defs><clipPath id="a"><path d="M42.56 0h830v973h-830z"/></clipPath></defs><g class="AxisBoxView"><g class="HorizontalAxis" fill="#666" text-anchor="middle" font-size="16.2"><text x="52.6" y="556.5">1629</text><text x="100.8" y="556.5">1650</text><text x="215.6" y="556.5">1700</text><text x="330.4" y="556.5">1750</text><text x="445.2" y="556.5">1800</text><text x="560" y="556.5">1850</text><text x="679.4" y="556.5">1902</text></g><g class="VerticalAxis" fill="#666" dominant-baseline="middle" text-anchor="end" font-size="16.2"><text x="47.56" y="535.3">0%</text><text x="47.56" y="484.7">2%</text><text x="47.56" y="434.1">4%</text><text x="47.56" y="383.5">6%</text><text x="47.56" y="332.9">8%</text><text x="47.56" y="282.3">10%</text><text x="47.56" y="231.8">12%</text><text x="47.56" y="181.2">14%</text><text x="47.56" y="130.6">16%</text><text x="47.56" y="80">18%</text></g><g class="AxisGridLines"><path stroke="#ccc" d="M52.56 535.3h626.88"/><path stroke="#ddd" stroke-dasharray="3,2" d="M52.56 484.7h626.88M52.56 434.1h626.88M52.56 383.5h626.88M52.56 332.9h626.88M52.56 282.3h626.88M52.56 231.8h626.88M52.56 181.2h626.88M52.56 130.6h626.88M52.56 80h626.88"/></g></g><g clip-path="url(#a)"><g class="HeightedLegend clickable"><g class="legendMark"><text font-size="13.5" x="684.4" y="499.1" fill="#3360a9"><tspan x="684.44" y="499.05">Smallpox death rate</tspan></text></g></g><g class="Lines"><g class="key-United-Kingdom_1"><path stroke="#3360a9" stroke-linecap="round" d="M53 515l2 11 2-8 3-123 2 119 2-294 2 246 3 56 25-12 2-77 3-183 2 232 2-70 2-135 3 220 2-118 2-131 3 136 2-19 2 101 3-192 2 202 2-100 2 42 3 50 2-103 2 153 3 10 2-184 2-100 2 168 3-60 2 71 2-43 3 32 2-176 2 153 3 98 2-174 2 2 2-9 3 145 2-230 2 142 3-85 2 87 2-102 2 154 35-17 2 95 3-69 2-58 2 42 2 33 3-34 2-74 2 82 3-204 2 206 2-116 2 38 3-73 2 147 2-131 3 13 2 59 2-109 3 145 2-86 2 16 2-70 3 164 2-197 2 187 3-82 2 20 2-51 3 61 2-83 2 135 2 11 3-143 2 90 2-105 3 87 2 34 2-13 2-55 3 68 2 24 2-72 3 3 2 57 2-147 3 153 2-52 2-71 2 129 3 11 2-317 2 336 3-162 2 34 2 34 3-196 2 208 2-152 2 56 3 96 2-80 2-83 3 87 2-13 2 25 2 3 3-80 2 96 2 4 3 32 2-195 2 266 3-179 2-29 2 100 2-49 3 102 2-132 2 201 3-320 2 338 2-117 3-43 2-18 2 118 2-167 3 175 2-112 2 27 3-9 2 39 2-81 2 26 3 127 2-341 2 388 3-248 2 170 2-109 3 74 2-16 2 51 2 63 3-150 2 79 2-16 3 31 2-28 2 24 3 41 2-67 2 47 2 48 3-10 2 12 2-52 3 79 2-39 2-10 2 34 3-12 2-14 2 5 3-66 2 95 2-9 3 1 2-10 2 6 2 17 23-2 3 38 2-2 2-67 3 42 2 34 2-28 2-30 3 52 2-6 2-23 3-5 2 44 2-14 3-19 2 19 2 17 2-3 3-38 2 11 2 28 3-5 2-58 2 54 3-5 2-21 2-5 2 28 3 11 2-22 2-217 3 185 2 60 2 1 2 1 3-23 2-59 2 41 3 29 2-1 2-60 3 61 2 9 2-24h2l3 28h11l3-1 2-4 2 2 2 2 3 1h9l2-7 2-33" fill="none" stroke-width="1.5"/><g fill="#3360a9"><circle cx="53" cy="515" r="2"/><circle cx="55" cy="526" r="2"/><circle cx="57" cy="518" r="2"/><circle cx="60" cy="395" r="2"/><circle cx="62" cy="514" r="2"/><circle cx="64" cy="220" r="2"/><circle cx="66" cy="466" r="2"/><circle cx="69" cy="522" r="2"/><circle cx="94" cy="510" r="2"/><circle cx="96" cy="433" r="2"/><circle cx="99" cy="250" r="2"/><circle cx="101" cy="482" r="2"/><circle cx="103" cy="412" r="2"/><circle cx="105" cy="277" r="2"/><circle cx="108" cy="497" r="2"/><circle cx="110" cy="379" r="2"/><circle cx="112" cy="248" r="2"/><circle cx="115" cy="384" r="2"/><circle cx="117" cy="365" r="2"/><circle cx="119" cy="466" r="2"/><circle cx="122" cy="274" r="2"/><circle cx="124" cy="476" r="2"/><circle cx="126" cy="376" r="2"/><circle cx="128" cy="418" r="2"/><circle cx="131" cy="468" r="2"/><circle cx="133" cy="365" r="2"/><circle cx="135" cy="518" r="2"/><circle cx="138" cy="528" r="2"/><circle cx="140" cy="344" r="2"/><circle cx="142" cy="244" r="2"/><circle cx="144" cy="412" r="2"/><circle cx="147" cy="352" r="2"/><circle cx="149" cy="423" r="2"/><circle cx="151" cy="380" r="2"/><circle cx="154" cy="412" r="2"/><circle cx="156" cy="236" r="2"/><circle cx="158" cy="389" r="2"/><circle cx="161" cy="487" r="2"/><circle cx="163" cy="313" r="2"/><circle cx="165" cy="315" r="2"/><circle cx="167" cy="306" r="2"/><circle cx="170" cy="451" r="2"/><circle cx="172" cy="221" r="2"/><circle cx="174" cy="363" r="2"/><circle cx="177" cy="278" r="2"/><circle cx="179" cy="365" r="2"/><circle cx="181" cy="263" r="2"/><circle cx="183" cy="417" r="2"/><circle cx="218" cy="400" r="2"/><circle cx="220" cy="495" r="2"/><circle cx="223" cy="426" r="2"/><circle cx="225" cy="368" r="2"/><circle cx="227" cy="410" r="2"/><circle cx="229" cy="443" r="2"/><circle cx="232" cy="409" r="2"/><circle cx="234" cy="335" r="2"/><circle cx="236" cy="417" r="2"/><circle cx="239" cy="213" r="2"/><circle cx="241" cy="419" r="2"/><circle cx="243" cy="303" r="2"/><circle cx="245" cy="341" r="2"/><circle cx="248" cy="268" r="2"/><circle cx="250" cy="415" r="2"/><circle cx="252" cy="284" r="2"/><circle cx="255" cy="297" r="2"/><circle cx="257" cy="356" r="2"/><circle cx="259" cy="247" r="2"/><circle cx="262" cy="392" r="2"/><circle cx="264" cy="306" r="2"/><circle cx="266" cy="322" r="2"/><circle cx="268" cy="252" r="2"/><circle cx="271" cy="416" r="2"/><circle cx="273" cy="219" r="2"/><circle cx="275" cy="406" r="2"/><circle cx="278" cy="324" r="2"/><circle cx="280" cy="344" r="2"/><circle cx="282" cy="293" r="2"/><circle cx="285" cy="354" r="2"/><circle cx="287" cy="271" r="2"/><circle cx="289" cy="406" r="2"/><circle cx="291" cy="417" r="2"/><circle cx="294" cy="274" r="2"/><circle cx="296" cy="364" r="2"/><circle cx="298" cy="259" r="2"/><circle cx="301" cy="346" r="2"/><circle cx="303" cy="380" r="2"/><circle cx="305" cy="367" r="2"/><circle cx="307" cy="312" r="2"/><circle cx="310" cy="380" r="2"/><circle cx="312" cy="404" r="2"/><circle cx="314" cy="332" r="2"/><circle cx="317" cy="335" r="2"/><circle cx="319" cy="392" r="2"/><circle cx="321" cy="245" r="2"/><circle cx="324" cy="398" r="2"/><circle cx="326" cy="346" r="2"/><circle cx="328" cy="275" r="2"/><circle cx="330" cy="404" r="2"/><circle cx="333" cy="415" r="2"/><circle cx="335" cy="98" r="2"/><circle cx="337" cy="434" r="2"/><circle cx="340" cy="272" r="2"/><circle cx="342" cy="306" r="2"/><circle cx="344" cy="340" r="2"/><circle cx="347" cy="144" r="2"/><circle cx="349" cy="352" r="2"/><circle cx="351" cy="200" r="2"/><circle cx="353" cy="256" r="2"/><circle cx="356" cy="352" r="2"/><circle cx="358" cy="272" r="2"/><circle cx="360" cy="189" r="2"/><circle cx="363" cy="276" r="2"/><circle cx="365" cy="263" r="2"/><circle cx="367" cy="288" r="2"/><circle cx="369" cy="291" r="2"/><circle cx="372" cy="211" r="2"/><circle cx="374" cy="307" r="2"/><circle cx="376" cy="311" r="2"/><circle cx="379" cy="343" r="2"/><circle cx="381" cy="148" r="2"/><circle cx="383" cy="414" r="2"/><circle cx="386" cy="235" r="2"/><circle cx="388" cy="206" r="2"/><circle cx="390" cy="306" r="2"/><circle cx="392" cy="257" r="2"/><circle cx="395" cy="359" r="2"/><circle cx="397" cy="227" r="2"/><circle cx="399" cy="428" r="2"/><circle cx="402" cy="108" r="2"/><circle cx="404" cy="446" r="2"/><circle cx="406" cy="329" r="2"/><circle cx="409" cy="286" r="2"/><circle cx="411" cy="268" r="2"/><circle cx="413" cy="386" r="2"/><circle cx="415" cy="219" r="2"/><circle cx="418" cy="394" r="2"/><circle cx="420" cy="282" r="2"/><circle cx="422" cy="309" r="2"/><circle cx="425" cy="300" r="2"/><circle cx="427" cy="339" r="2"/><circle cx="429" cy="258" r="2"/><circle cx="431" cy="284" r="2"/><circle cx="434" cy="411" r="2"/><circle cx="436" cy="70" r="2"/><circle cx="438" cy="458" r="2"/><circle cx="441" cy="210" r="2"/><circle cx="443" cy="380" r="2"/><circle cx="445" cy="271" r="2"/><circle cx="448" cy="345" r="2"/><circle cx="450" cy="329" r="2"/><circle cx="452" cy="380" r="2"/><circle cx="454" cy="443" r="2"/><circle cx="457" cy="293" r="2"/><circle cx="459" cy="372" r="2"/><circle cx="461" cy="356" r="2"/><circle cx="464" cy="387" r="2"/><circle cx="466" cy="359" r="2"/><circle cx="468" cy="383" r="2"/><circle cx="471" cy="424" r="2"/><circle cx="473" cy="357" r="2"/><circle cx="475" cy="404" r="2"/><circle cx="477" cy="452" r="2"/><circle cx="480" cy="442" r="2"/><circle cx="482" cy="454" r="2"/><circle cx="484" cy="402" r="2"/><circle cx="487" cy="481" r="2"/><circle cx="489" cy="442" r="2"/><circle cx="491" cy="432" r="2"/><circle cx="493" cy="466" r="2"/><circle cx="496" cy="454" r="2"/><circle cx="498" cy="440" r="2"/><circle cx="500" cy="445" r="2"/><circle cx="503" cy="379" r="2"/><circle cx="505" cy="474" r="2"/><circle cx="507" cy="465" r="2"/><circle cx="510" cy="466" r="2"/><circle cx="512" cy="456" r="2"/><circle cx="514" cy="462" r="2"/><circle cx="516" cy="479" r="2"/><circle cx="539" cy="477" r="2"/><circle cx="542" cy="515" r="2"/><circle cx="544" cy="513" r="2"/><circle cx="546" cy="446" r="2"/><circle cx="549" cy="488" r="2"/><circle cx="551" cy="522" r="2"/><circle cx="553" cy="494" r="2"/><circle cx="555" cy="464" r="2"/><circle cx="558" cy="516" r="2"/><circle cx="560" cy="510" r="2"/><circle cx="562" cy="487" r="2"/><circle cx="565" cy="482" r="2"/><circle cx="567" cy="526" r="2"/><circle cx="569" cy="512" r="2"/><circle cx="572" cy="493" r="2"/><circle cx="574" cy="512" r="2"/><circle cx="576" cy="529" r="2"/><circle cx="578" cy="526" r="2"/><circle cx="581" cy="488" r="2"/><circle cx="583" cy="499" r="2"/><circle cx="585" cy="527" r="2"/><circle cx="588" cy="522" r="2"/><circle cx="590" cy="464" r="2"/><circle cx="592" cy="518" r="2"/><circle cx="595" cy="513" r="2"/><circle cx="597" cy="492" r="2"/><circle cx="599" cy="487" r="2"/><circle cx="601" cy="515" r="2"/><circle cx="604" cy="526" r="2"/><circle cx="606" cy="504" r="2"/><circle cx="608" cy="287" r="2"/><circle cx="611" cy="472" r="2"/><circle cx="613" cy="532" r="2"/><circle cx="615" cy="533" r="2"/><circle cx="617" cy="534" r="2"/><circle cx="620" cy="511" r="2"/><circle cx="622" cy="452" r="2"/><circle cx="624" cy="493" r="2"/><circle cx="627" cy="522" r="2"/><circle cx="629" cy="521" r="2"/><circle cx="631" cy="461" r="2"/><circle cx="634" cy="522" r="2"/><circle cx="636" cy="531" r="2"/><circle cx="638" cy="507" r="2"/><circle cx="640" cy="507" r="2"/><circle cx="643" cy="535" r="2"/><circle cx="645" cy="535" r="2"/><circle cx="647" cy="535" r="2"/><circle cx="650" cy="535" r="2"/><circle cx="652" cy="535" r="2"/><circle cx="654" cy="535" r="2"/><circle cx="657" cy="534" r="2"/><circle cx="659" cy="530" r="2"/><circle cx="661" cy="532" r="2"/><circle cx="663" cy="534" r="2"/><circle cx="666" cy="535" r="2"/><circle cx="668" cy="535" r="2"/><circle cx="670" cy="535" r="2"/><circle cx="673" cy="535" r="2"/><circle cx="675" cy="535" r="2"/><circle cx="677" cy="528" r="2"/><circle cx="679" cy="495" r="2"/></g></g></g></g></g><g class="SourcesFooter" fill="#777"><g class="clickable" fill="#777"><text font-size="12.6" x="15" y="581.6"><tspan x="15" y="581.58">Source: Our World in Data (2017)</tspan></text></g><text font-size="12.6" x="775.4" y="581.6"><tspan x="775.4" y="581.58"><a class="cclogo" href="http://creativecommons.org/licenses/by-sa/4.0/deed.en_US" target="_blank" fill="#777">CC BY-SA</a></tspan></text></g></g></svg>