<svg xmlns="http://www.w3.org/2000/svg" version="1.1" style="background-color:#fff;-webkit-font-smoothing:antialiased" width="850" height="600" font-family="'Helvetica Neue',Helvetica,Arial,sans-serif" font-size="18" text-rendering="optimizeLegibility"><g class="ChartTab"><g class="HeaderView"><g opacity=".8" transform="matrix(.31 0 0 .31 770 15)"><a xmlns:xlink="http://www.w3.org/1999/xlink" xlink:href="https://ourworldindata.org" target="_blank"><g><path fill="#1B2543" d="M0 0h211.2v130.1H0z"/><path fill="#E63912" d="M0 112.2h211.2v17.9H0z"/><g><path fill="none" d="M1.2 12.3h210.2v99.2H1.2z"/><path fill="#FFF" d="M37.8 32.2c0 12.7-7.7 19.4-17.1 19.4-9.7 0-16.6-7.5-16.6-18.7 0-11.7 7.3-19.3 17.1-19.3 10.1.1 16.6 7.7 16.6 18.6zm-28.6.6c0 7.9 4.3 14.9 11.8 14.9 7.5 0 11.8-6.9 11.8-15.3 0-7.3-3.8-14.9-11.8-14.9-7.9 0-11.8 7.3-11.8 15.3zM62.7 43.8c0 2.7.1 5.1.2 7.2h-4.3l-.3-4.3h-.1c-1.3 2.1-4 4.9-8.8 4.9-4.2 0-9.1-2.3-9.1-11.6V24.6h4.8v14.6c0 5 1.5 8.4 5.9 8.4 3.2 0 5.5-2.2 6.3-4.4.3-.7.4-1.6.4-2.5V24.6h4.8v19.2zM67.3 32.8c0-3.1-.1-5.8-.2-8.2h4.2l.2 5.2h.2c1.2-3.5 4.1-5.8 7.3-5.8.5 0 .9.1 1.4.2v4.5c-.5-.1-1-.2-1.6-.2-3.4 0-5.8 2.6-6.5 6.2-.1.7-.2 1.4-.2 2.2V51h-4.8V32.8zM95.4 51L86 14.2h5l4.4 18.6c1.1 4.6 2.1 9.2 2.7 12.7h.1c.6-3.7 1.8-8 3-12.8l4.9-18.5h5l4.5 18.7c1 4.4 2 8.7 2.6 12.6h.1c.8-4 1.8-8.1 3-12.7l4.9-18.5h4.9L120.6 51h-5L111 31.9c-1.1-4.7-1.9-8.3-2.4-12h-.1c-.7 3.7-1.5 7.3-2.8 12L100.4 51h-5zM154.9 37.6c0 9.8-6.8 14-13.2 14-7.2 0-12.7-5.2-12.7-13.6 0-8.8 5.8-14 13.1-14 7.7 0 12.8 5.5 12.8 13.6zm-21 .3c0 5.8 3.3 10.1 8 10.1 4.6 0 8-4.3 8-10.3 0-4.5-2.2-10.1-7.9-10.1s-8.1 5.2-8.1 10.3zM158.2 32.8c0-3.1-.1-5.8-.2-8.2h4.2l.2 5.2h.2c1.2-3.5 4.1-5.8 7.3-5.8.5 0 .9.1 1.4.2v4.5c-.5-.1-1-.2-1.6-.2-3.4 0-5.8 2.6-6.5 6.2-.1.7-.2 1.4-.2 2.2V51h-4.8V32.8zM173.5 12.3h4.8V51h-4.8V12.3zM206.5 12.3v31.9c0 2.3.1 5 .2 6.8h-4.3l-.2-4.6h-.2c-1.5 2.9-4.7 5.2-9 5.2-6.4 0-11.3-5.4-11.3-13.4-.1-8.8 5.4-14.2 11.9-14.2 4 0 6.8 1.9 8 4h.1V12.3h4.8zm-4.8 23.1c0-.6-.1-1.4-.2-2a7 7 0 00-6.9-5.6c-5 0-7.9 4.4-7.9 10.2 0 5.3 2.6 9.8 7.8 9.8 3.2 0 6.2-2.1 7.1-5.7.2-.7.2-1.3.2-2.1v-4.6zM42.8 64c.1 1.6-1.1 2.9-3.1 2.9-1.7 0-2.9-1.3-2.9-2.9 0-1.7 1.3-3 3-3 1.9 0 3 1.3 3 3zm-5.4 33.8V71.4h4.8v26.4h-4.8zM47.5 78.6c0-2.7-.1-5-.2-7.1h4.3l.3 4.4h.1c1.3-2.5 4.4-5 8.8-5 3.7 0 9.4 2.2 9.4 11.2v15.8h-4.8V82.6c0-4.3-1.6-7.8-6.1-7.8-3.2 0-5.6 2.2-6.5 4.9-.2.6-.3 1.4-.3 2.2v15.9h-4.8V78.6zM84 61.6c2.9-.4 6.3-.8 10.1-.8 6.8 0 11.7 1.6 14.9 4.6 3.3 3 5.2 7.3 5.2 13.2 0 6-1.9 10.9-5.3 14.3-3.4 3.4-9.1 5.3-16.3 5.3-3.4 0-6.2-.2-8.6-.4V61.6zm4.8 32.5c1.2.2 3 .3 4.8.3 10.2 0 15.7-5.7 15.7-15.6.1-8.7-4.9-14.2-14.9-14.2-2.5 0-4.3.2-5.6.5v29zM132.1 97.8l-.4-3.3h-.2a9.79 9.79 0 01-8.1 3.9c-5.4 0-8.1-3.8-8.1-7.6 0-6.4 5.7-9.9 15.9-9.8v-.5c0-2.2-.6-6.1-6-6.1-2.5 0-5 .8-6.9 2l-1.1-3.2c2.2-1.4 5.4-2.3 8.7-2.3 8.1 0 10.1 5.5 10.1 10.8v9.9c0 2.3.1 4.5.4 6.3h-4.3zm-.7-13.4c-5.3-.1-11.2.8-11.2 5.9 0 3.1 2.1 4.6 4.5 4.6 3.4 0 5.6-2.2 6.4-4.4.2-.5.3-1 .3-1.5v-4.6zM146.6 63.9v7.6h6.9v3.7h-6.9v14.2c0 3.3.9 5.1 3.6 5.1 1.3 0 2.2-.2 2.8-.3l.2 3.6c-.9.4-2.4.7-4.3.7-2.2 0-4-.7-5.2-2-1.4-1.4-1.9-3.8-1.9-6.9V75.1h-4.1v-3.7h4.1v-6.3l4.8-1.2zM171.4 97.8l-.4-3.3h-.2a9.79 9.79 0 01-8.1 3.9c-5.4 0-8.1-3.8-8.1-7.6 0-6.4 5.7-9.9 15.9-9.8v-.5c0-2.2-.6-6.1-6-6.1-2.5 0-5 .8-6.9 2l-1.1-3.2c2.2-1.4 5.4-2.3 8.7-2.3 8.1 0 10.1 5.5 10.1 10.8v9.9c0 2.3.1 4.5.4 6.3h-4.3zm-.7-13.4c-5.3-.1-11.2.8-11.2 5.9 0 3.1 2.1 4.6 4.5 4.6 3.4 0 5.6-2.2 6.4-4.4.2-.5.3-1 .3-1.5v-4.6z"/></g></g></a></g><a href="https://ourworldindata.org/grapher/Deaths-caused-by-vaccine-preventable-diseases-over-time" target="_blank"><text font-size="27" x="15" y="36.6" fill="#555"><tspan x="15" y="36.6">Deaths caused by vaccine-preventable diseases, World</tspan></text></a></g><g class="LineChart"><defs><clipPath id="a"><path d="M83.06 0h830v906.4h-830z"/></clipPath></defs><g class="AxisBoxView"><g class="HorizontalAxis" fill="#666" text-anchor="middle" font-size="16.2"><text x="93.1" y="528.2">1990</text><text x="192.6" y="528.2">1995</text><text x="292.2" y="528.2">2000</text><text x="391.7" y="528.2">2005</text><text x="491.2" y="528.2">2010</text><text x="610.7" y="528.2">2016</text></g><g class="VerticalAxis" fill="#666" dominant-baseline="middle" text-anchor="end" font-size="16.2"><text x="88.06" y="507">0</text><text x="88.06" y="459">200,000</text><text x="88.06" y="411">400,000</text><text x="88.06" y="363">600,000</text><text x="88.06" y="315">800,000</text><text x="88.06" y="267">1 million</text><text x="88.06" y="219">1.2 million</text><text x="88.06" y="171">1.4 million</text><text x="88.06" y="123">1.6 million</text><text x="88.06" y="75">1.8 million</text></g><g class="AxisGridLines"><path stroke="#ccc" d="M93.06 507H610.7"/><path stroke="#ddd" stroke-dasharray="3,2" d="M93.06 459H610.7M93.06 411H610.7M93.06 363H610.7M93.06 315H610.7M93.06 267H610.7M93.06 219H610.7M93.06 171H610.7M93.06 123H610.7M93.06 75H610.7"/></g><g class="AxisGridLines" stroke="#ddd" stroke-dasharray="3,2"><path d="M93.1 507V75M192.6 507V75M292.2 507V75M391.7 507V75M491.2 507V75M590.8 507V75"/></g></g><g clip-path="url(#a)"><g class="HeightedLegend clickable"><g class="legendMark"><path fill="#3360a9" d="M620.7 498.55h10v2.5h-10z"/><text font-size="14.4" x="635.7" y="504.1" fill="#333"><tspan x="635.7" y="504.12">Diphtheria</tspan></text></g><g class="legendMark"><path fill="#ca2628" d="M620.7 484.15h10v2.5h-10z"/><text font-size="14.4" x="635.7" y="489.7" fill="#333"><tspan x="635.7" y="489.72">Yellow fever</tspan></text></g><g class="legendMark"><path fill="#f6a324" d="M620.7 469.75h10v2.5h-10z"/><text font-size="14.4" x="635.7" y="475.3" fill="#333"><tspan x="635.7" y="475.32">Tetanus</tspan></text></g><g class="legendMark"><path fill="#34983f" d="M620.7 447.6h10v2.5h-10z"/><text font-size="14.4" x="635.7" y="445.4" fill="#333"><tspan x="635.7" y="445.42">Haemophilus influenzae type B</tspan><tspan x="635.7" y="461.26">meningitis</tspan></text></g><g class="legendMark"><path fill="#a652ba" d="M620.7 425.45h10v2.5h-10z"/><text font-size="14.4" x="635.7" y="431" fill="#333"><tspan x="635.7" y="431.02">Measles</tspan></text></g><g class="legendMark"><path fill="#2a939b" d="M620.7 411.05h10v2.5h-10z"/><text font-size="14.4" x="635.7" y="416.6" fill="#333"><tspan x="635.7" y="416.62">Whooping cough</tspan></text></g><g class="legendMark"><path fill="#e6332e" d="M620.7 396.65h10v2.5h-10z"/><text font-size="14.4" x="635.7" y="402.2" fill="#333"><tspan x="635.7" y="402.22">Hepatitis B</tspan></text></g><g class="legendMark"><path fill="#9ecc8a" d="M620.7 382.25h10v2.5h-10z"/><text font-size="14.4" x="635.7" y="387.8" fill="#333"><tspan x="635.7" y="387.82">Meningococcal meningitis</tspan></text></g><g class="legendMark"><path fill="#ffd53e" d="M620.7 214.65h10v2.5h-10z"/><text font-size="14.4" x="635.7" y="220.2" fill="#333"><tspan x="635.7" y="220.22">Tuberculosis</tspan></text></g></g><g class="Lines"><g class="key-World_0"><path stroke="#3360a9" stroke-linecap="round" d="M93 505h199l20 1h139l20 1h140" fill="none" stroke-width="1.5"/><g fill="#3360a9"><circle cx="93" cy="505" r="2"/><circle cx="113" cy="505" r="2"/><circle cx="133" cy="505" r="2"/><circle cx="153" cy="505" r="2"/><circle cx="173" cy="505" r="2"/><circle cx="193" cy="505" r="2"/><circle cx="213" cy="505" r="2"/><circle cx="232" cy="505" r="2"/><circle cx="252" cy="505" r="2"/><circle cx="272" cy="505" r="2"/><circle cx="292" cy="505" r="2"/><circle cx="312" cy="506" r="2"/><circle cx="332" cy="506" r="2"/><circle cx="352" cy="506" r="2"/><circle cx="372" cy="506" r="2"/><circle cx="392" cy="506" r="2"/><circle cx="412" cy="506" r="2"/><circle cx="432" cy="506" r="2"/><circle cx="451" cy="506" r="2"/><circle cx="471" cy="507" r="2"/><circle cx="491" cy="507" r="2"/><circle cx="511" cy="507" r="2"/><circle cx="531" cy="507" r="2"/><circle cx="551" cy="507" r="2"/><circle cx="571" cy="507" r="2"/><circle cx="591" cy="507" r="2"/><circle cx="611" cy="507" r="2"/></g></g><g class="key-World_1"><path stroke="#f6a324" stroke-linecap="round" d="M93 427l20 8 20 5 20 5 20 3 20 4 20 3 19 3 20 3 20 3 20 2 20 4 20 3 20 3 20 4 20 3 20 2 20 2 19 2 20 2 20 1 20 2 20 1 20 1 20 1 20 1h20" fill="none" stroke-width="1.5"/><g fill="#f6a324"><circle cx="93" cy="427" r="2"/><circle cx="113" cy="435" r="2"/><circle cx="133" cy="440" r="2"/><circle cx="153" cy="445" r="2"/><circle cx="173" cy="448" r="2"/><circle cx="193" cy="452" r="2"/><circle cx="213" cy="455" r="2"/><circle cx="232" cy="458" r="2"/><circle cx="252" cy="461" r="2"/><circle cx="272" cy="464" r="2"/><circle cx="292" cy="466" r="2"/><circle cx="312" cy="470" r="2"/><circle cx="332" cy="473" r="2"/><circle cx="352" cy="476" r="2"/><circle cx="372" cy="480" r="2"/><circle cx="392" cy="483" r="2"/><circle cx="412" cy="485" r="2"/><circle cx="432" cy="487" r="2"/><circle cx="451" cy="489" r="2"/><circle cx="471" cy="491" r="2"/><circle cx="491" cy="492" r="2"/><circle cx="511" cy="494" r="2"/><circle cx="531" cy="495" r="2"/><circle cx="551" cy="496" r="2"/><circle cx="571" cy="497" r="2"/><circle cx="591" cy="498" r="2"/><circle cx="611" cy="498" r="2"/></g></g><g class="key-World_2"><path stroke="#34983f" stroke-linecap="round" d="M93 497h40l20 1h159l20 1h259l20 1" fill="none" stroke-width="1.5"/><g fill="#34983f"><circle cx="93" cy="497" r="2"/><circle cx="113" cy="497" r="2"/><circle cx="133" cy="497" r="2"/><circle cx="153" cy="498" r="2"/><circle cx="173" cy="498" r="2"/><circle cx="193" cy="498" r="2"/><circle cx="213" cy="498" r="2"/><circle cx="232" cy="498" r="2"/><circle cx="252" cy="498" r="2"/><circle cx="272" cy="498" r="2"/><circle cx="292" cy="498" r="2"/><circle cx="312" cy="498" r="2"/><circle cx="332" cy="499" r="2"/><circle cx="352" cy="499" r="2"/><circle cx="372" cy="499" r="2"/><circle cx="392" cy="499" r="2"/><circle cx="412" cy="499" r="2"/><circle cx="432" cy="499" r="2"/><circle cx="451" cy="499" r="2"/><circle cx="471" cy="499" r="2"/><circle cx="491" cy="499" r="2"/><circle cx="511" cy="499" r="2"/><circle cx="531" cy="499" r="2"/><circle cx="551" cy="499" r="2"/><circle cx="571" cy="499" r="2"/><circle cx="591" cy="499" r="2"/><circle cx="611" cy="500" r="2"/></g></g><g class="key-World_3"><path stroke="#e6332e" stroke-linecap="round" d="M93 483l20-1h40l20-1h59l20-1h60l20 1h60l20 1h20l19 1h160" fill="none" stroke-width="1.5"/><g fill="#e6332e"><circle cx="93" cy="483" r="2"/><circle cx="113" cy="482" r="2"/><circle cx="133" cy="482" r="2"/><circle cx="153" cy="482" r="2"/><circle cx="173" cy="481" r="2"/><circle cx="193" cy="481" r="2"/><circle cx="213" cy="481" r="2"/><circle cx="232" cy="481" r="2"/><circle cx="252" cy="480" r="2"/><circle cx="272" cy="480" r="2"/><circle cx="292" cy="480" r="2"/><circle cx="312" cy="480" r="2"/><circle cx="332" cy="481" r="2"/><circle cx="352" cy="481" r="2"/><circle cx="372" cy="481" r="2"/><circle cx="392" cy="481" r="2"/><circle cx="412" cy="482" r="2"/><circle cx="432" cy="482" r="2"/><circle cx="451" cy="483" r="2"/><circle cx="471" cy="483" r="2"/><circle cx="491" cy="483" r="2"/><circle cx="511" cy="483" r="2"/><circle cx="531" cy="483" r="2"/><circle cx="551" cy="483" r="2"/><circle cx="571" cy="483" r="2"/><circle cx="591" cy="483" r="2"/><circle cx="611" cy="483" r="2"/></g></g><g class="key-World_4"><path stroke="#a652ba" stroke-linecap="round" d="M93 288l20 8 20 7 20 7 20 6 20 4 20 6 19 8 20 8 20 9 20 11 20 16 20 11 20 16 20 15 20 13 20 15 20 10 19 6 20 4 20-3 20 2 20 4 20 9 20 6 20 3 20 2" fill="none" stroke-width="1.5"/><g fill="#a652ba"><circle cx="93" cy="288" r="2"/><circle cx="113" cy="296" r="2"/><circle cx="133" cy="303" r="2"/><circle cx="153" cy="310" r="2"/><circle cx="173" cy="316" r="2"/><circle cx="193" cy="320" r="2"/><circle cx="213" cy="326" r="2"/><circle cx="232" cy="334" r="2"/><circle cx="252" cy="342" r="2"/><circle cx="272" cy="351" r="2"/><circle cx="292" cy="362" r="2"/><circle cx="312" cy="378" r="2"/><circle cx="332" cy="389" r="2"/><circle cx="352" cy="405" r="2"/><circle cx="372" cy="420" r="2"/><circle cx="392" cy="433" r="2"/><circle cx="412" cy="448" r="2"/><circle cx="432" cy="458" r="2"/><circle cx="451" cy="464" r="2"/><circle cx="471" cy="468" r="2"/><circle cx="491" cy="465" r="2"/><circle cx="511" cy="467" r="2"/><circle cx="531" cy="471" r="2"/><circle cx="551" cy="480" r="2"/><circle cx="571" cy="486" r="2"/><circle cx="591" cy="489" r="2"/><circle cx="611" cy="491" r="2"/></g></g><g class="key-World_5"><path stroke="#9ecc8a" stroke-linecap="round" d="M93 461h60l20 1h20l20-3 19 3 20 1h20l20 1h20l20 1h20l20 1 20 1h20l20 1 19 1 20-1 20 1 20 2 20 1 20 1 20 1 20 1 20 1" fill="none" stroke-width="1.5"/><g fill="#9ecc8a"><circle cx="93" cy="461" r="2"/><circle cx="113" cy="461" r="2"/><circle cx="133" cy="461" r="2"/><circle cx="153" cy="461" r="2"/><circle cx="173" cy="462" r="2"/><circle cx="193" cy="462" r="2"/><circle cx="213" cy="459" r="2"/><circle cx="232" cy="462" r="2"/><circle cx="252" cy="463" r="2"/><circle cx="272" cy="463" r="2"/><circle cx="292" cy="464" r="2"/><circle cx="312" cy="464" r="2"/><circle cx="332" cy="465" r="2"/><circle cx="352" cy="465" r="2"/><circle cx="372" cy="466" r="2"/><circle cx="392" cy="467" r="2"/><circle cx="412" cy="467" r="2"/><circle cx="432" cy="468" r="2"/><circle cx="451" cy="469" r="2"/><circle cx="471" cy="468" r="2"/><circle cx="491" cy="469" r="2"/><circle cx="511" cy="471" r="2"/><circle cx="531" cy="472" r="2"/><circle cx="551" cy="473" r="2"/><circle cx="571" cy="474" r="2"/><circle cx="591" cy="475" r="2"/><circle cx="611" cy="476" r="2"/></g></g><g class="key-World_6"><path stroke="#ffd53e" stroke-linecap="round" d="M93 75l20 4 20 2 20 2 20 2h20l20 3 19 3 20 2 20-1h20l20 5 20 5 20 8 20 10 20 7 20 12 20 10 19 9 20 9 20 7 20 8 20 8 20 8 20 6 20 6 20 6" fill="none" stroke-width="1.5"/><g fill="#ffd53e"><circle cx="93" cy="75" r="2"/><circle cx="113" cy="79" r="2"/><circle cx="133" cy="81" r="2"/><circle cx="153" cy="83" r="2"/><circle cx="173" cy="85" r="2"/><circle cx="193" cy="85" r="2"/><circle cx="213" cy="88" r="2"/><circle cx="232" cy="91" r="2"/><circle cx="252" cy="93" r="2"/><circle cx="272" cy="92" r="2"/><circle cx="292" cy="92" r="2"/><circle cx="312" cy="97" r="2"/><circle cx="332" cy="102" r="2"/><circle cx="352" cy="110" r="2"/><circle cx="372" cy="120" r="2"/><circle cx="392" cy="127" r="2"/><circle cx="412" cy="139" r="2"/><circle cx="432" cy="149" r="2"/><circle cx="451" cy="158" r="2"/><circle cx="471" cy="167" r="2"/><circle cx="491" cy="174" r="2"/><circle cx="511" cy="182" r="2"/><circle cx="531" cy="190" r="2"/><circle cx="551" cy="198" r="2"/><circle cx="571" cy="204" r="2"/><circle cx="591" cy="210" r="2"/><circle cx="611" cy="216" r="2"/></g></g><g class="key-World_7"><path stroke="#ca2628" stroke-linecap="round" d="M93 504l20 1h299l20 1h59l20-1 20 1h80" fill="none" stroke-width="1.5"/><g fill="#ca2628"><circle cx="93" cy="504" r="2"/><circle cx="113" cy="505" r="2"/><circle cx="133" cy="505" r="2"/><circle cx="153" cy="505" r="2"/><circle cx="173" cy="505" r="2"/><circle cx="193" cy="505" r="2"/><circle cx="213" cy="505" r="2"/><circle cx="232" cy="505" r="2"/><circle cx="252" cy="505" r="2"/><circle cx="272" cy="505" r="2"/><circle cx="292" cy="505" r="2"/><circle cx="312" cy="505" r="2"/><circle cx="332" cy="505" r="2"/><circle cx="352" cy="505" r="2"/><circle cx="372" cy="505" r="2"/><circle cx="392" cy="505" r="2"/><circle cx="412" cy="505" r="2"/><circle cx="432" cy="506" r="2"/><circle cx="451" cy="506" r="2"/><circle cx="471" cy="506" r="2"/><circle cx="491" cy="506" r="2"/><circle cx="511" cy="505" r="2"/><circle cx="531" cy="506" r="2"/><circle cx="551" cy="506" r="2"/><circle cx="571" cy="506" r="2"/><circle cx="591" cy="506" r="2"/><circle cx="611" cy="506" r="2"/></g></g><g class="key-World_8"><path stroke="#2a939b" stroke-linecap="round" d="M93 466l20 2 20 1 20 1 20 1h40l19 1h40l20 1 20 1h20l20 2 20 1 20 1 20 2 20 1 19 1 20 1 20 1 20 1 20 1 20 1 20 1 20 1 20 1" fill="none" stroke-width="1.5"/><g fill="#2a939b"><circle cx="93" cy="466" r="2"/><circle cx="113" cy="468" r="2"/><circle cx="133" cy="469" r="2"/><circle cx="153" cy="470" r="2"/><circle cx="173" cy="471" r="2"/><circle cx="193" cy="471" r="2"/><circle cx="213" cy="471" r="2"/><circle cx="232" cy="472" r="2"/><circle cx="252" cy="472" r="2"/><circle cx="272" cy="472" r="2"/><circle cx="292" cy="473" r="2"/><circle cx="312" cy="474" r="2"/><circle cx="332" cy="474" r="2"/><circle cx="352" cy="476" r="2"/><circle cx="372" cy="477" r="2"/><circle cx="392" cy="478" r="2"/><circle cx="412" cy="480" r="2"/><circle cx="432" cy="481" r="2"/><circle cx="451" cy="482" r="2"/><circle cx="471" cy="483" r="2"/><circle cx="491" cy="484" r="2"/><circle cx="511" cy="485" r="2"/><circle cx="531" cy="486" r="2"/><circle cx="551" cy="487" r="2"/><circle cx="571" cy="488" r="2"/><circle cx="591" cy="489" r="2"/><circle cx="611" cy="490" r="2"/></g></g></g></g></g><g class="SourcesFooter" fill="#777"><g class="clickable" fill="#777"><text font-size="12.6" x="15" y="553.3"><tspan x="15" y="553.28">Source: Diphtheria, Tetanus, H influenzae type B meningitis, Hepatitis B, Measles, Meningococcal meningitis, Tuberculosis, Yellow fever,</tspan><tspan x="15" y="567.14">Whooping cough</tspan></text></g><text font-size="12.6" x="15" y="582.5"><tspan x="15" y="582.48"><a target="_blank" href="https://ourworldindata.org/vaccination/" fill="#777">OurWorldInData.org/vaccination/</a> • <a href="http://creativecommons.org/licenses/by-sa/4.0/deed.en_US" target="_blank" fill="#777">CC BY-SA</a></tspan></text></g></g></svg>