<svg xmlns="http://www.w3.org/2000/svg" version="1.1" style="background-color:#fff;-webkit-font-smoothing:antialiased" width="850" height="600" font-family="'Helvetica Neue',Helvetica,Arial,sans-serif" font-size="18" text-rendering="optimizeLegibility"><g class="ChartTab"><g class="HeaderView"><g opacity=".8" transform="matrix(.27 0 0 .27 778 15)"><a xmlns:xlink="http://www.w3.org/1999/xlink" xlink:href="https://ourworldindata.org" target="_blank"><g><path fill="#1B2543" d="M0 0h211.2v130.1H0z"/><path fill="#E63912" d="M0 112.2h211.2v17.9H0z"/><g><path fill="none" d="M1.2 12.3h210.2v99.2H1.2z"/><path fill="#FFF" d="M37.8 32.2c0 12.7-7.7 19.4-17.1 19.4-9.7 0-16.6-7.5-16.6-18.7 0-11.7 7.3-19.3 17.1-19.3 10.1.1 16.6 7.7 16.6 18.6zm-28.6.6c0 7.9 4.3 14.9 11.8 14.9 7.5 0 11.8-6.9 11.8-15.3 0-7.3-3.8-14.9-11.8-14.9-7.9 0-11.8 7.3-11.8 15.3zM62.7 43.8c0 2.7.1 5.1.2 7.2h-4.3l-.3-4.3h-.1c-1.3 2.1-4 4.9-8.8 4.9-4.2 0-9.1-2.3-9.1-11.6V24.6h4.8v14.6c0 5 1.5 8.4 5.9 8.4 3.2 0 5.5-2.2 6.3-4.4.3-.7.4-1.6.4-2.5V24.6h4.8v19.2zM67.3 32.8c0-3.1-.1-5.8-.2-8.2h4.2l.2 5.2h.2c1.2-3.5 4.1-5.8 7.3-5.8.5 0 .9.1 1.4.2v4.5c-.5-.1-1-.2-1.6-.2-3.4 0-5.8 2.6-6.5 6.2-.1.7-.2 1.4-.2 2.2V51h-4.8V32.8zM95.4 51L86 14.2h5l4.4 18.6c1.1 4.6 2.1 9.2 2.7 12.7h.1c.6-3.7 1.8-8 3-12.8l4.9-18.5h5l4.5 18.7c1 4.4 2 8.7 2.6 12.6h.1c.8-4 1.8-8.1 3-12.7l4.9-18.5h4.9L120.6 51h-5L111 31.9c-1.1-4.7-1.9-8.3-2.4-12h-.1c-.7 3.7-1.5 7.3-2.8 12L100.4 51h-5zM154.9 37.6c0 9.8-6.8 14-13.2 14-7.2 0-12.7-5.2-12.7-13.6 0-8.8 5.8-14 13.1-14 7.7 0 12.8 5.5 12.8 13.6zm-21 .3c0 5.8 3.3 10.1 8 10.1 4.6 0 8-4.3 8-10.3 0-4.5-2.2-10.1-7.9-10.1s-8.1 5.2-8.1 10.3zM158.2 32.8c0-3.1-.1-5.8-.2-8.2h4.2l.2 5.2h.2c1.2-3.5 4.1-5.8 7.3-5.8.5 0 .9.1 1.4.2v4.5c-.5-.1-1-.2-1.6-.2-3.4 0-5.8 2.6-6.5 6.2-.1.7-.2 1.4-.2 2.2V51h-4.8V32.8zM173.5 12.3h4.8V51h-4.8V12.3zM206.5 12.3v31.9c0 2.3.1 5 .2 6.8h-4.3l-.2-4.6h-.2c-1.5 2.9-4.7 5.2-9 5.2-6.4 0-11.3-5.4-11.3-13.4-.1-8.8 5.4-14.2 11.9-14.2 4 0 6.8 1.9 8 4h.1V12.3h4.8zm-4.8 23.1c0-.6-.1-1.4-.2-2a7 7 0 00-6.9-5.6c-5 0-7.9 4.4-7.9 10.2 0 5.3 2.6 9.8 7.8 9.8 3.2 0 6.2-2.1 7.1-5.7.2-.7.2-1.3.2-2.1v-4.6zM42.8 64c.1 1.6-1.1 2.9-3.1 2.9-1.7 0-2.9-1.3-2.9-2.9 0-1.7 1.3-3 3-3 1.9 0 3 1.3 3 3zm-5.4 33.8V71.4h4.8v26.4h-4.8zM47.5 78.6c0-2.7-.1-5-.2-7.1h4.3l.3 4.4h.1c1.3-2.5 4.4-5 8.8-5 3.7 0 9.4 2.2 9.4 11.2v15.8h-4.8V82.6c0-4.3-1.6-7.8-6.1-7.8-3.2 0-5.6 2.2-6.5 4.9-.2.6-.3 1.4-.3 2.2v15.9h-4.8V78.6zM84 61.6c2.9-.4 6.3-.8 10.1-.8 6.8 0 11.7 1.6 14.9 4.6 3.3 3 5.2 7.3 5.2 13.2 0 6-1.9 10.9-5.3 14.3-3.4 3.4-9.1 5.3-16.3 5.3-3.4 0-6.2-.2-8.6-.4V61.6zm4.8 32.5c1.2.2 3 .3 4.8.3 10.2 0 15.7-5.7 15.7-15.6.1-8.7-4.9-14.2-14.9-14.2-2.5 0-4.3.2-5.6.5v29zM132.1 97.8l-.4-3.3h-.2a9.79 9.79 0 01-8.1 3.9c-5.4 0-8.1-3.8-8.1-7.6 0-6.4 5.7-9.9 15.9-9.8v-.5c0-2.2-.6-6.1-6-6.1-2.5 0-5 .8-6.9 2l-1.1-3.2c2.2-1.4 5.4-2.3 8.7-2.3 8.1 0 10.1 5.5 10.1 10.8v9.9c0 2.3.1 4.5.4 6.3h-4.3zm-.7-13.4c-5.3-.1-11.2.8-11.2 5.9 0 3.1 2.1 4.6 4.5 4.6 3.4 0 5.6-2.2 6.4-4.4.2-.5.3-1 .3-1.5v-4.6zM146.6 63.9v7.6h6.9v3.7h-6.9v14.2c0 3.3.9 5.1 3.6 5.1 1.3 0 2.2-.2 2.8-.3l.2 3.6c-.9.4-2.4.7-4.3.7-2.2 0-4-.7-5.2-2-1.4-1.4-1.9-3.8-1.9-6.9V75.1h-4.1v-3.7h4.1v-6.3l4.8-1.2zM171.4 97.8l-.4-3.3h-.2a9.79 9.79 0 01-8.1 3.9c-5.4 0-8.1-3.8-8.1-7.6 0-6.4 5.7-9.9 15.9-9.8v-.5c0-2.2-.6-6.1-6-6.1-2.5 0-5 .8-6.9 2l-1.1-3.2c2.2-1.4 5.4-2.3 8.7-2.3 8.1 0 10.1 5.5 10.1 10.8v9.9c0 2.3.1 4.5.4 6.3h-4.3zm-.7-13.4c-5.3-.1-11.2.8-11.2 5.9 0 3.1 2.1 4.6 4.5 4.6 3.4 0 5.6-2.2 6.4-4.4.2-.5.3-1 .3-1.5v-4.6z"/></g></g></a></g><a href="https://ourworldindata.org/grapher/deaths-air-pollution-vs-gdp" target="_blank"><text font-size="21.6" x="15" y="32.3" fill="#555"><tspan x="15" y="32.28">Death rates from ambient particulate air pollution vs. GDP per capita, 2016</tspan></text></a><text font-size="14.4" x="15" y="50.1" fill="#666"><tspan x="15" y="50.12">Deaths attributed to exposure to outdoor particulate air pollution, measured as the number of premature deaths per</tspan><tspan x="15" y="65.96">100,000 people versus gross domestic product (GDP) per capita, measured in 2011 international-$. Death rates are</tspan><tspan x="15" y="81.8">age-standardized, so correct for differences in age structures between populations.</tspan></text></g><g><g class="AxisBoxView"><g class="HorizontalAxis"><text font-size="12.6" x="218.3" y="554"><tspan x="218.34" y="553.98">GDP per capita, PPP (constant 2011 international $)</tspan></text><text x="123.6" y="533.9" fill="#666" text-anchor="middle" font-size="16.2">$1,000</text><text x="408.9" y="533.9" fill="#666" text-anchor="middle" font-size="16.2">$10,000</text><text x="694.3" y="533.9" fill="#666" text-anchor="middle" font-size="16.2">$100,000</text></g><g class="VerticalAxis"><text font-size="12.6" x="-493.7" y="25.1" transform="rotate(-90)"><tspan x="-493.67" y="25.08">Deaths from ambient particulate air pollution (per 100,000)</tspan></text><text x="64.82" y="512.7" fill="#666" dominant-baseline="middle" text-anchor="end" font-size="16.2">0</text><text x="64.82" y="414.3" fill="#666" dominant-baseline="middle" text-anchor="end" font-size="16.2">50</text><text x="64.82" y="315.9" fill="#666" dominant-baseline="middle" text-anchor="end" font-size="16.2">100</text><text x="64.82" y="217.5" fill="#666" dominant-baseline="middle" text-anchor="end" font-size="16.2">150</text><text x="64.82" y="119.1" fill="#666" dominant-baseline="middle" text-anchor="end" font-size="16.2">200</text></g><g class="AxisGridLines"><path stroke="#ccc" d="M69.82 512.7H715"/><path stroke="#ddd" stroke-dasharray="3,2" d="M69.82 414.3H715M69.82 315.9H715M69.82 217.5H715M69.82 119.1H715"/></g><g class="AxisGridLines" stroke="#ddd" stroke-dasharray="3,2"><path d="M123.6 512.7V104M408.9 512.7V104M694.3 512.7V104"/></g></g><g clip-path="url(#a)" font-family="Arial Narrow, Arial, sans-serif" class="PointsWithLabels clickable"><path fill="rgba(255,255,255,0)" d="M69.82 104H715v408.7H69.82z"/><defs><clipPath id="a"><path d="M59.82 94H725v428.7H59.82z"/></clipPath></defs><g class="key-China_0"><circle cx="454" cy="355" r="17.84" fill="#d14e5b" opacity=".8" stroke="#333" stroke-width=".7"/></g><g class="key-India_0"><circle cx="347" cy="268" r="17.29" fill="#d14e5b" opacity=".8" stroke="#333" stroke-width=".7"/></g><g class="key-United-States_0"><circle cx="616" cy="475" r="8.78" fill="#4d824b" opacity=".8" stroke="#333" stroke-width=".7"/></g><g class="key-Indonesia_0"><circle cx="418" cy="415" r="7.78" fill="#d14e5b" opacity=".8" stroke="#333" stroke-width=".7"/></g><g class="key-Brazil_0"><circle cx="450" cy="456" r="7.04" fill="#69c487" opacity=".8" stroke="#333" stroke-width=".7"/></g><g class="key-Pakistan_0"><circle cx="319" cy="264" r="6.76" fill="#d14e5b" opacity=".8" stroke="#fff" stroke-width=".7"/></g><g class="key-Nigeria_0"><circle cx="333" cy="328" r="6.54" fill="#5675c1" opacity=".8" stroke="#333" stroke-width=".7"/></g><g class="key-Bangladesh_0"><circle cx="272" cy="283" r="6.24" fill="#d14e5b" opacity=".8" stroke="#333" stroke-width=".7"/></g><g class="key-Russia_0"><circle cx="517" cy="393" r="6.02" fill="#ffd336" opacity=".8" stroke="#333" stroke-width=".7"/></g><g class="key-Japan_0"><circle cx="575" cy="487" r="5.7" fill="#d14e5b" opacity=".8" stroke="#333" stroke-width=".7"/></g><g class="key-Mexico_0"><circle cx="473" cy="462" r="5.51" fill="#4d824b" opacity=".8" stroke="#fff" stroke-width=".7"/></g><g class="key-Philippines_0"><circle cx="368" cy="340" r="5.09" fill="#d14e5b" opacity=".8" stroke="#333" stroke-width=".7"/></g><g class="key-Vietnam_0"><circle cx="344" cy="412" r="4.92" fill="#d14e5b" opacity=".8" stroke="#333" stroke-width=".7"/></g><g class="key-Ethiopia_0"><circle cx="182" cy="343" r="4.86" fill="#5675c1" opacity=".8" stroke="#333" stroke-width=".7"/></g><g class="key-Egypt_0"><circle cx="412" cy="275" r="4.79" fill="#5675c1" opacity=".8" stroke="#333" stroke-width=".7"/></g><g class="key-Germany_0"><circle cx="592" cy="472" r="4.7" fill="#ffd336" opacity=".8" stroke="#fff" stroke-width=".7"/></g><g class="key-Turkey_0"><circle cx="515" cy="432" r="4.54" fill="#d14e5b" opacity=".8" stroke="#333" stroke-width=".7"/></g><g class="key-Democratic-Republic-of-Congo_0"><circle cx="86" cy="323" r="4.44" fill="#5675c1" opacity=".8" stroke="#333" stroke-width=".7"/></g><g class="key-Thailand_0"><circle cx="464" cy="446" r="4.41" fill="#d14e5b" opacity=".8" stroke="#fff" stroke-width=".7"/></g><g class="key-France_0"><circle cx="574" cy="489" r="4.24" fill="#ffd336" opacity=".8" stroke="#fff" stroke-width=".7"/></g><g class="key-United-Kingdom_0"><circle cx="577" cy="473" r="4.22" fill="#ffd336" opacity=".8" stroke="#fff" stroke-width=".7"/></g><g class="key-Italy_0"><circle cx="562" cy="480" r="4.16" fill="#ffd336" opacity=".8" stroke="#fff" stroke-width=".7"/></g><g class="key-South-Africa_0"><circle cx="434" cy="392" r="3.87" fill="#5675c1" opacity=".8" stroke="#333" stroke-width=".7"/></g><g class="key-Tanzania_0"><circle cx="241" cy="394" r="3.82" fill="#5675c1" opacity=".8" stroke="#333" stroke-width=".7"/></g><g class="key-Myanmar_0"><circle cx="331" cy="365" r="3.82" fill="#d14e5b" opacity=".8" stroke="#333" stroke-width=".7"/></g><g class="key-South-Korea_0"><circle cx="564" cy="464" r="3.81" fill="#d14e5b" opacity=".8" stroke="#fff" stroke-width=".7"/></g><g class="key-Colombia_0"><circle cx="442" cy="459" r="3.79" fill="#69c487" opacity=".8" stroke="#fff" stroke-width=".7"/></g><g class="key-Spain_0"><circle cx="557" cy="488" r="3.75" fill="#ffd336" opacity=".8" stroke="#fff" stroke-width=".7"/></g><g class="key-Ukraine_0"><circle cx="376" cy="367" r="3.68" fill="#ffd336" opacity=".8" stroke="#fff" stroke-width=".7"/></g><g class="key-Kenya_0"><circle cx="256" cy="444" r="3.65" fill="#5675c1" opacity=".8" stroke="#333" stroke-width=".7"/></g><g class="key-Argentina_0"><circle cx="485" cy="450" r="3.58" fill="#69c487" opacity=".8" stroke="#333" stroke-width=".7"/></g><g class="key-Poland_0"><circle cx="527" cy="429" r="3.47" fill="#ffd336" opacity=".8" stroke="#fff" stroke-width=".7"/></g><g class="key-Algeria_0"><circle cx="450" cy="418" r="3.43" fill="#5675c1" opacity=".8" stroke="#fff" stroke-width=".7"/></g><g class="key-Uganda_0"><circle cx="190" cy="320" r="3.42" fill="#5675c1" opacity=".8" stroke="#fff" stroke-width=".7"/></g><g class="key-Sudan_0"><circle cx="306" cy="293" r="3.39" fill="#5675c1" opacity=".8" stroke="#333" stroke-width=".7"/></g><g class="key-Canada_0"><circle cx="589" cy="490" r="3.36" fill="#4d824b" opacity=".8" stroke="#fff" stroke-width=".7"/></g><g class="key-Iraq_0"><circle cx="467" cy="274" r="3.35" fill="#d14e5b" opacity=".8" stroke="#333" stroke-width=".7"/></g><g class="key-Afghanistan_0"><circle cx="192" cy="104" r="3.34" fill="#d14e5b" opacity=".8" stroke="#333" stroke-width=".7"/></g><g class="key-Morocco_0"><circle cx="369" cy="411" r="3.29" fill="#5675c1" opacity=".8" stroke="#fff" stroke-width=".7"/></g><g class="key-Nepal_0"><circle cx="226" cy="273" r="3.24" fill="#d14e5b" opacity=".8" stroke="#333" stroke-width=".7"/></g><g class="key-Peru_0"><circle cx="432" cy="450" r="3.19" fill="#69c487" opacity=".8" stroke="#fff" stroke-width=".7"/></g><g class="key-Malaysia_0"><circle cx="525" cy="402" r="3.17" fill="#d14e5b" opacity=".8" stroke="#333" stroke-width=".7"/></g><g class="key-Saudi-Arabia_0"><circle cx="609" cy="327" r="3.16" fill="#d14e5b" opacity=".8" stroke="#333" stroke-width=".7"/></g><g class="key-Uzbekistan_0"><circle cx="346" cy="300" r="3.12" fill="#d14e5b" opacity=".8" stroke="#333" stroke-width=".7"/></g><g class="key-Ghana_0"><circle cx="294" cy="309" r="3.04" fill="#5675c1" opacity=".8" stroke="#333" stroke-width=".7"/></g><g class="key-Mozambique_0"><circle cx="138" cy="412" r="3" fill="#5675c1" opacity=".8" stroke="#333" stroke-width=".7"/></g><g class="key-Australia_0"><circle cx="593" cy="497" r="2.92" fill="#a652ba" opacity=".8" stroke="#333" stroke-width=".7"/></g><g class="key-Madagascar_0"><circle cx="165" cy="359" r="2.9" fill="#5675c1" opacity=".8" stroke="#333" stroke-width=".7"/></g><g class="key-Sri-Lanka_0"><circle cx="425" cy="438" r="2.85" fill="#d14e5b" opacity=".8" stroke="#333" stroke-width=".7"/></g><g class="key-Romania_0"><circle cx="504" cy="412" r="2.85" fill="#ffd336" opacity=".8" stroke="#fff" stroke-width=".7"/></g><g class="key-Cote-d__0027Ivoire_0"><circle cx="277" cy="262" r="2.84" fill="#5675c1" opacity=".8" stroke="#333" stroke-width=".7"/></g><g class="key-Cameroon_0"><circle cx="261" cy="221" r="2.83" fill="#5675c1" opacity=".8" stroke="#333" stroke-width=".7"/></g><g class="key-Angola_0"><circle cx="346" cy="364" r="2.82" fill="#5675c1" opacity=".8" stroke="#fff" stroke-width=".7"/></g><g class="key-Burkina-Faso_0"><circle cx="181" cy="270" r="2.71" fill="#5675c1" opacity=".8" stroke="#fff" stroke-width=".7"/></g><g class="key-Chile_0"><circle cx="510" cy="467" r="2.69" fill="#69c487" opacity=".8" stroke="#333" stroke-width=".7"/></g><g class="key-Niger_0"><circle cx="111" cy="202" r="2.68" fill="#5675c1" opacity=".8" stroke="#333" stroke-width=".7"/></g><g class="key-Mali_0"><circle cx="207" cy="336" r="2.66" fill="#5675c1" opacity=".8" stroke="#fff" stroke-width=".7"/></g><g class="key-Netherlands_0"><circle cx="601" cy="472" r="2.66" fill="#ffd336" opacity=".8" stroke="#fff" stroke-width=".7"/></g><g class="key-Kazakhstan_0"><circle cx="514" cy="378" r="2.65" fill="#d14e5b" opacity=".8" stroke="#333" stroke-width=".7"/></g><g class="key-Malawi_0"><circle cx="133" cy="387" r="2.64" fill="#5675c1" opacity=".8" stroke="#333" stroke-width=".7"/></g><g class="key-Guatemala_0"><circle cx="371" cy="428" r="2.6" fill="#4d824b" opacity=".8" stroke="#fff" stroke-width=".7"/></g><g class="key-Ecuador_0"><circle cx="414" cy="476" r="2.58" fill="#69c487" opacity=".8" stroke="#333" stroke-width=".7"/></g><g class="key-Cambodia_0"><circle cx="277" cy="369" r="2.56" fill="#d14e5b" opacity=".8" stroke="#333" stroke-width=".7"/></g><g class="key-Zambia_0"><circle cx="283" cy="346" r="2.55" fill="#5675c1" opacity=".8" stroke="#333" stroke-width=".7"/></g><g class="key-Senegal_0"><circle cx="231" cy="306" r="2.51" fill="#5675c1" opacity=".8" stroke="#333" stroke-width=".7"/></g><g class="key-Zimbabwe_0"><circle cx="200" cy="369" r="2.5" fill="#5675c1" opacity=".8" stroke="#fff" stroke-width=".7"/></g><g class="key-Chad_0"><circle cx="199" cy="256" r="2.45" fill="#5675c1" opacity=".8" stroke="#333" stroke-width=".7"/></g><g class="key-Rwanda_0"><circle cx="194" cy="369" r="2.42" fill="#5675c1" opacity=".8" stroke="#fff" stroke-width=".7"/></g><g class="key-Greece_0"><circle cx="518" cy="466" r="2.41" fill="#ffd336" opacity=".8" stroke="#fff" stroke-width=".7"/></g><g class="key-Belgium_0"><circle cx="586" cy="469" r="2.38" fill="#ffd336" opacity=".8" stroke="#fff" stroke-width=".7"/></g><g class="key-Tunisia_0"><circle cx="417" cy="410" r="2.38" fill="#5675c1" opacity=".8" stroke="#fff" stroke-width=".7"/></g><g class="key-Guinea_0"><circle cx="147" cy="290" r="2.38" fill="#5675c1" opacity=".8" stroke="#333" stroke-width=".7"/></g><g class="key-Portugal_0"><circle cx="532" cy="482" r="2.38" fill="#ffd336" opacity=".8" stroke="#333" stroke-width=".7"/></g><g class="key-Czech-Republic_0"><circle cx="549" cy="441" r="2.37" fill="#ffd336" opacity=".8" stroke="#333" stroke-width=".7"/></g><g class="key-Bolivia_0"><circle cx="359" cy="422" r="2.36" fill="#69c487" opacity=".8" stroke="#333" stroke-width=".7"/></g><g class="key-Haiti_0"><circle cx="186" cy="349" r="2.36" fill="#4d824b" opacity=".8" stroke="#fff" stroke-width=".7"/></g><g class="key-Dominican-Republic_0"><circle cx="451" cy="438" r="2.36" fill="#4d824b" opacity=".8" stroke="#fff" stroke-width=".7"/></g><g class="key-Hungary_0"><circle cx="524" cy="409" r="2.34" fill="#ffd336" opacity=".8" stroke="#fff" stroke-width=".7"/></g><g class="key-Serbia_0"><circle cx="448" cy="430" r="2.33" fill="#ffd336" opacity=".8" stroke="#fff" stroke-width=".7"/></g><g class="key-Benin_0"><circle cx="210" cy="270" r="2.32" fill="#5675c1" opacity=".8" stroke="#fff" stroke-width=".7"/></g><g class="key-Sweden_0"><circle cx="599" cy="499" r="2.32" fill="#ffd336" opacity=".8" stroke="#fff" stroke-width=".7"/></g><g class="key-Azerbaijan_0"><circle cx="467" cy="336" r="2.32" fill="#d14e5b" opacity=".8" stroke="#fff" stroke-width=".7"/></g><g class="key-Belarus_0"><circle cx="472" cy="380" r="2.32" fill="#ffd336" opacity=".8" stroke="#fff" stroke-width=".7"/></g><g class="key-Burundi_0"><circle cx="83" cy="322" r="2.29" fill="#5675c1" opacity=".8" stroke="#fff" stroke-width=".7"/></g><g class="key-Austria_0"><circle cx="592" cy="475" r="2.26" fill="#ffd336" opacity=".8" stroke="#fff" stroke-width=".7"/></g><g class="key-United-Arab-Emirates_0"><circle cx="644" cy="328" r="2.25" fill="#d14e5b" opacity=".8" stroke="#fff" stroke-width=".7"/></g><g class="key-Honduras_0"><circle cx="307" cy="403" r="2.25" fill="#4d824b" opacity=".8" stroke="#fff" stroke-width=".7"/></g><g class="key-Israel_0"><circle cx="555" cy="476" r="2.23" fill="#d14e5b" opacity=".8" stroke="#fff" stroke-width=".7"/></g><g class="key-Switzerland_0"><circle cx="623" cy="488" r="2.23" fill="#ffd336" opacity=".8" stroke="#fff" stroke-width=".7"/></g><g class="key-Bulgaria_0"><circle cx="479" cy="380" r="2.21" fill="#ffd336" opacity=".8" stroke="#fff" stroke-width=".7"/></g><g class="key-Tajikistan_0"><circle cx="249" cy="291" r="2.2" fill="#d14e5b" opacity=".8" stroke="#333" stroke-width=".7"/></g><g class="key-Paraguay_0"><circle cx="394" cy="426" r="2.18" fill="#69c487" opacity=".8" stroke="#333" stroke-width=".7"/></g><g class="key-Jordan_0"><circle cx="387" cy="417" r="2.17" fill="#d14e5b" opacity=".8" stroke="#fff" stroke-width=".7"/></g><g class="key-Laos_0"><circle cx="340" cy="347" r="2.16" fill="#d14e5b" opacity=".8" stroke="#333" stroke-width=".7"/></g><g class="key-Togo_0"><circle cx="163" cy="255" r="2.16" fill="#5675c1" opacity=".8" stroke="#333" stroke-width=".7"/></g><g class="key-El-Salvador_0"><circle cx="381" cy="438" r="2.15" fill="#4d824b" opacity=".8" stroke="#fff" stroke-width=".7"/></g><g class="key-Sierra-Leone_0"><circle cx="162" cy="298" r="2.15" fill="#5675c1" opacity=".8" stroke="#fff" stroke-width=".7"/></g><g class="key-Nicaragua_0"><circle cx="326" cy="460" r="2.14" fill="#4d824b" opacity=".8" stroke="#333" stroke-width=".7"/></g><g class="key-Denmark_0"><circle cx="597" cy="478" r="2.11" fill="#ffd336" opacity=".8" stroke="#fff" stroke-width=".7"/></g><g class="key-Kyrgyzstan_0"><circle cx="271" cy="364" r="2.11" fill="#d14e5b" opacity=".8" stroke="#fff" stroke-width=".7"/></g><g class="key-Slovakia_0"><circle cx="541" cy="420" r="2.11" fill="#ffd336" opacity=".8" stroke="#fff" stroke-width=".7"/></g><g class="key-Finland_0"><circle cx="578" cy="493" r="2.1" fill="#ffd336" opacity=".8" stroke="#fff" stroke-width=".7"/></g><g class="key-Singapore_0"><circle cx="668" cy="459" r="2.1" fill="#d14e5b" opacity=".8" stroke="#fff" stroke-width=".7"/></g><g class="key-Turkmenistan_0"><circle cx="464" cy="316" r="2.09" fill="#d14e5b" opacity=".8" stroke="#333" stroke-width=".7"/></g><g class="key-Norway_0"><circle cx="638" cy="489" r="2.08" fill="#ffd336" opacity=".8" stroke="#333" stroke-width=".7"/></g><g class="key-Costa-Rica_0"><circle cx="462" cy="476" r="2.07" fill="#4d824b" opacity=".8" stroke="#fff" stroke-width=".7"/></g><g class="key-Central-African-Republic_0"><circle cx="69" cy="213" r="2.06" fill="#5675c1" opacity=".8" stroke="#333" stroke-width=".7"/></g><g class="key-Ireland_0"><circle cx="636" cy="479" r="2.06" fill="#ffd336" opacity=".8" stroke="#fff" stroke-width=".7"/></g><g class="key-New-Zealand_0"><circle cx="565" cy="497" r="2.05" fill="#a652ba" opacity=".8" stroke="#fff" stroke-width=".7"/></g><g class="key-Croatia_0"><circle cx="503" cy="431" r="2.05" fill="#ffd336" opacity=".8" stroke="#fff" stroke-width=".7"/></g><g class="key-Liberia_0"><circle cx="88" cy="401" r="2.04" fill="#5675c1" opacity=".8" stroke="#333" stroke-width=".7"/></g><g class="key-Congo_0"><circle cx="330" cy="329" r="2.04" fill="#5675c1" opacity=".8" stroke="#fff" stroke-width=".7"/></g><g class="key-Lebanon_0"><circle cx="441" cy="440" r="2.04" fill="#d14e5b" opacity=".8" stroke="#fff" stroke-width=".7"/></g><g class="key-Georgia_0"><circle cx="399" cy="393" r="2.04" fill="#d14e5b" opacity=".8" stroke="#fff" stroke-width=".7"/></g><g class="key-Bosnia-and-Herzegovina_0"><circle cx="422" cy="402" r="2.01" fill="#ffd336" opacity=".8" stroke="#fff" stroke-width=".7"/></g><g class="key-Mauritania_0"><circle cx="281" cy="301" r="2.01" fill="#5675c1" opacity=".8" stroke="#fff" stroke-width=".7"/></g><g class="key-Panama_0"><circle cx="502" cy="474" r="2.01" fill="#4d824b" opacity=".8" stroke="#fff" stroke-width=".7"/></g><g class="key-Moldova_0"><circle cx="321" cy="376" r="2" fill="#ffd336" opacity=".8" stroke="#fff" stroke-width=".7"/></g><g class="key-Uruguay_0"><circle cx="495" cy="467" r="1.99" fill="#69c487" opacity=".8" stroke="#fff" stroke-width=".7"/></g><g class="key-Lithuania_0"><circle cx="536" cy="424" r="1.98" fill="#ffd336" opacity=".8" stroke="#fff" stroke-width=".7"/></g><g class="key-Albania_0"><circle cx="425" cy="436" r="1.98" fill="#ffd336" opacity=".8" stroke="#fff" stroke-width=".7"/></g><g class="key-Armenia_0"><circle cx="384" cy="403" r="1.97" fill="#d14e5b" opacity=".8" stroke="#fff" stroke-width=".7"/></g><g class="key-Mongolia_0"><circle cx="424" cy="336" r="1.96" fill="#d14e5b" opacity=".8" stroke="#fff" stroke-width=".7"/></g><g class="key-Jamaica_0"><circle cx="384" cy="456" r="1.95" fill="#4d824b" opacity=".8" stroke="#333" stroke-width=".7"/></g><g class="key-Namibia_0"><circle cx="406" cy="388" r="1.93" fill="#5675c1" opacity=".8" stroke="#fff" stroke-width=".7"/></g><g class="key-Lesotho_0"><circle cx="251" cy="313" r="1.92" fill="#5675c1" opacity=".8" stroke="#fff" stroke-width=".7"/></g><g class="key-Latvia_0"><circle cx="515" cy="426" r="1.92" fill="#ffd336" opacity=".8" stroke="#fff" stroke-width=".7"/></g><g class="key-Botswana_0"><circle cx="463" cy="392" r="1.91" fill="#5675c1" opacity=".8" stroke="#fff" stroke-width=".7"/></g><g class="key-Macedonia_0"><circle cx="442" cy="390" r="1.91" fill="#ffd336" opacity=".8" stroke="#fff" stroke-width=".7"/></g><g class="key-Slovenia_0"><circle cx="544" cy="469" r="1.91" fill="#ffd336" opacity=".8" stroke="#333" stroke-width=".7"/></g><g class="key-Qatar_0"><circle cx="715" cy="411" r="1.91" fill="#d14e5b" opacity=".8" stroke="#333" stroke-width=".7"/></g><g class="key-Gambia_0"><circle cx="179" cy="297" r="1.9" fill="#5675c1" opacity=".8" stroke="#fff" stroke-width=".7"/></g><g class="key-Guinea__002dBissau_0"><circle cx="171" cy="223" r="1.88" fill="#5675c1" opacity=".8" stroke="#fff" stroke-width=".7"/></g><g class="key-Gabon_0"><circle cx="473" cy="373" r="1.88" fill="#5675c1" opacity=".8" stroke="#333" stroke-width=".7"/></g><g class="key-Trinidad-and-Tobago_0"><circle cx="543" cy="442" r="1.87" fill="#4d824b" opacity=".8" stroke="#fff" stroke-width=".7"/></g><g class="key-Estonia_0"><circle cx="535" cy="483" r="1.87" fill="#ffd336" opacity=".8" stroke="#fff" stroke-width=".7"/></g><g class="key-Mauritius_0"><circle cx="492" cy="447" r="1.87" fill="#5675c1" opacity=".8" stroke="#fff" stroke-width=".7"/></g><g class="key-Swaziland_0"><circle cx="377" cy="366" r="1.86" fill="#5675c1" opacity=".8" stroke="#fff" stroke-width=".7"/></g><g class="key-Cyprus_0"><circle cx="549" cy="463" r="1.85" fill="#ffd336" opacity=".8" stroke="#fff" stroke-width=".7"/></g><g class="key-Fiji_0"><circle cx="394" cy="453" r="1.84" fill="#a652ba" opacity=".8" stroke="#fff" stroke-width=".7"/></g><g class="key-Comoros_0"><circle cx="166" cy="412" r="1.83" fill="#5675c1" opacity=".8" stroke="#fff" stroke-width=".7"/></g><g class="key-Bhutan_0"><circle cx="382" cy="354" r="1.83" fill="#d14e5b" opacity=".8" stroke="#333" stroke-width=".7"/></g><g class="key-Equatorial-Guinea_0"><circle cx="515" cy="378" r="1.83" fill="#5675c1" opacity=".8" stroke="#fff" stroke-width=".7"/></g><g class="key-Guyana_0"><circle cx="369" cy="392" r="1.83" fill="#69c487" opacity=".8" stroke="#333" stroke-width=".7"/></g><g class="key-Montenegro_0"><circle cx="464" cy="416" r="1.82" fill="#ffd336" opacity=".8" stroke="#fff" stroke-width=".7"/></g><g class="key-Solomon-Islands_0"><circle cx="213" cy="407" r="1.82" fill="#a652ba" opacity=".8" stroke="#333" stroke-width=".7"/></g><g class="key-Suriname_0"><circle cx="442" cy="422" r="1.82" fill="#69c487" opacity=".8" stroke="#333" stroke-width=".7"/></g><g class="key-Luxembourg_0"><circle cx="690" cy="474" r="1.82" fill="#ffd336" opacity=".8" stroke="#fff" stroke-width=".7"/></g><g class="key-Cape-Verde_0"><circle cx="347" cy="356" r="1.81" fill="#5675c1" opacity=".8" stroke="#fff" stroke-width=".7"/></g><g class="key-Malta_0"><circle cx="566" cy="472" r="1.81" fill="#ffd336" opacity=".8" stroke="#fff" stroke-width=".7"/></g><g class="key-Brunei_0"><circle cx="653" cy="480" r="1.81" fill="#d14e5b" opacity=".8" stroke="#fff" stroke-width=".7"/></g><g class="key-Bahamas_0"><circle cx="503" cy="459" r="1.8" fill="#4d824b" opacity=".8" stroke="#fff" stroke-width=".7"/></g><g class="key-Iceland_0"><circle cx="596" cy="489" r="1.8" fill="#ffd336" opacity=".8" stroke="#fff" stroke-width=".7"/></g><g class="key-Belize_0"><circle cx="378" cy="420" r="1.8" fill="#4d824b" opacity=".8" stroke="#fff" stroke-width=".7"/></g><g class="key-Maldives_0"><circle cx="433" cy="427" r="1.8" fill="#d14e5b" opacity=".8" stroke="#fff" stroke-width=".7"/></g><g class="key-Barbados_0"><circle cx="463" cy="462" r="1.8" fill="#4d824b" opacity=".8" stroke="#fff" stroke-width=".7"/></g><g class="key-Vanuatu_0"><circle cx="253" cy="400" r="1.8" fill="#a652ba" opacity=".8" stroke="#fff" stroke-width=".7"/></g><g class="key-Samoa_0"><circle cx="343" cy="496" r="1.79" fill="#a652ba" opacity=".8" stroke="#333" stroke-width=".7"/></g><g class="key-Saint-Lucia_0"><circle cx="417" cy="464" r="1.79" fill="#4d824b" opacity=".8" stroke="#fff" stroke-width=".7"/></g><g class="key-Sao-Tome-and-Principe_0"><circle cx="259" cy="408" r="1.79" fill="#5675c1" opacity=".8" stroke="#fff" stroke-width=".7"/></g><g class="key-Saint-Vincent-and-the-Grenadines_0"><circle cx="418" cy="430" r="1.79" fill="#4d824b" opacity=".8" stroke="#fff" stroke-width=".7"/></g><g class="key-Grenada_0"><circle cx="440" cy="423" r="1.79" fill="#4d824b" opacity=".8" stroke="#fff" stroke-width=".7"/></g><g class="key-Tonga_0"><circle cx="331" cy="497" r="1.79" fill="#a652ba" opacity=".8" stroke="#fff" stroke-width=".7"/></g><g class="key-Kiribati_0"><circle cx="203" cy="487" r="1.79" fill="#a652ba" opacity=".8" stroke="#333" stroke-width=".7"/></g><g class="key-Antigua-and-Barbuda_0"><circle cx="499" cy="465" r="1.79" fill="#4d824b" opacity=".8" stroke="#fff" stroke-width=".7"/></g><g class="key-Seychelles_0"><circle cx="528" cy="443" r="1.79" fill="#5675c1" opacity=".8" stroke="#fff" stroke-width=".7"/></g><g class="key-Dominica_0"><circle cx="411" cy="452" r="1.79" fill="#4d824b" opacity=".8" stroke="#fff" stroke-width=".7"/></g><g class="key-Marshall-Islands_0"><circle cx="288" cy="432" r="1.78" fill="#a652ba" opacity=".8" stroke="#fff" stroke-width=".7"/></g><g class="key-World_0"><circle cx="459" cy="389" r="1.78" fill="#000" opacity=".8" stroke="#fff" stroke-width=".7"/></g><g class="key-Micronesia-__0028country__0029_0"><circle cx="272" cy="424" r="1.78" fill="#a652ba" opacity=".8" stroke="#fff" stroke-width=".7"/></g><g class="key-Palestine_0"><circle cx="246" cy="343" r="1.78" fill="#d14e5b" opacity=".8" stroke="#fff" stroke-width=".7"/></g><g class="key-Yemen_0"><circle cx="228" cy="261" r="1.78" fill="#d14e5b" opacity=".8" stroke="#fff" stroke-width=".7"/></g><g class="key-Sub__002dSaharan-Africa_0"><circle cx="276" cy="342" r="1.78" fill="#000" opacity=".8" stroke="#fff" stroke-width=".7"/></g><g class="key-South-Asia_0"><circle cx="337" cy="269" r="1.78" fill="#000" opacity=".8" stroke="#fff" stroke-width=".7"/></g><g class="key-North-America_0"><circle cx="613" cy="476" r="1.78" fill="#000" opacity=".8" stroke="#fff" stroke-width=".7"/></g><g fill="#333" class="backgroundLabels"><text x="454" y="336.16" font-size="14.3">China</text><text x="347" y="249.71" font-size="14.1">India</text><text x="616" y="465.22" font-size="11.77">United States</text><text x="418" y="406.22" font-size="11.6">Indonesia</text><text x="450" y="447.96" font-size="11.49">Brazil</text><text x="333" y="320.46" font-size="11.41">Nigeria</text><text x="272" y="275.76" font-size="11.37">Bangladesh</text><text x="517" y="385.98" font-size="11.35">Russia</text><text x="575" y="480.3" font-size="11.31">Japan</text><text x="368" y="333.91" font-size="11.24">Philippines</text><text x="344" y="406.08" font-size="11.22">Vietnam</text><text x="182" y="337.14" font-size="11.21">Ethiopia</text><text x="412" y="269.21" font-size="11.21">Egypt</text><text x="515" y="426.46" font-size="11.18">Turkey</text><text x="86" y="317.56" font-size="11.17">Democratic Republic of Congo</text><text x="434" y="387.13" font-size="11.12">South Africa</text><text x="241" y="389.18" font-size="11.12">Tanzania</text><text x="331" y="360.18" font-size="11.12">Myanmar</text><text x="256" y="439.35" font-size="11.11">Kenya</text><text x="485" y="445.42" font-size="11.1">Argentina</text><text x="306" y="288.61" font-size="11.09">Sudan</text><text x="467" y="269.65" font-size="11.08">Iraq</text><text x="192" y="115.08" font-size="11.08">Afghanistan</text><text x="226" y="268.76" font-size="11.08">Nepal</text><text x="525" y="397.83" font-size="11.07">Malaysia</text><text x="609" y="322.84" font-size="11.07">Saudi Arabia</text><text x="346" y="295.88" font-size="11.07">Uzbekistan</text><text x="294" y="304.96" font-size="11.06">Ghana</text><text x="138" y="408" font-size="11.06">Mozambique</text><text x="593" y="493.08" font-size="11.06">Australia</text><text x="165" y="355.1" font-size="11.05">Madagascar</text><text x="425" y="434.15" font-size="11.05">Sri Lanka</text><text x="277" y="258.16" font-size="11.05">Cote d&apos;Ivoire</text><text x="261" y="217.17" font-size="11.05">Cameroon</text><text x="510" y="463.31" font-size="11.04">Chile</text><text x="111" y="198.32" font-size="11.04">Niger</text><text x="514" y="374.35" font-size="11.04">Kazakhstan</text><text x="133" y="383.36" font-size="11.04">Malawi</text><text x="414" y="472.42" font-size="11.04">Ecuador</text><text x="277" y="365.44" font-size="11.04">Cambodia</text><text x="283" y="342.45" font-size="11.03">Zambia</text><text x="231" y="302.49" font-size="11.03">Senegal</text><text x="199" y="252.55" font-size="11.03">Chad</text><text x="147" y="286.62" font-size="11.03">Guinea</text><text x="532" y="478.62" font-size="11.03">Portugal</text><text x="549" y="437.63" font-size="11.03">Czech Republic</text><text x="359" y="418.64" font-size="11.03">Bolivia</text><text x="249" y="287.8" font-size="11.02">Tajikistan</text><text x="394" y="422.82" font-size="11.02">Paraguay</text><text x="340" y="343.84" font-size="11.02">Laos</text><text x="163" y="251.84" font-size="11.02">Togo</text><text x="326" y="456.86" font-size="11.01">Nicaragua</text><text x="464" y="312.91" font-size="11.01">Turkmenistan</text><text x="638" y="485.92" font-size="11.01">Norway</text><text x="69" y="209.94" font-size="11.01">Central African Republic</text><text x="88" y="397.96" font-size="11.01">Liberia</text><text x="384" y="453.05" font-size="11.01">Jamaica</text><text x="544" y="466.09" font-size="11">Slovenia</text><text x="687.38" y="408.09" font-size="11">Qatar</text><text x="473" y="370.12" font-size="11">Gabon</text><text x="382" y="351.17" font-size="11">Bhutan</text><text x="369" y="389.17" font-size="11">Guyana</text><text x="213" y="404.18" font-size="11">Solomon Islands</text><text x="442" y="419.18" font-size="11">Suriname</text><text x="343" y="493.21" font-size="11">Samoa</text><text x="203" y="484.21" font-size="11">Kiribati</text></g></g><g class="ScatterColorLegend clickable" cursor="pointer"><g class="legendMark">,<path fill="#5675c1" d="M735 107h6v6h-6z"/>,<text font-size="12.6" x="746" y="114.1"><tspan x="746" y="114.08">Africa</tspan></text></g><g class="legendMark">,<path fill="#d14e5b" d="M735 124.6h6v6h-6z"/>,<text font-size="12.6" x="746" y="131.7"><tspan x="746" y="131.68">Asia</tspan></text></g><g class="legendMark">,<path fill="#ffd336" d="M735 142.2h6v6h-6z"/>,<text font-size="12.6" x="746" y="149.3"><tspan x="746" y="149.28">Europe</tspan></text></g><g class="legendMark">,<path fill="#4d824b" d="M735 159.8h6v6h-6z"/>,<text font-size="12.6" x="746" y="166.9"><tspan x="746" y="166.88">North America</tspan></text></g><g class="legendMark">,<path fill="#a652ba" d="M735 177.4h6v6h-6z"/>,<text font-size="12.6" x="746" y="184.5"><tspan x="746" y="184.48">Oceania</tspan></text></g><g class="legendMark">,<path fill="#69c487" d="M735 195h6v6h-6z"/>,<text font-size="12.6" x="746" y="202.1"><tspan x="746" y="202.08">South America</tspan></text></g></g></g><g class="SourcesFooter" fill="#777"><g class="clickable" fill="#777"><text font-size="12.6" x="15" y="581.6"><tspan x="15" y="581.58">Source: IHME, Global Burden of Disease; World Bank</tspan></text></g><text font-size="12.6" x="775.4" y="581.6"><tspan x="775.4" y="581.58"><a class="cclogo" href="http://creativecommons.org/licenses/by-sa/4.0/deed.en_US" target="_blank" fill="#777">CC BY-SA</a></tspan></text></g></g></svg>