<svg xmlns="http://www.w3.org/2000/svg" version="1.1" style="background-color:#fff;-webkit-font-smoothing:antialiased" width="850" height="600" font-family="'Helvetica Neue',Helvetica,Arial,sans-serif" font-size="18" text-rendering="optimizeLegibility"><g class="ChartTab"><g class="HeaderView"><g opacity=".8" transform="matrix(.27 0 0 .27 778 15)"><a xmlns:xlink="http://www.w3.org/1999/xlink" xlink:href="https://ourworldindata.org" target="_blank"><g><path fill="#1B2543" d="M0 0h211.2v130.1H0z"/><path fill="#E63912" d="M0 112.2h211.2v17.9H0z"/><g><path fill="none" d="M1.2 12.3h210.2v99.2H1.2z"/><path fill="#FFF" d="M37.8 32.2c0 12.7-7.7 19.4-17.1 19.4-9.7 0-16.6-7.5-16.6-18.7 0-11.7 7.3-19.3 17.1-19.3 10.1.1 16.6 7.7 16.6 18.6zm-28.6.6c0 7.9 4.3 14.9 11.8 14.9 7.5 0 11.8-6.9 11.8-15.3 0-7.3-3.8-14.9-11.8-14.9-7.9 0-11.8 7.3-11.8 15.3zM62.7 43.8c0 2.7.1 5.1.2 7.2h-4.3l-.3-4.3h-.1c-1.3 2.1-4 4.9-8.8 4.9-4.2 0-9.1-2.3-9.1-11.6V24.6h4.8v14.6c0 5 1.5 8.4 5.9 8.4 3.2 0 5.5-2.2 6.3-4.4.3-.7.4-1.6.4-2.5V24.6h4.8v19.2zM67.3 32.8c0-3.1-.1-5.8-.2-8.2h4.2l.2 5.2h.2c1.2-3.5 4.1-5.8 7.3-5.8.5 0 .9.1 1.4.2v4.5c-.5-.1-1-.2-1.6-.2-3.4 0-5.8 2.6-6.5 6.2-.1.7-.2 1.4-.2 2.2V51h-4.8V32.8zM95.4 51L86 14.2h5l4.4 18.6c1.1 4.6 2.1 9.2 2.7 12.7h.1c.6-3.7 1.8-8 3-12.8l4.9-18.5h5l4.5 18.7c1 4.4 2 8.7 2.6 12.6h.1c.8-4 1.8-8.1 3-12.7l4.9-18.5h4.9L120.6 51h-5L111 31.9c-1.1-4.7-1.9-8.3-2.4-12h-.1c-.7 3.7-1.5 7.3-2.8 12L100.4 51h-5zM154.9 37.6c0 9.8-6.8 14-13.2 14-7.2 0-12.7-5.2-12.7-13.6 0-8.8 5.8-14 13.1-14 7.7 0 12.8 5.5 12.8 13.6zm-21 .3c0 5.8 3.3 10.1 8 10.1 4.6 0 8-4.3 8-10.3 0-4.5-2.2-10.1-7.9-10.1s-8.1 5.2-8.1 10.3zM158.2 32.8c0-3.1-.1-5.8-.2-8.2h4.2l.2 5.2h.2c1.2-3.5 4.1-5.8 7.3-5.8.5 0 .9.1 1.4.2v4.5c-.5-.1-1-.2-1.6-.2-3.4 0-5.8 2.6-6.5 6.2-.1.7-.2 1.4-.2 2.2V51h-4.8V32.8zM173.5 12.3h4.8V51h-4.8V12.3zM206.5 12.3v31.9c0 2.3.1 5 .2 6.8h-4.3l-.2-4.6h-.2c-1.5 2.9-4.7 5.2-9 5.2-6.4 0-11.3-5.4-11.3-13.4-.1-8.8 5.4-14.2 11.9-14.2 4 0 6.8 1.9 8 4h.1V12.3h4.8zm-4.8 23.1c0-.6-.1-1.4-.2-2a7 7 0 00-6.9-5.6c-5 0-7.9 4.4-7.9 10.2 0 5.3 2.6 9.8 7.8 9.8 3.2 0 6.2-2.1 7.1-5.7.2-.7.2-1.3.2-2.1v-4.6zM42.8 64c.1 1.6-1.1 2.9-3.1 2.9-1.7 0-2.9-1.3-2.9-2.9 0-1.7 1.3-3 3-3 1.9 0 3 1.3 3 3zm-5.4 33.8V71.4h4.8v26.4h-4.8zM47.5 78.6c0-2.7-.1-5-.2-7.1h4.3l.3 4.4h.1c1.3-2.5 4.4-5 8.8-5 3.7 0 9.4 2.2 9.4 11.2v15.8h-4.8V82.6c0-4.3-1.6-7.8-6.1-7.8-3.2 0-5.6 2.2-6.5 4.9-.2.6-.3 1.4-.3 2.2v15.9h-4.8V78.6zM84 61.6c2.9-.4 6.3-.8 10.1-.8 6.8 0 11.7 1.6 14.9 4.6 3.3 3 5.2 7.3 5.2 13.2 0 6-1.9 10.9-5.3 14.3-3.4 3.4-9.1 5.3-16.3 5.3-3.4 0-6.2-.2-8.6-.4V61.6zm4.8 32.5c1.2.2 3 .3 4.8.3 10.2 0 15.7-5.7 15.7-15.6.1-8.7-4.9-14.2-14.9-14.2-2.5 0-4.3.2-5.6.5v29zM132.1 97.8l-.4-3.3h-.2a9.79 9.79 0 01-8.1 3.9c-5.4 0-8.1-3.8-8.1-7.6 0-6.4 5.7-9.9 15.9-9.8v-.5c0-2.2-.6-6.1-6-6.1-2.5 0-5 .8-6.9 2l-1.1-3.2c2.2-1.4 5.4-2.3 8.7-2.3 8.1 0 10.1 5.5 10.1 10.8v9.9c0 2.3.1 4.5.4 6.3h-4.3zm-.7-13.4c-5.3-.1-11.2.8-11.2 5.9 0 3.1 2.1 4.6 4.5 4.6 3.4 0 5.6-2.2 6.4-4.4.2-.5.3-1 .3-1.5v-4.6zM146.6 63.9v7.6h6.9v3.7h-6.9v14.2c0 3.3.9 5.1 3.6 5.1 1.3 0 2.2-.2 2.8-.3l.2 3.6c-.9.4-2.4.7-4.3.7-2.2 0-4-.7-5.2-2-1.4-1.4-1.9-3.8-1.9-6.9V75.1h-4.1v-3.7h4.1v-6.3l4.8-1.2zM171.4 97.8l-.4-3.3h-.2a9.79 9.79 0 01-8.1 3.9c-5.4 0-8.1-3.8-8.1-7.6 0-6.4 5.7-9.9 15.9-9.8v-.5c0-2.2-.6-6.1-6-6.1-2.5 0-5 .8-6.9 2l-1.1-3.2c2.2-1.4 5.4-2.3 8.7-2.3 8.1 0 10.1 5.5 10.1 10.8v9.9c0 2.3.1 4.5.4 6.3h-4.3zm-.7-13.4c-5.3-.1-11.2.8-11.2 5.9 0 3.1 2.1 4.6 4.5 4.6 3.4 0 5.6-2.2 6.4-4.4.2-.5.3-1 .3-1.5v-4.6z"/></g></g></a></g><a href="https://ourworldindata.org/grapher/difference-in-the-value-of-goods-exported-to-and-imported-by-the-us" target="_blank"><text font-size="22.5" x="15" y="33" fill="#555"><tspan x="15" y="33">Difference in the value of goods exported to and imported by the US, 2016</tspan></text></a><text font-size="14.4" x="15" y="51" fill="#666"><tspan x="15" y="51.02">Shown are differences between the value of goods that the US reports importing from partner countries, and the</tspan><tspan x="15" y="66.86">value of goods that each partner country reports exporting to the US. For example, for China, the figure in the chart</tspan><tspan x="15" y="82.7">corresponds to “Value of merchandise imports in US from China” minus “Value of merchandise exports from China</tspan><tspan x="15" y="98.54">to the US”.</tspan></text></g><g class="DiscreteBarChart"><g class="HorizontalAxis" fill="#666" text-anchor="middle" font-size="16.2"><text x="218" y="556.5">$-19.52 billion</text><text x="325.8" y="556.5">$0</text><text x="436.2" y="556.5">$20 billion</text><text x="546.7" y="556.5">$40 billion</text><text x="729.4" y="556.5">$73.1 billion</text></g><g class="AxisGridLines"><path stroke="#ccc" d="M250.4 535.3V120.4"/><path stroke="#ddd" stroke-dasharray="3,2" d="M381.4 535.3V120.4M512.5 535.3V120.4M643.6 535.3V120.4"/></g><g class="bar"><text x="117.41" y="125.75" fill="#666" dominant-baseline="middle" text-anchor="end" font-size="13.5">China</text><path fill="#F2585B" opacity=".85" d="M325.8 120.4h403.6v10.71H325.8z"/><text x="734.4" y="125.75" fill="#666" dominant-baseline="middle" text-anchor="start" font-size="13.5">$73.1 billion</text></g><g class="bar"><text x="117.41" y="139.14" fill="#666" dominant-baseline="middle" text-anchor="end" font-size="13.5">Ireland</text><path fill="#F2585B" opacity=".85" d="M325.8 133.78h57.1v10.71h-57.1z"/><text x="387.9" y="139.14" fill="#666" dominant-baseline="middle" text-anchor="start" font-size="13.5">$10.35 billion</text></g><g class="bar"><text x="117.41" y="152.52" fill="#666" dominant-baseline="middle" text-anchor="end" font-size="13.5">France</text><path fill="#F2585B" opacity=".85" d="M325.8 147.17h56.8v10.71h-56.8z"/><text x="387.6" y="152.52" fill="#666" dominant-baseline="middle" text-anchor="start" font-size="13.5">$10.29 billion</text></g><g class="bar"><text x="117.41" y="165.91" fill="#666" dominant-baseline="middle" text-anchor="end" font-size="13.5">Israel</text><path fill="#F2585B" opacity=".85" d="M325.8 160.55h25.4v10.71h-25.4z"/><text x="356.2" y="165.91" fill="#666" dominant-baseline="middle" text-anchor="start" font-size="13.5">$4.61 billion</text></g><g class="bar"><text x="117.41" y="179.29" fill="#666" dominant-baseline="middle" text-anchor="end" font-size="13.5">Italy</text><path fill="#F2585B" opacity=".85" d="M325.8 173.94h24.3v10.71h-24.3z"/><text x="355.1" y="179.29" fill="#666" dominant-baseline="middle" text-anchor="start" font-size="13.5">$4.4 billion</text></g><g class="bar"><text x="117.41" y="192.67" fill="#666" dominant-baseline="middle" text-anchor="end" font-size="13.5">South Korea</text><path fill="#F2585B" opacity=".85" d="M325.8 187.32h17.5v10.71h-17.5z"/><text x="348.3" y="192.67" fill="#666" dominant-baseline="middle" text-anchor="start" font-size="13.5">$3.18 billion</text></g><g class="bar"><text x="117.41" y="206.06" fill="#666" dominant-baseline="middle" text-anchor="end" font-size="13.5">Hungary</text><path fill="#F2585B" opacity=".85" d="M325.8 200.7h13.1v10.71h-13.1z"/><text x="343.9" y="206.06" fill="#666" dominant-baseline="middle" text-anchor="start" font-size="13.5">$2.38 billion</text></g><g class="bar"><text x="117.41" y="219.44" fill="#666" dominant-baseline="middle" text-anchor="end" font-size="13.5">Japan</text><path fill="#F2585B" opacity=".85" d="M325.8 214.09h9.8v10.71h-9.8z"/><text x="340.6" y="219.44" fill="#666" dominant-baseline="middle" text-anchor="start" font-size="13.5">$1.77 billion</text></g><g class="bar"><text x="117.41" y="232.82" fill="#666" dominant-baseline="middle" text-anchor="end" font-size="13.5">Turkey</text><path fill="#F2585B" opacity=".85" d="M325.8 227.47h7.9v10.71h-7.9z"/><text x="338.7" y="232.82" fill="#666" dominant-baseline="middle" text-anchor="start" font-size="13.5">$1.44 billion</text></g><g class="bar"><text x="117.41" y="246.21" fill="#666" dominant-baseline="middle" text-anchor="end" font-size="13.5">Austria</text><path fill="#F2585B" opacity=".85" d="M325.8 240.85h7.5v10.71h-7.5z"/><text x="338.3" y="246.21" fill="#666" dominant-baseline="middle" text-anchor="start" font-size="13.5">$1.36 billion</text></g><g class="bar"><text x="117.41" y="259.59" fill="#666" dominant-baseline="middle" text-anchor="end" font-size="13.5">Poland</text><path fill="#F2585B" opacity=".85" d="M325.8 254.24h6.5v10.71h-6.5z"/><text x="337.3" y="259.59" fill="#666" dominant-baseline="middle" text-anchor="start" font-size="13.5">$1.17 billion</text></g><g class="bar"><text x="117.41" y="272.98" fill="#666" dominant-baseline="middle" text-anchor="end" font-size="13.5">Spain</text><path fill="#F2585B" opacity=".85" d="M325.8 267.62h4.9v10.71h-4.9z"/><text x="335.7" y="272.98" fill="#666" dominant-baseline="middle" text-anchor="start" font-size="13.5">$892.38 million</text></g><g class="bar"><text x="117.41" y="286.36" fill="#666" dominant-baseline="middle" text-anchor="end" font-size="13.5">Czech Republic</text><path fill="#F2585B" opacity=".85" d="M325.8 281.01h4.7v10.71h-4.7z"/><text x="335.5" y="286.36" fill="#666" dominant-baseline="middle" text-anchor="start" font-size="13.5">$858.22 million</text></g><g class="bar"><text x="117.41" y="299.74" fill="#666" dominant-baseline="middle" text-anchor="end" font-size="13.5">Slovakia</text><path fill="#F2585B" opacity=".85" d="M325.8 294.39h3.7v10.71h-3.7z"/><text x="334.5" y="299.74" fill="#666" dominant-baseline="middle" text-anchor="start" font-size="13.5">$680.73 million</text></g><g class="bar"><text x="117.41" y="313.13" fill="#666" dominant-baseline="middle" text-anchor="end" font-size="13.5">Norway</text><path fill="#F2585B" opacity=".85" d="M325.8 307.77h3.7v10.71h-3.7z"/><text x="334.5" y="313.13" fill="#666" dominant-baseline="middle" text-anchor="start" font-size="13.5">$671.62 million</text></g><g class="bar"><text x="117.41" y="326.51" fill="#666" dominant-baseline="middle" text-anchor="end" font-size="13.5">Portugal</text><path fill="#F2585B" opacity=".85" d="M325.8 321.16h2.6v10.71h-2.6z"/><text x="333.4" y="326.51" fill="#666" dominant-baseline="middle" text-anchor="start" font-size="13.5">$477.08 million</text></g><g class="bar"><text x="117.41" y="339.9" fill="#666" dominant-baseline="middle" text-anchor="end" font-size="13.5">New Zealand</text><path fill="#F2585B" opacity=".85" d="M325.8 334.54h2.1v10.71h-2.1z"/><text x="332.9" y="339.9" fill="#666" dominant-baseline="middle" text-anchor="start" font-size="13.5">$389.12 million</text></g><g class="bar"><text x="117.41" y="353.28" fill="#666" dominant-baseline="middle" text-anchor="end" font-size="13.5">Chile</text><path fill="#F2585B" opacity=".85" d="M325.8 347.93h1.9v10.71h-1.9z"/><text x="332.7" y="353.28" fill="#666" dominant-baseline="middle" text-anchor="start" font-size="13.5">$349.01 million</text></g><g class="bar"><text x="117.41" y="366.66" fill="#666" dominant-baseline="middle" text-anchor="end" font-size="13.5">Finland</text><path fill="#F2585B" opacity=".85" d="M325.8 361.31h1v10.71h-1z"/><text x="331.8" y="366.66" fill="#666" dominant-baseline="middle" text-anchor="start" font-size="13.5">$182.68 million</text></g><g class="bar"><text x="117.41" y="380.05" fill="#666" dominant-baseline="middle" text-anchor="end" font-size="13.5">Denmark</text><path fill="#F2585B" opacity=".85" d="M325.8 374.69h1v10.71h-1z"/><text x="331.8" y="380.05" fill="#666" dominant-baseline="middle" text-anchor="start" font-size="13.5">$178.3 million</text></g><g class="bar"><text x="117.41" y="393.43" fill="#666" dominant-baseline="middle" text-anchor="end" font-size="13.5">Slovenia</text><path fill="#F2585B" opacity=".85" d="M325.8 388.08h.9v10.71h-.9z"/><text x="331.7" y="393.43" fill="#666" dominant-baseline="middle" text-anchor="start" font-size="13.5">$167.9 million</text></g><g class="bar"><text x="117.41" y="406.81" fill="#666" dominant-baseline="middle" text-anchor="end" font-size="13.5">Greece</text><path fill="#F2585B" opacity=".85" d="M325.8 401.46h.1v10.71h-.1z"/><text x="330.9" y="406.81" fill="#666" dominant-baseline="middle" text-anchor="start" font-size="13.5">$17.78 million</text></g><g class="bar"><text x="117.41" y="420.2" fill="#666" dominant-baseline="middle" text-anchor="end" font-size="13.5">Switzerland</text><path fill="#F2585B" opacity=".85" d="M323.9 414.85h1.9v10.71h-1.9z"/><text x="318.9" y="420.2" fill="#666" dominant-baseline="middle" text-anchor="end" font-size="13.5">$-333.47 million</text></g><g class="bar"><text x="117.41" y="433.58" fill="#666" dominant-baseline="middle" text-anchor="end" font-size="13.5">Sweden</text><path fill="#F2585B" opacity=".85" d="M323.1 428.23h2.7v10.71h-2.7z"/><text x="318.1" y="433.58" fill="#666" dominant-baseline="middle" text-anchor="end" font-size="13.5">$-480.17 million</text></g><g class="bar"><text x="117.41" y="446.97" fill="#666" dominant-baseline="middle" text-anchor="end" font-size="13.5">Australia</text><path fill="#F2585B" opacity=".85" d="M310.3 441.61h15.5v10.71h-15.5z"/><text x="305.3" y="446.97" fill="#666" dominant-baseline="middle" text-anchor="end" font-size="13.5">$-2.81 billion</text></g><g class="bar"><text x="117.41" y="460.35" fill="#666" dominant-baseline="middle" text-anchor="end" font-size="13.5">Netherlands</text><path fill="#F2585B" opacity=".85" d="M302.4 455h23.4v10.71h-23.4z"/><text x="297.4" y="460.35" fill="#666" dominant-baseline="middle" text-anchor="end" font-size="13.5">$-4.23 billion</text></g><g class="bar"><text x="117.41" y="473.73" fill="#666" dominant-baseline="middle" text-anchor="end" font-size="13.5">Germany</text><path fill="#F2585B" opacity=".85" d="M302 468.38h23.8v10.71H302z"/><text x="297" y="473.73" fill="#666" dominant-baseline="middle" text-anchor="end" font-size="13.5">$-4.31 billion</text></g><g class="bar"><text x="117.41" y="487.12" fill="#666" dominant-baseline="middle" text-anchor="end" font-size="13.5">Belgium</text><path fill="#F2585B" opacity=".85" d="M292.5 481.76h33.3v10.71h-33.3z"/><text x="287.5" y="487.12" fill="#666" dominant-baseline="middle" text-anchor="end" font-size="13.5">$-6.03 billion</text></g><g class="bar"><text x="117.41" y="500.5" fill="#666" dominant-baseline="middle" text-anchor="end" font-size="13.5">United Kingdom</text><path fill="#F2585B" opacity=".85" d="M290.7 495.15h35.1v10.71h-35.1z"/><text x="285.7" y="500.5" fill="#666" dominant-baseline="middle" text-anchor="end" font-size="13.5">$-6.36 billion</text></g><g class="bar"><text x="117.41" y="513.89" fill="#666" dominant-baseline="middle" text-anchor="end" font-size="13.5">Mexico</text><path fill="#F2585B" opacity=".85" d="M279.3 508.53h46.5v10.71h-46.5z"/><text x="274.3" y="513.89" fill="#666" dominant-baseline="middle" text-anchor="end" font-size="13.5">$-8.42 billion</text></g><g class="bar"><text x="117.41" y="527.27" fill="#666" dominant-baseline="middle" text-anchor="end" font-size="13.5">Canada</text><path fill="#F2585B" opacity=".85" d="M218 521.92h107.8v10.71H218z"/><text x="213" y="527.27" fill="#666" dominant-baseline="middle" text-anchor="end" font-size="13.5">$-19.52 billion</text></g></g><g class="SourcesFooter" fill="#777"><g class="clickable" fill="#777"><text font-size="12.6" x="15" y="581.6"><tspan x="15" y="581.58">Source: IMF DOTS (2017)</tspan></text></g><text font-size="12.6" x="649" y="581.6"><tspan x="649.02" y="581.58"><a target="_blank" href="https://ourworldindata.org" fill="#777">OurWorldInData.org</a> • <a href="http://creativecommons.org/licenses/by-sa/4.0/deed.en_US" target="_blank" fill="#777">CC BY-SA</a></tspan></text></g></g></svg>