<svg xmlns="http://www.w3.org/2000/svg" version="1.1" style="background-color:#fff;-webkit-font-smoothing:antialiased" width="850" height="600" font-family="'Helvetica Neue',Helvetica,Arial,sans-serif" font-size="18" text-rendering="optimizeLegibility"><g class="ChartTab"><g class="HeaderView"><g opacity=".8" transform="matrix(.27 0 0 .27 778 15)"><a xmlns:xlink="http://www.w3.org/1999/xlink" xlink:href="https://ourworldindata.org" target="_blank"><g><path fill="#1B2543" d="M0 0h211.2v130.1H0z"/><path fill="#E63912" d="M0 112.2h211.2v17.9H0z"/><g><path fill="none" d="M1.2 12.3h210.2v99.2H1.2z"/><path fill="#FFF" d="M37.8 32.2c0 12.7-7.7 19.4-17.1 19.4-9.7 0-16.6-7.5-16.6-18.7 0-11.7 7.3-19.3 17.1-19.3 10.1.1 16.6 7.7 16.6 18.6zm-28.6.6c0 7.9 4.3 14.9 11.8 14.9 7.5 0 11.8-6.9 11.8-15.3 0-7.3-3.8-14.9-11.8-14.9-7.9 0-11.8 7.3-11.8 15.3zM62.7 43.8c0 2.7.1 5.1.2 7.2h-4.3l-.3-4.3h-.1c-1.3 2.1-4 4.9-8.8 4.9-4.2 0-9.1-2.3-9.1-11.6V24.6h4.8v14.6c0 5 1.5 8.4 5.9 8.4 3.2 0 5.5-2.2 6.3-4.4.3-.7.4-1.6.4-2.5V24.6h4.8v19.2zM67.3 32.8c0-3.1-.1-5.8-.2-8.2h4.2l.2 5.2h.2c1.2-3.5 4.1-5.8 7.3-5.8.5 0 .9.1 1.4.2v4.5c-.5-.1-1-.2-1.6-.2-3.4 0-5.8 2.6-6.5 6.2-.1.7-.2 1.4-.2 2.2V51h-4.8V32.8zM95.4 51L86 14.2h5l4.4 18.6c1.1 4.6 2.1 9.2 2.7 12.7h.1c.6-3.7 1.8-8 3-12.8l4.9-18.5h5l4.5 18.7c1 4.4 2 8.7 2.6 12.6h.1c.8-4 1.8-8.1 3-12.7l4.9-18.5h4.9L120.6 51h-5L111 31.9c-1.1-4.7-1.9-8.3-2.4-12h-.1c-.7 3.7-1.5 7.3-2.8 12L100.4 51h-5zM154.9 37.6c0 9.8-6.8 14-13.2 14-7.2 0-12.7-5.2-12.7-13.6 0-8.8 5.8-14 13.1-14 7.7 0 12.8 5.5 12.8 13.6zm-21 .3c0 5.8 3.3 10.1 8 10.1 4.6 0 8-4.3 8-10.3 0-4.5-2.2-10.1-7.9-10.1s-8.1 5.2-8.1 10.3zM158.2 32.8c0-3.1-.1-5.8-.2-8.2h4.2l.2 5.2h.2c1.2-3.5 4.1-5.8 7.3-5.8.5 0 .9.1 1.4.2v4.5c-.5-.1-1-.2-1.6-.2-3.4 0-5.8 2.6-6.5 6.2-.1.7-.2 1.4-.2 2.2V51h-4.8V32.8zM173.5 12.3h4.8V51h-4.8V12.3zM206.5 12.3v31.9c0 2.3.1 5 .2 6.8h-4.3l-.2-4.6h-.2c-1.5 2.9-4.7 5.2-9 5.2-6.4 0-11.3-5.4-11.3-13.4-.1-8.8 5.4-14.2 11.9-14.2 4 0 6.8 1.9 8 4h.1V12.3h4.8zm-4.8 23.1c0-.6-.1-1.4-.2-2a7 7 0 00-6.9-5.6c-5 0-7.9 4.4-7.9 10.2 0 5.3 2.6 9.8 7.8 9.8 3.2 0 6.2-2.1 7.1-5.7.2-.7.2-1.3.2-2.1v-4.6zM42.8 64c.1 1.6-1.1 2.9-3.1 2.9-1.7 0-2.9-1.3-2.9-2.9 0-1.7 1.3-3 3-3 1.9 0 3 1.3 3 3zm-5.4 33.8V71.4h4.8v26.4h-4.8zM47.5 78.6c0-2.7-.1-5-.2-7.1h4.3l.3 4.4h.1c1.3-2.5 4.4-5 8.8-5 3.7 0 9.4 2.2 9.4 11.2v15.8h-4.8V82.6c0-4.3-1.6-7.8-6.1-7.8-3.2 0-5.6 2.2-6.5 4.9-.2.6-.3 1.4-.3 2.2v15.9h-4.8V78.6zM84 61.6c2.9-.4 6.3-.8 10.1-.8 6.8 0 11.7 1.6 14.9 4.6 3.3 3 5.2 7.3 5.2 13.2 0 6-1.9 10.9-5.3 14.3-3.4 3.4-9.1 5.3-16.3 5.3-3.4 0-6.2-.2-8.6-.4V61.6zm4.8 32.5c1.2.2 3 .3 4.8.3 10.2 0 15.7-5.7 15.7-15.6.1-8.7-4.9-14.2-14.9-14.2-2.5 0-4.3.2-5.6.5v29zM132.1 97.8l-.4-3.3h-.2a9.79 9.79 0 01-8.1 3.9c-5.4 0-8.1-3.8-8.1-7.6 0-6.4 5.7-9.9 15.9-9.8v-.5c0-2.2-.6-6.1-6-6.1-2.5 0-5 .8-6.9 2l-1.1-3.2c2.2-1.4 5.4-2.3 8.7-2.3 8.1 0 10.1 5.5 10.1 10.8v9.9c0 2.3.1 4.5.4 6.3h-4.3zm-.7-13.4c-5.3-.1-11.2.8-11.2 5.9 0 3.1 2.1 4.6 4.5 4.6 3.4 0 5.6-2.2 6.4-4.4.2-.5.3-1 .3-1.5v-4.6zM146.6 63.9v7.6h6.9v3.7h-6.9v14.2c0 3.3.9 5.1 3.6 5.1 1.3 0 2.2-.2 2.8-.3l.2 3.6c-.9.4-2.4.7-4.3.7-2.2 0-4-.7-5.2-2-1.4-1.4-1.9-3.8-1.9-6.9V75.1h-4.1v-3.7h4.1v-6.3l4.8-1.2zM171.4 97.8l-.4-3.3h-.2a9.79 9.79 0 01-8.1 3.9c-5.4 0-8.1-3.8-8.1-7.6 0-6.4 5.7-9.9 15.9-9.8v-.5c0-2.2-.6-6.1-6-6.1-2.5 0-5 .8-6.9 2l-1.1-3.2c2.2-1.4 5.4-2.3 8.7-2.3 8.1 0 10.1 5.5 10.1 10.8v9.9c0 2.3.1 4.5.4 6.3h-4.3zm-.7-13.4c-5.3-.1-11.2.8-11.2 5.9 0 3.1 2.1 4.6 4.5 4.6 3.4 0 5.6-2.2 6.4-4.4.2-.5.3-1 .3-1.5v-4.6z"/></g></g></a></g><a href="https://ourworldindata.org/grapher/disease-burden-from-injuries" target="_blank"><text font-size="25.2" x="15" y="35.2" fill="#555"><tspan x="15" y="35.16">Disease burden from injuries, World</tspan></text></a><text font-size="14.4" x="15" y="53.7" fill="#666"><tspan x="15" y="53.72">Disease burden from injuries. Disease burden is measured in DALYs (Disability-Adjusted Life Years). DALYs are</tspan><tspan x="15" y="69.56">used to measure total burden of disease - both from years of life lost and years lived with a disability. One DALY</tspan><tspan x="15" y="85.4">equals one lost year of healthy life.</tspan></text></g><g class="StackedArea"><defs><clipPath id="a"><path d="M97.6 0h820v897.8h-820z"/></clipPath></defs><g class="AxisBoxView"><g class="HorizontalAxis" fill="#666" text-anchor="middle" font-size="16.2"><text x="97.6" y="556.5">1990</text><text x="213.2" y="556.5">1995</text><text x="328.7" y="556.5">2000</text><text x="444.3" y="556.5">2005</text><text x="559.8" y="556.5">2010</text><text x="698.5" y="556.5">2016</text></g><g class="VerticalAxis" fill="#666" dominant-baseline="middle" text-anchor="end" font-size="16.2"><text x="92.6" y="535.3">0</text><text x="92.6" y="450.4">50 million</text><text x="92.6" y="365.5">100 million</text><text x="92.6" y="280.6">150 million</text><text x="92.6" y="195.7">200 million</text><text x="92.6" y="110.8">250 million</text></g><g class="AxisGridLines"><path stroke="#ccc" d="M97.6 535.3h600.88"/><path stroke="#ddd" stroke-dasharray="3,2" d="M97.6 450.4h600.88M97.6 365.5h600.88M97.6 280.6h600.88M97.6 195.7h600.88M97.6 110.8h600.88"/></g></g><g clip-path="url(#a)"><g class="HeightedLegend clickable"><g class="legendMark"><g class="indicator" stroke="#666" stroke-width=".5"><path d="M703.48 176.5h22.5M725.98 176.5h0M725.98 176.5h2.5"/></g><text font-size="13.5" x="733.5" y="180.6" fill="#34983f"><tspan x="733.48" y="180.55">Natural disasters</tspan></text></g><g class="legendMark"><g class="indicator" stroke="#666" stroke-width=".5"><path d="M703.48 185.8h19.17M722.65 185.8v13.5M722.65 199.3h5.83"/></g><text font-size="13.5" x="733.5" y="196.1" fill="#818282"><tspan x="733.48" y="196.05">Conflict and</tspan><tspan x="733.48" y="210.9">terrorism</tspan></text></g><g class="legendMark"><g class="indicator" stroke="#666" stroke-width=".5"><path d="M703.48 197.3h15.83M719.31 197.3v24.8M719.31 222.1h9.17"/></g><text font-size="13.5" x="733.5" y="226.2" fill="#a652ba"><tspan x="733.48" y="226.15">Poisonings</tspan></text></g><g class="legendMark"><g class="indicator" stroke="#666" stroke-width=".5"><path d="M703.48 206.9h12.5M715.98 206.9v30.7M715.98 237.6h12.5"/></g><text font-size="13.5" x="733.5" y="241.7" fill="#e6332e"><tspan x="733.48" y="241.65">Fire</tspan></text></g><g class="legendMark"><g class="indicator" stroke="#666" stroke-width=".5"><path d="M703.48 228h9.17M712.65 228v25.1M712.65 253.1h15.83"/></g><text font-size="13.5" x="733.5" y="257.2" fill="#7ec7ce"><tspan x="733.48" y="257.15">Drowning</tspan></text></g><g class="legendMark"><g class="indicator" stroke="#666" stroke-width=".5"><path d="M703.48 262.3h5.83M709.31 262.3v13.6M709.31 275.9h19.17"/></g><text font-size="13.5" x="733.5" y="272.7" fill="#ed6c2d"><tspan x="733.48" y="272.65">Interpersonal</tspan><tspan x="733.48" y="287.5">violence</tspan></text></g><g class="legendMark"><g class="indicator" stroke="#666" stroke-width=".5"><path d="M703.48 312.2h12.5M715.98 312.2h0M715.98 312.2h12.5"/></g><text font-size="13.5" x="733.5" y="316.3" fill="#f6a324"><tspan x="733.48" y="316.25">Self-harm</tspan></text></g><g class="legendMark"><g class="indicator" stroke="#666" stroke-width=".5"><path d="M703.48 372.4h12.5M715.98 372.4h0M715.98 372.4h12.5"/></g><text font-size="13.5" x="733.5" y="376.4" fill="#ca2628"><tspan x="733.48" y="376.45">Falls</tspan></text></g><g class="legendMark"><g class="indicator" stroke="#666" stroke-width=".5"><path d="M703.48 408.4h12.5M715.98 408.4h0M715.98 408.4h12.5"/></g><text font-size="13.5" x="733.5" y="405.1" fill="#58888f"><tspan x="733.48" y="405.15">Other transport</tspan><tspan x="733.48" y="420">injuries</tspan></text></g><g class="legendMark"><g class="indicator" stroke="#666" stroke-width=".5"><path d="M703.48 474.7h12.5M715.98 474.7h0M715.98 474.7h12.5"/></g><text font-size="13.5" x="733.5" y="478.8" fill="#3360a9"><tspan x="733.48" y="478.75">Road injuries</tspan></text></g></g><g class="Areas"><path d="M97.6 425.3l23.1-1 23.1-1.4 23.1-2.2 23.1-2.1 23.2-1.2 23.1-1 23.1-.9 23.1-.7 23.1-1 23.1-.7 23.1-1.4 23.1-1.3 23.1-.9 23.1-.1 23.2.1 23.1-.4 23.1-.8 23.1-.3 23.1.4 23.1 1.4 23.1-.2 23.1.6 23.1 1 23.2.5 23.1.6 23.1 1.8-.02 121.2H97.6" fill="#3360a9" fill-opacity=".7" class="World_4-area"/><path d="M97.6 415.7l23.1-1.1 23.1-1.6 23.1-2.5 23.1-2.3 23.2-1.2 23.1-1.3 23.1-.8 23.1-.7 23.1-1.2 23.1-.8 23.1-1.5 23.1-1.6 23.1-.8 23.1-.1 23.2.3 23.1-.4 23.1-1.2 23.1-.3 23.1.2 23.1 1.9 23.1-.7 23.1.5 23.1 1 23.2.4 23.1.5 23.1 2.4v11.3l-23.1-1.8-23.1-.6-23.2-.5-23.1-1-23.1-.6-23.1.2-23.1-1.4-23.1-.4-23.1.3-23.1.8-23.1.4-23.2-.1-23.1.1-23.1.9-23.1 1.3-23.1 1.4-23.1.7-23.1 1-23.1.7-23.1.9-23.1 1-23.2 1.2-23.1 2.1-23.1 2.2-23.1 1.4-23.1 1" fill="#58888f" fill-opacity=".7" class="World_5-area"/><path d="M97.6 370.5l23.1-1.5 23.1-2.2 23.1-3.2 23.1-2.9 23.2-1.5 23.1-1.8 23.1-1.1 23.1-1.1 23.1-1.5 23.1-.8 23.1-2.4 23.1-2.2 23.1-1.8 23.1-.8 23.2.3 23.1-1 23.1-3.1 23.1-1.3 23.1-.5 23.1 2.6 23.1-2.8 23.1-.1 23.1-.6 23.2-.6 23.1-.4 23.1 3.8v60.8l-23.1-2.4-23.1-.5-23.2-.4-23.1-1-23.1-.5-23.1.7-23.1-1.9-23.1-.2-23.1.3-23.1 1.2-23.1.4-23.2-.3-23.1.1-23.1.8-23.1 1.6-23.1 1.5-23.1.8-23.1 1.2-23.1.7-23.1.8-23.1 1.3-23.2 1.2-23.1 2.3-23.1 2.5-23.1 1.6-23.1 1.1" fill="#ca2628" fill-opacity=".7" class="World_6-area"/><path d="M97.6 309.3l23.1-2.8 23.1-3.7 23.1-4.9 23.1-4.6 23.2-1.9 23.1-1.5 23.1-.8 23.1-.7 23.1-1.3 23.1-.5 23.1-1.6 23.1-2 23.1-1.8 23.1-.6 23.2.8 23.1-.1 23.1-2.3 23.1-.6 23.1.3 23.1 3.4 23.1-2.5 23.1.3 23.1-.4 23.2-.6 23.1-.5 23.1 3.9V342l-23.1-3.8-23.1.4-23.2.6-23.1.6-23.1.1-23.1 2.8-23.1-2.6-23.1.5-23.1 1.3-23.1 3.1-23.1 1-23.2-.3-23.1.8-23.1 1.8-23.1 2.2-23.1 2.4-23.1.8-23.1 1.5-23.1 1.1-23.1 1.1-23.1 1.8-23.2 1.5-23.1 2.9-23.1 3.2-23.1 2.2-23.1 1.5" fill="#f6a324" fill-opacity=".7" class="World_0-area"/><path d="M97.6 273.7l23.1-3.9 23.1-4.9 23.1-6.5 23.1-5.8 23.2-2.5 23.1-1.6 23.1-.8 23.1-.9 23.1-1.6 23.1-.8 23.1-1.5 23.1-2.1 23.1-1.4 23.1-.4 23.2 1.1 23.1.3 23.1-2.1 23.1-.5 23.1.5 23.1 3.7 23.1-2.4 23.1.5 23.1-.2 23.2-.8 23.1-.8 23.1 4v40l-23.1-3.9-23.1.5-23.2.6-23.1.4-23.1-.3-23.1 2.5-23.1-3.4-23.1-.3-23.1.6-23.1 2.3-23.1.1-23.2-.8-23.1.6-23.1 1.8-23.1 2-23.1 1.6-23.1.5-23.1 1.3-23.1.7-23.1.8-23.1 1.5-23.2 1.9-23.1 4.6-23.1 4.9-23.1 3.7-23.1 2.8" fill="#ed6c2d" fill-opacity=".7" class="World_1-area"/><path d="M97.6 214.7l23.1-2.7 23.1-3.8 23.1-6.1 23.1-5.2 23.2-2 23.1-1 23.1.3 23.1.6 23.1.1 23.1.8h23.1l23.1-.3 23.1.3 23.1 1.2 23.2 2.7 23.1 1.9 23.1-.9 23.1.8 23.1 1.5 23.1 4.7 23.1-1.2 23.1 1.4 23.1.7 23.2.3h23.1l23.1 5v28.5l-23.1-4-23.1.8-23.2.8-23.1.2-23.1-.5-23.1 2.4-23.1-3.7-23.1-.5-23.1.5-23.1 2.1-23.1-.3-23.2-1.1-23.1.4-23.1 1.4-23.1 2.1-23.1 1.5-23.1.8-23.1 1.6-23.1.9-23.1.8-23.1 1.6-23.2 2.5-23.1 5.8-23.1 6.5-23.1 4.9-23.1 3.9" fill="#7ec7ce" fill-opacity=".7" class="World_7-area"/><path d="M97.6 197.6l23.1-2.7 23.1-3.8 23.1-6.2 23.1-5.2 23.2-1.9 23.1-.8 23.1.5 23.1 1 23.1.3 23.1.9 23.1.1 23.1-.2 23.1.4 23.1 1.5 23.2 3 23.1 2 23.1-1 23.1 1 23.1 1.6 23.1 5 23.1-1.4 23.1 1.5 23.1.8 23.2.4h23.1l23.1 5.5v13.9l-23.1-5h-23.1l-23.2-.3-23.1-.7-23.1-1.4-23.1 1.2-23.1-4.7-23.1-1.5-23.1-.8-23.1.9-23.1-1.9-23.2-2.7-23.1-1.2-23.1-.3-23.1.3h-23.1l-23.1-.8-23.1-.1-23.1-.6-23.1-.3-23.1 1-23.2 2-23.1 5.2-23.1 6.1-23.1 3.8-23.1 2.7" fill="#e6332e" fill-opacity=".7" class="World_8-area"/><path d="M97.6 188.3l23.1-2.4 23.1-3.7 23.1-5.9 23.1-5 23.2-1.8 23.1-.5 23.1.7 23.1 1.2 23.1.5 23.1 1 23.1.3 23.1-.1 23.1.6 23.1 1.6 23.2 3.2 23.1 2.2 23.1-.9 23.1 1 23.1 1.7 23.1 5.1 23.1-1.2 23.1 1.6 23.1.9 23.2.4 23.1.2 23.1 5.6v5.3l-23.1-5.5h-23.1l-23.2-.4-23.1-.8-23.1-1.5-23.1 1.4-23.1-5-23.1-1.6-23.1-1-23.1 1-23.1-2-23.2-3L398 180l-23.1-.4-23.1.2-23.1-.1-23.1-.9-23.1-.3-23.1-1-23.1-.5-23.1.8-23.2 1.9-23.1 5.2-23.1 6.2-23.1 3.8-23.1 2.7" fill="#a652ba" fill-opacity=".7" class="World_9-area"/><path d="M97.6 176.6l23.1-2.1 23.1-.2 23.1-8.3 23.1-57 23.2 53.1 23.1-2.5 23.1 1.4 23.1.2 23.1-2.6 23.1 2 23.1 6.3 23.1-.6 23.1.2 23.1 1.9 23.2 3.4 23.1.2 23.1-.9 23.1 2.3 23.1 1.4 23.1 6.1 23.1-5.7 23.1-.1 23.1 1.1 23.2-4.8 23.1.6 23.1 5.1v17.5l-23.1-5.6-23.1-.2-23.2-.4-23.1-.9-23.1-1.6-23.1 1.2-23.1-5.1-23.1-1.7-23.1-1-23.1.9-23.1-2.2-23.2-3.2-23.1-1.6-23.1-.6-23.1.1-23.1-.3-23.1-1-23.1-.5-23.1-1.2-23.1-.7-23.1.5-23.2 1.8-23.1 5-23.1 5.9-23.1 3.7-23.1 2.4" fill="#818282" fill-opacity=".7" class="World_3-area"/><path d="M97.6 171.4l23.1-13.1 23.1 14.9 23.1-9.4 23.1-56.2 23.2 52.6 23.1-2.2 23.1 1.1 23.1-3 23.1-4 23.1 7.5 23.1 4.5 23.1 1.3 23.1-3.9 23.1-16.2 23.2 17.7 23.1 7.4 23.1-1.1 23.1-17.9 23.1 22 23.1-17.6 23.1 16.8 23.1 1.2 23.1.1 23.2-3.5 23.1-.2 23.1 5.8v1.1l-23.1-5.1-23.1-.6-23.2 4.8-23.1-1.1-23.1.1-23.1 5.7-23.1-6.1-23.1-1.4-23.1-2.3-23.1.9-23.1-.2-23.2-3.4-23.1-1.9-23.1-.2-23.1.6-23.1-6.3-23.1-2-23.1 2.6-23.1-.2-23.1-1.4-23.1 2.5L190 109l-23.1 57-23.1 8.3-23.1.2-23.1 2.1" fill="#34983f" fill-opacity=".7" class="World_2-area"/><path stroke-linecap="round" d="M97.6 425.3l23.1-1 23.1-1.4 23.1-2.2 23.1-2.1 23.2-1.2 23.1-1 23.1-.9 23.1-.7 23.1-1 23.1-.7 23.1-1.4 23.1-1.3 23.1-.9 23.1-.1 23.2.1 23.1-.4 23.1-.8 23.1-.3 23.1.4 23.1 1.4 23.1-.2 23.1.6 23.1 1 23.2.5 23.1.6 23.1 1.8" stroke="#2B508D" stroke-opacity=".7" stroke-width=".5" fill="none" class="World_4-border"/><path stroke-linecap="round" d="M97.6 415.7l23.1-1.1 23.1-1.6 23.1-2.5 23.1-2.3 23.2-1.2 23.1-1.3 23.1-.8 23.1-.7 23.1-1.2 23.1-.8 23.1-1.5 23.1-1.6 23.1-.8 23.1-.1 23.2.3 23.1-.4 23.1-1.2 23.1-.3 23.1.2 23.1 1.9 23.1-.7 23.1.5 23.1 1 23.2.4 23.1.5 23.1 2.4" stroke="#4A7278" stroke-opacity=".7" stroke-width=".5" fill="none" class="World_5-border"/><path stroke-linecap="round" d="M97.6 370.5l23.1-1.5 23.1-2.2 23.1-3.2 23.1-2.9 23.2-1.5 23.1-1.8 23.1-1.1 23.1-1.1 23.1-1.5 23.1-.8 23.1-2.4 23.1-2.2 23.1-1.8 23.1-.8 23.2.3 23.1-1 23.1-3.1 23.1-1.3 23.1-.5 23.1 2.6 23.1-2.8 23.1-.1 23.1-.6 23.2-.6 23.1-.4 23.1 3.8" stroke="#A92021" stroke-opacity=".7" stroke-width=".5" fill="none" class="World_6-border"/><path stroke-linecap="round" d="M97.6 309.3l23.1-2.8 23.1-3.7 23.1-4.9 23.1-4.6 23.2-1.9 23.1-1.5 23.1-.8 23.1-.7 23.1-1.3 23.1-.5 23.1-1.6 23.1-2 23.1-1.8 23.1-.6 23.2.8 23.1-.1 23.1-2.3 23.1-.6 23.1.3 23.1 3.4 23.1-2.5 23.1.3 23.1-.4 23.2-.6 23.1-.5 23.1 3.9" stroke="#CE881E" stroke-opacity=".7" stroke-width=".5" fill="none" class="World_0-border"/><path stroke-linecap="round" d="M97.6 273.7l23.1-3.9 23.1-4.9 23.1-6.5 23.1-5.8 23.2-2.5 23.1-1.6 23.1-.8 23.1-.9 23.1-1.6 23.1-.8 23.1-1.5 23.1-2.1 23.1-1.4 23.1-.4 23.2 1.1 23.1.3 23.1-2.1 23.1-.5 23.1.5 23.1 3.7 23.1-2.4 23.1.5 23.1-.2 23.2-.8 23.1-.8 23.1 4" stroke="#C65A26" stroke-opacity=".7" stroke-width=".5" fill="none" class="World_1-border"/><path stroke-linecap="round" d="M97.6 214.7l23.1-2.7 23.1-3.8 23.1-6.1 23.1-5.2 23.2-2 23.1-1 23.1.3 23.1.6 23.1.1 23.1.8h23.1l23.1-.3 23.1.3 23.1 1.2 23.2 2.7 23.1 1.9 23.1-.9 23.1.8 23.1 1.5 23.1 4.7 23.1-1.2 23.1 1.4 23.1.7 23.2.3h23.1l23.1 5" stroke="#69A6AC" stroke-opacity=".7" stroke-width=".5" fill="none" class="World_7-border"/><path stroke-linecap="round" d="M97.6 197.6l23.1-2.7 23.1-3.8 23.1-6.2 23.1-5.2 23.2-1.9 23.1-.8 23.1.5 23.1 1 23.1.3 23.1.9 23.1.1 23.1-.2 23.1.4 23.1 1.5 23.2 3 23.1 2 23.1-1 23.1 1 23.1 1.6 23.1 5 23.1-1.4 23.1 1.5 23.1.8 23.2.4h23.1l23.1 5.5" stroke="#C02B26" stroke-opacity=".7" stroke-width=".5" fill="none" class="World_8-border"/><path stroke-linecap="round" d="M97.6 188.3l23.1-2.4 23.1-3.7 23.1-5.9 23.1-5 23.2-1.8 23.1-.5 23.1.7 23.1 1.2 23.1.5 23.1 1 23.1.3 23.1-.1 23.1.6 23.1 1.6 23.2 3.2 23.1 2.2 23.1-.9 23.1 1 23.1 1.7 23.1 5.1 23.1-1.2 23.1 1.6 23.1.9 23.2.4 23.1.2 23.1 5.6" stroke="#8B459C" stroke-opacity=".7" stroke-width=".5" fill="none" class="World_9-border"/><path stroke-linecap="round" d="M97.6 176.6l23.1-2.1 23.1-.2 23.1-8.3 23.1-57 23.2 53.1 23.1-2.5 23.1 1.4 23.1.2 23.1-2.6 23.1 2 23.1 6.3 23.1-.6 23.1.2 23.1 1.9 23.2 3.4 23.1.2 23.1-.9 23.1 2.3 23.1 1.4 23.1 6.1 23.1-5.7 23.1-.1 23.1 1.1 23.2-4.8 23.1.6 23.1 5.1" stroke="#6C6D6D" stroke-opacity=".7" stroke-width=".5" fill="none" class="World_3-border"/><path stroke-linecap="round" d="M97.6 171.4l23.1-13.1 23.1 14.9 23.1-9.4 23.1-56.2 23.2 52.6 23.1-2.2 23.1 1.1 23.1-3 23.1-4 23.1 7.5 23.1 4.5 23.1 1.3 23.1-3.9 23.1-16.2 23.2 17.7 23.1 7.4 23.1-1.1 23.1-17.9 23.1 22 23.1-17.6 23.1 16.8 23.1 1.2 23.1.1 23.2-3.5 23.1-.2 23.1 5.8" stroke="#2C7F35" stroke-opacity=".7" stroke-width=".5" fill="none" class="World_2-border"/></g></g></g><g class="SourcesFooter" fill="#777"><g class="clickable" fill="#777"><text font-size="12.6" x="15" y="581.6"><tspan x="15" y="581.58">Source: IHME, Global Burden of Disease</tspan></text></g><text font-size="12.6" x="775.4" y="581.6"><tspan x="775.4" y="581.58"><a class="cclogo" href="http://creativecommons.org/licenses/by-sa/4.0/deed.en_US" target="_blank" fill="#777">CC BY-SA</a></tspan></text></g></g></svg>