<svg xmlns="http://www.w3.org/2000/svg" version="1.1" style="background-color:#fff;-webkit-font-smoothing:antialiased" width="850" height="600" font-family="'Helvetica Neue',Helvetica,Arial,sans-serif" font-size="18" text-rendering="optimizeLegibility"><g class="ChartTab"><g class="HeaderView"><g opacity=".8" transform="matrix(.27 0 0 .27 778 15)"><a xmlns:xlink="http://www.w3.org/1999/xlink" xlink:href="https://ourworldindata.org" target="_blank"><g><path fill="#1B2543" d="M0 0h211.2v130.1H0z"/><path fill="#E63912" d="M0 112.2h211.2v17.9H0z"/><g><path fill="none" d="M1.2 12.3h210.2v99.2H1.2z"/><path fill="#FFF" d="M37.8 32.2c0 12.7-7.7 19.4-17.1 19.4-9.7 0-16.6-7.5-16.6-18.7 0-11.7 7.3-19.3 17.1-19.3 10.1.1 16.6 7.7 16.6 18.6zm-28.6.6c0 7.9 4.3 14.9 11.8 14.9 7.5 0 11.8-6.9 11.8-15.3 0-7.3-3.8-14.9-11.8-14.9-7.9 0-11.8 7.3-11.8 15.3zM62.7 43.8c0 2.7.1 5.1.2 7.2h-4.3l-.3-4.3h-.1c-1.3 2.1-4 4.9-8.8 4.9-4.2 0-9.1-2.3-9.1-11.6V24.6h4.8v14.6c0 5 1.5 8.4 5.9 8.4 3.2 0 5.5-2.2 6.3-4.4.3-.7.4-1.6.4-2.5V24.6h4.8v19.2zM67.3 32.8c0-3.1-.1-5.8-.2-8.2h4.2l.2 5.2h.2c1.2-3.5 4.1-5.8 7.3-5.8.5 0 .9.1 1.4.2v4.5c-.5-.1-1-.2-1.6-.2-3.4 0-5.8 2.6-6.5 6.2-.1.7-.2 1.4-.2 2.2V51h-4.8V32.8zM95.4 51L86 14.2h5l4.4 18.6c1.1 4.6 2.1 9.2 2.7 12.7h.1c.6-3.7 1.8-8 3-12.8l4.9-18.5h5l4.5 18.7c1 4.4 2 8.7 2.6 12.6h.1c.8-4 1.8-8.1 3-12.7l4.9-18.5h4.9L120.6 51h-5L111 31.9c-1.1-4.7-1.9-8.3-2.4-12h-.1c-.7 3.7-1.5 7.3-2.8 12L100.4 51h-5zM154.9 37.6c0 9.8-6.8 14-13.2 14-7.2 0-12.7-5.2-12.7-13.6 0-8.8 5.8-14 13.1-14 7.7 0 12.8 5.5 12.8 13.6zm-21 .3c0 5.8 3.3 10.1 8 10.1 4.6 0 8-4.3 8-10.3 0-4.5-2.2-10.1-7.9-10.1s-8.1 5.2-8.1 10.3zM158.2 32.8c0-3.1-.1-5.8-.2-8.2h4.2l.2 5.2h.2c1.2-3.5 4.1-5.8 7.3-5.8.5 0 .9.1 1.4.2v4.5c-.5-.1-1-.2-1.6-.2-3.4 0-5.8 2.6-6.5 6.2-.1.7-.2 1.4-.2 2.2V51h-4.8V32.8zM173.5 12.3h4.8V51h-4.8V12.3zM206.5 12.3v31.9c0 2.3.1 5 .2 6.8h-4.3l-.2-4.6h-.2c-1.5 2.9-4.7 5.2-9 5.2-6.4 0-11.3-5.4-11.3-13.4-.1-8.8 5.4-14.2 11.9-14.2 4 0 6.8 1.9 8 4h.1V12.3h4.8zm-4.8 23.1c0-.6-.1-1.4-.2-2a7 7 0 00-6.9-5.6c-5 0-7.9 4.4-7.9 10.2 0 5.3 2.6 9.8 7.8 9.8 3.2 0 6.2-2.1 7.1-5.7.2-.7.2-1.3.2-2.1v-4.6zM42.8 64c.1 1.6-1.1 2.9-3.1 2.9-1.7 0-2.9-1.3-2.9-2.9 0-1.7 1.3-3 3-3 1.9 0 3 1.3 3 3zm-5.4 33.8V71.4h4.8v26.4h-4.8zM47.5 78.6c0-2.7-.1-5-.2-7.1h4.3l.3 4.4h.1c1.3-2.5 4.4-5 8.8-5 3.7 0 9.4 2.2 9.4 11.2v15.8h-4.8V82.6c0-4.3-1.6-7.8-6.1-7.8-3.2 0-5.6 2.2-6.5 4.9-.2.6-.3 1.4-.3 2.2v15.9h-4.8V78.6zM84 61.6c2.9-.4 6.3-.8 10.1-.8 6.8 0 11.7 1.6 14.9 4.6 3.3 3 5.2 7.3 5.2 13.2 0 6-1.9 10.9-5.3 14.3-3.4 3.4-9.1 5.3-16.3 5.3-3.4 0-6.2-.2-8.6-.4V61.6zm4.8 32.5c1.2.2 3 .3 4.8.3 10.2 0 15.7-5.7 15.7-15.6.1-8.7-4.9-14.2-14.9-14.2-2.5 0-4.3.2-5.6.5v29zM132.1 97.8l-.4-3.3h-.2a9.79 9.79 0 01-8.1 3.9c-5.4 0-8.1-3.8-8.1-7.6 0-6.4 5.7-9.9 15.9-9.8v-.5c0-2.2-.6-6.1-6-6.1-2.5 0-5 .8-6.9 2l-1.1-3.2c2.2-1.4 5.4-2.3 8.7-2.3 8.1 0 10.1 5.5 10.1 10.8v9.9c0 2.3.1 4.5.4 6.3h-4.3zm-.7-13.4c-5.3-.1-11.2.8-11.2 5.9 0 3.1 2.1 4.6 4.5 4.6 3.4 0 5.6-2.2 6.4-4.4.2-.5.3-1 .3-1.5v-4.6zM146.6 63.9v7.6h6.9v3.7h-6.9v14.2c0 3.3.9 5.1 3.6 5.1 1.3 0 2.2-.2 2.8-.3l.2 3.6c-.9.4-2.4.7-4.3.7-2.2 0-4-.7-5.2-2-1.4-1.4-1.9-3.8-1.9-6.9V75.1h-4.1v-3.7h4.1v-6.3l4.8-1.2zM171.4 97.8l-.4-3.3h-.2a9.79 9.79 0 01-8.1 3.9c-5.4 0-8.1-3.8-8.1-7.6 0-6.4 5.7-9.9 15.9-9.8v-.5c0-2.2-.6-6.1-6-6.1-2.5 0-5 .8-6.9 2l-1.1-3.2c2.2-1.4 5.4-2.3 8.7-2.3 8.1 0 10.1 5.5 10.1 10.8v9.9c0 2.3.1 4.5.4 6.3h-4.3zm-.7-13.4c-5.3-.1-11.2.8-11.2 5.9 0 3.1 2.1 4.6 4.5 4.6 3.4 0 5.6-2.2 6.4-4.4.2-.5.3-1 .3-1.5v-4.6z"/></g></g></a></g><a href="https://ourworldindata.org/grapher/employment-in-agri-vs-urban-pop" target="_blank"><text font-size="25.2" x="15" y="35.2" fill="#555"><tspan x="15" y="35.16">Employment in agriculture vs. urban population, 2015</tspan></text></a><text font-size="14.4" x="15" y="53.7" fill="#666"><tspan x="15" y="53.72">Share of total employment from the agricultural sector, versus the share of population living in urban areas.</tspan></text></g><g><g class="AxisBoxView"><g class="HorizontalAxis"><text font-size="12.6" x="261.9" y="554"><tspan x="261.93" y="553.98">Urban population (% of total) in 2015</tspan></text><text x="75.2" y="533.9" fill="#666" text-anchor="middle" font-size="16.2">0%</text><text x="203.1" y="533.9" fill="#666" text-anchor="middle" font-size="16.2">20%</text><text x="331.1" y="533.9" fill="#666" text-anchor="middle" font-size="16.2">40%</text><text x="459.1" y="533.9" fill="#666" text-anchor="middle" font-size="16.2">60%</text><text x="587" y="533.9" fill="#666" text-anchor="middle" font-size="16.2">80%</text><text x="715" y="533.9" fill="#666" text-anchor="middle" font-size="16.2">100%</text></g><g class="VerticalAxis"><text font-size="12.6" x="-458" y="25.1" transform="rotate(-90)"><tspan x="-458.05" y="25.08">Employment in agriculture (% of total employment)</tspan></text><text x="70.16" y="512.7" fill="#666" dominant-baseline="middle" text-anchor="end" font-size="16.2">0%</text><text x="70.16" y="454.2" fill="#666" dominant-baseline="middle" text-anchor="end" font-size="16.2">10%</text><text x="70.16" y="395.6" fill="#666" dominant-baseline="middle" text-anchor="end" font-size="16.2">20%</text><text x="70.16" y="337.1" fill="#666" dominant-baseline="middle" text-anchor="end" font-size="16.2">30%</text><text x="70.16" y="278.6" fill="#666" dominant-baseline="middle" text-anchor="end" font-size="16.2">40%</text><text x="70.16" y="220" fill="#666" dominant-baseline="middle" text-anchor="end" font-size="16.2">50%</text><text x="70.16" y="161.5" fill="#666" dominant-baseline="middle" text-anchor="end" font-size="16.2">60%</text><text x="70.16" y="102.9" fill="#666" dominant-baseline="middle" text-anchor="end" font-size="16.2">70%</text></g><g class="AxisGridLines"><path stroke="#ccc" d="M75.16 512.7H715"/><path stroke="#ddd" stroke-dasharray="3,2" d="M75.16 454.2H715M75.16 395.6H715M75.16 337.1H715M75.16 278.6H715M75.16 220H715M75.16 161.5H715M75.16 102.9H715"/></g><g class="AxisGridLines"><path stroke="#ccc" d="M75.2 512.7V76.6"/><path stroke="#ddd" stroke-dasharray="3,2" d="M203.1 512.7V76.6M331.1 512.7V76.6M459.1 512.7V76.6M587 512.7V76.6M715 512.7V76.6"/></g></g><g clip-path="url(#a)" font-family="Arial Narrow, Arial, sans-serif" class="PointsWithLabels clickable"><path fill="rgba(255,255,255,0)" d="M75.16 76.6H715v436.1H75.16z"/><defs><clipPath id="a"><path d="M65.16 66.6H725v456.1H65.16z"/></clipPath></defs><g class="key-China_0"><circle cx="431" cy="347" r="17.84" fill="#d14e5b" opacity=".8" stroke="#333" stroke-width=".7"/></g><g class="key-United-States_0"><circle cx="597" cy="503" r="8.78" fill="#4d824b" opacity=".8" stroke="#333" stroke-width=".7"/></g><g class="key-Indonesia_0"><circle cx="419" cy="320" r="7.78" fill="#d14e5b" opacity=".8" stroke="#333" stroke-width=".7"/></g><g class="key-Brazil_0"><circle cx="623" cy="452" r="7.04" fill="#69c487" opacity=".8" stroke="#333" stroke-width=".7"/></g><g class="key-Russia_0"><circle cx="548" cy="473" r="6.02" fill="#ffd336" opacity=".8" stroke="#333" stroke-width=".7"/></g><g class="key-Japan_0"><circle cx="673" cy="491" r="5.7" fill="#d14e5b" opacity=".8" stroke="#333" stroke-width=".7"/></g><g class="key-Mexico_0"><circle cx="582" cy="434" r="5.51" fill="#4d824b" opacity=".8" stroke="#333" stroke-width=".7"/></g><g class="key-Philippines_0"><circle cx="359" cy="342" r="5.09" fill="#d14e5b" opacity=".8" stroke="#333" stroke-width=".7"/></g><g class="key-Vietnam_0"><circle cx="290" cy="257" r="4.92" fill="#d14e5b" opacity=".8" stroke="#333" stroke-width=".7"/></g><g class="key-Egypt_0"><circle cx="351" cy="361" r="4.79" fill="#5675c1" opacity=".8" stroke="#333" stroke-width=".7"/></g><g class="key-Germany_0"><circle cx="557" cy="504" r="4.71" fill="#ffd336" opacity=".8" stroke="#fff" stroke-width=".7"/></g><g class="key-Iran_0"><circle cx="544" cy="407" r="4.57" fill="#d14e5b" opacity=".8" stroke="#333" stroke-width=".7"/></g><g class="key-Turkey_0"><circle cx="544" cy="393" r="4.54" fill="#d14e5b" opacity=".8" stroke="#333" stroke-width=".7"/></g><g class="key-Thailand_0"><circle cx="397" cy="323" r="4.41" fill="#d14e5b" opacity=".8" stroke="#fff" stroke-width=".7"/></g><g class="key-France_0"><circle cx="584" cy="496" r="4.24" fill="#ffd336" opacity=".8" stroke="#fff" stroke-width=".7"/></g><g class="key-United-Kingdom_0"><circle cx="603" cy="506" r="4.22" fill="#ffd336" opacity=".8" stroke="#fff" stroke-width=".7"/></g><g class="key-Italy_0"><circle cx="516" cy="490" r="4.16" fill="#ffd336" opacity=".8" stroke="#333" stroke-width=".7"/></g><g class="key-South-Africa_0"><circle cx="489" cy="480" r="3.87" fill="#5675c1" opacity=".8" stroke="#fff" stroke-width=".7"/></g><g class="key-South-Korea_0"><circle cx="602" cy="482" r="3.81" fill="#d14e5b" opacity=".8" stroke="#333" stroke-width=".7"/></g><g class="key-Colombia_0"><circle cx="564" cy="420" r="3.79" fill="#69c487" opacity=".8" stroke="#333" stroke-width=".7"/></g><g class="key-Spain_0"><circle cx="584" cy="488" r="3.75" fill="#ffd336" opacity=".8" stroke="#fff" stroke-width=".7"/></g><g class="key-Ukraine_0"><circle cx="521" cy="423" r="3.68" fill="#ffd336" opacity=".8" stroke="#333" stroke-width=".7"/></g><g class="key-Poland_0"><circle cx="462" cy="445" r="3.47" fill="#ffd336" opacity=".8" stroke="#333" stroke-width=".7"/></g><g class="key-Canada_0"><circle cx="598" cy="503" r="3.36" fill="#4d824b" opacity=".8" stroke="#fff" stroke-width=".7"/></g><g class="key-Peru_0"><circle cx="578" cy="363" r="3.19" fill="#69c487" opacity=".8" stroke="#333" stroke-width=".7"/></g><g class="key-Malaysia_0"><circle cx="553" cy="439" r="3.18" fill="#d14e5b" opacity=".8" stroke="#fff" stroke-width=".7"/></g><g class="key-Saudi-Arabia_0"><circle cx="607" cy="477" r="3.16" fill="#d14e5b" opacity=".8" stroke="#fff" stroke-width=".7"/></g><g class="key-Australia_0"><circle cx="647" cy="497" r="2.93" fill="#a652ba" opacity=".8" stroke="#fff" stroke-width=".7"/></g><g class="key-Madagascar_0"><circle cx="299" cy="76" r="2.9" fill="#5675c1" opacity=".8" stroke="#333" stroke-width=".7"/></g><g class="key-Sri-Lanka_0"><circle cx="192" cy="347" r="2.85" fill="#d14e5b" opacity=".8" stroke="#333" stroke-width=".7"/></g><g class="key-Romania_0"><circle cx="424" cy="362" r="2.85" fill="#ffd336" opacity=".8" stroke="#333" stroke-width=".7"/></g><g class="key-Chile_0"><circle cx="648" cy="456" r="2.69" fill="#69c487" opacity=".8" stroke="#fff" stroke-width=".7"/></g><g class="key-Netherlands_0"><circle cx="654" cy="500" r="2.66" fill="#ffd336" opacity=".8" stroke="#fff" stroke-width=".7"/></g><g class="key-Kazakhstan_0"><circle cx="415" cy="407" r="2.65" fill="#d14e5b" opacity=".8" stroke="#333" stroke-width=".7"/></g><g class="key-Guatemala_0"><circle cx="405" cy="322" r="2.6" fill="#4d824b" opacity=".8" stroke="#fff" stroke-width=".7"/></g><g class="key-Ecuador_0"><circle cx="483" cy="366" r="2.58" fill="#69c487" opacity=".8" stroke="#333" stroke-width=".7"/></g><g class="key-Greece_0"><circle cx="574" cy="437" r="2.42" fill="#ffd336" opacity=".8" stroke="#fff" stroke-width=".7"/></g><g class="key-Belgium_0"><circle cx="701" cy="505" r="2.38" fill="#ffd336" opacity=".8" stroke="#fff" stroke-width=".7"/></g><g class="key-Portugal_0"><circle cx="481" cy="468" r="2.38" fill="#ffd336" opacity=".8" stroke="#333" stroke-width=".7"/></g><g class="key-Czech-Republic_0"><circle cx="542" cy="495" r="2.37" fill="#ffd336" opacity=".8" stroke="#fff" stroke-width=".7"/></g><g class="key-Dominican-Republic_0"><circle cx="580" cy="434" r="2.36" fill="#4d824b" opacity=".8" stroke="#fff" stroke-width=".7"/></g><g class="key-Hungary_0"><circle cx="530" cy="484" r="2.34" fill="#ffd336" opacity=".8" stroke="#fff" stroke-width=".7"/></g><g class="key-Serbia_0"><circle cx="430" cy="399" r="2.34" fill="#ffd336" opacity=".8" stroke="#fff" stroke-width=".7"/></g><g class="key-Sweden_0"><circle cx="624" cy="500" r="2.32" fill="#ffd336" opacity=".8" stroke="#fff" stroke-width=".7"/></g><g class="key-Azerbaijan_0"><circle cx="424" cy="299" r="2.32" fill="#d14e5b" opacity=".8" stroke="#333" stroke-width=".7"/></g><g class="key-Belarus_0"><circle cx="565" cy="455" r="2.32" fill="#ffd336" opacity=".8" stroke="#333" stroke-width=".7"/></g><g class="key-Austria_0"><circle cx="497" cy="486" r="2.27" fill="#ffd336" opacity=".8" stroke="#fff" stroke-width=".7"/></g><g class="key-Honduras_0"><circle cx="425" cy="337" r="2.25" fill="#4d824b" opacity=".8" stroke="#fff" stroke-width=".7"/></g><g class="key-Israel_0"><circle cx="664" cy="506" r="2.23" fill="#d14e5b" opacity=".8" stroke="#fff" stroke-width=".7"/></g><g class="key-Switzerland_0"><circle cx="548" cy="493" r="2.23" fill="#ffd336" opacity=".8" stroke="#fff" stroke-width=".7"/></g><g class="key-Bulgaria_0"><circle cx="548" cy="472" r="2.21" fill="#ffd336" opacity=".8" stroke="#fff" stroke-width=".7"/></g><g class="key-Paraguay_0"><circle cx="456" cy="395" r="2.18" fill="#69c487" opacity=".8" stroke="#333" stroke-width=".7"/></g><g class="key-Denmark_0"><circle cx="636" cy="498" r="2.12" fill="#ffd336" opacity=".8" stroke="#fff" stroke-width=".7"/></g><g class="key-Kyrgyzstan_0"><circle cx="303" cy="341" r="2.11" fill="#d14e5b" opacity=".8" stroke="#333" stroke-width=".7"/></g><g class="key-Slovakia_0"><circle cx="418" cy="494" r="2.11" fill="#ffd336" opacity=".8" stroke="#333" stroke-width=".7"/></g><g class="key-Finland_0"><circle cx="614" cy="488" r="2.11" fill="#ffd336" opacity=".8" stroke="#fff" stroke-width=".7"/></g><g class="key-Norway_0"><circle cx="590" cy="500" r="2.08" fill="#ffd336" opacity=".8" stroke="#fff" stroke-width=".7"/></g><g class="key-Costa-Rica_0"><circle cx="566" cy="440" r="2.08" fill="#4d824b" opacity=".8" stroke="#fff" stroke-width=".7"/></g><g class="key-Ireland_0"><circle cx="479" cy="480" r="2.06" fill="#ffd336" opacity=".8" stroke="#333" stroke-width=".7"/></g><g class="key-New-Zealand_0"><circle cx="627" cy="477" r="2.06" fill="#a652ba" opacity=".8" stroke="#fff" stroke-width=".7"/></g><g class="key-Croatia_0"><circle cx="452" cy="459" r="2.05" fill="#ffd336" opacity=".8" stroke="#fff" stroke-width=".7"/></g><g class="key-Bosnia-and-Herzegovina_0"><circle cx="329" cy="408" r="2.01" fill="#ffd336" opacity=".8" stroke="#fff" stroke-width=".7"/></g><g class="key-Panama_0"><circle cx="501" cy="424" r="2.01" fill="#4d824b" opacity=".8" stroke="#fff" stroke-width=".7"/></g><g class="key-Moldova_0"><circle cx="363" cy="327" r="2" fill="#ffd336" opacity=".8" stroke="#333" stroke-width=".7"/></g><g class="key-Uruguay_0"><circle cx="685" cy="460" r="1.99" fill="#69c487" opacity=".8" stroke="#333" stroke-width=".7"/></g><g class="key-Lithuania_0"><circle cx="500" cy="459" r="1.98" fill="#ffd336" opacity=".8" stroke="#fff" stroke-width=".7"/></g><g class="key-Albania_0"><circle cx="442" cy="271" r="1.98" fill="#ffd336" opacity=".8" stroke="#333" stroke-width=".7"/></g><g class="key-Armenia_0"><circle cx="476" cy="305" r="1.98" fill="#d14e5b" opacity=".8" stroke="#fff" stroke-width=".7"/></g><g class="key-Mongolia_0"><circle cx="536" cy="346" r="1.96" fill="#d14e5b" opacity=".8" stroke="#333" stroke-width=".7"/></g><g class="key-Jamaica_0"><circle cx="425" cy="408" r="1.95" fill="#4d824b" opacity=".8" stroke="#fff" stroke-width=".7"/></g><g class="key-Latvia_0"><circle cx="506" cy="466" r="1.92" fill="#ffd336" opacity=".8" stroke="#fff" stroke-width=".7"/></g><g class="key-Macedonia_0"><circle cx="440" cy="408" r="1.91" fill="#ffd336" opacity=".8" stroke="#fff" stroke-width=".7"/></g><g class="key-Slovenia_0"><circle cx="392" cy="471" r="1.91" fill="#ffd336" opacity=".8" stroke="#333" stroke-width=".7"/></g><g class="key-Qatar_0"><circle cx="710" cy="505" r="1.91" fill="#d14e5b" opacity=".8" stroke="#333" stroke-width=".7"/></g><g class="key-Estonia_0"><circle cx="507" cy="489" r="1.87" fill="#ffd336" opacity=".8" stroke="#fff" stroke-width=".7"/></g><g class="key-Mauritius_0"><circle cx="329" cy="468" r="1.87" fill="#5675c1" opacity=".8" stroke="#333" stroke-width=".7"/></g><g class="key-Cyprus_0"><circle cx="503" cy="489" r="1.86" fill="#ffd336" opacity=".8" stroke="#fff" stroke-width=".7"/></g><g class="key-Bhutan_0"><circle cx="322" cy="173" r="1.83" fill="#d14e5b" opacity=".8" stroke="#333" stroke-width=".7"/></g><g class="key-Montenegro_0"><circle cx="484" cy="467" r="1.82" fill="#ffd336" opacity=".8" stroke="#fff" stroke-width=".7"/></g><g class="key-Luxembourg_0"><circle cx="652" cy="507" r="1.82" fill="#ffd336" opacity=".8" stroke="#fff" stroke-width=".7"/></g><g class="key-Malta_0"><circle cx="685" cy="503" r="1.81" fill="#ffd336" opacity=".8" stroke="#fff" stroke-width=".7"/></g><g class="key-Iceland_0"><circle cx="677" cy="487" r="1.8" fill="#ffd336" opacity=".8" stroke="#fff" stroke-width=".7"/></g><g class="key-Belize_0"><circle cx="356" cy="421" r="1.8" fill="#4d824b" opacity=".8" stroke="#333" stroke-width=".7"/></g><g class="key-Barbados_0"><circle cx="276" cy="495" r="1.8" fill="#4d824b" opacity=".8" stroke="#333" stroke-width=".7"/></g><g class="key-Saint-Lucia_0"><circle cx="193" cy="448" r="1.79" fill="#4d824b" opacity=".8" stroke="#333" stroke-width=".7"/></g><g class="key-Seychelles_0"><circle cx="420" cy="488" r="1.79" fill="#5675c1" opacity=".8" stroke="#fff" stroke-width=".7"/></g><g class="key-Cayman-Islands_0"><circle cx="715" cy="509" r="1.79" fill="#4d824b" opacity=".8" stroke="#fff" stroke-width=".7"/></g><g class="key-San-Marino_0"><circle cx="677" cy="510" r="1.79" fill="#ffd336" opacity=".8" stroke="#333" stroke-width=".7"/></g><g class="key-Central-Europe-and-the-Baltics_0"><circle cx="474" cy="445" r="1.78" fill="#000" opacity=".8" stroke="#fff" stroke-width=".7"/></g><g class="key-East-Asia-__0026-Pacific_0"><circle cx="437" cy="353" r="1.78" fill="#000" opacity=".8" stroke="#fff" stroke-width=".7"/></g><g class="key-East-Asia-__0026-Pacific-__0028excluding-high-income__0029_0"><circle cx="414" cy="339" r="1.78" fill="#000" opacity=".8" stroke="#fff" stroke-width=".7"/></g><g class="key-East-Asia-__0026-Pacific-__0028IDA-__0026-IBRD__0029_0"><circle cx="413" cy="339" r="1.78" fill="#000" opacity=".8" stroke="#fff" stroke-width=".7"/></g><g class="key-Euro-area_0"><circle cx="560" cy="493" r="1.78" fill="#000" opacity=".8" stroke="#fff" stroke-width=".7"/></g><g class="key-Europe-__0026-Central-Asia_0"><circle cx="528" cy="466" r="1.78" fill="#000" opacity=".8" stroke="#fff" stroke-width=".7"/></g><g class="key-Europe-__0026-Central-Asia-__0028excluding-high-income__0029_0"><circle cx="491" cy="431" r="1.78" fill="#000" opacity=".8" stroke="#fff" stroke-width=".7"/></g><g class="key-Europe-__0026-Central-Asia-__0028IDA-__0026-IBRD__0029_0"><circle cx="488" cy="432" r="1.78" fill="#000" opacity=".8" stroke="#fff" stroke-width=".7"/></g><g class="key-European-Union_0"><circle cx="553" cy="486" r="1.78" fill="#000" opacity=".8" stroke="#fff" stroke-width=".7"/></g><g class="key-High-income_0"><circle cx="594" cy="494" r="1.78" fill="#000" opacity=".8" stroke="#fff" stroke-width=".7"/></g><g class="key-Late__002ddemographic-dividend_0"><circle cx="458" cy="365" r="1.78" fill="#000" opacity=".8" stroke="#fff" stroke-width=".7"/></g><g class="key-North-America_0"><circle cx="597" cy="503" r="1.78" fill="#000" opacity=".8" stroke="#fff" stroke-width=".7"/></g><g class="key-OECD-members_0"><circle cx="588" cy="484" r="1.78" fill="#000" opacity=".8" stroke="#fff" stroke-width=".7"/></g><g class="key-Post__002ddemographic-dividend_0"><circle cx="593" cy="493" r="1.78" fill="#000" opacity=".8" stroke="#fff" stroke-width=".7"/></g><g class="key-Upper-middle-income_0"><circle cx="486" cy="375" r="1.78" fill="#000" opacity=".8" stroke="#fff" stroke-width=".7"/></g><g class="key-Latin-America-__0026-Caribbean_0"><circle cx="585" cy="429" r="1.78" fill="#000" opacity=".8" stroke="#fff" stroke-width=".7"/></g><g class="key-Latin-America-__0026-Caribbean-__0028excluding-high-income__0029_0"><circle cx="584" cy="427" r="1.78" fill="#000" opacity=".8" stroke="#fff" stroke-width=".7"/></g><g class="key-Latin-America-__0026-Caribbean-__0028IDA-__0026-IBRD__0029_0"><circle cx="585" cy="429" r="1.78" fill="#000" opacity=".8" stroke="#fff" stroke-width=".7"/></g><g class="key-Palestine_0"><circle cx="556" cy="462" r="1.78" fill="#d14e5b" opacity=".8" stroke="#fff" stroke-width=".7"/></g><g fill="#333" class="backgroundLabels"><text x="431" y="328.16" font-size="14.3">China</text><text x="597" y="493.22" font-size="11.77">United States</text><text x="419" y="311.22" font-size="11.6">Indonesia</text><text x="623" y="443.96" font-size="11.49">Brazil</text><text x="548" y="465.98" font-size="11.35">Russia</text><text x="673" y="484.3" font-size="11.31">Japan</text><text x="582" y="427.49" font-size="11.29">Mexico</text><text x="359" y="335.91" font-size="11.24">Philippines</text><text x="290" y="251.08" font-size="11.22">Vietnam</text><text x="351" y="355.21" font-size="11.21">Egypt</text><text x="544" y="401.43" font-size="11.19">Iran</text><text x="544" y="387.46" font-size="11.18">Turkey</text><text x="516" y="484.84" font-size="11.15">Italy</text><text x="602" y="477.19" font-size="11.12">South Korea</text><text x="564" y="415.21" font-size="11.12">Colombia</text><text x="521" y="418.32" font-size="11.11">Ukraine</text><text x="462" y="440.53" font-size="11.09">Poland</text><text x="578" y="358.81" font-size="11.07">Peru</text><text x="299" y="87.65" font-size="11.05">Madagascar</text><text x="192" y="343.15" font-size="11.05">Sri Lanka</text><text x="424" y="358.15" font-size="11.05">Romania</text><text x="415" y="403.35" font-size="11.04">Kazakhstan</text><text x="483" y="362.42" font-size="11.04">Ecuador</text><text x="481" y="464.62" font-size="11.03">Portugal</text><text x="424" y="295.68" font-size="11.02">Azerbaijan</text><text x="565" y="451.68" font-size="11.02">Belarus</text><text x="456" y="391.82" font-size="11.02">Paraguay</text><text x="303" y="337.89" font-size="11.01">Kyrgyzstan</text><text x="418" y="490.89" font-size="11.01">Slovakia</text><text x="479" y="476.94" font-size="11.01">Ireland</text><text x="363" y="324" font-size="11.01">Moldova</text><text x="643.28" y="457.01" font-size="11.01">Uruguay</text><text x="442" y="268.02" font-size="11.01">Albania</text><text x="536" y="343.04" font-size="11.01">Mongolia</text><text x="392" y="468.09" font-size="11">Slovenia</text><text x="682.38" y="502.09" font-size="11">Qatar</text><text x="329" y="465.13" font-size="11">Mauritius</text><text x="322" y="170.17" font-size="11">Bhutan</text><text x="356" y="418.2" font-size="11">Belize</text><text x="276" y="492.2" font-size="11">Barbados</text><text x="193" y="445.21" font-size="11">Saint Lucia</text><text x="620.57" y="507.21" font-size="11">San Marino</text></g></g><g class="ScatterColorLegend clickable" cursor="pointer"><g class="legendMark">,<path fill="#5675c1" d="M735 79.6h6v6h-6z"/>,<text font-size="12.6" x="746" y="86.7"><tspan x="746" y="86.68">Africa</tspan></text></g><g class="legendMark">,<path fill="#d14e5b" d="M735 97.2h6v6h-6z"/>,<text font-size="12.6" x="746" y="104.3"><tspan x="746" y="104.28">Asia</tspan></text></g><g class="legendMark">,<path fill="#ffd336" d="M735 114.8h6v6h-6z"/>,<text font-size="12.6" x="746" y="121.9"><tspan x="746" y="121.88">Europe</tspan></text></g><g class="legendMark">,<path fill="#4d824b" d="M735 132.4h6v6h-6z"/>,<text font-size="12.6" x="746" y="139.5"><tspan x="746" y="139.48">North America</tspan></text></g><g class="legendMark">,<path fill="#a652ba" d="M735 150h6v6h-6z"/>,<text font-size="12.6" x="746" y="157.1"><tspan x="746" y="157.08">Oceania</tspan></text></g><g class="legendMark">,<path fill="#69c487" d="M735 167.6h6v6h-6z"/>,<text font-size="12.6" x="746" y="174.7"><tspan x="746" y="174.68">South America</tspan></text></g></g></g><g class="SourcesFooter" fill="#777"><g class="clickable" fill="#777"><text font-size="12.6" x="15" y="581.6"><tspan x="15" y="581.58">Source: World Bank – WDI</tspan></text></g><text font-size="12.6" x="775.4" y="581.6"><tspan x="775.4" y="581.58"><a class="cclogo" href="http://creativecommons.org/licenses/by-sa/4.0/deed.en_US" target="_blank" fill="#777">CC BY-SA</a></tspan></text></g></g></svg>