<svg xmlns="http://www.w3.org/2000/svg" version="1.1" style="background-color:#fff;-webkit-font-smoothing:antialiased" width="850" height="600" font-family="'Helvetica Neue',Helvetica,Arial,sans-serif" font-size="18" text-rendering="optimizeLegibility"><g class="ChartTab"><g class="HeaderView"><g opacity=".8" transform="matrix(.27 0 0 .27 778 15)"><a xmlns:xlink="http://www.w3.org/1999/xlink" xlink:href="https://ourworldindata.org" target="_blank"><g><path fill="#1B2543" d="M0 0h211.2v130.1H0z"/><path fill="#E63912" d="M0 112.2h211.2v17.9H0z"/><g><path fill="none" d="M1.2 12.3h210.2v99.2H1.2z"/><path fill="#FFF" d="M37.8 32.2c0 12.7-7.7 19.4-17.1 19.4-9.7 0-16.6-7.5-16.6-18.7 0-11.7 7.3-19.3 17.1-19.3 10.1.1 16.6 7.7 16.6 18.6zm-28.6.6c0 7.9 4.3 14.9 11.8 14.9 7.5 0 11.8-6.9 11.8-15.3 0-7.3-3.8-14.9-11.8-14.9-7.9 0-11.8 7.3-11.8 15.3zM62.7 43.8c0 2.7.1 5.1.2 7.2h-4.3l-.3-4.3h-.1c-1.3 2.1-4 4.9-8.8 4.9-4.2 0-9.1-2.3-9.1-11.6V24.6h4.8v14.6c0 5 1.5 8.4 5.9 8.4 3.2 0 5.5-2.2 6.3-4.4.3-.7.4-1.6.4-2.5V24.6h4.8v19.2zM67.3 32.8c0-3.1-.1-5.8-.2-8.2h4.2l.2 5.2h.2c1.2-3.5 4.1-5.8 7.3-5.8.5 0 .9.1 1.4.2v4.5c-.5-.1-1-.2-1.6-.2-3.4 0-5.8 2.6-6.5 6.2-.1.7-.2 1.4-.2 2.2V51h-4.8V32.8zM95.4 51L86 14.2h5l4.4 18.6c1.1 4.6 2.1 9.2 2.7 12.7h.1c.6-3.7 1.8-8 3-12.8l4.9-18.5h5l4.5 18.7c1 4.4 2 8.7 2.6 12.6h.1c.8-4 1.8-8.1 3-12.7l4.9-18.5h4.9L120.6 51h-5L111 31.9c-1.1-4.7-1.9-8.3-2.4-12h-.1c-.7 3.7-1.5 7.3-2.8 12L100.4 51h-5zM154.9 37.6c0 9.8-6.8 14-13.2 14-7.2 0-12.7-5.2-12.7-13.6 0-8.8 5.8-14 13.1-14 7.7 0 12.8 5.5 12.8 13.6zm-21 .3c0 5.8 3.3 10.1 8 10.1 4.6 0 8-4.3 8-10.3 0-4.5-2.2-10.1-7.9-10.1s-8.1 5.2-8.1 10.3zM158.2 32.8c0-3.1-.1-5.8-.2-8.2h4.2l.2 5.2h.2c1.2-3.5 4.1-5.8 7.3-5.8.5 0 .9.1 1.4.2v4.5c-.5-.1-1-.2-1.6-.2-3.4 0-5.8 2.6-6.5 6.2-.1.7-.2 1.4-.2 2.2V51h-4.8V32.8zM173.5 12.3h4.8V51h-4.8V12.3zM206.5 12.3v31.9c0 2.3.1 5 .2 6.8h-4.3l-.2-4.6h-.2c-1.5 2.9-4.7 5.2-9 5.2-6.4 0-11.3-5.4-11.3-13.4-.1-8.8 5.4-14.2 11.9-14.2 4 0 6.8 1.9 8 4h.1V12.3h4.8zm-4.8 23.1c0-.6-.1-1.4-.2-2a7 7 0 00-6.9-5.6c-5 0-7.9 4.4-7.9 10.2 0 5.3 2.6 9.8 7.8 9.8 3.2 0 6.2-2.1 7.1-5.7.2-.7.2-1.3.2-2.1v-4.6zM42.8 64c.1 1.6-1.1 2.9-3.1 2.9-1.7 0-2.9-1.3-2.9-2.9 0-1.7 1.3-3 3-3 1.9 0 3 1.3 3 3zm-5.4 33.8V71.4h4.8v26.4h-4.8zM47.5 78.6c0-2.7-.1-5-.2-7.1h4.3l.3 4.4h.1c1.3-2.5 4.4-5 8.8-5 3.7 0 9.4 2.2 9.4 11.2v15.8h-4.8V82.6c0-4.3-1.6-7.8-6.1-7.8-3.2 0-5.6 2.2-6.5 4.9-.2.6-.3 1.4-.3 2.2v15.9h-4.8V78.6zM84 61.6c2.9-.4 6.3-.8 10.1-.8 6.8 0 11.7 1.6 14.9 4.6 3.3 3 5.2 7.3 5.2 13.2 0 6-1.9 10.9-5.3 14.3-3.4 3.4-9.1 5.3-16.3 5.3-3.4 0-6.2-.2-8.6-.4V61.6zm4.8 32.5c1.2.2 3 .3 4.8.3 10.2 0 15.7-5.7 15.7-15.6.1-8.7-4.9-14.2-14.9-14.2-2.5 0-4.3.2-5.6.5v29zM132.1 97.8l-.4-3.3h-.2a9.79 9.79 0 01-8.1 3.9c-5.4 0-8.1-3.8-8.1-7.6 0-6.4 5.7-9.9 15.9-9.8v-.5c0-2.2-.6-6.1-6-6.1-2.5 0-5 .8-6.9 2l-1.1-3.2c2.2-1.4 5.4-2.3 8.7-2.3 8.1 0 10.1 5.5 10.1 10.8v9.9c0 2.3.1 4.5.4 6.3h-4.3zm-.7-13.4c-5.3-.1-11.2.8-11.2 5.9 0 3.1 2.1 4.6 4.5 4.6 3.4 0 5.6-2.2 6.4-4.4.2-.5.3-1 .3-1.5v-4.6zM146.6 63.9v7.6h6.9v3.7h-6.9v14.2c0 3.3.9 5.1 3.6 5.1 1.3 0 2.2-.2 2.8-.3l.2 3.6c-.9.4-2.4.7-4.3.7-2.2 0-4-.7-5.2-2-1.4-1.4-1.9-3.8-1.9-6.9V75.1h-4.1v-3.7h4.1v-6.3l4.8-1.2zM171.4 97.8l-.4-3.3h-.2a9.79 9.79 0 01-8.1 3.9c-5.4 0-8.1-3.8-8.1-7.6 0-6.4 5.7-9.9 15.9-9.8v-.5c0-2.2-.6-6.1-6-6.1-2.5 0-5 .8-6.9 2l-1.1-3.2c2.2-1.4 5.4-2.3 8.7-2.3 8.1 0 10.1 5.5 10.1 10.8v9.9c0 2.3.1 4.5.4 6.3h-4.3zm-.7-13.4c-5.3-.1-11.2.8-11.2 5.9 0 3.1 2.1 4.6 4.5 4.6 3.4 0 5.6-2.2 6.4-4.4.2-.5.3-1 .3-1.5v-4.6z"/></g></g></a></g><a href="https://ourworldindata.org/grapher/estimated-and-projected-life-expectancy-at-birth" target="_blank"><text font-size="25.2" x="15" y="35.2" fill="#555"><tspan x="15" y="35.16">Estimated and projected life expectancy at birth, United Kingdom</tspan></text></a><text font-size="14.4" x="15" y="53.7" fill="#666"><tspan x="15" y="53.72">Estimated (historic) and projected life expectancy, measured as the average expected years at birth. This is given for</tspan><tspan x="15" y="69.56">the ONS&apos;s 2014 and 2016 revision of life expectancy projections.</tspan></text></g><g class="LineChart"><defs><clipPath id="a"><path d="M72.37 0h830v928.8h-830z"/></clipPath></defs><g class="AxisBoxView"><g class="HorizontalAxis" fill="#666" text-anchor="middle" font-size="16.2"><text x="82.4" y="556.5">1981</text><text x="182.1" y="556.5">2000</text><text x="287.2" y="556.5">2020</text><text x="392.2" y="556.5">2040</text><text x="497.2" y="556.5">2060</text><text x="602.2" y="556.5">2080</text><text x="649.5" y="556.5">2089</text></g><g class="VerticalAxis" fill="#666" dominant-baseline="middle" text-anchor="end" font-size="16.2"><text x="77.37" y="535.3">70 years</text><text x="77.37" y="437.2">75 years</text><text x="77.37" y="339.2">80 years</text><text x="77.37" y="241.1">85 years</text><text x="77.37" y="143.1">90 years</text></g><g class="AxisGridLines" stroke="#ddd" stroke-dasharray="3,2"><path d="M82.37 535.3h567.11M82.37 437.2h567.11M82.37 339.2h567.11M82.37 241.1h567.11M82.37 143.1h567.11"/></g></g><g clip-path="url(#a)"><g class="HeightedLegend clickable"><g class="legendMark"><text font-size="13.5" x="654.5" y="96.1" fill="#f6a324"><tspan x="654.48" y="96.15">Female (2014 projection)</tspan></text></g><g class="legendMark"><text font-size="13.5" x="654.5" y="121.6" fill="#34983f"><tspan x="654.48" y="121.65">Female (2016 projection)</tspan></text></g><g class="legendMark"><text font-size="13.5" x="654.5" y="143.3" fill="#ca2628"><tspan x="654.48" y="143.25">Male (2014 projection)</tspan></text></g><g class="legendMark"><text font-size="13.5" x="654.5" y="166.8" fill="#3360a9"><tspan x="654.48" y="166.75">Male (2016 projection)</tspan></text></g></g><g class="Lines"><g class="key-United-Kingdom_0"><path stroke="#f6a324" stroke-linecap="round" d="M82 400l6-2 5-4 5-8 5 4 6-6 5-6 5-1h5l6-8 5-2 5-8 5 4 6-10 5 2 5-4 5-2 6-6h5l5-8 5-4 6-2h5l5-9 5-4 6-6 5-2 5-2 5-10 6-4 5-6h5l5-2 6-4 5 2 5-11 5-2 6-4 5-4 5-4 5-4 6-4 5-2 5-4 5-4 6-2 5-4 5-2 5-4 6-1 5-4 5-2 5-2 6-4 5-2 5-2 5-2 6-2 5-4 5-2 5-2 6-2 5-2 5-2 5-2 6-4 5-2 5-2 5-2 6-2 5-2 5-1 5-4 6-2 5-2 5-2 5-2 6-2 5-2 5-4 5-2 6-2 5-2 5-2 6-2 5-2 5-2 5-4 6-2 5-2 5-2 5-2 6-2 5-2 5-1 5-4 6-2 5-2 5-2 5-2 6-2 5-2 5-2 5-4 6-2 5-2 5-2 5-2 6-2" fill="none" stroke-width="1.5"/><g fill="#f6a324"><circle cx="82" cy="400" r="2"/><circle cx="88" cy="398" r="2"/><circle cx="93" cy="394" r="2"/><circle cx="98" cy="386" r="2"/><circle cx="103" cy="390" r="2"/><circle cx="109" cy="384" r="2"/><circle cx="114" cy="378" r="2"/><circle cx="119" cy="377" r="2"/><circle cx="124" cy="377" r="2"/><circle cx="130" cy="369" r="2"/><circle cx="135" cy="367" r="2"/><circle cx="140" cy="359" r="2"/><circle cx="145" cy="363" r="2"/><circle cx="151" cy="353" r="2"/><circle cx="156" cy="355" r="2"/><circle cx="161" cy="351" r="2"/><circle cx="166" cy="349" r="2"/><circle cx="172" cy="343" r="2"/><circle cx="177" cy="343" r="2"/><circle cx="182" cy="335" r="2"/><circle cx="187" cy="331" r="2"/><circle cx="193" cy="329" r="2"/><circle cx="198" cy="329" r="2"/><circle cx="203" cy="320" r="2"/><circle cx="208" cy="316" r="2"/><circle cx="214" cy="310" r="2"/><circle cx="219" cy="308" r="2"/><circle cx="224" cy="306" r="2"/><circle cx="229" cy="296" r="2"/><circle cx="235" cy="292" r="2"/><circle cx="240" cy="286" r="2"/><circle cx="245" cy="286" r="2"/><circle cx="250" cy="284" r="2"/><circle cx="256" cy="280" r="2"/><circle cx="261" cy="282" r="2"/><circle cx="266" cy="271" r="2"/><circle cx="271" cy="269" r="2"/><circle cx="277" cy="265" r="2"/><circle cx="282" cy="261" r="2"/><circle cx="287" cy="257" r="2"/><circle cx="292" cy="253" r="2"/><circle cx="298" cy="249" r="2"/><circle cx="303" cy="247" r="2"/><circle cx="308" cy="243" r="2"/><circle cx="313" cy="239" r="2"/><circle cx="319" cy="237" r="2"/><circle cx="324" cy="233" r="2"/><circle cx="329" cy="231" r="2"/><circle cx="334" cy="227" r="2"/><circle cx="340" cy="226" r="2"/><circle cx="345" cy="222" r="2"/><circle cx="350" cy="220" r="2"/><circle cx="355" cy="218" r="2"/><circle cx="361" cy="214" r="2"/><circle cx="366" cy="212" r="2"/><circle cx="371" cy="210" r="2"/><circle cx="376" cy="208" r="2"/><circle cx="382" cy="206" r="2"/><circle cx="387" cy="202" r="2"/><circle cx="392" cy="200" r="2"/><circle cx="397" cy="198" r="2"/><circle cx="403" cy="196" r="2"/><circle cx="408" cy="194" r="2"/><circle cx="413" cy="192" r="2"/><circle cx="418" cy="190" r="2"/><circle cx="424" cy="186" r="2"/><circle cx="429" cy="184" r="2"/><circle cx="434" cy="182" r="2"/><circle cx="439" cy="180" r="2"/><circle cx="445" cy="178" r="2"/><circle cx="450" cy="176" r="2"/><circle cx="455" cy="175" r="2"/><circle cx="460" cy="171" r="2"/><circle cx="466" cy="169" r="2"/><circle cx="471" cy="167" r="2"/><circle cx="476" cy="165" r="2"/><circle cx="481" cy="163" r="2"/><circle cx="487" cy="161" r="2"/><circle cx="492" cy="159" r="2"/><circle cx="497" cy="155" r="2"/><circle cx="502" cy="153" r="2"/><circle cx="508" cy="151" r="2"/><circle cx="513" cy="149" r="2"/><circle cx="518" cy="147" r="2"/><circle cx="524" cy="145" r="2"/><circle cx="529" cy="143" r="2"/><circle cx="534" cy="141" r="2"/><circle cx="539" cy="137" r="2"/><circle cx="545" cy="135" r="2"/><circle cx="550" cy="133" r="2"/><circle cx="555" cy="131" r="2"/><circle cx="560" cy="129" r="2"/><circle cx="566" cy="127" r="2"/><circle cx="571" cy="125" r="2"/><circle cx="576" cy="124" r="2"/><circle cx="581" cy="120" r="2"/><circle cx="587" cy="118" r="2"/><circle cx="592" cy="116" r="2"/><circle cx="597" cy="114" r="2"/><circle cx="602" cy="112" r="2"/><circle cx="608" cy="110" r="2"/><circle cx="613" cy="108" r="2"/><circle cx="618" cy="106" r="2"/><circle cx="623" cy="102" r="2"/><circle cx="629" cy="100" r="2"/><circle cx="634" cy="98" r="2"/><circle cx="639" cy="96" r="2"/><circle cx="644" cy="94" r="2"/><circle cx="650" cy="92" r="2"/></g></g><g class="key-United-Kingdom_1"><path stroke="#34983f" stroke-linecap="round" d="M82 400l6-2 5-4 5-8 5 4 6-6 5-6 5-1h5l6-8 5-2 5-8 5 4 6-10 5 2 5-4 5-2 6-6h5l5-8 5-4 6-2h5l5-9 5-4 6-6 5-2 5-2 5-10 6-4 5-6h5l5-2 6-4 5 6 5-4 5-2 6-5 5-4 5-2 5-2 6-4 5-2 5-2 5-4 6-2 5-2 5-4 5-2 6-2 5-2 5-4 5-2 6-2 5-2 5-2 5-2 6-3 5-2 5-2 5-2 6-2 5-2 5-2 5-2 6-2 5-2 5-2 5-4 6-2 5-2 5-2 5-2 6-2 5-2 5-2 5-2 6-2 5-2 5-2 5-2 6-1 5-4 5-2 6-2 5-2 5-2 5-2 6-2 5-2 5-2 5-2 6-2 5-2 5-2 5-2 6-2 5-2 5-2 5-2 6-4 5-2 5-2 5-2 6-2 5-1 5-2 5-2 6-2" fill="none" stroke-width="1.5"/><g fill="#34983f"><circle cx="82" cy="400" r="2"/><circle cx="88" cy="398" r="2"/><circle cx="93" cy="394" r="2"/><circle cx="98" cy="386" r="2"/><circle cx="103" cy="390" r="2"/><circle cx="109" cy="384" r="2"/><circle cx="114" cy="378" r="2"/><circle cx="119" cy="377" r="2"/><circle cx="124" cy="377" r="2"/><circle cx="130" cy="369" r="2"/><circle cx="135" cy="367" r="2"/><circle cx="140" cy="359" r="2"/><circle cx="145" cy="363" r="2"/><circle cx="151" cy="353" r="2"/><circle cx="156" cy="355" r="2"/><circle cx="161" cy="351" r="2"/><circle cx="166" cy="349" r="2"/><circle cx="172" cy="343" r="2"/><circle cx="177" cy="343" r="2"/><circle cx="182" cy="335" r="2"/><circle cx="187" cy="331" r="2"/><circle cx="193" cy="329" r="2"/><circle cx="198" cy="329" r="2"/><circle cx="203" cy="320" r="2"/><circle cx="208" cy="316" r="2"/><circle cx="214" cy="310" r="2"/><circle cx="219" cy="308" r="2"/><circle cx="224" cy="306" r="2"/><circle cx="229" cy="296" r="2"/><circle cx="235" cy="292" r="2"/><circle cx="240" cy="286" r="2"/><circle cx="245" cy="286" r="2"/><circle cx="250" cy="284" r="2"/><circle cx="256" cy="280" r="2"/><circle cx="261" cy="286" r="2"/><circle cx="266" cy="282" r="2"/><circle cx="271" cy="280" r="2"/><circle cx="277" cy="275" r="2"/><circle cx="282" cy="271" r="2"/><circle cx="287" cy="269" r="2"/><circle cx="292" cy="267" r="2"/><circle cx="298" cy="263" r="2"/><circle cx="303" cy="261" r="2"/><circle cx="308" cy="259" r="2"/><circle cx="313" cy="255" r="2"/><circle cx="319" cy="253" r="2"/><circle cx="324" cy="251" r="2"/><circle cx="329" cy="247" r="2"/><circle cx="334" cy="245" r="2"/><circle cx="340" cy="243" r="2"/><circle cx="345" cy="241" r="2"/><circle cx="350" cy="237" r="2"/><circle cx="355" cy="235" r="2"/><circle cx="361" cy="233" r="2"/><circle cx="366" cy="231" r="2"/><circle cx="371" cy="229" r="2"/><circle cx="376" cy="227" r="2"/><circle cx="382" cy="224" r="2"/><circle cx="387" cy="222" r="2"/><circle cx="392" cy="220" r="2"/><circle cx="397" cy="218" r="2"/><circle cx="403" cy="216" r="2"/><circle cx="408" cy="214" r="2"/><circle cx="413" cy="212" r="2"/><circle cx="418" cy="210" r="2"/><circle cx="424" cy="208" r="2"/><circle cx="429" cy="206" r="2"/><circle cx="434" cy="204" r="2"/><circle cx="439" cy="200" r="2"/><circle cx="445" cy="198" r="2"/><circle cx="450" cy="196" r="2"/><circle cx="455" cy="194" r="2"/><circle cx="460" cy="192" r="2"/><circle cx="466" cy="190" r="2"/><circle cx="471" cy="188" r="2"/><circle cx="476" cy="186" r="2"/><circle cx="481" cy="184" r="2"/><circle cx="487" cy="182" r="2"/><circle cx="492" cy="180" r="2"/><circle cx="497" cy="178" r="2"/><circle cx="502" cy="176" r="2"/><circle cx="508" cy="175" r="2"/><circle cx="513" cy="171" r="2"/><circle cx="518" cy="169" r="2"/><circle cx="524" cy="167" r="2"/><circle cx="529" cy="165" r="2"/><circle cx="534" cy="163" r="2"/><circle cx="539" cy="161" r="2"/><circle cx="545" cy="159" r="2"/><circle cx="550" cy="157" r="2"/><circle cx="555" cy="155" r="2"/><circle cx="560" cy="153" r="2"/><circle cx="566" cy="151" r="2"/><circle cx="571" cy="149" r="2"/><circle cx="576" cy="147" r="2"/><circle cx="581" cy="145" r="2"/><circle cx="587" cy="143" r="2"/><circle cx="592" cy="141" r="2"/><circle cx="597" cy="139" r="2"/><circle cx="602" cy="137" r="2"/><circle cx="608" cy="133" r="2"/><circle cx="613" cy="131" r="2"/><circle cx="618" cy="129" r="2"/><circle cx="623" cy="127" r="2"/><circle cx="629" cy="125" r="2"/><circle cx="634" cy="124" r="2"/><circle cx="639" cy="122" r="2"/><circle cx="644" cy="120" r="2"/><circle cx="650" cy="118" r="2"/></g></g><g class="key-United-Kingdom_2"><path stroke="#ca2628" stroke-linecap="round" d="M82 518l6-4 5-4 5-8h5l6-4 5-8 5-2 5-4 6-6 5-3 5-8h5l6-12 5 2 5-4 5-6 6-4 5-4 5-10 5-5 6-2 5-6 5-10 5-6 6-6 5-4 5-4 5-9 6-6 5-8 5-4h5l6-6h5l5-12 5-6 6-4 5-5 5-4 5-4 6-4 5-6 5-4 5-4 6-2 5-4 5-4 5-4 6-4 5-2 5-4 5-1 6-4 5-2 5-4 5-2 6-2 5-2 5-4 5-2 6-2 5-2 5-4 5-2 6-2 5-2 5-4 5-2 6-2 5-2 5-2 5-3 6-2 5-2 5-2 5-4 6-2 5-2 5-2 5-2 6-4 5-2 5-2 6-2 5-4 5-2 5-2 6-2 5-2 5-4 5-2 6-2 5-1 5-2 5-4 6-2 5-2 5-2 5-2 6-4 5-2 5-2 5-2 6-2 5-4 5-2 5-2 6-2" fill="none" stroke-width="1.5"/><g fill="#ca2628"><circle cx="82" cy="518" r="2"/><circle cx="88" cy="514" r="2"/><circle cx="93" cy="510" r="2"/><circle cx="98" cy="502" r="2"/><circle cx="103" cy="502" r="2"/><circle cx="109" cy="498" r="2"/><circle cx="114" cy="490" r="2"/><circle cx="119" cy="488" r="2"/><circle cx="124" cy="484" r="2"/><circle cx="130" cy="478" r="2"/><circle cx="135" cy="475" r="2"/><circle cx="140" cy="467" r="2"/><circle cx="145" cy="467" r="2"/><circle cx="151" cy="455" r="2"/><circle cx="156" cy="457" r="2"/><circle cx="161" cy="453" r="2"/><circle cx="166" cy="447" r="2"/><circle cx="172" cy="443" r="2"/><circle cx="177" cy="439" r="2"/><circle cx="182" cy="429" r="2"/><circle cx="187" cy="424" r="2"/><circle cx="193" cy="422" r="2"/><circle cx="198" cy="416" r="2"/><circle cx="203" cy="406" r="2"/><circle cx="208" cy="400" r="2"/><circle cx="214" cy="394" r="2"/><circle cx="219" cy="390" r="2"/><circle cx="224" cy="386" r="2"/><circle cx="229" cy="377" r="2"/><circle cx="235" cy="371" r="2"/><circle cx="240" cy="363" r="2"/><circle cx="245" cy="359" r="2"/><circle cx="250" cy="359" r="2"/><circle cx="256" cy="353" r="2"/><circle cx="261" cy="353" r="2"/><circle cx="266" cy="341" r="2"/><circle cx="271" cy="335" r="2"/><circle cx="277" cy="331" r="2"/><circle cx="282" cy="326" r="2"/><circle cx="287" cy="322" r="2"/><circle cx="292" cy="318" r="2"/><circle cx="298" cy="314" r="2"/><circle cx="303" cy="308" r="2"/><circle cx="308" cy="304" r="2"/><circle cx="313" cy="300" r="2"/><circle cx="319" cy="298" r="2"/><circle cx="324" cy="294" r="2"/><circle cx="329" cy="290" r="2"/><circle cx="334" cy="286" r="2"/><circle cx="340" cy="282" r="2"/><circle cx="345" cy="280" r="2"/><circle cx="350" cy="276" r="2"/><circle cx="355" cy="275" r="2"/><circle cx="361" cy="271" r="2"/><circle cx="366" cy="269" r="2"/><circle cx="371" cy="265" r="2"/><circle cx="376" cy="263" r="2"/><circle cx="382" cy="261" r="2"/><circle cx="387" cy="259" r="2"/><circle cx="392" cy="255" r="2"/><circle cx="397" cy="253" r="2"/><circle cx="403" cy="251" r="2"/><circle cx="408" cy="249" r="2"/><circle cx="413" cy="245" r="2"/><circle cx="418" cy="243" r="2"/><circle cx="424" cy="241" r="2"/><circle cx="429" cy="239" r="2"/><circle cx="434" cy="235" r="2"/><circle cx="439" cy="233" r="2"/><circle cx="445" cy="231" r="2"/><circle cx="450" cy="229" r="2"/><circle cx="455" cy="227" r="2"/><circle cx="460" cy="224" r="2"/><circle cx="466" cy="222" r="2"/><circle cx="471" cy="220" r="2"/><circle cx="476" cy="218" r="2"/><circle cx="481" cy="214" r="2"/><circle cx="487" cy="212" r="2"/><circle cx="492" cy="210" r="2"/><circle cx="497" cy="208" r="2"/><circle cx="502" cy="206" r="2"/><circle cx="508" cy="202" r="2"/><circle cx="513" cy="200" r="2"/><circle cx="518" cy="198" r="2"/><circle cx="524" cy="196" r="2"/><circle cx="529" cy="192" r="2"/><circle cx="534" cy="190" r="2"/><circle cx="539" cy="188" r="2"/><circle cx="545" cy="186" r="2"/><circle cx="550" cy="184" r="2"/><circle cx="555" cy="180" r="2"/><circle cx="560" cy="178" r="2"/><circle cx="566" cy="176" r="2"/><circle cx="571" cy="175" r="2"/><circle cx="576" cy="173" r="2"/><circle cx="581" cy="169" r="2"/><circle cx="587" cy="167" r="2"/><circle cx="592" cy="165" r="2"/><circle cx="597" cy="163" r="2"/><circle cx="602" cy="161" r="2"/><circle cx="608" cy="157" r="2"/><circle cx="613" cy="155" r="2"/><circle cx="618" cy="153" r="2"/><circle cx="623" cy="151" r="2"/><circle cx="629" cy="149" r="2"/><circle cx="634" cy="145" r="2"/><circle cx="639" cy="143" r="2"/><circle cx="644" cy="141" r="2"/><circle cx="650" cy="139" r="2"/></g></g><g class="key-United-Kingdom_3"><path stroke="#3360a9" stroke-linecap="round" d="M82 518l6-4 5-4 5-8h5l6-4 5-8 5-2 5-4 6-6 5-3 5-8h5l6-12 5 2 5-4 5-6 6-4 5-4 5-10 5-5 6-2 5-6 5-10 5-6 6-6 5-4 5-4 5-9 6-6 5-8 5-4h5l6-6 5 4 5-2 5-4 6-8 5-4 5-4 5-4 6-4 5-3 5-4 5-2 6-4 5-4 5-2 5-4 6-2 5-4 5-2 5-4 6-2 5-2 5-4 5-2 6-2 5-4 5-1 5-2 6-2 5-2 5-4 5-2 6-2 5-2 5-2 5-4 6-2 5-2 5-2 5-2 6-2 5-4 5-2 5-2 6-2 5-2 5-4 5-1 6-2 5-2 5-2 6-2 5-2 5-4 5-2 6-2 5-2 5-2 5-2 6-4 5-2 5-2 5-2 6-2 5-2 5-4 5-2 6-2 5-2 5-2 5-1 6-4 5-2 5-2 5-2 6-2" fill="none" stroke-width="1.5"/><g fill="#3360a9"><circle cx="82" cy="518" r="2"/><circle cx="88" cy="514" r="2"/><circle cx="93" cy="510" r="2"/><circle cx="98" cy="502" r="2"/><circle cx="103" cy="502" r="2"/><circle cx="109" cy="498" r="2"/><circle cx="114" cy="490" r="2"/><circle cx="119" cy="488" r="2"/><circle cx="124" cy="484" r="2"/><circle cx="130" cy="478" r="2"/><circle cx="135" cy="475" r="2"/><circle cx="140" cy="467" r="2"/><circle cx="145" cy="467" r="2"/><circle cx="151" cy="455" r="2"/><circle cx="156" cy="457" r="2"/><circle cx="161" cy="453" r="2"/><circle cx="166" cy="447" r="2"/><circle cx="172" cy="443" r="2"/><circle cx="177" cy="439" r="2"/><circle cx="182" cy="429" r="2"/><circle cx="187" cy="424" r="2"/><circle cx="193" cy="422" r="2"/><circle cx="198" cy="416" r="2"/><circle cx="203" cy="406" r="2"/><circle cx="208" cy="400" r="2"/><circle cx="214" cy="394" r="2"/><circle cx="219" cy="390" r="2"/><circle cx="224" cy="386" r="2"/><circle cx="229" cy="377" r="2"/><circle cx="235" cy="371" r="2"/><circle cx="240" cy="363" r="2"/><circle cx="245" cy="359" r="2"/><circle cx="250" cy="359" r="2"/><circle cx="256" cy="353" r="2"/><circle cx="261" cy="357" r="2"/><circle cx="266" cy="355" r="2"/><circle cx="271" cy="351" r="2"/><circle cx="277" cy="343" r="2"/><circle cx="282" cy="339" r="2"/><circle cx="287" cy="335" r="2"/><circle cx="292" cy="331" r="2"/><circle cx="298" cy="327" r="2"/><circle cx="303" cy="324" r="2"/><circle cx="308" cy="320" r="2"/><circle cx="313" cy="318" r="2"/><circle cx="319" cy="314" r="2"/><circle cx="324" cy="310" r="2"/><circle cx="329" cy="308" r="2"/><circle cx="334" cy="304" r="2"/><circle cx="340" cy="302" r="2"/><circle cx="345" cy="298" r="2"/><circle cx="350" cy="296" r="2"/><circle cx="355" cy="292" r="2"/><circle cx="361" cy="290" r="2"/><circle cx="366" cy="288" r="2"/><circle cx="371" cy="284" r="2"/><circle cx="376" cy="282" r="2"/><circle cx="382" cy="280" r="2"/><circle cx="387" cy="276" r="2"/><circle cx="392" cy="275" r="2"/><circle cx="397" cy="273" r="2"/><circle cx="403" cy="271" r="2"/><circle cx="408" cy="269" r="2"/><circle cx="413" cy="265" r="2"/><circle cx="418" cy="263" r="2"/><circle cx="424" cy="261" r="2"/><circle cx="429" cy="259" r="2"/><circle cx="434" cy="257" r="2"/><circle cx="439" cy="253" r="2"/><circle cx="445" cy="251" r="2"/><circle cx="450" cy="249" r="2"/><circle cx="455" cy="247" r="2"/><circle cx="460" cy="245" r="2"/><circle cx="466" cy="243" r="2"/><circle cx="471" cy="239" r="2"/><circle cx="476" cy="237" r="2"/><circle cx="481" cy="235" r="2"/><circle cx="487" cy="233" r="2"/><circle cx="492" cy="231" r="2"/><circle cx="497" cy="227" r="2"/><circle cx="502" cy="226" r="2"/><circle cx="508" cy="224" r="2"/><circle cx="513" cy="222" r="2"/><circle cx="518" cy="220" r="2"/><circle cx="524" cy="218" r="2"/><circle cx="529" cy="216" r="2"/><circle cx="534" cy="212" r="2"/><circle cx="539" cy="210" r="2"/><circle cx="545" cy="208" r="2"/><circle cx="550" cy="206" r="2"/><circle cx="555" cy="204" r="2"/><circle cx="560" cy="202" r="2"/><circle cx="566" cy="198" r="2"/><circle cx="571" cy="196" r="2"/><circle cx="576" cy="194" r="2"/><circle cx="581" cy="192" r="2"/><circle cx="587" cy="190" r="2"/><circle cx="592" cy="188" r="2"/><circle cx="597" cy="184" r="2"/><circle cx="602" cy="182" r="2"/><circle cx="608" cy="180" r="2"/><circle cx="613" cy="178" r="2"/><circle cx="618" cy="176" r="2"/><circle cx="623" cy="175" r="2"/><circle cx="629" cy="171" r="2"/><circle cx="634" cy="169" r="2"/><circle cx="639" cy="167" r="2"/><circle cx="644" cy="165" r="2"/><circle cx="650" cy="163" r="2"/></g></g></g></g></g><g class="SourcesFooter" fill="#777"><g class="clickable" fill="#777"><text font-size="12.6" x="15" y="581.6"><tspan x="15" y="581.58">Source: UK Office for National Statistics (ONS)</tspan></text></g><text font-size="12.6" x="775.4" y="581.6"><tspan x="775.4" y="581.58"><a class="cclogo" href="http://creativecommons.org/licenses/by-sa/4.0/deed.en_US" target="_blank" fill="#777">CC BY-SA</a></tspan></text></g></g></svg>