<svg xmlns="http://www.w3.org/2000/svg" version="1.1" style="background-color:#fff;-webkit-font-smoothing:antialiased" width="850" height="600" font-family="'Helvetica Neue',Helvetica,Arial,sans-serif" font-size="18" text-rendering="optimizeLegibility"><g class="ChartTab"><g class="HeaderView"><g opacity=".8" transform="matrix(.27 0 0 .27 778 15)"><a xmlns:xlink="http://www.w3.org/1999/xlink" xlink:href="https://ourworldindata.org" target="_blank"><g><path fill="#1B2543" d="M0 0h211.2v130.1H0z"/><path fill="#E63912" d="M0 112.2h211.2v17.9H0z"/><g><path fill="none" d="M1.2 12.3h210.2v99.2H1.2z"/><path fill="#FFF" d="M37.8 32.2c0 12.7-7.7 19.4-17.1 19.4-9.7 0-16.6-7.5-16.6-18.7 0-11.7 7.3-19.3 17.1-19.3 10.1.1 16.6 7.7 16.6 18.6zm-28.6.6c0 7.9 4.3 14.9 11.8 14.9 7.5 0 11.8-6.9 11.8-15.3 0-7.3-3.8-14.9-11.8-14.9-7.9 0-11.8 7.3-11.8 15.3zM62.7 43.8c0 2.7.1 5.1.2 7.2h-4.3l-.3-4.3h-.1c-1.3 2.1-4 4.9-8.8 4.9-4.2 0-9.1-2.3-9.1-11.6V24.6h4.8v14.6c0 5 1.5 8.4 5.9 8.4 3.2 0 5.5-2.2 6.3-4.4.3-.7.4-1.6.4-2.5V24.6h4.8v19.2zM67.3 32.8c0-3.1-.1-5.8-.2-8.2h4.2l.2 5.2h.2c1.2-3.5 4.1-5.8 7.3-5.8.5 0 .9.1 1.4.2v4.5c-.5-.1-1-.2-1.6-.2-3.4 0-5.8 2.6-6.5 6.2-.1.7-.2 1.4-.2 2.2V51h-4.8V32.8zM95.4 51L86 14.2h5l4.4 18.6c1.1 4.6 2.1 9.2 2.7 12.7h.1c.6-3.7 1.8-8 3-12.8l4.9-18.5h5l4.5 18.7c1 4.4 2 8.7 2.6 12.6h.1c.8-4 1.8-8.1 3-12.7l4.9-18.5h4.9L120.6 51h-5L111 31.9c-1.1-4.7-1.9-8.3-2.4-12h-.1c-.7 3.7-1.5 7.3-2.8 12L100.4 51h-5zM154.9 37.6c0 9.8-6.8 14-13.2 14-7.2 0-12.7-5.2-12.7-13.6 0-8.8 5.8-14 13.1-14 7.7 0 12.8 5.5 12.8 13.6zm-21 .3c0 5.8 3.3 10.1 8 10.1 4.6 0 8-4.3 8-10.3 0-4.5-2.2-10.1-7.9-10.1s-8.1 5.2-8.1 10.3zM158.2 32.8c0-3.1-.1-5.8-.2-8.2h4.2l.2 5.2h.2c1.2-3.5 4.1-5.8 7.3-5.8.5 0 .9.1 1.4.2v4.5c-.5-.1-1-.2-1.6-.2-3.4 0-5.8 2.6-6.5 6.2-.1.7-.2 1.4-.2 2.2V51h-4.8V32.8zM173.5 12.3h4.8V51h-4.8V12.3zM206.5 12.3v31.9c0 2.3.1 5 .2 6.8h-4.3l-.2-4.6h-.2c-1.5 2.9-4.7 5.2-9 5.2-6.4 0-11.3-5.4-11.3-13.4-.1-8.8 5.4-14.2 11.9-14.2 4 0 6.8 1.9 8 4h.1V12.3h4.8zm-4.8 23.1c0-.6-.1-1.4-.2-2a7 7 0 00-6.9-5.6c-5 0-7.9 4.4-7.9 10.2 0 5.3 2.6 9.8 7.8 9.8 3.2 0 6.2-2.1 7.1-5.7.2-.7.2-1.3.2-2.1v-4.6zM42.8 64c.1 1.6-1.1 2.9-3.1 2.9-1.7 0-2.9-1.3-2.9-2.9 0-1.7 1.3-3 3-3 1.9 0 3 1.3 3 3zm-5.4 33.8V71.4h4.8v26.4h-4.8zM47.5 78.6c0-2.7-.1-5-.2-7.1h4.3l.3 4.4h.1c1.3-2.5 4.4-5 8.8-5 3.7 0 9.4 2.2 9.4 11.2v15.8h-4.8V82.6c0-4.3-1.6-7.8-6.1-7.8-3.2 0-5.6 2.2-6.5 4.9-.2.6-.3 1.4-.3 2.2v15.9h-4.8V78.6zM84 61.6c2.9-.4 6.3-.8 10.1-.8 6.8 0 11.7 1.6 14.9 4.6 3.3 3 5.2 7.3 5.2 13.2 0 6-1.9 10.9-5.3 14.3-3.4 3.4-9.1 5.3-16.3 5.3-3.4 0-6.2-.2-8.6-.4V61.6zm4.8 32.5c1.2.2 3 .3 4.8.3 10.2 0 15.7-5.7 15.7-15.6.1-8.7-4.9-14.2-14.9-14.2-2.5 0-4.3.2-5.6.5v29zM132.1 97.8l-.4-3.3h-.2a9.79 9.79 0 01-8.1 3.9c-5.4 0-8.1-3.8-8.1-7.6 0-6.4 5.7-9.9 15.9-9.8v-.5c0-2.2-.6-6.1-6-6.1-2.5 0-5 .8-6.9 2l-1.1-3.2c2.2-1.4 5.4-2.3 8.7-2.3 8.1 0 10.1 5.5 10.1 10.8v9.9c0 2.3.1 4.5.4 6.3h-4.3zm-.7-13.4c-5.3-.1-11.2.8-11.2 5.9 0 3.1 2.1 4.6 4.5 4.6 3.4 0 5.6-2.2 6.4-4.4.2-.5.3-1 .3-1.5v-4.6zM146.6 63.9v7.6h6.9v3.7h-6.9v14.2c0 3.3.9 5.1 3.6 5.1 1.3 0 2.2-.2 2.8-.3l.2 3.6c-.9.4-2.4.7-4.3.7-2.2 0-4-.7-5.2-2-1.4-1.4-1.9-3.8-1.9-6.9V75.1h-4.1v-3.7h4.1v-6.3l4.8-1.2zM171.4 97.8l-.4-3.3h-.2a9.79 9.79 0 01-8.1 3.9c-5.4 0-8.1-3.8-8.1-7.6 0-6.4 5.7-9.9 15.9-9.8v-.5c0-2.2-.6-6.1-6-6.1-2.5 0-5 .8-6.9 2l-1.1-3.2c2.2-1.4 5.4-2.3 8.7-2.3 8.1 0 10.1 5.5 10.1 10.8v9.9c0 2.3.1 4.5.4 6.3h-4.3zm-.7-13.4c-5.3-.1-11.2.8-11.2 5.9 0 3.1 2.1 4.6 4.5 4.6 3.4 0 5.6-2.2 6.4-4.4.2-.5.3-1 .3-1.5v-4.6z"/></g></g></a></g><a href="https://ourworldindata.org/grapher/exports-from-western-europe-to-other-regions" target="_blank"><text font-size="25.2" x="15" y="35.2" fill="#555"><tspan x="15" y="35.16">Western European exports by region of destination (%GDP)</tspan></text></a><text font-size="14.4" x="15" y="53.7" fill="#666"><tspan x="15" y="53.72">Figures correspond to exports-to-GDP ratios. For example, the series labeled &quot;Western Europe - Western Europe&quot;</tspan><tspan x="15" y="69.56">corresponds to the sum of exports between all Western European countries, divided by the GDP of Western Europe;</tspan><tspan x="15" y="85.4">and the series labeled &quot;Western Europe - Asia&quot; corresponds to the sum of exports going from Western Europe to</tspan><tspan x="15" y="101.24">Asia, divided by the GDP of Western Europe. All estimates correspond to merchandise trade estimates from dyadic</tspan><tspan x="15" y="117.08">transactions data.</tspan></text></g><g class="StackedArea"><defs><clipPath id="a"><path d="M52.56 0h820v835.8h-820z"/></clipPath></defs><g class="AxisBoxView"><g class="HorizontalAxis" fill="#666" text-anchor="middle" font-size="16.2"><text x="52.6" y="556.5">1827</text><text x="97.1" y="556.5">1840</text><text x="165.7" y="556.5">1860</text><text x="234.3" y="556.5">1880</text><text x="302.9" y="556.5">1900</text><text x="371.5" y="556.5">1920</text><text x="440.1" y="556.5">1940</text><text x="508.7" y="556.5">1960</text><text x="577.3" y="556.5">1980</text><text x="645.9" y="556.5">2000</text><text x="693.9" y="556.5">2014</text></g><g class="VerticalAxis" fill="#666" dominant-baseline="middle" text-anchor="end" font-size="16.2"><text x="47.56" y="535.3">0%</text><text x="47.56" y="470.6">5%</text><text x="47.56" y="405.8">10%</text><text x="47.56" y="341.1">15%</text><text x="47.56" y="276.3">20%</text><text x="47.56" y="211.6">25%</text><text x="47.56" y="146.9">30%</text></g><g class="AxisGridLines"><path stroke="#ccc" d="M52.56 535.3h641.33"/><path stroke="#ddd" stroke-dasharray="3,2" d="M52.56 470.6h641.33M52.56 405.8h641.33M52.56 341.1h641.33M52.56 276.3h641.33M52.56 211.6h641.33M52.56 146.9h641.33"/></g></g><g clip-path="url(#a)"><g class="HeightedLegend clickable"><g class="legendMark"><g class="indicator" stroke="#666" stroke-width=".5"><path d="M698.89 150.3h12.5M711.39 150.3h0M711.39 150.3h12.5"/></g><text font-size="13.5" x="728.9" y="147.1" fill="#34983f"><tspan x="728.89" y="147.05">Western Europe -</tspan><tspan x="728.89" y="161.9">Oceania</tspan></text></g><g class="legendMark"><g class="indicator" stroke="#666" stroke-width=".5"><path d="M698.89 184.8h12.5M711.39 184.8h0M711.39 184.8h12.5"/></g><text font-size="13.5" x="728.9" y="181.6" fill="#9ecc8a"><tspan x="728.89" y="181.55">Western Europe -</tspan><tspan x="728.89" y="196.4">Asia</tspan></text></g><g class="legendMark"><g class="indicator" stroke="#666" stroke-width=".5"><path d="M698.89 223.7h22.5M721.39 223.7h0M721.39 223.7h2.5"/></g><text font-size="13.5" x="728.9" y="220.4" fill="#ffd53e"><tspan x="728.89" y="220.45">Western Europe -</tspan><tspan x="728.89" y="235.3">Africa</tspan></text></g><g class="legendMark"><g class="indicator" stroke="#666" stroke-width=".5"><path d="M698.89 233.5h17.5M716.39 233.5v20.3M716.39 253.8h7.5"/></g><text font-size="13.5" x="728.9" y="250.5" fill="#ca2628"><tspan x="728.89" y="250.55">Western Europe -</tspan><tspan x="728.89" y="265.4">South America</tspan></text></g><g class="legendMark"><g class="indicator" stroke="#666" stroke-width=".5"><path d="M698.89 254.6h12.5M711.39 254.6v29.3M711.39 283.9h12.5"/></g><text font-size="13.5" x="728.9" y="280.6" fill="#e6332e"><tspan x="728.89" y="280.65">Western Europe -</tspan><tspan x="728.89" y="295.5">North America</tspan></text></g><g class="legendMark"><g class="indicator" stroke="#666" stroke-width=".5"><path d="M698.89 294.3h7.5M706.39 294.3V314M706.39 314h17.5"/></g><text font-size="13.5" x="728.9" y="310.8" fill="#2a939b"><tspan x="728.89" y="310.75">Western Europe -</tspan><tspan x="728.89" y="325.6">Eastern Europe</tspan></text></g><g class="legendMark"><g class="indicator" stroke="#666" stroke-width=".5"><path d="M698.89 425.8h12.5M711.39 425.8h0M711.39 425.8h12.5"/></g><text font-size="13.5" x="728.9" y="422.6" fill="#3360a9"><tspan x="728.89" y="422.55">Western Europe -</tspan><tspan x="728.89" y="437.4">Western Europe</tspan></text></g></g><g class="Areas"><path d="M52.6 519.1l3.4 3.3 3.4.5 3.5 1.1 3.4-3.1 3.4-5.3 3.4-6.7 3.5-15.8 3.4 16.8 3.4-.8 3.5-10.3 3.4 2.1 3.4-3.8 3.4-3.6 3.5 7.4 3.4.5 3.4 3.6 3.5-4.1 3.4 2.3h3.4l3.5 3.1 3.4-3.9 3.4-2.2 3.4-8.8 3.5-.2 3.4-.4 3.4-1.6 3.5-3 3.4-10.7 3.4 5.3 3.4.6 3.5-.8 3.4-11.7 3.4-5.4 3.5-8 3.4-2.8 3.4-3.8 3.5-5.6 3.4-16.3 3.4 8.3 3.4 3 3.5-1.1 3.4-3 3.4-4.7 3.5-30.2 3.4 5.7 3.4 3.7 3.5-4.7 3.4-8.6 3.4-2.5 3.4 5.5 3.5 3.5 3.4-8 3.4-6.4 3.5-1.5 3.4-4.6 3.4-3 3.4 1.6 3.5 4.2 3.4 2.7 3.4-1.1 3.5 16.3 3.4-.8 3.4 2.1 3.5 1.8 3.4 5.6 3.4 2.7 3.4 1.9 3.5-1.5 3.4-1.5 3.4-18.6 3.5 17.4 3.4-1.7 3.4-1.3 3.4 5.3 3.5-3.4 3.4 3.3 3.4.3 3.5-3.9 3.4-4.3 3.4-3 3.5 6.3 3.4 5.4 3.4-8.1 3.4 2.5 3.5-3.7 3.4-2.2 3.4 31.8 3.5-7.5 3.4-2 3.4 9.3 3.5 18.5 3.4-41.8 3.4-7.2 3.4 30 3.5 3.9 3.4-8 3.4-17.3 3.5 4.8 3.4 1.6 3.4 2.9 3.4-.9 3.5-4.3 3.4 4.5 3.4 12.3 3.5 28 3.4 5.7 3.4 5.2 3.5 3.8 3.4 1.7 3.4-9.7 3.4 8.9 3.5 8.5 3.4 13.8 3.4-6 3.5 2.5 3.4-.6 3.4 15.3 3.5 11.6 3.4-28.6 3.4-7.1 3.4-18.1 3.5-9.1 3.4-.6 3.4-13.8 3.5 14.5 3.4 5.3 3.4-2.6 3.4-4 3.5.2 3.4 1.6 3.4 6.3 3.5-4.5 3.4-2 3.4-1.3 3.5-.9 3.4-3 3.4-2 3.4-.2 3.5-2 3.4 1 3.4-3.6 3.5-7.6 3.4-2.7 3.4.5 3.4-2.4 3.5-11 3.4-17.7 3.4 15.3 3.5-8.8 3.4-.3 3.4 3.4 3.5-6.6 3.4-1.7 3.4 4.3 3.4-.4 3.5-3.4 3.4-8.4 3.4-3.6 3.5 11.7 3.4-.7 3.4-.7 3.5-5.9 3.4 3L615 355l3.4 8.8 3.5 18.1 3.4-14.1 3.4-11.6 3.5 2.1 3.4-8.4 3.4-2.5 3.4-10.6 3.5-19.2 3.4 6.7 3.4 8 3.5-2 3.4-5.8 3.4-6.4 3.5-14.8 3.4-1.7 3.4-4.3 3.4 34.8 3.5-15.8 3.4-11.5 3.4 3.4 3.5 5.6 3.4 2.6-.01 218.9H52.56" fill="#3360a9" fill-opacity=".7" class="Western-Europe_0-area"/><path d="M52.6 518.8l3.4 3.4 3.4.5 3.5 1.1 3.4-3.7 3.4-4.8 3.4-6.7 3.5-22.3 3.4 19.2 3.4-.2 3.5-10.5 3.4 5.6 3.4-8.6 3.4-4.8 3.5 13.3 3.4.4 3.4 3.6 3.5-4.3 3.4 2.4 3.4-.3 3.5 3.2 3.4-3.9 3.4-2.6 3.4-10.5 3.5 1.3 3.4-.3 3.4-1.4 3.5-2.9 3.4-13.1 3.4 4.8 3.4 3 3.5-1.1 3.4-10.8 3.4-8.3 3.5-6.5 3.4-2.4 3.4-3.8 3.5-5.5 3.4-17.8 3.4 10.3 3.4 1.9 3.5-1.2 3.4-2.7 3.4-7 3.5-30.1 3.4 5.7 3.4 3.7 3.5-4.3 3.4-8.3 3.4-2.4 3.4 6 3.5 2.4 3.4-8.3 3.4-9.9 3.5-1.7 3.4-4.7 3.4-3.7 3.4 2.4 3.5 4.4 3.4 2.2 3.4-1.7 3.5 16.4 3.4-1.2 3.4 2.4 3.5-1.1 3.4 6 3.4 2 3.4 1.7 3.5-.5 3.4-1.6 3.4-18.8 3.5 17.5 3.4-1.2 3.4-.6 3.4 4.8 3.5-3.7 3.4 3.6 3.4-.5 3.5-3.8 3.4-5.3 3.4-3.4 3.5 6 3.4 5.2 3.4-8.7 3.4 1.9 3.5-4.6 3.4-1.1 3.4 35.3 3.5.6 3.4-1.6 3.4 7.8 3.5 21.4 3.4-45.2 3.4-8.3 3.4 30 3.5 5.6 3.4-13.1 3.4-26.5 3.5 4 3.4 4.7 3.4 1.9 3.4-1.6 3.5-4.4 3.4 7.9 3.4 13.2 3.5 32.1 3.4 7.3 3.4 5.4 3.5 4.2 3.4 1.3 3.4-10.9 3.4 9.3 3.5 12.5 3.4 15.8 3.4-6.1 3.5 1.4 3.4 1 3.4 15.4 3.5 11.9 3.4-31.4 3.4-8.3 3.4-22.1 3.5-8.1 3.4-14.9 3.4-13.6 3.5 14 3.4 5.8 3.4-3.3 3.4-7.3 3.5.5 3.4 1.1 3.4 5.9 3.5-9.5 3.4-1.9 3.4-2.4 3.5-1.6 3.4-2 3.4-2.7 3.4-4.2 3.5-.9 3.4 4 3.4-8.4 3.5-12.9 3.4-5.2 3.4-1.3 3.4-3.1 3.5-14.3 3.4-22.7 3.4 18.8 3.5-13.9 3.4-2.1 3.4 4.2 3.5-9 3.4-.6 3.4 6 3.4.6 3.5-5.6 3.4-10 3.4-4.6 3.5 17.7 3.4 1 3.4 1 3.5-7.7 3.4.9h3.4l3.4 7.7 3.5 14.5 3.4-15.6 3.4-14.7 3.5-.6 3.4-11.1 3.4-4.1 3.4-9.9 3.5-24.1 3.4 6.7 3.4 7.5 3.5-2.5 3.4-8.5 3.4-9.7 3.5-19.3 3.4-4.7 3.4-7.8 3.4 45.1 3.5-19.9 3.4-15.9 3.4 3.1 3.5 6 3.4 3.9v44.2l-3.4-2.6-3.5-5.6-3.4-3.4-3.4 11.5-3.5 15.8-3.4-34.8-3.4 4.3-3.4 1.7-3.5 14.8-3.4 6.4-3.4 5.8-3.5 2-3.4-8-3.4-6.7-3.5 19.2-3.4 10.6-3.4 2.5-3.4 8.4-3.5-2.1-3.4 11.6-3.4 14.1-3.5-18.1-3.4-8.8-3.4 48.8-3.4-3-3.5 5.9-3.4.7-3.4.7-3.5-11.7-3.4 3.6-3.4 8.4-3.5 3.4-3.4.4-3.4-4.3-3.4 1.7-3.5 6.6-3.4-3.4-3.4.3-3.5 8.8-3.4-15.3-3.4 17.7-3.5 11-3.4 2.4-3.4-.5-3.4 2.7-3.5 7.6-3.4 3.6-3.4-1-3.5 2-3.4.2-3.4 2-3.4 3-3.5.9-3.4 1.3-3.4 2-3.5 4.5-3.4-6.3-3.4-1.6-3.5-.2-3.4 4-3.4 2.6-3.4-5.3-3.5-14.5-3.4 13.8-3.4.6-3.5 9.1-3.4 18.1-3.4 7.1-3.4 28.6-3.5-11.6-3.4-15.3-3.4.6-3.5-2.5-3.4 6-3.4-13.8-3.5-8.5-3.4-8.9-3.4 9.7-3.4-1.7-3.5-3.8-3.4-5.2-3.4-5.7-3.5-28-3.4-12.3-3.4-4.5-3.5 4.3-3.4.9-3.4-2.9-3.4-1.6-3.5-4.8-3.4 17.3-3.4 8-3.5-3.9-3.4-30-3.4 7.2-3.4 41.8-3.5-18.5-3.4-9.3-3.4 2-3.5 7.5-3.4-31.8-3.4 2.2-3.5 3.7-3.4-2.5-3.4 8.1-3.4-5.4-3.5-6.3-3.4 3-3.4 4.3-3.5 3.9-3.4-.3-3.4-3.3-3.5 3.4-3.4-5.3-3.4 1.3-3.4 1.7-3.5-17.4-3.4 18.6-3.4 1.5-3.5 1.5-3.4-1.9-3.4-2.7-3.4-5.6-3.5-1.8-3.4-2.1-3.4.8-3.5-16.3-3.4 1.1-3.4-2.7-3.5-4.2-3.4-1.6-3.4 3-3.4 4.6-3.5 1.5-3.4 6.4-3.4 8-3.5-3.5-3.4-5.5-3.4 2.5-3.4 8.6-3.5 4.7-3.4-3.7-3.4-5.7-3.5 30.2-3.4 4.7-3.4 3-3.5 1.1-3.4-3-3.4-8.3-3.4 16.3-3.5 5.6-3.4 3.8-3.4 2.8-3.5 8-3.4 5.4-3.4 11.7-3.5.8-3.4-.6-3.4-5.3-3.4 10.7-3.5 3-3.4 1.6-3.4.4-3.5.2-3.4 8.8-3.4 2.2-3.4 3.9-3.5-3.1h-3.4l-3.4-2.3-3.5 4.1-3.4-3.6-3.4-.5-3.5-7.4-3.4 3.6-3.4 3.8-3.4-2.1-3.5 10.3-3.4.8-3.4-16.8-3.5 15.8-3.4 6.7-3.4 5.3-3.4 3.1-3.5-1.1-3.4-.5-3.4-3.3" fill="#2a939b" fill-opacity=".7" class="Western-Europe_2-area"/><path d="M52.6 501.2l3.4 2.6 3.4 2.3 3.5 2.6 3.4-12 3.4-.3 3.4-8 3.5-24.7 3.4 16.8 3.4-4.4 3.5-1.1 3.4 9.9 3.4-19.3 3.4 3 3.5 11.4 3.4 4.7 3.4 10.3 3.5-13.3 3.4.9 3.4-.2 3.5 5 3.4-7.9 3.4-2.6 3.4-16.7 3.5-1.5 3.4 4.1 3.4-8.1 3.5-3.2 3.4-7.2 3.4 1 3.4 3.4 3.5 5 3.4-16.1 3.4-9.1 3.5 3.4 3.4 4.3 3.4-4.1 3.5-5.9 3.4-17.7 3.4 2.8 3.4 3.4 3.5 3.7 3.4-4.8 3.4-12.4 3.5-31.2 3.4 3 3.4 4.6 3.5.6 3.4-7.7 3.4 1 3.4 5.9 3.5 2.9 3.4-10 3.4-18.7h3.5l3.4-6.9 3.4-3.3 3.4 3.4 3.5 7.9 3.4-.1 3.4-3.6 3.5 16.1 3.4.7 3.4.6 3.5-.8 3.4 7.9h3.4l3.4 9.1 3.5-4.5 3.4-3 3.4-18.9 3.5 25.2 3.4-3 3.4-3.4 3.4 5.6 3.5-6.1 3.4 2 3.4 2 3.5-4.8 3.4-8 3.4-5.8 3.5 9.5 3.4 4.7 3.4-13.5 3.4 4.2 3.5-5.1 3.4-2.1 3.4 36.7 3.5 7.8 3.4.8 3.4 13.8 3.5 27.4 3.4-52.6 3.4-18.4 3.4 34.1 3.5 4.6 3.4-18 3.4-24.8 3.5 3.8 3.4 3.1 3.4 4.6 3.4-1.1 3.5-5.4 3.4 13.6 3.4 17.1 3.5 36.2 3.4 7.4 3.4 7.2 3.5 3.2 3.4.2 3.4-11.8 3.4 12.3 3.5 12.8 3.4 18.8 3.4-4.9 3.5 2.3 3.4.8 3.4 15.8 3.5 10.1 3.4-35.5 3.4-7.9 3.4-27.6 3.5-6.5 3.4-23 3.4-17.6 3.5 16.8 3.4 4.2 3.4.1 3.4-8.2 3.5-1.5 3.4 1.6 3.4 4.1 3.5-14.8 3.4 3.6 3.4.2 3.5-.8 3.4-1 3.4-2.8 3.4-5.5 3.5-2.7 3.4 4.8 3.4-11.1 3.5-12.1 3.4-4.2 3.4-1.5 3.4-3.3 3.5-13.7 3.4-25.4 3.4 23.9 3.5-14.5 3.4-2.8 3.4 3.2 3.5-8.1 3.4.1 3.4.9 3.4.6 3.5-6.5 3.4-19.3 3.4-6.9 3.5 25.3 3.4 5.5 3.4 1.3 3.5-7.8 3.4 4.2 3.4 1.4 3.4 9 3.5 11.7 3.4-17.4 3.4-13.9 3.5-1.8 3.4-15 3.4-6.5 3.4-13.3 3.5-30.9 3.4 7.3 3.4 10.5 3.5 1.7 3.4-7.7 3.4-11.8 3.5-19.9 3.4-2.1 3.4-7.6 3.4 50.3 3.5-23.6 3.4-16.8 3.4.8 3.5 6.7 3.4 3v35.2l-3.4-3.9-3.5-6-3.4-3.1-3.4 15.9-3.5 19.9-3.4-45.1-3.4 7.8-3.4 4.7-3.5 19.3-3.4 9.7-3.4 8.5-3.5 2.5-3.4-7.5-3.4-6.7-3.5 24.1-3.4 9.9-3.4 4.1-3.4 11.1-3.5.6-3.4 14.7-3.4 15.6-3.5-14.5-3.4-7.7h-3.4l-3.4-.9-3.5 7.7-3.4-1-3.4-1-3.5-17.7-3.4 4.6-3.4 10-3.5 5.6-3.4-.6-3.4-6-3.4.6-3.5 9-3.4-4.2-3.4 2.1-3.5 13.9-3.4-18.8-3.4 22.7-3.5 14.3-3.4 3.1-3.4 1.3-3.4 5.2-3.5 12.9-3.4 8.4-3.4-4-3.5.9-3.4 4.2-3.4 2.7-3.4 2-3.5 1.6-3.4 2.4-3.4 1.9-3.5 9.5-3.4-5.9-3.4-1.1-3.5-.5-3.4 7.3-3.4 3.3-3.4-5.8-3.5-14-3.4 13.6-3.4 14.9-3.5 8.1-3.4 22.1-3.4 8.3-3.4 31.4-3.5-11.9-3.4-15.4-3.4-1-3.5-1.4-3.4 6.1-3.4-15.8-3.5-12.5-3.4-9.3-3.4 10.9-3.4-1.3-3.5-4.2-3.4-5.4-3.4-7.3-3.5-32.1-3.4-13.2-3.4-7.9-3.5 4.4-3.4 1.6-3.4-1.9-3.4-4.7-3.5-4-3.4 26.5-3.4 13.1-3.5-5.6-3.4-30-3.4 8.3-3.4 45.2-3.5-21.4-3.4-7.8-3.4 1.6-3.5-.6-3.4-35.3-3.4 1.1-3.5 4.6-3.4-1.9-3.4 8.7-3.4-5.2-3.5-6-3.4 3.4-3.4 5.3-3.5 3.8-3.4.5-3.4-3.6-3.5 3.7-3.4-4.8-3.4.6-3.4 1.2-3.5-17.5-3.4 18.8-3.4 1.6-3.5.5-3.4-1.7-3.4-2-3.4-6-3.5 1.1-3.4-2.4-3.4 1.2-3.5-16.4-3.4 1.7-3.4-2.2-3.5-4.4-3.4-2.4-3.4 3.7-3.4 4.7-3.5 1.7-3.4 9.9-3.4 8.3-3.5-2.4-3.4-6-3.4 2.4-3.4 8.3-3.5 4.3-3.4-3.7-3.4-5.7-3.5 30.1-3.4 7-3.4 2.7-3.5 1.2-3.4-1.9-3.4-10.3-3.4 17.8-3.5 5.5-3.4 3.8-3.4 2.4-3.5 6.5-3.4 8.3-3.4 10.8-3.5 1.1-3.4-3-3.4-4.8-3.4 13.1-3.5 2.9-3.4 1.4-3.4.3-3.5-1.3-3.4 10.5-3.4 2.6-3.4 3.9-3.5-3.2-3.4.3-3.4-2.4-3.5 4.3-3.4-3.6-3.4-.4-3.5-13.3-3.4 4.8-3.4 8.6-3.4-5.6-3.5 10.5-3.4.2-3.4-19.2-3.5 22.3-3.4 6.7-3.4 4.8-3.4 3.7-3.5-1.1-3.4-.5-3.4-3.4" fill="#e6332e" fill-opacity=".7" class="Western-Europe_5-area"/><path d="M52.6 499.8l3.4 2.4 3.4 2.2 3.5 3.2 3.4-15.2 3.4 2.7 3.4-8.3 3.5-37.2 3.4 29.6 3.4-4.5 3.5-1.8 3.4 10.4 3.4-19.7 3.4-2.7 3.5 17.1 3.4 4 3.4 10.8 3.5-14.9 3.4-.2 3.4 2.8 3.5 4.9 3.4-8.1 3.4-4.6 3.4-21.4 3.5.5 3.4 3.6 3.4-4.9 3.5-3.3 3.4-12 3.4.5 3.4 7.3 3.5 5.7 3.4-17.4 3.4-15.9 3.5 10.4 3.4 4.9 3.4-4.3 3.5-6.7 3.4-23.3 3.4 7.1 3.4 2.9 3.5 4.7 3.4-5 3.4-16.2 3.5-30.3 3.4-.4 3.4 6.8 3.5 2.6 3.4-7.3 3.4 2 3.4 5.7 3.5 2.7 3.4-9.8 3.4-18.9 3.5-.8 3.4-7.4 3.4-4 3.4 3.1 3.5 9.8 3.4-.8 3.4-5.8 3.5 14.8 3.4-.1 3.4 2.2 3.5 1.9 3.4 7.4h3.4l3.4 10.2 3.5-5.6 3.4-2.9 3.4-18.3 3.5 26.1 3.4-2.5 3.4-3.7 3.4 5.2 3.5-5.4 3.4 1 3.4.6 3.5-5.9 3.4-10.4 3.4-6.6 3.5 11.1 3.4 4.5 3.4-16.7 3.4 7.3 3.5-5.6 3.4-4 3.4 43.2 3.5 9.3 3.4 1.5 3.4 15.4 3.5 27.1 3.4-53.9 3.4-23.5 3.4 36.5 3.5 4.4 3.4-22.3 3.4-24.1 3.5 3.4 3.4 4.4 3.4 5.1 3.4-2.2 3.5-5.3 3.4 16.1 3.4 19 3.5 37.4 3.4 7.8 3.4 8.6 3.5 2.3 3.4.7 3.4-13.5 3.4 14.3 3.5 13.5 3.4 21.6 3.4-4 3.5 2.5 3.4.7 3.4 16 3.5 9.7 3.4-38.7 3.4-9.7 3.4-32 3.5-6.9 3.4-24.4 3.4-19.7 3.5 18.6 3.4 8.7 3.4-1 3.4-8.4 3.5.1 3.4.6 3.4 5.1 3.5-14.3 3.4 3.9 3.4.5 3.5-.1 3.4.1 3.4-2.2 3.4-5 3.5-2.8 3.4 4.7 3.4-11.4 3.5-12.2 3.4-4.2 3.4-1.7 3.4-3.2 3.5-13.4 3.4-27 3.4 24.1 3.5-13.8 3.4-2.8 3.4 3.4 3.5-7.7 3.4-.2 3.4.3 3.4 1.7 3.5-5.3 3.4-19.4 3.4-6.7 3.5 25.4 3.4 5.7 3.4 1.5 3.5-7.6 3.4 4.6 3.4.9 3.4 9 3.5 10.7 3.4-17.8 3.4-14.2 3.5-2.3 3.4-15.7 3.4-6.7 3.4-12.4 3.5-30.9 3.4 7.4 3.4 11.5 3.5 2.4 3.4-8 3.4-12.1 3.5-20.1 3.4-2.6 3.4-8.5 3.4 50.9 3.5-24.9 3.4-17.4 3.4.1 3.5 6.4 3.4 3.7v7l-3.4-3-3.5-6.7-3.4-.8-3.4 16.8-3.5 23.6-3.4-50.3-3.4 7.6-3.4 2.1-3.5 19.9-3.4 11.8-3.4 7.7-3.5-1.7-3.4-10.5-3.4-7.3-3.5 30.9-3.4 13.3-3.4 6.5-3.4 15-3.5 1.8-3.4 13.9-3.4 17.4-3.5-11.7-3.4-9-3.4-1.4-3.4-4.2-3.5 7.8-3.4-1.3-3.4-5.5-3.5-25.3-3.4 6.9-3.4 19.3-3.5 6.5-3.4-.6-3.4-.9-3.4-.1-3.5 8.1-3.4-3.2-3.4 2.8-3.5 14.5-3.4-23.9-3.4 25.4-3.5 13.7-3.4 3.3-3.4 1.5-3.4 4.2-3.5 12.1-3.4 11.1-3.4-4.8-3.5 2.7-3.4 5.5-3.4 2.8-3.4 1-3.5.8-3.4-.2-3.4-3.6-3.5 14.8-3.4-4.1-3.4-1.6-3.5 1.5-3.4 8.2-3.4-.1-3.4-4.2-3.5-16.8-3.4 17.6-3.4 23-3.5 6.5-3.4 27.6-3.4 7.9-3.4 35.5-3.5-10.1-3.4-15.8-3.4-.8-3.5-2.3-3.4 4.9-3.4-18.8-3.5-12.8-3.4-12.3-3.4 11.8-3.4-.2-3.5-3.2-3.4-7.2-3.4-7.4-3.5-36.2-3.4-17.1-3.4-13.6-3.5 5.4-3.4 1.1-3.4-4.6-3.4-3.1-3.5-3.8-3.4 24.8-3.4 18-3.5-4.6-3.4-34.1-3.4 18.4-3.4 52.6-3.5-27.4-3.4-13.8-3.4-.8-3.5-7.8-3.4-36.7-3.4 2.1-3.5 5.1-3.4-4.2-3.4 13.5-3.4-4.7-3.5-9.5-3.4 5.8-3.4 8-3.5 4.8-3.4-2-3.4-2-3.5 6.1-3.4-5.6-3.4 3.4-3.4 3-3.5-25.2-3.4 18.9-3.4 3-3.5 4.5-3.4-9.1h-3.4l-3.4-7.9-3.5.8-3.4-.6-3.4-.7-3.5-16.1-3.4 3.6-3.4.1-3.5-7.9-3.4-3.4-3.4 3.3-3.4 6.9h-3.5l-3.4 18.7-3.4 10-3.5-2.9-3.4-5.9-3.4-1-3.4 7.7-3.5-.6-3.4-4.6-3.4-3-3.5 31.2-3.4 12.4-3.4 4.8-3.5-3.7-3.4-3.4-3.4-2.8-3.4 17.7-3.5 5.9-3.4 4.1-3.4-4.3-3.5-3.4-3.4 9.1-3.4 16.1-3.5-5-3.4-3.4-3.4-1-3.4 7.2-3.5 3.2-3.4 8.1-3.4-4.1-3.5 1.5-3.4 16.7-3.4 2.6-3.4 7.9-3.5-5-3.4.2-3.4-.9-3.5 13.3-3.4-10.3-3.4-4.7-3.5-11.4-3.4-3-3.4 19.3-3.4-9.9-3.5 1.1-3.4 4.4-3.4-16.8-3.5 24.7-3.4 8-3.4.3-3.4 12-3.5-2.6-3.4-2.3-3.4-2.6" fill="#ca2628" fill-opacity=".7" class="Western-Europe_6-area"/><path d="M52.6 498.8l3.4 2.6 3.4 1.6 3.5 3.7 3.4-15.2 3.4 2.5 3.4-9 3.5-37.3 3.4 30.5 3.4-4.4 3.5-2.6 3.4 10.1 3.4-20.2 3.4-3.1 3.5 17.6 3.4 3.8 3.4 10.8 3.5-15.5 3.4-1.2 3.4 2.8 3.5 5.8 3.4-7.8 3.4-5.2 3.4-23.2 3.5 1.5 3.4 3.6 3.4-5.1 3.5-2.9 3.4-14.6 3.4 1.3 3.4 8.9 3.5 4.9 3.4-17.5 3.4-17.5 3.5 13.4 3.4 5.1 3.4-4.4 3.5-7.2 3.4-26.8 3.4 11.3 3.4 3.3 3.5 4.7 3.4-5.4 3.4-20.8 3.5-27.5h3.4l3.4 7 3.5 2.3 3.4-7.5 3.4 3.6 3.4 4.6 3.5 1.9 3.4-9.7 3.4-19.6 3.5 1.3 3.4-9.2 3.4-3.3 3.4 3.1 3.5 9.5 3.4.4 3.4-5.3 3.5 14.7 3.4-.2 3.4 1.9 3.5 1.4 3.4 7.7 3.4-.1 3.4 9.7 3.5-5.9 3.4-3.2 3.4-18.5 3.5 25.8 3.4-2.7 3.4-4.2 3.4 5.4 3.5-5.7 3.4.7h3.4l3.5-5.8 3.4-11.5 3.4-6.9 3.5 11.1 3.4 4.1 3.4-18.3 3.4 7.4 3.5-6.7 3.4-4.2 3.4 42.5 3.5 11.4 3.4.7 3.4 18 3.5 26.3 3.4-55.5 3.4-30.1 3.4 41.7 3.5 4.2 3.4-23.7 3.4-25 3.5 5.2 3.4 5.4 3.4 5 3.4-5.3 3.5-5.1 3.4 16.8 3.4 21.6 3.5 39.1 3.4 8.1 3.4 9 3.5 2.2 3.4-.2 3.4-13.8 3.4 15.2 3.5 15.8 3.4 24.5 3.4-3 3.5 2 3.4 2.5 3.4 15.9 3.5 7.9 3.4-44.1 3.4-12.7 3.4-40.7 3.5-7.5 3.4-26.3 3.4-23.4 3.5 19.9 3.4 11 3.4.5 3.4-9.1 3.5 2 3.4.4 3.4 4.3 3.5-12.6 3.4 3.2 3.4 3.2 3.5 2.5 3.4.3 3.4-1.9 3.4-5 3.5-1.3 3.4 5.9 3.4-11.8 3.5-12.2 3.4-4.5 3.4-1.9 3.4-1.5 3.5-14 3.4-30.8 3.4 21.5 3.5-12.8 3.4-4.8 3.4 4 3.5-4 3.4-2.4 3.4-3.4 3.4 3.8 3.5-4.7 3.4-18.1 3.4-4.3 3.5 29.5 3.4 7.5 3.4 2 3.5-7.8 3.4 4.9 3.4 2.3 3.4 9.2 3.5 10.7 3.4-17.5 3.4-14.8 3.5-2 3.4-15.7 3.4-7.5 3.4-12.3 3.5-31.5 3.4 7.9 3.4 11.9 3.5 2.2 3.4-8.1 3.4-12.6 3.5-20.4 3.4-3.7 3.4-9.7 3.4 51.2 3.5-25.4 3.4-17.5 3.4-.8 3.5 6.3 3.4 3.8V230l-3.4-3.7-3.5-6.4-3.4-.1-3.4 17.4-3.5 24.9-3.4-50.9-3.4 8.5-3.4 2.6-3.5 20.1-3.4 12.1-3.4 8-3.5-2.4-3.4-11.5-3.4-7.4-3.5 30.9-3.4 12.4-3.4 6.7-3.4 15.7-3.5 2.3-3.4 14.2-3.4 17.8-3.5-10.7-3.4-9-3.4-.9-3.4-4.6-3.5 7.6-3.4-1.5-3.4-5.7-3.5-25.4-3.4 6.7-3.4 19.4-3.5 5.3-3.4-1.7-3.4-.3-3.4.2-3.5 7.7-3.4-3.4-3.4 2.8-3.5 13.8-3.4-24.1-3.4 27-3.5 13.4-3.4 3.2-3.4 1.7-3.4 4.2-3.5 12.2-3.4 11.4-3.4-4.7-3.5 2.8-3.4 5-3.4 2.2-3.4-.1-3.5.1-3.4-.5-3.4-3.9-3.5 14.3-3.4-5.1-3.4-.6-3.5-.1-3.4 8.4-3.4 1-3.4-8.7-3.5-18.6-3.4 19.7-3.4 24.4-3.5 6.9-3.4 32-3.4 9.7-3.4 38.7-3.5-9.7-3.4-16-3.4-.7-3.5-2.5-3.4 4-3.4-21.6-3.5-13.5-3.4-14.3-3.4 13.5-3.4-.7-3.5-2.3-3.4-8.6-3.4-7.8-3.5-37.4-3.4-19-3.4-16.1-3.5 5.3-3.4 2.2-3.4-5.1-3.4-4.4-3.5-3.4-3.4 24.1-3.4 22.3-3.5-4.4-3.4-36.5-3.4 23.5-3.4 53.9-3.5-27.1-3.4-15.4-3.4-1.5-3.5-9.3-3.4-43.2-3.4 4-3.5 5.6-3.4-7.3-3.4 16.7-3.4-4.5-3.5-11.1-3.4 6.6-3.4 10.4-3.5 5.9-3.4-.6-3.4-1-3.5 5.4-3.4-5.2-3.4 3.7-3.4 2.5-3.5-26.1-3.4 18.3-3.4 2.9-3.5 5.6-3.4-10.2h-3.4l-3.4-7.4-3.5-1.9-3.4-2.2-3.4.1-3.5-14.8-3.4 5.8-3.4.8-3.5-9.8-3.4-3.1-3.4 4-3.4 7.4-3.5.8-3.4 18.9-3.4 9.8-3.5-2.7-3.4-5.7-3.4-2-3.4 7.3-3.5-2.6-3.4-6.8-3.4.4-3.5 30.3-3.4 16.2-3.4 5-3.5-4.7-3.4-2.9-3.4-7.1-3.4 23.3-3.5 6.7-3.4 4.3-3.4-4.9-3.5-10.4-3.4 15.9-3.4 17.4-3.5-5.7-3.4-7.3-3.4-.5-3.4 12-3.5 3.3-3.4 4.9-3.4-3.6-3.5-.5-3.4 21.4-3.4 4.6-3.4 8.1-3.5-4.9-3.4-2.8-3.4.2-3.5 14.9L104 482l-3.4-4-3.5-17.1-3.4 2.7-3.4 19.7-3.4-10.4-3.5 1.8-3.4 4.5-3.4-29.6-3.5 37.2-3.4 8.3-3.4-2.7-3.4 15.2-3.5-3.2-3.4-2.2-3.4-2.4" fill="#ffd53e" fill-opacity=".7" class="Western-Europe_1-area"/><path d="M52.6 498.8l3.4 2.3 3.4 1.9 3.5 3.4 3.4-15.7 3.4 2.8 3.4-9.5 3.5-37.2 3.4 30.7 3.4-4.5 3.5-2.5 3.4 9.5 3.4-19.9 3.4-4.6 3.5 18.9 3.4 3.6 3.4 10.8 3.5-15.6 3.4-1.2 3.4 2.7 3.5 6.3 3.4-7.9 3.4-5.3 3.4-24.9 3.5 2.6 3.4 4 3.4-5.1 3.5-2.9 3.4-15.7 3.4.7 3.4 10.5 3.5 4.5 3.4-17.6 3.4-21.3 3.5 17.4 3.4 5 3.4-4.1 3.5-9.1 3.4-28.6 3.4 12.3 3.4 3.1 3.5 4.2 3.4-5.6 3.4-23.7 3.5-25.7 3.4.3 3.4 7.7 3.5 2.6 3.4-8.3 3.4 3.9 3.4 4.3 3.5 2.4 3.4-10.1 3.4-20.5 3.5 1.7 3.4-8.3 3.4-3.2 3.4 2.7 3.5 9.1 3.4 1.3 3.4-5.9 3.5 14 3.4.7 3.4 1.3 3.5 1.3 3.4 8.4 3.4-.2 3.4 9.9 3.5-6.2 3.4-4.2 3.4-18.1 3.5 26.4 3.4-2.8 3.4-5.3 3.4 5.6 3.5-5.6 3.4.2 3.4-1.1 3.5-7.3 3.4-11.4 3.4-6.7 3.5 11.7 3.4 4.8 3.4-19 3.4 6.7 3.5-6.9 3.4-5.8 3.4 45.3 3.5 14.3 3.4.7 3.4 20.1 3.5 26.8 3.4-57.5 3.4-36.2 3.4 42.1 3.5 5.3 3.4-24.6 3.4-26.7 3.5 6.3 3.4 4.4 3.4 6.6 3.4-5.7 3.5-5.7 3.4 19.2 3.4 23.4 3.5 40.5 3.4 8 3.4 10 3.5 2.3 3.4.1 3.4-15.1 3.4 16.2 3.5 16.9 3.4 26.2 3.4-2.2 3.5 2.9 3.4 2.4 3.4 16 3.5 7.5 3.4-47.5 3.4-15.2 3.4-50.1 3.5-8.3 3.4-26 3.4-27.5 3.5 21.9 3.4 13 3.4.8 3.4-10 3.5 1 3.4-.7 3.4 5.9 3.5-12.7 3.4 3.3 3.4 4.6 3.5 3.9 3.4 1.1 3.4-.9 3.4-4.8 3.5-1.7 3.4 5.7 3.4-12.5 3.5-12.6 3.4-3.7 3.4-2.1 3.4-1.1 3.5-16.1 3.4-34.4 3.4 21.2 3.5-15.2 3.4-7.8 3.4 3.1 3.5-4.4 3.4-2.3 3.4-9.1 3.4 2.6 3.5-6.2 3.4-19.1 3.4-.4 3.5 35.9 3.4 9.6 3.4.1 3.5-10.4 3.4 5.8 3.4 1.1 3.4 9.6 3.5 6.7 3.4-19.4 3.4-17 3.5-3.2 3.4-17 3.4-1.5 3.4-13.4 3.5-37.3 3.4 7.6 3.4 13.8 3.5 3.9 3.4-11.5 3.4-15.7 3.5-21.6 3.4-4.8 3.4-13.1 3.4 52.7 3.5-32 3.4-24.6 3.4-5.1 3.5 4.9 3.4 4.6v65.3l-3.4-3.8-3.5-6.3-3.4.8-3.4 17.5-3.5 25.4-3.4-51.2-3.4 9.7-3.4 3.7-3.5 20.4-3.4 12.6-3.4 8.1-3.5-2.2-3.4-11.9-3.4-7.9-3.5 31.5-3.4 12.3-3.4 7.5-3.4 15.7-3.5 2-3.4 14.8-3.4 17.5-3.5-10.7-3.4-9.2-3.4-2.3-3.4-4.9-3.5 7.8-3.4-2-3.4-7.5-3.5-29.5-3.4 4.3-3.4 18.1-3.5 4.7-3.4-3.8-3.4 3.4-3.4 2.4-3.5 4-3.4-4-3.4 4.8-3.5 12.8-3.4-21.5-3.4 30.8-3.5 14-3.4 1.5-3.4 1.9-3.4 4.5-3.5 12.2-3.4 11.8-3.4-5.9-3.5 1.3-3.4 5-3.4 1.9-3.4-.3-3.5-2.5-3.4-3.2-3.4-3.2-3.5 12.6-3.4-4.3-3.4-.4-3.5-2-3.4 9.1-3.4-.5-3.4-11-3.5-19.9-3.4 23.4-3.4 26.3-3.5 7.5-3.4 40.7-3.4 12.7-3.4 44.1-3.5-7.9-3.4-15.9-3.4-2.5-3.5-2-3.4 3-3.4-24.5-3.5-15.8-3.4-15.2-3.4 13.8-3.4.2-3.5-2.2-3.4-9-3.4-8.1-3.5-39.1-3.4-21.6-3.4-16.8-3.5 5.1-3.4 5.3-3.4-5-3.4-5.4-3.5-5.2-3.4 25-3.4 23.7-3.5-4.2-3.4-41.7-3.4 30.1-3.4 55.5-3.5-26.3-3.4-18-3.4-.7-3.5-11.4-3.4-42.5-3.4 4.2-3.5 6.7-3.4-7.4-3.4 18.3-3.4-4.1-3.5-11.1-3.4 6.9-3.4 11.5-3.5 5.8h-3.4l-3.4-.7-3.5 5.7-3.4-5.4-3.4 4.2-3.4 2.7-3.5-25.8-3.4 18.5-3.4 3.2-3.5 5.9-3.4-9.7-3.4.1-3.4-7.7-3.5-1.4-3.4-1.9-3.4.2-3.5-14.7-3.4 5.3-3.4-.4-3.5-9.5-3.4-3.1-3.4 3.3-3.4 9.2-3.5-1.3-3.4 19.6-3.4 9.7-3.5-1.9-3.4-4.6-3.4-3.6-3.4 7.5-3.5-2.3-3.4-7h-3.4l-3.5 27.5-3.4 20.8-3.4 5.4-3.5-4.7-3.4-3.3-3.4-11.3-3.4 26.8-3.5 7.2-3.4 4.4-3.4-5.1-3.5-13.4-3.4 17.5-3.4 17.5-3.5-4.9-3.4-8.9-3.4-1.3-3.4 14.6-3.5 2.9-3.4 5.1-3.4-3.6-3.5-1.5-3.4 23.2-3.4 5.2-3.4 7.8-3.5-5.8-3.4-2.8-3.4 1.2-3.5 15.5-3.4-10.8-3.4-3.8-3.5-17.6-3.4 3.1-3.4 20.2-3.4-10.1-3.5 2.6-3.4 4.4-3.4-30.5-3.5 37.3-3.4 9-3.4-2.5-3.4 15.2-3.5-3.7-3.4-1.6-3.4-2.6" fill="#9ecc8a" fill-opacity=".7" class="Western-Europe_3-area"/><path d="M52.6 498.3l3.4 2.3 3.4 1.9 3.5 3.5 3.4-15.8 3.4 2.7 3.4-9.6 3.5-37.3 3.4 30.8 3.4-4.6 3.5-2.6 3.4 9.2 3.4-20.3 3.4-3 3.5 18.4 3.4 3.1 3.4 10.5 3.5-14.9 3.4-1 3.4 2.9 3.5 6.4 3.4-9.2 3.4-5.8 3.4-23.1 3.5.3 3.4 3 3.4-12.3 3.5-.2 3.4-12.1 3.4-1.3 3.4 9.6 3.5 4.7 3.4-18.3 3.4-19.8 3.5 23 3.4 4.7 3.4-4.7 3.5-9.3 3.4-28.3 3.4 12.4 3.4 3.2 3.5 4.3 3.4-5.6 3.4-23.7 3.5-25.2 3.4.2 3.4 7.3 3.5 2.2 3.4-8.3 3.4 4.1 3.4 4.3 3.5 2.1 3.4-10.1 3.4-19.9 3.5 1.4 3.4-8.5 3.4-3.2 3.4 2.8 3.5 9 3.4 1.5 3.4-5.7 3.5 14.1 3.4.6 3.4 1.4 3.5 1.3 3.4 8.3 3.4-.2 3.4 10 3.5-6.2 3.4-4.4 3.4-18.3 3.5 26.5 3.4-7.6 3.4-6.3 3.4 5.4 3.5-5.3 3.4 1.3 3.4-1.7 3.5-7.3 3.4-12 3.4-7.4 3.5 12.4 3.4 4.9 3.4-20.1 3.4 6.3 3.5-7.6 3.4-5.9 3.4 46.9 3.5 14.5 3.4 1.6 3.4 23.3 3.5 26.3 3.4-58 3.4-39.9 3.4 43.3 3.5 3.7 3.4-25.7 3.4-26.7 3.5 6.6 3.4 3.9 3.4 8.3 3.4-5 3.5-5.4 3.4 22 3.4 23.9 3.5 41.4 3.4 8 3.4 9.8 3.5 2.1 3.4-.3 3.4-15.6 3.4 16.2 3.5 18.2 3.4 26.1 3.4-1.7 3.5 1.9 3.4 2 3.4 16.7 3.5 8.2 3.4-48.5 3.4-16.1 3.4-54.8 3.5-9.4 3.4-29.2 3.4-30.2 3.5 25.4 3.4 16.6 3.4-1.3 3.4-10.3 3.5 3.3h3.4l3.4 5.9 3.5-11.7 3.4 3 3.4 5.8 3.5 4.6 3.4 1.2 3.4-1 3.4-5 3.5-1 3.4 6.2 3.4-12.5 3.5-12.3 3.4-3.9 3.4-1.9 3.4-.3 3.5-16.1 3.4-35.5 3.4 22 3.5-14.7 3.4-7.6 3.4 3.4 3.5-4.3 3.4-2.1 3.4-9.3 3.4 2.4 3.5-5.9 3.4-19.8 3.4-.4 3.5 36.6 3.4 9.8h3.4l3.5-10.8 3.4 6.4 3.4 1.4 3.4 9.8 3.5 6.6 3.4-19.8 3.4-17.2 3.5-3.3 3.4-17 3.4-1.4 3.4-13.5 3.5-37.4 3.4 7.8 3.4 13.6 3.5 3.8 3.4-11.6 3.4-15.8 3.5-21.3 3.4-5.1 3.4-13.3 3.4 53.1 3.5-32.3 3.4-25 3.4-5.4 3.5 5.3 3.4 4.6v3.6l-3.4-4.6-3.5-4.9-3.4 5.1-3.4 24.6-3.5 32-3.4-52.7-3.4 13.1-3.4 4.8-3.5 21.6-3.4 15.7-3.4 11.5-3.5-3.9-3.4-13.8-3.4-7.6-3.5 37.3-3.4 13.4-3.4 1.5-3.4 17-3.5 3.2-3.4 17-3.4 19.4-3.5-6.7-3.4-9.6-3.4-1.1-3.4-5.8-3.5 10.4-3.4-.1-3.4-9.6-3.5-35.9-3.4.4-3.4 19.1-3.5 6.2-3.4-2.6-3.4 9.1-3.4 2.3-3.5 4.4-3.4-3.1-3.4 7.8-3.5 15.2-3.4-21.2-3.4 34.4-3.5 16.1-3.4 1.1-3.4 2.1-3.4 3.7-3.5 12.6-3.4 12.5-3.4-5.7-3.5 1.7-3.4 4.8-3.4.9-3.4-1.1-3.5-3.9-3.4-4.6-3.4-3.3-3.5 12.7-3.4-5.9-3.4.7-3.5-1-3.4 10-3.4-.8-3.4-13-3.5-21.9-3.4 27.5-3.4 26-3.5 8.3-3.4 50.1-3.4 15.2-3.4 47.5-3.5-7.5-3.4-16-3.4-2.4-3.5-2.9-3.4 2.2-3.4-26.2-3.5-16.9-3.4-16.2-3.4 15.1-3.4-.1-3.5-2.3-3.4-10-3.4-8-3.5-40.5-3.4-23.4-3.4-19.2-3.5 5.7-3.4 5.7-3.4-6.6-3.4-4.4-3.5-6.3-3.4 26.7-3.4 24.6-3.5-5.3-3.4-42.1-3.4 36.2-3.4 57.5-3.5-26.8-3.4-20.1-3.4-.7-3.5-14.3-3.4-45.3-3.4 5.8-3.5 6.9-3.4-6.7-3.4 19-3.4-4.8-3.5-11.7-3.4 6.7-3.4 11.4-3.5 7.3-3.4 1.1-3.4-.2-3.5 5.6-3.4-5.6-3.4 5.3-3.4 2.8-3.5-26.4-3.4 18.1-3.4 4.2-3.5 6.2-3.4-9.9-3.4.2-3.4-8.4-3.5-1.3-3.4-1.3-3.4-.7-3.5-14-3.4 5.9-3.4-1.3-3.5-9.1-3.4-2.7-3.4 3.2-3.4 8.3-3.5-1.7-3.4 20.5-3.4 10.1-3.5-2.4-3.4-4.3-3.4-3.9-3.4 8.3-3.5-2.6-3.4-7.7-3.4-.3-3.5 25.7-3.4 23.7-3.4 5.6-3.5-4.2-3.4-3.1-3.4-12.3-3.4 28.6-3.5 9.1-3.4 4.1-3.4-5-3.5-17.4-3.4 21.3-3.4 17.6-3.5-4.5-3.4-10.5-3.4-.7-3.4 15.7-3.5 2.9-3.4 5.1-3.4-4-3.5-2.6-3.4 24.9-3.4 5.3-3.4 7.9-3.5-6.3-3.4-2.7-3.4 1.2-3.5 15.6L104 478l-3.4-3.6-3.5-18.9-3.4 4.6-3.4 19.9-3.4-9.5-3.5 2.5-3.4 4.5-3.4-30.7-3.5 37.2-3.4 9.5-3.4-2.8-3.4 15.7-3.5-3.4-3.4-1.9-3.4-2.3" fill="#34983f" fill-opacity=".7" class="Western-Europe_4-area"/><path stroke-linecap="round" d="M52.6 519.1l3.4 3.3 3.4.5 3.5 1.1 3.4-3.1 3.4-5.3 3.4-6.7 3.5-15.8 3.4 16.8 3.4-.8 3.5-10.3 3.4 2.1 3.4-3.8 3.4-3.6 3.5 7.4 3.4.5 3.4 3.6 3.5-4.1 3.4 2.3h3.4l3.5 3.1 3.4-3.9 3.4-2.2 3.4-8.8 3.5-.2 3.4-.4 3.4-1.6 3.5-3 3.4-10.7 3.4 5.3 3.4.6 3.5-.8 3.4-11.7 3.4-5.4 3.5-8 3.4-2.8 3.4-3.8 3.5-5.6 3.4-16.3 3.4 8.3 3.4 3 3.5-1.1 3.4-3 3.4-4.7 3.5-30.2 3.4 5.7 3.4 3.7 3.5-4.7 3.4-8.6 3.4-2.5 3.4 5.5 3.5 3.5 3.4-8 3.4-6.4 3.5-1.5 3.4-4.6 3.4-3 3.4 1.6 3.5 4.2 3.4 2.7 3.4-1.1 3.5 16.3 3.4-.8 3.4 2.1 3.5 1.8 3.4 5.6 3.4 2.7 3.4 1.9 3.5-1.5 3.4-1.5 3.4-18.6 3.5 17.4 3.4-1.7 3.4-1.3 3.4 5.3 3.5-3.4 3.4 3.3 3.4.3 3.5-3.9 3.4-4.3 3.4-3 3.5 6.3 3.4 5.4 3.4-8.1 3.4 2.5 3.5-3.7 3.4-2.2 3.4 31.8 3.5-7.5 3.4-2 3.4 9.3 3.5 18.5 3.4-41.8 3.4-7.2 3.4 30 3.5 3.9 3.4-8 3.4-17.3 3.5 4.8 3.4 1.6 3.4 2.9 3.4-.9 3.5-4.3 3.4 4.5 3.4 12.3 3.5 28 3.4 5.7 3.4 5.2 3.5 3.8 3.4 1.7 3.4-9.7 3.4 8.9 3.5 8.5 3.4 13.8 3.4-6 3.5 2.5 3.4-.6 3.4 15.3 3.5 11.6 3.4-28.6 3.4-7.1 3.4-18.1 3.5-9.1 3.4-.6 3.4-13.8 3.5 14.5 3.4 5.3 3.4-2.6 3.4-4 3.5.2 3.4 1.6 3.4 6.3 3.5-4.5 3.4-2 3.4-1.3 3.5-.9 3.4-3 3.4-2 3.4-.2 3.5-2 3.4 1 3.4-3.6 3.5-7.6 3.4-2.7 3.4.5 3.4-2.4 3.5-11 3.4-17.7 3.4 15.3 3.5-8.8 3.4-.3 3.4 3.4 3.5-6.6 3.4-1.7 3.4 4.3 3.4-.4 3.5-3.4 3.4-8.4 3.4-3.6 3.5 11.7 3.4-.7 3.4-.7 3.5-5.9 3.4 3L615 355l3.4 8.8 3.5 18.1 3.4-14.1 3.4-11.6 3.5 2.1 3.4-8.4 3.4-2.5 3.4-10.6 3.5-19.2 3.4 6.7 3.4 8 3.5-2 3.4-5.8 3.4-6.4 3.5-14.8 3.4-1.7 3.4-4.3 3.4 34.8 3.5-15.8 3.4-11.5 3.4 3.4 3.5 5.6 3.4 2.6" stroke="#2B508D" stroke-opacity=".7" stroke-width=".5" fill="none" class="Western-Europe_0-border"/><path stroke-linecap="round" d="M52.6 518.8l3.4 3.4 3.4.5 3.5 1.1 3.4-3.7 3.4-4.8 3.4-6.7 3.5-22.3 3.4 19.2 3.4-.2 3.5-10.5 3.4 5.6 3.4-8.6 3.4-4.8 3.5 13.3 3.4.4 3.4 3.6 3.5-4.3 3.4 2.4 3.4-.3 3.5 3.2 3.4-3.9 3.4-2.6 3.4-10.5 3.5 1.3 3.4-.3 3.4-1.4 3.5-2.9 3.4-13.1 3.4 4.8 3.4 3 3.5-1.1 3.4-10.8 3.4-8.3 3.5-6.5 3.4-2.4 3.4-3.8 3.5-5.5 3.4-17.8 3.4 10.3 3.4 1.9 3.5-1.2 3.4-2.7 3.4-7 3.5-30.1 3.4 5.7 3.4 3.7 3.5-4.3 3.4-8.3 3.4-2.4 3.4 6 3.5 2.4 3.4-8.3 3.4-9.9 3.5-1.7 3.4-4.7 3.4-3.7 3.4 2.4 3.5 4.4 3.4 2.2 3.4-1.7 3.5 16.4 3.4-1.2 3.4 2.4 3.5-1.1 3.4 6 3.4 2 3.4 1.7 3.5-.5 3.4-1.6 3.4-18.8 3.5 17.5 3.4-1.2 3.4-.6 3.4 4.8 3.5-3.7 3.4 3.6 3.4-.5 3.5-3.8 3.4-5.3 3.4-3.4 3.5 6 3.4 5.2 3.4-8.7 3.4 1.9 3.5-4.6 3.4-1.1 3.4 35.3 3.5.6 3.4-1.6 3.4 7.8 3.5 21.4 3.4-45.2 3.4-8.3 3.4 30 3.5 5.6 3.4-13.1 3.4-26.5 3.5 4 3.4 4.7 3.4 1.9 3.4-1.6 3.5-4.4 3.4 7.9 3.4 13.2 3.5 32.1 3.4 7.3 3.4 5.4 3.5 4.2 3.4 1.3 3.4-10.9 3.4 9.3 3.5 12.5 3.4 15.8 3.4-6.1 3.5 1.4 3.4 1 3.4 15.4 3.5 11.9 3.4-31.4 3.4-8.3 3.4-22.1 3.5-8.1 3.4-14.9 3.4-13.6 3.5 14 3.4 5.8 3.4-3.3 3.4-7.3 3.5.5 3.4 1.1 3.4 5.9 3.5-9.5 3.4-1.9 3.4-2.4 3.5-1.6 3.4-2 3.4-2.7 3.4-4.2 3.5-.9 3.4 4 3.4-8.4 3.5-12.9 3.4-5.2 3.4-1.3 3.4-3.1 3.5-14.3 3.4-22.7 3.4 18.8 3.5-13.9 3.4-2.1 3.4 4.2 3.5-9 3.4-.6 3.4 6 3.4.6 3.5-5.6 3.4-10 3.4-4.6 3.5 17.7 3.4 1 3.4 1 3.5-7.7 3.4.9h3.4l3.4 7.7 3.5 14.5 3.4-15.6 3.4-14.7 3.5-.6 3.4-11.1 3.4-4.1 3.4-9.9 3.5-24.1 3.4 6.7 3.4 7.5 3.5-2.5 3.4-8.5 3.4-9.7 3.5-19.3 3.4-4.7 3.4-7.8 3.4 45.1 3.5-19.9 3.4-15.9 3.4 3.1 3.5 6 3.4 3.9" stroke="#237B82" stroke-opacity=".7" stroke-width=".5" fill="none" class="Western-Europe_2-border"/><path stroke-linecap="round" d="M52.6 501.2l3.4 2.6 3.4 2.3 3.5 2.6 3.4-12 3.4-.3 3.4-8 3.5-24.7 3.4 16.8 3.4-4.4 3.5-1.1 3.4 9.9 3.4-19.3 3.4 3 3.5 11.4 3.4 4.7 3.4 10.3 3.5-13.3 3.4.9 3.4-.2 3.5 5 3.4-7.9 3.4-2.6 3.4-16.7 3.5-1.5 3.4 4.1 3.4-8.1 3.5-3.2 3.4-7.2 3.4 1 3.4 3.4 3.5 5 3.4-16.1 3.4-9.1 3.5 3.4 3.4 4.3 3.4-4.1 3.5-5.9 3.4-17.7 3.4 2.8 3.4 3.4 3.5 3.7 3.4-4.8 3.4-12.4 3.5-31.2 3.4 3 3.4 4.6 3.5.6 3.4-7.7 3.4 1 3.4 5.9 3.5 2.9 3.4-10 3.4-18.7h3.5l3.4-6.9 3.4-3.3 3.4 3.4 3.5 7.9 3.4-.1 3.4-3.6 3.5 16.1 3.4.7 3.4.6 3.5-.8 3.4 7.9h3.4l3.4 9.1 3.5-4.5 3.4-3 3.4-18.9 3.5 25.2 3.4-3 3.4-3.4 3.4 5.6 3.5-6.1 3.4 2 3.4 2 3.5-4.8 3.4-8 3.4-5.8 3.5 9.5 3.4 4.7 3.4-13.5 3.4 4.2 3.5-5.1 3.4-2.1 3.4 36.7 3.5 7.8 3.4.8 3.4 13.8 3.5 27.4 3.4-52.6 3.4-18.4 3.4 34.1 3.5 4.6 3.4-18 3.4-24.8 3.5 3.8 3.4 3.1 3.4 4.6 3.4-1.1 3.5-5.4 3.4 13.6 3.4 17.1 3.5 36.2 3.4 7.4 3.4 7.2 3.5 3.2 3.4.2 3.4-11.8 3.4 12.3 3.5 12.8 3.4 18.8 3.4-4.9 3.5 2.3 3.4.8 3.4 15.8 3.5 10.1 3.4-35.5 3.4-7.9 3.4-27.6 3.5-6.5 3.4-23 3.4-17.6 3.5 16.8 3.4 4.2 3.4.1 3.4-8.2 3.5-1.5 3.4 1.6 3.4 4.1 3.5-14.8 3.4 3.6 3.4.2 3.5-.8 3.4-1 3.4-2.8 3.4-5.5 3.5-2.7 3.4 4.8 3.4-11.1 3.5-12.1 3.4-4.2 3.4-1.5 3.4-3.3 3.5-13.7 3.4-25.4 3.4 23.9 3.5-14.5 3.4-2.8 3.4 3.2 3.5-8.1 3.4.1 3.4.9 3.4.6 3.5-6.5 3.4-19.3 3.4-6.9 3.5 25.3 3.4 5.5 3.4 1.3 3.5-7.8 3.4 4.2 3.4 1.4 3.4 9 3.5 11.7 3.4-17.4 3.4-13.9 3.5-1.8 3.4-15 3.4-6.5 3.4-13.3 3.5-30.9 3.4 7.3 3.4 10.5 3.5 1.7 3.4-7.7 3.4-11.8 3.5-19.9 3.4-2.1 3.4-7.6 3.4 50.3 3.5-23.6 3.4-16.8 3.4.8 3.5 6.7 3.4 3" stroke="#C02B26" stroke-opacity=".7" stroke-width=".5" fill="none" class="Western-Europe_5-border"/><path stroke-linecap="round" d="M52.6 499.8l3.4 2.4 3.4 2.2 3.5 3.2 3.4-15.2 3.4 2.7 3.4-8.3 3.5-37.2 3.4 29.6 3.4-4.5 3.5-1.8 3.4 10.4 3.4-19.7 3.4-2.7 3.5 17.1 3.4 4 3.4 10.8 3.5-14.9 3.4-.2 3.4 2.8 3.5 4.9 3.4-8.1 3.4-4.6 3.4-21.4 3.5.5 3.4 3.6 3.4-4.9 3.5-3.3 3.4-12 3.4.5 3.4 7.3 3.5 5.7 3.4-17.4 3.4-15.9 3.5 10.4 3.4 4.9 3.4-4.3 3.5-6.7 3.4-23.3 3.4 7.1 3.4 2.9 3.5 4.7 3.4-5 3.4-16.2 3.5-30.3 3.4-.4 3.4 6.8 3.5 2.6 3.4-7.3 3.4 2 3.4 5.7 3.5 2.7 3.4-9.8 3.4-18.9 3.5-.8 3.4-7.4 3.4-4 3.4 3.1 3.5 9.8 3.4-.8 3.4-5.8 3.5 14.8 3.4-.1 3.4 2.2 3.5 1.9 3.4 7.4h3.4l3.4 10.2 3.5-5.6 3.4-2.9 3.4-18.3 3.5 26.1 3.4-2.5 3.4-3.7 3.4 5.2 3.5-5.4 3.4 1 3.4.6 3.5-5.9 3.4-10.4 3.4-6.6 3.5 11.1 3.4 4.5 3.4-16.7 3.4 7.3 3.5-5.6 3.4-4 3.4 43.2 3.5 9.3 3.4 1.5 3.4 15.4 3.5 27.1 3.4-53.9 3.4-23.5 3.4 36.5 3.5 4.4 3.4-22.3 3.4-24.1 3.5 3.4 3.4 4.4 3.4 5.1 3.4-2.2 3.5-5.3 3.4 16.1 3.4 19 3.5 37.4 3.4 7.8 3.4 8.6 3.5 2.3 3.4.7 3.4-13.5 3.4 14.3 3.5 13.5 3.4 21.6 3.4-4 3.5 2.5 3.4.7 3.4 16 3.5 9.7 3.4-38.7 3.4-9.7 3.4-32 3.5-6.9 3.4-24.4 3.4-19.7 3.5 18.6 3.4 8.7 3.4-1 3.4-8.4 3.5.1 3.4.6 3.4 5.1 3.5-14.3 3.4 3.9 3.4.5 3.5-.1 3.4.1 3.4-2.2 3.4-5 3.5-2.8 3.4 4.7 3.4-11.4 3.5-12.2 3.4-4.2 3.4-1.7 3.4-3.2 3.5-13.4 3.4-27 3.4 24.1 3.5-13.8 3.4-2.8 3.4 3.4 3.5-7.7 3.4-.2 3.4.3 3.4 1.7 3.5-5.3 3.4-19.4 3.4-6.7 3.5 25.4 3.4 5.7 3.4 1.5 3.5-7.6 3.4 4.6 3.4.9 3.4 9 3.5 10.7 3.4-17.8 3.4-14.2 3.5-2.3 3.4-15.7 3.4-6.7 3.4-12.4 3.5-30.9 3.4 7.4 3.4 11.5 3.5 2.4 3.4-8 3.4-12.1 3.5-20.1 3.4-2.6 3.4-8.5 3.4 50.9 3.5-24.9 3.4-17.4 3.4.1 3.5 6.4 3.4 3.7" stroke="#A92021" stroke-opacity=".7" stroke-width=".5" fill="none" class="Western-Europe_6-border"/><path stroke-linecap="round" d="M52.6 498.8l3.4 2.6 3.4 1.6 3.5 3.7 3.4-15.2 3.4 2.5 3.4-9 3.5-37.3 3.4 30.5 3.4-4.4 3.5-2.6 3.4 10.1 3.4-20.2 3.4-3.1 3.5 17.6 3.4 3.8 3.4 10.8 3.5-15.5 3.4-1.2 3.4 2.8 3.5 5.8 3.4-7.8 3.4-5.2 3.4-23.2 3.5 1.5 3.4 3.6 3.4-5.1 3.5-2.9 3.4-14.6 3.4 1.3 3.4 8.9 3.5 4.9 3.4-17.5 3.4-17.5 3.5 13.4 3.4 5.1 3.4-4.4 3.5-7.2 3.4-26.8 3.4 11.3 3.4 3.3 3.5 4.7 3.4-5.4 3.4-20.8 3.5-27.5h3.4l3.4 7 3.5 2.3 3.4-7.5 3.4 3.6 3.4 4.6 3.5 1.9 3.4-9.7 3.4-19.6 3.5 1.3 3.4-9.2 3.4-3.3 3.4 3.1 3.5 9.5 3.4.4 3.4-5.3 3.5 14.7 3.4-.2 3.4 1.9 3.5 1.4 3.4 7.7 3.4-.1 3.4 9.7 3.5-5.9 3.4-3.2 3.4-18.5 3.5 25.8 3.4-2.7 3.4-4.2 3.4 5.4 3.5-5.7 3.4.7h3.4l3.5-5.8 3.4-11.5 3.4-6.9 3.5 11.1 3.4 4.1 3.4-18.3 3.4 7.4 3.5-6.7 3.4-4.2 3.4 42.5 3.5 11.4 3.4.7 3.4 18 3.5 26.3 3.4-55.5 3.4-30.1 3.4 41.7 3.5 4.2 3.4-23.7 3.4-25 3.5 5.2 3.4 5.4 3.4 5 3.4-5.3 3.5-5.1 3.4 16.8 3.4 21.6 3.5 39.1 3.4 8.1 3.4 9 3.5 2.2 3.4-.2 3.4-13.8 3.4 15.2 3.5 15.8 3.4 24.5 3.4-3 3.5 2 3.4 2.5 3.4 15.9 3.5 7.9 3.4-44.1 3.4-12.7 3.4-40.7 3.5-7.5 3.4-26.3 3.4-23.4 3.5 19.9 3.4 11 3.4.5 3.4-9.1 3.5 2 3.4.4 3.4 4.3 3.5-12.6 3.4 3.2 3.4 3.2 3.5 2.5 3.4.3 3.4-1.9 3.4-5 3.5-1.3 3.4 5.9 3.4-11.8 3.5-12.2 3.4-4.5 3.4-1.9 3.4-1.5 3.5-14 3.4-30.8 3.4 21.5 3.5-12.8 3.4-4.8 3.4 4 3.5-4 3.4-2.4 3.4-3.4 3.4 3.8 3.5-4.7 3.4-18.1 3.4-4.3 3.5 29.5 3.4 7.5 3.4 2 3.5-7.8 3.4 4.9 3.4 2.3 3.4 9.2 3.5 10.7 3.4-17.5 3.4-14.8 3.5-2 3.4-15.7 3.4-7.5 3.4-12.3 3.5-31.5 3.4 7.9 3.4 11.9 3.5 2.2 3.4-8.1 3.4-12.6 3.5-20.4 3.4-3.7 3.4-9.7 3.4 51.2 3.5-25.4 3.4-17.5 3.4-.8 3.5 6.3 3.4 3.8" stroke="#D5B234" stroke-opacity=".7" stroke-width=".5" fill="none" class="Western-Europe_1-border"/><path stroke-linecap="round" d="M52.6 498.8l3.4 2.3 3.4 1.9 3.5 3.4 3.4-15.7 3.4 2.8 3.4-9.5 3.5-37.2 3.4 30.7 3.4-4.5 3.5-2.5 3.4 9.5 3.4-19.9 3.4-4.6 3.5 18.9 3.4 3.6 3.4 10.8 3.5-15.6 3.4-1.2 3.4 2.7 3.5 6.3 3.4-7.9 3.4-5.3 3.4-24.9 3.5 2.6 3.4 4 3.4-5.1 3.5-2.9 3.4-15.7 3.4.7 3.4 10.5 3.5 4.5 3.4-17.6 3.4-21.3 3.5 17.4 3.4 5 3.4-4.1 3.5-9.1 3.4-28.6 3.4 12.3 3.4 3.1 3.5 4.2 3.4-5.6 3.4-23.7 3.5-25.7 3.4.3 3.4 7.7 3.5 2.6 3.4-8.3 3.4 3.9 3.4 4.3 3.5 2.4 3.4-10.1 3.4-20.5 3.5 1.7 3.4-8.3 3.4-3.2 3.4 2.7 3.5 9.1 3.4 1.3 3.4-5.9 3.5 14 3.4.7 3.4 1.3 3.5 1.3 3.4 8.4 3.4-.2 3.4 9.9 3.5-6.2 3.4-4.2 3.4-18.1 3.5 26.4 3.4-2.8 3.4-5.3 3.4 5.6 3.5-5.6 3.4.2 3.4-1.1 3.5-7.3 3.4-11.4 3.4-6.7 3.5 11.7 3.4 4.8 3.4-19 3.4 6.7 3.5-6.9 3.4-5.8 3.4 45.3 3.5 14.3 3.4.7 3.4 20.1 3.5 26.8 3.4-57.5 3.4-36.2 3.4 42.1 3.5 5.3 3.4-24.6 3.4-26.7 3.5 6.3 3.4 4.4 3.4 6.6 3.4-5.7 3.5-5.7 3.4 19.2 3.4 23.4 3.5 40.5 3.4 8 3.4 10 3.5 2.3 3.4.1 3.4-15.1 3.4 16.2 3.5 16.9 3.4 26.2 3.4-2.2 3.5 2.9 3.4 2.4 3.4 16 3.5 7.5 3.4-47.5 3.4-15.2 3.4-50.1 3.5-8.3 3.4-26 3.4-27.5 3.5 21.9 3.4 13 3.4.8 3.4-10 3.5 1 3.4-.7 3.4 5.9 3.5-12.7 3.4 3.3 3.4 4.6 3.5 3.9 3.4 1.1 3.4-.9 3.4-4.8 3.5-1.7 3.4 5.7 3.4-12.5 3.5-12.6 3.4-3.7 3.4-2.1 3.4-1.1 3.5-16.1 3.4-34.4 3.4 21.2 3.5-15.2 3.4-7.8 3.4 3.1 3.5-4.4 3.4-2.3 3.4-9.1 3.4 2.6 3.5-6.2 3.4-19.1 3.4-.4 3.5 35.9 3.4 9.6 3.4.1 3.5-10.4 3.4 5.8 3.4 1.1 3.4 9.6 3.5 6.7 3.4-19.4 3.4-17 3.5-3.2 3.4-17 3.4-1.5 3.4-13.4 3.5-37.3 3.4 7.6 3.4 13.8 3.5 3.9 3.4-11.5 3.4-15.7 3.5-21.6 3.4-4.8 3.4-13.1 3.4 52.7 3.5-32 3.4-24.6 3.4-5.1 3.5 4.9 3.4 4.6" stroke="#84AB73" stroke-opacity=".7" stroke-width=".5" fill="none" class="Western-Europe_3-border"/><path stroke-linecap="round" d="M52.6 498.3l3.4 2.3 3.4 1.9 3.5 3.5 3.4-15.8 3.4 2.7 3.4-9.6 3.5-37.3 3.4 30.8 3.4-4.6 3.5-2.6 3.4 9.2 3.4-20.3 3.4-3 3.5 18.4 3.4 3.1 3.4 10.5 3.5-14.9 3.4-1 3.4 2.9 3.5 6.4 3.4-9.2 3.4-5.8 3.4-23.1 3.5.3 3.4 3 3.4-12.3 3.5-.2 3.4-12.1 3.4-1.3 3.4 9.6 3.5 4.7 3.4-18.3 3.4-19.8 3.5 23 3.4 4.7 3.4-4.7 3.5-9.3 3.4-28.3 3.4 12.4 3.4 3.2 3.5 4.3 3.4-5.6 3.4-23.7 3.5-25.2 3.4.2 3.4 7.3 3.5 2.2 3.4-8.3 3.4 4.1 3.4 4.3 3.5 2.1 3.4-10.1 3.4-19.9 3.5 1.4 3.4-8.5 3.4-3.2 3.4 2.8 3.5 9 3.4 1.5 3.4-5.7 3.5 14.1 3.4.6 3.4 1.4 3.5 1.3 3.4 8.3 3.4-.2 3.4 10 3.5-6.2 3.4-4.4 3.4-18.3 3.5 26.5 3.4-7.6 3.4-6.3 3.4 5.4 3.5-5.3 3.4 1.3 3.4-1.7 3.5-7.3 3.4-12 3.4-7.4 3.5 12.4 3.4 4.9 3.4-20.1 3.4 6.3 3.5-7.6 3.4-5.9 3.4 46.9 3.5 14.5 3.4 1.6 3.4 23.3 3.5 26.3 3.4-58 3.4-39.9 3.4 43.3 3.5 3.7 3.4-25.7 3.4-26.7 3.5 6.6 3.4 3.9 3.4 8.3 3.4-5 3.5-5.4 3.4 22 3.4 23.9 3.5 41.4 3.4 8 3.4 9.8 3.5 2.1 3.4-.3 3.4-15.6 3.4 16.2 3.5 18.2 3.4 26.1 3.4-1.7 3.5 1.9 3.4 2 3.4 16.7 3.5 8.2 3.4-48.5 3.4-16.1 3.4-54.8 3.5-9.4 3.4-29.2 3.4-30.2 3.5 25.4 3.4 16.6 3.4-1.3 3.4-10.3 3.5 3.3h3.4l3.4 5.9 3.5-11.7 3.4 3 3.4 5.8 3.5 4.6 3.4 1.2 3.4-1 3.4-5 3.5-1 3.4 6.2 3.4-12.5 3.5-12.3 3.4-3.9 3.4-1.9 3.4-.3 3.5-16.1 3.4-35.5 3.4 22 3.5-14.7 3.4-7.6 3.4 3.4 3.5-4.3 3.4-2.1 3.4-9.3 3.4 2.4 3.5-5.9 3.4-19.8 3.4-.4 3.5 36.6 3.4 9.8h3.4l3.5-10.8 3.4 6.4 3.4 1.4 3.4 9.8 3.5 6.6 3.4-19.8 3.4-17.2 3.5-3.3 3.4-17 3.4-1.4 3.4-13.5 3.5-37.4 3.4 7.8 3.4 13.6 3.5 3.8 3.4-11.6 3.4-15.8 3.5-21.3 3.4-5.1 3.4-13.3 3.4 53.1 3.5-32.3 3.4-25 3.4-5.4 3.5 5.3 3.4 4.6" stroke="#2C7F35" stroke-opacity=".7" stroke-width=".5" fill="none" class="Western-Europe_4-border"/></g></g></g><g class="SourcesFooter" fill="#777"><g class="clickable" fill="#777"><text font-size="12.6" x="15" y="581.6"><tspan x="15" y="581.58">Source: Fouquin and Hugot (CEPII 2016)</tspan></text></g><text font-size="12.6" x="775.4" y="581.6"><tspan x="775.4" y="581.58"><a class="cclogo" href="http://creativecommons.org/licenses/by-sa/4.0/deed.en_US" target="_blank" fill="#777">CC BY-SA</a></tspan></text></g></g></svg>