<svg xmlns="http://www.w3.org/2000/svg" version="1.1" style="background-color:#fff;-webkit-font-smoothing:antialiased" width="850" height="600" font-family="'Helvetica Neue',Helvetica,Arial,sans-serif" font-size="18" text-rendering="optimizeLegibility"><g class="ChartTab"><g class="HeaderView"><g opacity=".8" transform="matrix(.27 0 0 .27 778 15)"><a xmlns:xlink="http://www.w3.org/1999/xlink" xlink:href="https://ourworldindata.org" target="_blank"><g><path fill="#1B2543" d="M0 0h211.2v130.1H0z"/><path fill="#E63912" d="M0 112.2h211.2v17.9H0z"/><g><path fill="none" d="M1.2 12.3h210.2v99.2H1.2z"/><path fill="#FFF" d="M37.8 32.2c0 12.7-7.7 19.4-17.1 19.4-9.7 0-16.6-7.5-16.6-18.7 0-11.7 7.3-19.3 17.1-19.3 10.1.1 16.6 7.7 16.6 18.6zm-28.6.6c0 7.9 4.3 14.9 11.8 14.9 7.5 0 11.8-6.9 11.8-15.3 0-7.3-3.8-14.9-11.8-14.9-7.9 0-11.8 7.3-11.8 15.3zM62.7 43.8c0 2.7.1 5.1.2 7.2h-4.3l-.3-4.3h-.1c-1.3 2.1-4 4.9-8.8 4.9-4.2 0-9.1-2.3-9.1-11.6V24.6h4.8v14.6c0 5 1.5 8.4 5.9 8.4 3.2 0 5.5-2.2 6.3-4.4.3-.7.4-1.6.4-2.5V24.6h4.8v19.2zM67.3 32.8c0-3.1-.1-5.8-.2-8.2h4.2l.2 5.2h.2c1.2-3.5 4.1-5.8 7.3-5.8.5 0 .9.1 1.4.2v4.5c-.5-.1-1-.2-1.6-.2-3.4 0-5.8 2.6-6.5 6.2-.1.7-.2 1.4-.2 2.2V51h-4.8V32.8zM95.4 51L86 14.2h5l4.4 18.6c1.1 4.6 2.1 9.2 2.7 12.7h.1c.6-3.7 1.8-8 3-12.8l4.9-18.5h5l4.5 18.7c1 4.4 2 8.7 2.6 12.6h.1c.8-4 1.8-8.1 3-12.7l4.9-18.5h4.9L120.6 51h-5L111 31.9c-1.1-4.7-1.9-8.3-2.4-12h-.1c-.7 3.7-1.5 7.3-2.8 12L100.4 51h-5zM154.9 37.6c0 9.8-6.8 14-13.2 14-7.2 0-12.7-5.2-12.7-13.6 0-8.8 5.8-14 13.1-14 7.7 0 12.8 5.5 12.8 13.6zm-21 .3c0 5.8 3.3 10.1 8 10.1 4.6 0 8-4.3 8-10.3 0-4.5-2.2-10.1-7.9-10.1s-8.1 5.2-8.1 10.3zM158.2 32.8c0-3.1-.1-5.8-.2-8.2h4.2l.2 5.2h.2c1.2-3.5 4.1-5.8 7.3-5.8.5 0 .9.1 1.4.2v4.5c-.5-.1-1-.2-1.6-.2-3.4 0-5.8 2.6-6.5 6.2-.1.7-.2 1.4-.2 2.2V51h-4.8V32.8zM173.5 12.3h4.8V51h-4.8V12.3zM206.5 12.3v31.9c0 2.3.1 5 .2 6.8h-4.3l-.2-4.6h-.2c-1.5 2.9-4.7 5.2-9 5.2-6.4 0-11.3-5.4-11.3-13.4-.1-8.8 5.4-14.2 11.9-14.2 4 0 6.8 1.9 8 4h.1V12.3h4.8zm-4.8 23.1c0-.6-.1-1.4-.2-2a7 7 0 00-6.9-5.6c-5 0-7.9 4.4-7.9 10.2 0 5.3 2.6 9.8 7.8 9.8 3.2 0 6.2-2.1 7.1-5.7.2-.7.2-1.3.2-2.1v-4.6zM42.8 64c.1 1.6-1.1 2.9-3.1 2.9-1.7 0-2.9-1.3-2.9-2.9 0-1.7 1.3-3 3-3 1.9 0 3 1.3 3 3zm-5.4 33.8V71.4h4.8v26.4h-4.8zM47.5 78.6c0-2.7-.1-5-.2-7.1h4.3l.3 4.4h.1c1.3-2.5 4.4-5 8.8-5 3.7 0 9.4 2.2 9.4 11.2v15.8h-4.8V82.6c0-4.3-1.6-7.8-6.1-7.8-3.2 0-5.6 2.2-6.5 4.9-.2.6-.3 1.4-.3 2.2v15.9h-4.8V78.6zM84 61.6c2.9-.4 6.3-.8 10.1-.8 6.8 0 11.7 1.6 14.9 4.6 3.3 3 5.2 7.3 5.2 13.2 0 6-1.9 10.9-5.3 14.3-3.4 3.4-9.1 5.3-16.3 5.3-3.4 0-6.2-.2-8.6-.4V61.6zm4.8 32.5c1.2.2 3 .3 4.8.3 10.2 0 15.7-5.7 15.7-15.6.1-8.7-4.9-14.2-14.9-14.2-2.5 0-4.3.2-5.6.5v29zM132.1 97.8l-.4-3.3h-.2a9.79 9.79 0 01-8.1 3.9c-5.4 0-8.1-3.8-8.1-7.6 0-6.4 5.7-9.9 15.9-9.8v-.5c0-2.2-.6-6.1-6-6.1-2.5 0-5 .8-6.9 2l-1.1-3.2c2.2-1.4 5.4-2.3 8.7-2.3 8.1 0 10.1 5.5 10.1 10.8v9.9c0 2.3.1 4.5.4 6.3h-4.3zm-.7-13.4c-5.3-.1-11.2.8-11.2 5.9 0 3.1 2.1 4.6 4.5 4.6 3.4 0 5.6-2.2 6.4-4.4.2-.5.3-1 .3-1.5v-4.6zM146.6 63.9v7.6h6.9v3.7h-6.9v14.2c0 3.3.9 5.1 3.6 5.1 1.3 0 2.2-.2 2.8-.3l.2 3.6c-.9.4-2.4.7-4.3.7-2.2 0-4-.7-5.2-2-1.4-1.4-1.9-3.8-1.9-6.9V75.1h-4.1v-3.7h4.1v-6.3l4.8-1.2zM171.4 97.8l-.4-3.3h-.2a9.79 9.79 0 01-8.1 3.9c-5.4 0-8.1-3.8-8.1-7.6 0-6.4 5.7-9.9 15.9-9.8v-.5c0-2.2-.6-6.1-6-6.1-2.5 0-5 .8-6.9 2l-1.1-3.2c2.2-1.4 5.4-2.3 8.7-2.3 8.1 0 10.1 5.5 10.1 10.8v9.9c0 2.3.1 4.5.4 6.3h-4.3zm-.7-13.4c-5.3-.1-11.2.8-11.2 5.9 0 3.1 2.1 4.6 4.5 4.6 3.4 0 5.6-2.2 6.4-4.4.2-.5.3-1 .3-1.5v-4.6z"/></g></g></a></g><a href="https://ourworldindata.org/grapher/extreme-poverty-vs-prevalence-of-underweight-children" target="_blank"><text font-size="23.4" x="15" y="33.7" fill="#555"><tspan x="15" y="33.72">Extreme poverty vs. prevalence of underweight children, 2017</tspan></text></a><text font-size="14.4" x="15" y="51.9" fill="#666"><tspan x="15" y="51.92">Prevalence of underweight children is the share of children younger than 5 whose weight for age is more than two</tspan><tspan x="15" y="67.76">standard deviations below the median for the international reference population. Extreme poverty is defined as living</tspan><tspan x="15" y="83.6">on less than 1.90 international-$ per day.</tspan></text></g><g><g class="AxisBoxView"><g class="HorizontalAxis"><text font-size="12.6" x="278.2" y="554"><tspan x="278.25" y="553.98">Share living in extreme poverty</tspan></text><text x="75.2" y="533.9" fill="#666" text-anchor="middle" font-size="16.2">0%</text><text x="158.2" y="533.9" fill="#666" text-anchor="middle" font-size="16.2">10%</text><text x="241.1" y="533.9" fill="#666" text-anchor="middle" font-size="16.2">20%</text><text x="324.1" y="533.9" fill="#666" text-anchor="middle" font-size="16.2">30%</text><text x="407.1" y="533.9" fill="#666" text-anchor="middle" font-size="16.2">40%</text><text x="490.1" y="533.9" fill="#666" text-anchor="middle" font-size="16.2">50%</text><text x="573.1" y="533.9" fill="#666" text-anchor="middle" font-size="16.2">60%</text><text x="656.1" y="533.9" fill="#666" text-anchor="middle" font-size="16.2">70%</text></g><g class="VerticalAxis"><text font-size="12.6" x="-415.2" y="25.1" transform="rotate(-90)"><tspan x="-415.19" y="25.08">Share of underweight children</tspan></text><text x="70.16" y="512.7" fill="#666" dominant-baseline="middle" text-anchor="end" font-size="16.2">0%</text><text x="70.16" y="458.7" fill="#666" dominant-baseline="middle" text-anchor="end" font-size="16.2">5%</text><text x="70.16" y="404.8" fill="#666" dominant-baseline="middle" text-anchor="end" font-size="16.2">10%</text><text x="70.16" y="350.8" fill="#666" dominant-baseline="middle" text-anchor="end" font-size="16.2">15%</text><text x="70.16" y="296.8" fill="#666" dominant-baseline="middle" text-anchor="end" font-size="16.2">20%</text><text x="70.16" y="242.9" fill="#666" dominant-baseline="middle" text-anchor="end" font-size="16.2">25%</text><text x="70.16" y="188.9" fill="#666" dominant-baseline="middle" text-anchor="end" font-size="16.2">30%</text><text x="70.16" y="134.9" fill="#666" dominant-baseline="middle" text-anchor="end" font-size="16.2">35%</text></g><g class="AxisGridLines"><path stroke="#ccc" d="M75.16 512.7H715"/><path stroke="#ddd" stroke-dasharray="3,2" d="M75.16 458.7H715M75.16 404.8H715M75.16 350.8H715M75.16 296.8H715M75.16 242.9H715M75.16 188.9H715M75.16 134.9H715"/></g><g class="AxisGridLines"><path stroke="#ccc" d="M75.2 512.7V105.8"/><path stroke="#ddd" stroke-dasharray="3,2" d="M158.2 512.7V105.8M241.1 512.7V105.8M324.1 512.7V105.8M407.1 512.7V105.8M490.1 512.7V105.8M573.1 512.7V105.8M656.1 512.7V105.8"/></g></g><g clip-path="url(#a)" font-family="Arial Narrow, Arial, sans-serif" class="PointsWithLabels clickable"><path fill="rgba(255,255,255,0)" d="M75.16 105.8H715v406.9H75.16z"/><defs><clipPath id="a"><path d="M65.16 95.8H725v426.9H65.16z"/></clipPath></defs><g class="key-China_0"><circle cx="81" cy="486" r="17.84" fill="#d14e5b" opacity=".8" stroke="#333" stroke-width=".7"/></g><g class="key-United-States_0"><circle cx="85" cy="507" r="8.78" fill="#4d824b" opacity=".8" stroke="#333" stroke-width=".7"/></g><g class="key-Indonesia_0"><circle cx="122" cy="297" r="7.78" fill="#d14e5b" opacity=".8" stroke="#333" stroke-width=".7"/></g><g class="key-Pakistan_0"><circle cx="108" cy="171" r="6.76" fill="#d14e5b" opacity=".8" stroke="#333" stroke-width=".7"/></g><g class="key-Bangladesh_0"><circle cx="198" cy="160" r="6.24" fill="#d14e5b" opacity=".8" stroke="#333" stroke-width=".7"/></g><g class="key-Mexico_0"><circle cx="95" cy="470" r="5.51" fill="#4d824b" opacity=".8" stroke="#fff" stroke-width=".7"/></g><g class="key-Vietnam_0"><circle cx="91" cy="360" r="4.92" fill="#d14e5b" opacity=".8" stroke="#333" stroke-width=".7"/></g><g class="key-Ethiopia_0"><circle cx="296" cy="258" r="4.86" fill="#5675c1" opacity=".8" stroke="#333" stroke-width=".7"/></g><g class="key-Egypt_0"><circle cx="86" cy="437" r="4.79" fill="#5675c1" opacity=".8" stroke="#333" stroke-width=".7"/></g><g class="key-Turkey_0"><circle cx="76" cy="492" r="4.54" fill="#d14e5b" opacity=".8" stroke="#fff" stroke-width=".7"/></g><g class="key-Democratic-Republic-of-Congo_0"><circle cx="715" cy="260" r="4.44" fill="#5675c1" opacity=".8" stroke="#333" stroke-width=".7"/></g><g class="key-Thailand_0"><circle cx="75" cy="440" r="4.41" fill="#d14e5b" opacity=".8" stroke="#fff" stroke-width=".7"/></g><g class="key-South-Africa_0"><circle cx="232" cy="449" r="3.87" fill="#5675c1" opacity=".8" stroke="#333" stroke-width=".7"/></g><g class="key-Myanmar_0"><circle cx="128" cy="308" r="3.82" fill="#d14e5b" opacity=".8" stroke="#333" stroke-width=".7"/></g><g class="key-Kenya_0"><circle cx="380" cy="394" r="3.66" fill="#5675c1" opacity=".8" stroke="#333" stroke-width=".7"/></g><g class="key-Uganda_0"><circle cx="420" cy="399" r="3.42" fill="#5675c1" opacity=".8" stroke="#333" stroke-width=".7"/></g><g class="key-Peru_0"><circle cx="104" cy="479" r="3.19" fill="#69c487" opacity=".8" stroke="#fff" stroke-width=".7"/></g><g class="key-Malaysia_0"><circle cx="75" cy="364" r="3.18" fill="#d14e5b" opacity=".8" stroke="#fff" stroke-width=".7"/></g><g class="key-Ghana_0"><circle cx="174" cy="394" r="3.04" fill="#5675c1" opacity=".8" stroke="#333" stroke-width=".7"/></g><g class="key-Sri-Lanka_0"><circle cx="81" cy="291" r="2.85" fill="#d14e5b" opacity=".8" stroke="#fff" stroke-width=".7"/></g><g class="key-Cote-d__0027Ivoire_0"><circle cx="309" cy="374" r="2.84" fill="#5675c1" opacity=".8" stroke="#333" stroke-width=".7"/></g><g class="key-Cameroon_0"><circle cx="272" cy="353" r="2.83" fill="#5675c1" opacity=".8" stroke="#333" stroke-width=".7"/></g><g class="key-Burkina-Faso_0"><circle cx="437" cy="305" r="2.71" fill="#5675c1" opacity=".8" stroke="#333" stroke-width=".7"/></g><g class="key-Chile_0"><circle cx="86" cy="507" r="2.69" fill="#69c487" opacity=".8" stroke="#fff" stroke-width=".7"/></g><g class="key-Niger_0"><circle cx="444" cy="170" r="2.68" fill="#5675c1" opacity=".8" stroke="#333" stroke-width=".7"/></g><g class="key-Kazakhstan_0"><circle cx="75" cy="491" r="2.65" fill="#d14e5b" opacity=".8" stroke="#fff" stroke-width=".7"/></g><g class="key-Guatemala_0"><circle cx="147" cy="376" r="2.6" fill="#4d824b" opacity=".8" stroke="#333" stroke-width=".7"/></g><g class="key-Ecuador_0"><circle cx="105" cy="457" r="2.58" fill="#69c487" opacity=".8" stroke="#fff" stroke-width=".7"/></g><g class="key-Zambia_0"><circle cx="552" cy="353" r="2.55" fill="#5675c1" opacity=".8" stroke="#333" stroke-width=".7"/></g><g class="key-Rwanda_0"><circle cx="539" cy="412" r="2.42" fill="#5675c1" opacity=".8" stroke="#333" stroke-width=".7"/></g><g class="key-Guinea_0"><circle cx="368" cy="315" r="2.38" fill="#5675c1" opacity=".8" stroke="#333" stroke-width=".7"/></g><g class="key-Bolivia_0"><circle cx="134" cy="476" r="2.37" fill="#69c487" opacity=".8" stroke="#333" stroke-width=".7"/></g><g class="key-Haiti_0"><circle cx="270" cy="387" r="2.36" fill="#4d824b" opacity=".8" stroke="#333" stroke-width=".7"/></g><g class="key-Dominican-Republic_0"><circle cx="88" cy="469" r="2.36" fill="#4d824b" opacity=".8" stroke="#fff" stroke-width=".7"/></g><g class="key-Benin_0"><circle cx="486" cy="318" r="2.33" fill="#5675c1" opacity=".8" stroke="#333" stroke-width=".7"/></g><g class="key-Burundi_0"><circle cx="670" cy="196" r="2.29" fill="#5675c1" opacity=".8" stroke="#333" stroke-width=".7"/></g><g class="key-Honduras_0"><circle cx="207" cy="436" r="2.25" fill="#4d824b" opacity=".8" stroke="#333" stroke-width=".7"/></g><g class="key-Tajikistan_0"><circle cx="115" cy="369" r="2.2" fill="#d14e5b" opacity=".8" stroke="#fff" stroke-width=".7"/></g><g class="key-Paraguay_0"><circle cx="89" cy="498" r="2.18" fill="#69c487" opacity=".8" stroke="#fff" stroke-width=".7"/></g><g class="key-Togo_0"><circle cx="483" cy="337" r="2.16" fill="#5675c1" opacity=".8" stroke="#333" stroke-width=".7"/></g><g class="key-El-Salvador_0"><circle cx="93" cy="458" r="2.15" fill="#4d824b" opacity=".8" stroke="#fff" stroke-width=".7"/></g><g class="key-Nicaragua_0"><circle cx="101" cy="463" r="2.14" fill="#4d824b" opacity=".8" stroke="#fff" stroke-width=".7"/></g><g class="key-Kyrgyzstan_0"><circle cx="86" cy="482" r="2.11" fill="#d14e5b" opacity=".8" stroke="#fff" stroke-width=".7"/></g><g class="key-Liberia_0"><circle cx="395" cy="347" r="2.05" fill="#5675c1" opacity=".8" stroke="#333" stroke-width=".7"/></g><g class="key-Bosnia-and-Herzegovina_0"><circle cx="76" cy="496" r="2.01" fill="#ffd336" opacity=".8" stroke="#fff" stroke-width=".7"/></g><g class="key-Mauritania_0"><circle cx="125" cy="244" r="2.01" fill="#5675c1" opacity=".8" stroke="#333" stroke-width=".7"/></g><g class="key-Moldova_0"><circle cx="76" cy="489" r="2" fill="#ffd336" opacity=".8" stroke="#fff" stroke-width=".7"/></g><g class="key-Armenia_0"><circle cx="90" cy="484" r="1.98" fill="#d14e5b" opacity=".8" stroke="#333" stroke-width=".7"/></g><g class="key-Mongolia_0"><circle cx="79" cy="495" r="1.96" fill="#d14e5b" opacity=".8" stroke="#fff" stroke-width=".7"/></g><g class="key-Namibia_0"><circle cx="186" cy="370" r="1.93" fill="#5675c1" opacity=".8" stroke="#fff" stroke-width=".7"/></g><g class="key-Gambia_0"><circle cx="159" cy="335" r="1.9" fill="#5675c1" opacity=".8" stroke="#333" stroke-width=".7"/></g><g class="key-Gabon_0"><circle cx="103" cy="442" r="1.88" fill="#5675c1" opacity=".8" stroke="#fff" stroke-width=".7"/></g><g class="key-Djibouti_0"><circle cx="261" cy="191" r="1.84" fill="#5675c1" opacity=".8" stroke="#333" stroke-width=".7"/></g><g class="key-Comoros_0"><circle cx="225" cy="330" r="1.83" fill="#5675c1" opacity=".8" stroke="#333" stroke-width=".7"/></g><g class="key-Montenegro_0"><circle cx="75" cy="501" r="1.82" fill="#ffd336" opacity=".8" stroke="#fff" stroke-width=".7"/></g><g class="key-Solomon-Islands_0"><circle cx="283" cy="345" r="1.82" fill="#a652ba" opacity=".8" stroke="#fff" stroke-width=".7"/></g><g class="key-Seychelles_0"><circle cx="84" cy="473" r="1.79" fill="#5675c1" opacity=".8" stroke="#fff" stroke-width=".7"/></g><g class="key-East-Asia-__0026-Pacific_0"><circle cx="94" cy="449" r="1.78" fill="#000" opacity=".8" stroke="#333" stroke-width=".7"/></g><g class="key-High-income_0"><circle cx="81" cy="503" r="1.78" fill="#000" opacity=".8" stroke="#fff" stroke-width=".7"/></g><g class="key-Latin-America-__0026-Caribbean_0"><circle cx="109" cy="482" r="1.78" fill="#000" opacity=".8" stroke="#fff" stroke-width=".7"/></g><g class="key-Low-__0026-middle-income_0"><circle cx="173" cy="350" r="1.78" fill="#000" opacity=".8" stroke="#fff" stroke-width=".7"/></g><g class="key-Low-income_0"><circle cx="439" cy="306" r="1.78" fill="#000" opacity=".8" stroke="#fff" stroke-width=".7"/></g><g class="key-Lower-middle-income_0"><circle cx="190" cy="286" r="1.78" fill="#000" opacity=".8" stroke="#333" stroke-width=".7"/></g><g class="key-South-Asia_0"><circle cx="209" cy="198" r="1.78" fill="#000" opacity=".8" stroke="#fff" stroke-width=".7"/></g><g class="key-Upper-middle-income_0"><circle cx="89" cy="491" r="1.78" fill="#000" opacity=".8" stroke="#fff" stroke-width=".7"/></g><g class="key-World_0"><circle cx="158" cy="367" r="1.78" fill="#000" opacity=".8" stroke="#fff" stroke-width=".7"/></g><g class="key-Middle-East-__0026-North-Africa_0"><circle cx="116" cy="456" r="1.78" fill="#000" opacity=".8" stroke="#fff" stroke-width=".7"/></g><g class="key-Sub__002dSaharan-Africa_0"><circle cx="416" cy="314" r="1.78" fill="#000" opacity=".8" stroke="#fff" stroke-width=".7"/></g><g class="key-Yemen_0"><circle cx="231" cy="336" r="1.78" fill="#d14e5b" opacity=".8" stroke="#fff" stroke-width=".7"/></g><g class="key-Timor_0"><circle cx="326" cy="105" r="1.78" fill="#d14e5b" opacity=".8" stroke="#333" stroke-width=".7"/></g><g class="key-Palestine_0"><circle cx="83" cy="497" r="1.78" fill="#d14e5b" opacity=".8" stroke="#fff" stroke-width=".7"/></g><g fill="#333" class="backgroundLabels"><text x="81" y="467.16" font-size="14.3">China</text><text x="85" y="497.22" font-size="11.77">United States</text><text x="122" y="288.22" font-size="11.6">Indonesia</text><text x="108" y="163.24" font-size="11.44">Pakistan</text><text x="198" y="152.76" font-size="11.37">Bangladesh</text><text x="91" y="354.08" font-size="11.22">Vietnam</text><text x="296" y="252.14" font-size="11.21">Ethiopia</text><text x="86" y="431.21" font-size="11.21">Egypt</text><text x="563.04" y="254.56" font-size="11.17">Democratic Republic of Congo</text><text x="232" y="444.13" font-size="11.12">South Africa</text><text x="128" y="303.18" font-size="11.12">Myanmar</text><text x="380" y="389.34" font-size="11.11">Kenya</text><text x="420" y="394.58" font-size="11.09">Uganda</text><text x="174" y="389.96" font-size="11.06">Ghana</text><text x="309" y="370.16" font-size="11.05">Cote d&apos;Ivoire</text><text x="272" y="349.17" font-size="11.05">Cameroon</text><text x="437" y="301.29" font-size="11.04">Burkina Faso</text><text x="444" y="166.32" font-size="11.04">Niger</text><text x="147" y="372.4" font-size="11.04">Guatemala</text><text x="552" y="349.45" font-size="11.03">Zambia</text><text x="539" y="408.58" font-size="11.03">Rwanda</text><text x="368" y="311.62" font-size="11.03">Guinea</text><text x="134" y="472.63" font-size="11.03">Bolivia</text><text x="270" y="383.64" font-size="11.03">Haiti</text><text x="486" y="314.67" font-size="11.02">Benin</text><text x="670" y="192.71" font-size="11.02">Burundi</text><text x="207" y="432.75" font-size="11.02">Honduras</text><text x="483" y="333.84" font-size="11.02">Togo</text><text x="395" y="343.95" font-size="11.01">Liberia</text><text x="125" y="240.99" font-size="11.01">Mauritania</text><text x="90" y="481.02" font-size="11.01">Armenia</text><text x="159" y="332.1" font-size="11">Gambia</text><text x="261" y="188.16" font-size="11">Djibouti</text><text x="225" y="327.17" font-size="11">Comoros</text><text x="94" y="446.22" font-size="11">East Asia &amp; Pacific</text><text x="190" y="283.22" font-size="11">Lower middle income</text><text x="326" y="116.8" font-size="11">Timor</text></g></g><g class="ScatterColorLegend clickable" cursor="pointer"><g class="legendMark">,<path fill="#5675c1" d="M735 108.8h6v6h-6z"/>,<text font-size="12.6" x="746" y="115.9"><tspan x="746" y="115.88">Africa</tspan></text></g><g class="legendMark">,<path fill="#d14e5b" d="M735 126.4h6v6h-6z"/>,<text font-size="12.6" x="746" y="133.5"><tspan x="746" y="133.48">Asia</tspan></text></g><g class="legendMark">,<path fill="#ffd336" d="M735 144h6v6h-6z"/>,<text font-size="12.6" x="746" y="151.1"><tspan x="746" y="151.08">Europe</tspan></text></g><g class="legendMark">,<path fill="#4d824b" d="M735 161.6h6v6h-6z"/>,<text font-size="12.6" x="746" y="168.7"><tspan x="746" y="168.68">North America</tspan></text></g><g class="legendMark">,<path fill="#a652ba" d="M735 179.2h6v6h-6z"/>,<text font-size="12.6" x="746" y="186.3"><tspan x="746" y="186.28">Oceania</tspan></text></g><g class="legendMark">,<path fill="#69c487" d="M735 196.8h6v6h-6z"/>,<text font-size="12.6" x="746" y="203.9"><tspan x="746" y="203.88">South America</tspan></text></g></g></g><g class="SourcesFooter" fill="#777"><g class="clickable" fill="#777"><text font-size="12.6" x="15" y="581.6"><tspan x="15" y="581.58">Source: World Bank</tspan></text></g><text font-size="12.6" x="471.1" y="581.6"><tspan x="471.11" y="581.58"><a target="_blank" href="https://ourworldindata.org/hunger-and-undernourishment/" fill="#777">OurWorldInData.org/hunger-and-undernourishment/</a> • <a class="cclogo" href="http://creativecommons.org/licenses/by-sa/4.0/deed.en_US" target="_blank" fill="#777">CC BY-SA</a></tspan></text></g></g></svg>