<svg xmlns="http://www.w3.org/2000/svg" version="1.1" style="background-color:#fff;-webkit-font-smoothing:antialiased" width="850" height="600" font-family="'Helvetica Neue',Helvetica,Arial,sans-serif" font-size="18" text-rendering="optimizeLegibility"><g class="ChartTab"><g class="HeaderView"><g opacity=".8" transform="matrix(.31 0 0 .31 770 15)"><a xmlns:xlink="http://www.w3.org/1999/xlink" xlink:href="https://ourworldindata.org" target="_blank"><g><path fill="#1B2543" d="M0 0h211.2v130.1H0z"/><path fill="#E63912" d="M0 112.2h211.2v17.9H0z"/><g><path fill="none" d="M1.2 12.3h210.2v99.2H1.2z"/><path fill="#FFF" d="M37.8 32.2c0 12.7-7.7 19.4-17.1 19.4-9.7 0-16.6-7.5-16.6-18.7 0-11.7 7.3-19.3 17.1-19.3 10.1.1 16.6 7.7 16.6 18.6zm-28.6.6c0 7.9 4.3 14.9 11.8 14.9 7.5 0 11.8-6.9 11.8-15.3 0-7.3-3.8-14.9-11.8-14.9-7.9 0-11.8 7.3-11.8 15.3zM62.7 43.8c0 2.7.1 5.1.2 7.2h-4.3l-.3-4.3h-.1c-1.3 2.1-4 4.9-8.8 4.9-4.2 0-9.1-2.3-9.1-11.6V24.6h4.8v14.6c0 5 1.5 8.4 5.9 8.4 3.2 0 5.5-2.2 6.3-4.4.3-.7.4-1.6.4-2.5V24.6h4.8v19.2zM67.3 32.8c0-3.1-.1-5.8-.2-8.2h4.2l.2 5.2h.2c1.2-3.5 4.1-5.8 7.3-5.8.5 0 .9.1 1.4.2v4.5c-.5-.1-1-.2-1.6-.2-3.4 0-5.8 2.6-6.5 6.2-.1.7-.2 1.4-.2 2.2V51h-4.8V32.8zM95.4 51L86 14.2h5l4.4 18.6c1.1 4.6 2.1 9.2 2.7 12.7h.1c.6-3.7 1.8-8 3-12.8l4.9-18.5h5l4.5 18.7c1 4.4 2 8.7 2.6 12.6h.1c.8-4 1.8-8.1 3-12.7l4.9-18.5h4.9L120.6 51h-5L111 31.9c-1.1-4.7-1.9-8.3-2.4-12h-.1c-.7 3.7-1.5 7.3-2.8 12L100.4 51h-5zM154.9 37.6c0 9.8-6.8 14-13.2 14-7.2 0-12.7-5.2-12.7-13.6 0-8.8 5.8-14 13.1-14 7.7 0 12.8 5.5 12.8 13.6zm-21 .3c0 5.8 3.3 10.1 8 10.1 4.6 0 8-4.3 8-10.3 0-4.5-2.2-10.1-7.9-10.1s-8.1 5.2-8.1 10.3zM158.2 32.8c0-3.1-.1-5.8-.2-8.2h4.2l.2 5.2h.2c1.2-3.5 4.1-5.8 7.3-5.8.5 0 .9.1 1.4.2v4.5c-.5-.1-1-.2-1.6-.2-3.4 0-5.8 2.6-6.5 6.2-.1.7-.2 1.4-.2 2.2V51h-4.8V32.8zM173.5 12.3h4.8V51h-4.8V12.3zM206.5 12.3v31.9c0 2.3.1 5 .2 6.8h-4.3l-.2-4.6h-.2c-1.5 2.9-4.7 5.2-9 5.2-6.4 0-11.3-5.4-11.3-13.4-.1-8.8 5.4-14.2 11.9-14.2 4 0 6.8 1.9 8 4h.1V12.3h4.8zm-4.8 23.1c0-.6-.1-1.4-.2-2a7 7 0 00-6.9-5.6c-5 0-7.9 4.4-7.9 10.2 0 5.3 2.6 9.8 7.8 9.8 3.2 0 6.2-2.1 7.1-5.7.2-.7.2-1.3.2-2.1v-4.6zM42.8 64c.1 1.6-1.1 2.9-3.1 2.9-1.7 0-2.9-1.3-2.9-2.9 0-1.7 1.3-3 3-3 1.9 0 3 1.3 3 3zm-5.4 33.8V71.4h4.8v26.4h-4.8zM47.5 78.6c0-2.7-.1-5-.2-7.1h4.3l.3 4.4h.1c1.3-2.5 4.4-5 8.8-5 3.7 0 9.4 2.2 9.4 11.2v15.8h-4.8V82.6c0-4.3-1.6-7.8-6.1-7.8-3.2 0-5.6 2.2-6.5 4.9-.2.6-.3 1.4-.3 2.2v15.9h-4.8V78.6zM84 61.6c2.9-.4 6.3-.8 10.1-.8 6.8 0 11.7 1.6 14.9 4.6 3.3 3 5.2 7.3 5.2 13.2 0 6-1.9 10.9-5.3 14.3-3.4 3.4-9.1 5.3-16.3 5.3-3.4 0-6.2-.2-8.6-.4V61.6zm4.8 32.5c1.2.2 3 .3 4.8.3 10.2 0 15.7-5.7 15.7-15.6.1-8.7-4.9-14.2-14.9-14.2-2.5 0-4.3.2-5.6.5v29zM132.1 97.8l-.4-3.3h-.2a9.79 9.79 0 01-8.1 3.9c-5.4 0-8.1-3.8-8.1-7.6 0-6.4 5.7-9.9 15.9-9.8v-.5c0-2.2-.6-6.1-6-6.1-2.5 0-5 .8-6.9 2l-1.1-3.2c2.2-1.4 5.4-2.3 8.7-2.3 8.1 0 10.1 5.5 10.1 10.8v9.9c0 2.3.1 4.5.4 6.3h-4.3zm-.7-13.4c-5.3-.1-11.2.8-11.2 5.9 0 3.1 2.1 4.6 4.5 4.6 3.4 0 5.6-2.2 6.4-4.4.2-.5.3-1 .3-1.5v-4.6zM146.6 63.9v7.6h6.9v3.7h-6.9v14.2c0 3.3.9 5.1 3.6 5.1 1.3 0 2.2-.2 2.8-.3l.2 3.6c-.9.4-2.4.7-4.3.7-2.2 0-4-.7-5.2-2-1.4-1.4-1.9-3.8-1.9-6.9V75.1h-4.1v-3.7h4.1v-6.3l4.8-1.2zM171.4 97.8l-.4-3.3h-.2a9.79 9.79 0 01-8.1 3.9c-5.4 0-8.1-3.8-8.1-7.6 0-6.4 5.7-9.9 15.9-9.8v-.5c0-2.2-.6-6.1-6-6.1-2.5 0-5 .8-6.9 2l-1.1-3.2c2.2-1.4 5.4-2.3 8.7-2.3 8.1 0 10.1 5.5 10.1 10.8v9.9c0 2.3.1 4.5.4 6.3h-4.3zm-.7-13.4c-5.3-.1-11.2.8-11.2 5.9 0 3.1 2.1 4.6 4.5 4.6 3.4 0 5.6-2.2 6.4-4.4.2-.5.3-1 .3-1.5v-4.6z"/></g></g></a></g><a href="https://ourworldindata.org/grapher/fatality-rates-in-the-us-due-to-weather-events" target="_blank"><text font-size="27" x="15" y="36.6" fill="#555"><tspan x="15" y="36.6">Fatality rates in the US due to weather events</tspan></text></a><text font-size="14.4" x="15" y="55.5" fill="#666"><tspan x="15" y="55.52">Annual death rate per million.</tspan></text></g><g class="LineChart"><defs><clipPath id="a"><path d="M19.07 0h830v956.2h-830z"/></clipPath></defs><g class="AxisBoxView"><g class="HorizontalAxis" fill="#666" text-anchor="middle" font-size="16.2"><text x="29.1" y="556.5">1900</text><text x="152.1" y="556.5">1920</text><text x="275.1" y="556.5">1940</text><text x="398" y="556.5">1960</text><text x="521" y="556.5">1980</text><text x="644" y="556.5">2000</text><text x="736.3" y="556.5">2015</text></g><g class="VerticalAxis" fill="#666" dominant-baseline="middle" text-anchor="end" font-size="16.2"><text x="24.07" y="535.3">0</text><text x="24.07" y="463">1</text><text x="24.07" y="390.7">2</text><text x="24.07" y="318.4">3</text><text x="24.07" y="246.1">4</text><text x="24.07" y="173.8">5</text><text x="24.07" y="101.5">6</text></g><g class="AxisGridLines"><path stroke="#ccc" d="M29.07 535.3h707.2"/><path stroke="#ddd" stroke-dasharray="3,2" d="M29.07 463h707.2M29.07 390.7h707.2M29.07 318.4h707.2M29.07 246.1h707.2M29.07 173.8h707.2M29.07 101.5h707.2"/></g><g class="AxisGridLines" stroke="#ddd" stroke-dasharray="3,2"><path d="M29.1 535.3V78.4M152.1 535.3V78.4M275.1 535.3V78.4M398 535.3V78.4M521 535.3V78.4M644 535.3V78.4"/></g></g><g clip-path="url(#a)"><g class="HeightedLegend clickable"><g class="legendMark"><path fill="#3360a9" d="M746.27 526.85h10v2.5h-10z"/><text font-size="14.4" x="761.3" y="532.4" fill="#333"><tspan x="761.27" y="532.42">Hurricane</tspan></text></g><g class="legendMark"><path fill="#ca2628" d="M746.27 512.45h10v2.5h-10z"/><text font-size="14.4" x="761.3" y="518" fill="#333"><tspan x="761.27" y="518.02">Lightning</tspan></text></g><g class="legendMark"><path fill="#34983f" d="M746.27 498.05h10v2.5h-10z"/><text font-size="14.4" x="761.3" y="503.6" fill="#333"><tspan x="761.27" y="503.62">Winter</tspan></text></g><g class="legendMark"><path fill="#f6a324" d="M746.27 483.65h10v2.5h-10z"/><text font-size="14.4" x="761.3" y="489.2" fill="#333"><tspan x="761.27" y="489.22">Tornado</tspan></text></g><g class="legendMark"><path fill="#a652ba" d="M746.27 469.25h10v2.5h-10z"/><text font-size="14.4" x="761.3" y="474.8" fill="#333"><tspan x="761.27" y="474.82">Heat</tspan></text></g><g class="legendMark"><path fill="#2a939b" d="M746.27 454.85h10v2.5h-10z"/><text font-size="14.4" x="761.3" y="460.4" fill="#333"><tspan x="761.27" y="460.42">Cold</tspan></text></g><g class="legendMark"><path fill="#e6332e" d="M746.27 440.45h10v2.5h-10z"/><text font-size="14.4" x="761.3" y="446" fill="#333"><tspan x="761.27" y="446.02">Rip Current</tspan></text></g><g class="legendMark"><path fill="#9ecc8a" d="M746.27 426.05h10v2.5h-10z"/><text font-size="14.4" x="761.3" y="431.6" fill="#333"><tspan x="761.27" y="431.62">Wind</tspan></text></g><g class="legendMark"><path fill="#ffd53e" d="M746.27 411.65h10v2.5h-10z"/><text font-size="14.4" x="761.3" y="417.2" fill="#333"><tspan x="761.27" y="417.22">Flood</tspan></text></g></g><g class="Lines"><g class="key-United-States_0"><path stroke="#9ecc8a" stroke-linecap="round" d="M613 513l6 8 7-6 6 3 6 1 6 3 6 5 6-3 7 1h6l6 5 6-4 6 1 6-8 6 5 7 4 6-10 6-7 6 16 6-4 6-2" fill="none" stroke-width="1.5"/><g fill="#9ecc8a"><circle cx="613" cy="513" r="2"/><circle cx="619" cy="521" r="2"/><circle cx="626" cy="515" r="2"/><circle cx="632" cy="518" r="2"/><circle cx="638" cy="519" r="2"/><circle cx="644" cy="522" r="2"/><circle cx="650" cy="527" r="2"/><circle cx="656" cy="524" r="2"/><circle cx="663" cy="525" r="2"/><circle cx="669" cy="525" r="2"/><circle cx="675" cy="530" r="2"/><circle cx="681" cy="526" r="2"/><circle cx="687" cy="527" r="2"/><circle cx="693" cy="519" r="2"/><circle cx="699" cy="524" r="2"/><circle cx="706" cy="528" r="2"/><circle cx="712" cy="518" r="2"/><circle cx="718" cy="511" r="2"/><circle cx="724" cy="527" r="2"/><circle cx="730" cy="523" r="2"/><circle cx="736" cy="521" r="2"/></g></g><g class="key-United-States_1"><path stroke="#e6332e" stroke-linecap="round" d="M656 525h7l6 2h6l6 3 6-8 6-3 6 3 7-2 6 6h6l6-5 6 1 6 1" fill="none" stroke-width="1.5"/><g fill="#e6332e"><circle cx="656" cy="525" r="2"/><circle cx="663" cy="525" r="2"/><circle cx="669" cy="527" r="2"/><circle cx="675" cy="527" r="2"/><circle cx="681" cy="530" r="2"/><circle cx="687" cy="522" r="2"/><circle cx="693" cy="519" r="2"/><circle cx="699" cy="522" r="2"/><circle cx="706" cy="520" r="2"/><circle cx="712" cy="526" r="2"/><circle cx="718" cy="526" r="2"/><circle cx="724" cy="521" r="2"/><circle cx="730" cy="522" r="2"/><circle cx="736" cy="523" r="2"/></g></g><g class="key-United-States_2"><path stroke="#34983f" stroke-linecap="round" d="M558 515l6 11 6-7 6-2 7 4 6 1 6-3 6-2 6 10 6 4 6-19 7-1 6 7 6 7h6l6 6h6l7-3h6l6-1 6 4 6 1 6-2 6-1 7 1 6 1 6-2 6-3h6l6 3" fill="none" stroke-width="1.5"/><g fill="#34983f"><circle cx="558" cy="515" r="2"/><circle cx="564" cy="526" r="2"/><circle cx="570" cy="519" r="2"/><circle cx="576" cy="517" r="2"/><circle cx="583" cy="521" r="2"/><circle cx="589" cy="522" r="2"/><circle cx="595" cy="519" r="2"/><circle cx="601" cy="517" r="2"/><circle cx="607" cy="527" r="2"/><circle cx="613" cy="531" r="2"/><circle cx="619" cy="512" r="2"/><circle cx="626" cy="511" r="2"/><circle cx="632" cy="518" r="2"/><circle cx="638" cy="525" r="2"/><circle cx="644" cy="525" r="2"/><circle cx="650" cy="531" r="2"/><circle cx="656" cy="531" r="2"/><circle cx="663" cy="528" r="2"/><circle cx="669" cy="528" r="2"/><circle cx="675" cy="527" r="2"/><circle cx="681" cy="531" r="2"/><circle cx="687" cy="532" r="2"/><circle cx="693" cy="530" r="2"/><circle cx="699" cy="529" r="2"/><circle cx="706" cy="530" r="2"/><circle cx="712" cy="531" r="2"/><circle cx="718" cy="529" r="2"/><circle cx="724" cy="526" r="2"/><circle cx="730" cy="526" r="2"/><circle cx="736" cy="529" r="2"/></g></g><g class="key-United-States_3"><path stroke="#2a939b" stroke-linecap="round" d="M570 530l6-30 7 32h6l6-1 6-1 6-9 6 8 6-10 7 3 6 10 6 2 6-5 6 5 6-1 7-3 6-1h6l6 6 6-11 6 1 6 3 7-1 6 2 6 5 6-4 6-4 6-3" fill="none" stroke-width="1.5"/><g fill="#2a939b"><circle cx="570" cy="530" r="2"/><circle cx="576" cy="500" r="2"/><circle cx="583" cy="532" r="2"/><circle cx="589" cy="532" r="2"/><circle cx="595" cy="531" r="2"/><circle cx="601" cy="530" r="2"/><circle cx="607" cy="521" r="2"/><circle cx="613" cy="529" r="2"/><circle cx="619" cy="519" r="2"/><circle cx="626" cy="522" r="2"/><circle cx="632" cy="532" r="2"/><circle cx="638" cy="534" r="2"/><circle cx="644" cy="529" r="2"/><circle cx="650" cy="534" r="2"/><circle cx="656" cy="533" r="2"/><circle cx="663" cy="530" r="2"/><circle cx="669" cy="529" r="2"/><circle cx="675" cy="529" r="2"/><circle cx="681" cy="535" r="2"/><circle cx="687" cy="524" r="2"/><circle cx="693" cy="525" r="2"/><circle cx="699" cy="528" r="2"/><circle cx="706" cy="527" r="2"/><circle cx="712" cy="529" r="2"/><circle cx="718" cy="534" r="2"/><circle cx="724" cy="530" r="2"/><circle cx="730" cy="526" r="2"/><circle cx="736" cy="523" r="2"/></g></g><g class="key-United-States_4"><path stroke="#a652ba" stroke-linecap="round" d="M558 523l6 1 6-1 6 11 7-8 6-1 6 8 6-3 6-3 6-269 6 268 7-12 6-24 6-85 6 90 6-2h6l7 33 6 8 6-37 6-23 6 36 6 8 6 7 7-22 6-15 6 12 6 14 6 17 6-6" fill="none" stroke-width="1.5"/><g fill="#a652ba"><circle cx="558" cy="523" r="2"/><circle cx="564" cy="524" r="2"/><circle cx="570" cy="523" r="2"/><circle cx="576" cy="534" r="2"/><circle cx="583" cy="526" r="2"/><circle cx="589" cy="525" r="2"/><circle cx="595" cy="533" r="2"/><circle cx="601" cy="530" r="2"/><circle cx="607" cy="527" r="2"/><circle cx="613" cy="258" r="2"/><circle cx="619" cy="526" r="2"/><circle cx="626" cy="514" r="2"/><circle cx="632" cy="490" r="2"/><circle cx="638" cy="405" r="2"/><circle cx="644" cy="495" r="2"/><circle cx="650" cy="493" r="2"/><circle cx="656" cy="493" r="2"/><circle cx="663" cy="526" r="2"/><circle cx="669" cy="534" r="2"/><circle cx="675" cy="497" r="2"/><circle cx="681" cy="474" r="2"/><circle cx="687" cy="510" r="2"/><circle cx="693" cy="518" r="2"/><circle cx="699" cy="525" r="2"/><circle cx="706" cy="503" r="2"/><circle cx="712" cy="488" r="2"/><circle cx="718" cy="500" r="2"/><circle cx="724" cy="514" r="2"/><circle cx="730" cy="531" r="2"/><circle cx="736" cy="525" r="2"/></g></g><g class="key-United-States_5"><path stroke="#3360a9" stroke-linecap="round" d="M275 507l6 23 6 1 7-4 6-25 6 30 6 3 6-26 6 25 6-1 7-7 6 9 6-1h6l6-84 6-10 6 86 7-157 6 166 6-9 6-17 6 8 6 17 7-3 6-14 6-10 6 8 6 14 6 3 6-88 7 87 6 2 6-39 6 40 6 1 6-1 6-2 7 3 6-11 6 4 6 6 6 1h6l7-6 6 5 6-8 6 6 6 3 6-2 6-9 7 11 6-5 6-2 6 7 6-2 6-2 6-6 7 10 6-2 6-3 6 5 6-6 6-6 7 9 6-5 6-240 6 248h6l6-3 6 3h7l6-2 6 1 6 1h6l6-3" fill="none" stroke-width="1.5"/><g fill="#3360a9"><circle cx="275" cy="507" r="2"/><circle cx="281" cy="530" r="2"/><circle cx="287" cy="531" r="2"/><circle cx="294" cy="527" r="2"/><circle cx="300" cy="502" r="2"/><circle cx="306" cy="532" r="2"/><circle cx="312" cy="535" r="2"/><circle cx="318" cy="509" r="2"/><circle cx="324" cy="534" r="2"/><circle cx="330" cy="533" r="2"/><circle cx="337" cy="526" r="2"/><circle cx="343" cy="535" r="2"/><circle cx="349" cy="534" r="2"/><circle cx="355" cy="534" r="2"/><circle cx="361" cy="450" r="2"/><circle cx="367" cy="440" r="2"/><circle cx="373" cy="526" r="2"/><circle cx="380" cy="369" r="2"/><circle cx="386" cy="535" r="2"/><circle cx="392" cy="526" r="2"/><circle cx="398" cy="509" r="2"/><circle cx="404" cy="517" r="2"/><circle cx="410" cy="534" r="2"/><circle cx="417" cy="531" r="2"/><circle cx="423" cy="517" r="2"/><circle cx="429" cy="507" r="2"/><circle cx="435" cy="515" r="2"/><circle cx="441" cy="529" r="2"/><circle cx="447" cy="532" r="2"/><circle cx="453" cy="444" r="2"/><circle cx="460" cy="531" r="2"/><circle cx="466" cy="533" r="2"/><circle cx="472" cy="494" r="2"/><circle cx="478" cy="534" r="2"/><circle cx="484" cy="535" r="2"/><circle cx="490" cy="534" r="2"/><circle cx="496" cy="532" r="2"/><circle cx="503" cy="535" r="2"/><circle cx="509" cy="524" r="2"/><circle cx="515" cy="528" r="2"/><circle cx="521" cy="534" r="2"/><circle cx="527" cy="535" r="2"/><circle cx="533" cy="535" r="2"/><circle cx="540" cy="529" r="2"/><circle cx="546" cy="534" r="2"/><circle cx="552" cy="526" r="2"/><circle cx="558" cy="532" r="2"/><circle cx="564" cy="535" r="2"/><circle cx="570" cy="533" r="2"/><circle cx="576" cy="524" r="2"/><circle cx="583" cy="535" r="2"/><circle cx="589" cy="530" r="2"/><circle cx="595" cy="528" r="2"/><circle cx="601" cy="535" r="2"/><circle cx="607" cy="533" r="2"/><circle cx="613" cy="531" r="2"/><circle cx="619" cy="525" r="2"/><circle cx="626" cy="535" r="2"/><circle cx="632" cy="533" r="2"/><circle cx="638" cy="530" r="2"/><circle cx="644" cy="535" r="2"/><circle cx="650" cy="529" r="2"/><circle cx="656" cy="523" r="2"/><circle cx="663" cy="532" r="2"/><circle cx="669" cy="527" r="2"/><circle cx="675" cy="287" r="2"/><circle cx="681" cy="535" r="2"/><circle cx="687" cy="535" r="2"/><circle cx="693" cy="532" r="2"/><circle cx="699" cy="535" r="2"/><circle cx="706" cy="535" r="2"/><circle cx="712" cy="533" r="2"/><circle cx="718" cy="534" r="2"/><circle cx="724" cy="535" r="2"/><circle cx="730" cy="535" r="2"/><circle cx="736" cy="532" r="2"/></g></g><g class="key-United-States_6"><path stroke="#f6a324" stroke-linecap="round" d="M275 500l6 7 6-178 7 176 6-113 6 35 6 68 6-117 6 88 6-33 7 69 6 17 6-89 6-127 6 216 6-39 6 20 7-45 6 53 6 4 6 5 6-2 6 9h7l6-16 6-83 6 74 6-5 6-6 6 24 7-2 6-29 6 45 6-20 6-93 6 102 6 6h7l6-3 6-9 6 17 6 2 6-13 7 10 6-27 6 9 6 24 6-13 6 8 6-5 7-1 6 4h6l6 2 6-10 6 11 6 2 7-11 6-17 6 10 6 14h6l6-3h7l6 5 6-1 6-7 6-3 6-11 6 25 7-5 6-118 6 112 6 4 6 2 6 2" fill="none" stroke-width="1.5"/><g fill="#f6a324"><circle cx="275" cy="500" r="2"/><circle cx="281" cy="507" r="2"/><circle cx="287" cy="329" r="2"/><circle cx="294" cy="505" r="2"/><circle cx="300" cy="392" r="2"/><circle cx="306" cy="427" r="2"/><circle cx="312" cy="495" r="2"/><circle cx="318" cy="378" r="2"/><circle cx="324" cy="466" r="2"/><circle cx="330" cy="433" r="2"/><circle cx="337" cy="502" r="2"/><circle cx="343" cy="519" r="2"/><circle cx="349" cy="430" r="2"/><circle cx="355" cy="303" r="2"/><circle cx="361" cy="519" r="2"/><circle cx="367" cy="480" r="2"/><circle cx="373" cy="500" r="2"/><circle cx="380" cy="455" r="2"/><circle cx="386" cy="508" r="2"/><circle cx="392" cy="512" r="2"/><circle cx="398" cy="517" r="2"/><circle cx="404" cy="515" r="2"/><circle cx="410" cy="524" r="2"/><circle cx="417" cy="524" r="2"/><circle cx="423" cy="508" r="2"/><circle cx="429" cy="425" r="2"/><circle cx="435" cy="499" r="2"/><circle cx="441" cy="494" r="2"/><circle cx="447" cy="488" r="2"/><circle cx="453" cy="512" r="2"/><circle cx="460" cy="510" r="2"/><circle cx="466" cy="481" r="2"/><circle cx="472" cy="526" r="2"/><circle cx="478" cy="506" r="2"/><circle cx="484" cy="413" r="2"/><circle cx="490" cy="515" r="2"/><circle cx="496" cy="521" r="2"/><circle cx="503" cy="521" r="2"/><circle cx="509" cy="518" r="2"/><circle cx="515" cy="509" r="2"/><circle cx="521" cy="526" r="2"/><circle cx="527" cy="528" r="2"/><circle cx="533" cy="515" r="2"/><circle cx="540" cy="525" r="2"/><circle cx="546" cy="498" r="2"/><circle cx="552" cy="507" r="2"/><circle cx="558" cy="531" r="2"/><circle cx="564" cy="518" r="2"/><circle cx="570" cy="526" r="2"/><circle cx="576" cy="521" r="2"/><circle cx="583" cy="520" r="2"/><circle cx="589" cy="524" r="2"/><circle cx="595" cy="524" r="2"/><circle cx="601" cy="526" r="2"/><circle cx="607" cy="516" r="2"/><circle cx="613" cy="527" r="2"/><circle cx="619" cy="529" r="2"/><circle cx="626" cy="518" r="2"/><circle cx="632" cy="501" r="2"/><circle cx="638" cy="511" r="2"/><circle cx="644" cy="525" r="2"/><circle cx="650" cy="525" r="2"/><circle cx="656" cy="522" r="2"/><circle cx="663" cy="522" r="2"/><circle cx="669" cy="527" r="2"/><circle cx="675" cy="526" r="2"/><circle cx="681" cy="519" r="2"/><circle cx="687" cy="516" r="2"/><circle cx="693" cy="505" r="2"/><circle cx="699" cy="530" r="2"/><circle cx="706" cy="525" r="2"/><circle cx="712" cy="407" r="2"/><circle cx="718" cy="519" r="2"/><circle cx="724" cy="523" r="2"/><circle cx="730" cy="525" r="2"/><circle cx="736" cy="527" r="2"/></g></g><g class="key-United-States_7"><path stroke="#ffd53e" stroke-linecap="round" d="M275 503l6 7 6-11 7-20 6 39 6-30 6 33 6-13 6-13 6 17 7-21 6 21 6-1 6 6 6-6 6-107 6 113 7-16 6 15 6 9 6-57 6 31 6 16 7 5 6-38 6-17 6 50 6 1 6-1 6-138 7 112 6 23 6-168 6 131 6 23 6-5 6-22 7-5 6 29 6 1 6 13h6l6-22 7-15 6 25 6-12 6 22 6 7 6 12 6-16 7-16 6 24h6l6-11 6 3 6 4 6-14 7 4 6-4 6 18 6 8 6-3h6l7-9 6 1 6 10 6-8 6-3 6 2 6 6 7-11 6-2 6 20 6-12 6 10 6-31" fill="none" stroke-width="1.5"/><g fill="#ffd53e"><circle cx="275" cy="503" r="2"/><circle cx="281" cy="510" r="2"/><circle cx="287" cy="499" r="2"/><circle cx="294" cy="479" r="2"/><circle cx="300" cy="518" r="2"/><circle cx="306" cy="488" r="2"/><circle cx="312" cy="521" r="2"/><circle cx="318" cy="508" r="2"/><circle cx="324" cy="495" r="2"/><circle cx="330" cy="512" r="2"/><circle cx="337" cy="491" r="2"/><circle cx="343" cy="512" r="2"/><circle cx="349" cy="511" r="2"/><circle cx="355" cy="517" r="2"/><circle cx="361" cy="511" r="2"/><circle cx="367" cy="404" r="2"/><circle cx="373" cy="517" r="2"/><circle cx="380" cy="501" r="2"/><circle cx="386" cy="516" r="2"/><circle cx="392" cy="525" r="2"/><circle cx="398" cy="468" r="2"/><circle cx="404" cy="499" r="2"/><circle cx="410" cy="515" r="2"/><circle cx="417" cy="520" r="2"/><circle cx="423" cy="482" r="2"/><circle cx="429" cy="465" r="2"/><circle cx="435" cy="515" r="2"/><circle cx="441" cy="516" r="2"/><circle cx="447" cy="515" r="2"/><circle cx="453" cy="377" r="2"/><circle cx="460" cy="489" r="2"/><circle cx="466" cy="512" r="2"/><circle cx="472" cy="344" r="2"/><circle cx="478" cy="475" r="2"/><circle cx="484" cy="498" r="2"/><circle cx="490" cy="493" r="2"/><circle cx="496" cy="471" r="2"/><circle cx="503" cy="466" r="2"/><circle cx="509" cy="495" r="2"/><circle cx="515" cy="496" r="2"/><circle cx="521" cy="509" r="2"/><circle cx="527" cy="509" r="2"/><circle cx="533" cy="487" r="2"/><circle cx="540" cy="472" r="2"/><circle cx="546" cy="497" r="2"/><circle cx="552" cy="485" r="2"/><circle cx="558" cy="507" r="2"/><circle cx="564" cy="514" r="2"/><circle cx="570" cy="526" r="2"/><circle cx="576" cy="510" r="2"/><circle cx="583" cy="494" r="2"/><circle cx="589" cy="518" r="2"/><circle cx="595" cy="518" r="2"/><circle cx="601" cy="507" r="2"/><circle cx="607" cy="510" r="2"/><circle cx="613" cy="514" r="2"/><circle cx="619" cy="500" r="2"/><circle cx="626" cy="504" r="2"/><circle cx="632" cy="500" r="2"/><circle cx="638" cy="518" r="2"/><circle cx="644" cy="526" r="2"/><circle cx="650" cy="523" r="2"/><circle cx="656" cy="523" r="2"/><circle cx="663" cy="514" r="2"/><circle cx="669" cy="515" r="2"/><circle cx="675" cy="525" r="2"/><circle cx="681" cy="517" r="2"/><circle cx="687" cy="514" r="2"/><circle cx="693" cy="516" r="2"/><circle cx="699" cy="522" r="2"/><circle cx="706" cy="511" r="2"/><circle cx="712" cy="509" r="2"/><circle cx="718" cy="529" r="2"/><circle cx="724" cy="517" r="2"/><circle cx="730" cy="527" r="2"/><circle cx="736" cy="496" r="2"/></g></g><g class="key-United-States_8"><path stroke="#ca2628" stroke-linecap="round" d="M29 186l6-108 6 76 7 63 6 44 6 8 6-97 6 84 6-24 6 56 7 17 6-73 6-5 6-65 6 51 6 73 7-120 6-2 6 3 6 10 6 14 6-37 6 47 7-5 6 94 6-71 6 60 6 19 6-35 6 32 7 19 6-48 6 53 6-8 6-42 6 60 7-24 6-28 6 38 6 5 6 29 6-24 6 12 7-29 6 10 6 80 6 20 6-51 6 43 6 5 7 16 6-13 6 19 6 33 6-33 6 19 6 15 7-12 6 33 6-32 6 23 6-7 6-1 7-4 6 14 6-6 6 15 6 9 6-15h6l7 4h6l6 11 6-10 6 4 6-4 6 15 7-11 6 7 6 3 6-2 6 3 6-4 7 2 6 1 6 2 6 2 6-5 6 5 6 2 7-4 6 5 6 10 6-1 6-7 6-4 6 9 7 3h6l6-1 6-1 6 2 6-1 7 2 6 2 6-1 6-2 6 1 6 4 6-2 7 2h12l6 1 6-1h6" fill="none" stroke-width="1.5"/><g fill="#ca2628"><circle cx="29" cy="186" r="2"/><circle cx="35" cy="78" r="2"/><circle cx="41" cy="154" r="2"/><circle cx="48" cy="217" r="2"/><circle cx="54" cy="261" r="2"/><circle cx="60" cy="269" r="2"/><circle cx="66" cy="172" r="2"/><circle cx="72" cy="256" r="2"/><circle cx="78" cy="232" r="2"/><circle cx="84" cy="288" r="2"/><circle cx="91" cy="305" r="2"/><circle cx="97" cy="232" r="2"/><circle cx="103" cy="227" r="2"/><circle cx="109" cy="162" r="2"/><circle cx="115" cy="213" r="2"/><circle cx="121" cy="286" r="2"/><circle cx="128" cy="166" r="2"/><circle cx="134" cy="164" r="2"/><circle cx="140" cy="167" r="2"/><circle cx="146" cy="177" r="2"/><circle cx="152" cy="191" r="2"/><circle cx="158" cy="154" r="2"/><circle cx="164" cy="201" r="2"/><circle cx="171" cy="196" r="2"/><circle cx="177" cy="290" r="2"/><circle cx="183" cy="219" r="2"/><circle cx="189" cy="279" r="2"/><circle cx="195" cy="298" r="2"/><circle cx="201" cy="263" r="2"/><circle cx="207" cy="295" r="2"/><circle cx="214" cy="314" r="2"/><circle cx="220" cy="266" r="2"/><circle cx="226" cy="319" r="2"/><circle cx="232" cy="311" r="2"/><circle cx="238" cy="269" r="2"/><circle cx="244" cy="329" r="2"/><circle cx="251" cy="305" r="2"/><circle cx="257" cy="277" r="2"/><circle cx="263" cy="315" r="2"/><circle cx="269" cy="320" r="2"/><circle cx="275" cy="349" r="2"/><circle cx="281" cy="325" r="2"/><circle cx="287" cy="337" r="2"/><circle cx="294" cy="308" r="2"/><circle cx="300" cy="318" r="2"/><circle cx="306" cy="398" r="2"/><circle cx="312" cy="418" r="2"/><circle cx="318" cy="367" r="2"/><circle cx="324" cy="410" r="2"/><circle cx="330" cy="415" r="2"/><circle cx="337" cy="431" r="2"/><circle cx="343" cy="418" r="2"/><circle cx="349" cy="437" r="2"/><circle cx="355" cy="470" r="2"/><circle cx="361" cy="437" r="2"/><circle cx="367" cy="456" r="2"/><circle cx="373" cy="471" r="2"/><circle cx="380" cy="459" r="2"/><circle cx="386" cy="492" r="2"/><circle cx="392" cy="460" r="2"/><circle cx="398" cy="483" r="2"/><circle cx="404" cy="476" r="2"/><circle cx="410" cy="475" r="2"/><circle cx="417" cy="471" r="2"/><circle cx="423" cy="485" r="2"/><circle cx="429" cy="479" r="2"/><circle cx="435" cy="494" r="2"/><circle cx="441" cy="503" r="2"/><circle cx="447" cy="488" r="2"/><circle cx="453" cy="488" r="2"/><circle cx="460" cy="492" r="2"/><circle cx="466" cy="492" r="2"/><circle cx="472" cy="503" r="2"/><circle cx="478" cy="493" r="2"/><circle cx="484" cy="497" r="2"/><circle cx="490" cy="493" r="2"/><circle cx="496" cy="508" r="2"/><circle cx="503" cy="497" r="2"/><circle cx="509" cy="504" r="2"/><circle cx="515" cy="507" r="2"/><circle cx="521" cy="505" r="2"/><circle cx="527" cy="508" r="2"/><circle cx="533" cy="504" r="2"/><circle cx="540" cy="506" r="2"/><circle cx="546" cy="507" r="2"/><circle cx="552" cy="509" r="2"/><circle cx="558" cy="511" r="2"/><circle cx="564" cy="506" r="2"/><circle cx="570" cy="511" r="2"/><circle cx="576" cy="513" r="2"/><circle cx="583" cy="509" r="2"/><circle cx="589" cy="514" r="2"/><circle cx="595" cy="524" r="2"/><circle cx="601" cy="523" r="2"/><circle cx="607" cy="516" r="2"/><circle cx="613" cy="512" r="2"/><circle cx="619" cy="521" r="2"/><circle cx="626" cy="524" r="2"/><circle cx="632" cy="524" r="2"/><circle cx="638" cy="523" r="2"/><circle cx="644" cy="522" r="2"/><circle cx="650" cy="524" r="2"/><circle cx="656" cy="523" r="2"/><circle cx="663" cy="525" r="2"/><circle cx="669" cy="527" r="2"/><circle cx="675" cy="526" r="2"/><circle cx="681" cy="524" r="2"/><circle cx="687" cy="525" r="2"/><circle cx="693" cy="529" r="2"/><circle cx="699" cy="527" r="2"/><circle cx="706" cy="529" r="2"/><circle cx="712" cy="529" r="2"/><circle cx="718" cy="529" r="2"/><circle cx="724" cy="530" r="2"/><circle cx="730" cy="529" r="2"/><circle cx="736" cy="529" r="2"/></g></g></g></g></g><g class="SourcesFooter" fill="#777"><g class="clickable" fill="#777"><text font-size="12.6" x="15" y="581.6"><tspan x="15" y="581.58">Source: Our World In Data based on NOAA, Lopez Holle and population data</tspan></text></g><text font-size="12.6" x="526.7" y="581.6"><tspan x="526.68" y="581.58"><a target="_blank" href="https://ourworldindata.org/natural-catastrophes/" fill="#777">OurWorldInData.org/natural-catastrophes/</a> • <a href="http://creativecommons.org/licenses/by-sa/4.0/deed.en_US" target="_blank" fill="#777">CC BY-SA</a></tspan></text></g></g></svg>