<svg xmlns="http://www.w3.org/2000/svg" version="1.1" style="font-family: 'Helvetica Neue', Helvetica, Arial, sans-serif; font-size: 18px; background-color: white; text-rendering: optimizeLegibility; -webkit-font-smoothing: antialiased;" width="850" height="600"><g class="ChartTab"><g class="HeaderView"><g opacity="0.8" transform="translate(778, 15) scale(0.27)"><a xmlns:xlink="http://www.w3.org/1999/xlink" xlink:href="https://ourworldindata.org" target="_blank"><g><rect x="0" y="0" fill="#1B2543" width="211.2" height="130.1"/><rect x="0" y="112.2" fill="#E63912" width="211.2" height="17.9"/><g><rect x="1.2" y="12.3" fill="none" width="210.2" height="99.2"/><path fill="#FFFFFF" d="M37.8,32.2c0,12.7-7.7,19.4-17.1,19.4c-9.7,0-16.6-7.5-16.6-18.7c0-11.7,7.3-19.3,17.1-19.3 C31.3,13.7,37.8,21.3,37.8,32.2z M9.2,32.8c0,7.9,4.3,14.9,11.8,14.9c7.5,0,11.8-6.9,11.8-15.3c0-7.3-3.8-14.9-11.8-14.9 C13.1,17.5,9.2,24.8,9.2,32.8z"/><path fill="#FFFFFF" d="M62.7,43.8c0,2.7,0.1,5.1,0.2,7.2h-4.3l-0.3-4.3h-0.1c-1.3,2.1-4,4.9-8.8,4.9c-4.2,0-9.1-2.3-9.1-11.6 V24.6h4.8v14.6c0,5,1.5,8.4,5.9,8.4c3.2,0,5.5-2.2,6.3-4.4c0.3-0.7,0.4-1.6,0.4-2.5V24.6h4.8V43.8z"/><path fill="#FFFFFF" d="M67.3,32.8c0-3.1-0.1-5.8-0.2-8.2h4.2l0.2,5.2h0.2c1.2-3.5,4.1-5.8,7.3-5.8c0.5,0,0.9,0.1,1.4,0.2v4.5 c-0.5-0.1-1-0.2-1.6-0.2c-3.4,0-5.8,2.6-6.5,6.2c-0.1,0.7-0.2,1.4-0.2,2.2V51h-4.8V32.8z"/><path fill="#FFFFFF" d="M95.4,51l-9.4-36.8h5l4.4,18.6c1.1,4.6,2.1,9.2,2.7,12.7h0.1c0.6-3.7,1.8-8,3-12.8l4.9-18.5h5l4.5,18.7 c1,4.4,2,8.7,2.6,12.6h0.1c0.8-4,1.8-8.1,3-12.7l4.9-18.5h4.9L120.6,51h-5L111,31.9c-1.1-4.7-1.9-8.3-2.4-12h-0.1 c-0.7,3.7-1.5,7.3-2.8,12L100.4,51H95.4z"/><path fill="#FFFFFF" d="M154.9,37.6c0,9.8-6.8,14-13.2,14c-7.2,0-12.7-5.2-12.7-13.6c0-8.8,5.8-14,13.1-14 C149.8,24,154.9,29.5,154.9,37.6z M133.9,37.9c0,5.8,3.3,10.1,8,10.1c4.6,0,8-4.3,8-10.3c0-4.5-2.2-10.1-7.9-10.1 C136.3,27.6,133.9,32.8,133.9,37.9z"/><path fill="#FFFFFF" d="M158.2,32.8c0-3.1-0.1-5.8-0.2-8.2h4.2l0.2,5.2h0.2c1.2-3.5,4.1-5.8,7.3-5.8c0.5,0,0.9,0.1,1.4,0.2v4.5 c-0.5-0.1-1-0.2-1.6-0.2c-3.4,0-5.8,2.6-6.5,6.2c-0.1,0.7-0.2,1.4-0.2,2.2V51h-4.8V32.8z"/><path fill="#FFFFFF" d="M173.5,12.3h4.8V51h-4.8V12.3z"/><path fill="#FFFFFF" d="M206.5,12.3v31.9c0,2.3,0.1,5,0.2,6.8h-4.3l-0.2-4.6H202c-1.5,2.9-4.7,5.2-9,5.2 c-6.4,0-11.3-5.4-11.3-13.4c-0.1-8.8,5.4-14.2,11.9-14.2c4,0,6.8,1.9,8,4h0.1V12.3H206.5z M201.7,35.4c0-0.6-0.1-1.4-0.2-2 c-0.7-3.1-3.3-5.6-6.9-5.6c-5,0-7.9,4.4-7.9,10.2c0,5.3,2.6,9.8,7.8,9.8c3.2,0,6.2-2.1,7.1-5.7c0.2-0.7,0.2-1.3,0.2-2.1V35.4z"/><path fill="#FFFFFF" d="M42.8,64c0.1,1.6-1.1,2.9-3.1,2.9c-1.7,0-2.9-1.3-2.9-2.9c0-1.7,1.3-3,3-3C41.7,61,42.8,62.3,42.8,64z M37.4,97.8V71.4h4.8v26.4H37.4z"/><path fill="#FFFFFF" d="M47.5,78.6c0-2.7-0.1-5-0.2-7.1h4.3l0.3,4.4h0.1c1.3-2.5,4.4-5,8.8-5c3.7,0,9.4,2.2,9.4,11.2v15.8h-4.8 V82.6c0-4.3-1.6-7.8-6.1-7.8c-3.2,0-5.6,2.2-6.5,4.9c-0.2,0.6-0.3,1.4-0.3,2.2v15.9h-4.8V78.6z"/><path fill="#FFFFFF" d="M84,61.6c2.9-0.4,6.3-0.8,10.1-0.8c6.8,0,11.7,1.6,14.9,4.6c3.3,3,5.2,7.3,5.2,13.2c0,6-1.9,10.9-5.3,14.3 c-3.4,3.4-9.1,5.3-16.3,5.3c-3.4,0-6.2-0.2-8.6-0.4V61.6z M88.8,94.1c1.2,0.2,3,0.3,4.8,0.3c10.2,0,15.7-5.7,15.7-15.6 c0.1-8.7-4.9-14.2-14.9-14.2c-2.5,0-4.3,0.2-5.6,0.5V94.1z"/><path fill="#FFFFFF" d="M132.1,97.8l-0.4-3.3h-0.2c-1.5,2.1-4.3,3.9-8.1,3.9c-5.4,0-8.1-3.8-8.1-7.6c0-6.4,5.7-9.9,15.9-9.8v-0.5 c0-2.2-0.6-6.1-6-6.1c-2.5,0-5,0.8-6.9,2l-1.1-3.2c2.2-1.4,5.4-2.3,8.7-2.3c8.1,0,10.1,5.5,10.1,10.8v9.9c0,2.3,0.1,4.5,0.4,6.3 H132.1z M131.4,84.4c-5.3-0.1-11.2,0.8-11.2,5.9c0,3.1,2.1,4.6,4.5,4.6c3.4,0,5.6-2.2,6.4-4.4c0.2-0.5,0.3-1,0.3-1.5V84.4z"/><path fill="#FFFFFF" d="M146.6,63.9v7.6h6.9v3.7h-6.9v14.2c0,3.3,0.9,5.1,3.6,5.1c1.3,0,2.2-0.2,2.8-0.3l0.2,3.6 c-0.9,0.4-2.4,0.7-4.3,0.7c-2.2,0-4-0.7-5.2-2c-1.4-1.4-1.9-3.8-1.9-6.9V75.1h-4.1v-3.7h4.1v-6.3L146.6,63.9z"/><path fill="#FFFFFF" d="M171.4,97.8l-0.4-3.3h-0.2c-1.5,2.1-4.3,3.9-8.1,3.9c-5.4,0-8.1-3.8-8.1-7.6c0-6.4,5.7-9.9,15.9-9.8v-0.5 c0-2.2-0.6-6.1-6-6.1c-2.5,0-5,0.8-6.9,2l-1.1-3.2c2.2-1.4,5.4-2.3,8.7-2.3c8.1,0,10.1,5.5,10.1,10.8v9.9c0,2.3,0.1,4.5,0.4,6.3 H171.4z M170.7,84.4c-5.3-0.1-11.2,0.8-11.2,5.9c0,3.1,2.1,4.6,4.5,4.6c3.4,0,5.6-2.2,6.4-4.4c0.2-0.5,0.3-1,0.3-1.5V84.4z"/></g></g></a></g><a href="https://ourworldindata.org/grapher/female-labor-force-by-age?stackMode=absolute" target="_blank"><text font-size="27.00" x="15.0" y="36.6" fill="#555"><tspan x="15" y="36.6">Female labor force by age, World</tspan></text></a><text font-size="14.40" x="15.0" y="55.5" fill="#666"><tspan x="15" y="55.519999999999996">Population in the labor force are those recorded as economically active. It includes both employed and unemployed</tspan><tspan x="15" y="71.36">people looking for jobs.  All figures correspond to 'modelled ILO estimates' (see source for details).</tspan></text></g><g class="StackedArea"><defs><clipPath id="boundsClip-3"><rect x="97.598" y="0" width="820" height="925.2"></rect></clipPath></defs><g class="AxisBoxView"><g class="HorizontalAxis"><text x="97.6" y="556.5" fill="#666" text-anchor="middle" font-size="16.2">1990</text><text x="213.7" y="556.5" fill="#666" text-anchor="middle" font-size="16.2">1995</text><text x="329.7" y="556.5" fill="#666" text-anchor="middle" font-size="16.2">2000</text><text x="445.8" y="556.5" fill="#666" text-anchor="middle" font-size="16.2">2005</text><text x="561.8" y="556.5" fill="#666" text-anchor="middle" font-size="16.2">2010</text><text x="677.9" y="556.5" fill="#666" text-anchor="middle" font-size="16.2">2015</text><text x="724.3" y="556.5" fill="#666" text-anchor="middle" font-size="16.2">2017</text></g><g class="VerticalAxis"><text x="92.60" y="535.3" fill="#666" dominant-baseline="middle" text-anchor="end" font-size="16.2">0</text><text x="92.60" y="471.3" fill="#666" dominant-baseline="middle" text-anchor="end" font-size="16.2">200 million</text><text x="92.60" y="407.3" fill="#666" dominant-baseline="middle" text-anchor="end" font-size="16.2">400 million</text><text x="92.60" y="343.3" fill="#666" dominant-baseline="middle" text-anchor="end" font-size="16.2">600 million</text><text x="92.60" y="279.2" fill="#666" dominant-baseline="middle" text-anchor="end" font-size="16.2">800 million</text><text x="92.60" y="215.2" fill="#666" dominant-baseline="middle" text-anchor="end" font-size="16.2">1 billion</text><text x="92.60" y="151.2" fill="#666" dominant-baseline="middle" text-anchor="end" font-size="16.2">1.2 billion</text></g><g class="AxisGridLines"><line x1="97.60" y1="535.3" x2="724.28" y2="535.3" stroke="#ccc"></line><line x1="97.60" y1="471.3" x2="724.28" y2="471.3" stroke="#ddd" stroke-dasharray="3,2"></line><line x1="97.60" y1="407.3" x2="724.28" y2="407.3" stroke="#ddd" stroke-dasharray="3,2"></line><line x1="97.60" y1="343.3" x2="724.28" y2="343.3" stroke="#ddd" stroke-dasharray="3,2"></line><line x1="97.60" y1="279.2" x2="724.28" y2="279.2" stroke="#ddd" stroke-dasharray="3,2"></line><line x1="97.60" y1="215.2" x2="724.28" y2="215.2" stroke="#ddd" stroke-dasharray="3,2"></line><line x1="97.60" y1="151.2" x2="724.28" y2="151.2" stroke="#ddd" stroke-dasharray="3,2"></line></g><g class="AxisGridLines"><line x1="97.6" y1="535.30" x2="97.6" y2="93.90" stroke="#ddd" stroke-dasharray="3,2"></line><line x1="213.7" y1="535.30" x2="213.7" y2="93.90" stroke="#ddd" stroke-dasharray="3,2"></line><line x1="329.7" y1="535.30" x2="329.7" y2="93.90" stroke="#ddd" stroke-dasharray="3,2"></line><line x1="445.8" y1="535.30" x2="445.8" y2="93.90" stroke="#ddd" stroke-dasharray="3,2"></line><line x1="561.8" y1="535.30" x2="561.8" y2="93.90" stroke="#ddd" stroke-dasharray="3,2"></line><line x1="677.9" y1="535.30" x2="677.9" y2="93.90" stroke="#ddd" stroke-dasharray="3,2"></line></g></g><g clip-path="url(#boundsClip-3)"><g class="HeightedLegend clickable"><g class="legendMark"><rect x="729.28" y="94.89999999999999" width="93.19200000000001" height="14.4" fill="#fff" opacity="0"></rect><rect x="729.28" y="100.85" width="10" height="2.5" fill="#34983f"></rect><text font-size="14.40" x="744.3" y="106.4" fill="#333"><tspan x="744.28" y="106.42">Women 65+</tspan></text></g><g class="legendMark"><rect x="729.28" y="127.49999999999999" width="105.72000000000001" height="14.4" fill="#fff" opacity="0"></rect><rect x="729.28" y="133.45" width="10" height="2.5" fill="#9ecc8a"></rect><text font-size="14.40" x="744.3" y="139.0" fill="#333"><tspan x="744.28" y="139.01999999999998">Women 55-64</tspan></text></g><g class="legendMark"><rect x="729.28" y="196.9" width="105.72000000000001" height="14.4" fill="#fff" opacity="0"></rect><rect x="729.28" y="202.85" width="10" height="2.5" fill="#ffd53e"></rect><text font-size="14.40" x="744.3" y="208.4" fill="#333"><tspan x="744.28" y="208.42000000000002">Women 45-54</tspan></text></g><g class="legendMark"><rect x="729.28" y="293.7" width="105.72000000000001" height="14.4" fill="#fff" opacity="0"></rect><rect x="729.28" y="299.65" width="10" height="2.5" fill="#ca2628"></rect><text font-size="14.40" x="744.3" y="305.2" fill="#333"><tspan x="744.28" y="305.21999999999997">Women 35-44</tspan></text></g><g class="legendMark"><rect x="729.28" y="402.7" width="105.72000000000001" height="14.4" fill="#fff" opacity="0"></rect><rect x="729.28" y="408.65" width="10" height="2.5" fill="#e6332e"></rect><text font-size="14.40" x="744.3" y="414.2" fill="#333"><tspan x="744.28" y="414.21999999999997">Women 25-34</tspan></text></g><g class="legendMark"><rect x="729.28" y="494.1" width="105.72000000000001" height="14.4" fill="#fff" opacity="0"></rect><rect x="729.28" y="500.05" width="10" height="2.5" fill="#3360a9"></rect><text font-size="14.40" x="744.3" y="505.6" fill="#333"><tspan x="744.28" y="505.62">Women 15-24</tspan></text></g></g><g class="Areas"><rect x="97.598" y="93.9" width="626.682" height="441.4000000000001" opacity="0" fill="rgba(255,255,255,0)"></rect><path stroke-linecap="round" d="M97.6 454.1L120.8 454.6L144 455.3L167.2 456.4L190.4 457L213.7 457.8L236.9 458.6L260.1 459.3L283.3 460L306.5 459.8L329.7 459.9L352.9 459.6L376.1 458.8L399.3 458.2L422.5 457.3L445.8 456.7L469 457.3L492.2 458.1L515.4 458.8L538.6 460L561.8 461.7L585 462.7L608.2 463.8L631.4 465L654.6 466.1L677.9 466.6L701.1 467L724.3 467.2L724.28 535.3000000000001L97.598 535.3000000000001" fill="#3360a9" fill-opacity="0.7" class="World_5-area"></path><path stroke-linecap="round" d="M97.6 370.1L120.8 368.7L144 367.3L167.2 366.1L190.4 364.3L213.7 363.3L236.9 362.3L260.1 361.8L283.3 361.2L306.5 360L329.7 359.4L352.9 358.8L376.1 357.7L399.3 357.1L422.5 356L445.8 355L469 355.8L492.2 356.8L515.4 357.6L538.6 358.4L561.8 359.4L585 358.9L608.2 358L631.4 356.9L654.6 355.8L677.9 354.6L701.1 353.5L724.3 352.7L724.3 467.2L701.1 467L677.9 466.6L654.6 466.1L631.4 465L608.2 463.8L585 462.7L561.8 461.7L538.6 460L515.4 458.8L492.2 458.1L469 457.3L445.8 456.7L422.5 457.3L399.3 458.2L376.1 458.8L352.9 459.6L329.7 459.9L306.5 459.8L283.3 460L260.1 459.3L236.9 458.6L213.7 457.8L190.4 457L167.2 456.4L144 455.3L120.8 454.6L97.6 454.1" fill="#e6332e" fill-opacity="0.7" class="World_0-area"></path><path stroke-linecap="round" d="M97.6 302.7L120.8 298.8L144 295.3L167.2 292.2L190.4 288.4L213.7 285.6L236.9 283L260.1 280.7L283.3 278.7L306.5 275.5L329.7 273.1L352.9 270.3L376.1 267.2L399.3 264.1L422.5 260.7L445.8 257.6L469 257L492.2 256.9L515.4 257L538.6 257.2L561.8 258.1L585 257.3L608.2 256.2L631.4 255L654.6 253.6L677.9 252.1L701.1 250.6L724.3 249.2L724.3 352.7L701.1 353.5L677.9 354.6L654.6 355.8L631.4 356.9L608.2 358L585 358.9L561.8 359.4L538.6 358.4L515.4 357.6L492.2 356.8L469 355.8L445.8 355L422.5 356L399.3 357.1L376.1 357.7L352.9 358.8L329.7 359.4L306.5 360L283.3 361.2L260.1 361.8L236.9 362.3L213.7 363.3L190.4 364.3L167.2 366.1L144 367.3L120.8 368.7L97.6 370.1" fill="#ca2628" fill-opacity="0.7" class="World_3-area"></path><path stroke-linecap="round" d="M97.6 260.5L120.8 255.6L144 250.9L167.2 246.8L190.4 241.4L213.7 236.9L236.9 232.1L260.1 227.4L283.3 222.8L306.5 217L329.7 212.4L352.9 207.6L376.1 202.5L399.3 197.5L422.5 192.4L445.8 187.3L469 185.3L492.2 183.7L515.4 182.4L538.6 181L561.8 180.2L585 177.7L608.2 174.8L631.4 171.5L654.6 168.1L677.9 164.8L701.1 161.8L724.3 159L724.3 249.2L701.1 250.6L677.9 252.1L654.6 253.6L631.4 255L608.2 256.2L585 257.3L561.8 258.1L538.6 257.2L515.4 257L492.2 256.9L469 257L445.8 257.6L422.5 260.7L399.3 264.1L376.1 267.2L352.9 270.3L329.7 273.1L306.5 275.5L283.3 278.7L260.1 280.7L236.9 283L213.7 285.6L190.4 288.4L167.2 292.2L144 295.3L120.8 298.8L97.6 302.7" fill="#ffd53e" fill-opacity="0.7" class="World_1-area"></path><path stroke-linecap="round" d="M97.6 240.7L120.8 235.3L144 230L167.2 225.2L190.4 219.2L213.7 214L236.9 208.8L260.1 203.6L283.3 198.6L306.5 192L329.7 186.6L352.9 181L376.1 174.9L399.3 168.7L422.5 162.2L445.8 155.5L469 152.1L492.2 148.9L515.4 145.9L538.6 142.9L561.8 140.7L585 136.8L608.2 132.7L631.4 128L654.6 123.2L677.9 118.6L701.1 114.4L724.3 110.4L724.3 159L701.1 161.8L677.9 164.8L654.6 168.1L631.4 171.5L608.2 174.8L585 177.7L561.8 180.2L538.6 181L515.4 182.4L492.2 183.7L469 185.3L445.8 187.3L422.5 192.4L399.3 197.5L376.1 202.5L352.9 207.6L329.7 212.4L306.5 217L283.3 222.8L260.1 227.4L236.9 232.1L213.7 236.9L190.4 241.4L167.2 246.8L144 250.9L120.8 255.6L97.6 260.5" fill="#9ecc8a" fill-opacity="0.7" class="World_2-area"></path><path stroke-linecap="round" d="M97.6 234.6L120.8 228.9L144 223.3L167.2 218.3L190.4 212L213.7 206.4L236.9 200.9L260.1 195.2L283.3 189.9L306.5 182.7L329.7 177L352.9 171.1L376.1 164.7L399.3 158L422.5 151.1L445.8 144L469 140.4L492.2 136.9L515.4 133.6L538.6 130.4L561.8 127.8L585 123.8L608.2 119.2L631.4 114L654.6 108.6L677.9 103.5L701.1 98.6L724.3 93.9L724.3 110.4L701.1 114.4L677.9 118.6L654.6 123.2L631.4 128L608.2 132.7L585 136.8L561.8 140.7L538.6 142.9L515.4 145.9L492.2 148.9L469 152.1L445.8 155.5L422.5 162.2L399.3 168.7L376.1 174.9L352.9 181L329.7 186.6L306.5 192L283.3 198.6L260.1 203.6L236.9 208.8L213.7 214L190.4 219.2L167.2 225.2L144 230L120.8 235.3L97.6 240.7" fill="#34983f" fill-opacity="0.7" class="World_4-area"></path><path stroke-linecap="round" d="M97.6 454.1L120.8 454.6L144 455.3L167.2 456.4L190.4 457L213.7 457.8L236.9 458.6L260.1 459.3L283.3 460L306.5 459.8L329.7 459.9L352.9 459.6L376.1 458.8L399.3 458.2L422.5 457.3L445.8 456.7L469 457.3L492.2 458.1L515.4 458.8L538.6 460L561.8 461.7L585 462.7L608.2 463.8L631.4 465L654.6 466.1L677.9 466.6L701.1 467L724.3 467.2" stroke="rgb(43, 80, 141)" stroke-opacity="0.7" stroke-width="0.5" fill="none" class="World_5-border"></path><path stroke-linecap="round" d="M97.6 370.1L120.8 368.7L144 367.3L167.2 366.1L190.4 364.3L213.7 363.3L236.9 362.3L260.1 361.8L283.3 361.2L306.5 360L329.7 359.4L352.9 358.8L376.1 357.7L399.3 357.1L422.5 356L445.8 355L469 355.8L492.2 356.8L515.4 357.6L538.6 358.4L561.8 359.4L585 358.9L608.2 358L631.4 356.9L654.6 355.8L677.9 354.6L701.1 353.5L724.3 352.7" stroke="rgb(192, 43, 38)" stroke-opacity="0.7" stroke-width="0.5" fill="none" class="World_0-border"></path><path stroke-linecap="round" d="M97.6 302.7L120.8 298.8L144 295.3L167.2 292.2L190.4 288.4L213.7 285.6L236.9 283L260.1 280.7L283.3 278.7L306.5 275.5L329.7 273.1L352.9 270.3L376.1 267.2L399.3 264.1L422.5 260.7L445.8 257.6L469 257L492.2 256.9L515.4 257L538.6 257.2L561.8 258.1L585 257.3L608.2 256.2L631.4 255L654.6 253.6L677.9 252.1L701.1 250.6L724.3 249.2" stroke="rgb(169, 32, 33)" stroke-opacity="0.7" stroke-width="0.5" fill="none" class="World_3-border"></path><path stroke-linecap="round" d="M97.6 260.5L120.8 255.6L144 250.9L167.2 246.8L190.4 241.4L213.7 236.9L236.9 232.1L260.1 227.4L283.3 222.8L306.5 217L329.7 212.4L352.9 207.6L376.1 202.5L399.3 197.5L422.5 192.4L445.8 187.3L469 185.3L492.2 183.7L515.4 182.4L538.6 181L561.8 180.2L585 177.7L608.2 174.8L631.4 171.5L654.6 168.1L677.9 164.8L701.1 161.8L724.3 159" stroke="rgb(213, 178, 52)" stroke-opacity="0.7" stroke-width="0.5" fill="none" class="World_1-border"></path><path stroke-linecap="round" d="M97.6 240.7L120.8 235.3L144 230L167.2 225.2L190.4 219.2L213.7 214L236.9 208.8L260.1 203.6L283.3 198.6L306.5 192L329.7 186.6L352.9 181L376.1 174.9L399.3 168.7L422.5 162.2L445.8 155.5L469 152.1L492.2 148.9L515.4 145.9L538.6 142.9L561.8 140.7L585 136.8L608.2 132.7L631.4 128L654.6 123.2L677.9 118.6L701.1 114.4L724.3 110.4" stroke="rgb(132, 171, 115)" stroke-opacity="0.7" stroke-width="0.5" fill="none" class="World_2-border"></path><path stroke-linecap="round" d="M97.6 234.6L120.8 228.9L144 223.3L167.2 218.3L190.4 212L213.7 206.4L236.9 200.9L260.1 195.2L283.3 189.9L306.5 182.7L329.7 177L352.9 171.1L376.1 164.7L399.3 158L422.5 151.1L445.8 144L469 140.4L492.2 136.9L515.4 133.6L538.6 130.4L561.8 127.8L585 123.8L608.2 119.2L631.4 114L654.6 108.6L677.9 103.5L701.1 98.6L724.3 93.9" stroke="rgb(44, 127, 53)" stroke-opacity="0.7" stroke-width="0.5" fill="none" class="World_4-border"></path></g></g></g><g style="fill: #777;" class="SourcesFooter"><g style="fill: #777;" class="clickable"><text font-size="12.60" x="15.0" y="581.6"><tspan x="15" y="581.58">Source: ILOSTAT</tspan></text></g><text font-size="12.60" x="649.0" y="581.6"><tspan x="649.024" y="581.58"><a target='_blank' style='fill: #777;' href='https://ourworldindata.org'>OurWorldInData.org</a> • <a style="fill: #777;" href="http://creativecommons.org/licenses/by-sa/4.0/deed.en_US" target="_blank">CC BY-SA</a></tspan></text></g></g></svg>