<svg xmlns="http://www.w3.org/2000/svg" version="1.1" style="background-color:#fff;-webkit-font-smoothing:antialiased" width="850" height="600" font-family="'Helvetica Neue',Helvetica,Arial,sans-serif" font-size="18" text-rendering="optimizeLegibility"><g class="ChartTab"><g class="HeaderView"><g opacity=".8" transform="matrix(.31 0 0 .31 770 15)"><a xmlns:xlink="http://www.w3.org/1999/xlink" xlink:href="https://ourworldindata.org" target="_blank"><g><path fill="#1B2543" d="M0 0h211.2v130.1H0z"/><path fill="#E63912" d="M0 112.2h211.2v17.9H0z"/><g><path fill="none" d="M1.2 12.3h210.2v99.2H1.2z"/><path fill="#FFF" d="M37.8 32.2c0 12.7-7.7 19.4-17.1 19.4-9.7 0-16.6-7.5-16.6-18.7 0-11.7 7.3-19.3 17.1-19.3 10.1.1 16.6 7.7 16.6 18.6zm-28.6.6c0 7.9 4.3 14.9 11.8 14.9 7.5 0 11.8-6.9 11.8-15.3 0-7.3-3.8-14.9-11.8-14.9-7.9 0-11.8 7.3-11.8 15.3zM62.7 43.8c0 2.7.1 5.1.2 7.2h-4.3l-.3-4.3h-.1c-1.3 2.1-4 4.9-8.8 4.9-4.2 0-9.1-2.3-9.1-11.6V24.6h4.8v14.6c0 5 1.5 8.4 5.9 8.4 3.2 0 5.5-2.2 6.3-4.4.3-.7.4-1.6.4-2.5V24.6h4.8v19.2zM67.3 32.8c0-3.1-.1-5.8-.2-8.2h4.2l.2 5.2h.2c1.2-3.5 4.1-5.8 7.3-5.8.5 0 .9.1 1.4.2v4.5c-.5-.1-1-.2-1.6-.2-3.4 0-5.8 2.6-6.5 6.2-.1.7-.2 1.4-.2 2.2V51h-4.8V32.8zM95.4 51L86 14.2h5l4.4 18.6c1.1 4.6 2.1 9.2 2.7 12.7h.1c.6-3.7 1.8-8 3-12.8l4.9-18.5h5l4.5 18.7c1 4.4 2 8.7 2.6 12.6h.1c.8-4 1.8-8.1 3-12.7l4.9-18.5h4.9L120.6 51h-5L111 31.9c-1.1-4.7-1.9-8.3-2.4-12h-.1c-.7 3.7-1.5 7.3-2.8 12L100.4 51h-5zM154.9 37.6c0 9.8-6.8 14-13.2 14-7.2 0-12.7-5.2-12.7-13.6 0-8.8 5.8-14 13.1-14 7.7 0 12.8 5.5 12.8 13.6zm-21 .3c0 5.8 3.3 10.1 8 10.1 4.6 0 8-4.3 8-10.3 0-4.5-2.2-10.1-7.9-10.1s-8.1 5.2-8.1 10.3zM158.2 32.8c0-3.1-.1-5.8-.2-8.2h4.2l.2 5.2h.2c1.2-3.5 4.1-5.8 7.3-5.8.5 0 .9.1 1.4.2v4.5c-.5-.1-1-.2-1.6-.2-3.4 0-5.8 2.6-6.5 6.2-.1.7-.2 1.4-.2 2.2V51h-4.8V32.8zM173.5 12.3h4.8V51h-4.8V12.3zM206.5 12.3v31.9c0 2.3.1 5 .2 6.8h-4.3l-.2-4.6h-.2c-1.5 2.9-4.7 5.2-9 5.2-6.4 0-11.3-5.4-11.3-13.4-.1-8.8 5.4-14.2 11.9-14.2 4 0 6.8 1.9 8 4h.1V12.3h4.8zm-4.8 23.1c0-.6-.1-1.4-.2-2a7 7 0 00-6.9-5.6c-5 0-7.9 4.4-7.9 10.2 0 5.3 2.6 9.8 7.8 9.8 3.2 0 6.2-2.1 7.1-5.7.2-.7.2-1.3.2-2.1v-4.6zM42.8 64c.1 1.6-1.1 2.9-3.1 2.9-1.7 0-2.9-1.3-2.9-2.9 0-1.7 1.3-3 3-3 1.9 0 3 1.3 3 3zm-5.4 33.8V71.4h4.8v26.4h-4.8zM47.5 78.6c0-2.7-.1-5-.2-7.1h4.3l.3 4.4h.1c1.3-2.5 4.4-5 8.8-5 3.7 0 9.4 2.2 9.4 11.2v15.8h-4.8V82.6c0-4.3-1.6-7.8-6.1-7.8-3.2 0-5.6 2.2-6.5 4.9-.2.6-.3 1.4-.3 2.2v15.9h-4.8V78.6zM84 61.6c2.9-.4 6.3-.8 10.1-.8 6.8 0 11.7 1.6 14.9 4.6 3.3 3 5.2 7.3 5.2 13.2 0 6-1.9 10.9-5.3 14.3-3.4 3.4-9.1 5.3-16.3 5.3-3.4 0-6.2-.2-8.6-.4V61.6zm4.8 32.5c1.2.2 3 .3 4.8.3 10.2 0 15.7-5.7 15.7-15.6.1-8.7-4.9-14.2-14.9-14.2-2.5 0-4.3.2-5.6.5v29zM132.1 97.8l-.4-3.3h-.2a9.79 9.79 0 01-8.1 3.9c-5.4 0-8.1-3.8-8.1-7.6 0-6.4 5.7-9.9 15.9-9.8v-.5c0-2.2-.6-6.1-6-6.1-2.5 0-5 .8-6.9 2l-1.1-3.2c2.2-1.4 5.4-2.3 8.7-2.3 8.1 0 10.1 5.5 10.1 10.8v9.9c0 2.3.1 4.5.4 6.3h-4.3zm-.7-13.4c-5.3-.1-11.2.8-11.2 5.9 0 3.1 2.1 4.6 4.5 4.6 3.4 0 5.6-2.2 6.4-4.4.2-.5.3-1 .3-1.5v-4.6zM146.6 63.9v7.6h6.9v3.7h-6.9v14.2c0 3.3.9 5.1 3.6 5.1 1.3 0 2.2-.2 2.8-.3l.2 3.6c-.9.4-2.4.7-4.3.7-2.2 0-4-.7-5.2-2-1.4-1.4-1.9-3.8-1.9-6.9V75.1h-4.1v-3.7h4.1v-6.3l4.8-1.2zM171.4 97.8l-.4-3.3h-.2a9.79 9.79 0 01-8.1 3.9c-5.4 0-8.1-3.8-8.1-7.6 0-6.4 5.7-9.9 15.9-9.8v-.5c0-2.2-.6-6.1-6-6.1-2.5 0-5 .8-6.9 2l-1.1-3.2c2.2-1.4 5.4-2.3 8.7-2.3 8.1 0 10.1 5.5 10.1 10.8v9.9c0 2.3.1 4.5.4 6.3h-4.3zm-.7-13.4c-5.3-.1-11.2.8-11.2 5.9 0 3.1 2.1 4.6 4.5 4.6 3.4 0 5.6-2.2 6.4-4.4.2-.5.3-1 .3-1.5v-4.6z"/></g></g></a></g><a href="https://ourworldindata.org/grapher/female-labor-force-participation-OECD" target="_blank"><text font-size="27" x="15" y="36.6" fill="#555"><tspan x="15" y="36.6">Long-run perspective on female labor force participation rates</tspan></text></a><text font-size="14.4" x="15" y="55.5" fill="#666"><tspan x="15" y="55.52">Proportion of the female population ages 15 and over that is economically active. Data is available for OECD</tspan><tspan x="15" y="71.36">member countries, as well as for non-member countries publishing statistics in OECD.stats.</tspan></text></g><g class="LineChart"><defs><clipPath id="a"><path d="M42.56 0h830v897.8h-830z"/></clipPath></defs><g class="AxisBoxView"><g class="HorizontalAxis" fill="#666" text-anchor="middle" font-size="16.2"><text x="52.6" y="542.8">1890</text><text x="104.5" y="542.8">1900</text><text x="208.4" y="542.8">1920</text><text x="312.3" y="542.8">1940</text><text x="416.2" y="542.8">1960</text><text x="520.1" y="542.8">1980</text><text x="624.1" y="542.8">2000</text><text x="707.2" y="542.8">2016</text></g><g class="VerticalAxis" fill="#666" dominant-baseline="middle" text-anchor="end" font-size="16.2"><text x="47.56" y="521.6">0%</text><text x="47.56" y="453.2">10%</text><text x="47.56" y="384.9">20%</text><text x="47.56" y="316.5">30%</text><text x="47.56" y="248.1">40%</text><text x="47.56" y="179.7">50%</text><text x="47.56" y="111.4">60%</text></g><g class="AxisGridLines"><path stroke="#ccc" d="M52.56 521.6h654.62"/><path stroke="#ddd" stroke-dasharray="3,2" d="M52.56 453.2h654.62M52.56 384.9h654.62M52.56 316.5h654.62M52.56 248.1h654.62M52.56 179.7h654.62M52.56 111.4h654.62"/></g><g class="AxisGridLines" stroke="#ddd" stroke-dasharray="3,2"><path d="M104.5 521.6V93.9M208.4 521.6V93.9M312.3 521.6V93.9M416.2 521.6V93.9M520.1 521.6V93.9M624.1 521.6V93.9"/></g></g><g clip-path="url(#a)"><g class="HeightedLegend clickable"><g class="legendMark"><path fill="#2a939b" d="M717.18 101.35h10v2.5h-10z"/><text font-size="14.4" x="732.2" y="106.9" fill="#333"><tspan x="732.18" y="106.92">Canada</tspan></text></g><g class="legendMark"><path fill="#a652ba" d="M717.18 123.95h10v2.5h-10z"/><text font-size="14.4" x="732.2" y="129.5" fill="#333"><tspan x="732.18" y="129.52">United Kingdom</tspan></text></g><g class="legendMark"><path fill="#f6a324" d="M717.18 138.35h10v2.5h-10z"/><text font-size="14.4" x="732.2" y="143.9" fill="#333"><tspan x="732.18" y="143.92">United States</tspan></text></g><g class="legendMark"><path fill="#34983f" d="M717.18 152.75h10v2.5h-10z"/><text font-size="14.4" x="732.2" y="158.3" fill="#333"><tspan x="732.18" y="158.32">Germany</tspan></text></g><g class="legendMark"><path fill="#ca2628" d="M717.18 167.15h10v2.5h-10z"/><text font-size="14.4" x="732.2" y="172.7" fill="#333"><tspan x="732.18" y="172.72">Spain</tspan></text></g><g class="legendMark"><path fill="#3360a9" d="M717.18 181.55h10v2.5h-10z"/><text font-size="14.4" x="732.2" y="187.1" fill="#333"><tspan x="732.18" y="187.12">France</tspan></text></g></g><g class="Lines"><g class="key-Canada_0"><path stroke="#2a939b" stroke-linecap="round" d="M162 414l52-10 52-13 52-22 52-8 129-152 6-6 5-9 5-10 5-8 5-10 6-1 5-6 5-5 5-7 5-6 6-5 5-7 5-5 5-2h5l6 4 5 1 5 1 5 1h5l6-2 5-4 5-4 5-3 5-3 5-8 6-7h5l5 2 5-1 5-5h6l5 1h5l5 2h11l5 4 5 2h5" fill="none" stroke-width="1.5"/><g fill="#2a939b"><circle cx="162" cy="414" r="2"/><circle cx="214" cy="404" r="2"/><circle cx="266" cy="391" r="2"/><circle cx="318" cy="369" r="2"/><circle cx="370" cy="361" r="2"/><circle cx="499" cy="209" r="2"/><circle cx="505" cy="203" r="2"/><circle cx="510" cy="194" r="2"/><circle cx="515" cy="184" r="2"/><circle cx="520" cy="176" r="2"/><circle cx="525" cy="166" r="2"/><circle cx="531" cy="165" r="2"/><circle cx="536" cy="159" r="2"/><circle cx="541" cy="154" r="2"/><circle cx="546" cy="147" r="2"/><circle cx="551" cy="141" r="2"/><circle cx="557" cy="136" r="2"/><circle cx="562" cy="129" r="2"/><circle cx="567" cy="124" r="2"/><circle cx="572" cy="122" r="2"/><circle cx="577" cy="122" r="2"/><circle cx="583" cy="126" r="2"/><circle cx="588" cy="127" r="2"/><circle cx="593" cy="128" r="2"/><circle cx="598" cy="129" r="2"/><circle cx="603" cy="129" r="2"/><circle cx="609" cy="127" r="2"/><circle cx="614" cy="123" r="2"/><circle cx="619" cy="119" r="2"/><circle cx="624" cy="116" r="2"/><circle cx="629" cy="113" r="2"/><circle cx="634" cy="105" r="2"/><circle cx="640" cy="98" r="2"/><circle cx="645" cy="98" r="2"/><circle cx="650" cy="100" r="2"/><circle cx="655" cy="99" r="2"/><circle cx="660" cy="94" r="2"/><circle cx="666" cy="94" r="2"/><circle cx="671" cy="95" r="2"/><circle cx="676" cy="95" r="2"/><circle cx="681" cy="97" r="2"/><circle cx="686" cy="97" r="2"/><circle cx="692" cy="97" r="2"/><circle cx="697" cy="101" r="2"/><circle cx="702" cy="103" r="2"/><circle cx="707" cy="103" r="2"/></g></g><g class="key-United-States_0"><path stroke="#f6a324" stroke-linecap="round" d="M53 394l52-12 52-16 51-4 52-6 52-8 52-22 52-81 5-3h6l5 20 5-3 5-3 5-7 6-8 5-4 5-7 5-5h5l6-3 5-6 5-7 5-4 5-7 6-8 5-10 5-7 5-3 5-5 6-3 5-2 5-5 5-6 5-5 6-5 5-4 5-6 5-1 5 1 6-3h5l5-6 5-1 5-3 6-3 5-1 5-1 5 1 5 1 5 1 6 1 5 2h5l5-1h5l6-1 5 2 5 4 5 3 5 3 6 4 5 1 5 2 5-1" fill="none" stroke-width="1.5"/><g fill="#f6a324"><circle cx="53" cy="394" r="2"/><circle cx="105" cy="382" r="2"/><circle cx="157" cy="366" r="2"/><circle cx="208" cy="362" r="2"/><circle cx="260" cy="356" r="2"/><circle cx="312" cy="348" r="2"/><circle cx="364" cy="326" r="2"/><circle cx="416" cy="245" r="2"/><circle cx="421" cy="242" r="2"/><circle cx="427" cy="242" r="2"/><circle cx="432" cy="262" r="2"/><circle cx="437" cy="259" r="2"/><circle cx="442" cy="256" r="2"/><circle cx="447" cy="249" r="2"/><circle cx="453" cy="241" r="2"/><circle cx="458" cy="237" r="2"/><circle cx="463" cy="230" r="2"/><circle cx="468" cy="225" r="2"/><circle cx="473" cy="225" r="2"/><circle cx="479" cy="222" r="2"/><circle cx="484" cy="216" r="2"/><circle cx="489" cy="209" r="2"/><circle cx="494" cy="205" r="2"/><circle cx="499" cy="198" r="2"/><circle cx="505" cy="190" r="2"/><circle cx="510" cy="180" r="2"/><circle cx="515" cy="173" r="2"/><circle cx="520" cy="170" r="2"/><circle cx="525" cy="165" r="2"/><circle cx="531" cy="162" r="2"/><circle cx="536" cy="160" r="2"/><circle cx="541" cy="155" r="2"/><circle cx="546" cy="149" r="2"/><circle cx="551" cy="144" r="2"/><circle cx="557" cy="139" r="2"/><circle cx="562" cy="135" r="2"/><circle cx="567" cy="129" r="2"/><circle cx="572" cy="128" r="2"/><circle cx="577" cy="129" r="2"/><circle cx="583" cy="126" r="2"/><circle cx="588" cy="126" r="2"/><circle cx="593" cy="120" r="2"/><circle cx="598" cy="119" r="2"/><circle cx="603" cy="116" r="2"/><circle cx="609" cy="113" r="2"/><circle cx="614" cy="112" r="2"/><circle cx="619" cy="111" r="2"/><circle cx="624" cy="112" r="2"/><circle cx="629" cy="113" r="2"/><circle cx="634" cy="114" r="2"/><circle cx="640" cy="115" r="2"/><circle cx="645" cy="117" r="2"/><circle cx="650" cy="117" r="2"/><circle cx="655" cy="116" r="2"/><circle cx="660" cy="116" r="2"/><circle cx="666" cy="115" r="2"/><circle cx="671" cy="117" r="2"/><circle cx="676" cy="121" r="2"/><circle cx="681" cy="124" r="2"/><circle cx="686" cy="127" r="2"/><circle cx="692" cy="131" r="2"/><circle cx="697" cy="132" r="2"/><circle cx="702" cy="134" r="2"/><circle cx="707" cy="133" r="2"/></g></g><g class="key-Spain_0"><path stroke="#ca2628" stroke-linecap="round" d="M479 343l5-17 5 1 5 6 5-7 6 3 5 1h5l5 2 5 2 6-3 5-5h5l5-1 5-2 6-20 5-10 5-2 5-4 5-3 6-5 5-4 5-7 5-4 5-4 6-4 5-3 5-4 5-10 5 7 5-17 6-11 5-9 5-9 5-10 5-7 6-10 5-7 5-5 5-4 5-4h6l5 2 5-1 5 1" fill="none" stroke-width="1.5"/><g fill="#ca2628"><circle cx="479" cy="343" r="2"/><circle cx="484" cy="326" r="2"/><circle cx="489" cy="327" r="2"/><circle cx="494" cy="333" r="2"/><circle cx="499" cy="326" r="2"/><circle cx="505" cy="329" r="2"/><circle cx="510" cy="330" r="2"/><circle cx="515" cy="330" r="2"/><circle cx="520" cy="332" r="2"/><circle cx="525" cy="334" r="2"/><circle cx="531" cy="331" r="2"/><circle cx="536" cy="326" r="2"/><circle cx="541" cy="326" r="2"/><circle cx="546" cy="325" r="2"/><circle cx="551" cy="323" r="2"/><circle cx="557" cy="303" r="2"/><circle cx="562" cy="293" r="2"/><circle cx="567" cy="291" r="2"/><circle cx="572" cy="287" r="2"/><circle cx="577" cy="284" r="2"/><circle cx="583" cy="279" r="2"/><circle cx="588" cy="275" r="2"/><circle cx="593" cy="268" r="2"/><circle cx="598" cy="264" r="2"/><circle cx="603" cy="260" r="2"/><circle cx="609" cy="256" r="2"/><circle cx="614" cy="253" r="2"/><circle cx="619" cy="249" r="2"/><circle cx="624" cy="239" r="2"/><circle cx="629" cy="246" r="2"/><circle cx="634" cy="229" r="2"/><circle cx="640" cy="218" r="2"/><circle cx="645" cy="209" r="2"/><circle cx="650" cy="200" r="2"/><circle cx="655" cy="190" r="2"/><circle cx="660" cy="183" r="2"/><circle cx="666" cy="173" r="2"/><circle cx="671" cy="166" r="2"/><circle cx="676" cy="161" r="2"/><circle cx="681" cy="157" r="2"/><circle cx="686" cy="153" r="2"/><circle cx="692" cy="153" r="2"/><circle cx="697" cy="155" r="2"/><circle cx="702" cy="154" r="2"/><circle cx="707" cy="155" r="2"/></g></g><g class="key-Germany_0"><path stroke="#34983f" stroke-linecap="round" d="M79 274l62-54 93-11 42 14 31-17 37 56 20-9 104 5 5-1 6-4 5-3 5-1h10l6 1 5-2 5-2 5-3 5-2 6-1 5 1 5 3 5-3 5-2 6-2 5-3 5-3 5-6 5-29 6 2 5 1 5 1h5l5-2 6-3 5-3 5-6h5l5-2h5l6-1 5-2 5-9 5-6 5-3 6-1 5-2 5-2 5-6h5l6-4 5-1 5 1 5-6" fill="none" stroke-width="1.5"/><g fill="#34983f"><circle cx="79" cy="274" r="2"/><circle cx="141" cy="220" r="2"/><circle cx="234" cy="209" r="2"/><circle cx="276" cy="223" r="2"/><circle cx="307" cy="206" r="2"/><circle cx="344" cy="262" r="2"/><circle cx="364" cy="253" r="2"/><circle cx="468" cy="258" r="2"/><circle cx="473" cy="257" r="2"/><circle cx="479" cy="253" r="2"/><circle cx="484" cy="250" r="2"/><circle cx="489" cy="249" r="2"/><circle cx="494" cy="249" r="2"/><circle cx="499" cy="249" r="2"/><circle cx="505" cy="250" r="2"/><circle cx="510" cy="248" r="2"/><circle cx="515" cy="246" r="2"/><circle cx="520" cy="243" r="2"/><circle cx="525" cy="241" r="2"/><circle cx="531" cy="240" r="2"/><circle cx="536" cy="241" r="2"/><circle cx="541" cy="244" r="2"/><circle cx="546" cy="241" r="2"/><circle cx="551" cy="239" r="2"/><circle cx="557" cy="237" r="2"/><circle cx="562" cy="234" r="2"/><circle cx="567" cy="231" r="2"/><circle cx="572" cy="225" r="2"/><circle cx="577" cy="196" r="2"/><circle cx="583" cy="198" r="2"/><circle cx="588" cy="199" r="2"/><circle cx="593" cy="200" r="2"/><circle cx="598" cy="200" r="2"/><circle cx="603" cy="198" r="2"/><circle cx="609" cy="195" r="2"/><circle cx="614" cy="192" r="2"/><circle cx="619" cy="186" r="2"/><circle cx="624" cy="186" r="2"/><circle cx="629" cy="184" r="2"/><circle cx="634" cy="184" r="2"/><circle cx="640" cy="183" r="2"/><circle cx="645" cy="181" r="2"/><circle cx="650" cy="172" r="2"/><circle cx="655" cy="166" r="2"/><circle cx="660" cy="163" r="2"/><circle cx="666" cy="162" r="2"/><circle cx="671" cy="160" r="2"/><circle cx="676" cy="158" r="2"/><circle cx="681" cy="152" r="2"/><circle cx="686" cy="152" r="2"/><circle cx="692" cy="148" r="2"/><circle cx="697" cy="147" r="2"/><circle cx="702" cy="148" r="2"/><circle cx="707" cy="142" r="2"/></g></g><g class="key-France_0"><path stroke="#3360a9" stroke-linecap="round" d="M458 252l5-2 5 1 5 1 6-4 5-4 5-5 5-5 5-3 6-7 5 2 5-7 5-1 5-2 6-2 5 1 5-3h5l5-4 6 1 5 1 5-2h5l5-1 6-3 5-3 5-1 5-1 5-3 6 3 5-3 5-2 5-2h5l5-2 6-11 5-1 5-1 5-1 5-2 6-2 5-2h5l5 1 5-2 6-1 5-1 5 1h5" fill="none" stroke-width="1.5"/><g fill="#3360a9"><circle cx="458" cy="252" r="2"/><circle cx="463" cy="250" r="2"/><circle cx="468" cy="251" r="2"/><circle cx="473" cy="252" r="2"/><circle cx="479" cy="248" r="2"/><circle cx="484" cy="244" r="2"/><circle cx="489" cy="239" r="2"/><circle cx="494" cy="234" r="2"/><circle cx="499" cy="231" r="2"/><circle cx="505" cy="224" r="2"/><circle cx="510" cy="226" r="2"/><circle cx="515" cy="219" r="2"/><circle cx="520" cy="218" r="2"/><circle cx="525" cy="216" r="2"/><circle cx="531" cy="214" r="2"/><circle cx="536" cy="215" r="2"/><circle cx="541" cy="212" r="2"/><circle cx="546" cy="212" r="2"/><circle cx="551" cy="208" r="2"/><circle cx="557" cy="209" r="2"/><circle cx="562" cy="210" r="2"/><circle cx="567" cy="208" r="2"/><circle cx="572" cy="208" r="2"/><circle cx="577" cy="207" r="2"/><circle cx="583" cy="204" r="2"/><circle cx="588" cy="201" r="2"/><circle cx="593" cy="200" r="2"/><circle cx="598" cy="199" r="2"/><circle cx="603" cy="196" r="2"/><circle cx="609" cy="199" r="2"/><circle cx="614" cy="196" r="2"/><circle cx="619" cy="194" r="2"/><circle cx="624" cy="192" r="2"/><circle cx="629" cy="192" r="2"/><circle cx="634" cy="190" r="2"/><circle cx="640" cy="179" r="2"/><circle cx="645" cy="178" r="2"/><circle cx="650" cy="177" r="2"/><circle cx="655" cy="176" r="2"/><circle cx="660" cy="174" r="2"/><circle cx="666" cy="172" r="2"/><circle cx="671" cy="170" r="2"/><circle cx="676" cy="170" r="2"/><circle cx="681" cy="171" r="2"/><circle cx="686" cy="169" r="2"/><circle cx="692" cy="168" r="2"/><circle cx="697" cy="167" r="2"/><circle cx="702" cy="168" r="2"/><circle cx="707" cy="168" r="2"/></g></g><g class="key-United-Kingdom_0"><path stroke="#a652ba" stroke-linecap="round" d="M214 301l52-13 104-4 51-18 52-36 52-20 16-25 5-2 5-6 6-4 5-5 5-8 5-2h5l6 1h5l5-1h5l5-2 6-3h5l5-4 5-3 5 1 5-4 6 1 5-3 5-2 5-4 5 2 6-2h5l5-1h5l5-1 6-2 5-3h5l5-3" fill="none" stroke-width="1.5"/><g fill="#a652ba"><circle cx="214" cy="301" r="2"/><circle cx="266" cy="288" r="2"/><circle cx="370" cy="284" r="2"/><circle cx="421" cy="266" r="2"/><circle cx="473" cy="230" r="2"/><circle cx="525" cy="210" r="2"/><circle cx="541" cy="185" r="2"/><circle cx="546" cy="183" r="2"/><circle cx="551" cy="177" r="2"/><circle cx="557" cy="173" r="2"/><circle cx="562" cy="168" r="2"/><circle cx="567" cy="160" r="2"/><circle cx="572" cy="158" r="2"/><circle cx="577" cy="158" r="2"/><circle cx="583" cy="159" r="2"/><circle cx="588" cy="159" r="2"/><circle cx="593" cy="158" r="2"/><circle cx="598" cy="158" r="2"/><circle cx="603" cy="156" r="2"/><circle cx="609" cy="153" r="2"/><circle cx="614" cy="153" r="2"/><circle cx="619" cy="149" r="2"/><circle cx="624" cy="146" r="2"/><circle cx="629" cy="147" r="2"/><circle cx="634" cy="143" r="2"/><circle cx="640" cy="144" r="2"/><circle cx="645" cy="141" r="2"/><circle cx="650" cy="139" r="2"/><circle cx="655" cy="135" r="2"/><circle cx="660" cy="137" r="2"/><circle cx="666" cy="135" r="2"/><circle cx="671" cy="135" r="2"/><circle cx="676" cy="134" r="2"/><circle cx="681" cy="134" r="2"/><circle cx="686" cy="133" r="2"/><circle cx="692" cy="131" r="2"/><circle cx="697" cy="128" r="2"/><circle cx="702" cy="128" r="2"/><circle cx="707" cy="125" r="2"/></g></g></g></g></g><g class="SourcesFooter" fill="#777"><g class="clickable" fill="#777"><text font-size="12.6" x="15" y="567.9"><tspan x="15" y="567.88">Source: Our World In Data based on OECD (2017) and Long (1958)</tspan></text></g><text font-size="12.6" x="15" y="582.5"><tspan x="15" y="582.48">Note: For some observations prior 1960, the participation rate is taken with respect to the female population 14 and over. See sources for details.</tspan></text><text font-size="12.6" x="649" y="567.9"><tspan x="649.02" y="567.88"><a target="_blank" href="http://ourworldindata.org" fill="#777">OurWorldInData.org</a> • <a href="http://creativecommons.org/licenses/by-sa/4.0/deed.en_US" target="_blank" fill="#777">CC BY-SA</a></tspan></text></g></g></svg>