<svg xmlns="http://www.w3.org/2000/svg" version="1.1" style="background-color:#fff;-webkit-font-smoothing:antialiased" width="850" height="600" font-family="'Helvetica Neue',Helvetica,Arial,sans-serif" font-size="18" text-rendering="optimizeLegibility"><g class="ChartTab"><g class="HeaderView"><g opacity=".8" transform="matrix(.31 0 0 .31 770 15)"><a xmlns:xlink="http://www.w3.org/1999/xlink" xlink:href="https://ourworldindata.org" target="_blank"><g><path fill="#1B2543" d="M0 0h211.2v130.1H0z"/><path fill="#E63912" d="M0 112.2h211.2v17.9H0z"/><g><path fill="none" d="M1.2 12.3h210.2v99.2H1.2z"/><path fill="#FFF" d="M37.8 32.2c0 12.7-7.7 19.4-17.1 19.4-9.7 0-16.6-7.5-16.6-18.7 0-11.7 7.3-19.3 17.1-19.3 10.1.1 16.6 7.7 16.6 18.6zm-28.6.6c0 7.9 4.3 14.9 11.8 14.9 7.5 0 11.8-6.9 11.8-15.3 0-7.3-3.8-14.9-11.8-14.9-7.9 0-11.8 7.3-11.8 15.3zM62.7 43.8c0 2.7.1 5.1.2 7.2h-4.3l-.3-4.3h-.1c-1.3 2.1-4 4.9-8.8 4.9-4.2 0-9.1-2.3-9.1-11.6V24.6h4.8v14.6c0 5 1.5 8.4 5.9 8.4 3.2 0 5.5-2.2 6.3-4.4.3-.7.4-1.6.4-2.5V24.6h4.8v19.2zM67.3 32.8c0-3.1-.1-5.8-.2-8.2h4.2l.2 5.2h.2c1.2-3.5 4.1-5.8 7.3-5.8.5 0 .9.1 1.4.2v4.5c-.5-.1-1-.2-1.6-.2-3.4 0-5.8 2.6-6.5 6.2-.1.7-.2 1.4-.2 2.2V51h-4.8V32.8zM95.4 51L86 14.2h5l4.4 18.6c1.1 4.6 2.1 9.2 2.7 12.7h.1c.6-3.7 1.8-8 3-12.8l4.9-18.5h5l4.5 18.7c1 4.4 2 8.7 2.6 12.6h.1c.8-4 1.8-8.1 3-12.7l4.9-18.5h4.9L120.6 51h-5L111 31.9c-1.1-4.7-1.9-8.3-2.4-12h-.1c-.7 3.7-1.5 7.3-2.8 12L100.4 51h-5zM154.9 37.6c0 9.8-6.8 14-13.2 14-7.2 0-12.7-5.2-12.7-13.6 0-8.8 5.8-14 13.1-14 7.7 0 12.8 5.5 12.8 13.6zm-21 .3c0 5.8 3.3 10.1 8 10.1 4.6 0 8-4.3 8-10.3 0-4.5-2.2-10.1-7.9-10.1s-8.1 5.2-8.1 10.3zM158.2 32.8c0-3.1-.1-5.8-.2-8.2h4.2l.2 5.2h.2c1.2-3.5 4.1-5.8 7.3-5.8.5 0 .9.1 1.4.2v4.5c-.5-.1-1-.2-1.6-.2-3.4 0-5.8 2.6-6.5 6.2-.1.7-.2 1.4-.2 2.2V51h-4.8V32.8zM173.5 12.3h4.8V51h-4.8V12.3zM206.5 12.3v31.9c0 2.3.1 5 .2 6.8h-4.3l-.2-4.6h-.2c-1.5 2.9-4.7 5.2-9 5.2-6.4 0-11.3-5.4-11.3-13.4-.1-8.8 5.4-14.2 11.9-14.2 4 0 6.8 1.9 8 4h.1V12.3h4.8zm-4.8 23.1c0-.6-.1-1.4-.2-2a7 7 0 00-6.9-5.6c-5 0-7.9 4.4-7.9 10.2 0 5.3 2.6 9.8 7.8 9.8 3.2 0 6.2-2.1 7.1-5.7.2-.7.2-1.3.2-2.1v-4.6zM42.8 64c.1 1.6-1.1 2.9-3.1 2.9-1.7 0-2.9-1.3-2.9-2.9 0-1.7 1.3-3 3-3 1.9 0 3 1.3 3 3zm-5.4 33.8V71.4h4.8v26.4h-4.8zM47.5 78.6c0-2.7-.1-5-.2-7.1h4.3l.3 4.4h.1c1.3-2.5 4.4-5 8.8-5 3.7 0 9.4 2.2 9.4 11.2v15.8h-4.8V82.6c0-4.3-1.6-7.8-6.1-7.8-3.2 0-5.6 2.2-6.5 4.9-.2.6-.3 1.4-.3 2.2v15.9h-4.8V78.6zM84 61.6c2.9-.4 6.3-.8 10.1-.8 6.8 0 11.7 1.6 14.9 4.6 3.3 3 5.2 7.3 5.2 13.2 0 6-1.9 10.9-5.3 14.3-3.4 3.4-9.1 5.3-16.3 5.3-3.4 0-6.2-.2-8.6-.4V61.6zm4.8 32.5c1.2.2 3 .3 4.8.3 10.2 0 15.7-5.7 15.7-15.6.1-8.7-4.9-14.2-14.9-14.2-2.5 0-4.3.2-5.6.5v29zM132.1 97.8l-.4-3.3h-.2a9.79 9.79 0 01-8.1 3.9c-5.4 0-8.1-3.8-8.1-7.6 0-6.4 5.7-9.9 15.9-9.8v-.5c0-2.2-.6-6.1-6-6.1-2.5 0-5 .8-6.9 2l-1.1-3.2c2.2-1.4 5.4-2.3 8.7-2.3 8.1 0 10.1 5.5 10.1 10.8v9.9c0 2.3.1 4.5.4 6.3h-4.3zm-.7-13.4c-5.3-.1-11.2.8-11.2 5.9 0 3.1 2.1 4.6 4.5 4.6 3.4 0 5.6-2.2 6.4-4.4.2-.5.3-1 .3-1.5v-4.6zM146.6 63.9v7.6h6.9v3.7h-6.9v14.2c0 3.3.9 5.1 3.6 5.1 1.3 0 2.2-.2 2.8-.3l.2 3.6c-.9.4-2.4.7-4.3.7-2.2 0-4-.7-5.2-2-1.4-1.4-1.9-3.8-1.9-6.9V75.1h-4.1v-3.7h4.1v-6.3l4.8-1.2zM171.4 97.8l-.4-3.3h-.2a9.79 9.79 0 01-8.1 3.9c-5.4 0-8.1-3.8-8.1-7.6 0-6.4 5.7-9.9 15.9-9.8v-.5c0-2.2-.6-6.1-6-6.1-2.5 0-5 .8-6.9 2l-1.1-3.2c2.2-1.4 5.4-2.3 8.7-2.3 8.1 0 10.1 5.5 10.1 10.8v9.9c0 2.3.1 4.5.4 6.3h-4.3zm-.7-13.4c-5.3-.1-11.2.8-11.2 5.9 0 3.1 2.1 4.6 4.5 4.6 3.4 0 5.6-2.2 6.4-4.4.2-.5.3-1 .3-1.5v-4.6z"/></g></g></a></g><a href="https://ourworldindata.org/grapher/fertilizer-application-rates-over-the-long-run" target="_blank"><text font-size="27" x="15" y="36.6" fill="#555"><tspan x="15" y="36.6">Fertilizer application rates over the long-run</tspan></text></a><text font-size="14.4" x="15" y="55.5" fill="#666"><tspan x="15" y="55.52">Average fertilizer application rates for select countries over the long-run, measured in kilograms of nutrient per</tspan><tspan x="15" y="71.36">hectare of arable land.</tspan></text></g><g class="LineChart"><defs><clipPath id="a"><path d="M81.6 0h830v925.2h-830z"/></clipPath></defs><g class="AxisBoxView"><g class="HorizontalAxis" fill="#666" text-anchor="middle" font-size="16.2"><text x="91.6" y="556.5">1880</text><text x="183.5" y="556.5">1900</text><text x="275.4" y="556.5">1920</text><text x="367.2" y="556.5">1940</text><text x="459.1" y="556.5">1960</text><text x="551" y="556.5">1980</text><text x="642.9" y="556.5">2000</text><text x="707.2" y="556.5">2014</text></g><g class="VerticalAxis" fill="#666" dominant-baseline="middle" text-anchor="end" font-size="16.2"><text x="86.6" y="535.3">0 kg/ha</text><text x="86.6" y="446">100 kg/ha</text><text x="86.6" y="356.8">200 kg/ha</text><text x="86.6" y="267.5">300 kg/ha</text><text x="86.6" y="178.3">400 kg/ha</text></g><g class="AxisGridLines"><path stroke="#ccc" d="M91.6 535.3h615.58"/><path stroke="#ddd" stroke-dasharray="3,2" d="M91.6 446h615.58M91.6 356.8h615.58M91.6 267.5h615.58M91.6 178.3h615.58"/></g><g class="AxisGridLines" stroke="#ddd" stroke-dasharray="3,2"><path d="M91.6 535.3V93.9M183.5 535.3V93.9M275.4 535.3V93.9M367.2 535.3V93.9M459.1 535.3V93.9M551 535.3V93.9M642.9 535.3V93.9"/></g></g><g clip-path="url(#a)"><g class="HeightedLegend clickable"><g class="legendMark"><path fill="#ffd53e" d="M717.18 277.75h10v2.5h-10z"/><text font-size="14.4" x="732.2" y="283.3" fill="#333"><tspan x="732.18" y="283.32">Belgium</tspan></text></g><g class="legendMark"><path fill="#9ecc8a" d="M717.18 316.85h10v2.5h-10z"/><text font-size="14.4" x="732.2" y="322.4" fill="#333"><tspan x="732.18" y="322.42">United Kingdom</tspan></text></g><g class="legendMark"><path fill="#e6332e" d="M717.18 331.25h10v2.5h-10z"/><text font-size="14.4" x="732.2" y="336.8" fill="#333"><tspan x="732.18" y="336.82">Netherlands</tspan></text></g><g class="legendMark"><path fill="#2a939b" d="M717.18 345.65h10v2.5h-10z"/><text font-size="14.4" x="732.2" y="351.2" fill="#333"><tspan x="732.18" y="351.22">Japan</tspan></text></g><g class="legendMark"><path fill="#a652ba" d="M717.18 360.05h10v2.5h-10z"/><text font-size="14.4" x="732.2" y="365.6" fill="#333"><tspan x="732.18" y="365.62">Germany</tspan></text></g><g class="legendMark"><path fill="#f6a324" d="M717.18 398.95h10v2.5h-10z"/><text font-size="14.4" x="732.2" y="404.5" fill="#333"><tspan x="732.18" y="404.52">Spain</tspan></text></g><g class="legendMark"><path fill="#34983f" d="M717.18 413.35h10v2.5h-10z"/><text font-size="14.4" x="732.2" y="418.9" fill="#333"><tspan x="732.18" y="418.92">United States</tspan></text></g><g class="legendMark"><path fill="#ca2628" d="M717.18 427.75h10v2.5h-10z"/><text font-size="14.4" x="732.2" y="433.3" fill="#333"><tspan x="732.18" y="433.32">Italy</tspan></text></g><g class="legendMark"><path fill="#3360a9" d="M717.18 442.15h10v2.5h-10z"/><text font-size="14.4" x="732.2" y="447.7" fill="#333"><tspan x="732.18" y="447.72">Denmark</tspan></text></g></g><g class="Lines"><g class="key-United-States_0"><path stroke="#34983f" stroke-linecap="round" d="M92 534h46l46-1 59-3 42-1 69-1 91-14 193-75 14-4 5-6 4-3 5 3 4-6 5 2 5 10 4 4 5-8 4-14 5-4 5-2 4 2" fill="none" stroke-width="1.5"/><g fill="#34983f"><circle cx="92" cy="534" r="2"/><circle cx="138" cy="534" r="2"/><circle cx="184" cy="533" r="2"/><circle cx="243" cy="530" r="2"/><circle cx="285" cy="529" r="2"/><circle cx="354" cy="528" r="2"/><circle cx="445" cy="514" r="2"/><circle cx="638" cy="439" r="2"/><circle cx="652" cy="435" r="2"/><circle cx="657" cy="429" r="2"/><circle cx="661" cy="426" r="2"/><circle cx="666" cy="429" r="2"/><circle cx="670" cy="423" r="2"/><circle cx="675" cy="425" r="2"/><circle cx="680" cy="435" r="2"/><circle cx="684" cy="439" r="2"/><circle cx="689" cy="431" r="2"/><circle cx="693" cy="417" r="2"/><circle cx="698" cy="413" r="2"/><circle cx="703" cy="411" r="2"/><circle cx="707" cy="413" r="2"/></g></g><g class="key-United-Kingdom_0"><path stroke="#9ecc8a" stroke-linecap="round" d="M243 510l42 7 69-35 91-21 193-193 14-17 5 4 4 24 5 13 4 16 5 1 5 41 4-29 5-11 4 12 5 4 5-11 4 3" fill="none" stroke-width="1.5"/><g fill="#9ecc8a"><circle cx="243" cy="510" r="2"/><circle cx="285" cy="517" r="2"/><circle cx="354" cy="482" r="2"/><circle cx="445" cy="461" r="2"/><circle cx="638" cy="268" r="2"/><circle cx="652" cy="251" r="2"/><circle cx="657" cy="255" r="2"/><circle cx="661" cy="279" r="2"/><circle cx="666" cy="292" r="2"/><circle cx="670" cy="308" r="2"/><circle cx="675" cy="309" r="2"/><circle cx="680" cy="350" r="2"/><circle cx="684" cy="321" r="2"/><circle cx="689" cy="310" r="2"/><circle cx="693" cy="322" r="2"/><circle cx="698" cy="326" r="2"/><circle cx="703" cy="315" r="2"/><circle cx="707" cy="318" r="2"/></g></g><g class="key-Belgium_0"><path stroke="#ffd53e" stroke-linecap="round" d="M184 522l59-18 42-45 160-99 193-154 14 37 5 12 4-23 5 10 4 11h5l5-11 4 74 5-30 4-6 5-7 5 7 4-1" fill="none" stroke-width="1.5"/><g fill="#ffd53e"><circle cx="184" cy="522" r="2"/><circle cx="243" cy="504" r="2"/><circle cx="285" cy="459" r="2"/><circle cx="445" cy="360" r="2"/><circle cx="638" cy="206" r="2"/><circle cx="652" cy="243" r="2"/><circle cx="657" cy="255" r="2"/><circle cx="661" cy="232" r="2"/><circle cx="666" cy="242" r="2"/><circle cx="670" cy="253" r="2"/><circle cx="675" cy="253" r="2"/><circle cx="680" cy="242" r="2"/><circle cx="684" cy="316" r="2"/><circle cx="689" cy="286" r="2"/><circle cx="693" cy="280" r="2"/><circle cx="698" cy="273" r="2"/><circle cx="703" cy="280" r="2"/><circle cx="707" cy="279" r="2"/></g></g><g class="key-Germany_0"><path stroke="#a652ba" stroke-linecap="round" d="M92 533l92-12 59-23 42-28 69-63 91-6 193-81 14 19h5l4 4 5 6 4 13 5-25 5 56 4-20 5-27 4 18 5-6 5-4 4-13" fill="none" stroke-width="1.5"/><g fill="#a652ba"><circle cx="92" cy="533" r="2"/><circle cx="184" cy="521" r="2"/><circle cx="243" cy="498" r="2"/><circle cx="285" cy="470" r="2"/><circle cx="354" cy="407" r="2"/><circle cx="445" cy="401" r="2"/><circle cx="638" cy="320" r="2"/><circle cx="652" cy="339" r="2"/><circle cx="657" cy="339" r="2"/><circle cx="661" cy="343" r="2"/><circle cx="666" cy="349" r="2"/><circle cx="670" cy="362" r="2"/><circle cx="675" cy="337" r="2"/><circle cx="680" cy="393" r="2"/><circle cx="684" cy="373" r="2"/><circle cx="689" cy="346" r="2"/><circle cx="693" cy="364" r="2"/><circle cx="698" cy="358" r="2"/><circle cx="703" cy="354" r="2"/><circle cx="707" cy="341" r="2"/></g></g><g class="key-Italy_0"><path stroke="#ca2628" stroke-linecap="round" d="M243 523l42 2 69-13 91-14 193-104 14-11 5-6 4-4 5 9 4-5 5-11 5 41 4 21 5-2 4-11 5-14 5 19 4-2" fill="none" stroke-width="1.5"/><g fill="#ca2628"><circle cx="243" cy="523" r="2"/><circle cx="285" cy="525" r="2"/><circle cx="354" cy="512" r="2"/><circle cx="445" cy="498" r="2"/><circle cx="638" cy="394" r="2"/><circle cx="652" cy="383" r="2"/><circle cx="657" cy="377" r="2"/><circle cx="661" cy="373" r="2"/><circle cx="666" cy="382" r="2"/><circle cx="670" cy="377" r="2"/><circle cx="675" cy="366" r="2"/><circle cx="680" cy="407" r="2"/><circle cx="684" cy="428" r="2"/><circle cx="689" cy="426" r="2"/><circle cx="693" cy="415" r="2"/><circle cx="698" cy="401" r="2"/><circle cx="703" cy="420" r="2"/><circle cx="707" cy="418" r="2"/></g></g><g class="key-Netherlands_0"><path stroke="#e6332e" stroke-linecap="round" d="M243 389l42-22 69-99 91 85L638 94l14 59 5-9 4 72 5 18 4-14 5 46 5 30 4 27 5-49 4 41 5-21 5 35 4-9" fill="none" stroke-width="1.5"/><g fill="#e6332e"><circle cx="243" cy="389" r="2"/><circle cx="285" cy="367" r="2"/><circle cx="354" cy="268" r="2"/><circle cx="445" cy="353" r="2"/><circle cx="638" cy="94" r="2"/><circle cx="652" cy="153" r="2"/><circle cx="657" cy="144" r="2"/><circle cx="661" cy="216" r="2"/><circle cx="666" cy="234" r="2"/><circle cx="670" cy="220" r="2"/><circle cx="675" cy="266" r="2"/><circle cx="680" cy="296" r="2"/><circle cx="684" cy="323" r="2"/><circle cx="689" cy="274" r="2"/><circle cx="693" cy="315" r="2"/><circle cx="698" cy="294" r="2"/><circle cx="703" cy="329" r="2"/><circle cx="707" cy="320" r="2"/></g></g><g class="key-Denmark_0"><path stroke="#3360a9" stroke-linecap="round" d="M243 519l42 2 69-34 91-57 193-40 14 58 5-34 4-8 5 7 4-1 5-4 5-4 4 39 5-9 4 1h5l5-4 4-3" fill="none" stroke-width="1.5"/><g fill="#3360a9"><circle cx="243" cy="519" r="2"/><circle cx="285" cy="521" r="2"/><circle cx="354" cy="487" r="2"/><circle cx="445" cy="430" r="2"/><circle cx="638" cy="390" r="2"/><circle cx="652" cy="448" r="2"/><circle cx="657" cy="414" r="2"/><circle cx="661" cy="406" r="2"/><circle cx="666" cy="413" r="2"/><circle cx="670" cy="412" r="2"/><circle cx="675" cy="408" r="2"/><circle cx="680" cy="404" r="2"/><circle cx="684" cy="443" r="2"/><circle cx="689" cy="434" r="2"/><circle cx="693" cy="435" r="2"/><circle cx="698" cy="435" r="2"/><circle cx="703" cy="431" r="2"/><circle cx="707" cy="428" r="2"/></g></g><g class="key-Japan_0"><path stroke="#2a939b" stroke-linecap="round" d="M184 535l59-3 42-7 69-16 91-91 193-142 14-38 5-2 4-16 5 5 4 13 5-15 5 64 4 35 5-19 4-3 5 8 5 1 4 12" fill="none" stroke-width="1.5"/><g fill="#2a939b"><circle cx="184" cy="535" r="2"/><circle cx="243" cy="532" r="2"/><circle cx="285" cy="525" r="2"/><circle cx="354" cy="509" r="2"/><circle cx="445" cy="418" r="2"/><circle cx="638" cy="276" r="2"/><circle cx="652" cy="238" r="2"/><circle cx="657" cy="236" r="2"/><circle cx="661" cy="220" r="2"/><circle cx="666" cy="225" r="2"/><circle cx="670" cy="238" r="2"/><circle cx="675" cy="223" r="2"/><circle cx="680" cy="287" r="2"/><circle cx="684" cy="322" r="2"/><circle cx="689" cy="303" r="2"/><circle cx="693" cy="300" r="2"/><circle cx="698" cy="308" r="2"/><circle cx="703" cy="309" r="2"/><circle cx="707" cy="321" r="2"/></g></g><g class="key-Spain_0"><path stroke="#f6a324" stroke-linecap="round" d="M243 532l42 2 160-21 193-84 14-40 5-10 4 9 5 20h4l5-13 5 45 4 9 5-30 4 7h5l5-19 4-7" fill="none" stroke-width="1.5"/><g fill="#f6a324"><circle cx="243" cy="532" r="2"/><circle cx="285" cy="534" r="2"/><circle cx="445" cy="513" r="2"/><circle cx="638" cy="429" r="2"/><circle cx="652" cy="389" r="2"/><circle cx="657" cy="379" r="2"/><circle cx="661" cy="388" r="2"/><circle cx="666" cy="408" r="2"/><circle cx="670" cy="408" r="2"/><circle cx="675" cy="395" r="2"/><circle cx="680" cy="440" r="2"/><circle cx="684" cy="449" r="2"/><circle cx="689" cy="419" r="2"/><circle cx="693" cy="426" r="2"/><circle cx="698" cy="426" r="2"/><circle cx="703" cy="407" r="2"/><circle cx="707" cy="400" r="2"/></g></g></g></g></g><g class="SourcesFooter" fill="#777"><g class="clickable" fill="#777"><text font-size="12.6" x="15" y="581.6"><tspan x="15" y="581.58">Source: World Bank and Federico (2008)</tspan></text></g><text font-size="12.6" x="512.2" y="581.6"><tspan x="512.19" y="581.58"><a target="_blank" href="https://ourworldindata.org/fertilizer-and-pesticides/" fill="#777">OurWorldInData.org/fertilizer-and-pesticides/</a> • <a href="http://creativecommons.org/licenses/by-sa/4.0/deed.en_US" target="_blank" fill="#777">CC BY-SA</a></tspan></text></g></g></svg>