<svg xmlns="http://www.w3.org/2000/svg" version="1.1" style="background-color:#fff;-webkit-font-smoothing:antialiased" width="850" height="600" font-family="'Helvetica Neue',Helvetica,Arial,sans-serif" font-size="18" text-rendering="optimizeLegibility"><g class="ChartTab"><g class="HeaderView"><g opacity=".8" transform="matrix(.27 0 0 .27 778 15)"><a xmlns:xlink="http://www.w3.org/1999/xlink" xlink:href="https://ourworldindata.org" target="_blank"><g><path fill="#1B2543" d="M0 0h211.2v130.1H0z"/><path fill="#E63912" d="M0 112.2h211.2v17.9H0z"/><g><path fill="none" d="M1.2 12.3h210.2v99.2H1.2z"/><path fill="#FFF" d="M37.8 32.2c0 12.7-7.7 19.4-17.1 19.4-9.7 0-16.6-7.5-16.6-18.7 0-11.7 7.3-19.3 17.1-19.3 10.1.1 16.6 7.7 16.6 18.6zm-28.6.6c0 7.9 4.3 14.9 11.8 14.9 7.5 0 11.8-6.9 11.8-15.3 0-7.3-3.8-14.9-11.8-14.9-7.9 0-11.8 7.3-11.8 15.3zM62.7 43.8c0 2.7.1 5.1.2 7.2h-4.3l-.3-4.3h-.1c-1.3 2.1-4 4.9-8.8 4.9-4.2 0-9.1-2.3-9.1-11.6V24.6h4.8v14.6c0 5 1.5 8.4 5.9 8.4 3.2 0 5.5-2.2 6.3-4.4.3-.7.4-1.6.4-2.5V24.6h4.8v19.2zM67.3 32.8c0-3.1-.1-5.8-.2-8.2h4.2l.2 5.2h.2c1.2-3.5 4.1-5.8 7.3-5.8.5 0 .9.1 1.4.2v4.5c-.5-.1-1-.2-1.6-.2-3.4 0-5.8 2.6-6.5 6.2-.1.7-.2 1.4-.2 2.2V51h-4.8V32.8zM95.4 51L86 14.2h5l4.4 18.6c1.1 4.6 2.1 9.2 2.7 12.7h.1c.6-3.7 1.8-8 3-12.8l4.9-18.5h5l4.5 18.7c1 4.4 2 8.7 2.6 12.6h.1c.8-4 1.8-8.1 3-12.7l4.9-18.5h4.9L120.6 51h-5L111 31.9c-1.1-4.7-1.9-8.3-2.4-12h-.1c-.7 3.7-1.5 7.3-2.8 12L100.4 51h-5zM154.9 37.6c0 9.8-6.8 14-13.2 14-7.2 0-12.7-5.2-12.7-13.6 0-8.8 5.8-14 13.1-14 7.7 0 12.8 5.5 12.8 13.6zm-21 .3c0 5.8 3.3 10.1 8 10.1 4.6 0 8-4.3 8-10.3 0-4.5-2.2-10.1-7.9-10.1s-8.1 5.2-8.1 10.3zM158.2 32.8c0-3.1-.1-5.8-.2-8.2h4.2l.2 5.2h.2c1.2-3.5 4.1-5.8 7.3-5.8.5 0 .9.1 1.4.2v4.5c-.5-.1-1-.2-1.6-.2-3.4 0-5.8 2.6-6.5 6.2-.1.7-.2 1.4-.2 2.2V51h-4.8V32.8zM173.5 12.3h4.8V51h-4.8V12.3zM206.5 12.3v31.9c0 2.3.1 5 .2 6.8h-4.3l-.2-4.6h-.2c-1.5 2.9-4.7 5.2-9 5.2-6.4 0-11.3-5.4-11.3-13.4-.1-8.8 5.4-14.2 11.9-14.2 4 0 6.8 1.9 8 4h.1V12.3h4.8zm-4.8 23.1c0-.6-.1-1.4-.2-2a7 7 0 00-6.9-5.6c-5 0-7.9 4.4-7.9 10.2 0 5.3 2.6 9.8 7.8 9.8 3.2 0 6.2-2.1 7.1-5.7.2-.7.2-1.3.2-2.1v-4.6zM42.8 64c.1 1.6-1.1 2.9-3.1 2.9-1.7 0-2.9-1.3-2.9-2.9 0-1.7 1.3-3 3-3 1.9 0 3 1.3 3 3zm-5.4 33.8V71.4h4.8v26.4h-4.8zM47.5 78.6c0-2.7-.1-5-.2-7.1h4.3l.3 4.4h.1c1.3-2.5 4.4-5 8.8-5 3.7 0 9.4 2.2 9.4 11.2v15.8h-4.8V82.6c0-4.3-1.6-7.8-6.1-7.8-3.2 0-5.6 2.2-6.5 4.9-.2.6-.3 1.4-.3 2.2v15.9h-4.8V78.6zM84 61.6c2.9-.4 6.3-.8 10.1-.8 6.8 0 11.7 1.6 14.9 4.6 3.3 3 5.2 7.3 5.2 13.2 0 6-1.9 10.9-5.3 14.3-3.4 3.4-9.1 5.3-16.3 5.3-3.4 0-6.2-.2-8.6-.4V61.6zm4.8 32.5c1.2.2 3 .3 4.8.3 10.2 0 15.7-5.7 15.7-15.6.1-8.7-4.9-14.2-14.9-14.2-2.5 0-4.3.2-5.6.5v29zM132.1 97.8l-.4-3.3h-.2a9.79 9.79 0 01-8.1 3.9c-5.4 0-8.1-3.8-8.1-7.6 0-6.4 5.7-9.9 15.9-9.8v-.5c0-2.2-.6-6.1-6-6.1-2.5 0-5 .8-6.9 2l-1.1-3.2c2.2-1.4 5.4-2.3 8.7-2.3 8.1 0 10.1 5.5 10.1 10.8v9.9c0 2.3.1 4.5.4 6.3h-4.3zm-.7-13.4c-5.3-.1-11.2.8-11.2 5.9 0 3.1 2.1 4.6 4.5 4.6 3.4 0 5.6-2.2 6.4-4.4.2-.5.3-1 .3-1.5v-4.6zM146.6 63.9v7.6h6.9v3.7h-6.9v14.2c0 3.3.9 5.1 3.6 5.1 1.3 0 2.2-.2 2.8-.3l.2 3.6c-.9.4-2.4.7-4.3.7-2.2 0-4-.7-5.2-2-1.4-1.4-1.9-3.8-1.9-6.9V75.1h-4.1v-3.7h4.1v-6.3l4.8-1.2zM171.4 97.8l-.4-3.3h-.2a9.79 9.79 0 01-8.1 3.9c-5.4 0-8.1-3.8-8.1-7.6 0-6.4 5.7-9.9 15.9-9.8v-.5c0-2.2-.6-6.1-6-6.1-2.5 0-5 .8-6.9 2l-1.1-3.2c2.2-1.4 5.4-2.3 8.7-2.3 8.1 0 10.1 5.5 10.1 10.8v9.9c0 2.3.1 4.5.4 6.3h-4.3zm-.7-13.4c-5.3-.1-11.2.8-11.2 5.9 0 3.1 2.1 4.6 4.5 4.6 3.4 0 5.6-2.2 6.4-4.4.2-.5.3-1 .3-1.5v-4.6z"/></g></g></a></g><a href="https://ourworldindata.org/grapher/fertility-vs-contraception" target="_blank"><text font-size="21.6" x="15" y="32.3" fill="#555"><tspan x="15" y="32.28">Children per woman vs. contraceptive prevalence (% of women aged 15-49),</tspan><tspan x="15" y="53.88">2014</tspan></text></a><text font-size="14.4" x="15" y="72.7" fill="#666"><tspan x="15" y="72.72">Fertility rate, defined as the average number of births per woman versus contraception prevalence. Contraceptive prevalence is</tspan><tspan x="15" y="88.56">the percentage of women who are practicing, or whose sexual partners are practicing, any form of contraception. It is usually</tspan><tspan x="15" y="104.4">measured for women aged 15-49 who are married or in union.</tspan></text></g><g><g class="AxisBoxView"><g class="HorizontalAxis"><text font-size="12.6" x="179" y="554"><tspan x="179.02" y="553.98">Contraceptive prevalence, any methods (% of women aged 15-49)</tspan></text><text x="165.4" y="533.9" fill="#666" text-anchor="middle" font-size="16.2">20%</text><text x="254.5" y="533.9" fill="#666" text-anchor="middle" font-size="16.2">30%</text><text x="343.5" y="533.9" fill="#666" text-anchor="middle" font-size="16.2">40%</text><text x="432.6" y="533.9" fill="#666" text-anchor="middle" font-size="16.2">50%</text><text x="521.7" y="533.9" fill="#666" text-anchor="middle" font-size="16.2">60%</text><text x="610.8" y="533.9" fill="#666" text-anchor="middle" font-size="16.2">70%</text><text x="699.8" y="533.9" fill="#666" text-anchor="middle" font-size="16.2">80%</text></g><g class="VerticalAxis"><text font-size="12.6" x="-428.9" y="25.1" transform="rotate(-90)"><tspan x="-428.87" y="25.08">Fertility rate (births per woman)</tspan></text><text x="90.9" y="512.7" fill="#666" dominant-baseline="middle" text-anchor="end" font-size="16.2">0 births</text><text x="90.9" y="451.3" fill="#666" dominant-baseline="middle" text-anchor="end" font-size="16.2">1 births</text><text x="90.9" y="389.9" fill="#666" dominant-baseline="middle" text-anchor="end" font-size="16.2">2 births</text><text x="90.9" y="328.4" fill="#666" dominant-baseline="middle" text-anchor="end" font-size="16.2">3 births</text><text x="90.9" y="267" fill="#666" dominant-baseline="middle" text-anchor="end" font-size="16.2">4 births</text><text x="90.9" y="205.6" fill="#666" dominant-baseline="middle" text-anchor="end" font-size="16.2">5 births</text><text x="90.9" y="144.2" fill="#666" dominant-baseline="middle" text-anchor="end" font-size="16.2">6 births</text></g><g class="AxisGridLines"><path stroke="#ccc" d="M95.9 512.7H715"/><path stroke="#ddd" stroke-dasharray="3,2" d="M95.9 451.3H715M95.9 389.9H715M95.9 328.4H715M95.9 267H715M95.9 205.6H715M95.9 144.2H715"/></g><g class="AxisGridLines" stroke="#ddd" stroke-dasharray="3,2"><path d="M165.4 512.7V126.6M254.5 512.7V126.6M343.5 512.7V126.6M432.6 512.7V126.6M521.7 512.7V126.6M610.8 512.7V126.6M699.8 512.7V126.6"/></g></g><g class="PointsWithLabels clickable" clip-path="url(#a)" font-family="Arial Narrow, Arial, sans-serif"><path fill="rgba(255,255,255,0)" d="M95.9 126.6H715v386.1H95.9z"/><defs><clipPath id="a"><path d="M85.9 116.6H725v406.1H85.9z"/></clipPath></defs><g class="key-Arab-World_0"><circle cx="416" cy="303" r="1.78" fill="#000" opacity=".8" stroke="#333" stroke-width=".7"/></g><g class="key-Caribbean-small-states_0"><circle cx="492" cy="385" r="1.78" fill="#000" opacity=".8" stroke="#333" stroke-width=".7"/></g><g class="key-Early__002ddemographic-dividend_0"><circle cx="483" cy="352" r="1.78" fill="#000" opacity=".8" stroke="#333" stroke-width=".7"/></g><g class="key-East-Asia-__0026-Pacific_0"><circle cx="680" cy="402" r="1.78" fill="#000" opacity=".8" stroke="#333" stroke-width=".7"/></g><g class="key-East-Asia-__0026-Pacific-__0028excluding-high-income__0029_0"><circle cx="698" cy="399" r="1.78" fill="#000" opacity=".8" stroke="#fff" stroke-width=".7"/></g><g class="key-East-Asia-__0026-Pacific-__0028IDA-__0026-IBRD__0029_0"><circle cx="698" cy="399" r="1.78" fill="#000" opacity=".8" stroke="#fff" stroke-width=".7"/></g><g class="key-Euro-area_0"><circle cx="619" cy="417" r="1.78" fill="#000" opacity=".8" stroke="#333" stroke-width=".7"/></g><g class="key-Europe-__0026-Central-Asia_0"><circle cx="593" cy="405" r="1.78" fill="#000" opacity=".8" stroke="#fff" stroke-width=".7"/></g><g class="key-Europe-__0026-Central-Asia-__0028excluding-high-income__0029_0"><circle cx="566" cy="393" r="1.78" fill="#000" opacity=".8" stroke="#fff" stroke-width=".7"/></g><g class="key-Europe-__0026-Central-Asia-__0028IDA-__0026-IBRD__0029_0"><circle cx="554" cy="396" r="1.78" fill="#000" opacity=".8" stroke="#fff" stroke-width=".7"/></g><g class="key-European-Union_0"><circle cx="618" cy="416" r="1.78" fill="#000" opacity=".8" stroke="#fff" stroke-width=".7"/></g><g class="key-Fragile-and-conflict-affected-situations_0"><circle cx="264" cy="231" r="1.78" fill="#000" opacity=".8" stroke="#333" stroke-width=".7"/></g><g class="key-Heavily-indebted-poor-countries-__0028HIPC__0029_0"><circle cx="260" cy="204" r="1.78" fill="#000" opacity=".8" stroke="#333" stroke-width=".7"/></g><g class="key-High-income_0"><circle cx="586" cy="408" r="1.78" fill="#000" opacity=".8" stroke="#fff" stroke-width=".7"/></g><g class="key-IBRD-only_0"><circle cx="606" cy="383" r="1.78" fill="#000" opacity=".8" stroke="#333" stroke-width=".7"/></g><g class="key-IDA-__0026-IBRD-total_0"><circle cx="539" cy="353" r="1.78" fill="#000" opacity=".8" stroke="#fff" stroke-width=".7"/></g><g class="key-IDA-blend_0"><circle cx="267" cy="248" r="1.78" fill="#000" opacity=".8" stroke="#333" stroke-width=".7"/></g><g class="key-IDA-only_0"><circle cx="333" cy="258" r="1.78" fill="#000" opacity=".8" stroke="#333" stroke-width=".7"/></g><g class="key-IDA-total_0"><circle cx="312" cy="255" r="1.78" fill="#000" opacity=".8" stroke="#fff" stroke-width=".7"/></g><g class="key-Late__002ddemographic-dividend_0"><circle cx="715" cy="408" r="1.78" fill="#000" opacity=".8" stroke="#fff" stroke-width=".7"/></g><g class="key-Latin-America-__0026-Caribbean_0"><circle cx="651" cy="383" r="1.78" fill="#000" opacity=".8" stroke="#fff" stroke-width=".7"/></g><g class="key-Latin-America-__0026-Caribbean-__0028excluding-high-income__0029_0"><circle cx="648" cy="383" r="1.78" fill="#000" opacity=".8" stroke="#fff" stroke-width=".7"/></g><g class="key-Latin-America-__0026-Caribbean-__0028IDA-__0026-IBRD__0029_0"><circle cx="652" cy="382" r="1.78" fill="#000" opacity=".8" stroke="#fff" stroke-width=".7"/></g><g class="key-Least-developed-countries__003a-UN-classification_0"><circle cx="325" cy="252" r="1.78" fill="#000" opacity=".8" stroke="#fff" stroke-width=".7"/></g><g class="key-Low-__0026-middle-income_0"><circle cx="538" cy="353" r="1.78" fill="#000" opacity=".8" stroke="#fff" stroke-width=".7"/></g><g class="key-Low-income_0"><circle cx="291" cy="219" r="1.78" fill="#000" opacity=".8" stroke="#333" stroke-width=".7"/></g><g class="key-Lower-middle-income_0"><circle cx="446" cy="339" r="1.78" fill="#000" opacity=".8" stroke="#333" stroke-width=".7"/></g><g class="key-Middle-East-__0026-North-Africa_0"><circle cx="506" cy="338" r="1.78" fill="#000" opacity=".8" stroke="#fff" stroke-width=".7"/></g><g class="key-Middle-East-__0026-North-Africa-__0028excluding-high-income__0029_0"><circle cx="534" cy="335" r="1.78" fill="#000" opacity=".8" stroke="#fff" stroke-width=".7"/></g><g class="key-Middle-East-__0026-North-Africa-__0028IDA-__0026-IBRD__0029_0"><circle cx="534" cy="335" r="1.78" fill="#000" opacity=".8" stroke="#fff" stroke-width=".7"/></g><g class="key-Middle-income_0"><circle cx="567" cy="368" r="1.78" fill="#000" opacity=".8" stroke="#333" stroke-width=".7"/></g><g class="key-North-America_0"><circle cx="634" cy="400" r="1.78" fill="#000" opacity=".8" stroke="#fff" stroke-width=".7"/></g><g class="key-OECD-members_0"><circle cx="597" cy="405" r="1.78" fill="#000" opacity=".8" stroke="#fff" stroke-width=".7"/></g><g class="key-Other-small-states_0"><circle cx="329" cy="317" r="1.78" fill="#000" opacity=".8" stroke="#333" stroke-width=".7"/></g><g class="key-Pacific-island-small-states_0"><circle cx="330" cy="311" r="1.78" fill="#000" opacity=".8" stroke="#fff" stroke-width=".7"/></g><g class="key-Post__002ddemographic-dividend_0"><circle cx="598" cy="412" r="1.78" fill="#000" opacity=".8" stroke="#fff" stroke-width=".7"/></g><g class="key-Pre__002ddemographic-dividend_0"><circle cx="220" cy="185" r="1.78" fill="#000" opacity=".8" stroke="#333" stroke-width=".7"/></g><g class="key-Small-states_0"><circle cx="367" cy="330" r="1.78" fill="#000" opacity=".8" stroke="#333" stroke-width=".7"/></g><g class="key-South-Asia_0"><circle cx="450" cy="357" r="1.78" fill="#000" opacity=".8" stroke="#fff" stroke-width=".7"/></g><g class="key-South-Asia-__0028IDA-__0026-IBRD__0029_0"><circle cx="450" cy="357" r="1.78" fill="#000" opacity=".8" stroke="#fff" stroke-width=".7"/></g><g class="key-Sub__002dSaharan-Africa_0"><circle cx="252" cy="206" r="1.78" fill="#000" opacity=".8" stroke="#fff" stroke-width=".7"/></g><g class="key-Sub__002dSaharan-Africa-__0028excluding-high-income__0029_0"><circle cx="252" cy="206" r="1.78" fill="#000" opacity=".8" stroke="#fff" stroke-width=".7"/></g><g class="key-Sub__002dSaharan-Africa-__0028IDA-__0026-IBRD__0029_0"><circle cx="252" cy="206" r="1.78" fill="#000" opacity=".8" stroke="#fff" stroke-width=".7"/></g><g class="key-Upper-middle-income_0"><circle cx="698" cy="400" r="1.78" fill="#000" opacity=".8" stroke="#fff" stroke-width=".7"/></g><g class="key-World_0"><circle cx="545" cy="361" r="1.78" fill="#000" opacity=".8" stroke="#fff" stroke-width=".7"/></g><g class="key-Bangladesh_0"><circle cx="543" cy="379" r="1.78" fill="#d14e5b" opacity=".8" stroke="#fff" stroke-width=".7"/></g><g class="key-Benin_0"><circle cx="146" cy="198" r="1.78" fill="#5675c1" opacity=".8" stroke="#333" stroke-width=".7"/></g><g class="key-Burkina-Faso_0"><circle cx="148" cy="173" r="1.78" fill="#5675c1" opacity=".8" stroke="#333" stroke-width=".7"/></g><g class="key-Cambodia_0"><circle cx="488" cy="350" r="1.78" fill="#d14e5b" opacity=".8" stroke="#fff" stroke-width=".7"/></g><g class="key-Cameroon_0"><circle cx="293" cy="214" r="1.78" fill="#5675c1" opacity=".8" stroke="#fff" stroke-width=".7"/></g><g class="key-Democratic-Republic-of-Congo_0"><circle cx="168" cy="126" r="1.78" fill="#5675c1" opacity=".8" stroke="#333" stroke-width=".7"/></g><g class="key-Cuba_0"><circle cx="643" cy="407" r="1.78" fill="#4d824b" opacity=".8" stroke="#fff" stroke-width=".7"/></g><g class="key-Dominican-Republic_0"><circle cx="606" cy="360" r="1.78" fill="#4d824b" opacity=".8" stroke="#fff" stroke-width=".7"/></g><g class="key-Egypt_0"><circle cx="508" cy="307" r="1.78" fill="#5675c1" opacity=".8" stroke="#333" stroke-width=".7"/></g><g class="key-El-Salvador_0"><circle cx="628" cy="382" r="1.78" fill="#4d824b" opacity=".8" stroke="#fff" stroke-width=".7"/></g><g class="key-Swaziland_0"><circle cx="576" cy="315" r="1.78" fill="#5675c1" opacity=".8" stroke="#333" stroke-width=".7"/></g><g class="key-Ethiopia_0"><circle cx="361" cy="240" r="1.78" fill="#5675c1" opacity=".8" stroke="#fff" stroke-width=".7"/></g><g class="key-Ghana_0"><circle cx="225" cy="261" r="1.78" fill="#5675c1" opacity=".8" stroke="#333" stroke-width=".7"/></g><g class="key-Guinea__002dBissau_0"><circle cx="129" cy="218" r="1.78" fill="#5675c1" opacity=".8" stroke="#333" stroke-width=".7"/></g><g class="key-Guyana_0"><circle cx="289" cy="355" r="1.78" fill="#69c487" opacity=".8" stroke="#333" stroke-width=".7"/></g><g class="key-Indonesia_0"><circle cx="535" cy="364" r="1.78" fill="#d14e5b" opacity=".8" stroke="#fff" stroke-width=".7"/></g><g class="key-Japan_0"><circle cx="474" cy="425" r="1.78" fill="#d14e5b" opacity=".8" stroke="#333" stroke-width=".7"/></g><g class="key-Kenya_0"><circle cx="503" cy="267" r="1.78" fill="#5675c1" opacity=".8" stroke="#333" stroke-width=".7"/></g><g class="key-North-Korea_0"><circle cx="683" cy="394" r="1.78" fill="#d14e5b" opacity=".8" stroke="#fff" stroke-width=".7"/></g><g class="key-Kyrgyzstan_0"><circle cx="361" cy="316" r="1.78" fill="#d14e5b" opacity=".8" stroke="#fff" stroke-width=".7"/></g><g class="key-Lesotho_0"><circle cx="523" cy="317" r="1.78" fill="#5675c1" opacity=".8" stroke="#fff" stroke-width=".7"/></g><g class="key-Malawi_0"><circle cx="509" cy="221" r="1.78" fill="#5675c1" opacity=".8" stroke="#333" stroke-width=".7"/></g><g class="key-Malaysia_0"><circle cx="452" cy="385" r="1.78" fill="#d14e5b" opacity=".8" stroke="#fff" stroke-width=".7"/></g><g class="key-Mauritius_0"><circle cx="555" cy="424" r="1.78" fill="#5675c1" opacity=".8" stroke="#333" stroke-width=".7"/></g><g class="key-Mexico_0"><circle cx="631" cy="374" r="1.78" fill="#4d824b" opacity=".8" stroke="#fff" stroke-width=".7"/></g><g class="key-Mongolia_0"><circle cx="473" cy="340" r="1.78" fill="#d14e5b" opacity=".8" stroke="#fff" stroke-width=".7"/></g><g class="key-Nepal_0"><circle cx="429" cy="376" r="1.78" fill="#d14e5b" opacity=".8" stroke="#333" stroke-width=".7"/></g><g class="key-Oman_0"><circle cx="251" cy="340" r="1.78" fill="#d14e5b" opacity=".8" stroke="#333" stroke-width=".7"/></g><g class="key-Peru_0"><circle cx="651" cy="361" r="1.78" fill="#69c487" opacity=".8" stroke="#333" stroke-width=".7"/></g><g class="key-Portugal_0"><circle cx="645" cy="437" r="1.78" fill="#ffd336" opacity=".8" stroke="#333" stroke-width=".7"/></g><g class="key-Samoa_0"><circle cx="226" cy="261" r="1.78" fill="#a652ba" opacity=".8" stroke="#fff" stroke-width=".7"/></g><g class="key-Sao-Tome-and-Principe_0"><circle cx="348" cy="231" r="1.78" fill="#5675c1" opacity=".8" stroke="#fff" stroke-width=".7"/></g><g class="key-Senegal_0"><circle cx="185" cy="211" r="1.78" fill="#5675c1" opacity=".8" stroke="#fff" stroke-width=".7"/></g><g class="key-Spain_0"><circle cx="634" cy="431" r="1.78" fill="#ffd336" opacity=".8" stroke="#fff" stroke-width=".7"/></g><g class="key-Sudan_0"><circle cx="95" cy="226" r="1.78" fill="#5675c1" opacity=".8" stroke="#333" stroke-width=".7"/></g><g class="key-Togo_0"><circle cx="164" cy="231" r="1.78" fill="#5675c1" opacity=".8" stroke="#333" stroke-width=".7"/></g><g class="key-Uganda_0"><circle cx="229" cy="158" r="1.78" fill="#5675c1" opacity=".8" stroke="#333" stroke-width=".7"/></g><g class="key-United-States_0"><circle cx="634" cy="398" r="1.78" fill="#4d824b" opacity=".8" stroke="#fff" stroke-width=".7"/></g><g class="key-Vietnam_0"><circle cx="661" cy="392" r="1.78" fill="#d14e5b" opacity=".8" stroke="#fff" stroke-width=".7"/></g><g class="key-Zambia_0"><circle cx="423" cy="199" r="1.78" fill="#5675c1" opacity=".8" stroke="#fff" stroke-width=".7"/></g><g class="key-Zimbabwe_0"><circle cx="583" cy="273" r="1.78" fill="#5675c1" opacity=".8" stroke="#333" stroke-width=".7"/></g><g class="key-Serbia_0"><circle cx="507" cy="423" r="1.78" fill="#ffd336" opacity=".8" stroke="#333" stroke-width=".7"/></g><g class="key-Palestine_0"><circle cx="496" cy="258" r="1.78" fill="#d14e5b" opacity=".8" stroke="#fff" stroke-width=".7"/></g><g class="backgroundLabels" fill="#333" font-size="11"><text x="416" y="300.22">Arab World</text><text x="492" y="382.22">Caribbean small states</text><text x="483" y="349.22">Early-demographic dividend</text><text x="587.38" y="399.22">East Asia &amp; Pacific</text><text x="619" y="414.22">Euro area</text><text x="264" y="228.22">Fragile and conflict affected situations</text><text x="260" y="201.22">Heavily indebted poor countries (HIPC)</text><text x="606" y="380.22">IBRD only</text><text x="267" y="245.22">IDA blend</text><text x="333" y="255.22">IDA only</text><text x="291" y="216.22">Low income</text><text x="446" y="336.22">Lower middle income</text><text x="567" y="365.22">Middle income</text><text x="329" y="314.22">Other small states</text><text x="220" y="182.22">Pre-demographic dividend</text><text x="367" y="327.22">Small states</text><text x="146" y="195.22">Benin</text><text x="148" y="170.22">Burkina Faso</text><text x="168" y="137.6">Democratic Republic of Congo</text><text x="508" y="304.22">Egypt</text><text x="576" y="312.22">Swaziland</text><text x="225" y="258.22">Ghana</text><text x="129" y="215.22">Guinea-Bissau</text><text x="289" y="352.22">Guyana</text><text x="474" y="422.22">Japan</text><text x="503" y="264.22">Kenya</text><text x="509" y="218.22">Malawi</text><text x="555" y="421.22">Mauritius</text><text x="429" y="373.22">Nepal</text><text x="251" y="337.22">Oman</text><text x="651" y="358.22">Peru</text><text x="645" y="434.22">Portugal</text><text x="95" y="223.22">Sudan</text><text x="164" y="228.22">Togo</text><text x="229" y="155.22">Uganda</text><text x="583" y="270.22">Zimbabwe</text><text x="507" y="420.22">Serbia</text></g></g><g class="ScatterColorLegend clickable" cursor="pointer"><g class="legendMark">,<path fill="#5675c1" d="M735 129.6h6v6h-6z"/>,<text font-size="12.6" x="746" y="136.7"><tspan x="746" y="136.68">Africa</tspan></text></g><g class="legendMark">,<path fill="#d14e5b" d="M735 147.2h6v6h-6z"/>,<text font-size="12.6" x="746" y="154.3"><tspan x="746" y="154.28">Asia</tspan></text></g><g class="legendMark">,<path fill="#ffd336" d="M735 164.8h6v6h-6z"/>,<text font-size="12.6" x="746" y="171.9"><tspan x="746" y="171.88">Europe</tspan></text></g><g class="legendMark">,<path fill="#4d824b" d="M735 182.4h6v6h-6z"/>,<text font-size="12.6" x="746" y="189.5"><tspan x="746" y="189.48">North America</tspan></text></g><g class="legendMark">,<path fill="#a652ba" d="M735 200h6v6h-6z"/>,<text font-size="12.6" x="746" y="207.1"><tspan x="746" y="207.08">Oceania</tspan></text></g><g class="legendMark">,<path fill="#69c487" d="M735 217.6h6v6h-6z"/>,<text font-size="12.6" x="746" y="224.7"><tspan x="746" y="224.68">South America</tspan></text></g></g></g><g class="SourcesFooter" fill="#777"><g class="clickable" fill="#777"><text font-size="12.6" x="15" y="581.6"><tspan x="15" y="581.58">Source: World Bank</tspan></text></g><text font-size="12.6" x="775.4" y="581.6"><tspan x="775.4" y="581.58"><a class="cclogo" href="http://creativecommons.org/licenses/by-sa/4.0/deed.en_US" target="_blank" fill="#777">CC BY-SA</a></tspan></text></g></g></svg>