<svg xmlns="http://www.w3.org/2000/svg" version="1.1" style="background-color:#fff;-webkit-font-smoothing:antialiased" width="850" height="600" font-family="'Helvetica Neue',Helvetica,Arial,sans-serif" font-size="18" text-rendering="optimizeLegibility"><g class="ChartTab"><g class="HeaderView"><g opacity=".8" transform="matrix(.27 0 0 .27 778 15)"><a xmlns:xlink="http://www.w3.org/1999/xlink" xlink:href="https://ourworldindata.org" target="_blank"><g><path fill="#1B2543" d="M0 0h211.2v130.1H0z"/><path fill="#E63912" d="M0 112.2h211.2v17.9H0z"/><g><path fill="none" d="M1.2 12.3h210.2v99.2H1.2z"/><path fill="#FFF" d="M37.8 32.2c0 12.7-7.7 19.4-17.1 19.4-9.7 0-16.6-7.5-16.6-18.7 0-11.7 7.3-19.3 17.1-19.3 10.1.1 16.6 7.7 16.6 18.6zm-28.6.6c0 7.9 4.3 14.9 11.8 14.9 7.5 0 11.8-6.9 11.8-15.3 0-7.3-3.8-14.9-11.8-14.9-7.9 0-11.8 7.3-11.8 15.3zM62.7 43.8c0 2.7.1 5.1.2 7.2h-4.3l-.3-4.3h-.1c-1.3 2.1-4 4.9-8.8 4.9-4.2 0-9.1-2.3-9.1-11.6V24.6h4.8v14.6c0 5 1.5 8.4 5.9 8.4 3.2 0 5.5-2.2 6.3-4.4.3-.7.4-1.6.4-2.5V24.6h4.8v19.2zM67.3 32.8c0-3.1-.1-5.8-.2-8.2h4.2l.2 5.2h.2c1.2-3.5 4.1-5.8 7.3-5.8.5 0 .9.1 1.4.2v4.5c-.5-.1-1-.2-1.6-.2-3.4 0-5.8 2.6-6.5 6.2-.1.7-.2 1.4-.2 2.2V51h-4.8V32.8zM95.4 51L86 14.2h5l4.4 18.6c1.1 4.6 2.1 9.2 2.7 12.7h.1c.6-3.7 1.8-8 3-12.8l4.9-18.5h5l4.5 18.7c1 4.4 2 8.7 2.6 12.6h.1c.8-4 1.8-8.1 3-12.7l4.9-18.5h4.9L120.6 51h-5L111 31.9c-1.1-4.7-1.9-8.3-2.4-12h-.1c-.7 3.7-1.5 7.3-2.8 12L100.4 51h-5zM154.9 37.6c0 9.8-6.8 14-13.2 14-7.2 0-12.7-5.2-12.7-13.6 0-8.8 5.8-14 13.1-14 7.7 0 12.8 5.5 12.8 13.6zm-21 .3c0 5.8 3.3 10.1 8 10.1 4.6 0 8-4.3 8-10.3 0-4.5-2.2-10.1-7.9-10.1s-8.1 5.2-8.1 10.3zM158.2 32.8c0-3.1-.1-5.8-.2-8.2h4.2l.2 5.2h.2c1.2-3.5 4.1-5.8 7.3-5.8.5 0 .9.1 1.4.2v4.5c-.5-.1-1-.2-1.6-.2-3.4 0-5.8 2.6-6.5 6.2-.1.7-.2 1.4-.2 2.2V51h-4.8V32.8zM173.5 12.3h4.8V51h-4.8V12.3zM206.5 12.3v31.9c0 2.3.1 5 .2 6.8h-4.3l-.2-4.6h-.2c-1.5 2.9-4.7 5.2-9 5.2-6.4 0-11.3-5.4-11.3-13.4-.1-8.8 5.4-14.2 11.9-14.2 4 0 6.8 1.9 8 4h.1V12.3h4.8zm-4.8 23.1c0-.6-.1-1.4-.2-2a7 7 0 00-6.9-5.6c-5 0-7.9 4.4-7.9 10.2 0 5.3 2.6 9.8 7.8 9.8 3.2 0 6.2-2.1 7.1-5.7.2-.7.2-1.3.2-2.1v-4.6zM42.8 64c.1 1.6-1.1 2.9-3.1 2.9-1.7 0-2.9-1.3-2.9-2.9 0-1.7 1.3-3 3-3 1.9 0 3 1.3 3 3zm-5.4 33.8V71.4h4.8v26.4h-4.8zM47.5 78.6c0-2.7-.1-5-.2-7.1h4.3l.3 4.4h.1c1.3-2.5 4.4-5 8.8-5 3.7 0 9.4 2.2 9.4 11.2v15.8h-4.8V82.6c0-4.3-1.6-7.8-6.1-7.8-3.2 0-5.6 2.2-6.5 4.9-.2.6-.3 1.4-.3 2.2v15.9h-4.8V78.6zM84 61.6c2.9-.4 6.3-.8 10.1-.8 6.8 0 11.7 1.6 14.9 4.6 3.3 3 5.2 7.3 5.2 13.2 0 6-1.9 10.9-5.3 14.3-3.4 3.4-9.1 5.3-16.3 5.3-3.4 0-6.2-.2-8.6-.4V61.6zm4.8 32.5c1.2.2 3 .3 4.8.3 10.2 0 15.7-5.7 15.7-15.6.1-8.7-4.9-14.2-14.9-14.2-2.5 0-4.3.2-5.6.5v29zM132.1 97.8l-.4-3.3h-.2a9.79 9.79 0 01-8.1 3.9c-5.4 0-8.1-3.8-8.1-7.6 0-6.4 5.7-9.9 15.9-9.8v-.5c0-2.2-.6-6.1-6-6.1-2.5 0-5 .8-6.9 2l-1.1-3.2c2.2-1.4 5.4-2.3 8.7-2.3 8.1 0 10.1 5.5 10.1 10.8v9.9c0 2.3.1 4.5.4 6.3h-4.3zm-.7-13.4c-5.3-.1-11.2.8-11.2 5.9 0 3.1 2.1 4.6 4.5 4.6 3.4 0 5.6-2.2 6.4-4.4.2-.5.3-1 .3-1.5v-4.6zM146.6 63.9v7.6h6.9v3.7h-6.9v14.2c0 3.3.9 5.1 3.6 5.1 1.3 0 2.2-.2 2.8-.3l.2 3.6c-.9.4-2.4.7-4.3.7-2.2 0-4-.7-5.2-2-1.4-1.4-1.9-3.8-1.9-6.9V75.1h-4.1v-3.7h4.1v-6.3l4.8-1.2zM171.4 97.8l-.4-3.3h-.2a9.79 9.79 0 01-8.1 3.9c-5.4 0-8.1-3.8-8.1-7.6 0-6.4 5.7-9.9 15.9-9.8v-.5c0-2.2-.6-6.1-6-6.1-2.5 0-5 .8-6.9 2l-1.1-3.2c2.2-1.4 5.4-2.3 8.7-2.3 8.1 0 10.1 5.5 10.1 10.8v9.9c0 2.3.1 4.5.4 6.3h-4.3zm-.7-13.4c-5.3-.1-11.2.8-11.2 5.9 0 3.1 2.1 4.6 4.5 4.6 3.4 0 5.6-2.2 6.4-4.4.2-.5.3-1 .3-1.5v-4.6z"/></g></g></a></g><a href="https://ourworldindata.org/grapher/food-supply-by-region-kilocalories" target="_blank"><text font-size="25.2" x="15" y="35.2" fill="#555"><tspan x="15" y="35.16">Food energy supply by region</tspan></text></a><text font-size="14.4" x="15" y="53.7" fill="#666"><tspan x="15" y="53.72">Daily per capita food supply by world region, measured on the basis of average caloric supply (kilocalories per person</tspan><tspan x="15" y="69.56">per day). Note that this measures the food available for consumption at the household level but does not account for</tspan><tspan x="15" y="85.4">any food wasted or not eaten at the consumption level.</tspan></text></g><g class="LineChart"><defs><clipPath id="a"><path d="M50.82 0h830v897.8h-830z"/></clipPath></defs><g class="AxisBoxView"><g class="HorizontalAxis" fill="#666" text-anchor="middle" font-size="16.2"><text x="60.8" y="556.5">1961</text><text x="170.4" y="556.5">1970</text><text x="292.2" y="556.5">1980</text><text x="414" y="556.5">1990</text><text x="535.7" y="556.5">2000</text><text x="694" y="556.5">2013</text></g><g class="VerticalAxis" fill="#666" dominant-baseline="middle" text-anchor="end" font-size="16.2"><text x="55.82" y="535.3">0</text><text x="55.82" y="478.9">500</text><text x="55.82" y="422.5">1,000</text><text x="55.82" y="366.2">1,500</text><text x="55.82" y="309.8">2,000</text><text x="55.82" y="253.4">2,500</text><text x="55.82" y="197">3,000</text><text x="55.82" y="140.6">3,500</text></g><g class="AxisGridLines"><path stroke="#ccc" d="M60.82 535.3h633.2"/><path stroke="#ddd" stroke-dasharray="3,2" d="M60.82 478.9h633.2M60.82 422.5h633.2M60.82 366.2h633.2M60.82 309.8h633.2M60.82 253.4h633.2M60.82 197h633.2M60.82 140.6h633.2"/></g></g><g clip-path="url(#a)"><g class="HeightedLegend clickable"><g class="legendMark"><g class="indicator" stroke="#666" stroke-width=".5"><path d="M699.02 122.3h12.5M711.52 122.3h0M711.52 122.3h12.5"/></g><text font-size="13.5" x="729" y="126.4" fill="#9ecc8a"><tspan x="729.02" y="126.35">Northern America</tspan></text></g><g class="legendMark"><g class="indicator" stroke="#666" stroke-width=".5"><path d="M699.02 155.6h12.5M711.52 155.6h0M711.52 155.6h12.5"/></g><text font-size="13.5" x="729" y="159.7" fill="#e6332e"><tspan x="729.02" y="159.65">Europe</tspan></text></g><g class="legendMark"><g class="indicator" stroke="#666" stroke-width=".5"><path d="M699.02 172.7h12.5M711.52 172.7h0M711.52 172.7h12.5"/></g><text font-size="13.5" x="729" y="176.8" fill="#2a939b"><tspan x="729.02" y="176.75">Oceania</tspan></text></g><g class="legendMark"><g class="indicator" stroke="#666" stroke-width=".5"><path d="M699.02 194h12.5M711.52 194h0M711.52 194h12.5"/></g><text font-size="13.5" x="729" y="198.1" fill="#a652ba"><tspan x="729.02" y="198.05">South America</tspan></text></g><g class="legendMark"><g class="indicator" stroke="#666" stroke-width=".5"><path d="M699.02 210.1h22.5M721.52 210.1h0M721.52 210.1h2.5"/></g><text font-size="13.5" x="729" y="214.2" fill="#f6a324"><tspan x="729.02" y="214.15">World</tspan></text></g><g class="legendMark"><g class="indicator" stroke="#666" stroke-width=".5"><path d="M699.02 221.9h17.5M716.52 221.9v3.7M716.52 225.6h7.5"/></g><text font-size="13.5" x="729" y="229.7" fill="#34983f"><tspan x="729.02" y="229.65">Asia</tspan></text></g><g class="legendMark"><g class="indicator" stroke="#666" stroke-width=".5"><path d="M699.02 226.6h12.5M711.52 226.6v14.5M711.52 241.1h12.5"/></g><text font-size="13.5" x="729" y="245.2" fill="#ca2628"><tspan x="729.02" y="245.15">Caribbean</tspan></text></g><g class="legendMark"><g class="indicator" stroke="#666" stroke-width=".5"><path d="M699.02 239.4h7.5M706.52 239.4v17.2M706.52 256.6h17.5"/></g><text font-size="13.5" x="729" y="260.7" fill="#3360a9"><tspan x="729.02" y="260.65">Africa</tspan></text></g></g><g class="Lines"><g class="key-Africa_0"><path stroke="#3360a9" stroke-linecap="round" d="M61 311l12-4h12l12-1 13-1 12 4 12-4 12-1 12-4 12-2 13 2 12 4 12-3 12-5h25l12-2 12-3 12-3 12-4 12-1 13-1 12 4 12 3 12-5 12-4 12 1 13-2 12-1 12-1 12-3h12l13-3 12-1 12-3 12-1 12-2 12-2 13-1h12l12-3 12-2h12l12-2 13-3 12-3h12l12-2 12-1 13-2 12-2 12-1 12-1" fill="none" stroke-width="1.5"/><g fill="#3360a9"><circle cx="61" cy="311" r="2"/><circle cx="73" cy="307" r="2"/><circle cx="85" cy="307" r="2"/><circle cx="97" cy="306" r="2"/><circle cx="110" cy="305" r="2"/><circle cx="122" cy="309" r="2"/><circle cx="134" cy="305" r="2"/><circle cx="146" cy="304" r="2"/><circle cx="158" cy="300" r="2"/><circle cx="170" cy="298" r="2"/><circle cx="183" cy="300" r="2"/><circle cx="195" cy="304" r="2"/><circle cx="207" cy="301" r="2"/><circle cx="219" cy="296" r="2"/><circle cx="231" cy="296" r="2"/><circle cx="244" cy="296" r="2"/><circle cx="256" cy="294" r="2"/><circle cx="268" cy="291" r="2"/><circle cx="280" cy="288" r="2"/><circle cx="292" cy="284" r="2"/><circle cx="304" cy="283" r="2"/><circle cx="317" cy="282" r="2"/><circle cx="329" cy="286" r="2"/><circle cx="341" cy="289" r="2"/><circle cx="353" cy="284" r="2"/><circle cx="365" cy="280" r="2"/><circle cx="377" cy="281" r="2"/><circle cx="390" cy="279" r="2"/><circle cx="402" cy="278" r="2"/><circle cx="414" cy="277" r="2"/><circle cx="426" cy="274" r="2"/><circle cx="438" cy="274" r="2"/><circle cx="451" cy="271" r="2"/><circle cx="463" cy="270" r="2"/><circle cx="475" cy="267" r="2"/><circle cx="487" cy="266" r="2"/><circle cx="499" cy="264" r="2"/><circle cx="511" cy="262" r="2"/><circle cx="524" cy="261" r="2"/><circle cx="536" cy="261" r="2"/><circle cx="548" cy="258" r="2"/><circle cx="560" cy="256" r="2"/><circle cx="572" cy="256" r="2"/><circle cx="584" cy="254" r="2"/><circle cx="597" cy="251" r="2"/><circle cx="609" cy="248" r="2"/><circle cx="621" cy="248" r="2"/><circle cx="633" cy="246" r="2"/><circle cx="645" cy="245" r="2"/><circle cx="658" cy="243" r="2"/><circle cx="670" cy="241" r="2"/><circle cx="682" cy="240" r="2"/><circle cx="694" cy="239" r="2"/></g></g><g class="key-Asia_0"><path stroke="#34983f" stroke-linecap="round" d="M61 332l12-7 12-2 12-5 13-4 12-3h12l12 1 12-1 12-8 13 4 12 1 12-7 12 3 12-3 13 4 12-7 12-9 12 2 12-2 12-3 13-7 12-9 12-2 12 2 12-1 12-2 13-3 12-3 12 2 12 1 12-3 13-1 12-5 12-5 12-1 12-1 12-2 13-2 12-1 12 2h24l12-1 13-2 12-3 12-4 12-3 12-1 13-4 12-3 12-1 12-1" fill="none" stroke-width="1.5"/><g fill="#34983f"><circle cx="61" cy="332" r="2"/><circle cx="73" cy="325" r="2"/><circle cx="85" cy="323" r="2"/><circle cx="97" cy="318" r="2"/><circle cx="110" cy="314" r="2"/><circle cx="122" cy="311" r="2"/><circle cx="134" cy="311" r="2"/><circle cx="146" cy="312" r="2"/><circle cx="158" cy="311" r="2"/><circle cx="170" cy="303" r="2"/><circle cx="183" cy="307" r="2"/><circle cx="195" cy="308" r="2"/><circle cx="207" cy="301" r="2"/><circle cx="219" cy="304" r="2"/><circle cx="231" cy="301" r="2"/><circle cx="244" cy="305" r="2"/><circle cx="256" cy="298" r="2"/><circle cx="268" cy="289" r="2"/><circle cx="280" cy="291" r="2"/><circle cx="292" cy="289" r="2"/><circle cx="304" cy="286" r="2"/><circle cx="317" cy="279" r="2"/><circle cx="329" cy="270" r="2"/><circle cx="341" cy="268" r="2"/><circle cx="353" cy="270" r="2"/><circle cx="365" cy="269" r="2"/><circle cx="377" cy="267" r="2"/><circle cx="390" cy="264" r="2"/><circle cx="402" cy="261" r="2"/><circle cx="414" cy="263" r="2"/><circle cx="426" cy="264" r="2"/><circle cx="438" cy="261" r="2"/><circle cx="451" cy="260" r="2"/><circle cx="463" cy="255" r="2"/><circle cx="475" cy="250" r="2"/><circle cx="487" cy="249" r="2"/><circle cx="499" cy="248" r="2"/><circle cx="511" cy="246" r="2"/><circle cx="524" cy="244" r="2"/><circle cx="536" cy="243" r="2"/><circle cx="548" cy="245" r="2"/><circle cx="560" cy="245" r="2"/><circle cx="572" cy="245" r="2"/><circle cx="584" cy="244" r="2"/><circle cx="597" cy="242" r="2"/><circle cx="609" cy="239" r="2"/><circle cx="621" cy="235" r="2"/><circle cx="633" cy="232" r="2"/><circle cx="645" cy="231" r="2"/><circle cx="658" cy="227" r="2"/><circle cx="670" cy="224" r="2"/><circle cx="682" cy="223" r="2"/><circle cx="694" cy="222" r="2"/></g></g><g class="key-World_0"><path stroke="#f6a324" stroke-linecap="round" d="M61 288l12-6 12-1 12-4 13-2 12-2h12l12-1 12-1 12-5 13 3 12 1 12-4 12 1 12-2 13 1 12-3 12-7h12l12-1 12-2 13-3 12-5 12-1h12l12-1 12-2 13-2 12-1 12 2 12 2 12-1 13-1 12-2 12-3 12-1 12-2 12-1 13-2 12-1h24l12-1 12-1 13-2 12-2 12-3 12-2h12l13-3 12-2 12-1 12-1" fill="none" stroke-width="1.5"/><g fill="#f6a324"><circle cx="61" cy="288" r="2"/><circle cx="73" cy="282" r="2"/><circle cx="85" cy="281" r="2"/><circle cx="97" cy="277" r="2"/><circle cx="110" cy="275" r="2"/><circle cx="122" cy="273" r="2"/><circle cx="134" cy="273" r="2"/><circle cx="146" cy="272" r="2"/><circle cx="158" cy="271" r="2"/><circle cx="170" cy="266" r="2"/><circle cx="183" cy="269" r="2"/><circle cx="195" cy="270" r="2"/><circle cx="207" cy="266" r="2"/><circle cx="219" cy="267" r="2"/><circle cx="231" cy="265" r="2"/><circle cx="244" cy="266" r="2"/><circle cx="256" cy="263" r="2"/><circle cx="268" cy="256" r="2"/><circle cx="280" cy="256" r="2"/><circle cx="292" cy="255" r="2"/><circle cx="304" cy="253" r="2"/><circle cx="317" cy="250" r="2"/><circle cx="329" cy="245" r="2"/><circle cx="341" cy="244" r="2"/><circle cx="353" cy="244" r="2"/><circle cx="365" cy="243" r="2"/><circle cx="377" cy="241" r="2"/><circle cx="390" cy="239" r="2"/><circle cx="402" cy="238" r="2"/><circle cx="414" cy="240" r="2"/><circle cx="426" cy="242" r="2"/><circle cx="438" cy="241" r="2"/><circle cx="451" cy="240" r="2"/><circle cx="463" cy="238" r="2"/><circle cx="475" cy="235" r="2"/><circle cx="487" cy="234" r="2"/><circle cx="499" cy="232" r="2"/><circle cx="511" cy="231" r="2"/><circle cx="524" cy="229" r="2"/><circle cx="536" cy="228" r="2"/><circle cx="548" cy="228" r="2"/><circle cx="560" cy="228" r="2"/><circle cx="572" cy="227" r="2"/><circle cx="584" cy="226" r="2"/><circle cx="597" cy="224" r="2"/><circle cx="609" cy="222" r="2"/><circle cx="621" cy="219" r="2"/><circle cx="633" cy="217" r="2"/><circle cx="645" cy="217" r="2"/><circle cx="658" cy="214" r="2"/><circle cx="670" cy="212" r="2"/><circle cx="682" cy="211" r="2"/><circle cx="694" cy="210" r="2"/></g></g><g class="key-Europe_0"><path stroke="#e6332e" stroke-linecap="round" d="M61 192l12-5 12-3h12l13-3 12-2 12-2 12-4h12l12-5 13 1 12 1 12-4 12-1 12 2 13-5 12 2 12-3 12-2h12l12 3 13-1 12-1 12-1 12-1 12-1 12-3 13-1 12 2 12 1 12 14h12l13 4 12 5h12l12-1 12-1 12-4 13-1h12l12-5 12-4 12 2 12-3 13-2 12-2 12-2 12-1 12 2h13l12-2 12 1h12" fill="none" stroke-width="1.5"/><g fill="#e6332e"><circle cx="61" cy="192" r="2"/><circle cx="73" cy="187" r="2"/><circle cx="85" cy="184" r="2"/><circle cx="97" cy="184" r="2"/><circle cx="110" cy="181" r="2"/><circle cx="122" cy="179" r="2"/><circle cx="134" cy="177" r="2"/><circle cx="146" cy="173" r="2"/><circle cx="158" cy="173" r="2"/><circle cx="170" cy="168" r="2"/><circle cx="183" cy="169" r="2"/><circle cx="195" cy="170" r="2"/><circle cx="207" cy="166" r="2"/><circle cx="219" cy="165" r="2"/><circle cx="231" cy="167" r="2"/><circle cx="244" cy="162" r="2"/><circle cx="256" cy="164" r="2"/><circle cx="268" cy="161" r="2"/><circle cx="280" cy="159" r="2"/><circle cx="292" cy="159" r="2"/><circle cx="304" cy="162" r="2"/><circle cx="317" cy="161" r="2"/><circle cx="329" cy="160" r="2"/><circle cx="341" cy="159" r="2"/><circle cx="353" cy="158" r="2"/><circle cx="365" cy="157" r="2"/><circle cx="377" cy="154" r="2"/><circle cx="390" cy="153" r="2"/><circle cx="402" cy="155" r="2"/><circle cx="414" cy="156" r="2"/><circle cx="426" cy="170" r="2"/><circle cx="438" cy="170" r="2"/><circle cx="451" cy="174" r="2"/><circle cx="463" cy="179" r="2"/><circle cx="475" cy="179" r="2"/><circle cx="487" cy="178" r="2"/><circle cx="499" cy="177" r="2"/><circle cx="511" cy="173" r="2"/><circle cx="524" cy="172" r="2"/><circle cx="536" cy="172" r="2"/><circle cx="548" cy="167" r="2"/><circle cx="560" cy="163" r="2"/><circle cx="572" cy="165" r="2"/><circle cx="584" cy="162" r="2"/><circle cx="597" cy="160" r="2"/><circle cx="609" cy="158" r="2"/><circle cx="621" cy="156" r="2"/><circle cx="633" cy="155" r="2"/><circle cx="645" cy="157" r="2"/><circle cx="658" cy="157" r="2"/><circle cx="670" cy="155" r="2"/><circle cx="682" cy="156" r="2"/><circle cx="694" cy="156" r="2"/></g></g><g class="key-South-America_0"><path stroke="#a652ba" stroke-linecap="round" d="M61 273l12-3 12 4 12-7 13-3 12 2 12-3 12-6 12-1 12 1h13l12 4 12 3 12-11 12-2 13-3 12-1 12-3 12-8 12-1 12 4 13 2 12 4h12l12-2 12-2 12-3h13l12 2 12 2 12-6 12-3 13-1 12-4 12-1 12-1 12-1 12 1 13-3 12-2 12-1 12 3 12-9 12-2 13-1 12-2 12-2 12-7 12 2 13-4 12-4 12 2 12-2" fill="none" stroke-width="1.5"/><g fill="#a652ba"><circle cx="61" cy="273" r="2"/><circle cx="73" cy="270" r="2"/><circle cx="85" cy="274" r="2"/><circle cx="97" cy="267" r="2"/><circle cx="110" cy="264" r="2"/><circle cx="122" cy="266" r="2"/><circle cx="134" cy="263" r="2"/><circle cx="146" cy="257" r="2"/><circle cx="158" cy="256" r="2"/><circle cx="170" cy="257" r="2"/><circle cx="183" cy="257" r="2"/><circle cx="195" cy="261" r="2"/><circle cx="207" cy="264" r="2"/><circle cx="219" cy="253" r="2"/><circle cx="231" cy="251" r="2"/><circle cx="244" cy="248" r="2"/><circle cx="256" cy="247" r="2"/><circle cx="268" cy="244" r="2"/><circle cx="280" cy="236" r="2"/><circle cx="292" cy="235" r="2"/><circle cx="304" cy="239" r="2"/><circle cx="317" cy="241" r="2"/><circle cx="329" cy="245" r="2"/><circle cx="341" cy="245" r="2"/><circle cx="353" cy="243" r="2"/><circle cx="365" cy="241" r="2"/><circle cx="377" cy="238" r="2"/><circle cx="390" cy="238" r="2"/><circle cx="402" cy="240" r="2"/><circle cx="414" cy="242" r="2"/><circle cx="426" cy="236" r="2"/><circle cx="438" cy="233" r="2"/><circle cx="451" cy="232" r="2"/><circle cx="463" cy="228" r="2"/><circle cx="475" cy="227" r="2"/><circle cx="487" cy="226" r="2"/><circle cx="499" cy="225" r="2"/><circle cx="511" cy="226" r="2"/><circle cx="524" cy="223" r="2"/><circle cx="536" cy="221" r="2"/><circle cx="548" cy="220" r="2"/><circle cx="560" cy="223" r="2"/><circle cx="572" cy="214" r="2"/><circle cx="584" cy="212" r="2"/><circle cx="597" cy="211" r="2"/><circle cx="609" cy="209" r="2"/><circle cx="621" cy="207" r="2"/><circle cx="633" cy="200" r="2"/><circle cx="645" cy="202" r="2"/><circle cx="658" cy="198" r="2"/><circle cx="670" cy="194" r="2"/><circle cx="682" cy="196" r="2"/><circle cx="694" cy="194" r="2"/></g></g><g class="key-Northern-America_0"><path stroke="#9ecc8a" stroke-linecap="round" d="M61 211l12 2 12-1 12-5 13-1 12-3 12-3 12-2 12-4h12l13-1 12-2 12 2 12 1 12 1 13-15 12 3 12-1 12-6 12 3 12-3 13 2 12-3 12-6 12-11 12 2 12-10h13l12 3 12-6 12-3 12-5 13-5 12-7 12 9 12-1 12-8 12-2 13-2 12-8 12 5 12-8h12l12-3 13-1 12 4 12 3 12 6 12 6 13-1h12l12-4h12" fill="none" stroke-width="1.5"/><g fill="#9ecc8a"><circle cx="61" cy="211" r="2"/><circle cx="73" cy="213" r="2"/><circle cx="85" cy="212" r="2"/><circle cx="97" cy="207" r="2"/><circle cx="110" cy="206" r="2"/><circle cx="122" cy="203" r="2"/><circle cx="134" cy="200" r="2"/><circle cx="146" cy="198" r="2"/><circle cx="158" cy="194" r="2"/><circle cx="170" cy="194" r="2"/><circle cx="183" cy="193" r="2"/><circle cx="195" cy="191" r="2"/><circle cx="207" cy="193" r="2"/><circle cx="219" cy="194" r="2"/><circle cx="231" cy="195" r="2"/><circle cx="244" cy="180" r="2"/><circle cx="256" cy="183" r="2"/><circle cx="268" cy="182" r="2"/><circle cx="280" cy="176" r="2"/><circle cx="292" cy="179" r="2"/><circle cx="304" cy="176" r="2"/><circle cx="317" cy="178" r="2"/><circle cx="329" cy="175" r="2"/><circle cx="341" cy="169" r="2"/><circle cx="353" cy="158" r="2"/><circle cx="365" cy="160" r="2"/><circle cx="377" cy="150" r="2"/><circle cx="390" cy="150" r="2"/><circle cx="402" cy="153" r="2"/><circle cx="414" cy="147" r="2"/><circle cx="426" cy="144" r="2"/><circle cx="438" cy="139" r="2"/><circle cx="451" cy="134" r="2"/><circle cx="463" cy="127" r="2"/><circle cx="475" cy="136" r="2"/><circle cx="487" cy="135" r="2"/><circle cx="499" cy="127" r="2"/><circle cx="511" cy="125" r="2"/><circle cx="524" cy="123" r="2"/><circle cx="536" cy="115" r="2"/><circle cx="548" cy="120" r="2"/><circle cx="560" cy="112" r="2"/><circle cx="572" cy="112" r="2"/><circle cx="584" cy="109" r="2"/><circle cx="597" cy="108" r="2"/><circle cx="609" cy="112" r="2"/><circle cx="621" cy="115" r="2"/><circle cx="633" cy="121" r="2"/><circle cx="645" cy="127" r="2"/><circle cx="658" cy="126" r="2"/><circle cx="670" cy="126" r="2"/><circle cx="682" cy="122" r="2"/><circle cx="694" cy="122" r="2"/></g></g><g class="key-Oceania_0"><path stroke="#2a939b" stroke-linecap="round" d="M61 195l12-3 12-5 12 2 13 4 12-8 12 7 12-1 12-1 12-2 13-4 12-3 12 10 12 7 12-7 13-4 12 6 12 4 12 2 12-4h12l13-4 12 8 12-6 12-3 12 1 12-2h13l12-1 12-7 12 6h12l13 6h12l12-5 12 2 12-2 12 7h13l12 3 12-5 12-2 12-3 12 4 13-5 12-4 12-4 12-1 12 1 13-1 12-2 12-2 12-1" fill="none" stroke-width="1.5"/><g fill="#2a939b"><circle cx="61" cy="195" r="2"/><circle cx="73" cy="192" r="2"/><circle cx="85" cy="187" r="2"/><circle cx="97" cy="189" r="2"/><circle cx="110" cy="193" r="2"/><circle cx="122" cy="185" r="2"/><circle cx="134" cy="192" r="2"/><circle cx="146" cy="191" r="2"/><circle cx="158" cy="190" r="2"/><circle cx="170" cy="188" r="2"/><circle cx="183" cy="184" r="2"/><circle cx="195" cy="181" r="2"/><circle cx="207" cy="191" r="2"/><circle cx="219" cy="198" r="2"/><circle cx="231" cy="191" r="2"/><circle cx="244" cy="187" r="2"/><circle cx="256" cy="193" r="2"/><circle cx="268" cy="197" r="2"/><circle cx="280" cy="199" r="2"/><circle cx="292" cy="195" r="2"/><circle cx="304" cy="195" r="2"/><circle cx="317" cy="191" r="2"/><circle cx="329" cy="199" r="2"/><circle cx="341" cy="193" r="2"/><circle cx="353" cy="190" r="2"/><circle cx="365" cy="191" r="2"/><circle cx="377" cy="189" r="2"/><circle cx="390" cy="189" r="2"/><circle cx="402" cy="188" r="2"/><circle cx="414" cy="181" r="2"/><circle cx="426" cy="187" r="2"/><circle cx="438" cy="187" r="2"/><circle cx="451" cy="193" r="2"/><circle cx="463" cy="193" r="2"/><circle cx="475" cy="188" r="2"/><circle cx="487" cy="190" r="2"/><circle cx="499" cy="188" r="2"/><circle cx="511" cy="195" r="2"/><circle cx="524" cy="195" r="2"/><circle cx="536" cy="198" r="2"/><circle cx="548" cy="193" r="2"/><circle cx="560" cy="191" r="2"/><circle cx="572" cy="188" r="2"/><circle cx="584" cy="192" r="2"/><circle cx="597" cy="187" r="2"/><circle cx="609" cy="183" r="2"/><circle cx="621" cy="179" r="2"/><circle cx="633" cy="178" r="2"/><circle cx="645" cy="179" r="2"/><circle cx="658" cy="178" r="2"/><circle cx="670" cy="176" r="2"/><circle cx="682" cy="174" r="2"/><circle cx="694" cy="173" r="2"/></g></g><g class="key-Caribbean_0"><path stroke="#ca2628" stroke-linecap="round" d="M61 311l12-9 12-9 12 2 13-1 12 3 12-3 12-5 12-5 12-6 13-10 12 3 12 1 12-12 12 8 13-6 12 1 12-4 12 4 12-11 12-1 13-1 12-3 12-2 12-1 12 2 12 4 13 8h12l12 8 12 6 12 10 13 5 12-2h12l12-4 12-4 12-6 13-10 12-8 12-1 12-4 12 3 12-6h13l12-3 12-1 12 5 12-6 13-5 12-3 12-2 12-3" fill="none" stroke-width="1.5"/><g fill="#ca2628"><circle cx="61" cy="311" r="2"/><circle cx="73" cy="302" r="2"/><circle cx="85" cy="293" r="2"/><circle cx="97" cy="295" r="2"/><circle cx="110" cy="294" r="2"/><circle cx="122" cy="297" r="2"/><circle cx="134" cy="294" r="2"/><circle cx="146" cy="289" r="2"/><circle cx="158" cy="284" r="2"/><circle cx="170" cy="278" r="2"/><circle cx="183" cy="268" r="2"/><circle cx="195" cy="271" r="2"/><circle cx="207" cy="272" r="2"/><circle cx="219" cy="260" r="2"/><circle cx="231" cy="268" r="2"/><circle cx="244" cy="262" r="2"/><circle cx="256" cy="263" r="2"/><circle cx="268" cy="259" r="2"/><circle cx="280" cy="263" r="2"/><circle cx="292" cy="252" r="2"/><circle cx="304" cy="251" r="2"/><circle cx="317" cy="250" r="2"/><circle cx="329" cy="247" r="2"/><circle cx="341" cy="245" r="2"/><circle cx="353" cy="244" r="2"/><circle cx="365" cy="246" r="2"/><circle cx="377" cy="250" r="2"/><circle cx="390" cy="258" r="2"/><circle cx="402" cy="258" r="2"/><circle cx="414" cy="266" r="2"/><circle cx="426" cy="272" r="2"/><circle cx="438" cy="282" r="2"/><circle cx="451" cy="287" r="2"/><circle cx="463" cy="285" r="2"/><circle cx="475" cy="285" r="2"/><circle cx="487" cy="281" r="2"/><circle cx="499" cy="277" r="2"/><circle cx="511" cy="271" r="2"/><circle cx="524" cy="261" r="2"/><circle cx="536" cy="253" r="2"/><circle cx="548" cy="252" r="2"/><circle cx="560" cy="248" r="2"/><circle cx="572" cy="251" r="2"/><circle cx="584" cy="245" r="2"/><circle cx="597" cy="245" r="2"/><circle cx="609" cy="242" r="2"/><circle cx="621" cy="241" r="2"/><circle cx="633" cy="246" r="2"/><circle cx="645" cy="240" r="2"/><circle cx="658" cy="235" r="2"/><circle cx="670" cy="232" r="2"/><circle cx="682" cy="230" r="2"/><circle cx="694" cy="227" r="2"/></g></g></g></g></g><g class="SourcesFooter" fill="#777"><g class="clickable" fill="#777"><text font-size="12.6" x="15" y="581.6"><tspan x="15" y="581.58">Source: UN Food and Agriculture Organization (FAO)</tspan></text></g><text font-size="12.6" x="552" y="581.6"><tspan x="552" y="581.58"><a target="_blank" href="https://ourworldindata.org/food-per-person/" fill="#777">OurWorldInData.org/food-per-person/</a> • <a class="cclogo" href="http://creativecommons.org/licenses/by-sa/4.0/deed.en_US" target="_blank" fill="#777">CC BY-SA</a></tspan></text></g></g></svg>