<svg xmlns="http://www.w3.org/2000/svg" version="1.1" style="background-color:#fff;-webkit-font-smoothing:antialiased" width="850" height="600" font-family="'Helvetica Neue',Helvetica,Arial,sans-serif" font-size="18" text-rendering="optimizeLegibility"><g class="ChartTab"><g class="HeaderView"><g opacity=".8" transform="matrix(.27 0 0 .27 778 15)"><a xmlns:xlink="http://www.w3.org/1999/xlink" xlink:href="https://ourworldindata.org" target="_blank"><g><path fill="#1B2543" d="M0 0h211.2v130.1H0z"/><path fill="#E63912" d="M0 112.2h211.2v17.9H0z"/><g><path fill="none" d="M1.2 12.3h210.2v99.2H1.2z"/><path fill="#FFF" d="M37.8 32.2c0 12.7-7.7 19.4-17.1 19.4-9.7 0-16.6-7.5-16.6-18.7 0-11.7 7.3-19.3 17.1-19.3 10.1.1 16.6 7.7 16.6 18.6zm-28.6.6c0 7.9 4.3 14.9 11.8 14.9 7.5 0 11.8-6.9 11.8-15.3 0-7.3-3.8-14.9-11.8-14.9-7.9 0-11.8 7.3-11.8 15.3zM62.7 43.8c0 2.7.1 5.1.2 7.2h-4.3l-.3-4.3h-.1c-1.3 2.1-4 4.9-8.8 4.9-4.2 0-9.1-2.3-9.1-11.6V24.6h4.8v14.6c0 5 1.5 8.4 5.9 8.4 3.2 0 5.5-2.2 6.3-4.4.3-.7.4-1.6.4-2.5V24.6h4.8v19.2zM67.3 32.8c0-3.1-.1-5.8-.2-8.2h4.2l.2 5.2h.2c1.2-3.5 4.1-5.8 7.3-5.8.5 0 .9.1 1.4.2v4.5c-.5-.1-1-.2-1.6-.2-3.4 0-5.8 2.6-6.5 6.2-.1.7-.2 1.4-.2 2.2V51h-4.8V32.8zM95.4 51L86 14.2h5l4.4 18.6c1.1 4.6 2.1 9.2 2.7 12.7h.1c.6-3.7 1.8-8 3-12.8l4.9-18.5h5l4.5 18.7c1 4.4 2 8.7 2.6 12.6h.1c.8-4 1.8-8.1 3-12.7l4.9-18.5h4.9L120.6 51h-5L111 31.9c-1.1-4.7-1.9-8.3-2.4-12h-.1c-.7 3.7-1.5 7.3-2.8 12L100.4 51h-5zM154.9 37.6c0 9.8-6.8 14-13.2 14-7.2 0-12.7-5.2-12.7-13.6 0-8.8 5.8-14 13.1-14 7.7 0 12.8 5.5 12.8 13.6zm-21 .3c0 5.8 3.3 10.1 8 10.1 4.6 0 8-4.3 8-10.3 0-4.5-2.2-10.1-7.9-10.1s-8.1 5.2-8.1 10.3zM158.2 32.8c0-3.1-.1-5.8-.2-8.2h4.2l.2 5.2h.2c1.2-3.5 4.1-5.8 7.3-5.8.5 0 .9.1 1.4.2v4.5c-.5-.1-1-.2-1.6-.2-3.4 0-5.8 2.6-6.5 6.2-.1.7-.2 1.4-.2 2.2V51h-4.8V32.8zM173.5 12.3h4.8V51h-4.8V12.3zM206.5 12.3v31.9c0 2.3.1 5 .2 6.8h-4.3l-.2-4.6h-.2c-1.5 2.9-4.7 5.2-9 5.2-6.4 0-11.3-5.4-11.3-13.4-.1-8.8 5.4-14.2 11.9-14.2 4 0 6.8 1.9 8 4h.1V12.3h4.8zm-4.8 23.1c0-.6-.1-1.4-.2-2a7 7 0 00-6.9-5.6c-5 0-7.9 4.4-7.9 10.2 0 5.3 2.6 9.8 7.8 9.8 3.2 0 6.2-2.1 7.1-5.7.2-.7.2-1.3.2-2.1v-4.6zM42.8 64c.1 1.6-1.1 2.9-3.1 2.9-1.7 0-2.9-1.3-2.9-2.9 0-1.7 1.3-3 3-3 1.9 0 3 1.3 3 3zm-5.4 33.8V71.4h4.8v26.4h-4.8zM47.5 78.6c0-2.7-.1-5-.2-7.1h4.3l.3 4.4h.1c1.3-2.5 4.4-5 8.8-5 3.7 0 9.4 2.2 9.4 11.2v15.8h-4.8V82.6c0-4.3-1.6-7.8-6.1-7.8-3.2 0-5.6 2.2-6.5 4.9-.2.6-.3 1.4-.3 2.2v15.9h-4.8V78.6zM84 61.6c2.9-.4 6.3-.8 10.1-.8 6.8 0 11.7 1.6 14.9 4.6 3.3 3 5.2 7.3 5.2 13.2 0 6-1.9 10.9-5.3 14.3-3.4 3.4-9.1 5.3-16.3 5.3-3.4 0-6.2-.2-8.6-.4V61.6zm4.8 32.5c1.2.2 3 .3 4.8.3 10.2 0 15.7-5.7 15.7-15.6.1-8.7-4.9-14.2-14.9-14.2-2.5 0-4.3.2-5.6.5v29zM132.1 97.8l-.4-3.3h-.2a9.79 9.79 0 01-8.1 3.9c-5.4 0-8.1-3.8-8.1-7.6 0-6.4 5.7-9.9 15.9-9.8v-.5c0-2.2-.6-6.1-6-6.1-2.5 0-5 .8-6.9 2l-1.1-3.2c2.2-1.4 5.4-2.3 8.7-2.3 8.1 0 10.1 5.5 10.1 10.8v9.9c0 2.3.1 4.5.4 6.3h-4.3zm-.7-13.4c-5.3-.1-11.2.8-11.2 5.9 0 3.1 2.1 4.6 4.5 4.6 3.4 0 5.6-2.2 6.4-4.4.2-.5.3-1 .3-1.5v-4.6zM146.6 63.9v7.6h6.9v3.7h-6.9v14.2c0 3.3.9 5.1 3.6 5.1 1.3 0 2.2-.2 2.8-.3l.2 3.6c-.9.4-2.4.7-4.3.7-2.2 0-4-.7-5.2-2-1.4-1.4-1.9-3.8-1.9-6.9V75.1h-4.1v-3.7h4.1v-6.3l4.8-1.2zM171.4 97.8l-.4-3.3h-.2a9.79 9.79 0 01-8.1 3.9c-5.4 0-8.1-3.8-8.1-7.6 0-6.4 5.7-9.9 15.9-9.8v-.5c0-2.2-.6-6.1-6-6.1-2.5 0-5 .8-6.9 2l-1.1-3.2c2.2-1.4 5.4-2.3 8.7-2.3 8.1 0 10.1 5.5 10.1 10.8v9.9c0 2.3.1 4.5.4 6.3h-4.3zm-.7-13.4c-5.3-.1-11.2.8-11.2 5.9 0 3.1 2.1 4.6 4.5 4.6 3.4 0 5.6-2.2 6.4-4.4.2-.5.3-1 .3-1.5v-4.6z"/></g></g></a></g><a href="https://ourworldindata.org/grapher/fossil-fuel-production-over-the-long-term" target="_blank"><text font-size="25.2" x="15" y="35.2" fill="#555"><tspan x="15" y="35.16">Fossil fuel production over the long-term, United Kingdom</tspan></text></a><text font-size="14.4" x="15" y="53.7" fill="#666"><tspan x="15" y="53.72">Total fossil fuel production - differentiated by coal, oil and natural gas - by country over the long-run, measured in</tspan><tspan x="15" y="69.56">terawatt-hour (TWh) equivalents per year.</tspan></text></g><g class="StackedArea"><defs><clipPath id="a"><path d="M99.54 0h820v899.6h-820z"/></clipPath></defs><g class="AxisBoxView"><g class="HorizontalAxis" fill="#666" text-anchor="middle" font-size="16.2"><text x="99.5" y="541.9">1950</text><text x="198.2" y="541.9">1960</text><text x="296.8" y="541.9">1970</text><text x="395.4" y="541.9">1980</text><text x="494" y="541.9">1990</text><text x="592.7" y="541.9">2000</text><text x="730.7" y="541.9">2014</text></g><g class="VerticalAxis" fill="#666" dominant-baseline="middle" text-anchor="end" font-size="16.2"><text x="94.54" y="520.7">0 TWh</text><text x="94.54" y="451.1">500 TWh</text><text x="94.54" y="381.5">1,000 TWh</text><text x="94.54" y="311.9">1,500 TWh</text><text x="94.54" y="242.3">2,000 TWh</text><text x="94.54" y="172.6">2,500 TWh</text><text x="94.54" y="103">3,000 TWh</text></g><g class="AxisGridLines"><path stroke="#ccc" d="M99.54 520.7h631.21"/><path stroke="#ddd" stroke-dasharray="3,2" d="M99.54 451.1h631.21M99.54 381.5h631.21M99.54 311.9h631.21M99.54 242.3h631.21M99.54 172.6h631.21M99.54 103h631.21"/></g></g><g clip-path="url(#a)"><g class="HeightedLegend clickable"><g class="legendMark"><text font-size="13.5" x="735.7" y="410.6" fill="#2a939b"><tspan x="735.75" y="410.55">Natural gas</tspan></text></g><g class="legendMark"><text font-size="13.5" x="735.7" y="477.4" fill="#ed6c2d"><tspan x="735.75" y="477.45">Crude oil</tspan></text></g><g class="legendMark"><text font-size="13.5" x="735.7" y="519.8" fill="#818282"><tspan x="735.75" y="519.75">Coal</tspan></text></g></g><g class="Areas"><path d="M99.5 311.2l9.9-6.4 9.9-3.5 9.8 2.3 9.9.1 9.9 2.4 9.8-.4 9.9-1.6 9.8 7.6 9.9 9.4 9.9 12.1 9.8 2.8 9.9-6.5 9.9 1.6 9.8 2.1 9.9 5.9 9.8 12.5 9.9 2.4 9.9 7.8 9.8 13.1 9.9 5.6h9.9l9.8 24.1 9.9-9.7 9.8 20.5 9.9-17.4 9.9 4.7 9.8 1.6 9.9-1.4 9.9 1.2 9.8-4.2 9.9 2.4 9.8 2.8 9.9 4.9 9.9 63.3 9.8-39.6 9.9-13.1 9.9 3.4 9.8.3 9.9 2.8 9.8 6.2 9.9-.5 9.9 15.6 9.8 14.3 9.9 16.4 9.9-.6 9.8-.7 9.9-1.2 9.8 7.4 9.9 3.5 9.9 6.7 9.8-2.3 9.9 1.8 9.9 1.6 9.8 3 9.9 4.1 9.8 1.8 9.9 1.4 9.9-1 9.8.2 9.9-.4 9.9-.1 9.8 1.5 9.9 3.7 9.8 1.1.04 10.1H99.54" fill="#818282" fill-opacity=".7" class="United-Kingdom_0-area"/><path d="M99.5 311.1l9.9-6.3 9.9-3.5 9.8 2.2 9.9.1 9.9 2.4 9.8-.4 9.9-1.6 9.8 7.6 9.9 9.4 9.9 12.1 9.8 2.8 9.9-6.6 9.9 1.6 9.8 2.1 9.9 6 9.8 12.5 9.9 2.3 9.9 7.9 9.8 13.1 9.9 5.5 9.9.1 9.8 24 9.9-9.6 9.8 20.5 9.9-18.9 9.9-12.1 9.8-40.6 9.9-25.2 9.9-39.4 9.8-16.6 9.9-13.9 9.8-21.2 9.9-16.9 9.9 45.1 9.8-44.5 9.9-15 9.9 13.5 9.8 14.2 9.9 39.4 9.8 7.4 9.9-1.5 9.9 11.5 9.8 6.1 9.9-25.4 9.9-14.2 9.8-6.6 9.9 5.1 9.8-1.1 9.9-1.8 9.9 40.8 9.8-4.6 9.9 4.5 9.9 15.6 9.8 29 9.9 21.5 9.8 15.7 9.9 1.6 9.9 7.5 9.8 6.6 9.9 8.1 9.9 19.6 9.8 14.7 9.9 11.1 9.8 1.8v74.4l-9.8-1.1-9.9-3.7-9.8-1.5-9.9.1-9.9.4-9.8-.2-9.9 1-9.9-1.4-9.8-1.8-9.9-4.1-9.8-3-9.9-1.6-9.9-1.8-9.8 2.3-9.9-6.7-9.9-3.5-9.8-7.4-9.9 1.2-9.8.7-9.9.6-9.9-16.4-9.8-14.3-9.9-15.6-9.9.5-9.8-6.2-9.9-2.8-9.8-.3-9.9-3.4-9.9 13.1-9.8 39.6L425 410l-9.9-4.9-9.8-2.8-9.9-2.4-9.8 4.2-9.9-1.2-9.9 1.4-9.8-1.6-9.9-4.7-9.9 17.4-9.8-20.5-9.9 9.7-9.8-24.1h-9.9l-9.9-5.6-9.8-13.1-9.9-7.8-9.9-2.4-9.8-12.5-9.9-5.9-9.8-2.1-9.9-1.6-9.9 6.5-9.8-2.8-9.9-12.1-9.9-9.4-9.8-7.6-9.9 1.6-9.8.4-9.9-2.4-9.9-.1-9.8-2.3-9.9 3.5-9.9 6.4" fill="#ed6c2d" fill-opacity=".7" class="United-Kingdom_1-area"/><path d="M99.5 311.1l9.9-6.3 9.9-3.6 9.8 2.3h9.9l9.9 2.4 9.8-.3 9.9-1.7 9.8 7.6 9.9 9.4 9.9 12 9.8 2.9 9.9-6.7 9.9 1.5 9.8 2.1 9.9 6 9.8 12.5 9.9 1.7 9.9 5.5 9.8 8.5 9.9-3.4 9.9-10.9 9.8 11.9 9.9-13 9.8 12.4 9.9-21.9 9.9-15.5 9.8-43.7 9.9-23 9.9-41.1 9.8-12.6 9.9-13.8 9.8-22.8 9.9-18.4 9.9 46.7 9.8-50.8 9.9-18.1 9.9 9.9 9.8 16.9 9.9 40.8 9.8.5 9.9-9.9 9.9 10.1 9.8-8.4 9.9-32.5 9.9-23.7 9.8-28.6 9.9 11.4 9.8-7 9.9-16.3 9.9 26.1 9.8-.2 9.9 6 9.9 17 9.8 38 9.9 34.7 9.8 28.2 9.9 14 9.9 11.3 9.8 22.3 9.9 12.3 9.9 39.4L711 360l9.9 15.2 9.8 1.6v59.4l-9.8-1.8-9.9-11.1-9.8-14.7-9.9-19.6-9.9-8.1-9.8-6.6-9.9-7.5-9.9-1.6-9.8-15.7-9.9-21.5-9.8-29-9.9-15.6-9.9-4.5-9.8 4.6-9.9-40.8-9.9 1.8-9.8 1.1-9.9-5.1-9.8 6.6-9.9 14.2-9.9 25.4-9.8-6.1-9.9-11.5-9.9 1.5-9.8-7.4-9.9-39.4-9.8-14.2-9.9-13.5-9.9 15-9.8 44.5-9.9-45.1-9.9 16.9-9.8 21.2-9.9 13.9-9.8 16.6-9.9 39.4-9.9 25.2-9.8 40.6-9.9 12.1-9.9 18.9-9.8-20.5-9.9 9.6-9.8-24-9.9-.1-9.9-5.5-9.8-13.1-9.9-7.9-9.9-2.3-9.8-12.5-9.9-6-9.8-2.1-9.9-1.6-9.9 6.6-9.8-2.8-9.9-12.1-9.9-9.4-9.8-7.6-9.9 1.6-9.8.4-9.9-2.4-9.9-.1-9.8-2.2-9.9 3.5-9.9 6.3" fill="#2a939b" fill-opacity=".7" class="United-Kingdom_2-area"/><path stroke-linecap="round" d="M99.5 311.2l9.9-6.4 9.9-3.5 9.8 2.3 9.9.1 9.9 2.4 9.8-.4 9.9-1.6 9.8 7.6 9.9 9.4 9.9 12.1 9.8 2.8 9.9-6.5 9.9 1.6 9.8 2.1 9.9 5.9 9.8 12.5 9.9 2.4 9.9 7.8 9.8 13.1 9.9 5.6h9.9l9.8 24.1 9.9-9.7 9.8 20.5 9.9-17.4 9.9 4.7 9.8 1.6 9.9-1.4 9.9 1.2 9.8-4.2 9.9 2.4 9.8 2.8 9.9 4.9 9.9 63.3 9.8-39.6 9.9-13.1 9.9 3.4 9.8.3 9.9 2.8 9.8 6.2 9.9-.5 9.9 15.6 9.8 14.3 9.9 16.4 9.9-.6 9.8-.7 9.9-1.2 9.8 7.4 9.9 3.5 9.9 6.7 9.8-2.3 9.9 1.8 9.9 1.6 9.8 3 9.9 4.1 9.8 1.8 9.9 1.4 9.9-1 9.8.2 9.9-.4 9.9-.1 9.8 1.5 9.9 3.7 9.8 1.1" stroke="#6C6D6D" stroke-opacity=".7" stroke-width=".5" fill="none" class="United-Kingdom_0-border"/><path stroke-linecap="round" d="M99.5 311.1l9.9-6.3 9.9-3.5 9.8 2.2 9.9.1 9.9 2.4 9.8-.4 9.9-1.6 9.8 7.6 9.9 9.4 9.9 12.1 9.8 2.8 9.9-6.6 9.9 1.6 9.8 2.1 9.9 6 9.8 12.5 9.9 2.3 9.9 7.9 9.8 13.1 9.9 5.5 9.9.1 9.8 24 9.9-9.6 9.8 20.5 9.9-18.9 9.9-12.1 9.8-40.6 9.9-25.2 9.9-39.4 9.8-16.6 9.9-13.9 9.8-21.2 9.9-16.9 9.9 45.1 9.8-44.5 9.9-15 9.9 13.5 9.8 14.2 9.9 39.4 9.8 7.4 9.9-1.5 9.9 11.5 9.8 6.1 9.9-25.4 9.9-14.2 9.8-6.6 9.9 5.1 9.8-1.1 9.9-1.8 9.9 40.8 9.8-4.6 9.9 4.5 9.9 15.6 9.8 29 9.9 21.5 9.8 15.7 9.9 1.6 9.9 7.5 9.8 6.6 9.9 8.1 9.9 19.6 9.8 14.7 9.9 11.1 9.8 1.8" stroke="#C65A26" stroke-opacity=".7" stroke-width=".5" fill="none" class="United-Kingdom_1-border"/><path stroke-linecap="round" d="M99.5 311.1l9.9-6.3 9.9-3.6 9.8 2.3h9.9l9.9 2.4 9.8-.3 9.9-1.7 9.8 7.6 9.9 9.4 9.9 12 9.8 2.9 9.9-6.7 9.9 1.5 9.8 2.1 9.9 6 9.8 12.5 9.9 1.7 9.9 5.5 9.8 8.5 9.9-3.4 9.9-10.9 9.8 11.9 9.9-13 9.8 12.4 9.9-21.9 9.9-15.5 9.8-43.7 9.9-23 9.9-41.1 9.8-12.6 9.9-13.8 9.8-22.8 9.9-18.4 9.9 46.7 9.8-50.8 9.9-18.1 9.9 9.9 9.8 16.9 9.9 40.8 9.8.5 9.9-9.9 9.9 10.1 9.8-8.4 9.9-32.5 9.9-23.7 9.8-28.6 9.9 11.4 9.8-7 9.9-16.3 9.9 26.1 9.8-.2 9.9 6 9.9 17 9.8 38 9.9 34.7 9.8 28.2 9.9 14 9.9 11.3 9.8 22.3 9.9 12.3 9.9 39.4L711 360l9.9 15.2 9.8 1.6" stroke="#237B82" stroke-opacity=".7" stroke-width=".5" fill="none" class="United-Kingdom_2-border"/></g></g></g><g class="SourcesFooter" fill="#777"><g class="clickable" fill="#777"><text font-size="12.6" x="15" y="567"><tspan x="15" y="566.98">Source: Coal production - The SHIFT Project, Oil production - Etemad &amp; Luciana, Gas production - Etemad &amp; Luciana</tspan></text></g><text font-size="12.6" x="15" y="582.5"><tspan x="15" y="582.48"><a target="_blank" href="https://ourworldindata.org/fossil-fuels/" fill="#777">OurWorldInData.org/fossil-fuels/</a> • <a class="cclogo" href="http://creativecommons.org/licenses/by-sa/4.0/deed.en_US" target="_blank" fill="#777">CC BY-SA</a></tspan></text></g></g></svg>