<svg xmlns="http://www.w3.org/2000/svg" version="1.1" style="background-color:#fff;-webkit-font-smoothing:antialiased" width="850" height="600" font-family="'Helvetica Neue',Helvetica,Arial,sans-serif" font-size="18" text-rendering="optimizeLegibility"><g class="ChartTab"><g class="HeaderView"><g opacity=".8" transform="matrix(.31 0 0 .31 770 15)"><a xmlns:xlink="http://www.w3.org/1999/xlink" xlink:href="https://ourworldindata.org" target="_blank"><g><path fill="#1B2543" d="M0 0h211.2v130.1H0z"/><path fill="#E63912" d="M0 112.2h211.2v17.9H0z"/><g><path fill="none" d="M1.2 12.3h210.2v99.2H1.2z"/><path fill="#FFF" d="M37.8 32.2c0 12.7-7.7 19.4-17.1 19.4-9.7 0-16.6-7.5-16.6-18.7 0-11.7 7.3-19.3 17.1-19.3 10.1.1 16.6 7.7 16.6 18.6zm-28.6.6c0 7.9 4.3 14.9 11.8 14.9 7.5 0 11.8-6.9 11.8-15.3 0-7.3-3.8-14.9-11.8-14.9-7.9 0-11.8 7.3-11.8 15.3zM62.7 43.8c0 2.7.1 5.1.2 7.2h-4.3l-.3-4.3h-.1c-1.3 2.1-4 4.9-8.8 4.9-4.2 0-9.1-2.3-9.1-11.6V24.6h4.8v14.6c0 5 1.5 8.4 5.9 8.4 3.2 0 5.5-2.2 6.3-4.4.3-.7.4-1.6.4-2.5V24.6h4.8v19.2zM67.3 32.8c0-3.1-.1-5.8-.2-8.2h4.2l.2 5.2h.2c1.2-3.5 4.1-5.8 7.3-5.8.5 0 .9.1 1.4.2v4.5c-.5-.1-1-.2-1.6-.2-3.4 0-5.8 2.6-6.5 6.2-.1.7-.2 1.4-.2 2.2V51h-4.8V32.8zM95.4 51L86 14.2h5l4.4 18.6c1.1 4.6 2.1 9.2 2.7 12.7h.1c.6-3.7 1.8-8 3-12.8l4.9-18.5h5l4.5 18.7c1 4.4 2 8.7 2.6 12.6h.1c.8-4 1.8-8.1 3-12.7l4.9-18.5h4.9L120.6 51h-5L111 31.9c-1.1-4.7-1.9-8.3-2.4-12h-.1c-.7 3.7-1.5 7.3-2.8 12L100.4 51h-5zM154.9 37.6c0 9.8-6.8 14-13.2 14-7.2 0-12.7-5.2-12.7-13.6 0-8.8 5.8-14 13.1-14 7.7 0 12.8 5.5 12.8 13.6zm-21 .3c0 5.8 3.3 10.1 8 10.1 4.6 0 8-4.3 8-10.3 0-4.5-2.2-10.1-7.9-10.1s-8.1 5.2-8.1 10.3zM158.2 32.8c0-3.1-.1-5.8-.2-8.2h4.2l.2 5.2h.2c1.2-3.5 4.1-5.8 7.3-5.8.5 0 .9.1 1.4.2v4.5c-.5-.1-1-.2-1.6-.2-3.4 0-5.8 2.6-6.5 6.2-.1.7-.2 1.4-.2 2.2V51h-4.8V32.8zM173.5 12.3h4.8V51h-4.8V12.3zM206.5 12.3v31.9c0 2.3.1 5 .2 6.8h-4.3l-.2-4.6h-.2c-1.5 2.9-4.7 5.2-9 5.2-6.4 0-11.3-5.4-11.3-13.4-.1-8.8 5.4-14.2 11.9-14.2 4 0 6.8 1.9 8 4h.1V12.3h4.8zm-4.8 23.1c0-.6-.1-1.4-.2-2a7 7 0 00-6.9-5.6c-5 0-7.9 4.4-7.9 10.2 0 5.3 2.6 9.8 7.8 9.8 3.2 0 6.2-2.1 7.1-5.7.2-.7.2-1.3.2-2.1v-4.6zM42.8 64c.1 1.6-1.1 2.9-3.1 2.9-1.7 0-2.9-1.3-2.9-2.9 0-1.7 1.3-3 3-3 1.9 0 3 1.3 3 3zm-5.4 33.8V71.4h4.8v26.4h-4.8zM47.5 78.6c0-2.7-.1-5-.2-7.1h4.3l.3 4.4h.1c1.3-2.5 4.4-5 8.8-5 3.7 0 9.4 2.2 9.4 11.2v15.8h-4.8V82.6c0-4.3-1.6-7.8-6.1-7.8-3.2 0-5.6 2.2-6.5 4.9-.2.6-.3 1.4-.3 2.2v15.9h-4.8V78.6zM84 61.6c2.9-.4 6.3-.8 10.1-.8 6.8 0 11.7 1.6 14.9 4.6 3.3 3 5.2 7.3 5.2 13.2 0 6-1.9 10.9-5.3 14.3-3.4 3.4-9.1 5.3-16.3 5.3-3.4 0-6.2-.2-8.6-.4V61.6zm4.8 32.5c1.2.2 3 .3 4.8.3 10.2 0 15.7-5.7 15.7-15.6.1-8.7-4.9-14.2-14.9-14.2-2.5 0-4.3.2-5.6.5v29zM132.1 97.8l-.4-3.3h-.2a9.79 9.79 0 01-8.1 3.9c-5.4 0-8.1-3.8-8.1-7.6 0-6.4 5.7-9.9 15.9-9.8v-.5c0-2.2-.6-6.1-6-6.1-2.5 0-5 .8-6.9 2l-1.1-3.2c2.2-1.4 5.4-2.3 8.7-2.3 8.1 0 10.1 5.5 10.1 10.8v9.9c0 2.3.1 4.5.4 6.3h-4.3zm-.7-13.4c-5.3-.1-11.2.8-11.2 5.9 0 3.1 2.1 4.6 4.5 4.6 3.4 0 5.6-2.2 6.4-4.4.2-.5.3-1 .3-1.5v-4.6zM146.6 63.9v7.6h6.9v3.7h-6.9v14.2c0 3.3.9 5.1 3.6 5.1 1.3 0 2.2-.2 2.8-.3l.2 3.6c-.9.4-2.4.7-4.3.7-2.2 0-4-.7-5.2-2-1.4-1.4-1.9-3.8-1.9-6.9V75.1h-4.1v-3.7h4.1v-6.3l4.8-1.2zM171.4 97.8l-.4-3.3h-.2a9.79 9.79 0 01-8.1 3.9c-5.4 0-8.1-3.8-8.1-7.6 0-6.4 5.7-9.9 15.9-9.8v-.5c0-2.2-.6-6.1-6-6.1-2.5 0-5 .8-6.9 2l-1.1-3.2c2.2-1.4 5.4-2.3 8.7-2.3 8.1 0 10.1 5.5 10.1 10.8v9.9c0 2.3.1 4.5.4 6.3h-4.3zm-.7-13.4c-5.3-.1-11.2.8-11.2 5.9 0 3.1 2.1 4.6 4.5 4.6 3.4 0 5.6-2.2 6.4-4.4.2-.5.3-1 .3-1.5v-4.6z"/></g></g></a></g><a href="https://ourworldindata.org/grapher/fruit-consumption-vs-gdp-per-capita" target="_blank"><text font-size="27" x="15" y="36.6" fill="#555"><tspan x="15" y="36.6">Fruit consumption vs. GDP per capita, 2013</tspan></text></a><text font-size="14.4" x="15" y="55.5" fill="#666"><tspan x="15" y="55.52">Average per capita fruit consumption, measured in kilograms per year versus gross domestic product (GDP) per</tspan><tspan x="15" y="71.36">capita, measured in 2011 international-$).</tspan></text></g><g><g class="AxisBoxView"><g class="HorizontalAxis"><text font-size="12.6" x="287.7" y="554"><tspan x="287.7" y="553.98">GDP per capita (2011 int-$)</tspan></text><text x="155.4" y="533.9" fill="#666" text-anchor="middle" font-size="16.2">$1,000</text><text x="441.1" y="533.9" fill="#666" text-anchor="middle" font-size="16.2">$10,000</text></g><g class="VerticalAxis"><text font-size="12.6" x="-436.5" y="25.1" transform="rotate(-90)"><tspan x="-436.52" y="25.08">Fruit consumption (per person per year)</tspan></text><text x="86.52" y="512.7" fill="#666" dominant-baseline="middle" text-anchor="end" font-size="16.2">0 kg</text><text x="86.52" y="453.7" fill="#666" dominant-baseline="middle" text-anchor="end" font-size="16.2">50 kg</text><text x="86.52" y="394.7" fill="#666" dominant-baseline="middle" text-anchor="end" font-size="16.2">100 kg</text><text x="86.52" y="335.6" fill="#666" dominant-baseline="middle" text-anchor="end" font-size="16.2">150 kg</text><text x="86.52" y="276.6" fill="#666" dominant-baseline="middle" text-anchor="end" font-size="16.2">200 kg</text><text x="86.52" y="217.6" fill="#666" dominant-baseline="middle" text-anchor="end" font-size="16.2">250 kg</text><text x="86.52" y="158.6" fill="#666" dominant-baseline="middle" text-anchor="end" font-size="16.2">300 kg</text><text x="86.52" y="99.5" fill="#666" dominant-baseline="middle" text-anchor="end" font-size="16.2">350 kg</text></g><g class="AxisGridLines"><path stroke="#ccc" d="M91.52 512.7H715"/><path stroke="#ddd" stroke-dasharray="3,2" d="M91.52 453.7H715M91.52 394.7H715M91.52 335.6H715M91.52 276.6H715M91.52 217.6H715M91.52 158.6H715M91.52 99.5H715"/></g><g class="AxisGridLines" stroke="#ddd" stroke-dasharray="3,2"><path d="M155.4 512.7V93.9M441.1 512.7V93.9"/></g></g><g clip-path="url(#a)" class="PointsWithLabels clickable"><path fill="rgba(255,255,255,0)" d="M91.52 93.9H715v418.8H91.52z"/><defs><clipPath id="a"><path d="M81.52 83.9H725v438.8H81.52z"/></clipPath></defs><circle cx="463" cy="401" r="17.84" fill="#d14e5b" opacity=".8"/><circle cx="356" cy="446" r="17.29" fill="#d14e5b" opacity=".8"/><circle cx="643" cy="389" r="8.78" fill="#4d824b" opacity=".8"/><circle cx="436" cy="443" r="7.78" fill="#d14e5b" opacity=".8"/><circle cx="494" cy="402" r="7.04" fill="#69c487" opacity=".8"/><circle cx="341" cy="478" r="6.76" fill="#d14e5b" opacity=".8"/><circle cx="366" cy="445" r="6.54" fill="#5675c1" opacity=".8"/><circle cx="284" cy="485" r="6.24" fill="#d14e5b" opacity=".8"/><circle cx="555" cy="428" r="6.02" fill="#ffd336" opacity=".8"/><circle cx="603" cy="450" r="5.7" fill="#d14e5b" opacity=".8"/><circle cx="501" cy="385" r="5.51" fill="#4d824b" opacity=".8"/><circle cx="383" cy="387" r="5.09" fill="#d14e5b" opacity=".8"/><circle cx="358" cy="432" r="4.92" fill="#d14e5b" opacity=".8"/><circle cx="190" cy="504" r="4.86" fill="#5675c1" opacity=".8"/><circle cx="438" cy="391" r="4.79" fill="#5675c1" opacity=".8"/><circle cx="621" cy="408" r="4.7" fill="#ffd336" opacity=".8"/><circle cx="499" cy="355" r="4.57" fill="#d14e5b" opacity=".8"/><circle cx="536" cy="362" r="4.54" fill="#d14e5b" opacity=".8"/><circle cx="489" cy="391" r="4.41" fill="#d14e5b" opacity=".8"/><circle cx="604" cy="377" r="4.24" fill="#ffd336" opacity=".8"/><circle cx="603" cy="362" r="4.22" fill="#ffd336" opacity=".8"/><circle cx="593" cy="347" r="4.16" fill="#ffd336" opacity=".8"/><circle cx="468" cy="467" r="3.87" fill="#5675c1" opacity=".8"/><circle cx="259" cy="421" r="3.82" fill="#5675c1" opacity=".8"/><circle cx="340" cy="466" r="3.82" fill="#d14e5b" opacity=".8"/><circle cx="587" cy="433" r="3.8" fill="#d14e5b" opacity=".8"/><circle cx="466" cy="340" r="3.79" fill="#69c487" opacity=".8"/><circle cx="580" cy="427" r="3.75" fill="#ffd336" opacity=".8"/><circle cx="418" cy="440" r="3.68" fill="#ffd336" opacity=".8"/><circle cx="277" cy="448" r="3.65" fill="#5675c1" opacity=".8"/><circle cx="523" cy="422" r="3.58" fill="#69c487" opacity=".8"/><circle cx="547" cy="441" r="3.47" fill="#ffd336" opacity=".8"/><circle cx="476" cy="377" r="3.43" fill="#5675c1" opacity=".8"/><circle cx="216" cy="373" r="3.42" fill="#5675c1" opacity=".8"/><circle cx="332" cy="419" r="3.39" fill="#5675c1" opacity=".8"/><circle cx="620" cy="352" r="3.36" fill="#4d824b" opacity=".8"/><circle cx="492" cy="458" r="3.35" fill="#d14e5b" opacity=".8"/><circle cx="229" cy="472" r="3.34" fill="#d14e5b" opacity=".8"/><circle cx="396" cy="412" r="3.29" fill="#5675c1" opacity=".8"/><circle cx="251" cy="440" r="3.24" fill="#d14e5b" opacity=".8"/><circle cx="511" cy="416" r="3.19" fill="#69c487" opacity=".8"/><circle cx="457" cy="373" r="3.18" fill="#69c487" opacity=".8"/><circle cx="545" cy="459" r="3.17" fill="#d14e5b" opacity=".8"/><circle cx="639" cy="404" r="3.16" fill="#d14e5b" opacity=".8"/><circle cx="356" cy="405" r="3.12" fill="#d14e5b" opacity=".8"/><circle cx="321" cy="281" r="3.04" fill="#5675c1" opacity=".8"/><circle cx="159" cy="482" r="3" fill="#5675c1" opacity=".8"/><circle cx="621" cy="408" r="2.92" fill="#a652ba" opacity=".8"/><circle cx="193" cy="458" r="2.9" fill="#5675c1" opacity=".8"/><circle cx="444" cy="470" r="2.85" fill="#d14e5b" opacity=".8"/><circle cx="520" cy="422" r="2.85" fill="#ffd336" opacity=".8"/><circle cx="286" cy="421" r="2.84" fill="#5675c1" opacity=".8"/><circle cx="283" cy="380" r="2.83" fill="#5675c1" opacity=".8"/><circle cx="381" cy="406" r="2.82" fill="#5675c1" opacity=".8"/><circle cx="207" cy="505" r="2.71" fill="#5675c1" opacity=".8"/><circle cx="538" cy="437" r="2.69" fill="#69c487" opacity=".8"/><circle cx="138" cy="479" r="2.68" fill="#5675c1" opacity=".8"/><circle cx="227" cy="478" r="2.66" fill="#5675c1" opacity=".8"/><circle cx="628" cy="304" r="2.66" fill="#ffd336" opacity=".8"/><circle cx="544" cy="405" r="2.65" fill="#d14e5b" opacity=".8"/><circle cx="162" cy="439" r="2.64" fill="#5675c1" opacity=".8"/><circle cx="396" cy="441" r="2.6" fill="#4d824b" opacity=".8"/><circle cx="449" cy="391" r="2.58" fill="#69c487" opacity=".8"/><circle cx="290" cy="481" r="2.56" fill="#d14e5b" opacity=".8"/><circle cx="313" cy="500" r="2.55" fill="#5675c1" opacity=".8"/><circle cx="252" cy="487" r="2.51" fill="#5675c1" opacity=".8"/><circle cx="235" cy="494" r="2.5" fill="#5675c1" opacity=".8"/><circle cx="241" cy="502" r="2.45" fill="#5675c1" opacity=".8"/><circle cx="208" cy="143" r="2.42" fill="#5675c1" opacity=".8"/><circle cx="548" cy="369" r="2.41" fill="#ffd336" opacity=".8"/><circle cx="615" cy="428" r="2.38" fill="#ffd336" opacity=".8"/><circle cx="448" cy="405" r="2.38" fill="#5675c1" opacity=".8"/><circle cx="181" cy="410" r="2.38" fill="#5675c1" opacity=".8"/><circle cx="558" cy="364" r="2.38" fill="#ffd336" opacity=".8"/><circle cx="570" cy="435" r="2.37" fill="#ffd336" opacity=".8"/><circle cx="379" cy="430" r="2.36" fill="#69c487" opacity=".8"/><circle cx="216" cy="434" r="2.36" fill="#4d824b" opacity=".8"/><circle cx="462" cy="204" r="2.36" fill="#4d824b" opacity=".8"/><circle cx="544" cy="443" r="2.34" fill="#ffd336" opacity=".8"/><circle cx="476" cy="383" r="2.33" fill="#ffd336" opacity=".8"/><circle cx="237" cy="454" r="2.32" fill="#5675c1" opacity=".8"/><circle cx="623" cy="365" r="2.32" fill="#ffd336" opacity=".8"/><circle cx="503" cy="424" r="2.32" fill="#d14e5b" opacity=".8"/><circle cx="511" cy="427" r="2.32" fill="#ffd336" opacity=".8"/><circle cx="625" cy="330" r="2.26" fill="#ffd336" opacity=".8"/><circle cx="668" cy="374" r="2.25" fill="#d14e5b" opacity=".8"/><circle cx="332" cy="410" r="2.25" fill="#4d824b" opacity=".8"/><circle cx="583" cy="372" r="2.23" fill="#d14e5b" opacity=".8"/><circle cx="655" cy="390" r="2.23" fill="#ffd336" opacity=".8"/><circle cx="499" cy="429" r="2.21" fill="#ffd336" opacity=".8"/><circle cx="266" cy="473" r="2.2" fill="#d14e5b" opacity=".8"/><circle cx="416" cy="426" r="2.18" fill="#69c487" opacity=".8"/><circle cx="424" cy="444" r="2.17" fill="#d14e5b" opacity=".8"/><circle cx="350" cy="415" r="2.16" fill="#d14e5b" opacity=".8"/><circle cx="185" cy="501" r="2.16" fill="#5675c1" opacity=".8"/><circle cx="407" cy="449" r="2.15" fill="#4d824b" opacity=".8"/><circle cx="217" cy="467" r="2.15" fill="#5675c1" opacity=".8"/><circle cx="345" cy="466" r="2.14" fill="#4d824b" opacity=".8"/><circle cx="626" cy="369" r="2.11" fill="#ffd336" opacity=".8"/><circle cx="296" cy="478" r="2.11" fill="#d14e5b" opacity=".8"/><circle cx="562" cy="444" r="2.11" fill="#ffd336" opacity=".8"/><circle cx="611" cy="400" r="2.1" fill="#ffd336" opacity=".8"/><circle cx="475" cy="446" r="2.09" fill="#d14e5b" opacity=".8"/><circle cx="669" cy="346" r="2.08" fill="#ffd336" opacity=".8"/><circle cx="483" cy="355" r="2.07" fill="#4d824b" opacity=".8"/><circle cx="91" cy="457" r="2.06" fill="#5675c1" opacity=".8"/><circle cx="628" cy="325" r="2.06" fill="#ffd336" opacity=".8"/><circle cx="592" cy="395" r="2.05" fill="#a652ba" opacity=".8"/><circle cx="528" cy="385" r="2.05" fill="#ffd336" opacity=".8"/><circle cx="130" cy="461" r="2.04" fill="#5675c1" opacity=".8"/><circle cx="362" cy="435" r="2.04" fill="#5675c1" opacity=".8"/><circle cx="483" cy="387" r="2.04" fill="#d14e5b" opacity=".8"/><circle cx="417" cy="453" r="2.04" fill="#d14e5b" opacity=".8"/><circle cx="444" cy="386" r="2.01" fill="#ffd336" opacity=".8"/><circle cx="313" cy="499" r="2.01" fill="#5675c1" opacity=".8"/><circle cx="521" cy="407" r="2.01" fill="#4d824b" opacity=".8"/><circle cx="343" cy="447" r="2" fill="#ffd336" opacity=".8"/><circle cx="522" cy="428" r="1.99" fill="#69c487" opacity=".8"/><circle cx="555" cy="454" r="1.98" fill="#ffd336" opacity=".8"/><circle cx="447" cy="345" r="1.98" fill="#ffd336" opacity=".8"/><circle cx="409" cy="381" r="1.97" fill="#d14e5b" opacity=".8"/><circle cx="689" cy="384" r="1.96" fill="#d14e5b" opacity=".8"/><circle cx="618" cy="242" r="1.96" fill="#d14e5b" opacity=".8"/><circle cx="449" cy="477" r="1.96" fill="#d14e5b" opacity=".8"/><circle cx="413" cy="389" r="1.95" fill="#4d824b" opacity=".8"/><circle cx="431" cy="426" r="1.93" fill="#5675c1" opacity=".8"/><circle cx="275" cy="479" r="1.92" fill="#5675c1" opacity=".8"/><circle cx="536" cy="456" r="1.92" fill="#ffd336" opacity=".8"/><circle cx="496" cy="434" r="1.91" fill="#5675c1" opacity=".8"/><circle cx="462" cy="396" r="1.91" fill="#ffd336" opacity=".8"/><circle cx="567" cy="374" r="1.91" fill="#ffd336" opacity=".8"/><circle cx="213" cy="502" r="1.9" fill="#5675c1" opacity=".8"/><circle cx="196" cy="451" r="1.88" fill="#5675c1" opacity=".8"/><circle cx="503" cy="332" r="1.88" fill="#5675c1" opacity=".8"/><circle cx="585" cy="380" r="1.87" fill="#4d824b" opacity=".8"/><circle cx="560" cy="417" r="1.87" fill="#ffd336" opacity=".8"/><circle cx="511" cy="433" r="1.86" fill="#5675c1" opacity=".8"/><circle cx="411" cy="408" r="1.86" fill="#5675c1" opacity=".8"/><circle cx="576" cy="436" r="1.85" fill="#ffd336" opacity=".8"/><circle cx="286" cy="460" r="1.84" fill="#5675c1" opacity=".8"/><circle cx="413" cy="461" r="1.84" fill="#a652ba" opacity=".8"/><circle cx="391" cy="445" r="1.83" fill="#69c487" opacity=".8"/><circle cx="487" cy="351" r="1.82" fill="#ffd336" opacity=".8"/><circle cx="243" cy="451" r="1.82" fill="#a652ba" opacity=".8"/><circle cx="494" cy="375" r="1.82" fill="#69c487" opacity=".8"/><circle cx="715" cy="275" r="1.81" fill="#ffd336" opacity=".8"/><circle cx="578" cy="422" r="1.81" fill="#ffd336" opacity=".8"/><circle cx="697" cy="422" r="1.81" fill="#d14e5b" opacity=".8"/><circle cx="542" cy="183" r="1.8" fill="#4d824b" opacity=".8"/><circle cx="616" cy="355" r="1.8" fill="#ffd336" opacity=".8"/><circle cx="411" cy="311" r="1.8" fill="#4d824b" opacity=".8"/><circle cx="457" cy="326" r="1.8" fill="#d14e5b" opacity=".8"/><circle cx="494" cy="399" r="1.8" fill="#4d824b" opacity=".8"/><circle cx="287" cy="418" r="1.8" fill="#a652ba" opacity=".8"/><circle cx="366" cy="275" r="1.79" fill="#a652ba" opacity=".8"/><circle cx="447" cy="409" r="1.79" fill="#4d824b" opacity=".8"/><circle cx="282" cy="250" r="1.79" fill="#5675c1" opacity=".8"/><circle cx="443" cy="296" r="1.79" fill="#4d824b" opacity=".8"/><circle cx="455" cy="338" r="1.79" fill="#4d824b" opacity=".8"/><circle cx="230" cy="412" r="1.79" fill="#a652ba" opacity=".8"/><circle cx="519" cy="326" r="1.79" fill="#4d824b" opacity=".8"/><circle cx="441" cy="93" r="1.78" fill="#4d824b" opacity=".8"/><circle cx="642" cy="258" r="1.78" fill="#4d824b" opacity=".8"/><circle cx="541" cy="425" r="1.78" fill="#4d824b" opacity=".8"/><circle cx="594" cy="390" r="1.78" fill="#000" opacity=".8"/><circle cx="483" cy="420" r="1.78" fill="#000" opacity=".8"/><circle cx="323" cy="450" r="1.78" fill="#d14e5b" opacity=".8"/><text x="463" y="382.16" font-size="14.3" font-family="Arial Narrow, Arial, sans-serif" fill="#666">China</text><text x="356" y="427.71" font-size="14.1" font-family="Arial Narrow, Arial, sans-serif" fill="#666">India</text><text x="643" y="379.22" font-size="11.77" font-family="Arial Narrow, Arial, sans-serif" fill="#666">United States</text><text x="436" y="434.22" font-size="11.6" font-family="Arial Narrow, Arial, sans-serif" fill="#666">Indonesia</text><text x="494" y="393.96" font-size="11.49" font-family="Arial Narrow, Arial, sans-serif" fill="#666">Brazil</text><text x="341" y="470.24" font-size="11.44" font-family="Arial Narrow, Arial, sans-serif" fill="#666">Pakistan</text><text x="555" y="420.98" font-size="11.35" font-family="Arial Narrow, Arial, sans-serif" fill="#666">Russia</text><text x="603" y="443.3" font-size="11.31" font-family="Arial Narrow, Arial, sans-serif" fill="#666">Japan</text><text x="501" y="378.49" font-size="11.29" font-family="Arial Narrow, Arial, sans-serif" fill="#666">Mexico</text><text x="383" y="380.91" font-size="11.24" font-family="Arial Narrow, Arial, sans-serif" fill="#666">Philippines</text><text x="190" y="498.14" font-size="11.21" font-family="Arial Narrow, Arial, sans-serif" fill="#666">Ethiopia</text><text x="621" y="402.3" font-size="11.2" font-family="Arial Narrow, Arial, sans-serif" fill="#666">Germany</text><text x="499" y="349.43" font-size="11.19" font-family="Arial Narrow, Arial, sans-serif" fill="#666">Iran</text><text x="536" y="356.46" font-size="11.18" font-family="Arial Narrow, Arial, sans-serif" fill="#666">Turkey</text><text x="604" y="371.76" font-size="11.15" font-family="Arial Narrow, Arial, sans-serif" fill="#666">France</text><text x="603" y="356.78" font-size="11.15" font-family="Arial Narrow, Arial, sans-serif" fill="#666">United Kingdom</text><text x="593" y="341.84" font-size="11.15" font-family="Arial Narrow, Arial, sans-serif" fill="#666">Italy</text><text x="468" y="462.13" font-size="11.12" font-family="Arial Narrow, Arial, sans-serif" fill="#666">South Africa</text><text x="259" y="416.18" font-size="11.12" font-family="Arial Narrow, Arial, sans-serif" fill="#666">Tanzania</text><text x="466" y="335.21" font-size="11.12" font-family="Arial Narrow, Arial, sans-serif" fill="#666">Colombia</text><text x="277" y="443.35" font-size="11.11" font-family="Arial Narrow, Arial, sans-serif" fill="#666">Kenya</text><text x="547" y="436.53" font-size="11.09" font-family="Arial Narrow, Arial, sans-serif" fill="#666">Poland</text><text x="216" y="368.58" font-size="11.09" font-family="Arial Narrow, Arial, sans-serif" fill="#666">Uganda</text><text x="229" y="467.66" font-size="11.08" font-family="Arial Narrow, Arial, sans-serif" fill="#666">Afghanistan</text><text x="396" y="407.71" font-size="11.08" font-family="Arial Narrow, Arial, sans-serif" fill="#666">Morocco</text><text x="545" y="454.83" font-size="11.07" font-family="Arial Narrow, Arial, sans-serif" fill="#666">Malaysia</text><text x="321" y="276.96" font-size="11.06" font-family="Arial Narrow, Arial, sans-serif" fill="#666">Ghana</text><text x="159" y="478" font-size="11.06" font-family="Arial Narrow, Arial, sans-serif" fill="#666">Mozambique</text><text x="193" y="454.1" font-size="11.05" font-family="Arial Narrow, Arial, sans-serif" fill="#666">Madagascar</text><text x="283" y="376.17" font-size="11.05" font-family="Arial Narrow, Arial, sans-serif" fill="#666">Cameroon</text><text x="628" y="300.34" font-size="11.04" font-family="Arial Narrow, Arial, sans-serif" fill="#666">Netherlands</text><text x="544" y="401.35" font-size="11.04" font-family="Arial Narrow, Arial, sans-serif" fill="#666">Kazakhstan</text><text x="162" y="435.36" font-size="11.04" font-family="Arial Narrow, Arial, sans-serif" fill="#666">Malawi</text><text x="290" y="477.44" font-size="11.04" font-family="Arial Narrow, Arial, sans-serif" fill="#666">Cambodia</text><text x="313" y="496.45" font-size="11.03" font-family="Arial Narrow, Arial, sans-serif" fill="#666">Zambia</text><text x="235" y="490.5" font-size="11.03" font-family="Arial Narrow, Arial, sans-serif" fill="#666">Zimbabwe</text><text x="208" y="139.58" font-size="11.03" font-family="Arial Narrow, Arial, sans-serif" fill="#666">Rwanda</text><text x="615" y="424.62" font-size="11.03" font-family="Arial Narrow, Arial, sans-serif" fill="#666">Belgium</text><text x="448" y="401.62" font-size="11.03" font-family="Arial Narrow, Arial, sans-serif" fill="#666">Tunisia</text><text x="181" y="406.62" font-size="11.03" font-family="Arial Narrow, Arial, sans-serif" fill="#666">Guinea</text><text x="216" y="430.64" font-size="11.03" font-family="Arial Narrow, Arial, sans-serif" fill="#666">Haiti</text><text x="462" y="200.64" font-size="11.02" font-family="Arial Narrow, Arial, sans-serif" fill="#666">Dominican Republic</text><text x="511" y="423.68" font-size="11.02" font-family="Arial Narrow, Arial, sans-serif" fill="#666">Belarus</text><text x="625" y="326.74" font-size="11.02" font-family="Arial Narrow, Arial, sans-serif" fill="#666">Austria</text><text x="332" y="406.75" font-size="11.02" font-family="Arial Narrow, Arial, sans-serif" fill="#666">Honduras</text><text x="407" y="445.85" font-size="11.02" font-family="Arial Narrow, Arial, sans-serif" fill="#666">El Salvador</text><text x="669" y="342.92" font-size="11.01" font-family="Arial Narrow, Arial, sans-serif" fill="#666">Norway</text><text x="130" y="457.96" font-size="11.01" font-family="Arial Narrow, Arial, sans-serif" fill="#666">Liberia</text><text x="343" y="444" font-size="11.01" font-family="Arial Narrow, Arial, sans-serif" fill="#666">Moldova</text><text x="618" y="239.04" font-size="11.01" font-family="Arial Narrow, Arial, sans-serif" fill="#666">Oman</text><text x="449" y="474.04" font-size="11.01" font-family="Arial Narrow, Arial, sans-serif" fill="#666">Mongolia</text><text x="413" y="458.16" font-size="11" font-family="Arial Narrow, Arial, sans-serif" fill="#666">Fiji</text><text x="653.61" y="272.19" font-size="11" font-family="Arial Narrow, Arial, sans-serif" fill="#666">Luxembourg</text><text x="665.1" y="419.19" font-size="11" font-family="Arial Narrow, Arial, sans-serif" fill="#666">Brunei</text><text x="542" y="180.2" font-size="11" font-family="Arial Narrow, Arial, sans-serif" fill="#666">Bahamas</text><text x="411" y="308.2" font-size="11" font-family="Arial Narrow, Arial, sans-serif" fill="#666">Belize</text><text x="457" y="323.2" font-size="11" font-family="Arial Narrow, Arial, sans-serif" fill="#666">Maldives</text><text x="366" y="272.21" font-size="11" font-family="Arial Narrow, Arial, sans-serif" fill="#666">Samoa</text><text x="282" y="247.21" font-size="11" font-family="Arial Narrow, Arial, sans-serif" fill="#666">Sao Tome and Principe</text><text x="443" y="293.21" font-size="11" font-family="Arial Narrow, Arial, sans-serif" fill="#666">Saint Vincent and the Grenadines</text><text x="519" y="323.21" font-size="11" font-family="Arial Narrow, Arial, sans-serif" fill="#666">Antigua and Barbuda</text><text x="441" y="104.9" font-size="11" font-family="Arial Narrow, Arial, sans-serif" fill="#666">Dominica</text><text x="642" y="255.22" font-size="11" font-family="Arial Narrow, Arial, sans-serif" fill="#666">Bermuda</text></g><g class="ScatterColorLegend clickable" cursor="pointer"><g class="legendMark">,<path fill="#5675c1" d="M735 96.9h6v6h-6z"/>,<text font-size="12.6" x="746" y="104"><tspan x="746" y="103.98">Africa</tspan></text></g><g class="legendMark">,<path fill="#d14e5b" d="M735 114.5h6v6h-6z"/>,<text font-size="12.6" x="746" y="121.6"><tspan x="746" y="121.58">Asia</tspan></text></g><g class="legendMark">,<path fill="#ffd336" d="M735 132.1h6v6h-6z"/>,<text font-size="12.6" x="746" y="139.2"><tspan x="746" y="139.18">Europe</tspan></text></g><g class="legendMark">,<path fill="#4d824b" d="M735 149.7h6v6h-6z"/>,<text font-size="12.6" x="746" y="156.8"><tspan x="746" y="156.78">North America</tspan></text></g><g class="legendMark">,<path fill="#a652ba" d="M735 167.3h6v6h-6z"/>,<text font-size="12.6" x="746" y="174.4"><tspan x="746" y="174.38">Oceania</tspan></text></g><g class="legendMark">,<path fill="#69c487" d="M735 184.9h6v6h-6z"/>,<text font-size="12.6" x="746" y="192"><tspan x="746" y="191.98">South America</tspan></text></g></g></g><g class="SourcesFooter" fill="#777"><g class="clickable" fill="#777"><text font-size="12.6" x="15" y="581.6"><tspan x="15" y="581.58">Source: World Bank – WDI, Food Balance Sheets - FAO (2017)</tspan></text></g><text font-size="12.6" x="543.7" y="581.6"><tspan x="543.69" y="581.58"><a target="_blank" href="https://ourworldindata.org/diet-compositions/" fill="#777">OurWorldInData.org/diet-compositions/</a> • <a href="http://creativecommons.org/licenses/by-sa/4.0/deed.en_US" target="_blank" fill="#777">CC BY-SA</a></tspan></text></g></g></svg>