<svg xmlns="http://www.w3.org/2000/svg" version="1.1" style="background-color:#fff;-webkit-font-smoothing:antialiased" width="850" height="600" font-family="'Helvetica Neue',Helvetica,Arial,sans-serif" font-size="18" text-rendering="optimizeLegibility"><g class="ChartTab"><g class="HeaderView"><g opacity=".8" transform="matrix(.27 0 0 .27 778 15)"><a xmlns:xlink="http://www.w3.org/1999/xlink" xlink:href="https://ourworldindata.org" target="_blank"><g><path fill="#1B2543" d="M0 0h211.2v130.1H0z"/><path fill="#E63912" d="M0 112.2h211.2v17.9H0z"/><g><path fill="none" d="M1.2 12.3h210.2v99.2H1.2z"/><path fill="#FFF" d="M37.8 32.2c0 12.7-7.7 19.4-17.1 19.4-9.7 0-16.6-7.5-16.6-18.7 0-11.7 7.3-19.3 17.1-19.3 10.1.1 16.6 7.7 16.6 18.6zm-28.6.6c0 7.9 4.3 14.9 11.8 14.9 7.5 0 11.8-6.9 11.8-15.3 0-7.3-3.8-14.9-11.8-14.9-7.9 0-11.8 7.3-11.8 15.3zM62.7 43.8c0 2.7.1 5.1.2 7.2h-4.3l-.3-4.3h-.1c-1.3 2.1-4 4.9-8.8 4.9-4.2 0-9.1-2.3-9.1-11.6V24.6h4.8v14.6c0 5 1.5 8.4 5.9 8.4 3.2 0 5.5-2.2 6.3-4.4.3-.7.4-1.6.4-2.5V24.6h4.8v19.2zM67.3 32.8c0-3.1-.1-5.8-.2-8.2h4.2l.2 5.2h.2c1.2-3.5 4.1-5.8 7.3-5.8.5 0 .9.1 1.4.2v4.5c-.5-.1-1-.2-1.6-.2-3.4 0-5.8 2.6-6.5 6.2-.1.7-.2 1.4-.2 2.2V51h-4.8V32.8zM95.4 51L86 14.2h5l4.4 18.6c1.1 4.6 2.1 9.2 2.7 12.7h.1c.6-3.7 1.8-8 3-12.8l4.9-18.5h5l4.5 18.7c1 4.4 2 8.7 2.6 12.6h.1c.8-4 1.8-8.1 3-12.7l4.9-18.5h4.9L120.6 51h-5L111 31.9c-1.1-4.7-1.9-8.3-2.4-12h-.1c-.7 3.7-1.5 7.3-2.8 12L100.4 51h-5zM154.9 37.6c0 9.8-6.8 14-13.2 14-7.2 0-12.7-5.2-12.7-13.6 0-8.8 5.8-14 13.1-14 7.7 0 12.8 5.5 12.8 13.6zm-21 .3c0 5.8 3.3 10.1 8 10.1 4.6 0 8-4.3 8-10.3 0-4.5-2.2-10.1-7.9-10.1s-8.1 5.2-8.1 10.3zM158.2 32.8c0-3.1-.1-5.8-.2-8.2h4.2l.2 5.2h.2c1.2-3.5 4.1-5.8 7.3-5.8.5 0 .9.1 1.4.2v4.5c-.5-.1-1-.2-1.6-.2-3.4 0-5.8 2.6-6.5 6.2-.1.7-.2 1.4-.2 2.2V51h-4.8V32.8zM173.5 12.3h4.8V51h-4.8V12.3zM206.5 12.3v31.9c0 2.3.1 5 .2 6.8h-4.3l-.2-4.6h-.2c-1.5 2.9-4.7 5.2-9 5.2-6.4 0-11.3-5.4-11.3-13.4-.1-8.8 5.4-14.2 11.9-14.2 4 0 6.8 1.9 8 4h.1V12.3h4.8zm-4.8 23.1c0-.6-.1-1.4-.2-2a7 7 0 00-6.9-5.6c-5 0-7.9 4.4-7.9 10.2 0 5.3 2.6 9.8 7.8 9.8 3.2 0 6.2-2.1 7.1-5.7.2-.7.2-1.3.2-2.1v-4.6zM42.8 64c.1 1.6-1.1 2.9-3.1 2.9-1.7 0-2.9-1.3-2.9-2.9 0-1.7 1.3-3 3-3 1.9 0 3 1.3 3 3zm-5.4 33.8V71.4h4.8v26.4h-4.8zM47.5 78.6c0-2.7-.1-5-.2-7.1h4.3l.3 4.4h.1c1.3-2.5 4.4-5 8.8-5 3.7 0 9.4 2.2 9.4 11.2v15.8h-4.8V82.6c0-4.3-1.6-7.8-6.1-7.8-3.2 0-5.6 2.2-6.5 4.9-.2.6-.3 1.4-.3 2.2v15.9h-4.8V78.6zM84 61.6c2.9-.4 6.3-.8 10.1-.8 6.8 0 11.7 1.6 14.9 4.6 3.3 3 5.2 7.3 5.2 13.2 0 6-1.9 10.9-5.3 14.3-3.4 3.4-9.1 5.3-16.3 5.3-3.4 0-6.2-.2-8.6-.4V61.6zm4.8 32.5c1.2.2 3 .3 4.8.3 10.2 0 15.7-5.7 15.7-15.6.1-8.7-4.9-14.2-14.9-14.2-2.5 0-4.3.2-5.6.5v29zM132.1 97.8l-.4-3.3h-.2a9.79 9.79 0 01-8.1 3.9c-5.4 0-8.1-3.8-8.1-7.6 0-6.4 5.7-9.9 15.9-9.8v-.5c0-2.2-.6-6.1-6-6.1-2.5 0-5 .8-6.9 2l-1.1-3.2c2.2-1.4 5.4-2.3 8.7-2.3 8.1 0 10.1 5.5 10.1 10.8v9.9c0 2.3.1 4.5.4 6.3h-4.3zm-.7-13.4c-5.3-.1-11.2.8-11.2 5.9 0 3.1 2.1 4.6 4.5 4.6 3.4 0 5.6-2.2 6.4-4.4.2-.5.3-1 .3-1.5v-4.6zM146.6 63.9v7.6h6.9v3.7h-6.9v14.2c0 3.3.9 5.1 3.6 5.1 1.3 0 2.2-.2 2.8-.3l.2 3.6c-.9.4-2.4.7-4.3.7-2.2 0-4-.7-5.2-2-1.4-1.4-1.9-3.8-1.9-6.9V75.1h-4.1v-3.7h4.1v-6.3l4.8-1.2zM171.4 97.8l-.4-3.3h-.2a9.79 9.79 0 01-8.1 3.9c-5.4 0-8.1-3.8-8.1-7.6 0-6.4 5.7-9.9 15.9-9.8v-.5c0-2.2-.6-6.1-6-6.1-2.5 0-5 .8-6.9 2l-1.1-3.2c2.2-1.4 5.4-2.3 8.7-2.3 8.1 0 10.1 5.5 10.1 10.8v9.9c0 2.3.1 4.5.4 6.3h-4.3zm-.7-13.4c-5.3-.1-11.2.8-11.2 5.9 0 3.1 2.1 4.6 4.5 4.6 3.4 0 5.6-2.2 6.4-4.4.2-.5.3-1 .3-1.5v-4.6z"/></g></g></a></g><a href="https://ourworldindata.org/grapher/GDP-vs-services-employment" target="_blank"><text font-size="25.2" x="15" y="35.2" fill="#555"><tspan x="15" y="35.16">GDP per head vs share of services in employment, 1801 to 2010</tspan></text></a><text font-size="14.4" x="15" y="53.7" fill="#666"><tspan x="15" y="53.72">The vertical axis shows historical estimates of the employment share in the service sector. The horizontal axis shows</tspan><tspan x="15" y="69.56">GDP per head after adjusting for inflation (figures are in 2011 international US dollars) and uses multiple benchmarks</tspan><tspan x="15" y="85.4">for cross-country income comparisons.</tspan></text></g><g><g class="AxisBoxView"><g class="HorizontalAxis"><text font-size="12.6" x="215.7" y="539.4"><tspan x="215.69" y="539.38">GDP per capita (2011 Int. US$, multiple benchmarks)</tspan></text><text x="75.2" y="519.3" fill="#666" text-anchor="middle" font-size="16.2">$595</text><text x="146.7" y="519.3" fill="#666" text-anchor="middle" font-size="16.2">$1,000</text><text x="464" y="519.3" fill="#666" text-anchor="middle" font-size="16.2">$10,000</text></g><g class="VerticalAxis"><text font-size="12.6" x="-416.4" y="25.1" transform="rotate(-90)"><tspan x="-416.42" y="25.08">Share of services in employment</tspan></text><text x="70.16" y="498.1" fill="#666" dominant-baseline="middle" text-anchor="end" font-size="16.2">0%</text><text x="70.16" y="409.6" fill="#666" dominant-baseline="middle" text-anchor="end" font-size="16.2">20%</text><text x="70.16" y="321" fill="#666" dominant-baseline="middle" text-anchor="end" font-size="16.2">40%</text><text x="70.16" y="232.5" fill="#666" dominant-baseline="middle" text-anchor="end" font-size="16.2">60%</text><text x="70.16" y="143.9" fill="#666" dominant-baseline="middle" text-anchor="end" font-size="16.2">80%</text></g><g class="AxisGridLines"><path stroke="#ccc" d="M75.16 498.1H715"/><path stroke="#ddd" stroke-dasharray="3,2" d="M75.16 409.6H715M75.16 321H715M75.16 232.5H715M75.16 143.9H715"/></g><g class="AxisGridLines" stroke="#ddd" stroke-dasharray="3,2"><path d="M146.7 498.1V107.6M464 498.1V107.6"/></g></g><g clip-path="url(#a)" font-family="Arial Narrow, Arial, sans-serif" class="PointsWithLabels clickable"><path fill="rgba(255,255,255,0)" d="M75.16 107.6H715v390.5H75.16z"/><defs><clipPath id="a"><path d="M65.16 97.6H725v410.5H65.16z"/></clipPath></defs><g class="key-China_0"><circle cx="145" cy="457" r="1.73" fill="#d14e5b" stroke="#ccc" opacity=".6"/><path stroke-linecap="round" stroke="#d14e5b" fill="none" stroke-width="1.41" opacity=".6" d="M145 457l14 1-14 2 10 1 5-3v-4l-4-26-11-10-10-7-20 31 11 11h38l1 1h1-7l9 2 13 1h7l-5-1 7 1v-1h5l-4-2 3-5 16-6 5-2 4-2-2-3 12 1 6-4 15-8 12-3 5-1 6-3 3-3h-3l-3-1 5-1 10-5 12-6 7-8 7-8 8-5 1-2 1-1 8-1 11-3 10-1 12-4 9-3 13-6 17-4 12-3 11-1 4-4 11-4 17-2"/><path cx="456" cy="342" r="2.11" fill="#d14e5b" stroke="#ccc" stroke-width=".2" opacity=".6" d="M449.9 340.6l8.2 1.15-3.95 2.6z"/></g><g class="key-India_0"><circle cx="193" cy="425" r="1.65" fill="#d14e5b" stroke="#ccc" opacity=".6"/><path stroke-linecap="round" stroke="#d14e5b" fill="none" stroke-width="1.36" opacity=".6" d="M193 425h-3l-2-1v-2l4-1-12 2-5 1h4l-4 1 1-1h-1 1v1h7-4l10-2-6 1h-2l-5-1h-13 2l-4-1-6-2h-1l-3-2-2-3 4-2 6-2 9-2 7-3h13l7-1 6-5 7-2h9l6-1 8-2 6-3 5 1 6-1 5-5 11-1 9 1 15 1h12l12-4 17-2 6-2 14 2"/><path cx="349" cy="382" r="2.06" fill="#d14e5b" stroke="#ccc" stroke-width=".2" opacity=".6" d="M343.41 379.12l7.63 3.17-4.37 1.46z"/></g><g class="key-United-States_0"><circle cx="277" cy="398" r="1.17" fill="#4d824b" stroke="#ccc" opacity=".6"/><path stroke-linecap="round" stroke="#4d824b" fill="none" stroke-width=".84" opacity=".6" d="M277 398l12-9 27-11 12 27 36-9 9-32 26-6 26-30 16-14 30-41-15-4-9-3-23-3-4 2 11-1h16l13-5 10 3-9-11 9 2h10l18 6 14 1 11-10 9-11-4-10-14 19-4 8 5 3-4-7 11 2 7-5 3-3 4 1-3-5h7v-6l-4-7 8 1 1-3 1-3h6l4-2 5-2h7l7-1 2-3 5-2 3-1-1-5 2-4 6 1 6 1-1-2-2-9 6 2h14l-2-4 2-2-4-6 5-3h8l4-3 4-3 3-2 5-1 3-3 1-2-2-3 3-3h5l2-1 4-1 4-1h5l4-2 4-1v-10l2-3 2-3h4l3-1h3l1-1-2-3-5-6 2-2"/><path cx="683" cy="127" r="1.54" fill="#4d824b" stroke="#ccc" stroke-width=".2" opacity=".6" d="M677.34 130.48l6.75-4.57-1.09 3.27z"/></g><g class="key-Indonesia_0"><circle cx="209" cy="415" r="1.31" fill="#d14e5b" stroke="#ccc" opacity=".6"/><path stroke-linecap="round" stroke="#d14e5b" fill="none" stroke-width=".78" opacity=".6" d="M209 415l-15-24 16-6 20 2 14-2-4-8h8l7-7 1-2 9-1 12-5 6-3-11-3h0l4 2h1v-2l2-3 3-1 9-2 15 1 7 12 9 8 7-12 9-5 9-11 9-8-1-12-31 2-2-4-4 6 1-2 1 5-1 6 10-11 11 5 11-12 13-5 24-4 13-3 21-4"/><path cx="422" cy="302" r="1.48" fill="#d14e5b" stroke="#ccc" stroke-width=".2" opacity=".6" d="M415.32 301.77l8.13-.05-2.63 2.01z"/></g><g class="key-Brazil_0"><circle cx="207" cy="409" r="1.25" fill="#69c487" stroke="#ccc" opacity=".6"/><path stroke-linecap="round" stroke="#69c487" fill="none" stroke-width=".73" opacity=".6" d="M207 409l-1-2 8-2 2-3 7-2 8-2v-2l5-2 10-3 4-2 10-2 9-3 7-3-2-2v-3l-1-2 6-3 6-2 9-3 2-3 14-2 12-12 12-10 13 1 8-5 3-4 7-5h0l2-10 6-4-4 9 3-16v-4l-4-15 1 8 5 11 15-16 1-7-2-4 1-3-4-5 6-3 2-2 8-2 14-4 19-4 22-5-5-2-7-4-6 2v-8l-2-6v-1l-3-1 6 3 4 1 11-7 13-3h14l4-3 19-4"/><path cx="504" cy="217" r="1.43" fill="#69c487" stroke="#ccc" stroke-width=".2" opacity=".6" d="M497.28 216.95l8.12-.24-2.5 1.98z"/></g><g class="key-Nigeria_0"><circle cx="254" cy="424" r="1.23" fill="#5675c1" stroke="#ccc" opacity=".6"/><path stroke-linecap="round" stroke="#5675c1" fill="none" stroke-width=".69" opacity=".6" d="M254 424l9-2 5-2 8-9 9-9 21-5-9-3-16 12 6-5 46-10 22-13 12-2 3 2 16-1 17-4-4-16 6-12 11-13-6-1 1-4-9-16-17-18 1-12-6-11-21-3 8 7-10 7-12 5 2 5-2 6-4 6-11 6-6 4-8 5-8 7-7 5-3 6-4 5-5 3-8 2v8l1 6h11l5 6 6-14h1l5-1 32-2h3l10 1h15"/><path cx="370" cy="350" r="1.39" fill="#5675c1" stroke="#ccc" stroke-width=".2" opacity=".6" d="M363.39 348.61l8 1.39-2.78 1.39z"/></g><g class="key-Japan_0"><circle cx="146" cy="452" r="1.21" fill="#d14e5b" stroke="#ccc" opacity=".6"/><path stroke-linecap="round" stroke="#d14e5b" fill="none" stroke-width=".66" opacity=".6" d="M146 452l20-3 22-11 21-12 14-14 36-22 12-17 60 4-57-8 33-26 6-6 11-3 8-4 8-1 8-5 10-3 15-2 14-2 12-4 9-7 13-4 7-5 14-5 12-1 17-3 15-2 13-4 6-5 10-3 8-2-3-4 6-6 7-3 7-3 8-1 7-4 7-1-3-3-3-3-4-2-1-2h1l10-2 7-2h12l8 1 8-1h9l5-2 4-4 3-3 6-3 2-3 1-2-3-5v-3l5-2-1-4 1-5 1-2 4-4 3-2 1-1h2l-3-4-6-5 7-3"/><path cx="638" cy="179" r="1.36" fill="#d14e5b" stroke="#ccc" stroke-width=".2" opacity=".6" d="M631.36 180.37l7.89-1.9-1.96 2.32z"/></g><g class="key-Mexico_0"><circle cx="280" cy="384" r="1.19" fill="#4d824b" stroke="#ccc" opacity=".6"/><path stroke-linecap="round" stroke="#4d824b" fill="none" stroke-width=".64" opacity=".6" d="M280 384l4-3 2-4-4-1 9 1 6-2 3-5h5l4-2v-3l5-1 6-1 5-1 9-3 14-3h7l9-3 7-1 10-3 8-2 9-2 5-3 10-6h10l10-8 8-4 3-7h2l9-4 12-6 13-3 6-2-5-7-12-4v-1h-1l-13-3h-3l2-1 6-4 3-6 3-4-2-4 3-4-16-7v2l8-1 7-1 3-2 12-3-1-4 1-4h2l8-3 9-1 7-2 5-3 2 1-9-3h8"/><path cx="513" cy="233" r="1.34" fill="#4d824b" stroke="#ccc" stroke-width=".2" opacity=".6" d="M506.34 231.66l8 1.34-2.68 1.34z"/></g><g class="key-Philippines_0"><circle cx="259" cy="343" r="1.21" fill="#d14e5b" stroke="#ccc" opacity=".6"/><path stroke-linecap="round" stroke="#d14e5b" fill="none" stroke-width=".61" opacity=".6" d="M259 343l4 13 6 2h4l9-2 5 2 1-10h4-1l9-1 3-5 4-1-2 1-13-6-10-6 5 1 10-4 11-3 9-4 9-3 1 5 2 1 6-1 12-4 11-3 9-6-4-6-14-7-7-3 2-3h-2l-1-4h1l2-3 2-1 5-3 8-3 6-1 4-5 11-3"/><path cx="380" cy="267" r="1.31" fill="#d14e5b" stroke="#ccc" stroke-width=".2" opacity=".6" d="M373.2 267.5l8.06-.84-2.18 1.95z"/></g><g class="key-Ethiopia_0"><circle cx="111" cy="487" r="1.18" fill="#5675c1" stroke="#ccc" opacity=".6"/><path stroke-linecap="round" stroke="#5675c1" fill="none" stroke-width=".6" opacity=".6" d="M111 487l2-1 15-1 4-1 5-1 2-2 3-1-1-3 2-1 5-2 3-1 4-2 1-2-1-1-3-2v-2l-3 1 6-3 5-3-3-1-4-2h2-6l-11 1 6 1h9-2l-2 1-6 1-15 3h-18l-7-6-10-1 10-2-9-3 13-1-12 2-7-2-10-2 13 1-16 1 7 1h7l21-3-2-4 22-5 15-5-8-4 16-4"/><path cx="153" cy="426" r="1.3" fill="#5675c1" stroke="#ccc" stroke-width=".2" opacity=".6" d="M146.18 426.36l8.08-.68-2.2 1.9z"/></g><g class="key-Egypt_0"><circle cx="216" cy="352" r="1.19" fill="#5675c1" stroke="#ccc" opacity=".6"/><path stroke-linecap="round" stroke="#5675c1" fill="none" stroke-width=".59" opacity=".6" d="M216 352l6-2 6 1 6 1 5-1 6-1-2 10-5 2v2l7-1 6-4 3-1 1-1 1-13h13l18-5 13-3 6-2 7-1 9-2 1 4 10-3 6-2 4-3 5-2v-11l3-2 1-5v-3l2-1 2-1h6l4-1 5-7 1-1v-1l2-3 1-1 6-2 1-4 1-4 4-3h6l8-4 15-3h20l3-1 19-3"/><path cx="458" cy="264" r="1.29" fill="#5675c1" stroke="#ccc" stroke-width=".2" opacity=".6" d="M451.17 263.77l8.1.03-2.34 1.68z"/></g><g class="key-Germany_0"><circle cx="382" cy="247" r="1.27" fill="#ffd336" stroke="#ccc" opacity=".6"/><path stroke-linecap="round" stroke="#ffd336" fill="none" stroke-width=".59" opacity=".6" d="M382 247l14 7 13 2 10 4 10 2 16 5 9-1 7-3 5-1 9 1 9 3h6l3-3 9 4h5l4-2-1-6 8 2 9 2 6 1 4-5 5-4h6l1-4 2-8 8 1 4-1 4-5h5l1-2-4-4-3-3v-1h1l1-1 9-3 6-6h6l5 2-4-2 8-4"/><path cx="598" cy="214" r="1.29" fill="#ffd336" stroke="#ccc" stroke-width=".2" opacity=".6" d="M591.42 215.85l7.73-2.43-1.73 2.31z"/></g><g class="key-Thailand_0"><circle cx="189" cy="437" r="1.19" fill="#d14e5b" stroke="#ccc" opacity=".6"/><path stroke-linecap="round" stroke="#d14e5b" fill="none" stroke-width=".57" opacity=".6" d="M189 437h3l8-1 6-1 5-1h6l14-1h9l10-1 6-1 2-1 3-3 2-3 8-3 1-3 4-2 8-3 12-2 9 2 4-7 3-1 5-3 3-12 5 7 5 6 3-4 1-5 9-7 14 7 11 3 10-3 8-10 12 3 9-10 11-2 14-10 10-3-13-4-24-5 4-9 4 4 4-7 8 5 13-6 9-8h19l9-1 6-2-2-11 16-4"/><path cx="495" cy="314" r="1.27" fill="#d14e5b" stroke="#ccc" stroke-width=".2" opacity=".6" d="M488.16 314.4l8.07-.7-2.15 1.84z"/></g><g class="key-France_0"><circle cx="251" cy="403" r="1.21" fill="#ffd336" stroke="#ccc" opacity=".6"/><path stroke-linecap="round" stroke="#ffd336" fill="none" stroke-width=".56" opacity=".6" d="M251 403l19-6 30-20 32 3 11-12 9 5 14 10-24-14 35 1-4-10 3-12-7-2 65-17 47-17 38-9 16-29 6-3 6-4 6-3 4-3-1-6 6-4 5-5 4-4 4-4 2-3-4-5v-4l-3-5-3-5-2-4 6-3 3-5 6-3 4-3 2-2 1-3 2-4-2-6 3-4 2-1 2-3 8-2 8-3 5-2 8-2 4-1 2-2-7-1 3-2 5-1 3-1 7-1"/><path cx="640" cy="157" r="1.26" fill="#ffd336" stroke="#ccc" stroke-width=".2" opacity=".6" d="M633.15 156.7l8.1.12-2.32 1.6z"/></g><g class="key-United-Kingdom_0"><circle cx="256" cy="356" r="1.15" fill="#ffd336" stroke="#ccc" opacity=".6"/><path stroke-linecap="round" stroke="#ffd336" fill="none" stroke-width=".56" opacity=".6" d="M256 356l20-22 19 16 16 6 20-15 13-12 19-12 20-10 12-5-10 1-4-10 12 3 5 2 5 1 7-3-5-4 11 1 1-3 5-1-2-7-8-7 1-2 3 1 9 2 4 1 6 1 4 1 1-3 12-5 4 2h0l2 1-1-3 6 1 6 1 5 1 2-1h2v-1l5-1 6 1 4-1v-3l5-2 7 1 3-1 3-2 3-4 2-2h6l4-4v-3l3-5 9-1-3-1v-7l5-3 6-1 7-1 7-3 3-4-4-7-1-5 2-4 1-3 3-2 4-3 6-2 5-2h3l2-3-2-6 1-6 4-3 5-1 6-1 6-2 10-1h5l6-5 9-3 3-4 1-3v-4l3-2 5-2 2-2h0l-2-2-7-4-2 2"/><path cx="637" cy="145" r="1.26" fill="#ffd336" stroke="#ccc" stroke-width=".2" opacity=".6" d="M642.66 141.13l-6.55 4.76.89-2.67z"/></g><g class="key-Italy_0"><circle cx="337" cy="378" r="1.23" fill="#ffd336" stroke="#ccc" opacity=".6"/><path stroke-linecap="round" stroke="#ffd336" fill="none" stroke-width=".56" opacity=".6" d="M337 378l10-3 12-3 8-2 9-5 7-4 8-5 9-3 9-1 7-4 11-4 12-2 8-5 5-5 2-2 7-4 11-2 12-5 8-3 4-4 3-1 5-7 9-3 6-3-2-4 11-4 7-4 7-2 11-2 9-2-3-5-1-7-2-5v-10l2-7 9-4 6-5 6-3 5-2 6-3 5-4 2-3v-2l4-2 5-1 1-4 6-1 7-2 4-2 5-3 3-1-4-2-2-1-1-1h3l4-1 7-1 1-2-5-3-1-3"/><path cx="634" cy="190" r="1.26" fill="#ffd336" stroke="#ccc" stroke-width=".2" opacity=".6" d="M634.94 196.8l-1.34-8 2 2z"/></g><g class="key-South-Africa_0"><circle cx="389" cy="369" r="1.17" fill="#5675c1" stroke="#ccc" opacity=".6"/><path stroke-linecap="round" stroke="#5675c1" fill="none" stroke-width=".54" opacity=".6" d="M389 369l3-4 2-4 8-4 4-1 3-4 3-4 6-4 1-5 8-3 4-3-1-3 2-2 11 1 5-1-6-7-3-2-7-5 1-5 3-2 11 1 3 2-3-2-5-3 1-1h-9l-5-2 4-6 2-6-2-6-3-5-4-8-3-5v-4l6-3 4-7 2-4v-12h6l3-7 7 13 2-14 5-3 9-8 8 5 6-5 1 1-5-2h3"/><path cx="480" cy="216" r="1.24" fill="#5675c1" stroke="#ccc" stroke-width=".2" opacity=".6" d="M473.24 214.76l8 1.24-2.48 1.24z"/></g><g class="key-South-Korea_0"><circle cx="202" cy="447" r="1.18" fill="#d14e5b" stroke="#ccc" opacity=".6"/><path stroke-linecap="round" stroke="#d14e5b" fill="none" stroke-width=".54" opacity=".6" d="M202 447l12-67 5-5 1-6 13-3 6-1 15-4 16-4 6-6 19-7 14 11 28 5 20 1 15-2 9 6 6-7 9-6 2-9-13-13 4-5 8-8 12-5 8-5 4-9 20-1 17 2 15-1 11-5 12-6 15-5 8-6 10-11 12-6 12-5 6-7 6-7-14-9 15-5 12-1 3-5 10-4 4-1 7-4 8-3 4-4 6-3h-4 9"/><path cx="625" cy="201" r="1.24" fill="#d14e5b" stroke="#ccc" stroke-width=".2" opacity=".6" d="M618.24 199.76l8 1.24-2.48 1.24z"/></g><g class="key-Colombia_0"><circle cx="297" cy="376" r="1.15" fill="#69c487" stroke="#ccc" opacity=".6"/><path stroke-linecap="round" stroke="#69c487" fill="none" stroke-width=".53" opacity=".6" d="M297 376l-1-5h4l6-7 7-3-1-1v-1l-1 1-2 3 4-1 1-7 3-3 3-4v-4l4-4-1-3 4-3 1-1 5-3 5-4 6-6 10-4 9-4 11-4 8-4 5-6 6 1 4-6h7l2-6 5 1-2-2-2 2-4 3-1 2-1-1 5-3-2-1 2-2v-2l4-8-3-7 5 5 6-4 4 8 4-15-3 8 1-22h-5l-10-6h3l-1-7v-1l3 1 5-4 8 13 11-2 12-11 10-4 1 4 11-4"/><path cx="472" cy="228" r="1.23" fill="#69c487" stroke="#ccc" stroke-width=".2" opacity=".6" d="M465.22 229.16l7.94-1.58-1.9 2z"/></g><g class="key-Spain_0"><circle cx="287" cy="438" r="1.16" fill="#ffd336" stroke="#ccc" opacity=".6"/><path stroke-linecap="round" stroke="#ffd336" fill="none" stroke-width=".53" opacity=".6" d="M287 438l41-17-12 12 16-16 7 5 20-8-15-23v-4l72-23 36-51 4-3 11-2 7-3 5-3 2-3 6-3 5-4 4-4 2-5 5-6-8-9-3-5-4-3-4-5-1-5 10-5 11-3 12-2 11-3 8-2 8-6 3-6v-6l6-4 8-1 3 1h39l5-1-3-3 2-1 6-2 10-3 2-2"/><path cx="624" cy="201" r="1.23" fill="#ffd336" stroke="#ccc" stroke-width=".2" opacity=".6" d="M618.34 204.92l6.53-4.79-.87 2.6z"/></g><g class="key-Tanzania_0"><circle cx="189" cy="467" r="1.15" fill="#5675c1" stroke="#ccc" opacity=".6"/><path stroke-linecap="round" stroke="#5675c1" fill="none" stroke-width=".53" opacity=".6" d="M189 467l8-10 9 5 12 3-2 3-2 1 13 1 2 2 2-1 4 1 12-2 2-1 5-1 5-2-1-2 7-3 8-1h-6l2-2-5-2-12-1-24-1h3l5 1 7-1 9-2h-51l-39-1 36-2-13-2-4 1-8-1-17-1-14 1h-12 5l3-1 10-2 6-1 5-3 5-2 8-3 8-4 6-4 3-5 13-5 9-5 12-4 6-4 1-4 12-4"/><path cx="242" cy="396" r="1.23" fill="#5675c1" stroke="#ccc" stroke-width=".2" opacity=".6" d="M235.19 396.97l7.98-1.36-1.95 1.95z"/></g><g class="key-Kenya_0"><circle cx="218" cy="432" r="1.15" fill="#5675c1" stroke="#ccc" opacity=".6"/><path stroke-linecap="round" stroke="#5675c1" fill="none" stroke-width=".52" opacity=".6" d="M218 432l1 3 7-3 9 1-2 1 7-7-4 1-3-2h10l5 1-6-2 2-4h-5l3-1 2-4 4-2-1-3 7-1-3-2 3-1-2-4 4-3-1-2-10-3 3-3 17-6-9-7 3-6-1-5-3-3-2-4-5-1 1-1-8-2h-6l1-4h6l10-1 5-3 2-2 6-4 10-3"/><path cx="275" cy="340" r="1.22" fill="#5675c1" stroke="#ccc" stroke-width=".2" opacity=".6" d="M268.16 340.78l8-1.13-1.98 1.87z"/></g><g class="key-Argentina_0"><circle cx="442" cy="309" r="1.17" fill="#69c487" stroke="#ccc" opacity=".6"/><path stroke-linecap="round" stroke="#69c487" fill="none" stroke-width=".52" opacity=".6" d="M442 309l-2 3-15-10 8 7 4-2 7 2v-4l6 1 7 2-13-9 4 3 8-6-4-5-5-2 12 2 11-1-1-7 3-2 4-4 10 2 6-1 4-3 3-2 6-3 7-3-3-8-2 2 7-3-8-3 8-5v7l-10-11-6-20 4 2 1 4-11-5 8 3 3-2-4-3-11-4-1-4 13-4 12-1 7-9 7-3h-5l7-4 3-3-1-7-9-7-2-5h-10l-22-6 9 3 11 5 11 1h9l12 1 8-1-11-4 13 1"/><path cx="549" cy="174" r="1.22" fill="#69c487" stroke="#ccc" stroke-width=".2" opacity=".6" d="M542.33 172.26l7.89 1.83-2.53 1.03z"/></g><g class="key-Morocco_0"><circle cx="271" cy="394" r="1.15" fill="#5675c1" stroke="#ccc" opacity=".6"/><path stroke-linecap="round" stroke="#5675c1" fill="none" stroke-width=".5" opacity=".6" d="M271 394l2-11 1 10 1-2 1 2 2-2 4 1 4-3 4-3 4-2 4-3 4-1h1l2-3 4-2 6-1 12-5 4-4 1-4 4-4 9-6-6-1 10-6h-5l2-4h5l7-3-7-1 10-1v-2h2l7-3-5-1-3 1 11-2-10 2 20-1-12 1-2-3-7-2-6-2 1-3h-3l3-1-2-4-3-2 11-4 10-2 16-5 8-5 9-2"/><path cx="406" cy="295" r="1.2" fill="#5675c1" stroke="#ccc" stroke-width=".2" opacity=".6" d="M399.1 295.3l8.07-.56-2.08 1.7z"/></g><g class="key-Peru_0"><circle cx="272" cy="372" r="1.14" fill="#69c487" stroke="#ccc" opacity=".6"/><path stroke-linecap="round" stroke="#69c487" fill="none" stroke-width=".5" opacity=".6" d="M272 372l8-3 7-9 5-4 5-4 7-2 7-2 4-2h-5 0l6-2 5 8-1-6 5-2 3 4 9-9-4-6-6-2-5-8 3-12 9-1 6-3-2-4-18-7 3-3-2-2 18-4 11-4-8-4-28-5-1-5 3-3 1 1 6 8 19-1 13-4 4-5 7-6-5-7-2-8 3 5-1-3 7 2 7 1h9l13-2h16l13-9 11-2v-3l17-2"/><path cx="454" cy="231" r="1.2" fill="#69c487" stroke="#ccc" stroke-width=".2" opacity=".6" d="M447.1 230.6l8.1.26-2.25 1.47z"/></g><g class="key-Venezuela_0"><circle cx="339" cy="338" r="1.13" fill="#69c487" stroke="#ccc" opacity=".6"/><path stroke-linecap="round" stroke="#69c487" fill="none" stroke-width=".5" opacity=".6" d="M339 338l11 4 8-2 3-10 8-10 1-4 6-2 9-10 1-3 4-4-4-4 1-1 1-1 9-3 8-4v-3l4-3 1-2 7-2 3-4 12-3-5-1 2-3 15-2 42-11-8-10v-5l-8 2 10-3 1-2h-5l-15-1-6-1-2-2h-7l-14-1v-5l1-1-12-5 6 4v5l13-3-14-5-10 2 3-4-6-4 2-1-12-4 2-8 27-1-8-7-7-4h-8l33 2 31-1 19 6 15 1 18-2h-20l25-2"/><path cx="530" cy="190" r="1.2" fill="#69c487" stroke="#ccc" stroke-width=".2" opacity=".6" d="M523.13 189.35l8.07.55-2.3 1.4z"/></g><g class="key-Malaysia_0"><circle cx="368" cy="328" r="1.15" fill="#d14e5b" stroke="#ccc" opacity=".6"/><path stroke-linecap="round" stroke="#d14e5b" fill="none" stroke-width=".49" opacity=".6" d="M368 328l13-5 8 2 6-1 8-2 12-20 3-7 3-7 3-3 7-1-11-2-17-4h6l9 1 11-1 12-4 8 1h32l7 1h5l-20-2 3-2 16 3-6-7 7-8 4-2 10-8 12-1 3 1 11-7 10-1-9-9 8 3"/><path cx="542" cy="236" r="1.19" fill="#d14e5b" stroke="#ccc" stroke-width=".2" opacity=".6" d="M536.04 232.5l7.07 3.92-2.64.28z"/></g><g class="key-Ghana_0"><circle cx="286" cy="395" r="1.13" fill="#5675c1" stroke="#ccc" opacity=".6"/><path stroke-linecap="round" stroke="#5675c1" fill="none" stroke-width=".48" opacity=".6" d="M286 395l-6-2-4-2 6-5 1 2-7-2-6-1h-5l3-6 12-3 2-5-21 1 5-1 12-5-19 5-17 8 9-7-1-1-7 4-4 5-7-4-22 6-10 1 9-2 6-4-1-3 2-6 7-3-5-2v-3l8 6h0l-3 1h3l5-1-4-1 21-2-6-1 14-1 7-1-12-4 3-5 2-3 11-5 2-7-6-7 6-4 11-8-5-4 7-8"/><path cx="282" cy="305" r="1.18" fill="#5675c1" stroke="#ccc" stroke-width=".2" opacity=".6" d="M276.62 309.36l6.16-5.25-.67 2.56z"/></g><g class="key-Taiwan_0"><circle cx="272" cy="352" r="1.15" fill="#d14e5b" stroke="#ccc" opacity=".6"/><path stroke-linecap="round" stroke="#d14e5b" fill="none" stroke-width=".48" opacity=".6" d="M272 352h12l11-4 9-6 14-2 9-4 11-3 13-4 15 1 16-1 15-3v5l3 1h17l10-5h14l10-6 7-5 5-3 2-6 9-2 12 1 1-4 17-1 22-2 3-8 11-5 11-5 8-3 9-3 6-6 6-2 6-3 7-5 9 1 8-2 5-5 9-2-6-5 5-3 3-3 7-1 7-1 3-1h4l-8-1-3-4h11"/><path cx="647" cy="232" r="1.18" fill="#d14e5b" stroke="#ccc" stroke-width=".2" opacity=".6" d="M640.18 230.82l8 1.18-2.36 1.18z"/></g><g class="key-Chile_0"><circle cx="350" cy="321" r="1.13" fill="#69c487" stroke="#ccc" opacity=".6"/><path stroke-linecap="round" stroke="#69c487" fill="none" stroke-width=".47" opacity=".6" d="M350 321l3-4 10-1-1-13 10 20-8-1-5-5 13-16 3 2-11 13 3-3-7-4 29-3 2-4v7l-7 6 13-2 6-3 1-5 7-4-3-1 15-3-3-7-7 4-9 14-26-7 4-6 10-9 8-3 9-2 6-11 5-2-21-20-7-14 3 6-2 15h4l7 6 11 5 10-1 1-7 7-4 15-6 5-4 9-8 16-6 3-3 1-3-3-4-7-15 3-5-2 5v-2h5l12-2 13-4 21 2 8-2-5-1 1-4 17-6"/><path cx="545" cy="186" r="1.17" fill="#69c487" stroke="#ccc" stroke-width=".2" opacity=".6" d="M538.17 187.17l7.93-1.56-1.81 1.88z"/></g><g class="key-Netherlands_0"><circle cx="219" cy="361" r="1.12" fill="#ffd336" stroke="#ccc" opacity=".6"/><path stroke-linecap="round" stroke="#ffd336" fill="none" stroke-width=".46" opacity=".6" d="M219 361l47 10-1 1 74-16 14-6 20-9-4-24 14-19 7-3 24-24 60-11h-1l9-1h3l13-1 4-4 4-6 8-4 9-4 10-2 8-5 6-3 5-2 8-4 12-3-4-3 6-2v-3l1-2 5-4 5-5-6-4-6-5-1-3 2-2v-2l3-2-1-1 4-1 6-2 5-1 3-2 4-3 2-4 5-2 5-3 3-3 11-1 8-2 9-2 13-1 1-1v-2l-3-3 2-2 9-1 7-2 8-2h0-6l-3-2"/><path cx="669" cy="141" r="1.16" fill="#ffd336" stroke="#ccc" stroke-width=".2" opacity=".6" d="M674.05 145.76l-6.02-5.4 2.58.32z"/></g><g class="key-Malawi_0"><circle cx="151" cy="454" r="1.13" fill="#5675c1" stroke="#ccc" opacity=".6"/><path stroke-linecap="round" stroke="#5675c1" fill="none" stroke-width=".46" opacity=".6" d="M151 454l15 2-8 3-1 1-20 2 14-3 9 4v-3l3-2 1 1-7 1-3 2 2-1-6 2-12 3 10 1 3 1 6-2 6-2 17-2-17-2h-25l4-1-11-2 6-4-20-1h6l26-2 2-1-8-2 14-6-28 1 5-1-6-1-14-3 16-4h1l18-11 5-8-8 3 21-8 11-11-32-7-1-7"/><path cx="145" cy="384" r="1.16" fill="#5675c1" stroke="#ccc" stroke-width=".2" opacity=".6" d="M144.82 390.94l.02-8.09 1.47 2.13z"/></g><g class="key-Zambia_0"><circle cx="267" cy="390" r="1.12" fill="#5675c1" stroke="#ccc" opacity=".6"/><path stroke-linecap="round" stroke="#5675c1" fill="none" stroke-width=".45" opacity=".6" d="M267 390l-21 1 10-8 3-2 2 12-17-12-5-10 9 9-4 2-3 5 5 3 6 1-25 4-11 3-6 1-11-1 22-3-6 3-11 8 12 2 9 2-29 4-3 3 15 2-26 3 8 2-4-2-6-1-15-4h-21l5-7 13-2-9-2-12-7 25-3 8 3 11 5 11 3 2 4h13l17-1 36-1 5-1h12l12-2"/><path cx="293" cy="406" r="1.15" fill="#5675c1" stroke="#ccc" stroke-width=".2" opacity=".6" d="M286.05 406l8.08-.19-2.08 1.51z"/></g><g class="key-Senegal_0"><circle cx="244" cy="411" r="1.13" fill="#5675c1" stroke="#ccc" opacity=".6"/><path stroke-linecap="round" stroke="#5675c1" fill="none" stroke-width=".45" opacity=".6" d="M244 411l-8-6h-1l-13 1 1 6 1-7h6l-7 2-8-6 1-1-13-3 1-2 19-3h7l-1-1h10l3-3-1-3 2-2-7-3-1-1h-2l-4-1-2 1-6 1 2-3h1l-1-3 2-5 2-5 4-3 1-1-3-3 2-4v-3l7-3-1-2 5-2-1-1 6 2h3"/><path cx="250" cy="344" r="1.15" fill="#5675c1" stroke="#ccc" stroke-width=".2" opacity=".6" d="M243.15 342.85l8 1.15-2.3 1.15z"/></g><g class="key-Belgium_0"><circle cx="250" cy="436" r="1.13" fill="#ffd336" stroke="#ccc" opacity=".6"/><path stroke-linecap="round" stroke="#ffd336" fill="none" stroke-width=".45" opacity=".6" d="M250 436l34-3 20-4 38-28 27-20 23-2 22 4-33-2-1-16 13-19 65-21 68-68 5-3 9-5 8-2 2-3-2-5 9-5 1-6 4-5 4-5 7-4-10-6-4-5-3-3-1-3-5-2 7-3 6-4 11-2 5-1 3-1 4-1 7-2-1-4 5-2 4-2-2-3 9-2 7-2 6-2 9-2h-1l6-3-2-3 2-2 2-2-1-1 14-1"/><path cx="650" cy="150" r="1.15" fill="#ffd336" stroke="#ccc" stroke-width=".2" opacity=".6" d="M643.09 149.34l8.06.58-2.22 1.3z"/></g><g class="key-Bolivia_0"><circle cx="213" cy="434" r="1.12" fill="#69c487" stroke="#ccc" opacity=".6"/><path stroke-linecap="round" stroke="#69c487" fill="none" stroke-width=".44" opacity=".6" d="M213 434l10-1v-4l-20-1 1-2v7l-14-6-11-8-4 3 1 6v-7l1-1v-5l6 1 5 2 4 9 9-3 5-6 12-5 2-11 4-3 4-3-4-5 10-4 16-7 2-8 5-7 2-5-4-6 2-5v-10l-7-4-4-5 5-5 7-15-3-6h4l-17 5h3l7 6 5 14 4 5 5-12 8-1 13-5 12-5v-2l1-7-2-8-1-1 3-14 5 4 4-16h6l7 8 5-6 6-3 14-9 4-4 12-12"/><path cx="363" cy="241" r="1.14" fill="#69c487" stroke="#ccc" stroke-width=".2" opacity=".6" d="M357.34 245.04l6.47-4.85-.81 2.42z"/></g><g class="key-Sweden_0"><circle cx="197" cy="429" r="1.12" fill="#ffd336" stroke="#ccc" opacity=".6"/><path stroke-linecap="round" stroke="#ffd336" fill="none" stroke-width=".44" opacity=".6" d="M197 429l-3 2-3-1 2 2 1-1 9 2h-2 4l2-1 5 1h2l-5-1-5-2 6 1 3-2 2 3-2-2 2 1-13-3h9l17 2 4-1 3 1 3 1h6l-4-1 9-2-2-2-4-2 9-1-2-1 6-1-5-1h12l-2-2 3 1h2l-3-1 3-1h4l4-1 8-1-1-1 4-1 2-1 7 1 5-2 6 1 6-1h4l1-1 5-1-1-3h8l3-1-1-2 11 1 10-2-3-2 1-2 4-1 1-1h3l6-1h1l2-4 5-1h-11l-13-7v-2l6-2-10 3 7-6 2-4 6 4v3l4-6 2-2 1-1 5-4 6-2-3-3-6-3 3-3 9 4 6 1h5l4-1 4-2 10-1-10-10-4-2 1-1 4-4 4 1 4 4 14-2 10-2 2-4 5-1 8-2 4-2 3-2 5-1 4-2 3-1 4-2 5-2 2-2 4-2 1-1 9-4 8-5 6-4 10-4 3-4 3-5 5-6 6-5 5-6 10-5 1-10 4-3 5-1 1-2 3-4 1-3-4-5 2-4 4-2-1-2 1-4 2-4 3-4 6-2 3-1 7-1 4-2 6-1 3-3v-3l-1-5v-5l-6-2 8-2 7 3 3-1h15l8-2 10-1-2-1 2-2 2-3 6-2-2-1 7-1h8v2l-6-5 5-1"/><path cx="661" cy="178" r="1.14" fill="#ffd336" stroke="#ccc" stroke-width=".2" opacity=".6" d="M654.05 178.23l8.07-.45-2.01 1.56z"/></g><g class="key-Hong-Kong_0"><circle cx="485" cy="282" r="1.13" fill="#d14e5b" stroke="#ccc" opacity=".6"/><path stroke-linecap="round" stroke="#d14e5b" fill="none" stroke-width=".44" opacity=".6" d="M485 282l-3 9 16 1 10-7 8-8 9-8 5-8 4 20 1-4 6-4 10-6-6-24 13-5 18-2 4-9 10-10 10-10 13-8 1-9 9-14 11-8-3-4-2-5 8-6v-12l11-3 9-4 10-4 2-5 20-6-4-2-2-1 8-3-20-2-8-2 7-2"/><path cx="670" cy="107" r="1.14" fill="#d14e5b" stroke="#ccc" stroke-width=".2" opacity=".6" d="M663.1 107.79l8-1.1-1.88 1.72z"/></g><g class="key-Denmark_0"><circle cx="455" cy="314" r="1.13" fill="#ffd336" stroke="#ccc" opacity=".6"/><path stroke-linecap="round" stroke="#ffd336" fill="none" stroke-width=".43" opacity=".6" d="M455 314l-1-3 1-3 8-2v-5l2-1h11l3-4 10 4h0l8-3 8-3 1-4 12-1 6-5 3-2 4-3 6-4 9-7 2-5 3-8 7-5 5-3-5-6-2-9 9-4 2-2 1-3 4-4-3-5-7-7 3-3 1-2 3 3h13l3-3 3-4 1-3 1-2 3-2 5-2-2-3 8-3 4 2 3-3 8-2 7-2 6-3 8-2-1-2 3-2-3-3 5-3 3-1h7l3-1h3l-3-5 6-4"/><path cx="663" cy="152" r="1.13" fill="#ffd336" stroke="#ccc" stroke-width=".2" opacity=".6" d="M656.66 154.87l7.28-3.5-1.25 2.2z"/></g><g class="key-Finland_0"><circle cx="178" cy="413" r="1.12" fill="#ffd336" stroke="#ccc" opacity=".6"/><path stroke-linecap="round" stroke="#ffd336" fill="none" stroke-width=".43" opacity=".6" d="M178 413l50 9 19 35-5-12 52-11 34-16 46-32 66-34 74-61 3-3 9-3 9-2 3-4-4-5-1-6v-5l4-5 11-1 7 1 1-4 1-3 1-3 1-3 1-5 6-4 6-5 10-3 6-4-3-3-12-5-2-5-3-4 8-1h14l-3-3 14 1 12-2h7l8-1 1-3 1-4v-2l6-3h8l4-1"/><path cx="648" cy="188" r="1.13" fill="#ffd336" stroke="#ccc" stroke-width=".2" opacity=".6" d="M641.06 188.57l8.04-.84-1.92 1.64z"/></g><g class="key-Singapore_0"><circle cx="355" cy="198" r="1.12" fill="#d14e5b" stroke="#ccc" opacity=".6"/><path stroke-linecap="round" stroke="#d14e5b" fill="none" stroke-width=".43" opacity=".6" d="M355 198l13 8 15 13 12-6 6 13 4-14 8 4 8-1 10 6 11 1 11 1 8 7 3-3 9-3 9 3-1-6 2-2 12 1 10 1 10 1 9-2 4-5 5-5 11-6 10-7 5-9 6 2 19 6 26 5 3 4 39 1-14-8 11-7-13-4 22-1 23 1 23 2 9 3-27 2 2-4 27-4"/><path cx="715" cy="186" r="1.13" fill="#d14e5b" stroke="#ccc" stroke-width=".2" opacity=".6" d="M708.04 185.89l8.08-.06-2.07 1.45z"/></g><g class="key-Costa-Rica_0"><circle cx="291" cy="374" r="1.11" fill="#4d824b" stroke="#ccc" opacity=".6"/><path stroke-linecap="round" stroke="#4d824b" fill="none" stroke-width=".43" opacity=".6" d="M291 374l-2 6 12 1 18-13-3 2 7-13-12-5 6 9 13-7-4-1 5 2 2-1 5 1 8-2 3-3 9-4 7-5h5l5-1 6-5 8-6 4-4 7-4 6-5v-3h2l8-1 12-6 3-3 3-2-1-3-5-3-12 4-2-5 5 9v-8l10 1-4 8v-3l5-3h2v-3l8-8 5-9 4-5 1-6-6-7 4-2 10-4v-5l-2-5v-12l1-4 1-6 4-4 3 1 4-6 7-3 5-10 5-10 3 9"/><path cx="489" cy="199" r="1.13" fill="#4d824b" stroke="#ccc" stroke-width=".2" opacity=".6" d="M487.9 192.13l1.46 7.94-1.79-1.78z"/></g><g class="key-Botswana_0"><circle cx="174" cy="460" r="1.11" fill="#5675c1" stroke="#ccc" opacity=".6"/><path stroke-linecap="round" stroke="#5675c1" fill="none" stroke-width=".42" opacity=".6" d="M174 460l-2-5 11-6h5l4-5v-1l9-4 26-12 22-14 15-5-6-5 2-10 4-8v-6l-1-6 2-2-3-4 11-9 5-6h18l26-3 16-7 7-4 7-8 11-2 29 1 6-3 6-4 5-5-1-4v-4l7-4h12l7 5 4 1 11-2 8-4-3-10 21-3-5-2 4 1 16-4 3-3 2-2-3-7h-12l11-2"/><path cx="491" cy="273" r="1.12" fill="#5675c1" stroke="#ccc" stroke-width=".2" opacity=".6" d="M484.03 273.13l8.07-.33-2 1.5z"/></g><g class="key-Mauritius_0"><circle cx="350" cy="336" r="1.11" fill="#5675c1" stroke="#ccc" opacity=".6"/><path stroke-linecap="round" stroke="#5675c1" fill="none" stroke-width=".41" opacity=".6" d="M350 336l6-34 6-10 4 11 4 6-7 8-2 2 37 4 4-1v-5l-12-2-2-7 3-4 2-7 1-6 19 14-4 5 12 19 29-9 1-9 6 5h11l11-3-1-2 9-4 9-3 7-7 16-7-2-5 2-2-2-4v-3l-5-4-1-10-3-8-1-14-7-6 8-2 13 1v-6l3-7 3-4"/><path cx="527" cy="216" r="1.11" fill="#5675c1" stroke="#ccc" stroke-width=".2" opacity=".6" d="M521.98 220.85l5.69-5.74-.45 2.44z"/></g><g fill="#333" class="backgroundLabels"><text x="460.97" y="341.42" font-size="14.26">China</text><text x="353.95" y="389.69" font-size="13.97">India</text><text x="615.67" y="123.46" font-size="11.75">United States</text><text x="426.91" y="301.06" font-size="11.58">Indonesia</text><text x="508.89" y="215.97" font-size="11.47">Brazil</text><text x="375" y="350" font-size="11.38">Nigeria</text><text x="642.6" y="177.03" font-size="11.31">Japan</text><text x="518" y="233" font-size="11.27">Mexico</text><text x="384.82" y="265.68" font-size="11.23">Philippines</text><text x="157.85" y="424.79" font-size="11.2">Ethiopia</text><text x="462.94" y="263.22" font-size="11.2">Egypt</text><text x="602.47" y="211.76" font-size="11.2">Germany</text><text x="499.85" y="312.79" font-size="11.17">Thailand</text><text x="644.95" y="156.29" font-size="11.15">France</text><text x="553.86" y="154.11" font-size="11.15">United Kingdom</text><text x="611.91" y="185.26" font-size="11.15">Italy</text><text x="627.54" y="197.46" font-size="11.11">Spain</text><text x="246.74" y="394.42" font-size="11.11">Tanzania</text><text x="279.79" y="338.56" font-size="11.1">Kenya</text><text x="553.99" y="179.93" font-size="11.1">Argentina</text><text x="458.97" y="230.42" font-size="11.07">Peru</text><text x="285.29" y="301.24" font-size="11.06">Ghana</text><text x="652" y="232" font-size="11.05">Taiwan</text><text x="605.12" y="138.23" font-size="11.04">Netherlands</text><text x="109.97" y="379.05" font-size="11.03">Malawi</text><text x="297.93" y="405.18" font-size="11.03">Zambia</text><text x="366.54" y="237.46" font-size="11.02">Bolivia</text><text x="495.92" y="272.11" font-size="11">Botswana</text></g></g><g class="ScatterColorLegend clickable" cursor="pointer"><g class="legendMark">,<path fill="#5675c1" d="M735 110.6h6v6h-6z"/>,<text font-size="12.6" x="746" y="117.7"><tspan x="746" y="117.68">Africa</tspan></text></g><g class="legendMark">,<path fill="#d14e5b" d="M735 128.2h6v6h-6z"/>,<text font-size="12.6" x="746" y="135.3"><tspan x="746" y="135.28">Asia</tspan></text></g><g class="legendMark">,<path fill="#ffd336" d="M735 145.8h6v6h-6z"/>,<text font-size="12.6" x="746" y="152.9"><tspan x="746" y="152.88">Europe</tspan></text></g><g class="legendMark">,<path fill="#4d824b" d="M735 163.4h6v6h-6z"/>,<text font-size="12.6" x="746" y="170.5"><tspan x="746" y="170.48">North America</tspan></text></g><g class="legendMark">,<path fill="#69c487" d="M735 181h6v6h-6z"/>,<text font-size="12.6" x="746" y="188.1"><tspan x="746" y="188.08">South America</tspan></text></g></g><path stroke="#ccc" d="M735 197.6h95"/><g class="clickable"><g class="ConnectedScatterLegend"><text font-size="12.6" x="735" y="216.7" fill="#333"><tspan x="735" y="216.68">1801</tspan></text><text font-size="12.6" x="806.8" y="216.7" fill="#333"><tspan x="806.78" y="216.68">2010</tspan></text><path stroke="#666" stroke-width="1" d="M768.22 212.4h33.56"/><circle cx="768.22" cy="212.4" r="2" fill="#666" stroke="#ccc" stroke-width=".2"/><circle cx="779.41" cy="212.4" r="2" fill="#666" stroke="#ccc" stroke-width=".2"/><circle cx="790.59" cy="212.4" r="2" fill="#666" stroke="#ccc" stroke-width=".2"/><path cx="801.78" cy="212.4" r="3" fill="#666" stroke="#ccc" stroke-width=".2" d="M796.78 209.4l8 3-6 3z"/></g></g></g><g class="SourcesFooter" fill="#777"><g class="clickable" fill="#777"><text font-size="12.6" x="15" y="567"><tspan x="15" y="566.98">Source: Our World In Data based on Herrendorf et al. (2014) and GGDC-10 (2015), Maddison Project Database (2018)</tspan></text></g><text font-size="12.6" x="15" y="582.5"><tspan x="15" y="582.48"><a target="_blank" href="http://ourworldindata.org" fill="#777">OurWorldInData.org</a> • <a class="cclogo" href="http://creativecommons.org/licenses/by-sa/4.0/deed.en_US" target="_blank" fill="#777">CC BY-SA</a></tspan></text></g></g></svg>