<svg xmlns="http://www.w3.org/2000/svg" version="1.1" style="background-color:#fff;-webkit-font-smoothing:antialiased" width="850" height="600" font-family="'Helvetica Neue',Helvetica,Arial,sans-serif" font-size="18" text-rendering="optimizeLegibility"><g class="ChartTab"><g class="HeaderView"><g opacity=".8" transform="matrix(.31 0 0 .31 770 15)"><a xmlns:xlink="http://www.w3.org/1999/xlink" xlink:href="https://ourworldindata.org" target="_blank"><g><path fill="#1B2543" d="M0 0h211.2v130.1H0z"/><path fill="#E63912" d="M0 112.2h211.2v17.9H0z"/><g><path fill="none" d="M1.2 12.3h210.2v99.2H1.2z"/><path fill="#FFF" d="M37.8 32.2c0 12.7-7.7 19.4-17.1 19.4-9.7 0-16.6-7.5-16.6-18.7 0-11.7 7.3-19.3 17.1-19.3 10.1.1 16.6 7.7 16.6 18.6zm-28.6.6c0 7.9 4.3 14.9 11.8 14.9 7.5 0 11.8-6.9 11.8-15.3 0-7.3-3.8-14.9-11.8-14.9-7.9 0-11.8 7.3-11.8 15.3zM62.7 43.8c0 2.7.1 5.1.2 7.2h-4.3l-.3-4.3h-.1c-1.3 2.1-4 4.9-8.8 4.9-4.2 0-9.1-2.3-9.1-11.6V24.6h4.8v14.6c0 5 1.5 8.4 5.9 8.4 3.2 0 5.5-2.2 6.3-4.4.3-.7.4-1.6.4-2.5V24.6h4.8v19.2zM67.3 32.8c0-3.1-.1-5.8-.2-8.2h4.2l.2 5.2h.2c1.2-3.5 4.1-5.8 7.3-5.8.5 0 .9.1 1.4.2v4.5c-.5-.1-1-.2-1.6-.2-3.4 0-5.8 2.6-6.5 6.2-.1.7-.2 1.4-.2 2.2V51h-4.8V32.8zM95.4 51L86 14.2h5l4.4 18.6c1.1 4.6 2.1 9.2 2.7 12.7h.1c.6-3.7 1.8-8 3-12.8l4.9-18.5h5l4.5 18.7c1 4.4 2 8.7 2.6 12.6h.1c.8-4 1.8-8.1 3-12.7l4.9-18.5h4.9L120.6 51h-5L111 31.9c-1.1-4.7-1.9-8.3-2.4-12h-.1c-.7 3.7-1.5 7.3-2.8 12L100.4 51h-5zM154.9 37.6c0 9.8-6.8 14-13.2 14-7.2 0-12.7-5.2-12.7-13.6 0-8.8 5.8-14 13.1-14 7.7 0 12.8 5.5 12.8 13.6zm-21 .3c0 5.8 3.3 10.1 8 10.1 4.6 0 8-4.3 8-10.3 0-4.5-2.2-10.1-7.9-10.1s-8.1 5.2-8.1 10.3zM158.2 32.8c0-3.1-.1-5.8-.2-8.2h4.2l.2 5.2h.2c1.2-3.5 4.1-5.8 7.3-5.8.5 0 .9.1 1.4.2v4.5c-.5-.1-1-.2-1.6-.2-3.4 0-5.8 2.6-6.5 6.2-.1.7-.2 1.4-.2 2.2V51h-4.8V32.8zM173.5 12.3h4.8V51h-4.8V12.3zM206.5 12.3v31.9c0 2.3.1 5 .2 6.8h-4.3l-.2-4.6h-.2c-1.5 2.9-4.7 5.2-9 5.2-6.4 0-11.3-5.4-11.3-13.4-.1-8.8 5.4-14.2 11.9-14.2 4 0 6.8 1.9 8 4h.1V12.3h4.8zm-4.8 23.1c0-.6-.1-1.4-.2-2a7 7 0 00-6.9-5.6c-5 0-7.9 4.4-7.9 10.2 0 5.3 2.6 9.8 7.8 9.8 3.2 0 6.2-2.1 7.1-5.7.2-.7.2-1.3.2-2.1v-4.6zM42.8 64c.1 1.6-1.1 2.9-3.1 2.9-1.7 0-2.9-1.3-2.9-2.9 0-1.7 1.3-3 3-3 1.9 0 3 1.3 3 3zm-5.4 33.8V71.4h4.8v26.4h-4.8zM47.5 78.6c0-2.7-.1-5-.2-7.1h4.3l.3 4.4h.1c1.3-2.5 4.4-5 8.8-5 3.7 0 9.4 2.2 9.4 11.2v15.8h-4.8V82.6c0-4.3-1.6-7.8-6.1-7.8-3.2 0-5.6 2.2-6.5 4.9-.2.6-.3 1.4-.3 2.2v15.9h-4.8V78.6zM84 61.6c2.9-.4 6.3-.8 10.1-.8 6.8 0 11.7 1.6 14.9 4.6 3.3 3 5.2 7.3 5.2 13.2 0 6-1.9 10.9-5.3 14.3-3.4 3.4-9.1 5.3-16.3 5.3-3.4 0-6.2-.2-8.6-.4V61.6zm4.8 32.5c1.2.2 3 .3 4.8.3 10.2 0 15.7-5.7 15.7-15.6.1-8.7-4.9-14.2-14.9-14.2-2.5 0-4.3.2-5.6.5v29zM132.1 97.8l-.4-3.3h-.2a9.79 9.79 0 01-8.1 3.9c-5.4 0-8.1-3.8-8.1-7.6 0-6.4 5.7-9.9 15.9-9.8v-.5c0-2.2-.6-6.1-6-6.1-2.5 0-5 .8-6.9 2l-1.1-3.2c2.2-1.4 5.4-2.3 8.7-2.3 8.1 0 10.1 5.5 10.1 10.8v9.9c0 2.3.1 4.5.4 6.3h-4.3zm-.7-13.4c-5.3-.1-11.2.8-11.2 5.9 0 3.1 2.1 4.6 4.5 4.6 3.4 0 5.6-2.2 6.4-4.4.2-.5.3-1 .3-1.5v-4.6zM146.6 63.9v7.6h6.9v3.7h-6.9v14.2c0 3.3.9 5.1 3.6 5.1 1.3 0 2.2-.2 2.8-.3l.2 3.6c-.9.4-2.4.7-4.3.7-2.2 0-4-.7-5.2-2-1.4-1.4-1.9-3.8-1.9-6.9V75.1h-4.1v-3.7h4.1v-6.3l4.8-1.2zM171.4 97.8l-.4-3.3h-.2a9.79 9.79 0 01-8.1 3.9c-5.4 0-8.1-3.8-8.1-7.6 0-6.4 5.7-9.9 15.9-9.8v-.5c0-2.2-.6-6.1-6-6.1-2.5 0-5 .8-6.9 2l-1.1-3.2c2.2-1.4 5.4-2.3 8.7-2.3 8.1 0 10.1 5.5 10.1 10.8v9.9c0 2.3.1 4.5.4 6.3h-4.3zm-.7-13.4c-5.3-.1-11.2.8-11.2 5.9 0 3.1 2.1 4.6 4.5 4.6 3.4 0 5.6-2.2 6.4-4.4.2-.5.3-1 .3-1.5v-4.6z"/></g></g></a></g><a href="https://ourworldindata.org/grapher/gdp-vs-happiness" target="_blank"><text font-size="26.1" x="15" y="35.9" fill="#555"><tspan x="15" y="35.88">GDP per capita vs Self-reported Life Satisfaction, 2014</tspan></text></a><text font-size="14.4" x="15" y="54.6" fill="#666"><tspan x="15" y="54.62">Vertical axis shows national average self-reported life satisfaction in the Cantril Ladder (a scale ranging from 0-10</tspan><tspan x="15" y="70.46">where 10 is the highest possible life satisfaction). Horizontal axis shows GDP per capita based on purchasing power</tspan><tspan x="15" y="86.3">parity (i.e. GDP per head after adjusting for inflation and cross-country price differences).</tspan></text></g><g><g class="AxisBoxView"><g class="HorizontalAxis"><text font-size="12.6" x="239.1" y="554"><tspan x="239.13" y="553.98">GDP per capita, PPP (in constant 2011 int-$)</tspan></text><text x="51.7" y="533.9" fill="#666" text-anchor="middle" font-size="16.2">$500</text><text x="135.5" y="533.9" fill="#666" text-anchor="middle" font-size="16.2">$1,000</text><text x="413.8" y="533.9" fill="#666" text-anchor="middle" font-size="16.2">$10,000</text><text x="692.1" y="533.9" fill="#666" text-anchor="middle" font-size="16.2">$100,000</text></g><g class="VerticalAxis"><text font-size="12.6" x="-445.3" y="25.1" transform="rotate(-90)"><tspan x="-445.33" y="25.08">Life satisfaction (country average; 0-10)</tspan></text><text x="46.67" y="512.7" fill="#666" dominant-baseline="middle" text-anchor="end" font-size="16.2">2</text><text x="46.67" y="439.3" fill="#666" dominant-baseline="middle" text-anchor="end" font-size="16.2">3</text><text x="46.67" y="365.9" fill="#666" dominant-baseline="middle" text-anchor="end" font-size="16.2">4</text><text x="46.67" y="292.5" fill="#666" dominant-baseline="middle" text-anchor="end" font-size="16.2">5</text><text x="46.67" y="219.1" fill="#666" dominant-baseline="middle" text-anchor="end" font-size="16.2">6</text><text x="46.67" y="145.7" fill="#666" dominant-baseline="middle" text-anchor="end" font-size="16.2">7</text></g><g class="AxisGridLines" stroke="#ddd" stroke-dasharray="3,2"><path d="M51.67 512.7H715M51.67 439.3H715M51.67 365.9H715M51.67 292.5H715M51.67 219.1H715M51.67 145.7H715"/></g><g class="AxisGridLines" stroke="#ddd" stroke-dasharray="3,2"><path d="M135.5 512.7V108.5M413.8 512.7V108.5M692.1 512.7V108.5"/></g></g><g clip-path="url(#a)" class="PointsWithLabels clickable"><path fill="rgba(255,255,255,0)" d="M51.67 108.5H715v404.2H51.67z"/><defs><clipPath id="a"><path d="M41.67 98.5H725v424.2H41.67z"/></clipPath></defs><circle cx="443" cy="278" r="17.84" fill="#d14e5b" opacity=".8"/><circle cx="339" cy="334" r="17.29" fill="#d14e5b" opacity=".8"/><circle cx="612" cy="134" r="8.77" fill="#4d824b" opacity=".8"/><circle cx="413" cy="248" r="7.77" fill="#d14e5b" opacity=".8"/><circle cx="465" cy="147" r="7.04" fill="#69c487" opacity=".8"/><circle cx="319" cy="260" r="6.75" fill="#d14e5b" opacity=".8"/><circle cx="345" cy="297" r="6.54" fill="#5675c1" opacity=".8"/><circle cx="267" cy="319" r="6.24" fill="#d14e5b" opacity=".8"/><circle cx="524" cy="216" r="6.01" fill="#ffd336" opacity=".8"/><circle cx="573" cy="224" r="5.69" fill="#d14e5b" opacity=".8"/><circle cx="474" cy="169" r="5.51" fill="#4d824b" opacity=".8"/><circle cx="363" cy="269" r="5.09" fill="#d14e5b" opacity=".8"/><circle cx="338" cy="286" r="4.91" fill="#d14e5b" opacity=".8"/><circle cx="178" cy="328" r="4.86" fill="#5675c1" opacity=".8"/><circle cx="412" cy="301" r="4.79" fill="#5675c1" opacity=".8"/><circle cx="591" cy="146" r="4.7" fill="#ffd336" opacity=".8"/><circle cx="473" cy="315" r="4.56" fill="#d14e5b" opacity=".8"/><circle cx="511" cy="250" r="4.54" fill="#d14e5b" opacity=".8"/><circle cx="96" cy="335" r="4.44" fill="#5675c1" opacity=".8"/><circle cx="461" cy="146" r="4.41" fill="#d14e5b" opacity=".8"/><circle cx="573" cy="184" r="4.23" fill="#ffd336" opacity=".8"/><circle cx="575" cy="163" r="4.22" fill="#ffd336" opacity=".8"/><circle cx="561" cy="217" r="4.16" fill="#ffd336" opacity=".8"/><circle cx="440" cy="305" r="3.87" fill="#5675c1" opacity=".8"/><circle cx="241" cy="403" r="3.81" fill="#5675c1" opacity=".8"/><circle cx="324" cy="308" r="3.81" fill="#d14e5b" opacity=".8"/><circle cx="559" cy="233" r="3.8" fill="#d14e5b" opacity=".8"/><circle cx="442" cy="186" r="3.78" fill="#69c487" opacity=".8"/><circle cx="551" cy="185" r="3.75" fill="#ffd336" opacity=".8"/><circle cx="390" cy="344" r="3.67" fill="#ffd336" opacity=".8"/><circle cx="257" cy="299" r="3.65" fill="#5675c1" opacity=".8"/><circle cx="490" cy="169" r="3.57" fill="#69c487" opacity=".8"/><circle cx="521" cy="237" r="3.46" fill="#ffd336" opacity=".8"/><circle cx="449" cy="193" r="3.42" fill="#5675c1" opacity=".8"/><circle cx="197" cy="382" r="3.41" fill="#5675c1" opacity=".8"/><circle cx="308" cy="355" r="3.38" fill="#5675c1" opacity=".8"/><circle cx="589" cy="123" r="3.35" fill="#4d824b" opacity=".8"/><circle cx="460" cy="326" r="3.34" fill="#d14e5b" opacity=".8"/><circle cx="205" cy="429" r="3.33" fill="#d14e5b" opacity=".8"/><circle cx="371" cy="280" r="3.28" fill="#5675c1" opacity=".8"/><circle cx="234" cy="294" r="3.23" fill="#d14e5b" opacity=".8"/><circle cx="482" cy="209" r="3.19" fill="#69c487" opacity=".8"/><circle cx="431" cy="229" r="3.18" fill="#69c487" opacity=".8"/><circle cx="520" cy="221" r="3.17" fill="#d14e5b" opacity=".8"/><circle cx="608" cy="198" r="3.15" fill="#d14e5b" opacity=".8"/><circle cx="338" cy="215" r="3.11" fill="#d14e5b" opacity=".8"/><circle cx="299" cy="376" r="3.03" fill="#5675c1" opacity=".8"/><circle cx="144" cy="325" r="2.99" fill="#5675c1" opacity=".8"/><circle cx="591" cy="124" r="2.92" fill="#a652ba" opacity=".8"/><circle cx="173" cy="389" r="2.89" fill="#5675c1" opacity=".8"/><circle cx="421" cy="346" r="2.84" fill="#d14e5b" opacity=".8"/><circle cx="495" cy="239" r="2.84" fill="#ffd336" opacity=".8"/><circle cx="270" cy="397" r="2.83" fill="#5675c1" opacity=".8"/><circle cx="264" cy="348" r="2.82" fill="#5675c1" opacity=".8"/><circle cx="357" cy="381" r="2.81" fill="#5675c1" opacity=".8"/><circle cx="187" cy="404" r="2.7" fill="#5675c1" opacity=".8"/><circle cx="510" cy="157" r="2.68" fill="#69c487" opacity=".8"/><circle cx="122" cy="352" r="2.67" fill="#5675c1" opacity=".8"/><circle cx="210" cy="367" r="2.65" fill="#5675c1" opacity=".8"/><circle cx="597" cy="122" r="2.65" fill="#ffd336" opacity=".8"/><circle cx="517" cy="221" r="2.64" fill="#d14e5b" opacity=".8"/><circle cx="145" cy="324" r="2.63" fill="#5675c1" opacity=".8"/><circle cx="373" cy="179" r="2.59" fill="#4d824b" opacity=".8"/><circle cx="424" cy="223" r="2.57" fill="#69c487" opacity=".8"/><circle cx="273" cy="374" r="2.55" fill="#d14e5b" opacity=".8"/><circle cx="291" cy="340" r="2.54" fill="#5675c1" opacity=".8"/><circle cx="231" cy="336" r="2.5" fill="#5675c1" opacity=".8"/><circle cx="213" cy="352" r="2.49" fill="#5675c1" opacity=".8"/><circle cx="223" cy="405" r="2.44" fill="#5675c1" opacity=".8"/><circle cx="193" cy="395" r="2.41" fill="#5675c1" opacity=".8"/><circle cx="519" cy="310" r="2.4" fill="#ffd336" opacity=".8"/><circle cx="218" cy="378" r="2.38" fill="#5675c1" opacity=".8"/><circle cx="585" cy="156" r="2.37" fill="#ffd336" opacity=".8"/><circle cx="422" cy="309" r="2.37" fill="#5675c1" opacity=".8"/><circle cx="158" cy="409" r="2.37" fill="#5675c1" opacity=".8"/><circle cx="529" cy="283" r="2.37" fill="#ffd336" opacity=".8"/><circle cx="543" cy="183" r="2.36" fill="#ffd336" opacity=".8"/><circle cx="358" cy="229" r="2.35" fill="#69c487" opacity=".8"/><circle cx="196" cy="374" r="2.35" fill="#4d824b" opacity=".8"/><circle cx="442" cy="264" r="2.35" fill="#4d824b" opacity=".8"/><circle cx="519" cy="279" r="2.33" fill="#ffd336" opacity=".8"/><circle cx="446" cy="284" r="2.32" fill="#ffd336" opacity=".8"/><circle cx="219" cy="413" r="2.31" fill="#5675c1" opacity=".8"/><circle cx="593" cy="128" r="2.31" fill="#ffd336" opacity=".8"/><circle cx="475" cy="274" r="2.31" fill="#d14e5b" opacity=".8"/><circle cx="484" cy="232" r="2.31" fill="#ffd336" opacity=".8"/><circle cx="109" cy="446" r="2.28" fill="#5675c1" opacity=".8"/><circle cx="593" cy="149" r="2.25" fill="#ffd336" opacity=".8"/><circle cx="638" cy="179" r="2.24" fill="#d14e5b" opacity=".8"/><circle cx="309" cy="288" r="2.23" fill="#4d824b" opacity=".8"/><circle cx="553" cy="116" r="2.22" fill="#d14e5b" opacity=".8"/><circle cx="623" cy="109" r="2.22" fill="#ffd336" opacity=".8"/><circle cx="472" cy="333" r="2.2" fill="#ffd336" opacity=".8"/><circle cx="614" cy="258" r="2.19" fill="#d14e5b" opacity=".8"/><circle cx="248" cy="300" r="2.19" fill="#d14e5b" opacity=".8"/><circle cx="394" cy="283" r="2.17" fill="#69c487" opacity=".8"/><circle cx="395" cy="268" r="2.15" fill="#d14e5b" opacity=".8"/><circle cx="427" cy="247" r="2.15" fill="#5675c1" opacity=".8"/><circle cx="333" cy="301" r="2.15" fill="#d14e5b" opacity=".8"/><circle cx="168" cy="451" r="2.15" fill="#5675c1" opacity=".8"/><circle cx="382" cy="229" r="2.14" fill="#4d824b" opacity=".8"/><circle cx="199" cy="329" r="2.14" fill="#5675c1" opacity=".8"/><circle cx="324" cy="198" r="2.13" fill="#4d824b" opacity=".8"/><circle cx="595" cy="108" r="2.1" fill="#ffd336" opacity=".8"/><circle cx="275" cy="274" r="2.1" fill="#d14e5b" opacity=".8"/><circle cx="534" cy="208" r="2.1" fill="#ffd336" opacity=".8"/><circle cx="578" cy="117" r="2.09" fill="#ffd336" opacity=".8"/><circle cx="665" cy="141" r="2.08" fill="#d14e5b" opacity=".8"/><circle cx="457" cy="234" r="2.08" fill="#d14e5b" opacity=".8"/><circle cx="636" cy="113" r="2.07" fill="#ffd336" opacity=".8"/><circle cx="457" cy="127" r="2.06" fill="#4d824b" opacity=".8"/><circle cx="74" cy="461" r="2.05" fill="#5675c1" opacity=".8"/><circle cx="605" cy="144" r="2.05" fill="#ffd336" opacity=".8"/><circle cx="563" cy="123" r="2.04" fill="#a652ba" opacity=".8"/><circle cx="498" cy="264" r="2.03" fill="#ffd336" opacity=".8"/><circle cx="109" cy="324" r="2.03" fill="#5675c1" opacity=".8"/><circle cx="342" cy="361" r="2.03" fill="#5675c1" opacity=".8"/><circle cx="450" cy="275" r="2.03" fill="#d14e5b" opacity=".8"/><circle cx="397" cy="344" r="2.03" fill="#d14e5b" opacity=".8"/><circle cx="419" cy="274" r="2" fill="#ffd336" opacity=".8"/><circle cx="292" cy="330" r="1.99" fill="#5675c1" opacity=".8"/><circle cx="496" cy="172" r="1.99" fill="#4d824b" opacity=".8"/><circle cx="324" cy="225" r="1.98" fill="#ffd336" opacity=".8"/><circle cx="496" cy="177" r="1.98" fill="#69c487" opacity=".8"/><circle cx="530" cy="209" r="1.97" fill="#ffd336" opacity=".8"/><circle cx="422" cy="306" r="1.97" fill="#ffd336" opacity=".8"/><circle cx="386" cy="332" r="1.96" fill="#d14e5b" opacity=".8"/><circle cx="650" cy="205" r="1.95" fill="#d14e5b" opacity=".8"/><circle cx="582" cy="156" r="1.95" fill="#d14e5b" opacity=".8"/><circle cx="429" cy="305" r="1.95" fill="#d14e5b" opacity=".8"/><circle cx="387" cy="269" r="1.94" fill="#4d824b" opacity=".8"/><circle cx="409" cy="323" r="1.92" fill="#5675c1" opacity=".8"/><circle cx="253" cy="380" r="1.91" fill="#5675c1" opacity=".8"/><circle cx="510" cy="239" r="1.91" fill="#ffd336" opacity=".8"/><circle cx="469" cy="363" r="1.9" fill="#5675c1" opacity=".8"/><circle cx="438" cy="277" r="1.9" fill="#ffd336" opacity=".8"/><circle cx="540" cy="242" r="1.9" fill="#ffd336" opacity=".8"/><circle cx="715" cy="191" r="1.89" fill="#d14e5b" opacity=".8"/><circle cx="475" cy="371" r="1.87" fill="#5675c1" opacity=".8"/><circle cx="594" cy="207" r="1.85" fill="#d14e5b" opacity=".8"/><circle cx="552" cy="206" r="1.85" fill="#4d824b" opacity=".8"/><circle cx="533" cy="251" r="1.85" fill="#ffd336" opacity=".8"/><circle cx="486" cy="245" r="1.85" fill="#5675c1" opacity=".8"/><circle cx="388" cy="302" r="1.85" fill="#5675c1" opacity=".8"/><circle cx="545" cy="246" r="1.84" fill="#ffd336" opacity=".8"/><circle cx="268" cy="338" r="1.83" fill="#5675c1" opacity=".8"/><circle cx="178" cy="369" r="1.82" fill="#5675c1" opacity=".8"/><circle cx="376" cy="297" r="1.82" fill="#d14e5b" opacity=".8"/><circle cx="461" cy="271" r="1.81" fill="#ffd336" opacity=".8"/><circle cx="465" cy="199" r="1.8" fill="#69c487" opacity=".8"/><circle cx="684" cy="153" r="1.8" fill="#ffd336" opacity=".8"/><circle cx="555" cy="186" r="1.79" fill="#ffd336" opacity=".8"/><circle cx="585" cy="109" r="1.79" fill="#ffd336" opacity=".8"/><circle cx="387" cy="222" r="1.79" fill="#4d824b" opacity=".8"/><circle cx="396" cy="292" r="1.77" fill="#ffd336" opacity=".8"/><circle cx="252" cy="312" r="1.77" fill="#d14e5b" opacity=".8"/><circle cx="295" cy="368" r="1.77" fill="#d14e5b" opacity=".8"/><text x="443" y="259.16" font-size="14.3" font-family="Arial Narrow, Arial, sans-serif" fill="#666">China</text><text x="339" y="315.71" font-size="14.1" font-family="Arial Narrow, Arial, sans-serif" fill="#666">India</text><text x="612" y="124.23" font-size="11.77" font-family="Arial Narrow, Arial, sans-serif" fill="#666">United States</text><text x="413" y="239.23" font-size="11.6" font-family="Arial Narrow, Arial, sans-serif" fill="#666">Indonesia</text><text x="465" y="138.96" font-size="11.49" font-family="Arial Narrow, Arial, sans-serif" fill="#666">Brazil</text><text x="319" y="252.25" font-size="11.44" font-family="Arial Narrow, Arial, sans-serif" fill="#666">Pakistan</text><text x="345" y="289.46" font-size="11.41" font-family="Arial Narrow, Arial, sans-serif" fill="#666">Nigeria</text><text x="267" y="311.76" font-size="11.37" font-family="Arial Narrow, Arial, sans-serif" fill="#666">Bangladesh</text><text x="524" y="208.99" font-size="11.35" font-family="Arial Narrow, Arial, sans-serif" fill="#666">Russia</text><text x="573" y="217.31" font-size="11.31" font-family="Arial Narrow, Arial, sans-serif" fill="#666">Japan</text><text x="474" y="162.49" font-size="11.28" font-family="Arial Narrow, Arial, sans-serif" fill="#666">Mexico</text><text x="178" y="322.14" font-size="11.21" font-family="Arial Narrow, Arial, sans-serif" fill="#666">Ethiopia</text><text x="412" y="295.21" font-size="11.21" font-family="Arial Narrow, Arial, sans-serif" fill="#666">Egypt</text><text x="591" y="140.3" font-size="11.2" font-family="Arial Narrow, Arial, sans-serif" fill="#666">Germany</text><text x="473" y="309.44" font-size="11.18" font-family="Arial Narrow, Arial, sans-serif" fill="#666">Iran</text><text x="511" y="244.46" font-size="11.18" font-family="Arial Narrow, Arial, sans-serif" fill="#666">Turkey</text><text x="573" y="178.77" font-size="11.15" font-family="Arial Narrow, Arial, sans-serif" fill="#666">France</text><text x="575" y="157.78" font-size="11.15" font-family="Arial Narrow, Arial, sans-serif" fill="#666">United Kingdom</text><text x="241" y="398.19" font-size="11.12" font-family="Arial Narrow, Arial, sans-serif" fill="#666">Tanzania</text><text x="442" y="181.22" font-size="11.12" font-family="Arial Narrow, Arial, sans-serif" fill="#666">Colombia</text><text x="390" y="339.33" font-size="11.11" font-family="Arial Narrow, Arial, sans-serif" fill="#666">Ukraine</text><text x="257" y="294.35" font-size="11.11" font-family="Arial Narrow, Arial, sans-serif" fill="#666">Kenya</text><text x="521" y="232.54" font-size="11.09" font-family="Arial Narrow, Arial, sans-serif" fill="#666">Poland</text><text x="197" y="377.59" font-size="11.09" font-family="Arial Narrow, Arial, sans-serif" fill="#666">Uganda</text><text x="308" y="350.62" font-size="11.09" font-family="Arial Narrow, Arial, sans-serif" fill="#666">Sudan</text><text x="460" y="321.66" font-size="11.08" font-family="Arial Narrow, Arial, sans-serif" fill="#666">Iraq</text><text x="205" y="424.67" font-size="11.08" font-family="Arial Narrow, Arial, sans-serif" fill="#666">Afghanistan</text><text x="371" y="275.72" font-size="11.08" font-family="Arial Narrow, Arial, sans-serif" fill="#666">Morocco</text><text x="431" y="224.82" font-size="11.07" font-family="Arial Narrow, Arial, sans-serif" fill="#666">Peru</text><text x="608" y="193.85" font-size="11.07" font-family="Arial Narrow, Arial, sans-serif" fill="#666">Saudi Arabia</text><text x="338" y="210.89" font-size="11.07" font-family="Arial Narrow, Arial, sans-serif" fill="#666">Uzbekistan</text><text x="299" y="371.97" font-size="11.06" font-family="Arial Narrow, Arial, sans-serif" fill="#666">Ghana</text><text x="357" y="377.19" font-size="11.05" font-family="Arial Narrow, Arial, sans-serif" fill="#666">Angola</text><text x="510" y="153.32" font-size="11.04" font-family="Arial Narrow, Arial, sans-serif" fill="#666">Chile</text><text x="122" y="348.33" font-size="11.04" font-family="Arial Narrow, Arial, sans-serif" fill="#666">Niger</text><text x="210" y="363.35" font-size="11.04" font-family="Arial Narrow, Arial, sans-serif" fill="#666">Mali</text><text x="373" y="175.41" font-size="11.04" font-family="Arial Narrow, Arial, sans-serif" fill="#666">Guatemala</text><text x="291" y="336.46" font-size="11.03" font-family="Arial Narrow, Arial, sans-serif" fill="#666">Zambia</text><text x="231" y="332.5" font-size="11.03" font-family="Arial Narrow, Arial, sans-serif" fill="#666">Senegal</text><text x="213" y="348.51" font-size="11.03" font-family="Arial Narrow, Arial, sans-serif" fill="#666">Zimbabwe</text><text x="193" y="391.59" font-size="11.03" font-family="Arial Narrow, Arial, sans-serif" fill="#666">Rwanda</text><text x="519" y="306.6" font-size="11.03" font-family="Arial Narrow, Arial, sans-serif" fill="#666">Greece</text><text x="158" y="405.63" font-size="11.03" font-family="Arial Narrow, Arial, sans-serif" fill="#666">Guinea</text><text x="529" y="279.63" font-size="11.03" font-family="Arial Narrow, Arial, sans-serif" fill="#666">Portugal</text><text x="358" y="225.65" font-size="11.02" font-family="Arial Narrow, Arial, sans-serif" fill="#666">Bolivia</text><text x="446" y="280.68" font-size="11.02" font-family="Arial Narrow, Arial, sans-serif" fill="#666">Serbia</text><text x="219" y="409.69" font-size="11.02" font-family="Arial Narrow, Arial, sans-serif" fill="#666">Benin</text><text x="109" y="442.72" font-size="11.02" font-family="Arial Narrow, Arial, sans-serif" fill="#666">Burundi</text><text x="553" y="119.52" font-size="11.02" font-family="Arial Narrow, Arial, sans-serif" fill="#666">Israel</text><text x="614" y="254.81" font-size="11.02" font-family="Arial Narrow, Arial, sans-serif" fill="#666">Hong Kong</text><text x="168" y="447.85" font-size="11.01" font-family="Arial Narrow, Arial, sans-serif" fill="#666">Togo</text><text x="324" y="194.87" font-size="11.01" font-family="Arial Narrow, Arial, sans-serif" fill="#666">Nicaragua</text><text x="275" y="270.9" font-size="11.01" font-family="Arial Narrow, Arial, sans-serif" fill="#666">Kyrgyzstan</text><text x="665" y="137.92" font-size="11.01" font-family="Arial Narrow, Arial, sans-serif" fill="#666">Singapore</text><text x="457" y="123.94" font-size="11.01" font-family="Arial Narrow, Arial, sans-serif" fill="#666">Costa Rica</text><text x="498" y="260.97" font-size="11.01" font-family="Arial Narrow, Arial, sans-serif" fill="#666">Croatia</text><text x="109" y="320.97" font-size="11.01" font-family="Arial Narrow, Arial, sans-serif" fill="#666">Liberia</text><text x="342" y="357.97" font-size="11.01" font-family="Arial Narrow, Arial, sans-serif" fill="#666">Congo</text><text x="496" y="174.02" font-size="11.01" font-family="Arial Narrow, Arial, sans-serif" fill="#666">Uruguay</text><text x="409" y="320.08" font-size="11.01" font-family="Arial Narrow, Arial, sans-serif" fill="#666">Namibia</text><text x="253" y="377.09" font-size="11" font-family="Arial Narrow, Arial, sans-serif" fill="#666">Lesotho</text><text x="469" y="360.1" font-size="11" font-family="Arial Narrow, Arial, sans-serif" fill="#666">Botswana</text><text x="687.38" y="188.11" font-size="11" font-family="Arial Narrow, Arial, sans-serif" fill="#666">Qatar</text><text x="465" y="196.2" font-size="11" font-family="Arial Narrow, Arial, sans-serif" fill="#666">Suriname</text></g><g class="ScatterColorLegend clickable" cursor="pointer"><g class="legendMark">,<path fill="#5675c1" d="M735 111.5h6v6h-6z"/>,<text font-size="12.6" x="746" y="118.6"><tspan x="746" y="118.58">Africa</tspan></text></g><g class="legendMark">,<path fill="#d14e5b" d="M735 129.1h6v6h-6z"/>,<text font-size="12.6" x="746" y="136.2"><tspan x="746" y="136.18">Asia</tspan></text></g><g class="legendMark">,<path fill="#ffd336" d="M735 146.7h6v6h-6z"/>,<text font-size="12.6" x="746" y="153.8"><tspan x="746" y="153.78">Europe</tspan></text></g><g class="legendMark">,<path fill="#4d824b" d="M735 164.3h6v6h-6z"/>,<text font-size="12.6" x="746" y="171.4"><tspan x="746" y="171.38">North America</tspan></text></g><g class="legendMark">,<path fill="#a652ba" d="M735 181.9h6v6h-6z"/>,<text font-size="12.6" x="746" y="189"><tspan x="746" y="188.98">Oceania</tspan></text></g><g class="legendMark">,<path fill="#69c487" d="M735 199.5h6v6h-6z"/>,<text font-size="12.6" x="746" y="206.6"><tspan x="746" y="206.58">South America</tspan></text></g></g></g><g class="SourcesFooter" fill="#777"><g class="clickable" fill="#777"><text font-size="12.6" x="15" y="581.6"><tspan x="15" y="581.58">Source: World Bank – WDI, World Happiness Report (2017)</tspan></text></g><text font-size="12.6" x="471.2" y="581.6"><tspan x="471.24" y="581.58"><a target="_blank" href="https://ourworldindata.org/happiness-and-life-satisfaction/" fill="#777">OurWorldInData.org/happiness-and-life-satisfaction/</a> • <a href="http://creativecommons.org/licenses/by-sa/4.0/deed.en_US" target="_blank" fill="#777">CC BY-SA</a></tspan></text></g></g></svg>