<svg xmlns="http://www.w3.org/2000/svg" version="1.1" style="background-color:#fff;-webkit-font-smoothing:antialiased" width="850" height="600" font-family="'Helvetica Neue',Helvetica,Arial,sans-serif" font-size="18" text-rendering="optimizeLegibility"><g class="ChartTab"><g class="HeaderView"><g opacity=".8" transform="matrix(.31 0 0 .31 770 15)"><a xmlns:xlink="http://www.w3.org/1999/xlink" xlink:href="https://ourworldindata.org" target="_blank"><g><path fill="#1B2543" d="M0 0h211.2v130.1H0z"/><path fill="#E63912" d="M0 112.2h211.2v17.9H0z"/><g><path fill="none" d="M1.2 12.3h210.2v99.2H1.2z"/><path fill="#FFF" d="M37.8 32.2c0 12.7-7.7 19.4-17.1 19.4-9.7 0-16.6-7.5-16.6-18.7 0-11.7 7.3-19.3 17.1-19.3 10.1.1 16.6 7.7 16.6 18.6zm-28.6.6c0 7.9 4.3 14.9 11.8 14.9 7.5 0 11.8-6.9 11.8-15.3 0-7.3-3.8-14.9-11.8-14.9-7.9 0-11.8 7.3-11.8 15.3zM62.7 43.8c0 2.7.1 5.1.2 7.2h-4.3l-.3-4.3h-.1c-1.3 2.1-4 4.9-8.8 4.9-4.2 0-9.1-2.3-9.1-11.6V24.6h4.8v14.6c0 5 1.5 8.4 5.9 8.4 3.2 0 5.5-2.2 6.3-4.4.3-.7.4-1.6.4-2.5V24.6h4.8v19.2zM67.3 32.8c0-3.1-.1-5.8-.2-8.2h4.2l.2 5.2h.2c1.2-3.5 4.1-5.8 7.3-5.8.5 0 .9.1 1.4.2v4.5c-.5-.1-1-.2-1.6-.2-3.4 0-5.8 2.6-6.5 6.2-.1.7-.2 1.4-.2 2.2V51h-4.8V32.8zM95.4 51L86 14.2h5l4.4 18.6c1.1 4.6 2.1 9.2 2.7 12.7h.1c.6-3.7 1.8-8 3-12.8l4.9-18.5h5l4.5 18.7c1 4.4 2 8.7 2.6 12.6h.1c.8-4 1.8-8.1 3-12.7l4.9-18.5h4.9L120.6 51h-5L111 31.9c-1.1-4.7-1.9-8.3-2.4-12h-.1c-.7 3.7-1.5 7.3-2.8 12L100.4 51h-5zM154.9 37.6c0 9.8-6.8 14-13.2 14-7.2 0-12.7-5.2-12.7-13.6 0-8.8 5.8-14 13.1-14 7.7 0 12.8 5.5 12.8 13.6zm-21 .3c0 5.8 3.3 10.1 8 10.1 4.6 0 8-4.3 8-10.3 0-4.5-2.2-10.1-7.9-10.1s-8.1 5.2-8.1 10.3zM158.2 32.8c0-3.1-.1-5.8-.2-8.2h4.2l.2 5.2h.2c1.2-3.5 4.1-5.8 7.3-5.8.5 0 .9.1 1.4.2v4.5c-.5-.1-1-.2-1.6-.2-3.4 0-5.8 2.6-6.5 6.2-.1.7-.2 1.4-.2 2.2V51h-4.8V32.8zM173.5 12.3h4.8V51h-4.8V12.3zM206.5 12.3v31.9c0 2.3.1 5 .2 6.8h-4.3l-.2-4.6h-.2c-1.5 2.9-4.7 5.2-9 5.2-6.4 0-11.3-5.4-11.3-13.4-.1-8.8 5.4-14.2 11.9-14.2 4 0 6.8 1.9 8 4h.1V12.3h4.8zm-4.8 23.1c0-.6-.1-1.4-.2-2a7 7 0 00-6.9-5.6c-5 0-7.9 4.4-7.9 10.2 0 5.3 2.6 9.8 7.8 9.8 3.2 0 6.2-2.1 7.1-5.7.2-.7.2-1.3.2-2.1v-4.6zM42.8 64c.1 1.6-1.1 2.9-3.1 2.9-1.7 0-2.9-1.3-2.9-2.9 0-1.7 1.3-3 3-3 1.9 0 3 1.3 3 3zm-5.4 33.8V71.4h4.8v26.4h-4.8zM47.5 78.6c0-2.7-.1-5-.2-7.1h4.3l.3 4.4h.1c1.3-2.5 4.4-5 8.8-5 3.7 0 9.4 2.2 9.4 11.2v15.8h-4.8V82.6c0-4.3-1.6-7.8-6.1-7.8-3.2 0-5.6 2.2-6.5 4.9-.2.6-.3 1.4-.3 2.2v15.9h-4.8V78.6zM84 61.6c2.9-.4 6.3-.8 10.1-.8 6.8 0 11.7 1.6 14.9 4.6 3.3 3 5.2 7.3 5.2 13.2 0 6-1.9 10.9-5.3 14.3-3.4 3.4-9.1 5.3-16.3 5.3-3.4 0-6.2-.2-8.6-.4V61.6zm4.8 32.5c1.2.2 3 .3 4.8.3 10.2 0 15.7-5.7 15.7-15.6.1-8.7-4.9-14.2-14.9-14.2-2.5 0-4.3.2-5.6.5v29zM132.1 97.8l-.4-3.3h-.2a9.79 9.79 0 01-8.1 3.9c-5.4 0-8.1-3.8-8.1-7.6 0-6.4 5.7-9.9 15.9-9.8v-.5c0-2.2-.6-6.1-6-6.1-2.5 0-5 .8-6.9 2l-1.1-3.2c2.2-1.4 5.4-2.3 8.7-2.3 8.1 0 10.1 5.5 10.1 10.8v9.9c0 2.3.1 4.5.4 6.3h-4.3zm-.7-13.4c-5.3-.1-11.2.8-11.2 5.9 0 3.1 2.1 4.6 4.5 4.6 3.4 0 5.6-2.2 6.4-4.4.2-.5.3-1 .3-1.5v-4.6zM146.6 63.9v7.6h6.9v3.7h-6.9v14.2c0 3.3.9 5.1 3.6 5.1 1.3 0 2.2-.2 2.8-.3l.2 3.6c-.9.4-2.4.7-4.3.7-2.2 0-4-.7-5.2-2-1.4-1.4-1.9-3.8-1.9-6.9V75.1h-4.1v-3.7h4.1v-6.3l4.8-1.2zM171.4 97.8l-.4-3.3h-.2a9.79 9.79 0 01-8.1 3.9c-5.4 0-8.1-3.8-8.1-7.6 0-6.4 5.7-9.9 15.9-9.8v-.5c0-2.2-.6-6.1-6-6.1-2.5 0-5 .8-6.9 2l-1.1-3.2c2.2-1.4 5.4-2.3 8.7-2.3 8.1 0 10.1 5.5 10.1 10.8v9.9c0 2.3.1 4.5.4 6.3h-4.3zm-.7-13.4c-5.3-.1-11.2.8-11.2 5.9 0 3.1 2.1 4.6 4.5 4.6 3.4 0 5.6-2.2 6.4-4.4.2-.5.3-1 .3-1.5v-4.6z"/></g></g></a></g><a href="https://ourworldindata.org/grapher/GDP-vs-agriculture-employment" target="_blank"><text font-size="24.3" x="15" y="34.4" fill="#555"><tspan x="15" y="34.44">GDP per head vs share of agriculture in employment, 1801 to 2010</tspan></text></a><text font-size="14.4" x="15" y="52.8" fill="#666"><tspan x="15" y="52.82">The vertical axis shows historical estimates of the employment share in the agriculture sector. The horizontal axis</tspan><tspan x="15" y="68.66">shows GDP per head after adjusting for inflation (figures are in 1990 international Geary–Khamis dollars.)</tspan></text></g><g><g class="AxisBoxView"><g class="HorizontalAxis"><text font-size="12.6" x="201.5" y="539.4"><tspan x="201.51" y="539.38">GDP per capita in 1990 Int. GK$ (Maddison-Project 2013)</tspan></text><text x="201.9" y="519.3" fill="#666" text-anchor="middle" font-size="16.2">1,000</text><text x="543.9" y="519.3" fill="#666" text-anchor="middle" font-size="16.2">10,000</text></g><g class="VerticalAxis"><text font-size="12.6" x="-414.6" y="25.1" transform="rotate(-90)"><tspan x="-414.58" y="25.08">Share of agriculture in employment</tspan></text><text x="70.16" y="498.1" fill="#666" dominant-baseline="middle" text-anchor="end" font-size="16.2">0%</text><text x="70.16" y="413.5" fill="#666" dominant-baseline="middle" text-anchor="end" font-size="16.2">20%</text><text x="70.16" y="328.9" fill="#666" dominant-baseline="middle" text-anchor="end" font-size="16.2">40%</text><text x="70.16" y="244.3" fill="#666" dominant-baseline="middle" text-anchor="end" font-size="16.2">60%</text><text x="70.16" y="159.7" fill="#666" dominant-baseline="middle" text-anchor="end" font-size="16.2">80%</text></g><g class="AxisGridLines"><path stroke="#ccc" d="M75.16 498.1H715"/><path stroke="#ddd" stroke-dasharray="3,2" d="M75.16 413.5H715M75.16 328.9H715M75.16 244.3H715M75.16 159.7H715"/></g><g class="AxisGridLines" stroke="#ddd" stroke-dasharray="3,2"><path d="M201.9 498.1V91.2M543.9 498.1V91.2"/></g></g><g clip-path="url(#a)" class="PointsWithLabels clickable"><path fill="rgba(255,255,255,0)" d="M75.16 91.2H715v406.9H75.16z"/><defs><clipPath id="a"><path d="M65.16 81.2H725v426.9H65.16z"/></clipPath></defs><g class="key-China_0"><circle cx="109" cy="144" r="1.74" fill="#d14e5b" stroke="#ccc" opacity=".6"/><path stroke-linecap="round" stroke="#d14e5b" fill="none" stroke-width="1.42" opacity=".6" d="M109 144l4 2h1l6-1 9 12 5-3 12 98v-16l-6-14-27-48v-24l10-1 13 1 13 3h9l-8-1h-7l8 1 13 3 3 5 1 3 7 1v2l6 4-3 6 7 6 13 16 9 3 3 5 7 3h10l8 4 16 13 13 7 7 6 12 4 8 2 1-2 2-1 8 2 12 5 12 9 12 9 20 9 1 7 6 3h-1l8-1h42l20 4 11 9 12 9 12 9 6 8 9 5 13 6 14 6"/><path cx="511" cy="342" r="2.12" fill="#d14e5b" stroke="#ccc" stroke-width=".2" opacity=".6" d="M506.42 337.74l6.52 5.1-4.72.27z"/></g><g class="key-India_0"><circle cx="159" cy="194" r="1.65" fill="#d14e5b" stroke="#ccc" opacity=".6"/><path stroke-linecap="round" stroke="#d14e5b" fill="none" stroke-width="1.37" opacity=".6" d="M159 194h1v2l4 2 8 2-9-3-2-2 9-2h0l6 1 4-1-2-1-4-1h4l-2-1 9 1-1 1h8l4 3-11-3 7-1 6 2 1 2 9 2 2 2 3 3 3 3 3 2 11 4 7 5 4 1v-3l5 2 6 4 6 8 8 6 8 1 4 2 7 2 7 4 3 3 6 3 3 9h10l9 1 10-4 11 1 11 7 7 5 10 3 10-5"/><path cx="382" cy="266" r="2.07" fill="#d14e5b" stroke="#ccc" stroke-width=".2" opacity=".6" d="M375.77 266.8l8.08-1.72-2.77 3.7z"/></g><g class="key-United-States_0"><circle cx="279" cy="231" r="1.17" fill="#4d824b" stroke="#ccc" opacity=".6"/><path stroke-linecap="round" stroke="#4d824b" fill="none" stroke-width=".84" opacity=".6" d="M279 231l14 35 28 8 13 2 39 5 10 36 28 11 28 37 17 23 32 30-15-2-13-7-22-7h-4l10 8 10 1 18 7 6 4h-7l10 4 10 5 23 7 26 6 24 6 11 2h-8l-36-4-5 1h3l-2 1 10 2 8 5 3 1 4 2-3-1 7 2v4h-4l9 2 1 1h1l6 2 4 2 7 2 7 1 8 3 2 1h5l3 2h-1 9l6 1h-3 6l5 1h7l3 1-2-1h3l-5 1h5l9 1 5 1h12l3 1h1-2 9l2-1 4 1h19v4h13l2 1h-9l3-1"/><path cx="709" cy="491" r="1.54" fill="#4d824b" stroke="#ccc" stroke-width=".2" opacity=".6" d="M702.39 491.58l8.08-1.07-2.45 2.44z"/></g><g class="key-Indonesia_0"><circle cx="208" cy="187" r="1.31" fill="#d14e5b" stroke="#ccc" opacity=".6"/><path stroke-linecap="round" stroke="#d14e5b" fill="none" stroke-width=".78" opacity=".6" d="M208 187l26 32 14 9 18-2v5l-3 9h10l7 8 4 3 4 3 9 6 5 5-8 1 1-1 7 3 1 1 6 3 5 5 6 3 11 4 7 2 11-22 8-9 7 18 9 19 9 9 9 7 4 15-23-14-1 11 5-5 3 3 4-3 5-10 5 11 7-4 6 10 7 5 7 3 5 3 7 5"/><path cx="432" cy="338" r="1.48" fill="#d14e5b" stroke="#ccc" stroke-width=".2" opacity=".6" d="M427.56 333l5.65 5.86-3.28-.52z"/></g><g class="key-Brazil_0"><circle cx="278" cy="225" r="1.25" fill="#69c487" stroke="#ccc" opacity=".6"/><path stroke-linecap="round" stroke="#69c487" fill="none" stroke-width=".74" opacity=".6" d="M278 225l2 3 5 2 2 2 6 2 6 3-3 2 8 2 8 2 8 3 7 3 7 3 4 5-3 3 1 5-2 4 5 4 2 4 8 5 8 4 10 4 11 5 11 4 14 7 7 8 4 7 10 7 3 2 4 9 6 6 9-9-10 22-3-1-8 10 4-11 9-6 8 22 2 6-3 4 2 3-9 1-1-2-3-3 5 2 6 2 4 3v6h3l-2 3-2-2 4 8v5l2 1h0l6-2 3 2 4 5 7 5 6 3-2 2 10 3"/><path cx="488" cy="427" r="1.44" fill="#69c487" stroke="#ccc" stroke-width=".2" opacity=".6" d="M482.13 423.74l7.25 3.67-3.17.55z"/></g><g class="key-Nigeria_0"><circle cx="172" cy="167" r="1.23" fill="#5675c1" stroke="#ccc" opacity=".6"/><path stroke-linecap="round" stroke="#5675c1" fill="none" stroke-width=".7" opacity=".6" d="M172 167l1 4 4 3 9 11 1 9 6 11-9 3-30-14-6 2 31 13 36 15 12-2 1 2 8 3h12l-9 17 11 15 1 13-14 2 6 4-2 15-17 17-6 10-13 2h-10l9-7-1-9-5-5 10-3 6-6 3-6-5-6-3-6v-6l-3-7-4-7 4-6v-10l-3-3 4-7 8-4h25l10-4 11 12 4 2 5 2 6 2 5 2h6l8 1"/><path cx="295" cy="241" r="1.4" fill="#5675c1" stroke="#ccc" stroke-width=".2" opacity=".6" d="M288.62 238.8l7.77 2.37-2.95 1.04z"/></g><g class="key-Japan_0"><circle cx="158" cy="139" r="1.21" fill="#d14e5b" stroke="#ccc" opacity=".6"/><path stroke-linecap="round" stroke="#d14e5b" fill="none" stroke-width=".66" opacity=".6" d="M158 139l22 11 23 25 23 27 15 29 39 37 13 16 65 16-60-6 38 26 6 8 11 2 9 7 9 8 7 8 12 7 17 5 15 6 12 7 10 8 15 7 7 6 14 4 14 5 16 3 16 2 13 5 5 6 10 4 9 5-4 2 3 1 4 2 5 1 7 1 6 2 3 4 4 2 3 1 3 2 4 1 6 1 3 2 6 1 8 2 6 2 7 1 4 2 1 1v2l1 1h2l4 2 2 1-4 1h0l3 2v2h6l2 1h2l3 1-1-1h-9l7 1"/><path cx="660" cy="477" r="1.36" fill="#d14e5b" stroke="#ccc" stroke-width=".2" opacity=".6" d="M653.62 474.72l7.72 2.47-2.88.96z"/></g><g class="key-Mexico_0"><circle cx="329" cy="250" r="1.19" fill="#4d824b" stroke="#ccc" opacity=".6"/><path stroke-linecap="round" stroke="#4d824b" fill="none" stroke-width=".64" opacity=".6" d="M329 250l7 4 2 6-4 1 10-1 7 2 6 8 6 3 3-2-1 5 7 2 1 3 2 4 6 6 10 4 5 5 4 4 4 5 6 4 4 4 5 4 1 2 8 8 8 3 5 12 4 2 3 10 1-5 8 6 10 12 8 5 9 4-4 5-10-6 2 3v1l-9 3v1h-1l3 5 5 7 3 4 3 4v1l4 2-12 1 5 2 7 7 5 2 4 2 7 5-2-2h-1l1-1 4 2 3 5 6 2 3 4v-1l-11-1h6"/><path cx="505" cy="437" r="1.34" fill="#4d824b" stroke="#ccc" stroke-width=".2" opacity=".6" d="M498.34 435.66l8 1.34-2.68 1.34z"/></g><g class="key-Philippines_0"><circle cx="289" cy="290" r="1.21" fill="#d14e5b" stroke="#ccc" opacity=".6"/><path stroke-linecap="round" stroke="#d14e5b" fill="none" stroke-width=".61" opacity=".6" d="M289 290l4-17 9-7 1 2 4 9 8-2 4 7h4l4 2 3 2 1 1 2-1h-1l-15 8-15 2 1-4 3 9 6 7 5 4h1-4l-2-1v-1l3 5 3 2 5 10 4 6-4 1 1 3 3 2 1 1 2 1 4 2 7 2 4 1h4l7 3 3-1-1 5 8 4"/><path cx="366" cy="357" r="1.31" fill="#d14e5b" stroke="#ccc" stroke-width=".2" opacity=".6" d="M360.6 352.84l6.57 4.75h-2.93z"/></g><g class="key-Ethiopia_0"><circle cx="84" cy="91" r="1.18" fill="#5675c1" stroke="#ccc" opacity=".6"/><path stroke-linecap="round" stroke="#5675c1" fill="none" stroke-width=".6" opacity=".6" d="M84 91l3 1 15 1 4 2 6 2 2 1 4 2-1 3 2 1 5 2 3 2 4 2 2 1-2 2h-3v1h1-4l7 3 5 3-4 1-4 1h3l-7 1-12-1 7-1 9 1h-2l-2-1-6-1-17-4H83l15 8 1 2 4 2 14 5 1 1-10-1 4 3 4 3h7l-2-1-8 1 12 2 14 4 12 7 12 6 11 8 10 6 7 8"/><path cx="191" cy="180" r="1.3" fill="#5675c1" stroke="#ccc" stroke-width=".2" opacity=".6" d="M187.56 174.1l4.3 6.88-2.69-1.1z"/></g><g class="key-Egypt_0"><circle cx="200" cy="265" r="1.19" fill="#5675c1" stroke="#ccc" opacity=".6"/><path stroke-linecap="round" stroke="#5675c1" fill="none" stroke-width=".59" opacity=".6" d="M200 265l6 14 6 3 6 5 6 2 6 3-2-13-6-9v3l7 2 6 6 3 1h1l1 10 2 2 12 9 18 4 14 2 6 4 7 1 10 3 1 5 10 4 7 2 4 3 5 1-1 1v6l3 4 1 5v4l-1-1 2-1 4 1 5 1 5 10 5 3 8 2 5 3h5l2 1h1l2 2 2 2 4 3 6 7 8 5 7 3 3 4 5 1"/><path cx="417" cy="398" r="1.29" fill="#5675c1" stroke="#ccc" stroke-width=".2" opacity=".6" d="M410.68 395.42l7.59 2.83-2.8.77z"/></g><g class="key-Germany_0"><circle cx="403" cy="482" r="1.27" fill="#ffd336" stroke="#ccc" opacity=".6"/><path stroke-linecap="round" stroke="#ffd336" fill="none" stroke-width=".59" opacity=".6" d="M403 482h12l12 1 11 1 10 1 14 1 10 1h13l9 1h11l4 1h8l8 1h30l4 1h28l6 1h2l-1-1h7l4 1 3-1 2 1h8-5l6 1"/><path cx="619" cy="493" r="1.29" fill="#ffd336" stroke="#ccc" stroke-width=".2" opacity=".6" d="M612.6 490.62l7.67 2.6-2.76.84z"/></g><g class="key-Thailand_0"><circle cx="213" cy="154" r="1.19" fill="#d14e5b" stroke="#ccc" opacity=".6"/><path stroke-linecap="round" stroke="#d14e5b" fill="none" stroke-width=".57" opacity=".6" d="M213 154l3 1 6 1 7 2 5 1 7 2 12 1 7 2 8 1 7 1 5 2 2 4 2 5 11 4 3 4 3 4 10 4 11 3 11-4 4 16h4l5 2 5 16 6-11 6-9 4 5 6 7 11 7 16-8 15 1 14 11 10 16 11-2 11 17 9 2 10 17 7 8-6-1-14-4 6 12 5-1 4 10h8l9 5 8 10 5-1 6 2 7 2 1-3-2 15 10 3"/><path cx="534" cy="336" r="1.27" fill="#d14e5b" stroke="#ccc" stroke-width=".2" opacity=".6" d="M527.92 332.85l7.3 3.52-2.8.48z"/></g><g class="key-France_0"><circle cx="279" cy="279" r="1.21" fill="#ffd336" stroke="#ccc" opacity=".6"/><path stroke-linecap="round" stroke="#ffd336" fill="none" stroke-width=".56" opacity=".6" d="M279 279l20 3 22 17 27 9 8 15 6-6 14 7-8-2 48 14v11h0l-14-2 63 41 47 27 35 18 16 9 6 3 5 3 6 4 4 2-2 2 6 2 4 2 4 1 4 1 1 2 1 1 3 1 1 1 1 1 2 1 3 1 3 1 5 2 5 1 3 2v1l2 1-2 1h3l2 1 1 1h7l4 1 4 1 2 1h6l2 1-2 1"/><path cx="657" cy="484" r="1.26" fill="#ffd336" stroke="#ccc" stroke-width=".2" opacity=".6" d="M663.59 482.12l-7.72 2.45 1.7-2.27z"/></g><g class="key-United-Kingdom_0"><circle cx="312" cy="367" r="1.15" fill="#ffd336" stroke="#ccc" opacity=".6"/><path stroke-linecap="round" stroke="#ffd336" fill="none" stroke-width=".56" opacity=".6" d="M312 367l22 41 1-5 24-19 21 20 10 13 16 14 17 12 9 5-6 13-3-3 6 1 4 2h5l7 1-6 1 11 1h1l4 1-2 1h-8 3l9 2 5 1 6 1 5 2 1 1 11 1h4l4 1-1 1 6 1h10l1 1h2-1 5l7 1 3 1h5l7 1 3 1 2 1h2l5 1h2l3 1h17l-2 1h0l3 1h12-2l-3-1h16l6 1h16-3 9l4 1h17l4 1 6 1h26-10 2"/><path cx="672" cy="490" r="1.26" fill="#ffd336" stroke="#ccc" stroke-width=".2" opacity=".6" d="M665.26 488.74l8 1.26-2.52 1.26z"/></g><g class="key-Italy_0"><circle cx="385" cy="298" r="1.23" fill="#ffd336" stroke="#ccc" opacity=".6"/><path stroke-linecap="round" stroke="#ffd336" fill="none" stroke-width=".56" opacity=".6" d="M385 298l6 6 10 6 4 6 9 7 6 6 8 9 7 4 9 3 9 7 11 8 8 8 8 10 5 6 5-1 8 5 10 3 9 8 9 6 8 7 2 1 4 6 9 3 7 4-4 4 10 1 3 4 4 1 8 2 5 3 1 3v4l2 1 4 3 4 3 5 2 4 2 6 3 5 2 3 2 2 1 1 1-2 2 3 1 4 1 1 2h3l2 1 2 2h7l1 1-1 2 1-1 1 1h4l-3 1-9 1 2-1"/><path cx="635" cy="481" r="1.26" fill="#ffd336" stroke="#ccc" stroke-width=".2" opacity=".6" d="M628.4 482.89l7.73-2.45-1.7 2.25z"/></g><g class="key-South-Africa_0"><circle cx="367" cy="291" r="1.17" fill="#5675c1" stroke="#ccc" opacity=".6"/><path stroke-linecap="round" stroke="#5675c1" fill="none" stroke-width=".54" opacity=".6" d="M367 291l2 6 4 5 7 6 5 7 5 7 2 5 6 6 2 6 5 6 4 6 3 2-1 2 3 3 4 3-1 3v4l-4 4 1 5 2 5 5 6h3l-5 1h-8l3 2h-6l-4 1-1 4 3 4v4l-5 3-5 3h-6l-1 1h2l3 1 4 1 2 1-2 2 2 1 4 2 3 6 3-14 3 13 5 5 6 8 7-5 7 8 4-2h-3l4-4"/><path cx="443" cy="434" r="1.24" fill="#5675c1" stroke="#ccc" stroke-width=".2" opacity=".6" d="M437.34 437.9l6.54-4.78-.88 2.63z"/></g><g class="key-South-Korea_0"><circle cx="225" cy="156" r="1.18" fill="#d14e5b" stroke="#ccc" opacity=".6"/><path stroke-linecap="round" stroke="#d14e5b" fill="none" stroke-width=".54" opacity=".6" d="M225 156l17 80 8 5 5 14 13 3 7 12 15 12 17 5 9 3 11 8 8-9 21 3 9 8 7 9 14 6 13 11 11 15 8 11-7 7 7-1 9 9 14 10 10 10 8 10 15 5 15 7 14 5 8 5 12 7 12 6 7 2 7 4 11 5 12 5 9 3 7 1-10-5 14 2 12 4 4 2 10 3 3 2 6 3 6 1 7 1 7 1h3l8 2"/><path cx="658" cy="468" r="1.24" fill="#d14e5b" stroke="#ccc" stroke-width=".2" opacity=".6" d="M651.74 465.16l7.46 3.14-2.7.6z"/></g><g class="key-Colombia_0"><circle cx="315" cy="259" r="1.15" fill="#69c487" stroke="#ccc" opacity=".6"/><path stroke-linecap="round" stroke="#69c487" fill="none" stroke-width=".53" opacity=".6" d="M315 259v4l4-1 5 10 5 7 1 2 1 1h0l-1-6 6 2 1 6 3 4 3 5v2l5 4v4l4 4 2 3 4 5 5 5 6 7h5l7-1h11l1 3 3 3 3 7 10 4 5 4 3 3-1 2-1-2-1-3 2-1 1-2 6 3 4 4 3 3 2 1 3 14 1 9 3-1 5 6 5-12 5 21 1-17 2 19-1-3-8-1 3 4 1 2 2 8 4-3 5 10 5-8 8 3 8 4 3 9v-9l5 9"/><path cx="492" cy="419" r="1.23" fill="#69c487" stroke="#ccc" stroke-width=".2" opacity=".6" d="M489.8 412.49l2.8 7.59-2.28-1.56z"/></g><g class="key-Spain_0"><circle cx="233" cy="199" r="1.16" fill="#ffd336" stroke="#ccc" opacity=".6"/><path stroke-linecap="round" stroke="#ffd336" fill="none" stroke-width=".53" opacity=".6" d="M233 199l44 2-7 3 18 6 8 6 21 33-7 29 8 10 107 63 50 39 7 4 11 5 11 5 9 4 4 3 4 4 4 4 3 2 1 3 2 2v3l2 1h4l2 2 4 6 8 4 7 2 7 5 6 4 3 4 2 3-2 1 3 1 7 2 3 1 5 1 6 2 7 2 6 1 3 1 2 1 2 1 3 1 2 1 4 2-7 1"/><path cx="620" cy="479" r="1.23" fill="#ffd336" stroke="#ccc" stroke-width=".2" opacity=".6" d="M626.87 479.26l-8.1-.09 2.28-1.56z"/></g><g class="key-Tanzania_0"><circle cx="86" cy="110" r="1.15" fill="#5675c1" stroke="#ccc" opacity=".6"/><path stroke-linecap="round" stroke="#5675c1" fill="none" stroke-width=".53" opacity=".6" d="M86 110l-6 9 9-4 4-3 4-2 1-1h14l3 1-1-1 4 2 1 2 5 2v2l-2 2 4 2 6 2h-1v2l-2 2-3 1h-6l-3-1-5-2v2l-5 1h0l3 2 1 1 1 2h0l-1 2-3 1-3-2h-3v-1l4 2 1 2 1 2 1 3 3 2 4 4 6 4 5 6 7 6 6 6 6 7 6 5 6 4 5 4 6 4"/><path cx="169" cy="194" r="1.23" fill="#5675c1" stroke="#ccc" stroke-width=".2" opacity=".6" d="M164.05 189.22l5.97 5.46-2.73-.34z"/></g><g class="key-Kenya_0"><circle cx="183" cy="157" r="1.15" fill="#5675c1" stroke="#ccc" opacity=".6"/><path stroke-linecap="round" stroke="#5675c1" fill="none" stroke-width=".52" opacity=".6" d="M183 157l5-2 4 3 3-2h2l2 6-6-2v2h7l7-1v3l2 4-3 1 3 1-5 4-3 2 1 3 5 4 4 2 3 2 2 6 2 3-3 4-7 5-5 5v9l3 11 2 9-3 7 1 6v6l-3 2 3 4-3 3-1 3 3 6 4 2 5 2 5 4-2 3v3l4 3"/><path cx="221" cy="293" r="1.22" fill="#5675c1" stroke="#ccc" stroke-width=".2" opacity=".6" d="M216.31 287.96l5.67 5.77-2.69-.49z"/></g><g class="key-Argentina_0"><circle cx="440" cy="381" r="1.17" fill="#69c487" stroke="#ccc" opacity=".6"/><path stroke-linecap="round" stroke="#69c487" fill="none" stroke-width=".52" opacity=".6" d="M440 381h3l-11 8 5-17 3 11 7 5 2 4 5 5 6 4-13-1 9 5 8 7-5-4-6-4 13 1 10 3-1 4 2-1 4 8 10 2 6 1 4 2 2 2 7 2 6 3-3-2-3 5 6 4-9 1 7 2v2l-11 1-7 1 2 1h1-12 8l2 2-5 1h-14l11 2 9 1h14-6l6 2 9 2 5 2-6 1-2 1-8 1h-19l10 3 9 2h10l9 1 10 1h4l-6 1h10"/><path cx="547" cy="469" r="1.22" fill="#69c487" stroke="#ccc" stroke-width=".2" opacity=".6" d="M540.22 467.78l8 1.22-2.44 1.22z"/></g><g class="key-Morocco_0"><circle cx="244" cy="229" r="1.15" fill="#5675c1" stroke="#ccc" opacity=".6"/><path stroke-linecap="round" stroke="#5675c1" fill="none" stroke-width=".5" opacity=".6" d="M244 229l1 21 1-16 2 4 1-3 2 4 4 1 5 5 4 4 4 3 5 6 4 4v4l3 4 5 6 6 13 13 10 4 9 1-1 4 3 10 3-7 4 11 6-4-1h2l5 3 7 1h-7l11 5h0l2 4 7 1-9-1-4-2 12 1-12-1 15 1-6 1 9 1-1 2v2l9 3h3l7 2 5 3 3 3 9 6 3 5 6 7 6 3 3 4"/><path cx="408" cy="376" r="1.2" fill="#5675c1" stroke="#ccc" stroke-width=".2" opacity=".6" d="M404.88 369.84l3.84 7.12-2.4-1.2z"/></g><g class="key-Peru_0"><circle cx="363" cy="267" r="1.15" fill="#69c487" stroke="#ccc" opacity=".6"/><path stroke-linecap="round" stroke="#69c487" fill="none" stroke-width=".5" opacity=".6" d="M363 267l8 6 7 9 2 2 6 6 5 3 8 4 2 3-6-2h0l7 5 2-1 1 4 3 1 4 5 7 2-2 2-4 3-4 2 5 4 3 3 3 4-4 5-25 6 4 2-1-3 11 4 9 8-16 8-22 5-11-1 1 3-4-1 4-7 15 5 10 5 1 4 7 4-3 2-1 1 2-4-1 2 5-2 4-6 5 4 9 1 9 3 11 13 12 3v2l11 5"/><path cx="462" cy="403" r="1.2" fill="#69c487" stroke="#ccc" stroke-width=".2" opacity=".6" d="M456.3 399.1l6.79 4.4-2.67.1z"/></g><g class="key-Venezuela_0"><circle cx="500" cy="310" r="1.13" fill="#69c487" stroke="#ccc" opacity=".6"/><path stroke-linecap="round" stroke="#69c487" fill="none" stroke-width=".5" opacity=".6" d="M500 310l4-3 6 5-1 8 9 17 6 9 6 4 14 7-3 2 2 6-5-7h-10l1 3 1 2 7 6 4 4-2 2 3 3 5 5v2l6 3-3 8-3 8 5 7-1 7-1 8 7 8 4 6-1 4-4 1h-11l-4-3h-7l-11-2-2-5h-1l3 3 2 4 4 4-17-4 4-1 10 3 6 3-3 2-7-11h3-3l6 11-2 1-11 1 3 1 2 3-16-2-14-3 23 1 13 4 11 2 11 2 5 1-7-1-4 1"/><path cx="542" cy="460" r="1.2" fill="#69c487" stroke="#ccc" stroke-width=".2" opacity=".6" d="M548.9 459.51l-8.06.78 2.03-1.74z"/></g><g class="key-Malaysia_0"><circle cx="346" cy="304" r="1.15" fill="#d14e5b" stroke="#ccc" opacity=".6"/><path stroke-linecap="round" stroke="#d14e5b" fill="none" stroke-width=".5" opacity=".6" d="M346 304l14 17h8l9 1 9 3 8 23 7 8 5 10 5 6 7 2-5-1-2-2 4-1 9 2 10 9 10 12 10 6 9 8 10 4 9 7 10 6 11 5 6 3-15-6 5 2h9l-3 9 4 1 5 3 6-2h11l6-1 5 3-5 2 8-3"/><path cx="545" cy="440" r="1.2" fill="#d14e5b" stroke="#ccc" stroke-width=".2" opacity=".6" d="M538.2 441.27l7.92-1.69-1.82 1.96z"/></g><g class="key-Ghana_0"><circle cx="249" cy="241" r="1.13" fill="#5675c1" stroke="#ccc" opacity=".6"/><path stroke-linecap="round" stroke="#5675c1" fill="none" stroke-width=".49" opacity=".6" d="M249 241l1 2 3-1 1 6-1-8h-2l-5-2-1 6h-3l1 8 11 5 7 4-9-5-1 11 6 3h-23l-8-6v8h10l-6-11-7-2-2-7-14-14-16-6 4 7 3 10 2 5 2 8 4 5 4 4h0l4-8 3 1 3-1 2-1h3l4 1 5 3 5 2 4 1 3 2 4 3 3 5 5 4 4 4 5 7 6 6 6 4 9 8 2 3 8 7"/><path cx="298" cy="322" r="1.19" fill="#5675c1" stroke="#ccc" stroke-width=".2" opacity=".6" d="M293.65 316.62l5.24 6.16-2.56-.67z"/></g><g class="key-Taiwan_0"><circle cx="266" cy="291" r="1.15" fill="#d14e5b" stroke="#ccc" opacity=".6"/><path stroke-linecap="round" stroke="#d14e5b" fill="none" stroke-width=".48" opacity=".6" d="M266 291l12 6 12 11 8 6 12 10 8 7 9 7 13 10 15 7 15 9 15 10-1-2 4 2 16 6 12 9 16 8 8 14 8 8 6 3h3l10 1 13 4h5l15 2 21 7 5 6 10 4h6l10-1 10 3 8 3 9 2 8 2 7 1 7 2 3 3 8 2 7 2-4 1h7l5 1 8 3 7 3 7 1 8 1v1l-3-1 15 1"/><path cx="669" cy="476" r="1.18" fill="#d14e5b" stroke="#ccc" stroke-width=".2" opacity=".6" d="M662.28 474.37l7.9 1.7-2.44 1.03z"/></g><g class="key-Chile_0"><circle cx="395" cy="365" r="1.13" fill="#69c487" stroke="#ccc" opacity=".6"/><path stroke-linecap="round" stroke="#69c487" fill="none" stroke-width=".47" opacity=".6" d="M395 365l2-1 6-9 8 10-7 15 2-7v9l11 2 4-14-12 7 8-7h3l4 2 5 2v1l-2 1 13 2 2 2 2 2 3 2v2l10 5-4 4-12 2h-1l-23-3 3 3 11 6 10 2 9 3h9l7 7h-25l-6 3 6 1v-15l6 1 7 3 8 3 12 6 3 4 9 3 14 5 8 6 6 3 12 5 9 2 7 5 3 2-3 1 4 2 4-6 1 2 4-1 9 1 7 1 7 1 6 2 4 2-3 1 7 2"/><path cx="592" cy="460" r="1.17" fill="#69c487" stroke="#ccc" stroke-width=".2" opacity=".6" d="M585.75 457l7.37 3.32-2.56.48z"/></g><g class="key-Netherlands_0"><circle cx="292" cy="315" r="1.12" fill="#ffd336" stroke="#ccc" opacity=".6"/><path stroke-linecap="round" stroke="#ffd336" fill="none" stroke-width=".46" opacity=".6" d="M292 315l34 12h-2l57 16 3 10 11 16 20 29 42 16-15 5 23 16 50 21-1 1 8 2 3 2 10 2 5 2 2 1 6 2 8 3 8 1 6 1h8l5 1h5-1 5l3 1 3 1h3-2l-3-1 2 1h5l3 1h4l1 1h3l6 1h8l1 1h4l3 1h10l5 1h6l5 1h1-1 3l3 1h5l5 1h2-6 1"/><path cx="675" cy="485" r="1.16" fill="#ffd336" stroke="#ccc" stroke-width=".2" opacity=".6" d="M668.16 483.84l8 1.16-2.32 1.16z"/></g><g class="key-Malawi_0"><circle cx="75" cy="141" r="1.13" fill="#5675c1" stroke="#ccc" opacity=".6"/><path stroke-linecap="round" stroke="#5675c1" fill="none" stroke-width=".46" opacity=".6" d="M75 141l9-6-5-2h5l-2-2 16 3 10-1 8 1 5 2 1 2 1-2 3-3 8 4 3-2-4-5-13-6-3-2 2 3 2 3 6 3-5 3-5-5-5 1-2 1v2l6 4-17 2 12-3-14 2 20 1 10 2 5 6-2-1 1 3-3 1-11 1-1 4 4 2 4 12v10l-1 1 9 11 8 14 9 8 5 9"/><path cx="154" cy="222" r="1.16" fill="#5675c1" stroke="#ccc" stroke-width=".2" opacity=".6" d="M151.7 215.46l2.86 7.55-2.14-1.46z"/></g><g class="key-Zambia_0"><circle cx="222" cy="230" r="1.12" fill="#5675c1" stroke="#ccc" opacity=".6"/><path stroke-linecap="round" stroke="#5675c1" fill="none" stroke-width=".45" opacity=".6" d="M222 230l-12 1 7 1h-2l-5-5 2 5-4 8 8-5-6-2 8-4-11-4 5-4-12-5-4-3-9-4 1 1 4 2-10-4-9-6-5-4-3-3-4-5-1-2 4-3-3-4 8-2-5-2h-1l-4 3-25-1-8-3 6 6 1 4h-7l-1 5 1 4 3-2 1-4 3-2 5-2 4 1 5 2h4l5 1 5 1 6 2"/><path cx="167" cy="192" r="1.15" fill="#5675c1" stroke="#ccc" stroke-width=".2" opacity=".6" d="M160.87 188.74l7.23 3.63-2.56.36z"/></g><g class="key-Senegal_0"><circle cx="255" cy="188" r="1.13" fill="#5675c1" stroke="#ccc" opacity=".6"/><path stroke-linecap="round" stroke="#5675c1" fill="none" stroke-width=".45" opacity=".6" d="M255 188l-5 5h5l-13-3 2-3 7 6 9 3-8-2-11 2 5 3-9 1-6 3 16 4h-13 1l2 3 2 5 2 1-7 3h1v1l-2 2h-2l-4 1 4 4-1 3 1 4 5 8 5 5 1 4 3 3-3 5 6 5 5 6 4 4-1 2 4 4 1-1h-1l2 1"/><path cx="262" cy="280" r="1.15" fill="#5675c1" stroke="#ccc" stroke-width=".2" opacity=".6" d="M256.4 275.9l6.63 4.62h-2.58z"/></g><g class="key-Belgium_0"><circle cx="280" cy="271" r="1.13" fill="#ffd336" stroke="#ccc" opacity=".6"/><path stroke-linecap="round" stroke="#ffd336" fill="none" stroke-width=".45" opacity=".6" d="M280 271l36 19 22 18 30 28 16 26 13 21 13 11-4 7 34 19-6 18 62 24 56 13 5 2 7 1 9 1 5 1h-2l8 1 1 1h7l6 1h-2 10l3 1h7l4 1h8-2 4l3 1h2l5 1h7l5 1h3l1 1h10l5 1"/><path cx="671" cy="490" r="1.15" fill="#ffd336" stroke="#ccc" stroke-width=".2" opacity=".6" d="M664.5 487.53l7.63 2.7-2.48.67z"/></g><g class="key-Bolivia_0"><circle cx="298" cy="191" r="1.12" fill="#69c487" stroke="#ccc" opacity=".6"/><path stroke-linecap="round" stroke="#69c487" fill="none" stroke-width=".45" opacity=".6" d="M298 191l7 6 2 7h-18v6l4-3h-12l-9-3 1-6-4-5 3 8v-4l4 10h10l3-2 7 1 6 10 8 4 3 17 4 1 2 5 4 6 6 8 4 9 5 10 8 8 2 8 2 5-4 4-4 3-2-1-9-2-9 2-1 8-4 3h-7l1-1 2-4 1 3 4 2 4-4-1-1 3 6 4 9 3 7 3 5 4 9 4 6-2 6 1 7-1 3 1 6v25h4l3-11 4-4 4 13 6 5 2 8 4 12"/><path cx="368" cy="421" r="1.15" fill="#69c487" stroke="#ccc" stroke-width=".2" opacity=".6" d="M366.92 414.13l1.44 7.96-1.8-1.81z"/></g><g class="key-Sweden_0"><circle cx="212" cy="196" r="1.12" fill="#ffd336" stroke="#ccc" opacity=".6"/><path stroke-linecap="round" stroke="#ffd336" fill="none" stroke-width=".44" opacity=".6" d="M212 196l-3 3h-3l2-1 2-1 9-1-2 4 4-1 2-1 5 2 3 2-6 3-5 1 6 1 3 6 3-2-3 2 2-3-14 4h11l17-1 6 3h2l2 6 5 4-5-1 9 7-3 3-6 6 8 3-3-6 5 2-6-5 11 6-3-2 3 7 1 8-4-5 2 1 2 2h3l8-1-2 2 4 2 1 2 7 6 4-3 5 8 5 1 4 4v3h4l-2 3 8 7 2 1-2 4 12 2 9-1-4-1v2l3 2 4 5 5 2 9 5 3 2 5 1 8 2-9-2-12 5 3 4 9 4-8-7 10 4 5 5 10 3 3 5 7 3 5 2 4 5 9 3 6 6h-4l-6-2h3l9 4 7 4 4 4 4 4 4 3 11 4-12-1-4 3 1 8 4 7 4 1 4 3 13 5 12 4 1 2 5 2 9 3 4 3 1 3 3 3 6 3 3 3 4 3 6 3v3l4 4 7 3 7 2 5 3 7 3 9 3 4 3 2 1 3 2 5 2 6 2 8 2v2l3 2 6 1 4 1 3 1 1 2h-3 3l5 1 2 1v1h4l5 1h3l3 1 4 2h2l3 2h0-9 10l2 1 4 1 6 1h13l1 1h4l3 1h6l4 1h6l5 1-1-1h-8 8"/><path cx="681" cy="488" r="1.14" fill="#ffd336" stroke="#ccc" stroke-width=".2" opacity=".6" d="M674.14 486.86l8 1.14-2.28 1.14z"/></g><g class="key-Denmark_0"><circle cx="489" cy="392" r="1.13" fill="#ffd336" stroke="#ccc" opacity=".6"/><path stroke-linecap="round" stroke="#ffd336" fill="none" stroke-width=".43" opacity=".6" d="M489 392v4l7 3 2 3 1 1v2l11 3 2 2 10 3 3 4 8 4 7 3-1 3 12 4 6 4 3 2 3 3 5 4 9 5 2 4 3 2 6 2 5 1-2 1h-2l9 2 2 1 2 1 5 2-1 1h-1l4 1h4l6 1 7 2 5 1v1l2 1v1l1 1h2l2 1v1l7 1 4 1h3l4 1 3 1 3 1h5v1h1l2 1 4 1h6l-2 1h-9l1 1"/><path cx="670" cy="487" r="1.13" fill="#ffd336" stroke="#ccc" stroke-width=".2" opacity=".6" d="M665.94 481.34l4.86 6.46-2.4-.8z"/></g><g class="key-Finland_0"><circle cx="223" cy="196" r="1.12" fill="#ffd336" stroke="#ccc" opacity=".6"/><path stroke-linecap="round" stroke="#ffd336" fill="none" stroke-width=".43" opacity=".6" d="M223 196l54 14 20-34-5 7 55 19 28 34 41 65 57 46 64 62 3 5 10 6 9 6 3 4 1 4-1 2v2l3 2 10 1 7 1 2 2 4-1 3 2 4 1 4 3 3 2 5 3 7 2 8 4-1 1h-16l-2 1h5l5 2 5 3 8 1 7 3h6l7 1 3 2 2 1h3l6 1h4l6 1h-1"/><path cx="669" cy="477" r="1.13" fill="#ffd336" stroke="#ccc" stroke-width=".2" opacity=".6" d="M675.87 478.13l-8-1.13 2.26-1.13z"/></g><g class="key-Singapore_0"><circle cx="423" cy="483" r="1.12" fill="#d14e5b" stroke="#ccc" opacity=".6"/><path stroke-linecap="round" stroke="#d14e5b" fill="none" stroke-width=".43" opacity=".6" d="M423 483h15l16 1 13-2h7l4 3 8-1 9 1 11 2 11 2 12 1 6 1 3 1h10l9 1h-3 13l12 2h9l8 1h4l5-1 12 1 10-1h6l7 1h8-7 14-5 5l9 1 7-1h19-6 18"/><path cx="702" cy="496" r="1.13" fill="#d14e5b" stroke="#ccc" stroke-width=".2" opacity=".6" d="M695.13 494.87l8 1.13-2.26 1.13z"/></g><g class="key-Costa-Rica_0"><circle cx="302" cy="257" r="1.11" fill="#4d824b" stroke="#ccc" opacity=".6"/><path stroke-linecap="round" stroke="#4d824b" fill="none" stroke-width=".43" opacity=".6" d="M302 257l-1-6h12l15 15-4 3 11 12-10 9 7-8 12-1-1-1 7 3v-2l4 2 7 4 2 2 8 9 6 5 4 1 6 5 6 6 5 6 5 7 9 9 7 7 3 6-1 2 4 5 8 7 4 4 2 5h-1l-7-4-15-20v7l7-6-4 17 4 4 3-8 1 1 4 8 2 4v7l9 6 7 7 2 6 2-1-3 4 5 3 8 1 8 6v1l-1 10 1-1 7 4 4 2 7-1 10 6 9 4 2 5-4 3 4-13"/><path cx="510" cy="435" r="1.13" fill="#4d824b" stroke="#ccc" stroke-width=".2" opacity=".6" d="M506.9 441.24l3.43-7.32.42 2.49z"/></g><g class="key-Botswana_0"><circle cx="76" cy="128" r="1.11" fill="#5675c1" stroke="#ccc" opacity=".6"/><path stroke-linecap="round" stroke="#5675c1" fill="none" stroke-width=".42" opacity=".6" d="M76 128l2 7 12 1 12-5 13 3 11 10 11 10 21 10 37 17 24 12 21 8-9 11 18 5-2 5 18 7 7 9 14 7 7 10 5 3 17-2 10 5 6 7 6 10 7 14 17 13 14 12 4 11 2 7v-4h-2l1-1 2 1 4 2 5-11 5 2 5 7 9 5 5 9 4-3 3-1 2-3v-5h5l3 5 1-2"/><path cx="433" cy="336" r="1.12" fill="#5675c1" stroke="#ccc" stroke-width=".2" opacity=".6" d="M428.92 341.66l4.58-6.66v2.5z"/></g><g class="key-Mauritius_0"><circle cx="376" cy="336" r="1.11" fill="#5675c1" stroke="#ccc" opacity=".6"/><path stroke-linecap="round" stroke="#5675c1" fill="none" stroke-width=".41" opacity=".6" d="M376 336l-14 4 5 15 12 3 16 14 13 6h-2l20 11 7 2 3 9 3 1-19-4 6 4 6-1v-6l5 4 9 3 13 5h13l9 7 5 7 9 7 8 3 5 2 7 2 5 1 4 1 6 3 7 3 7 3 6 4h2l9 3 3 6 9 1 5-1 4 1 4 1 5 4 8 3"/><path cx="599" cy="467" r="1.11" fill="#5675c1" stroke="#ccc" stroke-width=".2" opacity=".6" d="M592.94 463.54l7.1 3.85-2.48.26z"/></g><text x="515.6" y="351.12" font-size="14.3" font-family="Arial Narrow, Arial, sans-serif" fill="#666">China</text><text x="386.47" y="263.76" font-size="14.01" font-family="Arial Narrow, Arial, sans-serif" fill="#666">India</text><text x="642.81" y="489.42" font-size="11.76" font-family="Arial Narrow, Arial, sans-serif" fill="#666">United States</text><text x="436.07" y="346.7" font-size="11.59" font-family="Arial Narrow, Arial, sans-serif" fill="#666">Indonesia</text><text x="492.79" y="434.18" font-size="11.48" font-family="Arial Narrow, Arial, sans-serif" fill="#666">Brazil</text><text x="299.96" y="247.31" font-size="11.39" font-family="Arial Narrow, Arial, sans-serif" fill="#666">Nigeria</text><text x="370.47" y="364.85" font-size="11.23" font-family="Arial Narrow, Arial, sans-serif" fill="#666">Philippines</text><text x="194.29" y="189.36" font-size="11.2" font-family="Arial Narrow, Arial, sans-serif" fill="#666">Ethiopia</text><text x="421.9" y="404.58" font-size="11.2" font-family="Arial Narrow, Arial, sans-serif" fill="#666">Egypt</text><text x="600.7" y="474.77" font-size="11.12" font-family="Arial Narrow, Arial, sans-serif" fill="#666">South Korea</text><text x="173.16" y="202.33" font-size="11.11" font-family="Arial Narrow, Arial, sans-serif" fill="#666">Tanzania</text><text x="225" y="301.55" font-size="11.1" font-family="Arial Narrow, Arial, sans-serif" fill="#666">Kenya</text><text x="552" y="469" font-size="11.1" font-family="Arial Narrow, Arial, sans-serif" fill="#666">Argentina</text><text x="411" y="385.54" font-size="11.08" font-family="Arial Narrow, Arial, sans-serif" fill="#666">Morocco</text><text x="466.55" y="410.6" font-size="11.07" font-family="Arial Narrow, Arial, sans-serif" fill="#666">Peru</text><text x="484.57" y="466.75" font-size="11.07" font-family="Arial Narrow, Arial, sans-serif" fill="#666">Venezuela</text><text x="549.68" y="438.24" font-size="11.07" font-family="Arial Narrow, Arial, sans-serif" fill="#666">Malaysia</text><text x="301.76" y="330.82" font-size="11.06" font-family="Arial Narrow, Arial, sans-serif" fill="#666">Ghana</text><text x="156.43" y="231.89" font-size="11.04" font-family="Arial Narrow, Arial, sans-serif" fill="#666">Malawi</text><text x="266.47" y="287.75" font-size="11.03" font-family="Arial Narrow, Arial, sans-serif" fill="#666">Senegal</text><text x="369.58" y="431.26" font-size="11.02" font-family="Arial Narrow, Arial, sans-serif" fill="#666">Bolivia</text><text x="435.24" y="331.53" font-size="11" font-family="Arial Narrow, Arial, sans-serif" fill="#666">Botswana</text></g><g class="ScatterColorLegend clickable" cursor="pointer"><g class="legendMark">,<path fill="#5675c1" d="M735 94.2h6v6h-6z"/>,<text font-size="12.6" x="746" y="101.3"><tspan x="746" y="101.28">Africa</tspan></text></g><g class="legendMark">,<path fill="#d14e5b" d="M735 111.8h6v6h-6z"/>,<text font-size="12.6" x="746" y="118.9"><tspan x="746" y="118.88">Asia</tspan></text></g><g class="legendMark">,<path fill="#ffd336" d="M735 129.4h6v6h-6z"/>,<text font-size="12.6" x="746" y="136.5"><tspan x="746" y="136.48">Europe</tspan></text></g><g class="legendMark">,<path fill="#4d824b" d="M735 147h6v6h-6z"/>,<text font-size="12.6" x="746" y="154.1"><tspan x="746" y="154.08">North America</tspan></text></g><g class="legendMark">,<path fill="#69c487" d="M735 164.6h6v6h-6z"/>,<text font-size="12.6" x="746" y="171.7"><tspan x="746" y="171.68">South America</tspan></text></g></g><path stroke="#ccc" d="M735 181.2h95"/><g class="clickable"><g class="ConnectedScatterLegend"><text font-size="12.6" x="735" y="200.3" fill="#333"><tspan x="735" y="200.28">1801</tspan></text><text font-size="12.6" x="806.8" y="200.3" fill="#333"><tspan x="806.78" y="200.28">2010</tspan></text><path stroke="#666" stroke-width="1" d="M768.22 196h33.56"/><circle cx="768.22" cy="196" r="2" fill="#666" stroke="#ccc" stroke-width=".2"/><circle cx="779.41" cy="196" r="2" fill="#666" stroke="#ccc" stroke-width=".2"/><circle cx="790.59" cy="196" r="2" fill="#666" stroke="#ccc" stroke-width=".2"/><path cx="801.78" cy="196" r="3" fill="#666" stroke="#ccc" stroke-width=".2" d="M796.78 193l8 3-6 3z"/></g></g></g><g class="SourcesFooter" fill="#777"><g class="clickable" fill="#777"><text font-size="12.6" x="15" y="567"><tspan x="15" y="566.98">Source: Maddison-Project (2013), Our World In Data based on Herrendorf et al. (2014) and GGDC-10 (2015)</tspan></text></g><text font-size="12.6" x="15" y="582.5"><tspan x="15" y="582.48"><a target="_blank" href="https://ourworldindata.org/employment-in-agriculture" fill="#777">OurWorldInData.org/employment-in-agriculture</a> • <a href="http://creativecommons.org/licenses/by-sa/4.0/deed.en_US" target="_blank" fill="#777">CC BY-SA</a></tspan></text></g></g></svg>