<svg xmlns="http://www.w3.org/2000/svg" version="1.1" style="background-color:#fff;-webkit-font-smoothing:antialiased" width="850" height="600" font-family="'Helvetica Neue',Helvetica,Arial,sans-serif" font-size="18" text-rendering="optimizeLegibility"><g class="ChartTab"><g class="HeaderView"><g opacity=".8" transform="matrix(.31 0 0 .31 770 15)"><a xmlns:xlink="http://www.w3.org/1999/xlink" xlink:href="https://ourworldindata.org" target="_blank"><g><path fill="#1B2543" d="M0 0h211.2v130.1H0z"/><path fill="#E63912" d="M0 112.2h211.2v17.9H0z"/><g><path fill="none" d="M1.2 12.3h210.2v99.2H1.2z"/><path fill="#FFF" d="M37.8 32.2c0 12.7-7.7 19.4-17.1 19.4-9.7 0-16.6-7.5-16.6-18.7 0-11.7 7.3-19.3 17.1-19.3 10.1.1 16.6 7.7 16.6 18.6zm-28.6.6c0 7.9 4.3 14.9 11.8 14.9 7.5 0 11.8-6.9 11.8-15.3 0-7.3-3.8-14.9-11.8-14.9-7.9 0-11.8 7.3-11.8 15.3zM62.7 43.8c0 2.7.1 5.1.2 7.2h-4.3l-.3-4.3h-.1c-1.3 2.1-4 4.9-8.8 4.9-4.2 0-9.1-2.3-9.1-11.6V24.6h4.8v14.6c0 5 1.5 8.4 5.9 8.4 3.2 0 5.5-2.2 6.3-4.4.3-.7.4-1.6.4-2.5V24.6h4.8v19.2zM67.3 32.8c0-3.1-.1-5.8-.2-8.2h4.2l.2 5.2h.2c1.2-3.5 4.1-5.8 7.3-5.8.5 0 .9.1 1.4.2v4.5c-.5-.1-1-.2-1.6-.2-3.4 0-5.8 2.6-6.5 6.2-.1.7-.2 1.4-.2 2.2V51h-4.8V32.8zM95.4 51L86 14.2h5l4.4 18.6c1.1 4.6 2.1 9.2 2.7 12.7h.1c.6-3.7 1.8-8 3-12.8l4.9-18.5h5l4.5 18.7c1 4.4 2 8.7 2.6 12.6h.1c.8-4 1.8-8.1 3-12.7l4.9-18.5h4.9L120.6 51h-5L111 31.9c-1.1-4.7-1.9-8.3-2.4-12h-.1c-.7 3.7-1.5 7.3-2.8 12L100.4 51h-5zM154.9 37.6c0 9.8-6.8 14-13.2 14-7.2 0-12.7-5.2-12.7-13.6 0-8.8 5.8-14 13.1-14 7.7 0 12.8 5.5 12.8 13.6zm-21 .3c0 5.8 3.3 10.1 8 10.1 4.6 0 8-4.3 8-10.3 0-4.5-2.2-10.1-7.9-10.1s-8.1 5.2-8.1 10.3zM158.2 32.8c0-3.1-.1-5.8-.2-8.2h4.2l.2 5.2h.2c1.2-3.5 4.1-5.8 7.3-5.8.5 0 .9.1 1.4.2v4.5c-.5-.1-1-.2-1.6-.2-3.4 0-5.8 2.6-6.5 6.2-.1.7-.2 1.4-.2 2.2V51h-4.8V32.8zM173.5 12.3h4.8V51h-4.8V12.3zM206.5 12.3v31.9c0 2.3.1 5 .2 6.8h-4.3l-.2-4.6h-.2c-1.5 2.9-4.7 5.2-9 5.2-6.4 0-11.3-5.4-11.3-13.4-.1-8.8 5.4-14.2 11.9-14.2 4 0 6.8 1.9 8 4h.1V12.3h4.8zm-4.8 23.1c0-.6-.1-1.4-.2-2a7 7 0 00-6.9-5.6c-5 0-7.9 4.4-7.9 10.2 0 5.3 2.6 9.8 7.8 9.8 3.2 0 6.2-2.1 7.1-5.7.2-.7.2-1.3.2-2.1v-4.6zM42.8 64c.1 1.6-1.1 2.9-3.1 2.9-1.7 0-2.9-1.3-2.9-2.9 0-1.7 1.3-3 3-3 1.9 0 3 1.3 3 3zm-5.4 33.8V71.4h4.8v26.4h-4.8zM47.5 78.6c0-2.7-.1-5-.2-7.1h4.3l.3 4.4h.1c1.3-2.5 4.4-5 8.8-5 3.7 0 9.4 2.2 9.4 11.2v15.8h-4.8V82.6c0-4.3-1.6-7.8-6.1-7.8-3.2 0-5.6 2.2-6.5 4.9-.2.6-.3 1.4-.3 2.2v15.9h-4.8V78.6zM84 61.6c2.9-.4 6.3-.8 10.1-.8 6.8 0 11.7 1.6 14.9 4.6 3.3 3 5.2 7.3 5.2 13.2 0 6-1.9 10.9-5.3 14.3-3.4 3.4-9.1 5.3-16.3 5.3-3.4 0-6.2-.2-8.6-.4V61.6zm4.8 32.5c1.2.2 3 .3 4.8.3 10.2 0 15.7-5.7 15.7-15.6.1-8.7-4.9-14.2-14.9-14.2-2.5 0-4.3.2-5.6.5v29zM132.1 97.8l-.4-3.3h-.2a9.79 9.79 0 01-8.1 3.9c-5.4 0-8.1-3.8-8.1-7.6 0-6.4 5.7-9.9 15.9-9.8v-.5c0-2.2-.6-6.1-6-6.1-2.5 0-5 .8-6.9 2l-1.1-3.2c2.2-1.4 5.4-2.3 8.7-2.3 8.1 0 10.1 5.5 10.1 10.8v9.9c0 2.3.1 4.5.4 6.3h-4.3zm-.7-13.4c-5.3-.1-11.2.8-11.2 5.9 0 3.1 2.1 4.6 4.5 4.6 3.4 0 5.6-2.2 6.4-4.4.2-.5.3-1 .3-1.5v-4.6zM146.6 63.9v7.6h6.9v3.7h-6.9v14.2c0 3.3.9 5.1 3.6 5.1 1.3 0 2.2-.2 2.8-.3l.2 3.6c-.9.4-2.4.7-4.3.7-2.2 0-4-.7-5.2-2-1.4-1.4-1.9-3.8-1.9-6.9V75.1h-4.1v-3.7h4.1v-6.3l4.8-1.2zM171.4 97.8l-.4-3.3h-.2a9.79 9.79 0 01-8.1 3.9c-5.4 0-8.1-3.8-8.1-7.6 0-6.4 5.7-9.9 15.9-9.8v-.5c0-2.2-.6-6.1-6-6.1-2.5 0-5 .8-6.9 2l-1.1-3.2c2.2-1.4 5.4-2.3 8.7-2.3 8.1 0 10.1 5.5 10.1 10.8v9.9c0 2.3.1 4.5.4 6.3h-4.3zm-.7-13.4c-5.3-.1-11.2.8-11.2 5.9 0 3.1 2.1 4.6 4.5 4.6 3.4 0 5.6-2.2 6.4-4.4.2-.5.3-1 .3-1.5v-4.6z"/></g></g></a></g><a href="https://ourworldindata.org/grapher/global-hunger-index-in-2017-vs-population-growth-1992-2015-un-population-division" target="_blank"><text font-size="21.6" x="15" y="32.3" fill="#555"><tspan x="15" y="32.28">Global Hunger Index in 2017 vs. Population growth 1992-2015 (UN</tspan><tspan x="15" y="53.88">Population Division)</tspan></text></a></g><g><g class="AxisBoxView"><g class="HorizontalAxis"><text font-size="12.6" x="211.8" y="554"><tspan x="211.78" y="553.98">Population growth 1992-2015 (UN Population Division)</tspan></text><text x="82" y="533.9" fill="#666" text-anchor="middle" font-size="16.2">-20%</text><text x="160.5" y="533.9" fill="#666" text-anchor="middle" font-size="16.2">0%</text><text x="239" y="533.9" fill="#666" text-anchor="middle" font-size="16.2">20%</text><text x="317.5" y="533.9" fill="#666" text-anchor="middle" font-size="16.2">40%</text><text x="396" y="533.9" fill="#666" text-anchor="middle" font-size="16.2">60%</text><text x="474.4" y="533.9" fill="#666" text-anchor="middle" font-size="16.2">80%</text><text x="552.9" y="533.9" fill="#666" text-anchor="middle" font-size="16.2">100%</text><text x="631.4" y="533.9" fill="#666" text-anchor="middle" font-size="16.2">120%</text><text x="709.9" y="533.9" fill="#666" text-anchor="middle" font-size="16.2">140%</text></g><g class="VerticalAxis"><text font-size="12.6" x="-478.7" y="25.1" transform="rotate(-90)"><tspan x="-478.7" y="25.08">Global Hunger Index in 2017 (Global Hunger Index 2017)</tspan></text><text x="55.74" y="512.7" fill="#666" dominant-baseline="middle" text-anchor="end" font-size="16.2">0</text><text x="55.74" y="427.7" fill="#666" dominant-baseline="middle" text-anchor="end" font-size="16.2">10</text><text x="55.74" y="342.7" fill="#666" dominant-baseline="middle" text-anchor="end" font-size="16.2">20</text><text x="55.74" y="257.7" fill="#666" dominant-baseline="middle" text-anchor="end" font-size="16.2">30</text><text x="55.74" y="172.7" fill="#666" dominant-baseline="middle" text-anchor="end" font-size="16.2">40</text><text x="55.74" y="87.7" fill="#666" dominant-baseline="middle" text-anchor="end" font-size="16.2">50</text></g><g class="AxisGridLines"><path stroke="#ccc" d="M60.74 512.7H715"/><path stroke="#ddd" stroke-dasharray="3,2" d="M60.74 427.7H715M60.74 342.7H715M60.74 257.7H715M60.74 172.7H715M60.74 87.7H715"/></g><g class="AxisGridLines"><path stroke="#ddd" stroke-dasharray="3,2" d="M82 512.7V80.1"/><path stroke="#ccc" d="M160.5 512.7V80.1"/><path stroke="#ddd" stroke-dasharray="3,2" d="M239 512.7V80.1M317.5 512.7V80.1M396 512.7V80.1M474.4 512.7V80.1M552.9 512.7V80.1M631.4 512.7V80.1M709.9 512.7V80.1"/></g></g><g clip-path="url(#a)" class="PointsWithLabels clickable"><path fill="rgba(255,255,255,0)" d="M60.74 80.1H715v432.6H60.74z"/><defs><clipPath id="a"><path d="M50.74 70.1H725v452.6H50.74z"/></clipPath></defs><circle cx="223" cy="449" r="17.84" fill="#d14e5b" opacity=".8"/><circle cx="335" cy="245" r="17.29" fill="#d14e5b" opacity=".8"/><circle cx="307" cy="325" r="7.77" fill="#d14e5b" opacity=".8"/><circle cx="291" cy="466" r="7.03" fill="#69c487" opacity=".8"/><circle cx="421" cy="235" r="6.75" fill="#d14e5b" opacity=".8"/><circle cx="477" cy="296" r="6.53" fill="#5675c1" opacity=".8"/><circle cx="336" cy="287" r="6.23" fill="#d14e5b" opacity=".8"/><circle cx="148" cy="460" r="6.01" fill="#ffd336" opacity=".8"/><circle cx="324" cy="457" r="5.5" fill="#4d824b" opacity=".8"/><circle cx="381" cy="342" r="5.08" fill="#d14e5b" opacity=".8"/><circle cx="284" cy="376" r="4.91" fill="#d14e5b" opacity=".8"/><circle cx="526" cy="238" r="4.85" fill="#5675c1" opacity=".8"/><circle cx="381" cy="387" r="4.78" fill="#5675c1" opacity=".8"/><circle cx="302" cy="448" r="4.56" fill="#d14e5b" opacity=".8"/><circle cx="319" cy="491" r="4.53" fill="#d14e5b" opacity=".8"/><circle cx="233" cy="422" r="4.4" fill="#d14e5b" opacity=".8"/><circle cx="319" cy="400" r="3.86" fill="#5675c1" opacity=".8"/><circle cx="544" cy="267" r="3.8" fill="#5675c1" opacity=".8"/><circle cx="261" cy="320" r="3.8" fill="#d14e5b" opacity=".8"/><circle cx="300" cy="444" r="3.77" fill="#69c487" opacity=".8"/><circle cx="108" cy="491" r="3.66" fill="#ffd336" opacity=".8"/><circle cx="510" cy="334" r="3.64" fill="#5675c1" opacity=".8"/><circle cx="274" cy="466" r="3.56" fill="#69c487" opacity=".8"/><circle cx="343" cy="432" r="3.41" fill="#5675c1" opacity=".8"/><circle cx="612" cy="240" r="3.4" fill="#5675c1" opacity=".8"/><circle cx="466" cy="211" r="3.38" fill="#5675c1" opacity=".8"/><circle cx="535" cy="318" r="3.34" fill="#d14e5b" opacity=".8"/><circle cx="715" cy="229" r="3.33" fill="#d14e5b" opacity=".8"/><circle cx="297" cy="426" r="3.27" fill="#5675c1" opacity=".8"/><circle cx="336" cy="325" r="3.22" fill="#d14e5b" opacity=".8"/><circle cx="355" cy="402" r="3.18" fill="#69c487" opacity=".8"/><circle cx="309" cy="438" r="3.17" fill="#69c487" opacity=".8"/><circle cx="402" cy="426" r="3.16" fill="#d14e5b" opacity=".8"/><circle cx="480" cy="452" r="3.14" fill="#d14e5b" opacity=".8"/><circle cx="334" cy="401" r="3.11" fill="#d14e5b" opacity=".8"/><circle cx="468" cy="375" r="3.02" fill="#5675c1" opacity=".8"/><circle cx="549" cy="253" r="2.98" fill="#5675c1" opacity=".8"/><circle cx="241" cy="273" r="2.96" fill="#d14e5b" opacity=".8"/><circle cx="541" cy="187" r="2.88" fill="#5675c1" opacity=".8"/><circle cx="226" cy="296" r="2.83" fill="#d14e5b" opacity=".8"/><circle cx="101" cy="468" r="2.83" fill="#ffd336" opacity=".8"/><circle cx="457" cy="287" r="2.82" fill="#5675c1" opacity=".8"/><circle cx="490" cy="324" r="2.81" fill="#5675c1" opacity=".8"/><circle cx="611" cy="236" r="2.8" fill="#5675c1" opacity=".8"/><circle cx="532" cy="278" r="2.69" fill="#5675c1" opacity=".8"/><circle cx="277" cy="491" r="2.67" fill="#69c487" opacity=".8"/><circle cx="681" cy="219" r="2.66" fill="#5675c1" opacity=".8"/><circle cx="541" cy="269" r="2.64" fill="#5675c1" opacity=".8"/><circle cx="190" cy="463" r="2.63" fill="#d14e5b" opacity=".8"/><circle cx="476" cy="281" r="2.62" fill="#5675c1" opacity=".8"/><circle cx="425" cy="336" r="2.58" fill="#4d824b" opacity=".8"/><circle cx="359" cy="390" r="2.56" fill="#69c487" opacity=".8"/><circle cx="401" cy="324" r="2.54" fill="#d14e5b" opacity=".8"/><circle cx="515" cy="188" r="2.53" fill="#5675c1" opacity=".8"/><circle cx="500" cy="356" r="2.49" fill="#5675c1" opacity=".8"/><circle cx="347" cy="225" r="2.48" fill="#5675c1" opacity=".8"/><circle cx="634" cy="143" r="2.42" fill="#5675c1" opacity=".8"/><circle cx="449" cy="245" r="2.4" fill="#5675c1" opacity=".8"/><circle cx="187" cy="491" r="2.38" fill="#4d824b" opacity=".8"/><circle cx="282" cy="449" r="2.36" fill="#5675c1" opacity=".8"/><circle cx="470" cy="269" r="2.36" fill="#5675c1" opacity=".8"/><circle cx="358" cy="366" r="2.34" fill="#69c487" opacity=".8"/><circle cx="337" cy="222" r="2.34" fill="#4d824b" opacity=".8"/><circle cx="321" cy="414" r="2.33" fill="#4d824b" opacity=".8"/><circle cx="546" cy="305" r="2.3" fill="#5675c1" opacity=".8"/><circle cx="273" cy="431" r="2.3" fill="#d14e5b" opacity=".8"/><circle cx="132" cy="491" r="2.29" fill="#ffd336" opacity=".8"/><circle cx="438" cy="391" r="2.22" fill="#4d824b" opacity=".8"/><circle cx="92" cy="466" r="2.18" fill="#ffd336" opacity=".8"/><circle cx="377" cy="268" r="2.17" fill="#d14e5b" opacity=".8"/><circle cx="355" cy="419" r="2.15" fill="#69c487" opacity=".8"/><circle cx="673" cy="455" r="2.14" fill="#d14e5b" opacity=".8"/><circle cx="348" cy="279" r="2.13" fill="#d14e5b" opacity=".8"/><circle cx="500" cy="321" r="2.13" fill="#5675c1" opacity=".8"/><circle cx="226" cy="418" r="2.13" fill="#4d824b" opacity=".8"/><circle cx="423" cy="185" r="2.12" fill="#5675c1" opacity=".8"/><circle cx="319" cy="397" r="2.11" fill="#4d824b" opacity=".8"/><circle cx="284" cy="433" r="2.08" fill="#d14e5b" opacity=".8"/><circle cx="168" cy="491" r="2.08" fill="#ffd336" opacity=".8"/><circle cx="328" cy="409" r="2.07" fill="#d14e5b" opacity=".8"/><circle cx="347" cy="467" r="2.05" fill="#4d824b" opacity=".8"/><circle cx="344" cy="80" r="2.03" fill="#5675c1" opacity=".8"/><circle cx="119" cy="491" r="2.02" fill="#ffd336" opacity=".8"/><circle cx="641" cy="212" r="2.02" fill="#5675c1" opacity=".8"/><circle cx="528" cy="295" r="2.02" fill="#5675c1" opacity=".8"/><circle cx="581" cy="443" r="2.02" fill="#d14e5b" opacity=".8"/><circle cx="60" cy="447" r="2.01" fill="#d14e5b" opacity=".8"/><circle cx="95" cy="491" r="1.98" fill="#ffd336" opacity=".8"/><circle cx="534" cy="298" r="1.98" fill="#5675c1" opacity=".8"/><circle cx="372" cy="434" r="1.98" fill="#4d824b" opacity=".8"/><circle cx="132" cy="448" r="1.97" fill="#ffd336" opacity=".8"/><circle cx="194" cy="491" r="1.96" fill="#69c487" opacity=".8"/><circle cx="80" cy="491" r="1.95" fill="#ffd336" opacity=".8"/><circle cx="122" cy="418" r="1.95" fill="#ffd336" opacity=".8"/><circle cx="100" cy="447" r="1.94" fill="#d14e5b" opacity=".8"/><circle cx="573" cy="491" r="1.94" fill="#d14e5b" opacity=".8"/><circle cx="599" cy="416" r="1.93" fill="#d14e5b" opacity=".8"/><circle cx="288" cy="398" r="1.93" fill="#d14e5b" opacity=".8"/><circle cx="225" cy="444" r="1.92" fill="#4d824b" opacity=".8"/><circle cx="396" cy="294" r="1.9" fill="#5675c1" opacity=".8"/><circle cx="280" cy="307" r="1.89" fill="#5675c1" opacity=".8"/><circle cx="66" cy="491" r="1.89" fill="#ffd336" opacity=".8"/><circle cx="363" cy="305" r="1.88" fill="#5675c1" opacity=".8"/><circle cx="178" cy="467" r="1.88" fill="#ffd336" opacity=".8"/><circle cx="560" cy="315" r="1.87" fill="#5675c1" opacity=".8"/><circle cx="421" cy="252" r="1.85" fill="#5675c1" opacity=".8"/><circle cx="522" cy="395" r="1.85" fill="#5675c1" opacity=".8"/><circle cx="199" cy="454" r="1.84" fill="#4d824b" opacity=".8"/><circle cx="107" cy="491" r="1.84" fill="#ffd336" opacity=".8"/><circle cx="224" cy="399" r="1.83" fill="#5675c1" opacity=".8"/><circle cx="339" cy="332" r="1.83" fill="#5675c1" opacity=".8"/><circle cx="359" cy="245" r="1.81" fill="#5675c1" opacity=".8"/><circle cx="238" cy="443" r="1.81" fill="#a652ba" opacity=".8"/><circle cx="171" cy="396" r="1.8" fill="#69c487" opacity=".8"/><circle cx="167" cy="491" r="1.79" fill="#ffd336" opacity=".8"/><circle cx="281" cy="428" r="1.78" fill="#69c487" opacity=".8"/><circle cx="372" cy="221" r="1.75" fill="#d14e5b" opacity=".8"/><circle cx="560" cy="205" r="1.75" fill="#d14e5b" opacity=".8"/><text x="223" y="430.16" font-size="14.3" font-family="Arial Narrow, Arial, sans-serif" fill="#666">China</text><text x="335" y="226.71" font-size="14.1" font-family="Arial Narrow, Arial, sans-serif" fill="#666">India</text><text x="307" y="316.23" font-size="11.6" font-family="Arial Narrow, Arial, sans-serif" fill="#666">Indonesia</text><text x="291" y="457.97" font-size="11.48" font-family="Arial Narrow, Arial, sans-serif" fill="#666">Brazil</text><text x="421" y="227.25" font-size="11.44" font-family="Arial Narrow, Arial, sans-serif" fill="#666">Pakistan</text><text x="477" y="288.47" font-size="11.41" font-family="Arial Narrow, Arial, sans-serif" fill="#666">Nigeria</text><text x="336" y="279.77" font-size="11.37" font-family="Arial Narrow, Arial, sans-serif" fill="#666">Bangladesh</text><text x="148" y="452.99" font-size="11.34" font-family="Arial Narrow, Arial, sans-serif" fill="#666">Russia</text><text x="324" y="450.5" font-size="11.28" font-family="Arial Narrow, Arial, sans-serif" fill="#666">Mexico</text><text x="381" y="335.92" font-size="11.24" font-family="Arial Narrow, Arial, sans-serif" fill="#666">Philippines</text><text x="284" y="370.09" font-size="11.22" font-family="Arial Narrow, Arial, sans-serif" fill="#666">Vietnam</text><text x="526" y="232.15" font-size="11.21" font-family="Arial Narrow, Arial, sans-serif" fill="#666">Ethiopia</text><text x="381" y="381.22" font-size="11.21" font-family="Arial Narrow, Arial, sans-serif" fill="#666">Egypt</text><text x="302" y="442.44" font-size="11.18" font-family="Arial Narrow, Arial, sans-serif" fill="#666">Iran</text><text x="319" y="485.47" font-size="11.18" font-family="Arial Narrow, Arial, sans-serif" fill="#666">Turkey</text><text x="319" y="395.14" font-size="11.12" font-family="Arial Narrow, Arial, sans-serif" fill="#666">South Africa</text><text x="544" y="262.2" font-size="11.12" font-family="Arial Narrow, Arial, sans-serif" fill="#666">Tanzania</text><text x="108" y="486.34" font-size="11.11" font-family="Arial Narrow, Arial, sans-serif" fill="#666">Ukraine</text><text x="510" y="329.36" font-size="11.11" font-family="Arial Narrow, Arial, sans-serif" fill="#666">Kenya</text><text x="343" y="427.59" font-size="11.09" font-family="Arial Narrow, Arial, sans-serif" fill="#666">Algeria</text><text x="612" y="235.6" font-size="11.09" font-family="Arial Narrow, Arial, sans-serif" fill="#666">Uganda</text><text x="466" y="206.62" font-size="11.09" font-family="Arial Narrow, Arial, sans-serif" fill="#666">Sudan</text><text x="535" y="313.66" font-size="11.08" font-family="Arial Narrow, Arial, sans-serif" fill="#666">Iraq</text><text x="656.15" y="224.67" font-size="11.08" font-family="Arial Narrow, Arial, sans-serif" fill="#666">Afghanistan</text><text x="297" y="421.73" font-size="11.08" font-family="Arial Narrow, Arial, sans-serif" fill="#666">Morocco</text><text x="402" y="421.84" font-size="11.07" font-family="Arial Narrow, Arial, sans-serif" fill="#666">Malaysia</text><text x="480" y="447.86" font-size="11.07" font-family="Arial Narrow, Arial, sans-serif" fill="#666">Saudi Arabia</text><text x="468" y="370.98" font-size="11.06" font-family="Arial Narrow, Arial, sans-serif" fill="#666">Ghana</text><text x="549" y="249.02" font-size="11.06" font-family="Arial Narrow, Arial, sans-serif" fill="#666">Mozambique</text><text x="241" y="269.04" font-size="11.06" font-family="Arial Narrow, Arial, sans-serif" fill="#666">North Korea</text><text x="541" y="183.12" font-size="11.05" font-family="Arial Narrow, Arial, sans-serif" fill="#666">Madagascar</text><text x="226" y="292.17" font-size="11.05" font-family="Arial Narrow, Arial, sans-serif" fill="#666">Sri Lanka</text><text x="101" y="464.17" font-size="11.05" font-family="Arial Narrow, Arial, sans-serif" fill="#666">Romania</text><text x="532" y="274.31" font-size="11.04" font-family="Arial Narrow, Arial, sans-serif" fill="#666">Burkina Faso</text><text x="277" y="487.33" font-size="11.04" font-family="Arial Narrow, Arial, sans-serif" fill="#666">Chile</text><text x="190" y="459.37" font-size="11.04" font-family="Arial Narrow, Arial, sans-serif" fill="#666">Kazakhstan</text><text x="401" y="320.46" font-size="11.03" font-family="Arial Narrow, Arial, sans-serif" fill="#666">Cambodia</text><text x="500" y="352.51" font-size="11.03" font-family="Arial Narrow, Arial, sans-serif" fill="#666">Senegal</text><text x="634" y="139.58" font-size="11.03" font-family="Arial Narrow, Arial, sans-serif" fill="#666">Chad</text><text x="449" y="241.6" font-size="11.03" font-family="Arial Narrow, Arial, sans-serif" fill="#666">Rwanda</text><text x="187" y="487.62" font-size="11.03" font-family="Arial Narrow, Arial, sans-serif" fill="#666">Cuba</text><text x="470" y="265.64" font-size="11.02" font-family="Arial Narrow, Arial, sans-serif" fill="#666">Guinea</text><text x="358" y="362.66" font-size="11.02" font-family="Arial Narrow, Arial, sans-serif" fill="#666">Bolivia</text><text x="546" y="301.7" font-size="11.02" font-family="Arial Narrow, Arial, sans-serif" fill="#666">Benin</text><text x="438" y="387.78" font-size="11.02" font-family="Arial Narrow, Arial, sans-serif" fill="#666">Honduras</text><text x="377" y="264.83" font-size="11.02" font-family="Arial Narrow, Arial, sans-serif" fill="#666">Tajikistan</text><text x="673" y="451.86" font-size="11.01" font-family="Arial Narrow, Arial, sans-serif" fill="#666">Jordan</text><text x="500" y="317.87" font-size="11.01" font-family="Arial Narrow, Arial, sans-serif" fill="#666">Togo</text><text x="226" y="414.87" font-size="11.01" font-family="Arial Narrow, Arial, sans-serif" fill="#666">El Salvador</text><text x="423" y="181.88" font-size="11.01" font-family="Arial Narrow, Arial, sans-serif" fill="#666">Sierra Leone</text><text x="347" y="463.95" font-size="11.01" font-family="Arial Narrow, Arial, sans-serif" fill="#666">Costa Rica</text><text x="344" y="91.11" font-size="11.01" font-family="Arial Narrow, Arial, sans-serif" fill="#666">Central African Republic</text><text x="641" y="208.98" font-size="11.01" font-family="Arial Narrow, Arial, sans-serif" fill="#666">Liberia</text><text x="581" y="439.98" font-size="11.01" font-family="Arial Narrow, Arial, sans-serif" fill="#666">Lebanon</text><text x="60" y="443.99" font-size="11.01" font-family="Arial Narrow, Arial, sans-serif" fill="#666">Georgia</text><text x="122" y="415.05" font-size="11.01" font-family="Arial Narrow, Arial, sans-serif" fill="#666">Albania</text><text x="100" y="444.06" font-size="11.01" font-family="Arial Narrow, Arial, sans-serif" fill="#666">Armenia</text><text x="573" y="488.06" font-size="11.01" font-family="Arial Narrow, Arial, sans-serif" fill="#666">Kuwait</text><text x="599" y="413.07" font-size="11.01" font-family="Arial Narrow, Arial, sans-serif" fill="#666">Oman</text><text x="396" y="291.1" font-size="11" font-family="Arial Narrow, Arial, sans-serif" fill="#666">Namibia</text><text x="280" y="304.11" font-size="11" font-family="Arial Narrow, Arial, sans-serif" fill="#666">Lesotho</text><text x="66" y="488.11" font-size="11" font-family="Arial Narrow, Arial, sans-serif" fill="#666">Latvia</text><text x="363" y="302.12" font-size="11" font-family="Arial Narrow, Arial, sans-serif" fill="#666">Botswana</text><text x="522" y="392.15" font-size="11" font-family="Arial Narrow, Arial, sans-serif" fill="#666">Gabon</text><text x="224" y="396.17" font-size="11" font-family="Arial Narrow, Arial, sans-serif" fill="#666">Mauritius</text><text x="359" y="242.19" font-size="11" font-family="Arial Narrow, Arial, sans-serif" fill="#666">Djibouti</text><text x="171" y="393.2" font-size="11" font-family="Arial Narrow, Arial, sans-serif" fill="#666">Guyana</text><text x="372" y="218.25" font-size="11" font-family="Arial Narrow, Arial, sans-serif" fill="#666">Timor</text><text x="560" y="202.25" font-size="11" font-family="Arial Narrow, Arial, sans-serif" fill="#666">Yemen</text></g><g class="ScatterColorLegend clickable" cursor="pointer"><g class="legendMark">,<path fill="#5675c1" d="M735 83.1h6v6h-6z"/>,<text font-size="12.6" x="746" y="90.2"><tspan x="746" y="90.18">Africa</tspan></text></g><g class="legendMark">,<path fill="#d14e5b" d="M735 100.7h6v6h-6z"/>,<text font-size="12.6" x="746" y="107.8"><tspan x="746" y="107.78">Asia</tspan></text></g><g class="legendMark">,<path fill="#ffd336" d="M735 118.3h6v6h-6z"/>,<text font-size="12.6" x="746" y="125.4"><tspan x="746" y="125.38">Europe</tspan></text></g><g class="legendMark">,<path fill="#4d824b" d="M735 135.9h6v6h-6z"/>,<text font-size="12.6" x="746" y="143"><tspan x="746" y="142.98">North America</tspan></text></g><g class="legendMark">,<path fill="#a652ba" d="M735 153.5h6v6h-6z"/>,<text font-size="12.6" x="746" y="160.6"><tspan x="746" y="160.58">Oceania</tspan></text></g><g class="legendMark">,<path fill="#69c487" d="M735 171.1h6v6h-6z"/>,<text font-size="12.6" x="746" y="178.2"><tspan x="746" y="178.18">South America</tspan></text></g></g></g><g class="SourcesFooter" fill="#777"><g class="clickable" fill="#777"><text font-size="12.6" x="15" y="581.6"><tspan x="15" y="581.58">Source: IFPRI 2017 Global Hunger Index, UN Population Division (2015)</tspan></text></g><text font-size="12.6" x="649" y="581.6"><tspan x="649.02" y="581.58"><a target="_blank" href="https://ourworldindata.org" fill="#777">OurWorldInData.org</a> • <a href="http://creativecommons.org/licenses/by-sa/4.0/deed.en_US" target="_blank" fill="#777">CC BY-SA</a></tspan></text></g></g></svg>