<svg xmlns="http://www.w3.org/2000/svg" version="1.1" style="background-color:#fff;-webkit-font-smoothing:antialiased" width="850" height="600" font-family="'Helvetica Neue',Helvetica,Arial,sans-serif" font-size="18" text-rendering="optimizeLegibility"><g class="ChartTab"><g class="HeaderView"><g opacity=".8" transform="matrix(.31 0 0 .31 770 15)"><a xmlns:xlink="http://www.w3.org/1999/xlink" xlink:href="https://ourworldindata.org" target="_blank"><g><path fill="#1B2543" d="M0 0h211.2v130.1H0z"/><path fill="#E63912" d="M0 112.2h211.2v17.9H0z"/><g><path fill="none" d="M1.2 12.3h210.2v99.2H1.2z"/><path fill="#FFF" d="M37.8 32.2c0 12.7-7.7 19.4-17.1 19.4-9.7 0-16.6-7.5-16.6-18.7 0-11.7 7.3-19.3 17.1-19.3 10.1.1 16.6 7.7 16.6 18.6zm-28.6.6c0 7.9 4.3 14.9 11.8 14.9 7.5 0 11.8-6.9 11.8-15.3 0-7.3-3.8-14.9-11.8-14.9-7.9 0-11.8 7.3-11.8 15.3zM62.7 43.8c0 2.7.1 5.1.2 7.2h-4.3l-.3-4.3h-.1c-1.3 2.1-4 4.9-8.8 4.9-4.2 0-9.1-2.3-9.1-11.6V24.6h4.8v14.6c0 5 1.5 8.4 5.9 8.4 3.2 0 5.5-2.2 6.3-4.4.3-.7.4-1.6.4-2.5V24.6h4.8v19.2zM67.3 32.8c0-3.1-.1-5.8-.2-8.2h4.2l.2 5.2h.2c1.2-3.5 4.1-5.8 7.3-5.8.5 0 .9.1 1.4.2v4.5c-.5-.1-1-.2-1.6-.2-3.4 0-5.8 2.6-6.5 6.2-.1.7-.2 1.4-.2 2.2V51h-4.8V32.8zM95.4 51L86 14.2h5l4.4 18.6c1.1 4.6 2.1 9.2 2.7 12.7h.1c.6-3.7 1.8-8 3-12.8l4.9-18.5h5l4.5 18.7c1 4.4 2 8.7 2.6 12.6h.1c.8-4 1.8-8.1 3-12.7l4.9-18.5h4.9L120.6 51h-5L111 31.9c-1.1-4.7-1.9-8.3-2.4-12h-.1c-.7 3.7-1.5 7.3-2.8 12L100.4 51h-5zM154.9 37.6c0 9.8-6.8 14-13.2 14-7.2 0-12.7-5.2-12.7-13.6 0-8.8 5.8-14 13.1-14 7.7 0 12.8 5.5 12.8 13.6zm-21 .3c0 5.8 3.3 10.1 8 10.1 4.6 0 8-4.3 8-10.3 0-4.5-2.2-10.1-7.9-10.1s-8.1 5.2-8.1 10.3zM158.2 32.8c0-3.1-.1-5.8-.2-8.2h4.2l.2 5.2h.2c1.2-3.5 4.1-5.8 7.3-5.8.5 0 .9.1 1.4.2v4.5c-.5-.1-1-.2-1.6-.2-3.4 0-5.8 2.6-6.5 6.2-.1.7-.2 1.4-.2 2.2V51h-4.8V32.8zM173.5 12.3h4.8V51h-4.8V12.3zM206.5 12.3v31.9c0 2.3.1 5 .2 6.8h-4.3l-.2-4.6h-.2c-1.5 2.9-4.7 5.2-9 5.2-6.4 0-11.3-5.4-11.3-13.4-.1-8.8 5.4-14.2 11.9-14.2 4 0 6.8 1.9 8 4h.1V12.3h4.8zm-4.8 23.1c0-.6-.1-1.4-.2-2a7 7 0 00-6.9-5.6c-5 0-7.9 4.4-7.9 10.2 0 5.3 2.6 9.8 7.8 9.8 3.2 0 6.2-2.1 7.1-5.7.2-.7.2-1.3.2-2.1v-4.6zM42.8 64c.1 1.6-1.1 2.9-3.1 2.9-1.7 0-2.9-1.3-2.9-2.9 0-1.7 1.3-3 3-3 1.9 0 3 1.3 3 3zm-5.4 33.8V71.4h4.8v26.4h-4.8zM47.5 78.6c0-2.7-.1-5-.2-7.1h4.3l.3 4.4h.1c1.3-2.5 4.4-5 8.8-5 3.7 0 9.4 2.2 9.4 11.2v15.8h-4.8V82.6c0-4.3-1.6-7.8-6.1-7.8-3.2 0-5.6 2.2-6.5 4.9-.2.6-.3 1.4-.3 2.2v15.9h-4.8V78.6zM84 61.6c2.9-.4 6.3-.8 10.1-.8 6.8 0 11.7 1.6 14.9 4.6 3.3 3 5.2 7.3 5.2 13.2 0 6-1.9 10.9-5.3 14.3-3.4 3.4-9.1 5.3-16.3 5.3-3.4 0-6.2-.2-8.6-.4V61.6zm4.8 32.5c1.2.2 3 .3 4.8.3 10.2 0 15.7-5.7 15.7-15.6.1-8.7-4.9-14.2-14.9-14.2-2.5 0-4.3.2-5.6.5v29zM132.1 97.8l-.4-3.3h-.2a9.79 9.79 0 01-8.1 3.9c-5.4 0-8.1-3.8-8.1-7.6 0-6.4 5.7-9.9 15.9-9.8v-.5c0-2.2-.6-6.1-6-6.1-2.5 0-5 .8-6.9 2l-1.1-3.2c2.2-1.4 5.4-2.3 8.7-2.3 8.1 0 10.1 5.5 10.1 10.8v9.9c0 2.3.1 4.5.4 6.3h-4.3zm-.7-13.4c-5.3-.1-11.2.8-11.2 5.9 0 3.1 2.1 4.6 4.5 4.6 3.4 0 5.6-2.2 6.4-4.4.2-.5.3-1 .3-1.5v-4.6zM146.6 63.9v7.6h6.9v3.7h-6.9v14.2c0 3.3.9 5.1 3.6 5.1 1.3 0 2.2-.2 2.8-.3l.2 3.6c-.9.4-2.4.7-4.3.7-2.2 0-4-.7-5.2-2-1.4-1.4-1.9-3.8-1.9-6.9V75.1h-4.1v-3.7h4.1v-6.3l4.8-1.2zM171.4 97.8l-.4-3.3h-.2a9.79 9.79 0 01-8.1 3.9c-5.4 0-8.1-3.8-8.1-7.6 0-6.4 5.7-9.9 15.9-9.8v-.5c0-2.2-.6-6.1-6-6.1-2.5 0-5 .8-6.9 2l-1.1-3.2c2.2-1.4 5.4-2.3 8.7-2.3 8.1 0 10.1 5.5 10.1 10.8v9.9c0 2.3.1 4.5.4 6.3h-4.3zm-.7-13.4c-5.3-.1-11.2.8-11.2 5.9 0 3.1 2.1 4.6 4.5 4.6 3.4 0 5.6-2.2 6.4-4.4.2-.5.3-1 .3-1.5v-4.6z"/></g></g></a></g><a href="https://ourworldindata.org/grapher/global-demand-for-education-growth-to-2100-of-under-15-by-WittgensteinCentre" target="_blank"><text font-size="27" x="15" y="36.6" fill="#555"><tspan x="15" y="36.6">Projection of the population under 15, by world region</tspan></text></a></g><g class="LineChart"><defs><clipPath id="a"><path d="M87.6 0h830v963h-830z"/></clipPath></defs><g class="AxisBoxView"><g class="HorizontalAxis" fill="#666" text-anchor="middle" font-size="16.2"><text x="97.6" y="556.5">1970</text><text x="213.2" y="556.5">2000</text><text x="290.3" y="556.5">2020</text><text x="367.4" y="556.5">2040</text><text x="444.5" y="556.5">2060</text><text x="521.5" y="556.5">2080</text><text x="598.6" y="556.5">2100</text></g><g class="VerticalAxis" fill="#666" dominant-baseline="middle" text-anchor="end" font-size="16.2"><text x="92.6" y="535.3">0</text><text x="92.6" y="486.3">200 million</text><text x="92.6" y="437.3">400 million</text><text x="92.6" y="388.2">600 million</text><text x="92.6" y="339.2">800 million</text><text x="92.6" y="290.2">1 billion</text><text x="92.6" y="241.2">1.2 billion</text><text x="92.6" y="192.1">1.4 billion</text><text x="92.6" y="143.1">1.6 billion</text><text x="92.6" y="94.1">1.8 billion</text></g><g class="AxisGridLines"><path stroke="#ccc" d="M97.6 535.3h501.01"/><path stroke="#ddd" stroke-dasharray="3,2" d="M97.6 486.3h501.01M97.6 437.3h501.01M97.6 388.2h501.01M97.6 339.2h501.01M97.6 290.2h501.01M97.6 241.2h501.01M97.6 192.1h501.01M97.6 143.1h501.01M97.6 94.1h501.01"/></g><g class="AxisGridLines" stroke="#ddd" stroke-dasharray="3,2"><path d="M136.1 535.3V75M213.2 535.3V75M290.3 535.3V75M367.4 535.3V75M444.5 535.3V75M521.5 535.3V75M598.6 535.3V75"/></g></g><g clip-path="url(#a)"><g class="HeightedLegend clickable"><g class="legendMark"><path fill="#3360a9" d="M608.61 526.85h10v2.5h-10z"/><text font-size="14.4" x="623.6" y="532.4" fill="#333"><tspan x="623.61" y="532.42">Oceania</tspan></text></g><g class="legendMark"><path fill="#ca2628" d="M608.61 512.45h10v2.5h-10z"/><text font-size="14.4" x="623.6" y="518" fill="#333"><tspan x="623.61" y="518.02">Northern America</tspan></text></g><g class="legendMark"><path fill="#34983f" d="M608.61 498.05h10v2.5h-10z"/><text font-size="14.4" x="623.6" y="503.6" fill="#333"><tspan x="623.61" y="503.62">Latin America and the Caribbean</tspan></text></g><g class="legendMark"><path fill="#f6a324" d="M608.61 483.65h10v2.5h-10z"/><text font-size="14.4" x="623.6" y="489.2" fill="#333"><tspan x="623.61" y="489.22">Europe</tspan></text></g><g class="legendMark"><path fill="#a652ba" d="M608.61 423.25h10v2.5h-10z"/><text font-size="14.4" x="623.6" y="428.8" fill="#333"><tspan x="623.61" y="428.82">Africa</tspan></text></g><g class="legendMark"><path fill="#2a939b" d="M608.61 403.15h10v2.5h-10z"/><text font-size="14.4" x="623.6" y="408.7" fill="#333"><tspan x="623.61" y="408.72">Asia</tspan></text></g><g class="legendMark"><path fill="#e6332e" d="M608.61 230.95h10v2.5h-10z"/><text font-size="14.4" x="623.6" y="236.5" fill="#333"><tspan x="623.61" y="236.52">World</tspan></text></g></g><g class="Lines"><g class="key-Northern-America_0"><path stroke="#ca2628" stroke-linecap="round" d="M98 519l19 1 19 1h19l20-1h19l19-1h77l20-1h19l19-1h97l19-1h58l19 1h58" fill="none" stroke-width="1.5"/><g fill="#ca2628"><circle cx="98" cy="519" r="2"/><circle cx="117" cy="520" r="2"/><circle cx="136" cy="521" r="2"/><circle cx="155" cy="521" r="2"/><circle cx="175" cy="520" r="2"/><circle cx="194" cy="520" r="2"/><circle cx="213" cy="519" r="2"/><circle cx="233" cy="519" r="2"/><circle cx="252" cy="519" r="2"/><circle cx="271" cy="519" r="2"/><circle cx="290" cy="519" r="2"/><circle cx="310" cy="518" r="2"/><circle cx="329" cy="518" r="2"/><circle cx="348" cy="517" r="2"/><circle cx="367" cy="517" r="2"/><circle cx="387" cy="517" r="2"/><circle cx="406" cy="517" r="2"/><circle cx="425" cy="517" r="2"/><circle cx="445" cy="517" r="2"/><circle cx="464" cy="516" r="2"/><circle cx="483" cy="516" r="2"/><circle cx="502" cy="516" r="2"/><circle cx="522" cy="516" r="2"/><circle cx="541" cy="517" r="2"/><circle cx="560" cy="517" r="2"/><circle cx="579" cy="517" r="2"/><circle cx="599" cy="517" r="2"/></g></g><g class="key-World_0"><path stroke="#e6332e" stroke-linecap="round" d="M98 198l19-28 19-19 19-17 20-23 19-20 19-8 20 4 19-3 19-5 19-4 20 2 19 5 19 6 19 6 20 6 19 8 19 11 20 13 19 13 19 12 19 11 20 12 19 14 19 13 19 13 20 12" fill="none" stroke-width="1.5"/><g fill="#e6332e"><circle cx="98" cy="198" r="2"/><circle cx="117" cy="170" r="2"/><circle cx="136" cy="151" r="2"/><circle cx="155" cy="134" r="2"/><circle cx="175" cy="111" r="2"/><circle cx="194" cy="91" r="2"/><circle cx="213" cy="83" r="2"/><circle cx="233" cy="87" r="2"/><circle cx="252" cy="84" r="2"/><circle cx="271" cy="79" r="2"/><circle cx="290" cy="75" r="2"/><circle cx="310" cy="77" r="2"/><circle cx="329" cy="82" r="2"/><circle cx="348" cy="88" r="2"/><circle cx="367" cy="94" r="2"/><circle cx="387" cy="100" r="2"/><circle cx="406" cy="108" r="2"/><circle cx="425" cy="119" r="2"/><circle cx="445" cy="132" r="2"/><circle cx="464" cy="145" r="2"/><circle cx="483" cy="157" r="2"/><circle cx="502" cy="168" r="2"/><circle cx="522" cy="180" r="2"/><circle cx="541" cy="194" r="2"/><circle cx="560" cy="207" r="2"/><circle cx="579" cy="220" r="2"/><circle cx="599" cy="232" r="2"/></g></g><g class="key-Latin-America-and-the-Caribbean_0"><path stroke="#34983f" stroke-linecap="round" d="M98 506l19-3 19-3 19-2 20-2 19-1h58l19 1 19 1 20 1 19 1 19 1 19 1 20 1 19 2 19 1 20 2 19 1 19 1 19 1 20 2 19 1 19 1 19 1 20 1" fill="none" stroke-width="1.5"/><g fill="#34983f"><circle cx="98" cy="506" r="2"/><circle cx="117" cy="503" r="2"/><circle cx="136" cy="500" r="2"/><circle cx="155" cy="498" r="2"/><circle cx="175" cy="496" r="2"/><circle cx="194" cy="495" r="2"/><circle cx="213" cy="495" r="2"/><circle cx="233" cy="495" r="2"/><circle cx="252" cy="495" r="2"/><circle cx="271" cy="496" r="2"/><circle cx="290" cy="497" r="2"/><circle cx="310" cy="498" r="2"/><circle cx="329" cy="499" r="2"/><circle cx="348" cy="500" r="2"/><circle cx="367" cy="501" r="2"/><circle cx="387" cy="502" r="2"/><circle cx="406" cy="504" r="2"/><circle cx="425" cy="505" r="2"/><circle cx="445" cy="507" r="2"/><circle cx="464" cy="508" r="2"/><circle cx="483" cy="509" r="2"/><circle cx="502" cy="510" r="2"/><circle cx="522" cy="512" r="2"/><circle cx="541" cy="513" r="2"/><circle cx="560" cy="514" r="2"/><circle cx="579" cy="515" r="2"/><circle cx="599" cy="516" r="2"/></g></g><g class="key-Oceania_0"><path stroke="#3360a9" stroke-linecap="round" d="M98 534h96l19-1h386" fill="none" stroke-width="1.5"/><g fill="#3360a9"><circle cx="98" cy="534" r="2"/><circle cx="117" cy="534" r="2"/><circle cx="136" cy="534" r="2"/><circle cx="155" cy="534" r="2"/><circle cx="175" cy="534" r="2"/><circle cx="194" cy="534" r="2"/><circle cx="213" cy="533" r="2"/><circle cx="233" cy="533" r="2"/><circle cx="252" cy="533" r="2"/><circle cx="271" cy="533" r="2"/><circle cx="290" cy="533" r="2"/><circle cx="310" cy="533" r="2"/><circle cx="329" cy="533" r="2"/><circle cx="348" cy="533" r="2"/><circle cx="367" cy="533" r="2"/><circle cx="387" cy="533" r="2"/><circle cx="406" cy="533" r="2"/><circle cx="425" cy="533" r="2"/><circle cx="445" cy="533" r="2"/><circle cx="464" cy="533" r="2"/><circle cx="483" cy="533" r="2"/><circle cx="502" cy="533" r="2"/><circle cx="522" cy="533" r="2"/><circle cx="541" cy="533" r="2"/><circle cx="560" cy="533" r="2"/><circle cx="579" cy="533" r="2"/><circle cx="599" cy="533" r="2"/></g></g><g class="key-Europe_0"><path stroke="#f6a324" stroke-linecap="round" d="M98 495l19 1 19 2 19 1h20l19 2 19 3 20 3h77l19 1 19 1 19 1 20-1h19l19 1h39l19 1h39l19 1h19l19 1 20 1" fill="none" stroke-width="1.5"/><g fill="#f6a324"><circle cx="98" cy="495" r="2"/><circle cx="117" cy="496" r="2"/><circle cx="136" cy="498" r="2"/><circle cx="155" cy="499" r="2"/><circle cx="175" cy="499" r="2"/><circle cx="194" cy="501" r="2"/><circle cx="213" cy="504" r="2"/><circle cx="233" cy="507" r="2"/><circle cx="252" cy="507" r="2"/><circle cx="271" cy="507" r="2"/><circle cx="290" cy="507" r="2"/><circle cx="310" cy="507" r="2"/><circle cx="329" cy="508" r="2"/><circle cx="348" cy="509" r="2"/><circle cx="367" cy="510" r="2"/><circle cx="387" cy="509" r="2"/><circle cx="406" cy="509" r="2"/><circle cx="425" cy="510" r="2"/><circle cx="445" cy="510" r="2"/><circle cx="464" cy="510" r="2"/><circle cx="483" cy="511" r="2"/><circle cx="502" cy="511" r="2"/><circle cx="522" cy="511" r="2"/><circle cx="541" cy="512" r="2"/><circle cx="560" cy="512" r="2"/><circle cx="579" cy="513" r="2"/><circle cx="599" cy="514" r="2"/></g></g><g class="key-Asia_0"><path stroke="#2a939b" stroke-linecap="round" d="M98 326l19-22 19-11 19-8 20-13 19-12 19-3 20 9 19 6 19 4 19 3 20 7 19 9 19 9 19 8 20 8 19 8 19 9 20 9 19 8 19 8 19 7 20 7 19 8 19 7 19 7 20 6" fill="none" stroke-width="1.5"/><g fill="#2a939b"><circle cx="98" cy="326" r="2"/><circle cx="117" cy="304" r="2"/><circle cx="136" cy="293" r="2"/><circle cx="155" cy="285" r="2"/><circle cx="175" cy="272" r="2"/><circle cx="194" cy="260" r="2"/><circle cx="213" cy="257" r="2"/><circle cx="233" cy="266" r="2"/><circle cx="252" cy="272" r="2"/><circle cx="271" cy="276" r="2"/><circle cx="290" cy="279" r="2"/><circle cx="310" cy="286" r="2"/><circle cx="329" cy="295" r="2"/><circle cx="348" cy="304" r="2"/><circle cx="367" cy="312" r="2"/><circle cx="387" cy="320" r="2"/><circle cx="406" cy="328" r="2"/><circle cx="425" cy="337" r="2"/><circle cx="445" cy="346" r="2"/><circle cx="464" cy="354" r="2"/><circle cx="483" cy="362" r="2"/><circle cx="502" cy="369" r="2"/><circle cx="522" cy="376" r="2"/><circle cx="541" cy="384" r="2"/><circle cx="560" cy="391" r="2"/><circle cx="579" cy="398" r="2"/><circle cx="599" cy="404" r="2"/></g></g><g class="key-Africa_0"><path stroke="#a652ba" stroke-linecap="round" d="M98 495l19-6 19-7 19-8 20-8 19-7 19-8 20-8 19-9 19-9 19-8 20-6 19-5 19-5 19-3 20-2 19-2 19 1 20 2 19 2 19 3 19 3 20 3 19 4 19 4 19 4 20 5" fill="none" stroke-width="1.5"/><g fill="#a652ba"><circle cx="98" cy="495" r="2"/><circle cx="117" cy="489" r="2"/><circle cx="136" cy="482" r="2"/><circle cx="155" cy="474" r="2"/><circle cx="175" cy="466" r="2"/><circle cx="194" cy="459" r="2"/><circle cx="213" cy="451" r="2"/><circle cx="233" cy="443" r="2"/><circle cx="252" cy="434" r="2"/><circle cx="271" cy="425" r="2"/><circle cx="290" cy="417" r="2"/><circle cx="310" cy="411" r="2"/><circle cx="329" cy="406" r="2"/><circle cx="348" cy="401" r="2"/><circle cx="367" cy="398" r="2"/><circle cx="387" cy="396" r="2"/><circle cx="406" cy="394" r="2"/><circle cx="425" cy="395" r="2"/><circle cx="445" cy="397" r="2"/><circle cx="464" cy="399" r="2"/><circle cx="483" cy="402" r="2"/><circle cx="502" cy="405" r="2"/><circle cx="522" cy="408" r="2"/><circle cx="541" cy="412" r="2"/><circle cx="560" cy="416" r="2"/><circle cx="579" cy="420" r="2"/><circle cx="599" cy="425" r="2"/></g></g></g></g></g><g class="SourcesFooter" fill="#777"><g class="clickable" fill="#777"><text font-size="12.6" x="15" y="581.6"><tspan x="15" y="581.58">Source: Medium SSP2 - Wittgenstein Centre for Demography and Global Human Capital</tspan></text></g><text font-size="12.6" x="649" y="581.6"><tspan x="649.02" y="581.58"><a target="_blank" href="https://ourworldindata.org" fill="#777">OurWorldInData.org</a> • <a href="http://creativecommons.org/licenses/by-sa/4.0/deed.en_US" target="_blank" fill="#777">CC BY-SA</a></tspan></text></g></g></svg>