<svg xmlns="http://www.w3.org/2000/svg" version="1.1" style="background-color:#fff;-webkit-font-smoothing:antialiased" width="850" height="600" font-family="'Helvetica Neue',Helvetica,Arial,sans-serif" font-size="18" text-rendering="optimizeLegibility"><g class="ChartTab"><g class="HeaderView"><g opacity=".8" transform="matrix(.27 0 0 .27 778 15)"><a xmlns:xlink="http://www.w3.org/1999/xlink" xlink:href="https://ourworldindata.org" target="_blank"><g><path fill="#1B2543" d="M0 0h211.2v130.1H0z"/><path fill="#E63912" d="M0 112.2h211.2v17.9H0z"/><g><path fill="none" d="M1.2 12.3h210.2v99.2H1.2z"/><path fill="#FFF" d="M37.8 32.2c0 12.7-7.7 19.4-17.1 19.4-9.7 0-16.6-7.5-16.6-18.7 0-11.7 7.3-19.3 17.1-19.3 10.1.1 16.6 7.7 16.6 18.6zm-28.6.6c0 7.9 4.3 14.9 11.8 14.9 7.5 0 11.8-6.9 11.8-15.3 0-7.3-3.8-14.9-11.8-14.9-7.9 0-11.8 7.3-11.8 15.3zM62.7 43.8c0 2.7.1 5.1.2 7.2h-4.3l-.3-4.3h-.1c-1.3 2.1-4 4.9-8.8 4.9-4.2 0-9.1-2.3-9.1-11.6V24.6h4.8v14.6c0 5 1.5 8.4 5.9 8.4 3.2 0 5.5-2.2 6.3-4.4.3-.7.4-1.6.4-2.5V24.6h4.8v19.2zM67.3 32.8c0-3.1-.1-5.8-.2-8.2h4.2l.2 5.2h.2c1.2-3.5 4.1-5.8 7.3-5.8.5 0 .9.1 1.4.2v4.5c-.5-.1-1-.2-1.6-.2-3.4 0-5.8 2.6-6.5 6.2-.1.7-.2 1.4-.2 2.2V51h-4.8V32.8zM95.4 51L86 14.2h5l4.4 18.6c1.1 4.6 2.1 9.2 2.7 12.7h.1c.6-3.7 1.8-8 3-12.8l4.9-18.5h5l4.5 18.7c1 4.4 2 8.7 2.6 12.6h.1c.8-4 1.8-8.1 3-12.7l4.9-18.5h4.9L120.6 51h-5L111 31.9c-1.1-4.7-1.9-8.3-2.4-12h-.1c-.7 3.7-1.5 7.3-2.8 12L100.4 51h-5zM154.9 37.6c0 9.8-6.8 14-13.2 14-7.2 0-12.7-5.2-12.7-13.6 0-8.8 5.8-14 13.1-14 7.7 0 12.8 5.5 12.8 13.6zm-21 .3c0 5.8 3.3 10.1 8 10.1 4.6 0 8-4.3 8-10.3 0-4.5-2.2-10.1-7.9-10.1s-8.1 5.2-8.1 10.3zM158.2 32.8c0-3.1-.1-5.8-.2-8.2h4.2l.2 5.2h.2c1.2-3.5 4.1-5.8 7.3-5.8.5 0 .9.1 1.4.2v4.5c-.5-.1-1-.2-1.6-.2-3.4 0-5.8 2.6-6.5 6.2-.1.7-.2 1.4-.2 2.2V51h-4.8V32.8zM173.5 12.3h4.8V51h-4.8V12.3zM206.5 12.3v31.9c0 2.3.1 5 .2 6.8h-4.3l-.2-4.6h-.2c-1.5 2.9-4.7 5.2-9 5.2-6.4 0-11.3-5.4-11.3-13.4-.1-8.8 5.4-14.2 11.9-14.2 4 0 6.8 1.9 8 4h.1V12.3h4.8zm-4.8 23.1c0-.6-.1-1.4-.2-2a7 7 0 00-6.9-5.6c-5 0-7.9 4.4-7.9 10.2 0 5.3 2.6 9.8 7.8 9.8 3.2 0 6.2-2.1 7.1-5.7.2-.7.2-1.3.2-2.1v-4.6zM42.8 64c.1 1.6-1.1 2.9-3.1 2.9-1.7 0-2.9-1.3-2.9-2.9 0-1.7 1.3-3 3-3 1.9 0 3 1.3 3 3zm-5.4 33.8V71.4h4.8v26.4h-4.8zM47.5 78.6c0-2.7-.1-5-.2-7.1h4.3l.3 4.4h.1c1.3-2.5 4.4-5 8.8-5 3.7 0 9.4 2.2 9.4 11.2v15.8h-4.8V82.6c0-4.3-1.6-7.8-6.1-7.8-3.2 0-5.6 2.2-6.5 4.9-.2.6-.3 1.4-.3 2.2v15.9h-4.8V78.6zM84 61.6c2.9-.4 6.3-.8 10.1-.8 6.8 0 11.7 1.6 14.9 4.6 3.3 3 5.2 7.3 5.2 13.2 0 6-1.9 10.9-5.3 14.3-3.4 3.4-9.1 5.3-16.3 5.3-3.4 0-6.2-.2-8.6-.4V61.6zm4.8 32.5c1.2.2 3 .3 4.8.3 10.2 0 15.7-5.7 15.7-15.6.1-8.7-4.9-14.2-14.9-14.2-2.5 0-4.3.2-5.6.5v29zM132.1 97.8l-.4-3.3h-.2a9.79 9.79 0 01-8.1 3.9c-5.4 0-8.1-3.8-8.1-7.6 0-6.4 5.7-9.9 15.9-9.8v-.5c0-2.2-.6-6.1-6-6.1-2.5 0-5 .8-6.9 2l-1.1-3.2c2.2-1.4 5.4-2.3 8.7-2.3 8.1 0 10.1 5.5 10.1 10.8v9.9c0 2.3.1 4.5.4 6.3h-4.3zm-.7-13.4c-5.3-.1-11.2.8-11.2 5.9 0 3.1 2.1 4.6 4.5 4.6 3.4 0 5.6-2.2 6.4-4.4.2-.5.3-1 .3-1.5v-4.6zM146.6 63.9v7.6h6.9v3.7h-6.9v14.2c0 3.3.9 5.1 3.6 5.1 1.3 0 2.2-.2 2.8-.3l.2 3.6c-.9.4-2.4.7-4.3.7-2.2 0-4-.7-5.2-2-1.4-1.4-1.9-3.8-1.9-6.9V75.1h-4.1v-3.7h4.1v-6.3l4.8-1.2zM171.4 97.8l-.4-3.3h-.2a9.79 9.79 0 01-8.1 3.9c-5.4 0-8.1-3.8-8.1-7.6 0-6.4 5.7-9.9 15.9-9.8v-.5c0-2.2-.6-6.1-6-6.1-2.5 0-5 .8-6.9 2l-1.1-3.2c2.2-1.4 5.4-2.3 8.7-2.3 8.1 0 10.1 5.5 10.1 10.8v9.9c0 2.3.1 4.5.4 6.3h-4.3zm-.7-13.4c-5.3-.1-11.2.8-11.2 5.9 0 3.1 2.1 4.6 4.5 4.6 3.4 0 5.6-2.2 6.4-4.4.2-.5.3-1 .3-1.5v-4.6z"/></g></g></a></g><a href="https://ourworldindata.org/grapher/global-precipitation-anomaly" target="_blank"><text font-size="25.2" x="15" y="35.2" fill="#555"><tspan x="15" y="35.16">Global precipitation anomaly</tspan></text></a><text font-size="14.4" x="15" y="53.7" fill="#666"><tspan x="15" y="53.72">This indicator shows annual anomalies, or differences, compared with the average precipitation from 1901 to 2000</tspan><tspan x="15" y="69.56">based on rainfall and snowfall measurements from land-based weather stations worldwide. Global anomalies have</tspan><tspan x="15" y="85.4">been determined by dividing the world into a grid, averaging the data for each cell of the grid, and then averaging the</tspan><tspan x="15" y="101.24">grid cells together.</tspan></text></g><g class="LineChart"><defs><clipPath id="a"><path d="M89.54 0h830v866.8h-830z"/></clipPath></defs><g class="AxisBoxView"><g class="HorizontalAxis" fill="#666" text-anchor="middle" font-size="16.2"><text x="99.5" y="556.5">1901</text><text x="210.4" y="556.5">1920</text><text x="327.1" y="556.5">1940</text><text x="443.8" y="556.5">1960</text><text x="560.5" y="556.5">1980</text><text x="677.2" y="556.5">2000</text><text x="764.8" y="556.5">2015</text></g><g class="VerticalAxis" fill="#666" dominant-baseline="middle" text-anchor="end" font-size="16.2"><text x="94.54" y="489.1">-1.5 inches</text><text x="94.54" y="439">-1 inches</text><text x="94.54" y="388.9">-0.5 inches</text><text x="94.54" y="338.9">0 inches</text><text x="94.54" y="288.8">0.5 inches</text><text x="94.54" y="238.7">1 inches</text><text x="94.54" y="188.7">1.5 inches</text><text x="94.54" y="138.6">2 inches</text></g><g class="AxisGridLines"><path stroke="#ddd" stroke-dasharray="3,2" d="M99.54 489.1h665.22M99.54 439h665.22M99.54 388.9h665.22"/><path stroke="#ccc" d="M99.54 338.9h665.22"/><path stroke="#ddd" stroke-dasharray="3,2" d="M99.54 288.8h665.22M99.54 238.7h665.22M99.54 188.7h665.22M99.54 138.6h665.22"/></g></g><g clip-path="url(#a)"><g class="HeightedLegend clickable"><g class="legendMark"><text font-size="13.5" x="769.8" y="348.4" fill="#3360a9"><tspan x="769.76" y="348.45">World</tspan></text></g></g><g class="Lines"><g class="key-World_0"><path stroke="#3360a9" stroke-linecap="round" d="M100 423l5 112 6-139 6 51 6 5 6-86 6 24 5-33 6-26 6 8 6 120 6-29 6 19 5 11 6-78 6-215 6 116 6 100 6 95 5-126 6-57 6-28 6 37 6-6 6 79 5 27 6-106 6 34 6 28 6 99 6-63 5-2 6-69 6-20 6 38 6-31 6 52 5-15 6-33 6 125 6-5 6-84 6 11 6-4 5-4 6 8 6-100 6 49 6 27 6-115 5 140 6-28 6-53 6-97 6-3 6-34 5 175 6-45 6-41 6 9 6 8 6 32 5 58 6-46 6 107 6-100 6-5 6 85 5-60 6-61 6 75 6 62 6-214 6 36 5 4 6 137 6 19 6-82 6-52 6 51 5-16 6 125 6 38 6-111 6 20 6 63 5 51 6-217 6 26 6 47 6 78 6 92 5-58 6-84 6 44 6-129 6 84 6-56 5-93 6-55 6 201 6 36 6-63 6-47 5 21 6-104 6 103 6-89 6 149 6-234 5 20 6 180 6 2 6 13 6 6" fill="none" stroke-width="1.5"/><g fill="#3360a9"><circle cx="100" cy="423" r="2"/><circle cx="105" cy="535" r="2"/><circle cx="111" cy="396" r="2"/><circle cx="117" cy="447" r="2"/><circle cx="123" cy="452" r="2"/><circle cx="129" cy="366" r="2"/><circle cx="135" cy="390" r="2"/><circle cx="140" cy="357" r="2"/><circle cx="146" cy="331" r="2"/><circle cx="152" cy="339" r="2"/><circle cx="158" cy="459" r="2"/><circle cx="164" cy="430" r="2"/><circle cx="170" cy="449" r="2"/><circle cx="175" cy="460" r="2"/><circle cx="181" cy="382" r="2"/><circle cx="187" cy="167" r="2"/><circle cx="193" cy="283" r="2"/><circle cx="199" cy="383" r="2"/><circle cx="205" cy="478" r="2"/><circle cx="210" cy="352" r="2"/><circle cx="216" cy="295" r="2"/><circle cx="222" cy="267" r="2"/><circle cx="228" cy="304" r="2"/><circle cx="234" cy="298" r="2"/><circle cx="240" cy="377" r="2"/><circle cx="245" cy="404" r="2"/><circle cx="251" cy="298" r="2"/><circle cx="257" cy="332" r="2"/><circle cx="263" cy="360" r="2"/><circle cx="269" cy="459" r="2"/><circle cx="275" cy="396" r="2"/><circle cx="280" cy="394" r="2"/><circle cx="286" cy="325" r="2"/><circle cx="292" cy="305" r="2"/><circle cx="298" cy="343" r="2"/><circle cx="304" cy="312" r="2"/><circle cx="310" cy="364" r="2"/><circle cx="315" cy="349" r="2"/><circle cx="321" cy="316" r="2"/><circle cx="327" cy="441" r="2"/><circle cx="333" cy="436" r="2"/><circle cx="339" cy="352" r="2"/><circle cx="345" cy="363" r="2"/><circle cx="351" cy="359" r="2"/><circle cx="356" cy="355" r="2"/><circle cx="362" cy="363" r="2"/><circle cx="368" cy="263" r="2"/><circle cx="374" cy="312" r="2"/><circle cx="380" cy="339" r="2"/><circle cx="386" cy="224" r="2"/><circle cx="391" cy="364" r="2"/><circle cx="397" cy="336" r="2"/><circle cx="403" cy="283" r="2"/><circle cx="409" cy="186" r="2"/><circle cx="415" cy="183" r="2"/><circle cx="421" cy="149" r="2"/><circle cx="426" cy="324" r="2"/><circle cx="432" cy="279" r="2"/><circle cx="438" cy="238" r="2"/><circle cx="444" cy="247" r="2"/><circle cx="450" cy="255" r="2"/><circle cx="456" cy="287" r="2"/><circle cx="461" cy="345" r="2"/><circle cx="467" cy="299" r="2"/><circle cx="473" cy="406" r="2"/><circle cx="479" cy="306" r="2"/><circle cx="485" cy="301" r="2"/><circle cx="491" cy="386" r="2"/><circle cx="496" cy="326" r="2"/><circle cx="502" cy="265" r="2"/><circle cx="508" cy="340" r="2"/><circle cx="514" cy="402" r="2"/><circle cx="520" cy="188" r="2"/><circle cx="526" cy="224" r="2"/><circle cx="531" cy="228" r="2"/><circle cx="537" cy="365" r="2"/><circle cx="543" cy="384" r="2"/><circle cx="549" cy="302" r="2"/><circle cx="555" cy="250" r="2"/><circle cx="561" cy="301" r="2"/><circle cx="566" cy="285" r="2"/><circle cx="572" cy="410" r="2"/><circle cx="578" cy="448" r="2"/><circle cx="584" cy="337" r="2"/><circle cx="590" cy="357" r="2"/><circle cx="596" cy="420" r="2"/><circle cx="601" cy="471" r="2"/><circle cx="607" cy="254" r="2"/><circle cx="613" cy="280" r="2"/><circle cx="619" cy="327" r="2"/><circle cx="625" cy="405" r="2"/><circle cx="631" cy="497" r="2"/><circle cx="636" cy="439" r="2"/><circle cx="642" cy="355" r="2"/><circle cx="648" cy="399" r="2"/><circle cx="654" cy="270" r="2"/><circle cx="660" cy="354" r="2"/><circle cx="666" cy="298" r="2"/><circle cx="671" cy="205" r="2"/><circle cx="677" cy="150" r="2"/><circle cx="683" cy="351" r="2"/><circle cx="689" cy="387" r="2"/><circle cx="695" cy="324" r="2"/><circle cx="701" cy="277" r="2"/><circle cx="706" cy="298" r="2"/><circle cx="712" cy="194" r="2"/><circle cx="718" cy="297" r="2"/><circle cx="724" cy="208" r="2"/><circle cx="730" cy="357" r="2"/><circle cx="736" cy="123" r="2"/><circle cx="741" cy="143" r="2"/><circle cx="747" cy="323" r="2"/><circle cx="753" cy="325" r="2"/><circle cx="759" cy="338" r="2"/><circle cx="765" cy="344" r="2"/></g></g></g></g></g><g class="SourcesFooter" fill="#777"><g class="clickable" fill="#777"><text font-size="12.6" x="15" y="581.6"><tspan x="15" y="581.58">Source: National Oceanic &amp; Atmospheric Administration (NOAA) via the US EPA</tspan></text></g><text font-size="12.6" x="775.4" y="581.6"><tspan x="775.4" y="581.58"><a class="cclogo" href="http://creativecommons.org/licenses/by-sa/4.0/deed.en_US" target="_blank" fill="#777">CC BY-SA</a></tspan></text></g></g></svg>