<svg xmlns="http://www.w3.org/2000/svg" version="1.1" style="background-color:#fff;-webkit-font-smoothing:antialiased" width="850" height="600" font-family="'Helvetica Neue',Helvetica,Arial,sans-serif" font-size="18" text-rendering="optimizeLegibility"><g class="ChartTab"><g class="HeaderView"><g opacity=".8" transform="matrix(.31 0 0 .31 770 15)"><a xmlns:xlink="http://www.w3.org/1999/xlink" xlink:href="https://ourworldindata.org" target="_blank"><g><path fill="#1B2543" d="M0 0h211.2v130.1H0z"/><path fill="#E63912" d="M0 112.2h211.2v17.9H0z"/><g><path fill="none" d="M1.2 12.3h210.2v99.2H1.2z"/><path fill="#FFF" d="M37.8 32.2c0 12.7-7.7 19.4-17.1 19.4-9.7 0-16.6-7.5-16.6-18.7 0-11.7 7.3-19.3 17.1-19.3 10.1.1 16.6 7.7 16.6 18.6zm-28.6.6c0 7.9 4.3 14.9 11.8 14.9 7.5 0 11.8-6.9 11.8-15.3 0-7.3-3.8-14.9-11.8-14.9-7.9 0-11.8 7.3-11.8 15.3zM62.7 43.8c0 2.7.1 5.1.2 7.2h-4.3l-.3-4.3h-.1c-1.3 2.1-4 4.9-8.8 4.9-4.2 0-9.1-2.3-9.1-11.6V24.6h4.8v14.6c0 5 1.5 8.4 5.9 8.4 3.2 0 5.5-2.2 6.3-4.4.3-.7.4-1.6.4-2.5V24.6h4.8v19.2zM67.3 32.8c0-3.1-.1-5.8-.2-8.2h4.2l.2 5.2h.2c1.2-3.5 4.1-5.8 7.3-5.8.5 0 .9.1 1.4.2v4.5c-.5-.1-1-.2-1.6-.2-3.4 0-5.8 2.6-6.5 6.2-.1.7-.2 1.4-.2 2.2V51h-4.8V32.8zM95.4 51L86 14.2h5l4.4 18.6c1.1 4.6 2.1 9.2 2.7 12.7h.1c.6-3.7 1.8-8 3-12.8l4.9-18.5h5l4.5 18.7c1 4.4 2 8.7 2.6 12.6h.1c.8-4 1.8-8.1 3-12.7l4.9-18.5h4.9L120.6 51h-5L111 31.9c-1.1-4.7-1.9-8.3-2.4-12h-.1c-.7 3.7-1.5 7.3-2.8 12L100.4 51h-5zM154.9 37.6c0 9.8-6.8 14-13.2 14-7.2 0-12.7-5.2-12.7-13.6 0-8.8 5.8-14 13.1-14 7.7 0 12.8 5.5 12.8 13.6zm-21 .3c0 5.8 3.3 10.1 8 10.1 4.6 0 8-4.3 8-10.3 0-4.5-2.2-10.1-7.9-10.1s-8.1 5.2-8.1 10.3zM158.2 32.8c0-3.1-.1-5.8-.2-8.2h4.2l.2 5.2h.2c1.2-3.5 4.1-5.8 7.3-5.8.5 0 .9.1 1.4.2v4.5c-.5-.1-1-.2-1.6-.2-3.4 0-5.8 2.6-6.5 6.2-.1.7-.2 1.4-.2 2.2V51h-4.8V32.8zM173.5 12.3h4.8V51h-4.8V12.3zM206.5 12.3v31.9c0 2.3.1 5 .2 6.8h-4.3l-.2-4.6h-.2c-1.5 2.9-4.7 5.2-9 5.2-6.4 0-11.3-5.4-11.3-13.4-.1-8.8 5.4-14.2 11.9-14.2 4 0 6.8 1.9 8 4h.1V12.3h4.8zm-4.8 23.1c0-.6-.1-1.4-.2-2a7 7 0 00-6.9-5.6c-5 0-7.9 4.4-7.9 10.2 0 5.3 2.6 9.8 7.8 9.8 3.2 0 6.2-2.1 7.1-5.7.2-.7.2-1.3.2-2.1v-4.6zM42.8 64c.1 1.6-1.1 2.9-3.1 2.9-1.7 0-2.9-1.3-2.9-2.9 0-1.7 1.3-3 3-3 1.9 0 3 1.3 3 3zm-5.4 33.8V71.4h4.8v26.4h-4.8zM47.5 78.6c0-2.7-.1-5-.2-7.1h4.3l.3 4.4h.1c1.3-2.5 4.4-5 8.8-5 3.7 0 9.4 2.2 9.4 11.2v15.8h-4.8V82.6c0-4.3-1.6-7.8-6.1-7.8-3.2 0-5.6 2.2-6.5 4.9-.2.6-.3 1.4-.3 2.2v15.9h-4.8V78.6zM84 61.6c2.9-.4 6.3-.8 10.1-.8 6.8 0 11.7 1.6 14.9 4.6 3.3 3 5.2 7.3 5.2 13.2 0 6-1.9 10.9-5.3 14.3-3.4 3.4-9.1 5.3-16.3 5.3-3.4 0-6.2-.2-8.6-.4V61.6zm4.8 32.5c1.2.2 3 .3 4.8.3 10.2 0 15.7-5.7 15.7-15.6.1-8.7-4.9-14.2-14.9-14.2-2.5 0-4.3.2-5.6.5v29zM132.1 97.8l-.4-3.3h-.2a9.79 9.79 0 01-8.1 3.9c-5.4 0-8.1-3.8-8.1-7.6 0-6.4 5.7-9.9 15.9-9.8v-.5c0-2.2-.6-6.1-6-6.1-2.5 0-5 .8-6.9 2l-1.1-3.2c2.2-1.4 5.4-2.3 8.7-2.3 8.1 0 10.1 5.5 10.1 10.8v9.9c0 2.3.1 4.5.4 6.3h-4.3zm-.7-13.4c-5.3-.1-11.2.8-11.2 5.9 0 3.1 2.1 4.6 4.5 4.6 3.4 0 5.6-2.2 6.4-4.4.2-.5.3-1 .3-1.5v-4.6zM146.6 63.9v7.6h6.9v3.7h-6.9v14.2c0 3.3.9 5.1 3.6 5.1 1.3 0 2.2-.2 2.8-.3l.2 3.6c-.9.4-2.4.7-4.3.7-2.2 0-4-.7-5.2-2-1.4-1.4-1.9-3.8-1.9-6.9V75.1h-4.1v-3.7h4.1v-6.3l4.8-1.2zM171.4 97.8l-.4-3.3h-.2a9.79 9.79 0 01-8.1 3.9c-5.4 0-8.1-3.8-8.1-7.6 0-6.4 5.7-9.9 15.9-9.8v-.5c0-2.2-.6-6.1-6-6.1-2.5 0-5 .8-6.9 2l-1.1-3.2c2.2-1.4 5.4-2.3 8.7-2.3 8.1 0 10.1 5.5 10.1 10.8v9.9c0 2.3.1 4.5.4 6.3h-4.3zm-.7-13.4c-5.3-.1-11.2.8-11.2 5.9 0 3.1 2.1 4.6 4.5 4.6 3.4 0 5.6-2.2 6.4-4.4.2-.5.3-1 .3-1.5v-4.6z"/></g></g></a></g><a href="https://ourworldindata.org/grapher/gov-procurement-share-gov-expenditure" target="_blank"><text font-size="23.4" x="15" y="33.7" fill="#555"><tspan x="15" y="33.72">Government procurement as share of government expenditure, OECD</tspan></text></a><text font-size="14.4" x="15" y="51.9" fill="#666"><tspan x="15" y="51.92">General government procurement is defined as the sum of intermediate consumption (e.g. accounting services),</tspan><tspan x="15" y="67.76">gross fixed capital formation (e.g. new roads) and social transfers in kind via market producers (purchases by</tspan><tspan x="15" y="83.6">general government of goods/services produced by markets and supplied to households). Figures include</tspan><tspan x="15" y="99.44">expenditures for central, state and local governments.</tspan></text></g><g class="LineChart"><defs><clipPath id="a"><path d="M42.56 0h830v870.4h-830z"/></clipPath></defs><g class="AxisBoxView"><g class="HorizontalAxis" fill="#666" text-anchor="middle" font-size="16.2"><text x="52.6" y="556.5">2007</text><text x="134.4" y="556.5">2008</text><text x="216.2" y="556.5">2009</text><text x="298" y="556.5">2010</text><text x="379.9" y="556.5">2011</text><text x="461.7" y="556.5">2012</text><text x="543.5" y="556.5">2013</text><text x="625.4" y="556.5">2014</text><text x="707.2" y="556.5">2015</text></g><g class="VerticalAxis" fill="#666" dominant-baseline="middle" text-anchor="end" font-size="16.2"><text x="47.56" y="535.3">0%</text><text x="47.56" y="443.1">10%</text><text x="47.56" y="350.9">20%</text><text x="47.56" y="258.7">30%</text><text x="47.56" y="166.6">40%</text></g><g class="AxisGridLines"><path stroke="#ccc" d="M52.56 535.3h654.62"/><path stroke="#ddd" stroke-dasharray="3,2" d="M52.56 443.1h654.62M52.56 350.9h654.62M52.56 258.7h654.62M52.56 166.6h654.62"/></g><g class="AxisGridLines" stroke="#ddd" stroke-dasharray="3,2"><path d="M52.6 535.3v-414M134.4 535.3v-414M216.2 535.3v-414M298 535.3v-414M379.9 535.3v-414M461.7 535.3v-414M543.5 535.3v-414M625.4 535.3v-414M707.2 535.3v-414"/></g></g><g clip-path="url(#a)"><g class="HeightedLegend clickable"><g class="legendMark"><path fill="#818282" d="M717.18 124.55h10v2.5h-10z"/><text font-size="14.4" x="732.2" y="130.1" fill="#333"><tspan x="732.18" y="130.12">Netherlands</tspan></text></g><g class="legendMark"><path fill="#f6a324" d="M717.18 175.55h10v2.5h-10z"/><text font-size="14.4" x="732.2" y="181.1" fill="#333"><tspan x="732.18" y="181.12">South Korea</tspan></text></g><g class="legendMark"><path fill="#34983f" d="M717.18 240.75h10v2.5h-10z"/><text font-size="14.4" x="732.2" y="246.3" fill="#333"><tspan x="732.18" y="246.32">United Kingdom</tspan></text></g><g class="legendMark"><path fill="#ca2628" d="M717.18 304.15h10v2.5h-10z"/><text font-size="14.4" x="732.2" y="309.7" fill="#333"><tspan x="732.18" y="309.72">United States</tspan></text></g><g class="legendMark"><path fill="#34983f" d="M717.18 354.15h10v2.5h-10z"/><text font-size="14.4" x="732.2" y="359.7" fill="#333"><tspan x="732.18" y="359.72">Greece</tspan></text></g></g><g class="Lines"><g class="key-Greece_0"><path stroke="#34983f" stroke-linecap="round" d="M53 257l81 12 82 2 82 36 82 45 82 9 82 18 81-38 82 14" fill="none" stroke-width="1.5"/><g fill="#34983f"><circle cx="53" cy="257" r="2"/><circle cx="134" cy="269" r="2"/><circle cx="216" cy="271" r="2"/><circle cx="298" cy="307" r="2"/><circle cx="380" cy="352" r="2"/><circle cx="462" cy="361" r="2"/><circle cx="544" cy="379" r="2"/><circle cx="625" cy="341" r="2"/><circle cx="707" cy="355" r="2"/></g></g><g class="key-South-Korea_0"><path stroke="#f6a324" stroke-linecap="round" d="M53 153l81 9 82-12 82-6 82 23 82 7 82-10 81 13" fill="none" stroke-width="1.5"/><g fill="#f6a324"><circle cx="53" cy="153" r="2"/><circle cx="134" cy="162" r="2"/><circle cx="216" cy="150" r="2"/><circle cx="298" cy="144" r="2"/><circle cx="380" cy="167" r="2"/><circle cx="462" cy="174" r="2"/><circle cx="544" cy="164" r="2"/><circle cx="625" cy="177" r="2"/></g></g><g class="key-United-States_0"><path stroke="#ca2628" stroke-linecap="round" d="M53 271l81 1 82 10 82 4 82 4 82 3 82 8 81 4" fill="none" stroke-width="1.5"/><g fill="#ca2628"><circle cx="53" cy="271" r="2"/><circle cx="134" cy="272" r="2"/><circle cx="216" cy="282" r="2"/><circle cx="298" cy="286" r="2"/><circle cx="380" cy="290" r="2"/><circle cx="462" cy="293" r="2"/><circle cx="544" cy="301" r="2"/><circle cx="625" cy="305" r="2"/></g></g><g class="key-Netherlands_0"><path stroke="#818282" stroke-linecap="round" d="M53 123l81-2h82l82 5 82-2 82 2 82 1 81 6 82-7" fill="none" stroke-width="1.5"/><g fill="#818282"><circle cx="53" cy="123" r="2"/><circle cx="134" cy="121" r="2"/><circle cx="216" cy="121" r="2"/><circle cx="298" cy="126" r="2"/><circle cx="380" cy="124" r="2"/><circle cx="462" cy="126" r="2"/><circle cx="544" cy="127" r="2"/><circle cx="625" cy="133" r="2"/><circle cx="707" cy="126" r="2"/></g></g><g class="key-United-Kingdom_0"><path stroke="#34983f" stroke-linecap="round" d="M53 247l81-2 82-7 82 8 82 4 82 7 82-9 81-7 82 1" fill="none" stroke-width="1.5"/><g fill="#34983f"><circle cx="53" cy="247" r="2"/><circle cx="134" cy="245" r="2"/><circle cx="216" cy="238" r="2"/><circle cx="298" cy="246" r="2"/><circle cx="380" cy="250" r="2"/><circle cx="462" cy="257" r="2"/><circle cx="544" cy="248" r="2"/><circle cx="625" cy="241" r="2"/><circle cx="707" cy="242" r="2"/></g></g></g></g></g><g class="SourcesFooter" fill="#777"><g class="clickable" fill="#777"><text font-size="12.6" x="15" y="581.6"><tspan x="15" y="581.58">Source: Government at a Glance – OECD (2015)</tspan></text></g><text font-size="12.6" x="553.4" y="581.6"><tspan x="553.39" y="581.58"><a target="_blank" href="https://ourworldindata.org/public-spending/" fill="#777">OurWorldInData.org/public-spending/</a> • <a href="http://creativecommons.org/licenses/by-sa/4.0/deed.en_US" target="_blank" fill="#777">CC BY-SA</a></tspan></text></g></g></svg>