<svg xmlns="http://www.w3.org/2000/svg" version="1.1" style="background-color:#fff;-webkit-font-smoothing:antialiased" width="850" height="600" font-family="'Helvetica Neue',Helvetica,Arial,sans-serif" font-size="18" text-rendering="optimizeLegibility"><g class="ChartTab"><g class="HeaderView"><g opacity=".8" transform="matrix(.27 0 0 .27 778 15)"><a xmlns:xlink="http://www.w3.org/1999/xlink" xlink:href="https://ourworldindata.org" target="_blank"><g><path fill="#1B2543" d="M0 0h211.2v130.1H0z"/><path fill="#E63912" d="M0 112.2h211.2v17.9H0z"/><g><path fill="none" d="M1.2 12.3h210.2v99.2H1.2z"/><path fill="#FFF" d="M37.8 32.2c0 12.7-7.7 19.4-17.1 19.4-9.7 0-16.6-7.5-16.6-18.7 0-11.7 7.3-19.3 17.1-19.3 10.1.1 16.6 7.7 16.6 18.6zm-28.6.6c0 7.9 4.3 14.9 11.8 14.9 7.5 0 11.8-6.9 11.8-15.3 0-7.3-3.8-14.9-11.8-14.9-7.9 0-11.8 7.3-11.8 15.3zM62.7 43.8c0 2.7.1 5.1.2 7.2h-4.3l-.3-4.3h-.1c-1.3 2.1-4 4.9-8.8 4.9-4.2 0-9.1-2.3-9.1-11.6V24.6h4.8v14.6c0 5 1.5 8.4 5.9 8.4 3.2 0 5.5-2.2 6.3-4.4.3-.7.4-1.6.4-2.5V24.6h4.8v19.2zM67.3 32.8c0-3.1-.1-5.8-.2-8.2h4.2l.2 5.2h.2c1.2-3.5 4.1-5.8 7.3-5.8.5 0 .9.1 1.4.2v4.5c-.5-.1-1-.2-1.6-.2-3.4 0-5.8 2.6-6.5 6.2-.1.7-.2 1.4-.2 2.2V51h-4.8V32.8zM95.4 51L86 14.2h5l4.4 18.6c1.1 4.6 2.1 9.2 2.7 12.7h.1c.6-3.7 1.8-8 3-12.8l4.9-18.5h5l4.5 18.7c1 4.4 2 8.7 2.6 12.6h.1c.8-4 1.8-8.1 3-12.7l4.9-18.5h4.9L120.6 51h-5L111 31.9c-1.1-4.7-1.9-8.3-2.4-12h-.1c-.7 3.7-1.5 7.3-2.8 12L100.4 51h-5zM154.9 37.6c0 9.8-6.8 14-13.2 14-7.2 0-12.7-5.2-12.7-13.6 0-8.8 5.8-14 13.1-14 7.7 0 12.8 5.5 12.8 13.6zm-21 .3c0 5.8 3.3 10.1 8 10.1 4.6 0 8-4.3 8-10.3 0-4.5-2.2-10.1-7.9-10.1s-8.1 5.2-8.1 10.3zM158.2 32.8c0-3.1-.1-5.8-.2-8.2h4.2l.2 5.2h.2c1.2-3.5 4.1-5.8 7.3-5.8.5 0 .9.1 1.4.2v4.5c-.5-.1-1-.2-1.6-.2-3.4 0-5.8 2.6-6.5 6.2-.1.7-.2 1.4-.2 2.2V51h-4.8V32.8zM173.5 12.3h4.8V51h-4.8V12.3zM206.5 12.3v31.9c0 2.3.1 5 .2 6.8h-4.3l-.2-4.6h-.2c-1.5 2.9-4.7 5.2-9 5.2-6.4 0-11.3-5.4-11.3-13.4-.1-8.8 5.4-14.2 11.9-14.2 4 0 6.8 1.9 8 4h.1V12.3h4.8zm-4.8 23.1c0-.6-.1-1.4-.2-2a7 7 0 00-6.9-5.6c-5 0-7.9 4.4-7.9 10.2 0 5.3 2.6 9.8 7.8 9.8 3.2 0 6.2-2.1 7.1-5.7.2-.7.2-1.3.2-2.1v-4.6zM42.8 64c.1 1.6-1.1 2.9-3.1 2.9-1.7 0-2.9-1.3-2.9-2.9 0-1.7 1.3-3 3-3 1.9 0 3 1.3 3 3zm-5.4 33.8V71.4h4.8v26.4h-4.8zM47.5 78.6c0-2.7-.1-5-.2-7.1h4.3l.3 4.4h.1c1.3-2.5 4.4-5 8.8-5 3.7 0 9.4 2.2 9.4 11.2v15.8h-4.8V82.6c0-4.3-1.6-7.8-6.1-7.8-3.2 0-5.6 2.2-6.5 4.9-.2.6-.3 1.4-.3 2.2v15.9h-4.8V78.6zM84 61.6c2.9-.4 6.3-.8 10.1-.8 6.8 0 11.7 1.6 14.9 4.6 3.3 3 5.2 7.3 5.2 13.2 0 6-1.9 10.9-5.3 14.3-3.4 3.4-9.1 5.3-16.3 5.3-3.4 0-6.2-.2-8.6-.4V61.6zm4.8 32.5c1.2.2 3 .3 4.8.3 10.2 0 15.7-5.7 15.7-15.6.1-8.7-4.9-14.2-14.9-14.2-2.5 0-4.3.2-5.6.5v29zM132.1 97.8l-.4-3.3h-.2a9.79 9.79 0 01-8.1 3.9c-5.4 0-8.1-3.8-8.1-7.6 0-6.4 5.7-9.9 15.9-9.8v-.5c0-2.2-.6-6.1-6-6.1-2.5 0-5 .8-6.9 2l-1.1-3.2c2.2-1.4 5.4-2.3 8.7-2.3 8.1 0 10.1 5.5 10.1 10.8v9.9c0 2.3.1 4.5.4 6.3h-4.3zm-.7-13.4c-5.3-.1-11.2.8-11.2 5.9 0 3.1 2.1 4.6 4.5 4.6 3.4 0 5.6-2.2 6.4-4.4.2-.5.3-1 .3-1.5v-4.6zM146.6 63.9v7.6h6.9v3.7h-6.9v14.2c0 3.3.9 5.1 3.6 5.1 1.3 0 2.2-.2 2.8-.3l.2 3.6c-.9.4-2.4.7-4.3.7-2.2 0-4-.7-5.2-2-1.4-1.4-1.9-3.8-1.9-6.9V75.1h-4.1v-3.7h4.1v-6.3l4.8-1.2zM171.4 97.8l-.4-3.3h-.2a9.79 9.79 0 01-8.1 3.9c-5.4 0-8.1-3.8-8.1-7.6 0-6.4 5.7-9.9 15.9-9.8v-.5c0-2.2-.6-6.1-6-6.1-2.5 0-5 .8-6.9 2l-1.1-3.2c2.2-1.4 5.4-2.3 8.7-2.3 8.1 0 10.1 5.5 10.1 10.8v9.9c0 2.3.1 4.5.4 6.3h-4.3zm-.7-13.4c-5.3-.1-11.2.8-11.2 5.9 0 3.1 2.1 4.6 4.5 4.6 3.4 0 5.6-2.2 6.4-4.4.2-.5.3-1 .3-1.5v-4.6z"/></g></g></a></g><a href="https://ourworldindata.org/grapher/Happiness-WVS-vs-Gallup" target="_blank"><text font-size="25.2" x="15" y="35.2" fill="#555"><tspan x="15" y="35.16">Happiness vs Life satisfaction, 2014</tspan></text></a><text font-size="14.4" x="15" y="53.7" fill="#666"><tspan x="15" y="53.72">Vertical axis shows average self-reported life satisfaction scores in the Cantril Ladder. Horizontal axis shows share of</tspan><tspan x="15" y="69.56">people who say they are &apos;very happy&apos; or &apos;rather happy&apos; (as opposed to &apos;not very happy&apos; or &apos;not at all happy&apos;)</tspan></text></g><g><g class="AxisBoxView"><g class="HorizontalAxis"><text font-size="12.6" x="168.3" y="499.2"><tspan x="168.25" y="499.18">Share of people who say they are &apos;very happy&apos; or &apos;rather happy&apos; (WVS)</tspan></text><text x="146.6" y="479.1" fill="#666" text-anchor="middle" font-size="16.2">70%</text><text x="247.7" y="479.1" fill="#666" text-anchor="middle" font-size="16.2">75%</text><text x="348.8" y="479.1" fill="#666" text-anchor="middle" font-size="16.2">80%</text><text x="449.9" y="479.1" fill="#666" text-anchor="middle" font-size="16.2">85%</text><text x="551" y="479.1" fill="#666" text-anchor="middle" font-size="16.2">90%</text><text x="652.1" y="479.1" fill="#666" text-anchor="middle" font-size="16.2">95%</text></g><g class="VerticalAxis"><text font-size="12.6" x="-464.1" y="25.1" transform="rotate(-90)"><tspan x="-464.1" y="25.08">Self-reported life satisfaction (average Cantril Ladder score)</tspan></text><text x="46.67" y="457.9" fill="#666" dominant-baseline="middle" text-anchor="end" font-size="16.2">3</text><text x="46.67" y="373.2" fill="#666" dominant-baseline="middle" text-anchor="end" font-size="16.2">4</text><text x="46.67" y="288.6" fill="#666" dominant-baseline="middle" text-anchor="end" font-size="16.2">5</text><text x="46.67" y="203.9" fill="#666" dominant-baseline="middle" text-anchor="end" font-size="16.2">6</text><text x="46.67" y="119.3" fill="#666" dominant-baseline="middle" text-anchor="end" font-size="16.2">7</text></g><g class="AxisGridLines" stroke="#ddd" stroke-dasharray="3,2"><path d="M51.67 457.9H715M51.67 373.2H715M51.67 288.6H715M51.67 203.9H715M51.67 119.3H715"/></g><g class="AxisGridLines" stroke="#ddd" stroke-dasharray="3,2"><path d="M146.6 457.9V92.1M247.7 457.9V92.1M348.8 457.9V92.1M449.9 457.9V92.1M551 457.9V92.1M652.1 457.9V92.1"/></g></g><g clip-path="url(#a)" font-family="Arial Narrow, Arial, sans-serif" class="PointsWithLabels clickable"><path fill="rgba(255,255,255,0)" d="M51.67 92.1H715v365.8H51.67z"/><defs><clipPath id="a"><path d="M41.67 82.1H725v385.8H41.67z"/></clipPath></defs><g class="key-China_0"><circle cx="449" cy="272" r="17.84" fill="#d14e5b" opacity=".8" stroke="#333" stroke-width=".7"/></g><g class="key-India_0"><circle cx="359" cy="337" r="17.28" fill="#d14e5b" opacity=".8" stroke="#333" stroke-width=".7"/></g><g class="key-United-States_0"><circle cx="572" cy="106" r="8.76" fill="#4d824b" opacity=".8" stroke="#333" stroke-width=".7"/></g><g class="key-Brazil_0"><circle cx="587" cy="120" r="7.02" fill="#69c487" opacity=".8" stroke="#fff" stroke-width=".7"/></g><g class="key-Pakistan_0"><circle cx="427" cy="251" r="6.74" fill="#d14e5b" opacity=".8" stroke="#fff" stroke-width=".7"/></g><g class="key-Nigeria_0"><circle cx="425" cy="304" r="6.53" fill="#5675c1" opacity=".8" stroke="#333" stroke-width=".7"/></g><g class="key-Russia_0"><circle cx="210" cy="200" r="6" fill="#ffd336" opacity=".8" stroke="#333" stroke-width=".7"/></g><g class="key-Japan_0"><circle cx="479" cy="210" r="5.68" fill="#d14e5b" opacity=".8" stroke="#333" stroke-width=".7"/></g><g class="key-Mexico_0"><circle cx="636" cy="146" r="5.49" fill="#4d824b" opacity=".8" stroke="#333" stroke-width=".7"/></g><g class="key-Philippines_0"><circle cx="542" cy="262" r="5.07" fill="#d14e5b" opacity=".8" stroke="#333" stroke-width=".7"/></g><g class="key-Germany_0"><circle cx="472" cy="120" r="4.68" fill="#ffd336" opacity=".8" stroke="#333" stroke-width=".7"/></g><g class="key-Turkey_0"><circle cx="437" cy="239" r="4.52" fill="#d14e5b" opacity=".8" stroke="#333" stroke-width=".7"/></g><g class="key-Thailand_0"><circle cx="613" cy="120" r="4.38" fill="#d14e5b" opacity=".8" stroke="#fff" stroke-width=".7"/></g><g class="key-South-Africa_0"><circle cx="296" cy="303" r="3.84" fill="#5675c1" opacity=".8" stroke="#333" stroke-width=".7"/></g><g class="key-South-Korea_0"><circle cx="545" cy="220" r="3.77" fill="#d14e5b" opacity=".8" stroke="#333" stroke-width=".7"/></g><g class="key-Colombia_0"><circle cx="583" cy="166" r="3.76" fill="#69c487" opacity=".8" stroke="#333" stroke-width=".7"/></g><g class="key-Spain_0"><circle cx="472" cy="165" r="3.72" fill="#ffd336" opacity=".8" stroke="#333" stroke-width=".7"/></g><g class="key-Ukraine_0"><circle cx="112" cy="348" r="3.65" fill="#ffd336" opacity=".8" stroke="#333" stroke-width=".7"/></g><g class="key-Argentina_0"><circle cx="494" cy="147" r="3.54" fill="#69c487" opacity=".8" stroke="#333" stroke-width=".7"/></g><g class="key-Poland_0"><circle cx="606" cy="225" r="3.44" fill="#ffd336" opacity=".8" stroke="#fff" stroke-width=".7"/></g><g class="key-Algeria_0"><circle cx="346" cy="173" r="3.39" fill="#5675c1" opacity=".8" stroke="#333" stroke-width=".7"/></g><g class="key-Iraq_0"><circle cx="106" cy="327" r="3.32" fill="#d14e5b" opacity=".8" stroke="#333" stroke-width=".7"/></g><g class="key-Morocco_0"><circle cx="317" cy="276" r="3.25" fill="#5675c1" opacity=".8" stroke="#333" stroke-width=".7"/></g><g class="key-Peru_0"><circle cx="265" cy="215" r="3.15" fill="#69c487" opacity=".8" stroke="#333" stroke-width=".7"/></g><g class="key-Malaysia_0"><circle cx="673" cy="207" r="3.14" fill="#d14e5b" opacity=".8" stroke="#333" stroke-width=".7"/></g><g class="key-Uzbekistan_0"><circle cx="682" cy="199" r="3.09" fill="#d14e5b" opacity=".8" stroke="#fff" stroke-width=".7"/></g><g class="key-Ghana_0"><circle cx="400" cy="385" r="3" fill="#5675c1" opacity=".8" stroke="#333" stroke-width=".7"/></g><g class="key-Australia_0"><circle cx="631" cy="94" r="2.88" fill="#a652ba" opacity=".8" stroke="#fff" stroke-width=".7"/></g><g class="key-Taiwan_0"><circle cx="550" cy="173" r="2.88" fill="#d14e5b" opacity=".8" stroke="#fff" stroke-width=".7"/></g><g class="key-Romania_0"><circle cx="101" cy="227" r="2.81" fill="#ffd336" opacity=".8" stroke="#333" stroke-width=".7"/></g><g class="key-Chile_0"><circle cx="443" cy="132" r="2.65" fill="#69c487" opacity=".8" stroke="#333" stroke-width=".7"/></g><g class="key-Netherlands_0"><circle cx="600" cy="92" r="2.61" fill="#ffd336" opacity=".8" stroke="#fff" stroke-width=".7"/></g><g class="key-Kazakhstan_0"><circle cx="525" cy="206" r="2.6" fill="#d14e5b" opacity=".8" stroke="#333" stroke-width=".7"/></g><g class="key-Ecuador_0"><circle cx="611" cy="208" r="2.53" fill="#69c487" opacity=".8" stroke="#fff" stroke-width=".7"/></g><g class="key-Zimbabwe_0"><circle cx="391" cy="357" r="2.45" fill="#5675c1" opacity=".8" stroke="#333" stroke-width=".7"/></g><g class="key-Rwanda_0"><circle cx="559" cy="407" r="2.37" fill="#5675c1" opacity=".8" stroke="#333" stroke-width=".7"/></g><g class="key-Tunisia_0"><circle cx="333" cy="308" r="2.33" fill="#5675c1" opacity=".8" stroke="#fff" stroke-width=".7"/></g><g class="key-Sweden_0"><circle cx="657" cy="99" r="2.27" fill="#ffd336" opacity=".8" stroke="#333" stroke-width=".7"/></g><g class="key-Azerbaijan_0"><circle cx="385" cy="267" r="2.27" fill="#d14e5b" opacity=".8" stroke="#333" stroke-width=".7"/></g><g class="key-Belarus_0"><circle cx="51" cy="219" r="2.27" fill="#ffd336" opacity=".8" stroke="#333" stroke-width=".7"/></g><g class="key-Hong-Kong_0"><circle cx="536" cy="249" r="2.15" fill="#d14e5b" opacity=".8" stroke="#fff" stroke-width=".7"/></g><g class="key-Jordan_0"><circle cx="465" cy="260" r="2.11" fill="#d14e5b" opacity=".8" stroke="#fff" stroke-width=".7"/></g><g class="key-Libya_0"><circle cx="486" cy="236" r="2.11" fill="#5675c1" opacity=".8" stroke="#333" stroke-width=".7"/></g><g class="key-Kyrgyzstan_0"><circle cx="672" cy="267" r="2.05" fill="#d14e5b" opacity=".8" stroke="#333" stroke-width=".7"/></g><g class="key-Singapore_0"><circle cx="606" cy="114" r="2.04" fill="#d14e5b" opacity=".8" stroke="#fff" stroke-width=".7"/></g><g class="key-New-Zealand_0"><circle cx="633" cy="93" r="1.99" fill="#a652ba" opacity=".8" stroke="#fff" stroke-width=".7"/></g><g class="key-Lebanon_0"><circle cx="323" cy="268" r="1.98" fill="#d14e5b" opacity=".8" stroke="#fff" stroke-width=".7"/></g><g class="key-Georgia_0"><circle cx="137" cy="348" r="1.98" fill="#d14e5b" opacity=".8" stroke="#fff" stroke-width=".7"/></g><g class="key-Uruguay_0"><circle cx="477" cy="156" r="1.93" fill="#69c487" opacity=".8" stroke="#fff" stroke-width=".7"/></g><g class="key-Armenia_0"><circle cx="381" cy="334" r="1.91" fill="#d14e5b" opacity=".8" stroke="#333" stroke-width=".7"/></g><g class="key-Kuwait_0"><circle cx="591" cy="188" r="1.9" fill="#d14e5b" opacity=".8" stroke="#333" stroke-width=".7"/></g><g class="key-Slovenia_0"><circle cx="422" cy="231" r="1.85" fill="#ffd336" opacity=".8" stroke="#fff" stroke-width=".7"/></g><g class="key-Qatar_0"><circle cx="715" cy="172" r="1.84" fill="#d14e5b" opacity=".8" stroke="#333" stroke-width=".7"/></g><g class="key-Bahrain_0"><circle cx="200" cy="190" r="1.8" fill="#d14e5b" opacity=".8" stroke="#fff" stroke-width=".7"/></g><g class="key-Trinidad-and-Tobago_0"><circle cx="510" cy="189" r="1.8" fill="#4d824b" opacity=".8" stroke="#fff" stroke-width=".7"/></g><g class="key-Estonia_0"><circle cx="256" cy="241" r="1.8" fill="#ffd336" opacity=".8" stroke="#333" stroke-width=".7"/></g><g class="key-Cyprus_0"><circle cx="390" cy="235" r="1.79" fill="#ffd336" opacity=".8" stroke="#333" stroke-width=".7"/></g><g class="key-Palestine_0"><circle cx="235" cy="312" r="1.71" fill="#d14e5b" opacity=".8" stroke="#333" stroke-width=".7"/></g><g class="key-Yemen_0"><circle cx="189" cy="376" r="1.71" fill="#d14e5b" opacity=".8" stroke="#333" stroke-width=".7"/></g><g fill="#333" class="backgroundLabels"><text x="449" y="253.16" font-size="14.3">China</text><text x="359" y="318.72" font-size="14.1">India</text><text x="572" y="103.87" font-size="11.77">United States</text><text x="425" y="296.47" font-size="11.41">Nigeria</text><text x="210" y="193" font-size="11.34">Russia</text><text x="479" y="203.32" font-size="11.3">Japan</text><text x="636" y="139.51" font-size="11.28">Mexico</text><text x="542" y="255.93" font-size="11.24">Philippines</text><text x="472" y="114.32" font-size="11.2">Germany</text><text x="437" y="233.48" font-size="11.18">Turkey</text><text x="296" y="298.16" font-size="11.12">South Africa</text><text x="545" y="215.23" font-size="11.12">South Korea</text><text x="583" y="161.24" font-size="11.11">Colombia</text><text x="472" y="160.28" font-size="11.11">Spain</text><text x="112" y="343.35" font-size="11.11">Ukraine</text><text x="494" y="142.46" font-size="11.1">Argentina</text><text x="346" y="168.61" font-size="11.09">Algeria</text><text x="106" y="322.68" font-size="11.08">Iraq</text><text x="317" y="271.75" font-size="11.08">Morocco</text><text x="265" y="210.85" font-size="11.07">Peru</text><text x="629.27" y="202.86" font-size="11.07">Malaysia</text><text x="400" y="381" font-size="11.06">Ghana</text><text x="101" y="223.19" font-size="11.05">Romania</text><text x="443" y="128.35" font-size="11.04">Chile</text><text x="525" y="202.4" font-size="11.04">Kazakhstan</text><text x="391" y="353.55" font-size="11.03">Zimbabwe</text><text x="559" y="403.63" font-size="11.03">Rwanda</text><text x="657" y="103.12" font-size="11.02">Sweden</text><text x="385" y="263.73" font-size="11.02">Azerbaijan</text><text x="51" y="215.73" font-size="11.02">Belarus</text><text x="486" y="232.89" font-size="11.01">Libya</text><text x="617.39" y="263.95" font-size="11.01">Kyrgyzstan</text><text x="381" y="331.09" font-size="11">Armenia</text><text x="591" y="185.1" font-size="11">Kuwait</text><text x="687.38" y="169.16" font-size="11">Qatar</text><text x="256" y="238.2" font-size="11">Estonia</text><text x="390" y="232.21" font-size="11">Cyprus</text><text x="235" y="309.29" font-size="11">Palestine</text><text x="189" y="373.29" font-size="11">Yemen</text></g></g><g class="ScatterColorLegend clickable" cursor="pointer"><g class="legendMark">,<path fill="#5675c1" d="M735 95.1h6v6h-6z"/>,<text font-size="12.6" x="746" y="102.2"><tspan x="746" y="102.18">Africa</tspan></text></g><g class="legendMark">,<path fill="#d14e5b" d="M735 112.7h6v6h-6z"/>,<text font-size="12.6" x="746" y="119.8"><tspan x="746" y="119.78">Asia</tspan></text></g><g class="legendMark">,<path fill="#ffd336" d="M735 130.3h6v6h-6z"/>,<text font-size="12.6" x="746" y="137.4"><tspan x="746" y="137.38">Europe</tspan></text></g><g class="legendMark">,<path fill="#4d824b" d="M735 147.9h6v6h-6z"/>,<text font-size="12.6" x="746" y="155"><tspan x="746" y="154.98">North America</tspan></text></g><g class="legendMark">,<path fill="#a652ba" d="M735 165.5h6v6h-6z"/>,<text font-size="12.6" x="746" y="172.6"><tspan x="746" y="172.58">Oceania</tspan></text></g><g class="legendMark">,<path fill="#69c487" d="M735 183.1h6v6h-6z"/>,<text font-size="12.6" x="746" y="190.2"><tspan x="746" y="190.18">South America</tspan></text></g></g></g><g class="SourcesFooter" fill="#777"><g class="clickable" fill="#777"><text font-size="12.6" x="15" y="526.8"><tspan x="15" y="526.78">Source: World Value Survey (2014), World Happiness Report (2018)</tspan></text></g><text font-size="12.6" x="15" y="541.4"><tspan x="15" y="541.38">Note: Cantril ladder question: “Please imagine a ladder, with steps numbered from 0 at the bottom to 10 at the top. The top of theladder</tspan><tspan x="15" y="555.24">represents the best possible life for you and the bottom of the ladder represents the worst possible life for you. On which step ofthe ladder would</tspan><tspan x="15" y="569.1">you say you personally feel you stand at this time?” World Value Survey question: &quot;Taking all things together, would you say you are (i) Very</tspan><tspan x="15" y="582.96">happy, (ii) Rather happy, (iii) Not very happy or (iv) Not at all happy&quot;.</tspan></text><text font-size="12.6" x="471.2" y="526.8"><tspan x="471.24" y="526.78"><a target="_blank" href="https://ourworldindata.org/happiness-and-life-satisfaction/" fill="#777">OurWorldInData.org/happiness-and-life-satisfaction/</a> • <a class="cclogo" href="http://creativecommons.org/licenses/by-sa/4.0/deed.en_US" target="_blank" fill="#777">CC BY-SA</a></tspan></text></g></g></svg>