<svg xmlns="http://www.w3.org/2000/svg" version="1.1" style="background-color:#fff;-webkit-font-smoothing:antialiased" width="850" height="600" font-family="Lato,'Helvetica Neue',Helvetica,Arial,sans-serif" font-size="18" text-rendering="optimizeLegibility"><g class="HeaderView"><g transform="matrix(.29 0 0 .29 774 15)"><svg width="210" height="120" viewBox="0 0 210 120" fill="none" xmlns="http://www.w3.org/2000/svg"><g clip-path="url(#clip0)"><path d="M0 0h210v107.89H0V0z" fill="#002147"/><path d="M40.98 32.25c0 2.36-.38 4.53-1.12 6.51a14.26 14.26 0 01-8.1 8.4c-1.9.78-4.02 1.17-6.34 1.17-2.31 0-4.42-.39-6.33-1.17a14.31 14.31 0 01-8.08-8.4 18.29 18.29 0 01-1.12-6.51c0-2.36.38-4.53 1.12-6.5.75-1.97 1.8-3.67 3.17-5.1 1.37-1.43 3-2.55 4.9-3.34 1.92-.8 4.03-1.19 6.34-1.19 2.32 0 4.43.4 6.34 1.19 1.92.8 3.56 1.9 4.93 3.34a14.87 14.87 0 013.17 5.1 18.1 18.1 0 011.12 6.5zm-4.38 0c0-1.94-.26-3.68-.8-5.22a10.91 10.91 0 00-2.24-3.89 9.68 9.68 0 00-3.52-2.46 11.95 11.95 0 00-4.62-.86c-1.68 0-3.21.28-4.6.86a9.88 9.88 0 00-3.54 2.46 10.91 10.91 0 00-2.24 3.9c-.53 1.53-.8 3.27-.8 5.2 0 1.94.27 3.68.8 5.22a11.17 11.17 0 002.24 3.9 10.01 10.01 0 003.55 2.44c1.38.56 2.9.83 4.6.83 1.7 0 3.24-.27 4.61-.83a9.8 9.8 0 003.52-2.44 11.17 11.17 0 002.25-3.9c.53-1.54.8-3.28.8-5.21zm26.22-6.54V48H60.5c-.56 0-.9-.27-1.05-.81l-.31-2.4a12.45 12.45 0 01-3.26 2.6c-1.2.64-2.58.96-4.13.96-1.22 0-2.3-.2-3.24-.6a6.52 6.52 0 01-2.33-1.7 7.37 7.37 0 01-1.43-2.67c-.3-1.04-.46-2.2-.46-3.45V25.7h3.91v14.22c0 1.68.38 2.99 1.15 3.91.77.93 1.96 1.39 3.54 1.39 1.16 0 2.24-.27 3.23-.82a10.42 10.42 0 002.8-2.28V25.7h3.91zm8.61 4.47a9.94 9.94 0 012.6-3.56 5.64 5.64 0 013.76-1.3c.47 0 .92.05 1.34.15.44.1.83.27 1.17.49L80 28.88c-.09.37-.3.55-.66.55-.2 0-.5-.04-.9-.13a6.21 6.21 0 00-3.24.18c-.54.2-1.03.5-1.47.92-.42.4-.81.9-1.17 1.5-.33.58-.64 1.26-.92 2.02V48h-3.94V25.71h2.25c.42 0 .72.08.88.25.16.16.27.44.33.83l.26 3.39zm61.16-13.7L122.75 48h-3.82l-7.99-24.05a21.95 21.95 0 01-.42-1.58 38.36 38.36 0 01-.44 1.58L102.05 48h-3.83L88.4 16.47h3.54c.38 0 .7.1.95.29.26.2.43.43.5.73l6.52 21.9c.1.4.2.83.28 1.28.1.46.2.94.29 1.46l.3-1.46c.12-.47.25-.9.38-1.27l7.41-21.91c.1-.25.26-.48.51-.69.27-.22.58-.33.95-.33h1.23c.38 0 .69.1.92.29.24.2.41.43.53.73l7.4 21.9a28.4 28.4 0 01.68 2.62 29.52 29.52 0 01.52-2.61l6.54-21.91c.07-.27.23-.5.48-.7.27-.21.58-.32.95-.32h3.32zm9.35 8.88c1.63 0 3.1.27 4.4.82a9.43 9.43 0 015.46 5.94c.5 1.4.74 2.98.74 4.73 0 1.76-.25 3.34-.74 4.75a9.43 9.43 0 01-5.46 5.92c-1.3.52-2.77.79-4.4.79-1.64 0-3.12-.27-4.44-.8a9.42 9.42 0 01-3.35-2.3c-.92-1-1.63-2.2-2.13-3.61-.49-1.41-.73-3-.73-4.75s.24-3.33.73-4.73c.5-1.43 1.2-2.64 2.13-3.63.93-1 2.04-1.77 3.35-2.31 1.32-.55 2.8-.82 4.44-.82zm0 19.89c2.2 0 3.84-.73 4.93-2.2 1.08-1.48 1.63-3.54 1.63-6.18 0-2.66-.55-4.72-1.63-6.2-1.09-1.49-2.73-2.23-4.93-2.23-1.12 0-2.09.2-2.93.57-.82.39-1.5.94-2.06 1.65-.55.72-.96 1.61-1.24 2.67-.26 1.04-.4 2.22-.4 3.54 0 2.64.55 4.7 1.64 6.18 1.1 1.47 2.76 2.2 4.99 2.2zm17.97-15.07a9.94 9.94 0 012.6-3.56 5.64 5.64 0 013.76-1.3c.47 0 .91.05 1.34.15.44.1.83.27 1.16.49l-.28 2.92c-.09.37-.31.55-.66.55-.2 0-.5-.04-.9-.13a6.2 6.2 0 00-3.24.18c-.54.2-1.03.5-1.47.92-.43.4-.82.9-1.17 1.5a13.1 13.1 0 00-.92 2.02V48h-3.94V25.71h2.24c.43 0 .72.08.88.25.17.16.28.44.33.83l.27 3.39zm15.04-14.59V48h-3.92V15.6h3.92zm19.55 15.43a6.22 6.22 0 00-2.38-2.05 6.7 6.7 0 00-2.86-.6c-2.07 0-3.66.75-4.77 2.23-1.12 1.48-1.68 3.6-1.68 6.33 0 1.46.13 2.7.38 3.74a7.29 7.29 0 001.1 2.56 4.35 4.35 0 001.78 1.45c.7.3 1.5.46 2.4.46 1.29 0 2.41-.3 3.36-.88a9.6 9.6 0 002.67-2.49V31.02zm3.91-15.43V48h-2.33c-.56 0-.9-.27-1.06-.81l-.35-2.71a12.13 12.13 0 01-3.25 2.77 8.28 8.28 0 01-4.23 1.06 7.31 7.31 0 01-6.14-2.9c-.73-.96-1.3-2.15-1.69-3.57a18.35 18.35 0 01.07-9.48 11.29 11.29 0 011.89-3.7 8.7 8.7 0 017.06-3.34 7.96 7.96 0 016.12 2.62V15.59h3.91zM46.61 70.71V93H42.7V70.71h3.91zm.84-7c0 .39-.08.75-.24 1.09-.15.32-.35.61-.62.88-.25.25-.55.44-.9.59a2.67 2.67 0 01-2.16 0 2.9 2.9 0 01-1.45-1.47 2.67 2.67 0 010-2.16c.15-.35.35-.65.6-.9.25-.27.53-.47.85-.62a2.67 2.67 0 012.16 0c.35.15.65.35.9.62.27.25.47.55.62.9.16.34.24.7.24 1.08zm7.97 10.24c.49-.54 1-1.04 1.54-1.48a9.85 9.85 0 013.66-1.84 8.96 8.96 0 015.43.35c.94.4 1.72.97 2.33 1.71.63.74 1.11 1.62 1.43 2.67.32 1.04.49 2.19.49 3.45V93h-3.94V78.81c0-1.69-.4-3-1.17-3.92-.76-.93-1.93-1.4-3.5-1.4-1.15 0-2.24.27-3.25.83-1 .56-1.92 1.31-2.77 2.27V93h-3.94V70.71h2.35c.56 0 .9.28 1.04.82l.3 2.42zm57.7 3.3c0 2.36-.37 4.5-1.11 6.44a14.3 14.3 0 01-3.17 4.98c-1.37 1.37-3 2.45-4.93 3.2-1.9.76-4.02 1.13-6.33 1.13H85.8V61.47h11.77c2.31 0 4.42.39 6.33 1.15a13.8 13.8 0 018.1 8.18 17.75 17.75 0 011.12 6.45zm-4.37 0c0-1.94-.26-3.67-.8-5.2a10.94 10.94 0 00-2.23-3.87 9.57 9.57 0 00-3.53-2.42 12.23 12.23 0 00-4.61-.83h-7.5v24.62h7.5c1.7 0 3.24-.28 4.61-.84a9.7 9.7 0 003.53-2.4 10.94 10.94 0 002.24-3.87c.53-1.53.8-3.26.8-5.2zm19.8 5.72c-1.8.06-3.34.2-4.62.44-1.26.22-2.3.51-3.1.88-.8.36-1.37.8-1.74 1.3-.35.5-.53 1.05-.53 1.67 0 .58.1 1.1.3 1.52a3 3 0 00.76 1.05c.34.27.73.46 1.17.6.45.11.94.17 1.45.17a7.28 7.28 0 003.5-.81 11.95 11.95 0 002.82-2.2v-4.62zm-12.65-9.11a12.73 12.73 0 013.98-2.66c1.43-.59 3-.88 4.73-.88 1.25 0 2.36.2 3.33.61a6.81 6.81 0 013.94 4.38c.33 1.04.5 2.19.5 3.43V93h-1.74a1.8 1.8 0 01-.88-.18c-.2-.13-.36-.38-.48-.74l-.44-2.12c-.59.55-1.16 1.03-1.72 1.46a9.48 9.48 0 01-3.74 1.7c-.69.15-1.46.23-2.3.23-.87 0-1.69-.12-2.45-.35a5.34 5.34 0 01-3.34-2.93 6.64 6.64 0 01-.49-2.64c0-.88.25-1.72.73-2.53a6.33 6.33 0 012.35-2.17c1.09-.63 2.5-1.15 4.25-1.54 1.75-.41 3.89-.65 6.42-.7v-1.75c0-1.73-.37-3.03-1.12-3.91-.75-.9-1.84-1.34-3.28-1.34-.97 0-1.78.12-2.44.37-.64.23-1.2.5-1.7.81l-1.23.82c-.33.23-.67.35-1 .35-.27 0-.5-.07-.69-.2a2.1 2.1 0 01-.48-.53l-.7-1.25zm27.67 19.5c-1.76 0-3.12-.5-4.07-1.48-.94-.98-1.41-2.4-1.41-4.25V74h-2.68a.9.9 0 01-.6-.2c-.16-.14-.24-.36-.24-.66v-1.56l3.65-.46.9-6.89c.05-.22.14-.4.29-.52a.88.88 0 01.62-.22H142v7.67h6.44V74h-6.44v13.38c0 .94.22 1.63.68 2.09.45.45 1.04.68 1.76.68a3.21 3.21 0 001.85-.53l.55-.35c.16-.12.3-.18.41-.18.2 0 .4.13.55.38l1.15 1.87a7.45 7.45 0 01-2.44 1.5c-.96.35-1.94.52-2.95.52zm19.68-10.4c-1.8.07-3.34.21-4.62.45-1.26.22-2.3.51-3.1.88-.8.36-1.37.8-1.74 1.3-.35.5-.53 1.05-.53 1.67 0 .58.1 1.1.3 1.52.18.42.44.77.76 1.05.34.27.73.46 1.17.6.45.11.94.17 1.45.17a7.3 7.3 0 003.5-.81 12.04 12.04 0 002.82-2.2v-4.62zm-12.65-9.1a12.72 12.72 0 013.99-2.66c1.42-.59 3-.88 4.72-.88 1.25 0 2.36.2 3.33.61a6.81 6.81 0 013.94 4.38c.33 1.04.5 2.19.5 3.43V93h-1.74a1.8 1.8 0 01-.88-.18c-.2-.13-.36-.38-.48-.74l-.44-2.12c-.59.55-1.16 1.03-1.72 1.46a9.48 9.48 0 01-3.74 1.7c-.69.15-1.46.23-2.3.23-.87 0-1.69-.12-2.45-.35a5.33 5.33 0 01-3.34-2.93 6.62 6.62 0 01-.49-2.64c0-.88.25-1.72.73-2.53a6.33 6.33 0 012.35-2.17c1.09-.63 2.5-1.15 4.25-1.54 1.74-.41 3.89-.65 6.42-.7v-1.75c0-1.73-.37-3.03-1.12-3.91-.75-.9-1.84-1.34-3.28-1.34-.97 0-1.78.12-2.44.37-.64.23-1.2.5-1.7.81-.46.3-.87.57-1.22.82-.34.23-.68.35-1.02.35-.26 0-.49-.07-.68-.2-.19-.14-.35-.32-.48-.53l-.7-1.25z" fill="#fff"/><path fill="#D42B21" d="M0 106.79h210V120H0z"/></g><defs><clipPath id="clip0"><path fill="#fff" d="M0 0h210v120H0z"/></clipPath></defs></svg></g><a href="https://ourworldindata.org/grapher/hidden-hunger-index-vs-gdp-per-capita" target="_blank"><text font-size="25.2" x="15" y="35.2" fill="#555"><tspan x="15" y="35.16">Hidden Hunger Index vs. GDP per capita, 2009</tspan></text></a><text font-size="14.4" x="15" y="53.7" fill="#666"><tspan x="15" y="53.72">Shown is the Hidden Hunger Index for preschool-age children, which is calculated as the average of three</tspan><tspan x="15" y="69.56">deficiency prevalence estimates: preschool children affected by stunting, anemia due to iron deficiency, and</tspan><tspan x="15" y="85.4">vitamin-A deficiency. A higher index value indicates more severe nutritional deficiencies. GDP per capita is</tspan><tspan x="15" y="101.24">adjusted for price differences between countries and measured in international-$.</tspan></text></g><g><g class="AxisBoxView"><g class="HorizontalAxis"><text font-size="12.6" x="321.8" y="554"><tspan x="321.78" y="553.98">GDP per capita</tspan></text><text x="209.2" y="533.9" fill="#666" text-anchor="middle" font-size="16.2">$1,000</text><text x="523.4" y="533.9" fill="#666" text-anchor="middle" font-size="16.2">$10,000</text></g><g class="VerticalAxis"><text font-size="12.6" x="-460.4" y="25.1" transform="rotate(-90)"><tspan x="-460.39" y="25.08">Hidden Hunger Index in pre-school children</tspan></text><text x="55.74" y="512.7" fill="#666" dominant-baseline="middle" text-anchor="end" font-size="16.2">0</text><text x="55.74" y="437.4" fill="#666" dominant-baseline="middle" text-anchor="end" font-size="16.2">10</text><text x="55.74" y="362.1" fill="#666" dominant-baseline="middle" text-anchor="end" font-size="16.2">20</text><text x="55.74" y="286.8" fill="#666" dominant-baseline="middle" text-anchor="end" font-size="16.2">30</text><text x="55.74" y="211.5" fill="#666" dominant-baseline="middle" text-anchor="end" font-size="16.2">40</text><text x="55.74" y="136.2" fill="#666" dominant-baseline="middle" text-anchor="end" font-size="16.2">50</text></g><g class="AxisGridLines"><path stroke="#ccc" d="M60.74 512.7H715"/><path stroke="#ddd" stroke-dasharray="3,2" d="M60.74 437.4H715M60.74 362.1H715M60.74 286.8H715M60.74 211.5H715M60.74 136.2H715"/></g><g class="AxisGridLines" stroke="#ddd" stroke-dasharray="3,2"><path d="M209.2 512.7V121.1M523.4 512.7V121.1"/></g></g><g class="PointsWithLabels clickable" clip-path="url(#a)" font-family="Arial, sans-serif"><path fill="rgba(255,255,255,0)" d="M60.74 121.1H715v391.6H60.74z"/><defs><clipPath id="a"><path d="M50.74 111.1H725v411.6H50.74z"/></clipPath></defs><g class="key-China_0"><circle cx="504" cy="427" r="17.84" fill="#d14e5b" opacity=".8" stroke="#333" stroke-width=".7"/></g><g class="key-India_0"><circle cx="390" cy="149" r="16.92" fill="#d14e5b" opacity=".8" stroke="#333" stroke-width=".7"/></g><g class="key-Indonesia_0"><circle cx="463" cy="307" r="7.68" fill="#d14e5b" opacity=".8" stroke="#333" stroke-width=".7"/></g><g class="key-Brazil_0"><circle cx="545" cy="392" r="6.97" fill="#69c487" opacity=".8" stroke="#333" stroke-width=".7"/></g><g class="key-Pakistan_0"><circle cx="394" cy="311" r="6.49" fill="#d14e5b" opacity=".8" stroke="#333" stroke-width=".7"/></g><g class="key-Nigeria_0"><circle cx="423" cy="241" r="6.26" fill="#5675c1" opacity=".8" stroke="#333" stroke-width=".7"/></g><g class="key-Bangladesh_0"><circle cx="309" cy="292" r="6.18" fill="#d14e5b" opacity=".8" stroke="#333" stroke-width=".7"/></g><g class="key-Russia_0"><circle cx="603" cy="405" r="6.04" fill="#ffd336" opacity=".8" stroke="#333" stroke-width=".7"/></g><g class="key-Mexico_0"><circle cx="567" cy="377" r="5.49" fill="#4d824b" opacity=".8" stroke="#333" stroke-width=".7"/></g><g class="key-Philippines_0"><circle cx="429" cy="281" r="4.97" fill="#d14e5b" opacity=".8" stroke="#333" stroke-width=".7"/></g><g class="key-Vietnam_0"><circle cx="390" cy="332" r="4.86" fill="#d14e5b" opacity=".8" stroke="#333" stroke-width=".7"/></g><g class="key-Ethiopia_0"><circle cx="185" cy="201" r="4.8" fill="#5675c1" opacity=".8" stroke="#333" stroke-width=".7"/></g><g class="key-Egypt_0"><circle cx="490" cy="347" r="4.73" fill="#5675c1" opacity=".8" stroke="#333" stroke-width=".7"/></g><g class="key-Iran_0"><circle cx="588" cy="324" r="4.51" fill="#d14e5b" opacity=".8" stroke="#333" stroke-width=".7"/></g><g class="key-Turkey_0"><circle cx="578" cy="402" r="4.45" fill="#d14e5b" opacity=".8" stroke="#fff" stroke-width=".7"/></g><g class="key-Thailand_0"><circle cx="546" cy="402" r="4.33" fill="#d14e5b" opacity=".8" stroke="#333" stroke-width=".7"/></g><g class="key-Democratic-Republic-of-Congo_0"><circle cx="60" cy="153" r="4.21" fill="#5675c1" opacity=".8" stroke="#333" stroke-width=".7"/></g><g class="key-South-Africa_0"><circle cx="538" cy="374" r="3.88" fill="#5675c1" opacity=".8" stroke="#fff" stroke-width=".7"/></g><g class="key-Myanmar_0"><circle cx="351" cy="239" r="3.84" fill="#d14e5b" opacity=".8" stroke="#333" stroke-width=".7"/></g><g class="key-Ukraine_0"><circle cx="499" cy="362" r="3.73" fill="#ffd336" opacity=".8" stroke="#333" stroke-width=".7"/></g><g class="key-Colombia_0"><circle cx="520" cy="424" r="3.71" fill="#69c487" opacity=".8" stroke="#333" stroke-width=".7"/></g><g class="key-Tanzania_0"><circle cx="288" cy="249" r="3.69" fill="#5675c1" opacity=".8" stroke="#333" stroke-width=".7"/></g><g class="key-Argentina_0"><circle cx="595" cy="435" r="3.56" fill="#69c487" opacity=".8" stroke="#333" stroke-width=".7"/></g><g class="key-Kenya_0"><circle cx="322" cy="123" r="3.54" fill="#5675c1" opacity=".8" stroke="#333" stroke-width=".7"/></g><g class="key-Poland_0"><circle cx="615" cy="417" r="3.48" fill="#ffd336" opacity=".8" stroke="#333" stroke-width=".7"/></g><g class="key-Algeria_0"><circle cx="536" cy="382" r="3.38" fill="#5675c1" opacity=".8" stroke="#fff" stroke-width=".7"/></g><g class="key-Uganda_0"><circle cx="275" cy="254" r="3.29" fill="#5675c1" opacity=".8" stroke="#fff" stroke-width=".7"/></g><g class="key-Morocco_0"><circle cx="452" cy="307" r="3.26" fill="#5675c1" opacity=".8" stroke="#fff" stroke-width=".7"/></g><g class="key-Iraq_0"><circle cx="493" cy="299" r="3.18" fill="#d14e5b" opacity=".8" stroke="#fff" stroke-width=".7"/></g><g class="key-Peru_0"><circle cx="502" cy="349" r="3.15" fill="#69c487" opacity=".8" stroke="#fff" stroke-width=".7"/></g><g class="key-Venezuela_0"><circle cx="556" cy="414" r="3.14" fill="#69c487" opacity=".8" stroke="#fff" stroke-width=".7"/></g><g class="key-Uzbekistan_0"><circle cx="454" cy="281" r="3.12" fill="#d14e5b" opacity=".8" stroke="#fff" stroke-width=".7"/></g><g class="key-Malaysia_0"><circle cx="608" cy="424" r="3.1" fill="#d14e5b" opacity=".8" stroke="#fff" stroke-width=".7"/></g><g class="key-Nepal_0"><circle cx="275" cy="246" r="3.07" fill="#d14e5b" opacity=".8" stroke="#fff" stroke-width=".7"/></g><g class="key-Saudi-Arabia_0"><circle cx="690" cy="439" r="3.06" fill="#d14e5b" opacity=".8" stroke="#fff" stroke-width=".7"/></g><g class="key-Ghana_0"><circle cx="338" cy="153" r="2.96" fill="#5675c1" opacity=".8" stroke="#333" stroke-width=".7"/></g><g class="key-Mozambique_0"><circle cx="205" cy="128" r="2.94" fill="#5675c1" opacity=".8" stroke="#333" stroke-width=".7"/></g><g class="key-Yemen_0"><circle cx="383" cy="213" r="2.92" fill="#d14e5b" opacity=".8" stroke="#333" stroke-width=".7"/></g><g class="key-Angola_0"><circle cx="419" cy="241" r="2.9" fill="#5675c1" opacity=".8" stroke="#fff" stroke-width=".7"/></g><g class="key-Syria_0"><circle cx="434" cy="349" r="2.83" fill="#d14e5b" opacity=".8" stroke="#333" stroke-width=".7"/></g><g class="key-Romania_0"><circle cx="587" cy="379" r="2.82" fill="#ffd336" opacity=".8" stroke="#fff" stroke-width=".7"/></g><g class="key-Madagascar_0"><circle cx="116" cy="188" r="2.82" fill="#5675c1" opacity=".8" stroke="#333" stroke-width=".7"/></g><g class="key-Sri-Lanka_0"><circle cx="474" cy="344" r="2.8" fill="#d14e5b" opacity=".8" stroke="#fff" stroke-width=".7"/></g><g class="key-Cote-d__0027Ivoire_0"><circle cx="338" cy="181" r="2.8" fill="#5675c1" opacity=".8" stroke="#333" stroke-width=".7"/></g><g class="key-Cameroon_0"><circle cx="327" cy="239" r="2.77" fill="#5675c1" opacity=".8" stroke="#fff" stroke-width=".7"/></g><g class="key-Chile_0"><circle cx="593" cy="450" r="2.66" fill="#69c487" opacity=".8" stroke="#333" stroke-width=".7"/></g><g class="key-Kazakhstan_0"><circle cx="581" cy="347" r="2.64" fill="#d14e5b" opacity=".8" stroke="#333" stroke-width=".7"/></g><g class="key-Niger_0"><circle cx="166" cy="121" r="2.62" fill="#5675c1" opacity=".8" stroke="#333" stroke-width=".7"/></g><g class="key-Burkina-Faso_0"><circle cx="239" cy="149" r="2.59" fill="#5675c1" opacity=".8" stroke="#333" stroke-width=".7"/></g><g class="key-Malawi_0"><circle cx="216" cy="138" r="2.57" fill="#5675c1" opacity=".8" stroke="#fff" stroke-width=".7"/></g><g class="key-Ecuador_0"><circle cx="501" cy="354" r="2.57" fill="#69c487" opacity=".8" stroke="#fff" stroke-width=".7"/></g><g class="key-Mali_0"><circle cx="255" cy="166" r="2.56" fill="#5675c1" opacity=".8" stroke="#333" stroke-width=".7"/></g><g class="key-Guatemala_0"><circle cx="455" cy="289" r="2.55" fill="#4d824b" opacity=".8" stroke="#fff" stroke-width=".7"/></g><g class="key-Cambodia_0"><circle cx="328" cy="279" r="2.54" fill="#d14e5b" opacity=".8" stroke="#fff" stroke-width=".7"/></g><g class="key-Zimbabwe_0"><circle cx="266" cy="258" r="2.53" fill="#5675c1" opacity=".8" stroke="#fff" stroke-width=".7"/></g><g class="key-Zambia_0"><circle cx="346" cy="196" r="2.51" fill="#5675c1" opacity=".8" stroke="#333" stroke-width=".7"/></g><g class="key-Senegal_0"><circle cx="309" cy="266" r="2.47" fill="#5675c1" opacity=".8" stroke="#333" stroke-width=".7"/></g><g class="key-Chad_0"><circle cx="260" cy="186" r="2.42" fill="#5675c1" opacity=".8" stroke="#333" stroke-width=".7"/></g><g class="key-Guinea_0"><circle cx="219" cy="201" r="2.37" fill="#5675c1" opacity=".8" stroke="#fff" stroke-width=".7"/></g><g class="key-Tunisia_0"><circle cx="525" cy="420" r="2.37" fill="#5675c1" opacity=".8" stroke="#fff" stroke-width=".7"/></g><g class="key-Rwanda_0"><circle cx="237" cy="296" r="2.34" fill="#5675c1" opacity=".8" stroke="#333" stroke-width=".7"/></g><g class="key-Hungary_0"><circle cx="629" cy="457" r="2.34" fill="#ffd336" opacity=".8" stroke="#333" stroke-width=".7"/></g><g class="key-Haiti_0"><circle cx="272" cy="281" r="2.34" fill="#4d824b" opacity=".8" stroke="#333" stroke-width=".7"/></g><g class="key-Dominican-Republic_0"><circle cx="529" cy="409" r="2.33" fill="#4d824b" opacity=".8" stroke="#fff" stroke-width=".7"/></g><g class="key-Bolivia_0"><circle cx="418" cy="311" r="2.33" fill="#69c487" opacity=".8" stroke="#fff" stroke-width=".7"/></g><g class="key-Belarus_0"><circle cx="570" cy="417" r="2.32" fill="#ffd336" opacity=".8" stroke="#333" stroke-width=".7"/></g><g class="key-Benin_0"><circle cx="287" cy="126" r="2.29" fill="#5675c1" opacity=".8" stroke="#333" stroke-width=".7"/></g><g class="key-Azerbaijan_0"><circle cx="541" cy="337" r="2.29" fill="#d14e5b" opacity=".8" stroke="#fff" stroke-width=".7"/></g><g class="key-Burundi_0"><circle cx="139" cy="213" r="2.27" fill="#5675c1" opacity=".8" stroke="#333" stroke-width=".7"/></g><g class="key-Honduras_0"><circle cx="397" cy="359" r="2.25" fill="#4d824b" opacity=".8" stroke="#fff" stroke-width=".7"/></g><g class="key-Tajikistan_0"><circle cx="321" cy="299" r="2.22" fill="#d14e5b" opacity=".8" stroke="#fff" stroke-width=".7"/></g><g class="key-Bulgaria_0"><circle cx="579" cy="397" r="2.22" fill="#ffd336" opacity=".8" stroke="#fff" stroke-width=".7"/></g><g class="key-Jordan_0"><circle cx="517" cy="402" r="2.18" fill="#d14e5b" opacity=".8" stroke="#fff" stroke-width=".7"/></g><g class="key-Togo_0"><circle cx="232" cy="292" r="2.16" fill="#5675c1" opacity=".8" stroke="#fff" stroke-width=".7"/></g><g class="key-Sierra-Leone_0"><circle cx="235" cy="136" r="2.15" fill="#5675c1" opacity=".8" stroke="#fff" stroke-width=".7"/></g><g class="key-Laos_0"><circle cx="381" cy="221" r="2.15" fill="#d14e5b" opacity=".8" stroke="#fff" stroke-width=".7"/></g><g class="key-El-Salvador_0"><circle cx="439" cy="405" r="2.15" fill="#4d824b" opacity=".8" stroke="#333" stroke-width=".7"/></g><g class="key-Paraguay_0"><circle cx="452" cy="394" r="2.14" fill="#69c487" opacity=".8" stroke="#fff" stroke-width=".7"/></g><g class="key-Nicaragua_0"><circle cx="394" cy="427" r="2.12" fill="#4d824b" opacity=".8" stroke="#333" stroke-width=".7"/></g><g class="key-Slovakia_0"><circle cx="642" cy="417" r="2.1" fill="#ffd336" opacity=".8" stroke="#fff" stroke-width=".7"/></g><g class="key-Kyrgyzstan_0"><circle cx="350" cy="339" r="2.1" fill="#d14e5b" opacity=".8" stroke="#fff" stroke-width=".7"/></g><g class="key-Turkmenistan_0"><circle cx="565" cy="341" r="2.08" fill="#d14e5b" opacity=".8" stroke="#fff" stroke-width=".7"/></g><g class="key-Costa-Rica_0"><circle cx="549" cy="450" r="2.05" fill="#4d824b" opacity=".8" stroke="#fff" stroke-width=".7"/></g><g class="key-Central-African-Republic_0"><circle cx="186" cy="128" r="2.05" fill="#5675c1" opacity=".8" stroke="#fff" stroke-width=".7"/></g><g class="key-Croatia_0"><circle cx="621" cy="452" r="2.05" fill="#ffd336" opacity=".8" stroke="#fff" stroke-width=".7"/></g><g class="key-Georgia_0"><circle cx="472" cy="347" r="2.04" fill="#d14e5b" opacity=".8" stroke="#fff" stroke-width=".7"/></g><g class="key-Congo_0"><circle cx="365" cy="292" r="2.04" fill="#5675c1" opacity=".8" stroke="#fff" stroke-width=".7"/></g><g class="key-Lebanon_0"><circle cx="593" cy="374" r="2.04" fill="#d14e5b" opacity=".8" stroke="#fff" stroke-width=".7"/></g><g class="key-Moldova_0"><circle cx="373" cy="374" r="2.03" fill="#ffd336" opacity=".8" stroke="#333" stroke-width=".7"/></g><g class="key-Liberia_0"><circle cx="154" cy="171" r="2.01" fill="#5675c1" opacity=".8" stroke="#333" stroke-width=".7"/></g><g class="key-Bosnia-and-Herzegovina_0"><circle cx="504" cy="409" r="2.01" fill="#ffd336" opacity=".8" stroke="#fff" stroke-width=".7"/></g><g class="key-Panama_0"><circle cx="569" cy="389" r="2" fill="#4d824b" opacity=".8" stroke="#fff" stroke-width=".7"/></g><g class="key-Mauritania_0"><circle cx="333" cy="246" r="2" fill="#5675c1" opacity=".8" stroke="#fff" stroke-width=".7"/></g><g class="key-Uruguay_0"><circle cx="574" cy="420" r="1.99" fill="#69c487" opacity=".8" stroke="#fff" stroke-width=".7"/></g><g class="key-Lithuania_0"><circle cx="610" cy="409" r="1.98" fill="#ffd336" opacity=".8" stroke="#fff" stroke-width=".7"/></g><g class="key-Albania_0"><circle cx="507" cy="392" r="1.97" fill="#ffd336" opacity=".8" stroke="#333" stroke-width=".7"/></g><g class="key-Armenia_0"><circle cx="465" cy="420" r="1.96" fill="#d14e5b" opacity=".8" stroke="#fff" stroke-width=".7"/></g><g class="key-Oman_0"><circle cx="715" cy="405" r="1.96" fill="#d14e5b" opacity=".8" stroke="#333" stroke-width=".7"/></g><g class="key-Jamaica_0"><circle cx="479" cy="356" r="1.96" fill="#4d824b" opacity=".8" stroke="#fff" stroke-width=".7"/></g><g class="key-Mongolia_0"><circle cx="459" cy="362" r="1.95" fill="#d14e5b" opacity=".8" stroke="#fff" stroke-width=".7"/></g><g class="key-Latvia_0"><circle cx="602" cy="402" r="1.92" fill="#ffd336" opacity=".8" stroke="#fff" stroke-width=".7"/></g><g class="key-Namibia_0"><circle cx="493" cy="344" r="1.92" fill="#5675c1" opacity=".8" stroke="#fff" stroke-width=".7"/></g><g class="key-Macedonia_0"><circle cx="538" cy="369" r="1.91" fill="#ffd336" opacity=".8" stroke="#fff" stroke-width=".7"/></g><g class="key-Lesotho_0"><circle cx="307" cy="251" r="1.91" fill="#5675c1" opacity=".8" stroke="#fff" stroke-width=".7"/></g><g class="key-Botswana_0"><circle cx="541" cy="326" r="1.91" fill="#5675c1" opacity=".8" stroke="#fff" stroke-width=".7"/></g><g class="key-Gambia_0"><circle cx="278" cy="183" r="1.89" fill="#5675c1" opacity=".8" stroke="#fff" stroke-width=".7"/></g><g class="key-Gabon_0"><circle cx="552" cy="349" r="1.88" fill="#5675c1" opacity=".8" stroke="#fff" stroke-width=".7"/></g><g class="key-Guinea__002dBissau_0"><circle cx="237" cy="211" r="1.88" fill="#5675c1" opacity=".8" stroke="#333" stroke-width=".7"/></g><g class="key-Estonia_0"><circle cx="624" cy="417" r="1.87" fill="#ffd336" opacity=".8" stroke="#fff" stroke-width=".7"/></g><g class="key-Trinidad-and-Tobago_0"><circle cx="641" cy="435" r="1.87" fill="#4d824b" opacity=".8" stroke="#fff" stroke-width=".7"/></g><g class="key-Mauritius_0"><circle cx="579" cy="439" r="1.86" fill="#5675c1" opacity=".8" stroke="#fff" stroke-width=".7"/></g><g class="key-Swaziland_0"><circle cx="487" cy="264" r="1.86" fill="#5675c1" opacity=".8" stroke="#333" stroke-width=".7"/></g><g class="key-Equatorial-Guinea_0"><circle cx="614" cy="339" r="1.84" fill="#5675c1" opacity=".8" stroke="#fff" stroke-width=".7"/></g><g class="key-Fiji_0"><circle cx="467" cy="397" r="1.84" fill="#a652ba" opacity=".8" stroke="#fff" stroke-width=".7"/></g><g class="key-Djibouti_0"><circle cx="343" cy="258" r="1.83" fill="#5675c1" opacity=".8" stroke="#fff" stroke-width=".7"/></g><g class="key-Bhutan_0"><circle cx="459" cy="261" r="1.83" fill="#d14e5b" opacity=".8" stroke="#fff" stroke-width=".7"/></g><g class="key-Comoros_0"><circle cx="258" cy="258" r="1.82" fill="#5675c1" opacity=".8" stroke="#fff" stroke-width=".7"/></g><g class="key-Suriname_0"><circle cx="554" cy="407" r="1.81" fill="#69c487" opacity=".8" stroke="#fff" stroke-width=".7"/></g><g class="key-Cape-Verde_0"><circle cx="445" cy="402" r="1.81" fill="#5675c1" opacity=".8" stroke="#fff" stroke-width=".7"/></g><g class="key-Maldives_0"><circle cx="551" cy="286" r="1.8" fill="#d14e5b" opacity=".8" stroke="#333" stroke-width=".7"/></g><g class="key-Belize_0"><circle cx="481" cy="382" r="1.8" fill="#4d824b" opacity=".8" stroke="#fff" stroke-width=".7"/></g><g class="key-Saint-Lucia_0"><circle cx="523" cy="409" r="1.79" fill="#4d824b" opacity=".8" stroke="#fff" stroke-width=".7"/></g><g class="key-Sao-Tome-and-Principe_0"><circle cx="321" cy="153" r="1.79" fill="#5675c1" opacity=".8" stroke="#fff" stroke-width=".7"/></g><g class="key-Saint-Vincent-and-the-Grenadines_0"><circle cx="515" cy="399" r="1.79" fill="#4d824b" opacity=".8" stroke="#fff" stroke-width=".7"/></g><g class="key-Grenada_0"><circle cx="530" cy="394" r="1.79" fill="#4d824b" opacity=".8" stroke="#fff" stroke-width=".7"/></g><g class="key-Antigua-and-Barbuda_0"><circle cx="627" cy="399" r="1.79" fill="#4d824b" opacity=".8" stroke="#fff" stroke-width=".7"/></g><g class="key-Seychelles_0"><circle cx="614" cy="444" r="1.79" fill="#5675c1" opacity=".8" stroke="#fff" stroke-width=".7"/></g><g class="key-Dominica_0"><circle cx="523" cy="424" r="1.79" fill="#4d824b" opacity=".8" stroke="#fff" stroke-width=".7"/></g><g class="key-Saint-Kitts-and-Nevis_0"><circle cx="616" cy="424" r="1.78" fill="#4d824b" opacity=".8" stroke="#fff" stroke-width=".7"/></g><g class="backgroundLabels" fill="#333"><text x="504" y="408.16" font-size="14.3">China</text><text x="390" y="135.06" font-size="13.96">India</text><text x="463" y="298.32" font-size="11.58">Indonesia</text><text x="545" y="384.03" font-size="11.48">Brazil</text><text x="394" y="303.51" font-size="11.41">Pakistan</text><text x="423" y="233.74" font-size="11.38">Nigeria</text><text x="309" y="284.82" font-size="11.37">Bangladesh</text><text x="603" y="397.96" font-size="11.35">Russia</text><text x="567" y="370.51" font-size="11.28">Mexico</text><text x="429" y="275.03" font-size="11.22">Philippines</text><text x="390" y="326.14" font-size="11.21">Vietnam</text><text x="185" y="195.2" font-size="11.21">Ethiopia</text><text x="490" y="341.27" font-size="11.2">Egypt</text><text x="588" y="318.49" font-size="11.18">Iran</text><text x="546" y="396.67" font-size="11.16">Thailand</text><text x="60" y="147.79" font-size="11.15">Democratic Republic of Congo</text><text x="351" y="234.16" font-size="11.12">Myanmar</text><text x="499" y="357.27" font-size="11.11">Ukraine</text><text x="520" y="419.29" font-size="11.11">Colombia</text><text x="288" y="244.31" font-size="11.11">Tanzania</text><text x="595" y="430.44" font-size="11.1">Argentina</text><text x="322" y="132.2" font-size="11.1">Kenya</text><text x="615" y="412.52" font-size="11.09">Poland</text><text x="338" y="149.04" font-size="11.06">Ghana</text><text x="205" y="132.16" font-size="11.06">Mozambique</text><text x="383" y="209.08" font-size="11.06">Yemen</text><text x="434" y="345.17" font-size="11.05">Syria</text><text x="116" y="184.18" font-size="11.05">Madagascar</text><text x="338" y="177.2" font-size="11.05">Cote d&apos;Ivoire</text><text x="593" y="446.34" font-size="11.04">Chile</text><text x="581" y="343.36" font-size="11.04">Kazakhstan</text><text x="166" y="132.14" font-size="11.04">Niger</text><text x="239" y="145.41" font-size="11.04">Burkina Faso</text><text x="255" y="162.44" font-size="11.04">Mali</text><text x="346" y="192.49" font-size="11.03">Zambia</text><text x="309" y="262.53" font-size="11.03">Senegal</text><text x="260" y="182.58" font-size="11.03">Chad</text><text x="237" y="292.66" font-size="11.02">Rwanda</text><text x="629" y="453.66" font-size="11.02">Hungary</text><text x="272" y="277.66" font-size="11.02">Haiti</text><text x="570" y="413.68" font-size="11.02">Belarus</text><text x="287" y="132.12" font-size="11.02">Benin</text><text x="139" y="209.73" font-size="11.02">Burundi</text><text x="439" y="401.85" font-size="11.01">El Salvador</text><text x="394" y="423.88" font-size="11.01">Nicaragua</text><text x="373" y="370.97" font-size="11.01">Moldova</text><text x="154" y="167.99" font-size="11.01">Liberia</text><text x="507" y="389.03" font-size="11.01">Albania</text><text x="684.95" y="402.04" font-size="11.01">Oman</text><text x="237" y="208.12" font-size="11">Guinea-Bissau</text><text x="487" y="261.14" font-size="11">Swaziland</text><text x="551" y="283.2" font-size="11">Maldives</text></g></g><g class="ScatterColorLegend clickable" cursor="pointer"><g class="legendMark">,<path fill="#5675c1" d="M735 124.1h6v6h-6z"/>,<text font-size="12.6" x="746" y="131.2"><tspan x="746" y="131.18">Africa</tspan></text></g><g class="legendMark">,<path fill="#d14e5b" d="M735 141.7h6v6h-6z"/>,<text font-size="12.6" x="746" y="148.8"><tspan x="746" y="148.78">Asia</tspan></text></g><g class="legendMark">,<path fill="#ffd336" d="M735 159.3h6v6h-6z"/>,<text font-size="12.6" x="746" y="166.4"><tspan x="746" y="166.38">Europe</tspan></text></g><g class="legendMark">,<path fill="#4d824b" d="M735 176.9h6v6h-6z"/>,<text font-size="12.6" x="746" y="184"><tspan x="746" y="183.98">North America</tspan></text></g><g class="legendMark">,<path fill="#a652ba" d="M735 194.5h6v6h-6z"/>,<text font-size="12.6" x="746" y="201.6"><tspan x="746" y="201.58">Oceania</tspan></text></g><g class="legendMark">,<path fill="#69c487" d="M735 212.1h6v6h-6z"/>,<text font-size="12.6" x="746" y="219.2"><tspan x="746" y="219.18">South America</tspan></text></g></g></g><g class="SourcesFooter" fill="#777"><g class="clickable" fill="#777"><text font-size="12.6" x="15" y="581.6"><tspan x="15" y="581.58">Source: Muthayya et al. (2013); Penn World Tables</tspan></text></g><text font-size="12.6" x="529.7" y="581.6"><tspan x="529.7" y="581.58"><a target="_blank" href="https://ourworldindata.org/micronutrient-deficiency/" fill="#777">OurWorldInData.org/micronutrient-deficiency/</a> • <a class="cclogo" href="http://creativecommons.org/licenses/by/4.0/deed.en_US" target="_blank" fill="#777">CC BY</a></tspan></text></g></svg>