<svg xmlns="http://www.w3.org/2000/svg" version="1.1" style="font-family:&#x27;Helvetica Neue&#x27;, Helvetica, Arial, sans-serif;font-size:18px;background-color:white;text-rendering:optimizeLegibility;-webkit-font-smoothing:antialiased" width="850" height="600"><g class="ChartTab"><g class="HeaderView"><g opacity="0.8" transform="translate(778, 15) scale(0.27)"><a xmlns:xlink="http://www.w3.org/1999/xlink" xlink:href="https://ourworldindata.org" target="_blank"><g><rect x="0" y="0" fill="#1B2543" width="211.2" height="130.1"/><rect x="0" y="112.2" fill="#E63912" width="211.2" height="17.9"/><g><rect x="1.2" y="12.3" fill="none" width="210.2" height="99.2"/><path fill="#FFFFFF" d="M37.8,32.2c0,12.7-7.7,19.4-17.1,19.4c-9.7,0-16.6-7.5-16.6-18.7c0-11.7,7.3-19.3,17.1-19.3 C31.3,13.7,37.8,21.3,37.8,32.2z M9.2,32.8c0,7.9,4.3,14.9,11.8,14.9c7.5,0,11.8-6.9,11.8-15.3c0-7.3-3.8-14.9-11.8-14.9 C13.1,17.5,9.2,24.8,9.2,32.8z"/><path fill="#FFFFFF" d="M62.7,43.8c0,2.7,0.1,5.1,0.2,7.2h-4.3l-0.3-4.3h-0.1c-1.3,2.1-4,4.9-8.8,4.9c-4.2,0-9.1-2.3-9.1-11.6 V24.6h4.8v14.6c0,5,1.5,8.4,5.9,8.4c3.2,0,5.5-2.2,6.3-4.4c0.3-0.7,0.4-1.6,0.4-2.5V24.6h4.8V43.8z"/><path fill="#FFFFFF" d="M67.3,32.8c0-3.1-0.1-5.8-0.2-8.2h4.2l0.2,5.2h0.2c1.2-3.5,4.1-5.8,7.3-5.8c0.5,0,0.9,0.1,1.4,0.2v4.5 c-0.5-0.1-1-0.2-1.6-0.2c-3.4,0-5.8,2.6-6.5,6.2c-0.1,0.7-0.2,1.4-0.2,2.2V51h-4.8V32.8z"/><path fill="#FFFFFF" d="M95.4,51l-9.4-36.8h5l4.4,18.6c1.1,4.6,2.1,9.2,2.7,12.7h0.1c0.6-3.7,1.8-8,3-12.8l4.9-18.5h5l4.5,18.7 c1,4.4,2,8.7,2.6,12.6h0.1c0.8-4,1.8-8.1,3-12.7l4.9-18.5h4.9L120.6,51h-5L111,31.9c-1.1-4.7-1.9-8.3-2.4-12h-0.1 c-0.7,3.7-1.5,7.3-2.8,12L100.4,51H95.4z"/><path fill="#FFFFFF" d="M154.9,37.6c0,9.8-6.8,14-13.2,14c-7.2,0-12.7-5.2-12.7-13.6c0-8.8,5.8-14,13.1-14 C149.8,24,154.9,29.5,154.9,37.6z M133.9,37.9c0,5.8,3.3,10.1,8,10.1c4.6,0,8-4.3,8-10.3c0-4.5-2.2-10.1-7.9-10.1 C136.3,27.6,133.9,32.8,133.9,37.9z"/><path fill="#FFFFFF" d="M158.2,32.8c0-3.1-0.1-5.8-0.2-8.2h4.2l0.2,5.2h0.2c1.2-3.5,4.1-5.8,7.3-5.8c0.5,0,0.9,0.1,1.4,0.2v4.5 c-0.5-0.1-1-0.2-1.6-0.2c-3.4,0-5.8,2.6-6.5,6.2c-0.1,0.7-0.2,1.4-0.2,2.2V51h-4.8V32.8z"/><path fill="#FFFFFF" d="M173.5,12.3h4.8V51h-4.8V12.3z"/><path fill="#FFFFFF" d="M206.5,12.3v31.9c0,2.3,0.1,5,0.2,6.8h-4.3l-0.2-4.6H202c-1.5,2.9-4.7,5.2-9,5.2 c-6.4,0-11.3-5.4-11.3-13.4c-0.1-8.8,5.4-14.2,11.9-14.2c4,0,6.8,1.9,8,4h0.1V12.3H206.5z M201.7,35.4c0-0.6-0.1-1.4-0.2-2 c-0.7-3.1-3.3-5.6-6.9-5.6c-5,0-7.9,4.4-7.9,10.2c0,5.3,2.6,9.8,7.8,9.8c3.2,0,6.2-2.1,7.1-5.7c0.2-0.7,0.2-1.3,0.2-2.1V35.4z"/><path fill="#FFFFFF" d="M42.8,64c0.1,1.6-1.1,2.9-3.1,2.9c-1.7,0-2.9-1.3-2.9-2.9c0-1.7,1.3-3,3-3C41.7,61,42.8,62.3,42.8,64z M37.4,97.8V71.4h4.8v26.4H37.4z"/><path fill="#FFFFFF" d="M47.5,78.6c0-2.7-0.1-5-0.2-7.1h4.3l0.3,4.4h0.1c1.3-2.5,4.4-5,8.8-5c3.7,0,9.4,2.2,9.4,11.2v15.8h-4.8 V82.6c0-4.3-1.6-7.8-6.1-7.8c-3.2,0-5.6,2.2-6.5,4.9c-0.2,0.6-0.3,1.4-0.3,2.2v15.9h-4.8V78.6z"/><path fill="#FFFFFF" d="M84,61.6c2.9-0.4,6.3-0.8,10.1-0.8c6.8,0,11.7,1.6,14.9,4.6c3.3,3,5.2,7.3,5.2,13.2c0,6-1.9,10.9-5.3,14.3 c-3.4,3.4-9.1,5.3-16.3,5.3c-3.4,0-6.2-0.2-8.6-0.4V61.6z M88.8,94.1c1.2,0.2,3,0.3,4.8,0.3c10.2,0,15.7-5.7,15.7-15.6 c0.1-8.7-4.9-14.2-14.9-14.2c-2.5,0-4.3,0.2-5.6,0.5V94.1z"/><path fill="#FFFFFF" d="M132.1,97.8l-0.4-3.3h-0.2c-1.5,2.1-4.3,3.9-8.1,3.9c-5.4,0-8.1-3.8-8.1-7.6c0-6.4,5.7-9.9,15.9-9.8v-0.5 c0-2.2-0.6-6.1-6-6.1c-2.5,0-5,0.8-6.9,2l-1.1-3.2c2.2-1.4,5.4-2.3,8.7-2.3c8.1,0,10.1,5.5,10.1,10.8v9.9c0,2.3,0.1,4.5,0.4,6.3 H132.1z M131.4,84.4c-5.3-0.1-11.2,0.8-11.2,5.9c0,3.1,2.1,4.6,4.5,4.6c3.4,0,5.6-2.2,6.4-4.4c0.2-0.5,0.3-1,0.3-1.5V84.4z"/><path fill="#FFFFFF" d="M146.6,63.9v7.6h6.9v3.7h-6.9v14.2c0,3.3,0.9,5.1,3.6,5.1c1.3,0,2.2-0.2,2.8-0.3l0.2,3.6 c-0.9,0.4-2.4,0.7-4.3,0.7c-2.2,0-4-0.7-5.2-2c-1.4-1.4-1.9-3.8-1.9-6.9V75.1h-4.1v-3.7h4.1v-6.3L146.6,63.9z"/><path fill="#FFFFFF" d="M171.4,97.8l-0.4-3.3h-0.2c-1.5,2.1-4.3,3.9-8.1,3.9c-5.4,0-8.1-3.8-8.1-7.6c0-6.4,5.7-9.9,15.9-9.8v-0.5 c0-2.2-0.6-6.1-6-6.1c-2.5,0-5,0.8-6.9,2l-1.1-3.2c2.2-1.4,5.4-2.3,8.7-2.3c8.1,0,10.1,5.5,10.1,10.8v9.9c0,2.3,0.1,4.5,0.4,6.3 H171.4z M170.7,84.4c-5.3-0.1-11.2,0.8-11.2,5.9c0,3.1,2.1,4.6,4.5,4.6c3.4,0,5.6-2.2,6.4-4.4c0.2-0.5,0.3-1,0.3-1.5V84.4z"/></g></g></a></g><a href="https://ourworldindata.org/grapher/historic-and-un-pop-projections-by-age?country=IND" target="_blank"><text font-size="25.20" x="15.0" y="35.2" fill="#555"><tspan x="15" y="35.160000000000004">Population (historic and UN projections) by age bracket, India</tspan></text></a><text font-size="14.40" x="15.0" y="53.7" fill="#666"><tspan x="15" y="53.72">Historical population estimates (from 1950 to 2015), and projections through to 2100 based on UN medium fertility</tspan><tspan x="15" y="69.56">scenarios. This is shown for various age brackets and total population.</tspan></text></g><g class="LineChart"><defs><clipPath id="boundsClip-1"><rect x="87.598" y="0" width="830" height="928.8"></rect></clipPath></defs><g class="AxisBoxView"><g class="HorizontalAxis"><text x="97.6" y="556.5" fill="#666" text-anchor="middle" font-size="16.2">1950</text><text x="218.8" y="556.5" fill="#666" text-anchor="middle" font-size="16.2">1980</text><text x="299.6" y="556.5" fill="#666" text-anchor="middle" font-size="16.2">2000</text><text x="380.3" y="556.5" fill="#666" text-anchor="middle" font-size="16.2">2020</text><text x="461.1" y="556.5" fill="#666" text-anchor="middle" font-size="16.2">2040</text><text x="541.9" y="556.5" fill="#666" text-anchor="middle" font-size="16.2">2060</text><text x="622.7" y="556.5" fill="#666" text-anchor="middle" font-size="16.2">2080</text><text x="703.5" y="556.5" fill="#666" text-anchor="middle" font-size="16.2">2100</text></g><g class="VerticalAxis"><text x="92.60" y="535.3" fill="#666" dominant-baseline="middle" text-anchor="end" font-size="16.2">0</text><text x="92.60" y="482.5" fill="#666" dominant-baseline="middle" text-anchor="end" font-size="16.2">200 million</text><text x="92.60" y="429.7" fill="#666" dominant-baseline="middle" text-anchor="end" font-size="16.2">400 million</text><text x="92.60" y="376.9" fill="#666" dominant-baseline="middle" text-anchor="end" font-size="16.2">600 million</text><text x="92.60" y="324.1" fill="#666" dominant-baseline="middle" text-anchor="end" font-size="16.2">800 million</text><text x="92.60" y="271.3" fill="#666" dominant-baseline="middle" text-anchor="end" font-size="16.2">1 billion</text><text x="92.60" y="218.5" fill="#666" dominant-baseline="middle" text-anchor="end" font-size="16.2">1.2 billion</text><text x="92.60" y="165.7" fill="#666" dominant-baseline="middle" text-anchor="end" font-size="16.2">1.4 billion</text><text x="92.60" y="112.9" fill="#666" dominant-baseline="middle" text-anchor="end" font-size="16.2">1.6 billion</text></g><g class="AxisGridLines"><line x1="97.60" y1="535.3" x2="703.48" y2="535.3" stroke="#ccc"></line><line x1="97.60" y1="482.5" x2="703.48" y2="482.5" stroke="#ddd" stroke-dasharray="3,2"></line><line x1="97.60" y1="429.7" x2="703.48" y2="429.7" stroke="#ddd" stroke-dasharray="3,2"></line><line x1="97.60" y1="376.9" x2="703.48" y2="376.9" stroke="#ddd" stroke-dasharray="3,2"></line><line x1="97.60" y1="324.1" x2="703.48" y2="324.1" stroke="#ddd" stroke-dasharray="3,2"></line><line x1="97.60" y1="271.3" x2="703.48" y2="271.3" stroke="#ddd" stroke-dasharray="3,2"></line><line x1="97.60" y1="218.5" x2="703.48" y2="218.5" stroke="#ddd" stroke-dasharray="3,2"></line><line x1="97.60" y1="165.7" x2="703.48" y2="165.7" stroke="#ddd" stroke-dasharray="3,2"></line><line x1="97.60" y1="112.9" x2="703.48" y2="112.9" stroke="#ddd" stroke-dasharray="3,2"></line></g></g><g clip-path="url(#boundsClip-1)"><g class="HeightedLegend clickable"><g class="legendMark"><g class="indicator"><line x1="708.475" y1="134.9" x2="720.975" y2="134.9" stroke="#666" stroke-width="0.5"></line><line x1="720.975" y1="134.9" x2="720.975" y2="134.9" stroke="#666" stroke-width="0.5"></line><line x1="720.975" y1="134.9" x2="733.475" y2="134.9" stroke="#666" stroke-width="0.5"></line></g><rect x="703.475" y="128.15" width="131.525" height="13.5" fill="#fff" opacity="0"></rect><text font-size="13.50" x="738.5" y="139.0" fill="#818282"><tspan x="738.475" y="138.95000000000002">Total population</tspan></text></g><g class="legendMark"><g class="indicator"><line x1="708.475" y1="341.2" x2="720.975" y2="341.2" stroke="#666" stroke-width="0.5"></line><line x1="720.975" y1="341.2" x2="720.975" y2="341.2" stroke="#666" stroke-width="0.5"></line><line x1="720.975" y1="341.2" x2="733.475" y2="341.2" stroke="#666" stroke-width="0.5"></line></g><rect x="703.475" y="334.45" width="106.55000000000001" height="13.5" fill="#fff" opacity="0"></rect><text font-size="13.50" x="738.5" y="345.3" fill="#ed6c2d"><tspan x="738.475" y="345.25">25-64 years</tspan></text></g><g class="legendMark"><g class="indicator"><line x1="708.475" y1="431.7" x2="730.975" y2="431.7" stroke="#666" stroke-width="0.5"></line><line x1="730.975" y1="431.7" x2="730.975" y2="431.7" stroke="#666" stroke-width="0.5"></line><line x1="730.975" y1="431.7" x2="733.475" y2="431.7" stroke="#666" stroke-width="0.5"></line></g><rect x="703.475" y="424.95" width="94.805" height="13.5" fill="#fff" opacity="0"></rect><text font-size="13.50" x="738.5" y="435.8" fill="#a652ba"><tspan x="738.475" y="435.75">65+ years</tspan></text></g><g class="legendMark"><g class="indicator"><line x1="708.475" y1="432.6" x2="720.975" y2="432.6" stroke="#666" stroke-width="0.5"></line><line x1="720.975" y1="432.6" x2="720.975" y2="447.2" stroke="#666" stroke-width="0.5"></line><line x1="720.975" y1="447.2" x2="733.475" y2="447.2" stroke="#666" stroke-width="0.5"></line></g><rect x="703.475" y="440.45" width="117.215" height="13.5" fill="#fff" opacity="0"></rect><text font-size="13.50" x="738.5" y="451.3" fill="#34983f"><tspan x="738.475" y="451.25">Under age 25</tspan></text></g><g class="legendMark"><g class="indicator"><line x1="708.475" y1="475.4" x2="720.975" y2="475.4" stroke="#666" stroke-width="0.5"></line><line x1="720.975" y1="475.4" x2="720.975" y2="475.4" stroke="#666" stroke-width="0.5"></line><line x1="720.975" y1="475.4" x2="733.475" y2="475.4" stroke="#666" stroke-width="0.5"></line></g><rect x="703.475" y="468.65" width="117.215" height="13.5" fill="#fff" opacity="0"></rect><text font-size="13.50" x="738.5" y="479.4" fill="#ca2628"><tspan x="738.475" y="479.45">Under age 15</tspan></text></g><g class="legendMark"><g class="indicator"><line x1="708.475" y1="515.9" x2="720.975" y2="515.9" stroke="#666" stroke-width="0.5"></line><line x1="720.975" y1="515.9" x2="720.975" y2="515.9" stroke="#666" stroke-width="0.5"></line><line x1="720.975" y1="515.9" x2="733.475" y2="515.9" stroke="#666" stroke-width="0.5"></line></g><rect x="703.475" y="509.15" width="90.62" height="13.5" fill="#fff" opacity="0"></rect><text font-size="13.50" x="738.5" y="519.9" fill="#3360a9"><tspan x="738.475" y="519.9499999999999">Under-5s</tspan></text></g></g><g class="Lines"><rect x="98" y="92" width="606" height="443" fill="rgba(255,255,255,0)" opacity="0"></rect><g class="key-India_0"><path stroke="#3360a9" stroke-linecap="round" d="M98 521L102 520L106 520L110 519L114 518L118 518L122 517L126 517L130 517L134 516L138 516L142 516L146 516L150 515L154 515L158 514L162 514L166 513L170 513L174 513L178 513L182 512L187 512L191 511L195 511L199 510L203 510L207 509L211 509L215 509L219 508L223 507L227 507L231 506L235 506L239 505L243 504L247 504L251 504L255 503L259 503L263 503L267 503L271 503L275 503L279 503L283 502L287 502L292 502L296 502L300 502L304 501L308 501L312 501L316 501L320 501L324 501L328 501L332 501L336 501L340 501L344 502L348 502L352 503L356 503L360 503" fill="none" stroke-width="1.5"></path></g><g class="key-India_1"><path stroke="#ca2628" stroke-linecap="round" d="M360 436L364 437L368 437L372 437L376 438L380 438L384 439L388 439L393 440L397 440L401 440L405 441L409 441L413 441L417 441L421 441L425 442L429 442L433 442L437 443L441 443L445 444L449 444L453 445L457 446L461 446L465 447L469 447L473 448L477 449L481 450L485 450L489 451L493 451L498 452L502 453L506 453L510 454L514 454L518 455L522 455L526 456L530 456L534 457L538 457L542 458L546 458L550 459L554 459L558 460L562 460L566 461L570 461L574 462L578 462L582 463L586 463L590 464L594 464L599 465L603 465L607 466L611 466L615 467L619 467L623 468L627 468L631 469L635 469L639 469L643 470L647 470L651 471L655 471L659 471L663 472L667 472L671 472L675 473L679 473L683 474L687 474L691 474L695 475L699 475L704 475" fill="none" stroke-width="1.5" stroke-dasharray="1,4"></path></g><g class="key-India_10"><path stroke="#a652ba" stroke-linecap="round" d="M360 516L364 515L368 514L372 513L376 512L380 511L384 510L388 510L393 509L397 508L401 507L405 506L409 505L413 504L417 503L421 502L425 500L429 499L433 498L437 497L441 496L445 495L449 494L453 493L457 492L461 491L465 489L469 488L473 487L477 485L481 484L485 483L489 481L493 480L498 478L502 477L506 475L510 473L514 472L518 470L522 469L526 467L530 466L534 464L538 463L542 462L546 460L550 459L554 457L558 456L562 455L566 453L570 452L574 451L578 450L582 449L586 447L590 446L594 445L599 444L603 443L607 443L611 442L615 441L619 441L623 440L627 440L631 439L635 439L639 438L643 438L647 437L651 437L655 436L659 436L663 435L667 435L671 434L675 434L679 434L683 433L687 433L691 433L695 432L699 432L704 432" fill="none" stroke-width="1.5" stroke-dasharray="1,4"></path></g><g class="key-India_11"><path stroke="#818282" stroke-linecap="round" d="M360 190L364 186L368 182L372 178L376 174L380 170L384 166L388 163L393 159L397 156L401 152L405 149L409 145L413 142L417 139L421 136L425 133L429 130L433 127L437 125L441 122L445 120L449 118L453 115L457 113L461 112L465 110L469 108L473 106L477 105L481 103L485 102L489 101L493 99L498 98L502 97L506 96L510 96L514 95L518 94L522 94L526 93L530 93L534 92L538 92L542 92L546 92L550 92L554 92L558 93L562 93L566 93L570 94L574 94L578 95L582 96L586 96L590 97L594 98L599 99L603 100L607 101L611 102L615 103L619 105L623 106L627 107L631 108L635 110L639 111L643 112L647 114L651 115L655 117L659 118L663 120L667 121L671 123L675 124L679 126L683 127L687 129L691 130L695 132L699 133L704 135" fill="none" stroke-width="1.5" stroke-dasharray="1,4"></path></g><g class="key-India_2"><path stroke="#ca2628" stroke-linecap="round" d="M98 498L102 497L106 496L110 495L114 494L118 493L122 492L126 491L130 490L134 489L138 488L142 486L146 485L150 483L154 482L158 481L162 480L166 479L170 478L174 477L178 476L182 474L187 473L191 472L195 471L199 470L203 468L207 467L211 466L215 464L219 463L223 462L227 460L231 458L235 457L239 455L243 454L247 452L251 451L255 449L259 448L263 447L267 446L271 444L275 443L279 442L283 442L287 441L292 440L296 439L300 439L304 438L308 438L312 437L316 437L320 436L324 436L328 435L332 435L336 435L340 435L344 435L348 435L352 436L356 436L360 436" fill="none" stroke-width="1.5"></path></g><g class="key-India_3"><path stroke="#3360a9" stroke-linecap="round" d="M360 503L364 504L368 504L372 504L376 503L380 503L384 503L388 503L393 503L397 504L401 504L405 504L409 504L413 504L417 504L421 504L425 504L429 505L433 505L437 505L441 505L445 506L449 506L453 506L457 506L461 507L465 507L469 507L473 507L477 508L481 508L485 508L489 508L493 508L498 508L502 509L506 509L510 509L514 509L518 509L522 509L526 510L530 510L534 510L538 510L542 510L546 510L550 511L554 511L558 511L562 511L566 511L570 511L574 512L578 512L582 512L586 512L590 512L594 512L599 513L603 513L607 513L611 513L615 513L619 513L623 513L627 514L631 514L635 514L639 514L643 514L647 514L651 514L655 514L659 515L663 515L667 515L671 515L675 515L679 515L683 515L687 515L691 516L695 516L699 516L704 516" fill="none" stroke-width="1.5" stroke-dasharray="1,4"></path></g><g class="key-India_4"><path stroke="#34983f" stroke-linecap="round" d="M98 479L102 478L106 477L110 475L114 474L118 473L122 472L126 470L130 469L134 468L138 466L142 465L146 463L150 462L154 460L158 458L162 456L166 454L170 452L174 451L178 448L182 446L187 444L191 442L195 440L199 437L203 435L207 433L211 431L215 429L219 427L223 425L227 423L231 420L235 418L239 416L243 413L247 411L251 409L255 407L259 404L263 402L267 400L271 398L275 396L279 394L283 392L287 390L292 388L296 386L300 385L304 383L308 381L312 380L316 379L320 377L324 376L328 375L332 374L336 374L340 373L344 373L348 373L352 373L356 373L360 373" fill="none" stroke-width="1.5"></path></g><g class="key-India_5"><path stroke="#34983f" stroke-linecap="round" d="M360 373L364 373L368 373L372 373L376 373L380 373L384 373L388 373L393 373L397 374L401 374L405 375L409 375L413 376L417 376L421 377L425 378L429 378L433 379L437 380L441 381L445 381L449 382L453 382L457 383L461 384L465 385L469 385L473 386L477 387L481 388L485 389L489 390L493 391L498 392L502 393L506 394L510 395L514 396L518 397L522 398L526 399L530 400L534 401L538 401L542 402L546 403L550 404L554 405L558 406L562 407L566 408L570 408L574 409L578 410L582 411L586 412L590 412L594 413L599 414L603 415L607 416L611 417L615 417L619 418L623 419L627 420L631 420L635 421L639 422L643 423L647 423L651 424L655 425L659 426L663 426L667 427L671 428L675 428L679 429L683 430L687 430L691 431L695 431L699 432L704 433" fill="none" stroke-width="1.5" stroke-dasharray="1,4"></path></g><g class="key-India_6"><path stroke="#ed6c2d" stroke-linecap="round" d="M360 372L364 369L368 366L372 363L376 360L380 357L384 354L388 351L393 348L397 345L401 342L405 339L409 336L413 334L417 331L421 328L425 326L429 323L433 321L437 318L441 316L445 314L449 313L453 311L457 309L461 308L465 307L469 305L473 304L477 303L481 302L485 301L489 300L493 300L498 299L502 299L506 298L510 298L514 298L518 298L522 298L526 298L530 298L534 298L538 299L542 299L546 299L550 300L554 301L558 301L562 302L566 303L570 304L574 305L578 306L582 307L586 308L590 309L594 310L599 311L603 312L607 314L611 314L615 315L619 316L623 317L627 318L631 319L635 320L639 322L643 323L647 324L651 325L655 326L659 327L663 329L667 330L671 331L675 333L679 334L683 335L687 336L691 338L695 339L699 340L704 341" fill="none" stroke-width="1.5" stroke-dasharray="1,4"></path></g><g class="key-India_7"><path stroke="#ed6c2d" stroke-linecap="round" d="M98 496L102 495L106 495L110 494L114 494L118 493L122 492L126 492L130 491L134 490L138 489L142 489L146 488L150 487L154 486L158 485L162 485L166 484L170 483L174 482L178 481L182 480L187 479L191 478L195 476L199 475L203 474L207 472L211 470L215 468L219 466L223 464L227 462L231 461L235 458L239 456L243 454L247 452L251 450L255 448L259 445L263 443L267 441L271 438L275 436L279 433L283 431L287 428L292 426L296 423L300 420L304 417L308 415L312 412L316 409L320 406L324 403L328 399L332 396L336 393L340 389L344 386L348 382L352 379L356 375L360 372" fill="none" stroke-width="1.5"></path></g><g class="key-India_8"><path stroke="#818282" stroke-linecap="round" d="M98 436L102 434L106 433L110 431L114 429L118 427L122 425L126 423L130 421L134 419L138 417L142 414L146 412L150 409L154 407L158 404L162 401L166 398L170 395L174 392L178 389L182 386L187 382L191 379L195 375L199 371L203 367L207 364L211 360L215 356L219 351L223 347L227 343L231 338L235 334L239 329L243 324L247 320L251 315L255 310L259 306L263 301L267 296L271 291L275 287L279 282L283 277L287 272L292 267L296 262L300 257L304 252L308 248L312 243L316 238L320 233L324 229L328 224L332 219L336 215L340 210L344 206L348 202L352 198L356 194L360 190" fill="none" stroke-width="1.5"></path></g><g class="key-India_9"><path stroke="#a652ba" stroke-linecap="round" d="M98 532L102 532L106 532L110 532L114 532L118 532L122 532L126 532L130 532L134 532L138 532L142 532L146 531L150 531L154 531L158 531L162 531L166 531L170 531L174 531L178 530L182 530L187 530L191 530L195 530L199 530L203 529L207 529L211 529L215 529L219 529L223 528L227 528L231 528L235 528L239 528L243 527L247 527L251 527L255 527L259 527L263 526L267 526L271 526L275 525L279 525L283 525L287 524L292 524L296 524L300 523L304 523L308 522L312 522L316 521L320 521L324 520L328 520L332 520L336 519L340 519L344 518L348 518L352 517L356 517L360 516" fill="none" stroke-width="1.5"></path></g></g></g></g><g class="SourcesFooter" style="fill:#777"><g class="clickable" style="fill:#777"><text font-size="12.60" x="15.0" y="581.6"><tspan x="15" y="581.58">Source: UN Population Division (2017 Revision)</tspan></text></g><text font-size="12.60" x="775.4" y="581.6"><tspan x="775.402" y="581.58"><a style="fill: #777;" class="cclogo" href="http://creativecommons.org/licenses/by-sa/4.0/deed.en_US" target="_blank">CC BY-SA</a></tspan></text></g></g></svg>