<svg xmlns="http://www.w3.org/2000/svg" version="1.1" style="background-color:#fff;-webkit-font-smoothing:antialiased" width="850" height="600" font-family="'Helvetica Neue',Helvetica,Arial,sans-serif" font-size="18" text-rendering="optimizeLegibility"><g class="ChartTab"><g class="HeaderView"><g opacity=".8" transform="matrix(.31 0 0 .31 770 15)"><a xmlns:xlink="http://www.w3.org/1999/xlink" xlink:href="https://ourworldindata.org" target="_blank"><g><path fill="#1B2543" d="M0 0h211.2v130.1H0z"/><path fill="#E63912" d="M0 112.2h211.2v17.9H0z"/><g><path fill="none" d="M1.2 12.3h210.2v99.2H1.2z"/><path fill="#FFF" d="M37.8 32.2c0 12.7-7.7 19.4-17.1 19.4-9.7 0-16.6-7.5-16.6-18.7 0-11.7 7.3-19.3 17.1-19.3 10.1.1 16.6 7.7 16.6 18.6zm-28.6.6c0 7.9 4.3 14.9 11.8 14.9 7.5 0 11.8-6.9 11.8-15.3 0-7.3-3.8-14.9-11.8-14.9-7.9 0-11.8 7.3-11.8 15.3zM62.7 43.8c0 2.7.1 5.1.2 7.2h-4.3l-.3-4.3h-.1c-1.3 2.1-4 4.9-8.8 4.9-4.2 0-9.1-2.3-9.1-11.6V24.6h4.8v14.6c0 5 1.5 8.4 5.9 8.4 3.2 0 5.5-2.2 6.3-4.4.3-.7.4-1.6.4-2.5V24.6h4.8v19.2zM67.3 32.8c0-3.1-.1-5.8-.2-8.2h4.2l.2 5.2h.2c1.2-3.5 4.1-5.8 7.3-5.8.5 0 .9.1 1.4.2v4.5c-.5-.1-1-.2-1.6-.2-3.4 0-5.8 2.6-6.5 6.2-.1.7-.2 1.4-.2 2.2V51h-4.8V32.8zM95.4 51L86 14.2h5l4.4 18.6c1.1 4.6 2.1 9.2 2.7 12.7h.1c.6-3.7 1.8-8 3-12.8l4.9-18.5h5l4.5 18.7c1 4.4 2 8.7 2.6 12.6h.1c.8-4 1.8-8.1 3-12.7l4.9-18.5h4.9L120.6 51h-5L111 31.9c-1.1-4.7-1.9-8.3-2.4-12h-.1c-.7 3.7-1.5 7.3-2.8 12L100.4 51h-5zM154.9 37.6c0 9.8-6.8 14-13.2 14-7.2 0-12.7-5.2-12.7-13.6 0-8.8 5.8-14 13.1-14 7.7 0 12.8 5.5 12.8 13.6zm-21 .3c0 5.8 3.3 10.1 8 10.1 4.6 0 8-4.3 8-10.3 0-4.5-2.2-10.1-7.9-10.1s-8.1 5.2-8.1 10.3zM158.2 32.8c0-3.1-.1-5.8-.2-8.2h4.2l.2 5.2h.2c1.2-3.5 4.1-5.8 7.3-5.8.5 0 .9.1 1.4.2v4.5c-.5-.1-1-.2-1.6-.2-3.4 0-5.8 2.6-6.5 6.2-.1.7-.2 1.4-.2 2.2V51h-4.8V32.8zM173.5 12.3h4.8V51h-4.8V12.3zM206.5 12.3v31.9c0 2.3.1 5 .2 6.8h-4.3l-.2-4.6h-.2c-1.5 2.9-4.7 5.2-9 5.2-6.4 0-11.3-5.4-11.3-13.4-.1-8.8 5.4-14.2 11.9-14.2 4 0 6.8 1.9 8 4h.1V12.3h4.8zm-4.8 23.1c0-.6-.1-1.4-.2-2a7 7 0 00-6.9-5.6c-5 0-7.9 4.4-7.9 10.2 0 5.3 2.6 9.8 7.8 9.8 3.2 0 6.2-2.1 7.1-5.7.2-.7.2-1.3.2-2.1v-4.6zM42.8 64c.1 1.6-1.1 2.9-3.1 2.9-1.7 0-2.9-1.3-2.9-2.9 0-1.7 1.3-3 3-3 1.9 0 3 1.3 3 3zm-5.4 33.8V71.4h4.8v26.4h-4.8zM47.5 78.6c0-2.7-.1-5-.2-7.1h4.3l.3 4.4h.1c1.3-2.5 4.4-5 8.8-5 3.7 0 9.4 2.2 9.4 11.2v15.8h-4.8V82.6c0-4.3-1.6-7.8-6.1-7.8-3.2 0-5.6 2.2-6.5 4.9-.2.6-.3 1.4-.3 2.2v15.9h-4.8V78.6zM84 61.6c2.9-.4 6.3-.8 10.1-.8 6.8 0 11.7 1.6 14.9 4.6 3.3 3 5.2 7.3 5.2 13.2 0 6-1.9 10.9-5.3 14.3-3.4 3.4-9.1 5.3-16.3 5.3-3.4 0-6.2-.2-8.6-.4V61.6zm4.8 32.5c1.2.2 3 .3 4.8.3 10.2 0 15.7-5.7 15.7-15.6.1-8.7-4.9-14.2-14.9-14.2-2.5 0-4.3.2-5.6.5v29zM132.1 97.8l-.4-3.3h-.2a9.79 9.79 0 01-8.1 3.9c-5.4 0-8.1-3.8-8.1-7.6 0-6.4 5.7-9.9 15.9-9.8v-.5c0-2.2-.6-6.1-6-6.1-2.5 0-5 .8-6.9 2l-1.1-3.2c2.2-1.4 5.4-2.3 8.7-2.3 8.1 0 10.1 5.5 10.1 10.8v9.9c0 2.3.1 4.5.4 6.3h-4.3zm-.7-13.4c-5.3-.1-11.2.8-11.2 5.9 0 3.1 2.1 4.6 4.5 4.6 3.4 0 5.6-2.2 6.4-4.4.2-.5.3-1 .3-1.5v-4.6zM146.6 63.9v7.6h6.9v3.7h-6.9v14.2c0 3.3.9 5.1 3.6 5.1 1.3 0 2.2-.2 2.8-.3l.2 3.6c-.9.4-2.4.7-4.3.7-2.2 0-4-.7-5.2-2-1.4-1.4-1.9-3.8-1.9-6.9V75.1h-4.1v-3.7h4.1v-6.3l4.8-1.2zM171.4 97.8l-.4-3.3h-.2a9.79 9.79 0 01-8.1 3.9c-5.4 0-8.1-3.8-8.1-7.6 0-6.4 5.7-9.9 15.9-9.8v-.5c0-2.2-.6-6.1-6-6.1-2.5 0-5 .8-6.9 2l-1.1-3.2c2.2-1.4 5.4-2.3 8.7-2.3 8.1 0 10.1 5.5 10.1 10.8v9.9c0 2.3.1 4.5.4 6.3h-4.3zm-.7-13.4c-5.3-.1-11.2.8-11.2 5.9 0 3.1 2.1 4.6 4.5 4.6 3.4 0 5.6-2.2 6.4-4.4.2-.5.3-1 .3-1.5v-4.6z"/></g></g></a></g><a href="https://ourworldindata.org/grapher/homicides-per-100000-people-per-year" target="_blank"><text font-size="27" x="15" y="36.6" fill="#555"><tspan x="15" y="36.6">Homicides per 100,000 people per year</tspan></text></a></g><g class="LineChart"><defs><clipPath id="a"><path d="M19.07 0h830v963h-830z"/></clipPath></defs><g class="AxisBoxView"><g class="HorizontalAxis" fill="#666" text-anchor="middle" font-size="16.2"><text x="29.1" y="556.5">1800</text><text x="197.2" y="556.5">1850</text><text x="365.4" y="556.5">1900</text><text x="533.6" y="556.5">1950</text><text x="735.4" y="556.5">2010</text></g><g class="VerticalAxis" fill="#666" dominant-baseline="middle" text-anchor="end" font-size="16.2"><text x="24.07" y="535.3">0</text><text x="24.07" y="477.8">1</text><text x="24.07" y="420.2">2</text><text x="24.07" y="362.7">3</text><text x="24.07" y="305.1">4</text><text x="24.07" y="247.6">5</text><text x="24.07" y="190.1">6</text><text x="24.07" y="132.5">7</text><text x="24.07" y="75">8</text></g><g class="AxisGridLines"><path stroke="#ccc" d="M29.07 535.3h706.34"/><path stroke="#ddd" stroke-dasharray="3,2" d="M29.07 477.8h706.34M29.07 420.2h706.34M29.07 362.7h706.34M29.07 305.1h706.34M29.07 247.6h706.34M29.07 190.1h706.34M29.07 132.5h706.34M29.07 75h706.34"/></g><g class="AxisGridLines" stroke="#ddd" stroke-dasharray="3,2"><path d="M29.1 535.3V75M197.2 535.3V75M365.4 535.3V75M533.6 535.3V75M701.8 535.3V75"/></g></g><g clip-path="url(#a)"><g class="HeightedLegend clickable"><g class="legendMark"><path fill="#f6a324" d="M745.41 370.65h10v2.5h-10z"/><text font-size="14.4" x="760.4" y="376.2" fill="#333"><tspan x="760.41" y="376.22">India</tspan></text></g><g class="legendMark"><path fill="#34983f" d="M745.41 401.75h10v2.5h-10z"/><text font-size="14.4" x="760.4" y="407.3" fill="#333"><tspan x="760.41" y="407.32">Italy</tspan></text></g><g class="legendMark"><path fill="#ca2628" d="M745.41 499.55h10v2.5h-10z"/><text font-size="14.4" x="760.4" y="505.1" fill="#333"><tspan x="760.41" y="505.12">Switzerland</tspan></text></g><g class="legendMark"><path fill="#3360a9" d="M745.41 513.95h10v2.5h-10z"/><text font-size="14.4" x="760.4" y="519.5" fill="#333"><tspan x="760.41" y="519.52">Germany</tspan></text></g></g><g class="Lines"><g class="key-India_0"><path stroke="#f6a324" stroke-linecap="round" d="M540 380l4 10 3 4 3 3 4-1 3-3 4-1 3 2h7l3-2 3 13 4-9 3-4h3l4-6 3-1 4-6 3-7 3-1 4 11 3-12 3-12 4 14 3 11 3-12 4-5 3-5 4-11 3-2 3-1 4-10 3-1 3 3 4-6 3-5 3 2 4-13 3-22 4-24 3-1 3 17 4 3 3 12 3 2 4 5 3-2 3 12 4 2 3 11 4 8 3 18 3-3 4 8 3 4 3 3h4l3 4 3-2" fill="none" stroke-width="1.5"/></g><g class="key-Italy_0"><path stroke="#34983f" stroke-linecap="round" d="M29 75h165l3 58h81l3 74h81l3 104h31l3 34h3l4-28 3-23 4 23h3l3 23 4 17h3l3-75 4-167 3-34 3 34 4 29 3 98 4 17 3 40 3 64 4 5 3 12h3l4 12 3 17 3 17 4 6 3 11 4-5 3 5 3 12 4 6 37-196 3 6 3 103 4 64 3-6 3-6 4 6 3 17h4l3 6h3l27 11 4 6h6l4 6 3-12h3l4-5 3-35 3-11h4l3 11h4l3-11 3-6 4 11 3 18 3 17h4l3-17h3l4-35 3-17 4-41 3 23 3 24 4 5 3-11h3l4-6 3-12 3 12 4 17 3-17 4 12 3-6 3-6 4 29 3-17 3 11 4-6 3 6" fill="none" stroke-width="1.5"/></g><g class="key-Switzerland_0"><path stroke="#ca2628" stroke-linecap="round" d="M29 265h165l3 173h81l3-75h81l3 52h81l4 40h80l4 34 3-27 3 6 4 3 3 3 3-4 4 27 3-6 4 6 3-15 3 19 4-7 3-18 3 20 4-6 3 12 3-5 4-9 3 5 4 11 3-10 3-14 4 2 3 14 3-16 4 1 3 4 3 1 4 7 3-11 4-1 3-15 3-9 4-3 3 27 3-29 4 26 3-12 3-1 4-3 3-13 4 7 3-6 3-7 4 15 3 20 3-6 4-17 3 34 3-11 4 12 3-20 4 6 3 20 3-13 4 3 3 17 3-2" fill="none" stroke-width="1.5"/></g><g class="key-Germany_0"><path stroke="#3360a9" stroke-linecap="round" d="M29 397h165l3 52h81l3-6h81l3-28h81l4 17h80l4 40h3l3 12 4-4h3l3-3 4 5 3 2h4l3-5 3 4 4-7 3 1h3l4-6 3-2h3l4-2 3 4 4-10 3-8 3 6 4-1 3 7 3 3 4-3 3-2 3 4 4-1 3 6 4-3 3-7 3 1 4 3 3-2 3 3 4-2 3 5 3 4 4 3h3l4-8 3-2h3l4 1 3 2 3 3 4 10 3 3 3-1 4 8 3 3 4-3 3 4 3 2 4 5 3-3 3 3h7l3-2" fill="none" stroke-width="1.5"/></g></g></g></g><g class="SourcesFooter" fill="#777"><g class="clickable" fill="#777"><text font-size="12.6" x="15" y="581.6"><tspan x="15" y="581.58">Source: Clio Infra</tspan></text></g><text font-size="12.6" x="585.1" y="581.6"><tspan x="585.14" y="581.58"><a target="_blank" href="https://ourworldindata.org/homicides/" fill="#777">OurWorldInData.org/homicides/</a> • <a href="http://creativecommons.org/licenses/by-sa/4.0/deed.en_US" target="_blank" fill="#777">CC BY-SA</a></tspan></text></g></g></svg>