<svg xmlns="http://www.w3.org/2000/svg" version="1.1" style="background-color:#fff;-webkit-font-smoothing:antialiased" width="850" height="600" font-family="'Helvetica Neue',Helvetica,Arial,sans-serif" font-size="18" text-rendering="optimizeLegibility"><g class="ChartTab"><g class="HeaderView"><g opacity=".8" transform="matrix(.31 0 0 .31 770 15)"><a xmlns:xlink="http://www.w3.org/1999/xlink" xlink:href="https://ourworldindata.org" target="_blank"><g><path fill="#1B2543" d="M0 0h211.2v130.1H0z"/><path fill="#E63912" d="M0 112.2h211.2v17.9H0z"/><g><path fill="none" d="M1.2 12.3h210.2v99.2H1.2z"/><path fill="#FFF" d="M37.8 32.2c0 12.7-7.7 19.4-17.1 19.4-9.7 0-16.6-7.5-16.6-18.7 0-11.7 7.3-19.3 17.1-19.3 10.1.1 16.6 7.7 16.6 18.6zm-28.6.6c0 7.9 4.3 14.9 11.8 14.9 7.5 0 11.8-6.9 11.8-15.3 0-7.3-3.8-14.9-11.8-14.9-7.9 0-11.8 7.3-11.8 15.3zM62.7 43.8c0 2.7.1 5.1.2 7.2h-4.3l-.3-4.3h-.1c-1.3 2.1-4 4.9-8.8 4.9-4.2 0-9.1-2.3-9.1-11.6V24.6h4.8v14.6c0 5 1.5 8.4 5.9 8.4 3.2 0 5.5-2.2 6.3-4.4.3-.7.4-1.6.4-2.5V24.6h4.8v19.2zM67.3 32.8c0-3.1-.1-5.8-.2-8.2h4.2l.2 5.2h.2c1.2-3.5 4.1-5.8 7.3-5.8.5 0 .9.1 1.4.2v4.5c-.5-.1-1-.2-1.6-.2-3.4 0-5.8 2.6-6.5 6.2-.1.7-.2 1.4-.2 2.2V51h-4.8V32.8zM95.4 51L86 14.2h5l4.4 18.6c1.1 4.6 2.1 9.2 2.7 12.7h.1c.6-3.7 1.8-8 3-12.8l4.9-18.5h5l4.5 18.7c1 4.4 2 8.7 2.6 12.6h.1c.8-4 1.8-8.1 3-12.7l4.9-18.5h4.9L120.6 51h-5L111 31.9c-1.1-4.7-1.9-8.3-2.4-12h-.1c-.7 3.7-1.5 7.3-2.8 12L100.4 51h-5zM154.9 37.6c0 9.8-6.8 14-13.2 14-7.2 0-12.7-5.2-12.7-13.6 0-8.8 5.8-14 13.1-14 7.7 0 12.8 5.5 12.8 13.6zm-21 .3c0 5.8 3.3 10.1 8 10.1 4.6 0 8-4.3 8-10.3 0-4.5-2.2-10.1-7.9-10.1s-8.1 5.2-8.1 10.3zM158.2 32.8c0-3.1-.1-5.8-.2-8.2h4.2l.2 5.2h.2c1.2-3.5 4.1-5.8 7.3-5.8.5 0 .9.1 1.4.2v4.5c-.5-.1-1-.2-1.6-.2-3.4 0-5.8 2.6-6.5 6.2-.1.7-.2 1.4-.2 2.2V51h-4.8V32.8zM173.5 12.3h4.8V51h-4.8V12.3zM206.5 12.3v31.9c0 2.3.1 5 .2 6.8h-4.3l-.2-4.6h-.2c-1.5 2.9-4.7 5.2-9 5.2-6.4 0-11.3-5.4-11.3-13.4-.1-8.8 5.4-14.2 11.9-14.2 4 0 6.8 1.9 8 4h.1V12.3h4.8zm-4.8 23.1c0-.6-.1-1.4-.2-2a7 7 0 00-6.9-5.6c-5 0-7.9 4.4-7.9 10.2 0 5.3 2.6 9.8 7.8 9.8 3.2 0 6.2-2.1 7.1-5.7.2-.7.2-1.3.2-2.1v-4.6zM42.8 64c.1 1.6-1.1 2.9-3.1 2.9-1.7 0-2.9-1.3-2.9-2.9 0-1.7 1.3-3 3-3 1.9 0 3 1.3 3 3zm-5.4 33.8V71.4h4.8v26.4h-4.8zM47.5 78.6c0-2.7-.1-5-.2-7.1h4.3l.3 4.4h.1c1.3-2.5 4.4-5 8.8-5 3.7 0 9.4 2.2 9.4 11.2v15.8h-4.8V82.6c0-4.3-1.6-7.8-6.1-7.8-3.2 0-5.6 2.2-6.5 4.9-.2.6-.3 1.4-.3 2.2v15.9h-4.8V78.6zM84 61.6c2.9-.4 6.3-.8 10.1-.8 6.8 0 11.7 1.6 14.9 4.6 3.3 3 5.2 7.3 5.2 13.2 0 6-1.9 10.9-5.3 14.3-3.4 3.4-9.1 5.3-16.3 5.3-3.4 0-6.2-.2-8.6-.4V61.6zm4.8 32.5c1.2.2 3 .3 4.8.3 10.2 0 15.7-5.7 15.7-15.6.1-8.7-4.9-14.2-14.9-14.2-2.5 0-4.3.2-5.6.5v29zM132.1 97.8l-.4-3.3h-.2a9.79 9.79 0 01-8.1 3.9c-5.4 0-8.1-3.8-8.1-7.6 0-6.4 5.7-9.9 15.9-9.8v-.5c0-2.2-.6-6.1-6-6.1-2.5 0-5 .8-6.9 2l-1.1-3.2c2.2-1.4 5.4-2.3 8.7-2.3 8.1 0 10.1 5.5 10.1 10.8v9.9c0 2.3.1 4.5.4 6.3h-4.3zm-.7-13.4c-5.3-.1-11.2.8-11.2 5.9 0 3.1 2.1 4.6 4.5 4.6 3.4 0 5.6-2.2 6.4-4.4.2-.5.3-1 .3-1.5v-4.6zM146.6 63.9v7.6h6.9v3.7h-6.9v14.2c0 3.3.9 5.1 3.6 5.1 1.3 0 2.2-.2 2.8-.3l.2 3.6c-.9.4-2.4.7-4.3.7-2.2 0-4-.7-5.2-2-1.4-1.4-1.9-3.8-1.9-6.9V75.1h-4.1v-3.7h4.1v-6.3l4.8-1.2zM171.4 97.8l-.4-3.3h-.2a9.79 9.79 0 01-8.1 3.9c-5.4 0-8.1-3.8-8.1-7.6 0-6.4 5.7-9.9 15.9-9.8v-.5c0-2.2-.6-6.1-6-6.1-2.5 0-5 .8-6.9 2l-1.1-3.2c2.2-1.4 5.4-2.3 8.7-2.3 8.1 0 10.1 5.5 10.1 10.8v9.9c0 2.3.1 4.5.4 6.3h-4.3zm-.7-13.4c-5.3-.1-11.2.8-11.2 5.9 0 3.1 2.1 4.6 4.5 4.6 3.4 0 5.6-2.2 6.4-4.4.2-.5.3-1 .3-1.5v-4.6z"/></g></g></a></g><a href="https://ourworldindata.org/grapher/incidence-of-child-labour-boys-vs-girls" target="_blank"><text font-size="27" x="15" y="36.6" fill="#555"><tspan x="15" y="36.6">Share of children in employment, boys vs girls, 2015</tspan></text></a><text font-size="14.4" x="15" y="55.5" fill="#666"><tspan x="15" y="55.52">Share of boys (vs. girls) ages 7-14 involved in economic activity for at least one hour in the reference week of the</tspan><tspan x="15" y="71.36">corresponding survey (irrespective of school attendance)</tspan></text></g><g><g class="AxisBoxView"><g class="HorizontalAxis"><text font-size="12.6" x="193.6" y="554"><tspan x="193.64" y="553.98">Children in employment, male (% of male children ages 7-14)</tspan></text><text x="75.2" y="533.9" fill="#666" text-anchor="middle" font-size="16.2">0%</text><text x="173.1" y="533.9" fill="#666" text-anchor="middle" font-size="16.2">10%</text><text x="271" y="533.9" fill="#666" text-anchor="middle" font-size="16.2">20%</text><text x="368.9" y="533.9" fill="#666" text-anchor="middle" font-size="16.2">30%</text><text x="466.8" y="533.9" fill="#666" text-anchor="middle" font-size="16.2">40%</text><text x="564.7" y="533.9" fill="#666" text-anchor="middle" font-size="16.2">50%</text><text x="662.6" y="533.9" fill="#666" text-anchor="middle" font-size="16.2">60%</text></g><g class="VerticalAxis"><text font-size="12.6" x="-507.1" y="25.1" transform="rotate(-90)"><tspan x="-507.14" y="25.08">Children in employment, female (% of female children ages 7-14)</tspan></text><text x="70.16" y="512.7" fill="#666" dominant-baseline="middle" text-anchor="end" font-size="16.2">0%</text><text x="70.16" y="448.3" fill="#666" dominant-baseline="middle" text-anchor="end" font-size="16.2">10%</text><text x="70.16" y="383.8" fill="#666" dominant-baseline="middle" text-anchor="end" font-size="16.2">20%</text><text x="70.16" y="319.4" fill="#666" dominant-baseline="middle" text-anchor="end" font-size="16.2">30%</text><text x="70.16" y="255" fill="#666" dominant-baseline="middle" text-anchor="end" font-size="16.2">40%</text><text x="70.16" y="190.5" fill="#666" dominant-baseline="middle" text-anchor="end" font-size="16.2">50%</text><text x="70.16" y="126.1" fill="#666" dominant-baseline="middle" text-anchor="end" font-size="16.2">60%</text></g><g class="AxisGridLines"><path stroke="#ccc" d="M75.16 512.7H715"/><path stroke="#ddd" stroke-dasharray="3,2" d="M75.16 448.3H715M75.16 383.8H715M75.16 319.4H715M75.16 255H715M75.16 190.5H715M75.16 126.1H715"/></g><g class="AxisGridLines"><path stroke="#ccc" d="M75.2 512.7V93.9"/><path stroke="#ddd" stroke-dasharray="3,2" d="M173.1 512.7V93.9M271 512.7V93.9M368.9 512.7V93.9M466.8 512.7V93.9M564.7 512.7V93.9M662.6 512.7V93.9"/></g></g><g class="ComparisonLine"><defs><clipPath id="a"><path d="M75.16 93.9H715v418.8H75.16z"/></clipPath></defs><path d="M75.2 512.7l6.4-4.2 6.4-4.2 6.4-4.2 6.4-4.2 6.4-4.3 6.4-4.2 6.4-4.2 6.3-4.2 6.4-4.2 6.4-4.2 6.4-4.2 6.4-4.2 6.4-4.2 6.4-4.2 6.4-4.3 6.4-4.2 6.4-4.2 6.4-4.2 6.4-4.2 6.4-4.2 6.4-4.2 6.4-4.2 6.4-4.2 6.4-4.3 6.4-4.2 6.4-4.2 6.4-4.2 6.4-4.2 6.4-4.2 6.4-4.2 6.4-4.2 6.4-4.2 6.4-4.2 6.4-4.3 6.4-4.2 6.4-4.2 6.4-4.2 6.4-4.2 6.4-4.2 6.4-4.2 6.4-4.2 6.4-4.2 6.4-4.3 6.4-4.2 6.4-4.2 6.4-4.2 6.4-4.2 6.4-4.2 6.4-4.2 6.4-4.2 6.4-4.2 6.4-4.2 6.4-4.3 6.4-4.2 6.4-4.2 6.4-4.2 6.4-4.2 6.4-4.2 6.4-4.2 6.4-4.2 6.4-4.2 6.4-4.3 6.4-4.2 6.4-4.2 6.4-4.2 6.4-4.2 6.4-4.2 6.4-4.2 6.4-4.2 6.3-4.2 6.4-4.2 6.4-4.3 6.4-4.2 6.4-4.2 6.4-4.2 6.4-4.2 6.4-4.2 6.4-4.2 6.4-4.2 6.4-4.2 6.4-4.3 6.4-4.2 6.4-4.2 6.4-4.2 6.4-4.2 6.4-4.2 6.4-4.2 6.4-4.2 6.4-4.2 6.4-4.2 6.4-4.3 6.4-4.2 6.4-4.2 6.4-4.2 6.4-4.2 6.4-4.2 6.4-4.2 6.4-4.2 6.4-4.2" clip-path="url(#a)" fill="none" stroke="#ccc"/></g><g clip-path="url(#b)" class="PointsWithLabels clickable"><path fill="rgba(255,255,255,0)" d="M75.16 93.9H715v418.8H75.16z"/><defs><clipPath id="b"><path d="M65.16 83.9H725v438.8H65.16z"/></clipPath></defs><circle cx="93" cy="502" r="17.84" fill="#d14e5b" opacity=".8"/><circle cx="116" cy="492" r="8" fill="#d14e5b" opacity=".8"/><circle cx="121" cy="498" r="7.24" fill="#69c487" opacity=".8"/><circle cx="197" cy="425" r="6.95" fill="#d14e5b" opacity=".8"/><circle cx="408" cy="280" r="6.72" fill="#5675c1" opacity=".8"/><circle cx="131" cy="485" r="6.41" fill="#d14e5b" opacity=".8"/><circle cx="147" cy="488" r="5.66" fill="#4d824b" opacity=".8"/><circle cx="181" cy="466" r="5.22" fill="#d14e5b" opacity=".8"/><circle cx="189" cy="447" r="5.04" fill="#d14e5b" opacity=".8"/><circle cx="393" cy="387" r="4.98" fill="#5675c1" opacity=".8"/><circle cx="458" cy="231" r="4.54" fill="#5675c1" opacity=".8"/><circle cx="420" cy="292" r="3.89" fill="#5675c1" opacity=".8"/><circle cx="159" cy="484" r="3.85" fill="#69c487" opacity=".8"/><circle cx="125" cy="480" r="3.74" fill="#ffd336" opacity=".8"/><circle cx="137" cy="490" r="3.63" fill="#69c487" opacity=".8"/><circle cx="158" cy="470" r="3.48" fill="#5675c1" opacity=".8"/><circle cx="438" cy="278" r="3.47" fill="#5675c1" opacity=".8"/><circle cx="410" cy="339" r="3.44" fill="#5675c1" opacity=".8"/><circle cx="156" cy="485" r="3.4" fill="#d14e5b" opacity=".8"/><circle cx="203" cy="479" r="3.39" fill="#d14e5b" opacity=".8"/><circle cx="481" cy="228" r="3.28" fill="#d14e5b" opacity=".8"/><circle cx="127" cy="497" r="3.23" fill="#69c487" opacity=".8"/><circle cx="301" cy="371" r="3.22" fill="#69c487" opacity=".8"/><circle cx="357" cy="327" r="3.07" fill="#5675c1" opacity=".8"/><circle cx="433" cy="278" r="2.85" fill="#5675c1" opacity=".8"/><circle cx="697" cy="123" r="2.85" fill="#5675c1" opacity=".8"/><circle cx="619" cy="224" r="2.72" fill="#5675c1" opacity=".8"/><circle cx="135" cy="494" r="2.7" fill="#69c487" opacity=".8"/><circle cx="567" cy="211" r="2.68" fill="#5675c1" opacity=".8"/><circle cx="391" cy="338" r="2.66" fill="#5675c1" opacity=".8"/><circle cx="573" cy="227" r="2.65" fill="#5675c1" opacity=".8"/><circle cx="173" cy="485" r="2.6" fill="#4d824b" opacity=".8"/><circle cx="133" cy="479" r="2.58" fill="#69c487" opacity=".8"/><circle cx="182" cy="434" r="2.56" fill="#d14e5b" opacity=".8"/><circle cx="440" cy="428" r="2.5" fill="#5675c1" opacity=".8"/><circle cx="630" cy="157" r="2.44" fill="#5675c1" opacity=".8"/><circle cx="133" cy="476" r="2.41" fill="#5675c1" opacity=".8"/><circle cx="113" cy="495" r="2.37" fill="#5675c1" opacity=".8"/><circle cx="469" cy="281" r="2.37" fill="#5675c1" opacity=".8"/><circle cx="269" cy="380" r="2.35" fill="#69c487" opacity=".8"/><circle cx="469" cy="285" r="2.35" fill="#4d824b" opacity=".8"/><circle cx="229" cy="446" r="2.34" fill="#4d824b" opacity=".8"/><circle cx="304" cy="429" r="2.32" fill="#ffd336" opacity=".8"/><circle cx="314" cy="360" r="2.31" fill="#5675c1" opacity=".8"/><circle cx="94" cy="495" r="2.3" fill="#ffd336" opacity=".8"/><circle cx="381" cy="303" r="2.27" fill="#5675c1" opacity=".8"/><circle cx="223" cy="475" r="2.22" fill="#4d824b" opacity=".8"/><circle cx="228" cy="482" r="2.15" fill="#69c487" opacity=".8"/><circle cx="149" cy="450" r="2.13" fill="#d14e5b" opacity=".8"/><circle cx="438" cy="299" r="2.13" fill="#5675c1" opacity=".8"/><circle cx="182" cy="483" r="2.12" fill="#4d824b" opacity=".8"/><circle cx="669" cy="142" r="2.12" fill="#5675c1" opacity=".8"/><circle cx="625" cy="261" r="2.11" fill="#4d824b" opacity=".8"/><circle cx="537" cy="295" r="2.07" fill="#d14e5b" opacity=".8"/><circle cx="108" cy="502" r="2.04" fill="#4d824b" opacity=".8"/><circle cx="433" cy="268" r="2.02" fill="#5675c1" opacity=".8"/><circle cx="287" cy="416" r="2" fill="#5675c1" opacity=".8"/><circle cx="382" cy="309" r="2" fill="#5675c1" opacity=".8"/><circle cx="235" cy="430" r="1.96" fill="#5675c1" opacity=".8"/><circle cx="143" cy="486" r="1.96" fill="#4d824b" opacity=".8"/><circle cx="137" cy="483" r="1.93" fill="#ffd336" opacity=".8"/><circle cx="192" cy="464" r="1.93" fill="#d14e5b" opacity=".8"/><circle cx="243" cy="434" r="1.91" fill="#d14e5b" opacity=".8"/><circle cx="137" cy="474" r="1.9" fill="#4d824b" opacity=".8"/><circle cx="273" cy="389" r="1.86" fill="#ffd336" opacity=".8"/><circle cx="715" cy="110" r="1.83" fill="#5675c1" opacity=".8"/><circle cx="325" cy="367" r="1.83" fill="#5675c1" opacity=".8"/><circle cx="217" cy="434" r="1.8" fill="#5675c1" opacity=".8"/><circle cx="242" cy="416" r="1.71" fill="#d14e5b" opacity=".8"/><text x="93" y="483.16" font-size="14.3" font-family="Arial Narrow, Arial, sans-serif" fill="#666">India</text><text x="197" y="417.05" font-size="11.47" font-family="Arial Narrow, Arial, sans-serif" fill="#666">Pakistan</text><text x="408" y="272.28" font-size="11.44" font-family="Arial Narrow, Arial, sans-serif" fill="#666">Nigeria</text><text x="131" y="477.59" font-size="11.4" font-family="Arial Narrow, Arial, sans-serif" fill="#666">Bangladesh</text><text x="181" y="459.78" font-size="11.25" font-family="Arial Narrow, Arial, sans-serif" fill="#666">Philippines</text><text x="189" y="440.96" font-size="11.23" font-family="Arial Narrow, Arial, sans-serif" fill="#666">Vietnam</text><text x="393" y="381.02" font-size="11.23" font-family="Arial Narrow, Arial, sans-serif" fill="#666">Ethiopia</text><text x="458" y="225.46" font-size="11.18" font-family="Arial Narrow, Arial, sans-serif" fill="#666">Democratic Republic of Congo</text><text x="420" y="287.11" font-size="11.12" font-family="Arial Narrow, Arial, sans-serif" fill="#666">Tanzania</text><text x="410" y="334.56" font-size="11.09" font-family="Arial Narrow, Arial, sans-serif" fill="#666">Sudan</text><text x="203" y="474.61" font-size="11.09" font-family="Arial Narrow, Arial, sans-serif" fill="#666">Afghanistan</text><text x="127" y="492.77" font-size="11.08" font-family="Arial Narrow, Arial, sans-serif" fill="#666">Venezuela</text><text x="301" y="366.78" font-size="11.08" font-family="Arial Narrow, Arial, sans-serif" fill="#666">Peru</text><text x="357" y="322.93" font-size="11.07" font-family="Arial Narrow, Arial, sans-serif" fill="#666">Ghana</text><text x="645.28" y="119.15" font-size="11.05" font-family="Arial Narrow, Arial, sans-serif" fill="#666">Cameroon</text><text x="619" y="220.28" font-size="11.04" font-family="Arial Narrow, Arial, sans-serif" fill="#666">Burkina Faso</text><text x="567" y="207.32" font-size="11.04" font-family="Arial Narrow, Arial, sans-serif" fill="#666">Niger</text><text x="440" y="424.5" font-size="11.03" font-family="Arial Narrow, Arial, sans-serif" fill="#666">Senegal</text><text x="630" y="153.56" font-size="11.03" font-family="Arial Narrow, Arial, sans-serif" fill="#666">Chad</text><text x="469" y="277.63" font-size="11.03" font-family="Arial Narrow, Arial, sans-serif" fill="#666">Guinea</text><text x="304" y="425.68" font-size="11.02" font-family="Arial Narrow, Arial, sans-serif" fill="#666">Serbia</text><text x="381" y="299.73" font-size="11.02" font-family="Arial Narrow, Arial, sans-serif" fill="#666">Burundi</text><text x="149" y="446.87" font-size="11.01" font-family="Arial Narrow, Arial, sans-serif" fill="#666">Laos</text><text x="605.67" y="138.88" font-size="11.01" font-family="Arial Narrow, Arial, sans-serif" fill="#666">Sierra Leone</text><text x="625" y="257.89" font-size="11.01" font-family="Arial Narrow, Arial, sans-serif" fill="#666">Nicaragua</text><text x="537" y="291.93" font-size="11.01" font-family="Arial Narrow, Arial, sans-serif" fill="#666">Kyrgyzstan</text><text x="287" y="413" font-size="11.01" font-family="Arial Narrow, Arial, sans-serif" fill="#666">Liberia</text><text x="243" y="431.09" font-size="11" font-family="Arial Narrow, Arial, sans-serif" fill="#666">Mongolia</text><text x="273" y="386.14" font-size="11" font-family="Arial Narrow, Arial, sans-serif" fill="#666">Macedonia</text><text x="642.61" y="107.17" font-size="11" font-family="Arial Narrow, Arial, sans-serif" fill="#666">Guinea-Bissau</text><text x="325" y="364.17" font-size="11" font-family="Arial Narrow, Arial, sans-serif" fill="#666">Gabon</text><text x="242" y="413.29" font-size="11" font-family="Arial Narrow, Arial, sans-serif" fill="#666">Yemen</text></g><g class="ScatterColorLegend clickable" cursor="pointer"><g class="legendMark">,<path fill="#5675c1" d="M735 96.9h6v6h-6z"/>,<text font-size="12.6" x="746" y="104"><tspan x="746" y="103.98">Africa</tspan></text></g><g class="legendMark">,<path fill="#d14e5b" d="M735 114.5h6v6h-6z"/>,<text font-size="12.6" x="746" y="121.6"><tspan x="746" y="121.58">Asia</tspan></text></g><g class="legendMark">,<path fill="#ffd336" d="M735 132.1h6v6h-6z"/>,<text font-size="12.6" x="746" y="139.2"><tspan x="746" y="139.18">Europe</tspan></text></g><g class="legendMark">,<path fill="#4d824b" d="M735 149.7h6v6h-6z"/>,<text font-size="12.6" x="746" y="156.8"><tspan x="746" y="156.78">North America</tspan></text></g><g class="legendMark">,<path fill="#69c487" d="M735 167.3h6v6h-6z"/>,<text font-size="12.6" x="746" y="174.4"><tspan x="746" y="174.38">South America</tspan></text></g></g></g><g class="SourcesFooter" fill="#777"><g class="clickable" fill="#777"><text font-size="12.6" x="15" y="581.6"><tspan x="15" y="581.58">Source: World Bank – WDI</tspan></text></g><text font-size="12.6" x="583.8" y="581.6"><tspan x="583.76" y="581.58"><a target="_blank" href="https://ourworldindata.org/child-labor/" fill="#777">OurWorldInData.org/child-labor/</a> • <a href="http://creativecommons.org/licenses/by-sa/4.0/deed.en_US" target="_blank" fill="#777">CC BY-SA</a></tspan></text></g></g></svg>