<svg xmlns="http://www.w3.org/2000/svg" version="1.1" style="background-color:#fff;-webkit-font-smoothing:antialiased" width="850" height="600" font-family="'Helvetica Neue',Helvetica,Arial,sans-serif" font-size="18" text-rendering="optimizeLegibility"><g class="ChartTab"><g class="HeaderView"><g opacity=".8" transform="matrix(.27 0 0 .27 778 15)"><a xmlns:xlink="http://www.w3.org/1999/xlink" xlink:href="https://ourworldindata.org" target="_blank"><g><path fill="#1B2543" d="M0 0h211.2v130.1H0z"/><path fill="#E63912" d="M0 112.2h211.2v17.9H0z"/><g><path fill="none" d="M1.2 12.3h210.2v99.2H1.2z"/><path fill="#FFF" d="M37.8 32.2c0 12.7-7.7 19.4-17.1 19.4-9.7 0-16.6-7.5-16.6-18.7 0-11.7 7.3-19.3 17.1-19.3 10.1.1 16.6 7.7 16.6 18.6zm-28.6.6c0 7.9 4.3 14.9 11.8 14.9 7.5 0 11.8-6.9 11.8-15.3 0-7.3-3.8-14.9-11.8-14.9-7.9 0-11.8 7.3-11.8 15.3zM62.7 43.8c0 2.7.1 5.1.2 7.2h-4.3l-.3-4.3h-.1c-1.3 2.1-4 4.9-8.8 4.9-4.2 0-9.1-2.3-9.1-11.6V24.6h4.8v14.6c0 5 1.5 8.4 5.9 8.4 3.2 0 5.5-2.2 6.3-4.4.3-.7.4-1.6.4-2.5V24.6h4.8v19.2zM67.3 32.8c0-3.1-.1-5.8-.2-8.2h4.2l.2 5.2h.2c1.2-3.5 4.1-5.8 7.3-5.8.5 0 .9.1 1.4.2v4.5c-.5-.1-1-.2-1.6-.2-3.4 0-5.8 2.6-6.5 6.2-.1.7-.2 1.4-.2 2.2V51h-4.8V32.8zM95.4 51L86 14.2h5l4.4 18.6c1.1 4.6 2.1 9.2 2.7 12.7h.1c.6-3.7 1.8-8 3-12.8l4.9-18.5h5l4.5 18.7c1 4.4 2 8.7 2.6 12.6h.1c.8-4 1.8-8.1 3-12.7l4.9-18.5h4.9L120.6 51h-5L111 31.9c-1.1-4.7-1.9-8.3-2.4-12h-.1c-.7 3.7-1.5 7.3-2.8 12L100.4 51h-5zM154.9 37.6c0 9.8-6.8 14-13.2 14-7.2 0-12.7-5.2-12.7-13.6 0-8.8 5.8-14 13.1-14 7.7 0 12.8 5.5 12.8 13.6zm-21 .3c0 5.8 3.3 10.1 8 10.1 4.6 0 8-4.3 8-10.3 0-4.5-2.2-10.1-7.9-10.1s-8.1 5.2-8.1 10.3zM158.2 32.8c0-3.1-.1-5.8-.2-8.2h4.2l.2 5.2h.2c1.2-3.5 4.1-5.8 7.3-5.8.5 0 .9.1 1.4.2v4.5c-.5-.1-1-.2-1.6-.2-3.4 0-5.8 2.6-6.5 6.2-.1.7-.2 1.4-.2 2.2V51h-4.8V32.8zM173.5 12.3h4.8V51h-4.8V12.3zM206.5 12.3v31.9c0 2.3.1 5 .2 6.8h-4.3l-.2-4.6h-.2c-1.5 2.9-4.7 5.2-9 5.2-6.4 0-11.3-5.4-11.3-13.4-.1-8.8 5.4-14.2 11.9-14.2 4 0 6.8 1.9 8 4h.1V12.3h4.8zm-4.8 23.1c0-.6-.1-1.4-.2-2a7 7 0 00-6.9-5.6c-5 0-7.9 4.4-7.9 10.2 0 5.3 2.6 9.8 7.8 9.8 3.2 0 6.2-2.1 7.1-5.7.2-.7.2-1.3.2-2.1v-4.6zM42.8 64c.1 1.6-1.1 2.9-3.1 2.9-1.7 0-2.9-1.3-2.9-2.9 0-1.7 1.3-3 3-3 1.9 0 3 1.3 3 3zm-5.4 33.8V71.4h4.8v26.4h-4.8zM47.5 78.6c0-2.7-.1-5-.2-7.1h4.3l.3 4.4h.1c1.3-2.5 4.4-5 8.8-5 3.7 0 9.4 2.2 9.4 11.2v15.8h-4.8V82.6c0-4.3-1.6-7.8-6.1-7.8-3.2 0-5.6 2.2-6.5 4.9-.2.6-.3 1.4-.3 2.2v15.9h-4.8V78.6zM84 61.6c2.9-.4 6.3-.8 10.1-.8 6.8 0 11.7 1.6 14.9 4.6 3.3 3 5.2 7.3 5.2 13.2 0 6-1.9 10.9-5.3 14.3-3.4 3.4-9.1 5.3-16.3 5.3-3.4 0-6.2-.2-8.6-.4V61.6zm4.8 32.5c1.2.2 3 .3 4.8.3 10.2 0 15.7-5.7 15.7-15.6.1-8.7-4.9-14.2-14.9-14.2-2.5 0-4.3.2-5.6.5v29zM132.1 97.8l-.4-3.3h-.2a9.79 9.79 0 01-8.1 3.9c-5.4 0-8.1-3.8-8.1-7.6 0-6.4 5.7-9.9 15.9-9.8v-.5c0-2.2-.6-6.1-6-6.1-2.5 0-5 .8-6.9 2l-1.1-3.2c2.2-1.4 5.4-2.3 8.7-2.3 8.1 0 10.1 5.5 10.1 10.8v9.9c0 2.3.1 4.5.4 6.3h-4.3zm-.7-13.4c-5.3-.1-11.2.8-11.2 5.9 0 3.1 2.1 4.6 4.5 4.6 3.4 0 5.6-2.2 6.4-4.4.2-.5.3-1 .3-1.5v-4.6zM146.6 63.9v7.6h6.9v3.7h-6.9v14.2c0 3.3.9 5.1 3.6 5.1 1.3 0 2.2-.2 2.8-.3l.2 3.6c-.9.4-2.4.7-4.3.7-2.2 0-4-.7-5.2-2-1.4-1.4-1.9-3.8-1.9-6.9V75.1h-4.1v-3.7h4.1v-6.3l4.8-1.2zM171.4 97.8l-.4-3.3h-.2a9.79 9.79 0 01-8.1 3.9c-5.4 0-8.1-3.8-8.1-7.6 0-6.4 5.7-9.9 15.9-9.8v-.5c0-2.2-.6-6.1-6-6.1-2.5 0-5 .8-6.9 2l-1.1-3.2c2.2-1.4 5.4-2.3 8.7-2.3 8.1 0 10.1 5.5 10.1 10.8v9.9c0 2.3.1 4.5.4 6.3h-4.3zm-.7-13.4c-5.3-.1-11.2.8-11.2 5.9 0 3.1 2.1 4.6 4.5 4.6 3.4 0 5.6-2.2 6.4-4.4.2-.5.3-1 .3-1.5v-4.6z"/></g></g></a></g><a target="_blank"><text font-size="25.2" x="15" y="35.2" fill="#555"><tspan x="15" y="35.16">Income inequality in Latin America</tspan></text></a><text font-size="14.4" x="15" y="53.7" fill="#666"><tspan x="15" y="53.72">The Gini index measures the distribution of household equivalized income, including zero income. A higher Gini index</tspan><tspan x="15" y="69.56">is indicative of a more unequal distribution of income.</tspan></text></g><g class="LineChart"><defs><clipPath id="a"><path d="M41.75 0h830v928.8h-830z"/></clipPath></defs><g class="AxisBoxView"><g class="HorizontalAxis" fill="#666" text-anchor="middle" font-size="16.2"><text x="51.8" y="556.5">1974</text><text x="146.5" y="556.5">1980</text><text x="304.4" y="556.5">1990</text><text x="462.3" y="556.5">2000</text><text x="620.2" y="556.5">2010</text><text x="730.7" y="556.5">2017</text></g><g class="VerticalAxis" fill="#666" dominant-baseline="middle" text-anchor="end" font-size="16.2"><text x="46.75" y="535.3">0.3</text><text x="46.75" y="464.3">0.35</text><text x="46.75" y="393.3">0.4</text><text x="46.75" y="322.3">0.45</text><text x="46.75" y="251.3">0.5</text><text x="46.75" y="180.3">0.55</text><text x="46.75" y="109.3">0.6</text></g><g class="AxisGridLines" stroke="#ddd" stroke-dasharray="3,2"><path d="M51.75 535.3h679M51.75 464.3h679M51.75 393.3h679M51.75 322.3h679M51.75 251.3h679M51.75 180.3h679M51.75 109.3h679"/></g></g><g clip-path="url(#a)"><g class="HeightedLegend clickable"><g class="legendMark"><g class="indicator" stroke="#666" stroke-width=".5"><path d="M735.75 231.2h12.5M748.25 231.2h0M748.25 231.2h12.5"/></g><text font-size="13.5" x="765.7" y="235.3" fill="#ffd53e"><tspan x="765.75" y="235.25">Brazil</tspan></text></g><g class="legendMark"><g class="indicator" stroke="#666" stroke-width=".5"><path d="M735.75 272.6h22.5M758.25 272.6h0M758.25 272.6h2.5"/></g><text font-size="13.5" x="765.7" y="276.7" fill="#9ecc8a"><tspan x="765.75" y="276.65">Colombia</tspan></text></g><g class="legendMark"><g class="indicator" stroke="#666" stroke-width=".5"><path d="M735.75 278.1h17.5M753.25 278.1v10M753.25 288.1h7.5"/></g><text font-size="13.5" x="765.7" y="292.2" fill="#e6332e"><tspan x="765.75" y="292.15">Honduras</tspan></text></g><g class="legendMark"><g class="indicator" stroke="#666" stroke-width=".5"><path d="M735.75 292.7h12.5M748.25 292.7v10.9M748.25 303.6h12.5"/></g><text font-size="13.5" x="765.7" y="307.7" fill="#2a939b"><tspan x="765.75" y="307.65">Paraguay</tspan></text></g><g class="legendMark"><g class="indicator" stroke="#666" stroke-width=".5"><path d="M735.75 299.5h7.5M743.25 299.5v19.6M743.25 319.1h17.5"/></g><text font-size="13.5" x="765.7" y="323.2" fill="#a652ba"><tspan x="765.75" y="323.15">Costa Rica</tspan></text></g><g class="legendMark"><g class="indicator" stroke="#666" stroke-width=".5"><path d="M735.75 367.5h12.5M748.25 367.5h0M748.25 367.5h12.5"/></g><text font-size="13.5" x="765.7" y="371.6" fill="#f6a324"><tspan x="765.75" y="371.55">Bolivia</tspan></text></g><g class="legendMark"><g class="indicator" stroke="#666" stroke-width=".5"><path d="M735.75 412.8h19.16M754.91 412.8h0M754.91 412.8h5.84"/></g><text font-size="13.5" x="765.7" y="416.9" fill="#34983f"><tspan x="765.75" y="416.85">Argentina</tspan></text></g><g class="legendMark"><g class="indicator" stroke="#666" stroke-width=".5"><path d="M735.75 422.3h12.5M748.25 422.3v6M748.25 428.3h12.5"/></g><text font-size="13.5" x="765.7" y="432.4" fill="#ca2628"><tspan x="765.75" y="432.35">El Salvador</tspan></text></g><g class="legendMark"><g class="indicator" stroke="#666" stroke-width=".5"><path d="M735.75 430.4h5.83M741.58 430.4v13.4M741.58 443.8h19.17"/></g><text font-size="13.5" x="765.7" y="447.9" fill="#3360a9"><tspan x="765.75" y="447.85">Uruguay</tspan></text></g></g><g class="Lines"><g class="key-Argentina_0"><path stroke="#34983f" stroke-linecap="round" d="M52 489l95-67 94-45 16-33 16-9 47-5 16 15 16 9 16-14 15-43 16-7 16 6 16-23 16 13 15-20 16-33 16-7 16 49 16 36 15 7 16 15 16 4 16 27 15 8 16 16 16 12 16 15 16 5 15-4 16 12 16-27 16 12" fill="none" stroke-width="1.5"/><g fill="#34983f"><circle cx="52" cy="489" r="2"/><circle cx="147" cy="422" r="2"/><circle cx="241" cy="377" r="2"/><circle cx="257" cy="344" r="2"/><circle cx="273" cy="335" r="2"/><circle cx="320" cy="330" r="2"/><circle cx="336" cy="345" r="2"/><circle cx="352" cy="354" r="2"/><circle cx="368" cy="340" r="2"/><circle cx="383" cy="297" r="2"/><circle cx="399" cy="290" r="2"/><circle cx="415" cy="296" r="2"/><circle cx="431" cy="273" r="2"/><circle cx="447" cy="286" r="2"/><circle cx="462" cy="266" r="2"/><circle cx="478" cy="233" r="2"/><circle cx="494" cy="226" r="2"/><circle cx="510" cy="275" r="2"/><circle cx="526" cy="311" r="2"/><circle cx="541" cy="318" r="2"/><circle cx="557" cy="333" r="2"/><circle cx="573" cy="337" r="2"/><circle cx="589" cy="364" r="2"/><circle cx="604" cy="372" r="2"/><circle cx="620" cy="388" r="2"/><circle cx="636" cy="400" r="2"/><circle cx="652" cy="415" r="2"/><circle cx="668" cy="420" r="2"/><circle cx="683" cy="416" r="2"/><circle cx="699" cy="428" r="2"/><circle cx="715" cy="401" r="2"/><circle cx="731" cy="413" r="2"/></g></g><g class="key-Colombia_0"><path stroke="#9ecc8a" stroke-linecap="round" d="M478 179l16 23 16 28 16-27 15 18 48-17 15 16 16-4 16 17 16 11h16l15 2 16 22 16 5" fill="none" stroke-width="1.5"/><g fill="#9ecc8a"><circle cx="478" cy="179" r="2"/><circle cx="494" cy="202" r="2"/><circle cx="510" cy="230" r="2"/><circle cx="526" cy="203" r="2"/><circle cx="541" cy="221" r="2"/><circle cx="589" cy="204" r="2"/><circle cx="604" cy="220" r="2"/><circle cx="620" cy="216" r="2"/><circle cx="636" cy="233" r="2"/><circle cx="652" cy="244" r="2"/><circle cx="668" cy="244" r="2"/><circle cx="683" cy="246" r="2"/><circle cx="699" cy="268" r="2"/><circle cx="715" cy="273" r="2"/></g></g><g class="key-El-Salvador_0"><path stroke="#ca2628" stroke-linecap="round" d="M462 262l16-2 16-5 32 57 15-9 16 40 16 7 16-25 15 15 16 34 16 19 16 6 16-25 15 26 16 17 16 5" fill="none" stroke-width="1.5"/><g fill="#ca2628"><circle cx="462" cy="262" r="2"/><circle cx="478" cy="260" r="2"/><circle cx="494" cy="255" r="2"/><circle cx="526" cy="312" r="2"/><circle cx="541" cy="303" r="2"/><circle cx="557" cy="343" r="2"/><circle cx="573" cy="350" r="2"/><circle cx="589" cy="325" r="2"/><circle cx="604" cy="340" r="2"/><circle cx="620" cy="374" r="2"/><circle cx="636" cy="393" r="2"/><circle cx="652" cy="399" r="2"/><circle cx="668" cy="374" r="2"/><circle cx="683" cy="400" r="2"/><circle cx="699" cy="417" r="2"/><circle cx="715" cy="422" r="2"/></g></g><g class="key-Honduras_0"><path stroke="#e6332e" stroke-linecap="round" d="M320 226l16-11 16 7 16-26 15-5 16-11 16 78 16-7 16 28 31-73 16-8 16-34 16-7 15-16 16 30 16 25 16 4 15 61 16-27 16-49 16 5 16 56 15 29 16 11 16-8" fill="none" stroke-width="1.5"/><g fill="#e6332e"><circle cx="320" cy="226" r="2"/><circle cx="336" cy="215" r="2"/><circle cx="352" cy="222" r="2"/><circle cx="368" cy="196" r="2"/><circle cx="383" cy="191" r="2"/><circle cx="399" cy="180" r="2"/><circle cx="415" cy="258" r="2"/><circle cx="431" cy="251" r="2"/><circle cx="447" cy="279" r="2"/><circle cx="478" cy="206" r="2"/><circle cx="494" cy="198" r="2"/><circle cx="510" cy="164" r="2"/><circle cx="526" cy="157" r="2"/><circle cx="541" cy="141" r="2"/><circle cx="557" cy="171" r="2"/><circle cx="573" cy="196" r="2"/><circle cx="589" cy="200" r="2"/><circle cx="604" cy="261" r="2"/><circle cx="620" cy="234" r="2"/><circle cx="636" cy="185" r="2"/><circle cx="652" cy="190" r="2"/><circle cx="668" cy="246" r="2"/><circle cx="683" cy="275" r="2"/><circle cx="699" cy="286" r="2"/><circle cx="715" cy="278" r="2"/></g></g><g class="key-Paraguay_0"><path stroke="#2a939b" stroke-linecap="round" d="M304 409l79-248 32 49 32 8 31-1 16-45 16 31 16 45 15 14 16-26 16 15 16 20 15 15 16-32 16-17 16 70 16-4 15-48 16 49 16 3 16-14" fill="none" stroke-width="1.5"/><g fill="#2a939b"><circle cx="304" cy="409" r="2"/><circle cx="383" cy="161" r="2"/><circle cx="415" cy="210" r="2"/><circle cx="447" cy="218" r="2"/><circle cx="478" cy="217" r="2"/><circle cx="494" cy="172" r="2"/><circle cx="510" cy="203" r="2"/><circle cx="526" cy="248" r="2"/><circle cx="541" cy="262" r="2"/><circle cx="557" cy="236" r="2"/><circle cx="573" cy="251" r="2"/><circle cx="589" cy="271" r="2"/><circle cx="604" cy="286" r="2"/><circle cx="620" cy="254" r="2"/><circle cx="636" cy="237" r="2"/><circle cx="652" cy="307" r="2"/><circle cx="668" cy="303" r="2"/><circle cx="683" cy="255" r="2"/><circle cx="699" cy="304" r="2"/><circle cx="715" cy="307" r="2"/><circle cx="731" cy="293" r="2"/></g></g><g class="key-Uruguay_0"><path stroke="#3360a9" stroke-linecap="round" d="M289 387l47 17 47 10 16 2 16-9 16-13 31-4 16-35 16-6 16 9 16-15 15 16 16-17 16-5 16 14 15-5 16 17 16 33 16 35 16-11 15 5 16-1 16 6" fill="none" stroke-width="1.5"/><g fill="#3360a9"><circle cx="289" cy="387" r="2"/><circle cx="336" cy="404" r="2"/><circle cx="383" cy="414" r="2"/><circle cx="399" cy="416" r="2"/><circle cx="415" cy="407" r="2"/><circle cx="431" cy="394" r="2"/><circle cx="462" cy="390" r="2"/><circle cx="478" cy="355" r="2"/><circle cx="494" cy="349" r="2"/><circle cx="510" cy="358" r="2"/><circle cx="526" cy="343" r="2"/><circle cx="541" cy="359" r="2"/><circle cx="557" cy="342" r="2"/><circle cx="573" cy="337" r="2"/><circle cx="589" cy="351" r="2"/><circle cx="604" cy="346" r="2"/><circle cx="620" cy="363" r="2"/><circle cx="636" cy="396" r="2"/><circle cx="652" cy="431" r="2"/><circle cx="668" cy="420" r="2"/><circle cx="683" cy="425" r="2"/><circle cx="699" cy="424" r="2"/><circle cx="715" cy="430" r="2"/></g></g><g class="key-Costa-Rica_0"><path stroke="#a652ba" stroke-linecap="round" d="M289 341l15 2 16-16 16 11 16-5 16-8 15 11 16-11 16 17 16-2 16-28 15 2 16-57 16-9 16 40 16 13 15 14 16-30 16 1 16 10 15-27 16 34 16-6 16 1 16-12 15 10 16 3 16-3 16 4" fill="none" stroke-width="1.5"/><g fill="#a652ba"><circle cx="289" cy="341" r="2"/><circle cx="304" cy="343" r="2"/><circle cx="320" cy="327" r="2"/><circle cx="336" cy="338" r="2"/><circle cx="352" cy="333" r="2"/><circle cx="368" cy="325" r="2"/><circle cx="383" cy="336" r="2"/><circle cx="399" cy="325" r="2"/><circle cx="415" cy="342" r="2"/><circle cx="431" cy="340" r="2"/><circle cx="447" cy="312" r="2"/><circle cx="462" cy="314" r="2"/><circle cx="478" cy="257" r="2"/><circle cx="494" cy="248" r="2"/><circle cx="510" cy="288" r="2"/><circle cx="526" cy="301" r="2"/><circle cx="541" cy="315" r="2"/><circle cx="557" cy="285" r="2"/><circle cx="573" cy="286" r="2"/><circle cx="589" cy="296" r="2"/><circle cx="604" cy="269" r="2"/><circle cx="620" cy="303" r="2"/><circle cx="636" cy="297" r="2"/><circle cx="652" cy="298" r="2"/><circle cx="668" cy="286" r="2"/><circle cx="683" cy="296" r="2"/><circle cx="699" cy="299" r="2"/><circle cx="715" cy="296" r="2"/><circle cx="731" cy="300" r="2"/></g></g><g class="key-Bolivia_0"><path stroke="#f6a324" stroke-linecap="round" d="M336 291l16-62 63-67 32-2 15-49 16 63 16-30 47 14 16 28 16 34 16 50 15 23 32 45 16-10 16-14 15-1 16 16 16 32 16 7" fill="none" stroke-width="1.5"/><g fill="#f6a324"><circle cx="336" cy="291" r="2"/><circle cx="352" cy="229" r="2"/><circle cx="415" cy="162" r="2"/><circle cx="447" cy="160" r="2"/><circle cx="462" cy="111" r="2"/><circle cx="478" cy="174" r="2"/><circle cx="494" cy="144" r="2"/><circle cx="541" cy="158" r="2"/><circle cx="557" cy="186" r="2"/><circle cx="573" cy="220" r="2"/><circle cx="589" cy="270" r="2"/><circle cx="604" cy="293" r="2"/><circle cx="636" cy="338" r="2"/><circle cx="652" cy="328" r="2"/><circle cx="668" cy="314" r="2"/><circle cx="683" cy="313" r="2"/><circle cx="699" cy="329" r="2"/><circle cx="715" cy="361" r="2"/><circle cx="731" cy="368" r="2"/></g></g><g class="key-Brazil_0"><path stroke="#ffd53e" stroke-linecap="round" d="M162 177l16-9 16-9 16 9 15 40 16-44 16-17 16-28 16-27 15 34 48 5 31 9 16-6 16 1 16 4 16 10 31 9 16 5 16 8 16 16 15 3 16 9 16 9 16 13 15 5 32 10 16 5 16-3 15 18 16 2 16-27" fill="none" stroke-width="1.5"/><g fill="#ffd53e"><circle cx="162" cy="177" r="2"/><circle cx="178" cy="168" r="2"/><circle cx="194" cy="159" r="2"/><circle cx="210" cy="168" r="2"/><circle cx="225" cy="208" r="2"/><circle cx="241" cy="164" r="2"/><circle cx="257" cy="147" r="2"/><circle cx="273" cy="119" r="2"/><circle cx="289" cy="92" r="2"/><circle cx="304" cy="126" r="2"/><circle cx="352" cy="131" r="2"/><circle cx="383" cy="140" r="2"/><circle cx="399" cy="134" r="2"/><circle cx="415" cy="135" r="2"/><circle cx="431" cy="139" r="2"/><circle cx="447" cy="149" r="2"/><circle cx="478" cy="158" r="2"/><circle cx="494" cy="163" r="2"/><circle cx="510" cy="171" r="2"/><circle cx="526" cy="187" r="2"/><circle cx="541" cy="190" r="2"/><circle cx="557" cy="199" r="2"/><circle cx="573" cy="208" r="2"/><circle cx="589" cy="221" r="2"/><circle cx="604" cy="226" r="2"/><circle cx="636" cy="236" r="2"/><circle cx="652" cy="241" r="2"/><circle cx="668" cy="238" r="2"/><circle cx="683" cy="256" r="2"/><circle cx="699" cy="258" r="2"/><circle cx="715" cy="231" r="2"/></g></g></g></g></g><g class="SourcesFooter" fill="#777"><g class="clickable" fill="#777"><text font-size="12.6" x="15" y="581.6"><tspan x="15" y="581.58">Source: Socio-Economic Database for Latin America and the Caribbean (CEDLAS and The World Bank)</tspan></text></g><text font-size="12.6" x="775.4" y="581.6"><tspan x="775.4" y="581.58"><a class="cclogo" href="http://creativecommons.org/licenses/by-sa/4.0/deed.en_US" target="_blank" fill="#777">CC BY-SA</a></tspan></text></g></g></svg>