<svg xmlns="http://www.w3.org/2000/svg" version="1.1" style="background-color:#fff;-webkit-font-smoothing:antialiased" width="850" height="600" font-family="'Helvetica Neue',Helvetica,Arial,sans-serif" font-size="18" text-rendering="optimizeLegibility"><g class="ChartTab"><g class="HeaderView"><g opacity=".8" transform="matrix(.31 0 0 .31 770 15)"><a xmlns:xlink="http://www.w3.org/1999/xlink" xlink:href="https://ourworldindata.org" target="_blank"><g><path fill="#1B2543" d="M0 0h211.2v130.1H0z"/><path fill="#E63912" d="M0 112.2h211.2v17.9H0z"/><g><path fill="none" d="M1.2 12.3h210.2v99.2H1.2z"/><path fill="#FFF" d="M37.8 32.2c0 12.7-7.7 19.4-17.1 19.4-9.7 0-16.6-7.5-16.6-18.7 0-11.7 7.3-19.3 17.1-19.3 10.1.1 16.6 7.7 16.6 18.6zm-28.6.6c0 7.9 4.3 14.9 11.8 14.9 7.5 0 11.8-6.9 11.8-15.3 0-7.3-3.8-14.9-11.8-14.9-7.9 0-11.8 7.3-11.8 15.3zM62.7 43.8c0 2.7.1 5.1.2 7.2h-4.3l-.3-4.3h-.1c-1.3 2.1-4 4.9-8.8 4.9-4.2 0-9.1-2.3-9.1-11.6V24.6h4.8v14.6c0 5 1.5 8.4 5.9 8.4 3.2 0 5.5-2.2 6.3-4.4.3-.7.4-1.6.4-2.5V24.6h4.8v19.2zM67.3 32.8c0-3.1-.1-5.8-.2-8.2h4.2l.2 5.2h.2c1.2-3.5 4.1-5.8 7.3-5.8.5 0 .9.1 1.4.2v4.5c-.5-.1-1-.2-1.6-.2-3.4 0-5.8 2.6-6.5 6.2-.1.7-.2 1.4-.2 2.2V51h-4.8V32.8zM95.4 51L86 14.2h5l4.4 18.6c1.1 4.6 2.1 9.2 2.7 12.7h.1c.6-3.7 1.8-8 3-12.8l4.9-18.5h5l4.5 18.7c1 4.4 2 8.7 2.6 12.6h.1c.8-4 1.8-8.1 3-12.7l4.9-18.5h4.9L120.6 51h-5L111 31.9c-1.1-4.7-1.9-8.3-2.4-12h-.1c-.7 3.7-1.5 7.3-2.8 12L100.4 51h-5zM154.9 37.6c0 9.8-6.8 14-13.2 14-7.2 0-12.7-5.2-12.7-13.6 0-8.8 5.8-14 13.1-14 7.7 0 12.8 5.5 12.8 13.6zm-21 .3c0 5.8 3.3 10.1 8 10.1 4.6 0 8-4.3 8-10.3 0-4.5-2.2-10.1-7.9-10.1s-8.1 5.2-8.1 10.3zM158.2 32.8c0-3.1-.1-5.8-.2-8.2h4.2l.2 5.2h.2c1.2-3.5 4.1-5.8 7.3-5.8.5 0 .9.1 1.4.2v4.5c-.5-.1-1-.2-1.6-.2-3.4 0-5.8 2.6-6.5 6.2-.1.7-.2 1.4-.2 2.2V51h-4.8V32.8zM173.5 12.3h4.8V51h-4.8V12.3zM206.5 12.3v31.9c0 2.3.1 5 .2 6.8h-4.3l-.2-4.6h-.2c-1.5 2.9-4.7 5.2-9 5.2-6.4 0-11.3-5.4-11.3-13.4-.1-8.8 5.4-14.2 11.9-14.2 4 0 6.8 1.9 8 4h.1V12.3h4.8zm-4.8 23.1c0-.6-.1-1.4-.2-2a7 7 0 00-6.9-5.6c-5 0-7.9 4.4-7.9 10.2 0 5.3 2.6 9.8 7.8 9.8 3.2 0 6.2-2.1 7.1-5.7.2-.7.2-1.3.2-2.1v-4.6zM42.8 64c.1 1.6-1.1 2.9-3.1 2.9-1.7 0-2.9-1.3-2.9-2.9 0-1.7 1.3-3 3-3 1.9 0 3 1.3 3 3zm-5.4 33.8V71.4h4.8v26.4h-4.8zM47.5 78.6c0-2.7-.1-5-.2-7.1h4.3l.3 4.4h.1c1.3-2.5 4.4-5 8.8-5 3.7 0 9.4 2.2 9.4 11.2v15.8h-4.8V82.6c0-4.3-1.6-7.8-6.1-7.8-3.2 0-5.6 2.2-6.5 4.9-.2.6-.3 1.4-.3 2.2v15.9h-4.8V78.6zM84 61.6c2.9-.4 6.3-.8 10.1-.8 6.8 0 11.7 1.6 14.9 4.6 3.3 3 5.2 7.3 5.2 13.2 0 6-1.9 10.9-5.3 14.3-3.4 3.4-9.1 5.3-16.3 5.3-3.4 0-6.2-.2-8.6-.4V61.6zm4.8 32.5c1.2.2 3 .3 4.8.3 10.2 0 15.7-5.7 15.7-15.6.1-8.7-4.9-14.2-14.9-14.2-2.5 0-4.3.2-5.6.5v29zM132.1 97.8l-.4-3.3h-.2a9.79 9.79 0 01-8.1 3.9c-5.4 0-8.1-3.8-8.1-7.6 0-6.4 5.7-9.9 15.9-9.8v-.5c0-2.2-.6-6.1-6-6.1-2.5 0-5 .8-6.9 2l-1.1-3.2c2.2-1.4 5.4-2.3 8.7-2.3 8.1 0 10.1 5.5 10.1 10.8v9.9c0 2.3.1 4.5.4 6.3h-4.3zm-.7-13.4c-5.3-.1-11.2.8-11.2 5.9 0 3.1 2.1 4.6 4.5 4.6 3.4 0 5.6-2.2 6.4-4.4.2-.5.3-1 .3-1.5v-4.6zM146.6 63.9v7.6h6.9v3.7h-6.9v14.2c0 3.3.9 5.1 3.6 5.1 1.3 0 2.2-.2 2.8-.3l.2 3.6c-.9.4-2.4.7-4.3.7-2.2 0-4-.7-5.2-2-1.4-1.4-1.9-3.8-1.9-6.9V75.1h-4.1v-3.7h4.1v-6.3l4.8-1.2zM171.4 97.8l-.4-3.3h-.2a9.79 9.79 0 01-8.1 3.9c-5.4 0-8.1-3.8-8.1-7.6 0-6.4 5.7-9.9 15.9-9.8v-.5c0-2.2-.6-6.1-6-6.1-2.5 0-5 .8-6.9 2l-1.1-3.2c2.2-1.4 5.4-2.3 8.7-2.3 8.1 0 10.1 5.5 10.1 10.8v9.9c0 2.3.1 4.5.4 6.3h-4.3zm-.7-13.4c-5.3-.1-11.2.8-11.2 5.9 0 3.1 2.1 4.6 4.5 4.6 3.4 0 5.6-2.2 6.4-4.4.2-.5.3-1 .3-1.5v-4.6z"/></g></g></a></g><a href="https://ourworldindata.org/grapher/inequality-of-incomes-before-and-after-taxes-and-transfers-scatter" target="_blank"><text font-size="25.2" x="15" y="35.2" fill="#555"><tspan x="15" y="35.16">Inequality of incomes before and after taxes and transfers, 2014</tspan></text></a><text font-size="14.4" x="15" y="53.7" fill="#666"><tspan x="15" y="53.72">The horizontal axis measures inequality of &apos;market incomes&apos; (i.e. income before taxes and transfers). The vertical</tspan><tspan x="15" y="69.56">axis measures inequality of disposable incomes (i.e. income after taxes and transfers). In both cases inequality is</tspan><tspan x="15" y="85.4">measured by the Gini Coefficient (higher values reflect more inequality).</tspan></text></g><g><g class="AxisBoxView"><g class="HorizontalAxis"><text font-size="12.6" x="244.1" y="512.9"><tspan x="244.1" y="512.88">Gini coefficient (before taxes and transfers)</tspan></text><text x="74.4" y="492.8" fill="#666" text-anchor="middle" font-size="16.2">0.2</text><text x="159.8" y="492.8" fill="#666" text-anchor="middle" font-size="16.2">0.25</text><text x="245.2" y="492.8" fill="#666" text-anchor="middle" font-size="16.2">0.3</text><text x="330.6" y="492.8" fill="#666" text-anchor="middle" font-size="16.2">0.35</text><text x="416" y="492.8" fill="#666" text-anchor="middle" font-size="16.2">0.4</text><text x="501.5" y="492.8" fill="#666" text-anchor="middle" font-size="16.2">0.45</text><text x="586.9" y="492.8" fill="#666" text-anchor="middle" font-size="16.2">0.5</text><text x="672.3" y="492.8" fill="#666" text-anchor="middle" font-size="16.2">0.55</text></g><g class="VerticalAxis"><text font-size="12.6" x="-449.2" y="25.1" transform="rotate(-90)"><tspan x="-449.22" y="25.08">Gini coefficient (income after taxes and transfers)</tspan></text><text x="69.35" y="471.6" fill="#666" dominant-baseline="middle" text-anchor="end" font-size="16.2">0.2</text><text x="69.35" y="402.9" fill="#666" dominant-baseline="middle" text-anchor="end" font-size="16.2">0.25</text><text x="69.35" y="334.2" fill="#666" dominant-baseline="middle" text-anchor="end" font-size="16.2">0.3</text><text x="69.35" y="265.6" fill="#666" dominant-baseline="middle" text-anchor="end" font-size="16.2">0.35</text><text x="69.35" y="196.9" fill="#666" dominant-baseline="middle" text-anchor="end" font-size="16.2">0.4</text><text x="69.35" y="128.2" fill="#666" dominant-baseline="middle" text-anchor="end" font-size="16.2">0.45</text></g><g class="AxisGridLines" stroke="#ddd" stroke-dasharray="3,2"><path d="M74.35 471.6H715M74.35 402.9H715M74.35 334.2H715M74.35 265.6H715M74.35 196.9H715M74.35 128.2H715"/></g><g class="AxisGridLines" stroke="#ddd" stroke-dasharray="3,2"><path d="M74.4 471.6v-364M159.8 471.6v-364M245.2 471.6v-364M330.6 471.6v-364M416 471.6v-364M501.5 471.6v-364M586.9 471.6v-364M672.3 471.6v-364"/></g></g><g class="ComparisonLine"><defs><clipPath id="a"><path d="M74.35 107.6H715v364H74.35z"/></clipPath></defs><path d="M74.4 471.6l6.4-5.2 6.4-5.1 6.4-5.2 6.4-5.1 6.4-5.2 6.4-5.1 6.4-5.2 6.4-5.1 6.4-5.2 6.4-5.1 6.4-5.2 6.4-5.1 6.4-5.2 6.4-5.1 6.4-5.2 6.5-5.1 6.4-5.2 6.4-5.1 6.4-5.2 6.4-5.1 6.4-5.2 6.4-5.1 6.4-5.2 6.4-5.1 6.4-5.2 6.4-5.1 6.4-5.2 6.4-5.1 6.4-5.2 6.4-5.1 6.5-5.2 6.4-5.1 6.4-5.2 6.4-5.1 6.4-5.2 6.4-5.1 6.4-5.2 6.4-5.1 6.4-5.2 6.4-5.1 6.4-5.2 6.4-5.1 6.4-5.2 6.4-5.1 6.4-5.2 6.5-5.1 6.4-5.2 6.4-5.1 6.4-5.2 6.4-5.1 6.4-5.2 6.4-5.1 6.4-5.2 6.4-5.2 6.4-5.1 6.4-5.2 6.4-5.1 6.4-5.2 6.4-5.1 6.4-5.2 6.4-5.1 6.5-5.2 6.4-5.1 6.4-5.2 6.4-5.1 6.4-5.2 6.4-5.1 6.4-5.2 6.4-5.1 6.4-5.2 6.4-5.1 6.4-5.2 6.4-5.1 6.4-5.2 6.4-5.1 6.4-5.2 6.5-5.1 6.4-5.2 6.4-5.1 6.4-5.2 6.4-5.1 6.4-5.2 6.4-5.1 6.4-5.2 6.4-5.1 6.4-5.2 6.4-5.1 6.4-5.2 6.4-5.1 6.4-5.2 6.4-5.1 6.4-5.2 6.5-5.1 6.4-5.2 6.4-5.1 6.4-5.2 6.4-5.1 6.4-5.2 6.4-5.1" clip-path="url(#a)" fill="none" stroke="#ccc"/></g><g clip-path="url(#b)" class="PointsWithLabels clickable"><path fill="rgba(255,255,255,0)" d="M74.35 107.6H715v364H74.35z"/><defs><clipPath id="b"><path d="M64.35 97.6H725v384H64.35z"/></clipPath></defs><circle cx="600" cy="205" r="17.84" fill="#4d824b" opacity=".8"/><circle cx="566" cy="293" r="11.31" fill="#d14e5b" opacity=".8"/><circle cx="549" cy="115" r="10.92" fill="#4d824b" opacity=".8"/><circle cx="600" cy="345" r="9.16" fill="#ffd336" opacity=".8"/><circle cx="446" cy="206" r="8.8" fill="#d14e5b" opacity=".8"/><circle cx="593" cy="342" r="8.13" fill="#ffd336" opacity=".8"/><circle cx="633" cy="254" r="8.09" fill="#ffd336" opacity=".8"/><circle cx="614" cy="299" r="7.96" fill="#ffd336" opacity=".8"/><circle cx="315" cy="331" r="7.15" fill="#d14e5b" opacity=".8"/><circle cx="631" cy="271" r="7.03" fill="#ffd336" opacity=".8"/><circle cx="527" cy="334" r="6.39" fill="#ffd336" opacity=".8"/><circle cx="484" cy="304" r="6.12" fill="#4d824b" opacity=".8"/><circle cx="557" cy="283" r="5.08" fill="#a652ba" opacity=".8"/><circle cx="583" cy="107" r="4.5" fill="#69c487" opacity=".8"/><circle cx="484" cy="357" r="4.41" fill="#ffd336" opacity=".8"/><circle cx="708" cy="275" r="3.77" fill="#ffd336" opacity=".8"/><circle cx="576" cy="378" r="3.68" fill="#ffd336" opacity=".8"/><circle cx="682" cy="276" r="3.67" fill="#ffd336" opacity=".8"/><circle cx="523" cy="386" r="3.65" fill="#ffd336" opacity=".8"/><circle cx="510" cy="350" r="3.56" fill="#ffd336" opacity=".8"/><circle cx="489" cy="360" r="3.51" fill="#ffd336" opacity=".8"/><circle cx="581" cy="361" r="3.35" fill="#ffd336" opacity=".8"/><circle cx="510" cy="245" r="3.26" fill="#d14e5b" opacity=".8"/><circle cx="393" cy="341" r="3.25" fill="#ffd336" opacity=".8"/><circle cx="487" cy="397" r="2.9" fill="#ffd336" opacity=".8"/><circle cx="465" cy="376" r="2.88" fill="#ffd336" opacity=".8"/><circle cx="578" cy="393" r="2.87" fill="#ffd336" opacity=".8"/><circle cx="436" cy="400" r="2.79" fill="#ffd336" opacity=".8"/><circle cx="715" cy="321" r="2.73" fill="#ffd336" opacity=".8"/><circle cx="520" cy="288" r="2.71" fill="#a652ba" opacity=".8"/><circle cx="607" cy="261" r="2.47" fill="#ffd336" opacity=".8"/><circle cx="586" cy="262" r="2.25" fill="#ffd336" opacity=".8"/><circle cx="530" cy="396" r="2.21" fill="#ffd336" opacity=".8"/><circle cx="609" cy="250" r="2.04" fill="#ffd336" opacity=".8"/><circle cx="557" cy="360" r="1.84" fill="#ffd336" opacity=".8"/><circle cx="392" cy="411" r="1.78" fill="#ffd336" opacity=".8"/><text x="600" y="186.16" font-size="14.3" font-family="Arial Narrow, Arial, sans-serif" fill="#666">United States</text><text x="566" y="280.69" font-size="12.31" font-family="Arial Narrow, Arial, sans-serif" fill="#666">Japan</text><text x="549" y="119.82" font-size="12.22" font-family="Arial Narrow, Arial, sans-serif" fill="#666">Mexico</text><text x="600" y="334.84" font-size="11.85" font-family="Arial Narrow, Arial, sans-serif" fill="#666">Germany</text><text x="446" y="196.2" font-size="11.78" font-family="Arial Narrow, Arial, sans-serif" fill="#666">Turkey</text><text x="549.81" y="244.91" font-size="11.65" font-family="Arial Narrow, Arial, sans-serif" fill="#666">United Kingdom</text><text x="614" y="290.04" font-size="11.63" font-family="Arial Narrow, Arial, sans-serif" fill="#666">Italy</text><text x="315" y="322.85" font-size="11.5" font-family="Arial Narrow, Arial, sans-serif" fill="#666">South Korea</text><text x="631" y="262.97" font-size="11.48" font-family="Arial Narrow, Arial, sans-serif" fill="#666">Spain</text><text x="527" y="326.61" font-size="11.39" font-family="Arial Narrow, Arial, sans-serif" fill="#666">Poland</text><text x="484" y="296.88" font-size="11.36" font-family="Arial Narrow, Arial, sans-serif" fill="#666">Canada</text><text x="484" y="351.59" font-size="11.17" font-family="Arial Narrow, Arial, sans-serif" fill="#666">Netherlands</text><text x="671.43" y="270.23" font-size="11.12" font-family="Arial Narrow, Arial, sans-serif" fill="#666">Greece</text><text x="576" y="373.32" font-size="11.11" font-family="Arial Narrow, Arial, sans-serif" fill="#666">Belgium</text><text x="581" y="356.65" font-size="11.08" font-family="Arial Narrow, Arial, sans-serif" fill="#666">Austria</text><text x="510" y="240.74" font-size="11.08" font-family="Arial Narrow, Arial, sans-serif" fill="#666">Israel</text><text x="393" y="336.75" font-size="11.08" font-family="Arial Narrow, Arial, sans-serif" fill="#666">Switzerland</text><text x="487" y="393.1" font-size="11.05" font-family="Arial Narrow, Arial, sans-serif" fill="#666">Denmark</text><text x="465" y="372.12" font-size="11.05" font-family="Arial Narrow, Arial, sans-serif" fill="#666">Slovakia</text><text x="578" y="389.13" font-size="11.05" font-family="Arial Narrow, Arial, sans-serif" fill="#666">Finland</text><text x="436" y="396.21" font-size="11.05" font-family="Arial Narrow, Arial, sans-serif" fill="#666">Norway</text><text x="681.09" y="317.27" font-size="11.04" font-family="Arial Narrow, Arial, sans-serif" fill="#666">Ireland</text><text x="586" y="258.75" font-size="11.02" font-family="Arial Narrow, Arial, sans-serif" fill="#666">Latvia</text><text x="392" y="408.22" font-size="11" font-family="Arial Narrow, Arial, sans-serif" fill="#666">Iceland</text></g><g class="ScatterColorLegend clickable" cursor="pointer"><g class="legendMark">,<path fill="#d14e5b" d="M735 110.6h6v6h-6z"/>,<text font-size="12.6" x="746" y="117.7"><tspan x="746" y="117.68">Asia</tspan></text></g><g class="legendMark">,<path fill="#ffd336" d="M735 128.2h6v6h-6z"/>,<text font-size="12.6" x="746" y="135.3"><tspan x="746" y="135.28">Europe</tspan></text></g><g class="legendMark">,<path fill="#4d824b" d="M735 145.8h6v6h-6z"/>,<text font-size="12.6" x="746" y="152.9"><tspan x="746" y="152.88">North America</tspan></text></g><g class="legendMark">,<path fill="#a652ba" d="M735 163.4h6v6h-6z"/>,<text font-size="12.6" x="746" y="170.5"><tspan x="746" y="170.48">Oceania</tspan></text></g><g class="legendMark">,<path fill="#69c487" d="M735 181h6v6h-6z"/>,<text font-size="12.6" x="746" y="188.1"><tspan x="746" y="188.08">South America</tspan></text></g></g></g><g class="SourcesFooter" fill="#777"><g class="clickable" fill="#777"><text font-size="12.6" x="15" y="540.5"><tspan x="15" y="540.48">Source: OECD Income Distribution Database (2016)</tspan></text></g><text font-size="12.6" x="15" y="555.1"><tspan x="15" y="555.08">Note: Income before taxes and transfers corresponds to &apos;market income&apos; (gross wages and salaries + self-employment income + capital and</tspan><tspan x="15" y="568.94">property income).Income after taxes and transfers corresponds to &apos;disposable income&apos; (disposable income = market income + social security cash</tspan><tspan x="15" y="582.8">transfers + private transfers –income tax).</tspan></text><text font-size="12.6" x="543.7" y="540.5"><tspan x="543.69" y="540.48"><a target="_blank" href="https://ourworldindata.org/income-inequality/" fill="#777">OurWorldInData.org/income-inequality/</a> • <a href="http://creativecommons.org/licenses/by-sa/4.0/deed.en_US" target="_blank" fill="#777">CC BY-SA</a></tspan></text></g></g></svg>