<svg xmlns="http://www.w3.org/2000/svg" version="1.1" style="background-color:#fff;-webkit-font-smoothing:antialiased" width="850" height="600" font-family="'Helvetica Neue',Helvetica,Arial,sans-serif" font-size="18" text-rendering="optimizeLegibility"><g class="ChartTab"><g class="HeaderView"><g opacity=".8" transform="matrix(.31 0 0 .31 770 15)"><a xmlns:xlink="http://www.w3.org/1999/xlink" xlink:href="https://ourworldindata.org" target="_blank"><g><path fill="#1B2543" d="M0 0h211.2v130.1H0z"/><path fill="#E63912" d="M0 112.2h211.2v17.9H0z"/><g><path fill="none" d="M1.2 12.3h210.2v99.2H1.2z"/><path fill="#FFF" d="M37.8 32.2c0 12.7-7.7 19.4-17.1 19.4-9.7 0-16.6-7.5-16.6-18.7 0-11.7 7.3-19.3 17.1-19.3 10.1.1 16.6 7.7 16.6 18.6zm-28.6.6c0 7.9 4.3 14.9 11.8 14.9 7.5 0 11.8-6.9 11.8-15.3 0-7.3-3.8-14.9-11.8-14.9-7.9 0-11.8 7.3-11.8 15.3zM62.7 43.8c0 2.7.1 5.1.2 7.2h-4.3l-.3-4.3h-.1c-1.3 2.1-4 4.9-8.8 4.9-4.2 0-9.1-2.3-9.1-11.6V24.6h4.8v14.6c0 5 1.5 8.4 5.9 8.4 3.2 0 5.5-2.2 6.3-4.4.3-.7.4-1.6.4-2.5V24.6h4.8v19.2zM67.3 32.8c0-3.1-.1-5.8-.2-8.2h4.2l.2 5.2h.2c1.2-3.5 4.1-5.8 7.3-5.8.5 0 .9.1 1.4.2v4.5c-.5-.1-1-.2-1.6-.2-3.4 0-5.8 2.6-6.5 6.2-.1.7-.2 1.4-.2 2.2V51h-4.8V32.8zM95.4 51L86 14.2h5l4.4 18.6c1.1 4.6 2.1 9.2 2.7 12.7h.1c.6-3.7 1.8-8 3-12.8l4.9-18.5h5l4.5 18.7c1 4.4 2 8.7 2.6 12.6h.1c.8-4 1.8-8.1 3-12.7l4.9-18.5h4.9L120.6 51h-5L111 31.9c-1.1-4.7-1.9-8.3-2.4-12h-.1c-.7 3.7-1.5 7.3-2.8 12L100.4 51h-5zM154.9 37.6c0 9.8-6.8 14-13.2 14-7.2 0-12.7-5.2-12.7-13.6 0-8.8 5.8-14 13.1-14 7.7 0 12.8 5.5 12.8 13.6zm-21 .3c0 5.8 3.3 10.1 8 10.1 4.6 0 8-4.3 8-10.3 0-4.5-2.2-10.1-7.9-10.1s-8.1 5.2-8.1 10.3zM158.2 32.8c0-3.1-.1-5.8-.2-8.2h4.2l.2 5.2h.2c1.2-3.5 4.1-5.8 7.3-5.8.5 0 .9.1 1.4.2v4.5c-.5-.1-1-.2-1.6-.2-3.4 0-5.8 2.6-6.5 6.2-.1.7-.2 1.4-.2 2.2V51h-4.8V32.8zM173.5 12.3h4.8V51h-4.8V12.3zM206.5 12.3v31.9c0 2.3.1 5 .2 6.8h-4.3l-.2-4.6h-.2c-1.5 2.9-4.7 5.2-9 5.2-6.4 0-11.3-5.4-11.3-13.4-.1-8.8 5.4-14.2 11.9-14.2 4 0 6.8 1.9 8 4h.1V12.3h4.8zm-4.8 23.1c0-.6-.1-1.4-.2-2a7 7 0 00-6.9-5.6c-5 0-7.9 4.4-7.9 10.2 0 5.3 2.6 9.8 7.8 9.8 3.2 0 6.2-2.1 7.1-5.7.2-.7.2-1.3.2-2.1v-4.6zM42.8 64c.1 1.6-1.1 2.9-3.1 2.9-1.7 0-2.9-1.3-2.9-2.9 0-1.7 1.3-3 3-3 1.9 0 3 1.3 3 3zm-5.4 33.8V71.4h4.8v26.4h-4.8zM47.5 78.6c0-2.7-.1-5-.2-7.1h4.3l.3 4.4h.1c1.3-2.5 4.4-5 8.8-5 3.7 0 9.4 2.2 9.4 11.2v15.8h-4.8V82.6c0-4.3-1.6-7.8-6.1-7.8-3.2 0-5.6 2.2-6.5 4.9-.2.6-.3 1.4-.3 2.2v15.9h-4.8V78.6zM84 61.6c2.9-.4 6.3-.8 10.1-.8 6.8 0 11.7 1.6 14.9 4.6 3.3 3 5.2 7.3 5.2 13.2 0 6-1.9 10.9-5.3 14.3-3.4 3.4-9.1 5.3-16.3 5.3-3.4 0-6.2-.2-8.6-.4V61.6zm4.8 32.5c1.2.2 3 .3 4.8.3 10.2 0 15.7-5.7 15.7-15.6.1-8.7-4.9-14.2-14.9-14.2-2.5 0-4.3.2-5.6.5v29zM132.1 97.8l-.4-3.3h-.2a9.79 9.79 0 01-8.1 3.9c-5.4 0-8.1-3.8-8.1-7.6 0-6.4 5.7-9.9 15.9-9.8v-.5c0-2.2-.6-6.1-6-6.1-2.5 0-5 .8-6.9 2l-1.1-3.2c2.2-1.4 5.4-2.3 8.7-2.3 8.1 0 10.1 5.5 10.1 10.8v9.9c0 2.3.1 4.5.4 6.3h-4.3zm-.7-13.4c-5.3-.1-11.2.8-11.2 5.9 0 3.1 2.1 4.6 4.5 4.6 3.4 0 5.6-2.2 6.4-4.4.2-.5.3-1 .3-1.5v-4.6zM146.6 63.9v7.6h6.9v3.7h-6.9v14.2c0 3.3.9 5.1 3.6 5.1 1.3 0 2.2-.2 2.8-.3l.2 3.6c-.9.4-2.4.7-4.3.7-2.2 0-4-.7-5.2-2-1.4-1.4-1.9-3.8-1.9-6.9V75.1h-4.1v-3.7h4.1v-6.3l4.8-1.2zM171.4 97.8l-.4-3.3h-.2a9.79 9.79 0 01-8.1 3.9c-5.4 0-8.1-3.8-8.1-7.6 0-6.4 5.7-9.9 15.9-9.8v-.5c0-2.2-.6-6.1-6-6.1-2.5 0-5 .8-6.9 2l-1.1-3.2c2.2-1.4 5.4-2.3 8.7-2.3 8.1 0 10.1 5.5 10.1 10.8v9.9c0 2.3.1 4.5.4 6.3h-4.3zm-.7-13.4c-5.3-.1-11.2.8-11.2 5.9 0 3.1 2.1 4.6 4.5 4.6 3.4 0 5.6-2.2 6.4-4.4.2-.5.3-1 .3-1.5v-4.6z"/></g></g></a></g><a href="https://ourworldindata.org/grapher/interpersonal-trust-vs-income-inequality" target="_blank"><text font-size="27" x="15" y="36.6" fill="#555"><tspan x="15" y="36.6">Interpersonal trust vs. income inequality, 1998</tspan></text></a><text font-size="14.4" x="15" y="55.5" fill="#666"><tspan x="15" y="55.52">Interpersonal trust (share of people reporting that &quot;most people can be trusted&quot; in the World Value Survey) against </tspan><tspan x="15" y="71.36">income inequality by Gini index (higher values reflect more inequality). Data from 2000 (or closest year available).</tspan></text></g><g><g class="AxisBoxView"><g class="HorizontalAxis"><text font-size="12.6" x="324.6" y="554"><tspan x="324.62" y="553.98">Trust in others</tspan></text><text x="127.1" y="533.9" fill="#666" text-anchor="middle" font-size="16.2">10%</text><text x="256.5" y="533.9" fill="#666" text-anchor="middle" font-size="16.2">20%</text><text x="385.9" y="533.9" fill="#666" text-anchor="middle" font-size="16.2">30%</text><text x="515.3" y="533.9" fill="#666" text-anchor="middle" font-size="16.2">40%</text><text x="644.8" y="533.9" fill="#666" text-anchor="middle" font-size="16.2">50%</text></g><g class="VerticalAxis"><text font-size="12.6" x="-366.7" y="25.1" transform="rotate(-90)"><tspan x="-366.65" y="25.08">Gini coefficient</tspan></text><text x="55.74" y="512.7" fill="#666" dominant-baseline="middle" text-anchor="end" font-size="16.2">25</text><text x="55.74" y="452.2" fill="#666" dominant-baseline="middle" text-anchor="end" font-size="16.2">30</text><text x="55.74" y="391.7" fill="#666" dominant-baseline="middle" text-anchor="end" font-size="16.2">35</text><text x="55.74" y="331.2" fill="#666" dominant-baseline="middle" text-anchor="end" font-size="16.2">40</text><text x="55.74" y="270.7" fill="#666" dominant-baseline="middle" text-anchor="end" font-size="16.2">45</text><text x="55.74" y="210.2" fill="#666" dominant-baseline="middle" text-anchor="end" font-size="16.2">50</text><text x="55.74" y="149.7" fill="#666" dominant-baseline="middle" text-anchor="end" font-size="16.2">55</text></g><g class="AxisGridLines" stroke="#ddd" stroke-dasharray="3,2"><path d="M60.74 512.7H715M60.74 452.2H715M60.74 391.7H715M60.74 331.2H715M60.74 270.7H715M60.74 210.2H715M60.74 149.7H715"/></g><g class="AxisGridLines" stroke="#ddd" stroke-dasharray="3,2"><path d="M127.1 512.7V93.9M256.5 512.7V93.9M385.9 512.7V93.9M515.3 512.7V93.9M644.8 512.7V93.9"/></g></g><g clip-path="url(#a)" class="PointsWithLabels clickable"><path fill="rgba(255,255,255,0)" d="M60.74 93.9H715v418.8H60.74z"/><defs><clipPath id="a"><path d="M50.74 83.9H725v438.8H50.74z"/></clipPath></defs><circle cx="649" cy="340" r="17.84" fill="#d14e5b" opacity=".8"/><circle cx="422" cy="442" r="16.13" fill="#d14e5b" opacity=".8"/><circle cx="453" cy="320" r="8.52" fill="#4d824b" opacity=".8"/><circle cx="589" cy="464" r="7.44" fill="#d14e5b" opacity=".8"/><circle cx="80" cy="93" r="6.75" fill="#69c487" opacity=".8"/><circle cx="298" cy="353" r="6.34" fill="#ffd336" opacity=".8"/><circle cx="239" cy="414" r="6.14" fill="#d14e5b" opacity=".8"/><circle cx="262" cy="415" r="5.86" fill="#d14e5b" opacity=".8"/><circle cx="220" cy="187" r="5.71" fill="#5675c1" opacity=".8"/><circle cx="378" cy="222" r="5.23" fill="#4d824b" opacity=".8"/><circle cx="498" cy="386" r="4.72" fill="#d14e5b" opacity=".8"/><circle cx="68" cy="259" r="4.64" fill="#d14e5b" opacity=".8"/><circle cx="715" cy="281" r="4.33" fill="#d14e5b" opacity=".8"/><circle cx="68" cy="314" r="4.29" fill="#d14e5b" opacity=".8"/><circle cx="370" cy="464" r="3.93" fill="#ffd336" opacity=".8"/><circle cx="196" cy="116" r="3.72" fill="#5675c1" opacity=".8"/><circle cx="136" cy="104" r="3.54" fill="#69c487" opacity=".8"/><circle cx="216" cy="424" r="3.54" fill="#ffd336" opacity=".8"/><circle cx="219" cy="201" r="3.46" fill="#69c487" opacity=".8"/><circle cx="98" cy="363" r="3.32" fill="#5675c1" opacity=".8"/><circle cx="472" cy="408" r="3.23" fill="#4d824b" opacity=".8"/><circle cx="137" cy="387" r="3.21" fill="#5675c1" opacity=".8"/><circle cx="279" cy="337" r="3.15" fill="#5675c1" opacity=".8"/><circle cx="60" cy="135" r="3.03" fill="#69c487" opacity=".8"/><circle cx="170" cy="212" r="2.96" fill="#69c487" opacity=".8"/><circle cx="98" cy="294" r="2.93" fill="#5675c1" opacity=".8"/><circle cx="229" cy="439" r="2.91" fill="#ffd336" opacity=".8"/><circle cx="510" cy="402" r="2.75" fill="#a652ba" opacity=".8"/><circle cx="268" cy="143" r="2.57" fill="#69c487" opacity=".8"/><circle cx="366" cy="502" r="2.33" fill="#ffd336" opacity=".8"/><circle cx="288" cy="496" r="2.33" fill="#ffd336" opacity=".8"/><circle cx="365" cy="419" r="2.33" fill="#ffd336" opacity=".8"/><circle cx="295" cy="444" r="2.32" fill="#ffd336" opacity=".8"/><circle cx="323" cy="223" r="2.22" fill="#4d824b" opacity=".8"/><circle cx="304" cy="496" r="2.21" fill="#ffd336" opacity=".8"/><circle cx="249" cy="374" r="2.2" fill="#d14e5b" opacity=".8"/><circle cx="180" cy="155" r="2.08" fill="#4d824b" opacity=".8"/><circle cx="295" cy="354" r="2.07" fill="#d14e5b" opacity=".8"/><circle cx="331" cy="502" r="2.05" fill="#ffd336" opacity=".8"/><circle cx="226" cy="316" r="2.02" fill="#d14e5b" opacity=".8"/><circle cx="212" cy="253" r="2.01" fill="#d14e5b" opacity=".8"/><circle cx="352" cy="374" r="2" fill="#d14e5b" opacity=".8"/><circle cx="293" cy="467" r="2" fill="#ffd336" opacity=".8"/><circle cx="280" cy="337" r="1.97" fill="#ffd336" opacity=".8"/><circle cx="273" cy="426" r="1.93" fill="#ffd336" opacity=".8"/><circle cx="318" cy="460" r="1.93" fill="#ffd336" opacity=".8"/><circle cx="270" cy="285" r="1.91" fill="#69c487" opacity=".8"/><circle cx="301" cy="376" r="1.9" fill="#d14e5b" opacity=".8"/><circle cx="312" cy="488" r="1.9" fill="#ffd336" opacity=".8"/><circle cx="307" cy="414" r="1.86" fill="#ffd336" opacity=".8"/><circle cx="95" cy="474" r="1.83" fill="#ffd336" opacity=".8"/><circle cx="195" cy="471" r="1.83" fill="#ffd336" opacity=".8"/><circle cx="270" cy="359" r="1.78" fill="#ffd336" opacity=".8"/><text x="649" y="321.16" font-size="14.3" font-family="Arial Narrow, Arial, sans-serif" fill="#666">China</text><text x="422" y="424.87" font-size="13.69" font-family="Arial Narrow, Arial, sans-serif" fill="#666">India</text><text x="453" y="310.48" font-size="11.73" font-family="Arial Narrow, Arial, sans-serif" fill="#666">United States</text><text x="589" y="455.56" font-size="11.55" font-family="Arial Narrow, Arial, sans-serif" fill="#666">Indonesia</text><text x="80" y="105.34" font-size="11.44" font-family="Arial Narrow, Arial, sans-serif" fill="#666">Brazil</text><text x="298" y="345.66" font-size="11.39" font-family="Arial Narrow, Arial, sans-serif" fill="#666">Russia</text><text x="239" y="406.86" font-size="11.36" font-family="Arial Narrow, Arial, sans-serif" fill="#666">Pakistan</text><text x="220" y="180.29" font-size="11.31" font-family="Arial Narrow, Arial, sans-serif" fill="#666">Nigeria</text><text x="378" y="215.77" font-size="11.25" font-family="Arial Narrow, Arial, sans-serif" fill="#666">Mexico</text><text x="498" y="380.28" font-size="11.2" font-family="Arial Narrow, Arial, sans-serif" fill="#666">Vietnam</text><text x="68" y="253.36" font-size="11.19" font-family="Arial Narrow, Arial, sans-serif" fill="#666">Philippines</text><text x="695.69" y="275.67" font-size="11.16" font-family="Arial Narrow, Arial, sans-serif" fill="#666">Iran</text><text x="68" y="308.71" font-size="11.16" font-family="Arial Narrow, Arial, sans-serif" fill="#666">Turkey</text><text x="370" y="459.07" font-size="11.13" font-family="Arial Narrow, Arial, sans-serif" fill="#666">Ukraine</text><text x="196" y="111.28" font-size="11.11" font-family="Arial Narrow, Arial, sans-serif" fill="#666">South Africa</text><text x="136" y="105" font-size="11.1" font-family="Arial Narrow, Arial, sans-serif" fill="#666">Colombia</text><text x="216" y="419.46" font-size="11.1" font-family="Arial Narrow, Arial, sans-serif" fill="#666">Poland</text><text x="219" y="196.54" font-size="11.09" font-family="Arial Narrow, Arial, sans-serif" fill="#666">Argentina</text><text x="98" y="358.68" font-size="11.08" font-family="Arial Narrow, Arial, sans-serif" fill="#666">Tanzania</text><text x="472" y="403.77" font-size="11.08" font-family="Arial Narrow, Arial, sans-serif" fill="#666">Canada</text><text x="137" y="382.79" font-size="11.07" font-family="Arial Narrow, Arial, sans-serif" fill="#666">Algeria</text><text x="279" y="332.85" font-size="11.07" font-family="Arial Narrow, Arial, sans-serif" fill="#666">Morocco</text><text x="60" y="130.97" font-size="11.06" font-family="Arial Narrow, Arial, sans-serif" fill="#666">Peru</text><text x="170" y="208.04" font-size="11.06" font-family="Arial Narrow, Arial, sans-serif" fill="#666">Venezuela</text><text x="98" y="290.07" font-size="11.06" font-family="Arial Narrow, Arial, sans-serif" fill="#666">Uganda</text><text x="229" y="435.09" font-size="11.06" font-family="Arial Narrow, Arial, sans-serif" fill="#666">Romania</text><text x="268" y="139.43" font-size="11.04" font-family="Arial Narrow, Arial, sans-serif" fill="#666">Chile</text><text x="366" y="498.67" font-size="11.02" font-family="Arial Narrow, Arial, sans-serif" fill="#666">Czech Republic</text><text x="288" y="492.67" font-size="11.02" font-family="Arial Narrow, Arial, sans-serif" fill="#666">Hungary</text><text x="365" y="415.67" font-size="11.02" font-family="Arial Narrow, Arial, sans-serif" fill="#666">Serbia</text><text x="295" y="440.68" font-size="11.02" font-family="Arial Narrow, Arial, sans-serif" fill="#666">Belarus</text><text x="249" y="370.8" font-size="11.02" font-family="Arial Narrow, Arial, sans-serif" fill="#666">Azerbaijan</text><text x="180" y="151.92" font-size="11.01" font-family="Arial Narrow, Arial, sans-serif" fill="#666">El Salvador</text><text x="226" y="312.98" font-size="11.01" font-family="Arial Narrow, Arial, sans-serif" fill="#666">Georgia</text><text x="212" y="249.99" font-size="11.01" font-family="Arial Narrow, Arial, sans-serif" fill="#666">Kyrgyzstan</text><text x="352" y="371" font-size="11.01" font-family="Arial Narrow, Arial, sans-serif" fill="#666">Jordan</text><text x="293" y="464" font-size="11.01" font-family="Arial Narrow, Arial, sans-serif" fill="#666">Croatia</text><text x="273" y="423.07" font-size="11.01" font-family="Arial Narrow, Arial, sans-serif" fill="#666">Lithuania</text><text x="270" y="282.09" font-size="11.01" font-family="Arial Narrow, Arial, sans-serif" fill="#666">Uruguay</text><text x="307" y="411.14" font-size="11" font-family="Arial Narrow, Arial, sans-serif" fill="#666">Latvia</text><text x="95" y="471.17" font-size="11" font-family="Arial Narrow, Arial, sans-serif" fill="#666">Macedonia</text><text x="195" y="468.17" font-size="11" font-family="Arial Narrow, Arial, sans-serif" fill="#666">Slovenia</text></g><g class="ScatterColorLegend clickable" cursor="pointer"><g class="legendMark">,<path fill="#5675c1" d="M735 96.9h6v6h-6z"/>,<text font-size="12.6" x="746" y="104"><tspan x="746" y="103.98">Africa</tspan></text></g><g class="legendMark">,<path fill="#d14e5b" d="M735 114.5h6v6h-6z"/>,<text font-size="12.6" x="746" y="121.6"><tspan x="746" y="121.58">Asia</tspan></text></g><g class="legendMark">,<path fill="#ffd336" d="M735 132.1h6v6h-6z"/>,<text font-size="12.6" x="746" y="139.2"><tspan x="746" y="139.18">Europe</tspan></text></g><g class="legendMark">,<path fill="#4d824b" d="M735 149.7h6v6h-6z"/>,<text font-size="12.6" x="746" y="156.8"><tspan x="746" y="156.78">North America</tspan></text></g><g class="legendMark">,<path fill="#a652ba" d="M735 167.3h6v6h-6z"/>,<text font-size="12.6" x="746" y="174.4"><tspan x="746" y="174.38">Oceania</tspan></text></g><g class="legendMark">,<path fill="#69c487" d="M735 184.9h6v6h-6z"/>,<text font-size="12.6" x="746" y="192"><tspan x="746" y="191.98">South America</tspan></text></g></g></g><g class="SourcesFooter" fill="#777"><g class="clickable" fill="#777"><text font-size="12.6" x="15" y="581.6"><tspan x="15" y="581.58">Source: Trust (World Values Survey (2014)), World Bank</tspan></text></g><text font-size="12.6" x="620.9" y="581.6"><tspan x="620.93" y="581.58"><a target="_blank" href="https://ourworldindata.org/trust" fill="#777">OurWorldInData.org/trust</a> • <a href="http://creativecommons.org/licenses/by-sa/4.0/deed.en_US" target="_blank" fill="#777">CC BY-SA</a></tspan></text></g></g></svg>