<svg xmlns="http://www.w3.org/2000/svg" version="1.1" style="background-color:#fff;-webkit-font-smoothing:antialiased" width="850" height="600" font-family="'Helvetica Neue',Helvetica,Arial,sans-serif" font-size="18" text-rendering="optimizeLegibility"><g class="ChartTab"><g class="HeaderView"><g opacity=".8" transform="matrix(.31 0 0 .31 770 15)"><a xmlns:xlink="http://www.w3.org/1999/xlink" xlink:href="https://ourworldindata.org" target="_blank"><g><path fill="#1B2543" d="M0 0h211.2v130.1H0z"/><path fill="#E63912" d="M0 112.2h211.2v17.9H0z"/><g><path fill="none" d="M1.2 12.3h210.2v99.2H1.2z"/><path fill="#FFF" d="M37.8 32.2c0 12.7-7.7 19.4-17.1 19.4-9.7 0-16.6-7.5-16.6-18.7 0-11.7 7.3-19.3 17.1-19.3 10.1.1 16.6 7.7 16.6 18.6zm-28.6.6c0 7.9 4.3 14.9 11.8 14.9 7.5 0 11.8-6.9 11.8-15.3 0-7.3-3.8-14.9-11.8-14.9-7.9 0-11.8 7.3-11.8 15.3zM62.7 43.8c0 2.7.1 5.1.2 7.2h-4.3l-.3-4.3h-.1c-1.3 2.1-4 4.9-8.8 4.9-4.2 0-9.1-2.3-9.1-11.6V24.6h4.8v14.6c0 5 1.5 8.4 5.9 8.4 3.2 0 5.5-2.2 6.3-4.4.3-.7.4-1.6.4-2.5V24.6h4.8v19.2zM67.3 32.8c0-3.1-.1-5.8-.2-8.2h4.2l.2 5.2h.2c1.2-3.5 4.1-5.8 7.3-5.8.5 0 .9.1 1.4.2v4.5c-.5-.1-1-.2-1.6-.2-3.4 0-5.8 2.6-6.5 6.2-.1.7-.2 1.4-.2 2.2V51h-4.8V32.8zM95.4 51L86 14.2h5l4.4 18.6c1.1 4.6 2.1 9.2 2.7 12.7h.1c.6-3.7 1.8-8 3-12.8l4.9-18.5h5l4.5 18.7c1 4.4 2 8.7 2.6 12.6h.1c.8-4 1.8-8.1 3-12.7l4.9-18.5h4.9L120.6 51h-5L111 31.9c-1.1-4.7-1.9-8.3-2.4-12h-.1c-.7 3.7-1.5 7.3-2.8 12L100.4 51h-5zM154.9 37.6c0 9.8-6.8 14-13.2 14-7.2 0-12.7-5.2-12.7-13.6 0-8.8 5.8-14 13.1-14 7.7 0 12.8 5.5 12.8 13.6zm-21 .3c0 5.8 3.3 10.1 8 10.1 4.6 0 8-4.3 8-10.3 0-4.5-2.2-10.1-7.9-10.1s-8.1 5.2-8.1 10.3zM158.2 32.8c0-3.1-.1-5.8-.2-8.2h4.2l.2 5.2h.2c1.2-3.5 4.1-5.8 7.3-5.8.5 0 .9.1 1.4.2v4.5c-.5-.1-1-.2-1.6-.2-3.4 0-5.8 2.6-6.5 6.2-.1.7-.2 1.4-.2 2.2V51h-4.8V32.8zM173.5 12.3h4.8V51h-4.8V12.3zM206.5 12.3v31.9c0 2.3.1 5 .2 6.8h-4.3l-.2-4.6h-.2c-1.5 2.9-4.7 5.2-9 5.2-6.4 0-11.3-5.4-11.3-13.4-.1-8.8 5.4-14.2 11.9-14.2 4 0 6.8 1.9 8 4h.1V12.3h4.8zm-4.8 23.1c0-.6-.1-1.4-.2-2a7 7 0 00-6.9-5.6c-5 0-7.9 4.4-7.9 10.2 0 5.3 2.6 9.8 7.8 9.8 3.2 0 6.2-2.1 7.1-5.7.2-.7.2-1.3.2-2.1v-4.6zM42.8 64c.1 1.6-1.1 2.9-3.1 2.9-1.7 0-2.9-1.3-2.9-2.9 0-1.7 1.3-3 3-3 1.9 0 3 1.3 3 3zm-5.4 33.8V71.4h4.8v26.4h-4.8zM47.5 78.6c0-2.7-.1-5-.2-7.1h4.3l.3 4.4h.1c1.3-2.5 4.4-5 8.8-5 3.7 0 9.4 2.2 9.4 11.2v15.8h-4.8V82.6c0-4.3-1.6-7.8-6.1-7.8-3.2 0-5.6 2.2-6.5 4.9-.2.6-.3 1.4-.3 2.2v15.9h-4.8V78.6zM84 61.6c2.9-.4 6.3-.8 10.1-.8 6.8 0 11.7 1.6 14.9 4.6 3.3 3 5.2 7.3 5.2 13.2 0 6-1.9 10.9-5.3 14.3-3.4 3.4-9.1 5.3-16.3 5.3-3.4 0-6.2-.2-8.6-.4V61.6zm4.8 32.5c1.2.2 3 .3 4.8.3 10.2 0 15.7-5.7 15.7-15.6.1-8.7-4.9-14.2-14.9-14.2-2.5 0-4.3.2-5.6.5v29zM132.1 97.8l-.4-3.3h-.2a9.79 9.79 0 01-8.1 3.9c-5.4 0-8.1-3.8-8.1-7.6 0-6.4 5.7-9.9 15.9-9.8v-.5c0-2.2-.6-6.1-6-6.1-2.5 0-5 .8-6.9 2l-1.1-3.2c2.2-1.4 5.4-2.3 8.7-2.3 8.1 0 10.1 5.5 10.1 10.8v9.9c0 2.3.1 4.5.4 6.3h-4.3zm-.7-13.4c-5.3-.1-11.2.8-11.2 5.9 0 3.1 2.1 4.6 4.5 4.6 3.4 0 5.6-2.2 6.4-4.4.2-.5.3-1 .3-1.5v-4.6zM146.6 63.9v7.6h6.9v3.7h-6.9v14.2c0 3.3.9 5.1 3.6 5.1 1.3 0 2.2-.2 2.8-.3l.2 3.6c-.9.4-2.4.7-4.3.7-2.2 0-4-.7-5.2-2-1.4-1.4-1.9-3.8-1.9-6.9V75.1h-4.1v-3.7h4.1v-6.3l4.8-1.2zM171.4 97.8l-.4-3.3h-.2a9.79 9.79 0 01-8.1 3.9c-5.4 0-8.1-3.8-8.1-7.6 0-6.4 5.7-9.9 15.9-9.8v-.5c0-2.2-.6-6.1-6-6.1-2.5 0-5 .8-6.9 2l-1.1-3.2c2.2-1.4 5.4-2.3 8.7-2.3 8.1 0 10.1 5.5 10.1 10.8v9.9c0 2.3.1 4.5.4 6.3h-4.3zm-.7-13.4c-5.3-.1-11.2.8-11.2 5.9 0 3.1 2.1 4.6 4.5 4.6 3.4 0 5.6-2.2 6.4-4.4.2-.5.3-1 .3-1.5v-4.6z"/></g></g></a></g><a href="https://ourworldindata.org/grapher/international-tourist-arrivals-by-world-region" target="_blank"><text font-size="27" x="15" y="36.6" fill="#555"><tspan x="15" y="36.6">International tourist arrivals by world region</tspan></text></a></g><g class="StackedArea"><defs><clipPath id="a"><path d="M97.6 0h820v963h-820z"/></clipPath></defs><g class="AxisBoxView"><g class="HorizontalAxis" fill="#666" text-anchor="middle" font-size="16.2"><text x="97.6" y="556.5">1950</text><text x="192.9" y="556.5">1960</text><text x="288.2" y="556.5">1970</text><text x="383.6" y="556.5">1980</text><text x="478.9" y="556.5">1990</text><text x="574.2" y="556.5">2000</text><text x="669.5" y="556.5">2010</text><text x="726.7" y="556.5">2016</text></g><g class="VerticalAxis" fill="#666" dominant-baseline="middle" text-anchor="end" font-size="16.2"><text x="92.6" y="535.3">0</text><text x="92.6" y="460.8">200 million</text><text x="92.6" y="386.3">400 million</text><text x="92.6" y="311.7">600 million</text><text x="92.6" y="237.2">800 million</text><text x="92.6" y="162.7">1 billion</text><text x="92.6" y="88.2">1.2 billion</text></g><g class="AxisGridLines"><path stroke="#ccc" d="M97.6 535.3h629.13"/><path stroke="#ddd" stroke-dasharray="3,2" d="M97.6 460.8h629.13M97.6 386.3h629.13M97.6 311.7h629.13M97.6 237.2h629.13M97.6 162.7h629.13M97.6 88.2h629.13"/></g><g class="AxisGridLines" stroke="#ddd" stroke-dasharray="3,2"><path d="M97.6 535.3V75M192.9 535.3V75M288.2 535.3V75M383.6 535.3V75M478.9 535.3V75M574.2 535.3V75M669.5 535.3V75"/></g></g><g clip-path="url(#a)"><g class="HeightedLegend clickable"><g class="legendMark"><path fill="#932834" d="M731.73 130.15h10v2.5h-10z"/><text font-size="14.4" x="746.7" y="135.7" fill="#333"><tspan x="746.73" y="135.72">Asia &amp; Pacific</tspan></text></g><g class="legendMark"><path fill="#f07f59" d="M731.73 196.65h10v2.5h-10z"/><text font-size="14.4" x="746.7" y="202.2" fill="#333"><tspan x="746.73" y="202.22">Middle East</tspan></text></g><g class="legendMark"><path fill="#9ecc8a" d="M731.73 244.05h10v2.5h-10z"/><text font-size="14.4" x="746.7" y="249.6" fill="#333"><tspan x="746.73" y="249.62">Americas</tspan></text></g><g class="legendMark"><path fill="#fceb8c" d="M731.73 396.95h10v2.5h-10z"/><text font-size="14.4" x="746.7" y="402.5" fill="#333"><tspan x="746.73" y="402.52">Europe</tspan></text></g><g class="legendMark"><path fill="#3360a9" d="M731.73 523.25h10v2.5h-10z"/><text font-size="14.4" x="746.7" y="528.8" fill="#333"><tspan x="746.73" y="528.82">Africa</tspan></text></g></g><g class="Areas"><path d="M97.6 535.1l95.3-.1 47.7-.2 47.6-.4 47.7-.9 47.7-.9 9.5-.3 9.5.2 9.6-.3 9.5-.2 9.5-.3 9.6.1 9.5-.2 9.5-1 9.6-.5 9.5-.5 9.5-.4 9.6-.7 9.5-.2 9.5-.2 9.6-.4 9.5-.7 9.5-.3 9.5-.9 9.6-.6 9.5-.3 9.5-.4 9.6-.4 9.5-.6 9.5-1.1 9.6-1 9.5-1.5 9.5-1.1h9.6l9.5-.6 9.5-1.7 38.2-1.8 9.5.6 9.5-1.7.03 21.7H97.6" fill="#3360a9" fill-opacity=".7" class="Africa_0-area"/><path d="M97.6 528.9l95.3-12.7 47.7-12.6 47.6-11.3 47.7-16.1 47.7-10.1 9.5.8 9.5.2 9.6-1.8 9.5-5.4 9.5-4.3 9.6-.6 9.5-6.8 9.5-3.9 9.6-7.6 9.5-6 9.5.2 9.6-7.6 9.5-3.4 9.5-4.7 9.6-4.9 9.5-7 9.5-8.1 9.5-5.3 9.6-2.7 9.5-8 9.5-2 9.6-4.7 9.5-.7 9.5-7.5 9.6-7.4 9.5-9.2 9.5-9.6 9.6-.1 9.5 8.2 9.5-12 38.2-35.7 9.5-9.6 9.5-6.2v230.9l-9.5 1.7-9.5-.6-38.2 1.8-9.5 1.7-9.5.6h-9.6l-9.5 1.1-9.5 1.5-9.6 1-9.5 1.1-9.5.6-9.6.4-9.5.4-9.5.3-9.6.6-9.5.9-9.5.3-9.5.7-9.6.4-9.5.2-9.5.2-9.6.7-9.5.4-9.5.5-9.6.5-9.5 1-9.5.2-9.6-.1-9.5.3-9.5.2-9.6.3-9.5-.2-9.5.3-47.7.9-47.7.9-47.6.4-47.7.2-95.3.1" fill="#fceb8c" fill-opacity=".7" class="Europe_0-area"/><path d="M97.6 526.1l95.3-16.1 47.7-15.1 47.6-18.4 47.7-18.9 47.7-14.7 9.5.7 9.5 1.3 9.6-1.9 9.5-8.2 9.5-3.5 9.6-2.8 9.5-8.9 9.5-6.2 9.6-9.1 9.5-8.2 9.5-.7 9.6-10.2 9.5-3.4 9.5-5.8 9.6-6.3 9.5-9.1 9.5-8.7 9.5-6.4 9.6-3.7 9.5-10.4 9.5.3 9.6-2.7 9.5.7 9.5-12.2 9.6-10.4 9.5-10 9.5-12.1 9.6-2.1 9.5 10.5 9.5-15.2 38.2-47.4 9.5-13.7 9.5-9.3v74.9l-9.5 6.2-9.5 9.6-38.2 35.7-9.5 12-9.5-8.2-9.6.1-9.5 9.6-9.5 9.2-9.6 7.4-9.5 7.5-9.5.7-9.6 4.7-9.5 2-9.5 8-9.6 2.7-9.5 5.3-9.5 8.1-9.5 7-9.6 4.9-9.5 4.7-9.5 3.4-9.6 7.6-9.5-.2-9.5 6-9.6 7.6-9.5 3.9-9.5 6.8-9.6.6-9.5 4.3-9.5 5.4-9.6 1.8-9.5-.2-9.5-.8-47.7 10.1-47.7 16.1-47.6 11.3-47.7 12.6-95.3 12.7" fill="#9ecc8a" fill-opacity=".7" class="Americas_0-area"/><path d="M97.6 526l95.3-16.2 47.7-15.7 47.6-18.3 47.7-19.5 47.7-16.1 9.5.6 9.5 1 9.6-1.6 9.5-8.3 9.5-3.6 9.6-2.3 9.5-9 9.5-7 9.6-9.1 9.5-8.4 9.5-.4L498 381l9.5-3.4 9.5-6.1 9.6-6.9 9.5-9.9 9.5-9.1 9.5-6.8 9.6-5.1 9.5-11.4 9.5.3 9.6-4.2 9.5.3 9.5-14.8 9.6-11.3 9.5-10.9 9.5-14.4 9.6-5 9.5 11.4 9.5-16.1 38.2-47.5 9.5-13.8 9.5-8.4v19.9l-9.5 9.3-9.5 13.7-38.2 47.4-9.5 15.2-9.5-10.5-9.6 2.1-9.5 12.1-9.5 10-9.6 10.4-9.5 12.2-9.5-.7-9.6 2.7-9.5-.3-9.5 10.4-9.6 3.7-9.5 6.4-9.5 8.7-9.5 9.1-9.6 6.3-9.5 5.8-9.5 3.4-9.6 10.2-9.5.7-9.5 8.2-9.6 9.1-9.5 6.2-9.5 8.9-9.6 2.8-9.5 3.5-9.5 8.2-9.6 1.9-9.5-1.3-9.5-.7-47.7 14.7-47.7 18.9-47.6 18.4-47.7 15.1-95.3 16.1" fill="#f07f59" fill-opacity=".7" class="Middle-East_0-area"/><path d="M97.6 525.9l95.3-16.5 47.7-16.1 47.6-19.8 47.7-21 47.7-20.8 9.5-.2 9.5.6 9.6-1.8 9.5-9.4 9.5-4.9 9.6-3.7 9.5-11 9.5-9.5 9.6-9.3 9.5-10.9 9.5-1.1 9.6-14 9.5-5.9 9.5-9 9.6-7.7 9.5-12.9 9.5-8.8 9.5-6.7 9.6-8.5 9.5-15.9 9.5-1.6 9.6-7.7 9.5 4.7 9.5-26.3 9.6-15.5 9.5-15.2 9.5-20.8 9.6-5 9.5 12.5 9.5-25.2 38.2-69.4 9.5-19.4 9.5-17.2v112.9l-9.5 8.4-9.5 13.8-38.2 47.5-9.5 16.1-9.5-11.4-9.6 5-9.5 14.4-9.5 10.9-9.6 11.3-9.5 14.8-9.5-.3-9.6 4.2-9.5-.3-9.5 11.4-9.6 5.1-9.5 6.8-9.5 9.1-9.5 9.9-9.6 6.9-9.5 6.1-9.5 3.4-9.6 11.1-9.5.4-9.5 8.4-9.6 9.1-9.5 7-9.5 9-9.6 2.3-9.5 3.6-9.5 8.3-9.6 1.6-9.5-1-9.5-.6-47.7 16.1-47.7 19.5-47.6 18.3-47.7 15.7L97.6 526" fill="#932834" fill-opacity=".7" class="Asia-__0026-Pacific_0-area"/><path stroke-linecap="round" d="M97.6 535.1l95.3-.1 47.7-.2 47.6-.4 47.7-.9 47.7-.9 9.5-.3 9.5.2 9.6-.3 9.5-.2 9.5-.3 9.6.1 9.5-.2 9.5-1 9.6-.5 9.5-.5 9.5-.4 9.6-.7 9.5-.2 9.5-.2 9.6-.4 9.5-.7 9.5-.3 9.5-.9 9.6-.6 9.5-.3 9.5-.4 9.6-.4 9.5-.6 9.5-1.1 9.6-1 9.5-1.5 9.5-1.1h9.6l9.5-.6 9.5-1.7 38.2-1.8 9.5.6 9.5-1.7" stroke="#2B508D" stroke-opacity=".7" stroke-width=".5" fill="none" class="Africa_0-border"/><path stroke-linecap="round" d="M97.6 528.9l95.3-12.7 47.7-12.6 47.6-11.3 47.7-16.1 47.7-10.1 9.5.8 9.5.2 9.6-1.8 9.5-5.4 9.5-4.3 9.6-.6 9.5-6.8 9.5-3.9 9.6-7.6 9.5-6 9.5.2 9.6-7.6 9.5-3.4 9.5-4.7 9.6-4.9 9.5-7 9.5-8.1 9.5-5.3 9.6-2.7 9.5-8 9.5-2 9.6-4.7 9.5-.7 9.5-7.5 9.6-7.4 9.5-9.2 9.5-9.6 9.6-.1 9.5 8.2 9.5-12 38.2-35.7 9.5-9.6 9.5-6.2" stroke="#D3C575" stroke-opacity=".7" stroke-width=".5" fill="none" class="Europe_0-border"/><path stroke-linecap="round" d="M97.6 526.1l95.3-16.1 47.7-15.1 47.6-18.4 47.7-18.9 47.7-14.7 9.5.7 9.5 1.3 9.6-1.9 9.5-8.2 9.5-3.5 9.6-2.8 9.5-8.9 9.5-6.2 9.6-9.1 9.5-8.2 9.5-.7 9.6-10.2 9.5-3.4 9.5-5.8 9.6-6.3 9.5-9.1 9.5-8.7 9.5-6.4 9.6-3.7 9.5-10.4 9.5.3 9.6-2.7 9.5.7 9.5-12.2 9.6-10.4 9.5-10 9.5-12.1 9.6-2.1 9.5 10.5 9.5-15.2 38.2-47.4 9.5-13.7 9.5-9.3" stroke="#84AB73" stroke-opacity=".7" stroke-width=".5" fill="none" class="Americas_0-border"/><path stroke-linecap="round" d="M97.6 526l95.3-16.2 47.7-15.7 47.6-18.3 47.7-19.5 47.7-16.1 9.5.6 9.5 1 9.6-1.6 9.5-8.3 9.5-3.6 9.6-2.3 9.5-9 9.5-7 9.6-9.1 9.5-8.4 9.5-.4L498 381l9.5-3.4 9.5-6.1 9.6-6.9 9.5-9.9 9.5-9.1 9.5-6.8 9.6-5.1 9.5-11.4 9.5.3 9.6-4.2 9.5.3 9.5-14.8 9.6-11.3 9.5-10.9 9.5-14.4 9.6-5 9.5 11.4 9.5-16.1 38.2-47.5 9.5-13.8 9.5-8.4" stroke="#C96A4A" stroke-opacity=".7" stroke-width=".5" fill="none" class="Middle-East_0-border"/><path stroke-linecap="round" d="M97.6 525.9l95.3-16.5 47.7-16.1 47.6-19.8 47.7-21 47.7-20.8 9.5-.2 9.5.6 9.6-1.8 9.5-9.4 9.5-4.9 9.6-3.7 9.5-11 9.5-9.5 9.6-9.3 9.5-10.9 9.5-1.1 9.6-14 9.5-5.9 9.5-9 9.6-7.7 9.5-12.9 9.5-8.8 9.5-6.7 9.6-8.5 9.5-15.9 9.5-1.6 9.6-7.7 9.5 4.7 9.5-26.3 9.6-15.5 9.5-15.2 9.5-20.8 9.6-5 9.5 12.5 9.5-25.2 38.2-69.4 9.5-19.4 9.5-17.2" stroke="#7B212C" stroke-opacity=".7" stroke-width=".5" fill="none" class="Asia-__0026-Pacific_0-border"/></g></g></g><g class="SourcesFooter" fill="#777"><g class="clickable" fill="#777"><text font-size="12.6" x="15" y="581.6"><tspan x="15" y="581.58">Source: United Nations World Tourism Organization (UNWTO) (2017)</tspan></text></g><text font-size="12.6" x="600.6" y="581.6"><tspan x="600.64" y="581.58"><a target="_blank" href="https://ourworldindata.org/tourism/" fill="#777">OurWorldInData.org/tourism/</a> • <a href="http://creativecommons.org/licenses/by-sa/4.0/deed.en_US" target="_blank" fill="#777">CC BY-SA</a></tspan></text></g></g></svg>