<svg xmlns="http://www.w3.org/2000/svg" version="1.1" style="background-color:#fff;-webkit-font-smoothing:antialiased" width="850" height="600" font-family="'Helvetica Neue',Helvetica,Arial,sans-serif" font-size="18" text-rendering="optimizeLegibility"><g class="ChartTab"><g class="HeaderView"><g opacity=".8" transform="matrix(.27 0 0 .27 778 15)"><a xmlns:xlink="http://www.w3.org/1999/xlink" xlink:href="https://ourworldindata.org" target="_blank"><g><path fill="#1B2543" d="M0 0h211.2v130.1H0z"/><path fill="#E63912" d="M0 112.2h211.2v17.9H0z"/><g><path fill="none" d="M1.2 12.3h210.2v99.2H1.2z"/><path fill="#FFF" d="M37.8 32.2c0 12.7-7.7 19.4-17.1 19.4-9.7 0-16.6-7.5-16.6-18.7 0-11.7 7.3-19.3 17.1-19.3 10.1.1 16.6 7.7 16.6 18.6zm-28.6.6c0 7.9 4.3 14.9 11.8 14.9 7.5 0 11.8-6.9 11.8-15.3 0-7.3-3.8-14.9-11.8-14.9-7.9 0-11.8 7.3-11.8 15.3zM62.7 43.8c0 2.7.1 5.1.2 7.2h-4.3l-.3-4.3h-.1c-1.3 2.1-4 4.9-8.8 4.9-4.2 0-9.1-2.3-9.1-11.6V24.6h4.8v14.6c0 5 1.5 8.4 5.9 8.4 3.2 0 5.5-2.2 6.3-4.4.3-.7.4-1.6.4-2.5V24.6h4.8v19.2zM67.3 32.8c0-3.1-.1-5.8-.2-8.2h4.2l.2 5.2h.2c1.2-3.5 4.1-5.8 7.3-5.8.5 0 .9.1 1.4.2v4.5c-.5-.1-1-.2-1.6-.2-3.4 0-5.8 2.6-6.5 6.2-.1.7-.2 1.4-.2 2.2V51h-4.8V32.8zM95.4 51L86 14.2h5l4.4 18.6c1.1 4.6 2.1 9.2 2.7 12.7h.1c.6-3.7 1.8-8 3-12.8l4.9-18.5h5l4.5 18.7c1 4.4 2 8.7 2.6 12.6h.1c.8-4 1.8-8.1 3-12.7l4.9-18.5h4.9L120.6 51h-5L111 31.9c-1.1-4.7-1.9-8.3-2.4-12h-.1c-.7 3.7-1.5 7.3-2.8 12L100.4 51h-5zM154.9 37.6c0 9.8-6.8 14-13.2 14-7.2 0-12.7-5.2-12.7-13.6 0-8.8 5.8-14 13.1-14 7.7 0 12.8 5.5 12.8 13.6zm-21 .3c0 5.8 3.3 10.1 8 10.1 4.6 0 8-4.3 8-10.3 0-4.5-2.2-10.1-7.9-10.1s-8.1 5.2-8.1 10.3zM158.2 32.8c0-3.1-.1-5.8-.2-8.2h4.2l.2 5.2h.2c1.2-3.5 4.1-5.8 7.3-5.8.5 0 .9.1 1.4.2v4.5c-.5-.1-1-.2-1.6-.2-3.4 0-5.8 2.6-6.5 6.2-.1.7-.2 1.4-.2 2.2V51h-4.8V32.8zM173.5 12.3h4.8V51h-4.8V12.3zM206.5 12.3v31.9c0 2.3.1 5 .2 6.8h-4.3l-.2-4.6h-.2c-1.5 2.9-4.7 5.2-9 5.2-6.4 0-11.3-5.4-11.3-13.4-.1-8.8 5.4-14.2 11.9-14.2 4 0 6.8 1.9 8 4h.1V12.3h4.8zm-4.8 23.1c0-.6-.1-1.4-.2-2a7 7 0 00-6.9-5.6c-5 0-7.9 4.4-7.9 10.2 0 5.3 2.6 9.8 7.8 9.8 3.2 0 6.2-2.1 7.1-5.7.2-.7.2-1.3.2-2.1v-4.6zM42.8 64c.1 1.6-1.1 2.9-3.1 2.9-1.7 0-2.9-1.3-2.9-2.9 0-1.7 1.3-3 3-3 1.9 0 3 1.3 3 3zm-5.4 33.8V71.4h4.8v26.4h-4.8zM47.5 78.6c0-2.7-.1-5-.2-7.1h4.3l.3 4.4h.1c1.3-2.5 4.4-5 8.8-5 3.7 0 9.4 2.2 9.4 11.2v15.8h-4.8V82.6c0-4.3-1.6-7.8-6.1-7.8-3.2 0-5.6 2.2-6.5 4.9-.2.6-.3 1.4-.3 2.2v15.9h-4.8V78.6zM84 61.6c2.9-.4 6.3-.8 10.1-.8 6.8 0 11.7 1.6 14.9 4.6 3.3 3 5.2 7.3 5.2 13.2 0 6-1.9 10.9-5.3 14.3-3.4 3.4-9.1 5.3-16.3 5.3-3.4 0-6.2-.2-8.6-.4V61.6zm4.8 32.5c1.2.2 3 .3 4.8.3 10.2 0 15.7-5.7 15.7-15.6.1-8.7-4.9-14.2-14.9-14.2-2.5 0-4.3.2-5.6.5v29zM132.1 97.8l-.4-3.3h-.2a9.79 9.79 0 01-8.1 3.9c-5.4 0-8.1-3.8-8.1-7.6 0-6.4 5.7-9.9 15.9-9.8v-.5c0-2.2-.6-6.1-6-6.1-2.5 0-5 .8-6.9 2l-1.1-3.2c2.2-1.4 5.4-2.3 8.7-2.3 8.1 0 10.1 5.5 10.1 10.8v9.9c0 2.3.1 4.5.4 6.3h-4.3zm-.7-13.4c-5.3-.1-11.2.8-11.2 5.9 0 3.1 2.1 4.6 4.5 4.6 3.4 0 5.6-2.2 6.4-4.4.2-.5.3-1 .3-1.5v-4.6zM146.6 63.9v7.6h6.9v3.7h-6.9v14.2c0 3.3.9 5.1 3.6 5.1 1.3 0 2.2-.2 2.8-.3l.2 3.6c-.9.4-2.4.7-4.3.7-2.2 0-4-.7-5.2-2-1.4-1.4-1.9-3.8-1.9-6.9V75.1h-4.1v-3.7h4.1v-6.3l4.8-1.2zM171.4 97.8l-.4-3.3h-.2a9.79 9.79 0 01-8.1 3.9c-5.4 0-8.1-3.8-8.1-7.6 0-6.4 5.7-9.9 15.9-9.8v-.5c0-2.2-.6-6.1-6-6.1-2.5 0-5 .8-6.9 2l-1.1-3.2c2.2-1.4 5.4-2.3 8.7-2.3 8.1 0 10.1 5.5 10.1 10.8v9.9c0 2.3.1 4.5.4 6.3h-4.3zm-.7-13.4c-5.3-.1-11.2.8-11.2 5.9 0 3.1 2.1 4.6 4.5 4.6 3.4 0 5.6-2.2 6.4-4.4.2-.5.3-1 .3-1.5v-4.6z"/></g></g></a></g><a href="https://ourworldindata.org/grapher/investment-in-renewable-energy-by-technology" target="_blank"><text font-size="25.2" x="15" y="35.2" fill="#555"><tspan x="15" y="35.16">Investment in renewable energy, by technology</tspan></text></a><text font-size="14.4" x="15" y="53.7" fill="#666"><tspan x="15" y="53.72">Global investment in renewable energy technologies, measured in USD per year. Note investment figures exclude</tspan><tspan x="15" y="69.56">large-scale hydropower schemes.</tspan></text></g><g class="StackedBarChart"><defs><clipPath id="a"><path d="M102.3 92.1H651v443.2H102.3z"/></clipPath></defs><g class="VerticalAxis" fill="#666" dominant-baseline="middle" text-anchor="end" font-size="16.2"><text x="97.3" y="535.3">$0</text><text x="97.3" y="464.3">$50 billion</text><text x="97.3" y="393.3">$100 billion</text><text x="97.3" y="322.3">$150 billion</text><text x="97.3" y="251.3">$200 billion</text><text x="97.3" y="180.3">$250 billion</text><text x="97.3" y="109.3">$300 billion</text></g><g class="AxisGridLines"><path stroke="#ccc" d="M102.3 535.3H651"/><path stroke="#ddd" stroke-dasharray="3,2" d="M102.3 464.3H651M102.3 393.3H651M102.3 322.3H651M102.3 251.3H651M102.3 180.3H651M102.3 109.3H651"/></g><g fill="#666" font-size="16.2"><text x="109.48" y="553.26">2004</text><text x="151.68" y="553.26">2005</text><text x="193.89" y="553.26">2006</text><text x="236.1" y="553.26">2007</text><text x="278.31" y="553.26">2008</text><text x="320.52" y="553.26">2009</text><text x="362.72" y="553.26">2010</text><text x="404.93" y="553.26">2011</text><text x="447.14" y="553.26">2012</text><text x="489.35" y="553.26">2013</text><text x="531.56" y="553.26">2014</text><text x="573.76" y="553.26">2015</text><text x="615.97" y="553.26">2016</text></g><g clip-path="url(#a)"><g class="World_6-segments" fill="#ffd53e"><path opacity=".8" d="M110.74 519.4h33.77v15.9h-33.77zM152.95 512.7h33.77v22.6h-33.77zM195.15 504.2h33.77v31.1h-33.77zM237.36 480.1h33.77v55.2h-33.77zM279.57 448.3h33.77v87h-33.77zM321.78 444.4h33.77v90.9h-33.77zM363.99 388.2h33.77v147.1h-33.77zM406.19 315.3h33.77v220h-33.77zM448.4 335.6h33.77v199.7H448.4zM490.61 366.2h33.77v169.1h-33.77zM532.82 331h33.77v204.3h-33.77zM575.03 291.5h33.77v243.8h-33.77zM617.23 373.8H651v161.5h-33.77z"/></g><g class="World_5-segments" fill="#7ec7ce"><path opacity=".8" d="M110.74 491.6h33.77v27.8h-33.77zM152.95 472.2h33.77v40.5h-33.77zM195.15 447.8h33.77v56.4h-33.77zM237.36 393.3h33.77v86.8h-33.77zM279.57 342h33.77v106.3h-33.77zM321.78 331.2h33.77v113.2h-33.77zM363.99 243.9h33.77v144.3h-33.77zM406.19 195.8h33.77v119.5h-33.77zM448.4 215.8h33.77v119.8H448.4zM490.61 239.8h33.77v126.4h-33.77zM532.82 176.9h33.77V331h-33.77zM575.03 115.1h33.77v176.4h-33.77zM617.23 214.1H651v159.7h-33.77z"/></g><g class="World_4-segments" fill="#6bb537"><path opacity=".8" d="M110.74 479.8h33.77v11.8h-33.77zM152.95 458.3h33.77v13.9h-33.77zM195.15 429.6h33.77v18.2h-33.77zM237.36 360.6h33.77v32.7h-33.77zM279.57 317.2h33.77V342h-33.77zM321.78 309.9h33.77v21.3h-33.77zM363.99 220.3h33.77v23.6h-33.77zM406.19 167.5h33.77v28.3h-33.77zM448.4 194.6h33.77v21.2H448.4zM490.61 222.2h33.77v17.6h-33.77zM532.82 161.5h33.77v15.4h-33.77zM575.03 105.6h33.77v9.5h-33.77zM617.23 204.4H651v9.7h-33.77z"/></g><g class="World_3-segments" fill="#34983f"><path opacity=".8" d="M110.74 474.1h33.77v5.7h-33.77zM152.95 444.3h33.77v14h-33.77zM195.15 389h33.77v40.6h-33.77zM237.36 321.7h33.77v38.9h-33.77zM279.57 291.1h33.77v26.1h-33.77zM321.78 295.5h33.77v14.4h-33.77zM363.99 205.4h33.77v14.9h-33.77zM406.19 152.5h33.77v15h-33.77zM448.4 184.4h33.77v10.2H448.4zM490.61 214.8h33.77v7.4h-33.77zM532.82 154h33.77v7.5h-33.77zM575.03 100.6h33.77v5h-33.77zM617.23 201.3H651v3.1h-33.77z"/></g><g class="World_2-segments" fill="#3360a9"><path opacity=".8" d="M110.74 470.3h33.77v3.8h-33.77zM152.95 433.8h33.77v10.5h-33.77zM195.15 378.4h33.77V389h-33.77zM237.36 312.6h33.77v9.1h-33.77zM279.57 280.3h33.77v10.8h-33.77zM321.78 286.6h33.77v8.9h-33.77zM363.99 193.9h33.77v11.5h-33.77zM406.19 141.8h33.77v10.7h-33.77zM448.4 175.3h33.77v9.1H448.4zM490.61 206.8h33.77v8h-33.77zM532.82 144.9h33.77v9.1h-33.77zM575.03 95.7h33.77v4.9h-33.77zM617.23 196.3H651v5h-33.77z"/></g><g class="World_1-segments" fill="#e6332e"><path opacity=".8" d="M110.74 468.6h33.77v1.7h-33.77zM152.95 432.1h33.77v1.7h-33.77zM195.15 376.4h33.77v2h-33.77zM237.36 310.2h33.77v2.4h-33.77zM279.57 277.8h33.77v2.5h-33.77zM321.78 282.7h33.77v3.9h-33.77zM363.99 189.8h33.77v4.1h-33.77zM406.19 136.3h33.77v5.5h-33.77zM448.4 173h33.77v2.3H448.4zM490.61 202.7h33.77v4.1h-33.77zM532.82 140.8h33.77v4.1h-33.77zM575.03 92.4h33.77v3.3h-33.77zM617.23 192.5H651v3.8h-33.77z"/></g><g class="World_0-segments" fill="#674c98"><path opacity=".8" d="M152.95 431.9h33.77v.2h-33.77zM195.15 375.3h33.77v1.1h-33.77zM237.36 309.1h33.77v1.1h-33.77zM279.57 277.6h33.77v.2h-33.77zM321.78 282.2h33.77v.5h-33.77zM363.99 189.5h33.77v.3h-33.77zM406.19 136h33.77v.3h-33.77zM448.4 172.6h33.77v.4H448.4zM490.61 202.4h33.77v.3h-33.77zM532.82 140.4h33.77v.4h-33.77zM575.03 92.1h33.77v.3h-33.77zM617.23 192.2H651v.3h-33.77z"/></g></g><g class="ScatterColorLegend clickable" cursor="pointer"><g class="legendMark">,<path fill="#674c98" d="M671 95.1h6v6h-6z"/>,<text font-size="12.6" x="682" y="102.2"><tspan x="682" y="102.18">Marine Energy</tspan></text></g><g class="legendMark">,<path fill="#e6332e" d="M671 112.7h6v6h-6z"/>,<text font-size="12.6" x="682" y="119.8"><tspan x="682" y="119.78">Geothermal Energy</tspan></text></g><g class="legendMark">,<path fill="#3360a9" d="M671 130.3h6v6h-6z"/>,<text font-size="12.6" x="682" y="137.4"><tspan x="682" y="137.38">Small Hydropower</tspan></text></g><g class="legendMark">,<path fill="#34983f" d="M671 147.9h6v6h-6z"/>,<text font-size="12.6" x="682" y="155"><tspan x="682" y="154.98">Liquid Biofuels</tspan></text></g><g class="legendMark">,<path fill="#6bb537" d="M671 165.5h6v6h-6z"/>,<text font-size="12.6" x="682" y="172.6"><tspan x="682" y="172.58">Biomass &amp; Waste-to-Energy</tspan></text></g><g class="legendMark">,<path fill="#7ec7ce" d="M671 183.1h6v6h-6z"/>,<text font-size="12.6" x="682" y="190.2"><tspan x="682" y="190.18">Wind Energy</tspan></text></g><g class="legendMark">,<path fill="#ffd53e" d="M671 200.7h6v6h-6z"/>,<text font-size="12.6" x="682" y="207.8"><tspan x="682" y="207.78">Solar Energy</tspan></text></g></g></g><g class="SourcesFooter" fill="#777"><g class="clickable" fill="#777"><text font-size="12.6" x="15" y="581.6"><tspan x="15" y="581.58">Source: International Renewable Energy Agency (IRENA)</tspan></text></g><text font-size="12.6" x="367.9" y="581.6"><tspan x="367.92" y="581.58"><a target="_blank" href="https://ourworldindata.org/energy-production-and-changing-energy-sources/" fill="#777">OurWorldInData.org/energy-production-and-changing-energy-sources/</a> • <a class="cclogo" href="http://creativecommons.org/licenses/by-sa/4.0/deed.en_US" target="_blank" fill="#777">CC BY-SA</a></tspan></text></g></g></svg>