<svg xmlns="http://www.w3.org/2000/svg" version="1.1" style="background-color:#fff;-webkit-font-smoothing:antialiased" width="850" height="600" font-family="'Helvetica Neue',Helvetica,Arial,sans-serif" font-size="18" text-rendering="optimizeLegibility"><g class="ChartTab"><g class="HeaderView"><g opacity=".8" transform="matrix(.31 0 0 .31 770 15)"><a xmlns:xlink="http://www.w3.org/1999/xlink" xlink:href="https://ourworldindata.org" target="_blank"><g><path fill="#1B2543" d="M0 0h211.2v130.1H0z"/><path fill="#E63912" d="M0 112.2h211.2v17.9H0z"/><g><path fill="none" d="M1.2 12.3h210.2v99.2H1.2z"/><path fill="#FFF" d="M37.8 32.2c0 12.7-7.7 19.4-17.1 19.4-9.7 0-16.6-7.5-16.6-18.7 0-11.7 7.3-19.3 17.1-19.3 10.1.1 16.6 7.7 16.6 18.6zm-28.6.6c0 7.9 4.3 14.9 11.8 14.9 7.5 0 11.8-6.9 11.8-15.3 0-7.3-3.8-14.9-11.8-14.9-7.9 0-11.8 7.3-11.8 15.3zM62.7 43.8c0 2.7.1 5.1.2 7.2h-4.3l-.3-4.3h-.1c-1.3 2.1-4 4.9-8.8 4.9-4.2 0-9.1-2.3-9.1-11.6V24.6h4.8v14.6c0 5 1.5 8.4 5.9 8.4 3.2 0 5.5-2.2 6.3-4.4.3-.7.4-1.6.4-2.5V24.6h4.8v19.2zM67.3 32.8c0-3.1-.1-5.8-.2-8.2h4.2l.2 5.2h.2c1.2-3.5 4.1-5.8 7.3-5.8.5 0 .9.1 1.4.2v4.5c-.5-.1-1-.2-1.6-.2-3.4 0-5.8 2.6-6.5 6.2-.1.7-.2 1.4-.2 2.2V51h-4.8V32.8zM95.4 51L86 14.2h5l4.4 18.6c1.1 4.6 2.1 9.2 2.7 12.7h.1c.6-3.7 1.8-8 3-12.8l4.9-18.5h5l4.5 18.7c1 4.4 2 8.7 2.6 12.6h.1c.8-4 1.8-8.1 3-12.7l4.9-18.5h4.9L120.6 51h-5L111 31.9c-1.1-4.7-1.9-8.3-2.4-12h-.1c-.7 3.7-1.5 7.3-2.8 12L100.4 51h-5zM154.9 37.6c0 9.8-6.8 14-13.2 14-7.2 0-12.7-5.2-12.7-13.6 0-8.8 5.8-14 13.1-14 7.7 0 12.8 5.5 12.8 13.6zm-21 .3c0 5.8 3.3 10.1 8 10.1 4.6 0 8-4.3 8-10.3 0-4.5-2.2-10.1-7.9-10.1s-8.1 5.2-8.1 10.3zM158.2 32.8c0-3.1-.1-5.8-.2-8.2h4.2l.2 5.2h.2c1.2-3.5 4.1-5.8 7.3-5.8.5 0 .9.1 1.4.2v4.5c-.5-.1-1-.2-1.6-.2-3.4 0-5.8 2.6-6.5 6.2-.1.7-.2 1.4-.2 2.2V51h-4.8V32.8zM173.5 12.3h4.8V51h-4.8V12.3zM206.5 12.3v31.9c0 2.3.1 5 .2 6.8h-4.3l-.2-4.6h-.2c-1.5 2.9-4.7 5.2-9 5.2-6.4 0-11.3-5.4-11.3-13.4-.1-8.8 5.4-14.2 11.9-14.2 4 0 6.8 1.9 8 4h.1V12.3h4.8zm-4.8 23.1c0-.6-.1-1.4-.2-2a7 7 0 00-6.9-5.6c-5 0-7.9 4.4-7.9 10.2 0 5.3 2.6 9.8 7.8 9.8 3.2 0 6.2-2.1 7.1-5.7.2-.7.2-1.3.2-2.1v-4.6zM42.8 64c.1 1.6-1.1 2.9-3.1 2.9-1.7 0-2.9-1.3-2.9-2.9 0-1.7 1.3-3 3-3 1.9 0 3 1.3 3 3zm-5.4 33.8V71.4h4.8v26.4h-4.8zM47.5 78.6c0-2.7-.1-5-.2-7.1h4.3l.3 4.4h.1c1.3-2.5 4.4-5 8.8-5 3.7 0 9.4 2.2 9.4 11.2v15.8h-4.8V82.6c0-4.3-1.6-7.8-6.1-7.8-3.2 0-5.6 2.2-6.5 4.9-.2.6-.3 1.4-.3 2.2v15.9h-4.8V78.6zM84 61.6c2.9-.4 6.3-.8 10.1-.8 6.8 0 11.7 1.6 14.9 4.6 3.3 3 5.2 7.3 5.2 13.2 0 6-1.9 10.9-5.3 14.3-3.4 3.4-9.1 5.3-16.3 5.3-3.4 0-6.2-.2-8.6-.4V61.6zm4.8 32.5c1.2.2 3 .3 4.8.3 10.2 0 15.7-5.7 15.7-15.6.1-8.7-4.9-14.2-14.9-14.2-2.5 0-4.3.2-5.6.5v29zM132.1 97.8l-.4-3.3h-.2a9.79 9.79 0 01-8.1 3.9c-5.4 0-8.1-3.8-8.1-7.6 0-6.4 5.7-9.9 15.9-9.8v-.5c0-2.2-.6-6.1-6-6.1-2.5 0-5 .8-6.9 2l-1.1-3.2c2.2-1.4 5.4-2.3 8.7-2.3 8.1 0 10.1 5.5 10.1 10.8v9.9c0 2.3.1 4.5.4 6.3h-4.3zm-.7-13.4c-5.3-.1-11.2.8-11.2 5.9 0 3.1 2.1 4.6 4.5 4.6 3.4 0 5.6-2.2 6.4-4.4.2-.5.3-1 .3-1.5v-4.6zM146.6 63.9v7.6h6.9v3.7h-6.9v14.2c0 3.3.9 5.1 3.6 5.1 1.3 0 2.2-.2 2.8-.3l.2 3.6c-.9.4-2.4.7-4.3.7-2.2 0-4-.7-5.2-2-1.4-1.4-1.9-3.8-1.9-6.9V75.1h-4.1v-3.7h4.1v-6.3l4.8-1.2zM171.4 97.8l-.4-3.3h-.2a9.79 9.79 0 01-8.1 3.9c-5.4 0-8.1-3.8-8.1-7.6 0-6.4 5.7-9.9 15.9-9.8v-.5c0-2.2-.6-6.1-6-6.1-2.5 0-5 .8-6.9 2l-1.1-3.2c2.2-1.4 5.4-2.3 8.7-2.3 8.1 0 10.1 5.5 10.1 10.8v9.9c0 2.3.1 4.5.4 6.3h-4.3zm-.7-13.4c-5.3-.1-11.2.8-11.2 5.9 0 3.1 2.1 4.6 4.5 4.6 3.4 0 5.6-2.2 6.4-4.4.2-.5.3-1 .3-1.5v-4.6z"/></g></g></a></g><a href="https://ourworldindata.org/grapher/maddison-data-gdp-per-capita-in-2011us-single-benchmark" target="_blank"><text font-size="27" x="15" y="36.6" fill="#555"><tspan x="15" y="36.6">GDP per capita</tspan></text></a><text font-size="14.4" x="15" y="55.5" fill="#666"><tspan x="15" y="55.52">Real GDP per capita is measured using US$, inflation adjusted at prices of 2011. A single benchmark in 2011</tspan><tspan x="15" y="71.36">makes these series suitable for studying the growth of incomes over time (but not for comparing income levels</tspan><tspan x="15" y="87.2">between countries over time).</tspan></text></g><g class="LineChart"><defs><clipPath id="a"><path d="M68.97 0h830v894.2h-830z"/></clipPath></defs><g class="AxisBoxView"><g class="HorizontalAxis" fill="#666" text-anchor="middle" font-size="16.2"><text x="79" y="556.5">1</text><text x="234.5" y="556.5">500</text><text x="390.4" y="556.5">1000</text><text x="546.3" y="556.5">1500</text><text x="707.2" y="556.5">2016</text></g><g class="VerticalAxis" fill="#666" dominant-baseline="middle" text-anchor="end" font-size="16.2"><text x="73.97" y="535.3">$0</text><text x="73.97" y="455">$10,000</text><text x="73.97" y="374.6">$20,000</text><text x="73.97" y="294.3">$30,000</text><text x="73.97" y="214">$40,000</text><text x="73.97" y="133.6">$50,000</text></g><g class="AxisGridLines"><path stroke="#ccc" d="M78.97 535.3h628.21"/><path stroke="#ddd" stroke-dasharray="3,2" d="M78.97 455h628.21M78.97 374.6h628.21M78.97 294.3h628.21M78.97 214h628.21M78.97 133.6h628.21"/></g><g class="AxisGridLines" stroke="#ddd" stroke-dasharray="3,2"><path d="M234.5 535.3V109.4M390.4 535.3V109.4M546.3 535.3V109.4M702.2 535.3V109.4"/></g></g><g clip-path="url(#a)"><g class="HeightedLegend clickable"><g class="legendMark"><path fill="#e6332e" d="M717.18 108.15h10v2.5h-10z"/><text font-size="14.4" x="732.2" y="113.7" fill="#333"><tspan x="732.18" y="113.72">United States</tspan></text></g><g class="legendMark"><path fill="#2a939b" d="M717.18 201.05h10v2.5h-10z"/><text font-size="14.4" x="732.2" y="206.6" fill="#333"><tspan x="732.18" y="206.62">Austria</tspan></text></g><g class="legendMark"><path fill="#a652ba" d="M717.18 234.15h10v2.5h-10z"/><text font-size="14.4" x="732.2" y="239.7" fill="#333"><tspan x="732.18" y="239.72">United Kingdom</tspan></text></g><g class="legendMark"><path fill="#f6a324" d="M717.18 248.55h10v2.5h-10z"/><text font-size="14.4" x="732.2" y="254.1" fill="#333"><tspan x="732.18" y="254.12">France</tspan></text></g><g class="legendMark"><path fill="#34983f" d="M717.18 262.95h10v2.5h-10z"/><text font-size="14.4" x="732.2" y="268.5" fill="#333"><tspan x="732.18" y="268.52">South Korea</tspan></text></g><g class="legendMark"><path fill="#ca2628" d="M717.18 382.45h10v2.5h-10z"/><text font-size="14.4" x="732.2" y="388" fill="#333"><tspan x="732.18" y="388.02">Argentina</tspan></text></g><g class="legendMark"><path fill="#3360a9" d="M717.18 446.35h10v2.5h-10z"/><text font-size="14.4" x="732.2" y="451.9" fill="#333"><tspan x="732.18" y="451.92">Indonesia</tspan></text></g></g><g class="Lines"><g class="key-Austria_0"><path stroke="#2a939b" stroke-linecap="round" d="M646 518l3-2 3-2 3-2 4-1 3-2v-1h0l1 1v-1h0l1-1h0v-1l1 1v-2 1l1-1v-1h1v-2h0l1 1v-3h1v-1l1-1h0v-2l1-1h0l1-1h0l1-2v-3h1v1h0v-2l1-1h0v8l1 3v1h0l1 1v4-2l1-4v-3 1l1-5v-3h0v-1l1-3h0v1l1 5v6h1v-2l1-3v-13l1 2v-3 3-1l1-1v33-3l1-3v-16l1-5v-4h0l1-2v-13l1-5v-9l1-6v-6l1-4v-7l1-6v-7l1-7v-15l1-8v-12h0l1-8v-7h0l1-10v-4h0l1-3v-7l1-4v-8l1-6v-22l1-2v1-5l1-6v-12l1-9v-18l1-3v-10l1-4v-20l1-4v14-6l1-8v-1 2h1v1-2" fill="none" stroke-width="1.5"/></g><g class="key-Indonesia_0"><path stroke="#3360a9" stroke-linecap="round" d="M645 528h9v1h1v-1 1h2v-1l1 1v-1h1v1h1v-1h5v-2h5l1-1h0l1 1v-1h2v-1h1v-1h1v1l1-1v-1 1h1l1-1h0v-1h0l1-1h0l1 1v1h1l1-2v1h0l1-1v-1l2 6 1-1v-1h1v-1h1v-1 1-1h1v-1 1l1 1v-1h0l1 1h0v-1l1-1v-2l1-1v-3h0l1-1v-2l1-1v-2l1 1h0v-1h1v-2h0l1-2v-7l1-1v-5l1-3v-5l1 8h0v-1l1-1v-5l1-2v-5l1-4v-5l1-4v-7l1-3v-6" fill="none" stroke-width="1.5"/></g><g class="key-United-States_0"><path stroke="#e6332e" stroke-linecap="round" d="M593 528l22-4 17-4 8-1h2v-1 2l1-1v-1h2v1h1v-1h1l1-1h1v1-2l1-1v-1h0v1l1-1h0l1 1v-1 1h1l1-1v-1h1v-1 1h0l1-1v-3h2l1-1h0l1-2v-1 2l1-1v-2l1 1h0v-1l1-1v1-1l1 1v-1h0l1-3v-4h0v-2h1v1h1v-1 1l1-2v1-1l1-3v5l1-4v1-3h0l1-3v-5h1v-2 2l1-3v-5h0l1 6v-5h0v-1l1-2v-1 6h1v-8 3l1-5h0v1l1 3v-10l1-1v-5 1h1v-4 8l1 5v13l1-5v-15l1-6v6-6l1-6v-33l1-8v15l1 3v-4 4l1-9v-10l1-4v4-7h1v3-7l1-2v-7l1-4v-15l1-10v-9l1-4v2-4l1-8v-9 5l1-9v-18l1-5v2-3l1 7v-23l1-8v-14l1-9v-9 4l1-6v-12l1-5v-19l1-11v-22h1v-21l1-10v-10l1 5v15-6l1-4v-9l1-7v-11" fill="none" stroke-width="1.5"/></g><g class="key-United-Kingdom_0"><path stroke="#a652ba" stroke-linecap="round" d="M390 526l219-10v-1h0l1 2v-4 2l1 3v-3l1 2v2-1h1v-1h1v-2h1v-1 1h2v1h0v-1l1 1v-1 1l1-2h0l1 1v-1 1h1l1-1v1h1v-1h1l1 1v-1h1v1-2h1v-1h1l1 1h1v-2l1 1h0v1-1l1 1h0v-1h1l1-1h0l1 1h1v1h0l1-2h1v1-2h2v-1h1v1h0v-1h1v-1 2l1-1v-1 1l1 1v-1 1l1-2v2h1v1-2h1v-1h1v1-1h1v-1h1l1-2v-1 1l1-1v1-1l1 1h0v-1l1-2v-1h0l1 1v-1h0l1-1v-2l1-1v1-2h1v1-1l1-1v3l1-3v-3l1 1v-2h0l1-2v1h0l1-1h0v-1l1 1h0l1 1v-4h1v1h1v-4l1-2h0v1l1 2h0v-3l1-1v-4l1-2v2h0l1-1v2l1-2v-2l1 4v-4h1v-2h0l1-4h1v13l1 2v-6l1-2v-3 2-4l1-1v-2 1l1 4h0v-2l1-4v-5l1-3h0l1-8v-11l1 4v9l1 1v-4h1v-2h0l1-3v-6l1-1v-1h0v-3l1-5v-3h0l1-4v-7l1-2v-6l1-2v-5l1-4v-10 3l1-4v-9l1-4v5l1-2v-10l1-6v-15l1-9v-4h0v3h1v-12l1-5v-12l1-6v-16l1-6v-18l1-6v-10l1 4v14-3l1-2v-5l1-6v-8" fill="none" stroke-width="1.5"/></g><g class="key-France_0"><path stroke="#f6a324" stroke-linecap="round" d="M79 527l399-3v1h2l1-1h1v1h1v-1h1v-1h1v-1h1v-1h1v-1h1v1h2v1h1l1-1h1v1h1l1-1h2v1-1h1l1-1h2v-1h0l1 1h4v-1 1h3l1 1h1v-1h4v1h11l1-1h5l1 1h7v1-1h8v1h1v-1 1h12v1h11l1-1h17l1-1h2v1h2v-1h14v1h5v-1h7v1h1l1-1h1l1 1h3v-1h7v-1 1h1v-1h0v1l10-1v-1l1 1v-1h0l1 1v-1 1h1v-1 1l1-1v-1h1l1-1v1-2h1v1-1l1-1v1h0l1-2v1h0v-1l1 1v-2 1h1v-1l1-1v-2 2l1-2v2-2l1-1h0v1h0l1 1v-2h0l1 2v-3l1 2v-4l1 3v-2 1l1 2v-5h1v1h1v-1h1v-2l1-1h0v-1h1v-1h0v-1l1-2h0v1l1 1v-1h0l1-1v-2h1v-2 3-4l1-3h0v4l1-1v-2 6l1 8v-11l1 2v-9l1-6h0v-1 1l1-3v-4 2l1 4v4-4l1 1v1-2l1-3h0v-4l1 10v16l1 5v-19l1-3v-11l1-3v-5l1-2v-7l1-3v-7l1-5v-9l1-4v-11l1-5v-9l1-9v-12l1-6v-11 2l1-7v-10l1-5v-3l1-4v-3l1-2v-8l1-9v-12l1-2v2-4l1-4v-7l1-7v-17l1-3v-2h0v-7l1-2v-10l1 1v10-4l1-4v1-1l1 1v-5" fill="none" stroke-width="1.5"/></g><g class="key-South-Korea_0"><path stroke="#34983f" stroke-linecap="round" d="M646 532h16l12-2h1l1-1h0v-1h1v1l1-1v1-1h2v1h1v-1h1v-2h1v-1 1l1-1 3 1v1-1l1-3h0v-1l1 1v-1h1l1-1v-2l1-1v-3l1-2v-3l1-2v-8l1-3v-7l1-2v2-2l1-3v-9l1-3v-14l1-8v-21l1-5v-16l1-11v-16l1 9v-28l1-6v-26l1-7v-21l1-5h0v-14l1-8v-10l1-8v-13" fill="none" stroke-width="1.5"/></g><g class="key-Argentina_0"><path stroke="#ca2628" stroke-linecap="round" d="M640 522l6-1 9-3 4-2 3-1 1-3h1v-2 2h1v1h0v-5l1-3v-4l1 1v-4l1-1v6l1-5v-7l1-3v-3 11-3l1-6v8h0l1 2v-7l1-4h0v1l1-3v-3 1l1-2v9l1 1v6l1-6v-4h1v-6l1-2v2-3l1-2v-1 4l1 5v3-2l1-3v-1h0l1-3v1-1h1v-2h0v1l1-5v3-4l1-6v-3 3l1 1v-1 5l1-2v-6h1v-6 6l1-4v-4 2l1 3v-13l1 1v-3l1-7v-7l1-1v-10 3l1 2v-5 7l1-6v9l1 5v-2h0l1 8v-7l1 4v9-9l1-8v-11l1 5v-13l1-3v8l1 6v14-16l1-9v-20l1-5v11-13l1-7v3-2l1 5v-2 5" fill="none" stroke-width="1.5"/></g></g></g></g><g class="SourcesFooter" fill="#777"><g class="clickable" fill="#777"><text font-size="12.6" x="15" y="581.6"><tspan x="15" y="581.58">Source: Maddison Project Database (2018)</tspan></text></g><text font-size="12.6" x="649" y="581.6"><tspan x="649.02" y="581.58"><a target="_blank" href="https://ourworldindata.org" fill="#777">OurWorldInData.org</a> • <a href="http://creativecommons.org/licenses/by-sa/4.0/deed.en_US" target="_blank" fill="#777">CC BY-SA</a></tspan></text></g></g></svg>