<svg xmlns="http://www.w3.org/2000/svg" version="1.1" style="background-color:#fff;-webkit-font-smoothing:antialiased" width="850" height="600" font-family="'Helvetica Neue',Helvetica,Arial,sans-serif" font-size="18" text-rendering="optimizeLegibility"><g class="ChartTab"><g class="HeaderView"><g opacity=".8" transform="matrix(.27 0 0 .27 778 15)"><a xmlns:xlink="http://www.w3.org/1999/xlink" xlink:href="https://ourworldindata.org" target="_blank"><g><path fill="#1B2543" d="M0 0h211.2v130.1H0z"/><path fill="#E63912" d="M0 112.2h211.2v17.9H0z"/><g><path fill="none" d="M1.2 12.3h210.2v99.2H1.2z"/><path fill="#FFF" d="M37.8 32.2c0 12.7-7.7 19.4-17.1 19.4-9.7 0-16.6-7.5-16.6-18.7 0-11.7 7.3-19.3 17.1-19.3 10.1.1 16.6 7.7 16.6 18.6zm-28.6.6c0 7.9 4.3 14.9 11.8 14.9 7.5 0 11.8-6.9 11.8-15.3 0-7.3-3.8-14.9-11.8-14.9-7.9 0-11.8 7.3-11.8 15.3zM62.7 43.8c0 2.7.1 5.1.2 7.2h-4.3l-.3-4.3h-.1c-1.3 2.1-4 4.9-8.8 4.9-4.2 0-9.1-2.3-9.1-11.6V24.6h4.8v14.6c0 5 1.5 8.4 5.9 8.4 3.2 0 5.5-2.2 6.3-4.4.3-.7.4-1.6.4-2.5V24.6h4.8v19.2zM67.3 32.8c0-3.1-.1-5.8-.2-8.2h4.2l.2 5.2h.2c1.2-3.5 4.1-5.8 7.3-5.8.5 0 .9.1 1.4.2v4.5c-.5-.1-1-.2-1.6-.2-3.4 0-5.8 2.6-6.5 6.2-.1.7-.2 1.4-.2 2.2V51h-4.8V32.8zM95.4 51L86 14.2h5l4.4 18.6c1.1 4.6 2.1 9.2 2.7 12.7h.1c.6-3.7 1.8-8 3-12.8l4.9-18.5h5l4.5 18.7c1 4.4 2 8.7 2.6 12.6h.1c.8-4 1.8-8.1 3-12.7l4.9-18.5h4.9L120.6 51h-5L111 31.9c-1.1-4.7-1.9-8.3-2.4-12h-.1c-.7 3.7-1.5 7.3-2.8 12L100.4 51h-5zM154.9 37.6c0 9.8-6.8 14-13.2 14-7.2 0-12.7-5.2-12.7-13.6 0-8.8 5.8-14 13.1-14 7.7 0 12.8 5.5 12.8 13.6zm-21 .3c0 5.8 3.3 10.1 8 10.1 4.6 0 8-4.3 8-10.3 0-4.5-2.2-10.1-7.9-10.1s-8.1 5.2-8.1 10.3zM158.2 32.8c0-3.1-.1-5.8-.2-8.2h4.2l.2 5.2h.2c1.2-3.5 4.1-5.8 7.3-5.8.5 0 .9.1 1.4.2v4.5c-.5-.1-1-.2-1.6-.2-3.4 0-5.8 2.6-6.5 6.2-.1.7-.2 1.4-.2 2.2V51h-4.8V32.8zM173.5 12.3h4.8V51h-4.8V12.3zM206.5 12.3v31.9c0 2.3.1 5 .2 6.8h-4.3l-.2-4.6h-.2c-1.5 2.9-4.7 5.2-9 5.2-6.4 0-11.3-5.4-11.3-13.4-.1-8.8 5.4-14.2 11.9-14.2 4 0 6.8 1.9 8 4h.1V12.3h4.8zm-4.8 23.1c0-.6-.1-1.4-.2-2a7 7 0 00-6.9-5.6c-5 0-7.9 4.4-7.9 10.2 0 5.3 2.6 9.8 7.8 9.8 3.2 0 6.2-2.1 7.1-5.7.2-.7.2-1.3.2-2.1v-4.6zM42.8 64c.1 1.6-1.1 2.9-3.1 2.9-1.7 0-2.9-1.3-2.9-2.9 0-1.7 1.3-3 3-3 1.9 0 3 1.3 3 3zm-5.4 33.8V71.4h4.8v26.4h-4.8zM47.5 78.6c0-2.7-.1-5-.2-7.1h4.3l.3 4.4h.1c1.3-2.5 4.4-5 8.8-5 3.7 0 9.4 2.2 9.4 11.2v15.8h-4.8V82.6c0-4.3-1.6-7.8-6.1-7.8-3.2 0-5.6 2.2-6.5 4.9-.2.6-.3 1.4-.3 2.2v15.9h-4.8V78.6zM84 61.6c2.9-.4 6.3-.8 10.1-.8 6.8 0 11.7 1.6 14.9 4.6 3.3 3 5.2 7.3 5.2 13.2 0 6-1.9 10.9-5.3 14.3-3.4 3.4-9.1 5.3-16.3 5.3-3.4 0-6.2-.2-8.6-.4V61.6zm4.8 32.5c1.2.2 3 .3 4.8.3 10.2 0 15.7-5.7 15.7-15.6.1-8.7-4.9-14.2-14.9-14.2-2.5 0-4.3.2-5.6.5v29zM132.1 97.8l-.4-3.3h-.2a9.79 9.79 0 01-8.1 3.9c-5.4 0-8.1-3.8-8.1-7.6 0-6.4 5.7-9.9 15.9-9.8v-.5c0-2.2-.6-6.1-6-6.1-2.5 0-5 .8-6.9 2l-1.1-3.2c2.2-1.4 5.4-2.3 8.7-2.3 8.1 0 10.1 5.5 10.1 10.8v9.9c0 2.3.1 4.5.4 6.3h-4.3zm-.7-13.4c-5.3-.1-11.2.8-11.2 5.9 0 3.1 2.1 4.6 4.5 4.6 3.4 0 5.6-2.2 6.4-4.4.2-.5.3-1 .3-1.5v-4.6zM146.6 63.9v7.6h6.9v3.7h-6.9v14.2c0 3.3.9 5.1 3.6 5.1 1.3 0 2.2-.2 2.8-.3l.2 3.6c-.9.4-2.4.7-4.3.7-2.2 0-4-.7-5.2-2-1.4-1.4-1.9-3.8-1.9-6.9V75.1h-4.1v-3.7h4.1v-6.3l4.8-1.2zM171.4 97.8l-.4-3.3h-.2a9.79 9.79 0 01-8.1 3.9c-5.4 0-8.1-3.8-8.1-7.6 0-6.4 5.7-9.9 15.9-9.8v-.5c0-2.2-.6-6.1-6-6.1-2.5 0-5 .8-6.9 2l-1.1-3.2c2.2-1.4 5.4-2.3 8.7-2.3 8.1 0 10.1 5.5 10.1 10.8v9.9c0 2.3.1 4.5.4 6.3h-4.3zm-.7-13.4c-5.3-.1-11.2.8-11.2 5.9 0 3.1 2.1 4.6 4.5 4.6 3.4 0 5.6-2.2 6.4-4.4.2-.5.3-1 .3-1.5v-4.6z"/></g></g></a></g><a href="https://ourworldindata.org/grapher/males-vs-females-who-drank-alcohol-in-last-year" target="_blank"><text font-size="25.2" x="15" y="35.2" fill="#555"><tspan x="15" y="35.16">Share of males vs. females who drank alcohol in last year, 2010</tspan></text></a><text font-size="14.4" x="15" y="53.7" fill="#666"><tspan x="15" y="53.72">Share of adult (aged 15+) males versus share of adult females who drank any form of alcohol in the last 12 months.</tspan></text></g><g><g class="AxisBoxView"><g class="HorizontalAxis"><text font-size="12.6" x="216.6" y="554"><tspan x="216.63" y="553.98">Share of females who have drank alcohol in last year</tspan></text><text x="209.4" y="533.9" fill="#666" text-anchor="middle" font-size="16.2">20%</text><text x="335.8" y="533.9" fill="#666" text-anchor="middle" font-size="16.2">40%</text><text x="462.2" y="533.9" fill="#666" text-anchor="middle" font-size="16.2">60%</text><text x="588.6" y="533.9" fill="#666" text-anchor="middle" font-size="16.2">80%</text><text x="715" y="533.9" fill="#666" text-anchor="middle" font-size="16.2">100%</text></g><g class="VerticalAxis"><text font-size="12.6" x="-459.6" y="25.1" transform="rotate(-90)"><tspan x="-459.62" y="25.08">Share of males who have drank alcohol in last year</tspan></text><text x="79.23" y="512.7" fill="#666" dominant-baseline="middle" text-anchor="end" font-size="16.2">0%</text><text x="79.23" y="425.5" fill="#666" dominant-baseline="middle" text-anchor="end" font-size="16.2">20%</text><text x="79.23" y="338.3" fill="#666" dominant-baseline="middle" text-anchor="end" font-size="16.2">40%</text><text x="79.23" y="251" fill="#666" dominant-baseline="middle" text-anchor="end" font-size="16.2">60%</text><text x="79.23" y="163.8" fill="#666" dominant-baseline="middle" text-anchor="end" font-size="16.2">80%</text><text x="79.23" y="76.6" fill="#666" dominant-baseline="middle" text-anchor="end" font-size="16.2">100%</text></g><g class="AxisGridLines"><path stroke="#ccc" d="M84.23 512.7H715"/><path stroke="#ddd" stroke-dasharray="3,2" d="M84.23 425.5H715M84.23 338.3H715M84.23 251H715M84.23 163.8H715M84.23 76.6H715"/></g><g class="AxisGridLines" stroke="#ddd" stroke-dasharray="3,2"><path d="M209.4 512.7V76.6M335.8 512.7V76.6M462.2 512.7V76.6M588.6 512.7V76.6M715 512.7V76.6"/></g></g><g class="ComparisonLine"><defs><clipPath id="a"><path d="M84.23 76.6H715v436.1H84.23z"/></clipPath></defs><path d="M84.2 511.8l6.3-4.3 6.3-4.4 6.4-4.3 6.3-4.4 6.3-4.3 6.3-4.4 6.3-4.3 6.3-4.4 6.3-4.3 6.3-4.4 6.3-4.3 6.3-4.4 6.3-4.4 6.3-4.3 6.3-4.4 6.4-4.3 6.3-4.4 6.3-4.3 6.3-4.4 6.3-4.3 6.3-4.4 6.3-4.3 6.3-4.4 6.3-4.3 6.3-4.4 6.3-4.3 6.3-4.4 6.3-4.3 6.4-4.4 6.3-4.3 6.3-4.4 6.3-4.3 6.3-4.4 6.3-4.3 6.3-4.4 6.3-4.4 6.3-4.3 6.3-4.4 6.3-4.3 6.3-4.4 6.3-4.3 6.4-4.4 6.3-4.3 6.3-4.4 6.3-4.3 6.3-4.4 6.3-4.3 6.3-4.4 6.3-4.3 6.3-4.4 6.3-4.3 6.3-4.4 6.3-4.3 6.3-4.4 6.4-4.3 6.3-4.4 6.3-4.4 6.3-4.3 6.3-4.4 6.3-4.3 6.3-4.4 6.3-4.3 6.3-4.4 6.3-4.3 6.3-4.4 6.3-4.3 6.3-4.4 6.4-4.3 6.3-4.4 6.3-4.3 6.3-4.4 6.3-4.3 6.3-4.4 6.3-4.3 6.3-4.4 6.3-4.3 6.3-4.4 6.3-4.3 6.3-4.4 6.3-4.4 6.4-4.3 6.3-4.4 6.3-4.3 6.3-4.4 6.3-4.3 6.3-4.4 6.3-4.3 6.3-4.4 6.3-4.3 6.3-4.4 6.3-4.3 6.3-4.4 6.3-4.3 6.4-4.4 6.3-4.3 6.3-4.4 6.3-4.3 6.3-4.4 6.3-4.3" clip-path="url(#a)" fill="none" stroke="#ccc"/></g><g clip-path="url(#b)" font-family="Arial Narrow, Arial, sans-serif" class="PointsWithLabels clickable"><path fill="rgba(255,255,255,0)" d="M84.23 76.6H715v436.1H84.23z"/><defs><clipPath id="b"><path d="M74.23 66.6H725v456.1H74.23z"/></clipPath></defs><g class="key-China_0"><circle cx="265" cy="258" r="17.84" fill="#d14e5b" opacity=".8" stroke="#333" stroke-width=".7"/></g><g class="key-India_0"><circle cx="113" cy="404" r="17.06" fill="#d14e5b" opacity=".8" stroke="#333" stroke-width=".7"/></g><g class="key-United-States_0"><circle cx="481" cy="184" r="8.72" fill="#4d824b" opacity=".8" stroke="#333" stroke-width=".7"/></g><g class="key-Indonesia_0"><circle cx="113" cy="463" r="7.72" fill="#d14e5b" opacity=".8" stroke="#333" stroke-width=".7"/></g><g class="key-Brazil_0"><circle cx="378" cy="210" r="7" fill="#69c487" opacity=".8" stroke="#333" stroke-width=".7"/></g><g class="key-Pakistan_0"><circle cx="100" cy="489" r="6.63" fill="#d14e5b" opacity=".8" stroke="#333" stroke-width=".7"/></g><g class="key-Nigeria_0"><circle cx="264" cy="259" r="6.36" fill="#5675c1" opacity=".8" stroke="#333" stroke-width=".7"/></g><g class="key-Bangladesh_0"><circle cx="84" cy="497" r="6.17" fill="#d14e5b" opacity=".8" stroke="#fff" stroke-width=".7"/></g><g class="key-Russia_0"><circle cx="474" cy="186" r="6.06" fill="#ffd336" opacity=".8" stroke="#fff" stroke-width=".7"/></g><g class="key-Japan_0"><circle cx="474" cy="179" r="5.74" fill="#d14e5b" opacity=".8" stroke="#fff" stroke-width=".7"/></g><g class="key-Mexico_0"><circle cx="375" cy="212" r="5.46" fill="#4d824b" opacity=".8" stroke="#fff" stroke-width=".7"/></g><g class="key-Philippines_0"><circle cx="294" cy="271" r="5.01" fill="#d14e5b" opacity=".8" stroke="#333" stroke-width=".7"/></g><g class="key-Vietnam_0"><circle cx="263" cy="301" r="4.88" fill="#d14e5b" opacity=".8" stroke="#333" stroke-width=".7"/></g><g class="key-Ethiopia_0"><circle cx="152" cy="422" r="4.76" fill="#5675c1" opacity=".8" stroke="#333" stroke-width=".7"/></g><g class="key-Germany_0"><circle cx="579" cy="154" r="4.75" fill="#ffd336" opacity=".8" stroke="#333" stroke-width=".7"/></g><g class="key-Egypt_0"><circle cx="110" cy="475" r="4.72" fill="#5675c1" opacity=".8" stroke="#333" stroke-width=".7"/></g><g class="key-Iran_0"><circle cx="95" cy="485" r="4.53" fill="#d14e5b" opacity=".8" stroke="#fff" stroke-width=".7"/></g><g class="key-Turkey_0"><circle cx="118" cy="414" r="4.5" fill="#d14e5b" opacity=".8" stroke="#fff" stroke-width=".7"/></g><g class="key-Thailand_0"><circle cx="177" cy="314" r="4.41" fill="#d14e5b" opacity=".8" stroke="#333" stroke-width=".7"/></g><g class="key-Democratic-Republic-of-Congo_0"><circle cx="177" cy="332" r="4.32" fill="#5675c1" opacity=".8" stroke="#333" stroke-width=".7"/></g><g class="key-France_0"><circle cx="672" cy="91" r="4.23" fill="#ffd336" opacity=".8" stroke="#333" stroke-width=".7"/></g><g class="key-United-Kingdom_0"><circle cx="594" cy="133" r="4.21" fill="#ffd336" opacity=".8" stroke="#333" stroke-width=".7"/></g><g class="key-Italy_0"><circle cx="429" cy="157" r="4.17" fill="#ffd336" opacity=".8" stroke="#333" stroke-width=".7"/></g><g class="key-South-Africa_0"><circle cx="249" cy="267" r="3.87" fill="#5675c1" opacity=".8" stroke="#fff" stroke-width=".7"/></g><g class="key-South-Korea_0"><circle cx="297" cy="269" r="3.81" fill="#d14e5b" opacity=".8" stroke="#fff" stroke-width=".7"/></g><g class="key-Myanmar_0"><circle cx="107" cy="458" r="3.8" fill="#d14e5b" opacity=".8" stroke="#fff" stroke-width=".7"/></g><g class="key-Colombia_0"><circle cx="319" cy="251" r="3.75" fill="#69c487" opacity=".8" stroke="#333" stroke-width=".7"/></g><g class="key-Spain_0"><circle cx="483" cy="192" r="3.74" fill="#ffd336" opacity=".8" stroke="#333" stroke-width=".7"/></g><g class="key-Ukraine_0"><circle cx="488" cy="192" r="3.72" fill="#ffd336" opacity=".8" stroke="#fff" stroke-width=".7"/></g><g class="key-Tanzania_0"><circle cx="284" cy="285" r="3.7" fill="#5675c1" opacity=".8" stroke="#333" stroke-width=".7"/></g><g class="key-Kenya_0"><circle cx="167" cy="371" r="3.56" fill="#5675c1" opacity=".8" stroke="#333" stroke-width=".7"/></g><g class="key-Argentina_0"><circle cx="388" cy="207" r="3.56" fill="#69c487" opacity=".8" stroke="#fff" stroke-width=".7"/></g><g class="key-Poland_0"><circle cx="345" cy="238" r="3.49" fill="#ffd336" opacity=".8" stroke="#333" stroke-width=".7"/></g><g class="key-Algeria_0"><circle cx="114" cy="453" r="3.39" fill="#5675c1" opacity=".8" stroke="#fff" stroke-width=".7"/></g><g class="key-Sudan_0"><circle cx="132" cy="450" r="3.35" fill="#5675c1" opacity=".8" stroke="#fff" stroke-width=".7"/></g><g class="key-Canada_0"><circle cx="550" cy="162" r="3.34" fill="#4d824b" opacity=".8" stroke="#fff" stroke-width=".7"/></g><g class="key-Uganda_0"><circle cx="249" cy="267" r="3.32" fill="#5675c1" opacity=".8" stroke="#fff" stroke-width=".7"/></g><g class="key-Morocco_0"><circle cx="100" cy="476" r="3.27" fill="#5675c1" opacity=".8" stroke="#fff" stroke-width=".7"/></g><g class="key-Iraq_0"><circle cx="105" cy="481" r="3.26" fill="#d14e5b" opacity=".8" stroke="#fff" stroke-width=".7"/></g><g class="key-Afghanistan_0"><circle cx="98" cy="491" r="3.25" fill="#d14e5b" opacity=".8" stroke="#fff" stroke-width=".7"/></g><g class="key-Nepal_0"><circle cx="105" cy="459" r="3.2" fill="#d14e5b" opacity=".8" stroke="#fff" stroke-width=".7"/></g><g class="key-Peru_0"><circle cx="361" cy="220" r="3.16" fill="#69c487" opacity=".8" stroke="#333" stroke-width=".7"/></g><g class="key-Venezuela_0"><circle cx="388" cy="207" r="3.16" fill="#69c487" opacity=".8" stroke="#fff" stroke-width=".7"/></g><g class="key-Malaysia_0"><circle cx="125" cy="432" r="3.14" fill="#d14e5b" opacity=".8" stroke="#333" stroke-width=".7"/></g><g class="key-Saudi-Arabia_0"><circle cx="104" cy="480" r="3.1" fill="#d14e5b" opacity=".8" stroke="#fff" stroke-width=".7"/></g><g class="key-Uzbekistan_0"><circle cx="177" cy="251" r="3.1" fill="#d14e5b" opacity=".8" stroke="#333" stroke-width=".7"/></g><g class="key-Ghana_0"><circle cx="171" cy="368" r="2.99" fill="#5675c1" opacity=".8" stroke="#fff" stroke-width=".7"/></g><g class="key-North-Korea_0"><circle cx="159" cy="378" r="2.98" fill="#d14e5b" opacity=".8" stroke="#fff" stroke-width=".7"/></g><g class="key-Mozambique_0"><circle cx="144" cy="395" r="2.95" fill="#5675c1" opacity=".8" stroke="#333" stroke-width=".7"/></g><g class="key-Australia_0"><circle cx="589" cy="128" r="2.9" fill="#a652ba" opacity=".8" stroke="#fff" stroke-width=".7"/></g><g class="key-Romania_0"><circle cx="474" cy="190" r="2.87" fill="#ffd336" opacity=".8" stroke="#fff" stroke-width=".7"/></g><g class="key-Sri-Lanka_0"><circle cx="145" cy="394" r="2.84" fill="#d14e5b" opacity=".8" stroke="#fff" stroke-width=".7"/></g><g class="key-Madagascar_0"><circle cx="127" cy="419" r="2.84" fill="#5675c1" opacity=".8" stroke="#fff" stroke-width=".7"/></g><g class="key-Syria_0"><circle cx="110" cy="466" r="2.82" fill="#d14e5b" opacity=".8" stroke="#fff" stroke-width=".7"/></g><g class="key-Cote-d__0027Ivoire_0"><circle cx="147" cy="357" r="2.8" fill="#5675c1" opacity=".8" stroke="#333" stroke-width=".7"/></g><g class="key-Cameroon_0"><circle cx="292" cy="280" r="2.79" fill="#5675c1" opacity=".8" stroke="#fff" stroke-width=".7"/></g><g class="key-Angola_0"><circle cx="232" cy="303" r="2.77" fill="#5675c1" opacity=".8" stroke="#fff" stroke-width=".7"/></g><g class="key-Chile_0"><circle cx="458" cy="195" r="2.68" fill="#69c487" opacity=".8" stroke="#fff" stroke-width=".7"/></g><g class="key-Netherlands_0"><circle cx="611" cy="107" r="2.66" fill="#ffd336" opacity=".8" stroke="#333" stroke-width=".7"/></g><g class="key-Burkina-Faso_0"><circle cx="256" cy="298" r="2.66" fill="#5675c1" opacity=".8" stroke="#fff" stroke-width=".7"/></g><g class="key-Kazakhstan_0"><circle cx="276" cy="297" r="2.64" fill="#d14e5b" opacity=".8" stroke="#fff" stroke-width=".7"/></g><g class="key-Niger_0"><circle cx="96" cy="475" r="2.61" fill="#5675c1" opacity=".8" stroke="#fff" stroke-width=".7"/></g><g class="key-Mali_0"><circle cx="93" cy="486" r="2.61" fill="#5675c1" opacity=".8" stroke="#fff" stroke-width=".7"/></g><g class="key-Malawi_0"><circle cx="150" cy="389" r="2.59" fill="#5675c1" opacity=".8" stroke="#fff" stroke-width=".7"/></g><g class="key-Ecuador_0"><circle cx="309" cy="255" r="2.57" fill="#69c487" opacity=".8" stroke="#fff" stroke-width=".7"/></g><g class="key-Guatemala_0"><circle cx="284" cy="277" r="2.56" fill="#4d824b" opacity=".8" stroke="#fff" stroke-width=".7"/></g><g class="key-Cambodia_0"><circle cx="266" cy="301" r="2.55" fill="#d14e5b" opacity=".8" stroke="#fff" stroke-width=".7"/></g><g class="key-Zambia_0"><circle cx="189" cy="318" r="2.5" fill="#5675c1" opacity=".8" stroke="#fff" stroke-width=".7"/></g><g class="key-Zimbabwe_0"><circle cx="261" cy="293" r="2.48" fill="#5675c1" opacity=".8" stroke="#fff" stroke-width=".7"/></g><g class="key-Senegal_0"><circle cx="92" cy="470" r="2.47" fill="#5675c1" opacity=".8" stroke="#fff" stroke-width=".7"/></g><g class="key-Greece_0"><circle cx="467" cy="200" r="2.42" fill="#ffd336" opacity=".8" stroke="#fff" stroke-width=".7"/></g><g class="key-Cuba_0"><circle cx="416" cy="200" r="2.41" fill="#4d824b" opacity=".8" stroke="#333" stroke-width=".7"/></g><g class="key-Chad_0"><circle cx="129" cy="430" r="2.41" fill="#5675c1" opacity=".8" stroke="#fff" stroke-width=".7"/></g><g class="key-Belgium_0"><circle cx="591" cy="144" r="2.39" fill="#ffd336" opacity=".8" stroke="#fff" stroke-width=".7"/></g><g class="key-Portugal_0"><circle cx="373" cy="211" r="2.39" fill="#ffd336" opacity=".8" stroke="#fff" stroke-width=".7"/></g><g class="key-Rwanda_0"><circle cx="302" cy="270" r="2.38" fill="#5675c1" opacity=".8" stroke="#fff" stroke-width=".7"/></g><g class="key-Czech-Republic_0"><circle cx="630" cy="112" r="2.38" fill="#ffd336" opacity=".8" stroke="#fff" stroke-width=".7"/></g><g class="key-Tunisia_0"><circle cx="101" cy="475" r="2.38" fill="#5675c1" opacity=".8" stroke="#fff" stroke-width=".7"/></g><g class="key-Haiti_0"><circle cx="359" cy="217" r="2.35" fill="#4d824b" opacity=".8" stroke="#fff" stroke-width=".7"/></g><g class="key-Hungary_0"><circle cx="574" cy="140" r="2.35" fill="#ffd336" opacity=".8" stroke="#fff" stroke-width=".7"/></g><g class="key-Guinea_0"><circle cx="114" cy="458" r="2.35" fill="#5675c1" opacity=".8" stroke="#fff" stroke-width=".7"/></g><g class="key-Bolivia_0"><circle cx="344" cy="240" r="2.35" fill="#69c487" opacity=".8" stroke="#fff" stroke-width=".7"/></g><g class="key-Dominican-Republic_0"><circle cx="359" cy="221" r="2.35" fill="#4d824b" opacity=".8" stroke="#fff" stroke-width=".7"/></g><g class="key-Serbia_0"><circle cx="459" cy="195" r="2.34" fill="#ffd336" opacity=".8" stroke="#fff" stroke-width=".7"/></g><g class="key-Belarus_0"><circle cx="531" cy="124" r="2.33" fill="#ffd336" opacity=".8" stroke="#333" stroke-width=".7"/></g><g class="key-Sweden_0"><circle cx="479" cy="185" r="2.32" fill="#ffd336" opacity=".8" stroke="#fff" stroke-width=".7"/></g><g class="key-Somalia_0"><circle cx="98" cy="475" r="2.32" fill="#5675c1" opacity=".8" stroke="#fff" stroke-width=".7"/></g><g class="key-Azerbaijan_0"><circle cx="271" cy="255" r="2.31" fill="#d14e5b" opacity=".8" stroke="#fff" stroke-width=".7"/></g><g class="key-Benin_0"><circle cx="272" cy="299" r="2.29" fill="#5675c1" opacity=".8" stroke="#fff" stroke-width=".7"/></g><g class="key-Austria_0"><circle cx="550" cy="159" r="2.27" fill="#ffd336" opacity=".8" stroke="#fff" stroke-width=".7"/></g><g class="key-Burundi_0"><circle cx="285" cy="283" r="2.27" fill="#5675c1" opacity=".8" stroke="#fff" stroke-width=".7"/></g><g class="key-Switzerland_0"><circle cx="620" cy="111" r="2.23" fill="#ffd336" opacity=".8" stroke="#fff" stroke-width=".7"/></g><g class="key-Honduras_0"><circle cx="309" cy="255" r="2.23" fill="#4d824b" opacity=".8" stroke="#fff" stroke-width=".7"/></g><g class="key-United-Arab-Emirates_0"><circle cx="112" cy="442" r="2.22" fill="#d14e5b" opacity=".8" stroke="#fff" stroke-width=".7"/></g><g class="key-Bulgaria_0"><circle cx="472" cy="191" r="2.22" fill="#ffd336" opacity=".8" stroke="#fff" stroke-width=".7"/></g><g class="key-Israel_0"><circle cx="328" cy="226" r="2.22" fill="#d14e5b" opacity=".8" stroke="#fff" stroke-width=".7"/></g><g class="key-Tajikistan_0"><circle cx="113" cy="452" r="2.19" fill="#d14e5b" opacity=".8" stroke="#fff" stroke-width=".7"/></g><g class="key-Papua-New-Guinea_0"><circle cx="223" cy="309" r="2.19" fill="#a652ba" opacity=".8" stroke="#fff" stroke-width=".7"/></g><g class="key-Paraguay_0"><circle cx="411" cy="200" r="2.17" fill="#69c487" opacity=".8" stroke="#fff" stroke-width=".7"/></g><g class="key-Libya_0"><circle cx="93" cy="499" r="2.16" fill="#5675c1" opacity=".8" stroke="#333" stroke-width=".7"/></g><g class="key-Laos_0"><circle cx="314" cy="253" r="2.15" fill="#d14e5b" opacity=".8" stroke="#fff" stroke-width=".7"/></g><g class="key-El-Salvador_0"><circle cx="299" cy="270" r="2.15" fill="#4d824b" opacity=".8" stroke="#fff" stroke-width=".7"/></g><g class="key-Jordan_0"><circle cx="96" cy="481" r="2.15" fill="#d14e5b" opacity=".8" stroke="#fff" stroke-width=".7"/></g><g class="key-Togo_0"><circle cx="445" cy="213" r="2.14" fill="#5675c1" opacity=".8" stroke="#333" stroke-width=".7"/></g><g class="key-Sierra-Leone_0"><circle cx="301" cy="271" r="2.14" fill="#5675c1" opacity=".8" stroke="#fff" stroke-width=".7"/></g><g class="key-Nicaragua_0"><circle cx="326" cy="248" r="2.13" fill="#4d824b" opacity=".8" stroke="#fff" stroke-width=".7"/></g><g class="key-Denmark_0"><circle cx="620" cy="110" r="2.12" fill="#ffd336" opacity=".8" stroke="#fff" stroke-width=".7"/></g><g class="key-Slovakia_0"><circle cx="466" cy="201" r="2.11" fill="#ffd336" opacity=".8" stroke="#fff" stroke-width=".7"/></g><g class="key-Finland_0"><circle cx="476" cy="189" r="2.11" fill="#ffd336" opacity=".8" stroke="#fff" stroke-width=".7"/></g><g class="key-Kyrgyzstan_0"><circle cx="257" cy="297" r="2.11" fill="#d14e5b" opacity=".8" stroke="#fff" stroke-width=".7"/></g><g class="key-Eritrea_0"><circle cx="332" cy="306" r="2.1" fill="#5675c1" opacity=".8" stroke="#333" stroke-width=".7"/></g><g class="key-Singapore_0"><circle cx="292" cy="218" r="2.09" fill="#d14e5b" opacity=".8" stroke="#333" stroke-width=".7"/></g><g class="key-Turkmenistan_0"><circle cx="177" cy="229" r="2.09" fill="#d14e5b" opacity=".8" stroke="#333" stroke-width=".7"/></g><g class="key-Norway_0"><circle cx="581" cy="106" r="2.08" fill="#ffd336" opacity=".8" stroke="#fff" stroke-width=".7"/></g><g class="key-Costa-Rica_0"><circle cx="338" cy="242" r="2.07" fill="#4d824b" opacity=".8" stroke="#fff" stroke-width=".7"/></g><g class="key-Ireland_0"><circle cx="569" cy="142" r="2.06" fill="#ffd336" opacity=".8" stroke="#fff" stroke-width=".7"/></g><g class="key-Croatia_0"><circle cx="527" cy="112" r="2.05" fill="#ffd336" opacity=".8" stroke="#333" stroke-width=".7"/></g><g class="key-Central-African-Republic_0"><circle cx="161" cy="377" r="2.05" fill="#5675c1" opacity=".8" stroke="#fff" stroke-width=".7"/></g><g class="key-New-Zealand_0"><circle cx="553" cy="142" r="2.05" fill="#a652ba" opacity=".8" stroke="#fff" stroke-width=".7"/></g><g class="key-Georgia_0"><circle cx="202" cy="267" r="2.05" fill="#d14e5b" opacity=".8" stroke="#333" stroke-width=".7"/></g><g class="key-Lebanon_0"><circle cx="129" cy="457" r="2.04" fill="#d14e5b" opacity=".8" stroke="#fff" stroke-width=".7"/></g><g class="key-Congo_0"><circle cx="180" cy="329" r="2.03" fill="#5675c1" opacity=".8" stroke="#fff" stroke-width=".7"/></g><g class="key-Liberia_0"><circle cx="199" cy="331" r="2.03" fill="#5675c1" opacity=".8" stroke="#fff" stroke-width=".7"/></g><g class="key-Bosnia-and-Herzegovina_0"><circle cx="375" cy="212" r="2.02" fill="#ffd336" opacity=".8" stroke="#fff" stroke-width=".7"/></g><g class="key-Moldova_0"><circle cx="464" cy="193" r="2.01" fill="#ffd336" opacity=".8" stroke="#fff" stroke-width=".7"/></g><g class="key-Panama_0"><circle cx="393" cy="206" r="2" fill="#4d824b" opacity=".8" stroke="#fff" stroke-width=".7"/></g><g class="key-Mauritania_0"><circle cx="93" cy="499" r="2" fill="#5675c1" opacity=".8" stroke="#fff" stroke-width=".7"/></g><g class="key-Uruguay_0"><circle cx="388" cy="207" r="1.99" fill="#69c487" opacity=".8" stroke="#fff" stroke-width=".7"/></g><g class="key-Lithuania_0"><circle cx="453" cy="192" r="1.99" fill="#ffd336" opacity=".8" stroke="#fff" stroke-width=".7"/></g><g class="key-Albania_0"><circle cx="376" cy="245" r="1.98" fill="#ffd336" opacity=".8" stroke="#fff" stroke-width=".7"/></g><g class="key-Armenia_0"><circle cx="361" cy="146" r="1.98" fill="#d14e5b" opacity=".8" stroke="#333" stroke-width=".7"/></g><g class="key-Oman_0"><circle cx="104" cy="480" r="1.96" fill="#d14e5b" opacity=".8" stroke="#fff" stroke-width=".7"/></g><g class="key-Mongolia_0"><circle cx="304" cy="266" r="1.96" fill="#d14e5b" opacity=".8" stroke="#fff" stroke-width=".7"/></g><g class="key-Jamaica_0"><circle cx="306" cy="265" r="1.96" fill="#4d824b" opacity=".8" stroke="#fff" stroke-width=".7"/></g><g class="key-Kuwait_0"><circle cx="104" cy="454" r="1.96" fill="#d14e5b" opacity=".8" stroke="#fff" stroke-width=".7"/></g><g class="key-Namibia_0"><circle cx="271" cy="298" r="1.93" fill="#5675c1" opacity=".8" stroke="#fff" stroke-width=".7"/></g><g class="key-Latvia_0"><circle cx="477" cy="189" r="1.93" fill="#ffd336" opacity=".8" stroke="#fff" stroke-width=".7"/></g><g class="key-Lesotho_0"><circle cx="201" cy="329" r="1.92" fill="#5675c1" opacity=".8" stroke="#fff" stroke-width=".7"/></g><g class="key-Macedonia_0"><circle cx="371" cy="213" r="1.91" fill="#ffd336" opacity=".8" stroke="#fff" stroke-width=".7"/></g><g class="key-Slovenia_0"><circle cx="476" cy="194" r="1.91" fill="#ffd336" opacity=".8" stroke="#fff" stroke-width=".7"/></g><g class="key-Botswana_0"><circle cx="250" cy="266" r="1.91" fill="#5675c1" opacity=".8" stroke="#fff" stroke-width=".7"/></g><g class="key-Qatar_0"><circle cx="104" cy="480" r="1.9" fill="#d14e5b" opacity=".8" stroke="#fff" stroke-width=".7"/></g><g class="key-Gambia_0"><circle cx="121" cy="442" r="1.89" fill="#5675c1" opacity=".8" stroke="#333" stroke-width=".7"/></g><g class="key-Guinea__002dBissau_0"><circle cx="186" cy="321" r="1.88" fill="#5675c1" opacity=".8" stroke="#fff" stroke-width=".7"/></g><g class="key-Gabon_0"><circle cx="274" cy="285" r="1.88" fill="#5675c1" opacity=".8" stroke="#fff" stroke-width=".7"/></g><g class="key-Trinidad-and-Tobago_0"><circle cx="338" cy="241" r="1.87" fill="#4d824b" opacity=".8" stroke="#fff" stroke-width=".7"/></g><g class="key-Estonia_0"><circle cx="466" cy="204" r="1.87" fill="#ffd336" opacity=".8" stroke="#fff" stroke-width=".7"/></g><g class="key-Mauritius_0"><circle cx="208" cy="318" r="1.87" fill="#5675c1" opacity=".8" stroke="#fff" stroke-width=".7"/></g><g class="key-Bahrain_0"><circle cx="127" cy="463" r="1.87" fill="#d14e5b" opacity=".8" stroke="#fff" stroke-width=".7"/></g><g class="key-Swaziland_0"><circle cx="296" cy="274" r="1.86" fill="#5675c1" opacity=".8" stroke="#fff" stroke-width=".7"/></g><g class="key-Cyprus_0"><circle cx="571" cy="109" r="1.86" fill="#ffd336" opacity=".8" stroke="#333" stroke-width=".7"/></g><g class="key-Djibouti_0"><circle cx="103" cy="476" r="1.84" fill="#5675c1" opacity=".8" stroke="#fff" stroke-width=".7"/></g><g class="key-Fiji_0"><circle cx="282" cy="290" r="1.84" fill="#a652ba" opacity=".8" stroke="#fff" stroke-width=".7"/></g><g class="key-Guyana_0"><circle cx="393" cy="206" r="1.83" fill="#69c487" opacity=".8" stroke="#fff" stroke-width=".7"/></g><g class="key-Comoros_0"><circle cx="124" cy="437" r="1.83" fill="#5675c1" opacity=".8" stroke="#fff" stroke-width=".7"/></g><g class="key-Bhutan_0"><circle cx="109" cy="446" r="1.83" fill="#d14e5b" opacity=".8" stroke="#fff" stroke-width=".7"/></g><g class="key-Equatorial-Guinea_0"><circle cx="261" cy="291" r="1.83" fill="#5675c1" opacity=".8" stroke="#fff" stroke-width=".7"/></g><g class="key-Montenegro_0"><circle cx="452" cy="197" r="1.83" fill="#ffd336" opacity=".8" stroke="#fff" stroke-width=".7"/></g><g class="key-Solomon-Islands_0"><circle cx="208" cy="319" r="1.82" fill="#a652ba" opacity=".8" stroke="#fff" stroke-width=".7"/></g><g class="key-Suriname_0"><circle cx="344" cy="239" r="1.82" fill="#69c487" opacity=".8" stroke="#fff" stroke-width=".7"/></g><g class="key-Luxembourg_0"><circle cx="670" cy="98" r="1.82" fill="#ffd336" opacity=".8" stroke="#fff" stroke-width=".7"/></g><g class="key-Cape-Verde_0"><circle cx="265" cy="300" r="1.82" fill="#5675c1" opacity=".8" stroke="#fff" stroke-width=".7"/></g><g class="key-Malta_0"><circle cx="400" cy="203" r="1.81" fill="#ffd336" opacity=".8" stroke="#fff" stroke-width=".7"/></g><g class="key-Brunei_0"><circle cx="196" cy="412" r="1.81" fill="#d14e5b" opacity=".8" stroke="#333" stroke-width=".7"/></g><g class="key-Bahamas_0"><circle cx="357" cy="218" r="1.81" fill="#4d824b" opacity=".8" stroke="#fff" stroke-width=".7"/></g><g class="key-Iceland_0"><circle cx="474" cy="190" r="1.8" fill="#ffd336" opacity=".8" stroke="#fff" stroke-width=".7"/></g><g class="key-Maldives_0"><circle cx="107" cy="451" r="1.8" fill="#d14e5b" opacity=".8" stroke="#fff" stroke-width=".7"/></g><g class="key-Belize_0"><circle cx="158" cy="314" r="1.8" fill="#4d824b" opacity=".8" stroke="#fff" stroke-width=".7"/></g><g class="key-Barbados_0"><circle cx="477" cy="186" r="1.8" fill="#4d824b" opacity=".8" stroke="#fff" stroke-width=".7"/></g><g class="key-Vanuatu_0"><circle cx="205" cy="319" r="1.8" fill="#a652ba" opacity=".8" stroke="#fff" stroke-width=".7"/></g><g class="key-Samoa_0"><circle cx="301" cy="271" r="1.8" fill="#a652ba" opacity=".8" stroke="#fff" stroke-width=".7"/></g><g class="key-Saint-Lucia_0"><circle cx="348" cy="238" r="1.8" fill="#4d824b" opacity=".8" stroke="#fff" stroke-width=".7"/></g><g class="key-Sao-Tome-and-Principe_0"><circle cx="256" cy="297" r="1.79" fill="#5675c1" opacity=".8" stroke="#fff" stroke-width=".7"/></g><g class="key-Saint-Vincent-and-the-Grenadines_0"><circle cx="359" cy="217" r="1.79" fill="#4d824b" opacity=".8" stroke="#fff" stroke-width=".7"/></g><g class="key-Grenada_0"><circle cx="316" cy="250" r="1.79" fill="#4d824b" opacity=".8" stroke="#fff" stroke-width=".7"/></g><g class="key-Tonga_0"><circle cx="214" cy="313" r="1.79" fill="#a652ba" opacity=".8" stroke="#fff" stroke-width=".7"/></g><g class="key-Kiribati_0"><circle cx="203" cy="325" r="1.79" fill="#a652ba" opacity=".8" stroke="#fff" stroke-width=".7"/></g><g class="key-Antigua-and-Barbuda_0"><circle cx="464" cy="193" r="1.79" fill="#4d824b" opacity=".8" stroke="#fff" stroke-width=".7"/></g><g class="key-Seychelles_0"><circle cx="290" cy="272" r="1.79" fill="#5675c1" opacity=".8" stroke="#fff" stroke-width=".7"/></g><g class="key-Andorra_0"><circle cx="483" cy="192" r="1.79" fill="#ffd336" opacity=".8" stroke="#fff" stroke-width=".7"/></g><g class="key-Dominica_0"><circle cx="389" cy="207" r="1.79" fill="#4d824b" opacity=".8" stroke="#fff" stroke-width=".7"/></g><g class="key-Saint-Kitts-and-Nevis_0"><circle cx="282" cy="277" r="1.79" fill="#4d824b" opacity=".8" stroke="#fff" stroke-width=".7"/></g><g class="key-Palau_0"><circle cx="352" cy="220" r="1.79" fill="#a652ba" opacity=".8" stroke="#fff" stroke-width=".7"/></g><g class="key-Cook-Islands_0"><circle cx="298" cy="269" r="1.79" fill="#a652ba" opacity=".8" stroke="#fff" stroke-width=".7"/></g><g class="key-Nauru_0"><circle cx="175" cy="332" r="1.78" fill="#a652ba" opacity=".8" stroke="#fff" stroke-width=".7"/></g><g class="key-Tuvalu_0"><circle cx="174" cy="364" r="1.78" fill="#a652ba" opacity=".8" stroke="#fff" stroke-width=".7"/></g><g class="key-Niue_0"><circle cx="290" cy="273" r="1.78" fill="#a652ba" opacity=".8" stroke="#fff" stroke-width=".7"/></g><g class="key-Timor_0"><circle cx="102" cy="464" r="1.78" fill="#d14e5b" opacity=".8" stroke="#fff" stroke-width=".7"/></g><g class="key-Micronesia-__0028country__0029_0"><circle cx="278" cy="293" r="1.78" fill="#a652ba" opacity=".8" stroke="#fff" stroke-width=".7"/></g><g class="key-Yemen_0"><circle cx="100" cy="489" r="1.78" fill="#d14e5b" opacity=".8" stroke="#fff" stroke-width=".7"/></g><g fill="#333" class="backgroundLabels"><text x="265" y="239.16" font-size="14.3">China</text><text x="113" y="385.94" font-size="14.01">India</text><text x="481" y="174.28" font-size="11.76">United States</text><text x="113" y="454.28" font-size="11.59">Indonesia</text><text x="378" y="202" font-size="11.48">Brazil</text><text x="100" y="481.37" font-size="11.43">Pakistan</text><text x="264" y="251.64" font-size="11.39">Nigeria</text><text x="294" y="264.99" font-size="11.23">Philippines</text><text x="263" y="295.12" font-size="11.22">Vietnam</text><text x="152" y="416.24" font-size="11.2">Ethiopia</text><text x="579" y="148.25" font-size="11.2">Germany</text><text x="110" y="469.28" font-size="11.2">Egypt</text><text x="177" y="308.59" font-size="11.17">Thailand</text><text x="177" y="326.68" font-size="11.16">Democratic Republic of Congo</text><text x="672" y="87.75" font-size="11.15">France</text><text x="594" y="127.79" font-size="11.15">United Kingdom</text><text x="429" y="151.83" font-size="11.15">Italy</text><text x="319" y="246.25" font-size="11.11">Colombia</text><text x="483" y="187.26" font-size="11.11">Spain</text><text x="284" y="280.3" font-size="11.11">Tanzania</text><text x="167" y="366.44" font-size="11.1">Kenya</text><text x="345" y="233.51" font-size="11.09">Poland</text><text x="361" y="215.84" font-size="11.07">Peru</text><text x="125" y="427.86" font-size="11.07">Malaysia</text><text x="177" y="246.9" font-size="11.07">Uzbekistan</text><text x="144" y="391.05" font-size="11.06">Mozambique</text><text x="147" y="353.2" font-size="11.05">Cote d&apos;Ivoire</text><text x="611" y="103.34" font-size="11.04">Netherlands</text><text x="416" y="196.59" font-size="11.03">Cuba</text><text x="531" y="120.67" font-size="11.02">Belarus</text><text x="93" y="495.84" font-size="11.02">Libya</text><text x="445" y="209.86" font-size="11.01">Togo</text><text x="332" y="302.9" font-size="11.01">Eritrea</text><text x="292" y="214.91" font-size="11.01">Singapore</text><text x="177" y="225.91" font-size="11.01">Turkmenistan</text><text x="527" y="108.95" font-size="11.01">Croatia</text><text x="202" y="263.95" font-size="11.01">Georgia</text><text x="361" y="143.02" font-size="11.01">Armenia</text><text x="121" y="439.11" font-size="11">Gambia</text><text x="571" y="106.14" font-size="11">Cyprus</text><text x="196" y="409.19" font-size="11">Brunei</text></g></g><g class="ScatterColorLegend clickable" cursor="pointer"><g class="legendMark">,<path fill="#5675c1" d="M735 79.6h6v6h-6z"/>,<text font-size="12.6" x="746" y="86.7"><tspan x="746" y="86.68">Africa</tspan></text></g><g class="legendMark">,<path fill="#d14e5b" d="M735 97.2h6v6h-6z"/>,<text font-size="12.6" x="746" y="104.3"><tspan x="746" y="104.28">Asia</tspan></text></g><g class="legendMark">,<path fill="#ffd336" d="M735 114.8h6v6h-6z"/>,<text font-size="12.6" x="746" y="121.9"><tspan x="746" y="121.88">Europe</tspan></text></g><g class="legendMark">,<path fill="#4d824b" d="M735 132.4h6v6h-6z"/>,<text font-size="12.6" x="746" y="139.5"><tspan x="746" y="139.48">North America</tspan></text></g><g class="legendMark">,<path fill="#a652ba" d="M735 150h6v6h-6z"/>,<text font-size="12.6" x="746" y="157.1"><tspan x="746" y="157.08">Oceania</tspan></text></g><g class="legendMark">,<path fill="#69c487" d="M735 167.6h6v6h-6z"/>,<text font-size="12.6" x="746" y="174.7"><tspan x="746" y="174.68">South America</tspan></text></g></g></g><g class="SourcesFooter" fill="#777"><g class="clickable" fill="#777"><text font-size="12.6" x="15" y="581.6"><tspan x="15" y="581.58">Source: WHO, Global Health Observatory (GHO)</tspan></text></g><text font-size="12.6" x="775.4" y="581.6"><tspan x="775.4" y="581.58"><a class="cclogo" href="http://creativecommons.org/licenses/by-sa/4.0/deed.en_US" target="_blank" fill="#777">CC BY-SA</a></tspan></text></g></g></svg>