<svg xmlns="http://www.w3.org/2000/svg" version="1.1" style="background-color:#fff;-webkit-font-smoothing:antialiased" width="850" height="600" font-family="'Helvetica Neue',Helvetica,Arial,sans-serif" font-size="18" text-rendering="optimizeLegibility"><g class="ChartTab"><g class="HeaderView"><g opacity=".8" transform="matrix(.31 0 0 .31 770 15)"><a xmlns:xlink="http://www.w3.org/1999/xlink" xlink:href="https://ourworldindata.org" target="_blank"><g><path fill="#1B2543" d="M0 0h211.2v130.1H0z"/><path fill="#E63912" d="M0 112.2h211.2v17.9H0z"/><g><path fill="none" d="M1.2 12.3h210.2v99.2H1.2z"/><path fill="#FFF" d="M37.8 32.2c0 12.7-7.7 19.4-17.1 19.4-9.7 0-16.6-7.5-16.6-18.7 0-11.7 7.3-19.3 17.1-19.3 10.1.1 16.6 7.7 16.6 18.6zm-28.6.6c0 7.9 4.3 14.9 11.8 14.9 7.5 0 11.8-6.9 11.8-15.3 0-7.3-3.8-14.9-11.8-14.9-7.9 0-11.8 7.3-11.8 15.3zM62.7 43.8c0 2.7.1 5.1.2 7.2h-4.3l-.3-4.3h-.1c-1.3 2.1-4 4.9-8.8 4.9-4.2 0-9.1-2.3-9.1-11.6V24.6h4.8v14.6c0 5 1.5 8.4 5.9 8.4 3.2 0 5.5-2.2 6.3-4.4.3-.7.4-1.6.4-2.5V24.6h4.8v19.2zM67.3 32.8c0-3.1-.1-5.8-.2-8.2h4.2l.2 5.2h.2c1.2-3.5 4.1-5.8 7.3-5.8.5 0 .9.1 1.4.2v4.5c-.5-.1-1-.2-1.6-.2-3.4 0-5.8 2.6-6.5 6.2-.1.7-.2 1.4-.2 2.2V51h-4.8V32.8zM95.4 51L86 14.2h5l4.4 18.6c1.1 4.6 2.1 9.2 2.7 12.7h.1c.6-3.7 1.8-8 3-12.8l4.9-18.5h5l4.5 18.7c1 4.4 2 8.7 2.6 12.6h.1c.8-4 1.8-8.1 3-12.7l4.9-18.5h4.9L120.6 51h-5L111 31.9c-1.1-4.7-1.9-8.3-2.4-12h-.1c-.7 3.7-1.5 7.3-2.8 12L100.4 51h-5zM154.9 37.6c0 9.8-6.8 14-13.2 14-7.2 0-12.7-5.2-12.7-13.6 0-8.8 5.8-14 13.1-14 7.7 0 12.8 5.5 12.8 13.6zm-21 .3c0 5.8 3.3 10.1 8 10.1 4.6 0 8-4.3 8-10.3 0-4.5-2.2-10.1-7.9-10.1s-8.1 5.2-8.1 10.3zM158.2 32.8c0-3.1-.1-5.8-.2-8.2h4.2l.2 5.2h.2c1.2-3.5 4.1-5.8 7.3-5.8.5 0 .9.1 1.4.2v4.5c-.5-.1-1-.2-1.6-.2-3.4 0-5.8 2.6-6.5 6.2-.1.7-.2 1.4-.2 2.2V51h-4.8V32.8zM173.5 12.3h4.8V51h-4.8V12.3zM206.5 12.3v31.9c0 2.3.1 5 .2 6.8h-4.3l-.2-4.6h-.2c-1.5 2.9-4.7 5.2-9 5.2-6.4 0-11.3-5.4-11.3-13.4-.1-8.8 5.4-14.2 11.9-14.2 4 0 6.8 1.9 8 4h.1V12.3h4.8zm-4.8 23.1c0-.6-.1-1.4-.2-2a7 7 0 00-6.9-5.6c-5 0-7.9 4.4-7.9 10.2 0 5.3 2.6 9.8 7.8 9.8 3.2 0 6.2-2.1 7.1-5.7.2-.7.2-1.3.2-2.1v-4.6zM42.8 64c.1 1.6-1.1 2.9-3.1 2.9-1.7 0-2.9-1.3-2.9-2.9 0-1.7 1.3-3 3-3 1.9 0 3 1.3 3 3zm-5.4 33.8V71.4h4.8v26.4h-4.8zM47.5 78.6c0-2.7-.1-5-.2-7.1h4.3l.3 4.4h.1c1.3-2.5 4.4-5 8.8-5 3.7 0 9.4 2.2 9.4 11.2v15.8h-4.8V82.6c0-4.3-1.6-7.8-6.1-7.8-3.2 0-5.6 2.2-6.5 4.9-.2.6-.3 1.4-.3 2.2v15.9h-4.8V78.6zM84 61.6c2.9-.4 6.3-.8 10.1-.8 6.8 0 11.7 1.6 14.9 4.6 3.3 3 5.2 7.3 5.2 13.2 0 6-1.9 10.9-5.3 14.3-3.4 3.4-9.1 5.3-16.3 5.3-3.4 0-6.2-.2-8.6-.4V61.6zm4.8 32.5c1.2.2 3 .3 4.8.3 10.2 0 15.7-5.7 15.7-15.6.1-8.7-4.9-14.2-14.9-14.2-2.5 0-4.3.2-5.6.5v29zM132.1 97.8l-.4-3.3h-.2a9.79 9.79 0 01-8.1 3.9c-5.4 0-8.1-3.8-8.1-7.6 0-6.4 5.7-9.9 15.9-9.8v-.5c0-2.2-.6-6.1-6-6.1-2.5 0-5 .8-6.9 2l-1.1-3.2c2.2-1.4 5.4-2.3 8.7-2.3 8.1 0 10.1 5.5 10.1 10.8v9.9c0 2.3.1 4.5.4 6.3h-4.3zm-.7-13.4c-5.3-.1-11.2.8-11.2 5.9 0 3.1 2.1 4.6 4.5 4.6 3.4 0 5.6-2.2 6.4-4.4.2-.5.3-1 .3-1.5v-4.6zM146.6 63.9v7.6h6.9v3.7h-6.9v14.2c0 3.3.9 5.1 3.6 5.1 1.3 0 2.2-.2 2.8-.3l.2 3.6c-.9.4-2.4.7-4.3.7-2.2 0-4-.7-5.2-2-1.4-1.4-1.9-3.8-1.9-6.9V75.1h-4.1v-3.7h4.1v-6.3l4.8-1.2zM171.4 97.8l-.4-3.3h-.2a9.79 9.79 0 01-8.1 3.9c-5.4 0-8.1-3.8-8.1-7.6 0-6.4 5.7-9.9 15.9-9.8v-.5c0-2.2-.6-6.1-6-6.1-2.5 0-5 .8-6.9 2l-1.1-3.2c2.2-1.4 5.4-2.3 8.7-2.3 8.1 0 10.1 5.5 10.1 10.8v9.9c0 2.3.1 4.5.4 6.3h-4.3zm-.7-13.4c-5.3-.1-11.2.8-11.2 5.9 0 3.1 2.1 4.6 4.5 4.6 3.4 0 5.6-2.2 6.4-4.4.2-.5.3-1 .3-1.5v-4.6z"/></g></g></a></g><a href="https://ourworldindata.org/grapher/malnutrition-death-rate-vs-gdp-per-capita" target="_blank"><text font-size="27" x="15" y="36.6" fill="#555"><tspan x="15" y="36.6">Malnutrition death rate vs. GDP per capita, 2016</tspan></text></a><text font-size="14.4" x="15" y="55.5" fill="#666"><tspan x="15" y="55.52">Protein-energy malnutrition (PEM) death rate, measured per 100,000 individuals versus gross domestic product</tspan><tspan x="15" y="71.36">(GDP) per capita, measured in 2011 international-$. PEM occurs as a result of insufficient caloric or protein intake.</tspan></text></g><g><g class="AxisBoxView"><g class="HorizontalAxis"><text font-size="12.6" x="218.3" y="554"><tspan x="218.34" y="553.98">GDP per capita, PPP (constant 2011 international $)</tspan></text><text x="168.4" y="533.9" fill="#666" text-anchor="middle" font-size="16.2">$20,000</text><text x="279.7" y="533.9" fill="#666" text-anchor="middle" font-size="16.2">$40,000</text><text x="391" y="533.9" fill="#666" text-anchor="middle" font-size="16.2">$60,000</text><text x="502.3" y="533.9" fill="#666" text-anchor="middle" font-size="16.2">$80,000</text><text x="613.6" y="533.9" fill="#666" text-anchor="middle" font-size="16.2">$100,000</text></g><g class="VerticalAxis"><text font-size="12.6" x="-471.1" y="25.1" transform="rotate(-90)"><tspan x="-471.11" y="25.08">Protein-energy malnutrition death rate (per 100,000)</tspan></text><text x="55.74" y="443.1" fill="#666" dominant-baseline="middle" text-anchor="end" font-size="16.2">10</text><text x="55.74" y="373.5" fill="#666" dominant-baseline="middle" text-anchor="end" font-size="16.2">20</text><text x="55.74" y="303.8" fill="#666" dominant-baseline="middle" text-anchor="end" font-size="16.2">30</text><text x="55.74" y="234.1" fill="#666" dominant-baseline="middle" text-anchor="end" font-size="16.2">40</text><text x="55.74" y="164.5" fill="#666" dominant-baseline="middle" text-anchor="end" font-size="16.2">50</text><text x="55.74" y="94.8" fill="#666" dominant-baseline="middle" text-anchor="end" font-size="16.2">60</text></g><g class="AxisGridLines" stroke="#ddd" stroke-dasharray="3,2"><path d="M60.74 443.1H715M60.74 373.5H715M60.74 303.8H715M60.74 234.1H715M60.74 164.5H715M60.74 94.8H715"/></g><g class="AxisGridLines" stroke="#ddd" stroke-dasharray="3,2"><path d="M168.4 512.7V93.9M279.7 512.7V93.9M391 512.7V93.9M502.3 512.7V93.9M613.6 512.7V93.9"/></g></g><g clip-path="url(#a)" class="PointsWithLabels clickable"><path fill="rgba(255,255,255,0)" d="M60.74 93.9H715v418.8H60.74z"/><defs><clipPath id="a"><path d="M50.74 83.9H725v438.8H50.74z"/></clipPath></defs><circle cx="137" cy="504" r="17.84" fill="#d14e5b" opacity=".8"/><circle cx="91" cy="496" r="17.29" fill="#d14e5b" opacity=".8"/><circle cx="353" cy="507" r="8.78" fill="#4d824b" opacity=".8"/><circle cx="117" cy="405" r="7.78" fill="#d14e5b" opacity=".8"/><circle cx="135" cy="476" r="7.04" fill="#69c487" opacity=".8"/><circle cx="84" cy="500" r="6.76" fill="#d14e5b" opacity=".8"/><circle cx="87" cy="414" r="6.54" fill="#5675c1" opacity=".8"/><circle cx="75" cy="446" r="6.24" fill="#d14e5b" opacity=".8"/><circle cx="190" cy="512" r="6.02" fill="#ffd336" opacity=".8"/><circle cx="269" cy="508" r="5.7" fill="#d14e5b" opacity=".8"/><circle cx="150" cy="447" r="5.51" fill="#4d824b" opacity=".8"/><circle cx="97" cy="452" r="5.09" fill="#d14e5b" opacity=".8"/><circle cx="90" cy="512" r="4.92" fill="#d14e5b" opacity=".8"/><circle cx="66" cy="339" r="4.86" fill="#5675c1" opacity=".8"/><circle cx="114" cy="504" r="4.79" fill="#5675c1" opacity=".8"/><circle cx="302" cy="511" r="4.7" fill="#ffd336" opacity=".8"/><circle cx="188" cy="507" r="4.54" fill="#d14e5b" opacity=".8"/><circle cx="61" cy="164" r="4.44" fill="#5675c1" opacity=".8"/><circle cx="144" cy="506" r="4.41" fill="#d14e5b" opacity=".8"/><circle cx="268" cy="498" r="4.24" fill="#ffd336" opacity=".8"/><circle cx="273" cy="512" r="4.22" fill="#ffd336" opacity=".8"/><circle cx="249" cy="510" r="4.16" fill="#ffd336" opacity=".8"/><circle cx="125" cy="488" r="3.87" fill="#5675c1" opacity=".8"/><circle cx="71" cy="322" r="3.82" fill="#5675c1" opacity=".8"/><circle cx="86" cy="466" r="3.82" fill="#d14e5b" opacity=".8"/><circle cx="251" cy="511" r="3.81" fill="#d14e5b" opacity=".8"/><circle cx="130" cy="474" r="3.79" fill="#69c487" opacity=".8"/><circle cx="242" cy="511" r="3.75" fill="#ffd336" opacity=".8"/><circle cx="99" cy="511" r="3.68" fill="#ffd336" opacity=".8"/><circle cx="73" cy="364" r="3.65" fill="#5675c1" opacity=".8"/><circle cx="160" cy="495" r="3.58" fill="#69c487" opacity=".8"/><circle cx="201" cy="511" r="3.47" fill="#ffd336" opacity=".8"/><circle cx="134" cy="510" r="3.43" fill="#5675c1" opacity=".8"/><circle cx="66" cy="372" r="3.42" fill="#5675c1" opacity=".8"/><circle cx="81" cy="500" r="3.39" fill="#5675c1" opacity=".8"/><circle cx="296" cy="509" r="3.36" fill="#4d824b" opacity=".8"/><circle cx="146" cy="506" r="3.35" fill="#d14e5b" opacity=".8"/><circle cx="66" cy="495" r="3.34" fill="#d14e5b" opacity=".8"/><circle cx="97" cy="503" r="3.29" fill="#5675c1" opacity=".8"/><circle cx="69" cy="501" r="3.24" fill="#d14e5b" opacity=".8"/><circle cx="124" cy="478" r="3.19" fill="#69c487" opacity=".8"/><circle cx="199" cy="510" r="3.17" fill="#d14e5b" opacity=".8"/><circle cx="337" cy="509" r="3.16" fill="#d14e5b" opacity=".8"/><circle cx="90" cy="512" r="3.12" fill="#d14e5b" opacity=".8"/><circle cx="79" cy="438" r="3.04" fill="#5675c1" opacity=".8"/><circle cx="63" cy="374" r="3" fill="#5675c1" opacity=".8"/><circle cx="304" cy="510" r="2.92" fill="#a652ba" opacity=".8"/><circle cx="64" cy="135" r="2.9" fill="#5675c1" opacity=".8"/><circle cx="120" cy="506" r="2.85" fill="#d14e5b" opacity=".8"/><circle cx="177" cy="511" r="2.85" fill="#ffd336" opacity=".8"/><circle cx="76" cy="407" r="2.84" fill="#5675c1" opacity=".8"/><circle cx="74" cy="418" r="2.83" fill="#5675c1" opacity=".8"/><circle cx="90" cy="294" r="2.82" fill="#5675c1" opacity=".8"/><circle cx="66" cy="322" r="2.71" fill="#5675c1" opacity=".8"/><circle cx="183" cy="493" r="2.69" fill="#69c487" opacity=".8"/><circle cx="62" cy="359" r="2.68" fill="#5675c1" opacity=".8"/><circle cx="68" cy="292" r="2.66" fill="#5675c1" opacity=".8"/><circle cx="319" cy="510" r="2.66" fill="#ffd336" opacity=".8"/><circle cx="187" cy="510" r="2.65" fill="#d14e5b" opacity=".8"/><circle cx="63" cy="290" r="2.64" fill="#5675c1" opacity=".8"/><circle cx="98" cy="314" r="2.6" fill="#4d824b" opacity=".8"/><circle cx="115" cy="472" r="2.58" fill="#69c487" opacity=".8"/><circle cx="76" cy="463" r="2.56" fill="#d14e5b" opacity=".8"/><circle cx="77" cy="251" r="2.55" fill="#5675c1" opacity=".8"/><circle cx="70" cy="420" r="2.51" fill="#5675c1" opacity=".8"/><circle cx="67" cy="305" r="2.5" fill="#5675c1" opacity=".8"/><circle cx="67" cy="341" r="2.45" fill="#5675c1" opacity=".8"/><circle cx="67" cy="333" r="2.42" fill="#5675c1" opacity=".8"/><circle cx="192" cy="512" r="2.41" fill="#ffd336" opacity=".8"/><circle cx="290" cy="506" r="2.38" fill="#ffd336" opacity=".8"/><circle cx="117" cy="510" r="2.38" fill="#5675c1" opacity=".8"/><circle cx="63" cy="396" r="2.38" fill="#5675c1" opacity=".8"/><circle cx="207" cy="509" r="2.38" fill="#ffd336" opacity=".8"/><circle cx="230" cy="509" r="2.37" fill="#ffd336" opacity=".8"/><circle cx="94" cy="434" r="2.36" fill="#69c487" opacity=".8"/><circle cx="66" cy="434" r="2.36" fill="#4d824b" opacity=".8"/><circle cx="135" cy="497" r="2.36" fill="#4d824b" opacity=".8"/><circle cx="198" cy="512" r="2.34" fill="#ffd336" opacity=".8"/><circle cx="133" cy="512" r="2.33" fill="#ffd336" opacity=".8"/><circle cx="68" cy="413" r="2.32" fill="#5675c1" opacity=".8"/><circle cx="315" cy="510" r="2.32" fill="#ffd336" opacity=".8"/><circle cx="146" cy="510" r="2.32" fill="#d14e5b" opacity=".8"/><circle cx="150" cy="512" r="2.32" fill="#ffd336" opacity=".8"/><circle cx="61" cy="237" r="2.29" fill="#5675c1" opacity=".8"/><circle cx="302" cy="512" r="2.26" fill="#ffd336" opacity=".8"/><circle cx="430" cy="507" r="2.25" fill="#d14e5b" opacity=".8"/><circle cx="81" cy="487" r="2.25" fill="#4d824b" opacity=".8"/><circle cx="238" cy="510" r="2.23" fill="#d14e5b" opacity=".8"/><circle cx="372" cy="511" r="2.23" fill="#ffd336" opacity=".8"/><circle cx="155" cy="512" r="2.21" fill="#ffd336" opacity=".8"/><circle cx="72" cy="507" r="2.2" fill="#d14e5b" opacity=".8"/><circle cx="106" cy="462" r="2.18" fill="#69c487" opacity=".8"/><circle cx="103" cy="510" r="2.17" fill="#d14e5b" opacity=".8"/><circle cx="89" cy="469" r="2.16" fill="#d14e5b" opacity=".8"/><circle cx="64" cy="426" r="2.16" fill="#5675c1" opacity=".8"/><circle cx="101" cy="470" r="2.15" fill="#4d824b" opacity=".8"/><circle cx="64" cy="391" r="2.15" fill="#5675c1" opacity=".8"/><circle cx="85" cy="488" r="2.14" fill="#4d824b" opacity=".8"/><circle cx="311" cy="510" r="2.11" fill="#ffd336" opacity=".8"/><circle cx="75" cy="511" r="2.11" fill="#d14e5b" opacity=".8"/><circle cx="219" cy="512" r="2.11" fill="#ffd336" opacity=".8"/><circle cx="276" cy="512" r="2.1" fill="#ffd336" opacity=".8"/><circle cx="510" cy="512" r="2.1" fill="#d14e5b" opacity=".8"/><circle cx="144" cy="511" r="2.09" fill="#d14e5b" opacity=".8"/><circle cx="412" cy="510" r="2.08" fill="#ffd336" opacity=".8"/><circle cx="142" cy="508" r="2.07" fill="#4d824b" opacity=".8"/><circle cx="60" cy="93" r="2.06" fill="#5675c1" opacity=".8"/><circle cx="406" cy="512" r="2.06" fill="#ffd336" opacity=".8"/><circle cx="253" cy="511" r="2.05" fill="#a652ba" opacity=".8"/><circle cx="176" cy="512" r="2.05" fill="#ffd336" opacity=".8"/><circle cx="61" cy="443" r="2.04" fill="#5675c1" opacity=".8"/><circle cx="86" cy="309" r="2.04" fill="#5675c1" opacity=".8"/><circle cx="129" cy="511" r="2.04" fill="#d14e5b" opacity=".8"/><circle cx="108" cy="512" r="2.04" fill="#d14e5b" opacity=".8"/><circle cx="119" cy="512" r="2.01" fill="#ffd336" opacity=".8"/><circle cx="77" cy="436" r="2.01" fill="#5675c1" opacity=".8"/><circle cx="175" cy="487" r="2.01" fill="#4d824b" opacity=".8"/><circle cx="84" cy="512" r="2" fill="#ffd336" opacity=".8"/><circle cx="168" cy="502" r="1.99" fill="#69c487" opacity=".8"/><circle cx="212" cy="512" r="1.98" fill="#ffd336" opacity=".8"/><circle cx="120" cy="511" r="1.98" fill="#ffd336" opacity=".8"/><circle cx="102" cy="512" r="1.97" fill="#d14e5b" opacity=".8"/><circle cx="120" cy="511" r="1.96" fill="#d14e5b" opacity=".8"/><circle cx="102" cy="486" r="1.95" fill="#4d824b" opacity=".8"/><circle cx="111" cy="468" r="1.93" fill="#5675c1" opacity=".8"/><circle cx="72" cy="462" r="1.92" fill="#5675c1" opacity=".8"/><circle cx="189" cy="512" r="1.92" fill="#ffd336" opacity=".8"/><circle cx="143" cy="485" r="1.91" fill="#5675c1" opacity=".8"/><circle cx="129" cy="512" r="1.91" fill="#ffd336" opacity=".8"/><circle cx="223" cy="512" r="1.91" fill="#ffd336" opacity=".8"/><circle cx="715" cy="512" r="1.91" fill="#d14e5b" opacity=".8"/><circle cx="65" cy="379" r="1.9" fill="#5675c1" opacity=".8"/><circle cx="65" cy="391" r="1.88" fill="#5675c1" opacity=".8"/><circle cx="150" cy="354" r="1.88" fill="#5675c1" opacity=".8"/><circle cx="221" cy="494" r="1.87" fill="#4d824b" opacity=".8"/><circle cx="211" cy="512" r="1.87" fill="#ffd336" opacity=".8"/><circle cx="165" cy="500" r="1.87" fill="#5675c1" opacity=".8"/><circle cx="100" cy="472" r="1.86" fill="#5675c1" opacity=".8"/><circle cx="230" cy="511" r="1.85" fill="#ffd336" opacity=".8"/><circle cx="106" cy="487" r="1.84" fill="#a652ba" opacity=".8"/><circle cx="65" cy="325" r="1.83" fill="#5675c1" opacity=".8"/><circle cx="102" cy="507" r="1.83" fill="#d14e5b" opacity=".8"/><circle cx="188" cy="399" r="1.83" fill="#5675c1" opacity=".8"/><circle cx="97" cy="448" r="1.83" fill="#69c487" opacity=".8"/><circle cx="144" cy="512" r="1.82" fill="#ffd336" opacity=".8"/><circle cx="68" cy="438" r="1.82" fill="#a652ba" opacity=".8"/><circle cx="130" cy="489" r="1.82" fill="#69c487" opacity=".8"/><circle cx="597" cy="507" r="1.82" fill="#ffd336" opacity=".8"/><circle cx="90" cy="499" r="1.81" fill="#5675c1" opacity=".8"/><circle cx="255" cy="512" r="1.81" fill="#ffd336" opacity=".8"/><circle cx="456" cy="511" r="1.81" fill="#d14e5b" opacity=".8"/><circle cx="176" cy="503" r="1.8" fill="#4d824b" opacity=".8"/><circle cx="309" cy="511" r="1.8" fill="#ffd336" opacity=".8"/><circle cx="100" cy="470" r="1.8" fill="#4d824b" opacity=".8"/><circle cx="125" cy="498" r="1.8" fill="#d14e5b" opacity=".8"/><circle cx="143" cy="501" r="1.8" fill="#4d824b" opacity=".8"/><circle cx="73" cy="442" r="1.8" fill="#a652ba" opacity=".8"/><circle cx="89" cy="479" r="1.79" fill="#a652ba" opacity=".8"/><circle cx="116" cy="493" r="1.79" fill="#4d824b" opacity=".8"/><circle cx="73" cy="402" r="1.79" fill="#5675c1" opacity=".8"/><circle cx="117" cy="467" r="1.79" fill="#4d824b" opacity=".8"/><circle cx="129" cy="496" r="1.79" fill="#4d824b" opacity=".8"/><circle cx="86" cy="473" r="1.79" fill="#a652ba" opacity=".8"/><circle cx="67" cy="309" r="1.79" fill="#a652ba" opacity=".8"/><circle cx="172" cy="491" r="1.79" fill="#4d824b" opacity=".8"/><circle cx="203" cy="504" r="1.79" fill="#5675c1" opacity=".8"/><circle cx="113" cy="500" r="1.79" fill="#4d824b" opacity=".8"/><circle cx="78" cy="462" r="1.78" fill="#a652ba" opacity=".8"/><circle cx="70" cy="498" r="1.78" fill="#d14e5b" opacity=".8"/><circle cx="140" cy="480" r="1.78" fill="#000" opacity=".8"/><circle cx="75" cy="449" r="1.78" fill="#a652ba" opacity=".8"/><circle cx="72" cy="506" r="1.78" fill="#d14e5b" opacity=".8"/><text x="137" y="485.16" font-size="14.3" font-family="Arial Narrow, Arial, sans-serif" fill="#666">China</text><text x="91" y="477.71" font-size="14.1" font-family="Arial Narrow, Arial, sans-serif" fill="#666">India</text><text x="353" y="497.22" font-size="11.77" font-family="Arial Narrow, Arial, sans-serif" fill="#666">United States</text><text x="117" y="396.22" font-size="11.6" font-family="Arial Narrow, Arial, sans-serif" fill="#666">Indonesia</text><text x="135" y="467.96" font-size="11.49" font-family="Arial Narrow, Arial, sans-serif" fill="#666">Brazil</text><text x="84" y="492.24" font-size="11.44" font-family="Arial Narrow, Arial, sans-serif" fill="#666">Pakistan</text><text x="75" y="438.76" font-size="11.37" font-family="Arial Narrow, Arial, sans-serif" fill="#666">Bangladesh</text><text x="190" y="504.98" font-size="11.35" font-family="Arial Narrow, Arial, sans-serif" fill="#666">Russia</text><text x="269" y="501.3" font-size="11.31" font-family="Arial Narrow, Arial, sans-serif" fill="#666">Japan</text><text x="150" y="440.49" font-size="11.29" font-family="Arial Narrow, Arial, sans-serif" fill="#666">Mexico</text><text x="90" y="506.08" font-size="11.22" font-family="Arial Narrow, Arial, sans-serif" fill="#666">Vietnam</text><text x="66" y="333.14" font-size="11.21" font-family="Arial Narrow, Arial, sans-serif" fill="#666">Ethiopia</text><text x="302" y="505.3" font-size="11.2" font-family="Arial Narrow, Arial, sans-serif" fill="#666">Germany</text><text x="61" y="158.56" font-size="11.17" font-family="Arial Narrow, Arial, sans-serif" fill="#666">Democratic Republic of Congo</text><text x="144" y="500.59" font-size="11.17" font-family="Arial Narrow, Arial, sans-serif" fill="#666">Thailand</text><text x="71" y="317.18" font-size="11.12" font-family="Arial Narrow, Arial, sans-serif" fill="#666">Tanzania</text><text x="86" y="461.18" font-size="11.12" font-family="Arial Narrow, Arial, sans-serif" fill="#666">Myanmar</text><text x="73" y="359.35" font-size="11.11" font-family="Arial Narrow, Arial, sans-serif" fill="#666">Kenya</text><text x="64" y="131.1" font-size="11.05" font-family="Arial Narrow, Arial, sans-serif" fill="#666">Madagascar</text><text x="74" y="414.17" font-size="11.05" font-family="Arial Narrow, Arial, sans-serif" fill="#666">Cameroon</text><text x="90" y="290.18" font-size="11.05" font-family="Arial Narrow, Arial, sans-serif" fill="#666">Angola</text><text x="183" y="489.31" font-size="11.04" font-family="Arial Narrow, Arial, sans-serif" fill="#666">Chile</text><text x="68" y="288.34" font-size="11.04" font-family="Arial Narrow, Arial, sans-serif" fill="#666">Mali</text><text x="77" y="247.45" font-size="11.03" font-family="Arial Narrow, Arial, sans-serif" fill="#666">Zambia</text><text x="67" y="301.5" font-size="11.03" font-family="Arial Narrow, Arial, sans-serif" fill="#666">Zimbabwe</text><text x="63" y="392.62" font-size="11.03" font-family="Arial Narrow, Arial, sans-serif" fill="#666">Guinea</text><text x="61" y="233.71" font-size="11.02" font-family="Arial Narrow, Arial, sans-serif" fill="#666">Burundi</text><text x="430" y="503.75" font-size="11.02" font-family="Arial Narrow, Arial, sans-serif" fill="#666">United Arab Emirates</text><text x="238" y="506.77" font-size="11.02" font-family="Arial Narrow, Arial, sans-serif" fill="#666">Israel</text><text x="60" y="104.91" font-size="11.01" font-family="Arial Narrow, Arial, sans-serif" fill="#666">Central African Republic</text><text x="687.38" y="509.09" font-size="11" font-family="Arial Narrow, Arial, sans-serif" fill="#666">Qatar</text><text x="65" y="376.1" font-size="11" font-family="Arial Narrow, Arial, sans-serif" fill="#666">Gambia</text><text x="150" y="351.12" font-size="11" font-family="Arial Narrow, Arial, sans-serif" fill="#666">Gabon</text><text x="188" y="396.17" font-size="11" font-family="Arial Narrow, Arial, sans-serif" fill="#666">Equatorial Guinea</text><text x="597" y="504.18" font-size="11" font-family="Arial Narrow, Arial, sans-serif" fill="#666">Luxembourg</text></g><g class="ScatterColorLegend clickable" cursor="pointer"><g class="legendMark">,<path fill="#5675c1" d="M735 96.9h6v6h-6z"/>,<text font-size="12.6" x="746" y="104"><tspan x="746" y="103.98">Africa</tspan></text></g><g class="legendMark">,<path fill="#d14e5b" d="M735 114.5h6v6h-6z"/>,<text font-size="12.6" x="746" y="121.6"><tspan x="746" y="121.58">Asia</tspan></text></g><g class="legendMark">,<path fill="#ffd336" d="M735 132.1h6v6h-6z"/>,<text font-size="12.6" x="746" y="139.2"><tspan x="746" y="139.18">Europe</tspan></text></g><g class="legendMark">,<path fill="#4d824b" d="M735 149.7h6v6h-6z"/>,<text font-size="12.6" x="746" y="156.8"><tspan x="746" y="156.78">North America</tspan></text></g><g class="legendMark">,<path fill="#a652ba" d="M735 167.3h6v6h-6z"/>,<text font-size="12.6" x="746" y="174.4"><tspan x="746" y="174.38">Oceania</tspan></text></g><g class="legendMark">,<path fill="#69c487" d="M735 184.9h6v6h-6z"/>,<text font-size="12.6" x="746" y="192"><tspan x="746" y="191.98">South America</tspan></text></g></g></g><g class="SourcesFooter" fill="#777"><g class="clickable" fill="#777"><text font-size="12.6" x="15" y="581.6"><tspan x="15" y="581.58">Source: IHME, Global Burden of Disease (GBD), World Bank – WDI</tspan></text></g><text font-size="12.6" x="649" y="581.6"><tspan x="649.02" y="581.58"><a target="_blank" href="https://ourworldindata.org" fill="#777">OurWorldInData.org</a> • <a href="http://creativecommons.org/licenses/by-sa/4.0/deed.en_US" target="_blank" fill="#777">CC BY-SA</a></tspan></text></g></g></svg>