<svg xmlns="http://www.w3.org/2000/svg" version="1.1" style="font-family:&#x27;Helvetica Neue&#x27;, Helvetica, Arial, sans-serif;font-size:18px;background-color:white;text-rendering:optimizeLegibility;-webkit-font-smoothing:antialiased" width="850" height="600"><g class="ChartTab"><g class="HeaderView"><g opacity="0.8" transform="translate(778, 15) scale(0.27)"><a xmlns:xlink="http://www.w3.org/1999/xlink" xlink:href="https://ourworldindata.org" target="_blank"><g><rect x="0" y="0" fill="#1B2543" width="211.2" height="130.1"/><rect x="0" y="112.2" fill="#E63912" width="211.2" height="17.9"/><g><rect x="1.2" y="12.3" fill="none" width="210.2" height="99.2"/><path fill="#FFFFFF" d="M37.8,32.2c0,12.7-7.7,19.4-17.1,19.4c-9.7,0-16.6-7.5-16.6-18.7c0-11.7,7.3-19.3,17.1-19.3 C31.3,13.7,37.8,21.3,37.8,32.2z M9.2,32.8c0,7.9,4.3,14.9,11.8,14.9c7.5,0,11.8-6.9,11.8-15.3c0-7.3-3.8-14.9-11.8-14.9 C13.1,17.5,9.2,24.8,9.2,32.8z"/><path fill="#FFFFFF" d="M62.7,43.8c0,2.7,0.1,5.1,0.2,7.2h-4.3l-0.3-4.3h-0.1c-1.3,2.1-4,4.9-8.8,4.9c-4.2,0-9.1-2.3-9.1-11.6 V24.6h4.8v14.6c0,5,1.5,8.4,5.9,8.4c3.2,0,5.5-2.2,6.3-4.4c0.3-0.7,0.4-1.6,0.4-2.5V24.6h4.8V43.8z"/><path fill="#FFFFFF" d="M67.3,32.8c0-3.1-0.1-5.8-0.2-8.2h4.2l0.2,5.2h0.2c1.2-3.5,4.1-5.8,7.3-5.8c0.5,0,0.9,0.1,1.4,0.2v4.5 c-0.5-0.1-1-0.2-1.6-0.2c-3.4,0-5.8,2.6-6.5,6.2c-0.1,0.7-0.2,1.4-0.2,2.2V51h-4.8V32.8z"/><path fill="#FFFFFF" d="M95.4,51l-9.4-36.8h5l4.4,18.6c1.1,4.6,2.1,9.2,2.7,12.7h0.1c0.6-3.7,1.8-8,3-12.8l4.9-18.5h5l4.5,18.7 c1,4.4,2,8.7,2.6,12.6h0.1c0.8-4,1.8-8.1,3-12.7l4.9-18.5h4.9L120.6,51h-5L111,31.9c-1.1-4.7-1.9-8.3-2.4-12h-0.1 c-0.7,3.7-1.5,7.3-2.8,12L100.4,51H95.4z"/><path fill="#FFFFFF" d="M154.9,37.6c0,9.8-6.8,14-13.2,14c-7.2,0-12.7-5.2-12.7-13.6c0-8.8,5.8-14,13.1-14 C149.8,24,154.9,29.5,154.9,37.6z M133.9,37.9c0,5.8,3.3,10.1,8,10.1c4.6,0,8-4.3,8-10.3c0-4.5-2.2-10.1-7.9-10.1 C136.3,27.6,133.9,32.8,133.9,37.9z"/><path fill="#FFFFFF" d="M158.2,32.8c0-3.1-0.1-5.8-0.2-8.2h4.2l0.2,5.2h0.2c1.2-3.5,4.1-5.8,7.3-5.8c0.5,0,0.9,0.1,1.4,0.2v4.5 c-0.5-0.1-1-0.2-1.6-0.2c-3.4,0-5.8,2.6-6.5,6.2c-0.1,0.7-0.2,1.4-0.2,2.2V51h-4.8V32.8z"/><path fill="#FFFFFF" d="M173.5,12.3h4.8V51h-4.8V12.3z"/><path fill="#FFFFFF" d="M206.5,12.3v31.9c0,2.3,0.1,5,0.2,6.8h-4.3l-0.2-4.6H202c-1.5,2.9-4.7,5.2-9,5.2 c-6.4,0-11.3-5.4-11.3-13.4c-0.1-8.8,5.4-14.2,11.9-14.2c4,0,6.8,1.9,8,4h0.1V12.3H206.5z M201.7,35.4c0-0.6-0.1-1.4-0.2-2 c-0.7-3.1-3.3-5.6-6.9-5.6c-5,0-7.9,4.4-7.9,10.2c0,5.3,2.6,9.8,7.8,9.8c3.2,0,6.2-2.1,7.1-5.7c0.2-0.7,0.2-1.3,0.2-2.1V35.4z"/><path fill="#FFFFFF" d="M42.8,64c0.1,1.6-1.1,2.9-3.1,2.9c-1.7,0-2.9-1.3-2.9-2.9c0-1.7,1.3-3,3-3C41.7,61,42.8,62.3,42.8,64z M37.4,97.8V71.4h4.8v26.4H37.4z"/><path fill="#FFFFFF" d="M47.5,78.6c0-2.7-0.1-5-0.2-7.1h4.3l0.3,4.4h0.1c1.3-2.5,4.4-5,8.8-5c3.7,0,9.4,2.2,9.4,11.2v15.8h-4.8 V82.6c0-4.3-1.6-7.8-6.1-7.8c-3.2,0-5.6,2.2-6.5,4.9c-0.2,0.6-0.3,1.4-0.3,2.2v15.9h-4.8V78.6z"/><path fill="#FFFFFF" d="M84,61.6c2.9-0.4,6.3-0.8,10.1-0.8c6.8,0,11.7,1.6,14.9,4.6c3.3,3,5.2,7.3,5.2,13.2c0,6-1.9,10.9-5.3,14.3 c-3.4,3.4-9.1,5.3-16.3,5.3c-3.4,0-6.2-0.2-8.6-0.4V61.6z M88.8,94.1c1.2,0.2,3,0.3,4.8,0.3c10.2,0,15.7-5.7,15.7-15.6 c0.1-8.7-4.9-14.2-14.9-14.2c-2.5,0-4.3,0.2-5.6,0.5V94.1z"/><path fill="#FFFFFF" d="M132.1,97.8l-0.4-3.3h-0.2c-1.5,2.1-4.3,3.9-8.1,3.9c-5.4,0-8.1-3.8-8.1-7.6c0-6.4,5.7-9.9,15.9-9.8v-0.5 c0-2.2-0.6-6.1-6-6.1c-2.5,0-5,0.8-6.9,2l-1.1-3.2c2.2-1.4,5.4-2.3,8.7-2.3c8.1,0,10.1,5.5,10.1,10.8v9.9c0,2.3,0.1,4.5,0.4,6.3 H132.1z M131.4,84.4c-5.3-0.1-11.2,0.8-11.2,5.9c0,3.1,2.1,4.6,4.5,4.6c3.4,0,5.6-2.2,6.4-4.4c0.2-0.5,0.3-1,0.3-1.5V84.4z"/><path fill="#FFFFFF" d="M146.6,63.9v7.6h6.9v3.7h-6.9v14.2c0,3.3,0.9,5.1,3.6,5.1c1.3,0,2.2-0.2,2.8-0.3l0.2,3.6 c-0.9,0.4-2.4,0.7-4.3,0.7c-2.2,0-4-0.7-5.2-2c-1.4-1.4-1.9-3.8-1.9-6.9V75.1h-4.1v-3.7h4.1v-6.3L146.6,63.9z"/><path fill="#FFFFFF" d="M171.4,97.8l-0.4-3.3h-0.2c-1.5,2.1-4.3,3.9-8.1,3.9c-5.4,0-8.1-3.8-8.1-7.6c0-6.4,5.7-9.9,15.9-9.8v-0.5 c0-2.2-0.6-6.1-6-6.1c-2.5,0-5,0.8-6.9,2l-1.1-3.2c2.2-1.4,5.4-2.3,8.7-2.3c8.1,0,10.1,5.5,10.1,10.8v9.9c0,2.3,0.1,4.5,0.4,6.3 H171.4z M170.7,84.4c-5.3-0.1-11.2,0.8-11.2,5.9c0,3.1,2.1,4.6,4.5,4.6c3.4,0,5.6-2.2,6.4-4.4c0.2-0.5,0.3-1,0.3-1.5V84.4z"/></g></g></a></g><a href="https://ourworldindata.org/grapher/maternal-mortality?country=FIN+USA+OWID_WRL" target="_blank"><text font-size="25.20" x="15.0" y="35.2" fill="#555"><tspan x="15" y="35.160000000000004">Maternal Mortality</tspan></text></a><text font-size="14.40" x="15.0" y="53.7" fill="#666"><tspan x="15" y="53.72">Maternal mortality ratio is the number of women who die from pregnancy-related causes while pregnant or within 42</tspan><tspan x="15" y="69.56">days of pregnancy termination per 100,000 live births. </tspan></text></g><g class="LineChart"><defs><clipPath id="boundsClip-19"><rect x="50.824" y="0" width="830" height="928.8"></rect></clipPath></defs><g class="AxisBoxView"><g class="HorizontalAxis"><text x="60.8" y="556.5" fill="#666" text-anchor="middle" font-size="16.2">1800</text><text x="213.8" y="556.5" fill="#666" text-anchor="middle" font-size="16.2">1850</text><text x="366.8" y="556.5" fill="#666" text-anchor="middle" font-size="16.2">1900</text><text x="519.7" y="556.5" fill="#666" text-anchor="middle" font-size="16.2">1950</text><text x="672.7" y="556.5" fill="#666" text-anchor="middle" font-size="16.2">2000</text><text x="718.6" y="556.5" fill="#666" text-anchor="middle" font-size="16.2">2015</text></g><g class="VerticalAxis"><text x="55.82" y="535.3" fill="#666" dominant-baseline="middle" text-anchor="end" font-size="16.2">0</text><text x="55.82" y="473.6" fill="#666" dominant-baseline="middle" text-anchor="end" font-size="16.2">200</text><text x="55.82" y="412" fill="#666" dominant-baseline="middle" text-anchor="end" font-size="16.2">400</text><text x="55.82" y="350.3" fill="#666" dominant-baseline="middle" text-anchor="end" font-size="16.2">600</text><text x="55.82" y="288.6" fill="#666" dominant-baseline="middle" text-anchor="end" font-size="16.2">800</text><text x="55.82" y="227" fill="#666" dominant-baseline="middle" text-anchor="end" font-size="16.2">1,000</text><text x="55.82" y="165.3" fill="#666" dominant-baseline="middle" text-anchor="end" font-size="16.2">1,200</text><text x="55.82" y="103.7" fill="#666" dominant-baseline="middle" text-anchor="end" font-size="16.2">1,400</text><text x="15" y="84.1" style="font-size:12px;text-transform:uppercase;cursor:pointer" class="clickable">linear</text></g><g class="AxisGridLines"><line x1="60.82" y1="535.3" x2="718.60" y2="535.3" stroke="#ccc"></line><line x1="60.82" y1="473.6" x2="718.60" y2="473.6" stroke="#ddd" stroke-dasharray="3,2"></line><line x1="60.82" y1="412" x2="718.60" y2="412" stroke="#ddd" stroke-dasharray="3,2"></line><line x1="60.82" y1="350.3" x2="718.60" y2="350.3" stroke="#ddd" stroke-dasharray="3,2"></line><line x1="60.82" y1="288.6" x2="718.60" y2="288.6" stroke="#ddd" stroke-dasharray="3,2"></line><line x1="60.82" y1="227" x2="718.60" y2="227" stroke="#ddd" stroke-dasharray="3,2"></line><line x1="60.82" y1="165.3" x2="718.60" y2="165.3" stroke="#ddd" stroke-dasharray="3,2"></line><line x1="60.82" y1="103.7" x2="718.60" y2="103.7" stroke="#ddd" stroke-dasharray="3,2"></line></g></g><g clip-path="url(#boundsClip-19)"><g class="HeightedLegend clickable"><g class="legendMark"><g class="indicator"><line x1="723.595" y1="534.4" x2="746.095" y2="534.4" stroke="#666" stroke-width="0.5"></line><line x1="746.095" y1="534.4" x2="746.095" y2="528.55" stroke="#666" stroke-width="0.5"></line><line x1="746.095" y1="528.55" x2="748.595" y2="528.55" stroke="#666" stroke-width="0.5"></line></g><rect x="718.595" y="521.8" width="79.415" height="13.5" fill="#fff" opacity="0"></rect><text font-size="13.50" x="753.6" y="532.6" fill="#3360a9"><tspan x="753.595" y="532.5999999999999">Finland</tspan></text></g><g class="legendMark"><g class="indicator"><line x1="723.595" y1="531" x2="736.095" y2="531" stroke="#666" stroke-width="0.5"></line><line x1="736.095" y1="531" x2="736.095" y2="513.05" stroke="#666" stroke-width="0.5"></line><line x1="736.095" y1="513.05" x2="748.595" y2="513.05" stroke="#666" stroke-width="0.5"></line></g><rect x="718.595" y="506.29999999999995" width="116.405" height="13.5" fill="#fff" opacity="0"></rect><text font-size="13.50" x="753.6" y="517.1" fill="#df3c64"><tspan x="753.595" y="517.0999999999999">United States</tspan></text></g><g class="legendMark"><g class="indicator"><line x1="723.595" y1="468.7" x2="736.095" y2="468.7" stroke="#666" stroke-width="0.5"></line><line x1="736.095" y1="468.7" x2="736.095" y2="468.7" stroke="#666" stroke-width="0.5"></line><line x1="736.095" y1="468.7" x2="748.595" y2="468.7" stroke="#666" stroke-width="0.5"></line></g><rect x="718.595" y="461.95" width="70.235" height="13.5" fill="#fff" opacity="0"></rect><text font-size="13.50" x="753.6" y="472.8" fill="#b077b1"><tspan x="753.595" y="472.75">World</tspan></text></g></g><g class="Lines"><rect x="61" y="92" width="658" height="443" fill="rgba(255,255,255,0)" opacity="0"></rect><g class="key-Finland_0"><path stroke="#3360a9" stroke-linecap="round" d="M61 281L64 278L67 268L70 287L73 292L76 276L79 302L85 224L88 186L91 254L95 251L98 238L101 287L107 295L110 257L113 250L119 265L122 268L125 269L128 285L131 263L134 265L137 293L140 293L143 256L147 254L150 275L153 275L156 263L159 288L162 177L165 275L168 251L171 254L174 227L177 254L180 243L183 259L186 272L189 299L192 267L195 303L199 297L202 265L205 269L208 294L211 319L214 289L217 302L220 266L223 258L226 271L229 221L232 218L235 243L238 199L241 231L244 247L247 273L251 245L254 271L257 270L260 276L263 239L266 239L269 92L272 239L275 282L278 282L284 302L287 291L293 206L296 257L300 283L303 295L306 266L309 276L312 323L315 318L318 331L321 315L324 276L327 286L330 302L333 333L336 353L339 350L342 363L345 342L348 385L352 364L355 381L358 389L361 405L364 379L367 383L370 394L373 386L376 407L379 396L382 411L385 418L388 412L391 415L394 407L397 421L400 404L404 421L407 414L410 409L413 430L416 423L419 419L422 399L425 412L428 424L431 434L434 442L437 440L440 428L443 445L446 437L449 444L452 443L456 425L459 435L462 443L465 445L468 458L471 462L474 461L477 368L480 380L483 403L486 412L489 388L492 429L495 404L498 408L501 399L504 411L508 453L511 469L514 482L517 487L520 490L523 498L526 497L529 494L532 502L535 503L538 501L541 508L544 505L547 515L550 513L553 518L556 519L560 520L563 522L566 527L569 526L572 529L575 527L578 531L581 532L584 532L587 532L590 533L593 533L596 533L599 533L602 533L605 534L609 534L642 534L645 534L648 534L651 534L654 534L657 534L661 534L664 534L667 534L670 534L673 534L676 534L679 534L682 534L685 534L688 534L691 534L694 534L697 534L700 534L703 534L706 534L709 534L713 534L716 534L719 534" fill="none" stroke-width="1.5"></path><g fill="#3360a9"><circle cx="61" cy="281" r="2"></circle><circle cx="64" cy="278" r="2"></circle><circle cx="67" cy="268" r="2"></circle><circle cx="70" cy="287" r="2"></circle><circle cx="73" cy="292" r="2"></circle><circle cx="76" cy="276" r="2"></circle><circle cx="79" cy="302" r="2"></circle><circle cx="85" cy="224" r="2"></circle><circle cx="88" cy="186" r="2"></circle><circle cx="91" cy="254" r="2"></circle><circle cx="95" cy="251" r="2"></circle><circle cx="98" cy="238" r="2"></circle><circle cx="101" cy="287" r="2"></circle><circle cx="107" cy="295" r="2"></circle><circle cx="110" cy="257" r="2"></circle><circle cx="113" cy="250" r="2"></circle><circle cx="119" cy="265" r="2"></circle><circle cx="122" cy="268" r="2"></circle><circle cx="125" cy="269" r="2"></circle><circle cx="128" cy="285" r="2"></circle><circle cx="131" cy="263" r="2"></circle><circle cx="134" cy="265" r="2"></circle><circle cx="137" cy="293" r="2"></circle><circle cx="140" cy="293" r="2"></circle><circle cx="143" cy="256" r="2"></circle><circle cx="147" cy="254" r="2"></circle><circle cx="150" cy="275" r="2"></circle><circle cx="153" cy="275" r="2"></circle><circle cx="156" cy="263" r="2"></circle><circle cx="159" cy="288" r="2"></circle><circle cx="162" cy="177" r="2"></circle><circle cx="165" cy="275" r="2"></circle><circle cx="168" cy="251" r="2"></circle><circle cx="171" cy="254" r="2"></circle><circle cx="174" cy="227" r="2"></circle><circle cx="177" cy="254" r="2"></circle><circle cx="180" cy="243" r="2"></circle><circle cx="183" cy="259" r="2"></circle><circle cx="186" cy="272" r="2"></circle><circle cx="189" cy="299" r="2"></circle><circle cx="192" cy="267" r="2"></circle><circle cx="195" cy="303" r="2"></circle><circle cx="199" cy="297" r="2"></circle><circle cx="202" cy="265" r="2"></circle><circle cx="205" cy="269" r="2"></circle><circle cx="208" cy="294" r="2"></circle><circle cx="211" cy="319" r="2"></circle><circle cx="214" cy="289" r="2"></circle><circle cx="217" cy="302" r="2"></circle><circle cx="220" cy="266" r="2"></circle><circle cx="223" cy="258" r="2"></circle><circle cx="226" cy="271" r="2"></circle><circle cx="229" cy="221" r="2"></circle><circle cx="232" cy="218" r="2"></circle><circle cx="235" cy="243" r="2"></circle><circle cx="238" cy="199" r="2"></circle><circle cx="241" cy="231" r="2"></circle><circle cx="244" cy="247" r="2"></circle><circle cx="247" cy="273" r="2"></circle><circle cx="251" cy="245" r="2"></circle><circle cx="254" cy="271" r="2"></circle><circle cx="257" cy="270" r="2"></circle><circle cx="260" cy="276" r="2"></circle><circle cx="263" cy="239" r="2"></circle><circle cx="266" cy="239" r="2"></circle><circle cx="269" cy="92" r="2"></circle><circle cx="272" cy="239" r="2"></circle><circle cx="275" cy="282" r="2"></circle><circle cx="278" cy="282" r="2"></circle><circle cx="284" cy="302" r="2"></circle><circle cx="287" cy="291" r="2"></circle><circle cx="293" cy="206" r="2"></circle><circle cx="296" cy="257" r="2"></circle><circle cx="300" cy="283" r="2"></circle><circle cx="303" cy="295" r="2"></circle><circle cx="306" cy="266" r="2"></circle><circle cx="309" cy="276" r="2"></circle><circle cx="312" cy="323" r="2"></circle><circle cx="315" cy="318" r="2"></circle><circle cx="318" cy="331" r="2"></circle><circle cx="321" cy="315" r="2"></circle><circle cx="324" cy="276" r="2"></circle><circle cx="327" cy="286" r="2"></circle><circle cx="330" cy="302" r="2"></circle><circle cx="333" cy="333" r="2"></circle><circle cx="336" cy="353" r="2"></circle><circle cx="339" cy="350" r="2"></circle><circle cx="342" cy="363" r="2"></circle><circle cx="345" cy="342" r="2"></circle><circle cx="348" cy="385" r="2"></circle><circle cx="352" cy="364" r="2"></circle><circle cx="355" cy="381" r="2"></circle><circle cx="358" cy="389" r="2"></circle><circle cx="361" cy="405" r="2"></circle><circle cx="364" cy="379" r="2"></circle><circle cx="367" cy="383" r="2"></circle><circle cx="370" cy="394" r="2"></circle><circle cx="373" cy="386" r="2"></circle><circle cx="376" cy="407" r="2"></circle><circle cx="379" cy="396" r="2"></circle><circle cx="382" cy="411" r="2"></circle><circle cx="385" cy="418" r="2"></circle><circle cx="388" cy="412" r="2"></circle><circle cx="391" cy="415" r="2"></circle><circle cx="394" cy="407" r="2"></circle><circle cx="397" cy="421" r="2"></circle><circle cx="400" cy="404" r="2"></circle><circle cx="404" cy="421" r="2"></circle><circle cx="407" cy="414" r="2"></circle><circle cx="410" cy="409" r="2"></circle><circle cx="413" cy="430" r="2"></circle><circle cx="416" cy="423" r="2"></circle><circle cx="419" cy="419" r="2"></circle><circle cx="422" cy="399" r="2"></circle><circle cx="425" cy="412" r="2"></circle><circle cx="428" cy="424" r="2"></circle><circle cx="431" cy="434" r="2"></circle><circle cx="434" cy="442" r="2"></circle><circle cx="437" cy="440" r="2"></circle><circle cx="440" cy="428" r="2"></circle><circle cx="443" cy="445" r="2"></circle><circle cx="446" cy="437" r="2"></circle><circle cx="449" cy="444" r="2"></circle><circle cx="452" cy="443" r="2"></circle><circle cx="456" cy="425" r="2"></circle><circle cx="459" cy="435" r="2"></circle><circle cx="462" cy="443" r="2"></circle><circle cx="465" cy="445" r="2"></circle><circle cx="468" cy="458" r="2"></circle><circle cx="471" cy="462" r="2"></circle><circle cx="474" cy="461" r="2"></circle><circle cx="477" cy="368" r="2"></circle><circle cx="480" cy="380" r="2"></circle><circle cx="483" cy="403" r="2"></circle><circle cx="486" cy="412" r="2"></circle><circle cx="489" cy="388" r="2"></circle><circle cx="492" cy="429" r="2"></circle><circle cx="495" cy="404" r="2"></circle><circle cx="498" cy="408" r="2"></circle><circle cx="501" cy="399" r="2"></circle><circle cx="504" cy="411" r="2"></circle><circle cx="508" cy="453" r="2"></circle><circle cx="511" cy="469" r="2"></circle><circle cx="514" cy="482" r="2"></circle><circle cx="517" cy="487" r="2"></circle><circle cx="520" cy="490" r="2"></circle><circle cx="523" cy="498" r="2"></circle><circle cx="526" cy="497" r="2"></circle><circle cx="529" cy="494" r="2"></circle><circle cx="532" cy="502" r="2"></circle><circle cx="535" cy="503" r="2"></circle><circle cx="538" cy="501" r="2"></circle><circle cx="541" cy="508" r="2"></circle><circle cx="544" cy="505" r="2"></circle><circle cx="547" cy="515" r="2"></circle><circle cx="550" cy="513" r="2"></circle><circle cx="553" cy="518" r="2"></circle><circle cx="556" cy="519" r="2"></circle><circle cx="560" cy="520" r="2"></circle><circle cx="563" cy="522" r="2"></circle><circle cx="566" cy="527" r="2"></circle><circle cx="569" cy="526" r="2"></circle><circle cx="572" cy="529" r="2"></circle><circle cx="575" cy="527" r="2"></circle><circle cx="578" cy="531" r="2"></circle><circle cx="581" cy="532" r="2"></circle><circle cx="584" cy="532" r="2"></circle><circle cx="587" cy="532" r="2"></circle><circle cx="590" cy="533" r="2"></circle><circle cx="593" cy="533" r="2"></circle><circle cx="596" cy="533" r="2"></circle><circle cx="599" cy="533" r="2"></circle><circle cx="602" cy="533" r="2"></circle><circle cx="605" cy="534" r="2"></circle><circle cx="609" cy="534" r="2"></circle><circle cx="642" cy="534" r="2"></circle><circle cx="645" cy="534" r="2"></circle><circle cx="648" cy="534" r="2"></circle><circle cx="651" cy="534" r="2"></circle><circle cx="654" cy="534" r="2"></circle><circle cx="657" cy="534" r="2"></circle><circle cx="661" cy="534" r="2"></circle><circle cx="664" cy="534" r="2"></circle><circle cx="667" cy="534" r="2"></circle><circle cx="670" cy="534" r="2"></circle><circle cx="673" cy="534" r="2"></circle><circle cx="676" cy="534" r="2"></circle><circle cx="679" cy="534" r="2"></circle><circle cx="682" cy="534" r="2"></circle><circle cx="685" cy="534" r="2"></circle><circle cx="688" cy="534" r="2"></circle><circle cx="691" cy="534" r="2"></circle><circle cx="694" cy="534" r="2"></circle><circle cx="697" cy="534" r="2"></circle><circle cx="700" cy="534" r="2"></circle><circle cx="703" cy="534" r="2"></circle><circle cx="706" cy="534" r="2"></circle><circle cx="709" cy="534" r="2"></circle><circle cx="713" cy="534" r="2"></circle><circle cx="716" cy="534" r="2"></circle><circle cx="719" cy="534" r="2"></circle></g></g><g class="key-United-States_0"><path stroke="#df3c64" stroke-linecap="round" d="M367 273L370 289L373 307L376 320L379 292L382 289L385 316L388 313L391 329L394 320L397 323L400 320L404 335L407 326L410 316L413 348L416 344L419 331L422 253L425 308L428 289L431 325L434 331L437 330L440 333L443 336L446 333L449 336L452 322L456 321L459 328L462 332L465 340L468 345L471 353L474 356L477 360L480 385L483 401L486 411L489 419L492 438L495 455L498 460L501 465L504 472L508 487L511 494L514 499L517 508L520 510L523 512L526 514L529 517L532 519L535 521L538 523L541 523L544 524L547 524L550 524L553 524L556 524L560 524L563 525L566 526L569 526L572 527L575 528L578 529L581 529L584 529L587 530L590 530L593 531L596 531L599 532L602 532L605 532L609 532L642 532L645 532L648 532L651 532L654 532L657 532L661 532L664 532L667 532L670 532L673 532L676 531L679 531L682 531L685 531L688 531L691 531L694 531L697 531L700 531L703 531L706 531L709 531L713 531L716 531L719 531" fill="none" stroke-width="1.5"></path><g fill="#df3c64"><circle cx="367" cy="273" r="2"></circle><circle cx="370" cy="289" r="2"></circle><circle cx="373" cy="307" r="2"></circle><circle cx="376" cy="320" r="2"></circle><circle cx="379" cy="292" r="2"></circle><circle cx="382" cy="289" r="2"></circle><circle cx="385" cy="316" r="2"></circle><circle cx="388" cy="313" r="2"></circle><circle cx="391" cy="329" r="2"></circle><circle cx="394" cy="320" r="2"></circle><circle cx="397" cy="323" r="2"></circle><circle cx="400" cy="320" r="2"></circle><circle cx="404" cy="335" r="2"></circle><circle cx="407" cy="326" r="2"></circle><circle cx="410" cy="316" r="2"></circle><circle cx="413" cy="348" r="2"></circle><circle cx="416" cy="344" r="2"></circle><circle cx="419" cy="331" r="2"></circle><circle cx="422" cy="253" r="2"></circle><circle cx="425" cy="308" r="2"></circle><circle cx="428" cy="289" r="2"></circle><circle cx="431" cy="325" r="2"></circle><circle cx="434" cy="331" r="2"></circle><circle cx="437" cy="330" r="2"></circle><circle cx="440" cy="333" r="2"></circle><circle cx="443" cy="336" r="2"></circle><circle cx="446" cy="333" r="2"></circle><circle cx="449" cy="336" r="2"></circle><circle cx="452" cy="322" r="2"></circle><circle cx="456" cy="321" r="2"></circle><circle cx="459" cy="328" r="2"></circle><circle cx="462" cy="332" r="2"></circle><circle cx="465" cy="340" r="2"></circle><circle cx="468" cy="345" r="2"></circle><circle cx="471" cy="353" r="2"></circle><circle cx="474" cy="356" r="2"></circle><circle cx="477" cy="360" r="2"></circle><circle cx="480" cy="385" r="2"></circle><circle cx="483" cy="401" r="2"></circle><circle cx="486" cy="411" r="2"></circle><circle cx="489" cy="419" r="2"></circle><circle cx="492" cy="438" r="2"></circle><circle cx="495" cy="455" r="2"></circle><circle cx="498" cy="460" r="2"></circle><circle cx="501" cy="465" r="2"></circle><circle cx="504" cy="472" r="2"></circle><circle cx="508" cy="487" r="2"></circle><circle cx="511" cy="494" r="2"></circle><circle cx="514" cy="499" r="2"></circle><circle cx="517" cy="508" r="2"></circle><circle cx="520" cy="510" r="2"></circle><circle cx="523" cy="512" r="2"></circle><circle cx="526" cy="514" r="2"></circle><circle cx="529" cy="517" r="2"></circle><circle cx="532" cy="519" r="2"></circle><circle cx="535" cy="521" r="2"></circle><circle cx="538" cy="523" r="2"></circle><circle cx="541" cy="523" r="2"></circle><circle cx="544" cy="524" r="2"></circle><circle cx="547" cy="524" r="2"></circle><circle cx="550" cy="524" r="2"></circle><circle cx="553" cy="524" r="2"></circle><circle cx="556" cy="524" r="2"></circle><circle cx="560" cy="524" r="2"></circle><circle cx="563" cy="525" r="2"></circle><circle cx="566" cy="526" r="2"></circle><circle cx="569" cy="526" r="2"></circle><circle cx="572" cy="527" r="2"></circle><circle cx="575" cy="528" r="2"></circle><circle cx="578" cy="529" r="2"></circle><circle cx="581" cy="529" r="2"></circle><circle cx="584" cy="529" r="2"></circle><circle cx="587" cy="530" r="2"></circle><circle cx="590" cy="530" r="2"></circle><circle cx="593" cy="531" r="2"></circle><circle cx="596" cy="531" r="2"></circle><circle cx="599" cy="532" r="2"></circle><circle cx="602" cy="532" r="2"></circle><circle cx="605" cy="532" r="2"></circle><circle cx="609" cy="532" r="2"></circle><circle cx="642" cy="532" r="2"></circle><circle cx="645" cy="532" r="2"></circle><circle cx="648" cy="532" r="2"></circle><circle cx="651" cy="532" r="2"></circle><circle cx="654" cy="532" r="2"></circle><circle cx="657" cy="532" r="2"></circle><circle cx="661" cy="532" r="2"></circle><circle cx="664" cy="532" r="2"></circle><circle cx="667" cy="532" r="2"></circle><circle cx="670" cy="532" r="2"></circle><circle cx="673" cy="532" r="2"></circle><circle cx="676" cy="531" r="2"></circle><circle cx="679" cy="531" r="2"></circle><circle cx="682" cy="531" r="2"></circle><circle cx="685" cy="531" r="2"></circle><circle cx="688" cy="531" r="2"></circle><circle cx="691" cy="531" r="2"></circle><circle cx="694" cy="531" r="2"></circle><circle cx="697" cy="531" r="2"></circle><circle cx="700" cy="531" r="2"></circle><circle cx="703" cy="531" r="2"></circle><circle cx="706" cy="531" r="2"></circle><circle cx="709" cy="531" r="2"></circle><circle cx="713" cy="531" r="2"></circle><circle cx="716" cy="531" r="2"></circle><circle cx="719" cy="531" r="2"></circle></g></g><g class="key-World_0"><path stroke="#b077b1" stroke-linecap="round" d="M642 417L645 418L648 419L651 420L654 421L657 422L661 423L664 424L667 426L670 428L673 430L676 433L679 436L682 440L685 443L688 447L691 450L694 453L697 456L700 457L703 460L706 462L709 464L713 466L716 467L719 469" fill="none" stroke-width="1.5"></path><g fill="#b077b1"><circle cx="642" cy="417" r="2"></circle><circle cx="645" cy="418" r="2"></circle><circle cx="648" cy="419" r="2"></circle><circle cx="651" cy="420" r="2"></circle><circle cx="654" cy="421" r="2"></circle><circle cx="657" cy="422" r="2"></circle><circle cx="661" cy="423" r="2"></circle><circle cx="664" cy="424" r="2"></circle><circle cx="667" cy="426" r="2"></circle><circle cx="670" cy="428" r="2"></circle><circle cx="673" cy="430" r="2"></circle><circle cx="676" cy="433" r="2"></circle><circle cx="679" cy="436" r="2"></circle><circle cx="682" cy="440" r="2"></circle><circle cx="685" cy="443" r="2"></circle><circle cx="688" cy="447" r="2"></circle><circle cx="691" cy="450" r="2"></circle><circle cx="694" cy="453" r="2"></circle><circle cx="697" cy="456" r="2"></circle><circle cx="700" cy="457" r="2"></circle><circle cx="703" cy="460" r="2"></circle><circle cx="706" cy="462" r="2"></circle><circle cx="709" cy="464" r="2"></circle><circle cx="713" cy="466" r="2"></circle><circle cx="716" cy="467" r="2"></circle><circle cx="719" cy="469" r="2"></circle></g></g></g></g></g><g class="SourcesFooter" style="fill:#777"><g class="clickable" style="fill:#777"><text font-size="12.60" x="15.0" y="581.6"><tspan x="15" y="581.58">Source: Gapminder (2010) and World Bank (2015)</tspan></text></g><text font-size="12.60" x="575.2" y="581.6"><tspan x="575.188" y="581.58"><a target='_blank' style='fill: #777;' href='https://ourworldindata.org/health-meta/'>OurWorldInData.org/health-meta/</a> • <a style="fill: #777;" class="cclogo" href="http://creativecommons.org/licenses/by-sa/4.0/deed.en_US" target="_blank">CC BY-SA</a></tspan></text></g></g></svg>