<svg xmlns="http://www.w3.org/2000/svg" version="1.1" style="background-color:#fff;-webkit-font-smoothing:antialiased" width="850" height="600" font-family="'Helvetica Neue',Helvetica,Arial,sans-serif" font-size="18" text-rendering="optimizeLegibility"><g class="ChartTab"><g class="HeaderView"><g opacity=".8" transform="matrix(.31 0 0 .31 770 15)"><a xmlns:xlink="http://www.w3.org/1999/xlink" xlink:href="https://ourworldindata.org" target="_blank"><g><path fill="#1B2543" d="M0 0h211.2v130.1H0z"/><path fill="#E63912" d="M0 112.2h211.2v17.9H0z"/><g><path fill="none" d="M1.2 12.3h210.2v99.2H1.2z"/><path fill="#FFF" d="M37.8 32.2c0 12.7-7.7 19.4-17.1 19.4-9.7 0-16.6-7.5-16.6-18.7 0-11.7 7.3-19.3 17.1-19.3 10.1.1 16.6 7.7 16.6 18.6zm-28.6.6c0 7.9 4.3 14.9 11.8 14.9 7.5 0 11.8-6.9 11.8-15.3 0-7.3-3.8-14.9-11.8-14.9-7.9 0-11.8 7.3-11.8 15.3zM62.7 43.8c0 2.7.1 5.1.2 7.2h-4.3l-.3-4.3h-.1c-1.3 2.1-4 4.9-8.8 4.9-4.2 0-9.1-2.3-9.1-11.6V24.6h4.8v14.6c0 5 1.5 8.4 5.9 8.4 3.2 0 5.5-2.2 6.3-4.4.3-.7.4-1.6.4-2.5V24.6h4.8v19.2zM67.3 32.8c0-3.1-.1-5.8-.2-8.2h4.2l.2 5.2h.2c1.2-3.5 4.1-5.8 7.3-5.8.5 0 .9.1 1.4.2v4.5c-.5-.1-1-.2-1.6-.2-3.4 0-5.8 2.6-6.5 6.2-.1.7-.2 1.4-.2 2.2V51h-4.8V32.8zM95.4 51L86 14.2h5l4.4 18.6c1.1 4.6 2.1 9.2 2.7 12.7h.1c.6-3.7 1.8-8 3-12.8l4.9-18.5h5l4.5 18.7c1 4.4 2 8.7 2.6 12.6h.1c.8-4 1.8-8.1 3-12.7l4.9-18.5h4.9L120.6 51h-5L111 31.9c-1.1-4.7-1.9-8.3-2.4-12h-.1c-.7 3.7-1.5 7.3-2.8 12L100.4 51h-5zM154.9 37.6c0 9.8-6.8 14-13.2 14-7.2 0-12.7-5.2-12.7-13.6 0-8.8 5.8-14 13.1-14 7.7 0 12.8 5.5 12.8 13.6zm-21 .3c0 5.8 3.3 10.1 8 10.1 4.6 0 8-4.3 8-10.3 0-4.5-2.2-10.1-7.9-10.1s-8.1 5.2-8.1 10.3zM158.2 32.8c0-3.1-.1-5.8-.2-8.2h4.2l.2 5.2h.2c1.2-3.5 4.1-5.8 7.3-5.8.5 0 .9.1 1.4.2v4.5c-.5-.1-1-.2-1.6-.2-3.4 0-5.8 2.6-6.5 6.2-.1.7-.2 1.4-.2 2.2V51h-4.8V32.8zM173.5 12.3h4.8V51h-4.8V12.3zM206.5 12.3v31.9c0 2.3.1 5 .2 6.8h-4.3l-.2-4.6h-.2c-1.5 2.9-4.7 5.2-9 5.2-6.4 0-11.3-5.4-11.3-13.4-.1-8.8 5.4-14.2 11.9-14.2 4 0 6.8 1.9 8 4h.1V12.3h4.8zm-4.8 23.1c0-.6-.1-1.4-.2-2a7 7 0 00-6.9-5.6c-5 0-7.9 4.4-7.9 10.2 0 5.3 2.6 9.8 7.8 9.8 3.2 0 6.2-2.1 7.1-5.7.2-.7.2-1.3.2-2.1v-4.6zM42.8 64c.1 1.6-1.1 2.9-3.1 2.9-1.7 0-2.9-1.3-2.9-2.9 0-1.7 1.3-3 3-3 1.9 0 3 1.3 3 3zm-5.4 33.8V71.4h4.8v26.4h-4.8zM47.5 78.6c0-2.7-.1-5-.2-7.1h4.3l.3 4.4h.1c1.3-2.5 4.4-5 8.8-5 3.7 0 9.4 2.2 9.4 11.2v15.8h-4.8V82.6c0-4.3-1.6-7.8-6.1-7.8-3.2 0-5.6 2.2-6.5 4.9-.2.6-.3 1.4-.3 2.2v15.9h-4.8V78.6zM84 61.6c2.9-.4 6.3-.8 10.1-.8 6.8 0 11.7 1.6 14.9 4.6 3.3 3 5.2 7.3 5.2 13.2 0 6-1.9 10.9-5.3 14.3-3.4 3.4-9.1 5.3-16.3 5.3-3.4 0-6.2-.2-8.6-.4V61.6zm4.8 32.5c1.2.2 3 .3 4.8.3 10.2 0 15.7-5.7 15.7-15.6.1-8.7-4.9-14.2-14.9-14.2-2.5 0-4.3.2-5.6.5v29zM132.1 97.8l-.4-3.3h-.2a9.79 9.79 0 01-8.1 3.9c-5.4 0-8.1-3.8-8.1-7.6 0-6.4 5.7-9.9 15.9-9.8v-.5c0-2.2-.6-6.1-6-6.1-2.5 0-5 .8-6.9 2l-1.1-3.2c2.2-1.4 5.4-2.3 8.7-2.3 8.1 0 10.1 5.5 10.1 10.8v9.9c0 2.3.1 4.5.4 6.3h-4.3zm-.7-13.4c-5.3-.1-11.2.8-11.2 5.9 0 3.1 2.1 4.6 4.5 4.6 3.4 0 5.6-2.2 6.4-4.4.2-.5.3-1 .3-1.5v-4.6zM146.6 63.9v7.6h6.9v3.7h-6.9v14.2c0 3.3.9 5.1 3.6 5.1 1.3 0 2.2-.2 2.8-.3l.2 3.6c-.9.4-2.4.7-4.3.7-2.2 0-4-.7-5.2-2-1.4-1.4-1.9-3.8-1.9-6.9V75.1h-4.1v-3.7h4.1v-6.3l4.8-1.2zM171.4 97.8l-.4-3.3h-.2a9.79 9.79 0 01-8.1 3.9c-5.4 0-8.1-3.8-8.1-7.6 0-6.4 5.7-9.9 15.9-9.8v-.5c0-2.2-.6-6.1-6-6.1-2.5 0-5 .8-6.9 2l-1.1-3.2c2.2-1.4 5.4-2.3 8.7-2.3 8.1 0 10.1 5.5 10.1 10.8v9.9c0 2.3.1 4.5.4 6.3h-4.3zm-.7-13.4c-5.3-.1-11.2.8-11.2 5.9 0 3.1 2.1 4.6 4.5 4.6 3.4 0 5.6-2.2 6.4-4.4.2-.5.3-1 .3-1.5v-4.6z"/></g></g></a></g><a href="https://ourworldindata.org/grapher/military-expenditure-by-country-in-thousands-of-2000-us-dollars" target="_blank"><text font-size="27" x="15" y="36.6" fill="#555"><tspan x="15" y="36.6">Military expenditure by country</tspan></text></a><text font-size="14.4" x="15" y="55.5" fill="#666"><tspan x="15" y="55.52">Adjusted for inflation and expressed in US dollars in prices of 2000.</tspan></text></g><g class="LineChart"><defs><clipPath id="a"><path d="M92.3 0h830v956.2h-830z"/></clipPath></defs><g class="AxisBoxView"><g class="HorizontalAxis" fill="#666" text-anchor="middle" font-size="16.2"><text x="102.3" y="556.5">1914</text><text x="271.4" y="556.5">1940</text><text x="401.5" y="556.5">1960</text><text x="531.6" y="556.5">1980</text><text x="661.7" y="556.5">2000</text><text x="707.2" y="556.5">2007</text></g><g class="VerticalAxis" fill="#666" dominant-baseline="middle" text-anchor="end" font-size="16.2"><text x="97.3" y="535.3">$0</text><text x="97.3" y="471.5">$100 billion</text><text x="97.3" y="407.7">$200 billion</text><text x="97.3" y="343.9">$300 billion</text><text x="97.3" y="280.1">$400 billion</text><text x="97.3" y="216.3">$500 billion</text><text x="97.3" y="152.6">$600 billion</text><text x="97.3" y="88.8">$700 billion</text></g><g class="AxisGridLines"><path stroke="#ccc" d="M102.3 535.3h604.88"/><path stroke="#ddd" stroke-dasharray="3,2" d="M102.3 471.5h604.88M102.3 407.7h604.88M102.3 343.9h604.88M102.3 280.1h604.88M102.3 216.3h604.88M102.3 152.6h604.88M102.3 88.8h604.88"/></g><g class="AxisGridLines" stroke="#ddd" stroke-dasharray="3,2"><path d="M141.3 535.3V78.4M271.4 535.3V78.4M401.5 535.3V78.4M531.6 535.3V78.4M661.7 535.3V78.4"/></g></g><g clip-path="url(#a)"><g class="HeightedLegend clickable"><g class="legendMark"><path fill="#3360a9" d="M717.18 516.75h10v2.5h-10z"/><text font-size="14.4" x="732.2" y="522.3" fill="#333"><tspan x="732.18" y="522.32">Russia</tspan></text></g><g class="legendMark"><path fill="#5CACEE" d="M717.18 502.35h10v2.5h-10z"/><text font-size="14.4" x="732.2" y="507.9" fill="#333"><tspan x="732.18" y="507.92">Italy</tspan></text></g><g class="legendMark"><path fill="#34983f" d="M717.18 487.95h10v2.5h-10z"/><text font-size="14.4" x="732.2" y="493.5" fill="#333"><tspan x="732.18" y="493.52">Japan</tspan></text></g><g class="legendMark"><path fill="#43CD80" d="M717.18 473.55h10v2.5h-10z"/><text font-size="14.4" x="732.2" y="479.1" fill="#333"><tspan x="732.18" y="479.12">Germany</tspan></text></g><g class="legendMark"><path fill="#a652ba" d="M717.18 459.15h10v2.5h-10z"/><text font-size="14.4" x="732.2" y="464.7" fill="#333"><tspan x="732.18" y="464.72">China</tspan></text></g><g class="legendMark"><path fill="#FFC125" d="M717.18 444.75h10v2.5h-10z"/><text font-size="14.4" x="732.2" y="450.3" fill="#333"><tspan x="732.18" y="450.32">France</tspan></text></g><g class="legendMark"><path fill="#B0171F" d="M717.18 430.35h10v2.5h-10z"/><text font-size="14.4" x="732.2" y="435.9" fill="#333"><tspan x="732.18" y="435.92">United Kingdom</tspan></text></g><g class="legendMark"><path fill="#8A2BE2" d="M717.18 237.55h10v2.5h-10z"/><text font-size="14.4" x="732.2" y="243.1" fill="#333"><tspan x="732.18" y="243.12">United States</tspan></text></g></g><g class="Lines"><g class="key-China_0"><path stroke="#a652ba" stroke-linecap="round" d="M102 535h13l13-1h46l13 1h39l6-1h13l7-1 6 2 7-1h13l6 1 7-1h13l6-2 7 2 6 1 7-7 6-2 7-2 7 2 6 1h13l7-10 6-1 7 1 6-2h7l6-3 7-4 6-4 7-5 6-2 7-5h6l7-2 6-4 7-5 6 7h7l6-1h7l6 1 7-3 6 2h7l6 10 7 5 6 1 7-1h6l7 11 6 17h26l7 1 6-10 7-4 6-1 7-1 6-2 7-2h6l7-1 6-1h7l6-2 7-14 6-3 7-6 6 34 7-2 6-5" fill="none" stroke-width="1.5"/></g><g class="key-Japan_0"><path stroke="#34983f" stroke-linecap="round" d="M102 534h26l7-1h13l6 1h72l6-1h7l6 1 7-5 6-5h7l6-1 7-5 6-7 7-13 6-52 7 69 46 19h65l6-1h26l7-1h13l6-2h7l6-1 7-1h6l7-1h6l7-2 6-2 7 1 6-1 7 1h6l7-1 6-1 7-5 6-4 7-2h6l7 2 6-2 7-4 6-2 7-3 6-1 7 3 6 4 7 2 6-1 7-3 6 5h7l6-1 7-1 6 1 7 3h6" fill="none" stroke-width="1.5"/></g><g class="key-United-States_0"><path stroke="#8A2BE2" stroke-linecap="round" d="M102 533h13l7-2 6-31 7-20 6 48 7 2 6 1 7 1h45l7-1h13l6-1h7l6-1h7l6-1 7 1 6-4 7-28 6-107 7-239 6-69 7-4 6 254 7 145 6 16 7-10 6-3 7-63 7-49 6-4 7 25 6 10 7 1 6-5 7 1 6-2 7 6 6-6 7-12 6 2 7 6 6 1 7-39 6-16 7-5 6 8 7 18 6 15 7 1 6 7 7-1 6 5 7 8 6-7 7-1 6-6 7-12 6-14 7-16 6-12 7-12h6l7-14 6-2 7 2 6-2 7 13 6 28 7-14 6-3 7 8 6 15 7 4 6 3h7l6-5 7-3 6-8 7-13 6-30 7-23 6-14 7-6 6-9" fill="none" stroke-width="1.5"/></g><g class="key-Russia_0"><path stroke="#3360a9" stroke-linecap="round" d="M102 528l7-30 6 6 7 7 6 23 7-6 6 2 7-1 6-3 7 5h6l7-3 6-2 7-2 6-1 7-2 6-5 7-2 6 6 7-1 6-7 7-13 6 17 7-2 6-14 7-4h6l7-2 6 1 7-2h6l7-1 6 4 7-8 6-3 7-3 6-6 7-12 7-5 6-12 7-7 6-4 7 13h6l7-7 6-11 7-6 6-19 7-17 6 11 7 2 6 5 7-2 6-7 7-21 6-6 7-13 6-3 7-6 6-5 7-7 6-15 7-5 6-3 7-5 6-5 7-5 6-2 7-2 6-3 7-5 6-3 7-6 6-7 7-4 6 171 7-3 6-1 7 66 6 14 7-47 6 11 7 7 6 7 7 6h6l7 4 6-6 7 8 6-8 7 4 6 25 7-3 6-4" fill="none" stroke-width="1.5"/></g><g class="key-Italy_0"><path stroke="#5CACEE" stroke-linecap="round" d="M102 535l7-1h32l7-1h6l7 1h6l7 1 6-1h33l6-1h7l6-1h7l6-4h7l6 3h13l7 1 6 1h7l6 1h26l7-1h13l7-1 6 1 7-1h45l7-1h6l7-1h39l6-1 7-1 6-1h13l7 2 6-1 7-1 6-2 7-1 6 3 7-1h6l7 1 6 1 7-1 6-3 7-2h6l7-2h6l7 1 6-1 7 4 6-2 7-3 6 1 7-1 6 2 7 1h6l7-2 6-3 7-2 6 1 7 1 6-2" fill="none" stroke-width="1.5"/></g><g class="key-Germany_0"><path stroke="#43CD80" stroke-linecap="round" d="M102 520l7-26 6 5 7-6 6-2 7 44h19l7-4 6 4h13l7-1h32l7-2 6-1 7-6 6-5 7-5 6-27 7-31 6-58 7-38 6-31 7-34 6-25 7 210 293 25 6 5h7l6-2 7 1 6-3 7 1 6 5h7l6 2 7 3 6 1 7-2 6-3 7-1 6 1h7l6-1" fill="none" stroke-width="1.5"/></g><g class="key-France_0"><path stroke="#FFC125" stroke-linecap="round" d="M102 525l7-19 6-4 7-1 6-5 7 36 6 2h7l6-1h7l6 1h13l7-1h19l7-1h13l6-1 7-1 6-1 7 1 6-1h7l6-30 7 33 6-1 13-2h7l6 1 7-2 6 4 7-1 6-1 7-2 7-3 6-2 7 1 6 1 7-2 6 1h20l6-1 7-1h6l7-1h13l6-1h7l6 1 7 1h6l7-2 6-3h7l6-3h7l6-1 7-4 6-3 7-2 6 6 7 3 6 1 7 2 6 4 7-6 6-4 7-1 6 3 7-4 6-1 7 3 6-2 7-5 6-1 7 1 6 5h7l6 3 7 3 6 1 7-2 6-5 7-4 6 1h7l6-2" fill="none" stroke-width="1.5"/></g><g class="key-United-Kingdom_0"><path stroke="#B0171F" stroke-linecap="round" d="M102 521l7-24 6-7h7l6 4 7 38 6-3 7 2 6 1h39l7 1h6l7-1 6 1h7l6-1 7-1 6-1 7-2 6-5 7-39 6-13 7-4 6-7 7-7 6-2 7-2 6 7 7 52 6 14 7 1 6 3 7-2 7-4h13l6 1h7l6 1h20l6-1 7-1h6l7-1h19l7 2 6 1h7l6-2 7-2h13l6-2 7 2h6l7-3 6-4 7-7 6 4 7 3h6l7 2h6l7-2 6-3h7l6 2 7-5h6l7-1 6 7 7-1 6 2 7-1h6l7-1 6 2 7 1 6 1 7-2 6-3 7-3 6-3 7-1 6-1" fill="none" stroke-width="1.5"/></g></g></g></g><g class="SourcesFooter" fill="#777"><g class="clickable" fill="#777"><text font-size="12.6" x="15" y="581.6"><tspan x="15" y="581.58">Source: Correlates of War: National Material Capabilities (v4.0) + Measuring Worth</tspan></text></g><text font-size="12.6" x="546.6" y="581.6"><tspan x="546.59" y="581.58"><a target="_blank" href="https://ourworldindata.org/military-spending/" fill="#777">OurWorldInData.org/military-spending/</a> • <a href="http://creativecommons.org/licenses/by-sa/4.0/deed.en_US" target="_blank" fill="#777">CC BY-SA</a></tspan></text></g></g></svg>