<svg xmlns="http://www.w3.org/2000/svg" version="1.1" style="font-family: 'Helvetica Neue', Helvetica, Arial, sans-serif; font-size: 18px; background-color: white; text-rendering: optimizeLegibility; -webkit-font-smoothing: antialiased;" width="850" height="600"><g class="ChartTab"><g class="HeaderView"><g opacity="0.8" transform="translate(778, 15) scale(0.27)"><a xmlns:xlink="http://www.w3.org/1999/xlink" xlink:href="https://ourworldindata.org" target="_blank"><g><rect x="0" y="0" fill="#1B2543" width="211.2" height="130.1"/><rect x="0" y="112.2" fill="#E63912" width="211.2" height="17.9"/><g><rect x="1.2" y="12.3" fill="none" width="210.2" height="99.2"/><path fill="#FFFFFF" d="M37.8,32.2c0,12.7-7.7,19.4-17.1,19.4c-9.7,0-16.6-7.5-16.6-18.7c0-11.7,7.3-19.3,17.1-19.3 C31.3,13.7,37.8,21.3,37.8,32.2z M9.2,32.8c0,7.9,4.3,14.9,11.8,14.9c7.5,0,11.8-6.9,11.8-15.3c0-7.3-3.8-14.9-11.8-14.9 C13.1,17.5,9.2,24.8,9.2,32.8z"/><path fill="#FFFFFF" d="M62.7,43.8c0,2.7,0.1,5.1,0.2,7.2h-4.3l-0.3-4.3h-0.1c-1.3,2.1-4,4.9-8.8,4.9c-4.2,0-9.1-2.3-9.1-11.6 V24.6h4.8v14.6c0,5,1.5,8.4,5.9,8.4c3.2,0,5.5-2.2,6.3-4.4c0.3-0.7,0.4-1.6,0.4-2.5V24.6h4.8V43.8z"/><path fill="#FFFFFF" d="M67.3,32.8c0-3.1-0.1-5.8-0.2-8.2h4.2l0.2,5.2h0.2c1.2-3.5,4.1-5.8,7.3-5.8c0.5,0,0.9,0.1,1.4,0.2v4.5 c-0.5-0.1-1-0.2-1.6-0.2c-3.4,0-5.8,2.6-6.5,6.2c-0.1,0.7-0.2,1.4-0.2,2.2V51h-4.8V32.8z"/><path fill="#FFFFFF" d="M95.4,51l-9.4-36.8h5l4.4,18.6c1.1,4.6,2.1,9.2,2.7,12.7h0.1c0.6-3.7,1.8-8,3-12.8l4.9-18.5h5l4.5,18.7 c1,4.4,2,8.7,2.6,12.6h0.1c0.8-4,1.8-8.1,3-12.7l4.9-18.5h4.9L120.6,51h-5L111,31.9c-1.1-4.7-1.9-8.3-2.4-12h-0.1 c-0.7,3.7-1.5,7.3-2.8,12L100.4,51H95.4z"/><path fill="#FFFFFF" d="M154.9,37.6c0,9.8-6.8,14-13.2,14c-7.2,0-12.7-5.2-12.7-13.6c0-8.8,5.8-14,13.1-14 C149.8,24,154.9,29.5,154.9,37.6z M133.9,37.9c0,5.8,3.3,10.1,8,10.1c4.6,0,8-4.3,8-10.3c0-4.5-2.2-10.1-7.9-10.1 C136.3,27.6,133.9,32.8,133.9,37.9z"/><path fill="#FFFFFF" d="M158.2,32.8c0-3.1-0.1-5.8-0.2-8.2h4.2l0.2,5.2h0.2c1.2-3.5,4.1-5.8,7.3-5.8c0.5,0,0.9,0.1,1.4,0.2v4.5 c-0.5-0.1-1-0.2-1.6-0.2c-3.4,0-5.8,2.6-6.5,6.2c-0.1,0.7-0.2,1.4-0.2,2.2V51h-4.8V32.8z"/><path fill="#FFFFFF" d="M173.5,12.3h4.8V51h-4.8V12.3z"/><path fill="#FFFFFF" d="M206.5,12.3v31.9c0,2.3,0.1,5,0.2,6.8h-4.3l-0.2-4.6H202c-1.5,2.9-4.7,5.2-9,5.2 c-6.4,0-11.3-5.4-11.3-13.4c-0.1-8.8,5.4-14.2,11.9-14.2c4,0,6.8,1.9,8,4h0.1V12.3H206.5z M201.7,35.4c0-0.6-0.1-1.4-0.2-2 c-0.7-3.1-3.3-5.6-6.9-5.6c-5,0-7.9,4.4-7.9,10.2c0,5.3,2.6,9.8,7.8,9.8c3.2,0,6.2-2.1,7.1-5.7c0.2-0.7,0.2-1.3,0.2-2.1V35.4z"/><path fill="#FFFFFF" d="M42.8,64c0.1,1.6-1.1,2.9-3.1,2.9c-1.7,0-2.9-1.3-2.9-2.9c0-1.7,1.3-3,3-3C41.7,61,42.8,62.3,42.8,64z M37.4,97.8V71.4h4.8v26.4H37.4z"/><path fill="#FFFFFF" d="M47.5,78.6c0-2.7-0.1-5-0.2-7.1h4.3l0.3,4.4h0.1c1.3-2.5,4.4-5,8.8-5c3.7,0,9.4,2.2,9.4,11.2v15.8h-4.8 V82.6c0-4.3-1.6-7.8-6.1-7.8c-3.2,0-5.6,2.2-6.5,4.9c-0.2,0.6-0.3,1.4-0.3,2.2v15.9h-4.8V78.6z"/><path fill="#FFFFFF" d="M84,61.6c2.9-0.4,6.3-0.8,10.1-0.8c6.8,0,11.7,1.6,14.9,4.6c3.3,3,5.2,7.3,5.2,13.2c0,6-1.9,10.9-5.3,14.3 c-3.4,3.4-9.1,5.3-16.3,5.3c-3.4,0-6.2-0.2-8.6-0.4V61.6z M88.8,94.1c1.2,0.2,3,0.3,4.8,0.3c10.2,0,15.7-5.7,15.7-15.6 c0.1-8.7-4.9-14.2-14.9-14.2c-2.5,0-4.3,0.2-5.6,0.5V94.1z"/><path fill="#FFFFFF" d="M132.1,97.8l-0.4-3.3h-0.2c-1.5,2.1-4.3,3.9-8.1,3.9c-5.4,0-8.1-3.8-8.1-7.6c0-6.4,5.7-9.9,15.9-9.8v-0.5 c0-2.2-0.6-6.1-6-6.1c-2.5,0-5,0.8-6.9,2l-1.1-3.2c2.2-1.4,5.4-2.3,8.7-2.3c8.1,0,10.1,5.5,10.1,10.8v9.9c0,2.3,0.1,4.5,0.4,6.3 H132.1z M131.4,84.4c-5.3-0.1-11.2,0.8-11.2,5.9c0,3.1,2.1,4.6,4.5,4.6c3.4,0,5.6-2.2,6.4-4.4c0.2-0.5,0.3-1,0.3-1.5V84.4z"/><path fill="#FFFFFF" d="M146.6,63.9v7.6h6.9v3.7h-6.9v14.2c0,3.3,0.9,5.1,3.6,5.1c1.3,0,2.2-0.2,2.8-0.3l0.2,3.6 c-0.9,0.4-2.4,0.7-4.3,0.7c-2.2,0-4-0.7-5.2-2c-1.4-1.4-1.9-3.8-1.9-6.9V75.1h-4.1v-3.7h4.1v-6.3L146.6,63.9z"/><path fill="#FFFFFF" d="M171.4,97.8l-0.4-3.3h-0.2c-1.5,2.1-4.3,3.9-8.1,3.9c-5.4,0-8.1-3.8-8.1-7.6c0-6.4,5.7-9.9,15.9-9.8v-0.5 c0-2.2-0.6-6.1-6-6.1c-2.5,0-5,0.8-6.9,2l-1.1-3.2c2.2-1.4,5.4-2.3,8.7-2.3c8.1,0,10.1,5.5,10.1,10.8v9.9c0,2.3,0.1,4.5,0.4,6.3 H171.4z M170.7,84.4c-5.3-0.1-11.2,0.8-11.2,5.9c0,3.1,2.1,4.6,4.5,4.6c3.4,0,5.6-2.2,6.4-4.4c0.2-0.5,0.3-1,0.3-1.5V84.4z"/></g></g></a></g><a href="https://ourworldindata.org/grapher/MPI-vs-Consumption" target="_blank"><text font-size="21.60" x="15.0" y="32.3" fill="#555"><tspan x="15" y="32.279999999999994">Share of population in multidimensional poverty vs. Share of population living</tspan><tspan x="15" y="53.87999999999999">with less than $1.90 per day, 2014</tspan></text></a><text font-size="14.40" x="15.0" y="72.7" fill="#666"><tspan x="15" y="72.72">Multidimensional poverty is based on the Multidimensional Poverty Index, weighing ten indicators of deprivation in the context of</tspan><tspan x="15" y="88.56">education, health and living standards. Individuals are considered poor if deprived in at least one third of the weighted indicators</tspan><tspan x="15" y="104.4">(see source for more details). The $1.90 poverty line is in international dollars adjusting for price differences between countries</tspan><tspan x="15" y="120.24000000000001">and for price changes over time (inflation).</tspan></text></g><g><g class="AxisBoxView"><g class="HorizontalAxis"><text font-size="12.60" x="279.7" y="554.0"><tspan x="279.698" y="553.98">Multidimensional poverty rates</tspan></text><text x="214.5" y="533.9" fill="#666" text-anchor="middle" font-size="16.2">20%</text><text x="355.3" y="533.9" fill="#666" text-anchor="middle" font-size="16.2">40%</text><text x="496.1" y="533.9" fill="#666" text-anchor="middle" font-size="16.2">60%</text><text x="636.9" y="533.9" fill="#666" text-anchor="middle" font-size="16.2">80%</text></g><g class="VerticalAxis"><text font-size="12.60" x="-457.5" y="25.1" transform="rotate(-90)"><tspan x="-457.47099999999995" y="25.080000000000002">Income (or consumption) poverty rates</tspan></text><text x="70.16" y="512.7" fill="#666" dominant-baseline="middle" text-anchor="end" font-size="16.2">0%</text><text x="70.16" y="465.1" fill="#666" dominant-baseline="middle" text-anchor="end" font-size="16.2">10%</text><text x="70.16" y="417.5" fill="#666" dominant-baseline="middle" text-anchor="end" font-size="16.2">20%</text><text x="70.16" y="369.9" fill="#666" dominant-baseline="middle" text-anchor="end" font-size="16.2">30%</text><text x="70.16" y="322.3" fill="#666" dominant-baseline="middle" text-anchor="end" font-size="16.2">40%</text><text x="70.16" y="274.6" fill="#666" dominant-baseline="middle" text-anchor="end" font-size="16.2">50%</text><text x="70.16" y="227" fill="#666" dominant-baseline="middle" text-anchor="end" font-size="16.2">60%</text><text x="70.16" y="179.4" fill="#666" dominant-baseline="middle" text-anchor="end" font-size="16.2">70%</text></g><g class="AxisGridLines"><line x1="75.16" y1="512.7" x2="715.00" y2="512.7" stroke="#ccc"></line><line x1="75.16" y1="465.1" x2="715.00" y2="465.1" stroke="#ddd" stroke-dasharray="3,2"></line><line x1="75.16" y1="417.5" x2="715.00" y2="417.5" stroke="#ddd" stroke-dasharray="3,2"></line><line x1="75.16" y1="369.9" x2="715.00" y2="369.9" stroke="#ddd" stroke-dasharray="3,2"></line><line x1="75.16" y1="322.3" x2="715.00" y2="322.3" stroke="#ddd" stroke-dasharray="3,2"></line><line x1="75.16" y1="274.6" x2="715.00" y2="274.6" stroke="#ddd" stroke-dasharray="3,2"></line><line x1="75.16" y1="227" x2="715.00" y2="227" stroke="#ddd" stroke-dasharray="3,2"></line><line x1="75.16" y1="179.4" x2="715.00" y2="179.4" stroke="#ddd" stroke-dasharray="3,2"></line></g><g class="AxisGridLines"><line x1="214.5" y1="512.70" x2="214.5" y2="142.10" stroke="#ddd" stroke-dasharray="3,2"></line><line x1="355.3" y1="512.70" x2="355.3" y2="142.10" stroke="#ddd" stroke-dasharray="3,2"></line><line x1="496.1" y1="512.70" x2="496.1" y2="142.10" stroke="#ddd" stroke-dasharray="3,2"></line><line x1="636.9" y1="512.70" x2="636.9" y2="142.10" stroke="#ddd" stroke-dasharray="3,2"></line></g></g><g class="ComparisonLine"><defs><clipPath id="axisBounds-1"><rect x="75.162" y="142.1" width="639.838" height="370.59999999999997"></rect></clipPath></defs><path d="M75.2,511.7L81.6,507.4L88,503.1L94.4,498.8L100.8,494.4L107.2,490.1L113.6,485.8L120,481.5L126.3,477.1L132.7,472.8L139.1,468.5L145.5,464.1L151.9,459.8L158.3,455.5L164.7,451.2L171.1,446.8L177.5,442.5L183.9,438.2L190.3,433.8L196.7,429.5L203.1,425.2L209.5,420.9L215.9,416.5L222.3,412.2L228.7,407.9L235.1,403.6L241.5,399.2L247.9,394.9L254.3,390.6L260.7,386.2L267.1,381.9L273.5,377.6L279.9,373.3L286.3,368.9L292.7,364.6L299.1,360.3L305.5,355.9L311.9,351.6L318.3,347.3L324.7,343L331.1,338.6L337.5,334.3L343.9,330L350.3,325.7L356.7,321.3L363.1,317L369.5,312.7L375.9,308.3L382.3,304L388.7,299.7L395.1,295.4L401.5,291L407.9,286.7L414.3,282.4L420.7,278L427.1,273.7L433.5,269.4L439.9,265.1L446.3,260.7L452.7,256.4L459.1,252.1L465.5,247.8L471.9,243.4L478.3,239.1L484.7,234.8L491.1,230.4L497.5,226.1L503.9,221.8L510.3,217.5L516.7,213.1L523,208.8L529.4,204.5L535.8,200.1L542.2,195.8L548.6,191.5L555,187.2L561.4,182.8L567.8,178.5L574.2,174.2L580.6,169.9L587,165.5L593.4,161.2L599.8,156.9L606.2,152.5L612.6,148.2L619,143.9L625.4,139.6L631.8,135.2L638.2,130.9L644.6,126.6L651,122.2L657.4,117.9L663.8,113.6L670.2,109.3L676.6,104.9L683,100.6L689.4,96.3L695.8,92L702.2,87.6L708.6,83.3" clip-path="url(#axisBounds-1)" fill="none" stroke="#ccc"></path></g><g clip-path="url(#scatterBounds-2)" font-family="Arial Narrow, Arial, sans-serif" class="PointsWithLabels clickable"><rect x="75.162" y="142.1" width="639.838" height="370.59999999999997" fill="rgba(255,255,255,0)"></rect><defs><clipPath id="scatterBounds-2"><rect x="65.162" y="132.1" width="659.838" height="390.59999999999997"></rect></clipPath></defs><g class="key-China_0"><circle cx="110.00" cy="503.00" r="17.84" fill="#d14e5b" opacity="0.8"></circle></g><g class="key-Indonesia_0"><circle cx="182.00" cy="473.00" r="7.78" fill="#d14e5b" opacity="0.8"></circle></g><g class="key-Brazil_0"><circle cx="111.00" cy="495.00" r="7.04" fill="#69c487" opacity="0.8"></circle></g><g class="key-Pakistan_0"><circle cx="384.00" cy="483.00" r="6.75" fill="#d14e5b" opacity="0.8"></circle></g><g class="key-Nigeria_0"><circle cx="448.00" cy="258.00" r="6.54" fill="#5675c1" opacity="0.8"></circle></g><g class="key-Bangladesh_0"><circle cx="364.00" cy="424.00" r="6.24" fill="#d14e5b" opacity="0.8"></circle></g><g class="key-Mexico_0"><circle cx="93.00" cy="498.00" r="5.51" fill="#4d824b" opacity="0.8"></circle></g><g class="key-Philippines_0"><circle cx="151.00" cy="450.00" r="5.09" fill="#d14e5b" opacity="0.8"></circle></g><g class="key-Vietnam_0"><circle cx="123.00" cy="498.00" r="4.92" fill="#d14e5b" opacity="0.8"></circle></g><g class="key-Ethiopia_0"><circle cx="688.00" cy="353.00" r="4.86" fill="#5675c1" opacity="0.8"></circle></g><g class="key-Democratic-Republic-of-Congo_0"><circle cx="602.00" cy="145.00" r="4.44" fill="#5675c1" opacity="0.8"></circle></g><g class="key-Thailand_0"><circle cx="80.00" cy="512.00" r="4.41" fill="#d14e5b" opacity="0.8"></circle></g><g class="key-South-Africa_0"><circle cx="151.00" cy="433.00" r="3.87" fill="#5675c1" opacity="0.8"></circle></g><g class="key-Tanzania_0"><circle cx="535.00" cy="290.00" r="3.81" fill="#5675c1" opacity="0.8"></circle></g><g class="key-Colombia_0"><circle cx="111.00" cy="485.00" r="3.78" fill="#69c487" opacity="0.8"></circle></g><g class="key-Ukraine_0"><circle cx="82.00" cy="512.00" r="3.67" fill="#ffd336" opacity="0.8"></circle></g><g class="key-Uganda_0"><circle cx="565.00" cy="347.00" r="3.42" fill="#5675c1" opacity="0.8"></circle></g><g class="key-Sudan_0"><circle cx="449.00" cy="441.00" r="3.39" fill="#5675c1" opacity="0.8"></circle></g><g class="key-Nepal_0"><circle cx="275.00" cy="441.00" r="3.23" fill="#d14e5b" opacity="0.8"></circle></g><g class="key-Peru_0"><circle cx="147.00" cy="497.00" r="3.18" fill="#69c487" opacity="0.8"></circle></g><g class="key-Madagascar_0"><circle cx="544.00" cy="142.00" r="2.89" fill="#5675c1" opacity="0.8"></circle></g><g class="key-Cameroon_0"><circle cx="397.00" cy="398.00" r="2.83" fill="#5675c1" opacity="0.8"></circle></g><g class="key-Burkina-Faso_0"><circle cx="665.00" cy="304.00" r="2.71" fill="#5675c1" opacity="0.8"></circle></g><g class="key-Niger_0"><circle cx="702.00" cy="295.00" r="2.67" fill="#5675c1" opacity="0.8"></circle></g><g class="key-Mali_0"><circle cx="620.00" cy="278.00" r="2.65" fill="#5675c1" opacity="0.8"></circle></g><g class="key-Kazakhstan_0"><circle cx="75.00" cy="512.00" r="2.64" fill="#d14e5b" opacity="0.8"></circle></g><g class="key-Malawi_0"><circle cx="467.00" cy="175.00" r="2.64" fill="#5675c1" opacity="0.8"></circle></g><g class="key-Ecuador_0"><circle cx="98.00" cy="494.00" r="2.58" fill="#69c487" opacity="0.8"></circle></g><g class="key-Cambodia_0"><circle cx="306.00" cy="502.00" r="2.56" fill="#d14e5b" opacity="0.8"></circle></g><g class="key-Zambia_0"><circle cx="472.00" cy="206.00" r="2.54" fill="#5675c1" opacity="0.8"></circle></g><g class="key-Senegal_0"><circle cx="474.00" cy="331.00" r="2.50" fill="#5675c1" opacity="0.8"></circle></g><g class="key-Zimbabwe_0"><circle cx="282.00" cy="410.00" r="2.50" fill="#5675c1" opacity="0.8"></circle></g><g class="key-Chad_0"><circle cx="686.00" cy="329.00" r="2.44" fill="#5675c1" opacity="0.8"></circle></g><g class="key-Rwanda_0"><circle cx="452.00" cy="225.00" r="2.42" fill="#5675c1" opacity="0.8"></circle></g><g class="key-South-Sudan_0"><circle cx="715.00" cy="309.00" r="2.38" fill="#5675c1" opacity="0.8"></circle></g><g class="key-Tunisia_0"><circle cx="82.00" cy="503.00" r="2.38" fill="#5675c1" opacity="0.8"></circle></g><g class="key-Guinea_0"><circle cx="602.00" cy="344.00" r="2.37" fill="#5675c1" opacity="0.8"></circle></g><g class="key-Haiti_0"><circle cx="421.00" cy="256.00" r="2.36" fill="#4d824b" opacity="0.8"></circle></g><g class="key-Dominican-Republic_0"><circle cx="135.00" cy="501.00" r="2.35" fill="#4d824b" opacity="0.8"></circle></g><g class="key-Serbia_0"><circle cx="75.00" cy="511.00" r="2.33" fill="#ffd336" opacity="0.8"></circle></g><g class="key-Benin_0"><circle cx="511.00" cy="259.00" r="2.32" fill="#5675c1" opacity="0.8"></circle></g><g class="key-Honduras_0"><circle cx="185.00" cy="436.00" r="2.24" fill="#4d824b" opacity="0.8"></circle></g><g class="key-Tajikistan_0"><circle cx="166.00" cy="419.00" r="2.19" fill="#d14e5b" opacity="0.8"></circle></g><g class="key-Laos_0"><circle cx="313.00" cy="433.00" r="2.15" fill="#d14e5b" opacity="0.8"></circle></g><g class="key-Togo_0"><circle cx="426.00" cy="254.00" r="2.15" fill="#5675c1" opacity="0.8"></circle></g><g class="key-Sierra-Leone_0"><circle cx="643.00" cy="263.00" r="2.14" fill="#5675c1" opacity="0.8"></circle></g><g class="key-Nicaragua_0"><circle cx="187.00" cy="483.00" r="2.13" fill="#4d824b" opacity="0.8"></circle></g><g class="key-Kyrgyzstan_0"><circle cx="77.00" cy="506.00" r="2.10" fill="#d14e5b" opacity="0.8"></circle></g><g class="key-Congo_0"><circle cx="353.00" cy="336.00" r="2.04" fill="#5675c1" opacity="0.8"></circle></g><g class="key-Bosnia-and-Herzegovina_0"><circle cx="77.00" cy="512.00" r="2.00" fill="#ffd336" opacity="0.8"></circle></g><g class="key-Mauritania_0"><circle cx="441.00" cy="484.00" r="2.00" fill="#5675c1" opacity="0.8"></circle></g><g class="key-Moldova_0"><circle cx="79.00" cy="512.00" r="1.99" fill="#ffd336" opacity="0.8"></circle></g><g class="key-Albania_0"><circle cx="83.00" cy="507.00" r="1.97" fill="#ffd336" opacity="0.8"></circle></g><g class="key-Armenia_0"><circle cx="75.00" cy="501.00" r="1.97" fill="#d14e5b" opacity="0.8"></circle></g><g class="key-Mongolia_0"><circle cx="143.00" cy="511.00" r="1.95" fill="#d14e5b" opacity="0.8"></circle></g><g class="key-Namibia_0"><circle cx="369.00" cy="405.00" r="1.92" fill="#5675c1" opacity="0.8"></circle></g><g class="key-Lesotho_0"><circle cx="299.00" cy="228.00" r="1.91" fill="#5675c1" opacity="0.8"></circle></g><g class="key-Swaziland_0"><circle cx="217.00" cy="312.00" r="1.85" fill="#5675c1" opacity="0.8"></circle></g><g class="key-Bhutan_0"><circle cx="265.00" cy="502.00" r="1.82" fill="#d14e5b" opacity="0.8"></circle></g><g class="key-Montenegro_0"><circle cx="75.00" cy="512.00" r="1.81" fill="#ffd336" opacity="0.8"></circle></g><g class="key-Maldives_0"><circle cx="110.00" cy="478.00" r="1.79" fill="#d14e5b" opacity="0.8"></circle></g><g class="key-Sao-Tome-and-Principe_0"><circle cx="209.00" cy="359.00" r="1.78" fill="#5675c1" opacity="0.8"></circle></g><g class="key-Palestine_0"><circle cx="81.00" cy="512.00" r="1.77" fill="#d14e5b" opacity="0.8"></circle></g><g fill="#666" class="backgroundLabels"><text x="110.00" y="484.16" font-size="14.30">China</text><text x="182.00" y="464.22" font-size="11.60">Indonesia</text><text x="384.00" y="475.25" font-size="11.44">Pakistan</text><text x="448.00" y="250.46" font-size="11.41">Nigeria</text><text x="364.00" y="416.76" font-size="11.37">Bangladesh</text><text x="151.00" y="443.91" font-size="11.24">Philippines</text><text x="647.29" y="347.14" font-size="11.21">Ethiopia</text><text x="450.05" y="153.27" font-size="11.17">Democratic Republic of Congo</text><text x="80.00" y="506.59" font-size="11.17">Thailand</text><text x="151.00" y="428.13" font-size="11.12">South Africa</text><text x="535.00" y="285.19" font-size="11.12">Tanzania</text><text x="565.00" y="342.58" font-size="11.09">Uganda</text><text x="449.00" y="436.61" font-size="11.09">Sudan</text><text x="275.00" y="436.77" font-size="11.08">Nepal</text><text x="397.00" y="394.17" font-size="11.05">Cameroon</text><text x="599.73" y="300.29" font-size="11.04">Burkina Faso</text><text x="675.61" y="291.33" font-size="11.04">Niger</text><text x="620.00" y="274.35" font-size="11.04">Mali</text><text x="467.00" y="171.36" font-size="11.04">Malawi</text><text x="306.00" y="498.44" font-size="11.04">Cambodia</text><text x="472.00" y="202.46" font-size="11.03">Zambia</text><text x="474.00" y="327.50" font-size="11.03">Senegal</text><text x="282.00" y="406.50" font-size="11.03">Zimbabwe</text><text x="686.00" y="325.56" font-size="11.03">Chad</text><text x="452.00" y="221.58" font-size="11.03">Rwanda</text><text x="421.00" y="252.64" font-size="11.02">Haiti</text><text x="135.00" y="497.65" font-size="11.02">Dominican Republic</text><text x="511.00" y="255.68" font-size="11.02">Benin</text><text x="166.00" y="415.81" font-size="11.02">Tajikistan</text><text x="313.00" y="429.85" font-size="11.02">Laos</text><text x="643.00" y="259.86" font-size="11.01">Sierra Leone</text><text x="187.00" y="479.87" font-size="11.01">Nicaragua</text><text x="353.00" y="332.96" font-size="11.01">Congo</text><text x="441.00" y="481.00" font-size="11.01">Mauritania</text><text x="299.00" y="225.09" font-size="11.01">Lesotho</text><text x="217.00" y="309.15" font-size="11.00">Swaziland</text><text x="265.00" y="499.18" font-size="11.00">Bhutan</text><text x="209.00" y="356.22" font-size="11.00">Sao Tome and Principe</text></g></g><g style="cursor: pointer;" class="ScatterColorLegend clickable"><g class="legendMark"><rect x="735" y="139.6" width="43.256" height="17.6" fill="#fff" opacity="0"></rect>,<rect x="735" y="145.1" width="6" height="6" fill="#5675c1"></rect>,<text font-size="12.60" x="746.0" y="152.2"><tspan x="746" y="152.17999999999998">Africa</tspan></text></g><g class="legendMark"><rect x="735" y="157.2" width="35.57" height="17.6" fill="#fff" opacity="0"></rect>,<rect x="735" y="162.7" width="6" height="6" fill="#d14e5b"></rect>,<text font-size="12.60" x="746.0" y="169.8"><tspan x="746" y="169.77999999999997">Asia</tspan></text></g><g class="legendMark"><rect x="735" y="174.8" width="51.824" height="17.6" fill="#fff" opacity="0"></rect>,<rect x="735" y="180.3" width="6" height="6" fill="#ffd336"></rect>,<text font-size="12.60" x="746.0" y="187.4"><tspan x="746" y="187.38">Europe</tspan></text></g><g class="legendMark"><rect x="735" y="192.4" width="91.64" height="17.6" fill="#fff" opacity="0"></rect>,<rect x="735" y="197.9" width="6" height="6" fill="#4d824b"></rect>,<text font-size="12.60" x="746.0" y="205.0"><tspan x="746" y="204.98">North America</tspan></text></g><g class="legendMark"><rect x="735" y="210" width="93.908" height="17.6" fill="#fff" opacity="0"></rect>,<rect x="735" y="215.5" width="6" height="6" fill="#69c487"></rect>,<text font-size="12.60" x="746.0" y="222.6"><tspan x="746" y="222.57999999999998">South America</tspan></text></g></g></g><g style="fill: #777;" class="SourcesFooter"><g style="fill: #777;" class="clickable"><text font-size="12.60" x="15.0" y="581.6"><tspan x="15" y="581.58">Source: OPHI Multidimensional Poverty Index - Alkire and Robles (2016), World Bank – WDI</tspan></text></g><text font-size="12.60" x="550.7" y="581.6"><tspan x="550.7439999999999" y="581.58"><a target='_blank' style='fill: #777;' href='https://ourworldindata.org/extreme-poverty/'>OurWorldInData.org/extreme-poverty/</a> • <a style="fill: #777;" href="http://creativecommons.org/licenses/by-sa/4.0/deed.en_US" target="_blank">CC BY-SA</a></tspan></text></g></g></svg>