<svg xmlns="http://www.w3.org/2000/svg" version="1.1" style="background-color:#fff;-webkit-font-smoothing:antialiased" width="850" height="600" font-family="'Helvetica Neue',Helvetica,Arial,sans-serif" font-size="18" text-rendering="optimizeLegibility"><g class="ChartTab"><g class="HeaderView"><g opacity=".8" transform="matrix(.27 0 0 .27 778 15)"><a xmlns:xlink="http://www.w3.org/1999/xlink" xlink:href="https://ourworldindata.org" target="_blank"><g><path fill="#1B2543" d="M0 0h211.2v130.1H0z"/><path fill="#E63912" d="M0 112.2h211.2v17.9H0z"/><g><path fill="none" d="M1.2 12.3h210.2v99.2H1.2z"/><path fill="#FFF" d="M37.8 32.2c0 12.7-7.7 19.4-17.1 19.4-9.7 0-16.6-7.5-16.6-18.7 0-11.7 7.3-19.3 17.1-19.3 10.1.1 16.6 7.7 16.6 18.6zm-28.6.6c0 7.9 4.3 14.9 11.8 14.9 7.5 0 11.8-6.9 11.8-15.3 0-7.3-3.8-14.9-11.8-14.9-7.9 0-11.8 7.3-11.8 15.3zM62.7 43.8c0 2.7.1 5.1.2 7.2h-4.3l-.3-4.3h-.1c-1.3 2.1-4 4.9-8.8 4.9-4.2 0-9.1-2.3-9.1-11.6V24.6h4.8v14.6c0 5 1.5 8.4 5.9 8.4 3.2 0 5.5-2.2 6.3-4.4.3-.7.4-1.6.4-2.5V24.6h4.8v19.2zM67.3 32.8c0-3.1-.1-5.8-.2-8.2h4.2l.2 5.2h.2c1.2-3.5 4.1-5.8 7.3-5.8.5 0 .9.1 1.4.2v4.5c-.5-.1-1-.2-1.6-.2-3.4 0-5.8 2.6-6.5 6.2-.1.7-.2 1.4-.2 2.2V51h-4.8V32.8zM95.4 51L86 14.2h5l4.4 18.6c1.1 4.6 2.1 9.2 2.7 12.7h.1c.6-3.7 1.8-8 3-12.8l4.9-18.5h5l4.5 18.7c1 4.4 2 8.7 2.6 12.6h.1c.8-4 1.8-8.1 3-12.7l4.9-18.5h4.9L120.6 51h-5L111 31.9c-1.1-4.7-1.9-8.3-2.4-12h-.1c-.7 3.7-1.5 7.3-2.8 12L100.4 51h-5zM154.9 37.6c0 9.8-6.8 14-13.2 14-7.2 0-12.7-5.2-12.7-13.6 0-8.8 5.8-14 13.1-14 7.7 0 12.8 5.5 12.8 13.6zm-21 .3c0 5.8 3.3 10.1 8 10.1 4.6 0 8-4.3 8-10.3 0-4.5-2.2-10.1-7.9-10.1s-8.1 5.2-8.1 10.3zM158.2 32.8c0-3.1-.1-5.8-.2-8.2h4.2l.2 5.2h.2c1.2-3.5 4.1-5.8 7.3-5.8.5 0 .9.1 1.4.2v4.5c-.5-.1-1-.2-1.6-.2-3.4 0-5.8 2.6-6.5 6.2-.1.7-.2 1.4-.2 2.2V51h-4.8V32.8zM173.5 12.3h4.8V51h-4.8V12.3zM206.5 12.3v31.9c0 2.3.1 5 .2 6.8h-4.3l-.2-4.6h-.2c-1.5 2.9-4.7 5.2-9 5.2-6.4 0-11.3-5.4-11.3-13.4-.1-8.8 5.4-14.2 11.9-14.2 4 0 6.8 1.9 8 4h.1V12.3h4.8zm-4.8 23.1c0-.6-.1-1.4-.2-2a7 7 0 00-6.9-5.6c-5 0-7.9 4.4-7.9 10.2 0 5.3 2.6 9.8 7.8 9.8 3.2 0 6.2-2.1 7.1-5.7.2-.7.2-1.3.2-2.1v-4.6zM42.8 64c.1 1.6-1.1 2.9-3.1 2.9-1.7 0-2.9-1.3-2.9-2.9 0-1.7 1.3-3 3-3 1.9 0 3 1.3 3 3zm-5.4 33.8V71.4h4.8v26.4h-4.8zM47.5 78.6c0-2.7-.1-5-.2-7.1h4.3l.3 4.4h.1c1.3-2.5 4.4-5 8.8-5 3.7 0 9.4 2.2 9.4 11.2v15.8h-4.8V82.6c0-4.3-1.6-7.8-6.1-7.8-3.2 0-5.6 2.2-6.5 4.9-.2.6-.3 1.4-.3 2.2v15.9h-4.8V78.6zM84 61.6c2.9-.4 6.3-.8 10.1-.8 6.8 0 11.7 1.6 14.9 4.6 3.3 3 5.2 7.3 5.2 13.2 0 6-1.9 10.9-5.3 14.3-3.4 3.4-9.1 5.3-16.3 5.3-3.4 0-6.2-.2-8.6-.4V61.6zm4.8 32.5c1.2.2 3 .3 4.8.3 10.2 0 15.7-5.7 15.7-15.6.1-8.7-4.9-14.2-14.9-14.2-2.5 0-4.3.2-5.6.5v29zM132.1 97.8l-.4-3.3h-.2a9.79 9.79 0 01-8.1 3.9c-5.4 0-8.1-3.8-8.1-7.6 0-6.4 5.7-9.9 15.9-9.8v-.5c0-2.2-.6-6.1-6-6.1-2.5 0-5 .8-6.9 2l-1.1-3.2c2.2-1.4 5.4-2.3 8.7-2.3 8.1 0 10.1 5.5 10.1 10.8v9.9c0 2.3.1 4.5.4 6.3h-4.3zm-.7-13.4c-5.3-.1-11.2.8-11.2 5.9 0 3.1 2.1 4.6 4.5 4.6 3.4 0 5.6-2.2 6.4-4.4.2-.5.3-1 .3-1.5v-4.6zM146.6 63.9v7.6h6.9v3.7h-6.9v14.2c0 3.3.9 5.1 3.6 5.1 1.3 0 2.2-.2 2.8-.3l.2 3.6c-.9.4-2.4.7-4.3.7-2.2 0-4-.7-5.2-2-1.4-1.4-1.9-3.8-1.9-6.9V75.1h-4.1v-3.7h4.1v-6.3l4.8-1.2zM171.4 97.8l-.4-3.3h-.2a9.79 9.79 0 01-8.1 3.9c-5.4 0-8.1-3.8-8.1-7.6 0-6.4 5.7-9.9 15.9-9.8v-.5c0-2.2-.6-6.1-6-6.1-2.5 0-5 .8-6.9 2l-1.1-3.2c2.2-1.4 5.4-2.3 8.7-2.3 8.1 0 10.1 5.5 10.1 10.8v9.9c0 2.3.1 4.5.4 6.3h-4.3zm-.7-13.4c-5.3-.1-11.2.8-11.2 5.9 0 3.1 2.1 4.6 4.5 4.6 3.4 0 5.6-2.2 6.4-4.4.2-.5.3-1 .3-1.5v-4.6z"/></g></g></a></g><a href="https://ourworldindata.org/grapher/new-cases-of-hiv-unaids-vs-ihme" target="_blank"><text font-size="21.6" x="15" y="32.3" fill="#555"><tspan x="15" y="32.28">New cases of HIV per 1000 individuals, UNAIDS vs IHME estimates, 2016</tspan></text></a><text font-size="14.4" x="15" y="50.1" fill="#666"><tspan x="15" y="50.12">Incidence of HIV, measured as the number of new cases per 1000 individuals of all ages, based on UNAIDS versus</tspan><tspan x="15" y="65.96">IHME, Global Burden of Disease estimates.</tspan></text></g><g><g class="AxisBoxView"><g class="HorizontalAxis"><text font-size="12.6" x="235.1" y="554"><tspan x="235.09" y="553.98">New cases of HIV per 1000 individuals (IHME)</tspan></text><text x="60.7" y="533.9" fill="#666" text-anchor="middle" font-size="16.2">0</text><text x="154.2" y="533.9" fill="#666" text-anchor="middle" font-size="16.2">2</text><text x="247.7" y="533.9" fill="#666" text-anchor="middle" font-size="16.2">4</text><text x="341.1" y="533.9" fill="#666" text-anchor="middle" font-size="16.2">6</text><text x="434.6" y="533.9" fill="#666" text-anchor="middle" font-size="16.2">8</text><text x="528.1" y="533.9" fill="#666" text-anchor="middle" font-size="16.2">10</text><text x="621.5" y="533.9" fill="#666" text-anchor="middle" font-size="16.2">12</text><text x="715" y="533.9" fill="#666" text-anchor="middle" font-size="16.2">14</text></g><g class="VerticalAxis"><text font-size="12.6" x="-460.5" y="25.1" transform="rotate(-90)"><tspan x="-460.47" y="25.08">New cases of HIV per 1000 individuals (UNAIDS)</tspan></text><text x="55.74" y="512.7" fill="#666" dominant-baseline="middle" text-anchor="end" font-size="16.2">0</text><text x="55.74" y="452.1" fill="#666" dominant-baseline="middle" text-anchor="end" font-size="16.2">2</text><text x="55.74" y="391.5" fill="#666" dominant-baseline="middle" text-anchor="end" font-size="16.2">4</text><text x="55.74" y="330.9" fill="#666" dominant-baseline="middle" text-anchor="end" font-size="16.2">6</text><text x="55.74" y="270.3" fill="#666" dominant-baseline="middle" text-anchor="end" font-size="16.2">8</text><text x="55.74" y="209.7" fill="#666" dominant-baseline="middle" text-anchor="end" font-size="16.2">10</text><text x="55.74" y="149.1" fill="#666" dominant-baseline="middle" text-anchor="end" font-size="16.2">12</text><text x="55.74" y="88.5" fill="#666" dominant-baseline="middle" text-anchor="end" font-size="16.2">14</text></g><g class="AxisGridLines"><path stroke="#ccc" d="M60.74 512.7H715"/><path stroke="#ddd" stroke-dasharray="3,2" d="M60.74 452.1H715M60.74 391.5H715M60.74 330.9H715M60.74 270.3H715M60.74 209.7H715M60.74 149.1H715M60.74 88.5H715"/></g><g class="AxisGridLines"><path stroke="#ccc" d="M60.7 512.7V88.5"/><path stroke="#ddd" stroke-dasharray="3,2" d="M154.2 512.7V88.5M247.7 512.7V88.5M341.1 512.7V88.5M434.6 512.7V88.5M528.1 512.7V88.5M621.5 512.7V88.5M715 512.7V88.5"/></g></g><g class="ComparisonLine"><defs><clipPath id="a"><path d="M60.74 88.5H715v424.2H60.74z"/></clipPath></defs><path d="M60.7 512.7l6.6-4.2 6.5-4.3 6.6-4.2 6.5-4.3 6.6-4.2 6.5-4.3 6.5-4.2 6.6-4.2 6.5-4.3 6.6-4.2 6.5-4.3 6.6-4.2 6.5-4.2 6.5-4.3 6.6-4.2 6.5-4.3 6.6-4.2 6.5-4.3 6.6-4.2 6.5-4.2 6.5-4.3 6.6-4.2 6.5-4.3 6.6-4.2 6.5-4.2 6.6-4.3 6.5-4.2 6.5-4.3 6.6-4.2 6.5-4.3 6.6-4.2 6.5-4.2 6.5-4.3 6.6-4.2 6.5-4.3 6.6-4.2 6.5-4.3 6.6-4.2 6.5-4.2 6.5-4.3 6.6-4.2 6.5-4.3 6.6-4.2 6.5-4.2 6.6-4.3 6.5-4.2 6.5-4.3 6.6-4.2 6.5-4.3 6.6-4.2 6.5-4.2 6.6-4.3 6.5-4.2 6.5-4.3 6.6-4.2 6.5-4.3 6.6-4.2 6.5-4.2 6.6-4.3 6.5-4.2 6.5-4.3 6.6-4.2 6.5-4.2 6.6-4.3 6.5-4.2 6.6-4.3 6.5-4.2 6.5-4.3 6.6-4.2 6.5-4.2 6.6-4.3 6.5-4.2 6.6-4.3 6.5-4.2 6.5-4.2 6.6-4.3 6.5-4.2 6.6-4.3 6.5-4.2 6.5-4.3 6.6-4.2 6.5-4.2 6.6-4.3 6.5-4.2 6.6-4.3 6.5-4.2 6.5-4.3 6.6-4.2 6.5-4.2 6.6-4.3 6.5-4.2 6.6-4.3 6.5-4.2 6.5-4.2 6.6-4.3 6.5-4.2 6.6-4.3 6.5-4.2 6.6-4.3" clip-path="url(#a)" fill="none" stroke="#ccc"/></g><g clip-path="url(#b)" font-family="Arial Narrow, Arial, sans-serif" class="PointsWithLabels clickable"><path fill="rgba(255,255,255,0)" d="M60.74 88.5H715v424.2H60.74z"/><defs><clipPath id="b"><path d="M50.74 78.5H725v444.2H50.74z"/></clipPath></defs><g class="key-India_0"><circle cx="65" cy="510" r="17.84" fill="#d14e5b" opacity=".8" stroke="#333" stroke-width=".7"/></g><g class="key-Indonesia_0"><circle cx="64" cy="507" r="8.01" fill="#d14e5b" opacity=".8" stroke="#fff" stroke-width=".7"/></g><g class="key-Brazil_0"><circle cx="68" cy="505" r="7.25" fill="#69c487" opacity=".8" stroke="#fff" stroke-width=".7"/></g><g class="key-Pakistan_0"><circle cx="62" cy="509" r="6.96" fill="#d14e5b" opacity=".8" stroke="#fff" stroke-width=".7"/></g><g class="key-Nigeria_0"><circle cx="104" cy="475" r="6.74" fill="#5675c1" opacity=".8" stroke="#333" stroke-width=".7"/></g><g class="key-Bangladesh_0"><circle cx="60" cy="512" r="6.43" fill="#d14e5b" opacity=".8" stroke="#333" stroke-width=".7"/></g><g class="key-Mexico_0"><circle cx="66" cy="509" r="5.67" fill="#4d824b" opacity=".8" stroke="#fff" stroke-width=".7"/></g><g class="key-Philippines_0"><circle cx="71" cy="509" r="5.23" fill="#d14e5b" opacity=".8" stroke="#fff" stroke-width=".7"/></g><g class="key-Vietnam_0"><circle cx="69" cy="509" r="5.05" fill="#d14e5b" opacity=".8" stroke="#fff" stroke-width=".7"/></g><g class="key-Ethiopia_0"><circle cx="77" cy="502" r="5" fill="#5675c1" opacity=".8" stroke="#fff" stroke-width=".7"/></g><g class="key-Egypt_0"><circle cx="61" cy="512" r="4.92" fill="#5675c1" opacity=".8" stroke="#fff" stroke-width=".7"/></g><g class="key-Iran_0"><circle cx="61" cy="510" r="4.69" fill="#d14e5b" opacity=".8" stroke="#fff" stroke-width=".7"/></g><g class="key-Democratic-Republic-of-Congo_0"><circle cx="78" cy="507" r="4.56" fill="#5675c1" opacity=".8" stroke="#fff" stroke-width=".7"/></g><g class="key-Thailand_0"><circle cx="73" cy="509" r="4.53" fill="#d14e5b" opacity=".8" stroke="#fff" stroke-width=".7"/></g><g class="key-France_0"><circle cx="62" cy="509" r="4.35" fill="#ffd336" opacity=".8" stroke="#fff" stroke-width=".7"/></g><g class="key-Italy_0"><circle cx="65" cy="510" r="4.27" fill="#ffd336" opacity=".8" stroke="#fff" stroke-width=".7"/></g><g class="key-South-Africa_0"><circle cx="296" cy="343" r="3.97" fill="#5675c1" opacity=".8" stroke="#333" stroke-width=".7"/></g><g class="key-Tanzania_0"><circle cx="126" cy="476" r="3.91" fill="#5675c1" opacity=".8" stroke="#fff" stroke-width=".7"/></g><g class="key-Myanmar_0"><circle cx="68" cy="506" r="3.91" fill="#d14e5b" opacity=".8" stroke="#fff" stroke-width=".7"/></g><g class="key-Colombia_0"><circle cx="66" cy="509" r="3.88" fill="#69c487" opacity=".8" stroke="#fff" stroke-width=".7"/></g><g class="key-Spain_0"><circle cx="66" cy="510" r="3.84" fill="#ffd336" opacity=".8" stroke="#fff" stroke-width=".7"/></g><g class="key-Ukraine_0"><circle cx="78" cy="501" r="3.76" fill="#ffd336" opacity=".8" stroke="#fff" stroke-width=".7"/></g><g class="key-Kenya_0"><circle cx="159" cy="468" r="3.74" fill="#5675c1" opacity=".8" stroke="#333" stroke-width=".7"/></g><g class="key-Argentina_0"><circle cx="69" cy="508" r="3.66" fill="#69c487" opacity=".8" stroke="#fff" stroke-width=".7"/></g><g class="key-Algeria_0"><circle cx="61" cy="512" r="3.5" fill="#5675c1" opacity=".8" stroke="#fff" stroke-width=".7"/></g><g class="key-Uganda_0"><circle cx="150" cy="467" r="3.49" fill="#5675c1" opacity=".8" stroke="#fff" stroke-width=".7"/></g><g class="key-Sudan_0"><circle cx="64" cy="508" r="3.46" fill="#5675c1" opacity=".8" stroke="#fff" stroke-width=".7"/></g><g class="key-Afghanistan_0"><circle cx="61" cy="511" r="3.41" fill="#d14e5b" opacity=".8" stroke="#fff" stroke-width=".7"/></g><g class="key-Morocco_0"><circle cx="61" cy="511" r="3.36" fill="#5675c1" opacity=".8" stroke="#fff" stroke-width=".7"/></g><g class="key-Nepal_0"><circle cx="62" cy="511" r="3.3" fill="#d14e5b" opacity=".8" stroke="#fff" stroke-width=".7"/></g><g class="key-Venezuela_0"><circle cx="69" cy="506" r="3.26" fill="#69c487" opacity=".8" stroke="#fff" stroke-width=".7"/></g><g class="key-Peru_0"><circle cx="63" cy="510" r="3.25" fill="#69c487" opacity=".8" stroke="#fff" stroke-width=".7"/></g><g class="key-Malaysia_0"><circle cx="63" cy="507" r="3.24" fill="#d14e5b" opacity=".8" stroke="#fff" stroke-width=".7"/></g><g class="key-Saudi-Arabia_0"><circle cx="61" cy="512" r="3.22" fill="#d14e5b" opacity=".8" stroke="#fff" stroke-width=".7"/></g><g class="key-Ghana_0"><circle cx="88" cy="489" r="3.1" fill="#5675c1" opacity=".8" stroke="#fff" stroke-width=".7"/></g><g class="key-Mozambique_0"><circle cx="223" cy="402" r="3.05" fill="#5675c1" opacity=".8" stroke="#333" stroke-width=".7"/></g><g class="key-Australia_0"><circle cx="63" cy="511" r="2.98" fill="#a652ba" opacity=".8" stroke="#fff" stroke-width=".7"/></g><g class="key-Madagascar_0"><circle cx="66" cy="507" r="2.95" fill="#5675c1" opacity=".8" stroke="#fff" stroke-width=".7"/></g><g class="key-Sri-Lanka_0"><circle cx="61" cy="511" r="2.9" fill="#d14e5b" opacity=".8" stroke="#fff" stroke-width=".7"/></g><g class="key-Romania_0"><circle cx="61" cy="511" r="2.9" fill="#ffd336" opacity=".8" stroke="#fff" stroke-width=".7"/></g><g class="key-Cote-d__0027Ivoire_0"><circle cx="121" cy="486" r="2.89" fill="#5675c1" opacity=".8" stroke="#333" stroke-width=".7"/></g><g class="key-Cameroon_0"><circle cx="138" cy="470" r="2.88" fill="#5675c1" opacity=".8" stroke="#fff" stroke-width=".7"/></g><g class="key-Angola_0"><circle cx="93" cy="484" r="2.87" fill="#5675c1" opacity=".8" stroke="#fff" stroke-width=".7"/></g><g class="key-Burkina-Faso_0"><circle cx="74" cy="507" r="2.75" fill="#5675c1" opacity=".8" stroke="#fff" stroke-width=".7"/></g><g class="key-Chile_0"><circle cx="63" cy="504" r="2.73" fill="#69c487" opacity=".8" stroke="#fff" stroke-width=".7"/></g><g class="key-Niger_0"><circle cx="68" cy="510" r="2.72" fill="#5675c1" opacity=".8" stroke="#fff" stroke-width=".7"/></g><g class="key-Mali_0"><circle cx="82" cy="502" r="2.7" fill="#5675c1" opacity=".8" stroke="#fff" stroke-width=".7"/></g><g class="key-Netherlands_0"><circle cx="62" cy="511" r="2.7" fill="#ffd336" opacity=".8" stroke="#fff" stroke-width=".7"/></g><g class="key-Kazakhstan_0"><circle cx="64" cy="507" r="2.69" fill="#d14e5b" opacity=".8" stroke="#fff" stroke-width=".7"/></g><g class="key-Malawi_0"><circle cx="241" cy="443" r="2.68" fill="#5675c1" opacity=".8" stroke="#333" stroke-width=".7"/></g><g class="key-Guatemala_0"><circle cx="66" cy="507" r="2.64" fill="#4d824b" opacity=".8" stroke="#fff" stroke-width=".7"/></g><g class="key-Ecuador_0"><circle cx="66" cy="509" r="2.62" fill="#69c487" opacity=".8" stroke="#fff" stroke-width=".7"/></g><g class="key-Cambodia_0"><circle cx="63" cy="511" r="2.6" fill="#d14e5b" opacity=".8" stroke="#fff" stroke-width=".7"/></g><g class="key-Zambia_0"><circle cx="240" cy="389" r="2.58" fill="#5675c1" opacity=".8" stroke="#333" stroke-width=".7"/></g><g class="key-Senegal_0"><circle cx="69" cy="510" r="2.54" fill="#5675c1" opacity=".8" stroke="#fff" stroke-width=".7"/></g><g class="key-Zimbabwe_0"><circle cx="256" cy="421" r="2.53" fill="#5675c1" opacity=".8" stroke="#333" stroke-width=".7"/></g><g class="key-Chad_0"><circle cx="105" cy="502" r="2.47" fill="#5675c1" opacity=".8" stroke="#fff" stroke-width=".7"/></g><g class="key-Rwanda_0"><circle cx="71" cy="491" r="2.45" fill="#5675c1" opacity=".8" stroke="#fff" stroke-width=".7"/></g><g class="key-Cuba_0"><circle cx="78" cy="503" r="2.43" fill="#4d824b" opacity=".8" stroke="#fff" stroke-width=".7"/></g><g class="key-South-Sudan_0"><circle cx="104" cy="471" r="2.41" fill="#5675c1" opacity=".8" stroke="#fff" stroke-width=".7"/></g><g class="key-Tunisia_0"><circle cx="61" cy="511" r="2.41" fill="#5675c1" opacity=".8" stroke="#fff" stroke-width=".7"/></g><g class="key-Guinea_0"><circle cx="86" cy="492" r="2.4" fill="#5675c1" opacity=".8" stroke="#fff" stroke-width=".7"/></g><g class="key-Czech-Republic_0"><circle cx="61" cy="511" r="2.4" fill="#ffd336" opacity=".8" stroke="#fff" stroke-width=".7"/></g><g class="key-Bolivia_0"><circle cx="65" cy="509" r="2.39" fill="#69c487" opacity=".8" stroke="#fff" stroke-width=".7"/></g><g class="key-Haiti_0"><circle cx="71" cy="489" r="2.39" fill="#4d824b" opacity=".8" stroke="#fff" stroke-width=".7"/></g><g class="key-Dominican-Republic_0"><circle cx="86" cy="505" r="2.38" fill="#4d824b" opacity=".8" stroke="#fff" stroke-width=".7"/></g><g class="key-Somalia_0"><circle cx="73" cy="507" r="2.37" fill="#5675c1" opacity=".8" stroke="#fff" stroke-width=".7"/></g><g class="key-Serbia_0"><circle cx="60" cy="511" r="2.36" fill="#ffd336" opacity=".8" stroke="#fff" stroke-width=".7"/></g><g class="key-Benin_0"><circle cx="82" cy="502" r="2.34" fill="#5675c1" opacity=".8" stroke="#fff" stroke-width=".7"/></g><g class="key-Sweden_0"><circle cx="63" cy="511" r="2.34" fill="#ffd336" opacity=".8" stroke="#fff" stroke-width=".7"/></g><g class="key-Azerbaijan_0"><circle cx="62" cy="509" r="2.34" fill="#d14e5b" opacity=".8" stroke="#fff" stroke-width=".7"/></g><g class="key-Burundi_0"><circle cx="77" cy="506" r="2.31" fill="#5675c1" opacity=".8" stroke="#fff" stroke-width=".7"/></g><g class="key-Honduras_0"><circle cx="65" cy="509" r="2.26" fill="#4d824b" opacity=".8" stroke="#fff" stroke-width=".7"/></g><g class="key-Bulgaria_0"><circle cx="61" cy="511" r="2.22" fill="#ffd336" opacity=".8" stroke="#fff" stroke-width=".7"/></g><g class="key-Papua-New-Guinea_0"><circle cx="73" cy="501" r="2.22" fill="#a652ba" opacity=".8" stroke="#fff" stroke-width=".7"/></g><g class="key-Tajikistan_0"><circle cx="62" cy="508" r="2.21" fill="#d14e5b" opacity=".8" stroke="#fff" stroke-width=".7"/></g><g class="key-Paraguay_0"><circle cx="63" cy="506" r="2.19" fill="#69c487" opacity=".8" stroke="#fff" stroke-width=".7"/></g><g class="key-Jordan_0"><circle cx="60" cy="512" r="2.18" fill="#d14e5b" opacity=".8" stroke="#fff" stroke-width=".7"/></g><g class="key-Laos_0"><circle cx="64" cy="509" r="2.17" fill="#d14e5b" opacity=".8" stroke="#fff" stroke-width=".7"/></g><g class="key-Togo_0"><circle cx="102" cy="494" r="2.17" fill="#5675c1" opacity=".8" stroke="#fff" stroke-width=".7"/></g><g class="key-El-Salvador_0"><circle cx="63" cy="507" r="2.16" fill="#4d824b" opacity=".8" stroke="#fff" stroke-width=".7"/></g><g class="key-Sierra-Leone_0"><circle cx="81" cy="486" r="2.16" fill="#5675c1" opacity=".8" stroke="#fff" stroke-width=".7"/></g><g class="key-Nicaragua_0"><circle cx="66" cy="510" r="2.15" fill="#4d824b" opacity=".8" stroke="#fff" stroke-width=".7"/></g><g class="key-Eritrea_0"><circle cx="78" cy="508" r="2.13" fill="#5675c1" opacity=".8" stroke="#fff" stroke-width=".7"/></g><g class="key-Kyrgyzstan_0"><circle cx="66" cy="508" r="2.12" fill="#d14e5b" opacity=".8" stroke="#fff" stroke-width=".7"/></g><g class="key-Slovakia_0"><circle cx="60" cy="512" r="2.12" fill="#ffd336" opacity=".8" stroke="#fff" stroke-width=".7"/></g><g class="key-Costa-Rica_0"><circle cx="65" cy="506" r="2.08" fill="#4d824b" opacity=".8" stroke="#fff" stroke-width=".7"/></g><g class="key-Central-African-Republic_0"><circle cx="138" cy="458" r="2.07" fill="#5675c1" opacity=".8" stroke="#fff" stroke-width=".7"/></g><g class="key-Ireland_0"><circle cx="65" cy="510" r="2.07" fill="#ffd336" opacity=".8" stroke="#fff" stroke-width=".7"/></g><g class="key-Croatia_0"><circle cx="60" cy="512" r="2.05" fill="#ffd336" opacity=".8" stroke="#fff" stroke-width=".7"/></g><g class="key-Liberia_0"><circle cx="85" cy="492" r="2.05" fill="#5675c1" opacity=".8" stroke="#fff" stroke-width=".7"/></g><g class="key-Congo_0"><circle cx="114" cy="462" r="2.05" fill="#5675c1" opacity=".8" stroke="#fff" stroke-width=".7"/></g><g class="key-Lebanon_0"><circle cx="61" cy="512" r="2.05" fill="#d14e5b" opacity=".8" stroke="#fff" stroke-width=".7"/></g><g class="key-Georgia_0"><circle cx="62" cy="504" r="2.04" fill="#d14e5b" opacity=".8" stroke="#fff" stroke-width=".7"/></g><g class="key-Mauritania_0"><circle cx="67" cy="509" r="2.01" fill="#5675c1" opacity=".8" stroke="#fff" stroke-width=".7"/></g><g class="key-Panama_0"><circle cx="79" cy="502" r="2.01" fill="#4d824b" opacity=".8" stroke="#fff" stroke-width=".7"/></g><g class="key-Moldova_0"><circle cx="64" cy="501" r="2" fill="#ffd336" opacity=".8" stroke="#fff" stroke-width=".7"/></g><g class="key-Uruguay_0"><circle cx="70" cy="508" r="1.99" fill="#69c487" opacity=".8" stroke="#fff" stroke-width=".7"/></g><g class="key-Lithuania_0"><circle cx="61" cy="509" r="1.98" fill="#ffd336" opacity=".8" stroke="#fff" stroke-width=".7"/></g><g class="key-Albania_0"><circle cx="60" cy="510" r="1.98" fill="#ffd336" opacity=".8" stroke="#fff" stroke-width=".7"/></g><g class="key-Armenia_0"><circle cx="62" cy="510" r="1.97" fill="#d14e5b" opacity=".8" stroke="#fff" stroke-width=".7"/></g><g class="key-Kuwait_0"><circle cx="60" cy="512" r="1.96" fill="#d14e5b" opacity=".8" stroke="#fff" stroke-width=".7"/></g><g class="key-Mongolia_0"><circle cx="61" cy="512" r="1.96" fill="#d14e5b" opacity=".8" stroke="#fff" stroke-width=".7"/></g><g class="key-Jamaica_0"><circle cx="72" cy="493" r="1.95" fill="#4d824b" opacity=".8" stroke="#fff" stroke-width=".7"/></g><g class="key-Namibia_0"><circle cx="251" cy="380" r="1.93" fill="#5675c1" opacity=".8" stroke="#fff" stroke-width=".7"/></g><g class="key-Lesotho_0"><circle cx="475" cy="128" r="1.92" fill="#5675c1" opacity=".8" stroke="#333" stroke-width=".7"/></g><g class="key-Latvia_0"><circle cx="64" cy="505" r="1.92" fill="#ffd336" opacity=".8" stroke="#fff" stroke-width=".7"/></g><g class="key-Botswana_0"><circle cx="272" cy="345" r="1.91" fill="#5675c1" opacity=".8" stroke="#fff" stroke-width=".7"/></g><g class="key-Macedonia_0"><circle cx="60" cy="512" r="1.91" fill="#ffd336" opacity=".8" stroke="#fff" stroke-width=".7"/></g><g class="key-Slovenia_0"><circle cx="60" cy="511" r="1.9" fill="#ffd336" opacity=".8" stroke="#fff" stroke-width=".7"/></g><g class="key-Qatar_0"><circle cx="60" cy="512" r="1.9" fill="#d14e5b" opacity=".8" stroke="#fff" stroke-width=".7"/></g><g class="key-Gambia_0"><circle cx="87" cy="493" r="1.89" fill="#5675c1" opacity=".8" stroke="#fff" stroke-width=".7"/></g><g class="key-Guinea__002dBissau_0"><circle cx="114" cy="490" r="1.88" fill="#5675c1" opacity=".8" stroke="#fff" stroke-width=".7"/></g><g class="key-Gabon_0"><circle cx="128" cy="484" r="1.87" fill="#5675c1" opacity=".8" stroke="#fff" stroke-width=".7"/></g><g class="key-Bahrain_0"><circle cx="61" cy="511" r="1.86" fill="#d14e5b" opacity=".8" stroke="#fff" stroke-width=".7"/></g><g class="key-Trinidad-and-Tobago_0"><circle cx="70" cy="504" r="1.86" fill="#4d824b" opacity=".8" stroke="#fff" stroke-width=".7"/></g><g class="key-Swaziland_0"><circle cx="318" cy="228" r="1.85" fill="#5675c1" opacity=".8" stroke="#333" stroke-width=".7"/></g><g class="key-Djibouti_0"><circle cx="96" cy="495" r="1.83" fill="#5675c1" opacity=".8" stroke="#fff" stroke-width=".7"/></g><g class="key-Fiji_0"><circle cx="63" cy="509" r="1.83" fill="#a652ba" opacity=".8" stroke="#fff" stroke-width=".7"/></g><g class="key-Comoros_0"><circle cx="66" cy="512" r="1.82" fill="#5675c1" opacity=".8" stroke="#fff" stroke-width=".7"/></g><g class="key-Equatorial-Guinea_0"><circle cx="182" cy="430" r="1.82" fill="#5675c1" opacity=".8" stroke="#fff" stroke-width=".7"/></g><g class="key-Guyana_0"><circle cx="102" cy="489" r="1.82" fill="#69c487" opacity=".8" stroke="#fff" stroke-width=".7"/></g><g class="key-Montenegro_0"><circle cx="60" cy="509" r="1.81" fill="#ffd336" opacity=".8" stroke="#fff" stroke-width=".7"/></g><g class="key-Suriname_0"><circle cx="80" cy="494" r="1.8" fill="#69c487" opacity=".8" stroke="#fff" stroke-width=".7"/></g><g class="key-Luxembourg_0"><circle cx="66" cy="507" r="1.8" fill="#ffd336" opacity=".8" stroke="#fff" stroke-width=".7"/></g><g class="key-Cape-Verde_0"><circle cx="88" cy="503" r="1.8" fill="#5675c1" opacity=".8" stroke="#fff" stroke-width=".7"/></g><g class="key-Malta_0"><circle cx="67" cy="511" r="1.8" fill="#ffd336" opacity=".8" stroke="#fff" stroke-width=".7"/></g><g class="key-Belize_0"><circle cx="81" cy="490" r="1.79" fill="#4d824b" opacity=".8" stroke="#fff" stroke-width=".7"/></g><g class="key-Barbados_0"><circle cx="69" cy="495" r="1.79" fill="#4d824b" opacity=".8" stroke="#fff" stroke-width=".7"/></g><g class="key-Yemen_0"><circle cx="61" cy="511" r="1.77" fill="#d14e5b" opacity=".8" stroke="#fff" stroke-width=".7"/></g><g class="key-World_0"><circle cx="72" cy="505" r="1.77" fill="#000" opacity=".8" stroke="#fff" stroke-width=".7"/></g><g class="key-Caribbean_0"><circle cx="76" cy="498" r="1.77" fill="#000" opacity=".8" stroke="#fff" stroke-width=".7"/></g><g fill="#333" class="backgroundLabels"><text x="65" y="491.16" font-size="14.3">India</text><text x="104" y="467.26" font-size="11.44">Nigeria</text><text x="60" y="504.57" font-size="11.4">Bangladesh</text><text x="296" y="338.03" font-size="11.13">South Africa</text><text x="159" y="463.26" font-size="11.11">Kenya</text><text x="223" y="397.95" font-size="11.06">Mozambique</text><text x="121" y="482.11" font-size="11.05">Cote d&apos;Ivoire</text><text x="241" y="439.32" font-size="11.04">Malawi</text><text x="240" y="385.42" font-size="11.04">Zambia</text><text x="256" y="417.47" font-size="11.03">Zimbabwe</text><text x="475" y="125.08" font-size="11.01">Lesotho</text><text x="318" y="225.15" font-size="11">Swaziland</text></g></g><g class="ScatterColorLegend clickable" cursor="pointer"><g class="legendMark">,<path fill="#5675c1" d="M735 91.5h6v6h-6z"/>,<text font-size="12.6" x="746" y="98.6"><tspan x="746" y="98.58">Africa</tspan></text></g><g class="legendMark">,<path fill="#d14e5b" d="M735 109.1h6v6h-6z"/>,<text font-size="12.6" x="746" y="116.2"><tspan x="746" y="116.18">Asia</tspan></text></g><g class="legendMark">,<path fill="#ffd336" d="M735 126.7h6v6h-6z"/>,<text font-size="12.6" x="746" y="133.8"><tspan x="746" y="133.78">Europe</tspan></text></g><g class="legendMark">,<path fill="#4d824b" d="M735 144.3h6v6h-6z"/>,<text font-size="12.6" x="746" y="151.4"><tspan x="746" y="151.38">North America</tspan></text></g><g class="legendMark">,<path fill="#a652ba" d="M735 161.9h6v6h-6z"/>,<text font-size="12.6" x="746" y="169"><tspan x="746" y="168.98">Oceania</tspan></text></g><g class="legendMark">,<path fill="#69c487" d="M735 179.5h6v6h-6z"/>,<text font-size="12.6" x="746" y="186.6"><tspan x="746" y="186.58">South America</tspan></text></g></g></g><g class="SourcesFooter" fill="#777"><g class="clickable" fill="#777"><text font-size="12.6" x="15" y="581.6"><tspan x="15" y="581.58">Source: UNAIDS; IHME, GBD</tspan></text></g><text font-size="12.6" x="775.4" y="581.6"><tspan x="775.4" y="581.58"><a class="cclogo" href="http://creativecommons.org/licenses/by-sa/4.0/deed.en_US" target="_blank" fill="#777">CC BY-SA</a></tspan></text></g></g></svg>