<svg xmlns="http://www.w3.org/2000/svg" version="1.1" style="background-color:#fff;-webkit-font-smoothing:antialiased" width="850" height="600" font-family="'Helvetica Neue',Helvetica,Arial,sans-serif" font-size="18" text-rendering="optimizeLegibility"><g class="ChartTab"><g class="HeaderView"><g opacity=".8" transform="matrix(.27 0 0 .27 778 15)"><a xmlns:xlink="http://www.w3.org/1999/xlink" xlink:href="https://ourworldindata.org" target="_blank"><g><path fill="#1B2543" d="M0 0h211.2v130.1H0z"/><path fill="#E63912" d="M0 112.2h211.2v17.9H0z"/><g><path fill="none" d="M1.2 12.3h210.2v99.2H1.2z"/><path fill="#FFF" d="M37.8 32.2c0 12.7-7.7 19.4-17.1 19.4-9.7 0-16.6-7.5-16.6-18.7 0-11.7 7.3-19.3 17.1-19.3 10.1.1 16.6 7.7 16.6 18.6zm-28.6.6c0 7.9 4.3 14.9 11.8 14.9 7.5 0 11.8-6.9 11.8-15.3 0-7.3-3.8-14.9-11.8-14.9-7.9 0-11.8 7.3-11.8 15.3zM62.7 43.8c0 2.7.1 5.1.2 7.2h-4.3l-.3-4.3h-.1c-1.3 2.1-4 4.9-8.8 4.9-4.2 0-9.1-2.3-9.1-11.6V24.6h4.8v14.6c0 5 1.5 8.4 5.9 8.4 3.2 0 5.5-2.2 6.3-4.4.3-.7.4-1.6.4-2.5V24.6h4.8v19.2zM67.3 32.8c0-3.1-.1-5.8-.2-8.2h4.2l.2 5.2h.2c1.2-3.5 4.1-5.8 7.3-5.8.5 0 .9.1 1.4.2v4.5c-.5-.1-1-.2-1.6-.2-3.4 0-5.8 2.6-6.5 6.2-.1.7-.2 1.4-.2 2.2V51h-4.8V32.8zM95.4 51L86 14.2h5l4.4 18.6c1.1 4.6 2.1 9.2 2.7 12.7h.1c.6-3.7 1.8-8 3-12.8l4.9-18.5h5l4.5 18.7c1 4.4 2 8.7 2.6 12.6h.1c.8-4 1.8-8.1 3-12.7l4.9-18.5h4.9L120.6 51h-5L111 31.9c-1.1-4.7-1.9-8.3-2.4-12h-.1c-.7 3.7-1.5 7.3-2.8 12L100.4 51h-5zM154.9 37.6c0 9.8-6.8 14-13.2 14-7.2 0-12.7-5.2-12.7-13.6 0-8.8 5.8-14 13.1-14 7.7 0 12.8 5.5 12.8 13.6zm-21 .3c0 5.8 3.3 10.1 8 10.1 4.6 0 8-4.3 8-10.3 0-4.5-2.2-10.1-7.9-10.1s-8.1 5.2-8.1 10.3zM158.2 32.8c0-3.1-.1-5.8-.2-8.2h4.2l.2 5.2h.2c1.2-3.5 4.1-5.8 7.3-5.8.5 0 .9.1 1.4.2v4.5c-.5-.1-1-.2-1.6-.2-3.4 0-5.8 2.6-6.5 6.2-.1.7-.2 1.4-.2 2.2V51h-4.8V32.8zM173.5 12.3h4.8V51h-4.8V12.3zM206.5 12.3v31.9c0 2.3.1 5 .2 6.8h-4.3l-.2-4.6h-.2c-1.5 2.9-4.7 5.2-9 5.2-6.4 0-11.3-5.4-11.3-13.4-.1-8.8 5.4-14.2 11.9-14.2 4 0 6.8 1.9 8 4h.1V12.3h4.8zm-4.8 23.1c0-.6-.1-1.4-.2-2a7 7 0 00-6.9-5.6c-5 0-7.9 4.4-7.9 10.2 0 5.3 2.6 9.8 7.8 9.8 3.2 0 6.2-2.1 7.1-5.7.2-.7.2-1.3.2-2.1v-4.6zM42.8 64c.1 1.6-1.1 2.9-3.1 2.9-1.7 0-2.9-1.3-2.9-2.9 0-1.7 1.3-3 3-3 1.9 0 3 1.3 3 3zm-5.4 33.8V71.4h4.8v26.4h-4.8zM47.5 78.6c0-2.7-.1-5-.2-7.1h4.3l.3 4.4h.1c1.3-2.5 4.4-5 8.8-5 3.7 0 9.4 2.2 9.4 11.2v15.8h-4.8V82.6c0-4.3-1.6-7.8-6.1-7.8-3.2 0-5.6 2.2-6.5 4.9-.2.6-.3 1.4-.3 2.2v15.9h-4.8V78.6zM84 61.6c2.9-.4 6.3-.8 10.1-.8 6.8 0 11.7 1.6 14.9 4.6 3.3 3 5.2 7.3 5.2 13.2 0 6-1.9 10.9-5.3 14.3-3.4 3.4-9.1 5.3-16.3 5.3-3.4 0-6.2-.2-8.6-.4V61.6zm4.8 32.5c1.2.2 3 .3 4.8.3 10.2 0 15.7-5.7 15.7-15.6.1-8.7-4.9-14.2-14.9-14.2-2.5 0-4.3.2-5.6.5v29zM132.1 97.8l-.4-3.3h-.2a9.79 9.79 0 01-8.1 3.9c-5.4 0-8.1-3.8-8.1-7.6 0-6.4 5.7-9.9 15.9-9.8v-.5c0-2.2-.6-6.1-6-6.1-2.5 0-5 .8-6.9 2l-1.1-3.2c2.2-1.4 5.4-2.3 8.7-2.3 8.1 0 10.1 5.5 10.1 10.8v9.9c0 2.3.1 4.5.4 6.3h-4.3zm-.7-13.4c-5.3-.1-11.2.8-11.2 5.9 0 3.1 2.1 4.6 4.5 4.6 3.4 0 5.6-2.2 6.4-4.4.2-.5.3-1 .3-1.5v-4.6zM146.6 63.9v7.6h6.9v3.7h-6.9v14.2c0 3.3.9 5.1 3.6 5.1 1.3 0 2.2-.2 2.8-.3l.2 3.6c-.9.4-2.4.7-4.3.7-2.2 0-4-.7-5.2-2-1.4-1.4-1.9-3.8-1.9-6.9V75.1h-4.1v-3.7h4.1v-6.3l4.8-1.2zM171.4 97.8l-.4-3.3h-.2a9.79 9.79 0 01-8.1 3.9c-5.4 0-8.1-3.8-8.1-7.6 0-6.4 5.7-9.9 15.9-9.8v-.5c0-2.2-.6-6.1-6-6.1-2.5 0-5 .8-6.9 2l-1.1-3.2c2.2-1.4 5.4-2.3 8.7-2.3 8.1 0 10.1 5.5 10.1 10.8v9.9c0 2.3.1 4.5.4 6.3h-4.3zm-.7-13.4c-5.3-.1-11.2.8-11.2 5.9 0 3.1 2.1 4.6 4.5 4.6 3.4 0 5.6-2.2 6.4-4.4.2-.5.3-1 .3-1.5v-4.6z"/></g></g></a></g><a href="https://ourworldindata.org/grapher/number-of-deaths-from-hivaids" target="_blank"><text font-size="25.2" x="15" y="35.2" fill="#555"><tspan x="15" y="35.16">The number of deaths from HIV/AIDS by world region</tspan></text></a><text font-size="14.4" x="15" y="53.7" fill="#666"><tspan x="15" y="53.72">These include deaths at any age and of both sexes.</tspan></text></g><g class="StackedArea"><defs><clipPath id="a"><path d="M93.06 0h820v959.8h-820z"/></clipPath></defs><g class="AxisBoxView"><g class="HorizontalAxis" fill="#666" text-anchor="middle" font-size="16.2"><text x="93.1" y="556.5">1990</text><text x="207.2" y="556.5">1995</text><text x="321.2" y="556.5">2000</text><text x="435.3" y="556.5">2005</text><text x="549.4" y="556.5">2010</text><text x="686.3" y="556.5">2016</text></g><g class="VerticalAxis" fill="#666" dominant-baseline="middle" text-anchor="end" font-size="16.2"><text x="88.06" y="535.3">0</text><text x="88.06" y="415.2">500,000</text><text x="88.06" y="295.1">1 million</text><text x="88.06" y="175">1.5 million</text></g><g class="AxisGridLines"><path stroke="#ccc" d="M93.06 535.3h593.27"/><path stroke="#ddd" stroke-dasharray="3,2" d="M93.06 415.2h593.27M93.06 295.1h593.27M93.06 175h593.27"/></g></g><g clip-path="url(#a)"><g class="HeightedLegend clickable"><g class="legendMark"><g class="indicator" stroke="#666" stroke-width=".5"><path d="M691.33 288h22.5M713.83 288h0M713.83 288h2.5"/></g><text font-size="13.5" x="721.3" y="292.1" fill="#34983f"><tspan x="721.33" y="292.05">North America</tspan></text></g><g class="legendMark"><g class="indicator" stroke="#666" stroke-width=".5"><path d="M691.33 294h17.5M708.83 294v16.8M708.83 310.8h7.5"/></g><text font-size="13.5" x="721.3" y="307.6" fill="#9ecc8a"><tspan x="721.33" y="307.55">Latin America &amp;</tspan><tspan x="721.33" y="322.4">Caribbean</tspan></text></g><g class="legendMark"><g class="indicator" stroke="#666" stroke-width=".5"><path d="M691.33 302.6h12.5M703.83 302.6v38.3M703.83 340.9h12.5"/></g><text font-size="13.5" x="721.3" y="337.7" fill="#ffd53e"><tspan x="721.33" y="337.65">Europe &amp; Central</tspan><tspan x="721.33" y="352.5">Asia</tspan></text></g><g class="legendMark"><g class="indicator" stroke="#666" stroke-width=".5"><path d="M691.33 306.6h7.5M698.83 306.6V371M698.83 371h17.5"/></g><text font-size="13.5" x="721.3" y="367.8" fill="#ca2628"><tspan x="721.33" y="367.75">Middle East &amp;</tspan><tspan x="721.33" y="382.6">North Africa</tspan></text></g><g class="legendMark"><g class="indicator" stroke="#666" stroke-width=".5"><path d="M691.33 401.1h12.5M703.83 401.1h0M703.83 401.1h12.5"/></g><text font-size="13.5" x="721.3" y="397.9" fill="#e6332e"><tspan x="721.33" y="397.85">Sub-Saharan</tspan><tspan x="721.33" y="412.7">Africa</tspan></text></g><g class="legendMark"><g class="indicator" stroke="#666" stroke-width=".5"><path d="M691.33 503.7h12.5M703.83 503.7h0M703.83 503.7h12.5"/></g><text font-size="13.5" x="721.3" y="507.8" fill="#2a939b"><tspan x="721.33" y="507.75">East Asia &amp; Pacific</tspan></text></g><g class="legendMark"><g class="indicator" stroke="#666" stroke-width=".5"><path d="M691.33 523.7h12.5M703.83 523.7h0M703.83 523.7h12.5"/></g><text font-size="13.5" x="721.3" y="527.8" fill="#3360a9"><tspan x="721.33" y="527.75">South Asia</tspan></text></g></g><g class="Areas"><path d="M93.1 533.2l22.8-.7 22.8-1 22.8-1.3 22.8-1.7 22.9-2.2 22.8-2.7 22.8-3.3 22.8-3.9 22.8-4.2 22.8-4.4 22.9-4.3 22.8-4 22.8-3.5 22.8-2.8 22.8-1.8 22.8-.7 22.9.5 22.8 1.9 22.8 1.9 22.8 2.9 22.8 2.8 22.9 2.7 22.8 2.8 22.8 2.3 22.8 1.6 22.8 2 .03 23.2H93.06" fill="#3360a9" fill-opacity=".7" class="South-Asia_0-area"/><path d="M93.1 532.5l22.8-1.2 22.8-2.2 22.8-2.2 22.8-3 22.9-3.5 22.8-4.3 22.8-5 22.8-5.7 22.8-6.1 22.8-5.9 22.9-5.7 22.8-5.2 22.8-4.4 22.8-3.4 22.8-1.9 22.8-.4 22.9.8 22.8 1.9 22.8 2.4 22.8 3.2 22.8 3.1 22.9 3.3 22.8 2.9 22.8 2.1 22.8 1.3 22.8 2v16.7l-22.8-2-22.8-1.6-22.8-2.3-22.8-2.8-22.9-2.7-22.8-2.8-22.8-2.9-22.8-1.9-22.8-1.9-22.9-.5-22.8.7-22.8 1.8-22.8 2.8-22.8 3.5-22.8 4-22.9 4.3-22.8 4.4-22.8 4.2-22.8 3.9-22.8 3.3-22.8 2.7-22.9 2.2-22.8 1.7-22.8 1.3-22.8 1-22.8.7" fill="#2a939b" fill-opacity=".7" class="East-Asia-__0026-Pacific_0-area"/><path d="M93.1 480.3l22.8-17.4 22.8-21 22.8-23.6 22.8-26.6 22.9-29.3 22.8-30.9 22.8-32.3 22.8-33.1 22.8-33.1 22.8-32.1 22.9-28.9 22.8-26 22.8-22 22.8-16 22.8-6.6 22.8.8 22.9 9 22.8 15.3 22.8 18.6 22.8 21 22.8 23.2 22.9 23.5 22.8 25.2 22.8 22.9 22.8 23.6 22.8 22.4v188.5l-22.8-2-22.8-1.3-22.8-2.1-22.8-2.9-22.9-3.3-22.8-3.1-22.8-3.2-22.8-2.4-22.8-1.9-22.9-.8-22.8.4-22.8 1.9-22.8 3.4-22.8 4.4-22.8 5.2-22.9 5.7-22.8 5.9-22.8 6.1-22.8 5.7-22.8 5-22.8 4.3-22.9 3.5-22.8 3-22.8 2.2-22.8 2.2-22.8 1.2" fill="#e6332e" fill-opacity=".7" class="Sub__002dSaharan-Africa_0-area"/><path d="M93.1 480.2l22.8-17.4 22.8-21 22.8-23.6 22.8-26.6 22.9-29.4 22.8-30.9 22.8-32.3 22.8-33.2 22.8-33.1 22.8-32.1 22.9-28.9 22.8-26.1 22.8-22 22.8-16.1 22.8-6.7 22.8.8 22.9 8.9 22.8 15.4 22.8 18.5 22.8 21 22.8 23.2 22.9 23.5 22.8 25.2 22.8 23 22.8 23.6 22.8 22.4v.6l-22.8-22.4-22.8-23.6-22.8-22.9-22.8-25.2-22.9-23.5-22.8-23.2-22.8-21-22.8-18.6-22.8-15.3-22.9-9-22.8-.8-22.8 6.6-22.8 16-22.8 22-22.8 26-22.9 28.9-22.8 32.1-22.8 33.1-22.8 33.1-22.8 32.3-22.8 30.9-22.9 29.3-22.8 26.6-22.8 23.6-22.8 21-22.8 17.4" fill="#ca2628" fill-opacity=".7" class="Middle-East-__0026-North-Africa_0-area"/><path d="M93.1 476.5l22.8-18.1 22.8-21.8 22.8-24.7 22.8-27.5 22.9-29.9 22.8-30.8 22.8-30.5 22.8-32.3 22.8-33.8 22.8-32.3 22.9-28.8 22.8-26.1 22.8-22.3 22.8-16.1 22.8-7.8 22.8.7 22.9 8.7 22.8 15 22.8 18.7 22.8 20.9 22.8 23.1 22.9 23.7 22.8 25.2 22.8 23.1 22.8 23.5 22.8 22.7v7.3l-22.8-22.4-22.8-23.6-22.8-23-22.8-25.2-22.9-23.5-22.8-23.2-22.8-21-22.8-18.5-22.8-15.4-22.9-8.9-22.8-.8-22.8 6.7-22.8 16.1-22.8 22-22.8 26.1-22.9 28.9-22.8 32.1-22.8 33.1-22.8 33.2-22.8 32.3-22.8 30.9-22.9 29.4-22.8 26.6-22.8 23.6-22.8 21-22.8 17.4" fill="#ffd53e" fill-opacity=".7" class="Europe-__0026-Central-Asia_0-area"/><path d="M93.1 472.6l22.8-19.2 22.8-23 22.8-26 22.8-28.9 22.9-31.1 22.8-31.6 22.8-30.5 22.8-32.5 22.8-34.5 22.8-32.8 22.9-29.4 22.8-26.4 22.8-22.7 22.8-16.2 22.8-7.8 22.8.8 22.9 9 22.8 15.5 22.8 19 22.8 21.3 22.8 23.3 22.9 24.1 22.8 25.5 22.8 23.5 22.8 23.8 22.8 23.1V299l-22.8-22.7-22.8-23.5-22.8-23.1-22.8-25.2-22.9-23.7-22.8-23.1-22.8-20.9-22.8-18.7-22.8-15-22.9-8.7-22.8-.7-22.8 7.8-22.8 16.1-22.8 22.3-22.8 26.1-22.9 28.8-22.8 32.3-22.8 33.8-22.8 32.3-22.8 30.5-22.8 30.8-22.9 29.9-22.8 27.5-22.8 24.7-22.8 21.8-22.8 18.1" fill="#9ecc8a" fill-opacity=".7" class="Latin-America-__0026-Caribbean_0-area"/><path d="M93.1 465.8l22.8-20.4 22.8-24 22.8-27 22.8-30 22.9-31.1 22.8-28.9 22.8-26.8 22.8-31.7 22.8-34.8 22.8-32.6 22.9-29.2 22.8-26.4 22.8-22.5 22.8-16.1 22.8-7.7 22.8 1 22.9 9.2 22.8 15.7 22.8 19.3 22.8 21.5 22.8 23.5 22.9 24.2 22.8 25.6 22.8 23.6 22.8 23.8 22.8 23.1v1.8l-22.8-23.1-22.8-23.8-22.8-23.5-22.8-25.5-22.9-24.1-22.8-23.3-22.8-21.3-22.8-19L481 89.8l-22.9-9-22.8-.8-22.8 7.8-22.8 16.2-22.8 22.7-22.8 26.4-22.9 29.4-22.8 32.8-22.8 34.5-22.8 32.5-22.8 30.5-22.8 31.6-22.9 31.1-22.8 28.9-22.8 26-22.8 23-22.8 19.2" fill="#34983f" fill-opacity=".7" class="North-America_0-area"/><path stroke-linecap="round" d="M93.1 533.2l22.8-.7 22.8-1 22.8-1.3 22.8-1.7 22.9-2.2 22.8-2.7 22.8-3.3 22.8-3.9 22.8-4.2 22.8-4.4 22.9-4.3 22.8-4 22.8-3.5 22.8-2.8 22.8-1.8 22.8-.7 22.9.5 22.8 1.9 22.8 1.9 22.8 2.9 22.8 2.8 22.9 2.7 22.8 2.8 22.8 2.3 22.8 1.6 22.8 2" stroke="#2B508D" stroke-opacity=".7" stroke-width=".5" fill="none" class="South-Asia_0-border"/><path stroke-linecap="round" d="M93.1 532.5l22.8-1.2 22.8-2.2 22.8-2.2 22.8-3 22.9-3.5 22.8-4.3 22.8-5 22.8-5.7 22.8-6.1 22.8-5.9 22.9-5.7 22.8-5.2 22.8-4.4 22.8-3.4 22.8-1.9 22.8-.4 22.9.8 22.8 1.9 22.8 2.4 22.8 3.2 22.8 3.1 22.9 3.3 22.8 2.9 22.8 2.1 22.8 1.3 22.8 2" stroke="#237B82" stroke-opacity=".7" stroke-width=".5" fill="none" class="East-Asia-__0026-Pacific_0-border"/><path stroke-linecap="round" d="M93.1 480.3l22.8-17.4 22.8-21 22.8-23.6 22.8-26.6 22.9-29.3 22.8-30.9 22.8-32.3 22.8-33.1 22.8-33.1 22.8-32.1 22.9-28.9 22.8-26 22.8-22 22.8-16 22.8-6.6 22.8.8 22.9 9 22.8 15.3 22.8 18.6 22.8 21 22.8 23.2 22.9 23.5 22.8 25.2 22.8 22.9 22.8 23.6 22.8 22.4" stroke="#C02B26" stroke-opacity=".7" stroke-width=".5" fill="none" class="Sub__002dSaharan-Africa_0-border"/><path stroke-linecap="round" d="M93.1 480.2l22.8-17.4 22.8-21 22.8-23.6 22.8-26.6 22.9-29.4 22.8-30.9 22.8-32.3 22.8-33.2 22.8-33.1 22.8-32.1 22.9-28.9 22.8-26.1 22.8-22 22.8-16.1 22.8-6.7 22.8.8 22.9 8.9 22.8 15.4 22.8 18.5 22.8 21 22.8 23.2 22.9 23.5 22.8 25.2 22.8 23 22.8 23.6 22.8 22.4" stroke="#A92021" stroke-opacity=".7" stroke-width=".5" fill="none" class="Middle-East-__0026-North-Africa_0-border"/><path stroke-linecap="round" d="M93.1 476.5l22.8-18.1 22.8-21.8 22.8-24.7 22.8-27.5 22.9-29.9 22.8-30.8 22.8-30.5 22.8-32.3 22.8-33.8 22.8-32.3 22.9-28.8 22.8-26.1 22.8-22.3 22.8-16.1 22.8-7.8 22.8.7 22.9 8.7 22.8 15 22.8 18.7 22.8 20.9 22.8 23.1 22.9 23.7 22.8 25.2 22.8 23.1 22.8 23.5 22.8 22.7" stroke="#D5B234" stroke-opacity=".7" stroke-width=".5" fill="none" class="Europe-__0026-Central-Asia_0-border"/><path stroke-linecap="round" d="M93.1 472.6l22.8-19.2 22.8-23 22.8-26 22.8-28.9 22.9-31.1 22.8-31.6 22.8-30.5 22.8-32.5 22.8-34.5 22.8-32.8 22.9-29.4 22.8-26.4 22.8-22.7 22.8-16.2 22.8-7.8 22.8.8 22.9 9 22.8 15.5 22.8 19 22.8 21.3 22.8 23.3 22.9 24.1 22.8 25.5 22.8 23.5 22.8 23.8 22.8 23.1" stroke="#84AB73" stroke-opacity=".7" stroke-width=".5" fill="none" class="Latin-America-__0026-Caribbean_0-border"/><path stroke-linecap="round" d="M93.1 465.8l22.8-20.4 22.8-24 22.8-27 22.8-30 22.9-31.1 22.8-28.9 22.8-26.8 22.8-31.7 22.8-34.8 22.8-32.6 22.9-29.2 22.8-26.4 22.8-22.5 22.8-16.1 22.8-7.7 22.8 1 22.9 9.2 22.8 15.7 22.8 19.3 22.8 21.5 22.8 23.5 22.9 24.2 22.8 25.6 22.8 23.6 22.8 23.8 22.8 23.1" stroke="#2C7F35" stroke-opacity=".7" stroke-width=".5" fill="none" class="North-America_0-border"/></g></g></g><g class="SourcesFooter" fill="#777"><g class="clickable" fill="#777"><text font-size="12.6" x="15" y="581.6"><tspan x="15" y="581.58">Source: Institute for Health Metrics and Evaluation (2016)</tspan></text></g><text font-size="12.6" x="775.4" y="581.6"><tspan x="775.4" y="581.58"><a class="cclogo" href="http://creativecommons.org/licenses/by-sa/4.0/deed.en_US" target="_blank" fill="#777">CC BY-SA</a></tspan></text></g></g></svg>