<svg xmlns="http://www.w3.org/2000/svg" version="1.1" style="background-color:#fff;-webkit-font-smoothing:antialiased" width="850" height="600" font-family="'Helvetica Neue',Helvetica,Arial,sans-serif" font-size="18" text-rendering="optimizeLegibility"><g class="ChartTab"><g class="HeaderView"><g opacity=".8" transform="matrix(.31 0 0 .31 770 15)"><a xmlns:xlink="http://www.w3.org/1999/xlink" xlink:href="https://ourworldindata.org" target="_blank"><g><path fill="#1B2543" d="M0 0h211.2v130.1H0z"/><path fill="#E63912" d="M0 112.2h211.2v17.9H0z"/><g><path fill="none" d="M1.2 12.3h210.2v99.2H1.2z"/><path fill="#FFF" d="M37.8 32.2c0 12.7-7.7 19.4-17.1 19.4-9.7 0-16.6-7.5-16.6-18.7 0-11.7 7.3-19.3 17.1-19.3 10.1.1 16.6 7.7 16.6 18.6zm-28.6.6c0 7.9 4.3 14.9 11.8 14.9 7.5 0 11.8-6.9 11.8-15.3 0-7.3-3.8-14.9-11.8-14.9-7.9 0-11.8 7.3-11.8 15.3zM62.7 43.8c0 2.7.1 5.1.2 7.2h-4.3l-.3-4.3h-.1c-1.3 2.1-4 4.9-8.8 4.9-4.2 0-9.1-2.3-9.1-11.6V24.6h4.8v14.6c0 5 1.5 8.4 5.9 8.4 3.2 0 5.5-2.2 6.3-4.4.3-.7.4-1.6.4-2.5V24.6h4.8v19.2zM67.3 32.8c0-3.1-.1-5.8-.2-8.2h4.2l.2 5.2h.2c1.2-3.5 4.1-5.8 7.3-5.8.5 0 .9.1 1.4.2v4.5c-.5-.1-1-.2-1.6-.2-3.4 0-5.8 2.6-6.5 6.2-.1.7-.2 1.4-.2 2.2V51h-4.8V32.8zM95.4 51L86 14.2h5l4.4 18.6c1.1 4.6 2.1 9.2 2.7 12.7h.1c.6-3.7 1.8-8 3-12.8l4.9-18.5h5l4.5 18.7c1 4.4 2 8.7 2.6 12.6h.1c.8-4 1.8-8.1 3-12.7l4.9-18.5h4.9L120.6 51h-5L111 31.9c-1.1-4.7-1.9-8.3-2.4-12h-.1c-.7 3.7-1.5 7.3-2.8 12L100.4 51h-5zM154.9 37.6c0 9.8-6.8 14-13.2 14-7.2 0-12.7-5.2-12.7-13.6 0-8.8 5.8-14 13.1-14 7.7 0 12.8 5.5 12.8 13.6zm-21 .3c0 5.8 3.3 10.1 8 10.1 4.6 0 8-4.3 8-10.3 0-4.5-2.2-10.1-7.9-10.1s-8.1 5.2-8.1 10.3zM158.2 32.8c0-3.1-.1-5.8-.2-8.2h4.2l.2 5.2h.2c1.2-3.5 4.1-5.8 7.3-5.8.5 0 .9.1 1.4.2v4.5c-.5-.1-1-.2-1.6-.2-3.4 0-5.8 2.6-6.5 6.2-.1.7-.2 1.4-.2 2.2V51h-4.8V32.8zM173.5 12.3h4.8V51h-4.8V12.3zM206.5 12.3v31.9c0 2.3.1 5 .2 6.8h-4.3l-.2-4.6h-.2c-1.5 2.9-4.7 5.2-9 5.2-6.4 0-11.3-5.4-11.3-13.4-.1-8.8 5.4-14.2 11.9-14.2 4 0 6.8 1.9 8 4h.1V12.3h4.8zm-4.8 23.1c0-.6-.1-1.4-.2-2a7 7 0 00-6.9-5.6c-5 0-7.9 4.4-7.9 10.2 0 5.3 2.6 9.8 7.8 9.8 3.2 0 6.2-2.1 7.1-5.7.2-.7.2-1.3.2-2.1v-4.6zM42.8 64c.1 1.6-1.1 2.9-3.1 2.9-1.7 0-2.9-1.3-2.9-2.9 0-1.7 1.3-3 3-3 1.9 0 3 1.3 3 3zm-5.4 33.8V71.4h4.8v26.4h-4.8zM47.5 78.6c0-2.7-.1-5-.2-7.1h4.3l.3 4.4h.1c1.3-2.5 4.4-5 8.8-5 3.7 0 9.4 2.2 9.4 11.2v15.8h-4.8V82.6c0-4.3-1.6-7.8-6.1-7.8-3.2 0-5.6 2.2-6.5 4.9-.2.6-.3 1.4-.3 2.2v15.9h-4.8V78.6zM84 61.6c2.9-.4 6.3-.8 10.1-.8 6.8 0 11.7 1.6 14.9 4.6 3.3 3 5.2 7.3 5.2 13.2 0 6-1.9 10.9-5.3 14.3-3.4 3.4-9.1 5.3-16.3 5.3-3.4 0-6.2-.2-8.6-.4V61.6zm4.8 32.5c1.2.2 3 .3 4.8.3 10.2 0 15.7-5.7 15.7-15.6.1-8.7-4.9-14.2-14.9-14.2-2.5 0-4.3.2-5.6.5v29zM132.1 97.8l-.4-3.3h-.2a9.79 9.79 0 01-8.1 3.9c-5.4 0-8.1-3.8-8.1-7.6 0-6.4 5.7-9.9 15.9-9.8v-.5c0-2.2-.6-6.1-6-6.1-2.5 0-5 .8-6.9 2l-1.1-3.2c2.2-1.4 5.4-2.3 8.7-2.3 8.1 0 10.1 5.5 10.1 10.8v9.9c0 2.3.1 4.5.4 6.3h-4.3zm-.7-13.4c-5.3-.1-11.2.8-11.2 5.9 0 3.1 2.1 4.6 4.5 4.6 3.4 0 5.6-2.2 6.4-4.4.2-.5.3-1 .3-1.5v-4.6zM146.6 63.9v7.6h6.9v3.7h-6.9v14.2c0 3.3.9 5.1 3.6 5.1 1.3 0 2.2-.2 2.8-.3l.2 3.6c-.9.4-2.4.7-4.3.7-2.2 0-4-.7-5.2-2-1.4-1.4-1.9-3.8-1.9-6.9V75.1h-4.1v-3.7h4.1v-6.3l4.8-1.2zM171.4 97.8l-.4-3.3h-.2a9.79 9.79 0 01-8.1 3.9c-5.4 0-8.1-3.8-8.1-7.6 0-6.4 5.7-9.9 15.9-9.8v-.5c0-2.2-.6-6.1-6-6.1-2.5 0-5 .8-6.9 2l-1.1-3.2c2.2-1.4 5.4-2.3 8.7-2.3 8.1 0 10.1 5.5 10.1 10.8v9.9c0 2.3.1 4.5.4 6.3h-4.3zm-.7-13.4c-5.3-.1-11.2.8-11.2 5.9 0 3.1 2.1 4.6 4.5 4.6 3.4 0 5.6-2.2 6.4-4.4.2-.5.3-1 .3-1.5v-4.6z"/></g></g></a></g><a href="https://ourworldindata.org/grapher/number-of-people-employed-in-agriculture-since-1800" target="_blank"><text font-size="27" x="15" y="36.6" fill="#555"><tspan x="15" y="36.6">Number of people employed in agriculture since 1800</tspan></text></a><text font-size="14.4" x="15" y="55.5" fill="#666"><tspan x="15" y="55.52">The total number of individuals in agricultural employment across select countries from the year 1800.</tspan></text></g><g class="LineChart"><defs><clipPath id="a"><path d="M78.53 0h830v956.2h-830z"/></clipPath></defs><g class="AxisBoxView"><g class="HorizontalAxis" fill="#666" text-anchor="middle" font-size="16.2"><text x="88.5" y="556.5">1801</text><text x="230.2" y="556.5">1850</text><text x="374.7" y="556.5">1900</text><text x="519.3" y="556.5">1950</text><text x="663.8" y="556.5">2000</text><text x="707.2" y="556.5">2015</text></g><g class="VerticalAxis" fill="#666" dominant-baseline="middle" text-anchor="end" font-size="16.2"><text x="83.53" y="535.3">0</text><text x="83.53" y="482.6">2 million</text><text x="83.53" y="429.8">4 million</text><text x="83.53" y="377.1">6 million</text><text x="83.53" y="324.4">8 million</text><text x="83.53" y="271.7">10 million</text><text x="83.53" y="218.9">12 million</text><text x="83.53" y="166.2">14 million</text><text x="83.53" y="113.5">16 million</text></g><g class="AxisGridLines"><path stroke="#ccc" d="M88.53 535.3h618.65"/><path stroke="#ddd" stroke-dasharray="3,2" d="M88.53 482.6h618.65M88.53 429.8h618.65M88.53 377.1h618.65M88.53 324.4h618.65M88.53 271.7h618.65M88.53 218.9h618.65M88.53 166.2h618.65M88.53 113.5h618.65"/></g><g class="AxisGridLines" stroke="#ddd" stroke-dasharray="3,2"><path d="M230.2 535.3V78.4M374.7 535.3V78.4M519.3 535.3V78.4M663.8 535.3V78.4"/></g></g><g clip-path="url(#a)"><g class="HeightedLegend clickable"><g class="legendMark"><path fill="#fceb8c" d="M717.18 526.85h10v2.5h-10z"/><text font-size="14.4" x="732.2" y="532.4" fill="#333"><tspan x="732.18" y="532.42">Sweden</tspan></text></g><g class="legendMark"><path fill="#ce8ebd" d="M717.18 512.45h10v2.5h-10z"/><text font-size="14.4" x="732.2" y="518" fill="#333"><tspan x="732.18" y="518.02">Belgium</tspan></text></g><g class="legendMark"><path fill="#34983f" d="M717.18 498.05h10v2.5h-10z"/><text font-size="14.4" x="732.2" y="503.6" fill="#333"><tspan x="732.18" y="503.62">Finland</tspan></text></g><g class="legendMark"><path fill="#ed6c2d" d="M717.18 483.65h10v2.5h-10z"/><text font-size="14.4" x="732.2" y="489.2" fill="#333"><tspan x="732.18" y="489.22">Netherlands</tspan></text></g><g class="legendMark"><path fill="#3360a9" d="M717.18 469.25h10v2.5h-10z"/><text font-size="14.4" x="732.2" y="474.8" fill="#333"><tspan x="732.18" y="474.82">United Kingdom</tspan></text></g><g class="legendMark"><path fill="#e6332e" d="M717.18 454.85h10v2.5h-10z"/><text font-size="14.4" x="732.2" y="460.4" fill="#333"><tspan x="732.18" y="460.42">France</tspan></text></g><g class="legendMark"><path fill="#ffd53e" d="M717.18 440.45h10v2.5h-10z"/><text font-size="14.4" x="732.2" y="446" fill="#333"><tspan x="732.18" y="446.02">Spain</tspan></text></g><g class="legendMark"><path fill="#6bb537" d="M717.18 426.05h10v2.5h-10z"/><text font-size="14.4" x="732.2" y="431.6" fill="#333"><tspan x="732.18" y="431.62">South Korea</tspan></text></g><g class="legendMark"><path fill="#d26e66" d="M717.18 411.65h10v2.5h-10z"/><text font-size="14.4" x="732.2" y="417.2" fill="#333"><tspan x="732.18" y="417.22">United States</tspan></text></g><g class="legendMark"><path fill="#c8c8c8" d="M717.18 397.25h10v2.5h-10z"/><text font-size="14.4" x="732.2" y="402.8" fill="#333"><tspan x="732.18" y="402.82">Japan</tspan></text></g></g><g class="Lines"><g class="key-Finland_0"><path stroke="#34983f" stroke-linecap="round" d="M100 517l217 9 58-2 29-12 29-4 29-2 28-1 29 6 29 5 29 7 3 1h3l3 1 3 1h5l3 1h21l3 1h2l3 1h6l3 1h6l3 1h11l3 1h26" fill="none" stroke-width="1.5"/></g><g class="key-South-Korea_0"><path stroke="#6bb537" stroke-linecap="round" d="M534 366l23 48h3l3 1 3-2 2 1 3 1 3-1h3l3-1 3-12 3-6h3l3 4 2-4 3 5 3 5 3 8 3 5 3-3 3 4 3 8 3 10 3 5 2 1 3 2 3 3 3 1 3 5 3 5 3 1 3 4 3 3 2 5 3 2 3 1 3-3 3 3 3 1 3 3 3 2 3 3 2 3 3 1h3l3 2h6l3 2" fill="none" stroke-width="1.5"/></g><g class="key-Japan_0"><path stroke="#c8c8c8" stroke-linecap="round" d="M294 153l23-41 29-30 29-4 29 23 29 54 29-2 28-24 29-46 9 2 3 14 3-10 3 10 3 6 2 15 3 15 3 3 3 11 3 11 3 21 3 14 3 13 3 8 2 6 3 7 3 8 3 13 3 21 3 12 3 12 3 6 3 5 2 5 3 2 3 3 3 7 3 11 3 7 3 3 3 7 3 7 3 2 2 6 3 4 3 6 3 5 3 5 3 5 3 4 3 8 3 3 2 3 3 6 3 4 3 5 3 5 3 4 3 5 3 6 3 1 2 1 3 1 3 3h3l3 1 3 7 3 2 3 2 3 3" fill="none" stroke-width="1.5"/></g><g class="key-United-States_0"><path stroke="#d26e66" stroke-linecap="round" d="M201 441l29-25 29-36 29-24 29-56 29-27 29-46 29-2 29 26 26 57 3 5 2-1 3 3 3-2 3-2 3-4 3 3 3 5 3 8 3 6 2 6 3 3 3 4 3 5 3 6 3 4 3 1 3 2 3 1 2 5 3 1 3 10 3 3 3 5h3l3 5 3 7 3 6 2 5 3 3 3 5 3 2 3 4 3 6 3 6 3 3 3 8 2 2 3 1 3 3 3 2 3 2 3-2 3-2 3-1 3 1h2l3 2 3-1 3-1 3-2h3l3 4 3-1 3 2 3 5 2 1 3-2 3-1 3 1h3l3-1 3 2 3-1 3-2 2-5 3 1 3 1h3l3-1h3l3 28h3l3 1 2 1 3 1 3-1 3 2h3l3 1h3l3-1 3 1 2-1h3l3-3" fill="none" stroke-width="1.5"/></g><g class="key-Sweden_0"><path stroke="#fceb8c" stroke-linecap="round" d="M230 510l3 1h3l3-1h3l3-1 3 1 2-1 3-1h9l3 1 3-1h3l3-1 2 1 3-1 3 2 3-1 3-1h3l3-1h69l3 1h17l3 1h15l3 1h29l2 1h21l3 1h5l3 1h21l2 1 3 1 3 1 3 1h6l3 1h6l2 1h3l3 1h3l3 1h3l3 1 3 1h3l2 1h3l3 1h3l3 1h3l3 1h3l3 1h5l3 1h3l3 1h9l3 1h17l3 1h17l3 1h20l3 1h38" fill="none" stroke-width="1.5"/></g><g class="key-Spain_0"><path stroke="#ffd53e" stroke-linecap="round" d="M259 397l49 5 29 5 38-7 29 24 29-8 57-7 29-13 41 29 17 27 3 3 3 3 3 3 3 3 3 3 2 3 3 3 3 2 3 2 3 3 3 3 3 1 3 1 3 2 3 1 2 3 3 1 3 1 3 3 3 1 3 3 3 3 3 2 3 1 2 1h9l3 1h9l3 1h5l3 1 3 1" fill="none" stroke-width="1.5"/></g><g class="key-Netherlands_0"><path stroke="#ed6c2d" stroke-linecap="round" d="M106 525l121-3 29-1 87-2 29-2h29l32 1h29l49-2 5 3 32 4h6l3 1h3l3 1h3l2 1 3 1h21l2 1h87l3 1h12" fill="none" stroke-width="1.5"/></g><g class="key-Belgium_0"><path stroke="#ce8ebd" stroke-linecap="round" d="M219 517h57l41 1h29l29 1 29 1 29 2h29l49 4 40 4h29l3 1h11l3 1h52l3 1h32" fill="none" stroke-width="1.5"/></g><g class="key-France_0"><path stroke="#e6332e" stroke-linecap="round" d="M248 343l28-6 58-8 29-18 15 7 14-16 15 7 28-12 15 22 14 13 15 13 29-7 23 60 23 34 17 21 6 7 3 4 3 4 3 3 3 3 3 3 2 2 3 2 3 2 3 1 3 2 3 1 3 2 3 2 3 1 3 2 2 1 3 1 3 2 3 1 3 2 3 2 3 1 3 1 3 2 2 1h3l3 1h6l3 1h3l3 1h5l3 1h3l3 1" fill="none" stroke-width="1.5"/></g><g class="key-United-Kingdom_0"><path stroke="#3360a9" stroke-linecap="round" d="M89 498l115-3h29l29-52 29 10 29 7 29 6 29 6h29l26 17 2 2 3 2 3 1h9l3 1 3 1h3l3 1 2 1h6l3 1h3l3 1 3 1 3 1 29-3h2l3 1 3 1h3l3 1h6l3 1 3 1h5l3 1 3 1 3 1h3l3 1 3 2 3 1 2 1h3l3 1 3 1 3 1h6l3 1 3 1h8l3 1h3l3-1 3 1h3l3-1 3 1h11l3 1 3-1 3 1h6l2 1h9l3 2h3l3 1h8l3-1 3 1h3l3-1h3l3-1 3-1" fill="none" stroke-width="1.5"/></g></g></g></g><g class="SourcesFooter" fill="#777"><g class="clickable" fill="#777"><text font-size="12.6" x="15" y="581.6"><tspan x="15" y="581.58">Source: Our World In Data based on Herrendorf et al. (2014)</tspan></text></g><text font-size="12.6" x="499.6" y="581.6"><tspan x="499.59" y="581.58"><a target="_blank" href="https://ourworldindata.org/employment-in-agriculture" fill="#777">OurWorldInData.org/employment-in-agriculture</a> • <a href="http://creativecommons.org/licenses/by-sa/4.0/deed.en_US" target="_blank" fill="#777">CC BY-SA</a></tspan></text></g></g></svg>