<svg xmlns="http://www.w3.org/2000/svg" version="1.1" style="background-color:#fff;-webkit-font-smoothing:antialiased" width="850" height="600" font-family="'Helvetica Neue',Helvetica,Arial,sans-serif" font-size="18" text-rendering="optimizeLegibility"><g class="ChartTab"><g class="HeaderView"><g opacity=".8" transform="matrix(.27 0 0 .27 778 15)"><a xmlns:xlink="http://www.w3.org/1999/xlink" xlink:href="https://ourworldindata.org" target="_blank"><g><path fill="#1B2543" d="M0 0h211.2v130.1H0z"/><path fill="#E63912" d="M0 112.2h211.2v17.9H0z"/><g><path fill="none" d="M1.2 12.3h210.2v99.2H1.2z"/><path fill="#FFF" d="M37.8 32.2c0 12.7-7.7 19.4-17.1 19.4-9.7 0-16.6-7.5-16.6-18.7 0-11.7 7.3-19.3 17.1-19.3 10.1.1 16.6 7.7 16.6 18.6zm-28.6.6c0 7.9 4.3 14.9 11.8 14.9 7.5 0 11.8-6.9 11.8-15.3 0-7.3-3.8-14.9-11.8-14.9-7.9 0-11.8 7.3-11.8 15.3zM62.7 43.8c0 2.7.1 5.1.2 7.2h-4.3l-.3-4.3h-.1c-1.3 2.1-4 4.9-8.8 4.9-4.2 0-9.1-2.3-9.1-11.6V24.6h4.8v14.6c0 5 1.5 8.4 5.9 8.4 3.2 0 5.5-2.2 6.3-4.4.3-.7.4-1.6.4-2.5V24.6h4.8v19.2zM67.3 32.8c0-3.1-.1-5.8-.2-8.2h4.2l.2 5.2h.2c1.2-3.5 4.1-5.8 7.3-5.8.5 0 .9.1 1.4.2v4.5c-.5-.1-1-.2-1.6-.2-3.4 0-5.8 2.6-6.5 6.2-.1.7-.2 1.4-.2 2.2V51h-4.8V32.8zM95.4 51L86 14.2h5l4.4 18.6c1.1 4.6 2.1 9.2 2.7 12.7h.1c.6-3.7 1.8-8 3-12.8l4.9-18.5h5l4.5 18.7c1 4.4 2 8.7 2.6 12.6h.1c.8-4 1.8-8.1 3-12.7l4.9-18.5h4.9L120.6 51h-5L111 31.9c-1.1-4.7-1.9-8.3-2.4-12h-.1c-.7 3.7-1.5 7.3-2.8 12L100.4 51h-5zM154.9 37.6c0 9.8-6.8 14-13.2 14-7.2 0-12.7-5.2-12.7-13.6 0-8.8 5.8-14 13.1-14 7.7 0 12.8 5.5 12.8 13.6zm-21 .3c0 5.8 3.3 10.1 8 10.1 4.6 0 8-4.3 8-10.3 0-4.5-2.2-10.1-7.9-10.1s-8.1 5.2-8.1 10.3zM158.2 32.8c0-3.1-.1-5.8-.2-8.2h4.2l.2 5.2h.2c1.2-3.5 4.1-5.8 7.3-5.8.5 0 .9.1 1.4.2v4.5c-.5-.1-1-.2-1.6-.2-3.4 0-5.8 2.6-6.5 6.2-.1.7-.2 1.4-.2 2.2V51h-4.8V32.8zM173.5 12.3h4.8V51h-4.8V12.3zM206.5 12.3v31.9c0 2.3.1 5 .2 6.8h-4.3l-.2-4.6h-.2c-1.5 2.9-4.7 5.2-9 5.2-6.4 0-11.3-5.4-11.3-13.4-.1-8.8 5.4-14.2 11.9-14.2 4 0 6.8 1.9 8 4h.1V12.3h4.8zm-4.8 23.1c0-.6-.1-1.4-.2-2a7 7 0 00-6.9-5.6c-5 0-7.9 4.4-7.9 10.2 0 5.3 2.6 9.8 7.8 9.8 3.2 0 6.2-2.1 7.1-5.7.2-.7.2-1.3.2-2.1v-4.6zM42.8 64c.1 1.6-1.1 2.9-3.1 2.9-1.7 0-2.9-1.3-2.9-2.9 0-1.7 1.3-3 3-3 1.9 0 3 1.3 3 3zm-5.4 33.8V71.4h4.8v26.4h-4.8zM47.5 78.6c0-2.7-.1-5-.2-7.1h4.3l.3 4.4h.1c1.3-2.5 4.4-5 8.8-5 3.7 0 9.4 2.2 9.4 11.2v15.8h-4.8V82.6c0-4.3-1.6-7.8-6.1-7.8-3.2 0-5.6 2.2-6.5 4.9-.2.6-.3 1.4-.3 2.2v15.9h-4.8V78.6zM84 61.6c2.9-.4 6.3-.8 10.1-.8 6.8 0 11.7 1.6 14.9 4.6 3.3 3 5.2 7.3 5.2 13.2 0 6-1.9 10.9-5.3 14.3-3.4 3.4-9.1 5.3-16.3 5.3-3.4 0-6.2-.2-8.6-.4V61.6zm4.8 32.5c1.2.2 3 .3 4.8.3 10.2 0 15.7-5.7 15.7-15.6.1-8.7-4.9-14.2-14.9-14.2-2.5 0-4.3.2-5.6.5v29zM132.1 97.8l-.4-3.3h-.2a9.79 9.79 0 01-8.1 3.9c-5.4 0-8.1-3.8-8.1-7.6 0-6.4 5.7-9.9 15.9-9.8v-.5c0-2.2-.6-6.1-6-6.1-2.5 0-5 .8-6.9 2l-1.1-3.2c2.2-1.4 5.4-2.3 8.7-2.3 8.1 0 10.1 5.5 10.1 10.8v9.9c0 2.3.1 4.5.4 6.3h-4.3zm-.7-13.4c-5.3-.1-11.2.8-11.2 5.9 0 3.1 2.1 4.6 4.5 4.6 3.4 0 5.6-2.2 6.4-4.4.2-.5.3-1 .3-1.5v-4.6zM146.6 63.9v7.6h6.9v3.7h-6.9v14.2c0 3.3.9 5.1 3.6 5.1 1.3 0 2.2-.2 2.8-.3l.2 3.6c-.9.4-2.4.7-4.3.7-2.2 0-4-.7-5.2-2-1.4-1.4-1.9-3.8-1.9-6.9V75.1h-4.1v-3.7h4.1v-6.3l4.8-1.2zM171.4 97.8l-.4-3.3h-.2a9.79 9.79 0 01-8.1 3.9c-5.4 0-8.1-3.8-8.1-7.6 0-6.4 5.7-9.9 15.9-9.8v-.5c0-2.2-.6-6.1-6-6.1-2.5 0-5 .8-6.9 2l-1.1-3.2c2.2-1.4 5.4-2.3 8.7-2.3 8.1 0 10.1 5.5 10.1 10.8v9.9c0 2.3.1 4.5.4 6.3h-4.3zm-.7-13.4c-5.3-.1-11.2.8-11.2 5.9 0 3.1 2.1 4.6 4.5 4.6 3.4 0 5.6-2.2 6.4-4.4.2-.5.3-1 .3-1.5v-4.6z"/></g></g></a></g><a href="https://ourworldindata.org/grapher/number-with-alcohol-disorders-by-region" target="_blank"><text font-size="27" x="15" y="36.6" fill="#555"><tspan x="15" y="36.6">Number of people with alcohol use disorders by region</tspan></text></a><text font-size="14.4" x="15" y="55.5" fill="#666"><tspan x="15" y="55.52">Total number of people with an alcohol use disorder, by region. This is measured across all ages and both sexes.</tspan><tspan x="15" y="71.36">Alcohol dependence is defined by the International Classification of Diseases as the presence of three or more</tspan><tspan x="15" y="87.2">indicators of dependence for at least a month within the previous year.</tspan></text></g><g class="StackedArea"><defs><clipPath id="a"><path d="M88.53 0h820v894.2h-820z"/></clipPath></defs><g class="AxisBoxView"><g class="HorizontalAxis" fill="#666" text-anchor="middle" font-size="16.2"><text x="88.5" y="556.5">1990</text><text x="204" y="556.5">1995</text><text x="319.4" y="556.5">2000</text><text x="434.9" y="556.5">2005</text><text x="550.3" y="556.5">2010</text><text x="688.9" y="556.5">2016</text></g><g class="VerticalAxis" fill="#666" dominant-baseline="middle" text-anchor="end" font-size="16.2"><text x="83.53" y="535.3">0</text><text x="83.53" y="447.6">20 million</text><text x="83.53" y="359.9">40 million</text><text x="83.53" y="272.2">60 million</text><text x="83.53" y="184.5">80 million</text></g><g class="AxisGridLines"><path stroke="#ccc" d="M88.53 535.3h600.33"/><path stroke="#ddd" stroke-dasharray="3,2" d="M88.53 447.6h600.33M88.53 359.9h600.33M88.53 272.2h600.33M88.53 184.5h600.33"/></g><g class="AxisGridLines" stroke="#ddd" stroke-dasharray="3,2"><path d="M88.5 535.3V109.4M204 535.3V109.4M319.4 535.3V109.4M434.9 535.3V109.4M550.3 535.3V109.4M665.8 535.3V109.4"/></g></g><g clip-path="url(#a)"><g class="HeightedLegend clickable"><g class="legendMark"><path fill="#a652ba" d="M693.86 108.35h10v2.5h-10z"/><text font-size="14.4" x="708.9" y="113.9" fill="#333"><tspan x="708.86" y="113.92">Oceania</tspan></text></g><g class="legendMark"><path fill="#df3c64" d="M693.86 122.75h10v2.5h-10z"/><text font-size="14.4" x="708.9" y="128.3" fill="#333"><tspan x="708.86" y="128.32">Central Asia</tspan></text></g><g class="legendMark"><path fill="#fceb8c" d="M693.86 137.15h10v2.5h-10z"/><text font-size="14.4" x="708.9" y="142.7" fill="#333"><tspan x="708.86" y="142.72">Central Europe</tspan></text></g><g class="legendMark"><path fill="#2a939b" d="M693.86 159.3h10v2.5h-10z"/><text font-size="14.4" x="708.9" y="157.1" fill="#333"><tspan x="708.86" y="157.12">North Africa and</tspan><tspan x="708.86" y="172.96">Middle East</tspan></text></g><g class="legendMark"><path fill="#ffd53e" d="M693.86 181.45h10v2.5h-10z"/><text font-size="14.4" x="708.9" y="187" fill="#333"><tspan x="708.86" y="187.02">Western Europe</tspan></text></g><g class="legendMark"><path fill="#818282" d="M693.86 195.85h10v2.5h-10z"/><text font-size="14.4" x="708.9" y="201.4" fill="#333"><tspan x="708.86" y="201.42">Southeast Asia</tspan></text></g><g class="legendMark"><path fill="#5eb77e" d="M693.86 210.25h10v2.5h-10z"/><text font-size="14.4" x="708.9" y="215.8" fill="#333"><tspan x="708.86" y="215.82">North America</tspan></text></g><g class="legendMark"><path fill="#f6a324" d="M693.86 241.25h10v2.5h-10z"/><text font-size="14.4" x="708.9" y="246.8" fill="#333"><tspan x="708.86" y="246.82">Eastern Europe</tspan></text></g><g class="legendMark"><path fill="#3360a9" d="M693.86 288.85h10v2.5h-10z"/><text font-size="14.4" x="708.9" y="294.4" fill="#333"><tspan x="708.86" y="294.42">Sub-Saharan Africa</tspan></text></g><g class="legendMark"><path fill="#34983f" d="M693.86 340.45h10v2.5h-10z"/><text font-size="14.4" x="708.9" y="338.3" fill="#333"><tspan x="708.86" y="338.27">Latin America and</tspan><tspan x="708.86" y="354.11">Caribbean</tspan></text></g><g class="legendMark"><path fill="#d26e66" d="M693.86 404.35h10v2.5h-10z"/><text font-size="14.4" x="708.9" y="409.9" fill="#333"><tspan x="708.86" y="409.92">East Asia</tspan></text></g><g class="legendMark"><path fill="#ca2628" d="M693.86 487.95h10v2.5h-10z"/><text font-size="14.4" x="708.9" y="493.5" fill="#333"><tspan x="708.86" y="493.52">South Asia</tspan></text></g></g><g class="Areas"><path d="M88.5 477.7l23.1-1.6 23.1-1.6 23.1-1.7 23.1-1.8 23.1-1.9 23.1-2.3 23.1-2.4 23-2.4 23.1-2.6 23.1-2.8 23.1-1.5 23.1-1.6 23.1-1.6 23.1-1.7 23.1-1.7 23.1.4 23 .3 23.1.4 23.1.2 23.1.3 23.1-1.1 23.1-1.1 23.1-1.2 23.1-1.2 23.1-1.2 23.1-1.2-.04 92.2H88.53" fill="#ca2628" fill-opacity=".7" class="South-Asia_0-area"/><path d="M88.5 426.2l23.1-3 23.1-3.2 23.1-3.5 23.1-3.5 23.1-3.5 23.1-4 23.1-3.9 23-3.8 23.1-4.1 23.1-4.3 23.1-2.1 23.1-2.3 23.1-2.3 23.1-2.5 23.1-2.5 23.1-.6 23-.8 23.1-.9 23.1-.8 23.1-.8 23.1-1.1 23.1-1 23.1-1 23.1-1 23.1-.9 23.1-.8v75.1l-23.1 1.2-23.1 1.2-23.1 1.2-23.1 1.2-23.1 1.1-23.1 1.1-23.1-.3-23.1-.2-23.1-.4-23-.3-23.1-.4-23.1 1.7-23.1 1.7-23.1 1.6-23.1 1.6-23.1 1.5-23.1 2.8-23.1 2.6-23 2.4-23.1 2.4-23.1 2.3-23.1 1.9-23.1 1.8-23.1 1.7-23.1 1.6-23.1 1.6" fill="#d26e66" fill-opacity=".7" class="East-Asia_0-area"/><path d="M88.5 395.6l23.1-3.7 23.1-3.9 23.1-4.2 23.1-4.2 23.1-4.2 23.1-5.1 23.1-5.1 23-5.1 23.1-5.3 23.1-5.6 23.1-2.7 23.1-3 23.1-3 23.1-3.2 23.1-3.2 23.1-1.3 23-1.3 23.1-1.5 23.1-1.4 23.1-1.4 23.1-2.1 23.1-2.1 23.1-2 23.1-1.9 23.1-1.9 23.1-1.8V368l-23.1.8-23.1.9-23.1 1-23.1 1-23.1 1-23.1 1.1-23.1.8-23.1.8-23.1.9-23 .8-23.1.6-23.1 2.5-23.1 2.5-23.1 2.3-23.1 2.3-23.1 2.1-23.1 4.3-23.1 4.1-23 3.8-23.1 3.9-23.1 4-23.1 3.5-23.1 3.5-23.1 3.5-23.1 3.2-23.1 3" fill="#34983f" fill-opacity=".7" class="Latin-America-and-Caribbean_0-area"/><path d="M88.5 372.2l23.1-4.2 23.1-4.6 23.1-4.8 23.1-4.9 23.1-4.9 23.1-5.8 23.1-5.8 23-5.9 23.1-6.1 23.1-6.4 23.1-3.6 23.1-3.8 23.1-4 23.1-4 23.1-4.2 23.1-2.5 23-2.6 23.1-2.8 23.1-2.8 23.1-2.8 23.1-3.4 23.1-3.5 23.1-3.5 23.1-3.5 23.1-3.5 23.1-3.4v50.5l-23.1 1.8-23.1 1.9-23.1 1.9-23.1 2-23.1 2.1-23.1 2.1-23.1 1.4-23.1 1.4-23.1 1.5-23 1.3-23.1 1.3-23.1 3.2-23.1 3.2-23.1 3-23.1 3-23.1 2.7-23.1 5.6-23.1 5.3-23 5.1-23.1 5.1-23.1 5.1-23.1 4.2-23.1 4.2-23.1 4.2-23.1 3.9-23.1 3.7" fill="#3360a9" fill-opacity=".7" class="Sub__002dSaharan-Africa_0-area"/><path d="M88.5 328l23.1-5.1 23.1-5.4 23.1-5.3 23.1-5.7 23.1-5.9 23.1-6.1 23.1-6.2 23-6.2 23.1-6.5 23.1-6.8 23.1-3.4 23.1-3.6 23.1-4 23.1-3.9 23.1-4L458 248l23-2.1 23.1-2.3 23.1-2.4 23.1-2.5 23.1-3 23.1-3.1 23.1-3 23.1-3.1 23.1-3.3 23.1-3.1v44.8l-23.1 3.4-23.1 3.5-23.1 3.5-23.1 3.5-23.1 3.5-23.1 3.4-23.1 2.8-23.1 2.8-23.1 2.8-23 2.6-23.1 2.5-23.1 4.2-23.1 4-23.1 4-23.1 3.8-23.1 3.6-23.1 6.4-23.1 6.1-23 5.9-23.1 5.8-23.1 5.8-23.1 4.9-23.1 4.9-23.1 4.8-23.1 4.6-23.1 4.2" fill="#f6a324" fill-opacity=".7" class="Eastern-Europe_0-area"/><path d="M88.5 301.5l23.1-5.2 23.1-5.5 23.1-5.5 23.1-5.8 23.1-6 23.1-5.9 23.1-6 23-6.2 23.1-6.4 23.1-6.9 23.1-3.6 23.1-3.9 23.1-4.2 23.1-4.2 23.1-4.3 23.1-2.1 23-2.2 23.1-2.5 23.1-2.6 23.1-2.6 23.1-3.4 23.1-3.3 23.1-3.3 23.1-3.3 23.1-3.5 23.1-3.5v30.5l-23.1 3.1-23.1 3.3-23.1 3.1-23.1 3-23.1 3.1-23.1 3-23.1 2.5-23.1 2.4-23.1 2.3-23 2.1-23.1 1.9-23.1 4-23.1 3.9-23.1 4-23.1 3.6-23.1 3.4-23.1 6.8-23.1 6.5-23 6.2-23.1 6.2-23.1 6.1-23.1 5.9-23.1 5.7-23.1 5.3-23.1 5.4-23.1 5.1" fill="#5eb77e" fill-opacity=".7" class="North-America_0-area"/><path d="M88.5 287.1l23.1-5.6 23.1-5.9 23.1-5.8 23.1-6.2 23.1-6.4 23.1-6.4 23.1-6.3 23-6.6 23.1-6.8 23.1-7.3 23.1-3.9 23.1-4.1 23.1-4.5 23.1-4.4 23.1-4.6 23.1-2.5 23-2.6 23.1-3 23.1-3 23.1-3 23.1-3.7 23.1-3.8 23.1-3.6 23.1-3.7 23.1-3.9 23.1-3.8v23.9l-23.1 3.5-23.1 3.5-23.1 3.3-23.1 3.3-23.1 3.3-23.1 3.4-23.1 2.6-23.1 2.6-23.1 2.5-23 2.2-23.1 2.1-23.1 4.3-23.1 4.2-23.1 4.2-23.1 3.9-23.1 3.6-23.1 6.9-23.1 6.4-23 6.2-23.1 6-23.1 5.9-23.1 6-23.1 5.8-23.1 5.5-23.1 5.5-23.1 5.2" fill="#818282" fill-opacity=".7" class="Southeast-Asia_0-area"/><path d="M88.5 264.7l23.1-5.9 23.1-6.2 23.1-6 23.1-6.4 23.1-6.6 23.1-6.2 23.1-6.3 23-6.4 23.1-6.8 23.1-7.2 23.1-3.8 23.1-4.1 23.1-4.4 23.1-4.4 23.1-4.5 23.1-2.6 23-2.7 23.1-3.1 23.1-3 23.1-3.1 23.1-3.6 23.1-3.6 23.1-3.6 23.1-3.6 23.1-3.9 23.1-3.8v22.8l-23.1 3.8-23.1 3.9-23.1 3.7-23.1 3.6-23.1 3.8-23.1 3.7-23.1 3-23.1 3-23.1 3-23 2.6-23.1 2.5-23.1 4.6-23.1 4.4-23.1 4.5-23.1 4.1-23.1 3.9-23.1 7.3-23.1 6.8-23 6.6-23.1 6.3-23.1 6.4-23.1 6.4-23.1 6.2-23.1 5.8-23.1 5.9-23.1 5.6" fill="#ffd53e" fill-opacity=".7" class="Western-Europe_0-area"/><path d="M88.5 257.3l23.1-6.1 23.1-6.4 23.1-6.3 23.1-6.6 23.1-6.8 23.1-6.5 23.1-6.6 23-6.7 23.1-7 23.1-7.6 23.1-4.1 23.1-4.3 23.1-4.7 23.1-4.7 23.1-4.9 23.1-2.9 23-3.1 23.1-3.4 23.1-3.5 23.1-3.4 23.1-4 23.1-3.9 23.1-3.9 23.1-3.9 23.1-4.2 23.1-4.1v15.2l-23.1 3.8-23.1 3.9-23.1 3.6-23.1 3.6-23.1 3.6-23.1 3.6-23.1 3.1-23.1 3-23.1 3.1-23 2.7-23.1 2.6-23.1 4.5-23.1 4.4-23.1 4.4-23.1 4.1-23.1 3.8-23.1 7.2-23.1 6.8-23 6.4-23.1 6.3-23.1 6.2-23.1 6.6-23.1 6.4-23.1 6-23.1 6.2-23.1 5.9" fill="#2a939b" fill-opacity=".7" class="North-Africa-and-Middle-East_0-area"/><path d="M88.5 247.1l23.1-6.1 23.1-6.4 23.1-6.3 23.1-6.7 23.1-6.8 23.1-6.5 23.1-6.5 23-6.7 23.1-7 23.1-7.5 23.1-4.1 23.1-4.2 23.1-4.7 23.1-4.6 23.1-4.8 23.1-2.9 23-3.1 23.1-3.4 23.1-3.4 23.1-3.4 23.1-4 23.1-3.9 23.1-3.9 23.1-4 23.1-4.2 23.1-4.1v9.8l-23.1 4.1-23.1 4.2-23.1 3.9-23.1 3.9-23.1 3.9-23.1 4-23.1 3.4-23.1 3.5L481 162l-23 3.1-23.1 2.9-23.1 4.9-23.1 4.7-23.1 4.7-23.1 4.3-23.1 4.1-23.1 7.6-23.1 7-23 6.7-23.1 6.6-23.1 6.5-23.1 6.8-23.1 6.6-23.1 6.3-23.1 6.4-23.1 6.1" fill="#fceb8c" fill-opacity=".7" class="Central-Europe_0-area"/><path d="M88.5 242.2l23.1-6.2 23.1-6.5 23.1-6.3 23.1-6.8 23.1-6.9 23.1-6.5 23.1-6.6 23-6.8 23.1-7.1 23.1-7.6 23.1-4.2 23.1-4.3 23.1-4.9 23.1-4.8 23.1-4.9 23.1-3.1 23-3.3 23.1-3.5 23.1-3.6 23.1-3.6 23.1-4.1 23.1-4.1 23.1-4.1 23.1-4 23.1-4.4 23.1-4.2v8.1l-23.1 4.1-23.1 4.2-23.1 4-23.1 3.9-23.1 3.9-23.1 4-23.1 3.4-23.1 3.4-23.1 3.4-23 3.1-23.1 2.9-23.1 4.8-23.1 4.6-23.1 4.7-23.1 4.2-23.1 4.1-23.1 7.5-23.1 7-23 6.7-23.1 6.5-23.1 6.5-23.1 6.8-23.1 6.7-23.1 6.3-23.1 6.4-23.1 6.1" fill="#df3c64" fill-opacity=".7" class="Central-Asia_0-area"/><path d="M88.5 242l23.1-6.2 23.1-6.5 23.1-6.4 23.1-6.7 23.1-6.9 23.1-6.5 23.1-6.6 23-6.8 23.1-7.1 23.1-7.6 23.1-4.3 23.1-4.3 23.1-4.9 23.1-4.8 23.1-4.9 23.1-3.1 23-3.3 23.1-3.5 23.1-3.6 23.1-3.6 23.1-4.1 23.1-4.2 23.1-4 23.1-4.1 23.1-4.4 23.1-4.2v.4l-23.1 4.2-23.1 4.4-23.1 4-23.1 4.1-23.1 4.1-23.1 4.1-23.1 3.6-23.1 3.6-23.1 3.5-23 3.3-23.1 3.1-23.1 4.9-23.1 4.8-23.1 4.9-23.1 4.3-23.1 4.2-23.1 7.6-23.1 7.1-23 6.8-23.1 6.6-23.1 6.5-23.1 6.9-23.1 6.8-23.1 6.3-23.1 6.5-23.1 6.2" fill="#a652ba" fill-opacity=".7" class="Oceania_0-area"/><path stroke-linecap="round" d="M88.5 477.7l23.1-1.6 23.1-1.6 23.1-1.7 23.1-1.8 23.1-1.9 23.1-2.3 23.1-2.4 23-2.4 23.1-2.6 23.1-2.8 23.1-1.5 23.1-1.6 23.1-1.6 23.1-1.7 23.1-1.7 23.1.4 23 .3 23.1.4 23.1.2 23.1.3 23.1-1.1 23.1-1.1 23.1-1.2 23.1-1.2 23.1-1.2 23.1-1.2" stroke="#A92021" stroke-opacity=".7" stroke-width=".5" fill="none" class="South-Asia_0-border"/><path stroke-linecap="round" d="M88.5 426.2l23.1-3 23.1-3.2 23.1-3.5 23.1-3.5 23.1-3.5 23.1-4 23.1-3.9 23-3.8 23.1-4.1 23.1-4.3 23.1-2.1 23.1-2.3 23.1-2.3 23.1-2.5 23.1-2.5 23.1-.6 23-.8 23.1-.9 23.1-.8 23.1-.8 23.1-1.1 23.1-1 23.1-1 23.1-1 23.1-.9 23.1-.8" stroke="#B05C55" stroke-opacity=".7" stroke-width=".5" fill="none" class="East-Asia_0-border"/><path stroke-linecap="round" d="M88.5 395.6l23.1-3.7 23.1-3.9 23.1-4.2 23.1-4.2 23.1-4.2 23.1-5.1 23.1-5.1 23-5.1 23.1-5.3 23.1-5.6 23.1-2.7 23.1-3 23.1-3 23.1-3.2 23.1-3.2 23.1-1.3 23-1.3 23.1-1.5 23.1-1.4 23.1-1.4 23.1-2.1 23.1-2.1 23.1-2 23.1-1.9 23.1-1.9 23.1-1.8" stroke="#2C7F35" stroke-opacity=".7" stroke-width=".5" fill="none" class="Latin-America-and-Caribbean_0-border"/><path stroke-linecap="round" d="M88.5 372.2l23.1-4.2 23.1-4.6 23.1-4.8 23.1-4.9 23.1-4.9 23.1-5.8 23.1-5.8 23-5.9 23.1-6.1 23.1-6.4 23.1-3.6 23.1-3.8 23.1-4 23.1-4 23.1-4.2 23.1-2.5 23-2.6 23.1-2.8 23.1-2.8 23.1-2.8 23.1-3.4 23.1-3.5 23.1-3.5 23.1-3.5 23.1-3.5 23.1-3.4" stroke="#2B508D" stroke-opacity=".7" stroke-width=".5" fill="none" class="Sub__002dSaharan-Africa_0-border"/><path stroke-linecap="round" d="M88.5 328l23.1-5.1 23.1-5.4 23.1-5.3 23.1-5.7 23.1-5.9 23.1-6.1 23.1-6.2 23-6.2 23.1-6.5 23.1-6.8 23.1-3.4 23.1-3.6 23.1-4 23.1-3.9 23.1-4L458 248l23-2.1 23.1-2.3 23.1-2.4 23.1-2.5 23.1-3 23.1-3.1 23.1-3 23.1-3.1 23.1-3.3 23.1-3.1" stroke="#CE881E" stroke-opacity=".7" stroke-width=".5" fill="none" class="Eastern-Europe_0-border"/><path stroke-linecap="round" d="M88.5 301.5l23.1-5.2 23.1-5.5 23.1-5.5 23.1-5.8 23.1-6 23.1-5.9 23.1-6 23-6.2 23.1-6.4 23.1-6.9 23.1-3.6 23.1-3.9 23.1-4.2 23.1-4.2 23.1-4.3 23.1-2.1 23-2.2 23.1-2.5 23.1-2.6 23.1-2.6 23.1-3.4 23.1-3.3 23.1-3.3 23.1-3.3 23.1-3.5 23.1-3.5" stroke="#4F9969" stroke-opacity=".7" stroke-width=".5" fill="none" class="North-America_0-border"/><path stroke-linecap="round" d="M88.5 287.1l23.1-5.6 23.1-5.9 23.1-5.8 23.1-6.2 23.1-6.4 23.1-6.4 23.1-6.3 23-6.6 23.1-6.8 23.1-7.3 23.1-3.9 23.1-4.1 23.1-4.5 23.1-4.4 23.1-4.6 23.1-2.5 23-2.6 23.1-3 23.1-3 23.1-3 23.1-3.7 23.1-3.8 23.1-3.6 23.1-3.7 23.1-3.9 23.1-3.8" stroke="#6C6D6D" stroke-opacity=".7" stroke-width=".5" fill="none" class="Southeast-Asia_0-border"/><path stroke-linecap="round" d="M88.5 264.7l23.1-5.9 23.1-6.2 23.1-6 23.1-6.4 23.1-6.6 23.1-6.2 23.1-6.3 23-6.4 23.1-6.8 23.1-7.2 23.1-3.8 23.1-4.1 23.1-4.4 23.1-4.4 23.1-4.5 23.1-2.6 23-2.7 23.1-3.1 23.1-3 23.1-3.1 23.1-3.6 23.1-3.6 23.1-3.6 23.1-3.6 23.1-3.9 23.1-3.8" stroke="#D5B234" stroke-opacity=".7" stroke-width=".5" fill="none" class="Western-Europe_0-border"/><path stroke-linecap="round" d="M88.5 257.3l23.1-6.1 23.1-6.4 23.1-6.3 23.1-6.6 23.1-6.8 23.1-6.5 23.1-6.6 23-6.7 23.1-7 23.1-7.6 23.1-4.1 23.1-4.3 23.1-4.7 23.1-4.7 23.1-4.9 23.1-2.9 23-3.1 23.1-3.4 23.1-3.5 23.1-3.4 23.1-4 23.1-3.9 23.1-3.9 23.1-3.9 23.1-4.2 23.1-4.1" stroke="#237B82" stroke-opacity=".7" stroke-width=".5" fill="none" class="North-Africa-and-Middle-East_0-border"/><path stroke-linecap="round" d="M88.5 247.1l23.1-6.1 23.1-6.4 23.1-6.3 23.1-6.7 23.1-6.8 23.1-6.5 23.1-6.5 23-6.7 23.1-7 23.1-7.5 23.1-4.1 23.1-4.2 23.1-4.7 23.1-4.6 23.1-4.8 23.1-2.9 23-3.1 23.1-3.4 23.1-3.4 23.1-3.4 23.1-4 23.1-3.9 23.1-3.9 23.1-4 23.1-4.2 23.1-4.1" stroke="#D3C575" stroke-opacity=".7" stroke-width=".5" fill="none" class="Central-Europe_0-border"/><path stroke-linecap="round" d="M88.5 242.2l23.1-6.2 23.1-6.5 23.1-6.3 23.1-6.8 23.1-6.9 23.1-6.5 23.1-6.6 23-6.8 23.1-7.1 23.1-7.6 23.1-4.2 23.1-4.3 23.1-4.9 23.1-4.8 23.1-4.9 23.1-3.1 23-3.3 23.1-3.5 23.1-3.6 23.1-3.6 23.1-4.1 23.1-4.1 23.1-4.1 23.1-4 23.1-4.4 23.1-4.2" stroke="#BB3254" stroke-opacity=".7" stroke-width=".5" fill="none" class="Central-Asia_0-border"/><path stroke-linecap="round" d="M88.5 242l23.1-6.2 23.1-6.5 23.1-6.4 23.1-6.7 23.1-6.9 23.1-6.5 23.1-6.6 23-6.8 23.1-7.1 23.1-7.6 23.1-4.3 23.1-4.3 23.1-4.9 23.1-4.8 23.1-4.9 23.1-3.1 23-3.3 23.1-3.5 23.1-3.6 23.1-3.6 23.1-4.1 23.1-4.2 23.1-4 23.1-4.1 23.1-4.4 23.1-4.2" stroke="#8B459C" stroke-opacity=".7" stroke-width=".5" fill="none" class="Oceania_0-border"/></g></g></g><g class="SourcesFooter" fill="#777"><g class="clickable" fill="#777"><text font-size="12.6" x="15" y="581.6"><tspan x="15" y="581.58">Source: IHME, Global Burden of Disease</tspan></text></g><text font-size="12.6" x="649" y="581.6"><tspan x="649.02" y="581.58"><a target="_blank" href="https://ourworldindata.org" fill="#777">OurWorldInData.org</a> • <a href="http://creativecommons.org/licenses/by-sa/4.0/deed.en_US" target="_blank" fill="#777">CC BY-SA</a></tspan></text></g></g></svg>