<svg xmlns="http://www.w3.org/2000/svg" version="1.1" style="font-family:&#x27;Helvetica Neue&#x27;, Helvetica, Arial, sans-serif;font-size:18px;background-color:white;text-rendering:optimizeLegibility;-webkit-font-smoothing:antialiased" width="850" height="600"><g class="ChartTab"><g class="HeaderView"><g opacity="0.8" transform="translate(778, 15) scale(0.27)"><a xmlns:xlink="http://www.w3.org/1999/xlink" xlink:href="https://ourworldindata.org" target="_blank"><g><rect x="0" y="0" fill="#1B2543" width="211.2" height="130.1"/><rect x="0" y="112.2" fill="#E63912" width="211.2" height="17.9"/><g><rect x="1.2" y="12.3" fill="none" width="210.2" height="99.2"/><path fill="#FFFFFF" d="M37.8,32.2c0,12.7-7.7,19.4-17.1,19.4c-9.7,0-16.6-7.5-16.6-18.7c0-11.7,7.3-19.3,17.1-19.3 C31.3,13.7,37.8,21.3,37.8,32.2z M9.2,32.8c0,7.9,4.3,14.9,11.8,14.9c7.5,0,11.8-6.9,11.8-15.3c0-7.3-3.8-14.9-11.8-14.9 C13.1,17.5,9.2,24.8,9.2,32.8z"/><path fill="#FFFFFF" d="M62.7,43.8c0,2.7,0.1,5.1,0.2,7.2h-4.3l-0.3-4.3h-0.1c-1.3,2.1-4,4.9-8.8,4.9c-4.2,0-9.1-2.3-9.1-11.6 V24.6h4.8v14.6c0,5,1.5,8.4,5.9,8.4c3.2,0,5.5-2.2,6.3-4.4c0.3-0.7,0.4-1.6,0.4-2.5V24.6h4.8V43.8z"/><path fill="#FFFFFF" d="M67.3,32.8c0-3.1-0.1-5.8-0.2-8.2h4.2l0.2,5.2h0.2c1.2-3.5,4.1-5.8,7.3-5.8c0.5,0,0.9,0.1,1.4,0.2v4.5 c-0.5-0.1-1-0.2-1.6-0.2c-3.4,0-5.8,2.6-6.5,6.2c-0.1,0.7-0.2,1.4-0.2,2.2V51h-4.8V32.8z"/><path fill="#FFFFFF" d="M95.4,51l-9.4-36.8h5l4.4,18.6c1.1,4.6,2.1,9.2,2.7,12.7h0.1c0.6-3.7,1.8-8,3-12.8l4.9-18.5h5l4.5,18.7 c1,4.4,2,8.7,2.6,12.6h0.1c0.8-4,1.8-8.1,3-12.7l4.9-18.5h4.9L120.6,51h-5L111,31.9c-1.1-4.7-1.9-8.3-2.4-12h-0.1 c-0.7,3.7-1.5,7.3-2.8,12L100.4,51H95.4z"/><path fill="#FFFFFF" d="M154.9,37.6c0,9.8-6.8,14-13.2,14c-7.2,0-12.7-5.2-12.7-13.6c0-8.8,5.8-14,13.1-14 C149.8,24,154.9,29.5,154.9,37.6z M133.9,37.9c0,5.8,3.3,10.1,8,10.1c4.6,0,8-4.3,8-10.3c0-4.5-2.2-10.1-7.9-10.1 C136.3,27.6,133.9,32.8,133.9,37.9z"/><path fill="#FFFFFF" d="M158.2,32.8c0-3.1-0.1-5.8-0.2-8.2h4.2l0.2,5.2h0.2c1.2-3.5,4.1-5.8,7.3-5.8c0.5,0,0.9,0.1,1.4,0.2v4.5 c-0.5-0.1-1-0.2-1.6-0.2c-3.4,0-5.8,2.6-6.5,6.2c-0.1,0.7-0.2,1.4-0.2,2.2V51h-4.8V32.8z"/><path fill="#FFFFFF" d="M173.5,12.3h4.8V51h-4.8V12.3z"/><path fill="#FFFFFF" d="M206.5,12.3v31.9c0,2.3,0.1,5,0.2,6.8h-4.3l-0.2-4.6H202c-1.5,2.9-4.7,5.2-9,5.2 c-6.4,0-11.3-5.4-11.3-13.4c-0.1-8.8,5.4-14.2,11.9-14.2c4,0,6.8,1.9,8,4h0.1V12.3H206.5z M201.7,35.4c0-0.6-0.1-1.4-0.2-2 c-0.7-3.1-3.3-5.6-6.9-5.6c-5,0-7.9,4.4-7.9,10.2c0,5.3,2.6,9.8,7.8,9.8c3.2,0,6.2-2.1,7.1-5.7c0.2-0.7,0.2-1.3,0.2-2.1V35.4z"/><path fill="#FFFFFF" d="M42.8,64c0.1,1.6-1.1,2.9-3.1,2.9c-1.7,0-2.9-1.3-2.9-2.9c0-1.7,1.3-3,3-3C41.7,61,42.8,62.3,42.8,64z M37.4,97.8V71.4h4.8v26.4H37.4z"/><path fill="#FFFFFF" d="M47.5,78.6c0-2.7-0.1-5-0.2-7.1h4.3l0.3,4.4h0.1c1.3-2.5,4.4-5,8.8-5c3.7,0,9.4,2.2,9.4,11.2v15.8h-4.8 V82.6c0-4.3-1.6-7.8-6.1-7.8c-3.2,0-5.6,2.2-6.5,4.9c-0.2,0.6-0.3,1.4-0.3,2.2v15.9h-4.8V78.6z"/><path fill="#FFFFFF" d="M84,61.6c2.9-0.4,6.3-0.8,10.1-0.8c6.8,0,11.7,1.6,14.9,4.6c3.3,3,5.2,7.3,5.2,13.2c0,6-1.9,10.9-5.3,14.3 c-3.4,3.4-9.1,5.3-16.3,5.3c-3.4,0-6.2-0.2-8.6-0.4V61.6z M88.8,94.1c1.2,0.2,3,0.3,4.8,0.3c10.2,0,15.7-5.7,15.7-15.6 c0.1-8.7-4.9-14.2-14.9-14.2c-2.5,0-4.3,0.2-5.6,0.5V94.1z"/><path fill="#FFFFFF" d="M132.1,97.8l-0.4-3.3h-0.2c-1.5,2.1-4.3,3.9-8.1,3.9c-5.4,0-8.1-3.8-8.1-7.6c0-6.4,5.7-9.9,15.9-9.8v-0.5 c0-2.2-0.6-6.1-6-6.1c-2.5,0-5,0.8-6.9,2l-1.1-3.2c2.2-1.4,5.4-2.3,8.7-2.3c8.1,0,10.1,5.5,10.1,10.8v9.9c0,2.3,0.1,4.5,0.4,6.3 H132.1z M131.4,84.4c-5.3-0.1-11.2,0.8-11.2,5.9c0,3.1,2.1,4.6,4.5,4.6c3.4,0,5.6-2.2,6.4-4.4c0.2-0.5,0.3-1,0.3-1.5V84.4z"/><path fill="#FFFFFF" d="M146.6,63.9v7.6h6.9v3.7h-6.9v14.2c0,3.3,0.9,5.1,3.6,5.1c1.3,0,2.2-0.2,2.8-0.3l0.2,3.6 c-0.9,0.4-2.4,0.7-4.3,0.7c-2.2,0-4-0.7-5.2-2c-1.4-1.4-1.9-3.8-1.9-6.9V75.1h-4.1v-3.7h4.1v-6.3L146.6,63.9z"/><path fill="#FFFFFF" d="M171.4,97.8l-0.4-3.3h-0.2c-1.5,2.1-4.3,3.9-8.1,3.9c-5.4,0-8.1-3.8-8.1-7.6c0-6.4,5.7-9.9,15.9-9.8v-0.5 c0-2.2-0.6-6.1-6-6.1c-2.5,0-5,0.8-6.9,2l-1.1-3.2c2.2-1.4,5.4-2.3,8.7-2.3c8.1,0,10.1,5.5,10.1,10.8v9.9c0,2.3,0.1,4.5,0.4,6.3 H171.4z M170.7,84.4c-5.3-0.1-11.2,0.8-11.2,5.9c0,3.1,2.1,4.6,4.5,4.6c3.4,0,5.6-2.2,6.4-4.4c0.2-0.5,0.3-1,0.3-1.5V84.4z"/></g></g></a></g><a href="https://ourworldindata.org/grapher/number-of-natural-disaster-events" target="_blank"><text font-size="25.20" x="15.0" y="35.2" fill="#555"><tspan x="15" y="35.160000000000004">Number of recorded natural disaster events, All natural disasters</tspan></text></a><text font-size="14.40" x="15.0" y="53.7" fill="#666"><tspan x="15" y="53.72">The number of global reported natural disaster events in any given year. This includes those from drought, floods,</tspan><tspan x="15" y="69.56">biological epidemics, extreme weather, extreme temperature, landslides, dry mass movements, extraterrestrial</tspan><tspan x="15" y="85.4">impacts, wildfires, volcanic activity and earthquakes.</tspan></text></g><g class="LineChart"><defs><clipPath id="boundsClip-1"><rect x="37.216" y="0" width="830" height="868.5999999999999"></rect></clipPath></defs><g class="AxisBoxView"><g class="HorizontalAxis"><text x="47.2" y="541.9" fill="#666" text-anchor="middle" font-size="16.2">1900</text><text x="155.7" y="541.9" fill="#666" text-anchor="middle" font-size="16.2">1920</text><text x="264.2" y="541.9" fill="#666" text-anchor="middle" font-size="16.2">1940</text><text x="372.7" y="541.9" fill="#666" text-anchor="middle" font-size="16.2">1960</text><text x="481.2" y="541.9" fill="#666" text-anchor="middle" font-size="16.2">1980</text><text x="589.7" y="541.9" fill="#666" text-anchor="middle" font-size="16.2">2000</text><text x="681.9" y="541.9" fill="#666" text-anchor="middle" font-size="16.2">2017</text></g><g class="VerticalAxis"><text x="42.22" y="520.7" fill="#666" dominant-baseline="middle" text-anchor="end" font-size="16.2">0</text><text x="42.22" y="442.2" fill="#666" dominant-baseline="middle" text-anchor="end" font-size="16.2">100</text><text x="42.22" y="363.6" fill="#666" dominant-baseline="middle" text-anchor="end" font-size="16.2">200</text><text x="42.22" y="285.1" fill="#666" dominant-baseline="middle" text-anchor="end" font-size="16.2">300</text><text x="42.22" y="206.6" fill="#666" dominant-baseline="middle" text-anchor="end" font-size="16.2">400</text><text x="42.22" y="128" fill="#666" dominant-baseline="middle" text-anchor="end" font-size="16.2">500</text></g><g class="AxisGridLines"><line x1="47.22" y1="520.7" x2="681.88" y2="520.7" stroke="#ccc"></line><line x1="47.22" y1="442.2" x2="681.88" y2="442.2" stroke="#ddd" stroke-dasharray="3,2"></line><line x1="47.22" y1="363.6" x2="681.88" y2="363.6" stroke="#ddd" stroke-dasharray="3,2"></line><line x1="47.22" y1="285.1" x2="681.88" y2="285.1" stroke="#ddd" stroke-dasharray="3,2"></line><line x1="47.22" y1="206.6" x2="681.88" y2="206.6" stroke="#ddd" stroke-dasharray="3,2"></line><line x1="47.22" y1="128" x2="681.88" y2="128" stroke="#ddd" stroke-dasharray="3,2"></line></g></g><g clip-path="url(#boundsClip-1)"><g class="HeightedLegend clickable"><g class="legendMark"><rect x="681.875" y="285.45" width="153.125" height="13.5" fill="#fff" opacity="0"></rect><text font-size="13.50" x="686.9" y="296.3" fill="#3360a9"><tspan x="686.875" y="296.25">All natural disasters</tspan></text></g></g><g class="Lines"><rect x="47" y="108" width="635" height="413" fill="rgba(255,255,255,0)" opacity="0"></rect><g class="key-All-natural-disasters_0"><path stroke="#3360a9" stroke-linecap="round" d="M47 516L53 518L58 514L64 514L69 519L74 518L80 507L85 516L91 518L96 511L102 508L107 517L112 515L118 516L123 516L129 515L134 519L139 515L145 513L150 517L156 513L161 518L167 515L172 509L177 517L183 516L188 508L194 511L199 507L205 516L210 509L215 511L221 514L226 513L232 514L237 511L243 512L248 515L253 515L259 512L264 507L270 517L275 514L281 511L286 511L291 511L297 509L302 511L308 503L313 505L318 502L324 500L329 502L335 493L340 495L346 497L351 492L356 498L362 503L367 495L373 489L378 499L384 499L389 486L394 471L400 468L405 456L411 462L416 457L422 461L427 457L432 471L438 470L443 474L449 465L454 470L460 447L465 408L470 412L476 423L481 410L487 408L492 395L497 354L503 397L508 379L514 384L519 339L525 335L530 372L535 288L541 307L546 338L552 311L557 320L563 303L568 307L573 266L579 236L584 196L590 108L595 170L601 124L606 191L611 208L617 137L622 158L628 167L633 211L639 215L644 179L649 237L655 229L660 242L666 252L671 210L677 247L682 292" fill="none" stroke-width="1.5"></path><g fill="#3360a9"><circle cx="47" cy="516" r="2"></circle><circle cx="53" cy="518" r="2"></circle><circle cx="58" cy="514" r="2"></circle><circle cx="64" cy="514" r="2"></circle><circle cx="69" cy="519" r="2"></circle><circle cx="74" cy="518" r="2"></circle><circle cx="80" cy="507" r="2"></circle><circle cx="85" cy="516" r="2"></circle><circle cx="91" cy="518" r="2"></circle><circle cx="96" cy="511" r="2"></circle><circle cx="102" cy="508" r="2"></circle><circle cx="107" cy="517" r="2"></circle><circle cx="112" cy="515" r="2"></circle><circle cx="118" cy="516" r="2"></circle><circle cx="123" cy="516" r="2"></circle><circle cx="129" cy="515" r="2"></circle><circle cx="134" cy="519" r="2"></circle><circle cx="139" cy="515" r="2"></circle><circle cx="145" cy="513" r="2"></circle><circle cx="150" cy="517" r="2"></circle><circle cx="156" cy="513" r="2"></circle><circle cx="161" cy="518" r="2"></circle><circle cx="167" cy="515" r="2"></circle><circle cx="172" cy="509" r="2"></circle><circle cx="177" cy="517" r="2"></circle><circle cx="183" cy="516" r="2"></circle><circle cx="188" cy="508" r="2"></circle><circle cx="194" cy="511" r="2"></circle><circle cx="199" cy="507" r="2"></circle><circle cx="205" cy="516" r="2"></circle><circle cx="210" cy="509" r="2"></circle><circle cx="215" cy="511" r="2"></circle><circle cx="221" cy="514" r="2"></circle><circle cx="226" cy="513" r="2"></circle><circle cx="232" cy="514" r="2"></circle><circle cx="237" cy="511" r="2"></circle><circle cx="243" cy="512" r="2"></circle><circle cx="248" cy="515" r="2"></circle><circle cx="253" cy="515" r="2"></circle><circle cx="259" cy="512" r="2"></circle><circle cx="264" cy="507" r="2"></circle><circle cx="270" cy="517" r="2"></circle><circle cx="275" cy="514" r="2"></circle><circle cx="281" cy="511" r="2"></circle><circle cx="286" cy="511" r="2"></circle><circle cx="291" cy="511" r="2"></circle><circle cx="297" cy="509" r="2"></circle><circle cx="302" cy="511" r="2"></circle><circle cx="308" cy="503" r="2"></circle><circle cx="313" cy="505" r="2"></circle><circle cx="318" cy="502" r="2"></circle><circle cx="324" cy="500" r="2"></circle><circle cx="329" cy="502" r="2"></circle><circle cx="335" cy="493" r="2"></circle><circle cx="340" cy="495" r="2"></circle><circle cx="346" cy="497" r="2"></circle><circle cx="351" cy="492" r="2"></circle><circle cx="356" cy="498" r="2"></circle><circle cx="362" cy="503" r="2"></circle><circle cx="367" cy="495" r="2"></circle><circle cx="373" cy="489" r="2"></circle><circle cx="378" cy="499" r="2"></circle><circle cx="384" cy="499" r="2"></circle><circle cx="389" cy="486" r="2"></circle><circle cx="394" cy="471" r="2"></circle><circle cx="400" cy="468" r="2"></circle><circle cx="405" cy="456" r="2"></circle><circle cx="411" cy="462" r="2"></circle><circle cx="416" cy="457" r="2"></circle><circle cx="422" cy="461" r="2"></circle><circle cx="427" cy="457" r="2"></circle><circle cx="432" cy="471" r="2"></circle><circle cx="438" cy="470" r="2"></circle><circle cx="443" cy="474" r="2"></circle><circle cx="449" cy="465" r="2"></circle><circle cx="454" cy="470" r="2"></circle><circle cx="460" cy="447" r="2"></circle><circle cx="465" cy="408" r="2"></circle><circle cx="470" cy="412" r="2"></circle><circle cx="476" cy="423" r="2"></circle><circle cx="481" cy="410" r="2"></circle><circle cx="487" cy="408" r="2"></circle><circle cx="492" cy="395" r="2"></circle><circle cx="497" cy="354" r="2"></circle><circle cx="503" cy="397" r="2"></circle><circle cx="508" cy="379" r="2"></circle><circle cx="514" cy="384" r="2"></circle><circle cx="519" cy="339" r="2"></circle><circle cx="525" cy="335" r="2"></circle><circle cx="530" cy="372" r="2"></circle><circle cx="535" cy="288" r="2"></circle><circle cx="541" cy="307" r="2"></circle><circle cx="546" cy="338" r="2"></circle><circle cx="552" cy="311" r="2"></circle><circle cx="557" cy="320" r="2"></circle><circle cx="563" cy="303" r="2"></circle><circle cx="568" cy="307" r="2"></circle><circle cx="573" cy="266" r="2"></circle><circle cx="579" cy="236" r="2"></circle><circle cx="584" cy="196" r="2"></circle><circle cx="590" cy="108" r="2"></circle><circle cx="595" cy="170" r="2"></circle><circle cx="601" cy="124" r="2"></circle><circle cx="606" cy="191" r="2"></circle><circle cx="611" cy="208" r="2"></circle><circle cx="617" cy="137" r="2"></circle><circle cx="622" cy="158" r="2"></circle><circle cx="628" cy="167" r="2"></circle><circle cx="633" cy="211" r="2"></circle><circle cx="639" cy="215" r="2"></circle><circle cx="644" cy="179" r="2"></circle><circle cx="649" cy="237" r="2"></circle><circle cx="655" cy="229" r="2"></circle><circle cx="660" cy="242" r="2"></circle><circle cx="666" cy="252" r="2"></circle><circle cx="671" cy="210" r="2"></circle><circle cx="677" cy="247" r="2"></circle><circle cx="682" cy="292" r="2"></circle></g></g></g></g></g><g class="SourcesFooter" style="fill:#777"><g class="clickable" style="fill:#777"><text font-size="12.60" x="15.0" y="567.0"><tspan x="15" y="566.98">Source: 	EMDAT (2017): OFDA/CRED International Disaster Database, Université catholique de Louvain – Brussels – Belgium</tspan></text></g><text font-size="12.60" x="15.0" y="582.5"><tspan x="15" y="582.48"><a target='_blank' style='fill: #777;' href='https://ourworldindata.org/natural-disasters/'>OurWorldInData.org/natural-disasters/</a> • <a style="fill: #777;" class="cclogo" href="http://creativecommons.org/licenses/by-sa/4.0/deed.en_US" target="_blank">CC BY-SA</a></tspan></text></g></g></svg>