<svg xmlns="http://www.w3.org/2000/svg" version="1.1" style="background-color:#fff;-webkit-font-smoothing:antialiased" width="850" height="600" font-family="'Helvetica Neue',Helvetica,Arial,sans-serif" font-size="18" text-rendering="optimizeLegibility"><g class="ChartTab"><g class="HeaderView"><g opacity=".8" transform="matrix(.27 0 0 .27 778 15)"><a xmlns:xlink="http://www.w3.org/1999/xlink" xlink:href="https://ourworldindata.org" target="_blank"><g><path fill="#1B2543" d="M0 0h211.2v130.1H0z"/><path fill="#E63912" d="M0 112.2h211.2v17.9H0z"/><g><path fill="none" d="M1.2 12.3h210.2v99.2H1.2z"/><path fill="#FFF" d="M37.8 32.2c0 12.7-7.7 19.4-17.1 19.4-9.7 0-16.6-7.5-16.6-18.7 0-11.7 7.3-19.3 17.1-19.3 10.1.1 16.6 7.7 16.6 18.6zm-28.6.6c0 7.9 4.3 14.9 11.8 14.9 7.5 0 11.8-6.9 11.8-15.3 0-7.3-3.8-14.9-11.8-14.9-7.9 0-11.8 7.3-11.8 15.3zM62.7 43.8c0 2.7.1 5.1.2 7.2h-4.3l-.3-4.3h-.1c-1.3 2.1-4 4.9-8.8 4.9-4.2 0-9.1-2.3-9.1-11.6V24.6h4.8v14.6c0 5 1.5 8.4 5.9 8.4 3.2 0 5.5-2.2 6.3-4.4.3-.7.4-1.6.4-2.5V24.6h4.8v19.2zM67.3 32.8c0-3.1-.1-5.8-.2-8.2h4.2l.2 5.2h.2c1.2-3.5 4.1-5.8 7.3-5.8.5 0 .9.1 1.4.2v4.5c-.5-.1-1-.2-1.6-.2-3.4 0-5.8 2.6-6.5 6.2-.1.7-.2 1.4-.2 2.2V51h-4.8V32.8zM95.4 51L86 14.2h5l4.4 18.6c1.1 4.6 2.1 9.2 2.7 12.7h.1c.6-3.7 1.8-8 3-12.8l4.9-18.5h5l4.5 18.7c1 4.4 2 8.7 2.6 12.6h.1c.8-4 1.8-8.1 3-12.7l4.9-18.5h4.9L120.6 51h-5L111 31.9c-1.1-4.7-1.9-8.3-2.4-12h-.1c-.7 3.7-1.5 7.3-2.8 12L100.4 51h-5zM154.9 37.6c0 9.8-6.8 14-13.2 14-7.2 0-12.7-5.2-12.7-13.6 0-8.8 5.8-14 13.1-14 7.7 0 12.8 5.5 12.8 13.6zm-21 .3c0 5.8 3.3 10.1 8 10.1 4.6 0 8-4.3 8-10.3 0-4.5-2.2-10.1-7.9-10.1s-8.1 5.2-8.1 10.3zM158.2 32.8c0-3.1-.1-5.8-.2-8.2h4.2l.2 5.2h.2c1.2-3.5 4.1-5.8 7.3-5.8.5 0 .9.1 1.4.2v4.5c-.5-.1-1-.2-1.6-.2-3.4 0-5.8 2.6-6.5 6.2-.1.7-.2 1.4-.2 2.2V51h-4.8V32.8zM173.5 12.3h4.8V51h-4.8V12.3zM206.5 12.3v31.9c0 2.3.1 5 .2 6.8h-4.3l-.2-4.6h-.2c-1.5 2.9-4.7 5.2-9 5.2-6.4 0-11.3-5.4-11.3-13.4-.1-8.8 5.4-14.2 11.9-14.2 4 0 6.8 1.9 8 4h.1V12.3h4.8zm-4.8 23.1c0-.6-.1-1.4-.2-2a7 7 0 00-6.9-5.6c-5 0-7.9 4.4-7.9 10.2 0 5.3 2.6 9.8 7.8 9.8 3.2 0 6.2-2.1 7.1-5.7.2-.7.2-1.3.2-2.1v-4.6zM42.8 64c.1 1.6-1.1 2.9-3.1 2.9-1.7 0-2.9-1.3-2.9-2.9 0-1.7 1.3-3 3-3 1.9 0 3 1.3 3 3zm-5.4 33.8V71.4h4.8v26.4h-4.8zM47.5 78.6c0-2.7-.1-5-.2-7.1h4.3l.3 4.4h.1c1.3-2.5 4.4-5 8.8-5 3.7 0 9.4 2.2 9.4 11.2v15.8h-4.8V82.6c0-4.3-1.6-7.8-6.1-7.8-3.2 0-5.6 2.2-6.5 4.9-.2.6-.3 1.4-.3 2.2v15.9h-4.8V78.6zM84 61.6c2.9-.4 6.3-.8 10.1-.8 6.8 0 11.7 1.6 14.9 4.6 3.3 3 5.2 7.3 5.2 13.2 0 6-1.9 10.9-5.3 14.3-3.4 3.4-9.1 5.3-16.3 5.3-3.4 0-6.2-.2-8.6-.4V61.6zm4.8 32.5c1.2.2 3 .3 4.8.3 10.2 0 15.7-5.7 15.7-15.6.1-8.7-4.9-14.2-14.9-14.2-2.5 0-4.3.2-5.6.5v29zM132.1 97.8l-.4-3.3h-.2a9.79 9.79 0 01-8.1 3.9c-5.4 0-8.1-3.8-8.1-7.6 0-6.4 5.7-9.9 15.9-9.8v-.5c0-2.2-.6-6.1-6-6.1-2.5 0-5 .8-6.9 2l-1.1-3.2c2.2-1.4 5.4-2.3 8.7-2.3 8.1 0 10.1 5.5 10.1 10.8v9.9c0 2.3.1 4.5.4 6.3h-4.3zm-.7-13.4c-5.3-.1-11.2.8-11.2 5.9 0 3.1 2.1 4.6 4.5 4.6 3.4 0 5.6-2.2 6.4-4.4.2-.5.3-1 .3-1.5v-4.6zM146.6 63.9v7.6h6.9v3.7h-6.9v14.2c0 3.3.9 5.1 3.6 5.1 1.3 0 2.2-.2 2.8-.3l.2 3.6c-.9.4-2.4.7-4.3.7-2.2 0-4-.7-5.2-2-1.4-1.4-1.9-3.8-1.9-6.9V75.1h-4.1v-3.7h4.1v-6.3l4.8-1.2zM171.4 97.8l-.4-3.3h-.2a9.79 9.79 0 01-8.1 3.9c-5.4 0-8.1-3.8-8.1-7.6 0-6.4 5.7-9.9 15.9-9.8v-.5c0-2.2-.6-6.1-6-6.1-2.5 0-5 .8-6.9 2l-1.1-3.2c2.2-1.4 5.4-2.3 8.7-2.3 8.1 0 10.1 5.5 10.1 10.8v9.9c0 2.3.1 4.5.4 6.3h-4.3zm-.7-13.4c-5.3-.1-11.2.8-11.2 5.9 0 3.1 2.1 4.6 4.5 4.6 3.4 0 5.6-2.2 6.4-4.4.2-.5.3-1 .3-1.5v-4.6z"/></g></g></a></g><a href="https://ourworldindata.org/grapher/number-undernourished-2000-2017" target="_blank"><text font-size="25.2" x="15" y="35.2" fill="#555"><tspan x="15" y="35.16">Number of people who are undernourished</tspan></text></a><text font-size="14.4" x="15" y="53.7" fill="#666"><tspan x="15" y="53.72">Estimated number of people who are undernourished (which is defined as having a dietary energy intake below</tspan><tspan x="15" y="69.56">minimum requirements).</tspan></text></g><g class="LineChart"><defs><clipPath id="a"><path d="M87.6 0h830v928.8h-830z"/></clipPath></defs><g class="AxisBoxView"><g class="HorizontalAxis" fill="#666" text-anchor="middle" font-size="16.2"><text x="97.6" y="556.5">2000</text><text x="153" y="556.5">2002</text><text x="208.3" y="556.5">2004</text><text x="263.7" y="556.5">2006</text><text x="319.1" y="556.5">2008</text><text x="374.4" y="556.5">2010</text><text x="429.8" y="556.5">2012</text><text x="485.2" y="556.5">2014</text><text x="568.2" y="556.5">2017</text></g><g class="VerticalAxis" fill="#666" dominant-baseline="middle" text-anchor="end" font-size="16.2"><text x="92.6" y="535.3">0</text><text x="92.6" y="443.1">200 million</text><text x="92.6" y="350.9">400 million</text><text x="92.6" y="258.7">600 million</text><text x="92.6" y="166.5">800 million</text></g><g class="AxisGridLines"><path stroke="#ccc" d="M97.6 535.3h470.6"/><path stroke="#ddd" stroke-dasharray="3,2" d="M97.6 443.1h470.6M97.6 350.9h470.6M97.6 258.7h470.6M97.6 166.5h470.6"/></g></g><g clip-path="url(#a)"><g class="HeightedLegend clickable"><g class="legendMark"><g class="indicator" stroke="#666" stroke-width=".5"><path d="M573.2 157h12.5M585.7 157h0M585.7 157h12.5"/></g><text font-size="13.5" x="603.2" y="161.1" fill="#e6332e"><tspan x="603.2" y="161.05">World</tspan></text></g><g class="legendMark"><g class="indicator" stroke="#666" stroke-width=".5"><path d="M573.2 407.5h12.5M585.7 407.5h0M585.7 407.5h12.5"/></g><text font-size="13.5" x="603.2" y="411.6" fill="#2a939b"><tspan x="603.2" y="411.55">Southern Asia</tspan></text></g><g class="legendMark"><g class="indicator" stroke="#666" stroke-width=".5"><path d="M573.2 422.3h19.17M592.37 422.3h0M592.37 422.3h5.83"/></g><text font-size="13.5" x="603.2" y="426.4" fill="#a652ba"><tspan x="603.2" y="426.35">Least Developed Countries (LDCs)</tspan></text></g><g class="legendMark"><g class="indicator" stroke="#666" stroke-width=".5"><path d="M573.2 426.3h12.5M585.7 426.3v11.5M585.7 437.8h12.5"/></g><text font-size="13.5" x="603.2" y="441.9" fill="#f6a324"><tspan x="603.2" y="441.85">Sub-Saharan Africa</tspan></text></g><g class="legendMark"><g class="indicator" stroke="#666" stroke-width=".5"><path d="M573.2 439.9h5.84M579.04 439.9v13.4M579.04 453.3h19.16"/></g><text font-size="13.5" x="603.2" y="457.4" fill="#34983f"><tspan x="603.2" y="457.35">Low income economies</tspan></text></g><g class="legendMark"><g class="indicator" stroke="#666" stroke-width=".5"><path d="M573.2 482.8h12.5M585.7 482.8h0M585.7 482.8h12.5"/></g><text font-size="13.5" x="603.2" y="486.9" fill="#ca2628"><tspan x="603.2" y="486.85">Land Locked Developing Countries</tspan></text></g><g class="legendMark"><g class="indicator" stroke="#666" stroke-width=".5"><path d="M573.2 530h12.5M585.7 530h0M585.7 530h12.5"/></g><text font-size="13.5" x="603.2" y="534" fill="#3360a9"><tspan x="603.2" y="534.05">Small Island Developing States (SIDS)</tspan></text></g></g><g class="Lines"><g class="key-World_0"><path stroke="#e6332e" stroke-linecap="round" d="M98 117l27-9 28-10 28-6 27 2 28 6 28 15 27 16 28 10 28 7 27 9 28 4 28 3 28 5 27 5h28l28-9 27-8" fill="none" stroke-width="1.5"/><g fill="#e6332e"><circle cx="98" cy="117" r="2"/><circle cx="125" cy="108" r="2"/><circle cx="153" cy="98" r="2"/><circle cx="181" cy="92" r="2"/><circle cx="208" cy="94" r="2"/><circle cx="236" cy="100" r="2"/><circle cx="264" cy="115" r="2"/><circle cx="291" cy="131" r="2"/><circle cx="319" cy="141" r="2"/><circle cx="347" cy="148" r="2"/><circle cx="374" cy="157" r="2"/><circle cx="402" cy="161" r="2"/><circle cx="430" cy="164" r="2"/><circle cx="458" cy="169" r="2"/><circle cx="485" cy="174" r="2"/><circle cx="513" cy="174" r="2"/><circle cx="541" cy="165" r="2"/><circle cx="568" cy="157" r="2"/></g></g><g class="key-Low-income-economies_0"><path stroke="#34983f" stroke-linecap="round" d="M98 461l27-1h56l27 1 28 1h28l27-1h28l28-1 27 1 28-2 28-2 28-3 27-3 28-3 28-6 27-2" fill="none" stroke-width="1.5"/><g fill="#34983f"><circle cx="98" cy="461" r="2"/><circle cx="125" cy="460" r="2"/><circle cx="153" cy="460" r="2"/><circle cx="181" cy="460" r="2"/><circle cx="208" cy="461" r="2"/><circle cx="236" cy="462" r="2"/><circle cx="264" cy="462" r="2"/><circle cx="291" cy="461" r="2"/><circle cx="319" cy="461" r="2"/><circle cx="347" cy="460" r="2"/><circle cx="374" cy="461" r="2"/><circle cx="402" cy="459" r="2"/><circle cx="430" cy="457" r="2"/><circle cx="458" cy="454" r="2"/><circle cx="485" cy="451" r="2"/><circle cx="513" cy="448" r="2"/><circle cx="541" cy="442" r="2"/><circle cx="568" cy="440" r="2"/></g></g><g class="key-Land-Locked-Developing-Countries_0"><path stroke="#ca2628" stroke-linecap="round" d="M98 487h55l28 1 27 2h28l28 1h55l28 1h55l28-2h28l27-1 28-2 28-3 27-1" fill="none" stroke-width="1.5"/><g fill="#ca2628"><circle cx="98" cy="487" r="2"/><circle cx="125" cy="487" r="2"/><circle cx="153" cy="487" r="2"/><circle cx="181" cy="488" r="2"/><circle cx="208" cy="490" r="2"/><circle cx="236" cy="490" r="2"/><circle cx="264" cy="491" r="2"/><circle cx="291" cy="491" r="2"/><circle cx="319" cy="491" r="2"/><circle cx="347" cy="492" r="2"/><circle cx="374" cy="492" r="2"/><circle cx="402" cy="492" r="2"/><circle cx="430" cy="490" r="2"/><circle cx="458" cy="490" r="2"/><circle cx="485" cy="489" r="2"/><circle cx="513" cy="487" r="2"/><circle cx="541" cy="484" r="2"/><circle cx="568" cy="483" r="2"/></g></g><g class="key-Least-Developed-Countries-__0028LDCs__0029_0"><path stroke="#a652ba" stroke-linecap="round" d="M98 431h27l28 1 28 1 27 2 28 1 28 1h27l28 1h55l28-1 28-1 28-1 27-2 28-2 28-6 27-3" fill="none" stroke-width="1.5"/><g fill="#a652ba"><circle cx="98" cy="431" r="2"/><circle cx="125" cy="431" r="2"/><circle cx="153" cy="432" r="2"/><circle cx="181" cy="433" r="2"/><circle cx="208" cy="435" r="2"/><circle cx="236" cy="436" r="2"/><circle cx="264" cy="437" r="2"/><circle cx="291" cy="437" r="2"/><circle cx="319" cy="438" r="2"/><circle cx="347" cy="438" r="2"/><circle cx="374" cy="438" r="2"/><circle cx="402" cy="437" r="2"/><circle cx="430" cy="436" r="2"/><circle cx="458" cy="435" r="2"/><circle cx="485" cy="433" r="2"/><circle cx="513" cy="431" r="2"/><circle cx="541" cy="425" r="2"/><circle cx="568" cy="422" r="2"/></g></g><g class="key-Small-Island-Developing-States-__0028SIDS__0029_0"><path stroke="#3360a9" stroke-linecap="round" d="M98 530h83l27-1 28 1h332" fill="none" stroke-width="1.5"/><g fill="#3360a9"><circle cx="98" cy="530" r="2"/><circle cx="125" cy="530" r="2"/><circle cx="153" cy="530" r="2"/><circle cx="181" cy="530" r="2"/><circle cx="208" cy="529" r="2"/><circle cx="236" cy="530" r="2"/><circle cx="264" cy="530" r="2"/><circle cx="291" cy="530" r="2"/><circle cx="319" cy="530" r="2"/><circle cx="347" cy="530" r="2"/><circle cx="374" cy="530" r="2"/><circle cx="402" cy="530" r="2"/><circle cx="430" cy="530" r="2"/><circle cx="458" cy="530" r="2"/><circle cx="485" cy="530" r="2"/><circle cx="513" cy="530" r="2"/><circle cx="541" cy="530" r="2"/><circle cx="568" cy="530" r="2"/></g></g><g class="key-Sub__002dSaharan-Africa_0"><path stroke="#f6a324" stroke-linecap="round" d="M98 452l27-1h28l28-1 27 3 28 1h28l27-1 28-1h55l28-1 28-2 28-1 27-2 28-5 28-8 27-7" fill="none" stroke-width="1.5"/><g fill="#f6a324"><circle cx="98" cy="452" r="2"/><circle cx="125" cy="451" r="2"/><circle cx="153" cy="451" r="2"/><circle cx="181" cy="450" r="2"/><circle cx="208" cy="453" r="2"/><circle cx="236" cy="454" r="2"/><circle cx="264" cy="454" r="2"/><circle cx="291" cy="453" r="2"/><circle cx="319" cy="452" r="2"/><circle cx="347" cy="452" r="2"/><circle cx="374" cy="452" r="2"/><circle cx="402" cy="451" r="2"/><circle cx="430" cy="449" r="2"/><circle cx="458" cy="448" r="2"/><circle cx="485" cy="446" r="2"/><circle cx="513" cy="441" r="2"/><circle cx="541" cy="433" r="2"/><circle cx="568" cy="426" r="2"/></g></g><g class="key-Southern-Asia_0"><path stroke="#2a939b" stroke-linecap="round" d="M98 413l27-12 28-11 28-8 27-4 28 1 28 9 27 9 28 4h28l27-1 28-2 28-1 28 1 27 4 28 2 28 3 27 1" fill="none" stroke-width="1.5"/><g fill="#2a939b"><circle cx="98" cy="413" r="2"/><circle cx="125" cy="401" r="2"/><circle cx="153" cy="390" r="2"/><circle cx="181" cy="382" r="2"/><circle cx="208" cy="378" r="2"/><circle cx="236" cy="379" r="2"/><circle cx="264" cy="388" r="2"/><circle cx="291" cy="397" r="2"/><circle cx="319" cy="401" r="2"/><circle cx="347" cy="401" r="2"/><circle cx="374" cy="400" r="2"/><circle cx="402" cy="398" r="2"/><circle cx="430" cy="397" r="2"/><circle cx="458" cy="398" r="2"/><circle cx="485" cy="402" r="2"/><circle cx="513" cy="404" r="2"/><circle cx="541" cy="407" r="2"/><circle cx="568" cy="408" r="2"/></g></g></g></g></g><g class="SourcesFooter" fill="#777"><g class="clickable" fill="#777"><text font-size="12.6" x="15" y="581.6"><tspan x="15" y="581.58">Source: Food and Agriculture Organization (FAO) of the United Nations</tspan></text></g><text font-size="12.6" x="775.4" y="581.6"><tspan x="775.4" y="581.58"><a class="cclogo" href="http://creativecommons.org/licenses/by-sa/4.0/deed.en_US" target="_blank" fill="#777">CC BY-SA</a></tspan></text></g></g></svg>