<svg xmlns="http://www.w3.org/2000/svg" version="1.1" style="background-color:#fff;-webkit-font-smoothing:antialiased" width="850" height="600" font-family="'Helvetica Neue',Helvetica,Arial,sans-serif" font-size="18" text-rendering="optimizeLegibility"><g class="ChartTab"><g class="HeaderView"><g opacity=".8" transform="matrix(.27 0 0 .27 778 15)"><a xmlns:xlink="http://www.w3.org/1999/xlink" xlink:href="https://ourworldindata.org" target="_blank"><g><path fill="#1B2543" d="M0 0h211.2v130.1H0z"/><path fill="#E63912" d="M0 112.2h211.2v17.9H0z"/><g><path fill="none" d="M1.2 12.3h210.2v99.2H1.2z"/><path fill="#FFF" d="M37.8 32.2c0 12.7-7.7 19.4-17.1 19.4-9.7 0-16.6-7.5-16.6-18.7 0-11.7 7.3-19.3 17.1-19.3 10.1.1 16.6 7.7 16.6 18.6zm-28.6.6c0 7.9 4.3 14.9 11.8 14.9 7.5 0 11.8-6.9 11.8-15.3 0-7.3-3.8-14.9-11.8-14.9-7.9 0-11.8 7.3-11.8 15.3zM62.7 43.8c0 2.7.1 5.1.2 7.2h-4.3l-.3-4.3h-.1c-1.3 2.1-4 4.9-8.8 4.9-4.2 0-9.1-2.3-9.1-11.6V24.6h4.8v14.6c0 5 1.5 8.4 5.9 8.4 3.2 0 5.5-2.2 6.3-4.4.3-.7.4-1.6.4-2.5V24.6h4.8v19.2zM67.3 32.8c0-3.1-.1-5.8-.2-8.2h4.2l.2 5.2h.2c1.2-3.5 4.1-5.8 7.3-5.8.5 0 .9.1 1.4.2v4.5c-.5-.1-1-.2-1.6-.2-3.4 0-5.8 2.6-6.5 6.2-.1.7-.2 1.4-.2 2.2V51h-4.8V32.8zM95.4 51L86 14.2h5l4.4 18.6c1.1 4.6 2.1 9.2 2.7 12.7h.1c.6-3.7 1.8-8 3-12.8l4.9-18.5h5l4.5 18.7c1 4.4 2 8.7 2.6 12.6h.1c.8-4 1.8-8.1 3-12.7l4.9-18.5h4.9L120.6 51h-5L111 31.9c-1.1-4.7-1.9-8.3-2.4-12h-.1c-.7 3.7-1.5 7.3-2.8 12L100.4 51h-5zM154.9 37.6c0 9.8-6.8 14-13.2 14-7.2 0-12.7-5.2-12.7-13.6 0-8.8 5.8-14 13.1-14 7.7 0 12.8 5.5 12.8 13.6zm-21 .3c0 5.8 3.3 10.1 8 10.1 4.6 0 8-4.3 8-10.3 0-4.5-2.2-10.1-7.9-10.1s-8.1 5.2-8.1 10.3zM158.2 32.8c0-3.1-.1-5.8-.2-8.2h4.2l.2 5.2h.2c1.2-3.5 4.1-5.8 7.3-5.8.5 0 .9.1 1.4.2v4.5c-.5-.1-1-.2-1.6-.2-3.4 0-5.8 2.6-6.5 6.2-.1.7-.2 1.4-.2 2.2V51h-4.8V32.8zM173.5 12.3h4.8V51h-4.8V12.3zM206.5 12.3v31.9c0 2.3.1 5 .2 6.8h-4.3l-.2-4.6h-.2c-1.5 2.9-4.7 5.2-9 5.2-6.4 0-11.3-5.4-11.3-13.4-.1-8.8 5.4-14.2 11.9-14.2 4 0 6.8 1.9 8 4h.1V12.3h4.8zm-4.8 23.1c0-.6-.1-1.4-.2-2a7 7 0 00-6.9-5.6c-5 0-7.9 4.4-7.9 10.2 0 5.3 2.6 9.8 7.8 9.8 3.2 0 6.2-2.1 7.1-5.7.2-.7.2-1.3.2-2.1v-4.6zM42.8 64c.1 1.6-1.1 2.9-3.1 2.9-1.7 0-2.9-1.3-2.9-2.9 0-1.7 1.3-3 3-3 1.9 0 3 1.3 3 3zm-5.4 33.8V71.4h4.8v26.4h-4.8zM47.5 78.6c0-2.7-.1-5-.2-7.1h4.3l.3 4.4h.1c1.3-2.5 4.4-5 8.8-5 3.7 0 9.4 2.2 9.4 11.2v15.8h-4.8V82.6c0-4.3-1.6-7.8-6.1-7.8-3.2 0-5.6 2.2-6.5 4.9-.2.6-.3 1.4-.3 2.2v15.9h-4.8V78.6zM84 61.6c2.9-.4 6.3-.8 10.1-.8 6.8 0 11.7 1.6 14.9 4.6 3.3 3 5.2 7.3 5.2 13.2 0 6-1.9 10.9-5.3 14.3-3.4 3.4-9.1 5.3-16.3 5.3-3.4 0-6.2-.2-8.6-.4V61.6zm4.8 32.5c1.2.2 3 .3 4.8.3 10.2 0 15.7-5.7 15.7-15.6.1-8.7-4.9-14.2-14.9-14.2-2.5 0-4.3.2-5.6.5v29zM132.1 97.8l-.4-3.3h-.2a9.79 9.79 0 01-8.1 3.9c-5.4 0-8.1-3.8-8.1-7.6 0-6.4 5.7-9.9 15.9-9.8v-.5c0-2.2-.6-6.1-6-6.1-2.5 0-5 .8-6.9 2l-1.1-3.2c2.2-1.4 5.4-2.3 8.7-2.3 8.1 0 10.1 5.5 10.1 10.8v9.9c0 2.3.1 4.5.4 6.3h-4.3zm-.7-13.4c-5.3-.1-11.2.8-11.2 5.9 0 3.1 2.1 4.6 4.5 4.6 3.4 0 5.6-2.2 6.4-4.4.2-.5.3-1 .3-1.5v-4.6zM146.6 63.9v7.6h6.9v3.7h-6.9v14.2c0 3.3.9 5.1 3.6 5.1 1.3 0 2.2-.2 2.8-.3l.2 3.6c-.9.4-2.4.7-4.3.7-2.2 0-4-.7-5.2-2-1.4-1.4-1.9-3.8-1.9-6.9V75.1h-4.1v-3.7h4.1v-6.3l4.8-1.2zM171.4 97.8l-.4-3.3h-.2a9.79 9.79 0 01-8.1 3.9c-5.4 0-8.1-3.8-8.1-7.6 0-6.4 5.7-9.9 15.9-9.8v-.5c0-2.2-.6-6.1-6-6.1-2.5 0-5 .8-6.9 2l-1.1-3.2c2.2-1.4 5.4-2.3 8.7-2.3 8.1 0 10.1 5.5 10.1 10.8v9.9c0 2.3.1 4.5.4 6.3h-4.3zm-.7-13.4c-5.3-.1-11.2.8-11.2 5.9 0 3.1 2.1 4.6 4.5 4.6 3.4 0 5.6-2.2 6.4-4.4.2-.5.3-1 .3-1.5v-4.6z"/></g></g></a></g><a href="https://ourworldindata.org/grapher/participation-of-women-in-purchase-decisions" target="_blank"><text font-size="25.2" x="15" y="35.2" fill="#555"><tspan x="15" y="35.16">Participation of women in purchase decisions, 2016</tspan></text></a><text font-size="14.4" x="15" y="53.7" fill="#666"><tspan x="15" y="53.72">Percentage of currently married women aged 15-49 who say that they alone or jointly have a say in major household</tspan><tspan x="15" y="69.56">purchase decisions.</tspan></text></g><g><g class="AxisBoxView"><g class="HorizontalAxis"><text font-size="12.6" x="288.3" y="554"><tspan x="288.33" y="553.98">GDP per capita, PPP, int. $</tspan></text><text x="75.2" y="533.9" fill="#666" text-anchor="middle" font-size="16.2">$0</text><text x="145.8" y="533.9" fill="#666" text-anchor="middle" font-size="16.2">$2,000</text><text x="216.5" y="533.9" fill="#666" text-anchor="middle" font-size="16.2">$4,000</text><text x="287.2" y="533.9" fill="#666" text-anchor="middle" font-size="16.2">$6,000</text><text x="357.8" y="533.9" fill="#666" text-anchor="middle" font-size="16.2">$8,000</text><text x="428.5" y="533.9" fill="#666" text-anchor="middle" font-size="16.2">$10,000</text><text x="499.2" y="533.9" fill="#666" text-anchor="middle" font-size="16.2">$12,000</text><text x="569.9" y="533.9" fill="#666" text-anchor="middle" font-size="16.2">$14,000</text><text x="640.5" y="533.9" fill="#666" text-anchor="middle" font-size="16.2">$16,000</text><text x="711.2" y="533.9" fill="#666" text-anchor="middle" font-size="16.2">$18,000</text></g><g class="VerticalAxis"><text font-size="12.6" x="-520.6" y="25.1" transform="rotate(-90)"><tspan x="-520.61" y="25.08">Women participating in major purchase decisions (% of women 15-49)</tspan></text><text x="70.16" y="512.7" fill="#666" dominant-baseline="middle" text-anchor="end" font-size="16.2">0%</text><text x="70.16" y="422.7" fill="#666" dominant-baseline="middle" text-anchor="end" font-size="16.2">20%</text><text x="70.16" y="332.8" fill="#666" dominant-baseline="middle" text-anchor="end" font-size="16.2">40%</text><text x="70.16" y="242.8" fill="#666" dominant-baseline="middle" text-anchor="end" font-size="16.2">60%</text><text x="70.16" y="152.8" fill="#666" dominant-baseline="middle" text-anchor="end" font-size="16.2">80%</text></g><g class="AxisGridLines"><path stroke="#ccc" d="M75.16 512.7H715"/><path stroke="#ddd" stroke-dasharray="3,2" d="M75.16 422.7H715M75.16 332.8H715M75.16 242.8H715M75.16 152.8H715"/></g><g class="AxisGridLines"><path stroke="#ccc" d="M75.2 512.7V92.1"/><path stroke="#ddd" stroke-dasharray="3,2" d="M145.8 512.7V92.1M216.5 512.7V92.1M287.2 512.7V92.1M357.8 512.7V92.1M428.5 512.7V92.1M499.2 512.7V92.1M569.9 512.7V92.1M640.5 512.7V92.1M711.2 512.7V92.1"/></g></g><g class="ComparisonLine"><defs><clipPath id="a"><path d="M75.16 92.1H715v420.6H75.16z"/></clipPath></defs><path d="M75.2 512.7l6.4-814.6 6.4-814.5 6.4-814.6 6.4-814.5 6.4-814.6 6.4-814.5 6.4-814.6 6.3-814.5 6.4-814.6 6.4-814.5 6.4-814.6 6.4-814.5 6.4-814.6 6.4-814.5 6.4-814.6 6.4-814.5 6.4-814.6 6.4-814.5 6.4-814.6 6.4-814.5 6.4-814.6 6.4-814.5 6.4-814.6 6.4-814.5 6.4-814.6 6.4-814.5 6.4-814.6 6.4-814.5 6.4-814.6 6.4-814.5 6.4-814.6 6.4-814.5 6.4-814.6 6.4-814.6 6.4-814.5 6.4-814.6 6.4-814.5 6.4-814.6 6.4-814.5 6.4-814.6 6.4-814.5 6.4-814.6 6.4-814.5 6.4-814.6 6.4-814.5 6.4-814.6 6.4-814.5 6.4-814.6 6.4-814.5 6.4-814.6 6.4-814.5 6.4-814.6 6.4-814.5 6.4-814.6 6.4-814.5 6.4-814.6 6.4-814.5 6.4-814.6 6.4-814.5 6.4-814.6 6.4-814.5 6.4-814.6 6.4-814.5 6.4-814.6 6.4-814.5 6.4-814.6 6.4-814.5 6.4-814.6 6.4-814.6 6.3-814.5 6.4-814.6 6.4-814.5 6.4-814.6 6.4-814.5 6.4-814.6 6.4-814.5 6.4-814.6 6.4-814.5 6.4-814.6 6.4-814.5 6.4-814.6 6.4-814.5 6.4-814.6 6.4-814.5 6.4-814.6 6.4-814.5 6.4-814.6 6.4-814.5 6.4-814.6 6.4-814.5 6.4-814.6 6.4-814.5 6.4-814.6 6.4-814.5 6.4-814.6 6.4-814.5 6.4-814.6 6.4-814.5 6.4-814.6" clip-path="url(#a)" fill="none" stroke="#ccc"/></g><g clip-path="url(#b)" font-family="Arial Narrow, Arial, sans-serif" class="PointsWithLabels clickable"><path fill="rgba(255,255,255,0)" d="M75.16 92.1H715v420.6H75.16z"/><defs><clipPath id="b"><path d="M65.16 82.1H725v440.6H65.16z"/></clipPath></defs><g class="key-India_0"><circle cx="307" cy="274" r="17.84" fill="#d14e5b" opacity=".8" stroke="#333" stroke-width=".7"/></g><g class="key-Indonesia_0"><circle cx="485" cy="145" r="8.02" fill="#d14e5b" opacity=".8" stroke="#333" stroke-width=".7"/></g><g class="key-Pakistan_0"><circle cx="260" cy="301" r="6.96" fill="#d14e5b" opacity=".8" stroke="#333" stroke-width=".7"/></g><g class="key-Nigeria_0"><circle cx="282" cy="343" r="6.74" fill="#5675c1" opacity=".8" stroke="#333" stroke-width=".7"/></g><g class="key-Bangladesh_0"><circle cx="201" cy="236" r="6.43" fill="#d14e5b" opacity=".8" stroke="#333" stroke-width=".7"/></g><g class="key-Philippines_0"><circle cx="351" cy="129" r="5.23" fill="#d14e5b" opacity=".8" stroke="#333" stroke-width=".7"/></g><g class="key-Ethiopia_0"><circle cx="136" cy="160" r="5" fill="#5675c1" opacity=".8" stroke="#333" stroke-width=".7"/></g><g class="key-Egypt_0"><circle cx="468" cy="209" r="4.92" fill="#5675c1" opacity=".8" stroke="#333" stroke-width=".7"/></g><g class="key-Democratic-Republic-of-Congo_0"><circle cx="103" cy="243" r="4.56" fill="#5675c1" opacity=".8" stroke="#fff" stroke-width=".7"/></g><g class="key-Tanzania_0"><circle cx="173" cy="305" r="3.91" fill="#5675c1" opacity=".8" stroke="#333" stroke-width=".7"/></g><g class="key-Myanmar_0"><circle cx="279" cy="178" r="3.91" fill="#d14e5b" opacity=".8" stroke="#333" stroke-width=".7"/></g><g class="key-Colombia_0"><circle cx="575" cy="151" r="3.88" fill="#69c487" opacity=".8" stroke="#333" stroke-width=".7"/></g><g class="key-Ukraine_0"><circle cx="367" cy="97" r="3.77" fill="#ffd336" opacity=".8" stroke="#333" stroke-width=".7"/></g><g class="key-Kenya_0"><circle cx="186" cy="186" r="3.74" fill="#5675c1" opacity=".8" stroke="#333" stroke-width=".7"/></g><g class="key-Uganda_0"><circle cx="140" cy="254" r="3.5" fill="#5675c1" opacity=".8" stroke="#333" stroke-width=".7"/></g><g class="key-Afghanistan_0"><circle cx="141" cy="323" r="3.42" fill="#d14e5b" opacity=".8" stroke="#333" stroke-width=".7"/></g><g class="key-Nepal_0"><circle cx="162" cy="255" r="3.31" fill="#d14e5b" opacity=".8" stroke="#fff" stroke-width=".7"/></g><g class="key-Peru_0"><circle cx="535" cy="160" r="3.25" fill="#69c487" opacity=".8" stroke="#333" stroke-width=".7"/></g><g class="key-Ghana_0"><circle cx="226" cy="180" r="3.1" fill="#5675c1" opacity=".8" stroke="#333" stroke-width=".7"/></g><g class="key-Mozambique_0"><circle cx="118" cy="248" r="3.06" fill="#5675c1" opacity=".8" stroke="#fff" stroke-width=".7"/></g><g class="key-Madagascar_0"><circle cx="128" cy="126" r="2.95" fill="#5675c1" opacity=".8" stroke="#333" stroke-width=".7"/></g><g class="key-Cote-d__0027Ivoire_0"><circle cx="206" cy="341" r="2.89" fill="#5675c1" opacity=".8" stroke="#333" stroke-width=".7"/></g><g class="key-Cameroon_0"><circle cx="191" cy="298" r="2.88" fill="#5675c1" opacity=".8" stroke="#fff" stroke-width=".7"/></g><g class="key-Angola_0"><circle cx="304" cy="148" r="2.88" fill="#5675c1" opacity=".8" stroke="#333" stroke-width=".7"/></g><g class="key-Burkina-Faso_0"><circle cx="135" cy="422" r="2.76" fill="#5675c1" opacity=".8" stroke="#333" stroke-width=".7"/></g><g class="key-Niger_0"><circle cx="109" cy="422" r="2.72" fill="#5675c1" opacity=".8" stroke="#fff" stroke-width=".7"/></g><g class="key-Mali_0"><circle cx="150" cy="431" r="2.7" fill="#5675c1" opacity=".8" stroke="#fff" stroke-width=".7"/></g><g class="key-Malawi_0"><circle cx="116" cy="263" r="2.68" fill="#5675c1" opacity=".8" stroke="#fff" stroke-width=".7"/></g><g class="key-Guatemala_0"><circle cx="356" cy="144" r="2.64" fill="#4d824b" opacity=".8" stroke="#333" stroke-width=".7"/></g><g class="key-Cambodia_0"><circle cx="207" cy="92" r="2.6" fill="#d14e5b" opacity=".8" stroke="#333" stroke-width=".7"/></g><g class="key-Zambia_0"><circle cx="213" cy="214" r="2.59" fill="#5675c1" opacity=".8" stroke="#333" stroke-width=".7"/></g><g class="key-Senegal_0"><circle cx="165" cy="428" r="2.54" fill="#5675c1" opacity=".8" stroke="#fff" stroke-width=".7"/></g><g class="key-Zimbabwe_0"><circle cx="146" cy="122" r="2.54" fill="#5675c1" opacity=".8" stroke="#fff" stroke-width=".7"/></g><g class="key-Chad_0"><circle cx="145" cy="333" r="2.48" fill="#5675c1" opacity=".8" stroke="#fff" stroke-width=".7"/></g><g class="key-Rwanda_0"><circle cx="142" cy="183" r="2.45" fill="#5675c1" opacity=".8" stroke="#333" stroke-width=".7"/></g><g class="key-Guinea_0"><circle cx="121" cy="299" r="2.41" fill="#5675c1" opacity=".8" stroke="#333" stroke-width=".7"/></g><g class="key-Bolivia_0"><circle cx="330" cy="137" r="2.39" fill="#69c487" opacity=".8" stroke="#fff" stroke-width=".7"/></g><g class="key-Haiti_0"><circle cx="138" cy="163" r="2.39" fill="#4d824b" opacity=".8" stroke="#fff" stroke-width=".7"/></g><g class="key-Dominican-Republic_0"><circle cx="612" cy="127" r="2.39" fill="#4d824b" opacity=".8" stroke="#333" stroke-width=".7"/></g><g class="key-Benin_0"><circle cx="151" cy="253" r="2.35" fill="#5675c1" opacity=".8" stroke="#fff" stroke-width=".7"/></g><g class="key-Azerbaijan_0"><circle cx="684" cy="276" r="2.35" fill="#d14e5b" opacity=".8" stroke="#333" stroke-width=".7"/></g><g class="key-Burundi_0"><circle cx="102" cy="254" r="2.31" fill="#5675c1" opacity=".8" stroke="#fff" stroke-width=".7"/></g><g class="key-Honduras_0"><circle cx="242" cy="181" r="2.27" fill="#4d824b" opacity=".8" stroke="#fff" stroke-width=".7"/></g><g class="key-Tajikistan_0"><circle cx="180" cy="266" r="2.22" fill="#d14e5b" opacity=".8" stroke="#333" stroke-width=".7"/></g><g class="key-Jordan_0"><circle cx="394" cy="165" r="2.18" fill="#d14e5b" opacity=".8" stroke="#333" stroke-width=".7"/></g><g class="key-Togo_0"><circle cx="127" cy="300" r="2.18" fill="#5675c1" opacity=".8" stroke="#fff" stroke-width=".7"/></g><g class="key-Sierra-Leone_0"><circle cx="127" cy="263" r="2.17" fill="#5675c1" opacity=".8" stroke="#fff" stroke-width=".7"/></g><g class="key-Kyrgyzstan_0"><circle cx="200" cy="135" r="2.12" fill="#d14e5b" opacity=".8" stroke="#333" stroke-width=".7"/></g><g class="key-Liberia_0"><circle cx="103" cy="142" r="2.06" fill="#5675c1" opacity=".8" stroke="#333" stroke-width=".7"/></g><g class="key-Congo_0"><circle cx="277" cy="243" r="2.05" fill="#5675c1" opacity=".8" stroke="#333" stroke-width=".7"/></g><g class="key-Albania_0"><circle cx="496" cy="213" r="1.99" fill="#ffd336" opacity=".8" stroke="#fff" stroke-width=".7"/></g><g class="key-Armenia_0"><circle cx="386" cy="124" r="1.98" fill="#d14e5b" opacity=".8" stroke="#fff" stroke-width=".7"/></g><g class="key-Namibia_0"><circle cx="449" cy="142" r="1.93" fill="#5675c1" opacity=".8" stroke="#fff" stroke-width=".7"/></g><g class="key-Lesotho_0"><circle cx="182" cy="113" r="1.92" fill="#5675c1" opacity=".8" stroke="#fff" stroke-width=".7"/></g><g class="key-Gambia_0"><circle cx="134" cy="292" r="1.9" fill="#5675c1" opacity=".8" stroke="#fff" stroke-width=".7"/></g><g class="key-Gabon_0"><circle cx="715" cy="184" r="1.88" fill="#5675c1" opacity=".8" stroke="#333" stroke-width=".7"/></g><g class="key-Swaziland_0"><circle cx="370" cy="237" r="1.86" fill="#5675c1" opacity=".8" stroke="#333" stroke-width=".7"/></g><g class="key-Comoros_0"><circle cx="129" cy="274" r="1.83" fill="#5675c1" opacity=".8" stroke="#333" stroke-width=".7"/></g><g class="key-Guyana_0"><circle cx="351" cy="120" r="1.83" fill="#69c487" opacity=".8" stroke="#fff" stroke-width=".7"/></g><g class="key-Maldives_0"><circle cx="541" cy="252" r="1.8" fill="#d14e5b" opacity=".8" stroke="#333" stroke-width=".7"/></g><g class="key-Sao-Tome-and-Principe_0"><circle cx="189" cy="257" r="1.79" fill="#5675c1" opacity=".8" stroke="#fff" stroke-width=".7"/></g><g class="key-Timor_0"><circle cx="156" cy="126" r="1.77" fill="#d14e5b" opacity=".8" stroke="#fff" stroke-width=".7"/></g><g class="key-Yemen_0"><circle cx="163" cy="287" r="1.77" fill="#d14e5b" opacity=".8" stroke="#333" stroke-width=".7"/></g><g fill="#333" class="backgroundLabels"><text x="307" y="255.16" font-size="14.3">India</text><text x="485" y="135.98" font-size="11.64">Indonesia</text><text x="260" y="293.04" font-size="11.47">Pakistan</text><text x="282" y="335.26" font-size="11.44">Nigeria</text><text x="201" y="228.57" font-size="11.4">Bangladesh</text><text x="351" y="122.77" font-size="11.25">Philippines</text><text x="136" y="154" font-size="11.23">Ethiopia</text><text x="468" y="203.08" font-size="11.22">Egypt</text><text x="173" y="300.09" font-size="11.13">Tanzania</text><text x="279" y="173.09" font-size="11.13">Myanmar</text><text x="575" y="146.12" font-size="11.12">Colombia</text><text x="367" y="103.22" font-size="11.12">Ukraine</text><text x="186" y="181.26" font-size="11.11">Kenya</text><text x="140" y="249.5" font-size="11.09">Uganda</text><text x="141" y="318.58" font-size="11.09">Afghanistan</text><text x="535" y="155.75" font-size="11.08">Peru</text><text x="226" y="175.9" font-size="11.07">Ghana</text><text x="128" y="122.05" font-size="11.06">Madagascar</text><text x="206" y="337.11" font-size="11.05">Cote d&apos;Ivoire</text><text x="304" y="144.12" font-size="11.05">Angola</text><text x="135" y="418.24" font-size="11.05">Burkina Faso</text><text x="356" y="140.36" font-size="11.04">Guatemala</text><text x="207" y="103.14" font-size="11.04">Cambodia</text><text x="213" y="210.41" font-size="11.04">Zambia</text><text x="142" y="179.55" font-size="11.03">Rwanda</text><text x="121" y="295.59" font-size="11.03">Guinea</text><text x="612" y="123.61" font-size="11.03">Dominican Republic</text><text x="631.74" y="272.65" font-size="11.02">Azerbaijan</text><text x="180" y="262.78" font-size="11.02">Tajikistan</text><text x="394" y="161.82" font-size="11.02">Jordan</text><text x="200" y="131.88" font-size="11.01">Kyrgyzstan</text><text x="103" y="138.94" font-size="11.01">Liberia</text><text x="277" y="239.95" font-size="11.01">Congo</text><text x="681.77" y="181.12" font-size="11">Gabon</text><text x="370" y="234.14" font-size="11">Swaziland</text><text x="129" y="271.17" font-size="11">Comoros</text><text x="541" y="249.2" font-size="11">Maldives</text><text x="163" y="284.23" font-size="11">Yemen</text></g></g><g class="ScatterColorLegend clickable" cursor="pointer"><g class="legendMark">,<path fill="#5675c1" d="M735 95.1h6v6h-6z"/>,<text font-size="12.6" x="746" y="102.2"><tspan x="746" y="102.18">Africa</tspan></text></g><g class="legendMark">,<path fill="#d14e5b" d="M735 112.7h6v6h-6z"/>,<text font-size="12.6" x="746" y="119.8"><tspan x="746" y="119.78">Asia</tspan></text></g><g class="legendMark">,<path fill="#ffd336" d="M735 130.3h6v6h-6z"/>,<text font-size="12.6" x="746" y="137.4"><tspan x="746" y="137.38">Europe</tspan></text></g><g class="legendMark">,<path fill="#4d824b" d="M735 147.9h6v6h-6z"/>,<text font-size="12.6" x="746" y="155"><tspan x="746" y="154.98">North America</tspan></text></g><g class="legendMark">,<path fill="#69c487" d="M735 165.5h6v6h-6z"/>,<text font-size="12.6" x="746" y="172.6"><tspan x="746" y="172.58">South America</tspan></text></g></g></g><g class="SourcesFooter" fill="#777"><g class="clickable" fill="#777"><text font-size="12.6" x="15" y="581.6"><tspan x="15" y="581.58">Source: World Bank, World Bank – WDI</tspan></text></g><text font-size="12.6" x="775.4" y="581.6"><tspan x="775.4" y="581.58"><a class="cclogo" href="http://creativecommons.org/licenses/by-sa/4.0/deed.en_US" target="_blank" fill="#777">CC BY-SA</a></tspan></text></g></g></svg>