<svg xmlns="http://www.w3.org/2000/svg" version="1.1" style="background-color:#fff;-webkit-font-smoothing:antialiased" width="850" height="600" font-family="'Helvetica Neue',Helvetica,Arial,sans-serif" font-size="18" text-rendering="optimizeLegibility"><g class="ChartTab"><g class="HeaderView"><g opacity=".8" transform="matrix(.27 0 0 .27 778 15)"><a xmlns:xlink="http://www.w3.org/1999/xlink" xlink:href="https://ourworldindata.org" target="_blank"><g><path fill="#1B2543" d="M0 0h211.2v130.1H0z"/><path fill="#E63912" d="M0 112.2h211.2v17.9H0z"/><g><path fill="none" d="M1.2 12.3h210.2v99.2H1.2z"/><path fill="#FFF" d="M37.8 32.2c0 12.7-7.7 19.4-17.1 19.4-9.7 0-16.6-7.5-16.6-18.7 0-11.7 7.3-19.3 17.1-19.3 10.1.1 16.6 7.7 16.6 18.6zm-28.6.6c0 7.9 4.3 14.9 11.8 14.9 7.5 0 11.8-6.9 11.8-15.3 0-7.3-3.8-14.9-11.8-14.9-7.9 0-11.8 7.3-11.8 15.3zM62.7 43.8c0 2.7.1 5.1.2 7.2h-4.3l-.3-4.3h-.1c-1.3 2.1-4 4.9-8.8 4.9-4.2 0-9.1-2.3-9.1-11.6V24.6h4.8v14.6c0 5 1.5 8.4 5.9 8.4 3.2 0 5.5-2.2 6.3-4.4.3-.7.4-1.6.4-2.5V24.6h4.8v19.2zM67.3 32.8c0-3.1-.1-5.8-.2-8.2h4.2l.2 5.2h.2c1.2-3.5 4.1-5.8 7.3-5.8.5 0 .9.1 1.4.2v4.5c-.5-.1-1-.2-1.6-.2-3.4 0-5.8 2.6-6.5 6.2-.1.7-.2 1.4-.2 2.2V51h-4.8V32.8zM95.4 51L86 14.2h5l4.4 18.6c1.1 4.6 2.1 9.2 2.7 12.7h.1c.6-3.7 1.8-8 3-12.8l4.9-18.5h5l4.5 18.7c1 4.4 2 8.7 2.6 12.6h.1c.8-4 1.8-8.1 3-12.7l4.9-18.5h4.9L120.6 51h-5L111 31.9c-1.1-4.7-1.9-8.3-2.4-12h-.1c-.7 3.7-1.5 7.3-2.8 12L100.4 51h-5zM154.9 37.6c0 9.8-6.8 14-13.2 14-7.2 0-12.7-5.2-12.7-13.6 0-8.8 5.8-14 13.1-14 7.7 0 12.8 5.5 12.8 13.6zm-21 .3c0 5.8 3.3 10.1 8 10.1 4.6 0 8-4.3 8-10.3 0-4.5-2.2-10.1-7.9-10.1s-8.1 5.2-8.1 10.3zM158.2 32.8c0-3.1-.1-5.8-.2-8.2h4.2l.2 5.2h.2c1.2-3.5 4.1-5.8 7.3-5.8.5 0 .9.1 1.4.2v4.5c-.5-.1-1-.2-1.6-.2-3.4 0-5.8 2.6-6.5 6.2-.1.7-.2 1.4-.2 2.2V51h-4.8V32.8zM173.5 12.3h4.8V51h-4.8V12.3zM206.5 12.3v31.9c0 2.3.1 5 .2 6.8h-4.3l-.2-4.6h-.2c-1.5 2.9-4.7 5.2-9 5.2-6.4 0-11.3-5.4-11.3-13.4-.1-8.8 5.4-14.2 11.9-14.2 4 0 6.8 1.9 8 4h.1V12.3h4.8zm-4.8 23.1c0-.6-.1-1.4-.2-2a7 7 0 00-6.9-5.6c-5 0-7.9 4.4-7.9 10.2 0 5.3 2.6 9.8 7.8 9.8 3.2 0 6.2-2.1 7.1-5.7.2-.7.2-1.3.2-2.1v-4.6zM42.8 64c.1 1.6-1.1 2.9-3.1 2.9-1.7 0-2.9-1.3-2.9-2.9 0-1.7 1.3-3 3-3 1.9 0 3 1.3 3 3zm-5.4 33.8V71.4h4.8v26.4h-4.8zM47.5 78.6c0-2.7-.1-5-.2-7.1h4.3l.3 4.4h.1c1.3-2.5 4.4-5 8.8-5 3.7 0 9.4 2.2 9.4 11.2v15.8h-4.8V82.6c0-4.3-1.6-7.8-6.1-7.8-3.2 0-5.6 2.2-6.5 4.9-.2.6-.3 1.4-.3 2.2v15.9h-4.8V78.6zM84 61.6c2.9-.4 6.3-.8 10.1-.8 6.8 0 11.7 1.6 14.9 4.6 3.3 3 5.2 7.3 5.2 13.2 0 6-1.9 10.9-5.3 14.3-3.4 3.4-9.1 5.3-16.3 5.3-3.4 0-6.2-.2-8.6-.4V61.6zm4.8 32.5c1.2.2 3 .3 4.8.3 10.2 0 15.7-5.7 15.7-15.6.1-8.7-4.9-14.2-14.9-14.2-2.5 0-4.3.2-5.6.5v29zM132.1 97.8l-.4-3.3h-.2a9.79 9.79 0 01-8.1 3.9c-5.4 0-8.1-3.8-8.1-7.6 0-6.4 5.7-9.9 15.9-9.8v-.5c0-2.2-.6-6.1-6-6.1-2.5 0-5 .8-6.9 2l-1.1-3.2c2.2-1.4 5.4-2.3 8.7-2.3 8.1 0 10.1 5.5 10.1 10.8v9.9c0 2.3.1 4.5.4 6.3h-4.3zm-.7-13.4c-5.3-.1-11.2.8-11.2 5.9 0 3.1 2.1 4.6 4.5 4.6 3.4 0 5.6-2.2 6.4-4.4.2-.5.3-1 .3-1.5v-4.6zM146.6 63.9v7.6h6.9v3.7h-6.9v14.2c0 3.3.9 5.1 3.6 5.1 1.3 0 2.2-.2 2.8-.3l.2 3.6c-.9.4-2.4.7-4.3.7-2.2 0-4-.7-5.2-2-1.4-1.4-1.9-3.8-1.9-6.9V75.1h-4.1v-3.7h4.1v-6.3l4.8-1.2zM171.4 97.8l-.4-3.3h-.2a9.79 9.79 0 01-8.1 3.9c-5.4 0-8.1-3.8-8.1-7.6 0-6.4 5.7-9.9 15.9-9.8v-.5c0-2.2-.6-6.1-6-6.1-2.5 0-5 .8-6.9 2l-1.1-3.2c2.2-1.4 5.4-2.3 8.7-2.3 8.1 0 10.1 5.5 10.1 10.8v9.9c0 2.3.1 4.5.4 6.3h-4.3zm-.7-13.4c-5.3-.1-11.2.8-11.2 5.9 0 3.1 2.1 4.6 4.5 4.6 3.4 0 5.6-2.2 6.4-4.4.2-.5.3-1 .3-1.5v-4.6z"/></g></g></a></g><a href="https://ourworldindata.org/grapher/per-capita-mismanaged-plastic-waste-vs-gdp-per-capita" target="_blank"><text font-size="25.2" x="15" y="35.2" fill="#555"><tspan x="15" y="35.16">Per capita mismanaged plastic waste vs. GDP per capita</tspan></text></a><text font-size="14.4" x="15" y="53.7" fill="#666"><tspan x="15" y="53.72">Daily per capita plastic waste which is mismanaged, measured in kilograms per person per day versus gross</tspan><tspan x="15" y="69.56">domestic product (GDP) per capita, measured in 2011 international-$. Mismanaged waste is that which is littered or</tspan><tspan x="15" y="85.4">inadequately managed. Inadequately managed waste is that which is not formally managed and includes disposal in</tspan><tspan x="15" y="101.24">dumps or uncontrolled/open landfills.</tspan></text></g><g><g class="AxisBoxView"><g class="HorizontalAxis"><text font-size="12.6" x="218.3" y="554"><tspan x="218.34" y="553.98">GDP per capita, PPP (constant 2011 international $)</tspan></text><text x="153.6" y="533.9" fill="#666" text-anchor="middle" font-size="16.2">$1,000</text><text x="421.3" y="533.9" fill="#666" text-anchor="middle" font-size="16.2">$10,000</text><text x="688.9" y="533.9" fill="#666" text-anchor="middle" font-size="16.2">$100,000</text></g><g class="VerticalAxis"><text font-size="12.6" x="-444.1" y="25.1" transform="rotate(-90)"><tspan x="-444.13" y="25.08">Per capita mismanaged plastic waste</tspan></text><text x="91.06" y="512.7" fill="#666" dominant-baseline="middle" text-anchor="end" font-size="16.2">0 kg</text><text x="91.06" y="447.5" fill="#666" dominant-baseline="middle" text-anchor="end" font-size="16.2">0.05 kg</text><text x="91.06" y="382.4" fill="#666" dominant-baseline="middle" text-anchor="end" font-size="16.2">0.1 kg</text><text x="91.06" y="317.2" fill="#666" dominant-baseline="middle" text-anchor="end" font-size="16.2">0.15 kg</text><text x="91.06" y="252.1" fill="#666" dominant-baseline="middle" text-anchor="end" font-size="16.2">0.2 kg</text><text x="91.06" y="186.9" fill="#666" dominant-baseline="middle" text-anchor="end" font-size="16.2">0.25 kg</text></g><g class="AxisGridLines"><path stroke="#ccc" d="M96.06 512.7H715"/><path stroke="#ddd" stroke-dasharray="3,2" d="M96.06 447.5H715M96.06 382.4H715M96.06 317.2H715M96.06 252.1H715M96.06 186.9H715"/></g><g class="AxisGridLines" stroke="#ddd" stroke-dasharray="3,2"><path d="M153.6 512.7V123.1M421.3 512.7V123.1M688.9 512.7V123.1"/></g></g><g clip-path="url(#a)" font-family="Arial Narrow, Arial, sans-serif" class="PointsWithLabels clickable"><path fill="rgba(255,255,255,0)" d="M96.06 123.1H715v389.6H96.06z"/><defs><clipPath id="a"><path d="M86.06 113.1H725v409.6H86.06z"/></clipPath></defs><g class="key-China_0"><circle cx="415" cy="392" r="17.84" fill="#d14e5b" opacity=".8" stroke="#333" stroke-width=".7"/></g><g class="key-India_0"><circle cx="326" cy="501" r="17.06" fill="#d14e5b" opacity=".8" stroke="#333" stroke-width=".7"/></g><g class="key-United-States_0"><circle cx="606" cy="503" r="8.72" fill="#4d824b" opacity=".8" stroke="#333" stroke-width=".7"/></g><g class="key-Indonesia_0"><circle cx="401" cy="451" r="7.72" fill="#d14e5b" opacity=".8" stroke="#333" stroke-width=".7"/></g><g class="key-Brazil_0"><circle cx="464" cy="490" r="7" fill="#69c487" opacity=".8" stroke="#333" stroke-width=".7"/></g><g class="key-Pakistan_0"><circle cx="322" cy="395" r="6.63" fill="#d14e5b" opacity=".8" stroke="#333" stroke-width=".7"/></g><g class="key-Nigeria_0"><circle cx="344" cy="401" r="6.36" fill="#5675c1" opacity=".8" stroke="#fff" stroke-width=".7"/></g><g class="key-Bangladesh_0"><circle cx="257" cy="473" r="6.17" fill="#d14e5b" opacity=".8" stroke="#333" stroke-width=".7"/></g><g class="key-Russia_0"><circle cx="518" cy="486" r="6.06" fill="#ffd336" opacity=".8" stroke="#333" stroke-width=".7"/></g><g class="key-Japan_0"><circle cx="569" cy="508" r="5.74" fill="#d14e5b" opacity=".8" stroke="#333" stroke-width=".7"/></g><g class="key-Mexico_0"><circle cx="472" cy="497" r="5.46" fill="#4d824b" opacity=".8" stroke="#fff" stroke-width=".7"/></g><g class="key-Philippines_0"><circle cx="353" cy="431" r="5.01" fill="#d14e5b" opacity=".8" stroke="#333" stroke-width=".7"/></g><g class="key-Vietnam_0"><circle cx="328" cy="395" r="4.88" fill="#d14e5b" opacity=".8" stroke="#fff" stroke-width=".7"/></g><g class="key-Germany_0"><circle cx="583" cy="499" r="4.75" fill="#ffd336" opacity=".8" stroke="#fff" stroke-width=".7"/></g><g class="key-Egypt_0"><circle cx="419" cy="353" r="4.72" fill="#5675c1" opacity=".8" stroke="#333" stroke-width=".7"/></g><g class="key-Iran_0"><circle cx="486" cy="416" r="4.53" fill="#d14e5b" opacity=".8" stroke="#333" stroke-width=".7"/></g><g class="key-Turkey_0"><circle cx="489" cy="461" r="4.5" fill="#d14e5b" opacity=".8" stroke="#333" stroke-width=".7"/></g><g class="key-Thailand_0"><circle cx="456" cy="372" r="4.41" fill="#d14e5b" opacity=".8" stroke="#333" stroke-width=".7"/></g><g class="key-Democratic-Republic-of-Congo_0"><circle cx="96" cy="461" r="4.32" fill="#5675c1" opacity=".8" stroke="#333" stroke-width=".7"/></g><g class="key-France_0"><circle cx="573" cy="507" r="4.23" fill="#ffd336" opacity=".8" stroke="#fff" stroke-width=".7"/></g><g class="key-United-Kingdom_0"><circle cx="570" cy="507" r="4.21" fill="#ffd336" opacity=".8" stroke="#fff" stroke-width=".7"/></g><g class="key-Italy_0"><circle cx="570" cy="508" r="4.17" fill="#ffd336" opacity=".8" stroke="#fff" stroke-width=".7"/></g><g class="key-South-Africa_0"><circle cx="442" cy="338" r="3.87" fill="#5675c1" opacity=".8" stroke="#333" stroke-width=".7"/></g><g class="key-South-Korea_0"><circle cx="550" cy="511" r="3.81" fill="#d14e5b" opacity=".8" stroke="#fff" stroke-width=".7"/></g><g class="key-Myanmar_0"><circle cx="306" cy="426" r="3.8" fill="#d14e5b" opacity=".8" stroke="#333" stroke-width=".7"/></g><g class="key-Colombia_0"><circle cx="431" cy="468" r="3.75" fill="#69c487" opacity=".8" stroke="#333" stroke-width=".7"/></g><g class="key-Spain_0"><circle cx="558" cy="504" r="3.74" fill="#ffd336" opacity=".8" stroke="#fff" stroke-width=".7"/></g><g class="key-Ukraine_0"><circle cx="392" cy="444" r="3.72" fill="#ffd336" opacity=".8" stroke="#fff" stroke-width=".7"/></g><g class="key-Tanzania_0"><circle cx="239" cy="486" r="3.7" fill="#5675c1" opacity=".8" stroke="#333" stroke-width=".7"/></g><g class="key-Kenya_0"><circle cx="259" cy="482" r="3.56" fill="#5675c1" opacity=".8" stroke="#fff" stroke-width=".7"/></g><g class="key-Argentina_0"><circle cx="494" cy="478" r="3.56" fill="#69c487" opacity=".8" stroke="#fff" stroke-width=".7"/></g><g class="key-Poland_0"><circle cx="511" cy="495" r="3.49" fill="#ffd336" opacity=".8" stroke="#333" stroke-width=".7"/></g><g class="key-Algeria_0"><circle cx="450" cy="400" r="3.39" fill="#5675c1" opacity=".8" stroke="#333" stroke-width=".7"/></g><g class="key-Sudan_0"><circle cx="294" cy="404" r="3.35" fill="#5675c1" opacity=".8" stroke="#333" stroke-width=".7"/></g><g class="key-Canada_0"><circle cx="584" cy="510" r="3.34" fill="#4d824b" opacity=".8" stroke="#fff" stroke-width=".7"/></g><g class="key-Morocco_0"><circle cx="370" cy="448" r="3.27" fill="#5675c1" opacity=".8" stroke="#fff" stroke-width=".7"/></g><g class="key-Iraq_0"><circle cx="449" cy="425" r="3.26" fill="#d14e5b" opacity=".8" stroke="#333" stroke-width=".7"/></g><g class="key-Peru_0"><circle cx="420" cy="461" r="3.16" fill="#69c487" opacity=".8" stroke="#fff" stroke-width=".7"/></g><g class="key-Venezuela_0"><circle cx="479" cy="490" r="3.16" fill="#69c487" opacity=".8" stroke="#fff" stroke-width=".7"/></g><g class="key-Malaysia_0"><circle cx="508" cy="366" r="3.14" fill="#d14e5b" opacity=".8" stroke="#333" stroke-width=".7"/></g><g class="key-Saudi-Arabia_0"><circle cx="597" cy="491" r="3.1" fill="#d14e5b" opacity=".8" stroke="#fff" stroke-width=".7"/></g><g class="key-Ghana_0"><circle cx="283" cy="471" r="2.99" fill="#5675c1" opacity=".8" stroke="#fff" stroke-width=".7"/></g><g class="key-Mozambique_0"><circle cx="143" cy="495" r="2.95" fill="#5675c1" opacity=".8" stroke="#333" stroke-width=".7"/></g><g class="key-Australia_0"><circle cx="586" cy="510" r="2.9" fill="#a652ba" opacity=".8" stroke="#fff" stroke-width=".7"/></g><g class="key-Romania_0"><circle cx="488" cy="498" r="2.87" fill="#ffd336" opacity=".8" stroke="#fff" stroke-width=".7"/></g><g class="key-Sri-Lanka_0"><circle cx="403" cy="123" r="2.84" fill="#d14e5b" opacity=".8" stroke="#333" stroke-width=".7"/></g><g class="key-Madagascar_0"><circle cx="191" cy="495" r="2.84" fill="#5675c1" opacity=".8" stroke="#fff" stroke-width=".7"/></g><g class="key-Cote-d__0027Ivoire_0"><circle cx="268" cy="400" r="2.8" fill="#5675c1" opacity=".8" stroke="#fff" stroke-width=".7"/></g><g class="key-Cameroon_0"><circle cx="267" cy="463" r="2.79" fill="#5675c1" opacity=".8" stroke="#fff" stroke-width=".7"/></g><g class="key-Angola_0"><circle cx="359" cy="454" r="2.77" fill="#5675c1" opacity=".8" stroke="#333" stroke-width=".7"/></g><g class="key-Chile_0"><circle cx="498" cy="498" r="2.68" fill="#69c487" opacity=".8" stroke="#fff" stroke-width=".7"/></g><g class="key-Netherlands_0"><circle cx="597" cy="502" r="2.66" fill="#ffd336" opacity=".8" stroke="#fff" stroke-width=".7"/></g><g class="key-Ecuador_0"><circle cx="413" cy="451" r="2.56" fill="#69c487" opacity=".8" stroke="#fff" stroke-width=".7"/></g><g class="key-Guatemala_0"><circle cx="375" cy="375" r="2.56" fill="#4d824b" opacity=".8" stroke="#fff" stroke-width=".7"/></g><g class="key-Cambodia_0"><circle cx="261" cy="437" r="2.55" fill="#d14e5b" opacity=".8" stroke="#333" stroke-width=".7"/></g><g class="key-Senegal_0"><circle cx="244" cy="400" r="2.47" fill="#5675c1" opacity=".8" stroke="#333" stroke-width=".7"/></g><g class="key-Greece_0"><circle cx="543" cy="507" r="2.42" fill="#ffd336" opacity=".8" stroke="#fff" stroke-width=".7"/></g><g class="key-Belgium_0"><circle cx="585" cy="510" r="2.39" fill="#ffd336" opacity=".8" stroke="#fff" stroke-width=".7"/></g><g class="key-Portugal_0"><circle cx="537" cy="506" r="2.39" fill="#ffd336" opacity=".8" stroke="#fff" stroke-width=".7"/></g><g class="key-Tunisia_0"><circle cx="426" cy="398" r="2.38" fill="#5675c1" opacity=".8" stroke="#fff" stroke-width=".7"/></g><g class="key-Haiti_0"><circle cx="200" cy="455" r="2.35" fill="#4d824b" opacity=".8" stroke="#fff" stroke-width=".7"/></g><g class="key-Guinea_0"><circle cx="174" cy="480" r="2.35" fill="#5675c1" opacity=".8" stroke="#333" stroke-width=".7"/></g><g class="key-Dominican-Republic_0"><circle cx="433" cy="461" r="2.35" fill="#4d824b" opacity=".8" stroke="#fff" stroke-width=".7"/></g><g class="key-Sweden_0"><circle cx="590" cy="511" r="2.32" fill="#ffd336" opacity=".8" stroke="#fff" stroke-width=".7"/></g><g class="key-Benin_0"><circle cx="223" cy="465" r="2.29" fill="#5675c1" opacity=".8" stroke="#fff" stroke-width=".7"/></g><g class="key-Honduras_0"><circle cx="313" cy="409" r="2.23" fill="#4d824b" opacity=".8" stroke="#fff" stroke-width=".7"/></g><g class="key-United-Arab-Emirates_0"><circle cx="624" cy="507" r="2.22" fill="#d14e5b" opacity=".8" stroke="#fff" stroke-width=".7"/></g><g class="key-Bulgaria_0"><circle cx="470" cy="446" r="2.22" fill="#ffd336" opacity=".8" stroke="#333" stroke-width=".7"/></g><g class="key-Israel_0"><circle cx="547" cy="502" r="2.22" fill="#d14e5b" opacity=".8" stroke="#fff" stroke-width=".7"/></g><g class="key-Hong-Kong_0"><circle cx="603" cy="499" r="2.2" fill="#d14e5b" opacity=".8" stroke="#fff" stroke-width=".7"/></g><g class="key-Papua-New-Guinea_0"><circle cx="239" cy="395" r="2.19" fill="#a652ba" opacity=".8" stroke="#fff" stroke-width=".7"/></g><g class="key-Libya_0"><circle cx="547" cy="465" r="2.16" fill="#5675c1" opacity=".8" stroke="#333" stroke-width=".7"/></g><g class="key-El-Salvador_0"><circle cx="384" cy="446" r="2.15" fill="#4d824b" opacity=".8" stroke="#fff" stroke-width=".7"/></g><g class="key-Jordan_0"><circle cx="415" cy="400" r="2.15" fill="#d14e5b" opacity=".8" stroke="#333" stroke-width=".7"/></g><g class="key-Togo_0"><circle cx="175" cy="448" r="2.14" fill="#5675c1" opacity=".8" stroke="#fff" stroke-width=".7"/></g><g class="key-Sierra-Leone_0"><circle cx="176" cy="467" r="2.14" fill="#5675c1" opacity=".8" stroke="#fff" stroke-width=".7"/></g><g class="key-Nicaragua_0"><circle cx="315" cy="426" r="2.13" fill="#4d824b" opacity=".8" stroke="#fff" stroke-width=".7"/></g><g class="key-Denmark_0"><circle cx="593" cy="511" r="2.12" fill="#ffd336" opacity=".8" stroke="#fff" stroke-width=".7"/></g><g class="key-Finland_0"><circle cx="582" cy="506" r="2.11" fill="#ffd336" opacity=".8" stroke="#fff" stroke-width=".7"/></g><g class="key-Eritrea_0"><circle cx="194" cy="467" r="2.1" fill="#5675c1" opacity=".8" stroke="#fff" stroke-width=".7"/></g><g class="key-Singapore_0"><circle cx="650" cy="507" r="2.09" fill="#d14e5b" opacity=".8" stroke="#fff" stroke-width=".7"/></g><g class="key-Norway_0"><circle cx="633" cy="504" r="2.08" fill="#ffd336" opacity=".8" stroke="#fff" stroke-width=".7"/></g><g class="key-Costa-Rica_0"><circle cx="451" cy="451" r="2.07" fill="#4d824b" opacity=".8" stroke="#fff" stroke-width=".7"/></g><g class="key-Ireland_0"><circle cx="597" cy="501" r="2.06" fill="#ffd336" opacity=".8" stroke="#fff" stroke-width=".7"/></g><g class="key-Croatia_0"><circle cx="502" cy="476" r="2.05" fill="#ffd336" opacity=".8" stroke="#fff" stroke-width=".7"/></g><g class="key-New-Zealand_0"><circle cx="557" cy="503" r="2.05" fill="#a652ba" opacity=".8" stroke="#fff" stroke-width=".7"/></g><g class="key-Georgia_0"><circle cx="375" cy="467" r="2.05" fill="#d14e5b" opacity=".8" stroke="#333" stroke-width=".7"/></g><g class="key-Lebanon_0"><circle cx="477" cy="468" r="2.04" fill="#d14e5b" opacity=".8" stroke="#fff" stroke-width=".7"/></g><g class="key-Congo_0"><circle cx="345" cy="442" r="2.03" fill="#5675c1" opacity=".8" stroke="#333" stroke-width=".7"/></g><g class="key-Liberia_0"><circle cx="112" cy="418" r="2.03" fill="#5675c1" opacity=".8" stroke="#333" stroke-width=".7"/></g><g class="key-Bosnia-and-Herzegovina_0"><circle cx="417" cy="433" r="2.02" fill="#ffd336" opacity=".8" stroke="#fff" stroke-width=".7"/></g><g class="key-Puerto-Rico_0"><circle cx="565" cy="498" r="2.02" fill="#4d824b" opacity=".8" stroke="#fff" stroke-width=".7"/></g><g class="key-Panama_0"><circle cx="471" cy="474" r="2" fill="#4d824b" opacity=".8" stroke="#fff" stroke-width=".7"/></g><g class="key-Mauritania_0"><circle cx="293" cy="463" r="2" fill="#5675c1" opacity=".8" stroke="#fff" stroke-width=".7"/></g><g class="key-Uruguay_0"><circle cx="483" cy="481" r="1.99" fill="#69c487" opacity=".8" stroke="#fff" stroke-width=".7"/></g><g class="key-Lithuania_0"><circle cx="507" cy="485" r="1.99" fill="#ffd336" opacity=".8" stroke="#fff" stroke-width=".7"/></g><g class="key-Albania_0"><circle cx="420" cy="471" r="1.98" fill="#ffd336" opacity=".8" stroke="#fff" stroke-width=".7"/></g><g class="key-Oman_0"><circle cx="597" cy="506" r="1.96" fill="#d14e5b" opacity=".8" stroke="#fff" stroke-width=".7"/></g><g class="key-Jamaica_0"><circle cx="395" cy="499" r="1.96" fill="#4d824b" opacity=".8" stroke="#333" stroke-width=".7"/></g><g class="key-Kuwait_0"><circle cx="655" cy="494" r="1.96" fill="#d14e5b" opacity=".8" stroke="#fff" stroke-width=".7"/></g><g class="key-Namibia_0"><circle cx="401" cy="386" r="1.93" fill="#5675c1" opacity=".8" stroke="#fff" stroke-width=".7"/></g><g class="key-Latvia_0"><circle cx="491" cy="486" r="1.93" fill="#ffd336" opacity=".8" stroke="#fff" stroke-width=".7"/></g><g class="key-Slovenia_0"><circle cx="543" cy="506" r="1.91" fill="#ffd336" opacity=".8" stroke="#fff" stroke-width=".7"/></g><g class="key-Qatar_0"><circle cx="715" cy="508" r="1.9" fill="#d14e5b" opacity=".8" stroke="#333" stroke-width=".7"/></g><g class="key-Gambia_0"><circle cx="212" cy="459" r="1.89" fill="#5675c1" opacity=".8" stroke="#fff" stroke-width=".7"/></g><g class="key-Guinea__002dBissau_0"><circle cx="192" cy="452" r="1.88" fill="#5675c1" opacity=".8" stroke="#fff" stroke-width=".7"/></g><g class="key-Gabon_0"><circle cx="471" cy="487" r="1.88" fill="#5675c1" opacity=".8" stroke="#fff" stroke-width=".7"/></g><g class="key-Trinidad-and-Tobago_0"><circle cx="553" cy="265" r="1.87" fill="#4d824b" opacity=".8" stroke="#333" stroke-width=".7"/></g><g class="key-Estonia_0"><circle cx="516" cy="487" r="1.87" fill="#ffd336" opacity=".8" stroke="#fff" stroke-width=".7"/></g><g class="key-Mauritius_0"><circle cx="475" cy="353" r="1.87" fill="#5675c1" opacity=".8" stroke="#333" stroke-width=".7"/></g><g class="key-Bahrain_0"><circle cx="585" cy="491" r="1.86" fill="#d14e5b" opacity=".8" stroke="#fff" stroke-width=".7"/></g><g class="key-Cyprus_0"><circle cx="563" cy="504" r="1.85" fill="#ffd336" opacity=".8" stroke="#fff" stroke-width=".7"/></g><g class="key-Djibouti_0"><circle cx="266" cy="413" r="1.84" fill="#5675c1" opacity=".8" stroke="#fff" stroke-width=".7"/></g><g class="key-Fiji_0"><circle cx="385" cy="315" r="1.84" fill="#a652ba" opacity=".8" stroke="#333" stroke-width=".7"/></g><g class="key-Guyana_0"><circle cx="358" cy="220" r="1.83" fill="#69c487" opacity=".8" stroke="#333" stroke-width=".7"/></g><g class="key-Comoros_0"><circle cx="193" cy="292" r="1.83" fill="#5675c1" opacity=".8" stroke="#333" stroke-width=".7"/></g><g class="key-Equatorial-Guinea_0"><circle cx="562" cy="451" r="1.83" fill="#5675c1" opacity=".8" stroke="#333" stroke-width=".7"/></g><g class="key-Montenegro_0"><circle cx="460" cy="452" r="1.82" fill="#ffd336" opacity=".8" stroke="#fff" stroke-width=".7"/></g><g class="key-Macao_0"><circle cx="686" cy="503" r="1.82" fill="#d14e5b" opacity=".8" stroke="#fff" stroke-width=".7"/></g><g class="key-Solomon-Islands_0"><circle cx="220" cy="395" r="1.82" fill="#a652ba" opacity=".8" stroke="#fff" stroke-width=".7"/></g><g class="key-Suriname_0"><circle cx="462" cy="477" r="1.82" fill="#69c487" opacity=".8" stroke="#fff" stroke-width=".7"/></g><g class="key-Cape-Verde_0"><circle cx="358" cy="448" r="1.82" fill="#5675c1" opacity=".8" stroke="#fff" stroke-width=".7"/></g><g class="key-Malta_0"><circle cx="542" cy="489" r="1.81" fill="#ffd336" opacity=".8" stroke="#fff" stroke-width=".7"/></g><g class="key-Brunei_0"><circle cx="663" cy="511" r="1.81" fill="#d14e5b" opacity=".8" stroke="#fff" stroke-width=".7"/></g><g class="key-Bahamas_0"><circle cx="517" cy="498" r="1.81" fill="#4d824b" opacity=".8" stroke="#fff" stroke-width=".7"/></g><g class="key-Iceland_0"><circle cx="578" cy="504" r="1.8" fill="#ffd336" opacity=".8" stroke="#fff" stroke-width=".7"/></g><g class="key-Maldives_0"><circle cx="427" cy="226" r="1.8" fill="#d14e5b" opacity=".8" stroke="#333" stroke-width=".7"/></g><g class="key-Belize_0"><circle cx="393" cy="443" r="1.8" fill="#4d824b" opacity=".8" stroke="#fff" stroke-width=".7"/></g><g class="key-Barbados_0"><circle cx="471" cy="468" r="1.8" fill="#4d824b" opacity=".8" stroke="#fff" stroke-width=".7"/></g><g class="key-Vanuatu_0"><circle cx="279" cy="193" r="1.8" fill="#a652ba" opacity=".8" stroke="#333" stroke-width=".7"/></g><g class="key-Samoa_0"><circle cx="349" cy="403" r="1.8" fill="#a652ba" opacity=".8" stroke="#333" stroke-width=".7"/></g><g class="key-Saint-Lucia_0"><circle cx="430" cy="365" r="1.79" fill="#4d824b" opacity=".8" stroke="#fff" stroke-width=".7"/></g><g class="key-Sao-Tome-and-Principe_0"><circle cx="266" cy="401" r="1.79" fill="#5675c1" opacity=".8" stroke="#fff" stroke-width=".7"/></g><g class="key-Saint-Vincent-and-the-Grenadines_0"><circle cx="420" cy="446" r="1.79" fill="#4d824b" opacity=".8" stroke="#fff" stroke-width=".7"/></g><g class="key-Grenada_0"><circle cx="434" cy="429" r="1.79" fill="#4d824b" opacity=".8" stroke="#fff" stroke-width=".7"/></g><g class="key-Tonga_0"><circle cx="340" cy="283" r="1.79" fill="#a652ba" opacity=".8" stroke="#333" stroke-width=".7"/></g><g class="key-Kiribati_0"><circle cx="217" cy="398" r="1.79" fill="#a652ba" opacity=".8" stroke="#fff" stroke-width=".7"/></g><g class="key-Antigua-and-Barbuda_0"><circle cx="496" cy="446" r="1.79" fill="#4d824b" opacity=".8" stroke="#fff" stroke-width=".7"/></g><g class="key-Seychelles_0"><circle cx="504" cy="331" r="1.79" fill="#5675c1" opacity=".8" stroke="#333" stroke-width=".7"/></g><g class="key-Dominica_0"><circle cx="423" cy="472" r="1.79" fill="#4d824b" opacity=".8" stroke="#fff" stroke-width=".7"/></g><g class="key-Bermuda_0"><circle cx="622" cy="506" r="1.79" fill="#4d824b" opacity=".8" stroke="#fff" stroke-width=".7"/></g><g class="key-Marshall-Islands_0"><circle cx="297" cy="317" r="1.79" fill="#a652ba" opacity=".8" stroke="#333" stroke-width=".7"/></g><g class="key-Saint-Kitts-and-Nevis_0"><circle cx="509" cy="442" r="1.79" fill="#4d824b" opacity=".8" stroke="#fff" stroke-width=".7"/></g><g class="key-Palau_0"><circle cx="446" cy="403" r="1.78" fill="#a652ba" opacity=".8" stroke="#fff" stroke-width=".7"/></g><g class="key-Nauru_0"><circle cx="372" cy="383" r="1.78" fill="#a652ba" opacity=".8" stroke="#333" stroke-width=".7"/></g><g class="key-Tuvalu_0"><circle cx="281" cy="372" r="1.78" fill="#a652ba" opacity=".8" stroke="#333" stroke-width=".7"/></g><g class="key-Micronesia-__0028country__0029_0"><circle cx="293" cy="401" r="1.78" fill="#a652ba" opacity=".8" stroke="#fff" stroke-width=".7"/></g><g class="key-Palestine_0"><circle cx="257" cy="506" r="1.78" fill="#d14e5b" opacity=".8" stroke="#333" stroke-width=".7"/></g><g class="key-Yemen_0"><circle cx="327" cy="412" r="1.78" fill="#d14e5b" opacity=".8" stroke="#fff" stroke-width=".7"/></g><g fill="#333" class="backgroundLabels"><text x="415" y="373.16" font-size="14.3">China</text><text x="326" y="482.94" font-size="14.01">India</text><text x="606" y="493.28" font-size="11.76">United States</text><text x="401" y="442.28" font-size="11.59">Indonesia</text><text x="464" y="482" font-size="11.48">Brazil</text><text x="322" y="387.37" font-size="11.43">Pakistan</text><text x="257" y="465.83" font-size="11.37">Bangladesh</text><text x="518" y="478.94" font-size="11.35">Russia</text><text x="569" y="501.26" font-size="11.31">Japan</text><text x="353" y="424.99" font-size="11.23">Philippines</text><text x="419" y="347.28" font-size="11.2">Egypt</text><text x="486" y="410.47" font-size="11.18">Iran</text><text x="489" y="455.5" font-size="11.18">Turkey</text><text x="456" y="366.59" font-size="11.17">Thailand</text><text x="96" y="455.68" font-size="11.16">Democratic Republic of Congo</text><text x="442" y="333.13" font-size="11.12">South Africa</text><text x="306" y="421.2" font-size="11.12">Myanmar</text><text x="431" y="463.25" font-size="11.11">Colombia</text><text x="239" y="481.3" font-size="11.11">Tanzania</text><text x="511" y="490.51" font-size="11.09">Poland</text><text x="450" y="395.61" font-size="11.09">Algeria</text><text x="294" y="399.65" font-size="11.08">Sudan</text><text x="449" y="420.74" font-size="11.08">Iraq</text><text x="508" y="361.86" font-size="11.07">Malaysia</text><text x="143" y="491.05" font-size="11.06">Mozambique</text><text x="403" y="134.15" font-size="11.05">Sri Lanka</text><text x="359" y="450.23" font-size="11.05">Angola</text><text x="261" y="433.45" font-size="11.03">Cambodia</text><text x="244" y="396.53" font-size="11.03">Senegal</text><text x="174" y="476.65" font-size="11.02">Guinea</text><text x="470" y="442.78" font-size="11.02">Bulgaria</text><text x="547" y="461.84" font-size="11.02">Libya</text><text x="415" y="396.85" font-size="11.02">Jordan</text><text x="375" y="463.95" font-size="11.01">Georgia</text><text x="345" y="438.97" font-size="11.01">Congo</text><text x="112" y="414.97" font-size="11.01">Liberia</text><text x="395" y="496.04" font-size="11.01">Jamaica</text><text x="687.38" y="505.1" font-size="11">Qatar</text><text x="553" y="262.13" font-size="11">Trinidad and Tobago</text><text x="475" y="350.13" font-size="11">Mauritius</text><text x="385" y="312.16" font-size="11">Fiji</text><text x="358" y="217.17" font-size="11">Guyana</text><text x="193" y="289.17" font-size="11">Comoros</text><text x="562" y="448.17" font-size="11">Equatorial Guinea</text><text x="427" y="223.2" font-size="11">Maldives</text><text x="279" y="190.2" font-size="11">Vanuatu</text><text x="349" y="400.2" font-size="11">Samoa</text><text x="340" y="280.21" font-size="11">Tonga</text><text x="504" y="328.21" font-size="11">Seychelles</text><text x="297" y="314.21" font-size="11">Marshall Islands</text><text x="372" y="380.22" font-size="11">Nauru</text><text x="281" y="369.22" font-size="11">Tuvalu</text><text x="257" y="503.22" font-size="11">Palestine</text></g></g><g class="ScatterColorLegend clickable" cursor="pointer"><g class="legendMark">,<path fill="#5675c1" d="M735 126.1h6v6h-6z"/>,<text font-size="12.6" x="746" y="133.2"><tspan x="746" y="133.18">Africa</tspan></text></g><g class="legendMark">,<path fill="#d14e5b" d="M735 143.7h6v6h-6z"/>,<text font-size="12.6" x="746" y="150.8"><tspan x="746" y="150.78">Asia</tspan></text></g><g class="legendMark">,<path fill="#ffd336" d="M735 161.3h6v6h-6z"/>,<text font-size="12.6" x="746" y="168.4"><tspan x="746" y="168.38">Europe</tspan></text></g><g class="legendMark">,<path fill="#4d824b" d="M735 178.9h6v6h-6z"/>,<text font-size="12.6" x="746" y="186"><tspan x="746" y="185.98">North America</tspan></text></g><g class="legendMark">,<path fill="#a652ba" d="M735 196.5h6v6h-6z"/>,<text font-size="12.6" x="746" y="203.6"><tspan x="746" y="203.58">Oceania</tspan></text></g><g class="legendMark">,<path fill="#69c487" d="M735 214.1h6v6h-6z"/>,<text font-size="12.6" x="746" y="221.2"><tspan x="746" y="221.18">South America</tspan></text></g></g></g><g class="SourcesFooter" fill="#777"><g class="clickable" fill="#777"><text font-size="12.6" x="15" y="581.6"><tspan x="15" y="581.58">Source: Plastic Waste - Jambeck et al. (2015), World Bank – WDI</tspan></text></g><text font-size="12.6" x="775.4" y="581.6"><tspan x="775.4" y="581.58"><a class="cclogo" href="http://creativecommons.org/licenses/by-sa/4.0/deed.en_US" target="_blank" fill="#777">CC BY-SA</a></tspan></text></g></g></svg>