<svg xmlns="http://www.w3.org/2000/svg" version="1.1" style="background-color:#fff;-webkit-font-smoothing:antialiased" width="850" height="600" font-family="'Helvetica Neue',Helvetica,Arial,sans-serif" font-size="18" text-rendering="optimizeLegibility"><g class="ChartTab"><g class="HeaderView"><g opacity=".8" transform="matrix(.27 0 0 .27 778 15)"><a xmlns:xlink="http://www.w3.org/1999/xlink" xlink:href="https://ourworldindata.org" target="_blank"><g><path fill="#1B2543" d="M0 0h211.2v130.1H0z"/><path fill="#E63912" d="M0 112.2h211.2v17.9H0z"/><g><path fill="none" d="M1.2 12.3h210.2v99.2H1.2z"/><path fill="#FFF" d="M37.8 32.2c0 12.7-7.7 19.4-17.1 19.4-9.7 0-16.6-7.5-16.6-18.7 0-11.7 7.3-19.3 17.1-19.3 10.1.1 16.6 7.7 16.6 18.6zm-28.6.6c0 7.9 4.3 14.9 11.8 14.9 7.5 0 11.8-6.9 11.8-15.3 0-7.3-3.8-14.9-11.8-14.9-7.9 0-11.8 7.3-11.8 15.3zM62.7 43.8c0 2.7.1 5.1.2 7.2h-4.3l-.3-4.3h-.1c-1.3 2.1-4 4.9-8.8 4.9-4.2 0-9.1-2.3-9.1-11.6V24.6h4.8v14.6c0 5 1.5 8.4 5.9 8.4 3.2 0 5.5-2.2 6.3-4.4.3-.7.4-1.6.4-2.5V24.6h4.8v19.2zM67.3 32.8c0-3.1-.1-5.8-.2-8.2h4.2l.2 5.2h.2c1.2-3.5 4.1-5.8 7.3-5.8.5 0 .9.1 1.4.2v4.5c-.5-.1-1-.2-1.6-.2-3.4 0-5.8 2.6-6.5 6.2-.1.7-.2 1.4-.2 2.2V51h-4.8V32.8zM95.4 51L86 14.2h5l4.4 18.6c1.1 4.6 2.1 9.2 2.7 12.7h.1c.6-3.7 1.8-8 3-12.8l4.9-18.5h5l4.5 18.7c1 4.4 2 8.7 2.6 12.6h.1c.8-4 1.8-8.1 3-12.7l4.9-18.5h4.9L120.6 51h-5L111 31.9c-1.1-4.7-1.9-8.3-2.4-12h-.1c-.7 3.7-1.5 7.3-2.8 12L100.4 51h-5zM154.9 37.6c0 9.8-6.8 14-13.2 14-7.2 0-12.7-5.2-12.7-13.6 0-8.8 5.8-14 13.1-14 7.7 0 12.8 5.5 12.8 13.6zm-21 .3c0 5.8 3.3 10.1 8 10.1 4.6 0 8-4.3 8-10.3 0-4.5-2.2-10.1-7.9-10.1s-8.1 5.2-8.1 10.3zM158.2 32.8c0-3.1-.1-5.8-.2-8.2h4.2l.2 5.2h.2c1.2-3.5 4.1-5.8 7.3-5.8.5 0 .9.1 1.4.2v4.5c-.5-.1-1-.2-1.6-.2-3.4 0-5.8 2.6-6.5 6.2-.1.7-.2 1.4-.2 2.2V51h-4.8V32.8zM173.5 12.3h4.8V51h-4.8V12.3zM206.5 12.3v31.9c0 2.3.1 5 .2 6.8h-4.3l-.2-4.6h-.2c-1.5 2.9-4.7 5.2-9 5.2-6.4 0-11.3-5.4-11.3-13.4-.1-8.8 5.4-14.2 11.9-14.2 4 0 6.8 1.9 8 4h.1V12.3h4.8zm-4.8 23.1c0-.6-.1-1.4-.2-2a7 7 0 00-6.9-5.6c-5 0-7.9 4.4-7.9 10.2 0 5.3 2.6 9.8 7.8 9.8 3.2 0 6.2-2.1 7.1-5.7.2-.7.2-1.3.2-2.1v-4.6zM42.8 64c.1 1.6-1.1 2.9-3.1 2.9-1.7 0-2.9-1.3-2.9-2.9 0-1.7 1.3-3 3-3 1.9 0 3 1.3 3 3zm-5.4 33.8V71.4h4.8v26.4h-4.8zM47.5 78.6c0-2.7-.1-5-.2-7.1h4.3l.3 4.4h.1c1.3-2.5 4.4-5 8.8-5 3.7 0 9.4 2.2 9.4 11.2v15.8h-4.8V82.6c0-4.3-1.6-7.8-6.1-7.8-3.2 0-5.6 2.2-6.5 4.9-.2.6-.3 1.4-.3 2.2v15.9h-4.8V78.6zM84 61.6c2.9-.4 6.3-.8 10.1-.8 6.8 0 11.7 1.6 14.9 4.6 3.3 3 5.2 7.3 5.2 13.2 0 6-1.9 10.9-5.3 14.3-3.4 3.4-9.1 5.3-16.3 5.3-3.4 0-6.2-.2-8.6-.4V61.6zm4.8 32.5c1.2.2 3 .3 4.8.3 10.2 0 15.7-5.7 15.7-15.6.1-8.7-4.9-14.2-14.9-14.2-2.5 0-4.3.2-5.6.5v29zM132.1 97.8l-.4-3.3h-.2a9.79 9.79 0 01-8.1 3.9c-5.4 0-8.1-3.8-8.1-7.6 0-6.4 5.7-9.9 15.9-9.8v-.5c0-2.2-.6-6.1-6-6.1-2.5 0-5 .8-6.9 2l-1.1-3.2c2.2-1.4 5.4-2.3 8.7-2.3 8.1 0 10.1 5.5 10.1 10.8v9.9c0 2.3.1 4.5.4 6.3h-4.3zm-.7-13.4c-5.3-.1-11.2.8-11.2 5.9 0 3.1 2.1 4.6 4.5 4.6 3.4 0 5.6-2.2 6.4-4.4.2-.5.3-1 .3-1.5v-4.6zM146.6 63.9v7.6h6.9v3.7h-6.9v14.2c0 3.3.9 5.1 3.6 5.1 1.3 0 2.2-.2 2.8-.3l.2 3.6c-.9.4-2.4.7-4.3.7-2.2 0-4-.7-5.2-2-1.4-1.4-1.9-3.8-1.9-6.9V75.1h-4.1v-3.7h4.1v-6.3l4.8-1.2zM171.4 97.8l-.4-3.3h-.2a9.79 9.79 0 01-8.1 3.9c-5.4 0-8.1-3.8-8.1-7.6 0-6.4 5.7-9.9 15.9-9.8v-.5c0-2.2-.6-6.1-6-6.1-2.5 0-5 .8-6.9 2l-1.1-3.2c2.2-1.4 5.4-2.3 8.7-2.3 8.1 0 10.1 5.5 10.1 10.8v9.9c0 2.3.1 4.5.4 6.3h-4.3zm-.7-13.4c-5.3-.1-11.2.8-11.2 5.9 0 3.1 2.1 4.6 4.5 4.6 3.4 0 5.6-2.2 6.4-4.4.2-.5.3-1 .3-1.5v-4.6z"/></g></g></a></g><a href="https://ourworldindata.org/grapher/plastic-top-20-rivers" target="_blank"><text font-size="25.2" x="15" y="35.2" fill="#555"><tspan x="15" y="35.16">Plastic ocean input from top 20 rivers, 2015</tspan></text></a><text font-size="14.4" x="15" y="53.7" fill="#666"><tspan x="15" y="53.72">Plastic input to the ocean from the top 20 polluting rivers across the world. Shown is the given river, its location, and</tspan><tspan x="15" y="69.56">estimated annual input of plastic to the oceans in tonnes.</tspan></text></g><g class="DiscreteBarChart"><g class="HorizontalAxis" fill="#666" text-anchor="middle" font-size="16.2"><text x="449.2" y="556.5">0 tonnes</text><text x="576.3" y="556.5">150,000 tonnes</text><text x="703.4" y="556.5">300,000 tonnes</text></g><g class="AxisGridLines"><path stroke="#ccc" d="M449.2 535.3V92.1"/><path stroke="#ddd" stroke-dasharray="3,2" d="M491.6 535.3V92.1M533.9 535.3V92.1M576.3 535.3V92.1M618.6 535.3V92.1M661 535.3V92.1M703.4 535.3V92.1"/></g><g class="bar"><text x="444.21" y="100.96" fill="#666" dominant-baseline="middle" text-anchor="end" font-size="13.5">Yangtze (China)</text><path fill="#2E5778" opacity=".85" d="M449.2 92.1h282.1v17.73H449.2z"/><text x="736.3" y="100.96" fill="#666" dominant-baseline="middle" text-anchor="start" font-size="13.5">333,000 tonnes</text></g><g class="bar"><text x="444.21" y="123.12" fill="#666" dominant-baseline="middle" text-anchor="end" font-size="13.5">Ganges (India, Bangladesh)</text><path fill="#2E5778" opacity=".85" d="M449.2 114.26h97.4v17.73h-97.4z"/><text x="551.6" y="123.12" fill="#666" dominant-baseline="middle" text-anchor="start" font-size="13.5">115,000 tonnes</text></g><g class="bar"><text x="444.21" y="145.28" fill="#666" dominant-baseline="middle" text-anchor="end" font-size="13.5">Xi (China)</text><path fill="#2E5778" opacity=".85" d="M449.2 136.42h62.6v17.73h-62.6z"/><text x="516.8" y="145.28" fill="#666" dominant-baseline="middle" text-anchor="start" font-size="13.5">73,900 tonnes</text></g><g class="bar"><text x="444.21" y="167.44" fill="#666" dominant-baseline="middle" text-anchor="end" font-size="13.5">Huangpu (China)</text><path fill="#2E5778" opacity=".85" d="M449.2 158.58h34.6v17.73h-34.6z"/><text x="488.8" y="167.44" fill="#666" dominant-baseline="middle" text-anchor="start" font-size="13.5">40,800 tonnes</text></g><g class="bar"><text x="444.21" y="189.6" fill="#666" dominant-baseline="middle" text-anchor="end" font-size="13.5">Cross (Nigeria, Cameroon)</text><path fill="#2E5778" opacity=".85" d="M449.2 180.74h34.2v17.73h-34.2z"/><text x="488.4" y="189.6" fill="#666" dominant-baseline="middle" text-anchor="start" font-size="13.5">40,300 tonnes</text></g><g class="bar"><text x="444.21" y="211.76" fill="#666" dominant-baseline="middle" text-anchor="end" font-size="13.5">Amazon (Brazil, Peru, Colombia, Ecuador)</text><path fill="#2E5778" opacity=".85" d="M449.2 202.9h33v17.73h-33z"/><text x="487.2" y="211.76" fill="#666" dominant-baseline="middle" text-anchor="start" font-size="13.5">38,900 tonnes</text></g><g class="bar"><text x="444.21" y="233.92" fill="#666" dominant-baseline="middle" text-anchor="end" font-size="13.5">Brantas (Indonesia)</text><path fill="#2E5778" opacity=".85" d="M449.2 225.06h33v17.73h-33z"/><text x="487.2" y="233.92" fill="#666" dominant-baseline="middle" text-anchor="start" font-size="13.5">38,900 tonnes</text></g><g class="bar"><text x="444.21" y="256.08" fill="#666" dominant-baseline="middle" text-anchor="end" font-size="13.5">Pasig (Philippines)</text><path fill="#2E5778" opacity=".85" d="M449.2 247.22h32.9v17.73h-32.9z"/><text x="487.1" y="256.08" fill="#666" dominant-baseline="middle" text-anchor="start" font-size="13.5">38,800 tonnes</text></g><g class="bar"><text x="444.21" y="278.24" fill="#666" dominant-baseline="middle" text-anchor="end" font-size="13.5">Irrawaddy (Myanmar)</text><path fill="#2E5778" opacity=".85" d="M449.2 269.38h29.9v17.73h-29.9z"/><text x="484.1" y="278.24" fill="#666" dominant-baseline="middle" text-anchor="start" font-size="13.5">35,300 tonnes</text></g><g class="bar"><text x="444.21" y="300.4" fill="#666" dominant-baseline="middle" text-anchor="end" font-size="13.5">Solo (Indonesia)</text><path fill="#2E5778" opacity=".85" d="M449.2 291.54h27.5v17.73h-27.5z"/><text x="481.7" y="300.4" fill="#666" dominant-baseline="middle" text-anchor="start" font-size="13.5">32,500 tonnes</text></g><g class="bar"><text x="444.21" y="322.56" fill="#666" dominant-baseline="middle" text-anchor="end" font-size="13.5">Mekong (Thailand, Cambodia, Laos, China, Myanmar, Vietnam)</text><path fill="#2E5778" opacity=".85" d="M449.2 313.7h19.3v17.73h-19.3z"/><text x="473.5" y="322.56" fill="#666" dominant-baseline="middle" text-anchor="start" font-size="13.5">22,800 tonnes</text></g><g class="bar"><text x="444.21" y="344.72" fill="#666" dominant-baseline="middle" text-anchor="end" font-size="13.5">Imo (Nigeria)</text><path fill="#2E5778" opacity=".85" d="M449.2 335.86h18.2v17.73h-18.2z"/><text x="472.4" y="344.72" fill="#666" dominant-baseline="middle" text-anchor="start" font-size="13.5">21,500 tonnes</text></g><g class="bar"><text x="444.21" y="366.88" fill="#666" dominant-baseline="middle" text-anchor="end" font-size="13.5">Dong (China)</text><path fill="#2E5778" opacity=".85" d="M449.2 358.02h16.2v17.73h-16.2z"/><text x="470.4" y="366.88" fill="#666" dominant-baseline="middle" text-anchor="start" font-size="13.5">19,100 tonnes</text></g><g class="bar"><text x="444.21" y="389.04" fill="#666" dominant-baseline="middle" text-anchor="end" font-size="13.5">Serayu (Indonesia)</text><path fill="#2E5778" opacity=".85" d="M449.2 380.18h14.5v17.73h-14.5z"/><text x="468.7" y="389.04" fill="#666" dominant-baseline="middle" text-anchor="start" font-size="13.5">17,100 tonnes</text></g><g class="bar"><text x="444.21" y="411.2" fill="#666" dominant-baseline="middle" text-anchor="end" font-size="13.5">Magdalena (Colombia)</text><path fill="#2E5778" opacity=".85" d="M449.2 402.34h14.2v17.73h-14.2z"/><text x="468.4" y="411.2" fill="#666" dominant-baseline="middle" text-anchor="start" font-size="13.5">16,700 tonnes</text></g><g class="bar"><text x="444.21" y="433.36" fill="#666" dominant-baseline="middle" text-anchor="end" font-size="13.5">Tamsui (Taiwan)</text><path fill="#2E5778" opacity=".85" d="M449.2 424.5h12.5v17.73h-12.5z"/><text x="466.7" y="433.36" fill="#666" dominant-baseline="middle" text-anchor="start" font-size="13.5">14,700 tonnes</text></g><g class="bar"><text x="444.21" y="455.52" fill="#666" dominant-baseline="middle" text-anchor="end" font-size="13.5">Zhujiang (China)</text><path fill="#2E5778" opacity=".85" d="M449.2 446.66h11.5v17.73h-11.5z"/><text x="465.7" y="455.52" fill="#666" dominant-baseline="middle" text-anchor="start" font-size="13.5">13,600 tonnes</text></g><g class="bar"><text x="444.21" y="477.68" fill="#666" dominant-baseline="middle" text-anchor="end" font-size="13.5">Hanjiang (China)</text><path fill="#2E5778" opacity=".85" d="M449.2 468.82h10.9v17.73h-10.9z"/><text x="465.1" y="477.68" fill="#666" dominant-baseline="middle" text-anchor="start" font-size="13.5">12,900 tonnes</text></g><g class="bar"><text x="444.21" y="499.84" fill="#666" dominant-baseline="middle" text-anchor="end" font-size="13.5">Progo (Indonesia)</text><path fill="#2E5778" opacity=".85" d="M449.2 490.98h10.9v17.73h-10.9z"/><text x="465.1" y="499.84" fill="#666" dominant-baseline="middle" text-anchor="start" font-size="13.5">12,800 tonnes</text></g><g class="bar"><text x="444.21" y="522" fill="#666" dominant-baseline="middle" text-anchor="end" font-size="13.5">Kwa Ibo (Nigeria)</text><path fill="#2E5778" opacity=".85" d="M449.2 513.14h10.1v17.73h-10.1z"/><text x="464.3" y="522" fill="#666" dominant-baseline="middle" text-anchor="start" font-size="13.5">11,900 tonnes</text></g></g><g class="SourcesFooter" fill="#777"><g class="clickable" fill="#777"><text font-size="12.6" x="15" y="581.6"><tspan x="15" y="581.58">Source: Lebreton et al. (2017)</tspan></text></g><text font-size="12.6" x="775.4" y="581.6"><tspan x="775.4" y="581.58"><a class="cclogo" href="http://creativecommons.org/licenses/by-sa/4.0/deed.en_US" target="_blank" fill="#777">CC BY-SA</a></tspan></text></g></g></svg>