<svg xmlns="http://www.w3.org/2000/svg" version="1.1" style="background-color:#fff;-webkit-font-smoothing:antialiased" width="850" height="600" font-family="'Helvetica Neue',Helvetica,Arial,sans-serif" font-size="18" text-rendering="optimizeLegibility"><g class="ChartTab"><g class="HeaderView"><g opacity=".8" transform="matrix(.27 0 0 .27 778 15)"><a xmlns:xlink="http://www.w3.org/1999/xlink" xlink:href="https://ourworldindata.org" target="_blank"><g><path fill="#1B2543" d="M0 0h211.2v130.1H0z"/><path fill="#E63912" d="M0 112.2h211.2v17.9H0z"/><g><path fill="none" d="M1.2 12.3h210.2v99.2H1.2z"/><path fill="#FFF" d="M37.8 32.2c0 12.7-7.7 19.4-17.1 19.4-9.7 0-16.6-7.5-16.6-18.7 0-11.7 7.3-19.3 17.1-19.3 10.1.1 16.6 7.7 16.6 18.6zm-28.6.6c0 7.9 4.3 14.9 11.8 14.9 7.5 0 11.8-6.9 11.8-15.3 0-7.3-3.8-14.9-11.8-14.9-7.9 0-11.8 7.3-11.8 15.3zM62.7 43.8c0 2.7.1 5.1.2 7.2h-4.3l-.3-4.3h-.1c-1.3 2.1-4 4.9-8.8 4.9-4.2 0-9.1-2.3-9.1-11.6V24.6h4.8v14.6c0 5 1.5 8.4 5.9 8.4 3.2 0 5.5-2.2 6.3-4.4.3-.7.4-1.6.4-2.5V24.6h4.8v19.2zM67.3 32.8c0-3.1-.1-5.8-.2-8.2h4.2l.2 5.2h.2c1.2-3.5 4.1-5.8 7.3-5.8.5 0 .9.1 1.4.2v4.5c-.5-.1-1-.2-1.6-.2-3.4 0-5.8 2.6-6.5 6.2-.1.7-.2 1.4-.2 2.2V51h-4.8V32.8zM95.4 51L86 14.2h5l4.4 18.6c1.1 4.6 2.1 9.2 2.7 12.7h.1c.6-3.7 1.8-8 3-12.8l4.9-18.5h5l4.5 18.7c1 4.4 2 8.7 2.6 12.6h.1c.8-4 1.8-8.1 3-12.7l4.9-18.5h4.9L120.6 51h-5L111 31.9c-1.1-4.7-1.9-8.3-2.4-12h-.1c-.7 3.7-1.5 7.3-2.8 12L100.4 51h-5zM154.9 37.6c0 9.8-6.8 14-13.2 14-7.2 0-12.7-5.2-12.7-13.6 0-8.8 5.8-14 13.1-14 7.7 0 12.8 5.5 12.8 13.6zm-21 .3c0 5.8 3.3 10.1 8 10.1 4.6 0 8-4.3 8-10.3 0-4.5-2.2-10.1-7.9-10.1s-8.1 5.2-8.1 10.3zM158.2 32.8c0-3.1-.1-5.8-.2-8.2h4.2l.2 5.2h.2c1.2-3.5 4.1-5.8 7.3-5.8.5 0 .9.1 1.4.2v4.5c-.5-.1-1-.2-1.6-.2-3.4 0-5.8 2.6-6.5 6.2-.1.7-.2 1.4-.2 2.2V51h-4.8V32.8zM173.5 12.3h4.8V51h-4.8V12.3zM206.5 12.3v31.9c0 2.3.1 5 .2 6.8h-4.3l-.2-4.6h-.2c-1.5 2.9-4.7 5.2-9 5.2-6.4 0-11.3-5.4-11.3-13.4-.1-8.8 5.4-14.2 11.9-14.2 4 0 6.8 1.9 8 4h.1V12.3h4.8zm-4.8 23.1c0-.6-.1-1.4-.2-2a7 7 0 00-6.9-5.6c-5 0-7.9 4.4-7.9 10.2 0 5.3 2.6 9.8 7.8 9.8 3.2 0 6.2-2.1 7.1-5.7.2-.7.2-1.3.2-2.1v-4.6zM42.8 64c.1 1.6-1.1 2.9-3.1 2.9-1.7 0-2.9-1.3-2.9-2.9 0-1.7 1.3-3 3-3 1.9 0 3 1.3 3 3zm-5.4 33.8V71.4h4.8v26.4h-4.8zM47.5 78.6c0-2.7-.1-5-.2-7.1h4.3l.3 4.4h.1c1.3-2.5 4.4-5 8.8-5 3.7 0 9.4 2.2 9.4 11.2v15.8h-4.8V82.6c0-4.3-1.6-7.8-6.1-7.8-3.2 0-5.6 2.2-6.5 4.9-.2.6-.3 1.4-.3 2.2v15.9h-4.8V78.6zM84 61.6c2.9-.4 6.3-.8 10.1-.8 6.8 0 11.7 1.6 14.9 4.6 3.3 3 5.2 7.3 5.2 13.2 0 6-1.9 10.9-5.3 14.3-3.4 3.4-9.1 5.3-16.3 5.3-3.4 0-6.2-.2-8.6-.4V61.6zm4.8 32.5c1.2.2 3 .3 4.8.3 10.2 0 15.7-5.7 15.7-15.6.1-8.7-4.9-14.2-14.9-14.2-2.5 0-4.3.2-5.6.5v29zM132.1 97.8l-.4-3.3h-.2a9.79 9.79 0 01-8.1 3.9c-5.4 0-8.1-3.8-8.1-7.6 0-6.4 5.7-9.9 15.9-9.8v-.5c0-2.2-.6-6.1-6-6.1-2.5 0-5 .8-6.9 2l-1.1-3.2c2.2-1.4 5.4-2.3 8.7-2.3 8.1 0 10.1 5.5 10.1 10.8v9.9c0 2.3.1 4.5.4 6.3h-4.3zm-.7-13.4c-5.3-.1-11.2.8-11.2 5.9 0 3.1 2.1 4.6 4.5 4.6 3.4 0 5.6-2.2 6.4-4.4.2-.5.3-1 .3-1.5v-4.6zM146.6 63.9v7.6h6.9v3.7h-6.9v14.2c0 3.3.9 5.1 3.6 5.1 1.3 0 2.2-.2 2.8-.3l.2 3.6c-.9.4-2.4.7-4.3.7-2.2 0-4-.7-5.2-2-1.4-1.4-1.9-3.8-1.9-6.9V75.1h-4.1v-3.7h4.1v-6.3l4.8-1.2zM171.4 97.8l-.4-3.3h-.2a9.79 9.79 0 01-8.1 3.9c-5.4 0-8.1-3.8-8.1-7.6 0-6.4 5.7-9.9 15.9-9.8v-.5c0-2.2-.6-6.1-6-6.1-2.5 0-5 .8-6.9 2l-1.1-3.2c2.2-1.4 5.4-2.3 8.7-2.3 8.1 0 10.1 5.5 10.1 10.8v9.9c0 2.3.1 4.5.4 6.3h-4.3zm-.7-13.4c-5.3-.1-11.2.8-11.2 5.9 0 3.1 2.1 4.6 4.5 4.6 3.4 0 5.6-2.2 6.4-4.4.2-.5.3-1 .3-1.5v-4.6z"/></g></g></a></g><a href="https://ourworldindata.org/grapher/prevalence-of-anemia-in-children" target="_blank"><text font-size="25.2" x="15" y="35.2" fill="#555"><tspan x="15" y="35.16">Prevalence of anemia in children</tspan></text></a><text font-size="14.4" x="15" y="53.7" fill="#666"><tspan x="15" y="53.72">Prevalence of anemia in children, measured as the share of children under the age of five with hemoglobin levels less</tspan><tspan x="15" y="69.56">than 110 grams per liter at sea level.</tspan></text></g><g class="LineChart"><defs><clipPath id="a"><path d="M42.56 0h830v928.8h-830z"/></clipPath></defs><g class="AxisBoxView"><g class="HorizontalAxis" fill="#666" text-anchor="middle" font-size="16.2"><text x="52.6" y="556.5">1990</text><text x="192.7" y="556.5">1995</text><text x="332.9" y="556.5">2000</text><text x="473" y="556.5">2005</text><text x="641.2" y="556.5">2011</text></g><g class="VerticalAxis" fill="#666" dominant-baseline="middle" text-anchor="end" font-size="16.2"><text x="47.56" y="535.3">0%</text><text x="47.56" y="476">10%</text><text x="47.56" y="416.6">20%</text><text x="47.56" y="357.3">30%</text><text x="47.56" y="298">40%</text><text x="47.56" y="238.6">50%</text><text x="47.56" y="179.3">60%</text><text x="47.56" y="119.9">70%</text></g><g class="AxisGridLines"><path stroke="#ccc" d="M52.56 535.3h588.68"/><path stroke="#ddd" stroke-dasharray="3,2" d="M52.56 476h588.68M52.56 416.6h588.68M52.56 357.3h588.68M52.56 298h588.68M52.56 238.6h588.68M52.56 179.3h588.68M52.56 119.9h588.68"/></g></g><g clip-path="url(#a)"><g class="HeightedLegend clickable"><g class="legendMark"><g class="indicator" stroke="#666" stroke-width=".5"><path d="M646.24 164.1h12.5M658.74 164.1h0M658.74 164.1h12.5"/></g><text font-size="13.5" x="676.2" y="168.2" fill="#e6332e"><tspan x="676.24" y="168.15">Sub-Saharan Africa</tspan></text></g><g class="legendMark"><g class="indicator" stroke="#666" stroke-width=".5"><path d="M646.24 190.2h12.5M658.74 190.2h0M658.74 190.2h12.5"/></g><text font-size="13.5" x="676.2" y="194.3" fill="#2a939b"><tspan x="676.24" y="194.25">South Asia</tspan></text></g><g class="legendMark"><g class="indicator" stroke="#666" stroke-width=".5"><path d="M646.24 279.4h12.5M658.74 279.4h0M658.74 279.4h12.5"/></g><text font-size="13.5" x="676.2" y="283.4" fill="#c8c8c8"><tspan x="676.24" y="283.45">World</tspan></text></g><g class="legendMark"><g class="indicator" stroke="#666" stroke-width=".5"><path d="M646.24 306.4h12.5M658.74 306.4h0M658.74 306.4h12.5"/></g><text font-size="13.5" x="676.2" y="310.4" fill="#f6a324"><tspan x="676.24" y="310.45">Middle East &amp; North Africa</tspan></text></g><g class="legendMark"><g class="indicator" stroke="#666" stroke-width=".5"><path d="M646.24 389.2h22.5M668.74 389.2h0M668.74 389.2h2.5"/></g><text font-size="13.5" x="676.2" y="393.3" fill="#34983f"><tspan x="676.24" y="393.25">East Asia &amp; Pacific</tspan></text></g><g class="legendMark"><g class="indicator" stroke="#666" stroke-width=".5"><path d="M646.24 398.4h12.5M658.74 398.4v6.3M658.74 404.7h12.5"/></g><text font-size="13.5" x="676.2" y="408.8" fill="#ca2628"><tspan x="676.24" y="408.75">Europe &amp; Central Asia</tspan></text></g><g class="legendMark"><g class="indicator" stroke="#666" stroke-width=".5"><path d="M646.24 493.7h12.5M658.74 493.7h0M658.74 493.7h12.5"/></g><text font-size="13.5" x="676.2" y="497.8" fill="#3360a9"><tspan x="676.24" y="497.75">North America</tspan></text></g></g><g class="Lines"><g class="key-Europe-__0026-Central-Asia_0"><path stroke="#ca2628" stroke-linecap="round" d="M53 338l28 8 28 9 28 8 28 7 28 6 28 5 28 5 28 4 28 3 28 3 28 1 28 1 28 1h28l28 1 28 1 28 1h56l28-1 28-3" fill="none" stroke-width="1.5"/><g fill="#ca2628"><circle cx="53" cy="338" r="2"/><circle cx="81" cy="346" r="2"/><circle cx="109" cy="355" r="2"/><circle cx="137" cy="363" r="2"/><circle cx="165" cy="370" r="2"/><circle cx="193" cy="376" r="2"/><circle cx="221" cy="381" r="2"/><circle cx="249" cy="386" r="2"/><circle cx="277" cy="390" r="2"/><circle cx="305" cy="393" r="2"/><circle cx="333" cy="396" r="2"/><circle cx="361" cy="397" r="2"/><circle cx="389" cy="398" r="2"/><circle cx="417" cy="399" r="2"/><circle cx="445" cy="399" r="2"/><circle cx="473" cy="400" r="2"/><circle cx="501" cy="401" r="2"/><circle cx="529" cy="402" r="2"/><circle cx="557" cy="402" r="2"/><circle cx="585" cy="402" r="2"/><circle cx="613" cy="401" r="2"/><circle cx="641" cy="398" r="2"/></g></g><g class="key-World_0"><path stroke="#c8c8c8" stroke-linecap="round" d="M53 230l28 8 28 6 28 4 28 4 28 3 28 1 28 2 28 3 28 3 28 1 28 2 28 1 28 1 28 1 28 1 28 2 28 2 28 2 28 1 28 1h28" fill="none" stroke-width="1.5"/><g fill="#c8c8c8"><circle cx="53" cy="230" r="2"/><circle cx="81" cy="238" r="2"/><circle cx="109" cy="244" r="2"/><circle cx="137" cy="248" r="2"/><circle cx="165" cy="252" r="2"/><circle cx="193" cy="255" r="2"/><circle cx="221" cy="256" r="2"/><circle cx="249" cy="258" r="2"/><circle cx="277" cy="261" r="2"/><circle cx="305" cy="264" r="2"/><circle cx="333" cy="265" r="2"/><circle cx="361" cy="267" r="2"/><circle cx="389" cy="268" r="2"/><circle cx="417" cy="269" r="2"/><circle cx="445" cy="270" r="2"/><circle cx="473" cy="271" r="2"/><circle cx="501" cy="273" r="2"/><circle cx="529" cy="275" r="2"/><circle cx="557" cy="277" r="2"/><circle cx="585" cy="278" r="2"/><circle cx="613" cy="279" r="2"/><circle cx="641" cy="279" r="2"/></g></g><g class="key-East-Asia-__0026-Pacific_0"><path stroke="#34983f" stroke-linecap="round" d="M53 318l28 15 28 13 28 10 28 9 28 8 28 5 28 6 28 6 28 5 28 3 28 3 28 3 28 1 28 1 28-1 28 1 28-1 28-2 28-4 28-4 28-6" fill="none" stroke-width="1.5"/><g fill="#34983f"><circle cx="53" cy="318" r="2"/><circle cx="81" cy="333" r="2"/><circle cx="109" cy="346" r="2"/><circle cx="137" cy="356" r="2"/><circle cx="165" cy="365" r="2"/><circle cx="193" cy="373" r="2"/><circle cx="221" cy="378" r="2"/><circle cx="249" cy="384" r="2"/><circle cx="277" cy="390" r="2"/><circle cx="305" cy="395" r="2"/><circle cx="333" cy="398" r="2"/><circle cx="361" cy="401" r="2"/><circle cx="389" cy="404" r="2"/><circle cx="417" cy="405" r="2"/><circle cx="445" cy="406" r="2"/><circle cx="473" cy="405" r="2"/><circle cx="501" cy="406" r="2"/><circle cx="529" cy="405" r="2"/><circle cx="557" cy="403" r="2"/><circle cx="585" cy="399" r="2"/><circle cx="613" cy="395" r="2"/><circle cx="641" cy="389" r="2"/></g></g><g class="key-South-Asia_0"><path stroke="#2a939b" stroke-linecap="round" d="M53 100l28 4 28 4 28 4 28 4 28 5 28 5 28 5 28 6 28 6 28 4 28 5 28 4 28 3 28 3 28 4 28 4 28 4 28 4 28 5 28 3 28 4" fill="none" stroke-width="1.5"/><g fill="#2a939b"><circle cx="53" cy="100" r="2"/><circle cx="81" cy="104" r="2"/><circle cx="109" cy="108" r="2"/><circle cx="137" cy="112" r="2"/><circle cx="165" cy="116" r="2"/><circle cx="193" cy="121" r="2"/><circle cx="221" cy="126" r="2"/><circle cx="249" cy="131" r="2"/><circle cx="277" cy="137" r="2"/><circle cx="305" cy="143" r="2"/><circle cx="333" cy="147" r="2"/><circle cx="361" cy="152" r="2"/><circle cx="389" cy="156" r="2"/><circle cx="417" cy="159" r="2"/><circle cx="445" cy="162" r="2"/><circle cx="473" cy="166" r="2"/><circle cx="501" cy="170" r="2"/><circle cx="529" cy="174" r="2"/><circle cx="557" cy="178" r="2"/><circle cx="585" cy="183" r="2"/><circle cx="613" cy="186" r="2"/><circle cx="641" cy="190" r="2"/></g></g><g class="key-North-America_0"><path stroke="#3360a9" stroke-linecap="round" d="M53 437l28 14 28 12 28 10 28 7 28 6 28 4 28 3 28 2 28 1 28 1 28 1h28l28 1h112l28-1 28-1 28-1 28-2" fill="none" stroke-width="1.5"/><g fill="#3360a9"><circle cx="53" cy="437" r="2"/><circle cx="81" cy="451" r="2"/><circle cx="109" cy="463" r="2"/><circle cx="137" cy="473" r="2"/><circle cx="165" cy="480" r="2"/><circle cx="193" cy="486" r="2"/><circle cx="221" cy="490" r="2"/><circle cx="249" cy="493" r="2"/><circle cx="277" cy="495" r="2"/><circle cx="305" cy="496" r="2"/><circle cx="333" cy="497" r="2"/><circle cx="361" cy="498" r="2"/><circle cx="389" cy="498" r="2"/><circle cx="417" cy="499" r="2"/><circle cx="445" cy="499" r="2"/><circle cx="473" cy="499" r="2"/><circle cx="501" cy="499" r="2"/><circle cx="529" cy="499" r="2"/><circle cx="557" cy="498" r="2"/><circle cx="585" cy="497" r="2"/><circle cx="613" cy="496" r="2"/><circle cx="641" cy="494" r="2"/></g></g><g class="key-Middle-East-__0026-North-Africa_0"><path stroke="#f6a324" stroke-linecap="round" d="M53 247l28 8 28 8 28 7 28 7 28 8 28 7 28 6 28 5 28 3 28 2h28l28-2 28-3 28-3 28-2h28l28 1 28 2 28 3 28 2h28" fill="none" stroke-width="1.5"/><g fill="#f6a324"><circle cx="53" cy="247" r="2"/><circle cx="81" cy="255" r="2"/><circle cx="109" cy="263" r="2"/><circle cx="137" cy="270" r="2"/><circle cx="165" cy="277" r="2"/><circle cx="193" cy="285" r="2"/><circle cx="221" cy="292" r="2"/><circle cx="249" cy="298" r="2"/><circle cx="277" cy="303" r="2"/><circle cx="305" cy="306" r="2"/><circle cx="333" cy="308" r="2"/><circle cx="361" cy="308" r="2"/><circle cx="389" cy="306" r="2"/><circle cx="417" cy="303" r="2"/><circle cx="445" cy="300" r="2"/><circle cx="473" cy="298" r="2"/><circle cx="501" cy="298" r="2"/><circle cx="529" cy="299" r="2"/><circle cx="557" cy="301" r="2"/><circle cx="585" cy="304" r="2"/><circle cx="613" cy="306" r="2"/><circle cx="641" cy="306" r="2"/></g></g><g class="key-Sub__002dSaharan-Africa_0"><path stroke="#e6332e" stroke-linecap="round" d="M53 92l28 1 28 2 28 1 28 2 28 2 28 3 28 4 28 3 28 4 28 3 28 2 28 2 28 3 28 2 28 4 28 4 28 5 28 7 28 6 28 6 28 6" fill="none" stroke-width="1.5"/><g fill="#e6332e"><circle cx="53" cy="92" r="2"/><circle cx="81" cy="93" r="2"/><circle cx="109" cy="95" r="2"/><circle cx="137" cy="96" r="2"/><circle cx="165" cy="98" r="2"/><circle cx="193" cy="100" r="2"/><circle cx="221" cy="103" r="2"/><circle cx="249" cy="107" r="2"/><circle cx="277" cy="110" r="2"/><circle cx="305" cy="114" r="2"/><circle cx="333" cy="117" r="2"/><circle cx="361" cy="119" r="2"/><circle cx="389" cy="121" r="2"/><circle cx="417" cy="124" r="2"/><circle cx="445" cy="126" r="2"/><circle cx="473" cy="130" r="2"/><circle cx="501" cy="134" r="2"/><circle cx="529" cy="139" r="2"/><circle cx="557" cy="146" r="2"/><circle cx="585" cy="152" r="2"/><circle cx="613" cy="158" r="2"/><circle cx="641" cy="164" r="2"/></g></g></g></g></g><g class="SourcesFooter" fill="#777"><g class="clickable" fill="#777"><text font-size="12.6" x="15" y="581.6"><tspan x="15" y="581.58">Source: World Bank – WDI</tspan></text></g><text font-size="12.6" x="508.7" y="581.6"><tspan x="508.66" y="581.58"><a target="_blank" href="https://ourworldindata.org/micronutrient-deficiency/" fill="#777">OurWorldInData.org/micronutrient-deficiency/</a> • <a class="cclogo" href="http://creativecommons.org/licenses/by-sa/4.0/deed.en_US" target="_blank" fill="#777">CC BY-SA</a></tspan></text></g></g></svg>