<svg xmlns="http://www.w3.org/2000/svg" version="1.1" style="font-family: 'Helvetica Neue', Helvetica, Arial, sans-serif; font-size: 18px; background-color: white; text-rendering: optimizeLegibility; -webkit-font-smoothing: antialiased;" width="850" height="600"><g class="ChartTab"><g class="HeaderView"><g opacity="0.8" transform="translate(770, 15) scale(0.31)"><a xmlns:xlink="http://www.w3.org/1999/xlink" xlink:href="https://ourworldindata.org" target="_blank"><g><rect x="0" y="0" fill="#1B2543" width="211.2" height="130.1"/><rect x="0" y="112.2" fill="#E63912" width="211.2" height="17.9"/><g><rect x="1.2" y="12.3" fill="none" width="210.2" height="99.2"/><path fill="#FFFFFF" d="M37.8,32.2c0,12.7-7.7,19.4-17.1,19.4c-9.7,0-16.6-7.5-16.6-18.7c0-11.7,7.3-19.3,17.1-19.3 C31.3,13.7,37.8,21.3,37.8,32.2z M9.2,32.8c0,7.9,4.3,14.9,11.8,14.9c7.5,0,11.8-6.9,11.8-15.3c0-7.3-3.8-14.9-11.8-14.9 C13.1,17.5,9.2,24.8,9.2,32.8z"/><path fill="#FFFFFF" d="M62.7,43.8c0,2.7,0.1,5.1,0.2,7.2h-4.3l-0.3-4.3h-0.1c-1.3,2.1-4,4.9-8.8,4.9c-4.2,0-9.1-2.3-9.1-11.6 V24.6h4.8v14.6c0,5,1.5,8.4,5.9,8.4c3.2,0,5.5-2.2,6.3-4.4c0.3-0.7,0.4-1.6,0.4-2.5V24.6h4.8V43.8z"/><path fill="#FFFFFF" d="M67.3,32.8c0-3.1-0.1-5.8-0.2-8.2h4.2l0.2,5.2h0.2c1.2-3.5,4.1-5.8,7.3-5.8c0.5,0,0.9,0.1,1.4,0.2v4.5 c-0.5-0.1-1-0.2-1.6-0.2c-3.4,0-5.8,2.6-6.5,6.2c-0.1,0.7-0.2,1.4-0.2,2.2V51h-4.8V32.8z"/><path fill="#FFFFFF" d="M95.4,51l-9.4-36.8h5l4.4,18.6c1.1,4.6,2.1,9.2,2.7,12.7h0.1c0.6-3.7,1.8-8,3-12.8l4.9-18.5h5l4.5,18.7 c1,4.4,2,8.7,2.6,12.6h0.1c0.8-4,1.8-8.1,3-12.7l4.9-18.5h4.9L120.6,51h-5L111,31.9c-1.1-4.7-1.9-8.3-2.4-12h-0.1 c-0.7,3.7-1.5,7.3-2.8,12L100.4,51H95.4z"/><path fill="#FFFFFF" d="M154.9,37.6c0,9.8-6.8,14-13.2,14c-7.2,0-12.7-5.2-12.7-13.6c0-8.8,5.8-14,13.1-14 C149.8,24,154.9,29.5,154.9,37.6z M133.9,37.9c0,5.8,3.3,10.1,8,10.1c4.6,0,8-4.3,8-10.3c0-4.5-2.2-10.1-7.9-10.1 C136.3,27.6,133.9,32.8,133.9,37.9z"/><path fill="#FFFFFF" d="M158.2,32.8c0-3.1-0.1-5.8-0.2-8.2h4.2l0.2,5.2h0.2c1.2-3.5,4.1-5.8,7.3-5.8c0.5,0,0.9,0.1,1.4,0.2v4.5 c-0.5-0.1-1-0.2-1.6-0.2c-3.4,0-5.8,2.6-6.5,6.2c-0.1,0.7-0.2,1.4-0.2,2.2V51h-4.8V32.8z"/><path fill="#FFFFFF" d="M173.5,12.3h4.8V51h-4.8V12.3z"/><path fill="#FFFFFF" d="M206.5,12.3v31.9c0,2.3,0.1,5,0.2,6.8h-4.3l-0.2-4.6H202c-1.5,2.9-4.7,5.2-9,5.2 c-6.4,0-11.3-5.4-11.3-13.4c-0.1-8.8,5.4-14.2,11.9-14.2c4,0,6.8,1.9,8,4h0.1V12.3H206.5z M201.7,35.4c0-0.6-0.1-1.4-0.2-2 c-0.7-3.1-3.3-5.6-6.9-5.6c-5,0-7.9,4.4-7.9,10.2c0,5.3,2.6,9.8,7.8,9.8c3.2,0,6.2-2.1,7.1-5.7c0.2-0.7,0.2-1.3,0.2-2.1V35.4z"/><path fill="#FFFFFF" d="M42.8,64c0.1,1.6-1.1,2.9-3.1,2.9c-1.7,0-2.9-1.3-2.9-2.9c0-1.7,1.3-3,3-3C41.7,61,42.8,62.3,42.8,64z M37.4,97.8V71.4h4.8v26.4H37.4z"/><path fill="#FFFFFF" d="M47.5,78.6c0-2.7-0.1-5-0.2-7.1h4.3l0.3,4.4h0.1c1.3-2.5,4.4-5,8.8-5c3.7,0,9.4,2.2,9.4,11.2v15.8h-4.8 V82.6c0-4.3-1.6-7.8-6.1-7.8c-3.2,0-5.6,2.2-6.5,4.9c-0.2,0.6-0.3,1.4-0.3,2.2v15.9h-4.8V78.6z"/><path fill="#FFFFFF" d="M84,61.6c2.9-0.4,6.3-0.8,10.1-0.8c6.8,0,11.7,1.6,14.9,4.6c3.3,3,5.2,7.3,5.2,13.2c0,6-1.9,10.9-5.3,14.3 c-3.4,3.4-9.1,5.3-16.3,5.3c-3.4,0-6.2-0.2-8.6-0.4V61.6z M88.8,94.1c1.2,0.2,3,0.3,4.8,0.3c10.2,0,15.7-5.7,15.7-15.6 c0.1-8.7-4.9-14.2-14.9-14.2c-2.5,0-4.3,0.2-5.6,0.5V94.1z"/><path fill="#FFFFFF" d="M132.1,97.8l-0.4-3.3h-0.2c-1.5,2.1-4.3,3.9-8.1,3.9c-5.4,0-8.1-3.8-8.1-7.6c0-6.4,5.7-9.9,15.9-9.8v-0.5 c0-2.2-0.6-6.1-6-6.1c-2.5,0-5,0.8-6.9,2l-1.1-3.2c2.2-1.4,5.4-2.3,8.7-2.3c8.1,0,10.1,5.5,10.1,10.8v9.9c0,2.3,0.1,4.5,0.4,6.3 H132.1z M131.4,84.4c-5.3-0.1-11.2,0.8-11.2,5.9c0,3.1,2.1,4.6,4.5,4.6c3.4,0,5.6-2.2,6.4-4.4c0.2-0.5,0.3-1,0.3-1.5V84.4z"/><path fill="#FFFFFF" d="M146.6,63.9v7.6h6.9v3.7h-6.9v14.2c0,3.3,0.9,5.1,3.6,5.1c1.3,0,2.2-0.2,2.8-0.3l0.2,3.6 c-0.9,0.4-2.4,0.7-4.3,0.7c-2.2,0-4-0.7-5.2-2c-1.4-1.4-1.9-3.8-1.9-6.9V75.1h-4.1v-3.7h4.1v-6.3L146.6,63.9z"/><path fill="#FFFFFF" d="M171.4,97.8l-0.4-3.3h-0.2c-1.5,2.1-4.3,3.9-8.1,3.9c-5.4,0-8.1-3.8-8.1-7.6c0-6.4,5.7-9.9,15.9-9.8v-0.5 c0-2.2-0.6-6.1-6-6.1c-2.5,0-5,0.8-6.9,2l-1.1-3.2c2.2-1.4,5.4-2.3,8.7-2.3c8.1,0,10.1,5.5,10.1,10.8v9.9c0,2.3,0.1,4.5,0.4,6.3 H171.4z M170.7,84.4c-5.3-0.1-11.2,0.8-11.2,5.9c0,3.1,2.1,4.6,4.5,4.6c3.4,0,5.6-2.2,6.4-4.4c0.2-0.5,0.3-1,0.3-1.5V84.4z"/></g></g></a></g><a href="https://ourworldindata.org/grapher/prevalence-of-undernourishment?tab=chart" target="_blank"><text font-size="27.00" x="15.0" y="36.6" fill="#555"><tspan x="15" y="36.6">Share of the population that is undernourished</tspan></text></a><text font-size="14.40" x="15.0" y="55.5" fill="#666"><tspan x="15" y="55.519999999999996">This is the main FAO hunger indicator. It measures the share of the population that has a caloric intake which is</tspan><tspan x="15" y="71.36">insufficient to meet the minimum energy requirements necessary for a given individual. Data showing as 5 may</tspan><tspan x="15" y="87.2">signify a prevalence of undernourishment below 5%.</tspan></text></g><g class="LineChart"><defs><clipPath id="boundsClip-1"><rect x="42.562" y="0" width="830" height="866.8000000000001"></rect></clipPath></defs><g class="AxisBoxView"><g class="HorizontalAxis"><text x="52.6" y="542.8000000000001" fill="#666" text-anchor="middle" font-size="16.2">1991</text><text x="150" y="542.8000000000001" fill="#666" text-anchor="middle" font-size="16.2">1995</text><text x="271.9" y="542.8000000000001" fill="#666" text-anchor="middle" font-size="16.2">2000</text><text x="393.7" y="542.8000000000001" fill="#666" text-anchor="middle" font-size="16.2">2005</text><text x="515.5" y="542.8000000000001" fill="#666" text-anchor="middle" font-size="16.2">2010</text><text x="637.3" y="542.8000000000001" fill="#666" text-anchor="middle" font-size="16.2">2015</text></g><g class="VerticalAxis"><text x="47.56" y="521.6" fill="#666" dominant-baseline="middle" text-anchor="end" font-size="16.2">0%</text><text x="47.56" y="459.8" fill="#666" dominant-baseline="middle" text-anchor="end" font-size="16.2">5%</text><text x="47.56" y="398.1" fill="#666" dominant-baseline="middle" text-anchor="end" font-size="16.2">10%</text><text x="47.56" y="336.3" fill="#666" dominant-baseline="middle" text-anchor="end" font-size="16.2">15%</text><text x="47.56" y="274.6" fill="#666" dominant-baseline="middle" text-anchor="end" font-size="16.2">20%</text><text x="47.56" y="212.8" fill="#666" dominant-baseline="middle" text-anchor="end" font-size="16.2">25%</text><text x="47.56" y="151.1" fill="#666" dominant-baseline="middle" text-anchor="end" font-size="16.2">30%</text></g><g class="AxisGridLines"><line x1="52.56" y1="521.6" x2="637.34" y2="521.6" stroke="#ccc"></line><line x1="52.56" y1="459.8" x2="637.34" y2="459.8" stroke="#ddd" stroke-dasharray="3,2"></line><line x1="52.56" y1="398.1" x2="637.34" y2="398.1" stroke="#ddd" stroke-dasharray="3,2"></line><line x1="52.56" y1="336.3" x2="637.34" y2="336.3" stroke="#ddd" stroke-dasharray="3,2"></line><line x1="52.56" y1="274.6" x2="637.34" y2="274.6" stroke="#ddd" stroke-dasharray="3,2"></line><line x1="52.56" y1="212.8" x2="637.34" y2="212.8" stroke="#ddd" stroke-dasharray="3,2"></line><line x1="52.56" y1="151.1" x2="637.34" y2="151.1" stroke="#ddd" stroke-dasharray="3,2"></line></g><g class="AxisGridLines"><line x1="150" y1="521.60" x2="150" y2="109.40" stroke="#ddd" stroke-dasharray="3,2"></line><line x1="271.9" y1="521.60" x2="271.9" y2="109.40" stroke="#ddd" stroke-dasharray="3,2"></line><line x1="393.7" y1="521.60" x2="393.7" y2="109.40" stroke="#ddd" stroke-dasharray="3,2"></line><line x1="515.5" y1="521.60" x2="515.5" y2="109.40" stroke="#ddd" stroke-dasharray="3,2"></line><line x1="637.3" y1="521.60" x2="637.3" y2="109.40" stroke="#ddd" stroke-dasharray="3,2"></line></g></g><g clip-path="url(#boundsClip-1)"><g class="HeightedLegend clickable"><g class="legendMark"><rect x="647.3439999999999" y="285.3" width="141.144" height="14.4" fill="#fff" opacity="0"></rect><rect x="647.3439999999999" y="291.25" width="10" height="2.5" fill="#2a939b"></rect><text font-size="14.40" x="662.3" y="296.8" fill="#333"><tspan x="662.3439999999999" y="296.82">Sub-Saharan Africa</tspan></text></g><g class="legendMark"><rect x="647.3439999999999" y="313.90000000000003" width="84.98400000000001" height="14.4" fill="#fff" opacity="0"></rect><rect x="647.3439999999999" y="319.85" width="10" height="2.5" fill="#a652ba"></rect><text font-size="14.40" x="662.3" y="325.4" fill="#333"><tspan x="662.3439999999999" y="325.42">South Asia</tspan></text></g><g class="legendMark"><rect x="647.3439999999999" y="381" width="52.584" height="14.4" fill="#fff" opacity="0"></rect><rect x="647.3439999999999" y="386.95" width="10" height="2.5" fill="#f6a324"></rect><text font-size="14.40" x="662.3" y="392.5" fill="#333"><tspan x="662.3439999999999" y="392.52">World</tspan></text></g><g class="legendMark"><rect x="647.3439999999999" y="395.4" width="136.24800000000002" height="14.4" fill="#fff" opacity="0"></rect><rect x="647.3439999999999" y="401.34999999999997" width="10" height="2.5" fill="#34983f"></rect><text font-size="14.40" x="662.3" y="406.9" fill="#333"><tspan x="662.3439999999999" y="406.91999999999996">East Asia &amp; Pacific</tspan></text></g><g class="legendMark"><rect x="647.3439999999999" y="413.7" width="184.34400000000002" height="14.4" fill="#fff" opacity="0"></rect><rect x="647.3439999999999" y="419.65" width="10" height="2.5" fill="#ca2628"></rect><text font-size="14.40" x="662.3" y="425.2" fill="#333"><tspan x="662.3439999999999" y="425.21999999999997">Middle East &amp; North Africa</tspan></text></g><g class="legendMark"><rect x="647.3439999999999" y="428.09999999999997" width="187.65600000000003" height="14.4" fill="#fff" opacity="0"></rect><rect x="647.3439999999999" y="434.04999999999995" width="10" height="2.5" fill="#3360a9"></rect><text font-size="14.40" x="662.3" y="439.6" fill="#333"><tspan x="662.3439999999999" y="439.61999999999995">Latin America &amp; Caribbean</tspan></text></g></g><g class="Lines"><rect x="53" y="109" width="585" height="412" fill="rgba(255,255,255,0)" opacity="0"></rect><g class="key-World_0"><path stroke="#f6a324" stroke-linecap="round" d="M53 292L77 293L101 297L126 302L150 309L174 317L199 323L223 328L248 333L272 336L296 338L321 336L345 335L369 336L394 340L418 345L442 352L467 361L491 367L516 372L540 376L564 381L589 383L613 386L637 388" fill="none" stroke-width="1.5"></path><g fill="#f6a324"><circle cx="53" cy="292" r="2"></circle><circle cx="77" cy="293" r="2"></circle><circle cx="101" cy="297" r="2"></circle><circle cx="126" cy="302" r="2"></circle><circle cx="150" cy="309" r="2"></circle><circle cx="174" cy="317" r="2"></circle><circle cx="199" cy="323" r="2"></circle><circle cx="223" cy="328" r="2"></circle><circle cx="248" cy="333" r="2"></circle><circle cx="272" cy="336" r="2"></circle><circle cx="296" cy="338" r="2"></circle><circle cx="321" cy="336" r="2"></circle><circle cx="345" cy="335" r="2"></circle><circle cx="369" cy="336" r="2"></circle><circle cx="394" cy="340" r="2"></circle><circle cx="418" cy="345" r="2"></circle><circle cx="442" cy="352" r="2"></circle><circle cx="467" cy="361" r="2"></circle><circle cx="491" cy="367" r="2"></circle><circle cx="516" cy="372" r="2"></circle><circle cx="540" cy="376" r="2"></circle><circle cx="564" cy="381" r="2"></circle><circle cx="589" cy="383" r="2"></circle><circle cx="613" cy="386" r="2"></circle><circle cx="637" cy="388" r="2"></circle></g></g><g class="key-East-Asia-__0026-Pacific_0"><path stroke="#34983f" stroke-linecap="round" d="M53 211L77 208L101 220L126 237L150 258L174 274L199 284L223 290L248 295L272 299L296 302L321 305L345 308L369 312L394 317L418 322L442 329L467 338L491 350L516 361L540 373L564 382L589 389L613 396L637 401" fill="none" stroke-width="1.5"></path><g fill="#34983f"><circle cx="53" cy="211" r="2"></circle><circle cx="77" cy="208" r="2"></circle><circle cx="101" cy="220" r="2"></circle><circle cx="126" cy="237" r="2"></circle><circle cx="150" cy="258" r="2"></circle><circle cx="174" cy="274" r="2"></circle><circle cx="199" cy="284" r="2"></circle><circle cx="223" cy="290" r="2"></circle><circle cx="248" cy="295" r="2"></circle><circle cx="272" cy="299" r="2"></circle><circle cx="296" cy="302" r="2"></circle><circle cx="321" cy="305" r="2"></circle><circle cx="345" cy="308" r="2"></circle><circle cx="369" cy="312" r="2"></circle><circle cx="394" cy="317" r="2"></circle><circle cx="418" cy="322" r="2"></circle><circle cx="442" cy="329" r="2"></circle><circle cx="467" cy="338" r="2"></circle><circle cx="491" cy="350" r="2"></circle><circle cx="516" cy="361" r="2"></circle><circle cx="540" cy="373" r="2"></circle><circle cx="564" cy="382" r="2"></circle><circle cx="589" cy="389" r="2"></circle><circle cx="613" cy="396" r="2"></circle><circle cx="637" cy="401" r="2"></circle></g></g><g class="key-Latin-America-__0026-Caribbean_0"><path stroke="#3360a9" stroke-linecap="round" d="M53 337L77 343L101 345L126 347L150 351L174 354L199 356L223 358L248 362L272 368L296 376L321 385L345 392L369 399L394 406L418 410L442 414L467 418L491 419L516 421L540 423L564 425L589 427L613 429L637 430" fill="none" stroke-width="1.5"></path><g fill="#3360a9"><circle cx="53" cy="337" r="2"></circle><circle cx="77" cy="343" r="2"></circle><circle cx="101" cy="345" r="2"></circle><circle cx="126" cy="347" r="2"></circle><circle cx="150" cy="351" r="2"></circle><circle cx="174" cy="354" r="2"></circle><circle cx="199" cy="356" r="2"></circle><circle cx="223" cy="358" r="2"></circle><circle cx="248" cy="362" r="2"></circle><circle cx="272" cy="368" r="2"></circle><circle cx="296" cy="376" r="2"></circle><circle cx="321" cy="385" r="2"></circle><circle cx="345" cy="392" r="2"></circle><circle cx="369" cy="399" r="2"></circle><circle cx="394" cy="406" r="2"></circle><circle cx="418" cy="410" r="2"></circle><circle cx="442" cy="414" r="2"></circle><circle cx="467" cy="418" r="2"></circle><circle cx="491" cy="419" r="2"></circle><circle cx="516" cy="421" r="2"></circle><circle cx="540" cy="423" r="2"></circle><circle cx="564" cy="425" r="2"></circle><circle cx="589" cy="427" r="2"></circle><circle cx="613" cy="429" r="2"></circle><circle cx="637" cy="430" r="2"></circle></g></g><g class="key-South-Asia_0"><path stroke="#a652ba" stroke-linecap="round" d="M53 215L77 227L101 224L126 225L150 230L174 242L199 256L223 271L248 283L272 290L296 286L321 276L345 264L369 257L394 257L418 266L442 283L467 300L491 310L516 316L540 317L564 319L589 319L613 320L637 321" fill="none" stroke-width="1.5"></path><g fill="#a652ba"><circle cx="53" cy="215" r="2"></circle><circle cx="77" cy="227" r="2"></circle><circle cx="101" cy="224" r="2"></circle><circle cx="126" cy="225" r="2"></circle><circle cx="150" cy="230" r="2"></circle><circle cx="174" cy="242" r="2"></circle><circle cx="199" cy="256" r="2"></circle><circle cx="223" cy="271" r="2"></circle><circle cx="248" cy="283" r="2"></circle><circle cx="272" cy="290" r="2"></circle><circle cx="296" cy="286" r="2"></circle><circle cx="321" cy="276" r="2"></circle><circle cx="345" cy="264" r="2"></circle><circle cx="369" cy="257" r="2"></circle><circle cx="394" cy="257" r="2"></circle><circle cx="418" cy="266" r="2"></circle><circle cx="442" cy="283" r="2"></circle><circle cx="467" cy="300" r="2"></circle><circle cx="491" cy="310" r="2"></circle><circle cx="516" cy="316" r="2"></circle><circle cx="540" cy="317" r="2"></circle><circle cx="564" cy="319" r="2"></circle><circle cx="589" cy="319" r="2"></circle><circle cx="613" cy="320" r="2"></circle><circle cx="637" cy="321" r="2"></circle></g></g><g class="key-Middle-East-__0026-North-Africa_0"><path stroke="#ca2628" stroke-linecap="round" d="M53 429L77 426L101 424L126 418L150 415L174 412L199 410L223 409L248 409L272 411L296 411L321 410L345 409L369 408L394 409L418 408L442 409L467 410L491 412L516 414L540 416L564 418L589 419L613 421L637 421" fill="none" stroke-width="1.5"></path><g fill="#ca2628"><circle cx="53" cy="429" r="2"></circle><circle cx="77" cy="426" r="2"></circle><circle cx="101" cy="424" r="2"></circle><circle cx="126" cy="418" r="2"></circle><circle cx="150" cy="415" r="2"></circle><circle cx="174" cy="412" r="2"></circle><circle cx="199" cy="410" r="2"></circle><circle cx="223" cy="409" r="2"></circle><circle cx="248" cy="409" r="2"></circle><circle cx="272" cy="411" r="2"></circle><circle cx="296" cy="411" r="2"></circle><circle cx="321" cy="410" r="2"></circle><circle cx="345" cy="409" r="2"></circle><circle cx="369" cy="408" r="2"></circle><circle cx="394" cy="409" r="2"></circle><circle cx="418" cy="408" r="2"></circle><circle cx="442" cy="409" r="2"></circle><circle cx="467" cy="410" r="2"></circle><circle cx="491" cy="412" r="2"></circle><circle cx="516" cy="414" r="2"></circle><circle cx="540" cy="416" r="2"></circle><circle cx="564" cy="418" r="2"></circle><circle cx="589" cy="419" r="2"></circle><circle cx="613" cy="421" r="2"></circle><circle cx="637" cy="421" r="2"></circle></g></g><g class="key-Sub__002dSaharan-Africa_0"><path stroke="#2a939b" stroke-linecap="round" d="M53 109L77 116L101 121L126 124L150 132L174 140L199 149L223 157L248 167L272 176L296 185L321 191L345 199L369 210L394 222L418 236L442 246L467 254L491 261L516 269L540 276L564 283L589 287L613 290L637 293" fill="none" stroke-width="1.5"></path><g fill="#2a939b"><circle cx="53" cy="109" r="2"></circle><circle cx="77" cy="116" r="2"></circle><circle cx="101" cy="121" r="2"></circle><circle cx="126" cy="124" r="2"></circle><circle cx="150" cy="132" r="2"></circle><circle cx="174" cy="140" r="2"></circle><circle cx="199" cy="149" r="2"></circle><circle cx="223" cy="157" r="2"></circle><circle cx="248" cy="167" r="2"></circle><circle cx="272" cy="176" r="2"></circle><circle cx="296" cy="185" r="2"></circle><circle cx="321" cy="191" r="2"></circle><circle cx="345" cy="199" r="2"></circle><circle cx="369" cy="210" r="2"></circle><circle cx="394" cy="222" r="2"></circle><circle cx="418" cy="236" r="2"></circle><circle cx="442" cy="246" r="2"></circle><circle cx="467" cy="254" r="2"></circle><circle cx="491" cy="261" r="2"></circle><circle cx="516" cy="269" r="2"></circle><circle cx="540" cy="276" r="2"></circle><circle cx="564" cy="283" r="2"></circle><circle cx="589" cy="287" r="2"></circle><circle cx="613" cy="290" r="2"></circle><circle cx="637" cy="293" r="2"></circle></g></g></g></g></g><g style="fill: #777;" class="SourcesFooter"><g style="fill: #777;" class="clickable"><text font-size="12.60" x="15.0" y="567.9"><tspan x="15" y="567.88">Source: World Bank</tspan></text></g><text font-size="12.60" x="15.0" y="582.5"><tspan x="15" y="582.48">Note: Developed countries are not included in the regional estimates since the prevalence is below 5%.</tspan></text><text font-size="12.60" x="471.1" y="567.9"><tspan x="471.112" y="567.88"><a target='_blank' style='fill: #777;' href='https://ourworldindata.org/hunger-and-undernourishment/'>OurWorldInData.org/hunger-and-undernourishment/</a> • <a style="fill: #777;" href="http://creativecommons.org/licenses/by-sa/4.0/deed.en_US" target="_blank">CC BY-SA</a></tspan></text></g></g></svg>