<svg xmlns="http://www.w3.org/2000/svg" version="1.1" style="background-color:#fff;-webkit-font-smoothing:antialiased" width="850" height="600" font-family="'Helvetica Neue',Helvetica,Arial,sans-serif" font-size="18" text-rendering="optimizeLegibility"><g class="ChartTab"><g class="HeaderView"><g opacity=".8" transform="matrix(.27 0 0 .27 778 15)"><a xmlns:xlink="http://www.w3.org/1999/xlink" xlink:href="https://ourworldindata.org" target="_blank"><g><path fill="#1B2543" d="M0 0h211.2v130.1H0z"/><path fill="#E63912" d="M0 112.2h211.2v17.9H0z"/><g><path fill="none" d="M1.2 12.3h210.2v99.2H1.2z"/><path fill="#FFF" d="M37.8 32.2c0 12.7-7.7 19.4-17.1 19.4-9.7 0-16.6-7.5-16.6-18.7 0-11.7 7.3-19.3 17.1-19.3 10.1.1 16.6 7.7 16.6 18.6zm-28.6.6c0 7.9 4.3 14.9 11.8 14.9 7.5 0 11.8-6.9 11.8-15.3 0-7.3-3.8-14.9-11.8-14.9-7.9 0-11.8 7.3-11.8 15.3zM62.7 43.8c0 2.7.1 5.1.2 7.2h-4.3l-.3-4.3h-.1c-1.3 2.1-4 4.9-8.8 4.9-4.2 0-9.1-2.3-9.1-11.6V24.6h4.8v14.6c0 5 1.5 8.4 5.9 8.4 3.2 0 5.5-2.2 6.3-4.4.3-.7.4-1.6.4-2.5V24.6h4.8v19.2zM67.3 32.8c0-3.1-.1-5.8-.2-8.2h4.2l.2 5.2h.2c1.2-3.5 4.1-5.8 7.3-5.8.5 0 .9.1 1.4.2v4.5c-.5-.1-1-.2-1.6-.2-3.4 0-5.8 2.6-6.5 6.2-.1.7-.2 1.4-.2 2.2V51h-4.8V32.8zM95.4 51L86 14.2h5l4.4 18.6c1.1 4.6 2.1 9.2 2.7 12.7h.1c.6-3.7 1.8-8 3-12.8l4.9-18.5h5l4.5 18.7c1 4.4 2 8.7 2.6 12.6h.1c.8-4 1.8-8.1 3-12.7l4.9-18.5h4.9L120.6 51h-5L111 31.9c-1.1-4.7-1.9-8.3-2.4-12h-.1c-.7 3.7-1.5 7.3-2.8 12L100.4 51h-5zM154.9 37.6c0 9.8-6.8 14-13.2 14-7.2 0-12.7-5.2-12.7-13.6 0-8.8 5.8-14 13.1-14 7.7 0 12.8 5.5 12.8 13.6zm-21 .3c0 5.8 3.3 10.1 8 10.1 4.6 0 8-4.3 8-10.3 0-4.5-2.2-10.1-7.9-10.1s-8.1 5.2-8.1 10.3zM158.2 32.8c0-3.1-.1-5.8-.2-8.2h4.2l.2 5.2h.2c1.2-3.5 4.1-5.8 7.3-5.8.5 0 .9.1 1.4.2v4.5c-.5-.1-1-.2-1.6-.2-3.4 0-5.8 2.6-6.5 6.2-.1.7-.2 1.4-.2 2.2V51h-4.8V32.8zM173.5 12.3h4.8V51h-4.8V12.3zM206.5 12.3v31.9c0 2.3.1 5 .2 6.8h-4.3l-.2-4.6h-.2c-1.5 2.9-4.7 5.2-9 5.2-6.4 0-11.3-5.4-11.3-13.4-.1-8.8 5.4-14.2 11.9-14.2 4 0 6.8 1.9 8 4h.1V12.3h4.8zm-4.8 23.1c0-.6-.1-1.4-.2-2a7 7 0 00-6.9-5.6c-5 0-7.9 4.4-7.9 10.2 0 5.3 2.6 9.8 7.8 9.8 3.2 0 6.2-2.1 7.1-5.7.2-.7.2-1.3.2-2.1v-4.6zM42.8 64c.1 1.6-1.1 2.9-3.1 2.9-1.7 0-2.9-1.3-2.9-2.9 0-1.7 1.3-3 3-3 1.9 0 3 1.3 3 3zm-5.4 33.8V71.4h4.8v26.4h-4.8zM47.5 78.6c0-2.7-.1-5-.2-7.1h4.3l.3 4.4h.1c1.3-2.5 4.4-5 8.8-5 3.7 0 9.4 2.2 9.4 11.2v15.8h-4.8V82.6c0-4.3-1.6-7.8-6.1-7.8-3.2 0-5.6 2.2-6.5 4.9-.2.6-.3 1.4-.3 2.2v15.9h-4.8V78.6zM84 61.6c2.9-.4 6.3-.8 10.1-.8 6.8 0 11.7 1.6 14.9 4.6 3.3 3 5.2 7.3 5.2 13.2 0 6-1.9 10.9-5.3 14.3-3.4 3.4-9.1 5.3-16.3 5.3-3.4 0-6.2-.2-8.6-.4V61.6zm4.8 32.5c1.2.2 3 .3 4.8.3 10.2 0 15.7-5.7 15.7-15.6.1-8.7-4.9-14.2-14.9-14.2-2.5 0-4.3.2-5.6.5v29zM132.1 97.8l-.4-3.3h-.2a9.79 9.79 0 01-8.1 3.9c-5.4 0-8.1-3.8-8.1-7.6 0-6.4 5.7-9.9 15.9-9.8v-.5c0-2.2-.6-6.1-6-6.1-2.5 0-5 .8-6.9 2l-1.1-3.2c2.2-1.4 5.4-2.3 8.7-2.3 8.1 0 10.1 5.5 10.1 10.8v9.9c0 2.3.1 4.5.4 6.3h-4.3zm-.7-13.4c-5.3-.1-11.2.8-11.2 5.9 0 3.1 2.1 4.6 4.5 4.6 3.4 0 5.6-2.2 6.4-4.4.2-.5.3-1 .3-1.5v-4.6zM146.6 63.9v7.6h6.9v3.7h-6.9v14.2c0 3.3.9 5.1 3.6 5.1 1.3 0 2.2-.2 2.8-.3l.2 3.6c-.9.4-2.4.7-4.3.7-2.2 0-4-.7-5.2-2-1.4-1.4-1.9-3.8-1.9-6.9V75.1h-4.1v-3.7h4.1v-6.3l4.8-1.2zM171.4 97.8l-.4-3.3h-.2a9.79 9.79 0 01-8.1 3.9c-5.4 0-8.1-3.8-8.1-7.6 0-6.4 5.7-9.9 15.9-9.8v-.5c0-2.2-.6-6.1-6-6.1-2.5 0-5 .8-6.9 2l-1.1-3.2c2.2-1.4 5.4-2.3 8.7-2.3 8.1 0 10.1 5.5 10.1 10.8v9.9c0 2.3.1 4.5.4 6.3h-4.3zm-.7-13.4c-5.3-.1-11.2.8-11.2 5.9 0 3.1 2.1 4.6 4.5 4.6 3.4 0 5.6-2.2 6.4-4.4.2-.5.3-1 .3-1.5v-4.6z"/></g></g></a></g><a href="https://ourworldindata.org/grapher/renewable-energy-investment?country=Americas%20(excl.%20US%20and%20Brazil)+Asia%20and%20Oceania%20(excl.%20China%20and%20India)+BRA+CHN+Europe+IND+Middle%20East%20and%20Africa+United%20States%20of%20America" target="_blank"><text font-size="25.2" x="15" y="35.2" fill="#555"><tspan x="15" y="35.16">Renewable Energy Investment</tspan></text></a><text font-size="14.4" x="15" y="53.7" fill="#666"><tspan x="15" y="53.72">Investment in renewable energy technologies per year in billion US dollars by region.</tspan></text></g><g class="StackedArea"><defs><clipPath id="a"><path d="M102.3 0h820v959.8h-820z"/></clipPath></defs><g class="AxisBoxView"><g class="HorizontalAxis" fill="#666" text-anchor="middle" font-size="16.2"><text x="102.3" y="556.5">2004</text><text x="208.3" y="556.5">2006</text><text x="314.2" y="556.5">2008</text><text x="420.2" y="556.5">2010</text><text x="526.2" y="556.5">2012</text><text x="632.1" y="556.5">2014</text><text x="685.1" y="556.5">2015</text></g><g class="VerticalAxis" fill="#666" dominant-baseline="middle" text-anchor="end" font-size="16.2"><text x="97.3" y="535.3">$0</text><text x="97.3" y="455.1">$50 billion</text><text x="97.3" y="374.9">$100 billion</text><text x="97.3" y="294.7">$150 billion</text><text x="97.3" y="214.5">$200 billion</text><text x="97.3" y="134.2">$250 billion</text></g><g class="AxisGridLines"><path stroke="#ccc" d="M102.3 535.3h582.82"/><path stroke="#ddd" stroke-dasharray="3,2" d="M102.3 455.1h582.82M102.3 374.9h582.82M102.3 294.7h582.82M102.3 214.5h582.82M102.3 134.2h582.82"/></g></g><g clip-path="url(#a)"><g class="HeightedLegend clickable"><g class="legendMark"><g class="indicator" stroke="#666" stroke-width=".5"><path d="M690.12 86.9h12.5M702.62 86.9h0M702.62 86.9h12.5"/></g><text font-size="13.5" x="720.1" y="83.7" fill="#34983f"><tspan x="720.12" y="83.65">Americas (excl. US</tspan><tspan x="720.12" y="98.5">and Brazil)</tspan></text></g><g class="legendMark"><g class="indicator" stroke="#666" stroke-width=".5"><path d="M690.12 135.3h12.5M702.62 135.3h0M702.62 135.3h12.5"/></g><text font-size="13.5" x="720.1" y="124.8" fill="#932834"><tspan x="720.12" y="124.75">Asia and Oceania</tspan><tspan x="720.12" y="139.6">(excl. China and</tspan><tspan x="720.12" y="154.45">India)</tspan></text></g><g class="legendMark"><g class="indicator" stroke="#666" stroke-width=".5"><path d="M690.12 179.2h12.5M702.62 179.2h0M702.62 179.2h12.5"/></g><text font-size="13.5" x="720.1" y="183.3" fill="#9ecc8a"><tspan x="720.12" y="183.25">Brazil</tspan></text></g><g class="legendMark"><g class="indicator" stroke="#666" stroke-width=".5"><path d="M690.12 267.5h12.5M702.62 267.5h0M702.62 267.5h12.5"/></g><text font-size="13.5" x="720.1" y="271.6" fill="#ca2628"><tspan x="720.12" y="271.55">China</tspan></text></g><g class="legendMark"><g class="indicator" stroke="#666" stroke-width=".5"><path d="M690.12 389.1h12.5M702.62 389.1h0M702.62 389.1h12.5"/></g><text font-size="13.5" x="720.1" y="393.2" fill="#ffd53e"><tspan x="720.12" y="393.15">Europe</tspan></text></g><g class="legendMark"><g class="indicator" stroke="#666" stroke-width=".5"><path d="M690.12 436.4h22.5M712.62 436.4h0M712.62 436.4h2.5"/></g><text font-size="13.5" x="720.1" y="440.4" fill="#f6a324"><tspan x="720.12" y="440.45">India</tspan></text></g><g class="legendMark"><g class="indicator" stroke="#666" stroke-width=".5"><path d="M690.12 454.5h12.5M702.62 454.5v4.7M702.62 459.2h12.5"/></g><text font-size="13.5" x="720.1" y="455.9" fill="#d26e66"><tspan x="720.12" y="455.95">Middle East and</tspan><tspan x="720.12" y="470.8">Africa</tspan></text></g><g class="legendMark"><g class="indicator" stroke="#666" stroke-width=".5"><path d="M690.12 499.9h12.5M702.62 499.9h0M702.62 499.9h12.5"/></g><text font-size="13.5" x="720.1" y="496.6" fill="#2a939b"><tspan x="720.12" y="496.65">United States of</tspan><tspan x="720.12" y="511.5">America</tspan></text></g></g><g class="Areas"><path d="M102.3 526.4l53-10.1 53-27.6 52.9-6.7 53-3.6 53 18.5 53-17.3 53-23 53 13.5 52.9 8.5 53-2.7 53-11.4.01 70.8H102.3" fill="#2a939b" fill-opacity=".7" class="United-States-of-America_0-area"/><path d="M102.3 525.5l53-10.5 53-28.1 52.9-7.8 53-4.4 53 19.6 53-21.2 53-21.3 53 2 52.9 10 53-.6 53-18.7v20l-53 11.4-53 2.7-52.9-8.5-53-13.5-53 23-53 17.3-53-18.5-53 3.6-52.9 6.7-53 27.6-53 10.1" fill="#d26e66" fill-opacity=".7" class="Middle-East-and-Africa_0-area"/><path d="M102.3 521.1l53-11 53-31 52.9-10.8 53-2.6 53 21.7 53-28.5 53-27.6 53 10 52.9 11.9 53-3.3 53-21.7v16.3l-53 18.7-53 .6-52.9-10-53-2-53 21.3-53 21.2-53-19.6-53 4.4-52.9 7.8-53 28.1-53 10.5" fill="#f6a324" fill-opacity=".7" class="India_0-area"/><path d="M102.3 481.3l53-24.7 53-52.7 52.9-42.7 53-26.7 53 20.3 53-77.8 53-42.8 53 64.2 52.9 58.6 53-6.6 53-.4v78.2l-53 21.7-53 3.3-52.9-11.9-53-10-53 27.6-53 28.5-53-21.7-53 2.6-52.9 10.8-53 31-53 11" fill="#ffd53e" fill-opacity=".7" class="Europe_0-area"/><path d="M102.3 476.5l53-33.2 53-57.5 52.9-51.5 53-40.9 53-.8 53-79.2 53-55.3 53 41.3 52.9 58.1 53-47.9 53-24.7V350l-53 .4-53 6.6-52.9-58.6-53-64.2-53 42.8-53 77.8-53-20.3-53 26.7-52.9 42.7-53 52.7-53 24.7" fill="#ca2628" fill-opacity=".7" class="China_0-area"/><path d="M102.3 475.1l53-36.8 53-60.7 52.9-61.5 53-41.5 53 5.3 53-78.1 53-60.1 53 45.4 52.9 63.4 53-53.7 53-23.3v11.4l-53 24.7-53 47.9-52.9-58.1-53-41.3-53 55.3-53 79.2-53 .8-53 40.9-52.9 51.5-53 57.5-53 33.2" fill="#9ecc8a" fill-opacity=".7" class="Brazil_0-area"/><path d="M102.3 463.3l53-39.5 53-62.3 52.9-65.2 53-43.6 53 4.9 53-86.8 53-67.4 53 35.3 52.9 40.5 53-60.6 53-21.4v76.3l-53 23.3-53 53.7-52.9-63.4-53-45.4-53 60.1-53 78.1-53-5.3-53 41.5-52.9 61.5-53 60.7-53 36.8" fill="#932834" fill-opacity=".7" class="Asia-and-Oceania-__0028excl__002e-China-and-India__0029_0-area"/><path d="M102.3 460.5l53-42.1 53-62.8 52.9-67.4 53-45.2 53 5.7 53-97.1 53-63.1 53 34.1 52.9 37.3 53-62.6 53-20.7v20.6l-53 21.4-53 60.6-52.9-40.5-53-35.3-53 67.4-53 86.8-53-4.9-53 43.6-52.9 65.2-53 62.3-53 39.5" fill="#34983f" fill-opacity=".7" class="Americas-__0028excl__002e-US-and-Brazil__0029_0-area"/><path stroke-linecap="round" d="M102.3 526.4l53-10.1 53-27.6 52.9-6.7 53-3.6 53 18.5 53-17.3 53-23 53 13.5 52.9 8.5 53-2.7 53-11.4" stroke="#237B82" stroke-opacity=".7" stroke-width=".5" fill="none" class="United-States-of-America_0-border"/><path stroke-linecap="round" d="M102.3 525.5l53-10.5 53-28.1 52.9-7.8 53-4.4 53 19.6 53-21.2 53-21.3 53 2 52.9 10 53-.6 53-18.7" stroke="#B05C55" stroke-opacity=".7" stroke-width=".5" fill="none" class="Middle-East-and-Africa_0-border"/><path stroke-linecap="round" d="M102.3 521.1l53-11 53-31 52.9-10.8 53-2.6 53 21.7 53-28.5 53-27.6 53 10 52.9 11.9 53-3.3 53-21.7" stroke="#CE881E" stroke-opacity=".7" stroke-width=".5" fill="none" class="India_0-border"/><path stroke-linecap="round" d="M102.3 481.3l53-24.7 53-52.7 52.9-42.7 53-26.7 53 20.3 53-77.8 53-42.8 53 64.2 52.9 58.6 53-6.6 53-.4" stroke="#D5B234" stroke-opacity=".7" stroke-width=".5" fill="none" class="Europe_0-border"/><path stroke-linecap="round" d="M102.3 476.5l53-33.2 53-57.5 52.9-51.5 53-40.9 53-.8 53-79.2 53-55.3 53 41.3 52.9 58.1 53-47.9 53-24.7" stroke="#A92021" stroke-opacity=".7" stroke-width=".5" fill="none" class="China_0-border"/><path stroke-linecap="round" d="M102.3 475.1l53-36.8 53-60.7 52.9-61.5 53-41.5 53 5.3 53-78.1 53-60.1 53 45.4 52.9 63.4 53-53.7 53-23.3" stroke="#84AB73" stroke-opacity=".7" stroke-width=".5" fill="none" class="Brazil_0-border"/><path stroke-linecap="round" d="M102.3 463.3l53-39.5 53-62.3 52.9-65.2 53-43.6 53 4.9 53-86.8 53-67.4 53 35.3 52.9 40.5 53-60.6 53-21.4" stroke="#7B212C" stroke-opacity=".7" stroke-width=".5" fill="none" class="Asia-and-Oceania-__0028excl__002e-China-and-India__0029_0-border"/><path stroke-linecap="round" d="M102.3 460.5l53-42.1 53-62.8 52.9-67.4 53-45.2 53 5.7 53-97.1 53-63.1 53 34.1 52.9 37.3 53-62.6 53-20.7" stroke="#2C7F35" stroke-opacity=".7" stroke-width=".5" fill="none" class="Americas-__0028excl__002e-US-and-Brazil__0029_0-border"/></g></g></g><g class="SourcesFooter" fill="#777"><g class="clickable" fill="#777"><text font-size="12.6" x="15" y="581.6"><tspan x="15" y="581.58">Source: International Renewable Energy Agency, 2017</tspan></text></g><text font-size="12.6" x="367.9" y="581.6"><tspan x="367.92" y="581.58"><a target="_blank" href="https://ourworldindata.org/energy-production-and-changing-energy-sources/" fill="#777">OurWorldInData.org/energy-production-and-changing-energy-sources/</a> • <a class="cclogo" href="http://creativecommons.org/licenses/by-sa/4.0/deed.en_US" target="_blank" fill="#777">CC BY-SA</a></tspan></text></g></g></svg>