<svg xmlns="http://www.w3.org/2000/svg" version="1.1" style="background-color:#fff;-webkit-font-smoothing:antialiased" width="850" height="600" font-family="'Helvetica Neue',Helvetica,Arial,sans-serif" font-size="18" text-rendering="optimizeLegibility"><g class="ChartTab"><g class="HeaderView"><g opacity=".8" transform="matrix(.31 0 0 .31 770 15)"><a xmlns:xlink="http://www.w3.org/1999/xlink" xlink:href="https://ourworldindata.org" target="_blank"><g><path fill="#1B2543" d="M0 0h211.2v130.1H0z"/><path fill="#E63912" d="M0 112.2h211.2v17.9H0z"/><g><path fill="none" d="M1.2 12.3h210.2v99.2H1.2z"/><path fill="#FFF" d="M37.8 32.2c0 12.7-7.7 19.4-17.1 19.4-9.7 0-16.6-7.5-16.6-18.7 0-11.7 7.3-19.3 17.1-19.3 10.1.1 16.6 7.7 16.6 18.6zm-28.6.6c0 7.9 4.3 14.9 11.8 14.9 7.5 0 11.8-6.9 11.8-15.3 0-7.3-3.8-14.9-11.8-14.9-7.9 0-11.8 7.3-11.8 15.3zM62.7 43.8c0 2.7.1 5.1.2 7.2h-4.3l-.3-4.3h-.1c-1.3 2.1-4 4.9-8.8 4.9-4.2 0-9.1-2.3-9.1-11.6V24.6h4.8v14.6c0 5 1.5 8.4 5.9 8.4 3.2 0 5.5-2.2 6.3-4.4.3-.7.4-1.6.4-2.5V24.6h4.8v19.2zM67.3 32.8c0-3.1-.1-5.8-.2-8.2h4.2l.2 5.2h.2c1.2-3.5 4.1-5.8 7.3-5.8.5 0 .9.1 1.4.2v4.5c-.5-.1-1-.2-1.6-.2-3.4 0-5.8 2.6-6.5 6.2-.1.7-.2 1.4-.2 2.2V51h-4.8V32.8zM95.4 51L86 14.2h5l4.4 18.6c1.1 4.6 2.1 9.2 2.7 12.7h.1c.6-3.7 1.8-8 3-12.8l4.9-18.5h5l4.5 18.7c1 4.4 2 8.7 2.6 12.6h.1c.8-4 1.8-8.1 3-12.7l4.9-18.5h4.9L120.6 51h-5L111 31.9c-1.1-4.7-1.9-8.3-2.4-12h-.1c-.7 3.7-1.5 7.3-2.8 12L100.4 51h-5zM154.9 37.6c0 9.8-6.8 14-13.2 14-7.2 0-12.7-5.2-12.7-13.6 0-8.8 5.8-14 13.1-14 7.7 0 12.8 5.5 12.8 13.6zm-21 .3c0 5.8 3.3 10.1 8 10.1 4.6 0 8-4.3 8-10.3 0-4.5-2.2-10.1-7.9-10.1s-8.1 5.2-8.1 10.3zM158.2 32.8c0-3.1-.1-5.8-.2-8.2h4.2l.2 5.2h.2c1.2-3.5 4.1-5.8 7.3-5.8.5 0 .9.1 1.4.2v4.5c-.5-.1-1-.2-1.6-.2-3.4 0-5.8 2.6-6.5 6.2-.1.7-.2 1.4-.2 2.2V51h-4.8V32.8zM173.5 12.3h4.8V51h-4.8V12.3zM206.5 12.3v31.9c0 2.3.1 5 .2 6.8h-4.3l-.2-4.6h-.2c-1.5 2.9-4.7 5.2-9 5.2-6.4 0-11.3-5.4-11.3-13.4-.1-8.8 5.4-14.2 11.9-14.2 4 0 6.8 1.9 8 4h.1V12.3h4.8zm-4.8 23.1c0-.6-.1-1.4-.2-2a7 7 0 00-6.9-5.6c-5 0-7.9 4.4-7.9 10.2 0 5.3 2.6 9.8 7.8 9.8 3.2 0 6.2-2.1 7.1-5.7.2-.7.2-1.3.2-2.1v-4.6zM42.8 64c.1 1.6-1.1 2.9-3.1 2.9-1.7 0-2.9-1.3-2.9-2.9 0-1.7 1.3-3 3-3 1.9 0 3 1.3 3 3zm-5.4 33.8V71.4h4.8v26.4h-4.8zM47.5 78.6c0-2.7-.1-5-.2-7.1h4.3l.3 4.4h.1c1.3-2.5 4.4-5 8.8-5 3.7 0 9.4 2.2 9.4 11.2v15.8h-4.8V82.6c0-4.3-1.6-7.8-6.1-7.8-3.2 0-5.6 2.2-6.5 4.9-.2.6-.3 1.4-.3 2.2v15.9h-4.8V78.6zM84 61.6c2.9-.4 6.3-.8 10.1-.8 6.8 0 11.7 1.6 14.9 4.6 3.3 3 5.2 7.3 5.2 13.2 0 6-1.9 10.9-5.3 14.3-3.4 3.4-9.1 5.3-16.3 5.3-3.4 0-6.2-.2-8.6-.4V61.6zm4.8 32.5c1.2.2 3 .3 4.8.3 10.2 0 15.7-5.7 15.7-15.6.1-8.7-4.9-14.2-14.9-14.2-2.5 0-4.3.2-5.6.5v29zM132.1 97.8l-.4-3.3h-.2a9.79 9.79 0 01-8.1 3.9c-5.4 0-8.1-3.8-8.1-7.6 0-6.4 5.7-9.9 15.9-9.8v-.5c0-2.2-.6-6.1-6-6.1-2.5 0-5 .8-6.9 2l-1.1-3.2c2.2-1.4 5.4-2.3 8.7-2.3 8.1 0 10.1 5.5 10.1 10.8v9.9c0 2.3.1 4.5.4 6.3h-4.3zm-.7-13.4c-5.3-.1-11.2.8-11.2 5.9 0 3.1 2.1 4.6 4.5 4.6 3.4 0 5.6-2.2 6.4-4.4.2-.5.3-1 .3-1.5v-4.6zM146.6 63.9v7.6h6.9v3.7h-6.9v14.2c0 3.3.9 5.1 3.6 5.1 1.3 0 2.2-.2 2.8-.3l.2 3.6c-.9.4-2.4.7-4.3.7-2.2 0-4-.7-5.2-2-1.4-1.4-1.9-3.8-1.9-6.9V75.1h-4.1v-3.7h4.1v-6.3l4.8-1.2zM171.4 97.8l-.4-3.3h-.2a9.79 9.79 0 01-8.1 3.9c-5.4 0-8.1-3.8-8.1-7.6 0-6.4 5.7-9.9 15.9-9.8v-.5c0-2.2-.6-6.1-6-6.1-2.5 0-5 .8-6.9 2l-1.1-3.2c2.2-1.4 5.4-2.3 8.7-2.3 8.1 0 10.1 5.5 10.1 10.8v9.9c0 2.3.1 4.5.4 6.3h-4.3zm-.7-13.4c-5.3-.1-11.2.8-11.2 5.9 0 3.1 2.1 4.6 4.5 4.6 3.4 0 5.6-2.2 6.4-4.4.2-.5.3-1 .3-1.5v-4.6z"/></g></g></a></g><a href="https://ourworldindata.org/grapher/reported-paralytic-polio-cases-and-deaths-in-the-united-states-since-1910" target="_blank"><text font-size="22.5" x="15" y="33" fill="#555"><tspan x="15" y="33">Reported paralytic polio cases and deaths in the United States since 1910</tspan></text></a><text font-size="14.4" x="15" y="51" fill="#666"><tspan x="15" y="51.02">The reported figures include both wild- and vaccine-derived type polio infections that occurred indigenously and as</tspan><tspan x="15" y="66.86">imported cases.</tspan></text></g><g class="LineChart"><defs><clipPath id="a"><path d="M59.9 0h830v905h-830z"/></clipPath></defs><g class="AxisBoxView"><g class="HorizontalAxis" fill="#666" text-anchor="middle" font-size="16.2"><text x="69.9" y="541.9">1910</text><text x="135.7" y="541.9">1920</text><text x="267.3" y="541.9">1940</text><text x="399" y="541.9">1960</text><text x="530.6" y="541.9">1980</text><text x="662.2" y="541.9">2000</text><text x="728.1" y="541.9">2010</text></g><g class="VerticalAxis" fill="#666" dominant-baseline="middle" text-anchor="end" font-size="16.2"><text x="64.9" y="520.7">0</text><text x="64.9" y="446.2">10,000</text><text x="64.9" y="371.7">20,000</text><text x="64.9" y="297.1">30,000</text><text x="64.9" y="222.6">40,000</text><text x="64.9" y="148.1">50,000</text></g><g class="AxisGridLines"><path stroke="#ccc" d="M69.9 520.7h658.16"/><path stroke="#ddd" stroke-dasharray="3,2" d="M69.9 446.2h658.16M69.9 371.7h658.16M69.9 297.1h658.16M69.9 222.6h658.16M69.9 148.1h658.16"/></g><g class="AxisGridLines" stroke="#ddd" stroke-dasharray="3,2"><path d="M135.7 520.7V89.4M267.3 520.7V89.4M399 520.7V89.4M530.6 520.7V89.4M662.2 520.7V89.4"/></g></g><g clip-path="url(#a)"><g class="HeightedLegend clickable"><g class="legendMark"><path fill="#ca2628" d="M738.06 512.25h10v2.5h-10z"/><text font-size="14.4" x="753.1" y="517.8" fill="#333"><tspan x="753.06" y="517.82">Polio Deaths</tspan></text></g><g class="legendMark"><path fill="#3360a9" d="M738.06 497.85h10v2.5h-10z"/><text font-size="14.4" x="753.1" y="503.4" fill="#333"><tspan x="753.06" y="503.42">Polio Cases</tspan></text></g></g><g class="Lines"><g class="key-United-States_0"><path stroke="#3360a9" stroke-linecap="round" d="M70 477l7 29h13l6 6 7-3 6-192 7 173 7 12 6 4 7-3 6-29 7 30 7-8 6-14 7-5 6 25 7-60 6 41 7 17 7-48 6-49 7 90 6-9 7-19 6-25 7 47 7-37 6 58 7-42 6-18 7 5 7 38 6-63 7-49 6 40 7-86 6 108 7-127 7-106 6 65 7 36 6-220 7 167 7-22 6 71 7 103 6 72 7-2 6-20 7 39 7 14 6 3 7 3 6 3h27l6 1h60l6-1 7 1h197" fill="none" stroke-width="1.5"/><g fill="#3360a9"><circle cx="70" cy="477" r="2"/><circle cx="77" cy="506" r="2"/><circle cx="90" cy="506" r="2"/><circle cx="96" cy="512" r="2"/><circle cx="103" cy="509" r="2"/><circle cx="109" cy="317" r="2"/><circle cx="116" cy="490" r="2"/><circle cx="123" cy="502" r="2"/><circle cx="129" cy="506" r="2"/><circle cx="136" cy="503" r="2"/><circle cx="142" cy="474" r="2"/><circle cx="149" cy="504" r="2"/><circle cx="156" cy="496" r="2"/><circle cx="162" cy="482" r="2"/><circle cx="169" cy="477" r="2"/><circle cx="175" cy="502" r="2"/><circle cx="182" cy="442" r="2"/><circle cx="188" cy="483" r="2"/><circle cx="195" cy="500" r="2"/><circle cx="202" cy="452" r="2"/><circle cx="208" cy="403" r="2"/><circle cx="215" cy="493" r="2"/><circle cx="221" cy="484" r="2"/><circle cx="228" cy="465" r="2"/><circle cx="234" cy="440" r="2"/><circle cx="241" cy="487" r="2"/><circle cx="248" cy="450" r="2"/><circle cx="254" cy="508" r="2"/><circle cx="261" cy="466" r="2"/><circle cx="267" cy="448" r="2"/><circle cx="274" cy="453" r="2"/><circle cx="281" cy="491" r="2"/><circle cx="287" cy="428" r="2"/><circle cx="294" cy="379" r="2"/><circle cx="300" cy="419" r="2"/><circle cx="307" cy="333" r="2"/><circle cx="313" cy="441" r="2"/><circle cx="320" cy="314" r="2"/><circle cx="327" cy="208" r="2"/><circle cx="333" cy="273" r="2"/><circle cx="340" cy="309" r="2"/><circle cx="346" cy="89" r="2"/><circle cx="353" cy="256" r="2"/><circle cx="360" cy="234" r="2"/><circle cx="366" cy="305" r="2"/><circle cx="373" cy="408" r="2"/><circle cx="379" cy="480" r="2"/><circle cx="386" cy="478" r="2"/><circle cx="392" cy="458" r="2"/><circle cx="399" cy="497" r="2"/><circle cx="406" cy="511" r="2"/><circle cx="412" cy="514" r="2"/><circle cx="419" cy="517" r="2"/><circle cx="425" cy="520" r="2"/><circle cx="432" cy="520" r="2"/><circle cx="439" cy="520" r="2"/><circle cx="445" cy="520" r="2"/><circle cx="452" cy="520" r="2"/><circle cx="458" cy="521" r="2"/><circle cx="465" cy="521" r="2"/><circle cx="471" cy="521" r="2"/><circle cx="478" cy="521" r="2"/><circle cx="485" cy="521" r="2"/><circle cx="491" cy="521" r="2"/><circle cx="498" cy="521" r="2"/><circle cx="504" cy="521" r="2"/><circle cx="511" cy="521" r="2"/><circle cx="518" cy="521" r="2"/><circle cx="524" cy="520" r="2"/><circle cx="531" cy="521" r="2"/><circle cx="537" cy="521" r="2"/><circle cx="544" cy="521" r="2"/><circle cx="550" cy="521" r="2"/><circle cx="557" cy="521" r="2"/><circle cx="564" cy="521" r="2"/><circle cx="570" cy="521" r="2"/><circle cx="577" cy="521" r="2"/><circle cx="583" cy="521" r="2"/><circle cx="590" cy="521" r="2"/><circle cx="596" cy="521" r="2"/><circle cx="603" cy="521" r="2"/><circle cx="610" cy="521" r="2"/><circle cx="616" cy="521" r="2"/><circle cx="623" cy="521" r="2"/><circle cx="629" cy="521" r="2"/><circle cx="636" cy="521" r="2"/><circle cx="643" cy="521" r="2"/><circle cx="649" cy="521" r="2"/><circle cx="656" cy="521" r="2"/><circle cx="662" cy="521" r="2"/><circle cx="669" cy="521" r="2"/><circle cx="675" cy="521" r="2"/><circle cx="682" cy="521" r="2"/><circle cx="689" cy="521" r="2"/><circle cx="695" cy="521" r="2"/><circle cx="702" cy="521" r="2"/><circle cx="708" cy="521" r="2"/><circle cx="715" cy="521" r="2"/><circle cx="722" cy="521" r="2"/><circle cx="728" cy="521" r="2"/></g></g><g class="key-United-States_1"><path stroke="#ca2628" stroke-linecap="round" d="M70 514l7 3 13 1h6l7-2 6-48 7 44 7 2 6 1h7l6-6 7 6 7-1 6-1 7-3 6 4 7-8 6 4 7 5 7-4 6-6 7 10h6l7-1 6-1 7 2 7-5 6 7 7-2 6-2 20-1 7-2 6 2 7-5 6 9 7-11 7-5 6 7 7 2 6-12 7 13 7 1 6 2 7 4 6 2h7l6-2 7 2 7 1h13l6 1h290" fill="none" stroke-width="1.5"/><g fill="#ca2628"><circle cx="70" cy="514" r="2"/><circle cx="77" cy="517" r="2"/><circle cx="90" cy="518" r="2"/><circle cx="96" cy="518" r="2"/><circle cx="103" cy="516" r="2"/><circle cx="109" cy="468" r="2"/><circle cx="116" cy="512" r="2"/><circle cx="123" cy="514" r="2"/><circle cx="129" cy="515" r="2"/><circle cx="136" cy="515" r="2"/><circle cx="142" cy="509" r="2"/><circle cx="149" cy="515" r="2"/><circle cx="156" cy="514" r="2"/><circle cx="162" cy="513" r="2"/><circle cx="169" cy="510" r="2"/><circle cx="175" cy="514" r="2"/><circle cx="182" cy="506" r="2"/><circle cx="188" cy="510" r="2"/><circle cx="195" cy="515" r="2"/><circle cx="202" cy="511" r="2"/><circle cx="208" cy="505" r="2"/><circle cx="215" cy="515" r="2"/><circle cx="221" cy="515" r="2"/><circle cx="228" cy="514" r="2"/><circle cx="234" cy="513" r="2"/><circle cx="241" cy="515" r="2"/><circle cx="248" cy="510" r="2"/><circle cx="254" cy="517" r="2"/><circle cx="261" cy="515" r="2"/><circle cx="267" cy="513" r="2"/><circle cx="287" cy="512" r="2"/><circle cx="294" cy="510" r="2"/><circle cx="300" cy="512" r="2"/><circle cx="307" cy="507" r="2"/><circle cx="313" cy="516" r="2"/><circle cx="320" cy="505" r="2"/><circle cx="327" cy="500" r="2"/><circle cx="333" cy="507" r="2"/><circle cx="340" cy="509" r="2"/><circle cx="346" cy="497" r="2"/><circle cx="353" cy="510" r="2"/><circle cx="360" cy="511" r="2"/><circle cx="366" cy="513" r="2"/><circle cx="373" cy="517" r="2"/><circle cx="379" cy="519" r="2"/><circle cx="386" cy="519" r="2"/><circle cx="392" cy="517" r="2"/><circle cx="399" cy="519" r="2"/><circle cx="406" cy="520" r="2"/><circle cx="412" cy="520" r="2"/><circle cx="419" cy="520" r="2"/><circle cx="425" cy="521" r="2"/><circle cx="432" cy="521" r="2"/><circle cx="439" cy="521" r="2"/><circle cx="445" cy="521" r="2"/><circle cx="452" cy="521" r="2"/><circle cx="458" cy="521" r="2"/><circle cx="465" cy="521" r="2"/><circle cx="471" cy="521" r="2"/><circle cx="478" cy="521" r="2"/><circle cx="485" cy="521" r="2"/><circle cx="491" cy="521" r="2"/><circle cx="498" cy="521" r="2"/><circle cx="504" cy="521" r="2"/><circle cx="511" cy="521" r="2"/><circle cx="518" cy="521" r="2"/><circle cx="524" cy="521" r="2"/><circle cx="531" cy="521" r="2"/><circle cx="537" cy="521" r="2"/><circle cx="544" cy="521" r="2"/><circle cx="550" cy="521" r="2"/><circle cx="557" cy="521" r="2"/><circle cx="564" cy="521" r="2"/><circle cx="570" cy="521" r="2"/><circle cx="577" cy="521" r="2"/><circle cx="583" cy="521" r="2"/><circle cx="590" cy="521" r="2"/><circle cx="596" cy="521" r="2"/><circle cx="603" cy="521" r="2"/><circle cx="610" cy="521" r="2"/><circle cx="616" cy="521" r="2"/><circle cx="623" cy="521" r="2"/><circle cx="629" cy="521" r="2"/><circle cx="636" cy="521" r="2"/><circle cx="643" cy="521" r="2"/><circle cx="649" cy="521" r="2"/><circle cx="656" cy="521" r="2"/><circle cx="662" cy="521" r="2"/><circle cx="675" cy="521" r="2"/><circle cx="682" cy="521" r="2"/><circle cx="689" cy="521" r="2"/><circle cx="695" cy="521" r="2"/><circle cx="702" cy="521" r="2"/><circle cx="708" cy="521" r="2"/><circle cx="715" cy="521" r="2"/></g></g></g></g></g><g class="SourcesFooter" fill="#777"><g class="clickable" fill="#777"><text font-size="12.6" x="15" y="567"><tspan x="15" y="566.98">Source: Our World In Data based on US Public Health Service (1910-1951) and US Center for Disease Control (1960-2010)</tspan></text></g><text font-size="12.6" x="15" y="582.5"><tspan x="15" y="582.48"><a target="_blank" href="https://ourworldindata.org/polio/" fill="#777">OurWorldInData.org/polio/</a> • <a href="http://creativecommons.org/licenses/by-sa/4.0/deed.en_US" target="_blank" fill="#777">CC BY-SA</a></tspan></text></g></g></svg>