<svg xmlns="http://www.w3.org/2000/svg" version="1.1" style="background-color:#fff;-webkit-font-smoothing:antialiased" width="850" height="600" font-family="'Helvetica Neue',Helvetica,Arial,sans-serif" font-size="18" text-rendering="optimizeLegibility"><g class="ChartTab"><g class="HeaderView"><g opacity=".8" transform="matrix(.31 0 0 .31 770 15)"><a xmlns:xlink="http://www.w3.org/1999/xlink" xlink:href="https://ourworldindata.org" target="_blank"><g><path fill="#1B2543" d="M0 0h211.2v130.1H0z"/><path fill="#E63912" d="M0 112.2h211.2v17.9H0z"/><g><path fill="none" d="M1.2 12.3h210.2v99.2H1.2z"/><path fill="#FFF" d="M37.8 32.2c0 12.7-7.7 19.4-17.1 19.4-9.7 0-16.6-7.5-16.6-18.7 0-11.7 7.3-19.3 17.1-19.3 10.1.1 16.6 7.7 16.6 18.6zm-28.6.6c0 7.9 4.3 14.9 11.8 14.9 7.5 0 11.8-6.9 11.8-15.3 0-7.3-3.8-14.9-11.8-14.9-7.9 0-11.8 7.3-11.8 15.3zM62.7 43.8c0 2.7.1 5.1.2 7.2h-4.3l-.3-4.3h-.1c-1.3 2.1-4 4.9-8.8 4.9-4.2 0-9.1-2.3-9.1-11.6V24.6h4.8v14.6c0 5 1.5 8.4 5.9 8.4 3.2 0 5.5-2.2 6.3-4.4.3-.7.4-1.6.4-2.5V24.6h4.8v19.2zM67.3 32.8c0-3.1-.1-5.8-.2-8.2h4.2l.2 5.2h.2c1.2-3.5 4.1-5.8 7.3-5.8.5 0 .9.1 1.4.2v4.5c-.5-.1-1-.2-1.6-.2-3.4 0-5.8 2.6-6.5 6.2-.1.7-.2 1.4-.2 2.2V51h-4.8V32.8zM95.4 51L86 14.2h5l4.4 18.6c1.1 4.6 2.1 9.2 2.7 12.7h.1c.6-3.7 1.8-8 3-12.8l4.9-18.5h5l4.5 18.7c1 4.4 2 8.7 2.6 12.6h.1c.8-4 1.8-8.1 3-12.7l4.9-18.5h4.9L120.6 51h-5L111 31.9c-1.1-4.7-1.9-8.3-2.4-12h-.1c-.7 3.7-1.5 7.3-2.8 12L100.4 51h-5zM154.9 37.6c0 9.8-6.8 14-13.2 14-7.2 0-12.7-5.2-12.7-13.6 0-8.8 5.8-14 13.1-14 7.7 0 12.8 5.5 12.8 13.6zm-21 .3c0 5.8 3.3 10.1 8 10.1 4.6 0 8-4.3 8-10.3 0-4.5-2.2-10.1-7.9-10.1s-8.1 5.2-8.1 10.3zM158.2 32.8c0-3.1-.1-5.8-.2-8.2h4.2l.2 5.2h.2c1.2-3.5 4.1-5.8 7.3-5.8.5 0 .9.1 1.4.2v4.5c-.5-.1-1-.2-1.6-.2-3.4 0-5.8 2.6-6.5 6.2-.1.7-.2 1.4-.2 2.2V51h-4.8V32.8zM173.5 12.3h4.8V51h-4.8V12.3zM206.5 12.3v31.9c0 2.3.1 5 .2 6.8h-4.3l-.2-4.6h-.2c-1.5 2.9-4.7 5.2-9 5.2-6.4 0-11.3-5.4-11.3-13.4-.1-8.8 5.4-14.2 11.9-14.2 4 0 6.8 1.9 8 4h.1V12.3h4.8zm-4.8 23.1c0-.6-.1-1.4-.2-2a7 7 0 00-6.9-5.6c-5 0-7.9 4.4-7.9 10.2 0 5.3 2.6 9.8 7.8 9.8 3.2 0 6.2-2.1 7.1-5.7.2-.7.2-1.3.2-2.1v-4.6zM42.8 64c.1 1.6-1.1 2.9-3.1 2.9-1.7 0-2.9-1.3-2.9-2.9 0-1.7 1.3-3 3-3 1.9 0 3 1.3 3 3zm-5.4 33.8V71.4h4.8v26.4h-4.8zM47.5 78.6c0-2.7-.1-5-.2-7.1h4.3l.3 4.4h.1c1.3-2.5 4.4-5 8.8-5 3.7 0 9.4 2.2 9.4 11.2v15.8h-4.8V82.6c0-4.3-1.6-7.8-6.1-7.8-3.2 0-5.6 2.2-6.5 4.9-.2.6-.3 1.4-.3 2.2v15.9h-4.8V78.6zM84 61.6c2.9-.4 6.3-.8 10.1-.8 6.8 0 11.7 1.6 14.9 4.6 3.3 3 5.2 7.3 5.2 13.2 0 6-1.9 10.9-5.3 14.3-3.4 3.4-9.1 5.3-16.3 5.3-3.4 0-6.2-.2-8.6-.4V61.6zm4.8 32.5c1.2.2 3 .3 4.8.3 10.2 0 15.7-5.7 15.7-15.6.1-8.7-4.9-14.2-14.9-14.2-2.5 0-4.3.2-5.6.5v29zM132.1 97.8l-.4-3.3h-.2a9.79 9.79 0 01-8.1 3.9c-5.4 0-8.1-3.8-8.1-7.6 0-6.4 5.7-9.9 15.9-9.8v-.5c0-2.2-.6-6.1-6-6.1-2.5 0-5 .8-6.9 2l-1.1-3.2c2.2-1.4 5.4-2.3 8.7-2.3 8.1 0 10.1 5.5 10.1 10.8v9.9c0 2.3.1 4.5.4 6.3h-4.3zm-.7-13.4c-5.3-.1-11.2.8-11.2 5.9 0 3.1 2.1 4.6 4.5 4.6 3.4 0 5.6-2.2 6.4-4.4.2-.5.3-1 .3-1.5v-4.6zM146.6 63.9v7.6h6.9v3.7h-6.9v14.2c0 3.3.9 5.1 3.6 5.1 1.3 0 2.2-.2 2.8-.3l.2 3.6c-.9.4-2.4.7-4.3.7-2.2 0-4-.7-5.2-2-1.4-1.4-1.9-3.8-1.9-6.9V75.1h-4.1v-3.7h4.1v-6.3l4.8-1.2zM171.4 97.8l-.4-3.3h-.2a9.79 9.79 0 01-8.1 3.9c-5.4 0-8.1-3.8-8.1-7.6 0-6.4 5.7-9.9 15.9-9.8v-.5c0-2.2-.6-6.1-6-6.1-2.5 0-5 .8-6.9 2l-1.1-3.2c2.2-1.4 5.4-2.3 8.7-2.3 8.1 0 10.1 5.5 10.1 10.8v9.9c0 2.3.1 4.5.4 6.3h-4.3zm-.7-13.4c-5.3-.1-11.2.8-11.2 5.9 0 3.1 2.1 4.6 4.5 4.6 3.4 0 5.6-2.2 6.4-4.4.2-.5.3-1 .3-1.5v-4.6z"/></g></g></a></g><a href="https://ourworldindata.org/grapher/rice-consumption-vs-latitude" target="_blank"><text font-size="27" x="15" y="36.6" fill="#555"><tspan x="15" y="36.6">Rice consumption vs. latitude, 2013</tspan></text></a><text font-size="14.4" x="15" y="55.5" fill="#666"><tspan x="15" y="55.52">Average per capita rice consumption, measured in kilograms per person per year vs. latitude, calculated as the</tspan><tspan x="15" y="71.36">latitude of the capital city, divided 90 to provide a scale from 0 to 1.</tspan></text></g><g><g class="AxisBoxView"><g class="HorizontalAxis"><text font-size="12.6" x="289.8" y="539.4"><tspan x="289.78" y="539.38">Latitude (scale from 0 to 1)</tspan></text><text x="169.5" y="519.3" fill="#666" text-anchor="middle" font-size="16.2">0.1</text><text x="257.1" y="519.3" fill="#666" text-anchor="middle" font-size="16.2">0.2</text><text x="344.8" y="519.3" fill="#666" text-anchor="middle" font-size="16.2">0.3</text><text x="432.5" y="519.3" fill="#666" text-anchor="middle" font-size="16.2">0.4</text><text x="520.2" y="519.3" fill="#666" text-anchor="middle" font-size="16.2">0.5</text><text x="607.8" y="519.3" fill="#666" text-anchor="middle" font-size="16.2">0.6</text><text x="695.5" y="519.3" fill="#666" text-anchor="middle" font-size="16.2">0.7</text></g><g class="VerticalAxis"><text font-size="12.6" x="-457" y="25.1" transform="rotate(-90)"><tspan x="-457" y="25.08">Per capita rice consumption (per person per year)</tspan></text><text x="86.52" y="498.1" fill="#666" dominant-baseline="middle" text-anchor="end" font-size="16.2">0 kg</text><text x="86.52" y="451" fill="#666" dominant-baseline="middle" text-anchor="end" font-size="16.2">20 kg</text><text x="86.52" y="404" fill="#666" dominant-baseline="middle" text-anchor="end" font-size="16.2">40 kg</text><text x="86.52" y="356.9" fill="#666" dominant-baseline="middle" text-anchor="end" font-size="16.2">60 kg</text><text x="86.52" y="309.8" fill="#666" dominant-baseline="middle" text-anchor="end" font-size="16.2">80 kg</text><text x="86.52" y="262.7" fill="#666" dominant-baseline="middle" text-anchor="end" font-size="16.2">100 kg</text><text x="86.52" y="215.7" fill="#666" dominant-baseline="middle" text-anchor="end" font-size="16.2">120 kg</text><text x="86.52" y="168.6" fill="#666" dominant-baseline="middle" text-anchor="end" font-size="16.2">140 kg</text><text x="86.52" y="121.5" fill="#666" dominant-baseline="middle" text-anchor="end" font-size="16.2">160 kg</text></g><g class="AxisGridLines"><path stroke="#ccc" d="M91.52 498.1H715"/><path stroke="#ddd" stroke-dasharray="3,2" d="M91.52 451H715M91.52 404H715M91.52 356.9H715M91.52 309.8H715M91.52 262.7H715M91.52 215.7H715M91.52 168.6H715M91.52 121.5H715"/></g><g class="AxisGridLines" stroke="#ddd" stroke-dasharray="3,2"><path d="M169.5 498.1V93.9M257.1 498.1V93.9M344.8 498.1V93.9M432.5 498.1V93.9M520.2 498.1V93.9M607.8 498.1V93.9M695.5 498.1V93.9"/></g></g><g clip-path="url(#a)" class="PointsWithLabels clickable"><path fill="rgba(255,255,255,0)" d="M91.52 93.9H715v404.2H91.52z"/><defs><clipPath id="a"><path d="M81.52 83.9H725v424.2H81.52z"/></clipPath></defs><circle cx="422" cy="315" r="17.84" fill="#d14e5b" opacity=".8"/><circle cx="276" cy="334" r="17.29" fill="#d14e5b" opacity=".8"/><circle cx="452" cy="481" r="8.78" fill="#4d824b" opacity=".8"/><circle cx="130" cy="181" r="7.78" fill="#d14e5b" opacity=".8"/><circle cx="179" cy="422" r="7.04" fill="#69c487" opacity=".8"/><circle cx="374" cy="469" r="6.76" fill="#d14e5b" opacity=".8"/><circle cx="179" cy="431" r="6.54" fill="#5675c1" opacity=".8"/><circle cx="315" cy="93" r="6.24" fill="#d14e5b" opacity=".8"/><circle cx="432" cy="357" r="5.7" fill="#d14e5b" opacity=".8"/><circle cx="305" cy="484" r="5.51" fill="#4d824b" opacity=".8"/><circle cx="208" cy="217" r="5.09" fill="#d14e5b" opacity=".8"/><circle cx="237" cy="157" r="4.92" fill="#d14e5b" opacity=".8"/><circle cx="344" cy="404" r="4.79" fill="#5675c1" opacity=".8"/><circle cx="393" cy="427" r="4.57" fill="#d14e5b" opacity=".8"/><circle cx="461" cy="472" r="4.54" fill="#d14e5b" opacity=".8"/><circle cx="227" cy="228" r="4.41" fill="#d14e5b" opacity=".8"/><circle cx="529" cy="486" r="4.24" fill="#ffd336" opacity=".8"/><circle cx="607" cy="483" r="4.22" fill="#ffd336" opacity=".8"/><circle cx="495" cy="484" r="4.16" fill="#ffd336" opacity=".8"/><circle cx="364" cy="457" r="3.87" fill="#5675c1" opacity=".8"/><circle cx="140" cy="448" r="3.82" fill="#5675c1" opacity=".8"/><circle cx="296" cy="185" r="3.82" fill="#d14e5b" opacity=".8"/><circle cx="120" cy="432" r="3.79" fill="#69c487" opacity=".8"/><circle cx="471" cy="478" r="3.75" fill="#ffd336" opacity=".8"/><circle cx="91" cy="467" r="3.65" fill="#5675c1" opacity=".8"/><circle cx="413" cy="477" r="3.58" fill="#69c487" opacity=".8"/><circle cx="588" cy="495" r="3.47" fill="#ffd336" opacity=".8"/><circle cx="354" cy="491" r="3.43" fill="#5675c1" opacity=".8"/><circle cx="91" cy="487" r="3.42" fill="#5675c1" opacity=".8"/><circle cx="666" cy="468" r="3.36" fill="#4d824b" opacity=".8"/><circle cx="403" cy="402" r="3.35" fill="#d14e5b" opacity=".8"/><circle cx="403" cy="465" r="3.34" fill="#d14e5b" opacity=".8"/><circle cx="393" cy="495" r="3.29" fill="#5675c1" opacity=".8"/><circle cx="354" cy="291" r="3.24" fill="#d14e5b" opacity=".8"/><circle cx="159" cy="443" r="3.19" fill="#69c487" opacity=".8"/><circle cx="179" cy="383" r="3.18" fill="#69c487" opacity=".8"/><circle cx="104" cy="306" r="3.17" fill="#d14e5b" opacity=".8"/><circle cx="325" cy="413" r="3.16" fill="#d14e5b" opacity=".8"/><circle cx="159" cy="422" r="3.04" fill="#5675c1" opacity=".8"/><circle cx="258" cy="443" r="2.99" fill="#5675c1" opacity=".8"/><circle cx="344" cy="472" r="2.92" fill="#a652ba" opacity=".8"/><circle cx="276" cy="256" r="2.9" fill="#5675c1" opacity=".8"/><circle cx="150" cy="239" r="2.85" fill="#d14e5b" opacity=".8"/><circle cx="529" cy="492" r="2.85" fill="#ffd336" opacity=".8"/><circle cx="159" cy="348" r="2.84" fill="#5675c1" opacity=".8"/><circle cx="140" cy="442" r="2.83" fill="#5675c1" opacity=".8"/><circle cx="201" cy="479" r="2.82" fill="#5675c1" opacity=".8"/><circle cx="208" cy="447" r="2.71" fill="#5675c1" opacity=".8"/><circle cx="374" cy="477" r="2.69" fill="#69c487" opacity=".8"/><circle cx="237" cy="467" r="2.68" fill="#5675c1" opacity=".8"/><circle cx="247" cy="364" r="2.66" fill="#5675c1" opacity=".8"/><circle cx="591" cy="491" r="2.66" fill="#ffd336" opacity=".8"/><circle cx="211" cy="486" r="2.64" fill="#5675c1" opacity=".8"/><circle cx="230" cy="484" r="2.6" fill="#4d824b" opacity=".8"/><circle cx="101" cy="392" r="2.58" fill="#69c487" opacity=".8"/><circle cx="208" cy="123" r="2.56" fill="#d14e5b" opacity=".8"/><circle cx="227" cy="490" r="2.55" fill="#5675c1" opacity=".8"/><circle cx="218" cy="328" r="2.51" fill="#5675c1" opacity=".8"/><circle cx="276" cy="474" r="2.5" fill="#5675c1" opacity=".8"/><circle cx="227" cy="472" r="2.45" fill="#5675c1" opacity=".8"/><circle cx="101" cy="477" r="2.42" fill="#5675c1" opacity=".8"/><circle cx="461" cy="482" r="2.41" fill="#ffd336" opacity=".8"/><circle cx="289" cy="338" r="2.4" fill="#4d824b" opacity=".8"/><circle cx="573" cy="477" r="2.38" fill="#ffd336" opacity=".8"/><circle cx="413" cy="495" r="2.38" fill="#5675c1" opacity=".8"/><circle cx="188" cy="269" r="2.38" fill="#5675c1" opacity=".8"/><circle cx="464" cy="463" r="2.38" fill="#ffd336" opacity=".8"/><circle cx="247" cy="434" r="2.36" fill="#69c487" opacity=".8"/><circle cx="266" cy="397" r="2.36" fill="#4d824b" opacity=".8"/><circle cx="266" cy="374" r="2.36" fill="#4d824b" opacity=".8"/><circle cx="539" cy="493" r="2.34" fill="#ffd336" opacity=".8"/><circle cx="172" cy="372" r="2.32" fill="#5675c1" opacity=".8"/><circle cx="685" cy="484" r="2.32" fill="#ffd336" opacity=".8"/><circle cx="541" cy="489" r="2.26" fill="#ffd336" opacity=".8"/><circle cx="315" cy="365" r="2.25" fill="#d14e5b" opacity=".8"/><circle cx="227" cy="464" r="2.24" fill="#4d824b" opacity=".8"/><circle cx="386" cy="458" r="2.23" fill="#d14e5b" opacity=".8"/><circle cx="539" cy="492" r="2.23" fill="#ffd336" opacity=".8"/><circle cx="500" cy="492" r="2.21" fill="#ffd336" opacity=".8"/><circle cx="305" cy="486" r="2.18" fill="#69c487" opacity=".8"/><circle cx="383" cy="451" r="2.17" fill="#d14e5b" opacity=".8"/><circle cx="257" cy="123" r="2.16" fill="#d14e5b" opacity=".8"/><circle cx="159" cy="436" r="2.16" fill="#5675c1" opacity=".8"/><circle cx="213" cy="473" r="2.15" fill="#4d824b" opacity=".8"/><circle cx="162" cy="255" r="2.15" fill="#5675c1" opacity=".8"/><circle cx="208" cy="396" r="2.14" fill="#4d824b" opacity=".8"/><circle cx="627" cy="486" r="2.11" fill="#ffd336" opacity=".8"/><circle cx="705" cy="487" r="2.1" fill="#ffd336" opacity=".8"/><circle cx="685" cy="487" r="2.08" fill="#ffd336" opacity=".8"/><circle cx="179" cy="390" r="2.07" fill="#4d824b" opacity=".8"/><circle cx="124" cy="480" r="2.06" fill="#5675c1" opacity=".8"/><circle cx="598" cy="491" r="2.06" fill="#ffd336" opacity=".8"/><circle cx="481" cy="476" r="2.05" fill="#a652ba" opacity=".8"/><circle cx="143" cy="275" r="2.04" fill="#5675c1" opacity=".8"/><circle cx="91" cy="459" r="2.04" fill="#5675c1" opacity=".8"/><circle cx="408" cy="472" r="2.04" fill="#d14e5b" opacity=".8"/><circle cx="276" cy="384" r="2.01" fill="#5675c1" opacity=".8"/><circle cx="169" cy="341" r="2.01" fill="#4d824b" opacity=".8"/><circle cx="403" cy="471" r="1.99" fill="#69c487" opacity=".8"/><circle cx="481" cy="479" r="1.98" fill="#ffd336" opacity=".8"/><circle cx="367" cy="394" r="1.96" fill="#d14e5b" opacity=".8"/><circle cx="286" cy="365" r="1.96" fill="#d14e5b" opacity=".8"/><circle cx="529" cy="480" r="1.96" fill="#d14e5b" opacity=".8"/><circle cx="258" cy="442" r="1.95" fill="#4d824b" opacity=".8"/><circle cx="367" cy="489" r="1.92" fill="#5675c1" opacity=".8"/><circle cx="296" cy="481" r="1.91" fill="#5675c1" opacity=".8"/><circle cx="211" cy="352" r="1.9" fill="#5675c1" opacity=".8"/><circle cx="198" cy="267" r="1.88" fill="#5675c1" opacity=".8"/><circle cx="91" cy="410" r="1.88" fill="#5675c1" opacity=".8"/><circle cx="188" cy="459" r="1.87" fill="#4d824b" opacity=".8"/><circle cx="278" cy="390" r="1.86" fill="#5675c1" opacity=".8"/><circle cx="338" cy="448" r="1.86" fill="#5675c1" opacity=".8"/><circle cx="422" cy="486" r="1.85" fill="#ffd336" opacity=".8"/><circle cx="191" cy="395" r="1.84" fill="#5675c1" opacity=".8"/><circle cx="257" cy="390" r="1.84" fill="#a652ba" opacity=".8"/><circle cx="130" cy="317" r="1.83" fill="#69c487" opacity=".8"/><circle cx="159" cy="348" r="1.82" fill="#a652ba" opacity=".8"/><circle cx="120" cy="336" r="1.81" fill="#69c487" opacity=".8"/><circle cx="563" cy="488" r="1.81" fill="#ffd336" opacity=".8"/><circle cx="427" cy="486" r="1.81" fill="#ffd336" opacity=".8"/><circle cx="317" cy="441" r="1.8" fill="#4d824b" opacity=".8"/><circle cx="715" cy="488" r="1.8" fill="#ffd336" opacity=".8"/><circle cx="112" cy="378" r="1.8" fill="#d14e5b" opacity=".8"/><circle cx="209" cy="461" r="1.8" fill="#4d824b" opacity=".8"/><circle cx="211" cy="483" r="1.79" fill="#a652ba" opacity=".8"/><circle cx="213" cy="473" r="1.79" fill="#4d824b" opacity=".8"/><circle cx="91" cy="415" r="1.79" fill="#5675c1" opacity=".8"/><circle cx="199" cy="475" r="1.79" fill="#4d824b" opacity=".8"/><circle cx="94" cy="343" r="1.79" fill="#a652ba" opacity=".8"/><circle cx="211" cy="478" r="1.78" fill="#4d824b" opacity=".8"/><text x="422" y="296.16" font-size="14.3" font-family="Arial Narrow, Arial, sans-serif" fill="#666">China</text><text x="276" y="315.71" font-size="14.1" font-family="Arial Narrow, Arial, sans-serif" fill="#666">India</text><text x="452" y="471.22" font-size="11.77" font-family="Arial Narrow, Arial, sans-serif" fill="#666">United States</text><text x="130" y="172.22" font-size="11.6" font-family="Arial Narrow, Arial, sans-serif" fill="#666">Indonesia</text><text x="179" y="413.96" font-size="11.49" font-family="Arial Narrow, Arial, sans-serif" fill="#666">Brazil</text><text x="374" y="461.24" font-size="11.44" font-family="Arial Narrow, Arial, sans-serif" fill="#666">Pakistan</text><text x="315" y="105.27" font-size="11.37" font-family="Arial Narrow, Arial, sans-serif" fill="#666">Bangladesh</text><text x="432" y="350.3" font-size="11.31" font-family="Arial Narrow, Arial, sans-serif" fill="#666">Japan</text><text x="305" y="477.49" font-size="11.29" font-family="Arial Narrow, Arial, sans-serif" fill="#666">Mexico</text><text x="208" y="210.91" font-size="11.24" font-family="Arial Narrow, Arial, sans-serif" fill="#666">Philippines</text><text x="237" y="151.08" font-size="11.22" font-family="Arial Narrow, Arial, sans-serif" fill="#666">Vietnam</text><text x="344" y="398.21" font-size="11.21" font-family="Arial Narrow, Arial, sans-serif" fill="#666">Egypt</text><text x="393" y="421.43" font-size="11.19" font-family="Arial Narrow, Arial, sans-serif" fill="#666">Iran</text><text x="227" y="222.59" font-size="11.17" font-family="Arial Narrow, Arial, sans-serif" fill="#666">Thailand</text><text x="529" y="480.76" font-size="11.15" font-family="Arial Narrow, Arial, sans-serif" fill="#666">France</text><text x="607" y="477.78" font-size="11.15" font-family="Arial Narrow, Arial, sans-serif" fill="#666">United Kingdom</text><text x="140" y="443.18" font-size="11.12" font-family="Arial Narrow, Arial, sans-serif" fill="#666">Tanzania</text><text x="296" y="180.18" font-size="11.12" font-family="Arial Narrow, Arial, sans-serif" fill="#666">Myanmar</text><text x="120" y="427.21" font-size="11.12" font-family="Arial Narrow, Arial, sans-serif" fill="#666">Colombia</text><text x="91" y="462.35" font-size="11.11" font-family="Arial Narrow, Arial, sans-serif" fill="#666">Kenya</text><text x="588" y="490.53" font-size="11.09" font-family="Arial Narrow, Arial, sans-serif" fill="#666">Poland</text><text x="354" y="486.57" font-size="11.09" font-family="Arial Narrow, Arial, sans-serif" fill="#666">Algeria</text><text x="91" y="482.58" font-size="11.09" font-family="Arial Narrow, Arial, sans-serif" fill="#666">Uganda</text><text x="666" y="463.64" font-size="11.08" font-family="Arial Narrow, Arial, sans-serif" fill="#666">Canada</text><text x="403" y="397.65" font-size="11.08" font-family="Arial Narrow, Arial, sans-serif" fill="#666">Iraq</text><text x="393" y="490.71" font-size="11.08" font-family="Arial Narrow, Arial, sans-serif" fill="#666">Morocco</text><text x="354" y="286.76" font-size="11.08" font-family="Arial Narrow, Arial, sans-serif" fill="#666">Nepal</text><text x="179" y="378.82" font-size="11.07" font-family="Arial Narrow, Arial, sans-serif" fill="#666">Peru</text><text x="104" y="301.83" font-size="11.07" font-family="Arial Narrow, Arial, sans-serif" fill="#666">Malaysia</text><text x="258" y="439.01" font-size="11.06" font-family="Arial Narrow, Arial, sans-serif" fill="#666">Mozambique</text><text x="276" y="252.1" font-size="11.05" font-family="Arial Narrow, Arial, sans-serif" fill="#666">Madagascar</text><text x="150" y="235.15" font-size="11.05" font-family="Arial Narrow, Arial, sans-serif" fill="#666">Sri Lanka</text><text x="159" y="344.16" font-size="11.05" font-family="Arial Narrow, Arial, sans-serif" fill="#666">Cote d&apos;Ivoire</text><text x="201" y="475.18" font-size="11.05" font-family="Arial Narrow, Arial, sans-serif" fill="#666">Angola</text><text x="374" y="473.31" font-size="11.04" font-family="Arial Narrow, Arial, sans-serif" fill="#666">Chile</text><text x="237" y="463.32" font-size="11.04" font-family="Arial Narrow, Arial, sans-serif" fill="#666">Niger</text><text x="247" y="360.34" font-size="11.04" font-family="Arial Narrow, Arial, sans-serif" fill="#666">Mali</text><text x="101" y="388.42" font-size="11.04" font-family="Arial Narrow, Arial, sans-serif" fill="#666">Ecuador</text><text x="208" y="119.44" font-size="11.04" font-family="Arial Narrow, Arial, sans-serif" fill="#666">Cambodia</text><text x="227" y="486.45" font-size="11.03" font-family="Arial Narrow, Arial, sans-serif" fill="#666">Zambia</text><text x="218" y="324.49" font-size="11.03" font-family="Arial Narrow, Arial, sans-serif" fill="#666">Senegal</text><text x="289" y="334.6" font-size="11.03" font-family="Arial Narrow, Arial, sans-serif" fill="#666">Cuba</text><text x="188" y="265.62" font-size="11.03" font-family="Arial Narrow, Arial, sans-serif" fill="#666">Guinea</text><text x="266" y="393.64" font-size="11.03" font-family="Arial Narrow, Arial, sans-serif" fill="#666">Haiti</text><text x="315" y="361.75" font-size="11.02" font-family="Arial Narrow, Arial, sans-serif" fill="#666">United Arab Emirates</text><text x="383" y="447.83" font-size="11.02" font-family="Arial Narrow, Arial, sans-serif" fill="#666">Jordan</text><text x="162" y="251.85" font-size="11.02" font-family="Arial Narrow, Arial, sans-serif" fill="#666">Sierra Leone</text><text x="208" y="392.86" font-size="11.01" font-family="Arial Narrow, Arial, sans-serif" fill="#666">Nicaragua</text><text x="143" y="271.96" font-size="11.01" font-family="Arial Narrow, Arial, sans-serif" fill="#666">Liberia</text><text x="276" y="380.99" font-size="11.01" font-family="Arial Narrow, Arial, sans-serif" fill="#666">Mauritania</text><text x="91" y="407.12" font-size="11" font-family="Arial Narrow, Arial, sans-serif" fill="#666">Gabon</text><text x="130" y="314.17" font-size="11" font-family="Arial Narrow, Arial, sans-serif" fill="#666">Guyana</text><text x="112" y="375.2" font-size="11" font-family="Arial Narrow, Arial, sans-serif" fill="#666">Maldives</text><text x="94" y="340.21" font-size="11" font-family="Arial Narrow, Arial, sans-serif" fill="#666">Kiribati</text></g><g class="ScatterColorLegend clickable" cursor="pointer"><g class="legendMark">,<path fill="#5675c1" d="M735 96.9h6v6h-6z"/>,<text font-size="12.6" x="746" y="104"><tspan x="746" y="103.98">Africa</tspan></text></g><g class="legendMark">,<path fill="#d14e5b" d="M735 114.5h6v6h-6z"/>,<text font-size="12.6" x="746" y="121.6"><tspan x="746" y="121.58">Asia</tspan></text></g><g class="legendMark">,<path fill="#ffd336" d="M735 132.1h6v6h-6z"/>,<text font-size="12.6" x="746" y="139.2"><tspan x="746" y="139.18">Europe</tspan></text></g><g class="legendMark">,<path fill="#4d824b" d="M735 149.7h6v6h-6z"/>,<text font-size="12.6" x="746" y="156.8"><tspan x="746" y="156.78">North America</tspan></text></g><g class="legendMark">,<path fill="#a652ba" d="M735 167.3h6v6h-6z"/>,<text font-size="12.6" x="746" y="174.4"><tspan x="746" y="174.38">Oceania</tspan></text></g><g class="legendMark">,<path fill="#69c487" d="M735 184.9h6v6h-6z"/>,<text font-size="12.6" x="746" y="192"><tspan x="746" y="191.98">South America</tspan></text></g></g></g><g class="SourcesFooter" fill="#777"><g class="clickable" fill="#777"><text font-size="12.6" x="15" y="567"><tspan x="15" y="566.98">Source: La Porta, L??pez-de-Silanes, Shleifer and Vishny via the Quality of Government dataset, Food Balance Sheets - FAO (2017)</tspan></text></g><text font-size="12.6" x="15" y="582.5"><tspan x="15" y="582.48"><a target="_blank" href="https://ourworldindata.org/diet-compositions/" fill="#777">OurWorldInData.org/diet-compositions/</a> • <a href="http://creativecommons.org/licenses/by-sa/4.0/deed.en_US" target="_blank" fill="#777">CC BY-SA</a></tspan></text></g></g></svg>