<svg xmlns="http://www.w3.org/2000/svg" version="1.1" style="background-color:#fff;-webkit-font-smoothing:antialiased" width="850" height="600" font-family="'Helvetica Neue',Helvetica,Arial,sans-serif" font-size="18" text-rendering="optimizeLegibility"><g class="ChartTab"><g class="HeaderView"><g opacity=".8" transform="matrix(.31 0 0 .31 770 15)"><a xmlns:xlink="http://www.w3.org/1999/xlink" xlink:href="https://ourworldindata.org" target="_blank"><g><path fill="#1B2543" d="M0 0h211.2v130.1H0z"/><path fill="#E63912" d="M0 112.2h211.2v17.9H0z"/><g><path fill="none" d="M1.2 12.3h210.2v99.2H1.2z"/><path fill="#FFF" d="M37.8 32.2c0 12.7-7.7 19.4-17.1 19.4-9.7 0-16.6-7.5-16.6-18.7 0-11.7 7.3-19.3 17.1-19.3 10.1.1 16.6 7.7 16.6 18.6zm-28.6.6c0 7.9 4.3 14.9 11.8 14.9 7.5 0 11.8-6.9 11.8-15.3 0-7.3-3.8-14.9-11.8-14.9-7.9 0-11.8 7.3-11.8 15.3zM62.7 43.8c0 2.7.1 5.1.2 7.2h-4.3l-.3-4.3h-.1c-1.3 2.1-4 4.9-8.8 4.9-4.2 0-9.1-2.3-9.1-11.6V24.6h4.8v14.6c0 5 1.5 8.4 5.9 8.4 3.2 0 5.5-2.2 6.3-4.4.3-.7.4-1.6.4-2.5V24.6h4.8v19.2zM67.3 32.8c0-3.1-.1-5.8-.2-8.2h4.2l.2 5.2h.2c1.2-3.5 4.1-5.8 7.3-5.8.5 0 .9.1 1.4.2v4.5c-.5-.1-1-.2-1.6-.2-3.4 0-5.8 2.6-6.5 6.2-.1.7-.2 1.4-.2 2.2V51h-4.8V32.8zM95.4 51L86 14.2h5l4.4 18.6c1.1 4.6 2.1 9.2 2.7 12.7h.1c.6-3.7 1.8-8 3-12.8l4.9-18.5h5l4.5 18.7c1 4.4 2 8.7 2.6 12.6h.1c.8-4 1.8-8.1 3-12.7l4.9-18.5h4.9L120.6 51h-5L111 31.9c-1.1-4.7-1.9-8.3-2.4-12h-.1c-.7 3.7-1.5 7.3-2.8 12L100.4 51h-5zM154.9 37.6c0 9.8-6.8 14-13.2 14-7.2 0-12.7-5.2-12.7-13.6 0-8.8 5.8-14 13.1-14 7.7 0 12.8 5.5 12.8 13.6zm-21 .3c0 5.8 3.3 10.1 8 10.1 4.6 0 8-4.3 8-10.3 0-4.5-2.2-10.1-7.9-10.1s-8.1 5.2-8.1 10.3zM158.2 32.8c0-3.1-.1-5.8-.2-8.2h4.2l.2 5.2h.2c1.2-3.5 4.1-5.8 7.3-5.8.5 0 .9.1 1.4.2v4.5c-.5-.1-1-.2-1.6-.2-3.4 0-5.8 2.6-6.5 6.2-.1.7-.2 1.4-.2 2.2V51h-4.8V32.8zM173.5 12.3h4.8V51h-4.8V12.3zM206.5 12.3v31.9c0 2.3.1 5 .2 6.8h-4.3l-.2-4.6h-.2c-1.5 2.9-4.7 5.2-9 5.2-6.4 0-11.3-5.4-11.3-13.4-.1-8.8 5.4-14.2 11.9-14.2 4 0 6.8 1.9 8 4h.1V12.3h4.8zm-4.8 23.1c0-.6-.1-1.4-.2-2a7 7 0 00-6.9-5.6c-5 0-7.9 4.4-7.9 10.2 0 5.3 2.6 9.8 7.8 9.8 3.2 0 6.2-2.1 7.1-5.7.2-.7.2-1.3.2-2.1v-4.6zM42.8 64c.1 1.6-1.1 2.9-3.1 2.9-1.7 0-2.9-1.3-2.9-2.9 0-1.7 1.3-3 3-3 1.9 0 3 1.3 3 3zm-5.4 33.8V71.4h4.8v26.4h-4.8zM47.5 78.6c0-2.7-.1-5-.2-7.1h4.3l.3 4.4h.1c1.3-2.5 4.4-5 8.8-5 3.7 0 9.4 2.2 9.4 11.2v15.8h-4.8V82.6c0-4.3-1.6-7.8-6.1-7.8-3.2 0-5.6 2.2-6.5 4.9-.2.6-.3 1.4-.3 2.2v15.9h-4.8V78.6zM84 61.6c2.9-.4 6.3-.8 10.1-.8 6.8 0 11.7 1.6 14.9 4.6 3.3 3 5.2 7.3 5.2 13.2 0 6-1.9 10.9-5.3 14.3-3.4 3.4-9.1 5.3-16.3 5.3-3.4 0-6.2-.2-8.6-.4V61.6zm4.8 32.5c1.2.2 3 .3 4.8.3 10.2 0 15.7-5.7 15.7-15.6.1-8.7-4.9-14.2-14.9-14.2-2.5 0-4.3.2-5.6.5v29zM132.1 97.8l-.4-3.3h-.2a9.79 9.79 0 01-8.1 3.9c-5.4 0-8.1-3.8-8.1-7.6 0-6.4 5.7-9.9 15.9-9.8v-.5c0-2.2-.6-6.1-6-6.1-2.5 0-5 .8-6.9 2l-1.1-3.2c2.2-1.4 5.4-2.3 8.7-2.3 8.1 0 10.1 5.5 10.1 10.8v9.9c0 2.3.1 4.5.4 6.3h-4.3zm-.7-13.4c-5.3-.1-11.2.8-11.2 5.9 0 3.1 2.1 4.6 4.5 4.6 3.4 0 5.6-2.2 6.4-4.4.2-.5.3-1 .3-1.5v-4.6zM146.6 63.9v7.6h6.9v3.7h-6.9v14.2c0 3.3.9 5.1 3.6 5.1 1.3 0 2.2-.2 2.8-.3l.2 3.6c-.9.4-2.4.7-4.3.7-2.2 0-4-.7-5.2-2-1.4-1.4-1.9-3.8-1.9-6.9V75.1h-4.1v-3.7h4.1v-6.3l4.8-1.2zM171.4 97.8l-.4-3.3h-.2a9.79 9.79 0 01-8.1 3.9c-5.4 0-8.1-3.8-8.1-7.6 0-6.4 5.7-9.9 15.9-9.8v-.5c0-2.2-.6-6.1-6-6.1-2.5 0-5 .8-6.9 2l-1.1-3.2c2.2-1.4 5.4-2.3 8.7-2.3 8.1 0 10.1 5.5 10.1 10.8v9.9c0 2.3.1 4.5.4 6.3h-4.3zm-.7-13.4c-5.3-.1-11.2.8-11.2 5.9 0 3.1 2.1 4.6 4.5 4.6 3.4 0 5.6-2.2 6.4-4.4.2-.5.3-1 .3-1.5v-4.6z"/></g></g></a></g><a href="https://ourworldindata.org/grapher/school-life-expectancy-of-boys-and-girls-at-the-pre-primary-education-level" target="_blank"><text font-size="21.6" x="15" y="32.3" fill="#555"><tspan x="15" y="32.28">School life expectancy of boys and girls at the pre-primary education level,</tspan><tspan x="15" y="53.88">2015</tspan></text></a></g><g><g class="AxisBoxView"><g class="HorizontalAxis"><text font-size="12.6" x="227.8" y="554"><tspan x="227.79" y="553.98">School life expectancy, pre-primary, male (years)</tspan></text><text x="184.9" y="533.9" fill="#666" text-anchor="middle" font-size="16.2">0.5 years</text><text x="264.3" y="533.9" fill="#666" text-anchor="middle" font-size="16.2">1 years</text><text x="343.7" y="533.9" fill="#666" text-anchor="middle" font-size="16.2">1.5 years</text><text x="423.2" y="533.9" fill="#666" text-anchor="middle" font-size="16.2">2 years</text><text x="502.6" y="533.9" fill="#666" text-anchor="middle" font-size="16.2">2.5 years</text><text x="582" y="533.9" fill="#666" text-anchor="middle" font-size="16.2">3 years</text><text x="661.5" y="533.9" fill="#666" text-anchor="middle" font-size="16.2">3.5 years</text></g><g class="VerticalAxis"><text font-size="12.6" x="-460.8" y="25.1" transform="rotate(-90)"><tspan x="-460.81" y="25.08">School life expectancy, pre-primary, female (years)</tspan></text><text x="104.51" y="512.7" fill="#666" dominant-baseline="middle" text-anchor="end" font-size="16.2">0 years</text><text x="104.51" y="456" fill="#666" dominant-baseline="middle" text-anchor="end" font-size="16.2">0.5 years</text><text x="104.51" y="399.4" fill="#666" dominant-baseline="middle" text-anchor="end" font-size="16.2">1 years</text><text x="104.51" y="342.7" fill="#666" dominant-baseline="middle" text-anchor="end" font-size="16.2">1.5 years</text><text x="104.51" y="286.1" fill="#666" dominant-baseline="middle" text-anchor="end" font-size="16.2">2 years</text><text x="104.51" y="229.4" fill="#666" dominant-baseline="middle" text-anchor="end" font-size="16.2">2.5 years</text><text x="104.51" y="172.8" fill="#666" dominant-baseline="middle" text-anchor="end" font-size="16.2">3 years</text><text x="104.51" y="116.1" fill="#666" dominant-baseline="middle" text-anchor="end" font-size="16.2">3.5 years</text></g><g class="AxisGridLines"><path stroke="#ccc" d="M109.51 512.7H715"/><path stroke="#ddd" stroke-dasharray="3,2" d="M109.51 456H715M109.51 399.4H715M109.51 342.7H715M109.51 286.1H715M109.51 229.4H715M109.51 172.8H715M109.51 116.1H715"/></g><g class="AxisGridLines" stroke="#ddd" stroke-dasharray="3,2"><path d="M184.9 512.7V80.1M264.3 512.7V80.1M343.7 512.7V80.1M423.2 512.7V80.1M502.6 512.7V80.1M582 512.7V80.1M661.5 512.7V80.1"/></g></g><g class="ComparisonLine"><defs><clipPath id="a"><path d="M109.51 80.1H715v432.6H109.51z"/></clipPath></defs><path d="M109.5 509.8l6.1-4.3 6-4.3 6.1-4.3 6-4.4 6.1-4.3 6-4.3 6.1-4.3 6-4.3 6.1-4.4 6.1-4.3 6-4.3 6.1-4.3 6-4.3 6.1-4.4 6-4.3 6.1-4.3 6-4.3 6.1-4.3 6-4.3 6.1-4.4 6.1-4.3 6-4.3 6.1-4.3 6-4.3 6.1-4.4 6-4.3 6.1-4.3 6-4.3 6.1-4.3 6.1-4.4 6-4.3 6.1-4.3 6-4.3 6.1-4.3 6-4.4 6.1-4.3 6-4.3 6.1-4.3 6-4.3 6.1-4.3 6.1-4.4 6-4.3 6.1-4.3 6-4.3 6.1-4.3 6-4.4 6.1-4.3 6-4.3 6.1-4.3 6.1-4.3 6-4.4 6.1-4.3 6-4.3 6.1-4.3 6-4.3 6.1-4.3 6-4.4 6.1-4.3 6-4.3 6.1-4.3 6.1-4.3 6-4.4 6.1-4.3 6-4.3 6.1-4.3 6-4.3 6.1-4.4 6-4.3 6.1-4.3 6.1-4.3 6-4.3 6.1-4.4 6-4.3 6.1-4.3 6-4.3 6.1-4.3 6-4.3 6.1-4.4 6-4.3 6.1-4.3 6.1-4.3 6-4.3 6.1-4.4 6-4.3 6.1-4.3 6-4.3 6.1-4.3 6-4.4 6.1-4.3 6.1-4.3 6-4.3 6.1-4.3 6-4.4 6.1-4.3 6-4.3 6.1-4.3 6-4.3 6.1-4.3 6-4.4" clip-path="url(#a)" fill="none" stroke="#ccc"/></g><g clip-path="url(#b)" class="PointsWithLabels clickable"><path fill="rgba(255,255,255,0)" d="M109.51 80.1H715v432.6H109.51z"/><defs><clipPath id="b"><path d="M99.51 70.1H725v452.6H99.51z"/></clipPath></defs><circle cx="494" cy="235" r="17.84" fill="#d14e5b" opacity=".8"/><circle cx="153" cy="481" r="17.29" fill="#d14e5b" opacity=".8"/><circle cx="445" cy="269" r="8.78" fill="#4d824b" opacity=".8"/><circle cx="287" cy="378" r="7.78" fill="#d14e5b" opacity=".8"/><circle cx="377" cy="316" r="7.04" fill="#69c487" opacity=".8"/><circle cx="348" cy="359" r="6.76" fill="#d14e5b" opacity=".8"/><circle cx="257" cy="404" r="6.24" fill="#d14e5b" opacity=".8"/><circle cx="642" cy="135" r="6.02" fill="#ffd336" opacity=".8"/><circle cx="430" cy="275" r="5.51" fill="#4d824b" opacity=".8"/><circle cx="499" cy="241" r="4.92" fill="#d14e5b" opacity=".8"/><circle cx="228" cy="430" r="4.86" fill="#5675c1" opacity=".8"/><circle cx="202" cy="444" r="4.79" fill="#5675c1" opacity=".8"/><circle cx="635" cy="137" r="4.71" fill="#ffd336" opacity=".8"/><circle cx="173" cy="465" r="4.57" fill="#d14e5b" opacity=".8"/><circle cx="239" cy="421" r="4.54" fill="#d14e5b" opacity=".8"/><circle cx="124" cy="498" r="4.44" fill="#5675c1" opacity=".8"/><circle cx="451" cy="267" r="4.41" fill="#d14e5b" opacity=".8"/><circle cx="624" cy="143" r="4.24" fill="#ffd336" opacity=".8"/><circle cx="386" cy="312" r="4.22" fill="#ffd336" opacity=".8"/><circle cx="586" cy="175" r="4.16" fill="#ffd336" opacity=".8"/><circle cx="227" cy="426" r="3.87" fill="#5675c1" opacity=".8"/><circle cx="207" cy="438" r="3.82" fill="#5675c1" opacity=".8"/><circle cx="178" cy="458" r="3.82" fill="#d14e5b" opacity=".8"/><circle cx="543" cy="201" r="3.81" fill="#d14e5b" opacity=".8"/><circle cx="573" cy="180" r="3.75" fill="#ffd336" opacity=".8"/><circle cx="606" cy="162" r="3.68" fill="#ffd336" opacity=".8"/><circle cx="462" cy="265" r="3.66" fill="#5675c1" opacity=".8"/><circle cx="444" cy="267" r="3.58" fill="#69c487" opacity=".8"/><circle cx="601" cy="161" r="3.47" fill="#ffd336" opacity=".8"/><circle cx="157" cy="474" r="3.42" fill="#5675c1" opacity=".8"/><circle cx="210" cy="432" r="3.39" fill="#5675c1" opacity=".8"/><circle cx="341" cy="345" r="3.36" fill="#4d824b" opacity=".8"/><circle cx="313" cy="391" r="3.29" fill="#5675c1" opacity=".8"/><circle cx="380" cy="322" r="3.24" fill="#d14e5b" opacity=".8"/><circle cx="452" cy="262" r="3.2" fill="#69c487" opacity=".8"/><circle cx="520" cy="212" r="3.19" fill="#69c487" opacity=".8"/><circle cx="173" cy="449" r="3.16" fill="#d14e5b" opacity=".8"/><circle cx="487" cy="233" r="3.04" fill="#5675c1" opacity=".8"/><circle cx="281" cy="390" r="2.93" fill="#a652ba" opacity=".8"/><circle cx="169" cy="463" r="2.9" fill="#5675c1" opacity=".8"/><circle cx="134" cy="493" r="2.86" fill="#d14e5b" opacity=".8"/><circle cx="257" cy="405" r="2.85" fill="#d14e5b" opacity=".8"/><circle cx="535" cy="205" r="2.85" fill="#ffd336" opacity=".8"/><circle cx="136" cy="490" r="2.84" fill="#5675c1" opacity=".8"/><circle cx="212" cy="434" r="2.83" fill="#5675c1" opacity=".8"/><circle cx="125" cy="498" r="2.71" fill="#5675c1" opacity=".8"/><circle cx="517" cy="225" r="2.69" fill="#69c487" opacity=".8"/><circle cx="138" cy="487" r="2.68" fill="#5675c1" opacity=".8"/><circle cx="129" cy="494" r="2.66" fill="#5675c1" opacity=".8"/><circle cx="555" cy="189" r="2.66" fill="#ffd336" opacity=".8"/><circle cx="468" cy="224" r="2.65" fill="#d14e5b" opacity=".8"/><circle cx="311" cy="362" r="2.6" fill="#4d824b" opacity=".8"/><circle cx="398" cy="299" r="2.58" fill="#69c487" opacity=".8"/><circle cx="191" cy="452" r="2.56" fill="#d14e5b" opacity=".8"/><circle cx="171" cy="459" r="2.51" fill="#5675c1" opacity=".8"/><circle cx="241" cy="413" r="2.5" fill="#5675c1" opacity=".8"/><circle cx="109" cy="510" r="2.45" fill="#5675c1" opacity=".8"/><circle cx="171" cy="463" r="2.42" fill="#5675c1" opacity=".8"/><circle cx="349" cy="341" r="2.42" fill="#ffd336" opacity=".8"/><circle cx="570" cy="177" r="2.41" fill="#4d824b" opacity=".8"/><circle cx="669" cy="112" r="2.38" fill="#ffd336" opacity=".8"/><circle cx="309" cy="365" r="2.38" fill="#5675c1" opacity=".8"/><circle cx="549" cy="206" r="2.38" fill="#ffd336" opacity=".8"/><circle cx="616" cy="157" r="2.37" fill="#ffd336" opacity=".8"/><circle cx="308" cy="370" r="2.37" fill="#69c487" opacity=".8"/><circle cx="308" cy="361" r="2.36" fill="#4d824b" opacity=".8"/><circle cx="643" cy="135" r="2.34" fill="#ffd336" opacity=".8"/><circle cx="480" cy="243" r="2.34" fill="#ffd336" opacity=".8"/><circle cx="170" cy="465" r="2.33" fill="#5675c1" opacity=".8"/><circle cx="715" cy="80" r="2.32" fill="#ffd336" opacity=".8"/><circle cx="218" cy="429" r="2.32" fill="#d14e5b" opacity=".8"/><circle cx="618" cy="161" r="2.32" fill="#ffd336" opacity=".8"/><circle cx="136" cy="490" r="2.29" fill="#5675c1" opacity=".8"/><circle cx="592" cy="169" r="2.27" fill="#ffd336" opacity=".8"/><circle cx="391" cy="306" r="2.25" fill="#d14e5b" opacity=".8"/><circle cx="325" cy="351" r="2.25" fill="#4d824b" opacity=".8"/><circle cx="634" cy="135" r="2.23" fill="#d14e5b" opacity=".8"/><circle cx="440" cy="278" r="2.23" fill="#ffd336" opacity=".8"/><circle cx="637" cy="137" r="2.21" fill="#ffd336" opacity=".8"/><circle cx="175" cy="467" r="2.2" fill="#d14e5b" opacity=".8"/><circle cx="286" cy="383" r="2.18" fill="#69c487" opacity=".8"/><circle cx="210" cy="441" r="2.17" fill="#d14e5b" opacity=".8"/><circle cx="249" cy="406" r="2.16" fill="#d14e5b" opacity=".8"/><circle cx="176" cy="460" r="2.16" fill="#5675c1" opacity=".8"/><circle cx="440" cy="266" r="2.15" fill="#4d824b" opacity=".8"/><circle cx="149" cy="478" r="2.15" fill="#5675c1" opacity=".8"/><circle cx="154" cy="478" r="2.12" fill="#5675c1" opacity=".8"/><circle cx="564" cy="183" r="2.12" fill="#ffd336" opacity=".8"/><circle cx="269" cy="396" r="2.11" fill="#d14e5b" opacity=".8"/><circle cx="552" cy="199" r="2.11" fill="#ffd336" opacity=".8"/><circle cx="615" cy="151" r="2.11" fill="#ffd336" opacity=".8"/><circle cx="409" cy="302" r="2.1" fill="#d14e5b" opacity=".8"/><circle cx="572" cy="178" r="2.08" fill="#ffd336" opacity=".8"/><circle cx="355" cy="333" r="2.08" fill="#4d824b" opacity=".8"/><circle cx="273" cy="389" r="2.06" fill="#ffd336" opacity=".8"/><circle cx="394" cy="302" r="2.06" fill="#a652ba" opacity=".8"/><circle cx="503" cy="235" r="2.05" fill="#ffd336" opacity=".8"/><circle cx="171" cy="466" r="2.05" fill="#5675c1" opacity=".8"/><circle cx="518" cy="234" r="2.05" fill="#d14e5b" opacity=".8"/><circle cx="358" cy="326" r="2.01" fill="#4d824b" opacity=".8"/><circle cx="178" cy="463" r="2.01" fill="#ffd336" opacity=".8"/><circle cx="119" cy="499" r="2.01" fill="#5675c1" opacity=".8"/><circle cx="331" cy="349" r="2.01" fill="#4d824b" opacity=".8"/><circle cx="642" cy="135" r="2" fill="#ffd336" opacity=".8"/><circle cx="437" cy="274" r="1.99" fill="#69c487" opacity=".8"/><circle cx="670" cy="114" r="1.99" fill="#ffd336" opacity=".8"/><circle cx="531" cy="215" r="1.98" fill="#ffd336" opacity=".8"/><circle cx="325" cy="308" r="1.98" fill="#d14e5b" opacity=".8"/><circle cx="273" cy="387" r="1.97" fill="#d14e5b" opacity=".8"/><circle cx="500" cy="228" r="1.96" fill="#d14e5b" opacity=".8"/><circle cx="589" cy="145" r="1.96" fill="#4d824b" opacity=".8"/><circle cx="172" cy="463" r="1.93" fill="#5675c1" opacity=".8"/><circle cx="251" cy="403" r="1.92" fill="#5675c1" opacity=".8"/><circle cx="687" cy="102" r="1.92" fill="#ffd336" opacity=".8"/><circle cx="194" cy="450" r="1.91" fill="#5675c1" opacity=".8"/><circle cx="239" cy="414" r="1.91" fill="#ffd336" opacity=".8"/><circle cx="557" cy="198" r="1.91" fill="#ffd336" opacity=".8"/><circle cx="383" cy="313" r="1.91" fill="#d14e5b" opacity=".8"/><circle cx="317" cy="352" r="1.9" fill="#5675c1" opacity=".8"/><circle cx="370" cy="324" r="1.87" fill="#d14e5b" opacity=".8"/><circle cx="674" cy="118" r="1.87" fill="#ffd336" opacity=".8"/><circle cx="424" cy="278" r="1.87" fill="#5675c1" opacity=".8"/><circle cx="474" cy="248" r="1.86" fill="#ffd336" opacity=".8"/><circle cx="121" cy="502" r="1.84" fill="#5675c1" opacity=".8"/><circle cx="215" cy="430" r="1.83" fill="#5675c1" opacity=".8"/><circle cx="157" cy="472" r="1.83" fill="#d14e5b" opacity=".8"/><circle cx="420" cy="285" r="1.83" fill="#5675c1" opacity=".8"/><circle cx="413" cy="297" r="1.83" fill="#69c487" opacity=".8"/><circle cx="376" cy="331" r="1.82" fill="#ffd336" opacity=".8"/><circle cx="584" cy="170" r="1.82" fill="#a652ba" opacity=".8"/><circle cx="396" cy="295" r="1.82" fill="#69c487" opacity=".8"/><circle cx="549" cy="194" r="1.82" fill="#ffd336" opacity=".8"/><circle cx="442" cy="272" r="1.82" fill="#5675c1" opacity=".8"/><circle cx="464" cy="243" r="1.81" fill="#ffd336" opacity=".8"/><circle cx="455" cy="259" r="1.81" fill="#d14e5b" opacity=".8"/><circle cx="574" cy="184" r="1.8" fill="#ffd336" opacity=".8"/><circle cx="263" cy="397" r="1.8" fill="#4d824b" opacity=".8"/><circle cx="367" cy="318" r="1.8" fill="#4d824b" opacity=".8"/><circle cx="422" cy="288" r="1.8" fill="#a652ba" opacity=".8"/><circle cx="217" cy="424" r="1.8" fill="#a652ba" opacity=".8"/><circle cx="304" cy="360" r="1.8" fill="#4d824b" opacity=".8"/><circle cx="338" cy="330" r="1.79" fill="#5675c1" opacity=".8"/><circle cx="321" cy="354" r="1.79" fill="#4d824b" opacity=".8"/><circle cx="449" cy="272" r="1.79" fill="#4d824b" opacity=".8"/><circle cx="405" cy="312" r="1.79" fill="#4d824b" opacity=".8"/><circle cx="228" cy="426" r="1.79" fill="#a652ba" opacity=".8"/><circle cx="353" cy="348" r="1.79" fill="#4d824b" opacity=".8"/><circle cx="404" cy="299" r="1.79" fill="#5675c1" opacity=".8"/><circle cx="385" cy="327" r="1.79" fill="#4d824b" opacity=".8"/><circle cx="190" cy="450" r="1.79" fill="#4d824b" opacity=".8"/><circle cx="412" cy="304" r="1.79" fill="#4d824b" opacity=".8"/><circle cx="436" cy="283" r="1.79" fill="#ffd336" opacity=".8"/><circle cx="608" cy="143" r="1.79" fill="#ffd336" opacity=".8"/><circle cx="445" cy="248" r="1.78" fill="#a652ba" opacity=".8"/><circle cx="515" cy="184" r="1.78" fill="#a652ba" opacity=".8"/><circle cx="548" cy="195" r="1.78" fill="#a652ba" opacity=".8"/><circle cx="196" cy="448" r="1.78" fill="#000" opacity=".8"/><circle cx="495" cy="237" r="1.78" fill="#000" opacity=".8"/><circle cx="590" cy="169" r="1.78" fill="#000" opacity=".8"/><circle cx="560" cy="190" r="1.78" fill="#000" opacity=".8"/><circle cx="482" cy="243" r="1.78" fill="#000" opacity=".8"/><circle cx="406" cy="294" r="1.78" fill="#000" opacity=".8"/><circle cx="409" cy="293" r="1.78" fill="#000" opacity=".8"/><circle cx="220" cy="432" r="1.78" fill="#000" opacity=".8"/><circle cx="276" cy="393" r="1.78" fill="#000" opacity=".8"/><circle cx="203" cy="444" r="1.78" fill="#000" opacity=".8"/><circle cx="295" cy="379" r="1.78" fill="#000" opacity=".8"/><circle cx="191" cy="453" r="1.78" fill="#000" opacity=".8"/><circle cx="469" cy="253" r="1.78" fill="#000" opacity=".8"/><circle cx="191" cy="455" r="1.78" fill="#000" opacity=".8"/><circle cx="297" cy="377" r="1.78" fill="#000" opacity=".8"/><circle cx="185" cy="455" r="1.78" fill="#000" opacity=".8"/><circle cx="186" cy="453" r="1.78" fill="#000" opacity=".8"/><circle cx="421" cy="290" r="1.78" fill="#000" opacity=".8"/><circle cx="181" cy="458" r="1.78" fill="#000" opacity=".8"/><circle cx="435" cy="276" r="1.78" fill="#000" opacity=".8"/><circle cx="416" cy="294" r="1.78" fill="#000" opacity=".8"/><circle cx="195" cy="448" r="1.78" fill="#000" opacity=".8"/><circle cx="195" cy="448" r="1.78" fill="#000" opacity=".8"/><circle cx="421" cy="288" r="1.78" fill="#000" opacity=".8"/><circle cx="438" cy="278" r="1.78" fill="#000" opacity=".8"/><circle cx="112" cy="508" r="1.78" fill="#d14e5b" opacity=".8"/><circle cx="264" cy="396" r="1.78" fill="#d14e5b" opacity=".8"/><circle cx="185" cy="452" r="1.78" fill="#d14e5b" opacity=".8"/><text x="494" y="216.16" font-size="14.3" font-family="Arial Narrow, Arial, sans-serif" fill="#666">China</text><text x="153" y="462.71" font-size="14.1" font-family="Arial Narrow, Arial, sans-serif" fill="#666">India</text><text x="445" y="259.22" font-size="11.77" font-family="Arial Narrow, Arial, sans-serif" fill="#666">United States</text><text x="287" y="369.22" font-size="11.6" font-family="Arial Narrow, Arial, sans-serif" fill="#666">Indonesia</text><text x="377" y="307.96" font-size="11.49" font-family="Arial Narrow, Arial, sans-serif" fill="#666">Brazil</text><text x="348" y="351.24" font-size="11.44" font-family="Arial Narrow, Arial, sans-serif" fill="#666">Pakistan</text><text x="257" y="396.76" font-size="11.37" font-family="Arial Narrow, Arial, sans-serif" fill="#666">Bangladesh</text><text x="642" y="127.98" font-size="11.35" font-family="Arial Narrow, Arial, sans-serif" fill="#666">Russia</text><text x="499" y="235.08" font-size="11.22" font-family="Arial Narrow, Arial, sans-serif" fill="#666">Vietnam</text><text x="228" y="424.14" font-size="11.21" font-family="Arial Narrow, Arial, sans-serif" fill="#666">Ethiopia</text><text x="202" y="438.21" font-size="11.21" font-family="Arial Narrow, Arial, sans-serif" fill="#666">Egypt</text><text x="124" y="492.56" font-size="11.17" font-family="Arial Narrow, Arial, sans-serif" fill="#666">Democratic Republic of Congo</text><text x="586" y="169.84" font-size="11.15" font-family="Arial Narrow, Arial, sans-serif" fill="#666">Italy</text><text x="543" y="196.19" font-size="11.12" font-family="Arial Narrow, Arial, sans-serif" fill="#666">South Korea</text><text x="606" y="157.32" font-size="11.11" font-family="Arial Narrow, Arial, sans-serif" fill="#666">Ukraine</text><text x="398" y="295.42" font-size="11.04" font-family="Arial Narrow, Arial, sans-serif" fill="#666">Ecuador</text><text x="241" y="409.5" font-size="11.03" font-family="Arial Narrow, Arial, sans-serif" fill="#666">Zimbabwe</text><text x="109" y="506.55" font-size="11.03" font-family="Arial Narrow, Arial, sans-serif" fill="#666">Chad</text><text x="349" y="337.58" font-size="11.03" font-family="Arial Narrow, Arial, sans-serif" fill="#666">Greece</text><text x="669" y="108.62" font-size="11.03" font-family="Arial Narrow, Arial, sans-serif" fill="#666">Belgium</text><text x="674.99" y="91.12" font-size="11.02" font-family="Arial Narrow, Arial, sans-serif" fill="#666">Sweden</text><text x="440" y="274.77" font-size="11.02" font-family="Arial Narrow, Arial, sans-serif" fill="#666">Switzerland</text><text x="149" y="474.85" font-size="11.02" font-family="Arial Narrow, Arial, sans-serif" fill="#666">Sierra Leone</text><text x="358" y="322.99" font-size="11.01" font-family="Arial Narrow, Arial, sans-serif" fill="#666">Puerto Rico</text><text x="325" y="305.02" font-size="11.01" font-family="Arial Narrow, Arial, sans-serif" fill="#666">Armenia</text><text x="273" y="384.03" font-size="11.01" font-family="Arial Narrow, Arial, sans-serif" fill="#666">Oman</text><text x="589" y="142.04" font-size="11.01" font-family="Arial Narrow, Arial, sans-serif" fill="#666">Jamaica</text><text x="464" y="240.19" font-size="11" font-family="Arial Narrow, Arial, sans-serif" fill="#666">Malta</text><text x="574" y="181.2" font-size="11" font-family="Arial Narrow, Arial, sans-serif" fill="#666">Iceland</text><text x="515" y="181.22" font-size="11" font-family="Arial Narrow, Arial, sans-serif" fill="#666">Nauru</text><text x="191" y="450.22" font-size="11" font-family="Arial Narrow, Arial, sans-serif" fill="#666">Middle East &amp; North Africa</text></g><g class="ScatterColorLegend clickable" cursor="pointer"><g class="legendMark">,<path fill="#5675c1" d="M735 83.1h6v6h-6z"/>,<text font-size="12.6" x="746" y="90.2"><tspan x="746" y="90.18">Africa</tspan></text></g><g class="legendMark">,<path fill="#d14e5b" d="M735 100.7h6v6h-6z"/>,<text font-size="12.6" x="746" y="107.8"><tspan x="746" y="107.78">Asia</tspan></text></g><g class="legendMark">,<path fill="#ffd336" d="M735 118.3h6v6h-6z"/>,<text font-size="12.6" x="746" y="125.4"><tspan x="746" y="125.38">Europe</tspan></text></g><g class="legendMark">,<path fill="#4d824b" d="M735 135.9h6v6h-6z"/>,<text font-size="12.6" x="746" y="143"><tspan x="746" y="142.98">North America</tspan></text></g><g class="legendMark">,<path fill="#a652ba" d="M735 153.5h6v6h-6z"/>,<text font-size="12.6" x="746" y="160.6"><tspan x="746" y="160.58">Oceania</tspan></text></g><g class="legendMark">,<path fill="#69c487" d="M735 171.1h6v6h-6z"/>,<text font-size="12.6" x="746" y="178.2"><tspan x="746" y="178.18">South America</tspan></text></g></g></g><g class="SourcesFooter" fill="#777"><g class="clickable" fill="#777"><text font-size="12.6" x="15" y="581.6"><tspan x="15" y="581.58">Source: World Bank</tspan></text></g><text font-size="12.6" x="518.5" y="581.6"><tspan x="518.49" y="581.58"><a target="_blank" href="https://ourworldindata.org/pre-primary-education/" fill="#777">OurWorldInData.org/pre-primary-education/</a> • <a href="http://creativecommons.org/licenses/by-sa/4.0/deed.en_US" target="_blank" fill="#777">CC BY-SA</a></tspan></text></g></g></svg>