<svg xmlns="http://www.w3.org/2000/svg" version="1.1" style="background-color:#fff;-webkit-font-smoothing:antialiased" width="850" height="600" font-family="'Helvetica Neue',Helvetica,Arial,sans-serif" font-size="18" text-rendering="optimizeLegibility"><g class="ChartTab"><g class="HeaderView"><g opacity=".8" transform="matrix(.27 0 0 .27 778 15)"><a xmlns:xlink="http://www.w3.org/1999/xlink" xlink:href="https://ourworldindata.org" target="_blank"><g><path fill="#1B2543" d="M0 0h211.2v130.1H0z"/><path fill="#E63912" d="M0 112.2h211.2v17.9H0z"/><g><path fill="none" d="M1.2 12.3h210.2v99.2H1.2z"/><path fill="#FFF" d="M37.8 32.2c0 12.7-7.7 19.4-17.1 19.4-9.7 0-16.6-7.5-16.6-18.7 0-11.7 7.3-19.3 17.1-19.3 10.1.1 16.6 7.7 16.6 18.6zm-28.6.6c0 7.9 4.3 14.9 11.8 14.9 7.5 0 11.8-6.9 11.8-15.3 0-7.3-3.8-14.9-11.8-14.9-7.9 0-11.8 7.3-11.8 15.3zM62.7 43.8c0 2.7.1 5.1.2 7.2h-4.3l-.3-4.3h-.1c-1.3 2.1-4 4.9-8.8 4.9-4.2 0-9.1-2.3-9.1-11.6V24.6h4.8v14.6c0 5 1.5 8.4 5.9 8.4 3.2 0 5.5-2.2 6.3-4.4.3-.7.4-1.6.4-2.5V24.6h4.8v19.2zM67.3 32.8c0-3.1-.1-5.8-.2-8.2h4.2l.2 5.2h.2c1.2-3.5 4.1-5.8 7.3-5.8.5 0 .9.1 1.4.2v4.5c-.5-.1-1-.2-1.6-.2-3.4 0-5.8 2.6-6.5 6.2-.1.7-.2 1.4-.2 2.2V51h-4.8V32.8zM95.4 51L86 14.2h5l4.4 18.6c1.1 4.6 2.1 9.2 2.7 12.7h.1c.6-3.7 1.8-8 3-12.8l4.9-18.5h5l4.5 18.7c1 4.4 2 8.7 2.6 12.6h.1c.8-4 1.8-8.1 3-12.7l4.9-18.5h4.9L120.6 51h-5L111 31.9c-1.1-4.7-1.9-8.3-2.4-12h-.1c-.7 3.7-1.5 7.3-2.8 12L100.4 51h-5zM154.9 37.6c0 9.8-6.8 14-13.2 14-7.2 0-12.7-5.2-12.7-13.6 0-8.8 5.8-14 13.1-14 7.7 0 12.8 5.5 12.8 13.6zm-21 .3c0 5.8 3.3 10.1 8 10.1 4.6 0 8-4.3 8-10.3 0-4.5-2.2-10.1-7.9-10.1s-8.1 5.2-8.1 10.3zM158.2 32.8c0-3.1-.1-5.8-.2-8.2h4.2l.2 5.2h.2c1.2-3.5 4.1-5.8 7.3-5.8.5 0 .9.1 1.4.2v4.5c-.5-.1-1-.2-1.6-.2-3.4 0-5.8 2.6-6.5 6.2-.1.7-.2 1.4-.2 2.2V51h-4.8V32.8zM173.5 12.3h4.8V51h-4.8V12.3zM206.5 12.3v31.9c0 2.3.1 5 .2 6.8h-4.3l-.2-4.6h-.2c-1.5 2.9-4.7 5.2-9 5.2-6.4 0-11.3-5.4-11.3-13.4-.1-8.8 5.4-14.2 11.9-14.2 4 0 6.8 1.9 8 4h.1V12.3h4.8zm-4.8 23.1c0-.6-.1-1.4-.2-2a7 7 0 00-6.9-5.6c-5 0-7.9 4.4-7.9 10.2 0 5.3 2.6 9.8 7.8 9.8 3.2 0 6.2-2.1 7.1-5.7.2-.7.2-1.3.2-2.1v-4.6zM42.8 64c.1 1.6-1.1 2.9-3.1 2.9-1.7 0-2.9-1.3-2.9-2.9 0-1.7 1.3-3 3-3 1.9 0 3 1.3 3 3zm-5.4 33.8V71.4h4.8v26.4h-4.8zM47.5 78.6c0-2.7-.1-5-.2-7.1h4.3l.3 4.4h.1c1.3-2.5 4.4-5 8.8-5 3.7 0 9.4 2.2 9.4 11.2v15.8h-4.8V82.6c0-4.3-1.6-7.8-6.1-7.8-3.2 0-5.6 2.2-6.5 4.9-.2.6-.3 1.4-.3 2.2v15.9h-4.8V78.6zM84 61.6c2.9-.4 6.3-.8 10.1-.8 6.8 0 11.7 1.6 14.9 4.6 3.3 3 5.2 7.3 5.2 13.2 0 6-1.9 10.9-5.3 14.3-3.4 3.4-9.1 5.3-16.3 5.3-3.4 0-6.2-.2-8.6-.4V61.6zm4.8 32.5c1.2.2 3 .3 4.8.3 10.2 0 15.7-5.7 15.7-15.6.1-8.7-4.9-14.2-14.9-14.2-2.5 0-4.3.2-5.6.5v29zM132.1 97.8l-.4-3.3h-.2a9.79 9.79 0 01-8.1 3.9c-5.4 0-8.1-3.8-8.1-7.6 0-6.4 5.7-9.9 15.9-9.8v-.5c0-2.2-.6-6.1-6-6.1-2.5 0-5 .8-6.9 2l-1.1-3.2c2.2-1.4 5.4-2.3 8.7-2.3 8.1 0 10.1 5.5 10.1 10.8v9.9c0 2.3.1 4.5.4 6.3h-4.3zm-.7-13.4c-5.3-.1-11.2.8-11.2 5.9 0 3.1 2.1 4.6 4.5 4.6 3.4 0 5.6-2.2 6.4-4.4.2-.5.3-1 .3-1.5v-4.6zM146.6 63.9v7.6h6.9v3.7h-6.9v14.2c0 3.3.9 5.1 3.6 5.1 1.3 0 2.2-.2 2.8-.3l.2 3.6c-.9.4-2.4.7-4.3.7-2.2 0-4-.7-5.2-2-1.4-1.4-1.9-3.8-1.9-6.9V75.1h-4.1v-3.7h4.1v-6.3l4.8-1.2zM171.4 97.8l-.4-3.3h-.2a9.79 9.79 0 01-8.1 3.9c-5.4 0-8.1-3.8-8.1-7.6 0-6.4 5.7-9.9 15.9-9.8v-.5c0-2.2-.6-6.1-6-6.1-2.5 0-5 .8-6.9 2l-1.1-3.2c2.2-1.4 5.4-2.3 8.7-2.3 8.1 0 10.1 5.5 10.1 10.8v9.9c0 2.3.1 4.5.4 6.3h-4.3zm-.7-13.4c-5.3-.1-11.2.8-11.2 5.9 0 3.1 2.1 4.6 4.5 4.6 3.4 0 5.6-2.2 6.4-4.4.2-.5.3-1 .3-1.5v-4.6z"/></g></g></a></g><a href="https://ourworldindata.org/grapher/share-of-children-younger-than-5-who-are-underweight-for-their-age" target="_blank"><text font-size="24.3" x="15" y="34.4" fill="#555"><tspan x="15" y="34.44">Share of children younger than 5 who are underweight for their age</tspan></text></a><text font-size="14.4" x="15" y="52.8" fill="#666"><tspan x="15" y="52.82">Prevalence of underweight children is the percentage of children under age 5 whose weight for age is more than two</tspan><tspan x="15" y="68.66">standard deviations below the median for the international reference population ages 0-59 months.</tspan></text></g><g class="LineChart"><defs><clipPath id="a"><path d="M42.56 0h830v930.6h-830z"/></clipPath></defs><g class="AxisBoxView"><g class="HorizontalAxis" fill="#666" text-anchor="middle" font-size="16.2"><text x="52.6" y="556.5">1986</text><text x="139.8" y="556.5">1990</text><text x="248.7" y="556.5">1995</text><text x="357.7" y="556.5">2000</text><text x="466.7" y="556.5">2005</text><text x="575.7" y="556.5">2010</text><text x="684.7" y="556.5">2015</text><text x="728.3" y="556.5">2017</text></g><g class="VerticalAxis" fill="#666" dominant-baseline="middle" text-anchor="end" font-size="16.2"><text x="47.56" y="535.3">0%</text><text x="47.56" y="468.8">10%</text><text x="47.56" y="402.3">20%</text><text x="47.56" y="335.9">30%</text><text x="47.56" y="269.4">40%</text><text x="47.56" y="202.9">50%</text><text x="47.56" y="136.4">60%</text></g><g class="AxisGridLines"><path stroke="#ccc" d="M52.56 535.3h675.76"/><path stroke="#ddd" stroke-dasharray="3,2" d="M52.56 468.8h675.76M52.56 402.3h675.76M52.56 335.9h675.76M52.56 269.4h675.76M52.56 202.9h675.76M52.56 136.4h675.76"/></g></g><g clip-path="url(#a)"><g class="HeightedLegend clickable"><g class="legendMark"><g class="indicator" stroke="#666" stroke-width=".5"><path d="M733.32 298h12.5M745.82 298h0M745.82 298h12.5"/></g><text font-size="13.5" x="763.3" y="302.1" fill="#2a939b"><tspan x="763.32" y="302.05">India</tspan></text></g><g class="legendMark"><g class="indicator" stroke="#666" stroke-width=".5"><path d="M733.32 318.6h22.5M755.82 318.6h0M755.82 318.6h2.5"/></g><text font-size="13.5" x="763.3" y="322.7" fill="#a652ba"><tspan x="763.32" y="322.65">Bangladesh</tspan></text></g><g class="legendMark"><g class="indicator" stroke="#666" stroke-width=".5"><path d="M733.32 325.9h12.5M745.82 325.9v8.2M745.82 334.1h12.5"/></g><text font-size="13.5" x="763.3" y="338.2" fill="#f6a324"><tspan x="763.32" y="338.15">Nigeria</tspan></text></g><g class="legendMark"><g class="indicator" stroke="#666" stroke-width=".5"><path d="M733.32 445.5h12.5M745.82 445.5h0M745.82 445.5h12.5"/></g><text font-size="13.5" x="763.3" y="449.6" fill="#34983f"><tspan x="763.32" y="449.55">World</tspan></text></g><g class="legendMark"><g class="indicator" stroke="#666" stroke-width=".5"><path d="M733.32 512.7h22.5M755.82 512.7h0M755.82 512.7h2.5"/></g><text font-size="13.5" x="763.3" y="516.8" fill="#ca2628"><tspan x="763.32" y="516.75">Bolivia</tspan></text></g><g class="legendMark"><g class="indicator" stroke="#666" stroke-width=".5"><path d="M733.32 519.3h12.5M745.82 519.3v8.9M745.82 528.2h12.5"/></g><text font-size="13.5" x="763.3" y="532.3" fill="#3360a9"><tspan x="763.32" y="532.25">China</tspan></text></g></g><g class="Lines"><g class="key-World_0"><path stroke="#34983f" stroke-linecap="round" d="M140 370l109 14 109 13 109 15 109 15 22 3 21 3 22 3 22 2 22 3 22 3 21 2" fill="none" stroke-width="1.5"/><g fill="#34983f"><circle cx="140" cy="370" r="2"/><circle cx="249" cy="384" r="2"/><circle cx="358" cy="397" r="2"/><circle cx="467" cy="412" r="2"/><circle cx="576" cy="427" r="2"/><circle cx="598" cy="430" r="2"/><circle cx="619" cy="433" r="2"/><circle cx="641" cy="436" r="2"/><circle cx="663" cy="438" r="2"/><circle cx="685" cy="441" r="2"/><circle cx="707" cy="444" r="2"/><circle cx="728" cy="446" r="2"/></g></g><g class="key-China_0"><path stroke="#3360a9" stroke-linecap="round" d="M74 411l66 41 43-11 66 23 65 25 44-3 43 4 66 15 65 5 22 3h22l65 6" fill="none" stroke-width="1.5"/><g fill="#3360a9"><circle cx="74" cy="411" r="2"/><circle cx="140" cy="452" r="2"/><circle cx="183" cy="441" r="2"/><circle cx="249" cy="464" r="2"/><circle cx="314" cy="489" r="2"/><circle cx="358" cy="486" r="2"/><circle cx="401" cy="490" r="2"/><circle cx="467" cy="505" r="2"/><circle cx="532" cy="510" r="2"/><circle cx="554" cy="513" r="2"/><circle cx="576" cy="513" r="2"/><circle cx="641" cy="519" r="2"/></g></g><g class="key-India_0"><path stroke="#2a939b" stroke-linecap="round" d="M118 166l65 18 22 11 87 85 44-52 153 18 174 94 22-42" fill="none" stroke-width="1.5"/><g fill="#2a939b"><circle cx="118" cy="166" r="2"/><circle cx="183" cy="184" r="2"/><circle cx="205" cy="195" r="2"/><circle cx="292" cy="280" r="2"/><circle cx="336" cy="228" r="2"/><circle cx="489" cy="246" r="2"/><circle cx="663" cy="340" r="2"/><circle cx="685" cy="298" r="2"/></g></g><g class="key-Nigeria_0"><path stroke="#f6a324" stroke-linecap="round" d="M140 302h65l218 53 87 9 22-6 66 15 43-44 22 75 22 2 22-80" fill="none" stroke-width="1.5"/><g fill="#f6a324"><circle cx="140" cy="302" r="2"/><circle cx="205" cy="302" r="2"/><circle cx="423" cy="355" r="2"/><circle cx="510" cy="364" r="2"/><circle cx="532" cy="358" r="2"/><circle cx="598" cy="373" r="2"/><circle cx="641" cy="329" r="2"/><circle cx="663" cy="404" r="2"/><circle cx="685" cy="406" r="2"/><circle cx="707" cy="326" r="2"/></g></g><g class="key-Bolivia_0"><path stroke="#ca2628" stroke-linecap="round" d="M96 470l22 13 22-12 22-3 21-2 44-4 87 34h109l109 9 87 6 88 2" fill="none" stroke-width="1.5"/><g fill="#ca2628"><circle cx="96" cy="470" r="2"/><circle cx="118" cy="483" r="2"/><circle cx="140" cy="471" r="2"/><circle cx="162" cy="468" r="2"/><circle cx="183" cy="466" r="2"/><circle cx="227" cy="462" r="2"/><circle cx="314" cy="496" r="2"/><circle cx="423" cy="496" r="2"/><circle cx="532" cy="505" r="2"/><circle cx="619" cy="511" r="2"/><circle cx="707" cy="513" r="2"/></g></g><g class="key-Bangladesh_0"><path stroke="#a652ba" stroke-linecap="round" d="M53 91l87 35 22 2 21 4 22 30 22-12 22 18 22 8 21 10 22 12 22 8 22 48 22-6 21 15 22 14 22-26 22 36 22-4 21-22 88 30 21 32 22-21 22 17" fill="none" stroke-width="1.5"/><g fill="#a652ba"><circle cx="53" cy="91" r="2"/><circle cx="140" cy="126" r="2"/><circle cx="162" cy="128" r="2"/><circle cx="183" cy="132" r="2"/><circle cx="205" cy="162" r="2"/><circle cx="227" cy="150" r="2"/><circle cx="249" cy="168" r="2"/><circle cx="271" cy="176" r="2"/><circle cx="292" cy="186" r="2"/><circle cx="314" cy="198" r="2"/><circle cx="336" cy="206" r="2"/><circle cx="358" cy="254" r="2"/><circle cx="380" cy="248" r="2"/><circle cx="401" cy="263" r="2"/><circle cx="423" cy="277" r="2"/><circle cx="445" cy="251" r="2"/><circle cx="467" cy="287" r="2"/><circle cx="489" cy="283" r="2"/><circle cx="510" cy="261" r="2"/><circle cx="598" cy="291" r="2"/><circle cx="619" cy="323" r="2"/><circle cx="641" cy="302" r="2"/><circle cx="663" cy="319" r="2"/></g></g></g></g></g><g class="SourcesFooter" fill="#777"><g class="clickable" fill="#777"><text font-size="12.6" x="15" y="581.6"><tspan x="15" y="581.58">Source: World Bank</tspan></text></g><text font-size="12.6" x="471.1" y="581.6"><tspan x="471.11" y="581.58"><a target="_blank" href="https://ourworldindata.org/hunger-and-undernourishment/" fill="#777">OurWorldInData.org/hunger-and-undernourishment/</a> • <a class="cclogo" href="http://creativecommons.org/licenses/by-sa/4.0/deed.en_US" target="_blank" fill="#777">CC BY-SA</a></tspan></text></g></g></svg>