<svg xmlns="http://www.w3.org/2000/svg" version="1.1" style="background-color:#fff;-webkit-font-smoothing:antialiased" width="850" height="600" font-family="'Helvetica Neue',Helvetica,Arial,sans-serif" font-size="18" text-rendering="optimizeLegibility"><g class="ChartTab"><g class="HeaderView"><g opacity=".8" transform="matrix(.27 0 0 .27 778 15)"><a xmlns:xlink="http://www.w3.org/1999/xlink" xlink:href="https://ourworldindata.org" target="_blank"><g><path fill="#1B2543" d="M0 0h211.2v130.1H0z"/><path fill="#E63912" d="M0 112.2h211.2v17.9H0z"/><g><path fill="none" d="M1.2 12.3h210.2v99.2H1.2z"/><path fill="#FFF" d="M37.8 32.2c0 12.7-7.7 19.4-17.1 19.4-9.7 0-16.6-7.5-16.6-18.7 0-11.7 7.3-19.3 17.1-19.3 10.1.1 16.6 7.7 16.6 18.6zm-28.6.6c0 7.9 4.3 14.9 11.8 14.9 7.5 0 11.8-6.9 11.8-15.3 0-7.3-3.8-14.9-11.8-14.9-7.9 0-11.8 7.3-11.8 15.3zM62.7 43.8c0 2.7.1 5.1.2 7.2h-4.3l-.3-4.3h-.1c-1.3 2.1-4 4.9-8.8 4.9-4.2 0-9.1-2.3-9.1-11.6V24.6h4.8v14.6c0 5 1.5 8.4 5.9 8.4 3.2 0 5.5-2.2 6.3-4.4.3-.7.4-1.6.4-2.5V24.6h4.8v19.2zM67.3 32.8c0-3.1-.1-5.8-.2-8.2h4.2l.2 5.2h.2c1.2-3.5 4.1-5.8 7.3-5.8.5 0 .9.1 1.4.2v4.5c-.5-.1-1-.2-1.6-.2-3.4 0-5.8 2.6-6.5 6.2-.1.7-.2 1.4-.2 2.2V51h-4.8V32.8zM95.4 51L86 14.2h5l4.4 18.6c1.1 4.6 2.1 9.2 2.7 12.7h.1c.6-3.7 1.8-8 3-12.8l4.9-18.5h5l4.5 18.7c1 4.4 2 8.7 2.6 12.6h.1c.8-4 1.8-8.1 3-12.7l4.9-18.5h4.9L120.6 51h-5L111 31.9c-1.1-4.7-1.9-8.3-2.4-12h-.1c-.7 3.7-1.5 7.3-2.8 12L100.4 51h-5zM154.9 37.6c0 9.8-6.8 14-13.2 14-7.2 0-12.7-5.2-12.7-13.6 0-8.8 5.8-14 13.1-14 7.7 0 12.8 5.5 12.8 13.6zm-21 .3c0 5.8 3.3 10.1 8 10.1 4.6 0 8-4.3 8-10.3 0-4.5-2.2-10.1-7.9-10.1s-8.1 5.2-8.1 10.3zM158.2 32.8c0-3.1-.1-5.8-.2-8.2h4.2l.2 5.2h.2c1.2-3.5 4.1-5.8 7.3-5.8.5 0 .9.1 1.4.2v4.5c-.5-.1-1-.2-1.6-.2-3.4 0-5.8 2.6-6.5 6.2-.1.7-.2 1.4-.2 2.2V51h-4.8V32.8zM173.5 12.3h4.8V51h-4.8V12.3zM206.5 12.3v31.9c0 2.3.1 5 .2 6.8h-4.3l-.2-4.6h-.2c-1.5 2.9-4.7 5.2-9 5.2-6.4 0-11.3-5.4-11.3-13.4-.1-8.8 5.4-14.2 11.9-14.2 4 0 6.8 1.9 8 4h.1V12.3h4.8zm-4.8 23.1c0-.6-.1-1.4-.2-2a7 7 0 00-6.9-5.6c-5 0-7.9 4.4-7.9 10.2 0 5.3 2.6 9.8 7.8 9.8 3.2 0 6.2-2.1 7.1-5.7.2-.7.2-1.3.2-2.1v-4.6zM42.8 64c.1 1.6-1.1 2.9-3.1 2.9-1.7 0-2.9-1.3-2.9-2.9 0-1.7 1.3-3 3-3 1.9 0 3 1.3 3 3zm-5.4 33.8V71.4h4.8v26.4h-4.8zM47.5 78.6c0-2.7-.1-5-.2-7.1h4.3l.3 4.4h.1c1.3-2.5 4.4-5 8.8-5 3.7 0 9.4 2.2 9.4 11.2v15.8h-4.8V82.6c0-4.3-1.6-7.8-6.1-7.8-3.2 0-5.6 2.2-6.5 4.9-.2.6-.3 1.4-.3 2.2v15.9h-4.8V78.6zM84 61.6c2.9-.4 6.3-.8 10.1-.8 6.8 0 11.7 1.6 14.9 4.6 3.3 3 5.2 7.3 5.2 13.2 0 6-1.9 10.9-5.3 14.3-3.4 3.4-9.1 5.3-16.3 5.3-3.4 0-6.2-.2-8.6-.4V61.6zm4.8 32.5c1.2.2 3 .3 4.8.3 10.2 0 15.7-5.7 15.7-15.6.1-8.7-4.9-14.2-14.9-14.2-2.5 0-4.3.2-5.6.5v29zM132.1 97.8l-.4-3.3h-.2a9.79 9.79 0 01-8.1 3.9c-5.4 0-8.1-3.8-8.1-7.6 0-6.4 5.7-9.9 15.9-9.8v-.5c0-2.2-.6-6.1-6-6.1-2.5 0-5 .8-6.9 2l-1.1-3.2c2.2-1.4 5.4-2.3 8.7-2.3 8.1 0 10.1 5.5 10.1 10.8v9.9c0 2.3.1 4.5.4 6.3h-4.3zm-.7-13.4c-5.3-.1-11.2.8-11.2 5.9 0 3.1 2.1 4.6 4.5 4.6 3.4 0 5.6-2.2 6.4-4.4.2-.5.3-1 .3-1.5v-4.6zM146.6 63.9v7.6h6.9v3.7h-6.9v14.2c0 3.3.9 5.1 3.6 5.1 1.3 0 2.2-.2 2.8-.3l.2 3.6c-.9.4-2.4.7-4.3.7-2.2 0-4-.7-5.2-2-1.4-1.4-1.9-3.8-1.9-6.9V75.1h-4.1v-3.7h4.1v-6.3l4.8-1.2zM171.4 97.8l-.4-3.3h-.2a9.79 9.79 0 01-8.1 3.9c-5.4 0-8.1-3.8-8.1-7.6 0-6.4 5.7-9.9 15.9-9.8v-.5c0-2.2-.6-6.1-6-6.1-2.5 0-5 .8-6.9 2l-1.1-3.2c2.2-1.4 5.4-2.3 8.7-2.3 8.1 0 10.1 5.5 10.1 10.8v9.9c0 2.3.1 4.5.4 6.3h-4.3zm-.7-13.4c-5.3-.1-11.2.8-11.2 5.9 0 3.1 2.1 4.6 4.5 4.6 3.4 0 5.6-2.2 6.4-4.4.2-.5.3-1 .3-1.5v-4.6z"/></g></g></a></g><a href="https://ourworldindata.org/grapher/share-with-mental-or-substance-disorders-males-vs-females" target="_blank"><text font-size="21.6" x="15" y="32.3" fill="#555"><tspan x="15" y="32.28">Share of population with mental or substance use disorders, males vs.</tspan><tspan x="15" y="53.88">females, 2016</tspan></text></a><text font-size="14.4" x="15" y="72.7" fill="#666"><tspan x="15" y="72.72">Share of males vs. females with any mental health or substance use disorder; this includes depression, anxiety, bipolar, eating</tspan><tspan x="15" y="88.56">disorders, schizophrenia, alcohol and drug use disorders, and neurodevelopmental disorders. Due to the widespread</tspan><tspan x="15" y="104.4">under-diagnosis, these estimates use a combination of sources, including medical and national records, epidemiological data,</tspan><tspan x="15" y="120.24">survey data, and meta-regression models.</tspan></text></g><g><g class="AxisBoxView"><g class="HorizontalAxis"><text font-size="12.6" x="317.2" y="554"><tspan x="317.18" y="553.98">Share of females</tspan></text><text x="75.2" y="533.9" fill="#666" text-anchor="middle" font-size="16.2">10%</text><text x="183.3" y="533.9" fill="#666" text-anchor="middle" font-size="16.2">12%</text><text x="291.4" y="533.9" fill="#666" text-anchor="middle" font-size="16.2">14%</text><text x="399.5" y="533.9" fill="#666" text-anchor="middle" font-size="16.2">16%</text><text x="507.6" y="533.9" fill="#666" text-anchor="middle" font-size="16.2">18%</text><text x="615.7" y="533.9" fill="#666" text-anchor="middle" font-size="16.2">20%</text></g><g class="VerticalAxis"><text font-size="12.6" x="-391.8" y="25.1" transform="rotate(-90)"><tspan x="-391.82" y="25.08">Share of males</tspan></text><text x="70.16" y="512.7" fill="#666" dominant-baseline="middle" text-anchor="end" font-size="16.2">10%</text><text x="70.16" y="453.3" fill="#666" dominant-baseline="middle" text-anchor="end" font-size="16.2">12%</text><text x="70.16" y="394" fill="#666" dominant-baseline="middle" text-anchor="end" font-size="16.2">14%</text><text x="70.16" y="334.6" fill="#666" dominant-baseline="middle" text-anchor="end" font-size="16.2">16%</text><text x="70.16" y="275.3" fill="#666" dominant-baseline="middle" text-anchor="end" font-size="16.2">18%</text><text x="70.16" y="215.9" fill="#666" dominant-baseline="middle" text-anchor="end" font-size="16.2">20%</text><text x="70.16" y="156.6" fill="#666" dominant-baseline="middle" text-anchor="end" font-size="16.2">22%</text></g><g class="AxisGridLines" stroke="#ddd" stroke-dasharray="3,2"><path d="M75.16 512.7H715M75.16 453.3H715M75.16 394H715M75.16 334.6H715M75.16 275.3H715M75.16 215.9H715M75.16 156.6H715"/></g><g class="AxisGridLines" stroke="#ddd" stroke-dasharray="3,2"><path d="M75.2 512.7V142.1M183.3 512.7V142.1M291.4 512.7V142.1M399.5 512.7V142.1M507.6 512.7V142.1M615.7 512.7V142.1"/></g></g><g class="ComparisonLine"><defs><clipPath id="a"><path d="M75.16 142.1H715v370.6H75.16z"/></clipPath></defs><path d="M75.2 512.7l6.4-3.5 6.4-3.5 6.4-3.5 6.4-3.6 6.4-3.5 6.4-3.5 6.4-3.5 6.3-3.5 6.4-3.5 6.4-3.5 6.4-3.5 6.4-3.6 6.4-3.5 6.4-3.5 6.4-3.5 6.4-3.5 6.4-3.5 6.4-3.5 6.4-3.5 6.4-3.6 6.4-3.5 6.4-3.5 6.4-3.5 6.4-3.5 6.4-3.5 6.4-3.5 6.4-3.5 6.4-3.6 6.4-3.5 6.4-3.5 6.4-3.5 6.4-3.5 6.4-3.5 6.4-3.5 6.4-3.6 6.4-3.5 6.4-3.5 6.4-3.5 6.4-3.5 6.4-3.5 6.4-3.5 6.4-3.5 6.4-3.6 6.4-3.5 6.4-3.5 6.4-3.5 6.4-3.5 6.4-3.5 6.4-3.5 6.4-3.5 6.4-3.6 6.4-3.5 6.4-3.5 6.4-3.5 6.4-3.5 6.4-3.5 6.4-3.5 6.4-3.5 6.4-3.6 6.4-3.5 6.4-3.5 6.4-3.5 6.4-3.5 6.4-3.5 6.4-3.5 6.4-3.5 6.4-3.6 6.4-3.5 6.4-3.5 6.3-3.5 6.4-3.5 6.4-3.5 6.4-3.5 6.4-3.6 6.4-3.5 6.4-3.5 6.4-3.5 6.4-3.5 6.4-3.5 6.4-3.5 6.4-3.5 6.4-3.6 6.4-3.5 6.4-3.5 6.4-3.5 6.4-3.5 6.4-3.5 6.4-3.5 6.4-3.5 6.4-3.6 6.4-3.5 6.4-3.5 6.4-3.5 6.4-3.5 6.4-3.5 6.4-3.5 6.4-3.5 6.4-3.6 6.4-3.5" clip-path="url(#a)" fill="none" stroke="#ccc"/></g><g clip-path="url(#b)" font-family="Arial Narrow, Arial, sans-serif" class="PointsWithLabels clickable"><path fill="rgba(255,255,255,0)" d="M75.16 142.1H715v370.6H75.16z"/><defs><clipPath id="b"><path d="M65.16 132.1H725v390.6H65.16z"/></clipPath></defs><g class="key-China_0"><circle cx="277" cy="347" r="17.84" fill="#d14e5b" opacity=".8" stroke="#333" stroke-width=".7"/></g><g class="key-India_0"><circle cx="298" cy="343" r="17.29" fill="#d14e5b" opacity=".8" stroke="#fff" stroke-width=".7"/></g><g class="key-United-States_0"><circle cx="671" cy="154" r="8.78" fill="#4d824b" opacity=".8" stroke="#333" stroke-width=".7"/></g><g class="key-Indonesia_0"><circle cx="212" cy="424" r="7.78" fill="#d14e5b" opacity=".8" stroke="#333" stroke-width=".7"/></g><g class="key-Brazil_0"><circle cx="509" cy="277" r="7.04" fill="#69c487" opacity=".8" stroke="#333" stroke-width=".7"/></g><g class="key-Pakistan_0"><circle cx="335" cy="337" r="6.76" fill="#d14e5b" opacity=".8" stroke="#333" stroke-width=".7"/></g><g class="key-Nigeria_0"><circle cx="337" cy="357" r="6.54" fill="#5675c1" opacity=".8" stroke="#333" stroke-width=".7"/></g><g class="key-Bangladesh_0"><circle cx="342" cy="363" r="6.24" fill="#d14e5b" opacity=".8" stroke="#fff" stroke-width=".7"/></g><g class="key-Russia_0"><circle cx="400" cy="251" r="6.02" fill="#ffd336" opacity=".8" stroke="#333" stroke-width=".7"/></g><g class="key-Japan_0"><circle cx="263" cy="371" r="5.7" fill="#d14e5b" opacity=".8" stroke="#333" stroke-width=".7"/></g><g class="key-Mexico_0"><circle cx="197" cy="386" r="5.51" fill="#4d824b" opacity=".8" stroke="#333" stroke-width=".7"/></g><g class="key-Philippines_0"><circle cx="214" cy="412" r="5.09" fill="#d14e5b" opacity=".8" stroke="#fff" stroke-width=".7"/></g><g class="key-Vietnam_0"><circle cx="228" cy="425" r="4.92" fill="#d14e5b" opacity=".8" stroke="#fff" stroke-width=".7"/></g><g class="key-Ethiopia_0"><circle cx="363" cy="267" r="4.86" fill="#5675c1" opacity=".8" stroke="#333" stroke-width=".7"/></g><g class="key-Egypt_0"><circle cx="426" cy="312" r="4.79" fill="#5675c1" opacity=".8" stroke="#333" stroke-width=".7"/></g><g class="key-Germany_0"><circle cx="515" cy="301" r="4.71" fill="#ffd336" opacity=".8" stroke="#333" stroke-width=".7"/></g><g class="key-Iran_0"><circle cx="605" cy="214" r="4.57" fill="#d14e5b" opacity=".8" stroke="#333" stroke-width=".7"/></g><g class="key-Turkey_0"><circle cx="436" cy="312" r="4.54" fill="#d14e5b" opacity=".8" stroke="#fff" stroke-width=".7"/></g><g class="key-Democratic-Republic-of-Congo_0"><circle cx="368" cy="303" r="4.44" fill="#5675c1" opacity=".8" stroke="#fff" stroke-width=".7"/></g><g class="key-Thailand_0"><circle cx="267" cy="358" r="4.41" fill="#d14e5b" opacity=".8" stroke="#333" stroke-width=".7"/></g><g class="key-France_0"><circle cx="570" cy="285" r="4.24" fill="#ffd336" opacity=".8" stroke="#333" stroke-width=".7"/></g><g class="key-United-Kingdom_0"><circle cx="466" cy="278" r="4.22" fill="#ffd336" opacity=".8" stroke="#fff" stroke-width=".7"/></g><g class="key-Italy_0"><circle cx="472" cy="330" r="4.16" fill="#ffd336" opacity=".8" stroke="#333" stroke-width=".7"/></g><g class="key-South-Africa_0"><circle cx="334" cy="313" r="3.87" fill="#5675c1" opacity=".8" stroke="#333" stroke-width=".7"/></g><g class="key-Tanzania_0"><circle cx="351" cy="325" r="3.82" fill="#5675c1" opacity=".8" stroke="#fff" stroke-width=".7"/></g><g class="key-Myanmar_0"><circle cx="193" cy="412" r="3.82" fill="#d14e5b" opacity=".8" stroke="#fff" stroke-width=".7"/></g><g class="key-South-Korea_0"><circle cx="372" cy="329" r="3.81" fill="#d14e5b" opacity=".8" stroke="#fff" stroke-width=".7"/></g><g class="key-Colombia_0"><circle cx="147" cy="398" r="3.79" fill="#69c487" opacity=".8" stroke="#333" stroke-width=".7"/></g><g class="key-Spain_0"><circle cx="563" cy="288" r="3.75" fill="#ffd336" opacity=".8" stroke="#fff" stroke-width=".7"/></g><g class="key-Ukraine_0"><circle cx="456" cy="291" r="3.68" fill="#ffd336" opacity=".8" stroke="#333" stroke-width=".7"/></g><g class="key-Kenya_0"><circle cx="327" cy="347" r="3.65" fill="#5675c1" opacity=".8" stroke="#fff" stroke-width=".7"/></g><g class="key-Argentina_0"><circle cx="585" cy="284" r="3.58" fill="#69c487" opacity=".8" stroke="#fff" stroke-width=".7"/></g><g class="key-Poland_0"><circle cx="234" cy="351" r="3.47" fill="#ffd336" opacity=".8" stroke="#fff" stroke-width=".7"/></g><g class="key-Algeria_0"><circle cx="427" cy="319" r="3.43" fill="#5675c1" opacity=".8" stroke="#fff" stroke-width=".7"/></g><g class="key-Uganda_0"><circle cx="424" cy="305" r="3.42" fill="#5675c1" opacity=".8" stroke="#fff" stroke-width=".7"/></g><g class="key-Sudan_0"><circle cx="432" cy="309" r="3.39" fill="#5675c1" opacity=".8" stroke="#fff" stroke-width=".7"/></g><g class="key-Canada_0"><circle cx="519" cy="224" r="3.36" fill="#4d824b" opacity=".8" stroke="#333" stroke-width=".7"/></g><g class="key-Iraq_0"><circle cx="424" cy="325" r="3.35" fill="#d14e5b" opacity=".8" stroke="#333" stroke-width=".7"/></g><g class="key-Afghanistan_0"><circle cx="482" cy="283" r="3.34" fill="#d14e5b" opacity=".8" stroke="#fff" stroke-width=".7"/></g><g class="key-Morocco_0"><circle cx="514" cy="284" r="3.29" fill="#5675c1" opacity=".8" stroke="#fff" stroke-width=".7"/></g><g class="key-Nepal_0"><circle cx="328" cy="337" r="3.24" fill="#d14e5b" opacity=".8" stroke="#fff" stroke-width=".7"/></g><g class="key-Venezuela_0"><circle cx="205" cy="389" r="3.19" fill="#69c487" opacity=".8" stroke="#fff" stroke-width=".7"/></g><g class="key-Peru_0"><circle cx="274" cy="380" r="3.19" fill="#69c487" opacity=".8" stroke="#333" stroke-width=".7"/></g><g class="key-Malaysia_0"><circle cx="261" cy="396" r="3.17" fill="#d14e5b" opacity=".8" stroke="#333" stroke-width=".7"/></g><g class="key-Saudi-Arabia_0"><circle cx="381" cy="345" r="3.16" fill="#d14e5b" opacity=".8" stroke="#333" stroke-width=".7"/></g><g class="key-Uzbekistan_0"><circle cx="211" cy="377" r="3.12" fill="#d14e5b" opacity=".8" stroke="#fff" stroke-width=".7"/></g><g class="key-Ghana_0"><circle cx="296" cy="351" r="3.04" fill="#5675c1" opacity=".8" stroke="#fff" stroke-width=".7"/></g><g class="key-Mozambique_0"><circle cx="366" cy="305" r="3" fill="#5675c1" opacity=".8" stroke="#fff" stroke-width=".7"/></g><g class="key-North-Korea_0"><circle cx="264" cy="356" r="2.98" fill="#d14e5b" opacity=".8" stroke="#fff" stroke-width=".7"/></g><g class="key-Australia_0"><circle cx="680" cy="155" r="2.92" fill="#a652ba" opacity=".8" stroke="#fff" stroke-width=".7"/></g><g class="key-Taiwan_0"><circle cx="239" cy="366" r="2.92" fill="#d14e5b" opacity=".8" stroke="#fff" stroke-width=".7"/></g><g class="key-Madagascar_0"><circle cx="363" cy="312" r="2.9" fill="#5675c1" opacity=".8" stroke="#fff" stroke-width=".7"/></g><g class="key-Syria_0"><circle cx="428" cy="320" r="2.85" fill="#d14e5b" opacity=".8" stroke="#fff" stroke-width=".7"/></g><g class="key-Sri-Lanka_0"><circle cx="245" cy="382" r="2.85" fill="#d14e5b" opacity=".8" stroke="#fff" stroke-width=".7"/></g><g class="key-Romania_0"><circle cx="238" cy="392" r="2.85" fill="#ffd336" opacity=".8" stroke="#fff" stroke-width=".7"/></g><g class="key-Cote-d__0027Ivoire_0"><circle cx="306" cy="353" r="2.84" fill="#5675c1" opacity=".8" stroke="#fff" stroke-width=".7"/></g><g class="key-Cameroon_0"><circle cx="334" cy="343" r="2.83" fill="#5675c1" opacity=".8" stroke="#fff" stroke-width=".7"/></g><g class="key-Angola_0"><circle cx="341" cy="324" r="2.82" fill="#5675c1" opacity=".8" stroke="#fff" stroke-width=".7"/></g><g class="key-Burkina-Faso_0"><circle cx="336" cy="340" r="2.71" fill="#5675c1" opacity=".8" stroke="#fff" stroke-width=".7"/></g><g class="key-Chile_0"><circle cx="612" cy="271" r="2.69" fill="#69c487" opacity=".8" stroke="#333" stroke-width=".7"/></g><g class="key-Niger_0"><circle cx="356" cy="333" r="2.68" fill="#5675c1" opacity=".8" stroke="#fff" stroke-width=".7"/></g><g class="key-Mali_0"><circle cx="300" cy="364" r="2.66" fill="#5675c1" opacity=".8" stroke="#fff" stroke-width=".7"/></g><g class="key-Netherlands_0"><circle cx="554" cy="286" r="2.66" fill="#ffd336" opacity=".8" stroke="#fff" stroke-width=".7"/></g><g class="key-Kazakhstan_0"><circle cx="247" cy="322" r="2.65" fill="#d14e5b" opacity=".8" stroke="#fff" stroke-width=".7"/></g><g class="key-Malawi_0"><circle cx="348" cy="317" r="2.64" fill="#5675c1" opacity=".8" stroke="#fff" stroke-width=".7"/></g><g class="key-Guatemala_0"><circle cx="247" cy="330" r="2.6" fill="#4d824b" opacity=".8" stroke="#fff" stroke-width=".7"/></g><g class="key-Ecuador_0"><circle cx="312" cy="347" r="2.58" fill="#69c487" opacity=".8" stroke="#fff" stroke-width=".7"/></g><g class="key-Cambodia_0"><circle cx="244" cy="389" r="2.56" fill="#d14e5b" opacity=".8" stroke="#fff" stroke-width=".7"/></g><g class="key-Zambia_0"><circle cx="327" cy="317" r="2.55" fill="#5675c1" opacity=".8" stroke="#fff" stroke-width=".7"/></g><g class="key-Senegal_0"><circle cx="301" cy="350" r="2.51" fill="#5675c1" opacity=".8" stroke="#fff" stroke-width=".7"/></g><g class="key-Zimbabwe_0"><circle cx="296" cy="292" r="2.5" fill="#5675c1" opacity=".8" stroke="#333" stroke-width=".7"/></g><g class="key-Chad_0"><circle cx="354" cy="342" r="2.45" fill="#5675c1" opacity=".8" stroke="#fff" stroke-width=".7"/></g><g class="key-Rwanda_0"><circle cx="378" cy="271" r="2.42" fill="#5675c1" opacity=".8" stroke="#fff" stroke-width=".7"/></g><g class="key-Greece_0"><circle cx="508" cy="312" r="2.41" fill="#ffd336" opacity=".8" stroke="#333" stroke-width=".7"/></g><g class="key-Cuba_0"><circle cx="377" cy="303" r="2.4" fill="#4d824b" opacity=".8" stroke="#fff" stroke-width=".7"/></g><g class="key-South-Sudan_0"><circle cx="351" cy="329" r="2.39" fill="#5675c1" opacity=".8" stroke="#fff" stroke-width=".7"/></g><g class="key-Belgium_0"><circle cx="498" cy="284" r="2.38" fill="#ffd336" opacity=".8" stroke="#333" stroke-width=".7"/></g><g class="key-Tunisia_0"><circle cx="451" cy="295" r="2.38" fill="#5675c1" opacity=".8" stroke="#fff" stroke-width=".7"/></g><g class="key-Guinea_0"><circle cx="335" cy="351" r="2.38" fill="#5675c1" opacity=".8" stroke="#fff" stroke-width=".7"/></g><g class="key-Portugal_0"><circle cx="526" cy="294" r="2.38" fill="#ffd336" opacity=".8" stroke="#fff" stroke-width=".7"/></g><g class="key-Czech-Republic_0"><circle cx="285" cy="357" r="2.37" fill="#ffd336" opacity=".8" stroke="#fff" stroke-width=".7"/></g><g class="key-Bolivia_0"><circle cx="340" cy="347" r="2.36" fill="#69c487" opacity=".8" stroke="#fff" stroke-width=".7"/></g><g class="key-Haiti_0"><circle cx="359" cy="317" r="2.36" fill="#4d824b" opacity=".8" stroke="#fff" stroke-width=".7"/></g><g class="key-Dominican-Republic_0"><circle cx="344" cy="318" r="2.36" fill="#4d824b" opacity=".8" stroke="#fff" stroke-width=".7"/></g><g class="key-Somalia_0"><circle cx="399" cy="298" r="2.35" fill="#5675c1" opacity=".8" stroke="#333" stroke-width=".7"/></g><g class="key-Hungary_0"><circle cx="285" cy="359" r="2.34" fill="#ffd336" opacity=".8" stroke="#fff" stroke-width=".7"/></g><g class="key-Serbia_0"><circle cx="264" cy="374" r="2.34" fill="#ffd336" opacity=".8" stroke="#fff" stroke-width=".7"/></g><g class="key-Benin_0"><circle cx="334" cy="341" r="2.32" fill="#5675c1" opacity=".8" stroke="#fff" stroke-width=".7"/></g><g class="key-Sweden_0"><circle cx="540" cy="284" r="2.32" fill="#ffd336" opacity=".8" stroke="#fff" stroke-width=".7"/></g><g class="key-Azerbaijan_0"><circle cx="208" cy="345" r="2.32" fill="#d14e5b" opacity=".8" stroke="#333" stroke-width=".7"/></g><g class="key-Belarus_0"><circle cx="426" cy="286" r="2.32" fill="#ffd336" opacity=".8" stroke="#fff" stroke-width=".7"/></g><g class="key-Burundi_0"><circle cx="395" cy="290" r="2.29" fill="#5675c1" opacity=".8" stroke="#fff" stroke-width=".7"/></g><g class="key-Austria_0"><circle cx="478" cy="303" r="2.26" fill="#ffd336" opacity=".8" stroke="#fff" stroke-width=".7"/></g><g class="key-United-Arab-Emirates_0"><circle cx="344" cy="351" r="2.25" fill="#d14e5b" opacity=".8" stroke="#fff" stroke-width=".7"/></g><g class="key-Honduras_0"><circle cx="207" cy="385" r="2.25" fill="#4d824b" opacity=".8" stroke="#fff" stroke-width=".7"/></g><g class="key-Israel_0"><circle cx="356" cy="360" r="2.23" fill="#d14e5b" opacity=".8" stroke="#fff" stroke-width=".7"/></g><g class="key-Switzerland_0"><circle cx="474" cy="314" r="2.23" fill="#ffd336" opacity=".8" stroke="#fff" stroke-width=".7"/></g><g class="key-Bulgaria_0"><circle cx="265" cy="380" r="2.21" fill="#ffd336" opacity=".8" stroke="#fff" stroke-width=".7"/></g><g class="key-Papua-New-Guinea_0"><circle cx="234" cy="394" r="2.21" fill="#a652ba" opacity=".8" stroke="#fff" stroke-width=".7"/></g><g class="key-Tajikistan_0"><circle cx="215" cy="367" r="2.2" fill="#d14e5b" opacity=".8" stroke="#333" stroke-width=".7"/></g><g class="key-Paraguay_0"><circle cx="474" cy="309" r="2.18" fill="#69c487" opacity=".8" stroke="#fff" stroke-width=".7"/></g><g class="key-Jordan_0"><circle cx="422" cy="315" r="2.17" fill="#d14e5b" opacity=".8" stroke="#fff" stroke-width=".7"/></g><g class="key-Libya_0"><circle cx="426" cy="312" r="2.16" fill="#5675c1" opacity=".8" stroke="#fff" stroke-width=".7"/></g><g class="key-Laos_0"><circle cx="253" cy="385" r="2.16" fill="#d14e5b" opacity=".8" stroke="#fff" stroke-width=".7"/></g><g class="key-Togo_0"><circle cx="331" cy="339" r="2.16" fill="#5675c1" opacity=".8" stroke="#fff" stroke-width=".7"/></g><g class="key-El-Salvador_0"><circle cx="225" cy="318" r="2.15" fill="#4d824b" opacity=".8" stroke="#fff" stroke-width=".7"/></g><g class="key-Sierra-Leone_0"><circle cx="345" cy="347" r="2.15" fill="#5675c1" opacity=".8" stroke="#fff" stroke-width=".7"/></g><g class="key-Nicaragua_0"><circle cx="213" cy="358" r="2.14" fill="#4d824b" opacity=".8" stroke="#fff" stroke-width=".7"/></g><g class="key-Eritrea_0"><circle cx="375" cy="302" r="2.12" fill="#5675c1" opacity=".8" stroke="#fff" stroke-width=".7"/></g><g class="key-Denmark_0"><circle cx="423" cy="321" r="2.12" fill="#ffd336" opacity=".8" stroke="#fff" stroke-width=".7"/></g><g class="key-Kyrgyzstan_0"><circle cx="235" cy="328" r="2.11" fill="#d14e5b" opacity=".8" stroke="#fff" stroke-width=".7"/></g><g class="key-Slovakia_0"><circle cx="268" cy="353" r="2.11" fill="#ffd336" opacity=".8" stroke="#fff" stroke-width=".7"/></g><g class="key-Finland_0"><circle cx="489" cy="215" r="2.1" fill="#ffd336" opacity=".8" stroke="#fff" stroke-width=".7"/></g><g class="key-Singapore_0"><circle cx="296" cy="375" r="2.1" fill="#d14e5b" opacity=".8" stroke="#fff" stroke-width=".7"/></g><g class="key-Turkmenistan_0"><circle cx="214" cy="360" r="2.09" fill="#d14e5b" opacity=".8" stroke="#fff" stroke-width=".7"/></g><g class="key-Norway_0"><circle cx="515" cy="267" r="2.08" fill="#ffd336" opacity=".8" stroke="#fff" stroke-width=".7"/></g><g class="key-Costa-Rica_0"><circle cx="206" cy="391" r="2.07" fill="#4d824b" opacity=".8" stroke="#fff" stroke-width=".7"/></g><g class="key-Central-African-Republic_0"><circle cx="372" cy="295" r="2.06" fill="#5675c1" opacity=".8" stroke="#fff" stroke-width=".7"/></g><g class="key-Ireland_0"><circle cx="538" cy="257" r="2.06" fill="#ffd336" opacity=".8" stroke="#333" stroke-width=".7"/></g><g class="key-New-Zealand_0"><circle cx="673" cy="173" r="2.05" fill="#a652ba" opacity=".8" stroke="#333" stroke-width=".7"/></g><g class="key-Croatia_0"><circle cx="282" cy="351" r="2.05" fill="#ffd336" opacity=".8" stroke="#fff" stroke-width=".7"/></g><g class="key-Liberia_0"><circle cx="404" cy="352" r="2.04" fill="#5675c1" opacity=".8" stroke="#fff" stroke-width=".7"/></g><g class="key-Congo_0"><circle cx="336" cy="331" r="2.04" fill="#5675c1" opacity=".8" stroke="#fff" stroke-width=".7"/></g><g class="key-Lebanon_0"><circle cx="501" cy="302" r="2.04" fill="#d14e5b" opacity=".8" stroke="#fff" stroke-width=".7"/></g><g class="key-Georgia_0"><circle cx="212" cy="373" r="2.04" fill="#d14e5b" opacity=".8" stroke="#fff" stroke-width=".7"/></g><g class="key-Puerto-Rico_0"><circle cx="351" cy="291" r="2.01" fill="#4d824b" opacity=".8" stroke="#fff" stroke-width=".7"/></g><g class="key-Bosnia-and-Herzegovina_0"><circle cx="287" cy="339" r="2.01" fill="#ffd336" opacity=".8" stroke="#fff" stroke-width=".7"/></g><g class="key-Mauritania_0"><circle cx="279" cy="362" r="2.01" fill="#5675c1" opacity=".8" stroke="#fff" stroke-width=".7"/></g><g class="key-Panama_0"><circle cx="199" cy="392" r="2.01" fill="#4d824b" opacity=".8" stroke="#fff" stroke-width=".7"/></g><g class="key-Moldova_0"><circle cx="382" cy="316" r="2" fill="#ffd336" opacity=".8" stroke="#fff" stroke-width=".7"/></g><g class="key-Uruguay_0"><circle cx="564" cy="313" r="1.99" fill="#69c487" opacity=".8" stroke="#333" stroke-width=".7"/></g><g class="key-Lithuania_0"><circle cx="406" cy="292" r="1.98" fill="#ffd336" opacity=".8" stroke="#fff" stroke-width=".7"/></g><g class="key-Albania_0"><circle cx="258" cy="385" r="1.98" fill="#ffd336" opacity=".8" stroke="#fff" stroke-width=".7"/></g><g class="key-Armenia_0"><circle cx="217" cy="372" r="1.97" fill="#d14e5b" opacity=".8" stroke="#fff" stroke-width=".7"/></g><g class="key-Kuwait_0"><circle cx="432" cy="324" r="1.96" fill="#d14e5b" opacity=".8" stroke="#fff" stroke-width=".7"/></g><g class="key-Oman_0"><circle cx="417" cy="332" r="1.96" fill="#d14e5b" opacity=".8" stroke="#fff" stroke-width=".7"/></g><g class="key-Mongolia_0"><circle cx="269" cy="284" r="1.96" fill="#d14e5b" opacity=".8" stroke="#fff" stroke-width=".7"/></g><g class="key-Jamaica_0"><circle cx="336" cy="335" r="1.95" fill="#4d824b" opacity=".8" stroke="#fff" stroke-width=".7"/></g><g class="key-Namibia_0"><circle cx="307" cy="296" r="1.93" fill="#5675c1" opacity=".8" stroke="#fff" stroke-width=".7"/></g><g class="key-Lesotho_0"><circle cx="440" cy="261" r="1.92" fill="#5675c1" opacity=".8" stroke="#333" stroke-width=".7"/></g><g class="key-Latvia_0"><circle cx="382" cy="302" r="1.92" fill="#ffd336" opacity=".8" stroke="#fff" stroke-width=".7"/></g><g class="key-Botswana_0"><circle cx="330" cy="296" r="1.91" fill="#5675c1" opacity=".8" stroke="#fff" stroke-width=".7"/></g><g class="key-Macedonia_0"><circle cx="264" cy="383" r="1.91" fill="#ffd336" opacity=".8" stroke="#fff" stroke-width=".7"/></g><g class="key-Slovenia_0"><circle cx="301" cy="345" r="1.91" fill="#ffd336" opacity=".8" stroke="#fff" stroke-width=".7"/></g><g class="key-Qatar_0"><circle cx="423" cy="321" r="1.91" fill="#d14e5b" opacity=".8" stroke="#fff" stroke-width=".7"/></g><g class="key-Gambia_0"><circle cx="391" cy="359" r="1.9" fill="#5675c1" opacity=".8" stroke="#333" stroke-width=".7"/></g><g class="key-Guinea__002dBissau_0"><circle cx="340" cy="346" r="1.88" fill="#5675c1" opacity=".8" stroke="#fff" stroke-width=".7"/></g><g class="key-Gabon_0"><circle cx="314" cy="332" r="1.88" fill="#5675c1" opacity=".8" stroke="#fff" stroke-width=".7"/></g><g class="key-Bahrain_0"><circle cx="425" cy="316" r="1.87" fill="#d14e5b" opacity=".8" stroke="#fff" stroke-width=".7"/></g><g class="key-Trinidad-and-Tobago_0"><circle cx="365" cy="307" r="1.87" fill="#4d824b" opacity=".8" stroke="#fff" stroke-width=".7"/></g><g class="key-Estonia_0"><circle cx="429" cy="271" r="1.87" fill="#ffd336" opacity=".8" stroke="#fff" stroke-width=".7"/></g><g class="key-Mauritius_0"><circle cx="262" cy="380" r="1.87" fill="#5675c1" opacity=".8" stroke="#fff" stroke-width=".7"/></g><g class="key-Swaziland_0"><circle cx="331" cy="293" r="1.86" fill="#5675c1" opacity=".8" stroke="#fff" stroke-width=".7"/></g><g class="key-Cyprus_0"><circle cx="440" cy="339" r="1.85" fill="#ffd336" opacity=".8" stroke="#fff" stroke-width=".7"/></g><g class="key-Djibouti_0"><circle cx="347" cy="322" r="1.84" fill="#5675c1" opacity=".8" stroke="#fff" stroke-width=".7"/></g><g class="key-Fiji_0"><circle cx="230" cy="403" r="1.84" fill="#a652ba" opacity=".8" stroke="#333" stroke-width=".7"/></g><g class="key-Comoros_0"><circle cx="339" cy="333" r="1.83" fill="#5675c1" opacity=".8" stroke="#fff" stroke-width=".7"/></g><g class="key-Bhutan_0"><circle cx="330" cy="335" r="1.83" fill="#d14e5b" opacity=".8" stroke="#fff" stroke-width=".7"/></g><g class="key-Equatorial-Guinea_0"><circle cx="321" cy="339" r="1.83" fill="#5675c1" opacity=".8" stroke="#fff" stroke-width=".7"/></g><g class="key-Guyana_0"><circle cx="425" cy="283" r="1.83" fill="#69c487" opacity=".8" stroke="#fff" stroke-width=".7"/></g><g class="key-Montenegro_0"><circle cx="275" cy="371" r="1.82" fill="#ffd336" opacity=".8" stroke="#fff" stroke-width=".7"/></g><g class="key-Solomon-Islands_0"><circle cx="233" cy="395" r="1.82" fill="#a652ba" opacity=".8" stroke="#fff" stroke-width=".7"/></g><g class="key-Suriname_0"><circle cx="417" cy="295" r="1.82" fill="#69c487" opacity=".8" stroke="#fff" stroke-width=".7"/></g><g class="key-Luxembourg_0"><circle cx="475" cy="313" r="1.82" fill="#ffd336" opacity=".8" stroke="#fff" stroke-width=".7"/></g><g class="key-Cape-Verde_0"><circle cx="322" cy="322" r="1.81" fill="#5675c1" opacity=".8" stroke="#fff" stroke-width=".7"/></g><g class="key-Malta_0"><circle cx="457" cy="331" r="1.81" fill="#ffd336" opacity=".8" stroke="#fff" stroke-width=".7"/></g><g class="key-Brunei_0"><circle cx="255" cy="388" r="1.81" fill="#d14e5b" opacity=".8" stroke="#fff" stroke-width=".7"/></g><g class="key-Bahamas_0"><circle cx="341" cy="316" r="1.8" fill="#4d824b" opacity=".8" stroke="#fff" stroke-width=".7"/></g><g class="key-Iceland_0"><circle cx="440" cy="328" r="1.8" fill="#ffd336" opacity=".8" stroke="#fff" stroke-width=".7"/></g><g class="key-Belize_0"><circle cx="342" cy="309" r="1.8" fill="#4d824b" opacity=".8" stroke="#fff" stroke-width=".7"/></g><g class="key-Maldives_0"><circle cx="249" cy="402" r="1.8" fill="#d14e5b" opacity=".8" stroke="#fff" stroke-width=".7"/></g><g class="key-Barbados_0"><circle cx="345" cy="322" r="1.8" fill="#4d824b" opacity=".8" stroke="#fff" stroke-width=".7"/></g><g class="key-Vanuatu_0"><circle cx="226" cy="396" r="1.8" fill="#a652ba" opacity=".8" stroke="#fff" stroke-width=".7"/></g><g class="key-Guam_0"><circle cx="247" cy="369" r="1.79" fill="#a652ba" opacity=".8" stroke="#fff" stroke-width=".7"/></g><g class="key-Samoa_0"><circle cx="227" cy="398" r="1.79" fill="#a652ba" opacity=".8" stroke="#fff" stroke-width=".7"/></g><g class="key-Saint-Lucia_0"><circle cx="338" cy="320" r="1.79" fill="#4d824b" opacity=".8" stroke="#fff" stroke-width=".7"/></g><g class="key-Sao-Tome-and-Principe_0"><circle cx="292" cy="368" r="1.79" fill="#5675c1" opacity=".8" stroke="#fff" stroke-width=".7"/></g><g class="key-Saint-Vincent-and-the-Grenadines_0"><circle cx="336" cy="297" r="1.79" fill="#4d824b" opacity=".8" stroke="#fff" stroke-width=".7"/></g><g class="key-Grenada_0"><circle cx="334" cy="317" r="1.79" fill="#4d824b" opacity=".8" stroke="#fff" stroke-width=".7"/></g><g class="key-Tonga_0"><circle cx="224" cy="403" r="1.79" fill="#a652ba" opacity=".8" stroke="#fff" stroke-width=".7"/></g><g class="key-Kiribati_0"><circle cx="236" cy="380" r="1.79" fill="#a652ba" opacity=".8" stroke="#333" stroke-width=".7"/></g><g class="key-Antigua-and-Barbuda_0"><circle cx="343" cy="313" r="1.79" fill="#4d824b" opacity=".8" stroke="#fff" stroke-width=".7"/></g><g class="key-Andorra_0"><circle cx="475" cy="312" r="1.79" fill="#ffd336" opacity=".8" stroke="#fff" stroke-width=".7"/></g><g class="key-Seychelles_0"><circle cx="213" cy="406" r="1.79" fill="#5675c1" opacity=".8" stroke="#fff" stroke-width=".7"/></g><g class="key-American-Samoa_0"><circle cx="226" cy="397" r="1.79" fill="#a652ba" opacity=".8" stroke="#fff" stroke-width=".7"/></g><g class="key-Dominica_0"><circle cx="345" cy="309" r="1.79" fill="#4d824b" opacity=".8" stroke="#fff" stroke-width=".7"/></g><g class="key-Bermuda_0"><circle cx="358" cy="314" r="1.79" fill="#4d824b" opacity=".8" stroke="#fff" stroke-width=".7"/></g><g class="key-Northern-Mariana-Islands_0"><circle cx="226" cy="375" r="1.79" fill="#a652ba" opacity=".8" stroke="#fff" stroke-width=".7"/></g><g class="key-Greenland_0"><circle cx="715" cy="142" r="1.78" fill="#4d824b" opacity=".8" stroke="#fff" stroke-width=".7"/></g><g class="key-Marshall-Islands_0"><circle cx="227" cy="396" r="1.78" fill="#a652ba" opacity=".8" stroke="#fff" stroke-width=".7"/></g><g class="key-North-America_0"><circle cx="655" cy="161" r="1.78" fill="#000" opacity=".8" stroke="#fff" stroke-width=".7"/></g><g class="key-Andean-Latin-America_0"><circle cx="296" cy="365" r="1.78" fill="#000" opacity=".8" stroke="#fff" stroke-width=".7"/></g><g class="key-Middle-SDI_0"><circle cx="288" cy="358" r="1.78" fill="#000" opacity=".8" stroke="#fff" stroke-width=".7"/></g><g class="key-Latin-America-and-Caribbean_0"><circle cx="339" cy="335" r="1.78" fill="#000" opacity=".8" stroke="#fff" stroke-width=".7"/></g><g class="key-Scotland_0"><circle cx="474" cy="251" r="1.78" fill="#000" opacity=".8" stroke="#fff" stroke-width=".7"/></g><g class="key-Northern-Ireland_0"><circle cx="541" cy="266" r="1.78" fill="#000" opacity=".8" stroke="#fff" stroke-width=".7"/></g><g class="key-Central-Latin-America_0"><circle cx="192" cy="384" r="1.78" fill="#000" opacity=".8" stroke="#fff" stroke-width=".7"/></g><g class="key-Eastern-Europe_0"><circle cx="413" cy="264" r="1.78" fill="#000" opacity=".8" stroke="#fff" stroke-width=".7"/></g><g class="key-High-SDI_0"><circle cx="507" cy="259" r="1.78" fill="#000" opacity=".8" stroke="#fff" stroke-width=".7"/></g><g class="key-Micronesia-__0028country__0029_0"><circle cx="229" cy="391" r="1.78" fill="#a652ba" opacity=".8" stroke="#fff" stroke-width=".7"/></g><g class="key-Central-Asia_0"><circle cx="223" cy="353" r="1.78" fill="#000" opacity=".8" stroke="#fff" stroke-width=".7"/></g><g class="key-Timor_0"><circle cx="251" cy="400" r="1.78" fill="#d14e5b" opacity=".8" stroke="#fff" stroke-width=".7"/></g><g class="key-High__002dincome-Asia-Pacific_0"><circle cx="297" cy="358" r="1.78" fill="#000" opacity=".8" stroke="#fff" stroke-width=".7"/></g><g class="key-England_0"><circle cx="462" cy="281" r="1.78" fill="#000" opacity=".8" stroke="#fff" stroke-width=".7"/></g><g class="key-World_0"><circle cx="339" cy="335" r="1.78" fill="#000" opacity=".8" stroke="#fff" stroke-width=".7"/></g><g class="key-East-Asia_0"><circle cx="276" cy="348" r="1.78" fill="#000" opacity=".8" stroke="#fff" stroke-width=".7"/></g><g class="key-Tropical-Latin-America_0"><circle cx="508" cy="278" r="1.78" fill="#000" opacity=".8" stroke="#fff" stroke-width=".7"/></g><g class="key-Southern-Sub__002dSaharan-Africa_0"><circle cx="330" cy="307" r="1.78" fill="#000" opacity=".8" stroke="#fff" stroke-width=".7"/></g><g class="key-Sub__002dSaharan-Africa_0"><circle cx="346" cy="324" r="1.78" fill="#000" opacity=".8" stroke="#fff" stroke-width=".7"/></g><g class="key-Yemen_0"><circle cx="449" cy="313" r="1.78" fill="#d14e5b" opacity=".8" stroke="#fff" stroke-width=".7"/></g><g class="key-Palestine_0"><circle cx="469" cy="277" r="1.78" fill="#d14e5b" opacity=".8" stroke="#fff" stroke-width=".7"/></g><g class="key-Australasia_0"><circle cx="679" cy="158" r="1.78" fill="#000" opacity=".8" stroke="#fff" stroke-width=".7"/></g><g class="key-North-Africa-and-Middle-East_0"><circle cx="462" cy="300" r="1.78" fill="#000" opacity=".8" stroke="#fff" stroke-width=".7"/></g><g class="key-Caribbean_0"><circle cx="361" cy="310" r="1.78" fill="#000" opacity=".8" stroke="#fff" stroke-width=".7"/></g><g class="key-Western-Sub__002dSaharan-Africa_0"><circle cx="330" cy="352" r="1.78" fill="#000" opacity=".8" stroke="#fff" stroke-width=".7"/></g><g class="key-Southern-Latin-America_0"><circle cx="592" cy="281" r="1.78" fill="#000" opacity=".8" stroke="#fff" stroke-width=".7"/></g><g class="key-South-Asia_0"><circle cx="306" cy="344" r="1.78" fill="#000" opacity=".8" stroke="#fff" stroke-width=".7"/></g><g class="key-Low__002dmiddle-SDI_0"><circle cx="321" cy="341" r="1.78" fill="#000" opacity=".8" stroke="#fff" stroke-width=".7"/></g><g class="key-Western-Europe_0"><circle cx="510" cy="296" r="1.78" fill="#000" opacity=".8" stroke="#fff" stroke-width=".7"/></g><g class="key-Central-Europe_0"><circle cx="255" cy="364" r="1.78" fill="#000" opacity=".8" stroke="#fff" stroke-width=".7"/></g><g class="key-Oceania_0"><circle cx="233" cy="394" r="1.78" fill="#000" opacity=".8" stroke="#fff" stroke-width=".7"/></g><g class="key-Central-Sub__002dSaharan-Africa_0"><circle cx="360" cy="309" r="1.78" fill="#000" opacity=".8" stroke="#fff" stroke-width=".7"/></g><g class="key-Southeast-Asia_0"><circle cx="224" cy="411" r="1.78" fill="#000" opacity=".8" stroke="#fff" stroke-width=".7"/></g><g class="key-High__002dmiddle-SDI_0"><circle cx="376" cy="318" r="1.78" fill="#000" opacity=".8" stroke="#fff" stroke-width=".7"/></g><g class="key-Eastern-Sub__002dSaharan-Africa_0"><circle cx="363" cy="304" r="1.78" fill="#000" opacity=".8" stroke="#fff" stroke-width=".7"/></g><g class="key-United-States-Virgin-Islands_0"><circle cx="357" cy="283" r="1.78" fill="#4d824b" opacity=".8" stroke="#fff" stroke-width=".7"/></g><g class="key-Wales_0"><circle cx="470" cy="273" r="1.78" fill="#000" opacity=".8" stroke="#fff" stroke-width=".7"/></g><g class="key-Low-SDI_0"><circle cx="357" cy="316" r="1.78" fill="#000" opacity=".8" stroke="#fff" stroke-width=".7"/></g><g fill="#333" class="backgroundLabels"><text x="277" y="328.16" font-size="14.3">China</text><text x="600.01" y="153.87" font-size="11.77">United States</text><text x="212" y="415.22" font-size="11.6">Indonesia</text><text x="509" y="268.96" font-size="11.49">Brazil</text><text x="335" y="329.24" font-size="11.44">Pakistan</text><text x="337" y="349.46" font-size="11.41">Nigeria</text><text x="400" y="243.98" font-size="11.35">Russia</text><text x="263" y="364.3" font-size="11.31">Japan</text><text x="197" y="379.49" font-size="11.29">Mexico</text><text x="363" y="261.14" font-size="11.21">Ethiopia</text><text x="426" y="306.21" font-size="11.21">Egypt</text><text x="515" y="295.29" font-size="11.2">Germany</text><text x="605" y="208.43" font-size="11.19">Iran</text><text x="267" y="352.59" font-size="11.17">Thailand</text><text x="570" y="279.76" font-size="11.15">France</text><text x="472" y="324.84" font-size="11.15">Italy</text><text x="334" y="308.13" font-size="11.12">South Africa</text><text x="147" y="393.21" font-size="11.12">Colombia</text><text x="456" y="286.32" font-size="11.11">Ukraine</text><text x="519" y="219.64" font-size="11.08">Canada</text><text x="424" y="320.65" font-size="11.08">Iraq</text><text x="274" y="375.81" font-size="11.07">Peru</text><text x="261" y="391.83" font-size="11.07">Malaysia</text><text x="381" y="340.84" font-size="11.07">Saudi Arabia</text><text x="612" y="267.31" font-size="11.04">Chile</text><text x="296" y="288.5" font-size="11.03">Zimbabwe</text><text x="508" y="308.59" font-size="11.03">Greece</text><text x="498" y="280.62" font-size="11.03">Belgium</text><text x="399" y="294.65" font-size="11.02">Somalia</text><text x="208" y="341.68" font-size="11.02">Azerbaijan</text><text x="215" y="363.8" font-size="11.02">Tajikistan</text><text x="538" y="253.94" font-size="11.01">Ireland</text><text x="607.93" y="169.95" font-size="11.01">New Zealand</text><text x="564" y="310.01" font-size="11.01">Uruguay</text><text x="440" y="258.08" font-size="11.01">Lesotho</text><text x="391" y="356.1" font-size="11">Gambia</text><text x="230" y="400.16" font-size="11">Fiji</text><text x="236" y="377.21" font-size="11">Kiribati</text></g></g><g class="ScatterColorLegend clickable" cursor="pointer"><g class="legendMark">,<path fill="#5675c1" d="M735 145.1h6v6h-6z"/>,<text font-size="12.6" x="746" y="152.2"><tspan x="746" y="152.18">Africa</tspan></text></g><g class="legendMark">,<path fill="#d14e5b" d="M735 162.7h6v6h-6z"/>,<text font-size="12.6" x="746" y="169.8"><tspan x="746" y="169.78">Asia</tspan></text></g><g class="legendMark">,<path fill="#ffd336" d="M735 180.3h6v6h-6z"/>,<text font-size="12.6" x="746" y="187.4"><tspan x="746" y="187.38">Europe</tspan></text></g><g class="legendMark">,<path fill="#4d824b" d="M735 197.9h6v6h-6z"/>,<text font-size="12.6" x="746" y="205"><tspan x="746" y="204.98">North America</tspan></text></g><g class="legendMark">,<path fill="#a652ba" d="M735 215.5h6v6h-6z"/>,<text font-size="12.6" x="746" y="222.6"><tspan x="746" y="222.58">Oceania</tspan></text></g><g class="legendMark">,<path fill="#69c487" d="M735 233.1h6v6h-6z"/>,<text font-size="12.6" x="746" y="240.2"><tspan x="746" y="240.18">South America</tspan></text></g></g></g><g class="SourcesFooter" fill="#777"><g class="clickable" fill="#777"><text font-size="12.6" x="15" y="581.6"><tspan x="15" y="581.58">Source: IHME, Global Burden of Disease</tspan></text></g><text font-size="12.6" x="775.4" y="581.6"><tspan x="775.4" y="581.58"><a class="cclogo" href="http://creativecommons.org/licenses/by-sa/4.0/deed.en_US" target="_blank" fill="#777">CC BY-SA</a></tspan></text></g></g></svg>