<svg xmlns="http://www.w3.org/2000/svg" version="1.1" style="background-color:#fff;-webkit-font-smoothing:antialiased" width="850" height="600" font-family="'Helvetica Neue',Helvetica,Arial,sans-serif" font-size="18" text-rendering="optimizeLegibility"><g class="ChartTab"><g class="HeaderView"><g opacity=".8" transform="matrix(.27 0 0 .27 778 15)"><a xmlns:xlink="http://www.w3.org/1999/xlink" xlink:href="https://ourworldindata.org" target="_blank"><g><path fill="#1B2543" d="M0 0h211.2v130.1H0z"/><path fill="#E63912" d="M0 112.2h211.2v17.9H0z"/><g><path fill="none" d="M1.2 12.3h210.2v99.2H1.2z"/><path fill="#FFF" d="M37.8 32.2c0 12.7-7.7 19.4-17.1 19.4-9.7 0-16.6-7.5-16.6-18.7 0-11.7 7.3-19.3 17.1-19.3 10.1.1 16.6 7.7 16.6 18.6zm-28.6.6c0 7.9 4.3 14.9 11.8 14.9 7.5 0 11.8-6.9 11.8-15.3 0-7.3-3.8-14.9-11.8-14.9-7.9 0-11.8 7.3-11.8 15.3zM62.7 43.8c0 2.7.1 5.1.2 7.2h-4.3l-.3-4.3h-.1c-1.3 2.1-4 4.9-8.8 4.9-4.2 0-9.1-2.3-9.1-11.6V24.6h4.8v14.6c0 5 1.5 8.4 5.9 8.4 3.2 0 5.5-2.2 6.3-4.4.3-.7.4-1.6.4-2.5V24.6h4.8v19.2zM67.3 32.8c0-3.1-.1-5.8-.2-8.2h4.2l.2 5.2h.2c1.2-3.5 4.1-5.8 7.3-5.8.5 0 .9.1 1.4.2v4.5c-.5-.1-1-.2-1.6-.2-3.4 0-5.8 2.6-6.5 6.2-.1.7-.2 1.4-.2 2.2V51h-4.8V32.8zM95.4 51L86 14.2h5l4.4 18.6c1.1 4.6 2.1 9.2 2.7 12.7h.1c.6-3.7 1.8-8 3-12.8l4.9-18.5h5l4.5 18.7c1 4.4 2 8.7 2.6 12.6h.1c.8-4 1.8-8.1 3-12.7l4.9-18.5h4.9L120.6 51h-5L111 31.9c-1.1-4.7-1.9-8.3-2.4-12h-.1c-.7 3.7-1.5 7.3-2.8 12L100.4 51h-5zM154.9 37.6c0 9.8-6.8 14-13.2 14-7.2 0-12.7-5.2-12.7-13.6 0-8.8 5.8-14 13.1-14 7.7 0 12.8 5.5 12.8 13.6zm-21 .3c0 5.8 3.3 10.1 8 10.1 4.6 0 8-4.3 8-10.3 0-4.5-2.2-10.1-7.9-10.1s-8.1 5.2-8.1 10.3zM158.2 32.8c0-3.1-.1-5.8-.2-8.2h4.2l.2 5.2h.2c1.2-3.5 4.1-5.8 7.3-5.8.5 0 .9.1 1.4.2v4.5c-.5-.1-1-.2-1.6-.2-3.4 0-5.8 2.6-6.5 6.2-.1.7-.2 1.4-.2 2.2V51h-4.8V32.8zM173.5 12.3h4.8V51h-4.8V12.3zM206.5 12.3v31.9c0 2.3.1 5 .2 6.8h-4.3l-.2-4.6h-.2c-1.5 2.9-4.7 5.2-9 5.2-6.4 0-11.3-5.4-11.3-13.4-.1-8.8 5.4-14.2 11.9-14.2 4 0 6.8 1.9 8 4h.1V12.3h4.8zm-4.8 23.1c0-.6-.1-1.4-.2-2a7 7 0 00-6.9-5.6c-5 0-7.9 4.4-7.9 10.2 0 5.3 2.6 9.8 7.8 9.8 3.2 0 6.2-2.1 7.1-5.7.2-.7.2-1.3.2-2.1v-4.6zM42.8 64c.1 1.6-1.1 2.9-3.1 2.9-1.7 0-2.9-1.3-2.9-2.9 0-1.7 1.3-3 3-3 1.9 0 3 1.3 3 3zm-5.4 33.8V71.4h4.8v26.4h-4.8zM47.5 78.6c0-2.7-.1-5-.2-7.1h4.3l.3 4.4h.1c1.3-2.5 4.4-5 8.8-5 3.7 0 9.4 2.2 9.4 11.2v15.8h-4.8V82.6c0-4.3-1.6-7.8-6.1-7.8-3.2 0-5.6 2.2-6.5 4.9-.2.6-.3 1.4-.3 2.2v15.9h-4.8V78.6zM84 61.6c2.9-.4 6.3-.8 10.1-.8 6.8 0 11.7 1.6 14.9 4.6 3.3 3 5.2 7.3 5.2 13.2 0 6-1.9 10.9-5.3 14.3-3.4 3.4-9.1 5.3-16.3 5.3-3.4 0-6.2-.2-8.6-.4V61.6zm4.8 32.5c1.2.2 3 .3 4.8.3 10.2 0 15.7-5.7 15.7-15.6.1-8.7-4.9-14.2-14.9-14.2-2.5 0-4.3.2-5.6.5v29zM132.1 97.8l-.4-3.3h-.2a9.79 9.79 0 01-8.1 3.9c-5.4 0-8.1-3.8-8.1-7.6 0-6.4 5.7-9.9 15.9-9.8v-.5c0-2.2-.6-6.1-6-6.1-2.5 0-5 .8-6.9 2l-1.1-3.2c2.2-1.4 5.4-2.3 8.7-2.3 8.1 0 10.1 5.5 10.1 10.8v9.9c0 2.3.1 4.5.4 6.3h-4.3zm-.7-13.4c-5.3-.1-11.2.8-11.2 5.9 0 3.1 2.1 4.6 4.5 4.6 3.4 0 5.6-2.2 6.4-4.4.2-.5.3-1 .3-1.5v-4.6zM146.6 63.9v7.6h6.9v3.7h-6.9v14.2c0 3.3.9 5.1 3.6 5.1 1.3 0 2.2-.2 2.8-.3l.2 3.6c-.9.4-2.4.7-4.3.7-2.2 0-4-.7-5.2-2-1.4-1.4-1.9-3.8-1.9-6.9V75.1h-4.1v-3.7h4.1v-6.3l4.8-1.2zM171.4 97.8l-.4-3.3h-.2a9.79 9.79 0 01-8.1 3.9c-5.4 0-8.1-3.8-8.1-7.6 0-6.4 5.7-9.9 15.9-9.8v-.5c0-2.2-.6-6.1-6-6.1-2.5 0-5 .8-6.9 2l-1.1-3.2c2.2-1.4 5.4-2.3 8.7-2.3 8.1 0 10.1 5.5 10.1 10.8v9.9c0 2.3.1 4.5.4 6.3h-4.3zm-.7-13.4c-5.3-.1-11.2.8-11.2 5.9 0 3.1 2.1 4.6 4.5 4.6 3.4 0 5.6-2.2 6.4-4.4.2-.5.3-1 .3-1.5v-4.6z"/></g></g></a></g><a href="https://ourworldindata.org/grapher/share-of-disease-burden-from-ncds-vs-gdp" target="_blank"><text font-size="23.4" x="15" y="33.7" fill="#555"><tspan x="15" y="33.72">Share of disease burden from NCDs vs. GDP per capita, 2016</tspan></text></a><text font-size="14.4" x="15" y="51.9" fill="#666"><tspan x="15" y="51.92">Share of total disease burden from non-communicable diseases (NCDs) versus gross domestic product (GDP) per</tspan><tspan x="15" y="67.76">capita, measured in 2011 international-$. Disease burden is measured based on Disability-Adjusted Life Years</tspan><tspan x="15" y="83.6">(DALYs).</tspan></text></g><g><g class="AxisBoxView"><g class="HorizontalAxis"><text font-size="12.6" x="218.3" y="554"><tspan x="218.34" y="553.98">GDP per capita, PPP (constant 2011 international $)</tspan></text><text x="129.4" y="533.9" fill="#666" text-anchor="middle" font-size="16.2">$1,000</text><text x="411.9" y="533.9" fill="#666" text-anchor="middle" font-size="16.2">$10,000</text><text x="694.5" y="533.9" fill="#666" text-anchor="middle" font-size="16.2">$100,000</text><text x="715" y="551.5" style="text-transform:uppercase" class="clickable" font-size="12" cursor="pointer"><tspan font-family="FontAwesome"></tspan> log</text></g><g class="VerticalAxis"><text font-size="12.6" x="-433" y="25.1" transform="rotate(-90)"><tspan x="-433.02" y="25.08">Share of disease burden from NCDs</tspan></text><text x="70.16" y="512.7" fill="#666" dominant-baseline="middle" text-anchor="end" font-size="16.2">0%</text><text x="70.16" y="421.7" fill="#666" dominant-baseline="middle" text-anchor="end" font-size="16.2">20%</text><text x="70.16" y="330.7" fill="#666" dominant-baseline="middle" text-anchor="end" font-size="16.2">40%</text><text x="70.16" y="239.7" fill="#666" dominant-baseline="middle" text-anchor="end" font-size="16.2">60%</text><text x="70.16" y="148.7" fill="#666" dominant-baseline="middle" text-anchor="end" font-size="16.2">80%</text></g><g class="AxisGridLines"><path stroke="#ccc" d="M75.16 512.7H715"/><path stroke="#ddd" stroke-dasharray="3,2" d="M75.16 421.7H715M75.16 330.7H715M75.16 239.7H715M75.16 148.7H715"/></g><g class="AxisGridLines" stroke="#ddd" stroke-dasharray="3,2"><path d="M129.4 512.7V105.8M411.9 512.7V105.8M694.5 512.7V105.8"/></g></g><g class="PointsWithLabels clickable" clip-path="url(#a)" font-family="Arial Narrow, Arial, sans-serif"><path fill="rgba(255,255,255,0)" d="M75.16 105.8H715v406.9H75.16z"/><defs><clipPath id="a"><path d="M65.16 95.8H725v426.9H65.16z"/></clipPath></defs><g class="key-China_0"><circle cx="456" cy="136" r="17.84" fill="#d14e5b" opacity=".8" stroke="#333" stroke-width=".7"/></g><g class="key-India_0"><circle cx="351" cy="260" r="17.29" fill="#d14e5b" opacity=".8" stroke="#333" stroke-width=".7"/></g><g class="key-United-States_0"><circle cx="617" cy="126" r="8.78" fill="#4d824b" opacity=".8" stroke="#333" stroke-width=".7"/></g><g class="key-Indonesia_0"><circle cx="421" cy="207" r="7.78" fill="#d14e5b" opacity=".8" stroke="#333" stroke-width=".7"/></g><g class="key-Brazil_0"><circle cx="453" cy="191" r="7.04" fill="#69c487" opacity=".8" stroke="#333" stroke-width=".7"/></g><g class="key-Pakistan_0"><circle cx="323" cy="280" r="6.76" fill="#d14e5b" opacity=".8" stroke="#333" stroke-width=".7"/></g><g class="key-Nigeria_0"><circle cx="337" cy="407" r="6.54" fill="#5675c1" opacity=".8" stroke="#333" stroke-width=".7"/></g><g class="key-Bangladesh_0"><circle cx="276" cy="227" r="6.24" fill="#d14e5b" opacity=".8" stroke="#333" stroke-width=".7"/></g><g class="key-Russia_0"><circle cx="521" cy="158" r="6.02" fill="#ffd336" opacity=".8" stroke="#333" stroke-width=".7"/></g><g class="key-Japan_0"><circle cx="576" cy="121" r="5.7" fill="#d14e5b" opacity=".8" stroke="#333" stroke-width=".7"/></g><g class="key-Mexico_0"><circle cx="478" cy="172" r="5.51" fill="#4d824b" opacity=".8" stroke="#333" stroke-width=".7"/></g><g class="key-Philippines_0"><circle cx="372" cy="220" r="5.09" fill="#d14e5b" opacity=".8" stroke="#333" stroke-width=".7"/></g><g class="key-Vietnam_0"><circle cx="345" cy="176" r="4.92" fill="#d14e5b" opacity=".8" stroke="#333" stroke-width=".7"/></g><g class="key-Ethiopia_0"><circle cx="187" cy="341" r="4.86" fill="#5675c1" opacity=".8" stroke="#333" stroke-width=".7"/></g><g class="key-Egypt_0"><circle cx="415" cy="177" r="4.79" fill="#5675c1" opacity=".8" stroke="#333" stroke-width=".7"/></g><g class="key-Germany_0"><circle cx="594" cy="106" r="4.7" fill="#ffd336" opacity=".8" stroke="#fff" stroke-width=".7"/></g><g class="key-Iran_0"><circle cx="487" cy="175" r="4.57" fill="#d14e5b" opacity=".8" stroke="#fff" stroke-width=".7"/></g><g class="key-Turkey_0"><circle cx="518" cy="143" r="4.54" fill="#d14e5b" opacity=".8" stroke="#333" stroke-width=".7"/></g><g class="key-Democratic-Republic-of-Congo_0"><circle cx="102" cy="394" r="4.44" fill="#5675c1" opacity=".8" stroke="#333" stroke-width=".7"/></g><g class="key-Thailand_0"><circle cx="467" cy="175" r="4.41" fill="#d14e5b" opacity=".8" stroke="#fff" stroke-width=".7"/></g><g class="key-France_0"><circle cx="575" cy="123" r="4.24" fill="#ffd336" opacity=".8" stroke="#fff" stroke-width=".7"/></g><g class="key-United-Kingdom_0"><circle cx="579" cy="112" r="4.22" fill="#ffd336" opacity=".8" stroke="#fff" stroke-width=".7"/></g><g class="key-Italy_0"><circle cx="564" cy="106" r="4.16" fill="#ffd336" opacity=".8" stroke="#fff" stroke-width=".7"/></g><g class="key-South-Africa_0"><circle cx="437" cy="349" r="3.87" fill="#5675c1" opacity=".8" stroke="#333" stroke-width=".7"/></g><g class="key-Tanzania_0"><circle cx="245" cy="372" r="3.82" fill="#5675c1" opacity=".8" stroke="#333" stroke-width=".7"/></g><g class="key-Myanmar_0"><circle cx="334" cy="218" r="3.82" fill="#d14e5b" opacity=".8" stroke="#fff" stroke-width=".7"/></g><g class="key-South-Korea_0"><circle cx="565" cy="138" r="3.81" fill="#d14e5b" opacity=".8" stroke="#333" stroke-width=".7"/></g><g class="key-Colombia_0"><circle cx="445" cy="194" r="3.79" fill="#69c487" opacity=".8" stroke="#fff" stroke-width=".7"/></g><g class="key-Spain_0"><circle cx="559" cy="110" r="3.75" fill="#ffd336" opacity=".8" stroke="#fff" stroke-width=".7"/></g><g class="key-Ukraine_0"><circle cx="379" cy="137" r="3.68" fill="#ffd336" opacity=".8" stroke="#333" stroke-width=".7"/></g><g class="key-Kenya_0"><circle cx="261" cy="376" r="3.65" fill="#5675c1" opacity=".8" stroke="#fff" stroke-width=".7"/></g><g class="key-Argentina_0"><circle cx="488" cy="156" r="3.58" fill="#69c487" opacity=".8" stroke="#fff" stroke-width=".7"/></g><g class="key-Poland_0"><circle cx="529" cy="131" r="3.47" fill="#ffd336" opacity=".8" stroke="#fff" stroke-width=".7"/></g><g class="key-Algeria_0"><circle cx="452" cy="177" r="3.43" fill="#5675c1" opacity=".8" stroke="#fff" stroke-width=".7"/></g><g class="key-Uganda_0"><circle cx="193" cy="397" r="3.42" fill="#5675c1" opacity=".8" stroke="#fff" stroke-width=".7"/></g><g class="key-Sudan_0"><circle cx="310" cy="269" r="3.39" fill="#5675c1" opacity=".8" stroke="#fff" stroke-width=".7"/></g><g class="key-Canada_0"><circle cx="591" cy="120" r="3.36" fill="#4d824b" opacity=".8" stroke="#fff" stroke-width=".7"/></g><g class="key-Iraq_0"><circle cx="471" cy="277" r="3.35" fill="#d14e5b" opacity=".8" stroke="#333" stroke-width=".7"/></g><g class="key-Afghanistan_0"><circle cx="201" cy="317" r="3.34" fill="#d14e5b" opacity=".8" stroke="#333" stroke-width=".7"/></g><g class="key-Morocco_0"><circle cx="373" cy="178" r="3.29" fill="#5675c1" opacity=".8" stroke="#fff" stroke-width=".7"/></g><g class="key-Nepal_0"><circle cx="231" cy="258" r="3.24" fill="#d14e5b" opacity=".8" stroke="#333" stroke-width=".7"/></g><g class="key-Peru_0"><circle cx="435" cy="207" r="3.19" fill="#69c487" opacity=".8" stroke="#fff" stroke-width=".7"/></g><g class="key-Malaysia_0"><circle cx="527" cy="175" r="3.17" fill="#d14e5b" opacity=".8" stroke="#333" stroke-width=".7"/></g><g class="key-Saudi-Arabia_0"><circle cx="610" cy="178" r="3.16" fill="#d14e5b" opacity=".8" stroke="#333" stroke-width=".7"/></g><g class="key-Uzbekistan_0"><circle cx="350" cy="203" r="3.12" fill="#d14e5b" opacity=".8" stroke="#333" stroke-width=".7"/></g><g class="key-Ghana_0"><circle cx="299" cy="337" r="3.04" fill="#5675c1" opacity=".8" stroke="#333" stroke-width=".7"/></g><g class="key-Mozambique_0"><circle cx="144" cy="408" r="3" fill="#5675c1" opacity=".8" stroke="#333" stroke-width=".7"/></g><g class="key-Australia_0"><circle cx="595" cy="114" r="2.92" fill="#a652ba" opacity=".8" stroke="#fff" stroke-width=".7"/></g><g class="key-Madagascar_0"><circle cx="170" cy="361" r="2.9" fill="#5675c1" opacity=".8" stroke="#333" stroke-width=".7"/></g><g class="key-Sri-Lanka_0"><circle cx="428" cy="164" r="2.85" fill="#d14e5b" opacity=".8" stroke="#fff" stroke-width=".7"/></g><g class="key-Romania_0"><circle cx="506" cy="128" r="2.85" fill="#ffd336" opacity=".8" stroke="#333" stroke-width=".7"/></g><g class="key-Cote-d__0027Ivoire_0"><circle cx="280" cy="369" r="2.84" fill="#5675c1" opacity=".8" stroke="#fff" stroke-width=".7"/></g><g class="key-Cameroon_0"><circle cx="277" cy="378" r="2.83" fill="#5675c1" opacity=".8" stroke="#fff" stroke-width=".7"/></g><g class="key-Angola_0"><circle cx="348" cy="372" r="2.82" fill="#5675c1" opacity=".8" stroke="#333" stroke-width=".7"/></g><g class="key-Burkina-Faso_0"><circle cx="190" cy="391" r="2.71" fill="#5675c1" opacity=".8" stroke="#fff" stroke-width=".7"/></g><g class="key-Chile_0"><circle cx="512" cy="134" r="2.69" fill="#69c487" opacity=".8" stroke="#fff" stroke-width=".7"/></g><g class="key-Niger_0"><circle cx="118" cy="408" r="2.68" fill="#5675c1" opacity=".8" stroke="#fff" stroke-width=".7"/></g><g class="key-Mali_0"><circle cx="212" cy="409" r="2.66" fill="#5675c1" opacity=".8" stroke="#333" stroke-width=".7"/></g><g class="key-Netherlands_0"><circle cx="602" cy="109" r="2.66" fill="#ffd336" opacity=".8" stroke="#fff" stroke-width=".7"/></g><g class="key-Kazakhstan_0"><circle cx="516" cy="181" r="2.65" fill="#d14e5b" opacity=".8" stroke="#fff" stroke-width=".7"/></g><g class="key-Malawi_0"><circle cx="139" cy="396" r="2.64" fill="#5675c1" opacity=".8" stroke="#fff" stroke-width=".7"/></g><g class="key-Guatemala_0"><circle cx="374" cy="256" r="2.6" fill="#4d824b" opacity=".8" stroke="#fff" stroke-width=".7"/></g><g class="key-Ecuador_0"><circle cx="417" cy="216" r="2.58" fill="#69c487" opacity=".8" stroke="#fff" stroke-width=".7"/></g><g class="key-Cambodia_0"><circle cx="281" cy="264" r="2.56" fill="#d14e5b" opacity=".8" stroke="#333" stroke-width=".7"/></g><g class="key-Zambia_0"><circle cx="288" cy="391" r="2.55" fill="#5675c1" opacity=".8" stroke="#333" stroke-width=".7"/></g><g class="key-Senegal_0"><circle cx="235" cy="333" r="2.51" fill="#5675c1" opacity=".8" stroke="#333" stroke-width=".7"/></g><g class="key-Zimbabwe_0"><circle cx="206" cy="374" r="2.5" fill="#5675c1" opacity=".8" stroke="#fff" stroke-width=".7"/></g><g class="key-Chad_0"><circle cx="206" cy="412" r="2.45" fill="#5675c1" opacity=".8" stroke="#fff" stroke-width=".7"/></g><g class="key-Rwanda_0"><circle cx="200" cy="355" r="2.42" fill="#5675c1" opacity=".8" stroke="#fff" stroke-width=".7"/></g><g class="key-Greece_0"><circle cx="520" cy="105" r="2.41" fill="#ffd336" opacity=".8" stroke="#fff" stroke-width=".7"/></g><g class="key-South-Sudan_0"><circle cx="184" cy="425" r="2.39" fill="#5675c1" opacity=".8" stroke="#333" stroke-width=".7"/></g><g class="key-Belgium_0"><circle cx="588" cy="124" r="2.38" fill="#ffd336" opacity=".8" stroke="#fff" stroke-width=".7"/></g><g class="key-Tunisia_0"><circle cx="420" cy="145" r="2.38" fill="#5675c1" opacity=".8" stroke="#333" stroke-width=".7"/></g><g class="key-Guinea_0"><circle cx="207" cy="376" r="2.38" fill="#5675c1" opacity=".8" stroke="#333" stroke-width=".7"/></g><g class="key-Portugal_0"><circle cx="534" cy="119" r="2.38" fill="#ffd336" opacity=".8" stroke="#fff" stroke-width=".7"/></g><g class="key-Czech-Republic_0"><circle cx="552" cy="129" r="2.37" fill="#ffd336" opacity=".8" stroke="#fff" stroke-width=".7"/></g><g class="key-Bolivia_0"><circle cx="362" cy="244" r="2.36" fill="#69c487" opacity=".8" stroke="#fff" stroke-width=".7"/></g><g class="key-Haiti_0"><circle cx="191" cy="288" r="2.36" fill="#4d824b" opacity=".8" stroke="#333" stroke-width=".7"/></g><g class="key-Dominican-Republic_0"><circle cx="454" cy="232" r="2.36" fill="#4d824b" opacity=".8" stroke="#333" stroke-width=".7"/></g><g class="key-Hungary_0"><circle cx="527" cy="117" r="2.34" fill="#ffd336" opacity=".8" stroke="#fff" stroke-width=".7"/></g><g class="key-Serbia_0"><circle cx="450" cy="119" r="2.33" fill="#ffd336" opacity=".8" stroke="#fff" stroke-width=".7"/></g><g class="key-Benin_0"><circle cx="215" cy="365" r="2.32" fill="#5675c1" opacity=".8" stroke="#fff" stroke-width=".7"/></g><g class="key-Sweden_0"><circle cx="600" cy="111" r="2.32" fill="#ffd336" opacity=".8" stroke="#fff" stroke-width=".7"/></g><g class="key-Azerbaijan_0"><circle cx="469" cy="180" r="2.32" fill="#d14e5b" opacity=".8" stroke="#fff" stroke-width=".7"/></g><g class="key-Belarus_0"><circle cx="475" cy="140" r="2.32" fill="#ffd336" opacity=".8" stroke="#333" stroke-width=".7"/></g><g class="key-Burundi_0"><circle cx="89" cy="398" r="2.29" fill="#5675c1" opacity=".8" stroke="#fff" stroke-width=".7"/></g><g class="key-Austria_0"><circle cx="595" cy="111" r="2.26" fill="#ffd336" opacity=".8" stroke="#fff" stroke-width=".7"/></g><g class="key-United-Arab-Emirates_0"><circle cx="646" cy="177" r="2.25" fill="#d14e5b" opacity=".8" stroke="#fff" stroke-width=".7"/></g><g class="key-Honduras_0"><circle cx="311" cy="212" r="2.25" fill="#4d824b" opacity=".8" stroke="#fff" stroke-width=".7"/></g><g class="key-Israel_0"><circle cx="557" cy="126" r="2.23" fill="#d14e5b" opacity=".8" stroke="#fff" stroke-width=".7"/></g><g class="key-Switzerland_0"><circle cx="626" cy="118" r="2.23" fill="#ffd336" opacity=".8" stroke="#fff" stroke-width=".7"/></g><g class="key-Bulgaria_0"><circle cx="482" cy="113" r="2.21" fill="#ffd336" opacity=".8" stroke="#fff" stroke-width=".7"/></g><g class="key-Papua-New-Guinea_0"><circle cx="293" cy="264" r="2.21" fill="#a652ba" opacity=".8" stroke="#fff" stroke-width=".7"/></g><g class="key-Tajikistan_0"><circle cx="254" cy="272" r="2.2" fill="#d14e5b" opacity=".8" stroke="#fff" stroke-width=".7"/></g><g class="key-Paraguay_0"><circle cx="397" cy="197" r="2.18" fill="#69c487" opacity=".8" stroke="#fff" stroke-width=".7"/></g><g class="key-Jordan_0"><circle cx="390" cy="196" r="2.17" fill="#d14e5b" opacity=".8" stroke="#fff" stroke-width=".7"/></g><g class="key-Libya_0"><circle cx="455" cy="182" r="2.16" fill="#5675c1" opacity=".8" stroke="#fff" stroke-width=".7"/></g><g class="key-Laos_0"><circle cx="350" cy="297" r="2.16" fill="#d14e5b" opacity=".8" stroke="#333" stroke-width=".7"/></g><g class="key-Togo_0"><circle cx="169" cy="359" r="2.16" fill="#5675c1" opacity=".8" stroke="#fff" stroke-width=".7"/></g><g class="key-El-Salvador_0"><circle cx="371" cy="205" r="2.15" fill="#4d824b" opacity=".8" stroke="#fff" stroke-width=".7"/></g><g class="key-Sierra-Leone_0"><circle cx="167" cy="385" r="2.15" fill="#5675c1" opacity=".8" stroke="#fff" stroke-width=".7"/></g><g class="key-Nicaragua_0"><circle cx="330" cy="183" r="2.14" fill="#4d824b" opacity=".8" stroke="#fff" stroke-width=".7"/></g><g class="key-Denmark_0"><circle cx="599" cy="109" r="2.11" fill="#ffd336" opacity=".8" stroke="#fff" stroke-width=".7"/></g><g class="key-Kyrgyzstan_0"><circle cx="276" cy="223" r="2.11" fill="#d14e5b" opacity=".8" stroke="#fff" stroke-width=".7"/></g><g class="key-Slovakia_0"><circle cx="543" cy="130" r="2.11" fill="#ffd336" opacity=".8" stroke="#fff" stroke-width=".7"/></g><g class="key-Finland_0"><circle cx="581" cy="114" r="2.1" fill="#ffd336" opacity=".8" stroke="#fff" stroke-width=".7"/></g><g class="key-Singapore_0"><circle cx="671" cy="130" r="2.1" fill="#d14e5b" opacity=".8" stroke="#fff" stroke-width=".7"/></g><g class="key-Turkmenistan_0"><circle cx="466" cy="203" r="2.09" fill="#d14e5b" opacity=".8" stroke="#fff" stroke-width=".7"/></g><g class="key-Norway_0"><circle cx="640" cy="115" r="2.08" fill="#ffd336" opacity=".8" stroke="#fff" stroke-width=".7"/></g><g class="key-Costa-Rica_0"><circle cx="463" cy="152" r="2.07" fill="#4d824b" opacity=".8" stroke="#333" stroke-width=".7"/></g><g class="key-Central-African-Republic_0"><circle cx="75" cy="411" r="2.06" fill="#5675c1" opacity=".8" stroke="#fff" stroke-width=".7"/></g><g class="key-Ireland_0"><circle cx="638" cy="115" r="2.06" fill="#ffd336" opacity=".8" stroke="#fff" stroke-width=".7"/></g><g class="key-New-Zealand_0"><circle cx="568" cy="115" r="2.05" fill="#a652ba" opacity=".8" stroke="#fff" stroke-width=".7"/></g><g class="key-Croatia_0"><circle cx="507" cy="115" r="2.05" fill="#ffd336" opacity=".8" stroke="#fff" stroke-width=".7"/></g><g class="key-Liberia_0"><circle cx="94" cy="365" r="2.04" fill="#5675c1" opacity=".8" stroke="#333" stroke-width=".7"/></g><g class="key-Congo_0"><circle cx="332" cy="359" r="2.04" fill="#5675c1" opacity=".8" stroke="#333" stroke-width=".7"/></g><g class="key-Lebanon_0"><circle cx="446" cy="145" r="2.04" fill="#d14e5b" opacity=".8" stroke="#fff" stroke-width=".7"/></g><g class="key-Georgia_0"><circle cx="402" cy="143" r="2.04" fill="#d14e5b" opacity=".8" stroke="#fff" stroke-width=".7"/></g><g class="key-Puerto-Rico_0"><circle cx="565" cy="147" r="2.01" fill="#4d824b" opacity=".8" stroke="#fff" stroke-width=".7"/></g><g class="key-Bosnia-and-Herzegovina_0"><circle cx="427" cy="114" r="2.01" fill="#ffd336" opacity=".8" stroke="#fff" stroke-width=".7"/></g><g class="key-Mauritania_0"><circle cx="285" cy="313" r="2.01" fill="#5675c1" opacity=".8" stroke="#333" stroke-width=".7"/></g><g class="key-Panama_0"><circle cx="505" cy="194" r="2.01" fill="#4d824b" opacity=".8" stroke="#333" stroke-width=".7"/></g><g class="key-Moldova_0"><circle cx="326" cy="140" r="2" fill="#ffd336" opacity=".8" stroke="#333" stroke-width=".7"/></g><g class="key-Uruguay_0"><circle cx="497" cy="142" r="1.99" fill="#69c487" opacity=".8" stroke="#fff" stroke-width=".7"/></g><g class="key-Lithuania_0"><circle cx="538" cy="142" r="1.98" fill="#ffd336" opacity=".8" stroke="#fff" stroke-width=".7"/></g><g class="key-Albania_0"><circle cx="427" cy="131" r="1.98" fill="#ffd336" opacity=".8" stroke="#fff" stroke-width=".7"/></g><g class="key-Armenia_0"><circle cx="387" cy="131" r="1.97" fill="#d14e5b" opacity=".8" stroke="#fff" stroke-width=".7"/></g><g class="key-Kuwait_0"><circle cx="648" cy="151" r="1.96" fill="#d14e5b" opacity=".8" stroke="#333" stroke-width=".7"/></g><g class="key-Oman_0"><circle cx="581" cy="188" r="1.96" fill="#d14e5b" opacity=".8" stroke="#333" stroke-width=".7"/></g><g class="key-Mongolia_0"><circle cx="427" cy="205" r="1.96" fill="#d14e5b" opacity=".8" stroke="#fff" stroke-width=".7"/></g><g class="key-Jamaica_0"><circle cx="387" cy="174" r="1.95" fill="#4d824b" opacity=".8" stroke="#fff" stroke-width=".7"/></g><g class="key-Namibia_0"><circle cx="409" cy="357" r="1.93" fill="#5675c1" opacity=".8" stroke="#fff" stroke-width=".7"/></g><g class="key-Lesotho_0"><circle cx="252" cy="397" r="1.92" fill="#5675c1" opacity=".8" stroke="#fff" stroke-width=".7"/></g><g class="key-Latvia_0"><circle cx="518" cy="131" r="1.92" fill="#ffd336" opacity=".8" stroke="#fff" stroke-width=".7"/></g><g class="key-Botswana_0"><circle cx="467" cy="323" r="1.91" fill="#5675c1" opacity=".8" stroke="#333" stroke-width=".7"/></g><g class="key-Macedonia_0"><circle cx="445" cy="116" r="1.91" fill="#ffd336" opacity=".8" stroke="#fff" stroke-width=".7"/></g><g class="key-Slovenia_0"><circle cx="546" cy="136" r="1.91" fill="#ffd336" opacity=".8" stroke="#fff" stroke-width=".7"/></g><g class="key-Qatar_0"><circle cx="715" cy="180" r="1.91" fill="#d14e5b" opacity=".8" stroke="#333" stroke-width=".7"/></g><g class="key-Gambia_0"><circle cx="183" cy="354" r="1.9" fill="#5675c1" opacity=".8" stroke="#fff" stroke-width=".7"/></g><g class="key-Guinea__002dBissau_0"><circle cx="179" cy="359" r="1.88" fill="#5675c1" opacity=".8" stroke="#fff" stroke-width=".7"/></g><g class="key-Gabon_0"><circle cx="475" cy="323" r="1.88" fill="#5675c1" opacity=".8" stroke="#fff" stroke-width=".7"/></g><g class="key-Bahrain_0"><circle cx="592" cy="147" r="1.87" fill="#d14e5b" opacity=".8" stroke="#fff" stroke-width=".7"/></g><g class="key-Trinidad-and-Tobago_0"><circle cx="544" cy="163" r="1.87" fill="#4d824b" opacity=".8" stroke="#fff" stroke-width=".7"/></g><g class="key-Estonia_0"><circle cx="538" cy="126" r="1.87" fill="#ffd336" opacity=".8" stroke="#fff" stroke-width=".7"/></g><g class="key-Mauritius_0"><circle cx="494" cy="137" r="1.87" fill="#5675c1" opacity=".8" stroke="#fff" stroke-width=".7"/></g><g class="key-Swaziland_0"><circle cx="380" cy="384" r="1.86" fill="#5675c1" opacity=".8" stroke="#333" stroke-width=".7"/></g><g class="key-Cyprus_0"><circle cx="552" cy="119" r="1.85" fill="#ffd336" opacity=".8" stroke="#fff" stroke-width=".7"/></g><g class="key-Fiji_0"><circle cx="391" cy="161" r="1.84" fill="#a652ba" opacity=".8" stroke="#333" stroke-width=".7"/></g><g class="key-Comoros_0"><circle cx="171" cy="328" r="1.83" fill="#5675c1" opacity=".8" stroke="#fff" stroke-width=".7"/></g><g class="key-Bhutan_0"><circle cx="388" cy="241" r="1.83" fill="#d14e5b" opacity=".8" stroke="#333" stroke-width=".7"/></g><g class="key-Equatorial-Guinea_0"><circle cx="520" cy="369" r="1.83" fill="#5675c1" opacity=".8" stroke="#333" stroke-width=".7"/></g><g class="key-Guyana_0"><circle cx="372" cy="220" r="1.83" fill="#69c487" opacity=".8" stroke="#fff" stroke-width=".7"/></g><g class="key-Montenegro_0"><circle cx="467" cy="125" r="1.82" fill="#ffd336" opacity=".8" stroke="#fff" stroke-width=".7"/></g><g class="key-Solomon-Islands_0"><circle cx="225" cy="218" r="1.82" fill="#a652ba" opacity=".8" stroke="#fff" stroke-width=".7"/></g><g class="key-Suriname_0"><circle cx="452" cy="208" r="1.82" fill="#69c487" opacity=".8" stroke="#fff" stroke-width=".7"/></g><g class="key-Luxembourg_0"><circle cx="688" cy="114" r="1.82" fill="#ffd336" opacity=".8" stroke="#fff" stroke-width=".7"/></g><g class="key-Cape-Verde_0"><circle cx="350" cy="245" r="1.81" fill="#5675c1" opacity=".8" stroke="#fff" stroke-width=".7"/></g><g class="key-Malta_0"><circle cx="565" cy="109" r="1.81" fill="#ffd336" opacity=".8" stroke="#fff" stroke-width=".7"/></g><g class="key-Brunei_0"><circle cx="653" cy="149" r="1.81" fill="#d14e5b" opacity=".8" stroke="#fff" stroke-width=".7"/></g><g class="key-Bahamas_0"><circle cx="536" cy="176" r="1.8" fill="#4d824b" opacity=".8" stroke="#fff" stroke-width=".7"/></g><g class="key-Iceland_0"><circle cx="598" cy="115" r="1.8" fill="#ffd336" opacity=".8" stroke="#fff" stroke-width=".7"/></g><g class="key-Belize_0"><circle cx="383" cy="227" r="1.8" fill="#4d824b" opacity=".8" stroke="#fff" stroke-width=".7"/></g><g class="key-Maldives_0"><circle cx="455" cy="156" r="1.8" fill="#d14e5b" opacity=".8" stroke="#fff" stroke-width=".7"/></g><g class="key-Barbados_0"><circle cx="475" cy="144" r="1.8" fill="#4d824b" opacity=".8" stroke="#fff" stroke-width=".7"/></g><g class="key-Vanuatu_0"><circle cx="258" cy="224" r="1.8" fill="#a652ba" opacity=".8" stroke="#fff" stroke-width=".7"/></g><g class="key-Samoa_0"><circle cx="347" cy="178" r="1.79" fill="#a652ba" opacity=".8" stroke="#fff" stroke-width=".7"/></g><g class="key-Saint-Lucia_0"><circle cx="441" cy="170" r="1.79" fill="#4d824b" opacity=".8" stroke="#fff" stroke-width=".7"/></g><g class="key-Sao-Tome-and-Principe_0"><circle cx="264" cy="276" r="1.79" fill="#5675c1" opacity=".8" stroke="#fff" stroke-width=".7"/></g><g class="key-Saint-Vincent-and-the-Grenadines_0"><circle cx="418" cy="178" r="1.79" fill="#4d824b" opacity=".8" stroke="#fff" stroke-width=".7"/></g><g class="key-Grenada_0"><circle cx="445" cy="173" r="1.79" fill="#4d824b" opacity=".8" stroke="#fff" stroke-width=".7"/></g><g class="key-Tonga_0"><circle cx="334" cy="198" r="1.79" fill="#a652ba" opacity=".8" stroke="#fff" stroke-width=".7"/></g><g class="key-Kiribati_0"><circle cx="211" cy="228" r="1.79" fill="#a652ba" opacity=".8" stroke="#333" stroke-width=".7"/></g><g class="key-Antigua-and-Barbuda_0"><circle cx="503" cy="158" r="1.79" fill="#4d824b" opacity=".8" stroke="#fff" stroke-width=".7"/></g><g class="key-Seychelles_0"><circle cx="527" cy="170" r="1.79" fill="#5675c1" opacity=".8" stroke="#fff" stroke-width=".7"/></g><g class="key-Dominica_0"><circle cx="413" cy="170" r="1.79" fill="#4d824b" opacity=".8" stroke="#fff" stroke-width=".7"/></g><g class="key-Marshall-Islands_0"><circle cx="290" cy="195" r="1.78" fill="#a652ba" opacity=".8" stroke="#fff" stroke-width=".7"/></g><g class="key-Sub__002dSaharan-Africa_0"><circle cx="281" cy="384" r="1.78" fill="#000" opacity=".8" stroke="#fff" stroke-width=".7"/></g><g class="key-Timor_0"><circle cx="373" cy="277" r="1.78" fill="#d14e5b" opacity=".8" stroke="#333" stroke-width=".7"/></g><g class="key-Palestine_0"><circle cx="320" cy="208" r="1.78" fill="#d14e5b" opacity=".8" stroke="#fff" stroke-width=".7"/></g><g class="key-World_0"><circle cx="462" cy="233" r="1.78" fill="#000" opacity=".8" stroke="#fff" stroke-width=".7"/></g><g class="key-South-Asia_0"><circle cx="341" cy="260" r="1.78" fill="#000" opacity=".8" stroke="#333" stroke-width=".7"/></g><g class="key-North-America_0"><circle cx="615" cy="126" r="1.78" fill="#000" opacity=".8" stroke="#fff" stroke-width=".7"/></g><g class="key-Micronesia-__0028country__0029_0"><circle cx="274" cy="190" r="1.78" fill="#a652ba" opacity=".8" stroke="#333" stroke-width=".7"/></g><g class="key-Yemen_0"><circle cx="177" cy="316" r="1.78" fill="#d14e5b" opacity=".8" stroke="#fff" stroke-width=".7"/></g><g class="backgroundLabels" fill="#333"><text x="456" y="120.1" font-size="14.3">China</text><text x="351" y="241.71" font-size="14.1">India</text><text x="617" y="117.57" font-size="11.77">United States</text><text x="421" y="198.22" font-size="11.6">Indonesia</text><text x="453" y="182.96" font-size="11.49">Brazil</text><text x="323" y="272.24" font-size="11.44">Pakistan</text><text x="337" y="399.46" font-size="11.41">Nigeria</text><text x="276" y="219.76" font-size="11.37">Bangladesh</text><text x="521" y="150.98" font-size="11.35">Russia</text><text x="576" y="117.11" font-size="11.31">Japan</text><text x="478" y="165.49" font-size="11.29">Mexico</text><text x="372" y="213.91" font-size="11.24">Philippines</text><text x="345" y="170.08" font-size="11.22">Vietnam</text><text x="187" y="335.14" font-size="11.21">Ethiopia</text><text x="415" y="171.21" font-size="11.21">Egypt</text><text x="518" y="137.46" font-size="11.18">Turkey</text><text x="102" y="388.56" font-size="11.17">Democratic Republic of Congo</text><text x="437" y="344.13" font-size="11.12">South Africa</text><text x="245" y="367.18" font-size="11.12">Tanzania</text><text x="565" y="133.19" font-size="11.12">South Korea</text><text x="379" y="132.32" font-size="11.11">Ukraine</text><text x="471" y="272.65" font-size="11.08">Iraq</text><text x="201" y="312.66" font-size="11.08">Afghanistan</text><text x="231" y="253.76" font-size="11.08">Nepal</text><text x="527" y="170.83" font-size="11.07">Malaysia</text><text x="610" y="173.84" font-size="11.07">Saudi Arabia</text><text x="350" y="198.88" font-size="11.07">Uzbekistan</text><text x="299" y="332.96" font-size="11.06">Ghana</text><text x="144" y="404" font-size="11.06">Mozambique</text><text x="170" y="357.1" font-size="11.05">Madagascar</text><text x="506" y="124.15" font-size="11.05">Romania</text><text x="348" y="368.18" font-size="11.05">Angola</text><text x="212" y="405.34" font-size="11.04">Mali</text><text x="281" y="260.44" font-size="11.04">Cambodia</text><text x="288" y="387.45" font-size="11.03">Zambia</text><text x="235" y="329.49" font-size="11.03">Senegal</text><text x="184" y="421.61" font-size="11.03">South Sudan</text><text x="420" y="141.62" font-size="11.03">Tunisia</text><text x="207" y="372.62" font-size="11.03">Guinea</text><text x="191" y="284.64" font-size="11.03">Haiti</text><text x="454" y="228.64" font-size="11.02">Dominican Republic</text><text x="475" y="136.68" font-size="11.02">Belarus</text><text x="350" y="293.84" font-size="11.02">Laos</text><text x="463" y="148.93" font-size="11.01">Costa Rica</text><text x="94" y="361.96" font-size="11.01">Liberia</text><text x="332" y="355.96" font-size="11.01">Congo</text><text x="285" y="309.99" font-size="11.01">Mauritania</text><text x="505" y="190.99" font-size="11.01">Panama</text><text x="326" y="137" font-size="11.01">Moldova</text><text x="648" y="148.04" font-size="11.01">Kuwait</text><text x="581" y="185.04" font-size="11.01">Oman</text><text x="467" y="320.09" font-size="11">Botswana</text><text x="687.38" y="177.09" font-size="11">Qatar</text><text x="380" y="381.14" font-size="11">Swaziland</text><text x="391" y="158.16" font-size="11">Fiji</text><text x="388" y="238.17" font-size="11">Bhutan</text><text x="520" y="366.17" font-size="11">Equatorial Guinea</text><text x="211" y="225.21" font-size="11">Kiribati</text><text x="373" y="274.22" font-size="11">Timor</text><text x="341" y="257.22" font-size="11">South Asia</text><text x="274" y="187.22" font-size="11">Micronesia (country)</text></g></g><g class="ScatterColorLegend clickable" cursor="pointer"><g class="legendMark">,<path fill="#5675c1" d="M735 108.8h6v6h-6z"/>,<text font-size="12.6" x="746" y="115.9"><tspan x="746" y="115.88">Africa</tspan></text></g><g class="legendMark">,<path fill="#d14e5b" d="M735 126.4h6v6h-6z"/>,<text font-size="12.6" x="746" y="133.5"><tspan x="746" y="133.48">Asia</tspan></text></g><g class="legendMark">,<path fill="#ffd336" d="M735 144h6v6h-6z"/>,<text font-size="12.6" x="746" y="151.1"><tspan x="746" y="151.08">Europe</tspan></text></g><g class="legendMark">,<path fill="#4d824b" d="M735 161.6h6v6h-6z"/>,<text font-size="12.6" x="746" y="168.7"><tspan x="746" y="168.68">North America</tspan></text></g><g class="legendMark">,<path fill="#a652ba" d="M735 179.2h6v6h-6z"/>,<text font-size="12.6" x="746" y="186.3"><tspan x="746" y="186.28">Oceania</tspan></text></g><g class="legendMark">,<path fill="#69c487" d="M735 196.8h6v6h-6z"/>,<text font-size="12.6" x="746" y="203.9"><tspan x="746" y="203.88">South America</tspan></text></g></g></g><g class="SourcesFooter" fill="#777"><g class="clickable" fill="#777"><text font-size="12.6" x="15" y="581.6"><tspan x="15" y="581.58">Source: IHME, Global Burden of Disease, World Bank – WDI</tspan></text></g><text font-size="12.6" x="775.4" y="581.6"><tspan x="775.4" y="581.58"><a class="cclogo" href="http://creativecommons.org/licenses/by-sa/4.0/deed.en_US" target="_blank" fill="#777">CC BY-SA</a></tspan></text></g></g></svg>