<svg xmlns="http://www.w3.org/2000/svg" version="1.1" style="background-color:#fff;-webkit-font-smoothing:antialiased" width="850" height="600" font-family="'Helvetica Neue',Helvetica,Arial,sans-serif" font-size="18" text-rendering="optimizeLegibility"><g class="ChartTab"><g class="HeaderView"><g opacity=".8" transform="matrix(.31 0 0 .31 770 15)"><a xmlns:xlink="http://www.w3.org/1999/xlink" xlink:href="https://ourworldindata.org" target="_blank"><g><path fill="#1B2543" d="M0 0h211.2v130.1H0z"/><path fill="#E63912" d="M0 112.2h211.2v17.9H0z"/><g><path fill="none" d="M1.2 12.3h210.2v99.2H1.2z"/><path fill="#FFF" d="M37.8 32.2c0 12.7-7.7 19.4-17.1 19.4-9.7 0-16.6-7.5-16.6-18.7 0-11.7 7.3-19.3 17.1-19.3 10.1.1 16.6 7.7 16.6 18.6zm-28.6.6c0 7.9 4.3 14.9 11.8 14.9 7.5 0 11.8-6.9 11.8-15.3 0-7.3-3.8-14.9-11.8-14.9-7.9 0-11.8 7.3-11.8 15.3zM62.7 43.8c0 2.7.1 5.1.2 7.2h-4.3l-.3-4.3h-.1c-1.3 2.1-4 4.9-8.8 4.9-4.2 0-9.1-2.3-9.1-11.6V24.6h4.8v14.6c0 5 1.5 8.4 5.9 8.4 3.2 0 5.5-2.2 6.3-4.4.3-.7.4-1.6.4-2.5V24.6h4.8v19.2zM67.3 32.8c0-3.1-.1-5.8-.2-8.2h4.2l.2 5.2h.2c1.2-3.5 4.1-5.8 7.3-5.8.5 0 .9.1 1.4.2v4.5c-.5-.1-1-.2-1.6-.2-3.4 0-5.8 2.6-6.5 6.2-.1.7-.2 1.4-.2 2.2V51h-4.8V32.8zM95.4 51L86 14.2h5l4.4 18.6c1.1 4.6 2.1 9.2 2.7 12.7h.1c.6-3.7 1.8-8 3-12.8l4.9-18.5h5l4.5 18.7c1 4.4 2 8.7 2.6 12.6h.1c.8-4 1.8-8.1 3-12.7l4.9-18.5h4.9L120.6 51h-5L111 31.9c-1.1-4.7-1.9-8.3-2.4-12h-.1c-.7 3.7-1.5 7.3-2.8 12L100.4 51h-5zM154.9 37.6c0 9.8-6.8 14-13.2 14-7.2 0-12.7-5.2-12.7-13.6 0-8.8 5.8-14 13.1-14 7.7 0 12.8 5.5 12.8 13.6zm-21 .3c0 5.8 3.3 10.1 8 10.1 4.6 0 8-4.3 8-10.3 0-4.5-2.2-10.1-7.9-10.1s-8.1 5.2-8.1 10.3zM158.2 32.8c0-3.1-.1-5.8-.2-8.2h4.2l.2 5.2h.2c1.2-3.5 4.1-5.8 7.3-5.8.5 0 .9.1 1.4.2v4.5c-.5-.1-1-.2-1.6-.2-3.4 0-5.8 2.6-6.5 6.2-.1.7-.2 1.4-.2 2.2V51h-4.8V32.8zM173.5 12.3h4.8V51h-4.8V12.3zM206.5 12.3v31.9c0 2.3.1 5 .2 6.8h-4.3l-.2-4.6h-.2c-1.5 2.9-4.7 5.2-9 5.2-6.4 0-11.3-5.4-11.3-13.4-.1-8.8 5.4-14.2 11.9-14.2 4 0 6.8 1.9 8 4h.1V12.3h4.8zm-4.8 23.1c0-.6-.1-1.4-.2-2a7 7 0 00-6.9-5.6c-5 0-7.9 4.4-7.9 10.2 0 5.3 2.6 9.8 7.8 9.8 3.2 0 6.2-2.1 7.1-5.7.2-.7.2-1.3.2-2.1v-4.6zM42.8 64c.1 1.6-1.1 2.9-3.1 2.9-1.7 0-2.9-1.3-2.9-2.9 0-1.7 1.3-3 3-3 1.9 0 3 1.3 3 3zm-5.4 33.8V71.4h4.8v26.4h-4.8zM47.5 78.6c0-2.7-.1-5-.2-7.1h4.3l.3 4.4h.1c1.3-2.5 4.4-5 8.8-5 3.7 0 9.4 2.2 9.4 11.2v15.8h-4.8V82.6c0-4.3-1.6-7.8-6.1-7.8-3.2 0-5.6 2.2-6.5 4.9-.2.6-.3 1.4-.3 2.2v15.9h-4.8V78.6zM84 61.6c2.9-.4 6.3-.8 10.1-.8 6.8 0 11.7 1.6 14.9 4.6 3.3 3 5.2 7.3 5.2 13.2 0 6-1.9 10.9-5.3 14.3-3.4 3.4-9.1 5.3-16.3 5.3-3.4 0-6.2-.2-8.6-.4V61.6zm4.8 32.5c1.2.2 3 .3 4.8.3 10.2 0 15.7-5.7 15.7-15.6.1-8.7-4.9-14.2-14.9-14.2-2.5 0-4.3.2-5.6.5v29zM132.1 97.8l-.4-3.3h-.2a9.79 9.79 0 01-8.1 3.9c-5.4 0-8.1-3.8-8.1-7.6 0-6.4 5.7-9.9 15.9-9.8v-.5c0-2.2-.6-6.1-6-6.1-2.5 0-5 .8-6.9 2l-1.1-3.2c2.2-1.4 5.4-2.3 8.7-2.3 8.1 0 10.1 5.5 10.1 10.8v9.9c0 2.3.1 4.5.4 6.3h-4.3zm-.7-13.4c-5.3-.1-11.2.8-11.2 5.9 0 3.1 2.1 4.6 4.5 4.6 3.4 0 5.6-2.2 6.4-4.4.2-.5.3-1 .3-1.5v-4.6zM146.6 63.9v7.6h6.9v3.7h-6.9v14.2c0 3.3.9 5.1 3.6 5.1 1.3 0 2.2-.2 2.8-.3l.2 3.6c-.9.4-2.4.7-4.3.7-2.2 0-4-.7-5.2-2-1.4-1.4-1.9-3.8-1.9-6.9V75.1h-4.1v-3.7h4.1v-6.3l4.8-1.2zM171.4 97.8l-.4-3.3h-.2a9.79 9.79 0 01-8.1 3.9c-5.4 0-8.1-3.8-8.1-7.6 0-6.4 5.7-9.9 15.9-9.8v-.5c0-2.2-.6-6.1-6-6.1-2.5 0-5 .8-6.9 2l-1.1-3.2c2.2-1.4 5.4-2.3 8.7-2.3 8.1 0 10.1 5.5 10.1 10.8v9.9c0 2.3.1 4.5.4 6.3h-4.3zm-.7-13.4c-5.3-.1-11.2.8-11.2 5.9 0 3.1 2.1 4.6 4.5 4.6 3.4 0 5.6-2.2 6.4-4.4.2-.5.3-1 .3-1.5v-4.6z"/></g></g></a></g><a href="https://ourworldindata.org/grapher/solar-pv-energy-consumption-vs-solar-pv-capacity" target="_blank"><text font-size="25.2" x="15" y="35.2" fill="#555"><tspan x="15" y="35.16">Solar PV energy consumption vs. solar PV capacity, 2016</tspan></text></a><text font-size="14.4" x="15" y="53.7" fill="#666"><tspan x="15" y="53.72">Total annual solar photovoltaic (PV) energy consumption, measured in gigawatt-hours (GWh) per year versus</tspan><tspan x="15" y="69.56">installed solar PV capacity, measured in gigawatts (GW).</tspan></text></g><g><g class="AxisBoxView"><g class="HorizontalAxis"><text font-size="12.6" x="294" y="554"><tspan x="294" y="553.98">Solar PV energy capacity</tspan></text><text x="208.3" y="533.9" fill="#666" text-anchor="middle" font-size="16.2">10 GW</text><text x="282.7" y="533.9" fill="#666" text-anchor="middle" font-size="16.2">20 GW</text><text x="357.1" y="533.9" fill="#666" text-anchor="middle" font-size="16.2">30 GW</text><text x="431.6" y="533.9" fill="#666" text-anchor="middle" font-size="16.2">40 GW</text><text x="506" y="533.9" fill="#666" text-anchor="middle" font-size="16.2">50 GW</text><text x="580.5" y="533.9" fill="#666" text-anchor="middle" font-size="16.2">60 GW</text><text x="654.9" y="533.9" fill="#666" text-anchor="middle" font-size="16.2">70 GW</text></g><g class="VerticalAxis"><text font-size="12.6" x="-408" y="25.1" transform="rotate(-90)"><tspan x="-407.96" y="25.08">Solar PV energy consumption</tspan></text><text x="128.97" y="512.7" fill="#666" dominant-baseline="middle" text-anchor="end" font-size="16.2">0 GWh</text><text x="128.97" y="449.2" fill="#666" dominant-baseline="middle" text-anchor="end" font-size="16.2">10,000 GWh</text><text x="128.97" y="385.6" fill="#666" dominant-baseline="middle" text-anchor="end" font-size="16.2">20,000 GWh</text><text x="128.97" y="322.1" fill="#666" dominant-baseline="middle" text-anchor="end" font-size="16.2">30,000 GWh</text><text x="128.97" y="258.6" fill="#666" dominant-baseline="middle" text-anchor="end" font-size="16.2">40,000 GWh</text><text x="128.97" y="195" fill="#666" dominant-baseline="middle" text-anchor="end" font-size="16.2">50,000 GWh</text><text x="128.97" y="131.5" fill="#666" dominant-baseline="middle" text-anchor="end" font-size="16.2">60,000 GWh</text></g><g class="AxisGridLines"><path stroke="#ccc" d="M133.97 512.7H715"/><path stroke="#ddd" stroke-dasharray="3,2" d="M133.97 449.2H715M133.97 385.6H715M133.97 322.1H715M133.97 258.6H715M133.97 195H715M133.97 131.5H715"/></g><g class="AxisGridLines" stroke="#ddd" stroke-dasharray="3,2"><path d="M208.3 512.7V92.1M282.7 512.7V92.1M357.1 512.7V92.1M431.6 512.7V92.1M506 512.7V92.1M580.5 512.7V92.1M654.9 512.7V92.1"/></g></g><g clip-path="url(#a)" class="PointsWithLabels clickable"><path fill="rgba(255,255,255,0)" d="M133.97 92.1H715v420.6H133.97z"/><defs><clipPath id="a"><path d="M123.97 82.1H725v440.6H123.97z"/></clipPath></defs><circle cx="715" cy="92" r="17.84" fill="#d14e5b" opacity=".8"/><circle cx="200" cy="436" r="17.28" fill="#d14e5b" opacity=".8"/><circle cx="433" cy="151" r="8.73" fill="#4d824b" opacity=".8"/><circle cx="141" cy="509" r="6.69" fill="#d14e5b" opacity=".8"/><circle cx="452" cy="198" r="5.62" fill="#d14e5b" opacity=".8"/><circle cx="136" cy="510" r="5.43" fill="#4d824b" opacity=".8"/><circle cx="140" cy="506" r="5" fill="#d14e5b" opacity=".8"/><circle cx="441" cy="270" r="4.6" fill="#ffd336" opacity=".8"/><circle cx="140" cy="508" r="4.44" fill="#d14e5b" opacity=".8"/><circle cx="149" cy="497" r="4.3" fill="#d14e5b" opacity=".8"/><circle cx="186" cy="460" r="4.12" fill="#ffd336" opacity=".8"/><circle cx="221" cy="447" r="4.1" fill="#ffd336" opacity=".8"/><circle cx="277" cy="367" r="4.05" fill="#ffd336" opacity=".8"/><circle cx="145" cy="491" r="3.74" fill="#5675c1" opacity=".8"/><circle cx="166" cy="479" r="3.67" fill="#d14e5b" opacity=".8"/><circle cx="174" cy="426" r="3.62" fill="#ffd336" opacity=".8"/><circle cx="140" cy="510" r="3.54" fill="#ffd336" opacity=".8"/><circle cx="154" cy="493" r="3.21" fill="#4d824b" opacity=".8"/><circle cx="135" cy="510" r="3.01" fill="#d14e5b" opacity=".8"/><circle cx="174" cy="467" r="2.75" fill="#a652ba" opacity=".8"/><circle cx="142" cy="505" r="2.75" fill="#d14e5b" opacity=".8"/><circle cx="144" cy="501" r="2.67" fill="#ffd336" opacity=".8"/><circle cx="145" cy="496" r="2.5" fill="#69c487" opacity=".8"/><circle cx="149" cy="503" r="2.46" fill="#ffd336" opacity=".8"/><circle cx="153" cy="487" r="2.2" fill="#ffd336" opacity=".8"/><circle cx="159" cy="494" r="2.16" fill="#ffd336" opacity=".8"/><circle cx="137" cy="507" r="2.16" fill="#ffd336" opacity=".8"/><circle cx="149" cy="499" r="2.15" fill="#ffd336" opacity=".8"/><circle cx="135" cy="511" r="2.11" fill="#ffd336" opacity=".8"/><circle cx="135" cy="511" r="2.09" fill="#ffd336" opacity=".8"/><circle cx="141" cy="505" r="2.03" fill="#ffd336" opacity=".8"/><circle cx="140" cy="502" r="1.99" fill="#d14e5b" opacity=".8"/><circle cx="146" cy="503" r="1.99" fill="#ffd336" opacity=".8"/><circle cx="141" cy="503" r="1.97" fill="#ffd336" opacity=".8"/><circle cx="140" cy="508" r="1.86" fill="#ffd336" opacity=".8"/><circle cx="137" cy="509" r="1.85" fill="#ffd336" opacity=".8"/><circle cx="134" cy="512" r="1.85" fill="#ffd336" opacity=".8"/><circle cx="134" cy="512" r="1.82" fill="#ffd336" opacity=".8"/><circle cx="141" cy="498" r="1.47" fill="#000" opacity=".8"/><circle cx="141" cy="507" r="1.47" fill="#000" opacity=".8"/><circle cx="137" cy="510" r="1.47" fill="#000" opacity=".8"/><circle cx="140" cy="505" r="1.47" fill="#000" opacity=".8"/><circle cx="138" cy="511" r="1.47" fill="#000" opacity=".8"/><text x="677.53" y="106.4" font-size="14.3" font-family="Arial Narrow, Arial, sans-serif" fill="#666">China</text><text x="200" y="417.72" font-size="14.09" font-family="Arial Narrow, Arial, sans-serif" fill="#666">India</text><text x="433" y="141.27" font-size="11.76" font-family="Arial Narrow, Arial, sans-serif" fill="#666">United States</text><text x="141" y="501.31" font-size="11.44" font-family="Arial Narrow, Arial, sans-serif" fill="#666">Pakistan</text><text x="452" y="191.38" font-size="11.3" font-family="Arial Narrow, Arial, sans-serif" fill="#666">Japan</text><text x="441" y="264.4" font-size="11.19" font-family="Arial Narrow, Arial, sans-serif" fill="#666">Germany</text><text x="186" y="454.88" font-size="11.14" font-family="Arial Narrow, Arial, sans-serif" fill="#666">France</text><text x="221" y="441.9" font-size="11.14" font-family="Arial Narrow, Arial, sans-serif" fill="#666">United Kingdom</text><text x="277" y="361.95" font-size="11.14" font-family="Arial Narrow, Arial, sans-serif" fill="#666">Italy</text><text x="145" y="486.26" font-size="11.11" font-family="Arial Narrow, Arial, sans-serif" fill="#666">South Africa</text><text x="166" y="474.33" font-size="11.11" font-family="Arial Narrow, Arial, sans-serif" fill="#666">South Korea</text></g><g class="ScatterColorLegend clickable" cursor="pointer"><g class="legendMark">,<path fill="#5675c1" d="M735 95.1h6v6h-6z"/>,<text font-size="12.6" x="746" y="102.2"><tspan x="746" y="102.18">Africa</tspan></text></g><g class="legendMark">,<path fill="#d14e5b" d="M735 112.7h6v6h-6z"/>,<text font-size="12.6" x="746" y="119.8"><tspan x="746" y="119.78">Asia</tspan></text></g><g class="legendMark">,<path fill="#ffd336" d="M735 130.3h6v6h-6z"/>,<text font-size="12.6" x="746" y="137.4"><tspan x="746" y="137.38">Europe</tspan></text></g><g class="legendMark">,<path fill="#4d824b" d="M735 147.9h6v6h-6z"/>,<text font-size="12.6" x="746" y="155"><tspan x="746" y="154.98">North America</tspan></text></g><g class="legendMark">,<path fill="#a652ba" d="M735 165.5h6v6h-6z"/>,<text font-size="12.6" x="746" y="172.6"><tspan x="746" y="172.58">Oceania</tspan></text></g><g class="legendMark">,<path fill="#69c487" d="M735 183.1h6v6h-6z"/>,<text font-size="12.6" x="746" y="190.2"><tspan x="746" y="190.18">South America</tspan></text></g></g></g><g class="SourcesFooter" fill="#777"><g class="clickable" fill="#777"><text font-size="12.6" x="15" y="581.6"><tspan x="15" y="581.58">Source: BP Statistical Review of Global Energy</tspan></text></g><text font-size="12.6" x="649" y="581.6"><tspan x="649.02" y="581.58"><a target="_blank" href="https://ourworldindata.org" fill="#777">OurWorldInData.org</a> • <a href="http://creativecommons.org/licenses/by-sa/4.0/deed.en_US" target="_blank" fill="#777">CC BY-SA</a></tspan></text></g></g></svg>