<svg xmlns="http://www.w3.org/2000/svg" version="1.1" style="background-color:#fff;-webkit-font-smoothing:antialiased" width="850" height="600" font-family="'Helvetica Neue',Helvetica,Arial,sans-serif" font-size="18" text-rendering="optimizeLegibility"><g class="ChartTab"><g class="HeaderView"><g opacity=".8" transform="matrix(.27 0 0 .27 778 15)"><a xmlns:xlink="http://www.w3.org/1999/xlink" xlink:href="https://ourworldindata.org" target="_blank"><g><path fill="#1B2543" d="M0 0h211.2v130.1H0z"/><path fill="#E63912" d="M0 112.2h211.2v17.9H0z"/><g><path fill="none" d="M1.2 12.3h210.2v99.2H1.2z"/><path fill="#FFF" d="M37.8 32.2c0 12.7-7.7 19.4-17.1 19.4-9.7 0-16.6-7.5-16.6-18.7 0-11.7 7.3-19.3 17.1-19.3 10.1.1 16.6 7.7 16.6 18.6zm-28.6.6c0 7.9 4.3 14.9 11.8 14.9 7.5 0 11.8-6.9 11.8-15.3 0-7.3-3.8-14.9-11.8-14.9-7.9 0-11.8 7.3-11.8 15.3zM62.7 43.8c0 2.7.1 5.1.2 7.2h-4.3l-.3-4.3h-.1c-1.3 2.1-4 4.9-8.8 4.9-4.2 0-9.1-2.3-9.1-11.6V24.6h4.8v14.6c0 5 1.5 8.4 5.9 8.4 3.2 0 5.5-2.2 6.3-4.4.3-.7.4-1.6.4-2.5V24.6h4.8v19.2zM67.3 32.8c0-3.1-.1-5.8-.2-8.2h4.2l.2 5.2h.2c1.2-3.5 4.1-5.8 7.3-5.8.5 0 .9.1 1.4.2v4.5c-.5-.1-1-.2-1.6-.2-3.4 0-5.8 2.6-6.5 6.2-.1.7-.2 1.4-.2 2.2V51h-4.8V32.8zM95.4 51L86 14.2h5l4.4 18.6c1.1 4.6 2.1 9.2 2.7 12.7h.1c.6-3.7 1.8-8 3-12.8l4.9-18.5h5l4.5 18.7c1 4.4 2 8.7 2.6 12.6h.1c.8-4 1.8-8.1 3-12.7l4.9-18.5h4.9L120.6 51h-5L111 31.9c-1.1-4.7-1.9-8.3-2.4-12h-.1c-.7 3.7-1.5 7.3-2.8 12L100.4 51h-5zM154.9 37.6c0 9.8-6.8 14-13.2 14-7.2 0-12.7-5.2-12.7-13.6 0-8.8 5.8-14 13.1-14 7.7 0 12.8 5.5 12.8 13.6zm-21 .3c0 5.8 3.3 10.1 8 10.1 4.6 0 8-4.3 8-10.3 0-4.5-2.2-10.1-7.9-10.1s-8.1 5.2-8.1 10.3zM158.2 32.8c0-3.1-.1-5.8-.2-8.2h4.2l.2 5.2h.2c1.2-3.5 4.1-5.8 7.3-5.8.5 0 .9.1 1.4.2v4.5c-.5-.1-1-.2-1.6-.2-3.4 0-5.8 2.6-6.5 6.2-.1.7-.2 1.4-.2 2.2V51h-4.8V32.8zM173.5 12.3h4.8V51h-4.8V12.3zM206.5 12.3v31.9c0 2.3.1 5 .2 6.8h-4.3l-.2-4.6h-.2c-1.5 2.9-4.7 5.2-9 5.2-6.4 0-11.3-5.4-11.3-13.4-.1-8.8 5.4-14.2 11.9-14.2 4 0 6.8 1.9 8 4h.1V12.3h4.8zm-4.8 23.1c0-.6-.1-1.4-.2-2a7 7 0 00-6.9-5.6c-5 0-7.9 4.4-7.9 10.2 0 5.3 2.6 9.8 7.8 9.8 3.2 0 6.2-2.1 7.1-5.7.2-.7.2-1.3.2-2.1v-4.6zM42.8 64c.1 1.6-1.1 2.9-3.1 2.9-1.7 0-2.9-1.3-2.9-2.9 0-1.7 1.3-3 3-3 1.9 0 3 1.3 3 3zm-5.4 33.8V71.4h4.8v26.4h-4.8zM47.5 78.6c0-2.7-.1-5-.2-7.1h4.3l.3 4.4h.1c1.3-2.5 4.4-5 8.8-5 3.7 0 9.4 2.2 9.4 11.2v15.8h-4.8V82.6c0-4.3-1.6-7.8-6.1-7.8-3.2 0-5.6 2.2-6.5 4.9-.2.6-.3 1.4-.3 2.2v15.9h-4.8V78.6zM84 61.6c2.9-.4 6.3-.8 10.1-.8 6.8 0 11.7 1.6 14.9 4.6 3.3 3 5.2 7.3 5.2 13.2 0 6-1.9 10.9-5.3 14.3-3.4 3.4-9.1 5.3-16.3 5.3-3.4 0-6.2-.2-8.6-.4V61.6zm4.8 32.5c1.2.2 3 .3 4.8.3 10.2 0 15.7-5.7 15.7-15.6.1-8.7-4.9-14.2-14.9-14.2-2.5 0-4.3.2-5.6.5v29zM132.1 97.8l-.4-3.3h-.2a9.79 9.79 0 01-8.1 3.9c-5.4 0-8.1-3.8-8.1-7.6 0-6.4 5.7-9.9 15.9-9.8v-.5c0-2.2-.6-6.1-6-6.1-2.5 0-5 .8-6.9 2l-1.1-3.2c2.2-1.4 5.4-2.3 8.7-2.3 8.1 0 10.1 5.5 10.1 10.8v9.9c0 2.3.1 4.5.4 6.3h-4.3zm-.7-13.4c-5.3-.1-11.2.8-11.2 5.9 0 3.1 2.1 4.6 4.5 4.6 3.4 0 5.6-2.2 6.4-4.4.2-.5.3-1 .3-1.5v-4.6zM146.6 63.9v7.6h6.9v3.7h-6.9v14.2c0 3.3.9 5.1 3.6 5.1 1.3 0 2.2-.2 2.8-.3l.2 3.6c-.9.4-2.4.7-4.3.7-2.2 0-4-.7-5.2-2-1.4-1.4-1.9-3.8-1.9-6.9V75.1h-4.1v-3.7h4.1v-6.3l4.8-1.2zM171.4 97.8l-.4-3.3h-.2a9.79 9.79 0 01-8.1 3.9c-5.4 0-8.1-3.8-8.1-7.6 0-6.4 5.7-9.9 15.9-9.8v-.5c0-2.2-.6-6.1-6-6.1-2.5 0-5 .8-6.9 2l-1.1-3.2c2.2-1.4 5.4-2.3 8.7-2.3 8.1 0 10.1 5.5 10.1 10.8v9.9c0 2.3.1 4.5.4 6.3h-4.3zm-.7-13.4c-5.3-.1-11.2.8-11.2 5.9 0 3.1 2.1 4.6 4.5 4.6 3.4 0 5.6-2.2 6.4-4.4.2-.5.3-1 .3-1.5v-4.6z"/></g></g></a></g><a href="https://ourworldindata.org/grapher/suicide-terrorist-attacks" target="_blank"><text font-size="25.2" x="15" y="35.2" fill="#555"><tspan x="15" y="35.16">Number of suicide terrorist attacks, World</tspan></text></a><text font-size="14.4" x="15" y="53.7" fill="#666"><tspan x="15" y="53.72">A terrorist attack is assessed as a &apos;suicide attack&apos; where there is evidence that the perpetrator didn&apos;t intend to escape</tspan><tspan x="15" y="69.56">from the attack alive.</tspan></text></g><g class="StackedBarChart"><defs><clipPath id="a"><path d="M69.9 92.1h623.85v443.2H69.9z"/></clipPath></defs><g class="VerticalAxis" fill="#666" dominant-baseline="middle" text-anchor="end" font-size="16.2"><text x="64.9" y="535.3">0</text><text x="64.9" y="482.9">2,000</text><text x="64.9" y="430.4">4,000</text><text x="64.9" y="378">6,000</text><text x="64.9" y="325.5">8,000</text><text x="64.9" y="273.1">10,000</text><text x="64.9" y="220.7">12,000</text><text x="64.9" y="168.2">14,000</text><text x="64.9" y="115.8">16,000</text></g><g class="AxisGridLines"><path stroke="#ccc" d="M69.9 535.3h623.85"/><path stroke="#ddd" stroke-dasharray="3,2" d="M69.9 482.9h623.85M69.9 430.4h623.85M69.9 378h623.85M69.9 325.5h623.85M69.9 273.1h623.85M69.9 220.7h623.85M69.9 168.2h623.85M69.9 115.8h623.85"/></g><g fill="#666" font-size="16.2"><text x="59.72" y="553.26">1970</text><text x="112.81" y="553.26">1974</text><text x="165.9" y="553.26">1978</text><text x="219" y="553.26">1982</text><text x="272.09" y="553.26">1986</text><text x="325.19" y="553.26">1990</text><text x="378.28" y="553.26">1995</text><text x="431.37" y="553.26">1999</text><text x="484.47" y="553.26">2003</text><text x="537.56" y="553.26">2007</text><text x="590.66" y="553.26">2011</text><text x="670.3" y="553.26">2017</text></g><g clip-path="url(#a)"><g class="World_0-segments" fill="#3360a9"><path opacity=".8" d="M72.55 518.2h10.62v17.1H72.55zM85.82 523h10.62v12.3H85.82zM99.1 520.4h10.62v14.9H99.1zM112.37 522.9h10.62v12.4h-10.62zM125.64 520.1h10.62v15.2h-10.62zM138.92 515.9h10.62v19.4h-10.62zM152.19 511.1h10.62v24.2h-10.62zM165.47 500.7h10.62v34.6h-10.62zM178.74 495.3h10.62v40h-10.62zM192.01 465.5h10.62v69.8h-10.62zM205.29 465.5h10.62v69.8h-10.62zM218.56 467.5h10.62v67.8h-10.62zM231.83 468.6h10.62v66.7h-10.62zM245.11 460.2h10.62v75.1h-10.62zM258.38 443.7H269v91.6h-10.62zM271.65 459.3h10.62v76h-10.62zM284.93 460.4h10.62v74.9h-10.62zM298.2 451.9h10.62v83.4H298.2zM311.47 437.8h10.62v97.5h-10.62zM324.75 422h10.62v113.3h-10.62zM338.02 433.4h10.62v101.9h-10.62zM351.29 412.6h10.62v122.7h-10.62zM364.57 402.4h10.62v132.9h-10.62zM377.84 445h10.62v90.3h-10.62zM391.11 455.1h10.62v80.2h-10.62zM404.39 455.5h10.62v79.8h-10.62zM417.66 451.8h10.62v83.5h-10.62zM430.93 511.4h10.62v23.9h-10.62zM444.21 499.5h10.62v35.8h-10.62zM457.48 488.7h10.62v46.6h-10.62zM470.76 486.7h10.62v48.6h-10.62zM484.03 502.4h10.62v32.9h-10.62zM497.3 504.1h10.62v31.2H497.3zM510.58 507.9h10.62v27.4h-10.62zM523.85 488h10.62v47.3h-10.62zM537.12 467.8h10.62v67.5h-10.62zM550.4 460.1h10.62v75.2H550.4zM563.67 415.8h10.62v119.5h-10.62zM576.94 416.3h10.62v119h-10.62zM590.22 413.3h10.62v122h-10.62zM603.49 407.7h10.62v127.6h-10.62zM616.76 322.4h10.62v212.9h-10.62zM630.04 236h10.62v299.3h-10.62zM643.31 111.6h10.62v423.7h-10.62zM656.58 167.1h10.62v368.2h-10.62zM669.86 204.9h10.62v330.4h-10.62zM683.13 271.6h10.62v263.7h-10.62z"/></g><g class="World_1-segments" fill="#ca2628"><path opacity=".8" d="M245.11 460h10.62v.2h-10.62zM271.65 458.9h10.62v.4h-10.62zM284.93 460.3h10.62v.1h-10.62zM298.2 451.8h10.62v.1H298.2zM311.47 437.7h10.62v.1h-10.62zM324.75 421.9h10.62v.1h-10.62zM351.29 412.5h10.62v.1h-10.62zM364.57 402.3h10.62v.1h-10.62zM377.84 444.7h10.62v.3h-10.62zM391.11 454.5h10.62v.6h-10.62zM404.39 455.1h10.62v.4h-10.62zM417.66 451.5h10.62v.3h-10.62zM430.93 510.8h10.62v.6h-10.62zM444.21 498.7h10.62v.8h-10.62zM457.48 487.7h10.62v1h-10.62zM470.76 485.3h10.62v1.4h-10.62zM484.03 500.3h10.62v2.1h-10.62zM497.3 501.8h10.62v2.3H497.3zM510.58 504.7h10.62v3.2h-10.62zM523.85 482.4h10.62v5.6h-10.62zM537.12 463h10.62v4.8h-10.62zM550.4 450.3h10.62v9.8H550.4zM563.67 409.3h10.62v6.5h-10.62zM576.94 411.5h10.62v4.8h-10.62zM590.22 408.8h10.62v4.5h-10.62zM603.49 402.2h10.62v5.5h-10.62zM616.76 311.9h10.62v10.5h-10.62zM630.04 219.7h10.62V236h-10.62zM643.31 92.1h10.62v19.5h-10.62zM656.58 142.9h10.62v24.2h-10.62zM669.86 179h10.62v25.9h-10.62zM683.13 249.5h10.62v22.1h-10.62z"/></g></g><g class="ScatterColorLegend clickable" cursor="pointer"><g class="legendMark">,<path fill="#ca2628" d="M713.75 95.1h6v6h-6z"/>,<text font-size="12.6" x="724.8" y="102.2"><tspan x="724.75" y="102.18">Suicide attacks</tspan></text></g><g class="legendMark">,<path fill="#3360a9" d="M713.75 112.7h6v6h-6z"/>,<text font-size="12.6" x="724.8" y="119.8"><tspan x="724.75" y="119.78">Non-suicide attacks</tspan></text></g></g></g><g class="SourcesFooter" fill="#777"><g class="clickable" fill="#777"><text font-size="12.6" x="15" y="581.6"><tspan x="15" y="581.58">Source: Global Terrorism Database (2018)</tspan></text></g><text font-size="12.6" x="775.4" y="581.6"><tspan x="775.4" y="581.58"><a class="cclogo" href="http://creativecommons.org/licenses/by-sa/4.0/deed.en_US" target="_blank" fill="#777">CC BY-SA</a></tspan></text></g></g></svg>