<svg xmlns="http://www.w3.org/2000/svg" version="1.1" style="background-color:#fff;-webkit-font-smoothing:antialiased" width="850" height="600" font-family="'Helvetica Neue',Helvetica,Arial,sans-serif" font-size="18" text-rendering="optimizeLegibility"><g class="ChartTab"><g class="HeaderView"><g opacity=".8" transform="matrix(.31 0 0 .31 770 15)"><a xmlns:xlink="http://www.w3.org/1999/xlink" xlink:href="https://ourworldindata.org" target="_blank"><g><path fill="#1B2543" d="M0 0h211.2v130.1H0z"/><path fill="#E63912" d="M0 112.2h211.2v17.9H0z"/><g><path fill="none" d="M1.2 12.3h210.2v99.2H1.2z"/><path fill="#FFF" d="M37.8 32.2c0 12.7-7.7 19.4-17.1 19.4-9.7 0-16.6-7.5-16.6-18.7 0-11.7 7.3-19.3 17.1-19.3 10.1.1 16.6 7.7 16.6 18.6zm-28.6.6c0 7.9 4.3 14.9 11.8 14.9 7.5 0 11.8-6.9 11.8-15.3 0-7.3-3.8-14.9-11.8-14.9-7.9 0-11.8 7.3-11.8 15.3zM62.7 43.8c0 2.7.1 5.1.2 7.2h-4.3l-.3-4.3h-.1c-1.3 2.1-4 4.9-8.8 4.9-4.2 0-9.1-2.3-9.1-11.6V24.6h4.8v14.6c0 5 1.5 8.4 5.9 8.4 3.2 0 5.5-2.2 6.3-4.4.3-.7.4-1.6.4-2.5V24.6h4.8v19.2zM67.3 32.8c0-3.1-.1-5.8-.2-8.2h4.2l.2 5.2h.2c1.2-3.5 4.1-5.8 7.3-5.8.5 0 .9.1 1.4.2v4.5c-.5-.1-1-.2-1.6-.2-3.4 0-5.8 2.6-6.5 6.2-.1.7-.2 1.4-.2 2.2V51h-4.8V32.8zM95.4 51L86 14.2h5l4.4 18.6c1.1 4.6 2.1 9.2 2.7 12.7h.1c.6-3.7 1.8-8 3-12.8l4.9-18.5h5l4.5 18.7c1 4.4 2 8.7 2.6 12.6h.1c.8-4 1.8-8.1 3-12.7l4.9-18.5h4.9L120.6 51h-5L111 31.9c-1.1-4.7-1.9-8.3-2.4-12h-.1c-.7 3.7-1.5 7.3-2.8 12L100.4 51h-5zM154.9 37.6c0 9.8-6.8 14-13.2 14-7.2 0-12.7-5.2-12.7-13.6 0-8.8 5.8-14 13.1-14 7.7 0 12.8 5.5 12.8 13.6zm-21 .3c0 5.8 3.3 10.1 8 10.1 4.6 0 8-4.3 8-10.3 0-4.5-2.2-10.1-7.9-10.1s-8.1 5.2-8.1 10.3zM158.2 32.8c0-3.1-.1-5.8-.2-8.2h4.2l.2 5.2h.2c1.2-3.5 4.1-5.8 7.3-5.8.5 0 .9.1 1.4.2v4.5c-.5-.1-1-.2-1.6-.2-3.4 0-5.8 2.6-6.5 6.2-.1.7-.2 1.4-.2 2.2V51h-4.8V32.8zM173.5 12.3h4.8V51h-4.8V12.3zM206.5 12.3v31.9c0 2.3.1 5 .2 6.8h-4.3l-.2-4.6h-.2c-1.5 2.9-4.7 5.2-9 5.2-6.4 0-11.3-5.4-11.3-13.4-.1-8.8 5.4-14.2 11.9-14.2 4 0 6.8 1.9 8 4h.1V12.3h4.8zm-4.8 23.1c0-.6-.1-1.4-.2-2a7 7 0 00-6.9-5.6c-5 0-7.9 4.4-7.9 10.2 0 5.3 2.6 9.8 7.8 9.8 3.2 0 6.2-2.1 7.1-5.7.2-.7.2-1.3.2-2.1v-4.6zM42.8 64c.1 1.6-1.1 2.9-3.1 2.9-1.7 0-2.9-1.3-2.9-2.9 0-1.7 1.3-3 3-3 1.9 0 3 1.3 3 3zm-5.4 33.8V71.4h4.8v26.4h-4.8zM47.5 78.6c0-2.7-.1-5-.2-7.1h4.3l.3 4.4h.1c1.3-2.5 4.4-5 8.8-5 3.7 0 9.4 2.2 9.4 11.2v15.8h-4.8V82.6c0-4.3-1.6-7.8-6.1-7.8-3.2 0-5.6 2.2-6.5 4.9-.2.6-.3 1.4-.3 2.2v15.9h-4.8V78.6zM84 61.6c2.9-.4 6.3-.8 10.1-.8 6.8 0 11.7 1.6 14.9 4.6 3.3 3 5.2 7.3 5.2 13.2 0 6-1.9 10.9-5.3 14.3-3.4 3.4-9.1 5.3-16.3 5.3-3.4 0-6.2-.2-8.6-.4V61.6zm4.8 32.5c1.2.2 3 .3 4.8.3 10.2 0 15.7-5.7 15.7-15.6.1-8.7-4.9-14.2-14.9-14.2-2.5 0-4.3.2-5.6.5v29zM132.1 97.8l-.4-3.3h-.2a9.79 9.79 0 01-8.1 3.9c-5.4 0-8.1-3.8-8.1-7.6 0-6.4 5.7-9.9 15.9-9.8v-.5c0-2.2-.6-6.1-6-6.1-2.5 0-5 .8-6.9 2l-1.1-3.2c2.2-1.4 5.4-2.3 8.7-2.3 8.1 0 10.1 5.5 10.1 10.8v9.9c0 2.3.1 4.5.4 6.3h-4.3zm-.7-13.4c-5.3-.1-11.2.8-11.2 5.9 0 3.1 2.1 4.6 4.5 4.6 3.4 0 5.6-2.2 6.4-4.4.2-.5.3-1 .3-1.5v-4.6zM146.6 63.9v7.6h6.9v3.7h-6.9v14.2c0 3.3.9 5.1 3.6 5.1 1.3 0 2.2-.2 2.8-.3l.2 3.6c-.9.4-2.4.7-4.3.7-2.2 0-4-.7-5.2-2-1.4-1.4-1.9-3.8-1.9-6.9V75.1h-4.1v-3.7h4.1v-6.3l4.8-1.2zM171.4 97.8l-.4-3.3h-.2a9.79 9.79 0 01-8.1 3.9c-5.4 0-8.1-3.8-8.1-7.6 0-6.4 5.7-9.9 15.9-9.8v-.5c0-2.2-.6-6.1-6-6.1-2.5 0-5 .8-6.9 2l-1.1-3.2c2.2-1.4 5.4-2.3 8.7-2.3 8.1 0 10.1 5.5 10.1 10.8v9.9c0 2.3.1 4.5.4 6.3h-4.3zm-.7-13.4c-5.3-.1-11.2.8-11.2 5.9 0 3.1 2.1 4.6 4.5 4.6 3.4 0 5.6-2.2 6.4-4.4.2-.5.3-1 .3-1.5v-4.6z"/></g></g></a></g><a href="https://ourworldindata.org/grapher/suicide-rates-vs-prevalence-of-mental-and-substance-use-disorders" target="_blank"><text font-size="21.6" x="15" y="32.3" fill="#555"><tspan x="15" y="32.28">Suicide death rates vs. prevalence of mental and substance use disorders,</tspan><tspan x="15" y="53.88">2016</tspan></text></a><text font-size="14.4" x="15" y="72.7" fill="#666"><tspan x="15" y="72.72">Age-standardized suicide death rates, measured per 100,000 individuals versus rates of mental and substance use disorders</tspan><tspan x="15" y="88.56">per 100,000 individuals. This includes depression, anxiety, bipolar, eating disorders, alcohol or drug use disorders, and</tspan><tspan x="15" y="104.4">schizophrenia.</tspan></text></g><g><g class="AxisBoxView"><g class="HorizontalAxis"><text font-size="12.6" x="253.9" y="554"><tspan x="253.87" y="553.98">Mental and substance use disorder rate</tspan></text><text x="138.8" y="533.9" fill="#666" text-anchor="middle" font-size="16.2">13,000</text><text x="229.5" y="533.9" fill="#666" text-anchor="middle" font-size="16.2">14,000</text><text x="320.2" y="533.9" fill="#666" text-anchor="middle" font-size="16.2">15,000</text><text x="410.9" y="533.9" fill="#666" text-anchor="middle" font-size="16.2">16,000</text><text x="501.6" y="533.9" fill="#666" text-anchor="middle" font-size="16.2">17,000</text><text x="592.3" y="533.9" fill="#666" text-anchor="middle" font-size="16.2">18,000</text><text x="683" y="533.9" fill="#666" text-anchor="middle" font-size="16.2">19,000</text></g><g class="VerticalAxis"><text font-size="12.6" x="-374.9" y="25.1" transform="rotate(-90)"><tspan x="-374.94" y="25.08">Suicide rate</tspan></text><text x="55.74" y="512.7" fill="#666" dominant-baseline="middle" text-anchor="end" font-size="16.2">0</text><text x="55.74" y="463.2" fill="#666" dominant-baseline="middle" text-anchor="end" font-size="16.2">5</text><text x="55.74" y="413.8" fill="#666" dominant-baseline="middle" text-anchor="end" font-size="16.2">10</text><text x="55.74" y="364.3" fill="#666" dominant-baseline="middle" text-anchor="end" font-size="16.2">15</text><text x="55.74" y="314.8" fill="#666" dominant-baseline="middle" text-anchor="end" font-size="16.2">20</text><text x="55.74" y="265.4" fill="#666" dominant-baseline="middle" text-anchor="end" font-size="16.2">25</text><text x="55.74" y="215.9" fill="#666" dominant-baseline="middle" text-anchor="end" font-size="16.2">30</text><text x="55.74" y="166.5" fill="#666" dominant-baseline="middle" text-anchor="end" font-size="16.2">35</text></g><g class="AxisGridLines"><path stroke="#ccc" d="M60.74 512.7H715"/><path stroke="#ddd" stroke-dasharray="3,2" d="M60.74 463.2H715M60.74 413.8H715M60.74 364.3H715M60.74 314.8H715M60.74 265.4H715M60.74 215.9H715M60.74 166.5H715"/></g><g class="AxisGridLines" stroke="#ddd" stroke-dasharray="3,2"><path d="M138.8 512.7V126.6M229.5 512.7V126.6M320.2 512.7V126.6M410.9 512.7V126.6M501.6 512.7V126.6M592.3 512.7V126.6M683 512.7V126.6"/></g></g><g clip-path="url(#a)" class="PointsWithLabels clickable"><path fill="rgba(255,255,255,0)" d="M60.74 126.6H715v386.1H60.74z"/><defs><clipPath id="a"><path d="M50.74 116.6H725v406.1H50.74z"/></clipPath></defs><circle cx="213" cy="428" r="17.84" fill="#d14e5b" opacity=".8"/><circle cx="297" cy="335" r="17.29" fill="#d14e5b" opacity=".8"/><circle cx="715" cy="385" r="8.78" fill="#4d824b" opacity=".8"/><circle cx="77" cy="477" r="7.78" fill="#d14e5b" opacity=".8"/><circle cx="539" cy="449" r="7.04" fill="#69c487" opacity=".8"/><circle cx="300" cy="474" r="6.76" fill="#d14e5b" opacity=".8"/><circle cx="313" cy="443" r="6.54" fill="#5675c1" opacity=".8"/><circle cx="295" cy="437" r="6.24" fill="#d14e5b" opacity=".8"/><circle cx="450" cy="210" r="6.02" fill="#ffd336" opacity=".8"/><circle cx="119" cy="342" r="5.7" fill="#d14e5b" opacity=".8"/><circle cx="104" cy="455" r="5.51" fill="#4d824b" opacity=".8"/><circle cx="116" cy="449" r="5.09" fill="#d14e5b" opacity=".8"/><circle cx="82" cy="431" r="4.92" fill="#d14e5b" opacity=".8"/><circle cx="451" cy="387" r="4.86" fill="#5675c1" opacity=".8"/><circle cx="412" cy="475" r="4.79" fill="#5675c1" opacity=".8"/><circle cx="422" cy="408" r="4.71" fill="#ffd336" opacity=".8"/><circle cx="669" cy="453" r="4.57" fill="#d14e5b" opacity=".8"/><circle cx="407" cy="479" r="4.54" fill="#d14e5b" opacity=".8"/><circle cx="427" cy="405" r="4.44" fill="#5675c1" opacity=".8"/><circle cx="204" cy="404" r="4.41" fill="#d14e5b" opacity=".8"/><circle cx="489" cy="361" r="4.24" fill="#ffd336" opacity=".8"/><circle cx="423" cy="434" r="4.22" fill="#ffd336" opacity=".8"/><circle cx="361" cy="456" r="4.16" fill="#ffd336" opacity=".8"/><circle cx="369" cy="372" r="3.87" fill="#5675c1" opacity=".8"/><circle cx="364" cy="400" r="3.82" fill="#5675c1" opacity=".8"/><circle cx="78" cy="454" r="3.82" fill="#d14e5b" opacity=".8"/><circle cx="270" cy="264" r="3.81" fill="#d14e5b" opacity=".8"/><circle cx="60" cy="456" r="3.79" fill="#69c487" opacity=".8"/><circle cx="482" cy="453" r="3.75" fill="#ffd336" opacity=".8"/><circle cx="436" cy="312" r="3.68" fill="#ffd336" opacity=".8"/><circle cx="307" cy="423" r="3.65" fill="#5675c1" opacity=".8"/><circle cx="519" cy="401" r="3.58" fill="#69c487" opacity=".8"/><circle cx="164" cy="368" r="3.47" fill="#ffd336" opacity=".8"/><circle cx="388" cy="476" r="3.43" fill="#5675c1" opacity=".8"/><circle cx="457" cy="308" r="3.42" fill="#5675c1" opacity=".8"/><circle cx="456" cy="461" r="3.39" fill="#5675c1" opacity=".8"/><circle cx="507" cy="405" r="3.36" fill="#4d824b" opacity=".8"/><circle cx="404" cy="416" r="3.35" fill="#d14e5b" opacity=".8"/><circle cx="543" cy="412" r="3.34" fill="#d14e5b" opacity=".8"/><circle cx="539" cy="459" r="3.29" fill="#5675c1" opacity=".8"/><circle cx="313" cy="402" r="3.24" fill="#d14e5b" opacity=".8"/><circle cx="123" cy="419" r="3.19" fill="#69c487" opacity=".8"/><circle cx="199" cy="482" r="3.19" fill="#69c487" opacity=".8"/><circle cx="161" cy="429" r="3.17" fill="#d14e5b" opacity=".8"/><circle cx="323" cy="482" r="3.16" fill="#d14e5b" opacity=".8"/><circle cx="138" cy="406" r="3.12" fill="#d14e5b" opacity=".8"/><circle cx="270" cy="429" r="3.04" fill="#5675c1" opacity=".8"/><circle cx="413" cy="388" r="3" fill="#5675c1" opacity=".8"/><circle cx="218" cy="392" r="2.98" fill="#d14e5b" opacity=".8"/><circle cx="712" cy="409" r="2.92" fill="#a652ba" opacity=".8"/><circle cx="150" cy="378" r="2.92" fill="#d14e5b" opacity=".8"/><circle cx="402" cy="407" r="2.9" fill="#5675c1" opacity=".8"/><circle cx="414" cy="488" r="2.85" fill="#d14e5b" opacity=".8"/><circle cx="147" cy="278" r="2.85" fill="#d14e5b" opacity=".8"/><circle cx="125" cy="413" r="2.85" fill="#ffd336" opacity=".8"/><circle cx="290" cy="348" r="2.84" fill="#5675c1" opacity=".8"/><circle cx="325" cy="345" r="2.83" fill="#5675c1" opacity=".8"/><circle cx="359" cy="407" r="2.82" fill="#5675c1" opacity=".8"/><circle cx="344" cy="385" r="2.71" fill="#5675c1" opacity=".8"/><circle cx="569" cy="404" r="2.69" fill="#69c487" opacity=".8"/><circle cx="361" cy="434" r="2.68" fill="#5675c1" opacity=".8"/><circle cx="268" cy="453" r="2.66" fill="#5675c1" opacity=".8"/><circle cx="465" cy="421" r="2.66" fill="#ffd336" opacity=".8"/><circle cx="249" cy="265" r="2.65" fill="#d14e5b" opacity=".8"/><circle cx="374" cy="389" r="2.64" fill="#5675c1" opacity=".8"/><circle cx="243" cy="442" r="2.6" fill="#4d824b" opacity=".8"/><circle cx="279" cy="434" r="2.58" fill="#69c487" opacity=".8"/><circle cx="165" cy="447" r="2.56" fill="#d14e5b" opacity=".8"/><circle cx="363" cy="337" r="2.55" fill="#5675c1" opacity=".8"/><circle cx="283" cy="378" r="2.51" fill="#5675c1" opacity=".8"/><circle cx="355" cy="237" r="2.5" fill="#5675c1" opacity=".8"/><circle cx="353" cy="413" r="2.45" fill="#5675c1" opacity=".8"/><circle cx="458" cy="399" r="2.42" fill="#5675c1" opacity=".8"/><circle cx="417" cy="475" r="2.41" fill="#ffd336" opacity=".8"/><circle cx="389" cy="394" r="2.4" fill="#4d824b" opacity=".8"/><circle cx="361" cy="445" r="2.39" fill="#5675c1" opacity=".8"/><circle cx="417" cy="354" r="2.38" fill="#ffd336" opacity=".8"/><circle cx="447" cy="475" r="2.38" fill="#5675c1" opacity=".8"/><circle cx="322" cy="417" r="2.38" fill="#5675c1" opacity=".8"/><circle cx="448" cy="416" r="2.38" fill="#ffd336" opacity=".8"/><circle cx="192" cy="398" r="2.37" fill="#ffd336" opacity=".8"/><circle cx="304" cy="441" r="2.36" fill="#69c487" opacity=".8"/><circle cx="378" cy="415" r="2.36" fill="#4d824b" opacity=".8"/><circle cx="320" cy="453" r="2.36" fill="#4d824b" opacity=".8"/><circle cx="452" cy="418" r="2.35" fill="#5675c1" opacity=".8"/><circle cx="193" cy="329" r="2.34" fill="#ffd336" opacity=".8"/><circle cx="167" cy="359" r="2.34" fill="#ffd336" opacity=".8"/><circle cx="333" cy="375" r="2.32" fill="#5675c1" opacity=".8"/><circle cx="465" cy="393" r="2.32" fill="#ffd336" opacity=".8"/><circle cx="168" cy="471" r="2.32" fill="#d14e5b" opacity=".8"/><circle cx="419" cy="285" r="2.32" fill="#ffd336" opacity=".8"/><circle cx="446" cy="368" r="2.29" fill="#5675c1" opacity=".8"/><circle cx="401" cy="388" r="2.26" fill="#ffd336" opacity=".8"/><circle cx="256" cy="474" r="2.25" fill="#d14e5b" opacity=".8"/><circle cx="132" cy="467" r="2.25" fill="#4d824b" opacity=".8"/><circle cx="230" cy="436" r="2.23" fill="#d14e5b" opacity=".8"/><circle cx="391" cy="395" r="2.23" fill="#ffd336" opacity=".8"/><circle cx="164" cy="406" r="2.21" fill="#ffd336" opacity=".8"/><circle cx="167" cy="362" r="2.21" fill="#a652ba" opacity=".8"/><circle cx="158" cy="459" r="2.2" fill="#d14e5b" opacity=".8"/><circle cx="463" cy="447" r="2.18" fill="#69c487" opacity=".8"/><circle cx="404" cy="478" r="2.17" fill="#d14e5b" opacity=".8"/><circle cx="410" cy="466" r="2.16" fill="#5675c1" opacity=".8"/><circle cx="178" cy="407" r="2.16" fill="#d14e5b" opacity=".8"/><circle cx="332" cy="359" r="2.16" fill="#5675c1" opacity=".8"/><circle cx="205" cy="419" r="2.15" fill="#4d824b" opacity=".8"/><circle cx="332" cy="416" r="2.15" fill="#5675c1" opacity=".8"/><circle cx="149" cy="440" r="2.14" fill="#4d824b" opacity=".8"/><circle cx="416" cy="385" r="2.12" fill="#5675c1" opacity=".8"/><circle cx="339" cy="413" r="2.12" fill="#ffd336" opacity=".8"/><circle cx="242" cy="390" r="2.11" fill="#d14e5b" opacity=".8"/><circle cx="188" cy="407" r="2.11" fill="#ffd336" opacity=".8"/><circle cx="526" cy="373" r="2.1" fill="#ffd336" opacity=".8"/><circle cx="126" cy="429" r="2.1" fill="#d14e5b" opacity=".8"/><circle cx="149" cy="429" r="2.09" fill="#d14e5b" opacity=".8"/><circle cx="447" cy="415" r="2.08" fill="#ffd336" opacity=".8"/><circle cx="108" cy="445" r="2.07" fill="#4d824b" opacity=".8"/><circle cx="442" cy="366" r="2.06" fill="#5675c1" opacity=".8"/><circle cx="508" cy="414" r="2.06" fill="#ffd336" opacity=".8"/><circle cx="681" cy="402" r="2.05" fill="#a652ba" opacity=".8"/><circle cx="206" cy="370" r="2.05" fill="#ffd336" opacity=".8"/><circle cx="383" cy="349" r="2.04" fill="#5675c1" opacity=".8"/><circle cx="352" cy="406" r="2.04" fill="#5675c1" opacity=".8"/><circle cx="465" cy="489" r="2.04" fill="#d14e5b" opacity=".8"/><circle cx="135" cy="446" r="2.04" fill="#d14e5b" opacity=".8"/><circle cx="365" cy="438" r="2.01" fill="#4d824b" opacity=".8"/><circle cx="239" cy="440" r="2.01" fill="#ffd336" opacity=".8"/><circle cx="245" cy="457" r="2.01" fill="#5675c1" opacity=".8"/><circle cx="90" cy="454" r="2.01" fill="#4d824b" opacity=".8"/><circle cx="350" cy="363" r="2" fill="#ffd336" opacity=".8"/><circle cx="450" cy="346" r="1.99" fill="#69c487" opacity=".8"/><circle cx="392" cy="205" r="1.98" fill="#ffd336" opacity=".8"/><circle cx="138" cy="456" r="1.98" fill="#ffd336" opacity=".8"/><circle cx="129" cy="439" r="1.97" fill="#d14e5b" opacity=".8"/><circle cx="362" cy="485" r="1.96" fill="#d14e5b" opacity=".8"/><circle cx="355" cy="481" r="1.96" fill="#d14e5b" opacity=".8"/><circle cx="307" cy="313" r="1.96" fill="#d14e5b" opacity=".8"/><circle cx="323" cy="483" r="1.95" fill="#4d824b" opacity=".8"/><circle cx="349" cy="383" r="1.93" fill="#5675c1" opacity=".8"/><circle cx="546" cy="126" r="1.92" fill="#5675c1" opacity=".8"/><circle cx="354" cy="320" r="1.92" fill="#ffd336" opacity=".8"/><circle cx="380" cy="338" r="1.91" fill="#5675c1" opacity=".8"/><circle cx="148" cy="429" r="1.91" fill="#ffd336" opacity=".8"/><circle cx="216" cy="353" r="1.91" fill="#ffd336" opacity=".8"/><circle cx="350" cy="463" r="1.91" fill="#d14e5b" opacity=".8"/><circle cx="352" cy="438" r="1.9" fill="#5675c1" opacity=".8"/><circle cx="323" cy="388" r="1.88" fill="#5675c1" opacity=".8"/><circle cx="333" cy="405" r="1.88" fill="#5675c1" opacity=".8"/><circle cx="402" cy="443" r="1.87" fill="#d14e5b" opacity=".8"/><circle cx="367" cy="394" r="1.87" fill="#4d824b" opacity=".8"/><circle cx="424" cy="359" r="1.87" fill="#ffd336" opacity=".8"/><circle cx="175" cy="430" r="1.87" fill="#5675c1" opacity=".8"/><circle cx="402" cy="327" r="1.86" fill="#5675c1" opacity=".8"/><circle cx="335" cy="466" r="1.85" fill="#ffd336" opacity=".8"/><circle cx="357" cy="445" r="1.84" fill="#5675c1" opacity=".8"/><circle cx="132" cy="387" r="1.84" fill="#a652ba" opacity=".8"/><circle cx="348" cy="426" r="1.83" fill="#5675c1" opacity=".8"/><circle cx="318" cy="443" r="1.83" fill="#d14e5b" opacity=".8"/><circle cx="328" cy="418" r="1.83" fill="#5675c1" opacity=".8"/><circle cx="473" cy="211" r="1.83" fill="#69c487" opacity=".8"/><circle cx="172" cy="402" r="1.82" fill="#ffd336" opacity=".8"/><circle cx="163" cy="336" r="1.82" fill="#a652ba" opacity=".8"/><circle cx="437" cy="270" r="1.82" fill="#69c487" opacity=".8"/><circle cx="391" cy="419" r="1.82" fill="#ffd336" opacity=".8"/><circle cx="321" cy="313" r="1.81" fill="#5675c1" opacity=".8"/><circle cx="346" cy="466" r="1.81" fill="#ffd336" opacity=".8"/><circle cx="88" cy="465" r="1.81" fill="#d14e5b" opacity=".8"/><circle cx="329" cy="482" r="1.8" fill="#4d824b" opacity=".8"/><circle cx="352" cy="405" r="1.8" fill="#ffd336" opacity=".8"/><circle cx="348" cy="435" r="1.8" fill="#4d824b" opacity=".8"/><circle cx="135" cy="474" r="1.8" fill="#d14e5b" opacity=".8"/><circle cx="323" cy="464" r="1.8" fill="#4d824b" opacity=".8"/><circle cx="153" cy="346" r="1.8" fill="#a652ba" opacity=".8"/><circle cx="154" cy="319" r="1.79" fill="#a652ba" opacity=".8"/><circle cx="132" cy="384" r="1.79" fill="#a652ba" opacity=".8"/><circle cx="346" cy="443" r="1.79" fill="#4d824b" opacity=".8"/><circle cx="257" cy="483" r="1.79" fill="#5675c1" opacity=".8"/><circle cx="371" cy="437" r="1.79" fill="#4d824b" opacity=".8"/><circle cx="342" cy="442" r="1.79" fill="#4d824b" opacity=".8"/><circle cx="118" cy="435" r="1.79" fill="#a652ba" opacity=".8"/><circle cx="169" cy="266" r="1.79" fill="#a652ba" opacity=".8"/><circle cx="338" cy="490" r="1.79" fill="#4d824b" opacity=".8"/><circle cx="390" cy="430" r="1.79" fill="#ffd336" opacity=".8"/><circle cx="116" cy="430" r="1.79" fill="#5675c1" opacity=".8"/><circle cx="112" cy="442" r="1.79" fill="#a652ba" opacity=".8"/><circle cx="344" cy="467" r="1.79" fill="#4d824b" opacity=".8"/><circle cx="335" cy="471" r="1.79" fill="#4d824b" opacity=".8"/><circle cx="130" cy="401" r="1.79" fill="#a652ba" opacity=".8"/><circle cx="148" cy="345" r="1.78" fill="#a652ba" opacity=".8"/><circle cx="308" cy="391" r="1.78" fill="#000" opacity=".8"/><circle cx="513" cy="485" r="1.78" fill="#d14e5b" opacity=".8"/><circle cx="464" cy="447" r="1.78" fill="#d14e5b" opacity=".8"/><circle cx="465" cy="383" r="1.78" fill="#000" opacity=".8"/><circle cx="341" cy="413" r="1.78" fill="#000" opacity=".8"/><circle cx="310" cy="402" r="1.78" fill="#000" opacity=".8"/><circle cx="161" cy="437" r="1.78" fill="#d14e5b" opacity=".8"/><circle cx="153" cy="320" r="1.78" fill="#a652ba" opacity=".8"/><circle cx="378" cy="453" r="1.78" fill="#4d824b" opacity=".8"/><circle cx="445" cy="423" r="1.78" fill="#000" opacity=".8"/><circle cx="507" cy="409" r="1.78" fill="#000" opacity=".8"/><circle cx="386" cy="401" r="1.78" fill="#000" opacity=".8"/><circle cx="412" cy="439" r="1.78" fill="#000" opacity=".8"/><circle cx="487" cy="403" r="1.78" fill="#000" opacity=".8"/><circle cx="228" cy="411" r="1.78" fill="#000" opacity=".8"/><circle cx="365" cy="399" r="1.78" fill="#000" opacity=".8"/><circle cx="297" cy="360" r="1.78" fill="#000" opacity=".8"/><circle cx="407" cy="404" r="1.78" fill="#000" opacity=".8"/><circle cx="108" cy="445" r="1.78" fill="#000" opacity=".8"/><circle cx="313" cy="418" r="1.78" fill="#000" opacity=".8"/><circle cx="161" cy="373" r="1.78" fill="#000" opacity=".8"/><circle cx="461" cy="465" r="1.78" fill="#000" opacity=".8"/><circle cx="404" cy="389" r="1.78" fill="#000" opacity=".8"/><circle cx="442" cy="240" r="1.78" fill="#000" opacity=".8"/><circle cx="240" cy="462" r="1.78" fill="#000" opacity=".8"/><circle cx="530" cy="399" r="1.78" fill="#000" opacity=".8"/><circle cx="180" cy="388" r="1.78" fill="#000" opacity=".8"/><circle cx="212" cy="426" r="1.78" fill="#000" opacity=".8"/><circle cx="165" cy="327" r="1.78" fill="#000" opacity=".8"/><circle cx="693" cy="387" r="1.78" fill="#000" opacity=".8"/><circle cx="308" cy="447" r="1.78" fill="#000" opacity=".8"/><circle cx="372" cy="351" r="1.78" fill="#000" opacity=".8"/><circle cx="707" cy="408" r="1.78" fill="#000" opacity=".8"/><circle cx="430" cy="417" r="1.78" fill="#000" opacity=".8"/><circle cx="168" cy="384" r="1.78" fill="#000" opacity=".8"/><circle cx="537" cy="449" r="1.78" fill="#000" opacity=".8"/><circle cx="109" cy="449" r="1.78" fill="#000" opacity=".8"/><circle cx="368" cy="419" r="1.78" fill="#000" opacity=".8"/><text x="213" y="409.16" font-size="14.3" font-family="Arial Narrow, Arial, sans-serif" fill="#666">China</text><text x="297" y="316.71" font-size="14.1" font-family="Arial Narrow, Arial, sans-serif" fill="#666">India</text><text x="644.01" y="375.22" font-size="11.77" font-family="Arial Narrow, Arial, sans-serif" fill="#666">United States</text><text x="77" y="468.22" font-size="11.6" font-family="Arial Narrow, Arial, sans-serif" fill="#666">Indonesia</text><text x="539" y="440.96" font-size="11.49" font-family="Arial Narrow, Arial, sans-serif" fill="#666">Brazil</text><text x="300" y="466.24" font-size="11.44" font-family="Arial Narrow, Arial, sans-serif" fill="#666">Pakistan</text><text x="313" y="435.46" font-size="11.41" font-family="Arial Narrow, Arial, sans-serif" fill="#666">Nigeria</text><text x="450" y="202.98" font-size="11.35" font-family="Arial Narrow, Arial, sans-serif" fill="#666">Russia</text><text x="119" y="335.3" font-size="11.31" font-family="Arial Narrow, Arial, sans-serif" fill="#666">Japan</text><text x="104" y="448.49" font-size="11.29" font-family="Arial Narrow, Arial, sans-serif" fill="#666">Mexico</text><text x="82" y="425.08" font-size="11.22" font-family="Arial Narrow, Arial, sans-serif" fill="#666">Vietnam</text><text x="451" y="381.14" font-size="11.21" font-family="Arial Narrow, Arial, sans-serif" fill="#666">Ethiopia</text><text x="412" y="469.21" font-size="11.21" font-family="Arial Narrow, Arial, sans-serif" fill="#666">Egypt</text><text x="422" y="402.29" font-size="11.2" font-family="Arial Narrow, Arial, sans-serif" fill="#666">Germany</text><text x="669" y="447.43" font-size="11.19" font-family="Arial Narrow, Arial, sans-serif" fill="#666">Iran</text><text x="489" y="355.76" font-size="11.15" font-family="Arial Narrow, Arial, sans-serif" fill="#666">France</text><text x="423" y="428.78" font-size="11.15" font-family="Arial Narrow, Arial, sans-serif" fill="#666">United Kingdom</text><text x="361" y="450.84" font-size="11.15" font-family="Arial Narrow, Arial, sans-serif" fill="#666">Italy</text><text x="369" y="367.13" font-size="11.12" font-family="Arial Narrow, Arial, sans-serif" fill="#666">South Africa</text><text x="364" y="395.18" font-size="11.12" font-family="Arial Narrow, Arial, sans-serif" fill="#666">Tanzania</text><text x="270" y="259.19" font-size="11.12" font-family="Arial Narrow, Arial, sans-serif" fill="#666">South Korea</text><text x="482" y="448.25" font-size="11.11" font-family="Arial Narrow, Arial, sans-serif" fill="#666">Spain</text><text x="436" y="307.32" font-size="11.11" font-family="Arial Narrow, Arial, sans-serif" fill="#666">Ukraine</text><text x="307" y="418.35" font-size="11.11" font-family="Arial Narrow, Arial, sans-serif" fill="#666">Kenya</text><text x="519" y="396.42" font-size="11.1" font-family="Arial Narrow, Arial, sans-serif" fill="#666">Argentina</text><text x="164" y="363.53" font-size="11.09" font-family="Arial Narrow, Arial, sans-serif" fill="#666">Poland</text><text x="543" y="407.66" font-size="11.08" font-family="Arial Narrow, Arial, sans-serif" fill="#666">Afghanistan</text><text x="539" y="454.71" font-size="11.08" font-family="Arial Narrow, Arial, sans-serif" fill="#666">Morocco</text><text x="313" y="397.76" font-size="11.08" font-family="Arial Narrow, Arial, sans-serif" fill="#666">Nepal</text><text x="199" y="477.81" font-size="11.07" font-family="Arial Narrow, Arial, sans-serif" fill="#666">Peru</text><text x="161" y="424.83" font-size="11.07" font-family="Arial Narrow, Arial, sans-serif" fill="#666">Malaysia</text><text x="323" y="477.84" font-size="11.07" font-family="Arial Narrow, Arial, sans-serif" fill="#666">Saudi Arabia</text><text x="138" y="401.88" font-size="11.07" font-family="Arial Narrow, Arial, sans-serif" fill="#666">Uzbekistan</text><text x="270" y="424.96" font-size="11.06" font-family="Arial Narrow, Arial, sans-serif" fill="#666">Ghana</text><text x="218" y="388.02" font-size="11.06" font-family="Arial Narrow, Arial, sans-serif" fill="#666">North Korea</text><text x="668.88" y="405.08" font-size="11.06" font-family="Arial Narrow, Arial, sans-serif" fill="#666">Australia</text><text x="414" y="484.15" font-size="11.05" font-family="Arial Narrow, Arial, sans-serif" fill="#666">Syria</text><text x="147" y="274.15" font-size="11.05" font-family="Arial Narrow, Arial, sans-serif" fill="#666">Sri Lanka</text><text x="290" y="344.16" font-size="11.05" font-family="Arial Narrow, Arial, sans-serif" fill="#666">Cote d&apos;Ivoire</text><text x="344" y="381.29" font-size="11.04" font-family="Arial Narrow, Arial, sans-serif" fill="#666">Burkina Faso</text><text x="361" y="430.32" font-size="11.04" font-family="Arial Narrow, Arial, sans-serif" fill="#666">Niger</text><text x="268" y="449.34" font-size="11.04" font-family="Arial Narrow, Arial, sans-serif" fill="#666">Mali</text><text x="465" y="417.34" font-size="11.04" font-family="Arial Narrow, Arial, sans-serif" fill="#666">Netherlands</text><text x="165" y="443.44" font-size="11.04" font-family="Arial Narrow, Arial, sans-serif" fill="#666">Cambodia</text><text x="363" y="333.45" font-size="11.03" font-family="Arial Narrow, Arial, sans-serif" fill="#666">Zambia</text><text x="283" y="374.49" font-size="11.03" font-family="Arial Narrow, Arial, sans-serif" fill="#666">Senegal</text><text x="355" y="233.5" font-size="11.03" font-family="Arial Narrow, Arial, sans-serif" fill="#666">Zimbabwe</text><text x="353" y="409.55" font-size="11.03" font-family="Arial Narrow, Arial, sans-serif" fill="#666">Chad</text><text x="417" y="350.62" font-size="11.03" font-family="Arial Narrow, Arial, sans-serif" fill="#666">Belgium</text><text x="447" y="471.62" font-size="11.03" font-family="Arial Narrow, Arial, sans-serif" fill="#666">Tunisia</text><text x="193" y="325.66" font-size="11.02" font-family="Arial Narrow, Arial, sans-serif" fill="#666">Hungary</text><text x="419" y="281.68" font-size="11.02" font-family="Arial Narrow, Arial, sans-serif" fill="#666">Belarus</text><text x="446" y="364.71" font-size="11.02" font-family="Arial Narrow, Arial, sans-serif" fill="#666">Burundi</text><text x="132" y="463.75" font-size="11.02" font-family="Arial Narrow, Arial, sans-serif" fill="#666">Honduras</text><text x="230" y="432.77" font-size="11.02" font-family="Arial Narrow, Arial, sans-serif" fill="#666">Israel</text><text x="332" y="355.84" font-size="11.02" font-family="Arial Narrow, Arial, sans-serif" fill="#666">Togo</text><text x="416" y="381.88" font-size="11.01" font-family="Arial Narrow, Arial, sans-serif" fill="#666">Eritrea</text><text x="526" y="369.9" font-size="11.01" font-family="Arial Narrow, Arial, sans-serif" fill="#666">Finland</text><text x="206" y="366.95" font-size="11.01" font-family="Arial Narrow, Arial, sans-serif" fill="#666">Croatia</text><text x="383" y="345.96" font-size="11.01" font-family="Arial Narrow, Arial, sans-serif" fill="#666">Liberia</text><text x="465" y="485.96" font-size="11.01" font-family="Arial Narrow, Arial, sans-serif" fill="#666">Lebanon</text><text x="392" y="202.02" font-size="11.01" font-family="Arial Narrow, Arial, sans-serif" fill="#666">Lithuania</text><text x="546" y="137.61" font-size="11.01" font-family="Arial Narrow, Arial, sans-serif" fill="#666">Lesotho</text><text x="354" y="317.08" font-size="11.01" font-family="Arial Narrow, Arial, sans-serif" fill="#666">Latvia</text><text x="216" y="350.09" font-size="11" font-family="Arial Narrow, Arial, sans-serif" fill="#666">Slovenia</text><text x="402" y="440.13" font-size="11" font-family="Arial Narrow, Arial, sans-serif" fill="#666">Bahrain</text><text x="402" y="324.14" font-size="11" font-family="Arial Narrow, Arial, sans-serif" fill="#666">Swaziland</text><text x="132" y="384.16" font-size="11" font-family="Arial Narrow, Arial, sans-serif" fill="#666">Fiji</text><text x="437" y="267.18" font-size="11" font-family="Arial Narrow, Arial, sans-serif" fill="#666">Suriname</text><text x="391" y="416.18" font-size="11" font-family="Arial Narrow, Arial, sans-serif" fill="#666">Luxembourg</text><text x="346" y="463.19" font-size="11" font-family="Arial Narrow, Arial, sans-serif" fill="#666">Malta</text><text x="153" y="343.2" font-size="11" font-family="Arial Narrow, Arial, sans-serif" fill="#666">Vanuatu</text><text x="154" y="316.21" font-size="11" font-family="Arial Narrow, Arial, sans-serif" fill="#666">Guam</text><text x="513" y="482.22" font-size="11" font-family="Arial Narrow, Arial, sans-serif" fill="#666">Palestine</text><text x="442" y="237.22" font-size="11" font-family="Arial Narrow, Arial, sans-serif" fill="#666">Eastern Europe</text></g><g class="ScatterColorLegend clickable" cursor="pointer"><g class="legendMark">,<path fill="#5675c1" d="M735 129.6h6v6h-6z"/>,<text font-size="12.6" x="746" y="136.7"><tspan x="746" y="136.68">Africa</tspan></text></g><g class="legendMark">,<path fill="#d14e5b" d="M735 147.2h6v6h-6z"/>,<text font-size="12.6" x="746" y="154.3"><tspan x="746" y="154.28">Asia</tspan></text></g><g class="legendMark">,<path fill="#ffd336" d="M735 164.8h6v6h-6z"/>,<text font-size="12.6" x="746" y="171.9"><tspan x="746" y="171.88">Europe</tspan></text></g><g class="legendMark">,<path fill="#4d824b" d="M735 182.4h6v6h-6z"/>,<text font-size="12.6" x="746" y="189.5"><tspan x="746" y="189.48">North America</tspan></text></g><g class="legendMark">,<path fill="#a652ba" d="M735 200h6v6h-6z"/>,<text font-size="12.6" x="746" y="207.1"><tspan x="746" y="207.08">Oceania</tspan></text></g><g class="legendMark">,<path fill="#69c487" d="M735 217.6h6v6h-6z"/>,<text font-size="12.6" x="746" y="224.7"><tspan x="746" y="224.68">South America</tspan></text></g></g></g><g class="SourcesFooter" fill="#777"><g class="clickable" fill="#777"><text font-size="12.6" x="15" y="581.6"><tspan x="15" y="581.58">Source: IHME, Global Burden of Disease</tspan></text></g><text font-size="12.6" x="649" y="581.6"><tspan x="649.02" y="581.58"><a target="_blank" href="https://ourworldindata.org" fill="#777">OurWorldInData.org</a> • <a href="http://creativecommons.org/licenses/by-sa/4.0/deed.en_US" target="_blank" fill="#777">CC BY-SA</a></tspan></text></g></g></svg>