<svg xmlns="http://www.w3.org/2000/svg" version="1.1" style="background-color:#fff;-webkit-font-smoothing:antialiased" width="850" height="600" font-family="'Helvetica Neue',Helvetica,Arial,sans-serif" font-size="18" text-rendering="optimizeLegibility"><g class="ChartTab"><g class="HeaderView"><g opacity=".8" transform="matrix(.31 0 0 .31 770 15)"><a xmlns:xlink="http://www.w3.org/1999/xlink" xlink:href="https://ourworldindata.org" target="_blank"><g><path fill="#1B2543" d="M0 0h211.2v130.1H0z"/><path fill="#E63912" d="M0 112.2h211.2v17.9H0z"/><g><path fill="none" d="M1.2 12.3h210.2v99.2H1.2z"/><path fill="#FFF" d="M37.8 32.2c0 12.7-7.7 19.4-17.1 19.4-9.7 0-16.6-7.5-16.6-18.7 0-11.7 7.3-19.3 17.1-19.3 10.1.1 16.6 7.7 16.6 18.6zm-28.6.6c0 7.9 4.3 14.9 11.8 14.9 7.5 0 11.8-6.9 11.8-15.3 0-7.3-3.8-14.9-11.8-14.9-7.9 0-11.8 7.3-11.8 15.3zM62.7 43.8c0 2.7.1 5.1.2 7.2h-4.3l-.3-4.3h-.1c-1.3 2.1-4 4.9-8.8 4.9-4.2 0-9.1-2.3-9.1-11.6V24.6h4.8v14.6c0 5 1.5 8.4 5.9 8.4 3.2 0 5.5-2.2 6.3-4.4.3-.7.4-1.6.4-2.5V24.6h4.8v19.2zM67.3 32.8c0-3.1-.1-5.8-.2-8.2h4.2l.2 5.2h.2c1.2-3.5 4.1-5.8 7.3-5.8.5 0 .9.1 1.4.2v4.5c-.5-.1-1-.2-1.6-.2-3.4 0-5.8 2.6-6.5 6.2-.1.7-.2 1.4-.2 2.2V51h-4.8V32.8zM95.4 51L86 14.2h5l4.4 18.6c1.1 4.6 2.1 9.2 2.7 12.7h.1c.6-3.7 1.8-8 3-12.8l4.9-18.5h5l4.5 18.7c1 4.4 2 8.7 2.6 12.6h.1c.8-4 1.8-8.1 3-12.7l4.9-18.5h4.9L120.6 51h-5L111 31.9c-1.1-4.7-1.9-8.3-2.4-12h-.1c-.7 3.7-1.5 7.3-2.8 12L100.4 51h-5zM154.9 37.6c0 9.8-6.8 14-13.2 14-7.2 0-12.7-5.2-12.7-13.6 0-8.8 5.8-14 13.1-14 7.7 0 12.8 5.5 12.8 13.6zm-21 .3c0 5.8 3.3 10.1 8 10.1 4.6 0 8-4.3 8-10.3 0-4.5-2.2-10.1-7.9-10.1s-8.1 5.2-8.1 10.3zM158.2 32.8c0-3.1-.1-5.8-.2-8.2h4.2l.2 5.2h.2c1.2-3.5 4.1-5.8 7.3-5.8.5 0 .9.1 1.4.2v4.5c-.5-.1-1-.2-1.6-.2-3.4 0-5.8 2.6-6.5 6.2-.1.7-.2 1.4-.2 2.2V51h-4.8V32.8zM173.5 12.3h4.8V51h-4.8V12.3zM206.5 12.3v31.9c0 2.3.1 5 .2 6.8h-4.3l-.2-4.6h-.2c-1.5 2.9-4.7 5.2-9 5.2-6.4 0-11.3-5.4-11.3-13.4-.1-8.8 5.4-14.2 11.9-14.2 4 0 6.8 1.9 8 4h.1V12.3h4.8zm-4.8 23.1c0-.6-.1-1.4-.2-2a7 7 0 00-6.9-5.6c-5 0-7.9 4.4-7.9 10.2 0 5.3 2.6 9.8 7.8 9.8 3.2 0 6.2-2.1 7.1-5.7.2-.7.2-1.3.2-2.1v-4.6zM42.8 64c.1 1.6-1.1 2.9-3.1 2.9-1.7 0-2.9-1.3-2.9-2.9 0-1.7 1.3-3 3-3 1.9 0 3 1.3 3 3zm-5.4 33.8V71.4h4.8v26.4h-4.8zM47.5 78.6c0-2.7-.1-5-.2-7.1h4.3l.3 4.4h.1c1.3-2.5 4.4-5 8.8-5 3.7 0 9.4 2.2 9.4 11.2v15.8h-4.8V82.6c0-4.3-1.6-7.8-6.1-7.8-3.2 0-5.6 2.2-6.5 4.9-.2.6-.3 1.4-.3 2.2v15.9h-4.8V78.6zM84 61.6c2.9-.4 6.3-.8 10.1-.8 6.8 0 11.7 1.6 14.9 4.6 3.3 3 5.2 7.3 5.2 13.2 0 6-1.9 10.9-5.3 14.3-3.4 3.4-9.1 5.3-16.3 5.3-3.4 0-6.2-.2-8.6-.4V61.6zm4.8 32.5c1.2.2 3 .3 4.8.3 10.2 0 15.7-5.7 15.7-15.6.1-8.7-4.9-14.2-14.9-14.2-2.5 0-4.3.2-5.6.5v29zM132.1 97.8l-.4-3.3h-.2a9.79 9.79 0 01-8.1 3.9c-5.4 0-8.1-3.8-8.1-7.6 0-6.4 5.7-9.9 15.9-9.8v-.5c0-2.2-.6-6.1-6-6.1-2.5 0-5 .8-6.9 2l-1.1-3.2c2.2-1.4 5.4-2.3 8.7-2.3 8.1 0 10.1 5.5 10.1 10.8v9.9c0 2.3.1 4.5.4 6.3h-4.3zm-.7-13.4c-5.3-.1-11.2.8-11.2 5.9 0 3.1 2.1 4.6 4.5 4.6 3.4 0 5.6-2.2 6.4-4.4.2-.5.3-1 .3-1.5v-4.6zM146.6 63.9v7.6h6.9v3.7h-6.9v14.2c0 3.3.9 5.1 3.6 5.1 1.3 0 2.2-.2 2.8-.3l.2 3.6c-.9.4-2.4.7-4.3.7-2.2 0-4-.7-5.2-2-1.4-1.4-1.9-3.8-1.9-6.9V75.1h-4.1v-3.7h4.1v-6.3l4.8-1.2zM171.4 97.8l-.4-3.3h-.2a9.79 9.79 0 01-8.1 3.9c-5.4 0-8.1-3.8-8.1-7.6 0-6.4 5.7-9.9 15.9-9.8v-.5c0-2.2-.6-6.1-6-6.1-2.5 0-5 .8-6.9 2l-1.1-3.2c2.2-1.4 5.4-2.3 8.7-2.3 8.1 0 10.1 5.5 10.1 10.8v9.9c0 2.3.1 4.5.4 6.3h-4.3zm-.7-13.4c-5.3-.1-11.2.8-11.2 5.9 0 3.1 2.1 4.6 4.5 4.6 3.4 0 5.6-2.2 6.4-4.4.2-.5.3-1 .3-1.5v-4.6z"/></g></g></a></g><a href="https://ourworldindata.org/grapher/taxes-on-income-vs-taxes-on-goods-and-services" target="_blank"><text font-size="27" x="15" y="36.6" fill="#555"><tspan x="15" y="36.6">Taxes on income vs. taxes on goods and services, 2013</tspan></text></a><text font-size="14.4" x="15" y="55.5" fill="#666"><tspan x="15" y="55.52">Total taxes on income (individual and corporate) vs. total taxes on goods and services (including VAT and sales</tspan><tspan x="15" y="71.36">taxes). Each dot on the plot is a different country, and world regions are color-coded.</tspan></text></g><g><g class="AxisBoxView"><g class="HorizontalAxis"><text font-size="12.6" x="302.8" y="554"><tspan x="302.76" y="553.98">Taxes Income in 2013</tspan></text><text x="75.2" y="533.9" fill="#666" text-anchor="middle" font-size="16.2">0%</text><text x="179.2" y="533.9" fill="#666" text-anchor="middle" font-size="16.2">5%</text><text x="283.3" y="533.9" fill="#666" text-anchor="middle" font-size="16.2">10%</text><text x="387.3" y="533.9" fill="#666" text-anchor="middle" font-size="16.2">15%</text><text x="491.3" y="533.9" fill="#666" text-anchor="middle" font-size="16.2">20%</text><text x="595.4" y="533.9" fill="#666" text-anchor="middle" font-size="16.2">25%</text><text x="699.4" y="533.9" fill="#666" text-anchor="middle" font-size="16.2">30%</text></g><g class="VerticalAxis"><text font-size="12.6" x="-400.4" y="25.1" transform="rotate(-90)"><tspan x="-400.42" y="25.08">Taxes goods and services</tspan></text><text x="70.16" y="512.7" fill="#666" dominant-baseline="middle" text-anchor="end" font-size="16.2">0%</text><text x="70.16" y="452.5" fill="#666" dominant-baseline="middle" text-anchor="end" font-size="16.2">5%</text><text x="70.16" y="392.4" fill="#666" dominant-baseline="middle" text-anchor="end" font-size="16.2">10%</text><text x="70.16" y="332.2" fill="#666" dominant-baseline="middle" text-anchor="end" font-size="16.2">15%</text><text x="70.16" y="272" fill="#666" dominant-baseline="middle" text-anchor="end" font-size="16.2">20%</text><text x="70.16" y="211.8" fill="#666" dominant-baseline="middle" text-anchor="end" font-size="16.2">25%</text><text x="70.16" y="151.7" fill="#666" dominant-baseline="middle" text-anchor="end" font-size="16.2">30%</text></g><g class="AxisGridLines"><path stroke="#ccc" d="M75.16 512.7H715"/><path stroke="#ddd" stroke-dasharray="3,2" d="M75.16 452.5H715M75.16 392.4H715M75.16 332.2H715M75.16 272H715M75.16 211.8H715M75.16 151.7H715"/></g><g class="AxisGridLines"><path stroke="#ccc" d="M75.2 512.7V93.9"/><path stroke="#ddd" stroke-dasharray="3,2" d="M179.2 512.7V93.9M283.3 512.7V93.9M387.3 512.7V93.9M491.3 512.7V93.9M595.4 512.7V93.9M699.4 512.7V93.9"/></g></g><g clip-path="url(#a)" class="PointsWithLabels clickable"><path fill="rgba(255,255,255,0)" d="M75.16 93.9H715v418.8H75.16z"/><defs><clipPath id="a"><path d="M65.16 83.9H725v438.8H65.16z"/></clipPath></defs><circle cx="181" cy="395" r="17.84" fill="#d14e5b" opacity=".8"/><circle cx="327" cy="463" r="8.78" fill="#4d824b" opacity=".8"/><circle cx="217" cy="351" r="7.04" fill="#69c487" opacity=".8"/><circle cx="161" cy="448" r="6.76" fill="#d14e5b" opacity=".8"/><circle cx="127" cy="459" r="6.24" fill="#d14e5b" opacity=".8"/><circle cx="240" cy="425" r="6.02" fill="#ffd336" opacity=".8"/><circle cx="273" cy="451" r="5.7" fill="#d14e5b" opacity=".8"/><circle cx="198" cy="399" r="5.51" fill="#4d824b" opacity=".8"/><circle cx="201" cy="463" r="5.09" fill="#d14e5b" opacity=".8"/><circle cx="146" cy="448" r="4.79" fill="#5675c1" opacity=".8"/><circle cx="311" cy="389" r="4.7" fill="#ffd336" opacity=".8"/><circle cx="135" cy="496" r="4.57" fill="#d14e5b" opacity=".8"/><circle cx="198" cy="354" r="4.54" fill="#d14e5b" opacity=".8"/><circle cx="229" cy="404" r="4.41" fill="#d14e5b" opacity=".8"/><circle cx="302" cy="382" r="4.24" fill="#ffd336" opacity=".8"/><circle cx="318" cy="382" r="4.22" fill="#ffd336" opacity=".8"/><circle cx="373" cy="383" r="4.16" fill="#ffd336" opacity=".8"/><circle cx="366" cy="392" r="3.87" fill="#5675c1" opacity=".8"/><circle cx="165" cy="454" r="3.82" fill="#5675c1" opacity=".8"/><circle cx="223" cy="432" r="3.8" fill="#d14e5b" opacity=".8"/><circle cx="275" cy="403" r="3.75" fill="#ffd336" opacity=".8"/><circle cx="255" cy="368" r="3.68" fill="#ffd336" opacity=".8"/><circle cx="238" cy="444" r="3.65" fill="#5675c1" opacity=".8"/><circle cx="180" cy="369" r="3.58" fill="#69c487" opacity=".8"/><circle cx="213" cy="373" r="3.47" fill="#ffd336" opacity=".8"/><circle cx="189" cy="461" r="3.43" fill="#5675c1" opacity=".8"/><circle cx="156" cy="443" r="3.42" fill="#5675c1" opacity=".8"/><circle cx="375" cy="425" r="3.36" fill="#4d824b" opacity=".8"/><circle cx="126" cy="494" r="3.34" fill="#d14e5b" opacity=".8"/><circle cx="269" cy="351" r="3.29" fill="#5675c1" opacity=".8"/><circle cx="152" cy="419" r="3.24" fill="#d14e5b" opacity=".8"/><circle cx="136" cy="422" r="3.19" fill="#69c487" opacity=".8"/><circle cx="227" cy="421" r="3.18" fill="#69c487" opacity=".8"/><circle cx="201" cy="388" r="3.12" fill="#d14e5b" opacity=".8"/><circle cx="322" cy="414" r="3" fill="#5675c1" opacity=".8"/><circle cx="410" cy="425" r="2.92" fill="#a652ba" opacity=".8"/><circle cx="115" cy="484" r="2.9" fill="#5675c1" opacity=".8"/><circle cx="122" cy="434" r="2.85" fill="#d14e5b" opacity=".8"/><circle cx="189" cy="375" r="2.85" fill="#ffd336" opacity=".8"/><circle cx="145" cy="433" r="2.83" fill="#5675c1" opacity=".8"/><circle cx="152" cy="428" r="2.71" fill="#5675c1" opacity=".8"/><circle cx="195" cy="397" r="2.69" fill="#69c487" opacity=".8"/><circle cx="266" cy="384" r="2.66" fill="#ffd336" opacity=".8"/><circle cx="264" cy="418" r="2.64" fill="#5675c1" opacity=".8"/><circle cx="146" cy="433" r="2.6" fill="#4d824b" opacity=".8"/><circle cx="153" cy="428" r="2.58" fill="#69c487" opacity=".8"/><circle cx="122" cy="432" r="2.56" fill="#d14e5b" opacity=".8"/><circle cx="199" cy="447" r="2.55" fill="#5675c1" opacity=".8"/><circle cx="186" cy="355" r="2.51" fill="#5675c1" opacity=".8"/><circle cx="252" cy="371" r="2.5" fill="#5675c1" opacity=".8"/><circle cx="235" cy="359" r="2.41" fill="#ffd336" opacity=".8"/><circle cx="212" cy="271" r="2.4" fill="#4d824b" opacity=".8"/><circle cx="404" cy="383" r="2.38" fill="#ffd336" opacity=".8"/><circle cx="253" cy="400" r="2.38" fill="#5675c1" opacity=".8"/><circle cx="304" cy="365" r="2.38" fill="#ffd336" opacity=".8"/><circle cx="221" cy="372" r="2.37" fill="#ffd336" opacity=".8"/><circle cx="193" cy="408" r="2.36" fill="#69c487" opacity=".8"/><circle cx="138" cy="464" r="2.36" fill="#4d824b" opacity=".8"/><circle cx="155" cy="414" r="2.36" fill="#4d824b" opacity=".8"/><circle cx="208" cy="308" r="2.34" fill="#ffd336" opacity=".8"/><circle cx="191" cy="330" r="2.33" fill="#ffd336" opacity=".8"/><circle cx="143" cy="412" r="2.32" fill="#5675c1" opacity=".8"/><circle cx="384" cy="364" r="2.32" fill="#ffd336" opacity=".8"/><circle cx="133" cy="448" r="2.32" fill="#d14e5b" opacity=".8"/><circle cx="238" cy="354" r="2.32" fill="#ffd336" opacity=".8"/><circle cx="147" cy="419" r="2.29" fill="#5675c1" opacity=".8"/><circle cx="336" cy="374" r="2.26" fill="#ffd336" opacity=".8"/><circle cx="174" cy="404" r="2.25" fill="#4d824b" opacity=".8"/><circle cx="269" cy="378" r="2.23" fill="#d14e5b" opacity=".8"/><circle cx="331" cy="440" r="2.23" fill="#ffd336" opacity=".8"/><circle cx="173" cy="341" r="2.21" fill="#ffd336" opacity=".8"/><circle cx="401" cy="451" r="2.21" fill="#a652ba" opacity=".8"/><circle cx="145" cy="377" r="2.2" fill="#d14e5b" opacity=".8"/><circle cx="127" cy="417" r="2.18" fill="#69c487" opacity=".8"/><circle cx="135" cy="382" r="2.17" fill="#d14e5b" opacity=".8"/><circle cx="128" cy="424" r="2.16" fill="#d14e5b" opacity=".8"/><circle cx="184" cy="417" r="2.15" fill="#4d824b" opacity=".8"/><circle cx="165" cy="475" r="2.15" fill="#5675c1" opacity=".8"/><circle cx="186" cy="405" r="2.14" fill="#4d824b" opacity=".8"/><circle cx="715" cy="334" r="2.11" fill="#ffd336" opacity=".8"/><circle cx="185" cy="375" r="2.11" fill="#d14e5b" opacity=".8"/><circle cx="186" cy="387" r="2.11" fill="#ffd336" opacity=".8"/><circle cx="379" cy="342" r="2.1" fill="#ffd336" opacity=".8"/><circle cx="203" cy="461" r="2.1" fill="#d14e5b" opacity=".8"/><circle cx="399" cy="383" r="2.08" fill="#ffd336" opacity=".8"/><circle cx="151" cy="418" r="2.07" fill="#4d824b" opacity=".8"/><circle cx="101" cy="480" r="2.06" fill="#5675c1" opacity=".8"/><circle cx="319" cy="396" r="2.06" fill="#ffd336" opacity=".8"/><circle cx="451" cy="372" r="2.05" fill="#a652ba" opacity=".8"/><circle cx="225" cy="475" r="2.04" fill="#5675c1" opacity=".8"/><circle cx="153" cy="420" r="2.04" fill="#d14e5b" opacity=".8"/><circle cx="287" cy="353" r="2.04" fill="#d14e5b" opacity=".8"/><circle cx="141" cy="274" r="2.01" fill="#ffd336" opacity=".8"/><circle cx="194" cy="454" r="2.01" fill="#4d824b" opacity=".8"/><circle cx="163" cy="324" r="2" fill="#ffd336" opacity=".8"/><circle cx="192" cy="366" r="1.99" fill="#69c487" opacity=".8"/><circle cx="179" cy="387" r="1.98" fill="#ffd336" opacity=".8"/><circle cx="143" cy="383" r="1.98" fill="#ffd336" opacity=".8"/><circle cx="184" cy="386" r="1.97" fill="#d14e5b" opacity=".8"/><circle cx="97" cy="512" r="1.96" fill="#d14e5b" opacity=".8"/><circle cx="294" cy="382" r="1.95" fill="#4d824b" opacity=".8"/><circle cx="277" cy="434" r="1.93" fill="#5675c1" opacity=".8"/><circle cx="371" cy="394" r="1.92" fill="#5675c1" opacity=".8"/><circle cx="227" cy="389" r="1.92" fill="#ffd336" opacity=".8"/><circle cx="200" cy="465" r="1.91" fill="#5675c1" opacity=".8"/><circle cx="136" cy="378" r="1.91" fill="#ffd336" opacity=".8"/><circle cx="200" cy="343" r="1.91" fill="#ffd336" opacity=".8"/><circle cx="164" cy="442" r="1.9" fill="#5675c1" opacity=".8"/><circle cx="115" cy="477" r="1.88" fill="#5675c1" opacity=".8"/><circle cx="159" cy="472" r="1.88" fill="#5675c1" opacity=".8"/><circle cx="75" cy="512" r="1.87" fill="#d14e5b" opacity=".8"/><circle cx="226" cy="363" r="1.87" fill="#ffd336" opacity=".8"/><circle cx="165" cy="364" r="1.86" fill="#5675c1" opacity=".8"/><circle cx="233" cy="428" r="1.86" fill="#5675c1" opacity=".8"/><circle cx="271" cy="364" r="1.85" fill="#ffd336" opacity=".8"/><circle cx="178" cy="299" r="1.82" fill="#ffd336" opacity=".8"/><circle cx="326" cy="376" r="1.82" fill="#a652ba" opacity=".8"/><circle cx="101" cy="93" r="1.82" fill="#d14e5b" opacity=".8"/><circle cx="337" cy="377" r="1.81" fill="#ffd336" opacity=".8"/><circle cx="184" cy="405" r="1.81" fill="#5675c1" opacity=".8"/><circle cx="333" cy="365" r="1.81" fill="#ffd336" opacity=".8"/><circle cx="416" cy="370" r="1.8" fill="#ffd336" opacity=".8"/><circle cx="90" cy="457" r="1.8" fill="#d14e5b" opacity=".8"/><circle cx="222" cy="338" r="1.8" fill="#4d824b" opacity=".8"/><circle cx="208" cy="450" r="1.79" fill="#4d824b" opacity=".8"/><circle cx="162" cy="499" r="1.79" fill="#5675c1" opacity=".8"/><circle cx="196" cy="428" r="1.79" fill="#4d824b" opacity=".8"/><circle cx="147" cy="427" r="1.79" fill="#4d824b" opacity=".8"/><circle cx="155" cy="379" r="1.79" fill="#a652ba" opacity=".8"/><circle cx="212" cy="512" r="1.79" fill="#a652ba" opacity=".8"/><circle cx="124" cy="410" r="1.79" fill="#4d824b" opacity=".8"/><circle cx="183" cy="387" r="1.79" fill="#5675c1" opacity=".8"/><circle cx="158" cy="362" r="1.78" fill="#4d824b" opacity=".8"/><circle cx="160" cy="387" r="1.78" fill="#4d824b" opacity=".8"/><text x="181" y="376.16" font-size="14.3" font-family="Arial Narrow, Arial, sans-serif" fill="#666">China</text><text x="327" y="453.22" font-size="11.77" font-family="Arial Narrow, Arial, sans-serif" fill="#666">United States</text><text x="217" y="342.96" font-size="11.49" font-family="Arial Narrow, Arial, sans-serif" fill="#666">Brazil</text><text x="161" y="440.24" font-size="11.44" font-family="Arial Narrow, Arial, sans-serif" fill="#666">Pakistan</text><text x="127" y="451.76" font-size="11.37" font-family="Arial Narrow, Arial, sans-serif" fill="#666">Bangladesh</text><text x="240" y="417.98" font-size="11.35" font-family="Arial Narrow, Arial, sans-serif" fill="#666">Russia</text><text x="273" y="444.3" font-size="11.31" font-family="Arial Narrow, Arial, sans-serif" fill="#666">Japan</text><text x="198" y="392.49" font-size="11.29" font-family="Arial Narrow, Arial, sans-serif" fill="#666">Mexico</text><text x="201" y="456.91" font-size="11.24" font-family="Arial Narrow, Arial, sans-serif" fill="#666">Philippines</text><text x="311" y="383.3" font-size="11.2" font-family="Arial Narrow, Arial, sans-serif" fill="#666">Germany</text><text x="135" y="490.43" font-size="11.19" font-family="Arial Narrow, Arial, sans-serif" fill="#666">Iran</text><text x="373" y="377.84" font-size="11.15" font-family="Arial Narrow, Arial, sans-serif" fill="#666">Italy</text><text x="275" y="398.25" font-size="11.11" font-family="Arial Narrow, Arial, sans-serif" fill="#666">Spain</text><text x="255" y="363.32" font-size="11.11" font-family="Arial Narrow, Arial, sans-serif" fill="#666">Ukraine</text><text x="238" y="439.35" font-size="11.11" font-family="Arial Narrow, Arial, sans-serif" fill="#666">Kenya</text><text x="375" y="420.64" font-size="11.08" font-family="Arial Narrow, Arial, sans-serif" fill="#666">Canada</text><text x="269" y="346.71" font-size="11.08" font-family="Arial Narrow, Arial, sans-serif" fill="#666">Morocco</text><text x="152" y="414.76" font-size="11.08" font-family="Arial Narrow, Arial, sans-serif" fill="#666">Nepal</text><text x="122" y="428.44" font-size="11.04" font-family="Arial Narrow, Arial, sans-serif" fill="#666">Cambodia</text><text x="212" y="267.6" font-size="11.03" font-family="Arial Narrow, Arial, sans-serif" fill="#666">Cuba</text><text x="404" y="379.62" font-size="11.03" font-family="Arial Narrow, Arial, sans-serif" fill="#666">Belgium</text><text x="304" y="361.62" font-size="11.03" font-family="Arial Narrow, Arial, sans-serif" fill="#666">Portugal</text><text x="193" y="404.64" font-size="11.03" font-family="Arial Narrow, Arial, sans-serif" fill="#666">Bolivia</text><text x="208" y="304.66" font-size="11.02" font-family="Arial Narrow, Arial, sans-serif" fill="#666">Hungary</text><text x="191" y="326.67" font-size="11.02" font-family="Arial Narrow, Arial, sans-serif" fill="#666">Serbia</text><text x="384" y="360.68" font-size="11.02" font-family="Arial Narrow, Arial, sans-serif" fill="#666">Sweden</text><text x="269" y="374.77" font-size="11.02" font-family="Arial Narrow, Arial, sans-serif" fill="#666">Israel</text><text x="331" y="436.77" font-size="11.02" font-family="Arial Narrow, Arial, sans-serif" fill="#666">Switzerland</text><text x="173" y="337.79" font-size="11.02" font-family="Arial Narrow, Arial, sans-serif" fill="#666">Bulgaria</text><text x="401" y="447.79" font-size="11.02" font-family="Arial Narrow, Arial, sans-serif" fill="#666">Papua New Guinea</text><text x="135" y="378.83" font-size="11.02" font-family="Arial Narrow, Arial, sans-serif" fill="#666">Jordan</text><text x="165" y="471.85" font-size="11.02" font-family="Arial Narrow, Arial, sans-serif" fill="#666">Sierra Leone</text><text x="670.29" y="330.89" font-size="11.01" font-family="Arial Narrow, Arial, sans-serif" fill="#666">Denmark</text><text x="379" y="338.9" font-size="11.01" font-family="Arial Narrow, Arial, sans-serif" fill="#666">Finland</text><text x="451" y="368.95" font-size="11.01" font-family="Arial Narrow, Arial, sans-serif" fill="#666">New Zealand</text><text x="97" y="509.04" font-size="11.01" font-family="Arial Narrow, Arial, sans-serif" fill="#666">Oman</text><text x="277" y="431.07" font-size="11.01" font-family="Arial Narrow, Arial, sans-serif" fill="#666">Namibia</text><text x="371" y="391.08" font-size="11.01" font-family="Arial Narrow, Arial, sans-serif" fill="#666">Lesotho</text><text x="165" y="361.14" font-size="11" font-family="Arial Narrow, Arial, sans-serif" fill="#666">Mauritius</text><text x="101" y="104.9" font-size="11" font-family="Arial Narrow, Arial, sans-serif" fill="#666">Macao</text><text x="162" y="496.21" font-size="11" font-family="Arial Narrow, Arial, sans-serif" fill="#666">Sao Tome and Principe</text><text x="212" y="509.21" font-size="11" font-family="Arial Narrow, Arial, sans-serif" fill="#666">Kiribati</text></g><g class="ScatterColorLegend clickable" cursor="pointer"><g class="legendMark">,<path fill="#5675c1" d="M735 96.9h6v6h-6z"/>,<text font-size="12.6" x="746" y="104"><tspan x="746" y="103.98">Africa</tspan></text></g><g class="legendMark">,<path fill="#d14e5b" d="M735 114.5h6v6h-6z"/>,<text font-size="12.6" x="746" y="121.6"><tspan x="746" y="121.58">Asia</tspan></text></g><g class="legendMark">,<path fill="#ffd336" d="M735 132.1h6v6h-6z"/>,<text font-size="12.6" x="746" y="139.2"><tspan x="746" y="139.18">Europe</tspan></text></g><g class="legendMark">,<path fill="#4d824b" d="M735 149.7h6v6h-6z"/>,<text font-size="12.6" x="746" y="156.8"><tspan x="746" y="156.78">North America</tspan></text></g><g class="legendMark">,<path fill="#a652ba" d="M735 167.3h6v6h-6z"/>,<text font-size="12.6" x="746" y="174.4"><tspan x="746" y="174.38">Oceania</tspan></text></g><g class="legendMark">,<path fill="#69c487" d="M735 184.9h6v6h-6z"/>,<text font-size="12.6" x="746" y="192"><tspan x="746" y="191.98">South America</tspan></text></g></g></g><g class="SourcesFooter" fill="#777"><g class="clickable" fill="#777"><text font-size="12.6" x="15" y="581.6"><tspan x="15" y="581.58">Source: ICTD</tspan></text></g><text font-size="12.6" x="597.6" y="581.6"><tspan x="597.62" y="581.58"><a target="_blank" href="https://ourworldindata.org/taxation/" fill="#777">OurWorldInData.org/taxation/</a> • <a href="http://creativecommons.org/licenses/by-sa/4.0/deed.en_US" target="_blank" fill="#777">CC BY-SA</a></tspan></text></g></g></svg>