<svg xmlns="http://www.w3.org/2000/svg" version="1.1" style="background-color:#fff;-webkit-font-smoothing:antialiased" width="850" height="600" font-family="'Helvetica Neue',Helvetica,Arial,sans-serif" font-size="18" text-rendering="optimizeLegibility"><g class="ChartTab"><g class="HeaderView"><g opacity=".8" transform="matrix(.27 0 0 .27 778 15)"><a xmlns:xlink="http://www.w3.org/1999/xlink" xlink:href="https://ourworldindata.org" target="_blank"><g><path fill="#1B2543" d="M0 0h211.2v130.1H0z"/><path fill="#E63912" d="M0 112.2h211.2v17.9H0z"/><g><path fill="none" d="M1.2 12.3h210.2v99.2H1.2z"/><path fill="#FFF" d="M37.8 32.2c0 12.7-7.7 19.4-17.1 19.4-9.7 0-16.6-7.5-16.6-18.7 0-11.7 7.3-19.3 17.1-19.3 10.1.1 16.6 7.7 16.6 18.6zm-28.6.6c0 7.9 4.3 14.9 11.8 14.9 7.5 0 11.8-6.9 11.8-15.3 0-7.3-3.8-14.9-11.8-14.9-7.9 0-11.8 7.3-11.8 15.3zM62.7 43.8c0 2.7.1 5.1.2 7.2h-4.3l-.3-4.3h-.1c-1.3 2.1-4 4.9-8.8 4.9-4.2 0-9.1-2.3-9.1-11.6V24.6h4.8v14.6c0 5 1.5 8.4 5.9 8.4 3.2 0 5.5-2.2 6.3-4.4.3-.7.4-1.6.4-2.5V24.6h4.8v19.2zM67.3 32.8c0-3.1-.1-5.8-.2-8.2h4.2l.2 5.2h.2c1.2-3.5 4.1-5.8 7.3-5.8.5 0 .9.1 1.4.2v4.5c-.5-.1-1-.2-1.6-.2-3.4 0-5.8 2.6-6.5 6.2-.1.7-.2 1.4-.2 2.2V51h-4.8V32.8zM95.4 51L86 14.2h5l4.4 18.6c1.1 4.6 2.1 9.2 2.7 12.7h.1c.6-3.7 1.8-8 3-12.8l4.9-18.5h5l4.5 18.7c1 4.4 2 8.7 2.6 12.6h.1c.8-4 1.8-8.1 3-12.7l4.9-18.5h4.9L120.6 51h-5L111 31.9c-1.1-4.7-1.9-8.3-2.4-12h-.1c-.7 3.7-1.5 7.3-2.8 12L100.4 51h-5zM154.9 37.6c0 9.8-6.8 14-13.2 14-7.2 0-12.7-5.2-12.7-13.6 0-8.8 5.8-14 13.1-14 7.7 0 12.8 5.5 12.8 13.6zm-21 .3c0 5.8 3.3 10.1 8 10.1 4.6 0 8-4.3 8-10.3 0-4.5-2.2-10.1-7.9-10.1s-8.1 5.2-8.1 10.3zM158.2 32.8c0-3.1-.1-5.8-.2-8.2h4.2l.2 5.2h.2c1.2-3.5 4.1-5.8 7.3-5.8.5 0 .9.1 1.4.2v4.5c-.5-.1-1-.2-1.6-.2-3.4 0-5.8 2.6-6.5 6.2-.1.7-.2 1.4-.2 2.2V51h-4.8V32.8zM173.5 12.3h4.8V51h-4.8V12.3zM206.5 12.3v31.9c0 2.3.1 5 .2 6.8h-4.3l-.2-4.6h-.2c-1.5 2.9-4.7 5.2-9 5.2-6.4 0-11.3-5.4-11.3-13.4-.1-8.8 5.4-14.2 11.9-14.2 4 0 6.8 1.9 8 4h.1V12.3h4.8zm-4.8 23.1c0-.6-.1-1.4-.2-2a7 7 0 00-6.9-5.6c-5 0-7.9 4.4-7.9 10.2 0 5.3 2.6 9.8 7.8 9.8 3.2 0 6.2-2.1 7.1-5.7.2-.7.2-1.3.2-2.1v-4.6zM42.8 64c.1 1.6-1.1 2.9-3.1 2.9-1.7 0-2.9-1.3-2.9-2.9 0-1.7 1.3-3 3-3 1.9 0 3 1.3 3 3zm-5.4 33.8V71.4h4.8v26.4h-4.8zM47.5 78.6c0-2.7-.1-5-.2-7.1h4.3l.3 4.4h.1c1.3-2.5 4.4-5 8.8-5 3.7 0 9.4 2.2 9.4 11.2v15.8h-4.8V82.6c0-4.3-1.6-7.8-6.1-7.8-3.2 0-5.6 2.2-6.5 4.9-.2.6-.3 1.4-.3 2.2v15.9h-4.8V78.6zM84 61.6c2.9-.4 6.3-.8 10.1-.8 6.8 0 11.7 1.6 14.9 4.6 3.3 3 5.2 7.3 5.2 13.2 0 6-1.9 10.9-5.3 14.3-3.4 3.4-9.1 5.3-16.3 5.3-3.4 0-6.2-.2-8.6-.4V61.6zm4.8 32.5c1.2.2 3 .3 4.8.3 10.2 0 15.7-5.7 15.7-15.6.1-8.7-4.9-14.2-14.9-14.2-2.5 0-4.3.2-5.6.5v29zM132.1 97.8l-.4-3.3h-.2a9.79 9.79 0 01-8.1 3.9c-5.4 0-8.1-3.8-8.1-7.6 0-6.4 5.7-9.9 15.9-9.8v-.5c0-2.2-.6-6.1-6-6.1-2.5 0-5 .8-6.9 2l-1.1-3.2c2.2-1.4 5.4-2.3 8.7-2.3 8.1 0 10.1 5.5 10.1 10.8v9.9c0 2.3.1 4.5.4 6.3h-4.3zm-.7-13.4c-5.3-.1-11.2.8-11.2 5.9 0 3.1 2.1 4.6 4.5 4.6 3.4 0 5.6-2.2 6.4-4.4.2-.5.3-1 .3-1.5v-4.6zM146.6 63.9v7.6h6.9v3.7h-6.9v14.2c0 3.3.9 5.1 3.6 5.1 1.3 0 2.2-.2 2.8-.3l.2 3.6c-.9.4-2.4.7-4.3.7-2.2 0-4-.7-5.2-2-1.4-1.4-1.9-3.8-1.9-6.9V75.1h-4.1v-3.7h4.1v-6.3l4.8-1.2zM171.4 97.8l-.4-3.3h-.2a9.79 9.79 0 01-8.1 3.9c-5.4 0-8.1-3.8-8.1-7.6 0-6.4 5.7-9.9 15.9-9.8v-.5c0-2.2-.6-6.1-6-6.1-2.5 0-5 .8-6.9 2l-1.1-3.2c2.2-1.4 5.4-2.3 8.7-2.3 8.1 0 10.1 5.5 10.1 10.8v9.9c0 2.3.1 4.5.4 6.3h-4.3zm-.7-13.4c-5.3-.1-11.2.8-11.2 5.9 0 3.1 2.1 4.6 4.5 4.6 3.4 0 5.6-2.2 6.4-4.4.2-.5.3-1 .3-1.5v-4.6z"/></g></g></a></g><a href="https://ourworldindata.org/grapher/terrorist-attacks-by-target-type" target="_blank"><text font-size="25.2" x="15" y="35.2" fill="#555"><tspan x="15" y="35.16">Terrorist attacks by target type, World</tspan></text></a><text font-size="14.4" x="15" y="53.7" fill="#666"><tspan x="15" y="53.72">The number of terrorist attacks categorized by their general target type. Further details on each of these categories is</tspan><tspan x="15" y="69.56">provided in the &quot;Sources&quot; tab.</tspan></text></g><g class="StackedBarChart"><defs><clipPath id="a"><path d="M69.9 92.1H651v443.2H69.9z"/></clipPath></defs><g class="VerticalAxis" fill="#666" dominant-baseline="middle" text-anchor="end" font-size="16.2"><text x="64.9" y="535.3">0</text><text x="64.9" y="482.7">2,000</text><text x="64.9" y="430.1">4,000</text><text x="64.9" y="377.5">6,000</text><text x="64.9" y="324.9">8,000</text><text x="64.9" y="272.4">10,000</text><text x="64.9" y="219.8">12,000</text><text x="64.9" y="167.2">14,000</text><text x="64.9" y="114.6">16,000</text></g><g class="AxisGridLines"><path stroke="#ccc" d="M69.9 535.3H651"/><path stroke="#ddd" stroke-dasharray="3,2" d="M69.9 482.7H651M69.9 430.1H651M69.9 377.5H651M69.9 324.9H651M69.9 272.4H651M69.9 219.8H651M69.9 167.2H651M69.9 114.6H651"/></g><g fill="#666" font-size="16.2"><text x="59.17" y="553.26">1970</text><text x="108.63" y="553.26">1974</text><text x="158.08" y="553.26">1978</text><text x="207.54" y="553.26">1982</text><text x="256.99" y="553.26">1986</text><text x="306.45" y="553.26">1990</text><text x="355.9" y="553.26">1995</text><text x="405.36" y="553.26">1999</text><text x="454.82" y="553.26">2003</text><text x="504.27" y="553.26">2007</text><text x="553.73" y="553.26">2011</text><text x="627.91" y="553.26">2017</text></g><g clip-path="url(#a)"><g class="World_9-segments" fill="#3360a9"><path opacity=".8" d="M72.37 533h9.89v2.3h-9.89zM84.73 532.6h9.89v2.7h-9.89zM97.1 531.5h9.89v3.8H97.1zM109.46 532.9h9.89v2.4h-9.89zM121.82 533.7h9.89v1.6h-9.89zM134.19 534h9.89v1.3h-9.89zM146.55 532.9h9.89v2.4h-9.89zM158.92 533.1h9.89v2.2h-9.89zM171.28 532.1h9.89v3.2h-9.89zM183.64 529.4h9.89v5.9h-9.89zM196.01 528.1h9.89v7.2h-9.89zM208.37 522.3h9.89v13h-9.89zM220.74 524.2h9.89v11.1h-9.89zM233.1 514.4h9.89v20.9h-9.89zM245.46 517.8h9.89v17.5h-9.89zM257.83 519.2h9.89v16.1h-9.89zM270.19 523.1h9.89v12.2h-9.89zM282.56 522.3h9.89v13h-9.89zM294.92 519.8h9.89v15.5h-9.89zM307.28 517.8h9.89v17.5h-9.89zM319.65 523.4h9.89v11.9h-9.89zM332.01 516.4h9.89v18.9h-9.89zM344.37 520.7h9.89v14.6h-9.89zM356.74 525.7h9.89v9.6h-9.89zM369.1 529.2h9.89v6.1h-9.89zM381.47 530.1h9.89v5.2h-9.89zM393.83 531.1h9.89v4.2h-9.89zM406.19 532.9h9.89v2.4h-9.89zM418.56 531.1h9.89v4.2h-9.89zM430.92 529.8h9.89v5.5h-9.89zM443.29 531.9h9.89v3.4h-9.89zM455.65 530.6h9.89v4.7h-9.89zM468.01 529.4h9.89v5.9h-9.89zM480.38 530.5h9.89v4.8h-9.89zM492.74 527.7h9.89v7.6h-9.89zM505.11 529.1H515v6.2h-9.89zM517.47 525.9h9.89v9.4h-9.89zM529.83 528.4h9.89v6.9h-9.89zM542.2 531.9h9.89v3.4h-9.89zM554.56 530.4h9.89v4.9h-9.89zM566.93 526.2h9.89v9.1h-9.89zM579.29 488h9.89v47.3h-9.89zM591.65 474h9.89v61.3h-9.89zM604.02 437.1h9.89v98.2h-9.89zM616.38 457.3h9.89v78h-9.89zM628.74 466.9h9.89v68.4h-9.89zM641.11 473.5H651v61.8h-9.89z"/></g><g class="World_8-segments" fill="#2F7AA2"><path opacity=".8" d="M84.73 532.5h9.89v.1h-9.89zM109.46 532.8h9.89v.1h-9.89zM146.55 532.7h9.89v.2h-9.89zM183.64 529.1h9.89v.3h-9.89zM208.37 522.2h9.89v.1h-9.89zM220.74 524.1h9.89v.1h-9.89zM233.1 514.3h9.89v.1h-9.89zM245.46 517h9.89v.8h-9.89zM257.83 518.8h9.89v.4h-9.89zM270.19 523h9.89v.1h-9.89zM282.56 522h9.89v.3h-9.89zM294.92 519.5h9.89v.3h-9.89zM307.28 517.4h9.89v.4h-9.89zM319.65 523.3h9.89v.1h-9.89zM332.01 516h9.89v.4h-9.89zM344.37 520.1h9.89v.6h-9.89zM356.74 525.2h9.89v.5h-9.89zM369.1 529h9.89v.2h-9.89zM381.47 529.8h9.89v.3h-9.89zM393.83 530.9h9.89v.2h-9.89zM406.19 532.8h9.89v.1h-9.89zM418.56 531h9.89v.1h-9.89zM430.92 529.6h9.89v.2h-9.89zM443.29 531.8h9.89v.1h-9.89zM455.65 530.5h9.89v.1h-9.89zM480.38 530.4h9.89v.1h-9.89zM492.74 527.6h9.89v.1h-9.89zM517.47 525.8h9.89v.1h-9.89zM529.83 528h9.89v.4h-9.89zM542.2 531.6h9.89v.3h-9.89zM554.56 530.2h9.89v.2h-9.89zM566.93 526.1h9.89v.1h-9.89zM591.65 473.7h9.89v.3h-9.89zM604.02 436.7h9.89v.4h-9.89zM616.38 457.1h9.89v.2h-9.89zM628.74 466.1h9.89v.8h-9.89zM641.11 473.1H651v.4h-9.89z"/></g><g class="World_7-segments" fill="#2a939b"><path opacity=".8" d="M72.37 532.8h9.89v.2h-9.89zM84.73 532.2h9.89v.3h-9.89zM97.1 531.3h9.89v.2H97.1zM109.46 532.7h9.89v.1h-9.89zM121.82 533.4h9.89v.3h-9.89zM134.19 533.5h9.89v.5h-9.89zM146.55 532h9.89v.7h-9.89zM158.92 531.7h9.89v1.4h-9.89zM171.28 530.6h9.89v1.5h-9.89zM183.64 526.9h9.89v2.2h-9.89zM196.01 525h9.89v3.1h-9.89zM208.37 520.6h9.89v1.6h-9.89zM220.74 522.5h9.89v1.6h-9.89zM233.1 512.7h9.89v1.6h-9.89zM245.46 515.2h9.89v1.8h-9.89zM257.83 517.4h9.89v1.4h-9.89zM270.19 522h9.89v1h-9.89zM282.56 519.7h9.89v2.3h-9.89zM294.92 517.7h9.89v1.8h-9.89zM307.28 515.1h9.89v2.3h-9.89zM319.65 521.9h9.89v1.4h-9.89zM332.01 514h9.89v2h-9.89zM344.37 517.6h9.89v2.5h-9.89zM356.74 523.2h9.89v2h-9.89zM369.1 526.9h9.89v2.1h-9.89zM381.47 528.3h9.89v1.5h-9.89zM393.83 529h9.89v1.9h-9.89zM406.19 532.6h9.89v.2h-9.89zM418.56 530.1h9.89v.9h-9.89zM430.92 528.5h9.89v1.1h-9.89zM443.29 530.6h9.89v1.2h-9.89zM455.65 529.9h9.89v.6h-9.89zM468.01 529.1h9.89v.3h-9.89zM480.38 529.7h9.89v.7h-9.89zM492.74 527h9.89v.6h-9.89zM505.11 528H515v1.1h-9.89zM517.47 524.6h9.89v1.2h-9.89zM529.83 526.4h9.89v1.6h-9.89zM542.2 530.6h9.89v1h-9.89zM554.56 528.8h9.89v1.4h-9.89zM566.93 525.2h9.89v.9h-9.89zM579.29 485.3h9.89v2.7h-9.89zM591.65 468.9h9.89v4.8h-9.89zM604.02 430.6h9.89v6.1h-9.89zM616.38 452.4h9.89v4.7h-9.89zM628.74 462.3h9.89v3.8h-9.89zM641.11 469.8H651v3.3h-9.89z"/></g><g class="World_6-segments" fill="#886365"><path opacity=".8" d="M72.37 530.7h9.89v2.1h-9.89zM84.73 531h9.89v1.2h-9.89zM97.1 530.6h9.89v.7H97.1zM109.46 532.2h9.89v.5h-9.89zM121.82 532.5h9.89v.9h-9.89zM134.19 531.9h9.89v1.6h-9.89zM146.55 529.3h9.89v2.7h-9.89zM158.92 527h9.89v4.7h-9.89zM171.28 524.2h9.89v6.4h-9.89zM183.64 514h9.89v12.9h-9.89zM196.01 515h9.89v10h-9.89zM208.37 512.9h9.89v7.7h-9.89zM220.74 516.2h9.89v6.3h-9.89zM233.1 505.8h9.89v6.9h-9.89zM245.46 507.1h9.89v8.1h-9.89zM257.83 509h9.89v8.4h-9.89zM270.19 512.5h9.89v9.5h-9.89zM282.56 506.2h9.89v13.5h-9.89zM294.92 501.3h9.89v16.4h-9.89zM307.28 497.7h9.89v17.4h-9.89zM319.65 508.4h9.89v13.5h-9.89zM332.01 500.2h9.89V514h-9.89zM344.37 501.4h9.89v16.2h-9.89zM356.74 510.7h9.89v12.5h-9.89zM369.1 516.7h9.89v10.2h-9.89zM381.47 516.1h9.89v12.2h-9.89zM393.83 515.6h9.89V529h-9.89zM406.19 529.4h9.89v3.2h-9.89zM418.56 524.8h9.89v5.3h-9.89zM430.92 521.3h9.89v7.2h-9.89zM443.29 524h9.89v6.6h-9.89zM455.65 525.2h9.89v4.7h-9.89zM468.01 524.3h9.89v4.8h-9.89zM480.38 525.4h9.89v4.3h-9.89zM492.74 518.3h9.89v8.7h-9.89zM505.11 518.2H515v9.8h-9.89zM517.47 515.8h9.89v8.8h-9.89zM529.83 507.5h9.89v18.9h-9.89zM542.2 510.5h9.89v20.1h-9.89zM554.56 504.7h9.89v24.1h-9.89zM566.93 502.3h9.89v22.9h-9.89zM579.29 462.8h9.89v22.5h-9.89zM591.65 434.7h9.89v34.2h-9.89zM604.02 389h9.89v41.6h-9.89zM616.38 422h9.89v30.4h-9.89zM628.74 435.6h9.89v26.7h-9.89zM641.11 445.1H651v24.7h-9.89z"/></g><g class="World_5-segments" fill="#B74B4A"><path opacity=".8" d="M72.37 529.3h9.89v1.4h-9.89zM84.73 530.1h9.89v.9h-9.89zM97.1 528.6h9.89v2H97.1zM109.46 530.7h9.89v1.5h-9.89zM121.82 531h9.89v1.5h-9.89zM134.19 530h9.89v1.9h-9.89zM146.55 526.4h9.89v2.9h-9.89zM158.92 525.4h9.89v1.6h-9.89zM171.28 522.6h9.89v1.6h-9.89zM183.64 511.6h9.89v2.4h-9.89zM196.01 511.6h9.89v3.4h-9.89zM208.37 509.7h9.89v3.2h-9.89zM220.74 513.3h9.89v2.9h-9.89zM233.1 503.6h9.89v2.2h-9.89zM245.46 504.6h9.89v2.5h-9.89zM257.83 507.3h9.89v1.7h-9.89zM270.19 510.5h9.89v2h-9.89zM282.56 505h9.89v1.2h-9.89zM294.92 499.8h9.89v1.5h-9.89zM307.28 495.9h9.89v1.8h-9.89zM319.65 506.9h9.89v1.5h-9.89zM332.01 496.1h9.89v4.1h-9.89zM344.37 496.4h9.89v5h-9.89zM356.74 507.6h9.89v3.1h-9.89zM369.1 515.1h9.89v1.6h-9.89zM381.47 514.4h9.89v1.7h-9.89zM393.83 514.2h9.89v1.4h-9.89zM406.19 528.8h9.89v.6h-9.89zM418.56 523.5h9.89v1.3h-9.89zM430.92 519.8h9.89v1.5h-9.89zM443.29 523.2h9.89v.8h-9.89zM455.65 524.5h9.89v.7h-9.89zM468.01 523.1h9.89v1.2h-9.89zM480.38 524.5h9.89v.9h-9.89zM492.74 517.3h9.89v1h-9.89zM505.11 517.1H515v1.1h-9.89zM517.47 514.8h9.89v1h-9.89zM529.83 505h9.89v2.5h-9.89zM542.2 508.9h9.89v1.6h-9.89zM554.56 502.7h9.89v2h-9.89zM566.93 501.1h9.89v1.2h-9.89zM579.29 460.3h9.89v2.5h-9.89zM591.65 431.8h9.89v2.9h-9.89zM604.02 384.8h9.89v4.2h-9.89zM616.38 418h9.89v4h-9.89zM628.74 433.2h9.89v2.4h-9.89zM641.11 442.6H651v2.5h-9.89z"/></g><g class="World_4-segments" fill="#e6332e"><path opacity=".8" d="M72.37 529.2h9.89v.1h-9.89zM171.28 522.3h9.89v.3h-9.89zM196.01 511.5h9.89v.1h-9.89zM208.37 509.5h9.89v.2h-9.89zM220.74 513h9.89v.3h-9.89zM233.1 503.4h9.89v.2h-9.89zM245.46 504.3h9.89v.3h-9.89zM257.83 506.8h9.89v.5h-9.89zM270.19 510h9.89v.5h-9.89zM282.56 504.9h9.89v.1h-9.89zM294.92 499.7h9.89v.1h-9.89zM307.28 495.6h9.89v.3h-9.89zM319.65 506.5h9.89v.4h-9.89zM332.01 495.9h9.89v.2h-9.89zM344.37 496.1h9.89v.3h-9.89zM356.74 507.5h9.89v.1h-9.89zM381.47 514.3h9.89v.1h-9.89zM406.19 528.7h9.89v.1h-9.89zM418.56 523.4h9.89v.1h-9.89zM443.29 523.1h9.89v.1h-9.89zM468.01 523h9.89v.1h-9.89zM492.74 517.1h9.89v.2h-9.89zM505.11 516.9H515v.2h-9.89zM517.47 514.7h9.89v.1h-9.89zM529.83 504.6h9.89v.4h-9.89zM542.2 508.7h9.89v.2h-9.89zM554.56 502.4h9.89v.3h-9.89zM566.93 500.9h9.89v.2h-9.89zM579.29 459.9h9.89v.4h-9.89zM591.65 431.6h9.89v.2h-9.89zM604.02 384.3h9.89v.5h-9.89zM616.38 417.5h9.89v.5h-9.89zM628.74 432.9h9.89v.3h-9.89zM641.11 442.3H651v.3h-9.89z"/></g><g class="World_3-segments" fill="#DF302D"><path opacity=".8" d="M72.37 527.6h9.89v1.6h-9.89zM84.73 529h9.89v1.1h-9.89zM97.1 528.5h9.89v.1H97.1zM109.46 530.5h9.89v.2h-9.89zM121.82 530.9h9.89v.1h-9.89zM134.19 529.8h9.89v.2h-9.89zM146.55 526h9.89v.4h-9.89zM158.92 524.6h9.89v.8h-9.89zM171.28 521.4h9.89v.9h-9.89zM183.64 509.9h9.89v1.7h-9.89zM196.01 508.5h9.89v3h-9.89zM208.37 508h9.89v1.5h-9.89zM220.74 511.7h9.89v1.3h-9.89zM233.1 502.4h9.89v1h-9.89zM245.46 503h9.89v1.3h-9.89zM257.83 505.6h9.89v1.2h-9.89zM270.19 508.9h9.89v1.1h-9.89zM282.56 503.9h9.89v1h-9.89zM294.92 498.3h9.89v1.4h-9.89zM307.28 492.8h9.89v2.8h-9.89zM319.65 504.5h9.89v2h-9.89zM332.01 494.6h9.89v1.3h-9.89zM344.37 493.8h9.89v2.3h-9.89zM356.74 505.5h9.89v2h-9.89zM369.1 513.8h9.89v1.3h-9.89zM381.47 513.4h9.89v.9h-9.89zM393.83 512.2h9.89v2h-9.89zM406.19 528.4h9.89v.3h-9.89zM418.56 522.4h9.89v1h-9.89zM430.92 519.3h9.89v.5h-9.89zM443.29 521.9h9.89v1.2h-9.89zM455.65 523.8h9.89v.7h-9.89zM468.01 522.4h9.89v.6h-9.89zM480.38 523.9h9.89v.6h-9.89zM492.74 515.6h9.89v1.5h-9.89zM505.11 514.6H515v2.3h-9.89zM517.47 511.6h9.89v3.1h-9.89zM529.83 500.4h9.89v4.2h-9.89zM542.2 503h9.89v5.7h-9.89zM554.56 495.5h9.89v6.9h-9.89zM566.93 495.1h9.89v5.8h-9.89zM579.29 451.3h9.89v8.6h-9.89zM591.65 422.4h9.89v9.2h-9.89zM604.02 375.2h9.89v9.1h-9.89zM616.38 409.8h9.89v7.7h-9.89zM628.74 427.3h9.89v5.6h-9.89zM641.11 438.4H651v3.9h-9.89z"/></g><g class="World_21-segments" fill="#D82D2B"><path opacity=".8" d="M72.37 527.5h9.89v.1h-9.89zM134.19 529.7h9.89v.1h-9.89zM146.55 525.7h9.89v.3h-9.89zM158.92 524.3h9.89v.3h-9.89zM171.28 521h9.89v.4h-9.89zM183.64 509.6h9.89v.3h-9.89zM196.01 507.9h9.89v.6h-9.89zM208.37 507.8h9.89v.2h-9.89zM220.74 511.5h9.89v.2h-9.89zM233.1 502.3h9.89v.1h-9.89zM245.46 502.5h9.89v.5h-9.89zM270.19 508.8h9.89v.1h-9.89zM282.56 503.5h9.89v.4h-9.89zM294.92 496.7h9.89v1.6h-9.89zM307.28 490.9h9.89v1.9h-9.89zM319.65 502.9h9.89v1.6h-9.89zM332.01 492.6h9.89v2h-9.89zM344.37 491.7h9.89v2.1h-9.89zM356.74 502.9h9.89v2.6h-9.89zM369.1 512.7h9.89v1.1h-9.89zM381.47 511.9h9.89v1.5h-9.89zM393.83 511.3h9.89v.9h-9.89zM406.19 528.3h9.89v.1h-9.89zM418.56 522h9.89v.4h-9.89zM430.92 519h9.89v.3h-9.89zM443.29 521.6h9.89v.3h-9.89zM455.65 523.7h9.89v.1h-9.89zM468.01 522.1h9.89v.3h-9.89zM480.38 523.6h9.89v.3h-9.89zM492.74 515.4h9.89v.2h-9.89zM505.11 514.3H515v.3h-9.89zM517.47 511.1h9.89v.5h-9.89zM529.83 499.4h9.89v1h-9.89zM542.2 501.9h9.89v1.1h-9.89zM554.56 494.3h9.89v1.2h-9.89zM566.93 494.4h9.89v.7h-9.89zM579.29 449h9.89v2.3h-9.89zM591.65 417.2h9.89v5.2h-9.89zM604.02 371.5h9.89v3.7h-9.89zM616.38 403.1h9.89v6.7h-9.89zM628.74 425.2h9.89v2.1h-9.89zM641.11 434.5H651v3.9h-9.89z"/></g><g class="World_20-segments" fill="#D12A2A"><path opacity=".8" d="M72.37 527.1h9.89v.4h-9.89zM84.73 528.7h9.89v.3h-9.89zM97.1 528.3h9.89v.2H97.1zM109.46 530.4h9.89v.1h-9.89zM121.82 530.8h9.89v.1h-9.89zM134.19 529.2h9.89v.5h-9.89zM146.55 525.4h9.89v.3h-9.89zM158.92 523.2h9.89v1.1h-9.89zM171.28 520.1h9.89v.9h-9.89zM183.64 509h9.89v.6h-9.89zM196.01 506.9h9.89v1h-9.89zM208.37 503.5h9.89v4.3h-9.89zM220.74 506.1h9.89v5.4h-9.89zM233.1 498.4h9.89v3.9h-9.89zM245.46 493h9.89v9.5h-9.89zM257.83 496.1h9.89v9.5h-9.89zM270.19 503h9.89v5.8h-9.89zM282.56 496.8h9.89v6.7h-9.89zM294.92 489.1h9.89v7.6h-9.89zM307.28 484.1h9.89v6.8h-9.89zM319.65 493h9.89v9.9h-9.89zM332.01 482.4h9.89v10.2h-9.89zM344.37 487.5h9.89v4.2h-9.89zM356.74 501.2h9.89v1.7h-9.89zM369.1 511.3h9.89v1.4h-9.89zM381.47 509.6h9.89v2.3h-9.89zM393.83 509.9h9.89v1.4h-9.89zM406.19 527.9h9.89v.4h-9.89zM418.56 521.4h9.89v.6h-9.89zM430.92 518.4h9.89v.6h-9.89zM443.29 521h9.89v.6h-9.89zM455.65 523.3h9.89v.4h-9.89zM468.01 520.8h9.89v1.3h-9.89zM480.38 522.8h9.89v.8h-9.89zM492.74 514.1h9.89v1.3h-9.89zM505.11 512.4H515v1.9h-9.89zM517.47 509.7h9.89v1.4h-9.89zM529.83 496.2h9.89v3.2h-9.89zM542.2 498.3h9.89v3.6h-9.89zM554.56 492.1h9.89v2.2h-9.89zM566.93 490.2h9.89v4.2h-9.89zM579.29 444.8h9.89v4.2h-9.89zM591.65 410.9h9.89v6.3h-9.89zM604.02 362.6h9.89v8.9h-9.89zM616.38 396.3h9.89v6.8h-9.89zM628.74 416h9.89v9.2h-9.89zM641.11 430.4H651v4.1h-9.89z"/></g><g class="World_2-segments" fill="#ca2628"><path opacity=".8" d="M72.37 523.5h9.89v3.6h-9.89zM84.73 525.2h9.89v3.5h-9.89zM97.1 526.3h9.89v2H97.1zM109.46 528.2h9.89v2.2h-9.89zM121.82 526h9.89v4.8h-9.89zM134.19 523.9h9.89v5.3h-9.89zM146.55 519.7h9.89v5.7h-9.89zM158.92 512.4h9.89v10.8h-9.89zM171.28 509h9.89v11.1h-9.89zM183.64 493.2h9.89V509h-9.89zM196.01 491.5h9.89v15.4h-9.89zM208.37 493.1h9.89v10.4h-9.89zM220.74 496h9.89v10.1h-9.89zM233.1 488.1h9.89v10.3h-9.89zM245.46 479.6h9.89V493h-9.89zM257.83 485.2h9.89v10.9h-9.89zM270.19 489.3h9.89V503h-9.89zM282.56 483.6h9.89v13.2h-9.89zM294.92 475.9h9.89v13.2h-9.89zM307.28 467.4h9.89v16.7h-9.89zM319.65 479.2h9.89V493h-9.89zM332.01 458.3h9.89v24.1h-9.89zM344.37 465.6h9.89v21.9h-9.89zM356.74 486.9h9.89v14.3h-9.89zM369.1 500.7h9.89v10.6h-9.89zM381.47 498.4h9.89v11.2h-9.89zM393.83 498.4h9.89v11.5h-9.89zM406.19 524.5h9.89v3.4h-9.89zM418.56 516.6h9.89v4.8h-9.89zM430.92 513h9.89v5.4h-9.89zM443.29 515.8h9.89v5.2h-9.89zM455.65 519.2h9.89v4.1h-9.89zM468.01 517h9.89v3.8h-9.89zM480.38 519.5h9.89v3.3h-9.89zM492.74 509.9h9.89v4.2h-9.89zM505.11 505.9H515v6.5h-9.89zM517.47 503.4h9.89v6.3h-9.89zM529.83 483h9.89v13.2h-9.89zM542.2 484.1h9.89v14.2h-9.89zM554.56 478.2h9.89v13.9h-9.89zM566.93 476.7h9.89v13.5h-9.89zM579.29 429.9h9.89v14.9h-9.89zM591.65 387.2h9.89v23.7h-9.89zM604.02 333.5h9.89v29.1h-9.89zM616.38 366.5h9.89v29.8h-9.89zM628.74 391.7h9.89V416h-9.89zM641.11 410.1H651v20.3h-9.89z"/></g><g class="World_19-segments" fill="#D8522E"><path opacity=".8" d="M72.37 523.4h9.89v.1h-9.89zM134.19 523.8h9.89v.1h-9.89zM146.55 519.6h9.89v.1h-9.89zM158.92 512.2h9.89v.2h-9.89zM171.28 508.8h9.89v.2h-9.89zM183.64 491h9.89v2.2h-9.89zM196.01 490.8h9.89v.7h-9.89zM208.37 492.6h9.89v.5h-9.89zM220.74 494.6h9.89v1.4h-9.89zM233.1 487.7h9.89v.4h-9.89zM245.46 479h9.89v.6h-9.89zM257.83 484.6h9.89v.6h-9.89zM270.19 488.7h9.89v.6h-9.89zM282.56 483.3h9.89v.3h-9.89zM294.92 475.8h9.89v.1h-9.89zM307.28 467.1h9.89v.3h-9.89zM319.65 479.1h9.89v.1h-9.89zM332.01 458.2h9.89v.1h-9.89zM344.37 464.8h9.89v.8h-9.89zM356.74 485.9h9.89v1h-9.89zM369.1 498.1h9.89v2.6h-9.89zM381.47 493.9h9.89v4.5h-9.89zM393.83 493.9h9.89v4.5h-9.89zM406.19 524.4h9.89v.1h-9.89zM418.56 516.2h9.89v.4h-9.89zM430.92 512.7h9.89v.3h-9.89zM443.29 515.6h9.89v.2h-9.89zM455.65 518.7h9.89v.5h-9.89zM468.01 516.6h9.89v.4h-9.89zM480.38 519h9.89v.5h-9.89zM492.74 509.7h9.89v.2h-9.89zM505.11 505.2H515v.7h-9.89zM517.47 502.9h9.89v.5h-9.89zM529.83 481.2h9.89v1.8h-9.89zM542.2 482.7h9.89v1.4h-9.89zM554.56 477.6h9.89v.6h-9.89zM566.93 474.6h9.89v2.1h-9.89zM579.29 421.4h9.89v8.5h-9.89zM591.65 375.6h9.89v11.6h-9.89zM604.02 309.1h9.89v24.4h-9.89zM616.38 341.4h9.89v25.1h-9.89zM628.74 363.5h9.89v28.2h-9.89zM641.11 383.9H651v26.2h-9.89z"/></g><g class="World_18-segments" fill="#E57E33"><path opacity=".8" d="M84.73 525.1h9.89v.1h-9.89zM97.1 526.2h9.89v.1H97.1zM121.82 525.8h9.89v.2h-9.89zM134.19 523.1h9.89v.7h-9.89zM146.55 519.2h9.89v.4h-9.89zM158.92 511.2h9.89v1h-9.89zM171.28 507.7h9.89v1.1h-9.89zM183.64 488.5h9.89v2.5h-9.89zM196.01 487.8h9.89v3h-9.89zM208.37 489.1h9.89v3.5h-9.89zM220.74 491.3h9.89v3.3h-9.89zM233.1 484h9.89v3.7h-9.89zM245.46 472.5h9.89v6.5h-9.89zM257.83 480.5h9.89v4.1h-9.89zM270.19 484.5h9.89v4.2h-9.89zM282.56 478h9.89v5.3h-9.89zM294.92 470.2h9.89v5.6h-9.89zM307.28 461.2h9.89v5.9h-9.89zM319.65 472.5h9.89v6.6h-9.89zM332.01 452.6h9.89v5.6h-9.89zM344.37 456.9h9.89v7.9h-9.89zM356.74 481.8h9.89v4.1h-9.89zM369.1 491.9h9.89v6.2h-9.89zM381.47 488h9.89v5.9h-9.89zM393.83 489.1h9.89v4.8h-9.89zM406.19 522.8h9.89v1.6h-9.89zM418.56 514.7h9.89v1.5h-9.89zM430.92 510.6h9.89v2.1h-9.89zM443.29 513.1h9.89v2.5h-9.89zM455.65 516.2h9.89v2.5h-9.89zM468.01 514.9h9.89v1.7h-9.89zM480.38 517.7h9.89v1.3h-9.89zM492.74 507.8h9.89v1.9h-9.89zM505.11 502.2H515v3h-9.89zM517.47 499.1h9.89v3.8h-9.89zM529.83 475.3h9.89v5.9h-9.89zM542.2 476.6h9.89v6.1h-9.89zM554.56 471.9h9.89v5.7h-9.89zM566.93 468.9h9.89v5.7h-9.89zM579.29 416.2h9.89v5.2h-9.89zM591.65 369.2h9.89v6.4h-9.89zM604.02 300h9.89v9.1h-9.89zM616.38 331.1h9.89v10.3h-9.89zM628.74 357.6h9.89v5.9h-9.89zM641.11 380.3H651v3.6h-9.89z"/></g><g class="World_17-segments" fill="#F2AA39"><path opacity=".8" d="M72.37 523.3h9.89v.1h-9.89zM84.73 525h9.89v.1h-9.89zM97.1 526.1h9.89v.1H97.1zM134.19 523h9.89v.1h-9.89zM146.55 519.1h9.89v.1h-9.89zM158.92 511.1h9.89v.1h-9.89zM171.28 507.6h9.89v.1h-9.89zM183.64 488h9.89v.5h-9.89zM196.01 487.6h9.89v.2h-9.89zM208.37 488.9h9.89v.2h-9.89zM220.74 491.1h9.89v.2h-9.89zM233.1 483.9h9.89v.1h-9.89zM245.46 472.4h9.89v.1h-9.89zM257.83 480.4h9.89v.1h-9.89zM270.19 484.3h9.89v.2h-9.89zM282.56 477.8h9.89v.2h-9.89zM294.92 470.1h9.89v.1h-9.89zM307.28 460.9h9.89v.3h-9.89zM319.65 472.3h9.89v.2h-9.89zM332.01 452h9.89v.6h-9.89zM344.37 456.4h9.89v.5h-9.89zM356.74 480.9h9.89v.9h-9.89zM369.1 491.2h9.89v.7h-9.89zM381.47 487.4h9.89v.6h-9.89zM393.83 488.6h9.89v.5h-9.89zM406.19 522.6h9.89v.2h-9.89zM418.56 514.6h9.89v.1h-9.89zM430.92 510.2h9.89v.4h-9.89zM443.29 512.7h9.89v.4h-9.89zM455.65 516h9.89v.2h-9.89zM468.01 514.6h9.89v.3h-9.89zM480.38 517.5h9.89v.2h-9.89zM492.74 507.5h9.89v.3h-9.89zM505.11 501.9H515v.3h-9.89zM517.47 499h9.89v.1h-9.89zM529.83 475h9.89v.3h-9.89zM542.2 476.3h9.89v.3h-9.89zM554.56 471.7h9.89v.2h-9.89zM579.29 415.7h9.89v.5h-9.89zM591.65 368.7h9.89v.5h-9.89zM604.02 299.8h9.89v.2h-9.89zM616.38 331h9.89v.1h-9.89zM628.74 357.4h9.89v.2h-9.89zM641.11 380H651v.3h-9.89z"/></g><g class="World_16-segments" fill="#ffd53e"><path opacity=".8" d="M72.37 523.2h9.89v.1h-9.89zM97.1 525.8h9.89v.3H97.1zM109.46 527.7h9.89v.5h-9.89zM121.82 525.4h9.89v.4h-9.89zM134.19 522.2h9.89v.8h-9.89zM146.55 518.8h9.89v.3h-9.89zM158.92 510.8h9.89v.3h-9.89zM171.28 507.1h9.89v.5h-9.89zM183.64 487.6h9.89v.4h-9.89zM196.01 486.9h9.89v.7h-9.89zM208.37 488.2h9.89v.7h-9.89zM220.74 490.4h9.89v.7h-9.89zM233.1 483.6h9.89v.3h-9.89zM245.46 471.7h9.89v.7h-9.89zM257.83 480h9.89v.4h-9.89zM270.19 483.8h9.89v.5h-9.89zM282.56 476.9h9.89v.9h-9.89zM294.92 469.4h9.89v.7h-9.89zM307.28 460h9.89v.9h-9.89zM319.65 471.5h9.89v.8h-9.89zM332.01 450.7h9.89v1.3h-9.89zM344.37 454.7h9.89v1.7h-9.89zM356.74 479.4h9.89v1.5h-9.89zM369.1 490.1h9.89v1.1h-9.89zM381.47 486h9.89v1.4h-9.89zM393.83 487.3h9.89v1.3h-9.89zM406.19 522.5h9.89v.1h-9.89zM418.56 513.9h9.89v.7h-9.89zM430.92 510h9.89v.2h-9.89zM443.29 512.4h9.89v.3h-9.89zM455.65 515.8h9.89v.2h-9.89zM468.01 514.4h9.89v.2h-9.89zM480.38 517.4h9.89v.1h-9.89zM492.74 507h9.89v.5h-9.89zM505.11 501.3H515v.6h-9.89zM517.47 498.1h9.89v.9h-9.89zM529.83 471h9.89v4h-9.89zM542.2 474h9.89v2.3h-9.89zM554.56 468.4h9.89v3.3h-9.89zM566.93 465h9.89v3.9h-9.89zM579.29 410.8h9.89v4.9h-9.89zM591.65 361.2h9.89v7.5h-9.89zM604.02 290.2h9.89v9.6h-9.89zM616.38 322.6h9.89v8.4h-9.89zM628.74 349h9.89v8.4h-9.89zM641.11 375.4H651v4.6h-9.89z"/></g><g class="World_14-segments" fill="#CFD164"><path opacity=".8" d="M72.37 522.9h9.89v.3h-9.89zM84.73 524.9h9.89v.1h-9.89zM109.46 527.6h9.89v.1h-9.89zM121.82 525.2h9.89v.2h-9.89zM134.19 522h9.89v.2h-9.89zM146.55 518.6h9.89v.2h-9.89zM158.92 510.6h9.89v.2h-9.89zM171.28 506.7h9.89v.4h-9.89zM183.64 486.5h9.89v1.1h-9.89zM196.01 485.6h9.89v1.3h-9.89zM208.37 487.4h9.89v.8h-9.89zM220.74 489.4h9.89v1h-9.89zM233.1 482.4h9.89v1.2h-9.89zM245.46 470.1h9.89v1.6h-9.89zM257.83 479.2h9.89v.8h-9.89zM270.19 482.7h9.89v1.1h-9.89zM282.56 475.7h9.89v1.2h-9.89zM294.92 467.9h9.89v1.5h-9.89zM307.28 458.3h9.89v1.7h-9.89zM319.65 468.7h9.89v2.8h-9.89zM332.01 447.8h9.89v2.9h-9.89zM344.37 451.2h9.89v3.5h-9.89zM356.74 477h9.89v2.4h-9.89zM369.1 488.1h9.89v2h-9.89zM381.47 483.7h9.89v2.3h-9.89zM393.83 484.6h9.89v2.7h-9.89zM406.19 521.4h9.89v1.1h-9.89zM418.56 512.8h9.89v1.1h-9.89zM430.92 507.4h9.89v2.6h-9.89zM443.29 511.2h9.89v1.2h-9.89zM455.65 514.7h9.89v1.1h-9.89zM468.01 513.6h9.89v.8h-9.89zM480.38 516.2h9.89v1.2h-9.89zM492.74 504.7h9.89v2.3h-9.89zM505.11 498.9H515v2.4h-9.89zM517.47 495.8h9.89v2.3h-9.89zM529.83 468.1h9.89v2.9h-9.89zM542.2 470.2h9.89v3.8h-9.89zM554.56 465.1h9.89v3.3h-9.89zM566.93 461.4h9.89v3.6h-9.89zM579.29 404.1h9.89v6.7h-9.89zM591.65 350.4h9.89v10.8h-9.89zM604.02 279h9.89v11.2h-9.89zM616.38 312h9.89v10.6h-9.89zM628.74 341.2h9.89v7.8h-9.89zM641.11 369.2H651v6.2h-9.89z"/></g><g class="World_13-segments" fill="#B7CF77"><path opacity=".8" d="M72.37 521.4h9.89v1.5h-9.89zM84.73 524.3h9.89v.6h-9.89zM97.1 521.8h9.89v4H97.1zM109.46 524.3h9.89v3.3h-9.89zM121.82 521.8h9.89v3.4h-9.89zM134.19 518.4h9.89v3.6h-9.89zM146.55 514.4h9.89v4.2h-9.89zM158.92 504.7h9.89v5.9h-9.89zM171.28 502.9h9.89v3.8h-9.89zM183.64 476.3h9.89v10.2h-9.89zM196.01 474.3h9.89v11.3h-9.89zM208.37 476.9h9.89v10.5h-9.89zM220.74 477.4h9.89v12h-9.89zM233.1 469.7h9.89v12.7h-9.89zM245.46 454.1h9.89v16h-9.89zM257.83 469.1h9.89v10.1h-9.89zM270.19 469.8h9.89v12.9h-9.89zM282.56 462.1h9.89v13.6h-9.89zM294.92 451.6h9.89v16.3h-9.89zM307.28 438h9.89v20.3h-9.89zM319.65 448.7h9.89v20h-9.89zM332.01 429.7h9.89v18.1h-9.89zM344.37 426.2h9.89v25h-9.89zM356.74 457h9.89v20h-9.89zM369.1 467h9.89v21.1h-9.89zM381.47 465.9h9.89v17.8h-9.89zM393.83 461.2h9.89v23.4h-9.89zM406.19 513.9h9.89v7.5h-9.89zM418.56 502.6h9.89v10.2h-9.89zM430.92 493h9.89v14.4h-9.89zM443.29 493.4h9.89v17.8h-9.89zM455.65 504.2h9.89v10.5h-9.89zM468.01 506.7h9.89v6.9h-9.89zM480.38 510h9.89v6.2h-9.89zM492.74 493h9.89v11.7h-9.89zM505.11 476.4H515v22.5h-9.89zM517.47 470.3h9.89v25.5h-9.89zM529.83 425.7h9.89v42.4h-9.89zM542.2 426.2h9.89v44h-9.89zM554.56 426.2h9.89v38.9h-9.89zM566.93 423.7h9.89v37.7h-9.89zM579.29 359.3h9.89v44.8h-9.89zM591.65 284.9h9.89v65.5h-9.89zM604.02 165.1h9.89V279h-9.89zM616.38 202h9.89v110h-9.89zM628.74 226.3h9.89v114.9h-9.89zM641.11 291.8H651v77.4h-9.89z"/></g><g class="World_12-segments" fill="#9ecc8a"><path opacity=".8" d="M72.37 519.3h9.89v2.1h-9.89zM84.73 523.3h9.89v1h-9.89zM97.1 521.1h9.89v.7H97.1zM109.46 523.5h9.89v.8h-9.89zM121.82 520.7h9.89v1.1h-9.89zM134.19 516.6h9.89v1.8h-9.89zM146.55 512.2h9.89v2.2h-9.89zM158.92 501.9h9.89v2.8h-9.89zM171.28 496.9h9.89v6h-9.89zM183.64 468.1h9.89v8.2h-9.89zM196.01 467.4h9.89v6.9h-9.89zM208.37 470h9.89v6.9h-9.89zM220.74 471.2h9.89v6.2h-9.89zM233.1 461.9h9.89v7.8h-9.89zM245.46 446.1h9.89v8h-9.89zM257.83 461h9.89v8.1h-9.89zM270.19 461.9h9.89v7.9h-9.89zM282.56 453.3h9.89v8.8h-9.89zM294.92 439.1h9.89v12.5h-9.89zM307.28 423.8h9.89V438h-9.89zM319.65 434.7h9.89v14h-9.89zM332.01 415.2h9.89v14.5h-9.89zM344.37 405.8h9.89v20.4h-9.89zM356.74 447h9.89v10h-9.89zM369.1 456.6h9.89V467h-9.89zM381.47 456.7h9.89v9.2h-9.89zM393.83 453.2h9.89v8h-9.89zM406.19 511.3h9.89v2.6h-9.89zM418.56 499.7h9.89v2.9h-9.89zM430.92 488.8h9.89v4.2h-9.89zM443.29 486.6h9.89v6.8h-9.89zM455.65 501.1h9.89v3.1h-9.89zM468.01 502.9h9.89v3.8h-9.89zM480.38 505.4h9.89v4.6h-9.89zM492.74 483.2h9.89v9.8h-9.89zM505.11 464H515v12.4h-9.89zM517.47 451.5h9.89v18.8h-9.89zM529.83 413.3h9.89v12.4h-9.89zM542.2 414.8h9.89v11.4h-9.89zM554.56 411.5h9.89v14.7h-9.89zM566.93 404.5h9.89v19.2h-9.89zM579.29 314.5h9.89v44.8h-9.89zM591.65 222.8h9.89v62.1h-9.89zM604.02 96.3h9.89v68.8h-9.89zM616.38 146.1h9.89V202h-9.89zM628.74 181.7h9.89v44.6h-9.89zM641.11 251.3H651v40.5h-9.89z"/></g><g class="World_11-segments" fill="#84BF78"><path opacity=".8" d="M72.37 519.2h9.89v.1h-9.89zM109.46 523.4h9.89v.1h-9.89zM134.19 516.5h9.89v.1h-9.89zM158.92 501.8h9.89v.1h-9.89zM282.56 453.2h9.89v.1h-9.89zM307.28 423.7h9.89v.1h-9.89zM356.74 446.9h9.89v.1h-9.89zM492.74 483.1h9.89v.1h-9.89zM517.47 451.2h9.89v.3h-9.89zM529.83 413h9.89v.3h-9.89zM542.2 414.6h9.89v.2h-9.89zM554.56 411.3h9.89v.2h-9.89zM579.29 314.3h9.89v.2h-9.89zM591.65 222.4h9.89v.4h-9.89zM604.02 95.8h9.89v.5h-9.89zM616.38 145.6h9.89v.5h-9.89zM628.74 181.3h9.89v.4h-9.89zM641.11 251.1H651v.2h-9.89z"/></g><g class="World_10-segments" fill="#69B265"><path opacity=".8" d="M72.37 519h9.89v.2h-9.89zM97.1 520.9h9.89v.2H97.1zM134.19 516.4h9.89v.1h-9.89zM171.28 496.8h9.89v.1h-9.89zM183.64 467.9h9.89v.2h-9.89zM196.01 467.2h9.89v.2h-9.89zM208.37 469.9h9.89v.1h-9.89zM220.74 471.1h9.89v.1h-9.89zM233.1 461.7h9.89v.2h-9.89zM245.46 445.8h9.89v.3h-9.89zM257.83 460.8h9.89v.2h-9.89zM270.19 461.7h9.89v.2h-9.89zM282.56 452.9h9.89v.3h-9.89zM294.92 438.7h9.89v.4h-9.89zM307.28 423.4h9.89v.3h-9.89zM319.65 434.5h9.89v.2h-9.89zM332.01 414.6h9.89v.6h-9.89zM344.37 405.1h9.89v.7h-9.89zM356.74 446.1h9.89v.8h-9.89zM369.1 455.8h9.89v.8h-9.89zM381.47 456h9.89v.7h-9.89zM393.83 452.4h9.89v.8h-9.89zM406.19 511.2h9.89v.1h-9.89zM418.56 499.3h9.89v.4h-9.89zM430.92 488.4h9.89v.4h-9.89zM443.29 486.1h9.89v.5h-9.89zM455.65 500.9h9.89v.2h-9.89zM468.01 502.4h9.89v.5h-9.89zM480.38 504.9h9.89v.5h-9.89zM492.74 482.8h9.89v.3h-9.89zM505.11 463.4H515v.6h-9.89zM517.47 450.7h9.89v.5h-9.89zM529.83 411.4h9.89v1.6h-9.89zM542.2 413.3h9.89v1.3h-9.89zM554.56 410.4h9.89v.9h-9.89zM566.93 403.5h9.89v1h-9.89zM579.29 313.2h9.89v1.1h-9.89zM591.65 220.9h9.89v1.5h-9.89zM604.02 93.7h9.89v2.1h-9.89zM616.38 144h9.89v1.6h-9.89zM628.74 180h9.89v1.3h-9.89zM641.11 249.8H651v1.3h-9.89z"/></g><g class="World_1-segments" fill="#4FA552"><path opacity=".8" d="M72.37 518.4h9.89v.6h-9.89zM84.73 523h9.89v.3h-9.89zM97.1 520.4h9.89v.5H97.1zM109.46 522.9h9.89v.5h-9.89zM121.82 520.1h9.89v.6h-9.89zM134.19 515.9h9.89v.5h-9.89zM146.55 511.1h9.89v1.1h-9.89zM158.92 501h9.89v.8h-9.89zM171.28 495.8h9.89v1h-9.89zM183.64 466.1h9.89v1.8h-9.89zM196.01 465.5h9.89v1.7h-9.89zM208.37 468.1h9.89v1.8h-9.89zM220.74 470h9.89v1.1h-9.89zM233.1 460.5h9.89v1.2h-9.89zM245.46 444.8h9.89v1h-9.89zM257.83 459.4h9.89v1.4h-9.89zM270.19 460.8h9.89v.9h-9.89zM282.56 452.4h9.89v.5h-9.89zM294.92 438.1h9.89v.6h-9.89zM307.28 422.6h9.89v.8h-9.89zM319.65 433.9h9.89v.6h-9.89zM332.01 412.9h9.89v1.7h-9.89zM344.37 403.5h9.89v1.6h-9.89zM356.74 445.2h9.89v.9h-9.89zM369.1 455.1h9.89v.7h-9.89zM381.47 455.5h9.89v.5h-9.89zM393.83 451.8h9.89v.6h-9.89zM406.19 511h9.89v.2h-9.89zM418.56 499h9.89v.3h-9.89zM430.92 488h9.89v.4h-9.89zM443.29 485.5h9.89v.6h-9.89zM455.65 500.4h9.89v.5h-9.89zM468.01 502.1h9.89v.3h-9.89zM480.38 504.7h9.89v.2h-9.89zM492.74 482.7h9.89v.1h-9.89zM505.11 463.2H515v.2h-9.89zM517.47 450.3h9.89v.4h-9.89zM529.83 410.7h9.89v.7h-9.89zM542.2 412.7h9.89v.6h-9.89zM554.56 409.8h9.89v.6h-9.89zM566.93 403h9.89v.5h-9.89zM579.29 312.7h9.89v.5h-9.89zM591.65 220.3h9.89v.6h-9.89zM604.02 92.1h9.89v1.6h-9.89zM616.38 143.1h9.89v.9h-9.89zM628.74 179.3h9.89v.7h-9.89zM641.11 249.5H651v.3h-9.89z"/></g><g class="World_0-segments" fill="#34983f"><path opacity=".8" d="M158.92 500.9h9.89v.1h-9.89zM171.28 495.6h9.89v.2h-9.89zM220.74 469.8h9.89v.2h-9.89zM233.1 460.4h9.89v.1h-9.89zM245.46 444.1h9.89v.7h-9.89zM257.83 459h9.89v.4h-9.89zM270.19 460.5h9.89v.3h-9.89zM282.56 452.2h9.89v.2h-9.89zM294.92 437.9h9.89v.2h-9.89zM307.28 422.4h9.89v.2h-9.89zM319.65 433.7h9.89v.2h-9.89zM332.01 412.6h9.89v.3h-9.89zM344.37 403h9.89v.5h-9.89zM356.74 444.7h9.89v.5h-9.89zM369.1 454.5h9.89v.6h-9.89zM381.47 455.2h9.89v.3h-9.89zM393.83 451.3h9.89v.5h-9.89zM406.19 510.8h9.89v.2h-9.89zM418.56 498.8h9.89v.2h-9.89zM430.92 487.8h9.89v.2h-9.89zM492.74 482.6h9.89v.1h-9.89zM542.2 412.6h9.89v.1h-9.89zM579.29 312.6h9.89v.1h-9.89zM616.38 143h9.89v.1h-9.89zM628.74 179.2h9.89v.1h-9.89z"/></g></g><g class="ScatterColorLegend clickable" cursor="pointer"><g class="legendMark">,<path fill="#34983f" d="M671 95.1h6v6h-6z"/>,<text font-size="12.6" x="682" y="102.2"><tspan x="682" y="102.18">Abortion related</tspan></text></g><g class="legendMark">,<path fill="#4FA552" d="M671 112.7h6v6h-6z"/>,<text font-size="12.6" x="682" y="119.8"><tspan x="682" y="119.78">Airports &amp; Aircraft</tspan></text></g><g class="legendMark">,<path fill="#69B265" d="M671 130.3h6v6h-6z"/>,<text font-size="12.6" x="682" y="137.4"><tspan x="682" y="137.38">NGO</tspan></text></g><g class="legendMark">,<path fill="#84BF78" d="M671 147.9h6v6h-6z"/>,<text font-size="12.6" x="682" y="155"><tspan x="682" y="154.98">Other</tspan></text></g><g class="legendMark">,<path fill="#9ecc8a" d="M671 165.5h6v6h-6z"/>,<text font-size="12.6" x="682" y="172.6"><tspan x="682" y="172.58">Police</tspan></text></g><g class="legendMark">,<path fill="#B7CF77" d="M671 183.1h6v6h-6z"/>,<text font-size="12.6" x="682" y="190.2"><tspan x="682" y="190.18">Private Citizens &amp; Property</tspan></text></g><g class="legendMark">,<path fill="#CFD164" d="M671 200.7h6v6h-6z"/>,<text font-size="12.6" x="682" y="207.8"><tspan x="682" y="207.78">Religious Figures/Institutions</tspan></text></g><g class="legendMark">,<path fill="#E7D351" d="M671 218.3h6v6h-6z"/>,<text font-size="12.6" x="682" y="225.4"><tspan x="682" y="225.38">Telecommunications</tspan></text></g><g class="legendMark">,<path fill="#ffd53e" d="M671 235.9h6v6h-6z"/>,<text font-size="12.6" x="682" y="243"><tspan x="682" y="242.98">Terrorists/Non-State Militia</tspan></text></g><g class="legendMark">,<path fill="#F2AA39" d="M671 253.5h6v6h-6z"/>,<text font-size="12.6" x="682" y="260.6"><tspan x="682" y="260.58">Tourists</tspan></text></g><g class="legendMark">,<path fill="#E57E33" d="M671 271.1h6v6h-6z"/>,<text font-size="12.6" x="682" y="278.2"><tspan x="682" y="278.18">Transportation</tspan></text></g><g class="legendMark">,<path fill="#D8522E" d="M671 288.7h6v6h-6z"/>,<text font-size="12.6" x="682" y="295.8"><tspan x="682" y="295.78">Unknown</tspan></text></g><g class="legendMark">,<path fill="#ca2628" d="M671 306.3h6v6h-6z"/>,<text font-size="12.6" x="682" y="313.4"><tspan x="682" y="313.38">Business</tspan></text></g><g class="legendMark">,<path fill="#D12A2A" d="M671 323.9h6v6h-6z"/>,<text font-size="12.6" x="682" y="331"><tspan x="682" y="330.98">Utilities</tspan></text></g><g class="legendMark">,<path fill="#D82D2B" d="M671 341.5h6v6h-6z"/>,<text font-size="12.6" x="682" y="348.6"><tspan x="682" y="348.58">Violent Political Party</tspan></text></g><g class="legendMark">,<path fill="#DF302D" d="M671 359.1h6v6h-6z"/>,<text font-size="12.6" x="682" y="366.2"><tspan x="682" y="366.18">Educational Institution</tspan></text></g><g class="legendMark">,<path fill="#e6332e" d="M671 376.7h6v6h-6z"/>,<text font-size="12.6" x="682" y="383.8"><tspan x="682" y="383.78">Food or Water Supply</tspan></text></g><g class="legendMark">,<path fill="#B74B4A" d="M671 394.3h6v6h-6z"/>,<text font-size="12.6" x="682" y="401.4"><tspan x="682" y="401.38">Government (Diplomatic)</tspan></text></g><g class="legendMark">,<path fill="#886365" d="M671 411.9h6v6h-6z"/>,<text font-size="12.6" x="682" y="419"><tspan x="682" y="418.98">Government (General)</tspan></text></g><g class="legendMark">,<path fill="#2a939b" d="M671 429.5h6v6h-6z"/>,<text font-size="12.6" x="682" y="436.6"><tspan x="682" y="436.58">Journalists &amp; Media</tspan></text></g><g class="legendMark">,<path fill="#2F7AA2" d="M671 447.1h6v6h-6z"/>,<text font-size="12.6" x="682" y="454.2"><tspan x="682" y="454.18">Maritime</tspan></text></g><g class="legendMark">,<path fill="#3360a9" d="M671 464.7h6v6h-6z"/>,<text font-size="12.6" x="682" y="471.8"><tspan x="682" y="471.78">Military</tspan></text></g></g></g><g class="SourcesFooter" fill="#777"><g class="clickable" fill="#777"><text font-size="12.6" x="15" y="581.6"><tspan x="15" y="581.58">Source: Global Terrorism Database (2018)</tspan></text></g><text font-size="12.6" x="775.4" y="581.6"><tspan x="775.4" y="581.58"><a class="cclogo" href="http://creativecommons.org/licenses/by-sa/4.0/deed.en_US" target="_blank" fill="#777">CC BY-SA</a></tspan></text></g></g></svg>