<svg xmlns="http://www.w3.org/2000/svg" version="1.1" style="background-color:#fff;-webkit-font-smoothing:antialiased" width="850" height="600" font-family="'Helvetica Neue',Helvetica,Arial,sans-serif" font-size="18" text-rendering="optimizeLegibility"><g class="ChartTab"><g class="HeaderView"><g opacity=".8" transform="matrix(.27 0 0 .27 778 15)"><a xmlns:xlink="http://www.w3.org/1999/xlink" xlink:href="https://ourworldindata.org" target="_blank"><g><path fill="#1B2543" d="M0 0h211.2v130.1H0z"/><path fill="#E63912" d="M0 112.2h211.2v17.9H0z"/><g><path fill="none" d="M1.2 12.3h210.2v99.2H1.2z"/><path fill="#FFF" d="M37.8 32.2c0 12.7-7.7 19.4-17.1 19.4-9.7 0-16.6-7.5-16.6-18.7 0-11.7 7.3-19.3 17.1-19.3 10.1.1 16.6 7.7 16.6 18.6zm-28.6.6c0 7.9 4.3 14.9 11.8 14.9 7.5 0 11.8-6.9 11.8-15.3 0-7.3-3.8-14.9-11.8-14.9-7.9 0-11.8 7.3-11.8 15.3zM62.7 43.8c0 2.7.1 5.1.2 7.2h-4.3l-.3-4.3h-.1c-1.3 2.1-4 4.9-8.8 4.9-4.2 0-9.1-2.3-9.1-11.6V24.6h4.8v14.6c0 5 1.5 8.4 5.9 8.4 3.2 0 5.5-2.2 6.3-4.4.3-.7.4-1.6.4-2.5V24.6h4.8v19.2zM67.3 32.8c0-3.1-.1-5.8-.2-8.2h4.2l.2 5.2h.2c1.2-3.5 4.1-5.8 7.3-5.8.5 0 .9.1 1.4.2v4.5c-.5-.1-1-.2-1.6-.2-3.4 0-5.8 2.6-6.5 6.2-.1.7-.2 1.4-.2 2.2V51h-4.8V32.8zM95.4 51L86 14.2h5l4.4 18.6c1.1 4.6 2.1 9.2 2.7 12.7h.1c.6-3.7 1.8-8 3-12.8l4.9-18.5h5l4.5 18.7c1 4.4 2 8.7 2.6 12.6h.1c.8-4 1.8-8.1 3-12.7l4.9-18.5h4.9L120.6 51h-5L111 31.9c-1.1-4.7-1.9-8.3-2.4-12h-.1c-.7 3.7-1.5 7.3-2.8 12L100.4 51h-5zM154.9 37.6c0 9.8-6.8 14-13.2 14-7.2 0-12.7-5.2-12.7-13.6 0-8.8 5.8-14 13.1-14 7.7 0 12.8 5.5 12.8 13.6zm-21 .3c0 5.8 3.3 10.1 8 10.1 4.6 0 8-4.3 8-10.3 0-4.5-2.2-10.1-7.9-10.1s-8.1 5.2-8.1 10.3zM158.2 32.8c0-3.1-.1-5.8-.2-8.2h4.2l.2 5.2h.2c1.2-3.5 4.1-5.8 7.3-5.8.5 0 .9.1 1.4.2v4.5c-.5-.1-1-.2-1.6-.2-3.4 0-5.8 2.6-6.5 6.2-.1.7-.2 1.4-.2 2.2V51h-4.8V32.8zM173.5 12.3h4.8V51h-4.8V12.3zM206.5 12.3v31.9c0 2.3.1 5 .2 6.8h-4.3l-.2-4.6h-.2c-1.5 2.9-4.7 5.2-9 5.2-6.4 0-11.3-5.4-11.3-13.4-.1-8.8 5.4-14.2 11.9-14.2 4 0 6.8 1.9 8 4h.1V12.3h4.8zm-4.8 23.1c0-.6-.1-1.4-.2-2a7 7 0 00-6.9-5.6c-5 0-7.9 4.4-7.9 10.2 0 5.3 2.6 9.8 7.8 9.8 3.2 0 6.2-2.1 7.1-5.7.2-.7.2-1.3.2-2.1v-4.6zM42.8 64c.1 1.6-1.1 2.9-3.1 2.9-1.7 0-2.9-1.3-2.9-2.9 0-1.7 1.3-3 3-3 1.9 0 3 1.3 3 3zm-5.4 33.8V71.4h4.8v26.4h-4.8zM47.5 78.6c0-2.7-.1-5-.2-7.1h4.3l.3 4.4h.1c1.3-2.5 4.4-5 8.8-5 3.7 0 9.4 2.2 9.4 11.2v15.8h-4.8V82.6c0-4.3-1.6-7.8-6.1-7.8-3.2 0-5.6 2.2-6.5 4.9-.2.6-.3 1.4-.3 2.2v15.9h-4.8V78.6zM84 61.6c2.9-.4 6.3-.8 10.1-.8 6.8 0 11.7 1.6 14.9 4.6 3.3 3 5.2 7.3 5.2 13.2 0 6-1.9 10.9-5.3 14.3-3.4 3.4-9.1 5.3-16.3 5.3-3.4 0-6.2-.2-8.6-.4V61.6zm4.8 32.5c1.2.2 3 .3 4.8.3 10.2 0 15.7-5.7 15.7-15.6.1-8.7-4.9-14.2-14.9-14.2-2.5 0-4.3.2-5.6.5v29zM132.1 97.8l-.4-3.3h-.2a9.79 9.79 0 01-8.1 3.9c-5.4 0-8.1-3.8-8.1-7.6 0-6.4 5.7-9.9 15.9-9.8v-.5c0-2.2-.6-6.1-6-6.1-2.5 0-5 .8-6.9 2l-1.1-3.2c2.2-1.4 5.4-2.3 8.7-2.3 8.1 0 10.1 5.5 10.1 10.8v9.9c0 2.3.1 4.5.4 6.3h-4.3zm-.7-13.4c-5.3-.1-11.2.8-11.2 5.9 0 3.1 2.1 4.6 4.5 4.6 3.4 0 5.6-2.2 6.4-4.4.2-.5.3-1 .3-1.5v-4.6zM146.6 63.9v7.6h6.9v3.7h-6.9v14.2c0 3.3.9 5.1 3.6 5.1 1.3 0 2.2-.2 2.8-.3l.2 3.6c-.9.4-2.4.7-4.3.7-2.2 0-4-.7-5.2-2-1.4-1.4-1.9-3.8-1.9-6.9V75.1h-4.1v-3.7h4.1v-6.3l4.8-1.2zM171.4 97.8l-.4-3.3h-.2a9.79 9.79 0 01-8.1 3.9c-5.4 0-8.1-3.8-8.1-7.6 0-6.4 5.7-9.9 15.9-9.8v-.5c0-2.2-.6-6.1-6-6.1-2.5 0-5 .8-6.9 2l-1.1-3.2c2.2-1.4 5.4-2.3 8.7-2.3 8.1 0 10.1 5.5 10.1 10.8v9.9c0 2.3.1 4.5.4 6.3h-4.3zm-.7-13.4c-5.3-.1-11.2.8-11.2 5.9 0 3.1 2.1 4.6 4.5 4.6 3.4 0 5.6-2.2 6.4-4.4.2-.5.3-1 .3-1.5v-4.6z"/></g></g></a></g><a href="https://ourworldindata.org/grapher/terrorist-attacks-by-type" target="_blank"><text font-size="25.2" x="15" y="35.2" fill="#555"><tspan x="15" y="35.16">Number of terrorist attacks by method/type, World</tspan></text></a><text font-size="14.4" x="15" y="53.7" fill="#666"><tspan x="15" y="53.72">The number of terrorist attacks in a given year categorized by their general method/type. Full details of how attack</tspan><tspan x="15" y="69.56">types are defined in the &quot;Sources&quot; tab.</tspan></text></g><g class="StackedBarChart"><defs><clipPath id="a"><path d="M69.9 92.1H651v443.2H69.9z"/></clipPath></defs><g class="VerticalAxis" fill="#666" dominant-baseline="middle" text-anchor="end" font-size="16.2"><text x="64.9" y="535.3">0</text><text x="64.9" y="482.9">2,000</text><text x="64.9" y="430.4">4,000</text><text x="64.9" y="378">6,000</text><text x="64.9" y="325.5">8,000</text><text x="64.9" y="273.1">10,000</text><text x="64.9" y="220.7">12,000</text><text x="64.9" y="168.2">14,000</text><text x="64.9" y="115.8">16,000</text></g><g class="AxisGridLines"><path stroke="#ccc" d="M69.9 535.3H651"/><path stroke="#ddd" stroke-dasharray="3,2" d="M69.9 482.9H651M69.9 430.4H651M69.9 378H651M69.9 325.5H651M69.9 273.1H651M69.9 220.7H651M69.9 168.2H651M69.9 115.8H651"/></g><g fill="#666" font-size="16.2"><text x="59.17" y="553.26">1970</text><text x="108.63" y="553.26">1974</text><text x="158.08" y="553.26">1978</text><text x="207.54" y="553.26">1982</text><text x="256.99" y="553.26">1986</text><text x="306.45" y="553.26">1990</text><text x="355.9" y="553.26">1995</text><text x="405.36" y="553.26">1999</text><text x="454.82" y="553.26">2003</text><text x="504.27" y="553.26">2007</text><text x="553.73" y="553.26">2011</text><text x="627.91" y="553.26">2017</text></g><g clip-path="url(#a)"><g class="World_8-segments" fill="#58888f"><path opacity=".8" d="M72.37 535.1h9.89v.2h-9.89zM84.73 535.2h9.89v.1h-9.89zM134.19 535.2h9.89v.1h-9.89zM146.55 535.2h9.89v.1h-9.89zM158.92 534.9h9.89v.4h-9.89zM171.28 533.9h9.89v1.4h-9.89zM183.64 530.2h9.89v5.1h-9.89zM196.01 532.7h9.89v2.6h-9.89zM208.37 533.4h9.89v1.9h-9.89zM220.74 533.2h9.89v2.1h-9.89zM233.1 532.4h9.89v2.9h-9.89zM245.46 531.2h9.89v4.1h-9.89zM257.83 531.8h9.89v3.5h-9.89zM270.19 532.2h9.89v3.1h-9.89zM282.56 531h9.89v4.3h-9.89zM294.92 534.3h9.89v1h-9.89zM307.28 534.9h9.89v.4h-9.89zM319.65 535h9.89v.3h-9.89zM332.01 533.6h9.89v1.7h-9.89zM344.37 530.4h9.89v4.9h-9.89zM356.74 530h9.89v5.3h-9.89zM369.1 529.2h9.89v6.1h-9.89zM381.47 527.7h9.89v7.6h-9.89zM393.83 526.2h9.89v9.1h-9.89zM406.19 534.7h9.89v.6h-9.89zM418.56 534.3h9.89v1h-9.89zM430.92 534.2h9.89v1.1h-9.89zM443.29 534.1h9.89v1.2h-9.89zM455.65 534.6h9.89v.7h-9.89zM468.01 534.6h9.89v.7h-9.89zM480.38 534.6h9.89v.7h-9.89zM492.74 534.3h9.89v1h-9.89zM505.11 534.3H515v1h-9.89zM517.47 534.5h9.89v.8h-9.89zM529.83 532.5h9.89v2.8h-9.89zM542.2 531.7h9.89v3.6h-9.89zM554.56 532.3h9.89v3h-9.89zM566.93 532.3h9.89v3h-9.89zM579.29 530.5h9.89v4.8h-9.89zM591.65 528.6h9.89v6.7h-9.89zM604.02 514.7h9.89v20.6h-9.89zM616.38 511.9h9.89v23.4h-9.89zM628.74 511.1h9.89v24.2h-9.89zM641.11 513.7H651v21.6h-9.89z"/></g><g class="World_7-segments" fill="#69B265"><path opacity=".8" d="M109.46 535.2h9.89v.1h-9.89zM121.82 535.2h9.89v.1h-9.89zM146.55 535.1h9.89v.1h-9.89zM171.28 533.8h9.89v.1h-9.89zM183.64 530h9.89v.2h-9.89zM208.37 533.3h9.89v.1h-9.89zM220.74 533.1h9.89v.1h-9.89zM245.46 531h9.89v.2h-9.89zM257.83 531.7h9.89v.1h-9.89zM270.19 532.1h9.89v.1h-9.89zM282.56 530.9h9.89v.1h-9.89zM294.92 534.1h9.89v.2h-9.89zM307.28 534.6h9.89v.3h-9.89zM319.65 534.8h9.89v.2h-9.89zM332.01 533.3h9.89v.3h-9.89zM344.37 529.1h9.89v1.3h-9.89zM356.74 528.4h9.89v1.6h-9.89zM369.1 526.4h9.89v2.8h-9.89zM381.47 527.1h9.89v.6h-9.89zM393.83 525.5h9.89v.7h-9.89zM406.19 534.3h9.89v.4h-9.89zM418.56 533.3h9.89v1h-9.89zM430.92 533.5h9.89v.7h-9.89zM443.29 533h9.89v1.1h-9.89zM455.65 534.4h9.89v.2h-9.89zM468.01 534.1h9.89v.5h-9.89zM480.38 534.5h9.89v.1h-9.89zM492.74 534.1h9.89v.2h-9.89zM505.11 533.9H515v.4h-9.89zM517.47 534.4h9.89v.1h-9.89zM529.83 531.7h9.89v.8h-9.89zM542.2 531.2h9.89v.5h-9.89zM554.56 531.7h9.89v.6h-9.89zM566.93 531.8h9.89v.5h-9.89zM579.29 529.7h9.89v.8h-9.89zM591.65 527.6h9.89v1h-9.89zM604.02 513.3h9.89v1.4h-9.89zM616.38 509.4h9.89v2.5h-9.89zM628.74 509.3h9.89v1.8h-9.89zM641.11 511H651v2.7h-9.89z"/></g><g class="World_6-segments" fill="#9ecc8a"><path opacity=".8" d="M72.37 534.1h9.89v1h-9.89zM84.73 534.7h9.89v.5h-9.89zM97.1 534.9h9.89v.4H97.1zM109.46 534.1h9.89v1.1h-9.89zM121.82 534.2h9.89v1h-9.89zM134.19 534.5h9.89v.7h-9.89zM146.55 533.9h9.89v1.2h-9.89zM158.92 533.2h9.89v1.7h-9.89zM171.28 531.3h9.89v2.5h-9.89zM183.64 526.1h9.89v3.9h-9.89zM196.01 529h9.89v3.7h-9.89zM208.37 530.1h9.89v3.2h-9.89zM220.74 530.4h9.89v2.7h-9.89zM233.1 529.1h9.89v3.3h-9.89zM245.46 529h9.89v2h-9.89zM257.83 528.6h9.89v3.1h-9.89zM270.19 529.6h9.89v2.5h-9.89zM282.56 528.4h9.89v2.5h-9.89zM294.92 531.3h9.89v2.8h-9.89zM307.28 531.2h9.89v3.4h-9.89zM319.65 530.4h9.89v4.4h-9.89zM332.01 527.4h9.89v5.9h-9.89zM344.37 525.4h9.89v3.7h-9.89zM356.74 523.3h9.89v5.1h-9.89zM369.1 522.7h9.89v3.7h-9.89zM381.47 523h9.89v4.1h-9.89zM393.83 517.7h9.89v7.8h-9.89zM406.19 533.2h9.89v1.1h-9.89zM418.56 530.3h9.89v3h-9.89zM430.92 530.2h9.89v3.3h-9.89zM443.29 529.2h9.89v3.8h-9.89zM455.65 532.3h9.89v2.1h-9.89zM468.01 532.9h9.89v1.2h-9.89zM480.38 532.5h9.89v2h-9.89zM492.74 531h9.89v3.1h-9.89zM505.11 528.6H515v5.3h-9.89zM517.47 528.5h9.89v5.9h-9.89zM529.83 521.5h9.89v10.2h-9.89zM542.2 523.9h9.89v7.3h-9.89zM554.56 521.5h9.89v10.2h-9.89zM566.93 522.3h9.89v9.5h-9.89zM579.29 520.5h9.89v9.2h-9.89zM591.65 510.9h9.89v16.7h-9.89zM604.02 476.7h9.89v36.6h-9.89zM616.38 478.1h9.89v31.3h-9.89zM628.74 479.6h9.89v29.7h-9.89zM641.11 488H651v23h-9.89z"/></g><g class="World_5-segments" fill="#CFD164"><path opacity=".8" d="M72.37 534h9.89v.1h-9.89zM97.1 534.7h9.89v.2H97.1zM109.46 533.9h9.89v.2h-9.89zM121.82 534.1h9.89v.1h-9.89zM134.19 534.2h9.89v.3h-9.89zM146.55 533.8h9.89v.1h-9.89zM158.92 532.8h9.89v.4h-9.89zM171.28 530.1h9.89v1.2h-9.89zM183.64 524.2h9.89v1.9h-9.89zM196.01 527.7h9.89v1.3h-9.89zM208.37 529.2h9.89v.9h-9.89zM220.74 529.1h9.89v1.3h-9.89zM233.1 528.4h9.89v.7h-9.89zM245.46 528.2h9.89v.8h-9.89zM257.83 527.2h9.89v1.4h-9.89zM270.19 528.8h9.89v.8h-9.89zM282.56 527.7h9.89v.7h-9.89zM294.92 530.9h9.89v.4h-9.89zM307.28 530.8h9.89v.4h-9.89zM319.65 529.9h9.89v.5h-9.89zM332.01 527h9.89v.4h-9.89zM344.37 524.8h9.89v.6h-9.89zM356.74 522.5h9.89v.8h-9.89zM369.1 522.3h9.89v.4h-9.89zM381.47 522.6h9.89v.4h-9.89zM393.83 517.6h9.89v.1h-9.89zM418.56 530.2h9.89v.1h-9.89zM443.29 529.1h9.89v.1h-9.89zM455.65 532.2h9.89v.1h-9.89zM468.01 532.8h9.89v.1h-9.89zM480.38 532.4h9.89v.1h-9.89zM505.11 528.4H515v.2h-9.89zM517.47 528.4h9.89v.1h-9.89zM529.83 521.4h9.89v.1h-9.89zM542.2 523.8h9.89v.1h-9.89zM554.56 521.2h9.89v.3h-9.89zM566.93 522.2h9.89v.1h-9.89zM579.29 520h9.89v.5h-9.89zM591.65 510.3h9.89v.6h-9.89zM604.02 475.5h9.89v1.2h-9.89zM616.38 475.9h9.89v2.2h-9.89zM628.74 478h9.89v1.6h-9.89zM641.11 485.8H651v2.2h-9.89z"/></g><g class="World_4-segments" fill="#ffd53e"><path opacity=".8" d="M72.37 533.7h9.89v.3h-9.89zM84.73 534.5h9.89v.2h-9.89zM97.1 534.4h9.89v.3H97.1zM109.46 533.7h9.89v.2h-9.89zM121.82 534h9.89v.1h-9.89zM134.19 534.1h9.89v.1h-9.89zM146.55 533.6h9.89v.2h-9.89zM158.92 532.7h9.89v.1h-9.89zM183.64 523.9h9.89v.3h-9.89zM196.01 527.3h9.89v.4h-9.89zM208.37 528.7h9.89v.5h-9.89zM220.74 528.9h9.89v.2h-9.89zM233.1 528.2h9.89v.2h-9.89zM245.46 527.7h9.89v.5h-9.89zM257.83 526.8h9.89v.4h-9.89zM270.19 528.7h9.89v.1h-9.89zM282.56 527.6h9.89v.1h-9.89zM294.92 530.6h9.89v.3h-9.89zM307.28 530.4h9.89v.4h-9.89zM319.65 529.7h9.89v.2h-9.89zM332.01 526.4h9.89v.6h-9.89zM344.37 524.2h9.89v.6h-9.89zM356.74 521.5h9.89v1h-9.89zM369.1 521.5h9.89v.8h-9.89zM381.47 522h9.89v.6h-9.89zM393.83 517.2h9.89v.4h-9.89zM406.19 533.1h9.89v.1h-9.89zM418.56 530h9.89v.2h-9.89zM430.92 530h9.89v.2h-9.89zM443.29 528.8h9.89v.3h-9.89zM455.65 532h9.89v.2h-9.89zM468.01 532.7h9.89v.1h-9.89zM492.74 530.9h9.89v.1h-9.89zM505.11 528.3H515v.1h-9.89zM517.47 528.2h9.89v.2h-9.89zM529.83 521h9.89v.4h-9.89zM542.2 523.2h9.89v.6h-9.89zM554.56 520.9h9.89v.3h-9.89zM566.93 522h9.89v.2h-9.89zM579.29 519.9h9.89v.1h-9.89zM591.65 509.8h9.89v.5h-9.89zM604.02 474.2h9.89v1.3h-9.89zM616.38 474.9h9.89v1h-9.89zM628.74 476.9h9.89v1.1h-9.89zM641.11 484.3H651v1.5h-9.89z"/></g><g class="World_3-segments" fill="#ca2628"><path opacity=".8" d="M72.37 529.1h9.89v4.6h-9.89zM84.73 532.2h9.89v2.3h-9.89zM97.1 533.9h9.89v.5H97.1zM109.46 532.7h9.89v1h-9.89zM121.82 532.9h9.89v1.1h-9.89zM134.19 532.5h9.89v1.6h-9.89zM146.55 530.7h9.89v2.9h-9.89zM158.92 527.9h9.89v4.8h-9.89zM171.28 525.4h9.89v4.7h-9.89zM183.64 518.8h9.89v5.1h-9.89zM196.01 522.9h9.89v4.4h-9.89zM208.37 524.8h9.89v3.9h-9.89zM220.74 525h9.89v3.9h-9.89zM233.1 524.5h9.89v3.7h-9.89zM245.46 523.4h9.89v4.3h-9.89zM257.83 523.2h9.89v3.6h-9.89zM270.19 525h9.89v3.7h-9.89zM282.56 524.5h9.89v3.1h-9.89zM294.92 526.7h9.89v3.9h-9.89zM307.28 524.1h9.89v6.3h-9.89zM319.65 524.7h9.89v5h-9.89zM332.01 517.1h9.89v9.3h-9.89zM344.37 511.8h9.89v12.4h-9.89zM356.74 516.5h9.89v5h-9.89zM369.1 513.8h9.89v7.7h-9.89zM381.47 516.3h9.89v5.7h-9.89zM393.83 513.6h9.89v3.6h-9.89zM406.19 531.6h9.89v1.5h-9.89zM418.56 527h9.89v3h-9.89zM430.92 527.1h9.89v2.9h-9.89zM443.29 524.9h9.89v3.9h-9.89zM455.65 530.8h9.89v1.2h-9.89zM468.01 530.4h9.89v2.3h-9.89zM480.38 531.5h9.89v.9h-9.89zM492.74 529.6h9.89v1.3h-9.89zM505.11 525.5H515v2.8h-9.89zM517.47 525.2h9.89v3h-9.89zM529.83 513.5h9.89v7.5h-9.89zM542.2 514.1h9.89v9.1h-9.89zM554.56 513.2h9.89v7.7h-9.89zM566.93 515.7h9.89v6.3h-9.89zM579.29 511.9h9.89v8h-9.89zM591.65 495h9.89v14.8h-9.89zM604.02 453.7h9.89v20.5h-9.89zM616.38 456.4h9.89v18.5h-9.89zM628.74 458.6h9.89v18.3h-9.89zM641.11 464.6H651v19.7h-9.89z"/></g><g class="World_2-segments" fill="#e6332e"><path opacity=".8" d="M72.37 520.4h9.89v8.7h-9.89zM84.73 525.9h9.89v6.3h-9.89zM97.1 529h9.89v4.9H97.1zM109.46 528.8h9.89v3.9h-9.89zM121.82 525.4h9.89v7.5h-9.89zM134.19 522.8h9.89v9.7h-9.89zM146.55 519.7h9.89v11h-9.89zM158.92 511.2h9.89v16.7h-9.89zM171.28 508.5h9.89v16.9h-9.89zM183.64 491h9.89v27.8h-9.89zM196.01 496.8h9.89v26.1h-9.89zM208.37 496.4h9.89v28.4h-9.89zM220.74 495.5h9.89V525h-9.89zM233.1 491.8h9.89v32.7h-9.89zM245.46 476.9h9.89v46.5h-9.89zM257.83 484.3h9.89v38.9h-9.89zM270.19 485.6h9.89V525h-9.89zM282.56 485.7h9.89v38.8h-9.89zM294.92 483.4h9.89v43.3h-9.89zM307.28 477h9.89v47.1h-9.89zM319.65 479.3h9.89v45.4h-9.89zM332.01 465h9.89v52.1h-9.89zM344.37 466.3h9.89v45.5h-9.89zM356.74 486.3h9.89v30.2h-9.89zM369.1 493h9.89v20.8h-9.89zM381.47 484.4h9.89v31.9h-9.89zM393.83 484.1h9.89v29.5h-9.89zM406.19 518.4h9.89v13.2h-9.89zM418.56 509.9h9.89V527h-9.89zM430.92 503.4h9.89v23.7h-9.89zM443.29 503.9h9.89v21h-9.89zM455.65 511.9h9.89v18.9h-9.89zM468.01 512.4h9.89v18h-9.89zM480.38 514.2h9.89v17.3h-9.89zM492.74 501.7h9.89v27.9h-9.89zM505.11 486H515v39.5h-9.89zM517.47 476.2h9.89v49h-9.89zM529.83 443.7h9.89v69.8h-9.89zM542.2 446.7h9.89v67.4h-9.89zM554.56 447.4h9.89v65.8h-9.89zM566.93 447.8h9.89v67.9h-9.89zM579.29 378.6h9.89v133.3h-9.89zM591.65 319.7h9.89V495h-9.89zM604.02 223h9.89v230.7h-9.89zM616.38 255.5h9.89v200.9h-9.89zM628.74 272.2h9.89v186.4h-9.89zM641.11 332.9H651v131.7h-9.89z"/></g><g class="World_1-segments" fill="#2a939b"><path opacity=".8" d="M72.37 519.8h9.89v.6h-9.89zM84.73 524.1h9.89v1.8h-9.89zM97.1 522.1h9.89v6.9H97.1zM109.46 524.5h9.89v4.3h-9.89zM121.82 521.3h9.89v4.1h-9.89zM134.19 518h9.89v4.8h-9.89zM146.55 514.4h9.89v5.3h-9.89zM158.92 507.4h9.89v3.8h-9.89zM171.28 501.6h9.89v6.9h-9.89zM183.64 477.2h9.89V491h-9.89zM196.01 480.6h9.89v16.2h-9.89zM208.37 485.8h9.89v10.6h-9.89zM220.74 486h9.89v9.5h-9.89zM233.1 482.4h9.89v9.4h-9.89zM245.46 465.2h9.89v11.7h-9.89zM257.83 476.1h9.89v8.2h-9.89zM270.19 475.8h9.89v9.8h-9.89zM282.56 472.8h9.89v12.9h-9.89zM294.92 461.9h9.89v21.5h-9.89zM307.28 451.3h9.89V477h-9.89zM319.65 456.4h9.89v22.9h-9.89zM332.01 445.8h9.89V465h-9.89zM344.37 437.1h9.89v29.2h-9.89zM356.74 466.1h9.89v20.2h-9.89zM369.1 473.9h9.89V493h-9.89zM381.47 471.8h9.89v12.6h-9.89zM393.83 473.1h9.89v11h-9.89zM406.19 517.7h9.89v.7h-9.89zM418.56 508.3h9.89v1.6h-9.89zM430.92 500.7h9.89v2.7h-9.89zM443.29 500.6h9.89v3.3h-9.89zM455.65 510h9.89v1.9h-9.89zM468.01 510h9.89v2.4h-9.89zM480.38 511.5h9.89v2.7h-9.89zM492.74 495.8h9.89v5.9h-9.89zM505.11 482.4H515v3.6h-9.89zM517.47 472.6h9.89v3.6h-9.89zM529.83 438h9.89v5.7h-9.89zM542.2 440.7h9.89v6h-9.89zM554.56 438h9.89v9.4h-9.89zM566.93 438.8h9.89v9h-9.89zM579.29 366.5h9.89v12.1h-9.89zM591.65 297.4h9.89v22.3h-9.89zM604.02 198.8h9.89V223h-9.89zM616.38 231.2h9.89v24.3h-9.89zM628.74 250.7h9.89v21.5h-9.89zM641.11 311.5H651v21.4h-9.89z"/></g><g class="World_0-segments" fill="#3360a9"><path opacity=".8" d="M72.37 518.2h9.89v1.6h-9.89zM84.73 523h9.89v1.1h-9.89zM97.1 520.4h9.89v1.7H97.1zM109.46 522.9h9.89v1.6h-9.89zM121.82 520.1h9.89v1.2h-9.89zM134.19 515.9h9.89v2.1h-9.89zM146.55 511.1h9.89v3.3h-9.89zM158.92 500.7h9.89v6.7h-9.89zM171.28 495.3h9.89v6.3h-9.89zM183.64 465.5h9.89v11.7h-9.89zM196.01 465.5h9.89v15.1h-9.89zM208.37 467.5h9.89v18.3h-9.89zM220.74 468.6h9.89V486h-9.89zM233.1 460h9.89v22.4h-9.89zM245.46 443.7h9.89v21.5h-9.89zM257.83 458.9h9.89v17.2h-9.89zM270.19 460.3h9.89v15.5h-9.89zM282.56 451.8h9.89v21h-9.89zM294.92 437.7h9.89v24.2h-9.89zM307.28 421.9h9.89v29.4h-9.89zM319.65 433.4h9.89v23h-9.89zM332.01 412.5h9.89v33.3h-9.89zM344.37 402.3h9.89v34.8h-9.89zM356.74 444.7h9.89v21.4h-9.89zM369.1 454.5h9.89v19.4h-9.89zM381.47 455.1h9.89v16.7h-9.89zM393.83 451.5h9.89v21.6h-9.89zM406.19 510.8h9.89v6.9h-9.89zM418.56 498.7h9.89v9.6h-9.89zM430.92 487.7h9.89v13h-9.89zM443.29 485.3h9.89v15.3h-9.89zM455.65 500.3h9.89v9.7h-9.89zM468.01 501.8h9.89v8.2h-9.89zM480.38 504.7h9.89v6.8h-9.89zM492.74 482.4h9.89v13.4h-9.89zM505.11 463H515v19.4h-9.89zM517.47 450.3h9.89v22.3h-9.89zM529.83 409.3h9.89V438h-9.89zM542.2 411.5h9.89v29.2h-9.89zM554.56 408.8h9.89V438h-9.89zM566.93 402.2h9.89v36.6h-9.89zM579.29 311.9h9.89v54.6h-9.89zM591.65 219.7h9.89v77.7h-9.89zM604.02 92.1h9.89v106.7h-9.89zM616.38 142.9h9.89v88.3h-9.89zM628.74 179h9.89v71.7h-9.89zM641.11 249.5H651v62h-9.89z"/></g></g><g class="ScatterColorLegend clickable" cursor="pointer"><g class="legendMark">,<path fill="#3360a9" d="M671 95.1h6v6h-6z"/>,<text font-size="12.6" x="682" y="102.2"><tspan x="682" y="102.18">Armed Assault</tspan></text></g><g class="legendMark">,<path fill="#2a939b" d="M671 112.7h6v6h-6z"/>,<text font-size="12.6" x="682" y="119.8"><tspan x="682" y="119.78">Assassination</tspan></text></g><g class="legendMark">,<path fill="#e6332e" d="M671 130.3h6v6h-6z"/>,<text font-size="12.6" x="682" y="137.4"><tspan x="682" y="137.38">Bombing/Explosion</tspan></text></g><g class="legendMark">,<path fill="#ca2628" d="M671 147.9h6v6h-6z"/>,<text font-size="12.6" x="682" y="155"><tspan x="682" y="154.98">Facility/Infrastructure Attack</tspan></text></g><g class="legendMark">,<path fill="#ffd53e" d="M671 165.5h6v6h-6z"/>,<text font-size="12.6" x="682" y="172.6"><tspan x="682" y="172.58">Hijacking</tspan></text></g><g class="legendMark">,<path fill="#CFD164" d="M671 183.1h6v6h-6z"/>,<text font-size="12.6" x="682" y="190.2"><tspan x="682" y="190.18">Hostage Taking (Barricade</tspan><tspan x="682" y="204.04">Incident)</tspan></text></g><g class="legendMark">,<path fill="#9ecc8a" d="M671 214.4h6v6h-6z"/>,<text font-size="12.6" x="682" y="221.5"><tspan x="682" y="221.48">Hostage Taking (Kidnapping)</tspan></text></g><g class="legendMark">,<path fill="#69B265" d="M671 232h6v6h-6z"/>,<text font-size="12.6" x="682" y="239.1"><tspan x="682" y="239.08">Unarmed Assault</tspan></text></g><g class="legendMark">,<path fill="#58888f" d="M671 249.6h6v6h-6z"/>,<text font-size="12.6" x="682" y="256.7"><tspan x="682" y="256.68">Unknown</tspan></text></g></g></g><g class="SourcesFooter" fill="#777"><g class="clickable" fill="#777"><text font-size="12.6" x="15" y="581.6"><tspan x="15" y="581.58">Source: Global Terrorism Database (2018)</tspan></text></g><text font-size="12.6" x="775.4" y="581.6"><tspan x="775.4" y="581.58"><a class="cclogo" href="http://creativecommons.org/licenses/by-sa/4.0/deed.en_US" target="_blank" fill="#777">CC BY-SA</a></tspan></text></g></g></svg>