<svg xmlns="http://www.w3.org/2000/svg" version="1.1" style="background-color:#fff;-webkit-font-smoothing:antialiased" width="850" height="600" font-family="'Helvetica Neue',Helvetica,Arial,sans-serif" font-size="18" text-rendering="optimizeLegibility"><g class="ChartTab"><g class="HeaderView"><g opacity=".8" transform="matrix(.31 0 0 .31 770 15)"><a xmlns:xlink="http://www.w3.org/1999/xlink" xlink:href="https://ourworldindata.org" target="_blank"><g><path fill="#1B2543" d="M0 0h211.2v130.1H0z"/><path fill="#E63912" d="M0 112.2h211.2v17.9H0z"/><g><path fill="none" d="M1.2 12.3h210.2v99.2H1.2z"/><path fill="#FFF" d="M37.8 32.2c0 12.7-7.7 19.4-17.1 19.4-9.7 0-16.6-7.5-16.6-18.7 0-11.7 7.3-19.3 17.1-19.3 10.1.1 16.6 7.7 16.6 18.6zm-28.6.6c0 7.9 4.3 14.9 11.8 14.9 7.5 0 11.8-6.9 11.8-15.3 0-7.3-3.8-14.9-11.8-14.9-7.9 0-11.8 7.3-11.8 15.3zM62.7 43.8c0 2.7.1 5.1.2 7.2h-4.3l-.3-4.3h-.1c-1.3 2.1-4 4.9-8.8 4.9-4.2 0-9.1-2.3-9.1-11.6V24.6h4.8v14.6c0 5 1.5 8.4 5.9 8.4 3.2 0 5.5-2.2 6.3-4.4.3-.7.4-1.6.4-2.5V24.6h4.8v19.2zM67.3 32.8c0-3.1-.1-5.8-.2-8.2h4.2l.2 5.2h.2c1.2-3.5 4.1-5.8 7.3-5.8.5 0 .9.1 1.4.2v4.5c-.5-.1-1-.2-1.6-.2-3.4 0-5.8 2.6-6.5 6.2-.1.7-.2 1.4-.2 2.2V51h-4.8V32.8zM95.4 51L86 14.2h5l4.4 18.6c1.1 4.6 2.1 9.2 2.7 12.7h.1c.6-3.7 1.8-8 3-12.8l4.9-18.5h5l4.5 18.7c1 4.4 2 8.7 2.6 12.6h.1c.8-4 1.8-8.1 3-12.7l4.9-18.5h4.9L120.6 51h-5L111 31.9c-1.1-4.7-1.9-8.3-2.4-12h-.1c-.7 3.7-1.5 7.3-2.8 12L100.4 51h-5zM154.9 37.6c0 9.8-6.8 14-13.2 14-7.2 0-12.7-5.2-12.7-13.6 0-8.8 5.8-14 13.1-14 7.7 0 12.8 5.5 12.8 13.6zm-21 .3c0 5.8 3.3 10.1 8 10.1 4.6 0 8-4.3 8-10.3 0-4.5-2.2-10.1-7.9-10.1s-8.1 5.2-8.1 10.3zM158.2 32.8c0-3.1-.1-5.8-.2-8.2h4.2l.2 5.2h.2c1.2-3.5 4.1-5.8 7.3-5.8.5 0 .9.1 1.4.2v4.5c-.5-.1-1-.2-1.6-.2-3.4 0-5.8 2.6-6.5 6.2-.1.7-.2 1.4-.2 2.2V51h-4.8V32.8zM173.5 12.3h4.8V51h-4.8V12.3zM206.5 12.3v31.9c0 2.3.1 5 .2 6.8h-4.3l-.2-4.6h-.2c-1.5 2.9-4.7 5.2-9 5.2-6.4 0-11.3-5.4-11.3-13.4-.1-8.8 5.4-14.2 11.9-14.2 4 0 6.8 1.9 8 4h.1V12.3h4.8zm-4.8 23.1c0-.6-.1-1.4-.2-2a7 7 0 00-6.9-5.6c-5 0-7.9 4.4-7.9 10.2 0 5.3 2.6 9.8 7.8 9.8 3.2 0 6.2-2.1 7.1-5.7.2-.7.2-1.3.2-2.1v-4.6zM42.8 64c.1 1.6-1.1 2.9-3.1 2.9-1.7 0-2.9-1.3-2.9-2.9 0-1.7 1.3-3 3-3 1.9 0 3 1.3 3 3zm-5.4 33.8V71.4h4.8v26.4h-4.8zM47.5 78.6c0-2.7-.1-5-.2-7.1h4.3l.3 4.4h.1c1.3-2.5 4.4-5 8.8-5 3.7 0 9.4 2.2 9.4 11.2v15.8h-4.8V82.6c0-4.3-1.6-7.8-6.1-7.8-3.2 0-5.6 2.2-6.5 4.9-.2.6-.3 1.4-.3 2.2v15.9h-4.8V78.6zM84 61.6c2.9-.4 6.3-.8 10.1-.8 6.8 0 11.7 1.6 14.9 4.6 3.3 3 5.2 7.3 5.2 13.2 0 6-1.9 10.9-5.3 14.3-3.4 3.4-9.1 5.3-16.3 5.3-3.4 0-6.2-.2-8.6-.4V61.6zm4.8 32.5c1.2.2 3 .3 4.8.3 10.2 0 15.7-5.7 15.7-15.6.1-8.7-4.9-14.2-14.9-14.2-2.5 0-4.3.2-5.6.5v29zM132.1 97.8l-.4-3.3h-.2a9.79 9.79 0 01-8.1 3.9c-5.4 0-8.1-3.8-8.1-7.6 0-6.4 5.7-9.9 15.9-9.8v-.5c0-2.2-.6-6.1-6-6.1-2.5 0-5 .8-6.9 2l-1.1-3.2c2.2-1.4 5.4-2.3 8.7-2.3 8.1 0 10.1 5.5 10.1 10.8v9.9c0 2.3.1 4.5.4 6.3h-4.3zm-.7-13.4c-5.3-.1-11.2.8-11.2 5.9 0 3.1 2.1 4.6 4.5 4.6 3.4 0 5.6-2.2 6.4-4.4.2-.5.3-1 .3-1.5v-4.6zM146.6 63.9v7.6h6.9v3.7h-6.9v14.2c0 3.3.9 5.1 3.6 5.1 1.3 0 2.2-.2 2.8-.3l.2 3.6c-.9.4-2.4.7-4.3.7-2.2 0-4-.7-5.2-2-1.4-1.4-1.9-3.8-1.9-6.9V75.1h-4.1v-3.7h4.1v-6.3l4.8-1.2zM171.4 97.8l-.4-3.3h-.2a9.79 9.79 0 01-8.1 3.9c-5.4 0-8.1-3.8-8.1-7.6 0-6.4 5.7-9.9 15.9-9.8v-.5c0-2.2-.6-6.1-6-6.1-2.5 0-5 .8-6.9 2l-1.1-3.2c2.2-1.4 5.4-2.3 8.7-2.3 8.1 0 10.1 5.5 10.1 10.8v9.9c0 2.3.1 4.5.4 6.3h-4.3zm-.7-13.4c-5.3-.1-11.2.8-11.2 5.9 0 3.1 2.1 4.6 4.5 4.6 3.4 0 5.6-2.2 6.4-4.4.2-.5.3-1 .3-1.5v-4.6z"/></g></g></a></g><a href="https://ourworldindata.org/grapher/total-agricultural-land-use-per-person" target="_blank"><text font-size="27" x="15" y="36.6" fill="#555"><tspan x="15" y="36.6">Total agricultural land use per person</tspan></text></a><text font-size="14.4" x="15" y="55.5" fill="#666"><tspan x="15" y="55.52">Total agricultural land area (which is the combination of cropland and grazing land) use per person over the</tspan><tspan x="15" y="71.36">long-run, measured in hectares.</tspan></text></g><g class="LineChart"><defs><clipPath id="a"><path d="M28.14 0h830v925.2h-830z"/></clipPath></defs><g class="AxisBoxView"><g class="HorizontalAxis" fill="#666" text-anchor="middle" font-size="16.2"><text x="38.1" y="556.5">10000 BCE</text><text x="125" y="556.5">8000 BCE</text><text x="211.9" y="556.5">6000 BCE</text><text x="298.8" y="556.5">4000 BCE</text><text x="385.7" y="556.5">2000 BCE</text><text x="472.6" y="556.5">0</text><text x="560.2" y="556.5">2016</text></g><g class="VerticalAxis" fill="#666" dominant-baseline="middle" text-anchor="end" font-size="16.2"><text x="33.14" y="535.3">0</text><text x="33.14" y="466.3">5</text><text x="33.14" y="397.3">10</text><text x="33.14" y="328.3">15</text><text x="33.14" y="259.3">20</text><text x="33.14" y="190.3">25</text><text x="33.14" y="121.3">30</text></g><g class="AxisGridLines"><path stroke="#ccc" d="M38.14 535.3h522.02"/><path stroke="#ddd" stroke-dasharray="3,2" d="M38.14 466.3h522.02M38.14 397.3h522.02M38.14 328.3h522.02M38.14 259.3h522.02M38.14 190.3h522.02M38.14 121.3h522.02"/></g><g class="AxisGridLines"><path stroke="#ddd" stroke-dasharray="3,2" d="M38.1 535.3V93.9M125 535.3V93.9M211.9 535.3V93.9M298.8 535.3V93.9M385.7 535.3V93.9"/><path stroke="#ccc" d="M472.6 535.3V93.9"/><path stroke="#ddd" stroke-dasharray="3,2" d="M559.5 535.3V93.9"/></g></g><g clip-path="url(#a)"><g class="HeightedLegend clickable"><g class="legendMark"><path fill="#3360a9" d="M570.16 526.85h10v2.5h-10z"/><text font-size="14.4" x="585.2" y="532.4" fill="#333"><tspan x="585.16" y="532.42">India</tspan></text></g><g class="legendMark"><path fill="#ca2628" d="M570.16 512.45h10v2.5h-10z"/><text font-size="14.4" x="585.2" y="518" fill="#333"><tspan x="585.16" y="518.02">Europe (excl. Russia)</tspan></text></g><g class="legendMark"><path fill="#34983f" d="M570.16 498.05h10v2.5h-10z"/><text font-size="14.4" x="585.2" y="503.6" fill="#333"><tspan x="585.16" y="503.62">China</tspan></text></g><g class="legendMark"><path fill="#f6a324" d="M570.16 483.65h10v2.5h-10z"/><text font-size="14.4" x="585.2" y="489.2" fill="#333"><tspan x="585.16" y="489.22">Middle East</tspan></text></g><g class="legendMark"><path fill="#a652ba" d="M570.16 469.25h10v2.5h-10z"/><text font-size="14.4" x="585.2" y="474.8" fill="#333"><tspan x="585.16" y="474.82">Africa</tspan></text></g><g class="legendMark"><path fill="#e6332e" d="M570.16 454.85h10v2.5h-10z"/><text font-size="14.4" x="585.2" y="460.4" fill="#333"><tspan x="585.16" y="460.42">United States</tspan></text></g><g class="legendMark"><path fill="#9ecc8a" d="M570.16 440.45h10v2.5h-10z"/><text font-size="14.4" x="585.2" y="446" fill="#333"><tspan x="585.16" y="446.02">Brazil</tspan></text></g><g class="legendMark"><path fill="#ffd53e" d="M570.16 426.05h10v2.5h-10z"/><text font-size="14.4" x="585.2" y="431.6" fill="#333"><tspan x="585.16" y="431.62">Russia</tspan></text></g><g class="legendMark"><path fill="#b077b1" d="M570.16 411.65h10v2.5h-10z"/><text font-size="14.4" x="585.2" y="417.2" fill="#333"><tspan x="585.16" y="417.22">Canada</tspan></text></g><g class="legendMark"><path fill="#2a939b" d="M570.16 389.5h10v2.5h-10z"/><text font-size="14.4" x="585.2" y="387.3" fill="#333"><tspan x="585.16" y="387.32">Latin America and the Caribbean (excl.</tspan><tspan x="585.16" y="403.16">Brazil)</tspan></text></g><g class="legendMark"><path fill="#7ec7ce" d="M570.16 364.25h10v2.5h-10z"/><text font-size="14.4" x="585.2" y="369.8" fill="#333"><tspan x="585.16" y="369.82">Oceania</tspan></text></g></g><g class="Lines"><g class="key-United-States_0"><path stroke="#e6332e" stroke-linecap="round" d="M38 535h348l43-5 44-3h43l4-1h18l4-28 4-36 1 14v6l1 3h1v-5l1-1v-4l1 4v4l1 3v2l1 1v2-2l1 8v-11l1 3v-8l1 5v7l1-1v4l1 6v5l1 3v2l1 3h0v1h0v1h0v1h0" fill="none" stroke-width="1.5"/></g><g class="key-Russia_0"><path stroke="#ffd53e" stroke-linecap="round" d="M38 535h174l43-69 44-1 43-4 44-3 43-14 44 1h4l4 1 5 2 4 1 4 2 5 2 4 1 4 2 5 2 4 2 4 2 5 3 4 2 4 3 5 3 4 4 4 4 1 1h0l1 1h0l1 1h0l1 1h0v1l1 1h0l1 1v1l1 1h0v1l1 1v1l1 1v1l1 2v3l1 2v4l1 5v2l1 2v1h1" fill="none" stroke-width="1.5"/></g><g class="key-Middle-East_0"><path stroke="#f6a324" stroke-linecap="round" d="M38 535h87l44-13 43-7 43-12 44-34 43 12 44 17 43 5 44 3h4l4 1h9l4-1 5-4 4 1 4 1 5-1h21l5-1h8l1-1h0l1-1v-1l1-1v-1l1-1v-4l1-2v-6l1-3v-5l1-5v-7 1l1 1v2l1 2v1l1 1v3l1 3v2l1 1v14l1 11v5l1 4h0v1h0v3h0v1h0v1h0v1h0" fill="none" stroke-width="1.5"/></g><g class="key-Africa_0"><path stroke="#a652ba" stroke-linecap="round" d="M38 535h131l43-2 43-62 44-31 43 6 44-1 43-12 44 7 4 2 4 4h9l4 1 5 1 4 4 4 5 5 3 4 3 4 1 5 1 4 3h4l5 2 4 4 4-5 1 1v-1h1v-1h1v-1l1-1h0v-1l1-1v-2h1l1 2v3l1 1v2l1 2v2l1 1v4l1 1v2l1 3v11l1 9v7l1 5h0v1h0v1h0v1h0v1h0" fill="none" stroke-width="1.5"/></g><g class="key-Brazil_0"><path stroke="#9ecc8a" stroke-linecap="round" d="M38 535h500l4-9 4-18 1 1v2l1 1v2l1 1v2l1 1v3h1v1l1-2h1v-2l1-2v-3h1v-1l1-1h0v-1l1-10v3l1 4h0l1 3v3l1 2h0v1h0v1" fill="none" stroke-width="1.5"/></g><g class="key-China_0"><path stroke="#34983f" stroke-linecap="round" d="M38 535h131l43-44 43-18 44 1h43l44 1 43-9 44 42 4 9 4-1 5-7 4 3 4 1 5 2 4-2 4-3 5 1 4-2 4 6 5-1 4-3 4 1 5 2h9v1l1 1v1l1 2v1h1v2h2v1h1l1-1h2v2h1v1h1v2l1 1h1v1h0" fill="none" stroke-width="1.5"/></g><g class="key-Canada_0"><path stroke="#b077b1" stroke-linecap="round" d="M38 535h504l4-1h1v-1h1l1-1h0l1-1v-2l1-2v-2l1-1v-2l1-3v-5l1-5v-2l1-3h0l1-7v-9l1-10v-1l1 5v10l1 6v4l1 3h0v1h0v1h0v3h0v-1 2h0v1" fill="none" stroke-width="1.5"/></g><g class="key-Europe-__0028excl__002e-Russia__0029_0"><path stroke="#ca2628" stroke-linecap="round" d="M38 535h87l44-2 43-6 43-16 44-2 43-5 44 2 43 1 44 3h8l5 1 4 1h9l4-3 4-4 5-4 4-2 4-5 5 4 4 6 4-1 5 4 4 4 4 1 1 1v1l1 1v1h1v1h1v1h1v1h1v1h1v1h1v1l1 1h0l1 1h0v1h1l1 1v1l1 1h0l1 1h0v1h0" fill="none" stroke-width="1.5"/></g><g class="key-India_0"><path stroke="#3360a9" stroke-linecap="round" d="M38 535h87l44-30 43 3 43 2 44 2 43 2 44 2 43 2 44 2 4 1 4 1 5 1 4 1 4 1 5 1 4 1 4 1h5l4 1 4 1h5l4 1h9l4 1h5l1-1h2v-1h1l1-1h0l1-1v1h4v1h1v1l1 1v1h1" fill="none" stroke-width="1.5"/></g><g class="key-Latin-America-and-the-Caribbean-__0028excl__002e-Brazil__0029_0"><path stroke="#2a939b" stroke-linecap="round" d="M38 535h174l43-1 44-2 43-5 44-1h43l44 1h52l4 1h4l5-1 4-33 4-6h1l1-1h2l1 1v1h1l1 1v1h0l1 1v1l1-1v-1l1-1h0l1 2v4l1 1v9l1 5v4l1 2v1h0v1h0" fill="none" stroke-width="1.5"/></g><g class="key-Oceania_0"><path stroke="#7ec7ce" stroke-linecap="round" d="M38 535h391l44-1h21l5-1h17l4-1 5-3 4-1h4l5-10 4-6 4-5 1 1h0l1 1h1v1h1v-4l1-3v-11l1-16v-21l1-31v-43l1-24v-28l1-27v-47l1-45v-66l1-31V94l1 13v70l1 46v46l1 32v49-2 18" fill="none" stroke-width="1.5"/></g></g></g></g><g class="SourcesFooter" fill="#777"><g class="clickable" fill="#777"><text font-size="12.6" x="15" y="581.6"><tspan x="15" y="581.58">Source: Land Use Data - HYDE (2017)</tspan></text></g><text font-size="12.6" x="454.6" y="581.6"><tspan x="454.61" y="581.58"><a target="_blank" href="https://ourworldindata.org/yields-and-land-use-in-agriculture/" fill="#777">OurWorldInData.org/yields-and-land-use-in-agriculture/</a> • <a href="http://creativecommons.org/licenses/by-sa/4.0/deed.en_US" target="_blank" fill="#777">CC BY-SA</a></tspan></text></g></g></svg>