<svg xmlns="http://www.w3.org/2000/svg" version="1.1" style="background-color:#fff;-webkit-font-smoothing:antialiased" width="850" height="600" font-family="'Helvetica Neue',Helvetica,Arial,sans-serif" font-size="18" text-rendering="optimizeLegibility"><g class="ChartTab"><g class="HeaderView"><g opacity=".8" transform="matrix(.31 0 0 .31 770 15)"><a xmlns:xlink="http://www.w3.org/1999/xlink" xlink:href="https://ourworldindata.org" target="_blank"><g><path fill="#1B2543" d="M0 0h211.2v130.1H0z"/><path fill="#E63912" d="M0 112.2h211.2v17.9H0z"/><g><path fill="none" d="M1.2 12.3h210.2v99.2H1.2z"/><path fill="#FFF" d="M37.8 32.2c0 12.7-7.7 19.4-17.1 19.4-9.7 0-16.6-7.5-16.6-18.7 0-11.7 7.3-19.3 17.1-19.3 10.1.1 16.6 7.7 16.6 18.6zm-28.6.6c0 7.9 4.3 14.9 11.8 14.9 7.5 0 11.8-6.9 11.8-15.3 0-7.3-3.8-14.9-11.8-14.9-7.9 0-11.8 7.3-11.8 15.3zM62.7 43.8c0 2.7.1 5.1.2 7.2h-4.3l-.3-4.3h-.1c-1.3 2.1-4 4.9-8.8 4.9-4.2 0-9.1-2.3-9.1-11.6V24.6h4.8v14.6c0 5 1.5 8.4 5.9 8.4 3.2 0 5.5-2.2 6.3-4.4.3-.7.4-1.6.4-2.5V24.6h4.8v19.2zM67.3 32.8c0-3.1-.1-5.8-.2-8.2h4.2l.2 5.2h.2c1.2-3.5 4.1-5.8 7.3-5.8.5 0 .9.1 1.4.2v4.5c-.5-.1-1-.2-1.6-.2-3.4 0-5.8 2.6-6.5 6.2-.1.7-.2 1.4-.2 2.2V51h-4.8V32.8zM95.4 51L86 14.2h5l4.4 18.6c1.1 4.6 2.1 9.2 2.7 12.7h.1c.6-3.7 1.8-8 3-12.8l4.9-18.5h5l4.5 18.7c1 4.4 2 8.7 2.6 12.6h.1c.8-4 1.8-8.1 3-12.7l4.9-18.5h4.9L120.6 51h-5L111 31.9c-1.1-4.7-1.9-8.3-2.4-12h-.1c-.7 3.7-1.5 7.3-2.8 12L100.4 51h-5zM154.9 37.6c0 9.8-6.8 14-13.2 14-7.2 0-12.7-5.2-12.7-13.6 0-8.8 5.8-14 13.1-14 7.7 0 12.8 5.5 12.8 13.6zm-21 .3c0 5.8 3.3 10.1 8 10.1 4.6 0 8-4.3 8-10.3 0-4.5-2.2-10.1-7.9-10.1s-8.1 5.2-8.1 10.3zM158.2 32.8c0-3.1-.1-5.8-.2-8.2h4.2l.2 5.2h.2c1.2-3.5 4.1-5.8 7.3-5.8.5 0 .9.1 1.4.2v4.5c-.5-.1-1-.2-1.6-.2-3.4 0-5.8 2.6-6.5 6.2-.1.7-.2 1.4-.2 2.2V51h-4.8V32.8zM173.5 12.3h4.8V51h-4.8V12.3zM206.5 12.3v31.9c0 2.3.1 5 .2 6.8h-4.3l-.2-4.6h-.2c-1.5 2.9-4.7 5.2-9 5.2-6.4 0-11.3-5.4-11.3-13.4-.1-8.8 5.4-14.2 11.9-14.2 4 0 6.8 1.9 8 4h.1V12.3h4.8zm-4.8 23.1c0-.6-.1-1.4-.2-2a7 7 0 00-6.9-5.6c-5 0-7.9 4.4-7.9 10.2 0 5.3 2.6 9.8 7.8 9.8 3.2 0 6.2-2.1 7.1-5.7.2-.7.2-1.3.2-2.1v-4.6zM42.8 64c.1 1.6-1.1 2.9-3.1 2.9-1.7 0-2.9-1.3-2.9-2.9 0-1.7 1.3-3 3-3 1.9 0 3 1.3 3 3zm-5.4 33.8V71.4h4.8v26.4h-4.8zM47.5 78.6c0-2.7-.1-5-.2-7.1h4.3l.3 4.4h.1c1.3-2.5 4.4-5 8.8-5 3.7 0 9.4 2.2 9.4 11.2v15.8h-4.8V82.6c0-4.3-1.6-7.8-6.1-7.8-3.2 0-5.6 2.2-6.5 4.9-.2.6-.3 1.4-.3 2.2v15.9h-4.8V78.6zM84 61.6c2.9-.4 6.3-.8 10.1-.8 6.8 0 11.7 1.6 14.9 4.6 3.3 3 5.2 7.3 5.2 13.2 0 6-1.9 10.9-5.3 14.3-3.4 3.4-9.1 5.3-16.3 5.3-3.4 0-6.2-.2-8.6-.4V61.6zm4.8 32.5c1.2.2 3 .3 4.8.3 10.2 0 15.7-5.7 15.7-15.6.1-8.7-4.9-14.2-14.9-14.2-2.5 0-4.3.2-5.6.5v29zM132.1 97.8l-.4-3.3h-.2a9.79 9.79 0 01-8.1 3.9c-5.4 0-8.1-3.8-8.1-7.6 0-6.4 5.7-9.9 15.9-9.8v-.5c0-2.2-.6-6.1-6-6.1-2.5 0-5 .8-6.9 2l-1.1-3.2c2.2-1.4 5.4-2.3 8.7-2.3 8.1 0 10.1 5.5 10.1 10.8v9.9c0 2.3.1 4.5.4 6.3h-4.3zm-.7-13.4c-5.3-.1-11.2.8-11.2 5.9 0 3.1 2.1 4.6 4.5 4.6 3.4 0 5.6-2.2 6.4-4.4.2-.5.3-1 .3-1.5v-4.6zM146.6 63.9v7.6h6.9v3.7h-6.9v14.2c0 3.3.9 5.1 3.6 5.1 1.3 0 2.2-.2 2.8-.3l.2 3.6c-.9.4-2.4.7-4.3.7-2.2 0-4-.7-5.2-2-1.4-1.4-1.9-3.8-1.9-6.9V75.1h-4.1v-3.7h4.1v-6.3l4.8-1.2zM171.4 97.8l-.4-3.3h-.2a9.79 9.79 0 01-8.1 3.9c-5.4 0-8.1-3.8-8.1-7.6 0-6.4 5.7-9.9 15.9-9.8v-.5c0-2.2-.6-6.1-6-6.1-2.5 0-5 .8-6.9 2l-1.1-3.2c2.2-1.4 5.4-2.3 8.7-2.3 8.1 0 10.1 5.5 10.1 10.8v9.9c0 2.3.1 4.5.4 6.3h-4.3zm-.7-13.4c-5.3-.1-11.2.8-11.2 5.9 0 3.1 2.1 4.6 4.5 4.6 3.4 0 5.6-2.2 6.4-4.4.2-.5.3-1 .3-1.5v-4.6z"/></g></g></a></g><a href="https://ourworldindata.org/grapher/trade-openness-in-europe" target="_blank"><text font-size="27" x="15" y="36.6" fill="#555"><tspan x="15" y="36.6">Trade openness in Europe</tspan></text></a><text font-size="14.4" x="15" y="55.5" fill="#666"><tspan x="15" y="55.52">Shown is the sum of exports and imports as a share of GDP</tspan></text></g><g class="LineChart"><defs><clipPath id="a"><path d="M42.56 0h830v956.2h-830z"/></clipPath></defs><g class="AxisBoxView"><g class="HorizontalAxis" fill="#666" text-anchor="middle" font-size="16.2"><text x="52.6" y="556.5">1815</text><text x="174.7" y="556.5">1840</text><text x="272.4" y="556.5">1860</text><text x="370.1" y="556.5">1880</text><text x="467.8" y="556.5">1900</text><text x="565.5" y="556.5">1920</text><text x="663.2" y="556.5">1940</text><text x="707.2" y="556.5">1949</text></g><g class="VerticalAxis" fill="#666" dominant-baseline="middle" text-anchor="end" font-size="16.2"><text x="47.56" y="535.3">0%</text><text x="47.56" y="469.1">10%</text><text x="47.56" y="402.9">20%</text><text x="47.56" y="336.6">30%</text><text x="47.56" y="270.4">40%</text><text x="47.56" y="204.2">50%</text><text x="47.56" y="138">60%</text></g><g class="AxisGridLines"><path stroke="#ccc" d="M52.56 535.3h654.62"/><path stroke="#ddd" stroke-dasharray="3,2" d="M52.56 469.1h654.62M52.56 402.9h654.62M52.56 336.6h654.62M52.56 270.4h654.62M52.56 204.2h654.62M52.56 138h654.62"/></g><g class="AxisGridLines" stroke="#ddd" stroke-dasharray="3,2"><path d="M77 535.3V78.4M174.7 535.3V78.4M272.4 535.3V78.4M370.1 535.3V78.4M467.8 535.3V78.4M565.5 535.3V78.4M663.2 535.3V78.4"/></g></g><g clip-path="url(#a)"><g class="HeightedLegend clickable"><g class="legendMark"><path fill="#2a939b" d="M717.18 282.45h10v2.5h-10z"/><text font-size="14.4" x="732.2" y="288" fill="#333"><tspan x="732.18" y="288.02">United Kingdom</tspan></text></g><g class="legendMark"><path fill="#a652ba" d="M717.18 342.05h10v2.5h-10z"/><text font-size="14.4" x="732.2" y="347.6" fill="#333"><tspan x="732.18" y="347.62">Sweden</tspan></text></g><g class="legendMark"><path fill="#f6a324" d="M717.18 408.25h10v2.5h-10z"/><text font-size="14.4" x="732.2" y="413.8" fill="#333"><tspan x="732.18" y="413.82">France</tspan></text></g><g class="legendMark"><path fill="#34983f" d="M717.18 461.25h10v2.5h-10z"/><text font-size="14.4" x="732.2" y="466.8" fill="#333"><tspan x="732.18" y="466.82">Italy</tspan></text></g><g class="legendMark"><path fill="#ca2628" d="M717.18 475.65h10v2.5h-10z"/><text font-size="14.4" x="732.2" y="481.2" fill="#333"><tspan x="732.18" y="481.22">Germany</tspan></text></g><g class="legendMark"><path fill="#3360a9" d="M717.18 494.35h10v2.5h-10z"/><text font-size="14.4" x="732.2" y="499.9" fill="#333"><tspan x="732.18" y="499.92">Spain</tspan></text></g></g><g class="Lines"><g class="key-Sweden_0"><path stroke="#a652ba" stroke-linecap="round" d="M277 376l5 7h5l5-7 5-19 5 6 5-26h9l5-14 5-6 5-27h5l5-6 5 13h5l4-13 5 33 5 6 5-46 5 13 5-26 5-7 5 7 5-13 4 13 5-20 5-13 5-20 5 13 5 7 5 6 5 14 5 6 4 13 5-6h5l5 6h5l5-6 5 26 5-26h19l5 6 5 27h5l5 7 5-34 4-19 5 6 5 27 5-93 5 46 5 100 5 13 5-66 5-47 4 133 5-33 5-14 5-13 5 7 5-7 5-13h5l5-7 4 27 5 20 5 26 5-6 5-20h5l5-7 5-40 4 27 5-7 5 66 5 34 5 6 5 13 5 20 5-6 5-80 4-53 5 13 5 20" fill="none" stroke-width="1.5"/><g fill="#a652ba"><circle cx="277" cy="376" r="2"/><circle cx="282" cy="383" r="2"/><circle cx="287" cy="383" r="2"/><circle cx="292" cy="376" r="2"/><circle cx="297" cy="357" r="2"/><circle cx="302" cy="363" r="2"/><circle cx="307" cy="337" r="2"/><circle cx="312" cy="337" r="2"/><circle cx="316" cy="337" r="2"/><circle cx="321" cy="323" r="2"/><circle cx="326" cy="317" r="2"/><circle cx="331" cy="290" r="2"/><circle cx="336" cy="290" r="2"/><circle cx="341" cy="284" r="2"/><circle cx="346" cy="297" r="2"/><circle cx="351" cy="297" r="2"/><circle cx="355" cy="284" r="2"/><circle cx="360" cy="317" r="2"/><circle cx="365" cy="323" r="2"/><circle cx="370" cy="277" r="2"/><circle cx="375" cy="290" r="2"/><circle cx="380" cy="264" r="2"/><circle cx="385" cy="257" r="2"/><circle cx="390" cy="264" r="2"/><circle cx="395" cy="251" r="2"/><circle cx="399" cy="264" r="2"/><circle cx="404" cy="244" r="2"/><circle cx="409" cy="231" r="2"/><circle cx="414" cy="211" r="2"/><circle cx="419" cy="224" r="2"/><circle cx="424" cy="231" r="2"/><circle cx="429" cy="237" r="2"/><circle cx="434" cy="251" r="2"/><circle cx="439" cy="257" r="2"/><circle cx="443" cy="270" r="2"/><circle cx="448" cy="264" r="2"/><circle cx="453" cy="264" r="2"/><circle cx="458" cy="270" r="2"/><circle cx="463" cy="270" r="2"/><circle cx="468" cy="264" r="2"/><circle cx="473" cy="290" r="2"/><circle cx="478" cy="264" r="2"/><circle cx="483" cy="264" r="2"/><circle cx="487" cy="264" r="2"/><circle cx="492" cy="264" r="2"/><circle cx="497" cy="264" r="2"/><circle cx="502" cy="270" r="2"/><circle cx="507" cy="297" r="2"/><circle cx="512" cy="297" r="2"/><circle cx="517" cy="304" r="2"/><circle cx="522" cy="270" r="2"/><circle cx="526" cy="251" r="2"/><circle cx="531" cy="257" r="2"/><circle cx="536" cy="284" r="2"/><circle cx="541" cy="191" r="2"/><circle cx="546" cy="237" r="2"/><circle cx="551" cy="337" r="2"/><circle cx="556" cy="350" r="2"/><circle cx="561" cy="284" r="2"/><circle cx="566" cy="237" r="2"/><circle cx="570" cy="370" r="2"/><circle cx="575" cy="337" r="2"/><circle cx="580" cy="323" r="2"/><circle cx="585" cy="310" r="2"/><circle cx="590" cy="317" r="2"/><circle cx="595" cy="310" r="2"/><circle cx="600" cy="297" r="2"/><circle cx="605" cy="297" r="2"/><circle cx="610" cy="290" r="2"/><circle cx="614" cy="317" r="2"/><circle cx="619" cy="337" r="2"/><circle cx="624" cy="363" r="2"/><circle cx="629" cy="357" r="2"/><circle cx="634" cy="337" r="2"/><circle cx="639" cy="337" r="2"/><circle cx="644" cy="330" r="2"/><circle cx="649" cy="290" r="2"/><circle cx="653" cy="317" r="2"/><circle cx="658" cy="310" r="2"/><circle cx="663" cy="376" r="2"/><circle cx="668" cy="410" r="2"/><circle cx="673" cy="416" r="2"/><circle cx="678" cy="429" r="2"/><circle cx="683" cy="449" r="2"/><circle cx="688" cy="443" r="2"/><circle cx="693" cy="363" r="2"/><circle cx="697" cy="310" r="2"/><circle cx="702" cy="323" r="2"/><circle cx="707" cy="343" r="2"/></g></g><g class="key-Spain_0"><path stroke="#3360a9" stroke-linecap="round" d="M473 383l5 13 5-6h9l5 6 5 7 5 13 5 7 5-20 5-7 4-13 5-7 5 67 5-14 5 7 5-7 5 7 5-7 5-39 4 33h5l5-20h5l5 13 5 13h5l5-13 5-13 4-20 5 40 5 20 5 13h5l5-7 24 33 5 7h5l5-13h5l5 39 5-13 4-6h10" fill="none" stroke-width="1.5"/><g fill="#3360a9"><circle cx="473" cy="383" r="2"/><circle cx="478" cy="396" r="2"/><circle cx="483" cy="390" r="2"/><circle cx="487" cy="390" r="2"/><circle cx="492" cy="390" r="2"/><circle cx="497" cy="396" r="2"/><circle cx="502" cy="403" r="2"/><circle cx="507" cy="416" r="2"/><circle cx="512" cy="423" r="2"/><circle cx="517" cy="403" r="2"/><circle cx="522" cy="396" r="2"/><circle cx="526" cy="383" r="2"/><circle cx="531" cy="376" r="2"/><circle cx="536" cy="443" r="2"/><circle cx="541" cy="429" r="2"/><circle cx="546" cy="436" r="2"/><circle cx="551" cy="429" r="2"/><circle cx="556" cy="436" r="2"/><circle cx="561" cy="429" r="2"/><circle cx="566" cy="390" r="2"/><circle cx="570" cy="423" r="2"/><circle cx="575" cy="423" r="2"/><circle cx="580" cy="403" r="2"/><circle cx="585" cy="403" r="2"/><circle cx="590" cy="416" r="2"/><circle cx="595" cy="429" r="2"/><circle cx="600" cy="429" r="2"/><circle cx="605" cy="416" r="2"/><circle cx="610" cy="403" r="2"/><circle cx="614" cy="383" r="2"/><circle cx="619" cy="423" r="2"/><circle cx="624" cy="443" r="2"/><circle cx="629" cy="456" r="2"/><circle cx="634" cy="456" r="2"/><circle cx="639" cy="449" r="2"/><circle cx="663" cy="482" r="2"/><circle cx="668" cy="489" r="2"/><circle cx="673" cy="489" r="2"/><circle cx="678" cy="476" r="2"/><circle cx="683" cy="476" r="2"/><circle cx="688" cy="515" r="2"/><circle cx="693" cy="502" r="2"/><circle cx="697" cy="496" r="2"/><circle cx="702" cy="496" r="2"/><circle cx="707" cy="496" r="2"/></g></g><g class="key-Italy_0"><path stroke="#34983f" stroke-linecap="round" d="M468 383h5l5-13 5 6 4-6 5-7 5-20 5 7h10l5-13 5 13 4-13 5 6 5 27 5-40 5-33 5-33 5 26 5 14 5-40 4 99 5 20 5-7 5-26 5-13 5 13 5 13h10l4 13 5 27 5 40h5l5 6 5 7 5 13 5-46 4 20 5 6h5l5 14h5" fill="none" stroke-width="1.5"/><g fill="#34983f"><circle cx="468" cy="383" r="2"/><circle cx="473" cy="383" r="2"/><circle cx="478" cy="370" r="2"/><circle cx="483" cy="376" r="2"/><circle cx="487" cy="370" r="2"/><circle cx="492" cy="363" r="2"/><circle cx="497" cy="343" r="2"/><circle cx="502" cy="350" r="2"/><circle cx="507" cy="350" r="2"/><circle cx="512" cy="350" r="2"/><circle cx="517" cy="337" r="2"/><circle cx="522" cy="350" r="2"/><circle cx="526" cy="337" r="2"/><circle cx="531" cy="343" r="2"/><circle cx="536" cy="370" r="2"/><circle cx="541" cy="330" r="2"/><circle cx="546" cy="297" r="2"/><circle cx="551" cy="264" r="2"/><circle cx="556" cy="290" r="2"/><circle cx="561" cy="304" r="2"/><circle cx="566" cy="264" r="2"/><circle cx="570" cy="363" r="2"/><circle cx="575" cy="383" r="2"/><circle cx="580" cy="376" r="2"/><circle cx="585" cy="350" r="2"/><circle cx="590" cy="337" r="2"/><circle cx="595" cy="350" r="2"/><circle cx="600" cy="363" r="2"/><circle cx="605" cy="363" r="2"/><circle cx="610" cy="363" r="2"/><circle cx="614" cy="376" r="2"/><circle cx="619" cy="403" r="2"/><circle cx="624" cy="443" r="2"/><circle cx="629" cy="443" r="2"/><circle cx="634" cy="449" r="2"/><circle cx="639" cy="456" r="2"/><circle cx="644" cy="469" r="2"/><circle cx="649" cy="423" r="2"/><circle cx="653" cy="443" r="2"/><circle cx="658" cy="449" r="2"/><circle cx="663" cy="449" r="2"/><circle cx="668" cy="463" r="2"/><circle cx="673" cy="463" r="2"/></g></g><g class="key-Germany_0"><path stroke="#ca2628" stroke-linecap="round" d="M370 310l5-6 5-7h5l5 7 5 26h4l5-7 5 7 5-7h10l5 20h5l5 7 4-7h10l5-13 5 7 5-14 5 7 5-7h9l5-6 5-13 5-7 5 20 5-7 5-13 5-7 4-6 5-14 59 53 5 7h10l5-20 4 20 5 20 5 53 5 26 5 20 5 7 5 7 5-14 4 14" fill="none" stroke-width="1.5"/><g fill="#ca2628"><circle cx="370" cy="310" r="2"/><circle cx="375" cy="304" r="2"/><circle cx="380" cy="297" r="2"/><circle cx="385" cy="297" r="2"/><circle cx="390" cy="304" r="2"/><circle cx="395" cy="330" r="2"/><circle cx="399" cy="330" r="2"/><circle cx="404" cy="323" r="2"/><circle cx="409" cy="330" r="2"/><circle cx="414" cy="323" r="2"/><circle cx="419" cy="323" r="2"/><circle cx="424" cy="323" r="2"/><circle cx="429" cy="343" r="2"/><circle cx="434" cy="343" r="2"/><circle cx="439" cy="350" r="2"/><circle cx="443" cy="343" r="2"/><circle cx="448" cy="343" r="2"/><circle cx="453" cy="343" r="2"/><circle cx="458" cy="330" r="2"/><circle cx="463" cy="337" r="2"/><circle cx="468" cy="323" r="2"/><circle cx="473" cy="330" r="2"/><circle cx="478" cy="323" r="2"/><circle cx="483" cy="323" r="2"/><circle cx="487" cy="323" r="2"/><circle cx="492" cy="317" r="2"/><circle cx="497" cy="304" r="2"/><circle cx="502" cy="297" r="2"/><circle cx="507" cy="317" r="2"/><circle cx="512" cy="310" r="2"/><circle cx="517" cy="297" r="2"/><circle cx="522" cy="290" r="2"/><circle cx="526" cy="284" r="2"/><circle cx="531" cy="270" r="2"/><circle cx="590" cy="323" r="2"/><circle cx="595" cy="330" r="2"/><circle cx="600" cy="330" r="2"/><circle cx="605" cy="330" r="2"/><circle cx="610" cy="310" r="2"/><circle cx="614" cy="330" r="2"/><circle cx="619" cy="350" r="2"/><circle cx="624" cy="403" r="2"/><circle cx="629" cy="429" r="2"/><circle cx="634" cy="449" r="2"/><circle cx="639" cy="456" r="2"/><circle cx="644" cy="463" r="2"/><circle cx="649" cy="449" r="2"/><circle cx="653" cy="463" r="2"/></g></g><g class="key-France_0"><path stroke="#f6a324" stroke-linecap="round" d="M53 482l4-6 5 6 5-6h5l5-7 5 7h5l5 13 5-13 4-20 5 20h15l5 6 5 7 5-13h14l5-7 5 7 5-7 5-6h19l5-7h10l5 13 5 7 5-20 5-7 4-6h5l5-20 5 13 5-13 5-13h10l5-20 4 13 5-7 5 7 5-20 5-13 5-13 5 6h5l5 13 4-6 5 6 5-19 5-14 5-6 5 13h5l5-20 4 20 5-7 5-33 5 7 5 6 5 14h5l5 6h5l4-6 5 6h10l5 7h5l5 7 5 13 5 6 4-13 5 7h10l5-13h24l5-14 5-13h5l5 13 5-6 5-20 5 13 4 7 5-7 35-86 4 79 5 20 5-33 5-26 5 13 5-7 5 14 5 19 5 7 4 13 5 33 5 34h5l5 6h5l5 7 5-13h58" fill="none" stroke-width="1.5"/><g fill="#f6a324"><circle cx="53" cy="482" r="2"/><circle cx="57" cy="476" r="2"/><circle cx="62" cy="482" r="2"/><circle cx="67" cy="476" r="2"/><circle cx="72" cy="476" r="2"/><circle cx="77" cy="469" r="2"/><circle cx="82" cy="476" r="2"/><circle cx="87" cy="476" r="2"/><circle cx="92" cy="489" r="2"/><circle cx="97" cy="476" r="2"/><circle cx="101" cy="456" r="2"/><circle cx="106" cy="476" r="2"/><circle cx="111" cy="476" r="2"/><circle cx="116" cy="476" r="2"/><circle cx="121" cy="476" r="2"/><circle cx="126" cy="482" r="2"/><circle cx="131" cy="489" r="2"/><circle cx="136" cy="476" r="2"/><circle cx="141" cy="476" r="2"/><circle cx="145" cy="476" r="2"/><circle cx="150" cy="476" r="2"/><circle cx="155" cy="469" r="2"/><circle cx="160" cy="476" r="2"/><circle cx="165" cy="469" r="2"/><circle cx="170" cy="463" r="2"/><circle cx="175" cy="463" r="2"/><circle cx="180" cy="463" r="2"/><circle cx="185" cy="463" r="2"/><circle cx="189" cy="463" r="2"/><circle cx="194" cy="456" r="2"/><circle cx="199" cy="456" r="2"/><circle cx="204" cy="456" r="2"/><circle cx="209" cy="469" r="2"/><circle cx="214" cy="476" r="2"/><circle cx="219" cy="456" r="2"/><circle cx="224" cy="449" r="2"/><circle cx="228" cy="443" r="2"/><circle cx="233" cy="443" r="2"/><circle cx="238" cy="423" r="2"/><circle cx="243" cy="436" r="2"/><circle cx="248" cy="423" r="2"/><circle cx="253" cy="410" r="2"/><circle cx="258" cy="410" r="2"/><circle cx="263" cy="410" r="2"/><circle cx="268" cy="390" r="2"/><circle cx="272" cy="403" r="2"/><circle cx="277" cy="396" r="2"/><circle cx="282" cy="403" r="2"/><circle cx="287" cy="383" r="2"/><circle cx="292" cy="370" r="2"/><circle cx="297" cy="357" r="2"/><circle cx="302" cy="363" r="2"/><circle cx="307" cy="363" r="2"/><circle cx="312" cy="376" r="2"/><circle cx="316" cy="370" r="2"/><circle cx="321" cy="376" r="2"/><circle cx="326" cy="357" r="2"/><circle cx="331" cy="343" r="2"/><circle cx="336" cy="337" r="2"/><circle cx="341" cy="350" r="2"/><circle cx="346" cy="350" r="2"/><circle cx="351" cy="330" r="2"/><circle cx="355" cy="350" r="2"/><circle cx="360" cy="343" r="2"/><circle cx="365" cy="310" r="2"/><circle cx="370" cy="317" r="2"/><circle cx="375" cy="323" r="2"/><circle cx="380" cy="337" r="2"/><circle cx="385" cy="337" r="2"/><circle cx="390" cy="343" r="2"/><circle cx="395" cy="343" r="2"/><circle cx="399" cy="337" r="2"/><circle cx="404" cy="343" r="2"/><circle cx="409" cy="343" r="2"/><circle cx="414" cy="343" r="2"/><circle cx="419" cy="350" r="2"/><circle cx="424" cy="350" r="2"/><circle cx="429" cy="357" r="2"/><circle cx="434" cy="370" r="2"/><circle cx="439" cy="376" r="2"/><circle cx="443" cy="363" r="2"/><circle cx="448" cy="370" r="2"/><circle cx="453" cy="370" r="2"/><circle cx="458" cy="370" r="2"/><circle cx="463" cy="357" r="2"/><circle cx="468" cy="357" r="2"/><circle cx="473" cy="357" r="2"/><circle cx="478" cy="357" r="2"/><circle cx="483" cy="357" r="2"/><circle cx="487" cy="357" r="2"/><circle cx="492" cy="343" r="2"/><circle cx="497" cy="330" r="2"/><circle cx="502" cy="330" r="2"/><circle cx="507" cy="343" r="2"/><circle cx="512" cy="337" r="2"/><circle cx="517" cy="317" r="2"/><circle cx="522" cy="330" r="2"/><circle cx="526" cy="337" r="2"/><circle cx="531" cy="330" r="2"/><circle cx="566" cy="244" r="2"/><circle cx="570" cy="323" r="2"/><circle cx="575" cy="343" r="2"/><circle cx="580" cy="310" r="2"/><circle cx="585" cy="284" r="2"/><circle cx="590" cy="297" r="2"/><circle cx="595" cy="290" r="2"/><circle cx="600" cy="304" r="2"/><circle cx="605" cy="323" r="2"/><circle cx="610" cy="330" r="2"/><circle cx="614" cy="343" r="2"/><circle cx="619" cy="376" r="2"/><circle cx="624" cy="410" r="2"/><circle cx="629" cy="410" r="2"/><circle cx="634" cy="416" r="2"/><circle cx="639" cy="416" r="2"/><circle cx="644" cy="423" r="2"/><circle cx="649" cy="410" r="2"/><circle cx="653" cy="410" r="2"/><circle cx="707" cy="410" r="2"/></g></g><g class="key-United-Kingdom_0"><path stroke="#2a939b" stroke-linecap="round" d="M126 383l5-7 5 7 5-20h9l5-20 5 27 5-13 5-7 5-13h5l5 6h14l5 14 5-20 5 26 5-26 5-33h9l5-40 5 13 5 13 5-39 5-14 5 14 5-7 4-33 5 20 5-7 5 13 5-46 5 13 5-13 5 13 5-126 4 113 5 7 5-20 5-13 5 13 5 20 5-14h5l4-19 5 39 5-46 5 20 5-20 5-7 5 14 5 19 5 7 4 13 5-6 5-20 5-13 5 6 5 13 5 14 5 6 5 14 4-7h10l5 13 5 7 5-20 5 26 5-13 5-13h4l5-7 5-33 5-20 5 33 5-6 5-33 5 13 4-27 5 7 5 60 5 39h5l5 47 5 20 5-80 5-73 4 119 5-26 5-40 5-39 5 19 5 14 5 6 5 7 5 7 4 52 5 53 5 120 5-100h10l5-13 5-26 4 39 5 20 5 13 5 27 5 7 5-40 5-33 5 46 5-20 4-40 5-26 5-13" fill="none" stroke-width="1.5"/><g fill="#2a939b"><circle cx="126" cy="383" r="2"/><circle cx="131" cy="376" r="2"/><circle cx="136" cy="383" r="2"/><circle cx="141" cy="363" r="2"/><circle cx="145" cy="363" r="2"/><circle cx="150" cy="363" r="2"/><circle cx="155" cy="343" r="2"/><circle cx="160" cy="370" r="2"/><circle cx="165" cy="357" r="2"/><circle cx="170" cy="350" r="2"/><circle cx="175" cy="337" r="2"/><circle cx="180" cy="337" r="2"/><circle cx="185" cy="343" r="2"/><circle cx="189" cy="343" r="2"/><circle cx="194" cy="343" r="2"/><circle cx="199" cy="343" r="2"/><circle cx="204" cy="357" r="2"/><circle cx="209" cy="337" r="2"/><circle cx="214" cy="363" r="2"/><circle cx="219" cy="337" r="2"/><circle cx="224" cy="304" r="2"/><circle cx="228" cy="304" r="2"/><circle cx="233" cy="304" r="2"/><circle cx="238" cy="264" r="2"/><circle cx="243" cy="277" r="2"/><circle cx="248" cy="290" r="2"/><circle cx="253" cy="251" r="2"/><circle cx="258" cy="237" r="2"/><circle cx="263" cy="251" r="2"/><circle cx="268" cy="244" r="2"/><circle cx="272" cy="211" r="2"/><circle cx="277" cy="231" r="2"/><circle cx="282" cy="224" r="2"/><circle cx="287" cy="237" r="2"/><circle cx="292" cy="191" r="2"/><circle cx="297" cy="204" r="2"/><circle cx="302" cy="191" r="2"/><circle cx="307" cy="204" r="2"/><circle cx="312" cy="78" r="2"/><circle cx="316" cy="191" r="2"/><circle cx="321" cy="198" r="2"/><circle cx="326" cy="178" r="2"/><circle cx="331" cy="165" r="2"/><circle cx="336" cy="178" r="2"/><circle cx="341" cy="198" r="2"/><circle cx="346" cy="184" r="2"/><circle cx="351" cy="184" r="2"/><circle cx="355" cy="165" r="2"/><circle cx="360" cy="204" r="2"/><circle cx="365" cy="158" r="2"/><circle cx="370" cy="178" r="2"/><circle cx="375" cy="158" r="2"/><circle cx="380" cy="151" r="2"/><circle cx="385" cy="165" r="2"/><circle cx="390" cy="184" r="2"/><circle cx="395" cy="191" r="2"/><circle cx="399" cy="204" r="2"/><circle cx="404" cy="198" r="2"/><circle cx="409" cy="178" r="2"/><circle cx="414" cy="165" r="2"/><circle cx="419" cy="171" r="2"/><circle cx="424" cy="184" r="2"/><circle cx="429" cy="198" r="2"/><circle cx="434" cy="204" r="2"/><circle cx="439" cy="218" r="2"/><circle cx="443" cy="211" r="2"/><circle cx="448" cy="211" r="2"/><circle cx="453" cy="211" r="2"/><circle cx="458" cy="224" r="2"/><circle cx="463" cy="231" r="2"/><circle cx="468" cy="211" r="2"/><circle cx="473" cy="237" r="2"/><circle cx="478" cy="224" r="2"/><circle cx="483" cy="211" r="2"/><circle cx="487" cy="211" r="2"/><circle cx="492" cy="204" r="2"/><circle cx="497" cy="171" r="2"/><circle cx="502" cy="151" r="2"/><circle cx="507" cy="184" r="2"/><circle cx="512" cy="178" r="2"/><circle cx="517" cy="145" r="2"/><circle cx="522" cy="158" r="2"/><circle cx="526" cy="131" r="2"/><circle cx="531" cy="138" r="2"/><circle cx="536" cy="198" r="2"/><circle cx="541" cy="237" r="2"/><circle cx="546" cy="237" r="2"/><circle cx="551" cy="284" r="2"/><circle cx="556" cy="304" r="2"/><circle cx="561" cy="224" r="2"/><circle cx="566" cy="151" r="2"/><circle cx="570" cy="270" r="2"/><circle cx="575" cy="244" r="2"/><circle cx="580" cy="204" r="2"/><circle cx="585" cy="165" r="2"/><circle cx="590" cy="184" r="2"/><circle cx="595" cy="198" r="2"/><circle cx="600" cy="204" r="2"/><circle cx="605" cy="211" r="2"/><circle cx="610" cy="218" r="2"/><circle cx="614" cy="270" r="2"/><circle cx="619" cy="323" r="2"/><circle cx="624" cy="443" r="2"/><circle cx="629" cy="343" r="2"/><circle cx="634" cy="343" r="2"/><circle cx="639" cy="343" r="2"/><circle cx="644" cy="330" r="2"/><circle cx="649" cy="304" r="2"/><circle cx="653" cy="343" r="2"/><circle cx="658" cy="363" r="2"/><circle cx="663" cy="376" r="2"/><circle cx="668" cy="403" r="2"/><circle cx="673" cy="410" r="2"/><circle cx="678" cy="370" r="2"/><circle cx="683" cy="337" r="2"/><circle cx="688" cy="383" r="2"/><circle cx="693" cy="363" r="2"/><circle cx="697" cy="323" r="2"/><circle cx="702" cy="297" r="2"/><circle cx="707" cy="284" r="2"/></g></g></g></g></g><g class="SourcesFooter" fill="#777"><g class="clickable" fill="#777"><text font-size="12.6" x="15" y="581.6"><tspan x="15" y="581.58">Source: International Historical Statistics - Brian Mitchell (2015)</tspan></text></g><text font-size="12.6" x="543.6" y="581.6"><tspan x="543.56" y="581.58"><a target="_blank" href="https://ourworldindata.org/international-trade" fill="#777">OurWorldInData.org/international-trade</a> • <a href="http://creativecommons.org/licenses/by-sa/4.0/deed.en_US" target="_blank" fill="#777">CC BY-SA</a></tspan></text></g></g></svg>