<svg xmlns="http://www.w3.org/2000/svg" version="1.1" style="background-color:#fff;-webkit-font-smoothing:antialiased" width="850" height="600" font-family="'Helvetica Neue',Helvetica,Arial,sans-serif" font-size="18" text-rendering="optimizeLegibility"><g class="ChartTab"><g class="HeaderView"><g opacity=".8" transform="matrix(.27 0 0 .27 778 15)"><a xmlns:xlink="http://www.w3.org/1999/xlink" xlink:href="https://ourworldindata.org" target="_blank"><g><path fill="#1B2543" d="M0 0h211.2v130.1H0z"/><path fill="#E63912" d="M0 112.2h211.2v17.9H0z"/><g><path fill="none" d="M1.2 12.3h210.2v99.2H1.2z"/><path fill="#FFF" d="M37.8 32.2c0 12.7-7.7 19.4-17.1 19.4-9.7 0-16.6-7.5-16.6-18.7 0-11.7 7.3-19.3 17.1-19.3 10.1.1 16.6 7.7 16.6 18.6zm-28.6.6c0 7.9 4.3 14.9 11.8 14.9 7.5 0 11.8-6.9 11.8-15.3 0-7.3-3.8-14.9-11.8-14.9-7.9 0-11.8 7.3-11.8 15.3zM62.7 43.8c0 2.7.1 5.1.2 7.2h-4.3l-.3-4.3h-.1c-1.3 2.1-4 4.9-8.8 4.9-4.2 0-9.1-2.3-9.1-11.6V24.6h4.8v14.6c0 5 1.5 8.4 5.9 8.4 3.2 0 5.5-2.2 6.3-4.4.3-.7.4-1.6.4-2.5V24.6h4.8v19.2zM67.3 32.8c0-3.1-.1-5.8-.2-8.2h4.2l.2 5.2h.2c1.2-3.5 4.1-5.8 7.3-5.8.5 0 .9.1 1.4.2v4.5c-.5-.1-1-.2-1.6-.2-3.4 0-5.8 2.6-6.5 6.2-.1.7-.2 1.4-.2 2.2V51h-4.8V32.8zM95.4 51L86 14.2h5l4.4 18.6c1.1 4.6 2.1 9.2 2.7 12.7h.1c.6-3.7 1.8-8 3-12.8l4.9-18.5h5l4.5 18.7c1 4.4 2 8.7 2.6 12.6h.1c.8-4 1.8-8.1 3-12.7l4.9-18.5h4.9L120.6 51h-5L111 31.9c-1.1-4.7-1.9-8.3-2.4-12h-.1c-.7 3.7-1.5 7.3-2.8 12L100.4 51h-5zM154.9 37.6c0 9.8-6.8 14-13.2 14-7.2 0-12.7-5.2-12.7-13.6 0-8.8 5.8-14 13.1-14 7.7 0 12.8 5.5 12.8 13.6zm-21 .3c0 5.8 3.3 10.1 8 10.1 4.6 0 8-4.3 8-10.3 0-4.5-2.2-10.1-7.9-10.1s-8.1 5.2-8.1 10.3zM158.2 32.8c0-3.1-.1-5.8-.2-8.2h4.2l.2 5.2h.2c1.2-3.5 4.1-5.8 7.3-5.8.5 0 .9.1 1.4.2v4.5c-.5-.1-1-.2-1.6-.2-3.4 0-5.8 2.6-6.5 6.2-.1.7-.2 1.4-.2 2.2V51h-4.8V32.8zM173.5 12.3h4.8V51h-4.8V12.3zM206.5 12.3v31.9c0 2.3.1 5 .2 6.8h-4.3l-.2-4.6h-.2c-1.5 2.9-4.7 5.2-9 5.2-6.4 0-11.3-5.4-11.3-13.4-.1-8.8 5.4-14.2 11.9-14.2 4 0 6.8 1.9 8 4h.1V12.3h4.8zm-4.8 23.1c0-.6-.1-1.4-.2-2a7 7 0 00-6.9-5.6c-5 0-7.9 4.4-7.9 10.2 0 5.3 2.6 9.8 7.8 9.8 3.2 0 6.2-2.1 7.1-5.7.2-.7.2-1.3.2-2.1v-4.6zM42.8 64c.1 1.6-1.1 2.9-3.1 2.9-1.7 0-2.9-1.3-2.9-2.9 0-1.7 1.3-3 3-3 1.9 0 3 1.3 3 3zm-5.4 33.8V71.4h4.8v26.4h-4.8zM47.5 78.6c0-2.7-.1-5-.2-7.1h4.3l.3 4.4h.1c1.3-2.5 4.4-5 8.8-5 3.7 0 9.4 2.2 9.4 11.2v15.8h-4.8V82.6c0-4.3-1.6-7.8-6.1-7.8-3.2 0-5.6 2.2-6.5 4.9-.2.6-.3 1.4-.3 2.2v15.9h-4.8V78.6zM84 61.6c2.9-.4 6.3-.8 10.1-.8 6.8 0 11.7 1.6 14.9 4.6 3.3 3 5.2 7.3 5.2 13.2 0 6-1.9 10.9-5.3 14.3-3.4 3.4-9.1 5.3-16.3 5.3-3.4 0-6.2-.2-8.6-.4V61.6zm4.8 32.5c1.2.2 3 .3 4.8.3 10.2 0 15.7-5.7 15.7-15.6.1-8.7-4.9-14.2-14.9-14.2-2.5 0-4.3.2-5.6.5v29zM132.1 97.8l-.4-3.3h-.2a9.79 9.79 0 01-8.1 3.9c-5.4 0-8.1-3.8-8.1-7.6 0-6.4 5.7-9.9 15.9-9.8v-.5c0-2.2-.6-6.1-6-6.1-2.5 0-5 .8-6.9 2l-1.1-3.2c2.2-1.4 5.4-2.3 8.7-2.3 8.1 0 10.1 5.5 10.1 10.8v9.9c0 2.3.1 4.5.4 6.3h-4.3zm-.7-13.4c-5.3-.1-11.2.8-11.2 5.9 0 3.1 2.1 4.6 4.5 4.6 3.4 0 5.6-2.2 6.4-4.4.2-.5.3-1 .3-1.5v-4.6zM146.6 63.9v7.6h6.9v3.7h-6.9v14.2c0 3.3.9 5.1 3.6 5.1 1.3 0 2.2-.2 2.8-.3l.2 3.6c-.9.4-2.4.7-4.3.7-2.2 0-4-.7-5.2-2-1.4-1.4-1.9-3.8-1.9-6.9V75.1h-4.1v-3.7h4.1v-6.3l4.8-1.2zM171.4 97.8l-.4-3.3h-.2a9.79 9.79 0 01-8.1 3.9c-5.4 0-8.1-3.8-8.1-7.6 0-6.4 5.7-9.9 15.9-9.8v-.5c0-2.2-.6-6.1-6-6.1-2.5 0-5 .8-6.9 2l-1.1-3.2c2.2-1.4 5.4-2.3 8.7-2.3 8.1 0 10.1 5.5 10.1 10.8v9.9c0 2.3.1 4.5.4 6.3h-4.3zm-.7-13.4c-5.3-.1-11.2.8-11.2 5.9 0 3.1 2.1 4.6 4.5 4.6 3.4 0 5.6-2.2 6.4-4.4.2-.5.3-1 .3-1.5v-4.6z"/></g></g></a></g><a href="https://ourworldindata.org/grapher/unusually-high-precipitation-usa" target="_blank"><text font-size="22.5" x="15" y="33" fill="#555"><tspan x="15" y="33">Share of land area with unusually high annual precipitation, United States</tspan></text></a><text font-size="14.4" x="15" y="51" fill="#666"><tspan x="15" y="51.02">Share of land area in the United States which experienced unusually high annual precipitation in a given year.</tspan><tspan x="15" y="66.86">Unusually high precipitation is measured based on the Standardized Precipitation Index (SPI) which compares actual</tspan><tspan x="15" y="82.7">yearly precipitation totals with the range of precipitation totals that one would typically expect at a specific location,</tspan><tspan x="15" y="98.54">based on historical data. Unusually high precipitation has a SPI value greater than 2.0.</tspan></text></g><g class="LineChart"><defs><clipPath id="a"><path d="M42.56 0h830v872.2h-830z"/></clipPath></defs><g class="AxisBoxView"><g class="HorizontalAxis" fill="#666" text-anchor="middle" font-size="16.2"><text x="52.6" y="556.5">1895</text><text x="164.5" y="556.5">1920</text><text x="254" y="556.5">1940</text><text x="343.6" y="556.5">1960</text><text x="433.1" y="556.5">1980</text><text x="522.6" y="556.5">2000</text><text x="589.8" y="556.5">2015</text></g><g class="VerticalAxis" fill="#666" dominant-baseline="middle" text-anchor="end" font-size="16.2"><text x="47.56" y="535.3">0%</text><text x="47.56" y="446.2">5%</text><text x="47.56" y="357.1">10%</text><text x="47.56" y="268">15%</text><text x="47.56" y="178.9">20%</text></g><g class="AxisGridLines"><path stroke="#ccc" d="M52.56 535.3H589.8"/><path stroke="#ddd" stroke-dasharray="3,2" d="M52.56 446.2H589.8M52.56 357.1H589.8M52.56 268H589.8M52.56 178.9H589.8"/></g></g><g clip-path="url(#a)"><g class="HeightedLegend clickable"><g class="legendMark"><text font-size="13.5" x="594.8" y="394.4" fill="#ca2628"><tspan x="594.8" y="394.35">Unusually high annual precipitation</tspan></text></g><g class="legendMark"><text font-size="13.5" x="594.8" y="437.1" fill="#3360a9"><tspan x="594.8" y="437.05">9-year average</tspan></text></g></g><g class="Lines"><g class="key-United-States_0"><path stroke="#ca2628" stroke-linecap="round" d="M53 535l4-18 5-4 4 22 5-2 4-7 4-12 5 6 4 12 5 3 4-116 5 63 4 25 5 10 4-24 5 42 4-3 5-2 4 5 5-11 4-123 5 130 4 4h5l4-69 5 67 4 2 4-12 5-91 4 103h9l5-137 4 119 5-45 4 63h5l4-4 5-9 4 13 5-11 4 2 5-9 4-3 5 21 4-8 5-407 4 394 5 21 4-6 4-43 5 47 4-53 5 8 4 47 5-56 4-15 5 71 4-11 5-9 4 20 5-4 4-123 5 127 4-29 5 21 4-22 5 22 4 8 5-82 4 39 4 43 5-1 4-25 5 26 4-3 5 3 4-47 5-86 4 133 5-81 4 75 5-42 4-94 5 83 4 59h5l4-47 5-288 4 335 5-24 4-20 4 44h5l4-32 5-44 4 8 5 48 4-114 5 134 4-47 5-130 4 167 5-123 4 117 5 16h9l4-72 5-12 4 59 5 6 4-24 5-35 4 21 4-13 5-124 4 187 5-67 4 70 5-141" fill="none" stroke-width="1.5"/><g fill="#ca2628"><circle cx="53" cy="535" r="2"/><circle cx="57" cy="517" r="2"/><circle cx="62" cy="513" r="2"/><circle cx="66" cy="535" r="2"/><circle cx="71" cy="533" r="2"/><circle cx="75" cy="526" r="2"/><circle cx="79" cy="514" r="2"/><circle cx="84" cy="520" r="2"/><circle cx="88" cy="532" r="2"/><circle cx="93" cy="535" r="2"/><circle cx="97" cy="419" r="2"/><circle cx="102" cy="482" r="2"/><circle cx="106" cy="507" r="2"/><circle cx="111" cy="517" r="2"/><circle cx="115" cy="493" r="2"/><circle cx="120" cy="535" r="2"/><circle cx="124" cy="532" r="2"/><circle cx="129" cy="530" r="2"/><circle cx="133" cy="535" r="2"/><circle cx="138" cy="524" r="2"/><circle cx="142" cy="401" r="2"/><circle cx="147" cy="531" r="2"/><circle cx="151" cy="535" r="2"/><circle cx="156" cy="535" r="2"/><circle cx="160" cy="466" r="2"/><circle cx="165" cy="533" r="2"/><circle cx="169" cy="535" r="2"/><circle cx="173" cy="523" r="2"/><circle cx="178" cy="432" r="2"/><circle cx="182" cy="535" r="2"/><circle cx="187" cy="535" r="2"/><circle cx="191" cy="535" r="2"/><circle cx="196" cy="398" r="2"/><circle cx="200" cy="517" r="2"/><circle cx="205" cy="472" r="2"/><circle cx="209" cy="535" r="2"/><circle cx="214" cy="535" r="2"/><circle cx="218" cy="531" r="2"/><circle cx="223" cy="522" r="2"/><circle cx="227" cy="535" r="2"/><circle cx="232" cy="524" r="2"/><circle cx="236" cy="526" r="2"/><circle cx="241" cy="517" r="2"/><circle cx="245" cy="514" r="2"/><circle cx="250" cy="535" r="2"/><circle cx="254" cy="527" r="2"/><circle cx="259" cy="120" r="2"/><circle cx="263" cy="514" r="2"/><circle cx="268" cy="535" r="2"/><circle cx="272" cy="529" r="2"/><circle cx="276" cy="486" r="2"/><circle cx="281" cy="533" r="2"/><circle cx="285" cy="480" r="2"/><circle cx="290" cy="488" r="2"/><circle cx="294" cy="535" r="2"/><circle cx="299" cy="479" r="2"/><circle cx="303" cy="464" r="2"/><circle cx="308" cy="535" r="2"/><circle cx="312" cy="524" r="2"/><circle cx="317" cy="515" r="2"/><circle cx="321" cy="535" r="2"/><circle cx="326" cy="531" r="2"/><circle cx="330" cy="408" r="2"/><circle cx="335" cy="535" r="2"/><circle cx="339" cy="506" r="2"/><circle cx="344" cy="527" r="2"/><circle cx="348" cy="505" r="2"/><circle cx="353" cy="527" r="2"/><circle cx="357" cy="535" r="2"/><circle cx="362" cy="453" r="2"/><circle cx="366" cy="492" r="2"/><circle cx="370" cy="535" r="2"/><circle cx="375" cy="534" r="2"/><circle cx="379" cy="509" r="2"/><circle cx="384" cy="535" r="2"/><circle cx="388" cy="532" r="2"/><circle cx="393" cy="535" r="2"/><circle cx="397" cy="488" r="2"/><circle cx="402" cy="402" r="2"/><circle cx="406" cy="535" r="2"/><circle cx="411" cy="454" r="2"/><circle cx="415" cy="529" r="2"/><circle cx="420" cy="487" r="2"/><circle cx="424" cy="393" r="2"/><circle cx="429" cy="476" r="2"/><circle cx="433" cy="535" r="2"/><circle cx="438" cy="535" r="2"/><circle cx="442" cy="488" r="2"/><circle cx="447" cy="200" r="2"/><circle cx="451" cy="535" r="2"/><circle cx="456" cy="511" r="2"/><circle cx="460" cy="491" r="2"/><circle cx="464" cy="535" r="2"/><circle cx="469" cy="535" r="2"/><circle cx="473" cy="503" r="2"/><circle cx="478" cy="459" r="2"/><circle cx="482" cy="467" r="2"/><circle cx="487" cy="515" r="2"/><circle cx="491" cy="401" r="2"/><circle cx="496" cy="535" r="2"/><circle cx="500" cy="488" r="2"/><circle cx="505" cy="358" r="2"/><circle cx="509" cy="525" r="2"/><circle cx="514" cy="402" r="2"/><circle cx="518" cy="519" r="2"/><circle cx="523" cy="535" r="2"/><circle cx="527" cy="535" r="2"/><circle cx="532" cy="535" r="2"/><circle cx="536" cy="463" r="2"/><circle cx="541" cy="451" r="2"/><circle cx="545" cy="510" r="2"/><circle cx="550" cy="516" r="2"/><circle cx="554" cy="492" r="2"/><circle cx="559" cy="457" r="2"/><circle cx="563" cy="478" r="2"/><circle cx="567" cy="465" r="2"/><circle cx="572" cy="341" r="2"/><circle cx="576" cy="528" r="2"/><circle cx="581" cy="461" r="2"/><circle cx="585" cy="531" r="2"/><circle cx="590" cy="390" r="2"/></g></g><g class="key-United-States_1"><path stroke="#3360a9" stroke-linecap="round" d="M53 529l4-4h5l4 1 5 1 4-2 4-2 5-2 4-7 5-14 4-13 5-2 4 9 5 11 4 9 5 8 4 5 5-1 4-9 5-15 4-7 5 6 4 11 5 3 4-1 5 1 4-2 4-6 5-3 4 3 5 1 4-10 5-12h4l5 13 4 15 5 11 4 4h5l4-1 5-2 4-3 5-3 4-10 5-29 4-44 5-23 4 21 5 43 4 27 4 5 5-4 4-4 5-2 4-1 5-2 4 3 5 9 4 9 5 2 4-6 5-11 4-8 5 3 4 10 5 7 4 2 5-3 4-7 5-6 4 3 4 9 5 9 4 3 5 1 4-4 5-14 4-18 5-11 4 2 5 5 4-2 5-10 4-4 5 10 4 10 5-13 4-31 5-17 4 18 5 34 4 25 4 9 5-3 4-12 5-14 4-9 5-3 4-1 5-2 4-8 5-8 4 2 5 15 4 23 5 19 4 5 5-11 4-15 5-6 4 3 5 3 4-6 5-12 4-15 4-12 5-1 4 12 5 9 4-10 5-25" fill="none" stroke-width="1.5"/><g fill="#3360a9"><circle cx="53" cy="529" r="2"/><circle cx="57" cy="525" r="2"/><circle cx="62" cy="525" r="2"/><circle cx="66" cy="526" r="2"/><circle cx="71" cy="527" r="2"/><circle cx="75" cy="525" r="2"/><circle cx="79" cy="523" r="2"/><circle cx="84" cy="521" r="2"/><circle cx="88" cy="514" r="2"/><circle cx="93" cy="500" r="2"/><circle cx="97" cy="487" r="2"/><circle cx="102" cy="485" r="2"/><circle cx="106" cy="494" r="2"/><circle cx="111" cy="505" r="2"/><circle cx="115" cy="514" r="2"/><circle cx="120" cy="522" r="2"/><circle cx="124" cy="527" r="2"/><circle cx="129" cy="526" r="2"/><circle cx="133" cy="517" r="2"/><circle cx="138" cy="502" r="2"/><circle cx="142" cy="495" r="2"/><circle cx="147" cy="501" r="2"/><circle cx="151" cy="512" r="2"/><circle cx="156" cy="515" r="2"/><circle cx="160" cy="514" r="2"/><circle cx="165" cy="515" r="2"/><circle cx="169" cy="513" r="2"/><circle cx="173" cy="507" r="2"/><circle cx="178" cy="504" r="2"/><circle cx="182" cy="507" r="2"/><circle cx="187" cy="508" r="2"/><circle cx="191" cy="498" r="2"/><circle cx="196" cy="486" r="2"/><circle cx="200" cy="486" r="2"/><circle cx="205" cy="499" r="2"/><circle cx="209" cy="514" r="2"/><circle cx="214" cy="525" r="2"/><circle cx="218" cy="529" r="2"/><circle cx="223" cy="529" r="2"/><circle cx="227" cy="528" r="2"/><circle cx="232" cy="526" r="2"/><circle cx="236" cy="523" r="2"/><circle cx="241" cy="520" r="2"/><circle cx="245" cy="510" r="2"/><circle cx="250" cy="481" r="2"/><circle cx="254" cy="437" r="2"/><circle cx="259" cy="414" r="2"/><circle cx="263" cy="435" r="2"/><circle cx="268" cy="478" r="2"/><circle cx="272" cy="505" r="2"/><circle cx="276" cy="510" r="2"/><circle cx="281" cy="506" r="2"/><circle cx="285" cy="502" r="2"/><circle cx="290" cy="500" r="2"/><circle cx="294" cy="499" r="2"/><circle cx="299" cy="497" r="2"/><circle cx="303" cy="500" r="2"/><circle cx="308" cy="509" r="2"/><circle cx="312" cy="518" r="2"/><circle cx="317" cy="520" r="2"/><circle cx="321" cy="514" r="2"/><circle cx="326" cy="503" r="2"/><circle cx="330" cy="495" r="2"/><circle cx="335" cy="498" r="2"/><circle cx="339" cy="508" r="2"/><circle cx="344" cy="515" r="2"/><circle cx="348" cy="517" r="2"/><circle cx="353" cy="514" r="2"/><circle cx="357" cy="507" r="2"/><circle cx="362" cy="501" r="2"/><circle cx="366" cy="504" r="2"/><circle cx="370" cy="513" r="2"/><circle cx="375" cy="522" r="2"/><circle cx="379" cy="525" r="2"/><circle cx="384" cy="526" r="2"/><circle cx="388" cy="522" r="2"/><circle cx="393" cy="508" r="2"/><circle cx="397" cy="490" r="2"/><circle cx="402" cy="479" r="2"/><circle cx="406" cy="481" r="2"/><circle cx="411" cy="486" r="2"/><circle cx="415" cy="484" r="2"/><circle cx="420" cy="474" r="2"/><circle cx="424" cy="470" r="2"/><circle cx="429" cy="480" r="2"/><circle cx="433" cy="490" r="2"/><circle cx="438" cy="477" r="2"/><circle cx="442" cy="446" r="2"/><circle cx="447" cy="429" r="2"/><circle cx="451" cy="447" r="2"/><circle cx="456" cy="481" r="2"/><circle cx="460" cy="506" r="2"/><circle cx="464" cy="515" r="2"/><circle cx="469" cy="512" r="2"/><circle cx="473" cy="500" r="2"/><circle cx="478" cy="486" r="2"/><circle cx="482" cy="477" r="2"/><circle cx="487" cy="474" r="2"/><circle cx="491" cy="473" r="2"/><circle cx="496" cy="471" r="2"/><circle cx="500" cy="463" r="2"/><circle cx="505" cy="455" r="2"/><circle cx="509" cy="457" r="2"/><circle cx="514" cy="472" r="2"/><circle cx="518" cy="495" r="2"/><circle cx="523" cy="514" r="2"/><circle cx="527" cy="519" r="2"/><circle cx="532" cy="508" r="2"/><circle cx="536" cy="493" r="2"/><circle cx="541" cy="487" r="2"/><circle cx="545" cy="490" r="2"/><circle cx="550" cy="493" r="2"/><circle cx="554" cy="487" r="2"/><circle cx="559" cy="475" r="2"/><circle cx="563" cy="460" r="2"/><circle cx="567" cy="448" r="2"/><circle cx="572" cy="447" r="2"/><circle cx="576" cy="459" r="2"/><circle cx="581" cy="468" r="2"/><circle cx="585" cy="458" r="2"/><circle cx="590" cy="433" r="2"/></g></g></g></g></g><g class="SourcesFooter" fill="#777"><g class="clickable" fill="#777"><text font-size="12.6" x="15" y="581.6"><tspan x="15" y="581.58">Source: NOAA (National Oceanic and Atmospheric Administration) via the US EPA</tspan></text></g><text font-size="12.6" x="775.4" y="581.6"><tspan x="775.4" y="581.58"><a class="cclogo" href="http://creativecommons.org/licenses/by-sa/4.0/deed.en_US" target="_blank" fill="#777">CC BY-SA</a></tspan></text></g></g></svg>