<svg xmlns="http://www.w3.org/2000/svg" version="1.1" style="background-color:#fff;-webkit-font-smoothing:antialiased" width="850" height="600" font-family="'Helvetica Neue',Helvetica,Arial,sans-serif" font-size="18" text-rendering="optimizeLegibility"><g class="ChartTab"><g class="HeaderView"><g opacity=".8" transform="matrix(.31 0 0 .31 770 15)"><a xmlns:xlink="http://www.w3.org/1999/xlink" xlink:href="https://ourworldindata.org" target="_blank"><g><path fill="#1B2543" d="M0 0h211.2v130.1H0z"/><path fill="#E63912" d="M0 112.2h211.2v17.9H0z"/><g><path fill="none" d="M1.2 12.3h210.2v99.2H1.2z"/><path fill="#FFF" d="M37.8 32.2c0 12.7-7.7 19.4-17.1 19.4-9.7 0-16.6-7.5-16.6-18.7 0-11.7 7.3-19.3 17.1-19.3 10.1.1 16.6 7.7 16.6 18.6zm-28.6.6c0 7.9 4.3 14.9 11.8 14.9 7.5 0 11.8-6.9 11.8-15.3 0-7.3-3.8-14.9-11.8-14.9-7.9 0-11.8 7.3-11.8 15.3zM62.7 43.8c0 2.7.1 5.1.2 7.2h-4.3l-.3-4.3h-.1c-1.3 2.1-4 4.9-8.8 4.9-4.2 0-9.1-2.3-9.1-11.6V24.6h4.8v14.6c0 5 1.5 8.4 5.9 8.4 3.2 0 5.5-2.2 6.3-4.4.3-.7.4-1.6.4-2.5V24.6h4.8v19.2zM67.3 32.8c0-3.1-.1-5.8-.2-8.2h4.2l.2 5.2h.2c1.2-3.5 4.1-5.8 7.3-5.8.5 0 .9.1 1.4.2v4.5c-.5-.1-1-.2-1.6-.2-3.4 0-5.8 2.6-6.5 6.2-.1.7-.2 1.4-.2 2.2V51h-4.8V32.8zM95.4 51L86 14.2h5l4.4 18.6c1.1 4.6 2.1 9.2 2.7 12.7h.1c.6-3.7 1.8-8 3-12.8l4.9-18.5h5l4.5 18.7c1 4.4 2 8.7 2.6 12.6h.1c.8-4 1.8-8.1 3-12.7l4.9-18.5h4.9L120.6 51h-5L111 31.9c-1.1-4.7-1.9-8.3-2.4-12h-.1c-.7 3.7-1.5 7.3-2.8 12L100.4 51h-5zM154.9 37.6c0 9.8-6.8 14-13.2 14-7.2 0-12.7-5.2-12.7-13.6 0-8.8 5.8-14 13.1-14 7.7 0 12.8 5.5 12.8 13.6zm-21 .3c0 5.8 3.3 10.1 8 10.1 4.6 0 8-4.3 8-10.3 0-4.5-2.2-10.1-7.9-10.1s-8.1 5.2-8.1 10.3zM158.2 32.8c0-3.1-.1-5.8-.2-8.2h4.2l.2 5.2h.2c1.2-3.5 4.1-5.8 7.3-5.8.5 0 .9.1 1.4.2v4.5c-.5-.1-1-.2-1.6-.2-3.4 0-5.8 2.6-6.5 6.2-.1.7-.2 1.4-.2 2.2V51h-4.8V32.8zM173.5 12.3h4.8V51h-4.8V12.3zM206.5 12.3v31.9c0 2.3.1 5 .2 6.8h-4.3l-.2-4.6h-.2c-1.5 2.9-4.7 5.2-9 5.2-6.4 0-11.3-5.4-11.3-13.4-.1-8.8 5.4-14.2 11.9-14.2 4 0 6.8 1.9 8 4h.1V12.3h4.8zm-4.8 23.1c0-.6-.1-1.4-.2-2a7 7 0 00-6.9-5.6c-5 0-7.9 4.4-7.9 10.2 0 5.3 2.6 9.8 7.8 9.8 3.2 0 6.2-2.1 7.1-5.7.2-.7.2-1.3.2-2.1v-4.6zM42.8 64c.1 1.6-1.1 2.9-3.1 2.9-1.7 0-2.9-1.3-2.9-2.9 0-1.7 1.3-3 3-3 1.9 0 3 1.3 3 3zm-5.4 33.8V71.4h4.8v26.4h-4.8zM47.5 78.6c0-2.7-.1-5-.2-7.1h4.3l.3 4.4h.1c1.3-2.5 4.4-5 8.8-5 3.7 0 9.4 2.2 9.4 11.2v15.8h-4.8V82.6c0-4.3-1.6-7.8-6.1-7.8-3.2 0-5.6 2.2-6.5 4.9-.2.6-.3 1.4-.3 2.2v15.9h-4.8V78.6zM84 61.6c2.9-.4 6.3-.8 10.1-.8 6.8 0 11.7 1.6 14.9 4.6 3.3 3 5.2 7.3 5.2 13.2 0 6-1.9 10.9-5.3 14.3-3.4 3.4-9.1 5.3-16.3 5.3-3.4 0-6.2-.2-8.6-.4V61.6zm4.8 32.5c1.2.2 3 .3 4.8.3 10.2 0 15.7-5.7 15.7-15.6.1-8.7-4.9-14.2-14.9-14.2-2.5 0-4.3.2-5.6.5v29zM132.1 97.8l-.4-3.3h-.2a9.79 9.79 0 01-8.1 3.9c-5.4 0-8.1-3.8-8.1-7.6 0-6.4 5.7-9.9 15.9-9.8v-.5c0-2.2-.6-6.1-6-6.1-2.5 0-5 .8-6.9 2l-1.1-3.2c2.2-1.4 5.4-2.3 8.7-2.3 8.1 0 10.1 5.5 10.1 10.8v9.9c0 2.3.1 4.5.4 6.3h-4.3zm-.7-13.4c-5.3-.1-11.2.8-11.2 5.9 0 3.1 2.1 4.6 4.5 4.6 3.4 0 5.6-2.2 6.4-4.4.2-.5.3-1 .3-1.5v-4.6zM146.6 63.9v7.6h6.9v3.7h-6.9v14.2c0 3.3.9 5.1 3.6 5.1 1.3 0 2.2-.2 2.8-.3l.2 3.6c-.9.4-2.4.7-4.3.7-2.2 0-4-.7-5.2-2-1.4-1.4-1.9-3.8-1.9-6.9V75.1h-4.1v-3.7h4.1v-6.3l4.8-1.2zM171.4 97.8l-.4-3.3h-.2a9.79 9.79 0 01-8.1 3.9c-5.4 0-8.1-3.8-8.1-7.6 0-6.4 5.7-9.9 15.9-9.8v-.5c0-2.2-.6-6.1-6-6.1-2.5 0-5 .8-6.9 2l-1.1-3.2c2.2-1.4 5.4-2.3 8.7-2.3 8.1 0 10.1 5.5 10.1 10.8v9.9c0 2.3.1 4.5.4 6.3h-4.3zm-.7-13.4c-5.3-.1-11.2.8-11.2 5.9 0 3.1 2.1 4.6 4.5 4.6 3.4 0 5.6-2.2 6.4-4.4.2-.5.3-1 .3-1.5v-4.6z"/></g></g></a></g><a href="https://ourworldindata.org/grapher/various-measures-of-health-expenditure-as-share-of-gdp" target="_blank"><text font-size="21.6" x="15" y="32.3" fill="#555"><tspan x="15" y="32.28">Various measures of health expenditure as share of GDP, United Kingdom</tspan></text></a><text font-size="14.4" x="15" y="50.1" fill="#666"><tspan x="15" y="50.12">Figures correspond to various sources of information regarding public expenditure on health care, as share of GDP.</tspan><tspan x="15" y="65.96">The series &apos;OWID extrapolated&apos; was constructed using the other series (see Source tab for details).</tspan></text></g><g class="LineChart"><defs><clipPath id="a"><path d="M33.49 0h830v879.4h-830z"/></clipPath></defs><g class="AxisBoxView"><g class="HorizontalAxis" fill="#666" text-anchor="middle" font-size="16.2"><text x="43.5" y="528.2">1880</text><text x="122.9" y="528.2">1900</text><text x="202.3" y="528.2">1920</text><text x="281.6" y="528.2">1940</text><text x="361" y="528.2">1960</text><text x="440.4" y="528.2">1980</text><text x="519.8" y="528.2">2000</text><text x="579.3" y="528.2">2015</text></g><g class="VerticalAxis" fill="#666" dominant-baseline="middle" text-anchor="end" font-size="16.2"><text x="38.49" y="507">0%</text><text x="38.49" y="455.7">1%</text><text x="38.49" y="404.5">2%</text><text x="38.49" y="353.2">3%</text><text x="38.49" y="301.9">4%</text><text x="38.49" y="250.7">5%</text><text x="38.49" y="199.4">6%</text><text x="38.49" y="148.1">7%</text><text x="38.49" y="96.9">8%</text></g><g class="AxisGridLines"><path stroke="#ccc" d="M43.49 507h535.82"/><path stroke="#ddd" stroke-dasharray="3,2" d="M43.49 455.7h535.82M43.49 404.5h535.82M43.49 353.2h535.82M43.49 301.9h535.82M43.49 250.7h535.82M43.49 199.4h535.82M43.49 148.1h535.82M43.49 96.9h535.82"/></g><g class="AxisGridLines" stroke="#ddd" stroke-dasharray="3,2"><path d="M43.5 507V88.5M122.9 507V88.5M202.3 507V88.5M281.6 507V88.5M361 507V88.5M440.4 507V88.5M519.8 507V88.5"/></g></g><g clip-path="url(#a)"><g class="HeightedLegend clickable"><g class="legendMark"><path fill="#a652ba" d="M589.31 110.55h10v2.5h-10z"/><text font-size="14.4" x="604.3" y="116.1" fill="#333"><tspan x="604.31" y="116.12">Public expenditure on health %GDP</tspan></text></g><g class="legendMark"><path fill="#34983f" d="M589.31 124.95h10v2.5h-10z"/><text font-size="14.4" x="604.3" y="130.5" fill="#333"><tspan x="604.31" y="130.52">Public expenditure on health %GDP</tspan></text></g><g class="legendMark"><path fill="#f6a324" d="M589.31 139.35h10v2.5h-10z"/><text font-size="14.4" x="604.3" y="144.9" fill="#333"><tspan x="604.31" y="144.92">Public expenditure on health %GDP</tspan></text></g><g class="legendMark"><path fill="#ca2628" d="M589.31 223.25h10v2.5h-10z"/><text font-size="14.4" x="604.3" y="228.8" fill="#333"><tspan x="604.31" y="228.82">Public expenditure on health %GDP</tspan></text></g><g class="legendMark"><path fill="#3360a9" d="M589.31 472.95h10v2.5h-10z"/><text font-size="14.4" x="604.3" y="478.5" fill="#333"><tspan x="604.31" y="478.52">Public expenditure on health %GDP</tspan></text></g></g><g class="Lines"><g class="key-United-Kingdom_0"><path stroke="#34983f" stroke-linecap="round" d="M500 219l4 2 4 19 4-3 4-12 4-1 4-13 4-14 4-8 4-14 4-9 4-9 4 2 4-22 4-48 4 11 3 9 4-2 4 1 4 10" fill="none" stroke-width="1.5"/><g fill="#34983f"><circle cx="500" cy="219" r="2"/><circle cx="504" cy="221" r="2"/><circle cx="508" cy="240" r="2"/><circle cx="512" cy="237" r="2"/><circle cx="516" cy="225" r="2"/><circle cx="520" cy="224" r="2"/><circle cx="524" cy="211" r="2"/><circle cx="528" cy="197" r="2"/><circle cx="532" cy="189" r="2"/><circle cx="536" cy="175" r="2"/><circle cx="540" cy="166" r="2"/><circle cx="544" cy="157" r="2"/><circle cx="548" cy="159" r="2"/><circle cx="552" cy="137" r="2"/><circle cx="556" cy="89" r="2"/><circle cx="560" cy="100" r="2"/><circle cx="563" cy="109" r="2"/><circle cx="567" cy="107" r="2"/><circle cx="571" cy="108" r="2"/><circle cx="575" cy="118" r="2"/></g></g><g class="key-United-Kingdom_1"><path stroke="#a652ba" stroke-linecap="round" d="M401 331l4-2 4-4 4 4 4-34 4-18h4l4 6 4 1 3 5 4-14 4-9 4 10 4-8 4 5 4 7 4 1 4-1 4 5 4 4 4-2 4-15 4-20 4-5 4-1 4 1h4l4 22 4-5 4-11h4l4-14 4-11 4-9 4-14 4-6 4-10h4l4-14 4-38 4 10 3 4h4l4-49 4 2 4 8" fill="none" stroke-width="1.5"/><g fill="#a652ba"><circle cx="401" cy="331" r="2"/><circle cx="405" cy="329" r="2"/><circle cx="409" cy="325" r="2"/><circle cx="413" cy="329" r="2"/><circle cx="417" cy="295" r="2"/><circle cx="421" cy="277" r="2"/><circle cx="425" cy="277" r="2"/><circle cx="429" cy="283" r="2"/><circle cx="433" cy="284" r="2"/><circle cx="436" cy="289" r="2"/><circle cx="440" cy="275" r="2"/><circle cx="444" cy="266" r="2"/><circle cx="448" cy="276" r="2"/><circle cx="452" cy="268" r="2"/><circle cx="456" cy="273" r="2"/><circle cx="460" cy="280" r="2"/><circle cx="464" cy="281" r="2"/><circle cx="468" cy="280" r="2"/><circle cx="472" cy="285" r="2"/><circle cx="476" cy="289" r="2"/><circle cx="480" cy="287" r="2"/><circle cx="484" cy="272" r="2"/><circle cx="488" cy="252" r="2"/><circle cx="492" cy="247" r="2"/><circle cx="496" cy="246" r="2"/><circle cx="500" cy="247" r="2"/><circle cx="504" cy="247" r="2"/><circle cx="508" cy="269" r="2"/><circle cx="512" cy="264" r="2"/><circle cx="516" cy="253" r="2"/><circle cx="520" cy="253" r="2"/><circle cx="524" cy="239" r="2"/><circle cx="528" cy="228" r="2"/><circle cx="532" cy="219" r="2"/><circle cx="536" cy="205" r="2"/><circle cx="540" cy="199" r="2"/><circle cx="544" cy="189" r="2"/><circle cx="548" cy="189" r="2"/><circle cx="552" cy="175" r="2"/><circle cx="556" cy="137" r="2"/><circle cx="560" cy="147" r="2"/><circle cx="563" cy="151" r="2"/><circle cx="567" cy="151" r="2"/><circle cx="571" cy="102" r="2"/><circle cx="575" cy="104" r="2"/><circle cx="579" cy="112" r="2"/></g></g><g class="key-United-Kingdom_2"><path stroke="#ca2628" stroke-linecap="round" d="M361 336l4-3 4 1 4-1 4 1 4-8 4-8 4-9 4-1 4 6 4-7 4-5 4-6 4 2 4-32 4-15h4l4 10 4 1 3 4 4-24 4-12 4 10 4-9 4 4 4 7 4 1 4 3 4-19 4 21 4-7 4-16" fill="none" stroke-width="1.5"/><g fill="#ca2628"><circle cx="361" cy="336" r="2"/><circle cx="365" cy="333" r="2"/><circle cx="369" cy="334" r="2"/><circle cx="373" cy="333" r="2"/><circle cx="377" cy="334" r="2"/><circle cx="381" cy="326" r="2"/><circle cx="385" cy="318" r="2"/><circle cx="389" cy="309" r="2"/><circle cx="393" cy="308" r="2"/><circle cx="397" cy="314" r="2"/><circle cx="401" cy="307" r="2"/><circle cx="405" cy="302" r="2"/><circle cx="409" cy="296" r="2"/><circle cx="413" cy="298" r="2"/><circle cx="417" cy="266" r="2"/><circle cx="421" cy="251" r="2"/><circle cx="425" cy="251" r="2"/><circle cx="429" cy="261" r="2"/><circle cx="433" cy="262" r="2"/><circle cx="436" cy="266" r="2"/><circle cx="440" cy="242" r="2"/><circle cx="444" cy="230" r="2"/><circle cx="448" cy="240" r="2"/><circle cx="452" cy="231" r="2"/><circle cx="456" cy="235" r="2"/><circle cx="460" cy="242" r="2"/><circle cx="464" cy="243" r="2"/><circle cx="468" cy="246" r="2"/><circle cx="472" cy="227" r="2"/><circle cx="476" cy="248" r="2"/><circle cx="480" cy="241" r="2"/><circle cx="484" cy="225" r="2"/></g></g><g class="key-United-Kingdom_3"><path stroke="#3360a9" stroke-linecap="round" d="M44 500l39-1 40-7 40-1 39-13 40-4" fill="none" stroke-width="1.5"/><g fill="#3360a9"><circle cx="44" cy="500" r="2"/><circle cx="83" cy="499" r="2"/><circle cx="123" cy="492" r="2"/><circle cx="163" cy="491" r="2"/><circle cx="202" cy="478" r="2"/><circle cx="242" cy="474" r="2"/></g></g><g class="key-United-Kingdom_4"><path stroke="#f6a324" stroke-linecap="round" d="M44 500l39-1 40-7 40-1 39-13 40-4 119-132 4-3 4 1 4-1h4l4-8 4-6 4-10h4l4 5 4-7 4-3 4-5 4 5 4-38 4-19h4l4 6 4 1 3 6 4-16 4-10 4 12 4-9 4 5 4 8 4 1h4l4 5 4 4 4-2 4-17 4-22 4-5 4-1h4l4 2 4 19 4-3 4-12 4-1 4-13 4-14 4-8 4-14 4-9 4-9 4 2 4-22 4-48 4 11 3 9 4-2 4 1 4 10" fill="none" stroke-width="1.5"/><g fill="#f6a324"><circle cx="44" cy="500" r="2"/><circle cx="83" cy="499" r="2"/><circle cx="123" cy="492" r="2"/><circle cx="163" cy="491" r="2"/><circle cx="202" cy="478" r="2"/><circle cx="242" cy="474" r="2"/><circle cx="361" cy="342" r="2"/><circle cx="365" cy="339" r="2"/><circle cx="369" cy="340" r="2"/><circle cx="373" cy="339" r="2"/><circle cx="377" cy="339" r="2"/><circle cx="381" cy="331" r="2"/><circle cx="385" cy="325" r="2"/><circle cx="389" cy="315" r="2"/><circle cx="393" cy="315" r="2"/><circle cx="397" cy="320" r="2"/><circle cx="401" cy="313" r="2"/><circle cx="405" cy="310" r="2"/><circle cx="409" cy="305" r="2"/><circle cx="413" cy="310" r="2"/><circle cx="417" cy="272" r="2"/><circle cx="421" cy="253" r="2"/><circle cx="425" cy="253" r="2"/><circle cx="429" cy="259" r="2"/><circle cx="433" cy="260" r="2"/><circle cx="436" cy="266" r="2"/><circle cx="440" cy="250" r="2"/><circle cx="444" cy="240" r="2"/><circle cx="448" cy="252" r="2"/><circle cx="452" cy="243" r="2"/><circle cx="456" cy="248" r="2"/><circle cx="460" cy="256" r="2"/><circle cx="464" cy="257" r="2"/><circle cx="468" cy="257" r="2"/><circle cx="472" cy="262" r="2"/><circle cx="476" cy="266" r="2"/><circle cx="480" cy="264" r="2"/><circle cx="484" cy="247" r="2"/><circle cx="488" cy="225" r="2"/><circle cx="492" cy="220" r="2"/><circle cx="496" cy="219" r="2"/><circle cx="500" cy="219" r="2"/><circle cx="504" cy="221" r="2"/><circle cx="508" cy="240" r="2"/><circle cx="512" cy="237" r="2"/><circle cx="516" cy="225" r="2"/><circle cx="520" cy="224" r="2"/><circle cx="524" cy="211" r="2"/><circle cx="528" cy="197" r="2"/><circle cx="532" cy="189" r="2"/><circle cx="536" cy="175" r="2"/><circle cx="540" cy="166" r="2"/><circle cx="544" cy="157" r="2"/><circle cx="548" cy="159" r="2"/><circle cx="552" cy="137" r="2"/><circle cx="556" cy="89" r="2"/><circle cx="560" cy="100" r="2"/><circle cx="563" cy="109" r="2"/><circle cx="567" cy="107" r="2"/><circle cx="571" cy="108" r="2"/><circle cx="575" cy="118" r="2"/></g></g></g></g></g><g class="SourcesFooter" fill="#777"><g class="clickable" fill="#777"><text font-size="12.6" x="15" y="553.3"><tspan x="15" y="553.28">Source: WHO GHED (2017), OECD.stat (2016), OECD (1993), Lindert (1994), Our World In Data based on Lindert (1994), OECD (1993),</tspan><tspan x="15" y="567.14">OECD.stat and WHO</tspan></text></g><text font-size="12.6" x="15" y="582.5"><tspan x="15" y="582.48"><a target="_blank" href="https://ourworldindata.org/the-expansion-of-healthcare-evidence-from-a-newly-assembled-dataset/" fill="#777">OurWorldInData.org/the-expansion-of-healthcare-evidence-from-a-newly-assembled-dataset/</a> • <a href="http://creativecommons.org/licenses/by-sa/4.0/deed.en_US" target="_blank" fill="#777">CC BY-SA</a></tspan></text></g></g></svg>