<svg xmlns="http://www.w3.org/2000/svg" version="1.1" style="font-family: 'Helvetica Neue', Helvetica, Arial, sans-serif; font-size: 18px; background-color: white; text-rendering: optimizeLegibility; -webkit-font-smoothing: antialiased;" width="850" height="600"><g class="ChartTab"><g class="HeaderView"><g opacity="0.8" transform="translate(778, 15) scale(0.27)"><a xmlns:xlink="http://www.w3.org/1999/xlink" xlink:href="https://ourworldindata.org" target="_blank"><g><rect x="0" y="0" fill="#1B2543" width="211.2" height="130.1"/><rect x="0" y="112.2" fill="#E63912" width="211.2" height="17.9"/><g><rect x="1.2" y="12.3" fill="none" width="210.2" height="99.2"/><path fill="#FFFFFF" d="M37.8,32.2c0,12.7-7.7,19.4-17.1,19.4c-9.7,0-16.6-7.5-16.6-18.7c0-11.7,7.3-19.3,17.1-19.3 C31.3,13.7,37.8,21.3,37.8,32.2z M9.2,32.8c0,7.9,4.3,14.9,11.8,14.9c7.5,0,11.8-6.9,11.8-15.3c0-7.3-3.8-14.9-11.8-14.9 C13.1,17.5,9.2,24.8,9.2,32.8z"/><path fill="#FFFFFF" d="M62.7,43.8c0,2.7,0.1,5.1,0.2,7.2h-4.3l-0.3-4.3h-0.1c-1.3,2.1-4,4.9-8.8,4.9c-4.2,0-9.1-2.3-9.1-11.6 V24.6h4.8v14.6c0,5,1.5,8.4,5.9,8.4c3.2,0,5.5-2.2,6.3-4.4c0.3-0.7,0.4-1.6,0.4-2.5V24.6h4.8V43.8z"/><path fill="#FFFFFF" d="M67.3,32.8c0-3.1-0.1-5.8-0.2-8.2h4.2l0.2,5.2h0.2c1.2-3.5,4.1-5.8,7.3-5.8c0.5,0,0.9,0.1,1.4,0.2v4.5 c-0.5-0.1-1-0.2-1.6-0.2c-3.4,0-5.8,2.6-6.5,6.2c-0.1,0.7-0.2,1.4-0.2,2.2V51h-4.8V32.8z"/><path fill="#FFFFFF" d="M95.4,51l-9.4-36.8h5l4.4,18.6c1.1,4.6,2.1,9.2,2.7,12.7h0.1c0.6-3.7,1.8-8,3-12.8l4.9-18.5h5l4.5,18.7 c1,4.4,2,8.7,2.6,12.6h0.1c0.8-4,1.8-8.1,3-12.7l4.9-18.5h4.9L120.6,51h-5L111,31.9c-1.1-4.7-1.9-8.3-2.4-12h-0.1 c-0.7,3.7-1.5,7.3-2.8,12L100.4,51H95.4z"/><path fill="#FFFFFF" d="M154.9,37.6c0,9.8-6.8,14-13.2,14c-7.2,0-12.7-5.2-12.7-13.6c0-8.8,5.8-14,13.1-14 C149.8,24,154.9,29.5,154.9,37.6z M133.9,37.9c0,5.8,3.3,10.1,8,10.1c4.6,0,8-4.3,8-10.3c0-4.5-2.2-10.1-7.9-10.1 C136.3,27.6,133.9,32.8,133.9,37.9z"/><path fill="#FFFFFF" d="M158.2,32.8c0-3.1-0.1-5.8-0.2-8.2h4.2l0.2,5.2h0.2c1.2-3.5,4.1-5.8,7.3-5.8c0.5,0,0.9,0.1,1.4,0.2v4.5 c-0.5-0.1-1-0.2-1.6-0.2c-3.4,0-5.8,2.6-6.5,6.2c-0.1,0.7-0.2,1.4-0.2,2.2V51h-4.8V32.8z"/><path fill="#FFFFFF" d="M173.5,12.3h4.8V51h-4.8V12.3z"/><path fill="#FFFFFF" d="M206.5,12.3v31.9c0,2.3,0.1,5,0.2,6.8h-4.3l-0.2-4.6H202c-1.5,2.9-4.7,5.2-9,5.2 c-6.4,0-11.3-5.4-11.3-13.4c-0.1-8.8,5.4-14.2,11.9-14.2c4,0,6.8,1.9,8,4h0.1V12.3H206.5z M201.7,35.4c0-0.6-0.1-1.4-0.2-2 c-0.7-3.1-3.3-5.6-6.9-5.6c-5,0-7.9,4.4-7.9,10.2c0,5.3,2.6,9.8,7.8,9.8c3.2,0,6.2-2.1,7.1-5.7c0.2-0.7,0.2-1.3,0.2-2.1V35.4z"/><path fill="#FFFFFF" d="M42.8,64c0.1,1.6-1.1,2.9-3.1,2.9c-1.7,0-2.9-1.3-2.9-2.9c0-1.7,1.3-3,3-3C41.7,61,42.8,62.3,42.8,64z M37.4,97.8V71.4h4.8v26.4H37.4z"/><path fill="#FFFFFF" d="M47.5,78.6c0-2.7-0.1-5-0.2-7.1h4.3l0.3,4.4h0.1c1.3-2.5,4.4-5,8.8-5c3.7,0,9.4,2.2,9.4,11.2v15.8h-4.8 V82.6c0-4.3-1.6-7.8-6.1-7.8c-3.2,0-5.6,2.2-6.5,4.9c-0.2,0.6-0.3,1.4-0.3,2.2v15.9h-4.8V78.6z"/><path fill="#FFFFFF" d="M84,61.6c2.9-0.4,6.3-0.8,10.1-0.8c6.8,0,11.7,1.6,14.9,4.6c3.3,3,5.2,7.3,5.2,13.2c0,6-1.9,10.9-5.3,14.3 c-3.4,3.4-9.1,5.3-16.3,5.3c-3.4,0-6.2-0.2-8.6-0.4V61.6z M88.8,94.1c1.2,0.2,3,0.3,4.8,0.3c10.2,0,15.7-5.7,15.7-15.6 c0.1-8.7-4.9-14.2-14.9-14.2c-2.5,0-4.3,0.2-5.6,0.5V94.1z"/><path fill="#FFFFFF" d="M132.1,97.8l-0.4-3.3h-0.2c-1.5,2.1-4.3,3.9-8.1,3.9c-5.4,0-8.1-3.8-8.1-7.6c0-6.4,5.7-9.9,15.9-9.8v-0.5 c0-2.2-0.6-6.1-6-6.1c-2.5,0-5,0.8-6.9,2l-1.1-3.2c2.2-1.4,5.4-2.3,8.7-2.3c8.1,0,10.1,5.5,10.1,10.8v9.9c0,2.3,0.1,4.5,0.4,6.3 H132.1z M131.4,84.4c-5.3-0.1-11.2,0.8-11.2,5.9c0,3.1,2.1,4.6,4.5,4.6c3.4,0,5.6-2.2,6.4-4.4c0.2-0.5,0.3-1,0.3-1.5V84.4z"/><path fill="#FFFFFF" d="M146.6,63.9v7.6h6.9v3.7h-6.9v14.2c0,3.3,0.9,5.1,3.6,5.1c1.3,0,2.2-0.2,2.8-0.3l0.2,3.6 c-0.9,0.4-2.4,0.7-4.3,0.7c-2.2,0-4-0.7-5.2-2c-1.4-1.4-1.9-3.8-1.9-6.9V75.1h-4.1v-3.7h4.1v-6.3L146.6,63.9z"/><path fill="#FFFFFF" d="M171.4,97.8l-0.4-3.3h-0.2c-1.5,2.1-4.3,3.9-8.1,3.9c-5.4,0-8.1-3.8-8.1-7.6c0-6.4,5.7-9.9,15.9-9.8v-0.5 c0-2.2-0.6-6.1-6-6.1c-2.5,0-5,0.8-6.9,2l-1.1-3.2c2.2-1.4,5.4-2.3,8.7-2.3c8.1,0,10.1,5.5,10.1,10.8v9.9c0,2.3,0.1,4.5,0.4,6.3 H171.4z M170.7,84.4c-5.3-0.1-11.2,0.8-11.2,5.9c0,3.1,2.1,4.6,4.5,4.6c3.4,0,5.6-2.2,6.4-4.4c0.2-0.5,0.3-1,0.3-1.5V84.4z"/></g></g></a></g><a href="https://ourworldindata.org/grapher/various-sources-of-the-total-value-of-exports-as-a-share-of-gdp?country=CHN" target="_blank"><text font-size="26.10" x="15.0" y="35.9" fill="#555"><tspan x="15" y="35.879999999999995">Various sources of merchandise trade as a share of GDP, China</tspan></text></a><text font-size="14.40" x="15.0" y="54.6" fill="#666"><tspan x="15" y="54.61999999999999">Figure corresponds to various data sources detailing the total value of exports as a share of the country's GDP. See</tspan><tspan x="15" y="70.46">the Source tab for further details on each data series.</tspan></text></g><g class="LineChart"><defs><clipPath id="boundsClip-1"><rect x="42.562" y="0" width="830" height="927"></rect></clipPath></defs><g class="AxisBoxView"><g class="HorizontalAxis"><text x="52.6" y="556.5" fill="#666" text-anchor="middle" font-size="16.2">1955</text><text x="103.2" y="556.5" fill="#666" text-anchor="middle" font-size="16.2">1960</text><text x="204.5" y="556.5" fill="#666" text-anchor="middle" font-size="16.2">1970</text><text x="305.8" y="556.5" fill="#666" text-anchor="middle" font-size="16.2">1980</text><text x="407.1" y="556.5" fill="#666" text-anchor="middle" font-size="16.2">1990</text><text x="508.4" y="556.5" fill="#666" text-anchor="middle" font-size="16.2">2000</text><text x="609.7" y="556.5" fill="#666" text-anchor="middle" font-size="16.2">2010</text><text x="670.5" y="556.5" fill="#666" text-anchor="middle" font-size="16.2">2016</text></g><g class="VerticalAxis"><text x="47.56" y="441.2" fill="#666" dominant-baseline="middle" text-anchor="end" font-size="16.2">10%</text><text x="47.56" y="346.7" fill="#666" dominant-baseline="middle" text-anchor="end" font-size="16.2">20%</text><text x="47.56" y="252.1" fill="#666" dominant-baseline="middle" text-anchor="end" font-size="16.2">30%</text><text x="47.56" y="157.5" fill="#666" dominant-baseline="middle" text-anchor="end" font-size="16.2">40%</text></g><g class="AxisGridLines"><line x1="52.56" y1="441.2" x2="670.46" y2="441.2" stroke="#ddd" stroke-dasharray="3,2"></line><line x1="52.56" y1="346.7" x2="670.46" y2="346.7" stroke="#ddd" stroke-dasharray="3,2"></line><line x1="52.56" y1="252.1" x2="670.46" y2="252.1" stroke="#ddd" stroke-dasharray="3,2"></line><line x1="52.56" y1="157.5" x2="670.46" y2="157.5" stroke="#ddd" stroke-dasharray="3,2"></line></g><g class="AxisGridLines"><line x1="103.2" y1="535.30" x2="103.2" y2="93.00" stroke="#ddd" stroke-dasharray="3,2"></line><line x1="204.5" y1="535.30" x2="204.5" y2="93.00" stroke="#ddd" stroke-dasharray="3,2"></line><line x1="305.8" y1="535.30" x2="305.8" y2="93.00" stroke="#ddd" stroke-dasharray="3,2"></line><line x1="407.1" y1="535.30" x2="407.1" y2="93.00" stroke="#ddd" stroke-dasharray="3,2"></line><line x1="508.4" y1="535.30" x2="508.4" y2="93.00" stroke="#ddd" stroke-dasharray="3,2"></line><line x1="609.7" y1="535.30" x2="609.7" y2="93.00" stroke="#ddd" stroke-dasharray="3,2"></line></g></g><g clip-path="url(#boundsClip-1)"><g class="HeightedLegend clickable"><g class="legendMark"><rect x="680.4639999999999" y="214" width="154.53600000000003" height="14.4" fill="#fff" opacity="0"></rect><rect x="680.4639999999999" y="219.95" width="10" height="2.5" fill="#34983f"></rect><text font-size="14.40" x="695.5" y="225.5" fill="#333"><tspan x="695.4639999999999" y="225.52">NBER-United Nations</tspan></text></g><g class="legendMark"><rect x="680.4639999999999" y="273.1" width="50.136" height="14.4" fill="#fff" opacity="0"></rect><rect x="680.4639999999999" y="279.05" width="10" height="2.5" fill="#9ecc8a"></rect><text font-size="14.40" x="695.5" y="284.6" fill="#333"><tspan x="695.4639999999999" y="284.62">COW</tspan></text></g><g class="legendMark"><rect x="680.4639999999999" y="313.3" width="52.728" height="14.4" fill="#fff" opacity="0"></rect><rect x="680.4639999999999" y="319.25" width="10" height="2.5" fill="#ffd53e"></rect><text font-size="14.40" x="695.5" y="324.8" fill="#333"><tspan x="695.4639999999999" y="324.82">CEPII</tspan></text></g><g class="legendMark"><rect x="680.4639999999999" y="348.2" width="39.768" height="14.4" fill="#fff" opacity="0"></rect><rect x="680.4639999999999" y="354.15" width="10" height="2.5" fill="#ca2628"></rect><text font-size="14.40" x="695.5" y="359.7" fill="#333"><tspan x="695.4639999999999" y="359.71999999999997">IMF</tspan></text></g><g class="legendMark"><rect x="680.4639999999999" y="362.59999999999997" width="56.61600000000001" height="14.4" fill="#fff" opacity="0"></rect><rect x="680.4639999999999" y="368.54999999999995" width="10" height="2.5" fill="#e6332e"></rect><text font-size="14.40" x="695.5" y="374.1" fill="#333"><tspan x="695.4639999999999" y="374.11999999999995">OECD</tspan></text></g><g class="legendMark"><rect x="680.4639999999999" y="376.99999999999994" width="48.55200000000001" height="14.4" fill="#fff" opacity="0"></rect><rect x="680.4639999999999" y="382.94999999999993" width="10" height="2.5" fill="#2a939b"></rect><text font-size="14.40" x="695.5" y="388.5" fill="#333"><tspan x="695.4639999999999" y="388.5199999999999">WTO</tspan></text></g><g class="legendMark"><rect x="680.4639999999999" y="391.3999999999999" width="89.59200000000001" height="14.4" fill="#fff" opacity="0"></rect><rect x="680.4639999999999" y="397.3499999999999" width="10" height="2.5" fill="#3360a9"></rect><text font-size="14.40" x="695.5" y="402.9" fill="#333"><tspan x="695.4639999999999" y="402.9199999999999">World Bank</tspan></text></g></g><g class="Lines"><rect x="53" y="93" width="618" height="442" fill="rgba(255,255,255,0)" opacity="0"></rect><g class="key-China_0"><path stroke="#ffd53e" stroke-linecap="round" d="M53 527L63 526L73 527L83 529L93 530L103 525L113 525L124 523L134 521L144 519L154 517L164 515L174 515L184 513L194 514L205 517L215 515L225 513L235 505L245 497L255 499L265 495L275 495L286 474L296 463L306 441L316 426L326 430L336 444L346 441L356 445L367 429L377 376L387 357L397 343L407 308L417 262L427 231L438 198L448 214L458 236L468 257L478 254L488 269L498 257L508 224L519 244L529 225L539 187L549 145L559 118L569 117L579 141L589 186L600 267L610 256L620 277L630 297L640 314L650 321" fill="none" stroke-width="1.5"></path><g fill="#ffd53e"><circle cx="53" cy="527" r="2"></circle><circle cx="63" cy="526" r="2"></circle><circle cx="73" cy="527" r="2"></circle><circle cx="83" cy="529" r="2"></circle><circle cx="93" cy="530" r="2"></circle><circle cx="103" cy="525" r="2"></circle><circle cx="113" cy="525" r="2"></circle><circle cx="124" cy="523" r="2"></circle><circle cx="134" cy="521" r="2"></circle><circle cx="144" cy="519" r="2"></circle><circle cx="154" cy="517" r="2"></circle><circle cx="164" cy="515" r="2"></circle><circle cx="174" cy="515" r="2"></circle><circle cx="184" cy="513" r="2"></circle><circle cx="194" cy="514" r="2"></circle><circle cx="205" cy="517" r="2"></circle><circle cx="215" cy="515" r="2"></circle><circle cx="225" cy="513" r="2"></circle><circle cx="235" cy="505" r="2"></circle><circle cx="245" cy="497" r="2"></circle><circle cx="255" cy="499" r="2"></circle><circle cx="265" cy="495" r="2"></circle><circle cx="275" cy="495" r="2"></circle><circle cx="286" cy="474" r="2"></circle><circle cx="296" cy="463" r="2"></circle><circle cx="306" cy="441" r="2"></circle><circle cx="316" cy="426" r="2"></circle><circle cx="326" cy="430" r="2"></circle><circle cx="336" cy="444" r="2"></circle><circle cx="346" cy="441" r="2"></circle><circle cx="356" cy="445" r="2"></circle><circle cx="367" cy="429" r="2"></circle><circle cx="377" cy="376" r="2"></circle><circle cx="387" cy="357" r="2"></circle><circle cx="397" cy="343" r="2"></circle><circle cx="407" cy="308" r="2"></circle><circle cx="417" cy="262" r="2"></circle><circle cx="427" cy="231" r="2"></circle><circle cx="438" cy="198" r="2"></circle><circle cx="448" cy="214" r="2"></circle><circle cx="458" cy="236" r="2"></circle><circle cx="468" cy="257" r="2"></circle><circle cx="478" cy="254" r="2"></circle><circle cx="488" cy="269" r="2"></circle><circle cx="498" cy="257" r="2"></circle><circle cx="508" cy="224" r="2"></circle><circle cx="519" cy="244" r="2"></circle><circle cx="529" cy="225" r="2"></circle><circle cx="539" cy="187" r="2"></circle><circle cx="549" cy="145" r="2"></circle><circle cx="559" cy="118" r="2"></circle><circle cx="569" cy="117" r="2"></circle><circle cx="579" cy="141" r="2"></circle><circle cx="589" cy="186" r="2"></circle><circle cx="600" cy="267" r="2"></circle><circle cx="610" cy="256" r="2"></circle><circle cx="620" cy="277" r="2"></circle><circle cx="630" cy="297" r="2"></circle><circle cx="640" cy="314" r="2"></circle><circle cx="650" cy="321" r="2"></circle></g></g><g class="key-China_1"><path stroke="#34983f" stroke-linecap="round" d="M124 524L134 521L144 518L154 517L164 514L174 514L184 515L194 516L205 518L215 517L225 514L235 506L245 498L255 500L265 498L275 500L286 504L296 492L306 483L316 470L326 471L336 479L346 464L356 434L367 404L377 394L387 393L397 380L407 318L417 278L427 276L438 297L448 216L458 236L468 256L478 252L488 268L498 255L508 221" fill="none" stroke-width="1.5"></path><g fill="#34983f"><circle cx="124" cy="524" r="2"></circle><circle cx="134" cy="521" r="2"></circle><circle cx="144" cy="518" r="2"></circle><circle cx="154" cy="517" r="2"></circle><circle cx="164" cy="514" r="2"></circle><circle cx="174" cy="514" r="2"></circle><circle cx="184" cy="515" r="2"></circle><circle cx="194" cy="516" r="2"></circle><circle cx="205" cy="518" r="2"></circle><circle cx="215" cy="517" r="2"></circle><circle cx="225" cy="514" r="2"></circle><circle cx="235" cy="506" r="2"></circle><circle cx="245" cy="498" r="2"></circle><circle cx="255" cy="500" r="2"></circle><circle cx="265" cy="498" r="2"></circle><circle cx="275" cy="500" r="2"></circle><circle cx="286" cy="504" r="2"></circle><circle cx="296" cy="492" r="2"></circle><circle cx="306" cy="483" r="2"></circle><circle cx="316" cy="470" r="2"></circle><circle cx="326" cy="471" r="2"></circle><circle cx="336" cy="479" r="2"></circle><circle cx="346" cy="464" r="2"></circle><circle cx="356" cy="434" r="2"></circle><circle cx="367" cy="404" r="2"></circle><circle cx="377" cy="394" r="2"></circle><circle cx="387" cy="393" r="2"></circle><circle cx="397" cy="380" r="2"></circle><circle cx="407" cy="318" r="2"></circle><circle cx="417" cy="278" r="2"></circle><circle cx="427" cy="276" r="2"></circle><circle cx="438" cy="297" r="2"></circle><circle cx="448" cy="216" r="2"></circle><circle cx="458" cy="236" r="2"></circle><circle cx="468" cy="256" r="2"></circle><circle cx="478" cy="252" r="2"></circle><circle cx="488" cy="268" r="2"></circle><circle cx="498" cy="255" r="2"></circle><circle cx="508" cy="221" r="2"></circle></g></g><g class="key-China_7"><path stroke="#ca2628" stroke-linecap="round" d="M113 527L286 475L296 464L306 446L316 432L326 435L336 445L346 446L356 452L367 437L377 399L387 392L397 392L407 371L417 358L427 346L438 341L448 333L458 344L468 370L478 356L488 367L498 367L508 341L519 348L529 326L539 286L549 249L559 221L569 203L579 212L589 242L600 313L610 291L620 299L630 309L640 318L650 324L660 341L671 355" fill="none" stroke-width="1.5"></path><g fill="#ca2628"><circle cx="113" cy="527" r="2"></circle><circle cx="286" cy="475" r="2"></circle><circle cx="296" cy="464" r="2"></circle><circle cx="306" cy="446" r="2"></circle><circle cx="316" cy="432" r="2"></circle><circle cx="326" cy="435" r="2"></circle><circle cx="336" cy="445" r="2"></circle><circle cx="346" cy="446" r="2"></circle><circle cx="356" cy="452" r="2"></circle><circle cx="367" cy="437" r="2"></circle><circle cx="377" cy="399" r="2"></circle><circle cx="387" cy="392" r="2"></circle><circle cx="397" cy="392" r="2"></circle><circle cx="407" cy="371" r="2"></circle><circle cx="417" cy="358" r="2"></circle><circle cx="427" cy="346" r="2"></circle><circle cx="438" cy="341" r="2"></circle><circle cx="448" cy="333" r="2"></circle><circle cx="458" cy="344" r="2"></circle><circle cx="468" cy="370" r="2"></circle><circle cx="478" cy="356" r="2"></circle><circle cx="488" cy="367" r="2"></circle><circle cx="498" cy="367" r="2"></circle><circle cx="508" cy="341" r="2"></circle><circle cx="519" cy="348" r="2"></circle><circle cx="529" cy="326" r="2"></circle><circle cx="539" cy="286" r="2"></circle><circle cx="549" cy="249" r="2"></circle><circle cx="559" cy="221" r="2"></circle><circle cx="569" cy="203" r="2"></circle><circle cx="579" cy="212" r="2"></circle><circle cx="589" cy="242" r="2"></circle><circle cx="600" cy="313" r="2"></circle><circle cx="610" cy="291" r="2"></circle><circle cx="620" cy="299" r="2"></circle><circle cx="630" cy="309" r="2"></circle><circle cx="640" cy="318" r="2"></circle><circle cx="650" cy="324" r="2"></circle><circle cx="660" cy="341" r="2"></circle><circle cx="671" cy="355" r="2"></circle></g></g><g class="key-China_6"><path stroke="#9ecc8a" stroke-linecap="round" d="M53 500L63 498L73 501L83 500L93 498L103 525L113 527L124 506L134 505L144 505L154 505L164 506L174 508L184 507L194 509L205 512L215 510L225 506L235 495L245 489L255 493L265 493L275 494L286 493L296 487L306 479L316 465L326 463L336 467L346 461L356 453L367 437L377 422L387 426L397 427L407 386L417 371L427 372L438 396L448 333L458 344L468 370L478 356L488 367L498 215L508 181L519 211L529 196L539 157L549 121L559 101L569 93L579 118L589 164L600 252L610 226L620 240L630 257L640 270L650 280" fill="none" stroke-width="1.5"></path><g fill="#9ecc8a"><circle cx="53" cy="500" r="2"></circle><circle cx="63" cy="498" r="2"></circle><circle cx="73" cy="501" r="2"></circle><circle cx="83" cy="500" r="2"></circle><circle cx="93" cy="498" r="2"></circle><circle cx="103" cy="525" r="2"></circle><circle cx="113" cy="527" r="2"></circle><circle cx="124" cy="506" r="2"></circle><circle cx="134" cy="505" r="2"></circle><circle cx="144" cy="505" r="2"></circle><circle cx="154" cy="505" r="2"></circle><circle cx="164" cy="506" r="2"></circle><circle cx="174" cy="508" r="2"></circle><circle cx="184" cy="507" r="2"></circle><circle cx="194" cy="509" r="2"></circle><circle cx="205" cy="512" r="2"></circle><circle cx="215" cy="510" r="2"></circle><circle cx="225" cy="506" r="2"></circle><circle cx="235" cy="495" r="2"></circle><circle cx="245" cy="489" r="2"></circle><circle cx="255" cy="493" r="2"></circle><circle cx="265" cy="493" r="2"></circle><circle cx="275" cy="494" r="2"></circle><circle cx="286" cy="493" r="2"></circle><circle cx="296" cy="487" r="2"></circle><circle cx="306" cy="479" r="2"></circle><circle cx="316" cy="465" r="2"></circle><circle cx="326" cy="463" r="2"></circle><circle cx="336" cy="467" r="2"></circle><circle cx="346" cy="461" r="2"></circle><circle cx="356" cy="453" r="2"></circle><circle cx="367" cy="437" r="2"></circle><circle cx="377" cy="422" r="2"></circle><circle cx="387" cy="426" r="2"></circle><circle cx="397" cy="427" r="2"></circle><circle cx="407" cy="386" r="2"></circle><circle cx="417" cy="371" r="2"></circle><circle cx="427" cy="372" r="2"></circle><circle cx="438" cy="396" r="2"></circle><circle cx="448" cy="333" r="2"></circle><circle cx="458" cy="344" r="2"></circle><circle cx="468" cy="370" r="2"></circle><circle cx="478" cy="356" r="2"></circle><circle cx="488" cy="367" r="2"></circle><circle cx="498" cy="215" r="2"></circle><circle cx="508" cy="181" r="2"></circle><circle cx="519" cy="211" r="2"></circle><circle cx="529" cy="196" r="2"></circle><circle cx="539" cy="157" r="2"></circle><circle cx="549" cy="121" r="2"></circle><circle cx="559" cy="101" r="2"></circle><circle cx="569" cy="93" r="2"></circle><circle cx="579" cy="118" r="2"></circle><circle cx="589" cy="164" r="2"></circle><circle cx="600" cy="252" r="2"></circle><circle cx="610" cy="226" r="2"></circle><circle cx="620" cy="240" r="2"></circle><circle cx="630" cy="257" r="2"></circle><circle cx="640" cy="270" r="2"></circle><circle cx="650" cy="280" r="2"></circle></g></g><g class="key-China_4"><path stroke="#e6332e" stroke-linecap="round" d="M620 304L630 320L640 331L650 344L660 357" fill="none" stroke-width="1.5"></path><g fill="#e6332e"><circle cx="620" cy="304" r="2"></circle><circle cx="630" cy="320" r="2"></circle><circle cx="640" cy="331" r="2"></circle><circle cx="650" cy="344" r="2"></circle><circle cx="660" cy="357" r="2"></circle></g></g><g class="key-China_3"><path stroke="#3360a9" stroke-linecap="round" d="M326 438L336 451L346 449L356 459L367 455L377 416L387 412L397 418L407 401L417 391L427 382L438 375L448 364L458 371L468 370L478 454L488 463L498 463L508 449L519 452L529 442L539 315L549 282L559 248L569 227L579 235L589 258L600 327L610 305L620 310L630 318L640 324L650 333L660 353L671 368" fill="none" stroke-width="1.5"></path><g fill="#3360a9"><circle cx="326" cy="438" r="2"></circle><circle cx="336" cy="451" r="2"></circle><circle cx="346" cy="449" r="2"></circle><circle cx="356" cy="459" r="2"></circle><circle cx="367" cy="455" r="2"></circle><circle cx="377" cy="416" r="2"></circle><circle cx="387" cy="412" r="2"></circle><circle cx="397" cy="418" r="2"></circle><circle cx="407" cy="401" r="2"></circle><circle cx="417" cy="391" r="2"></circle><circle cx="427" cy="382" r="2"></circle><circle cx="438" cy="375" r="2"></circle><circle cx="448" cy="364" r="2"></circle><circle cx="458" cy="371" r="2"></circle><circle cx="468" cy="370" r="2"></circle><circle cx="478" cy="454" r="2"></circle><circle cx="488" cy="463" r="2"></circle><circle cx="498" cy="463" r="2"></circle><circle cx="508" cy="449" r="2"></circle><circle cx="519" cy="452" r="2"></circle><circle cx="529" cy="442" r="2"></circle><circle cx="539" cy="315" r="2"></circle><circle cx="549" cy="282" r="2"></circle><circle cx="559" cy="248" r="2"></circle><circle cx="569" cy="227" r="2"></circle><circle cx="579" cy="235" r="2"></circle><circle cx="589" cy="258" r="2"></circle><circle cx="600" cy="327" r="2"></circle><circle cx="610" cy="305" r="2"></circle><circle cx="620" cy="310" r="2"></circle><circle cx="630" cy="318" r="2"></circle><circle cx="640" cy="324" r="2"></circle><circle cx="650" cy="333" r="2"></circle><circle cx="660" cy="353" r="2"></circle><circle cx="671" cy="368" r="2"></circle></g></g><g class="key-China_2"><path stroke="#2a939b" stroke-linecap="round" d="M103 495L113 499L124 498L134 498L144 500L154 501L164 503L174 505L184 505L194 507L205 512L215 509L225 505L235 496L245 489L255 491L265 493L275 495L286 473L296 464L306 446L316 430L326 433L336 445L346 441L356 452L367 439L377 399L387 392L397 393L407 373L417 358L427 348L438 341L448 333L458 344L468 370L478 356L488 367L498 367L508 341L519 348L529 326L539 286L549 249L559 221L569 203L579 211L589 242L600 313L610 291L620 299L630 310L640 318L650 325L660 342L671 359" fill="none" stroke-width="1.5"></path><g fill="#2a939b"><circle cx="103" cy="495" r="2"></circle><circle cx="113" cy="499" r="2"></circle><circle cx="124" cy="498" r="2"></circle><circle cx="134" cy="498" r="2"></circle><circle cx="144" cy="500" r="2"></circle><circle cx="154" cy="501" r="2"></circle><circle cx="164" cy="503" r="2"></circle><circle cx="174" cy="505" r="2"></circle><circle cx="184" cy="505" r="2"></circle><circle cx="194" cy="507" r="2"></circle><circle cx="205" cy="512" r="2"></circle><circle cx="215" cy="509" r="2"></circle><circle cx="225" cy="505" r="2"></circle><circle cx="235" cy="496" r="2"></circle><circle cx="245" cy="489" r="2"></circle><circle cx="255" cy="491" r="2"></circle><circle cx="265" cy="493" r="2"></circle><circle cx="275" cy="495" r="2"></circle><circle cx="286" cy="473" r="2"></circle><circle cx="296" cy="464" r="2"></circle><circle cx="306" cy="446" r="2"></circle><circle cx="316" cy="430" r="2"></circle><circle cx="326" cy="433" r="2"></circle><circle cx="336" cy="445" r="2"></circle><circle cx="346" cy="441" r="2"></circle><circle cx="356" cy="452" r="2"></circle><circle cx="367" cy="439" r="2"></circle><circle cx="377" cy="399" r="2"></circle><circle cx="387" cy="392" r="2"></circle><circle cx="397" cy="393" r="2"></circle><circle cx="407" cy="373" r="2"></circle><circle cx="417" cy="358" r="2"></circle><circle cx="427" cy="348" r="2"></circle><circle cx="438" cy="341" r="2"></circle><circle cx="448" cy="333" r="2"></circle><circle cx="458" cy="344" r="2"></circle><circle cx="468" cy="370" r="2"></circle><circle cx="478" cy="356" r="2"></circle><circle cx="488" cy="367" r="2"></circle><circle cx="498" cy="367" r="2"></circle><circle cx="508" cy="341" r="2"></circle><circle cx="519" cy="348" r="2"></circle><circle cx="529" cy="326" r="2"></circle><circle cx="539" cy="286" r="2"></circle><circle cx="549" cy="249" r="2"></circle><circle cx="559" cy="221" r="2"></circle><circle cx="569" cy="203" r="2"></circle><circle cx="579" cy="211" r="2"></circle><circle cx="589" cy="242" r="2"></circle><circle cx="600" cy="313" r="2"></circle><circle cx="610" cy="291" r="2"></circle><circle cx="620" cy="299" r="2"></circle><circle cx="630" cy="310" r="2"></circle><circle cx="640" cy="318" r="2"></circle><circle cx="650" cy="325" r="2"></circle><circle cx="660" cy="342" r="2"></circle><circle cx="671" cy="359" r="2"></circle></g></g></g></g></g><g style="fill: #777;" class="SourcesFooter"><g style="fill: #777;" class="clickable"><text font-size="12.60" x="15.0" y="581.6"><tspan x="15" y="581.58">Source: CEPII Two Centuries of Bilateral Trade and Gravity Data</tspan></text></g><text font-size="12.60" x="649.0" y="581.6"><tspan x="649.024" y="581.58"><a target='_blank' style='fill: #777;' href='https://ourworldindata.org'>OurWorldInData.org</a> • <a style="fill: #777;" href="http://creativecommons.org/licenses/by-sa/4.0/deed.en_US" target="_blank">CC BY-SA</a></tspan></text></g></g></svg>