<svg xmlns="http://www.w3.org/2000/svg" version="1.1" style="background-color:#fff;-webkit-font-smoothing:antialiased" width="850" height="600" font-family="'Helvetica Neue',Helvetica,Arial,sans-serif" font-size="18" text-rendering="optimizeLegibility"><g class="ChartTab"><g class="HeaderView"><g opacity=".8" transform="matrix(.31 0 0 .31 770 15)"><a xmlns:xlink="http://www.w3.org/1999/xlink" xlink:href="https://ourworldindata.org" target="_blank"><g><path fill="#1B2543" d="M0 0h211.2v130.1H0z"/><path fill="#E63912" d="M0 112.2h211.2v17.9H0z"/><g><path fill="none" d="M1.2 12.3h210.2v99.2H1.2z"/><path fill="#FFF" d="M37.8 32.2c0 12.7-7.7 19.4-17.1 19.4-9.7 0-16.6-7.5-16.6-18.7 0-11.7 7.3-19.3 17.1-19.3 10.1.1 16.6 7.7 16.6 18.6zm-28.6.6c0 7.9 4.3 14.9 11.8 14.9 7.5 0 11.8-6.9 11.8-15.3 0-7.3-3.8-14.9-11.8-14.9-7.9 0-11.8 7.3-11.8 15.3zM62.7 43.8c0 2.7.1 5.1.2 7.2h-4.3l-.3-4.3h-.1c-1.3 2.1-4 4.9-8.8 4.9-4.2 0-9.1-2.3-9.1-11.6V24.6h4.8v14.6c0 5 1.5 8.4 5.9 8.4 3.2 0 5.5-2.2 6.3-4.4.3-.7.4-1.6.4-2.5V24.6h4.8v19.2zM67.3 32.8c0-3.1-.1-5.8-.2-8.2h4.2l.2 5.2h.2c1.2-3.5 4.1-5.8 7.3-5.8.5 0 .9.1 1.4.2v4.5c-.5-.1-1-.2-1.6-.2-3.4 0-5.8 2.6-6.5 6.2-.1.7-.2 1.4-.2 2.2V51h-4.8V32.8zM95.4 51L86 14.2h5l4.4 18.6c1.1 4.6 2.1 9.2 2.7 12.7h.1c.6-3.7 1.8-8 3-12.8l4.9-18.5h5l4.5 18.7c1 4.4 2 8.7 2.6 12.6h.1c.8-4 1.8-8.1 3-12.7l4.9-18.5h4.9L120.6 51h-5L111 31.9c-1.1-4.7-1.9-8.3-2.4-12h-.1c-.7 3.7-1.5 7.3-2.8 12L100.4 51h-5zM154.9 37.6c0 9.8-6.8 14-13.2 14-7.2 0-12.7-5.2-12.7-13.6 0-8.8 5.8-14 13.1-14 7.7 0 12.8 5.5 12.8 13.6zm-21 .3c0 5.8 3.3 10.1 8 10.1 4.6 0 8-4.3 8-10.3 0-4.5-2.2-10.1-7.9-10.1s-8.1 5.2-8.1 10.3zM158.2 32.8c0-3.1-.1-5.8-.2-8.2h4.2l.2 5.2h.2c1.2-3.5 4.1-5.8 7.3-5.8.5 0 .9.1 1.4.2v4.5c-.5-.1-1-.2-1.6-.2-3.4 0-5.8 2.6-6.5 6.2-.1.7-.2 1.4-.2 2.2V51h-4.8V32.8zM173.5 12.3h4.8V51h-4.8V12.3zM206.5 12.3v31.9c0 2.3.1 5 .2 6.8h-4.3l-.2-4.6h-.2c-1.5 2.9-4.7 5.2-9 5.2-6.4 0-11.3-5.4-11.3-13.4-.1-8.8 5.4-14.2 11.9-14.2 4 0 6.8 1.9 8 4h.1V12.3h4.8zm-4.8 23.1c0-.6-.1-1.4-.2-2a7 7 0 00-6.9-5.6c-5 0-7.9 4.4-7.9 10.2 0 5.3 2.6 9.8 7.8 9.8 3.2 0 6.2-2.1 7.1-5.7.2-.7.2-1.3.2-2.1v-4.6zM42.8 64c.1 1.6-1.1 2.9-3.1 2.9-1.7 0-2.9-1.3-2.9-2.9 0-1.7 1.3-3 3-3 1.9 0 3 1.3 3 3zm-5.4 33.8V71.4h4.8v26.4h-4.8zM47.5 78.6c0-2.7-.1-5-.2-7.1h4.3l.3 4.4h.1c1.3-2.5 4.4-5 8.8-5 3.7 0 9.4 2.2 9.4 11.2v15.8h-4.8V82.6c0-4.3-1.6-7.8-6.1-7.8-3.2 0-5.6 2.2-6.5 4.9-.2.6-.3 1.4-.3 2.2v15.9h-4.8V78.6zM84 61.6c2.9-.4 6.3-.8 10.1-.8 6.8 0 11.7 1.6 14.9 4.6 3.3 3 5.2 7.3 5.2 13.2 0 6-1.9 10.9-5.3 14.3-3.4 3.4-9.1 5.3-16.3 5.3-3.4 0-6.2-.2-8.6-.4V61.6zm4.8 32.5c1.2.2 3 .3 4.8.3 10.2 0 15.7-5.7 15.7-15.6.1-8.7-4.9-14.2-14.9-14.2-2.5 0-4.3.2-5.6.5v29zM132.1 97.8l-.4-3.3h-.2a9.79 9.79 0 01-8.1 3.9c-5.4 0-8.1-3.8-8.1-7.6 0-6.4 5.7-9.9 15.9-9.8v-.5c0-2.2-.6-6.1-6-6.1-2.5 0-5 .8-6.9 2l-1.1-3.2c2.2-1.4 5.4-2.3 8.7-2.3 8.1 0 10.1 5.5 10.1 10.8v9.9c0 2.3.1 4.5.4 6.3h-4.3zm-.7-13.4c-5.3-.1-11.2.8-11.2 5.9 0 3.1 2.1 4.6 4.5 4.6 3.4 0 5.6-2.2 6.4-4.4.2-.5.3-1 .3-1.5v-4.6zM146.6 63.9v7.6h6.9v3.7h-6.9v14.2c0 3.3.9 5.1 3.6 5.1 1.3 0 2.2-.2 2.8-.3l.2 3.6c-.9.4-2.4.7-4.3.7-2.2 0-4-.7-5.2-2-1.4-1.4-1.9-3.8-1.9-6.9V75.1h-4.1v-3.7h4.1v-6.3l4.8-1.2zM171.4 97.8l-.4-3.3h-.2a9.79 9.79 0 01-8.1 3.9c-5.4 0-8.1-3.8-8.1-7.6 0-6.4 5.7-9.9 15.9-9.8v-.5c0-2.2-.6-6.1-6-6.1-2.5 0-5 .8-6.9 2l-1.1-3.2c2.2-1.4 5.4-2.3 8.7-2.3 8.1 0 10.1 5.5 10.1 10.8v9.9c0 2.3.1 4.5.4 6.3h-4.3zm-.7-13.4c-5.3-.1-11.2.8-11.2 5.9 0 3.1 2.1 4.6 4.5 4.6 3.4 0 5.6-2.2 6.4-4.4.2-.5.3-1 .3-1.5v-4.6z"/></g></g></a></g><a href="https://ourworldindata.org/grapher/world-pop-by-political-regime?stackMode=relative" target="_blank"><text font-size="26.1" x="15" y="35.9" fill="#555"><tspan x="15" y="35.88">Number of world citizens living under different political regimes</tspan></text></a><text font-size="14.4" x="15" y="54.6" fill="#666"><tspan x="15" y="54.62">The Polity IV score captures the type of political regime for each country on a range from -10 (full autocracy) to +10</tspan><tspan x="15" y="70.46">(full democracy). Regimes that fall into the middle of this spectrum are called anocracies.</tspan></text></g><g class="StackedArea"><defs><clipPath id="a"><path d="M61.63 0h820v897.8h-820z"/></clipPath></defs><g class="AxisBoxView"><g class="HorizontalAxis" fill="#666" text-anchor="middle" font-size="16.2"><text x="61.6" y="541.9">1816</text><text x="167.6" y="541.9">1850</text><text x="323.4" y="541.9">1900</text><text x="479.2" y="541.9">1950</text><text x="635.1" y="541.9">2000</text><text x="681.8" y="541.9">2015</text></g><g class="VerticalAxis" fill="#666" dominant-baseline="middle" text-anchor="end" font-size="16.2"><text x="56.63" y="520.7">0%</text><text x="56.63" y="435.2">20%</text><text x="56.63" y="349.6">40%</text><text x="56.63" y="264.1">60%</text><text x="56.63" y="178.5">80%</text><text x="56.63" y="93">100%</text></g><g class="AxisGridLines"><path stroke="#ccc" d="M61.63 520.7H681.8"/><path stroke="#ddd" stroke-dasharray="3,2" d="M61.63 435.2H681.8M61.63 349.6H681.8M61.63 264.1H681.8M61.63 178.5H681.8M61.63 93H681.8"/></g><g class="AxisGridLines" stroke="#ddd" stroke-dasharray="3,2"><path d="M167.6 520.7V93M323.4 520.7V93M479.2 520.7V93M635.1 520.7V93"/></g></g><g clip-path="url(#a)"><g class="HeightedLegend clickable"><g class="legendMark"><path fill="#c8c8c8" d="M686.8 100.55h10v2.5h-10z"/><text font-size="14.4" x="701.8" y="98.4" fill="#333"><tspan x="701.8" y="98.37">Country in Transition</tspan><tspan x="701.8" y="114.21">or No Data</tspan></text></g><g class="legendMark"><path fill="#3f3772" d="M686.8 122.7h10v2.5h-10z"/><text font-size="14.4" x="701.8" y="128.3" fill="#333"><tspan x="701.8" y="128.27">Population in Colony</tspan></text></g><g class="legendMark"><path fill="#ca2628" d="M686.8 159.05h10v2.5h-10z"/><text font-size="14.4" x="701.8" y="156.9" fill="#333"><tspan x="701.8" y="156.87">Population in</tspan><tspan x="701.8" y="172.71">Autocracy</tspan></text></g><g class="legendMark"><path fill="#f07f59" d="M686.8 221.55h10v2.5h-10z"/><text font-size="14.4" x="701.8" y="219.4" fill="#333"><tspan x="701.8" y="219.37">Population in Closed</tspan><tspan x="701.8" y="235.21">Anocracy</tspan></text></g><g class="legendMark"><path fill="#fceb8c" d="M686.8 257.55h10v2.5h-10z"/><text font-size="14.4" x="701.8" y="255.4" fill="#333"><tspan x="701.8" y="255.37">Population in Open</tspan><tspan x="701.8" y="271.21">Anocracy</tspan></text></g><g class="legendMark"><path fill="#34983f" d="M686.8 400.15h10v2.5h-10z"/><text font-size="14.4" x="701.8" y="398" fill="#333"><tspan x="701.8" y="397.97">Population in</tspan><tspan x="701.8" y="413.81">Democracy</tspan></text></g></g><g class="Areas"><path d="M61.6 517l3.2-.1h3.1l3.1-.1h3.1l3.1-.1 3.1-.2 3.1-.1 3.2-.1 3.1-.1 3.1-.1 3.1-.1 3.1-.1 3.1-.1 3.2-.1 3.1-.1 3.1-.1 3.1-.2 3.1-.1 3.1-.1 3.2-.1 3.1-.2 3.1-.1 3.1-.1 3.1-.1 3.1-.2 3.2-.2 3.1-.2 3.1-.2 3.1-.1 3.1-.2 3.1-.2 3.2-13.3 3.1-.2 3.1-.1 3.1 12.1 3.1-.3 3.1-1.7 3.2-.2 3.1-.3 3.1-.2 3.1-.3 3.1-.2 3.1-.2 3.2-.2 3.1-.2 3.1-.3 3.1-.2 3.1-1.3 3.1-.2 3.2-.2 3.1-1 3.1-.2 3.1-.2 3.1-.2 3.1-.2 3.2-.3 3.1-.3 3.1-.2 3.1-.4 3.1-11.5 3.1-.4 3.2-.2 3.1-.3 3.1-9.2 3.1-.3 3.1-.4 3.1-.3 3.2-.3 3.1-.3 3.1.5 3.1-.2 3.1-1.6 3.1-.3 3.1-.3 3.2-.3 3.1-.2 3.1-.3 3.1-.3 3.1-.3 3.1-.2 3.2-.3 3.1-.9 3.1-.2 3.1-5.1 3.1-1.3 3.1-.3 3.2-.3 3.1-.3 3.1-.4 3.1-.3 3.1-.4 3.1-.3 3.2-.4 3.1-.5 3.1-2.4 3.1-.3 3.1-.4h3.1l3.2-.5 3.1.1 3.1-2.4 3.1-5.4 3.1-15.1 3.1-1.8 3.2.1 3.1-.1 3.1 4.7 3.1-.1h3.1l3.1 6 3.2.2 3.1.2 3.1.3 3.1.3 3.1-3.7 3.1.4 3.2 15 3.1.9 3.1.3 3.1 1.7 3.1.2 3.1.2 3.2 6.4 3.1 10.8h3.1l3.1-.2 3.1-.2 3.1-3.7 3.2-3.2 3.1-20.5 3.1-61.4 3.1-4.6 3.1 1.5 3.1-1.9 3.1.5 3.2-13.9 3.1.3 3.1 3.4 3.1.3 3.1-7.4 3.1-3.3 3.2 4.1 3.1-.4 3.1-14.1 3.1 13.8 3.1 1.7 3.1 1.1 3.2-.8 3.1-1 3.1 7.9 3.1.8 3.1.4 3.1-2.4 3.2.7 3.1 4.9 3.1-7.1 3.1-12.3 3.1 7.8 3.1-.7 3.2 1.9 3.1 7.6 3.1-4.1 3.1-8.7 3.1 2.7 3.1 1.3 3.2.8 3.1-6.8 3.1 7.3 3.1-11.5 3.1-1.2 3.1-4.4 3.2-11.8 3.1.3 3.1-8.7 3.1-17.9 3.1-10 3.1 2.4 3.2-4.5 3.1 1.1 3.1-1.6 3.1-6.9h3.1l3.1-6 3.2-11.1 3.1-3.6 3.1-.6 3.1 1.6 3.1-1.8 3.1-.6 3.2 2.5 3.1 19.3 3.1-2.3 3.1 3.7 3.1-10.5 3.1-5.3 3.2 1.4 3.1-.3 3.1 9.7 3.1-12.1v238.7H61.63" fill="#34983f" fill-opacity=".7" class="World_5-area"/><path d="M61.6 517l3.2-.1h3.1l3.1-.1h3.1l3.1-.1 3.1-.2 3.1-.1 3.2-.1 3.1-.1 3.1-.6 3.1-.1 3.1-.1 3.1-.1 3.2-.1 3.1-.2 3.1-.7 3.1-.1 3.1-.2 3.1.5 3.2-1.4 3.1-7.5 3.1-1 3.1-.2 3.1-.2 3.1-.3 3.2 1.1 3.1-.2 3.1-.3 3.1-.2 3.1-.2 3.1-.3 3.2-13.3 3.1-.6 3.1-.2 3.1 12.1 3.1-.3 3.1-1.8 3.2-.3 3.1-1.9 3.1-.3 3.1-.3 3.1.7 3.1-.3 3.2.4 3.1-.3 3.1-.2 3.1-1.4 3.1-.3 3.1-.3 3.2.3 3.1-2.1 3.1-10.9 3.1-.2 3.1-.3 3.1-5.3 3.2-11.7 3.1 4.6 3.1-1 3.1-.4 3.1-.3 3.1-.4 3.2-.4 3.1-5.6 3.1-1.6 3.1-.4 3.1-.4 3.1-.4 3.2-.3 3.1-.4 3.1-.4 3.1-.3 3.1-.4 3.1-.4 3.1-13.4 3.2-.4 3.1-.4 3.1-.4 3.1-.6 3.1-.4 3.1-.2 3.2-.5 3.1-1.4 3.1-.6 3.1-.1 3.1-1.5 3.1-1.1 3.2-1.8 3.1-1.1 3.1-.6 3.1-.6 3.1-.6 3.1-2.3 3.2-.7 3.1-3.8 3.1-.7 3.1-105 3.1 103.7 3.1 1 3.2-.8 3.1 1.3 3.1-3.6 3.1-7.3 3.1 2.1 3.1-2 3.2-.4 3.1-2 3.1 4.5 3.1.7 3.1-.3 3.1 4.9h3.2l3.1 1.5 3.1 3.5 3.1-1 3.1.7 3.1.4 3.2 13.8 3.1 1 3.1-5.8 3.1 2.2 3.1-2.7 3.1.1 3.2 5.1 3.1 10.8 3.1 3.6 3.1-.5 3.1 2 3.1-7.2 3.2-5.9 3.1-24.9 3.1-62.1 3.1-8.2 3.1.4 3.1 9.6 3.1 1 3.2-9.5 3.1.1h3.1l3.1-.4 3.1-2.6 3.1-3.3 3.2 7.4 3.1-1.8 3.1-9.3 3.1 3.9 3.1-3.6 3.1-4.9 3.2 10.4 3.1-1 3.1 8.4 3.1 1.9 3.1 1.5 3.1-3.3 3.2 7.8 3.1 9.2 3.1-5.1 3.1-5.3 3.1 3 3.1-.8 3.2 3.6 3.1 6.9 3.1-4.9 3.1-10.5 3.1 3.5 3.1 1.2 3.2-.8 3.1-6.9 3.1 7.8 3.1-10.7 3.1-6.8 3.1-2.3 3.2-8.4 3.1-3.6 3.1-12.5 3.1-12.6 3.1-17.4 3.1-2.1 3.2-9.1 3.1 1 3.1-.3 3.1-3.3 3.1-.8 3.1-14.7 3.2-1.2 3.1-.2 3.1.1 3.1-3.7 3.1 2.4 3.1-1.3 3.2 2.1 3.1-1.5 3.1-4.1 3.1-6 3.1-2.7 3.1-3.1 3.2-1.1 3.1-2.7 3.1 5.7 3.1-3.6V282l-3.1 12.1-3.1-9.7-3.1.3-3.2-1.4-3.1 5.3-3.1 10.5-3.1-3.7-3.1 2.3-3.1-19.3-3.2-2.5-3.1.6-3.1 1.8-3.1-1.6-3.1.6-3.1 3.6-3.2 11.1-3.1 6h-3.1l-3.1 6.9-3.1 1.6-3.1-1.1-3.2 4.5-3.1-2.4-3.1 10-3.1 17.9-3.1 8.7-3.1-.3-3.2 11.8-3.1 4.4-3.1 1.2-3.1 11.5-3.1-7.3-3.1 6.8-3.2-.8-3.1-1.3-3.1-2.7-3.1 8.7-3.1 4.1-3.1-7.6-3.2-1.9-3.1.7-3.1-7.8-3.1 12.3-3.1 7.1-3.1-4.9-3.2-.7-3.1 2.4-3.1-.4-3.1-.8-3.1-7.9-3.1 1-3.2.8-3.1-1.1-3.1-1.7-3.1-13.8-3.1 14.1-3.1.4-3.2-4.1-3.1 3.3-3.1 7.4-3.1-.3-3.1-3.4-3.1-.3-3.2 13.9-3.1-.5-3.1 1.9-3.1-1.5-3.1 4.6-3.1 61.4-3.1 20.5-3.2 3.2-3.1 3.7-3.1.2-3.1.2h-3.1l-3.1-10.8-3.2-6.4-3.1-.2-3.1-.2-3.1-1.7-3.1-.3-3.1-.9-3.2-15-3.1-.4-3.1 3.7-3.1-.3-3.1-.3-3.1-.2-3.2-.2-3.1-6h-3.1l-3.1.1-3.1-4.7-3.1.1-3.2-.1-3.1 1.8-3.1 15.1-3.1 5.4-3.1 2.4-3.1-.1-3.2.5h-3.1l-3.1.4-3.1.3-3.1 2.4-3.1.5-3.2.4-3.1.3-3.1.4-3.1.3-3.1.4-3.1.3-3.2.3-3.1.3-3.1 1.3-3.1 5.1-3.1.2-3.1.9-3.2.3-3.1.2-3.1.3-3.1.3-3.1.3-3.1.2-3.2.3-3.1.3-3.1.3-3.1 1.6-3.1.2-3.1-.5-3.1.3-3.2.3-3.1.3-3.1.4-3.1.3-3.1 9.2-3.1.3-3.2.2-3.1.4-3.1 11.5-3.1.4-3.1.2-3.1.3-3.2.3-3.1.2-3.1.2-3.1.2-3.1.2-3.1 1-3.2.2-3.1.2-3.1 1.3-3.1.2-3.1.3-3.1.2-3.2.2-3.1.2-3.1.2-3.1.3-3.1.2-3.1.3-3.2.2-3.1 1.7-3.1.3-3.1-12.1-3.1.1-3.1.2-3.2 13.3-3.1.2-3.1.2-3.1.1-3.1.2-3.1.2-3.2.2-3.1.2-3.1.1-3.1.1-3.1.1-3.1.2-3.2.1-3.1.1-3.1.1-3.1.2-3.1.1-3.1.1-3.2.1-3.1.1-3.1.1-3.1.1-3.1.1-3.1.1-3.2.1-3.1.1-3.1.2-3.1.1H71l-3.1.1h-3.1l-3.2.1" fill="#fceb8c" fill-opacity=".7" class="World_4-area"/><path d="M61.6 498.4l3.2-.1 3.1-.4 3.1-.1 3.1-6.5 3.1-.7 3.1-2.9 3.1 4.7 3.2-.2 3.1-.9 3.1-.2 3.1-1.1 3.1-.2 3.1-.2 3.2-2.2 3.1-.2 3.1-.7 3.1-.2 3.1-.2 3.1-.2 3.2-5.2 3.1-.2 3.1-1.3 3.1-.5 3.1-.3 3.1.1 3.2-.7 3.1-.3 3.1-.3 3.1-.3 3.1.9 3.1-.4 3.2-4.6 3.1-.7 3.1-.2 3.1-.2 3.1 12.1 3.1-.4 3.2-.4 3.1-1.7 3.1-.4 3.1-.4 3.1.5 3.1 2 3.2-1.3 3.1-10.2 3.1-11 3.1 2.4 3.1-2.7 3.1-.3 3.2 2.4 3.1-3.3 3.1-5.3 3.1-24.2 3.1-.3 3.1-.1 3.2-.8 3.1-1.1 3.1-.4 3.1-.6 3.1-.8 3.1 3.1 3.2-.5 3.1-1.4 3.1-2.3 3.1 1.2 3.1-.5 3.1-2.2 3.2-.6 3.1-.5 3.1-.5 3.1-.4 3.1-.5 3.1-4.4 3.1-.6 3.2-.5 3.1-.5 3.1-.6 3.1.4 3.1-.6 3.1-.6 3.2-.7 3.1-.6 3.1-.7 3.1-.2 3.1-1.7 3.1-1.3 3.2-.6 3.1-.8 3.1-.7 3.1-3.4 3.1.8 3.1-6 3.2-.1 3.1-5.2 3.1-108.6 3.1-1.2 3.1-1.6 3.1.3 3.2-1 3.1 3.6 3.1-23.2 3.1-2.5 3.1 1.1 3.1-3.1 3.2-1.2 3.1-6.1 3.1 26.1 3.1 2.5 3.1 10.2 3.1-.5 3.2.8 3.1 1.1 3.1 3.6 3.1 5.3 3.1.2 3.1 7.9 3.2 14 3.1-2.1 3.1 4.1 3.1 5.4 3.1-4.1 3.1 2.1 3.2.5 3.1 11.2 3.1 1.3 3.1-6.3 3.1-7.5 3.1-11.1 3.2-10.5 3.1.9 3.1-62.1 3.1-6.5 3.1 95.4 3.1-4.5 3.1 2.2 3.2-6.6 3.1-.8 3.1 4.6 3.1-3.8 3.1-6.4 3.1-2.6 3.2 12 3.1-1.6 3.1-9.6 3.1 2.6 3.1-3.6 3.1-4.9 3.2.5 3.1 12.7 3.1 23.4 3.1 2.9 3.1-1.4 3.1 1.2 3.2-1.2 3.1 6.8 3.1 1.6 3.1-4.9 3.1-16.4 3.1 8 3.2 8.1 3.1-3.1 3.1-20.3 3.1-3.1 3.1-1 3.1-4.2 3.2 11.7 3.1-2.6 3.1 7.9 3.1-10.4 3.1-11.4 3.1-1.4 3.2-2.5 3.1-13.7 3.1-9.4L607 262l3.1-16.3 3.1 5 3.2 1.6 3.1-1.7 3.1 2.9 3.1-4.1 3.1-24.6 3.1 6.9 3.2-.7 3.1-.4 3.1-7.8 3.1-.2 3.1 4.3 3.1-7.6 3.2-2.7 3.1 9 3.1-.2 3.1-9.3 3.1-2.2 3.1-5.5 3.2 1.4 3.1-.2 3.1-2.3 3.1 2.7v25.6l-3.1 3.6-3.1-5.7-3.1 2.7-3.2 1.1-3.1 3.1-3.1 2.7-3.1 6-3.1 4.1-3.1 1.5-3.2-2.1-3.1 1.3-3.1-2.4-3.1 3.7-3.1-.1-3.1.2-3.2 1.2-3.1 14.7-3.1.8-3.1 3.3-3.1.3-3.1-1-3.2 9.1-3.1 2.1-3.1 17.4-3.1 12.6-3.1 12.5-3.1 3.6-3.2 8.4-3.1 2.3-3.1 6.8-3.1 10.7-3.1-7.8-3.1 6.9-3.2.8-3.1-1.2-3.1-3.5-3.1 10.5-3.1 4.9-3.1-6.9-3.2-3.6-3.1.8-3.1-3-3.1 5.3-3.1 5.1-3.1-9.2-3.2-7.8-3.1 3.3-3.1-1.5-3.1-1.9-3.1-8.4-3.1 1-3.2-10.4-3.1 4.9-3.1 3.6-3.1-3.9-3.1 9.3-3.1 1.8-3.2-7.4-3.1 3.3-3.1 2.6-3.1.4h-3.1l-3.1-.1-3.2 9.5-3.1-1-3.1-9.6-3.1-.4-3.1 8.2-3.1 62.1-3.1 24.9-3.2 5.9-3.1 7.2-3.1-2-3.1.5-3.1-3.6-3.1-10.8-3.2-5.1-3.1-.1-3.1 2.7-3.1-2.2-3.1 5.8-3.1-1-3.2-13.8-3.1-.4-3.1-.7-3.1 1-3.1-3.5-3.1-1.5h-3.2l-3.1-4.9-3.1.3-3.1-.7-3.1-4.5-3.1 2-3.2.4-3.1 2-3.1-2.1-3.1 7.3-3.1 3.6-3.1-1.3-3.2.8-3.1-1-3.1-103.7-3.1 105-3.1.7-3.1 3.8-3.2.7-3.1 2.3-3.1.6-3.1.6-3.1.6-3.1 1.1-3.2 1.8-3.1 1.1-3.1 1.5-3.1.1-3.1.6-3.1 1.4-3.2.5-3.1.2-3.1.4-3.1.6-3.1.4-3.1.4-3.2.4-3.1 13.4-3.1.4-3.1.4-3.1.3-3.1.4-3.1.4-3.2.3-3.1.4-3.1.4-3.1.4-3.1 1.6-3.1 5.6-3.2.4-3.1.4-3.1.3-3.1.4-3.1 1-3.1-4.6-3.2 11.7-3.1 5.3-3.1.3-3.1.2-3.1 10.9-3.1 2.1-3.2-.3-3.1.3-3.1.3-3.1 1.4-3.1.2-3.1.3-3.2-.4-3.1.3-3.1-.7-3.1.3-3.1.3-3.1 1.9-3.2.3-3.1 1.8-3.1.3-3.1-12.1-3.1.2-3.1.6-3.2 13.3-3.1.3-3.1.2-3.1.2-3.1.3-3.1.2-3.2-1.1-3.1.3-3.1.2-3.1.2-3.1 1-3.1 7.5-3.2 1.4-3.1-.5-3.1.2-3.1.1-3.1.7-3.1.2-3.2.1-3.1.1-3.1.1-3.1.1-3.1.6-3.1.1-3.2.1-3.1.1-3.1.2-3.1.1H71l-3.1.1h-3.1l-3.2.1" fill="#f07f59" fill-opacity=".7" class="World_3-area"/><path d="M61.6 303.4l3.2-.5 3.1-.8 3.1-.4 3.1-2.1 3.1-1.1 3.1-3.1 3.1-.6 3.2-2.4 3.1-1.3 3.1-.5 3.1-1.5 3.1-.5 3.1-.5 3.2-3.4 3.1.4 3.1-.1 3.1.4 3.1.5 3.1.4 3.2.4 3.1.4 3.1.3 3.1.1 3.1.4 3.1.8h3.2l3.1.4 3.1.4 3.1.4 3.1 3.1 3.1.4 3.2-2.9 3.1.5 3.1.5 3.1 1.6 3.1 1.7 3.1 1.5 3.2 1.4 3.1-.1 3.1 1.5 3.1 1.3 3.1 1.3 3.1-1.4 3.2 1.3 3.1-7.5 3.1.8 3.1 3.5 3.1-2 3.1.8 3.2.8 3.1-2.2 3.1-11.2 3.1.6 3.1.9h3.1l3.2-.2 3.1-.3 3.1-.3 3.1-.4 3.1-.4 3.1-.5 3.2-.4 3.1-1.2 3.1-.4 3.1.4 3.1-.4 3.1-1.3 3.2-.4 3.1-.4 3.1-.4 3.1-.4 3.1-.4 3.1-.4 3.1-.4 3.2-.6 3.1-.5 3.1-.6 3.1-.6 3.1-.7 3.1-.6 3.2-.7 3.1-.7 3.1-.7 3.1-.6 3.1-1.8 3.1-1.3 3.2-.9 3.1-.8 3.1-.8 3.1-.8 3.1-.8 3.1-1 3.2-1 3.1-2.5 3.1-1.6 3.1-1.3 3.1.6 3.1-.9 3.2-1.1 3.1 3.5 3.1-5.5 3.1-3.2 3.1 1 3.1-2.3 3.2-.8 3.1-6.2 3.1 18.1 3.1-.4 3.1.1 3.1.1 3.2.8 3.1.7 3.1 1 3.1.9 3.1.7 3.1.7 3.2.8 3.1.9 3.1-1.8 3.1 3.6 3.1.4 3.1.2 3.2 1.5 3.1 3.1 3.1 6.5 3.1-6.5 3.1-.7 3.1-3.7 3.2 9 3.1-.5 3.1-67.8 3.1-7.8 3.1-.5 3.1-2 3.1-.7 3.2-14.2 3.1-.9 3.1-.4 3.1-.1 3.1-1.5 3.1-2.8 3.2.1 3.1-1.1 3.1-15.6 3.1-2.6 3.1-2.8 3.1-.7 3.2-.8 3.1-.3 3.1-.5 3.1-.4 3.1-.6 3.1-.6 3.2-1.2 3.1-.6 3.1-8.2 3.1-.5 3.1-.5 3.1-2.6 3.2-.3 3.1-5.7 3.1-.3 3.1 2.9 3.1-1.6 3.1-.4 3.2-.4 3.1-.3 3.1-.3 3.1-.3 3.1-.1 3.1-.2 3.2-.8 3.1-1.1 3.1-7.1 3.1-12.3 3.1-10.9 3.1-1.4 3.2 4.2 3.1.1h6.2l3.1-.1H635.1l3.1 1.7 3.1.2 3.1 1.9 3.1.3h3.1l3.2-.4 3.1.3 3.1.4 3.1.4 3.1-1.6 3.1.4 3.2 2 3.1.4 3.1-1.6 3.1 3.3V210l-3.1-2.7-3.1 2.3-3.1.2-3.2-1.4-3.1 5.5-3.1 2.2-3.1 9.3-3.1.2-3.1-9-3.2 2.7-3.1 7.6-3.1-4.3-3.1.2-3.1 7.8-3.1.4-3.2.7-3.1-6.9-3.1 24.6-3.1 4.1-3.1-2.9-3.1 1.7-3.2-1.6-3.1-5L607 262l-3.1 22.9-3.1 9.4-3.1 13.7-3.2 2.5-3.1 1.4-3.1 11.4-3.1 10.4-3.1-7.9-3.1 2.6-3.2-11.7-3.1 4.2-3.1 1-3.1 3.1-3.1 20.3-3.1 3.1-3.2-8.1-3.1-8-3.1 16.4-3.1 4.9-3.1-1.6-3.1-6.8-3.2 1.2-3.1-1.2-3.1 1.4-3.1-2.9-3.1-23.4-3.1-12.7-3.2-.5-3.1 4.9-3.1 3.6-3.1-2.6-3.1 9.6-3.1 1.6-3.2-12-3.1 2.6-3.1 6.4-3.1 3.8-3.1-4.6-3.1.8-3.2 6.6-3.1-2.2-3.1 4.5-3.1-95.4-3.1 6.5-3.1 62.1-3.1-.9-3.2 10.5-3.1 11.1-3.1 7.5-3.1 6.3-3.1-1.3-3.1-11.2-3.2-.5-3.1-2.1-3.1 4.1-3.1-5.4-3.1-4.1-3.1 2.1-3.2-14-3.1-7.9-3.1-.2-3.1-5.3-3.1-3.6-3.1-1.1-3.2-.8-3.1.5-3.1-10.2-3.1-2.5-3.1-26.1-3.1 6.1-3.2 1.2-3.1 3.1-3.1-1.1-3.1 2.5-3.1 23.2-3.1-3.6-3.2 1-3.1-.3-3.1 1.6-3.1 1.2-3.1 108.6-3.1 5.2-3.2.1-3.1 6-3.1-.8-3.1 3.4-3.1.7-3.1.8-3.2.6-3.1 1.3-3.1 1.7-3.1.2-3.1.7-3.1.6-3.2.7-3.1.6-3.1.6-3.1-.4-3.1.6-3.1.5-3.2.5-3.1.6-3.1 4.4-3.1.5-3.1.4-3.1.5-3.1.5-3.2.6-3.1 2.2-3.1.5-3.1-1.2-3.1 2.3-3.1 1.4-3.2.5-3.1-3.1-3.1.8-3.1.6-3.1.4-3.1 1.1-3.2.8-3.1.1-3.1.3-3.1 24.2-3.1 5.3-3.1 3.3-3.2-2.4-3.1.3-3.1 2.7-3.1-2.4-3.1 11-3.1 10.2-3.2 1.3-3.1-2-3.1-.5-3.1.4-3.1.4-3.1 1.7-3.2.4-3.1.4-3.1-12.1-3.1.2-3.1.2-3.1.7-3.2 4.6-3.1.4-3.1-.9-3.1.3-3.1.3-3.1.3-3.2.7-3.1-.1-3.1.3-3.1.5-3.1 1.3-3.1.2-3.2 5.2-3.1.2-3.1.2-3.1.2-3.1.7-3.1.2-3.2 2.2-3.1.2-3.1.2-3.1 1.1-3.1.2-3.1.9-3.2.2-3.1-4.7-3.1 2.9-3.1.7-3.1 6.5-3.1.1-3.1.4-3.2.1" fill="#ca2628" fill-opacity=".7" class="World_2-area"/><path d="M61.6 140.8l3.2.3 3.1-1.4 3.1-.1 3.1-1.3 3.1 1.3 3.1-1.5 3.1-.6 3.2-2 3.1-1.3 3.1-.7 3.1-.6 3.1-.5 3.1-.3 3.2-.9 3.1.4 3.1-.2 3.1.5 3.1.4 3.1.4 3.2.4 3.1.3 3.1.3h3.1l3.1.4 3.1.8 3.2-.1 3.1.4 3.1.4 3.1.4 3.1 3.1 3.1.4 3.2-2.8 3.1.6 3.1.5 3.1 1.6 3.1 1.6 3.1 1.4 3.2 1.3 3.1-.1 3.1 1.3 3.1 1.3 3.1 1.2 3.1 1.2 3.2 1.2 3.1.8 3.1.7 3.1 3.5 3.1-2 3.1.7 3.2.7 3.1.6 3.1-11.2 3.1.6 3.1.4 3.1-.2 3.2-.5 3.1-.5 3.1-.6 3.1-.5 3.1-.6 3.1-.7 3.2-.6 3.1-.6 3.1-.6 3.1.3 3.1-.6 3.1-1.8 3.2-1.5 3.1-.6 3.1-1.7 3.1-.6 3.1-.6 3.1-.6 3.1-1.5 3.2-.7 3.1-.7 3.1-.6 3.1-.8 3.1-.9 3.1-.8 3.2-.9 3.1-.8 3.1-.9 3.1-.8 3.1-.9 3.1-1 3.2-.9 3.1-.9 3.1-.9 3.1-1 3.1-.8 3.1-1.3 3.2-1.1 3.1-1.2 3.1-4.3 3.1-1.4 3.1-.6 3.1-3.1 3.2.1 3.1 3.5 3.1-4.7 3.1 3.4 3.1 7.6 3.1-1.3 3.2-7.1 3.1-2.9 3.1 18.3 3.1.8 3.1.5 3.1.6 3.2 1.2 3.1 1.2 3.1 1.5 3.1.9 3.1.7 3.1.6 3.2.6 3.1.7 3.1.5 3.1 3.3h3.1l3.1-.3 3.2.8 3.1 2.3 3.1 1.8 3.1 5.1 3.1-1.5 3.1-1.2 3.2 11.2 3.1-1.1 3.1 3.4 3.1-6.6 3.1-.4 3.1-1.6 3.1-.8 3.2-14.3h3.1l3.1-.6 3.1-.3 3.1 1.8 3.1-1 3.2.4 3.1-1.2 3.1-1 3.1-.6 3.1.1 3.1.4 3.2.1 3.1.3 3.1-.2 3.1.3 3.1-.5 3.1-.5 3.2-1.1 3.1 7.3 3.1-8.1 3.1-.3 3.1-.4 3.1-.3 3.2-.3 3.1-5.5 3.1-.2 3.1 3 3.1-1.5 3.1-.2 3.2-.3 3.1-.3 3.1-.2 3.1-.1 3.1-.1h3.1l3.2-.7 3.1-1 3.1-6.9 3.1-.1 3.1-10.7 3.1-.2 3.2 4.2 3.1.1h6.2l3.1-.1H635.1l3.1 1.7 3.1.2 3.1 1.9 3.1.3h3.1l3.2-.4 3.1.3 3.1.4 3.1.4 3.1-1.6 3.1.4 3.2 2 3.1.4 3.1-1.6 3.1 3.3-3.1-3.3-3.1 1.6-3.1-.4-3.2-2-3.1-.4-3.1 1.6-3.1-.4-3.1-.4-3.1-.3-3.2.4h-3.1l-3.1-.3-3.1-1.9-3.1-.2-3.1-1.7H628.8l-3.1.1h-6.2l-3.1-.1-3.2-4.2-3.1 1.4-3.1 10.9-3.1 12.3-3.1 7.1-3.1 1.1-3.2.8-3.1.2-3.1.1-3.1.3-3.1.3-3.1.3-3.2.4-3.1.4-3.1 1.6-3.1-2.9-3.1.3-3.1 5.7-3.2.3-3.1 2.6-3.1.5-3.1.5-3.1 8.2-3.1.6-3.2 1.2-3.1.6-3.1.6-3.1.4-3.1.5-3.1.3-3.2.8-3.1.7-3.1 2.8-3.1 2.6-3.1 15.6-3.1 1.1-3.2-.1-3.1 2.8-3.1 1.5-3.1.1-3.1.4-3.1.9-3.2 14.2-3.1.7-3.1 2-3.1.5-3.1 7.8-3.1 67.8-3.1.5-3.2-9-3.1 3.7-3.1.7-3.1 6.5-3.1-6.5-3.1-3.1-3.2-1.5-3.1-.2-3.1-.4-3.1-3.6-3.1 1.8-3.1-.9-3.2-.8-3.1-.7-3.1-.7-3.1-.9-3.1-1-3.1-.7-3.2-.8-3.1-.1-3.1-.1-3.1.4-3.1-18.1-3.1 6.2-3.2.8-3.1 2.3-3.1-1-3.1 3.2-3.1 5.5-3.1-3.5-3.2 1.1-3.1.9-3.1-.6-3.1 1.3-3.1 1.6-3.1 2.5-3.2 1-3.1 1-3.1.8-3.1.8-3.1.8-3.1.8-3.2.9-3.1 1.3-3.1 1.8-3.1.6-3.1.7-3.1.7-3.2.7-3.1.6-3.1.7-3.1.6-3.1.6-3.1.5-3.2.6-3.1.4-3.1.4-3.1.4-3.1.4-3.1.4-3.1.4-3.2.4-3.1 1.3-3.1.4-3.1-.4-3.1.4-3.1 1.2-3.2.4-3.1.5-3.1.4-3.1.4-3.1.3-3.1.3-3.2.2h-3.1l-3.1-.9-3.1-.6-3.1 11.2-3.1 2.2-3.2-.8-3.1-.8-3.1 2-3.1-3.5-3.1-.8-3.1 7.5-3.2-1.3-3.1 1.4-3.1-1.3-3.1-1.3-3.1-1.5-3.1.1-3.2-1.4-3.1-1.5-3.1-1.7-3.1-1.6-3.1-.5-3.1-.5-3.2 2.9-3.1-.4-3.1-3.1-3.1-.4-3.1-.4-3.1-.4h-3.2l-3.1-.8-3.1-.4-3.1-.1-3.1-.3-3.1-.4-3.2-.4-3.1-.4-3.1-.5-3.1-.4-3.1.1-3.1-.4-3.2 3.4-3.1.5-3.1.5-3.1 1.5-3.1.5-3.1 1.3-3.2 2.4-3.1.6-3.1 3.1-3.1 1.1-3.1 2.1-3.1.4-3.1.8-3.2.5" fill="#3f3772" fill-opacity=".7" class="World_1-area"/><path d="M61.6 93H681.8v17.7l-3.1-3.3-3.1 1.6-3.1-.4-3.2-2-3.1-.4-3.1 1.6-3.1-.4-3.1-.4-3.1-.3-3.2.4h-3.1l-3.1-.3-3.1-1.9-3.1-.2-3.1-1.7H628.8l-3.1.1h-6.2l-3.1-.1-3.2-4.2-3.1.2-3.1 10.7-3.1.1-3.1 6.9-3.1 1-3.2.7h-3.1l-3.1.1-3.1.1-3.1.2-3.1.3-3.2.3-3.1.2-3.1 1.5-3.1-3-3.1.2-3.1 5.5-3.2.3-3.1.3-3.1.4-3.1.3-3.1 8.1-3.1-7.3-3.2 1.1-3.1.5-3.1.5-3.1-.3-3.1.2-3.1-.3-3.2-.1-3.1-.4-3.1-.1-3.1.6-3.1 1-3.1 1.2-3.2-.4-3.1 1-3.1-1.8-3.1.3-3.1.6h-3.1l-3.2 14.3-3.1.8-3.1 1.6-3.1.4-3.1 6.6-3.1-3.4-3.1 1.1-3.2-11.2-3.1 1.2-3.1 1.5-3.1-5.1-3.1-1.8-3.1-2.3-3.2-.8-3.1.3h-3.1l-3.1-3.3-3.1-.5-3.1-.7-3.2-.6-3.1-.6-3.1-.7-3.1-.9-3.1-1.5-3.1-1.2-3.2-1.2-3.1-.6-3.1-.5-3.1-.8-3.1-18.3-3.1 2.9-3.2 7.1-3.1 1.3-3.1-7.6-3.1-3.4-3.1 4.7-3.1-3.5-3.2-.1-3.1 3.1-3.1.6-3.1 1.4-3.1 4.3-3.1 1.2-3.2 1.1-3.1 1.3-3.1.8-3.1 1-3.1.9-3.1.9-3.2.9-3.1 1-3.1.9-3.1.8-3.1.9-3.1.8-3.2.9-3.1.8-3.1.9-3.1.8-3.1.6-3.1.7-3.2.7-3.1 1.5-3.1.6-3.1.6-3.1.6-3.1 1.7-3.1.6-3.2 1.5-3.1 1.8-3.1.6-3.1-.3-3.1.6-3.1.6-3.2.6-3.1.7-3.1.6-3.1.5-3.1.6-3.1.5-3.2.5-3.1.2-3.1-.4-3.1-.6-3.1 11.2-3.1-.6-3.2-.7-3.1-.7-3.1 2-3.1-3.5-3.1-.7-3.1-.8-3.2-1.2-3.1-1.2-3.1-1.2-3.1-1.3-3.1-1.3-3.1.1-3.2-1.3-3.1-1.4-3.1-1.6-3.1-1.6-3.1-.5-3.1-.6-3.2 2.8-3.1-.4-3.1-3.1-3.1-.4-3.1-.4-3.1-.4-3.2.1-3.1-.8-3.1-.4h-3.1l-3.1-.3-3.1-.3-3.2-.4-3.1-.4-3.1-.4-3.1-.5-3.1.2-3.1-.4-3.2.9-3.1.3-3.1.5-3.1.6-3.1.7-3.1 1.3-3.2 2-3.1.6-3.1 1.5-3.1-1.3-3.1 1.3-3.1.1-3.1 1.4-3.2-.3" fill="#c8c8c8" fill-opacity=".7" class="World_0-area"/><path stroke-linecap="round" d="M61.6 517l3.2-.1h3.1l3.1-.1h3.1l3.1-.1 3.1-.2 3.1-.1 3.2-.1 3.1-.1 3.1-.1 3.1-.1 3.1-.1 3.1-.1 3.2-.1 3.1-.1 3.1-.1 3.1-.2 3.1-.1 3.1-.1 3.2-.1 3.1-.2 3.1-.1 3.1-.1 3.1-.1 3.1-.2 3.2-.2 3.1-.2 3.1-.2 3.1-.1 3.1-.2 3.1-.2 3.2-13.3 3.1-.2 3.1-.1 3.1 12.1 3.1-.3 3.1-1.7 3.2-.2 3.1-.3 3.1-.2 3.1-.3 3.1-.2 3.1-.2 3.2-.2 3.1-.2 3.1-.3 3.1-.2 3.1-1.3 3.1-.2 3.2-.2 3.1-1 3.1-.2 3.1-.2 3.1-.2 3.1-.2 3.2-.3 3.1-.3 3.1-.2 3.1-.4 3.1-11.5 3.1-.4 3.2-.2 3.1-.3 3.1-9.2 3.1-.3 3.1-.4 3.1-.3 3.2-.3 3.1-.3 3.1.5 3.1-.2 3.1-1.6 3.1-.3 3.1-.3 3.2-.3 3.1-.2 3.1-.3 3.1-.3 3.1-.3 3.1-.2 3.2-.3 3.1-.9 3.1-.2 3.1-5.1 3.1-1.3 3.1-.3 3.2-.3 3.1-.3 3.1-.4 3.1-.3 3.1-.4 3.1-.3 3.2-.4 3.1-.5 3.1-2.4 3.1-.3 3.1-.4h3.1l3.2-.5 3.1.1 3.1-2.4 3.1-5.4 3.1-15.1 3.1-1.8 3.2.1 3.1-.1 3.1 4.7 3.1-.1h3.1l3.1 6 3.2.2 3.1.2 3.1.3 3.1.3 3.1-3.7 3.1.4 3.2 15 3.1.9 3.1.3 3.1 1.7 3.1.2 3.1.2 3.2 6.4 3.1 10.8h3.1l3.1-.2 3.1-.2 3.1-3.7 3.2-3.2 3.1-20.5 3.1-61.4 3.1-4.6 3.1 1.5 3.1-1.9 3.1.5 3.2-13.9 3.1.3 3.1 3.4 3.1.3 3.1-7.4 3.1-3.3 3.2 4.1 3.1-.4 3.1-14.1 3.1 13.8 3.1 1.7 3.1 1.1 3.2-.8 3.1-1 3.1 7.9 3.1.8 3.1.4 3.1-2.4 3.2.7 3.1 4.9 3.1-7.1 3.1-12.3 3.1 7.8 3.1-.7 3.2 1.9 3.1 7.6 3.1-4.1 3.1-8.7 3.1 2.7 3.1 1.3 3.2.8 3.1-6.8 3.1 7.3 3.1-11.5 3.1-1.2 3.1-4.4 3.2-11.8 3.1.3 3.1-8.7 3.1-17.9 3.1-10 3.1 2.4 3.2-4.5 3.1 1.1 3.1-1.6 3.1-6.9h3.1l3.1-6 3.2-11.1 3.1-3.6 3.1-.6 3.1 1.6 3.1-1.8 3.1-.6 3.2 2.5 3.1 19.3 3.1-2.3 3.1 3.7 3.1-10.5 3.1-5.3 3.2 1.4 3.1-.3 3.1 9.7 3.1-12.1" stroke="#2C7F35" stroke-opacity=".7" stroke-width=".5" fill="none" class="World_5-border"/><path stroke-linecap="round" d="M61.6 517l3.2-.1h3.1l3.1-.1h3.1l3.1-.1 3.1-.2 3.1-.1 3.2-.1 3.1-.1 3.1-.6 3.1-.1 3.1-.1 3.1-.1 3.2-.1 3.1-.2 3.1-.7 3.1-.1 3.1-.2 3.1.5 3.2-1.4 3.1-7.5 3.1-1 3.1-.2 3.1-.2 3.1-.3 3.2 1.1 3.1-.2 3.1-.3 3.1-.2 3.1-.2 3.1-.3 3.2-13.3 3.1-.6 3.1-.2 3.1 12.1 3.1-.3 3.1-1.8 3.2-.3 3.1-1.9 3.1-.3 3.1-.3 3.1.7 3.1-.3 3.2.4 3.1-.3 3.1-.2 3.1-1.4 3.1-.3 3.1-.3 3.2.3 3.1-2.1 3.1-10.9 3.1-.2 3.1-.3 3.1-5.3 3.2-11.7 3.1 4.6 3.1-1 3.1-.4 3.1-.3 3.1-.4 3.2-.4 3.1-5.6 3.1-1.6 3.1-.4 3.1-.4 3.1-.4 3.2-.3 3.1-.4 3.1-.4 3.1-.3 3.1-.4 3.1-.4 3.1-13.4 3.2-.4 3.1-.4 3.1-.4 3.1-.6 3.1-.4 3.1-.2 3.2-.5 3.1-1.4 3.1-.6 3.1-.1 3.1-1.5 3.1-1.1 3.2-1.8 3.1-1.1 3.1-.6 3.1-.6 3.1-.6 3.1-2.3 3.2-.7 3.1-3.8 3.1-.7 3.1-105 3.1 103.7 3.1 1 3.2-.8 3.1 1.3 3.1-3.6 3.1-7.3 3.1 2.1 3.1-2 3.2-.4 3.1-2 3.1 4.5 3.1.7 3.1-.3 3.1 4.9h3.2l3.1 1.5 3.1 3.5 3.1-1 3.1.7 3.1.4 3.2 13.8 3.1 1 3.1-5.8 3.1 2.2 3.1-2.7 3.1.1 3.2 5.1 3.1 10.8 3.1 3.6 3.1-.5 3.1 2 3.1-7.2 3.2-5.9 3.1-24.9 3.1-62.1 3.1-8.2 3.1.4 3.1 9.6 3.1 1 3.2-9.5 3.1.1h3.1l3.1-.4 3.1-2.6 3.1-3.3 3.2 7.4 3.1-1.8 3.1-9.3 3.1 3.9 3.1-3.6 3.1-4.9 3.2 10.4 3.1-1 3.1 8.4 3.1 1.9 3.1 1.5 3.1-3.3 3.2 7.8 3.1 9.2 3.1-5.1 3.1-5.3 3.1 3 3.1-.8 3.2 3.6 3.1 6.9 3.1-4.9 3.1-10.5 3.1 3.5 3.1 1.2 3.2-.8 3.1-6.9 3.1 7.8 3.1-10.7 3.1-6.8 3.1-2.3 3.2-8.4 3.1-3.6 3.1-12.5 3.1-12.6 3.1-17.4 3.1-2.1 3.2-9.1 3.1 1 3.1-.3 3.1-3.3 3.1-.8 3.1-14.7 3.2-1.2 3.1-.2 3.1.1 3.1-3.7 3.1 2.4 3.1-1.3 3.2 2.1 3.1-1.5 3.1-4.1 3.1-6 3.1-2.7 3.1-3.1 3.2-1.1 3.1-2.7 3.1 5.7 3.1-3.6" stroke="#D3C575" stroke-opacity=".7" stroke-width=".5" fill="none" class="World_4-border"/><path stroke-linecap="round" d="M61.6 498.4l3.2-.1 3.1-.4 3.1-.1 3.1-6.5 3.1-.7 3.1-2.9 3.1 4.7 3.2-.2 3.1-.9 3.1-.2 3.1-1.1 3.1-.2 3.1-.2 3.2-2.2 3.1-.2 3.1-.7 3.1-.2 3.1-.2 3.1-.2 3.2-5.2 3.1-.2 3.1-1.3 3.1-.5 3.1-.3 3.1.1 3.2-.7 3.1-.3 3.1-.3 3.1-.3 3.1.9 3.1-.4 3.2-4.6 3.1-.7 3.1-.2 3.1-.2 3.1 12.1 3.1-.4 3.2-.4 3.1-1.7 3.1-.4 3.1-.4 3.1.5 3.1 2 3.2-1.3 3.1-10.2 3.1-11 3.1 2.4 3.1-2.7 3.1-.3 3.2 2.4 3.1-3.3 3.1-5.3 3.1-24.2 3.1-.3 3.1-.1 3.2-.8 3.1-1.1 3.1-.4 3.1-.6 3.1-.8 3.1 3.1 3.2-.5 3.1-1.4 3.1-2.3 3.1 1.2 3.1-.5 3.1-2.2 3.2-.6 3.1-.5 3.1-.5 3.1-.4 3.1-.5 3.1-4.4 3.1-.6 3.2-.5 3.1-.5 3.1-.6 3.1.4 3.1-.6 3.1-.6 3.2-.7 3.1-.6 3.1-.7 3.1-.2 3.1-1.7 3.1-1.3 3.2-.6 3.1-.8 3.1-.7 3.1-3.4 3.1.8 3.1-6 3.2-.1 3.1-5.2 3.1-108.6 3.1-1.2 3.1-1.6 3.1.3 3.2-1 3.1 3.6 3.1-23.2 3.1-2.5 3.1 1.1 3.1-3.1 3.2-1.2 3.1-6.1 3.1 26.1 3.1 2.5 3.1 10.2 3.1-.5 3.2.8 3.1 1.1 3.1 3.6 3.1 5.3 3.1.2 3.1 7.9 3.2 14 3.1-2.1 3.1 4.1 3.1 5.4 3.1-4.1 3.1 2.1 3.2.5 3.1 11.2 3.1 1.3 3.1-6.3 3.1-7.5 3.1-11.1 3.2-10.5 3.1.9 3.1-62.1 3.1-6.5 3.1 95.4 3.1-4.5 3.1 2.2 3.2-6.6 3.1-.8 3.1 4.6 3.1-3.8 3.1-6.4 3.1-2.6 3.2 12 3.1-1.6 3.1-9.6 3.1 2.6 3.1-3.6 3.1-4.9 3.2.5 3.1 12.7 3.1 23.4 3.1 2.9 3.1-1.4 3.1 1.2 3.2-1.2 3.1 6.8 3.1 1.6 3.1-4.9 3.1-16.4 3.1 8 3.2 8.1 3.1-3.1 3.1-20.3 3.1-3.1 3.1-1 3.1-4.2 3.2 11.7 3.1-2.6 3.1 7.9 3.1-10.4 3.1-11.4 3.1-1.4 3.2-2.5 3.1-13.7 3.1-9.4L607 262l3.1-16.3 3.1 5 3.2 1.6 3.1-1.7 3.1 2.9 3.1-4.1 3.1-24.6 3.1 6.9 3.2-.7 3.1-.4 3.1-7.8 3.1-.2 3.1 4.3 3.1-7.6 3.2-2.7 3.1 9 3.1-.2 3.1-9.3 3.1-2.2 3.1-5.5 3.2 1.4 3.1-.2 3.1-2.3 3.1 2.7" stroke="#C96A4A" stroke-opacity=".7" stroke-width=".5" fill="none" class="World_3-border"/><path stroke-linecap="round" d="M61.6 303.4l3.2-.5 3.1-.8 3.1-.4 3.1-2.1 3.1-1.1 3.1-3.1 3.1-.6 3.2-2.4 3.1-1.3 3.1-.5 3.1-1.5 3.1-.5 3.1-.5 3.2-3.4 3.1.4 3.1-.1 3.1.4 3.1.5 3.1.4 3.2.4 3.1.4 3.1.3 3.1.1 3.1.4 3.1.8h3.2l3.1.4 3.1.4 3.1.4 3.1 3.1 3.1.4 3.2-2.9 3.1.5 3.1.5 3.1 1.6 3.1 1.7 3.1 1.5 3.2 1.4 3.1-.1 3.1 1.5 3.1 1.3 3.1 1.3 3.1-1.4 3.2 1.3 3.1-7.5 3.1.8 3.1 3.5 3.1-2 3.1.8 3.2.8 3.1-2.2 3.1-11.2 3.1.6 3.1.9h3.1l3.2-.2 3.1-.3 3.1-.3 3.1-.4 3.1-.4 3.1-.5 3.2-.4 3.1-1.2 3.1-.4 3.1.4 3.1-.4 3.1-1.3 3.2-.4 3.1-.4 3.1-.4 3.1-.4 3.1-.4 3.1-.4 3.1-.4 3.2-.6 3.1-.5 3.1-.6 3.1-.6 3.1-.7 3.1-.6 3.2-.7 3.1-.7 3.1-.7 3.1-.6 3.1-1.8 3.1-1.3 3.2-.9 3.1-.8 3.1-.8 3.1-.8 3.1-.8 3.1-1 3.2-1 3.1-2.5 3.1-1.6 3.1-1.3 3.1.6 3.1-.9 3.2-1.1 3.1 3.5 3.1-5.5 3.1-3.2 3.1 1 3.1-2.3 3.2-.8 3.1-6.2 3.1 18.1 3.1-.4 3.1.1 3.1.1 3.2.8 3.1.7 3.1 1 3.1.9 3.1.7 3.1.7 3.2.8 3.1.9 3.1-1.8 3.1 3.6 3.1.4 3.1.2 3.2 1.5 3.1 3.1 3.1 6.5 3.1-6.5 3.1-.7 3.1-3.7 3.2 9 3.1-.5 3.1-67.8 3.1-7.8 3.1-.5 3.1-2 3.1-.7 3.2-14.2 3.1-.9 3.1-.4 3.1-.1 3.1-1.5 3.1-2.8 3.2.1 3.1-1.1 3.1-15.6 3.1-2.6 3.1-2.8 3.1-.7 3.2-.8 3.1-.3 3.1-.5 3.1-.4 3.1-.6 3.1-.6 3.2-1.2 3.1-.6 3.1-8.2 3.1-.5 3.1-.5 3.1-2.6 3.2-.3 3.1-5.7 3.1-.3 3.1 2.9 3.1-1.6 3.1-.4 3.2-.4 3.1-.3 3.1-.3 3.1-.3 3.1-.1 3.1-.2 3.2-.8 3.1-1.1 3.1-7.1 3.1-12.3 3.1-10.9 3.1-1.4 3.2 4.2 3.1.1h6.2l3.1-.1H635.1l3.1 1.7 3.1.2 3.1 1.9 3.1.3h3.1l3.2-.4 3.1.3 3.1.4 3.1.4 3.1-1.6 3.1.4 3.2 2 3.1.4 3.1-1.6 3.1 3.3" stroke="#A92021" stroke-opacity=".7" stroke-width=".5" fill="none" class="World_2-border"/><path stroke-linecap="round" d="M61.6 140.8l3.2.3 3.1-1.4 3.1-.1 3.1-1.3 3.1 1.3 3.1-1.5 3.1-.6 3.2-2 3.1-1.3 3.1-.7 3.1-.6 3.1-.5 3.1-.3 3.2-.9 3.1.4 3.1-.2 3.1.5 3.1.4 3.1.4 3.2.4 3.1.3 3.1.3h3.1l3.1.4 3.1.8 3.2-.1 3.1.4 3.1.4 3.1.4 3.1 3.1 3.1.4 3.2-2.8 3.1.6 3.1.5 3.1 1.6 3.1 1.6 3.1 1.4 3.2 1.3 3.1-.1 3.1 1.3 3.1 1.3 3.1 1.2 3.1 1.2 3.2 1.2 3.1.8 3.1.7 3.1 3.5 3.1-2 3.1.7 3.2.7 3.1.6 3.1-11.2 3.1.6 3.1.4 3.1-.2 3.2-.5 3.1-.5 3.1-.6 3.1-.5 3.1-.6 3.1-.7 3.2-.6 3.1-.6 3.1-.6 3.1.3 3.1-.6 3.1-1.8 3.2-1.5 3.1-.6 3.1-1.7 3.1-.6 3.1-.6 3.1-.6 3.1-1.5 3.2-.7 3.1-.7 3.1-.6 3.1-.8 3.1-.9 3.1-.8 3.2-.9 3.1-.8 3.1-.9 3.1-.8 3.1-.9 3.1-1 3.2-.9 3.1-.9 3.1-.9 3.1-1 3.1-.8 3.1-1.3 3.2-1.1 3.1-1.2 3.1-4.3 3.1-1.4 3.1-.6 3.1-3.1 3.2.1 3.1 3.5 3.1-4.7 3.1 3.4 3.1 7.6 3.1-1.3 3.2-7.1 3.1-2.9 3.1 18.3 3.1.8 3.1.5 3.1.6 3.2 1.2 3.1 1.2 3.1 1.5 3.1.9 3.1.7 3.1.6 3.2.6 3.1.7 3.1.5 3.1 3.3h3.1l3.1-.3 3.2.8 3.1 2.3 3.1 1.8 3.1 5.1 3.1-1.5 3.1-1.2 3.2 11.2 3.1-1.1 3.1 3.4 3.1-6.6 3.1-.4 3.1-1.6 3.1-.8 3.2-14.3h3.1l3.1-.6 3.1-.3 3.1 1.8 3.1-1 3.2.4 3.1-1.2 3.1-1 3.1-.6 3.1.1 3.1.4 3.2.1 3.1.3 3.1-.2 3.1.3 3.1-.5 3.1-.5 3.2-1.1 3.1 7.3 3.1-8.1 3.1-.3 3.1-.4 3.1-.3 3.2-.3 3.1-5.5 3.1-.2 3.1 3 3.1-1.5 3.1-.2 3.2-.3 3.1-.3 3.1-.2 3.1-.1 3.1-.1h3.1l3.2-.7 3.1-1 3.1-6.9 3.1-.1 3.1-10.7 3.1-.2 3.2 4.2 3.1.1h6.2l3.1-.1H635.1l3.1 1.7 3.1.2 3.1 1.9 3.1.3h3.1l3.2-.4 3.1.3 3.1.4 3.1.4 3.1-1.6 3.1.4 3.2 2 3.1.4 3.1-1.6 3.1 3.3" stroke="#352E5F" stroke-opacity=".7" stroke-width=".5" fill="none" class="World_1-border"/><path stroke-linecap="round" d="M61.6 93H681.8" stroke="#A7A7A7" stroke-opacity=".7" stroke-width=".5" fill="none" class="World_0-border"/></g></g></g><g class="SourcesFooter" fill="#777"><g class="clickable" fill="#777"><text font-size="12.6" x="15" y="567"><tspan x="15" y="566.98">Source: World Population by Political Regime they live in (OWID (2016))</tspan></text></g><text font-size="12.6" x="15" y="582.5"><tspan x="15" y="582.48"><a target="_blank" href="https://ourworldindata.org/a-history-of-global-living-conditions-in-5-charts/" fill="#777">OurWorldInData.org/a-history-of-global-living-conditions-in-5-charts/</a> • <a href="http://creativecommons.org/licenses/by-sa/4.0/deed.en_US" target="_blank" fill="#777">CC BY-SA</a></tspan></text></g></g></svg>