<svg xmlns="http://www.w3.org/2000/svg" version="1.1" style="background-color:#fff;-webkit-font-smoothing:antialiased" width="850" height="600" font-family="'Helvetica Neue',Helvetica,Arial,sans-serif" font-size="18" text-rendering="optimizeLegibility"><g class="ChartTab"><g class="HeaderView"><g opacity=".8" transform="matrix(.27 0 0 .27 778 15)"><a xmlns:xlink="http://www.w3.org/1999/xlink" xlink:href="https://ourworldindata.org" target="_blank"><g><path fill="#1B2543" d="M0 0h211.2v130.1H0z"/><path fill="#E63912" d="M0 112.2h211.2v17.9H0z"/><g><path fill="none" d="M1.2 12.3h210.2v99.2H1.2z"/><path fill="#FFF" d="M37.8 32.2c0 12.7-7.7 19.4-17.1 19.4-9.7 0-16.6-7.5-16.6-18.7 0-11.7 7.3-19.3 17.1-19.3 10.1.1 16.6 7.7 16.6 18.6zm-28.6.6c0 7.9 4.3 14.9 11.8 14.9 7.5 0 11.8-6.9 11.8-15.3 0-7.3-3.8-14.9-11.8-14.9-7.9 0-11.8 7.3-11.8 15.3zM62.7 43.8c0 2.7.1 5.1.2 7.2h-4.3l-.3-4.3h-.1c-1.3 2.1-4 4.9-8.8 4.9-4.2 0-9.1-2.3-9.1-11.6V24.6h4.8v14.6c0 5 1.5 8.4 5.9 8.4 3.2 0 5.5-2.2 6.3-4.4.3-.7.4-1.6.4-2.5V24.6h4.8v19.2zM67.3 32.8c0-3.1-.1-5.8-.2-8.2h4.2l.2 5.2h.2c1.2-3.5 4.1-5.8 7.3-5.8.5 0 .9.1 1.4.2v4.5c-.5-.1-1-.2-1.6-.2-3.4 0-5.8 2.6-6.5 6.2-.1.7-.2 1.4-.2 2.2V51h-4.8V32.8zM95.4 51L86 14.2h5l4.4 18.6c1.1 4.6 2.1 9.2 2.7 12.7h.1c.6-3.7 1.8-8 3-12.8l4.9-18.5h5l4.5 18.7c1 4.4 2 8.7 2.6 12.6h.1c.8-4 1.8-8.1 3-12.7l4.9-18.5h4.9L120.6 51h-5L111 31.9c-1.1-4.7-1.9-8.3-2.4-12h-.1c-.7 3.7-1.5 7.3-2.8 12L100.4 51h-5zM154.9 37.6c0 9.8-6.8 14-13.2 14-7.2 0-12.7-5.2-12.7-13.6 0-8.8 5.8-14 13.1-14 7.7 0 12.8 5.5 12.8 13.6zm-21 .3c0 5.8 3.3 10.1 8 10.1 4.6 0 8-4.3 8-10.3 0-4.5-2.2-10.1-7.9-10.1s-8.1 5.2-8.1 10.3zM158.2 32.8c0-3.1-.1-5.8-.2-8.2h4.2l.2 5.2h.2c1.2-3.5 4.1-5.8 7.3-5.8.5 0 .9.1 1.4.2v4.5c-.5-.1-1-.2-1.6-.2-3.4 0-5.8 2.6-6.5 6.2-.1.7-.2 1.4-.2 2.2V51h-4.8V32.8zM173.5 12.3h4.8V51h-4.8V12.3zM206.5 12.3v31.9c0 2.3.1 5 .2 6.8h-4.3l-.2-4.6h-.2c-1.5 2.9-4.7 5.2-9 5.2-6.4 0-11.3-5.4-11.3-13.4-.1-8.8 5.4-14.2 11.9-14.2 4 0 6.8 1.9 8 4h.1V12.3h4.8zm-4.8 23.1c0-.6-.1-1.4-.2-2a7 7 0 00-6.9-5.6c-5 0-7.9 4.4-7.9 10.2 0 5.3 2.6 9.8 7.8 9.8 3.2 0 6.2-2.1 7.1-5.7.2-.7.2-1.3.2-2.1v-4.6zM42.8 64c.1 1.6-1.1 2.9-3.1 2.9-1.7 0-2.9-1.3-2.9-2.9 0-1.7 1.3-3 3-3 1.9 0 3 1.3 3 3zm-5.4 33.8V71.4h4.8v26.4h-4.8zM47.5 78.6c0-2.7-.1-5-.2-7.1h4.3l.3 4.4h.1c1.3-2.5 4.4-5 8.8-5 3.7 0 9.4 2.2 9.4 11.2v15.8h-4.8V82.6c0-4.3-1.6-7.8-6.1-7.8-3.2 0-5.6 2.2-6.5 4.9-.2.6-.3 1.4-.3 2.2v15.9h-4.8V78.6zM84 61.6c2.9-.4 6.3-.8 10.1-.8 6.8 0 11.7 1.6 14.9 4.6 3.3 3 5.2 7.3 5.2 13.2 0 6-1.9 10.9-5.3 14.3-3.4 3.4-9.1 5.3-16.3 5.3-3.4 0-6.2-.2-8.6-.4V61.6zm4.8 32.5c1.2.2 3 .3 4.8.3 10.2 0 15.7-5.7 15.7-15.6.1-8.7-4.9-14.2-14.9-14.2-2.5 0-4.3.2-5.6.5v29zM132.1 97.8l-.4-3.3h-.2a9.79 9.79 0 01-8.1 3.9c-5.4 0-8.1-3.8-8.1-7.6 0-6.4 5.7-9.9 15.9-9.8v-.5c0-2.2-.6-6.1-6-6.1-2.5 0-5 .8-6.9 2l-1.1-3.2c2.2-1.4 5.4-2.3 8.7-2.3 8.1 0 10.1 5.5 10.1 10.8v9.9c0 2.3.1 4.5.4 6.3h-4.3zm-.7-13.4c-5.3-.1-11.2.8-11.2 5.9 0 3.1 2.1 4.6 4.5 4.6 3.4 0 5.6-2.2 6.4-4.4.2-.5.3-1 .3-1.5v-4.6zM146.6 63.9v7.6h6.9v3.7h-6.9v14.2c0 3.3.9 5.1 3.6 5.1 1.3 0 2.2-.2 2.8-.3l.2 3.6c-.9.4-2.4.7-4.3.7-2.2 0-4-.7-5.2-2-1.4-1.4-1.9-3.8-1.9-6.9V75.1h-4.1v-3.7h4.1v-6.3l4.8-1.2zM171.4 97.8l-.4-3.3h-.2a9.79 9.79 0 01-8.1 3.9c-5.4 0-8.1-3.8-8.1-7.6 0-6.4 5.7-9.9 15.9-9.8v-.5c0-2.2-.6-6.1-6-6.1-2.5 0-5 .8-6.9 2l-1.1-3.2c2.2-1.4 5.4-2.3 8.7-2.3 8.1 0 10.1 5.5 10.1 10.8v9.9c0 2.3.1 4.5.4 6.3h-4.3zm-.7-13.4c-5.3-.1-11.2.8-11.2 5.9 0 3.1 2.1 4.6 4.5 4.6 3.4 0 5.6-2.2 6.4-4.4.2-.5.3-1 .3-1.5v-4.6z"/></g></g></a></g><a href="https://ourworldindata.org/grapher/years-lived-with-disability-vs-health-expenditure-per-capita" target="_blank"><text font-size="22.5" x="15" y="33" fill="#555"><tspan x="15" y="33">Years lived with disability vs. Health expenditure per capita, 2014</tspan></text></a><text font-size="14.4" x="15" y="51" fill="#666"><tspan x="15" y="51.02">Average number of years lived with disability or disease burden (representing the difference between total life</tspan><tspan x="15" y="66.86">expectancy and healthy life expectancy) versus average health expenditure per capita, measured in 2011</tspan><tspan x="15" y="82.7">international-$.</tspan></text></g><g><g class="AxisBoxView"><g class="HorizontalAxis"><text font-size="12.6" x="178.9" y="554"><tspan x="178.9" y="553.98">Health expenditure per capita, PPP (constant 2011 international $)</tspan></text><text x="247.7" y="533.9" fill="#666" text-anchor="middle" font-size="16.2">$100</text><text x="484.5" y="533.9" fill="#666" text-anchor="middle" font-size="16.2">$1,000</text></g><g class="VerticalAxis"><text font-size="12.6" x="-405.4" y="25.1" transform="rotate(-90)"><tspan x="-405.42" y="25.08">Years Lived With Disability</tspan></text><text x="99.97" y="512.7" fill="#666" dominant-baseline="middle" text-anchor="end" font-size="16.2">4 years</text><text x="99.97" y="461.5" fill="#666" dominant-baseline="middle" text-anchor="end" font-size="16.2">5 years</text><text x="99.97" y="410.4" fill="#666" dominant-baseline="middle" text-anchor="end" font-size="16.2">6 years</text><text x="99.97" y="359.2" fill="#666" dominant-baseline="middle" text-anchor="end" font-size="16.2">7 years</text><text x="99.97" y="308" fill="#666" dominant-baseline="middle" text-anchor="end" font-size="16.2">8 years</text><text x="99.97" y="256.9" fill="#666" dominant-baseline="middle" text-anchor="end" font-size="16.2">9 years</text><text x="99.97" y="205.7" fill="#666" dominant-baseline="middle" text-anchor="end" font-size="16.2">10 years</text><text x="99.97" y="154.5" fill="#666" dominant-baseline="middle" text-anchor="end" font-size="16.2">11 years</text></g><g class="AxisGridLines" stroke="#ddd" stroke-dasharray="3,2"><path d="M104.97 512.7H715M104.97 461.5H715M104.97 410.4H715M104.97 359.2H715M104.97 308H715M104.97 256.9H715M104.97 205.7H715M104.97 154.5H715"/></g><g class="AxisGridLines" stroke="#ddd" stroke-dasharray="3,2"><path d="M247.7 512.7V104.9M484.5 512.7V104.9"/></g></g><g clip-path="url(#a)" font-family="Arial Narrow, Arial, sans-serif" class="PointsWithLabels clickable"><path fill="rgba(255,255,255,0)" d="M104.97 104.9H715v407.8H104.97z"/><defs><clipPath id="a"><path d="M94.97 94.9H725v427.8H94.97z"/></clipPath></defs><g class="key-China_0"><circle cx="452" cy="286" r="17.84" fill="#d14e5b" opacity=".8"/></g><g class="key-India_0"><circle cx="348" cy="229" r="17.29" fill="#d14e5b" opacity=".8"/></g><g class="key-United-States_0"><circle cx="715" cy="145" r="8.78" fill="#4d824b" opacity=".8"/></g><g class="key-Indonesia_0"><circle cx="360" cy="277" r="7.78" fill="#d14e5b" opacity=".8"/></g><g class="key-Brazil_0"><circle cx="512" cy="216" r="7.04" fill="#69c487" opacity=".8"/></g><g class="key-Pakistan_0"><circle cx="273" cy="263" r="6.76" fill="#d14e5b" opacity=".8"/></g><g class="key-Nigeria_0"><circle cx="327" cy="281" r="6.54" fill="#5675c1" opacity=".8"/></g><g class="key-Bangladesh_0"><circle cx="234" cy="214" r="6.24" fill="#d14e5b" opacity=".8"/></g><g class="key-Russia_0"><circle cx="547" cy="250" r="6.02" fill="#ffd336" opacity=".8"/></g><g class="key-Japan_0"><circle cx="619" cy="169" r="5.7" fill="#d14e5b" opacity=".8"/></g><g class="key-Mexico_0"><circle cx="496" cy="245" r="5.51" fill="#4d824b" opacity=".8"/></g><g class="key-Philippines_0"><circle cx="370" cy="286" r="5.09" fill="#d14e5b" opacity=".8"/></g><g class="key-Vietnam_0"><circle cx="387" cy="275" r="4.92" fill="#d14e5b" opacity=".8"/></g><g class="key-Ethiopia_0"><circle cx="215" cy="325" r="4.86" fill="#5675c1" opacity=".8"/></g><g class="key-Egypt_0"><circle cx="431" cy="202" r="4.79" fill="#5675c1" opacity=".8"/></g><g class="key-Germany_0"><circle cx="653" cy="170" r="4.7" fill="#ffd336" opacity=".8"/></g><g class="key-Iran_0"><circle cx="492" cy="152" r="4.57" fill="#d14e5b" opacity=".8"/></g><g class="key-Turkey_0"><circle cx="488" cy="123" r="4.54" fill="#d14e5b" opacity=".8"/></g><g class="key-Democratic-Republic-of-Congo_0"><circle cx="131" cy="293" r="4.44" fill="#5675c1" opacity=".8"/></g><g class="key-Thailand_0"><circle cx="432" cy="216" r="4.41" fill="#d14e5b" opacity=".8"/></g><g class="key-France_0"><circle cx="639" cy="173" r="4.24" fill="#ffd336" opacity=".8"/></g><g class="key-United-Kingdom_0"><circle cx="609" cy="162" r="4.22" fill="#ffd336" opacity=".8"/></g><g class="key-Italy_0"><circle cx="605" cy="176" r="4.16" fill="#ffd336" opacity=".8"/></g><g class="key-South-Africa_0"><circle cx="498" cy="295" r="3.87" fill="#5675c1" opacity=".8"/></g><g class="key-Tanzania_0"><circle cx="280" cy="331" r="3.82" fill="#5675c1" opacity=".8"/></g><g class="key-Myanmar_0"><circle cx="251" cy="288" r="3.82" fill="#d14e5b" opacity=".8"/></g><g class="key-South-Korea_0"><circle cx="580" cy="187" r="3.81" fill="#d14e5b" opacity=".8"/></g><g class="key-Colombia_0"><circle cx="480" cy="248" r="3.79" fill="#69c487" opacity=".8"/></g><g class="key-Spain_0"><circle cx="596" cy="187" r="3.75" fill="#ffd336" opacity=".8"/></g><g class="key-Ukraine_0"><circle cx="429" cy="249" r="3.68" fill="#ffd336" opacity=".8"/></g><g class="key-Kenya_0"><circle cx="301" cy="305" r="3.65" fill="#5675c1" opacity=".8"/></g><g class="key-Argentina_0"><circle cx="497" cy="232" r="3.58" fill="#69c487" opacity=".8"/></g><g class="key-Poland_0"><circle cx="530" cy="185" r="3.47" fill="#ffd336" opacity=".8"/></g><g class="key-Algeria_0"><circle cx="477" cy="137" r="3.43" fill="#5675c1" opacity=".8"/></g><g class="key-Uganda_0"><circle cx="276" cy="325" r="3.42" fill="#5675c1" opacity=".8"/></g><g class="key-Sudan_0"><circle cx="354" cy="203" r="3.39" fill="#5675c1" opacity=".8"/></g><g class="key-Canada_0"><circle cx="642" cy="173" r="3.36" fill="#4d824b" opacity=".8"/></g><g class="key-Iraq_0"><circle cx="442" cy="200" r="3.35" fill="#d14e5b" opacity=".8"/></g><g class="key-Afghanistan_0"><circle cx="300" cy="283" r="3.34" fill="#d14e5b" opacity=".8"/></g><g class="key-Morocco_0"><circle cx="401" cy="153" r="3.29" fill="#5675c1" opacity=".8"/></g><g class="key-Nepal_0"><circle cx="280" cy="234" r="3.24" fill="#d14e5b" opacity=".8"/></g><g class="key-Venezuela_0"><circle cx="476" cy="262" r="3.19" fill="#69c487" opacity=".8"/></g><g class="key-Peru_0"><circle cx="441" cy="208" r="3.18" fill="#69c487" opacity=".8"/></g><g class="key-Malaysia_0"><circle cx="488" cy="254" r="3.17" fill="#d14e5b" opacity=".8"/></g><g class="key-Saudi-Arabia_0"><circle cx="577" cy="174" r="3.16" fill="#d14e5b" opacity=".8"/></g><g class="key-Uzbekistan_0"><circle cx="373" cy="285" r="3.12" fill="#d14e5b" opacity=".8"/></g><g class="key-Ghana_0"><circle cx="286" cy="309" r="3.04" fill="#5675c1" opacity=".8"/></g><g class="key-Mozambique_0"><circle cx="223" cy="327" r="3" fill="#5675c1" opacity=".8"/></g><g class="key-Australia_0"><circle cx="635" cy="152" r="2.92" fill="#a652ba" opacity=".8"/></g><g class="key-Madagascar_0"><circle cx="162" cy="337" r="2.9" fill="#5675c1" opacity=".8"/></g><g class="key-Syria_0"><circle cx="383" cy="260" r="2.85" fill="#d14e5b" opacity=".8"/></g><g class="key-Sri-Lanka_0"><circle cx="382" cy="223" r="2.85" fill="#d14e5b" opacity=".8"/></g><g class="key-Romania_0"><circle cx="492" cy="219" r="2.85" fill="#ffd336" opacity=".8"/></g><g class="key-Cote-d__0027Ivoire_0"><circle cx="312" cy="333" r="2.84" fill="#5675c1" opacity=".8"/></g><g class="key-Cameroon_0"><circle cx="268" cy="329" r="2.83" fill="#5675c1" opacity=".8"/></g><g class="key-Angola_0"><circle cx="337" cy="297" r="2.82" fill="#5675c1" opacity=".8"/></g><g class="key-Burkina-Faso_0"><circle cx="227" cy="319" r="2.71" fill="#5675c1" opacity=".8"/></g><g class="key-Chile_0"><circle cx="542" cy="180" r="2.69" fill="#69c487" opacity=".8"/></g><g class="key-Niger_0"><circle cx="183" cy="330" r="2.68" fill="#5675c1" opacity=".8"/></g><g class="key-Mali_0"><circle cx="255" cy="303" r="2.66" fill="#5675c1" opacity=".8"/></g><g class="key-Netherlands_0"><circle cx="654" cy="157" r="2.66" fill="#ffd336" opacity=".8"/></g><g class="key-Kazakhstan_0"><circle cx="491" cy="254" r="2.65" fill="#d14e5b" opacity=".8"/></g><g class="key-Malawi_0"><circle cx="240" cy="346" r="2.64" fill="#5675c1" opacity=".8"/></g><g class="key-Guatemala_0"><circle cx="407" cy="261" r="2.6" fill="#4d824b" opacity=".8"/></g><g class="key-Ecuador_0"><circle cx="488" cy="222" r="2.58" fill="#69c487" opacity=".8"/></g><g class="key-Cambodia_0"><circle cx="310" cy="275" r="2.56" fill="#d14e5b" opacity=".8"/></g><g class="key-Zambia_0"><circle cx="316" cy="365" r="2.55" fill="#5675c1" opacity=".8"/></g><g class="key-Senegal_0"><circle cx="254" cy="293" r="2.51" fill="#5675c1" opacity=".8"/></g><g class="key-Zimbabwe_0"><circle cx="261" cy="373" r="2.5" fill="#5675c1" opacity=".8"/></g><g class="key-Chad_0"><circle cx="223" cy="310" r="2.45" fill="#5675c1" opacity=".8"/></g><g class="key-Rwanda_0"><circle cx="270" cy="291" r="2.42" fill="#5675c1" opacity=".8"/></g><g class="key-Greece_0"><circle cx="560" cy="186" r="2.41" fill="#ffd336" opacity=".8"/></g><g class="key-Cuba_0"><circle cx="577" cy="220" r="2.4" fill="#4d824b" opacity=".8"/></g><g class="key-South-Sudan_0"><circle cx="215" cy="311" r="2.39" fill="#5675c1" opacity=".8"/></g><g class="key-Belgium_0"><circle cx="636" cy="162" r="2.38" fill="#ffd336" opacity=".8"/></g><g class="key-Tunisia_0"><circle cx="459" cy="159" r="2.38" fill="#5675c1" opacity=".8"/></g><g class="key-Guinea_0"><circle cx="208" cy="331" r="2.38" fill="#5675c1" opacity=".8"/></g><g class="key-Portugal_0"><circle cx="586" cy="180" r="2.38" fill="#ffd336" opacity=".8"/></g><g class="key-Czech-Republic_0"><circle cx="563" cy="156" r="2.37" fill="#ffd336" opacity=".8"/></g><g class="key-Bolivia_0"><circle cx="397" cy="244" r="2.36" fill="#69c487" opacity=".8"/></g><g class="key-Haiti_0"><circle cx="275" cy="308" r="2.36" fill="#4d824b" opacity=".8"/></g><g class="key-Dominican-Republic_0"><circle cx="428" cy="245" r="2.36" fill="#4d824b" opacity=".8"/></g><g class="key-Hungary_0"><circle cx="546" cy="205" r="2.34" fill="#ffd336" opacity=".8"/></g><g class="key-Serbia_0"><circle cx="512" cy="215" r="2.33" fill="#ffd336" opacity=".8"/></g><g class="key-Benin_0"><circle cx="231" cy="289" r="2.32" fill="#5675c1" opacity=".8"/></g><g class="key-Sweden_0"><circle cx="654" cy="146" r="2.32" fill="#ffd336" opacity=".8"/></g><g class="key-Azerbaijan_0"><circle cx="489" cy="279" r="2.32" fill="#d14e5b" opacity=".8"/></g><g class="key-Belarus_0"><circle cx="487" cy="230" r="2.32" fill="#ffd336" opacity=".8"/></g><g class="key-Burundi_0"><circle cx="191" cy="369" r="2.29" fill="#5675c1" opacity=".8"/></g><g class="key-Austria_0"><circle cx="650" cy="176" r="2.26" fill="#ffd336" opacity=".8"/></g><g class="key-United-Arab-Emirates_0"><circle cx="574" cy="180" r="2.25" fill="#d14e5b" opacity=".8"/></g><g class="key-Honduras_0"><circle cx="390" cy="289" r="2.25" fill="#4d824b" opacity=".8"/></g><g class="key-Israel_0"><circle cx="582" cy="174" r="2.23" fill="#d14e5b" opacity=".8"/></g><g class="key-Switzerland_0"><circle cx="676" cy="136" r="2.23" fill="#ffd336" opacity=".8"/></g><g class="key-Bulgaria_0"><circle cx="519" cy="232" r="2.21" fill="#ffd336" opacity=".8"/></g><g class="key-Papua-New-Guinea_0"><circle cx="257" cy="331" r="2.21" fill="#a652ba" opacity=".8"/></g><g class="key-Tajikistan_0"><circle cx="311" cy="276" r="2.2" fill="#d14e5b" opacity=".8"/></g><g class="key-Paraguay_0"><circle cx="470" cy="233" r="2.18" fill="#69c487" opacity=".8"/></g><g class="key-Jordan_0"><circle cx="461" cy="137" r="2.17" fill="#d14e5b" opacity=".8"/></g><g class="key-Libya_0"><circle cx="462" cy="167" r="2.16" fill="#5675c1" opacity=".8"/></g><g class="key-Laos_0"><circle cx="246" cy="305" r="2.16" fill="#d14e5b" opacity=".8"/></g><g class="key-Togo_0"><circle cx="219" cy="328" r="2.16" fill="#5675c1" opacity=".8"/></g><g class="key-El-Salvador_0"><circle cx="425" cy="257" r="2.15" fill="#4d824b" opacity=".8"/></g><g class="key-Sierra-Leone_0"><circle cx="330" cy="374" r="2.15" fill="#5675c1" opacity=".8"/></g><g class="key-Nicaragua_0"><circle cx="401" cy="240" r="2.14" fill="#4d824b" opacity=".8"/></g><g class="key-Eritrea_0"><circle cx="178" cy="336" r="2.12" fill="#5675c1" opacity=".8"/></g><g class="key-Denmark_0"><circle cx="645" cy="159" r="2.11" fill="#ffd336" opacity=".8"/></g><g class="key-Kyrgyzstan_0"><circle cx="326" cy="271" r="2.11" fill="#d14e5b" opacity=".8"/></g><g class="key-Slovakia_0"><circle cx="564" cy="198" r="2.11" fill="#ffd336" opacity=".8"/></g><g class="key-Finland_0"><circle cx="619" cy="147" r="2.1" fill="#ffd336" opacity=".8"/></g><g class="key-Singapore_0"><circle cx="628" cy="201" r="2.1" fill="#d14e5b" opacity=".8"/></g><g class="key-Turkmenistan_0"><circle cx="367" cy="302" r="2.09" fill="#d14e5b" opacity=".8"/></g><g class="key-Norway_0"><circle cx="674" cy="173" r="2.08" fill="#ffd336" opacity=".8"/></g><g class="key-Costa-Rica_0"><circle cx="518" cy="214" r="2.07" fill="#4d824b" opacity=".8"/></g><g class="key-Central-African-Republic_0"><circle cx="105" cy="398" r="2.06" fill="#5675c1" opacity=".8"/></g><g class="key-Ireland_0"><circle cx="621" cy="169" r="2.06" fill="#ffd336" opacity=".8"/></g><g class="key-New-Zealand_0"><circle cx="627" cy="169" r="2.05" fill="#a652ba" opacity=".8"/></g><g class="key-Croatia_0"><circle cx="536" cy="205" r="2.05" fill="#ffd336" opacity=".8"/></g><g class="key-Liberia_0"><circle cx="245" cy="292" r="2.04" fill="#5675c1" opacity=".8"/></g><g class="key-Congo_0"><circle cx="368" cy="294" r="2.04" fill="#5675c1" opacity=".8"/></g><g class="key-Lebanon_0"><circle cx="483" cy="104" r="2.04" fill="#d14e5b" opacity=".8"/></g><g class="key-Georgia_0"><circle cx="436" cy="267" r="2.04" fill="#d14e5b" opacity=".8"/></g><g class="key-Bosnia-and-Herzegovina_0"><circle cx="480" cy="192" r="2.01" fill="#ffd336" opacity=".8"/></g><g class="key-Mauritania_0"><circle cx="288" cy="249" r="2.01" fill="#5675c1" opacity=".8"/></g><g class="key-Panama_0"><circle cx="537" cy="234" r="2.01" fill="#4d824b" opacity=".8"/></g><g class="key-Moldova_0"><circle cx="416" cy="252" r="2" fill="#ffd336" opacity=".8"/></g><g class="key-Uruguay_0"><circle cx="544" cy="237" r="1.99" fill="#69c487" opacity=".8"/></g><g class="key-Lithuania_0"><circle cx="540" cy="206" r="1.98" fill="#ffd336" opacity=".8"/></g><g class="key-Albania_0"><circle cx="434" cy="213" r="1.98" fill="#ffd336" opacity=".8"/></g><g class="key-Armenia_0"><circle cx="380" cy="237" r="1.97" fill="#d14e5b" opacity=".8"/></g><g class="key-Kuwait_0"><circle cx="571" cy="123" r="1.96" fill="#d14e5b" opacity=".8"/></g><g class="key-Oman_0"><circle cx="522" cy="168" r="1.96" fill="#d14e5b" opacity=".8"/></g><g class="key-Mongolia_0"><circle cx="425" cy="294" r="1.96" fill="#d14e5b" opacity=".8"/></g><g class="key-Jamaica_0"><circle cx="408" cy="228" r="1.95" fill="#4d824b" opacity=".8"/></g><g class="key-Namibia_0"><circle cx="470" cy="299" r="1.93" fill="#5675c1" opacity=".8"/></g><g class="key-Lesotho_0"><circle cx="352" cy="402" r="1.92" fill="#5675c1" opacity=".8"/></g><g class="key-Latvia_0"><circle cx="478" cy="210" r="1.92" fill="#ffd336" opacity=".8"/></g><g class="key-Botswana_0"><circle cx="470" cy="294" r="1.91" fill="#5675c1" opacity=".8"/></g><g class="key-Macedonia_0"><circle cx="468" cy="245" r="1.91" fill="#ffd336" opacity=".8"/></g><g class="key-Slovenia_0"><circle cx="586" cy="123" r="1.91" fill="#ffd336" opacity=".8"/></g><g class="key-Qatar_0"><circle cx="599" cy="111" r="1.91" fill="#d14e5b" opacity=".8"/></g><g class="key-Gambia_0"><circle cx="265" cy="255" r="1.9" fill="#5675c1" opacity=".8"/></g><g class="key-Guinea__002dBissau_0"><circle cx="238" cy="349" r="1.88" fill="#5675c1" opacity=".8"/></g><g class="key-Gabon_0"><circle cx="431" cy="269" r="1.88" fill="#5675c1" opacity=".8"/></g><g class="key-Bahrain_0"><circle cx="569" cy="132" r="1.87" fill="#d14e5b" opacity=".8"/></g><g class="key-Trinidad-and-Tobago_0"><circle cx="545" cy="231" r="1.87" fill="#4d824b" opacity=".8"/></g><g class="key-Estonia_0"><circle cx="537" cy="181" r="1.87" fill="#ffd336" opacity=".8"/></g><g class="key-Mauritius_0"><circle cx="473" cy="221" r="1.86" fill="#5675c1" opacity=".8"/></g><g class="key-Swaziland_0"><circle cx="429" cy="359" r="1.86" fill="#5675c1" opacity=".8"/></g><g class="key-Cyprus_0"><circle cx="559" cy="188" r="1.85" fill="#ffd336" opacity=".8"/></g><g class="key-Djibouti_0"><circle cx="373" cy="311" r="1.84" fill="#5675c1" opacity=".8"/></g><g class="key-Fiji_0"><circle cx="380" cy="299" r="1.84" fill="#a652ba" opacity=".8"/></g><g class="key-Comoros_0"><circle cx="248" cy="297" r="1.83" fill="#5675c1" opacity=".8"/></g><g class="key-Bhutan_0"><circle cx="354" cy="175" r="1.83" fill="#d14e5b" opacity=".8"/></g><g class="key-Equatorial-Guinea_0"><circle cx="500" cy="268" r="1.83" fill="#5675c1" opacity=".8"/></g><g class="key-Guyana_0"><circle cx="384" cy="288" r="1.83" fill="#69c487" opacity=".8"/></g><g class="key-Montenegro_0"><circle cx="472" cy="211" r="1.82" fill="#ffd336" opacity=".8"/></g><g class="key-Solomon-Islands_0"><circle cx="255" cy="327" r="1.82" fill="#a652ba" opacity=".8"/></g><g class="key-Suriname_0"><circle cx="482" cy="255" r="1.82" fill="#69c487" opacity=".8"/></g><g class="key-Luxembourg_0"><circle cx="681" cy="146" r="1.81" fill="#ffd336" opacity=".8"/></g><g class="key-Cape-Verde_0"><circle cx="364" cy="235" r="1.81" fill="#5675c1" opacity=".8"/></g><g class="key-Malta_0"><circle cx="599" cy="181" r="1.81" fill="#ffd336" opacity=".8"/></g><g class="key-Brunei_0"><circle cx="543" cy="234" r="1.81" fill="#d14e5b" opacity=".8"/></g><g class="key-Bahamas_0"><circle cx="546" cy="256" r="1.8" fill="#4d824b" opacity=".8"/></g><g class="key-Iceland_0"><circle cx="624" cy="164" r="1.8" fill="#ffd336" opacity=".8"/></g><g class="key-Belize_0"><circle cx="410" cy="268" r="1.8" fill="#4d824b" opacity=".8"/></g><g class="key-Maldives_0"><circle cx="555" cy="194" r="1.8" fill="#d14e5b" opacity=".8"/></g><g class="key-Barbados_0"><circle cx="486" cy="218" r="1.8" fill="#4d824b" opacity=".8"/></g><g class="key-Vanuatu_0"><circle cx="289" cy="316" r="1.8" fill="#a652ba" opacity=".8"/></g><g class="key-Samoa_0"><circle cx="394" cy="258" r="1.79" fill="#a652ba" opacity=".8"/></g><g class="key-Saint-Lucia_0"><circle cx="447" cy="217" r="1.79" fill="#4d824b" opacity=".8"/></g><g class="key-Sao-Tome-and-Principe_0"><circle cx="360" cy="262" r="1.79" fill="#5675c1" opacity=".8"/></g><g class="key-Saint-Vincent-and-the-Grenadines_0"><circle cx="475" cy="263" r="1.79" fill="#4d824b" opacity=".8"/></g><g class="key-Grenada_0"><circle cx="451" cy="264" r="1.79" fill="#4d824b" opacity=".8"/></g><g class="key-Tonga_0"><circle cx="349" cy="251" r="1.79" fill="#a652ba" opacity=".8"/></g><g class="key-Kiribati_0"><circle cx="310" cy="324" r="1.79" fill="#a652ba" opacity=".8"/></g><g class="key-Antigua-and-Barbuda_0"><circle cx="504" cy="215" r="1.79" fill="#4d824b" opacity=".8"/></g><g class="key-Andorra_0"><circle cx="633" cy="137" r="1.79" fill="#ffd336" opacity=".8"/></g><g class="key-Seychelles_0"><circle cx="467" cy="271" r="1.79" fill="#5675c1" opacity=".8"/></g><g class="key-Dominica_0"><circle cx="429" cy="267" r="1.79" fill="#4d824b" opacity=".8"/></g><g class="key-Marshall-Islands_0"><circle cx="444" cy="287" r="1.78" fill="#a652ba" opacity=".8"/></g><g class="key-World_0"><circle cx="509" cy="242" r="1.78" fill="#000" opacity=".8"/></g><g class="key-North-America_0"><circle cx="709" cy="148" r="1.78" fill="#000" opacity=".8"/></g><g class="key-South-Asia_0"><circle cx="334" cy="232" r="1.78" fill="#000" opacity=".8"/></g><g class="key-Sub__002dSaharan-Africa_0"><circle cx="319" cy="314" r="1.78" fill="#000" opacity=".8"/></g><g class="key-Timor_0"><circle cx="249" cy="229" r="1.78" fill="#d14e5b" opacity=".8"/></g><g class="key-Yemen_0"><circle cx="320" cy="146" r="1.78" fill="#d14e5b" opacity=".8"/></g><g fill="#666" class="backgroundLabels"><text x="452" y="267.16" font-size="14.3">China</text><text x="348" y="210.71" font-size="14.1">India</text><text x="644.01" y="135.22" font-size="11.77">United States</text><text x="360" y="268.22" font-size="11.6">Indonesia</text><text x="512" y="207.96" font-size="11.49">Brazil</text><text x="273" y="255.24" font-size="11.44">Pakistan</text><text x="234" y="206.76" font-size="11.37">Bangladesh</text><text x="547" y="242.98" font-size="11.35">Russia</text><text x="619" y="162.3" font-size="11.31">Japan</text><text x="496" y="238.49" font-size="11.29">Mexico</text><text x="370" y="279.91" font-size="11.24">Philippines</text><text x="215" y="319.14" font-size="11.21">Ethiopia</text><text x="431" y="196.21" font-size="11.21">Egypt</text><text x="653" y="164.3" font-size="11.2">Germany</text><text x="492" y="146.43" font-size="11.19">Iran</text><text x="488" y="117.46" font-size="11.18">Turkey</text><text x="131" y="287.56" font-size="11.17">Democratic Republic of Congo</text><text x="432" y="210.59" font-size="11.17">Thailand</text><text x="498" y="290.13" font-size="11.12">South Africa</text><text x="280" y="326.18" font-size="11.12">Tanzania</text><text x="580" y="182.19" font-size="11.12">South Korea</text><text x="429" y="244.32" font-size="11.11">Ukraine</text><text x="301" y="300.35" font-size="11.11">Kenya</text><text x="530" y="180.53" font-size="11.09">Poland</text><text x="477" y="132.57" font-size="11.09">Algeria</text><text x="300" y="278.66" font-size="11.08">Afghanistan</text><text x="401" y="148.71" font-size="11.08">Morocco</text><text x="280" y="229.76" font-size="11.08">Nepal</text><text x="488" y="249.83" font-size="11.07">Malaysia</text><text x="635" y="148.08" font-size="11.06">Australia</text><text x="162" y="333.1" font-size="11.05">Madagascar</text><text x="383" y="256.15" font-size="11.05">Syria</text><text x="382" y="219.15" font-size="11.05">Sri Lanka</text><text x="337" y="293.18" font-size="11.05">Angola</text><text x="255" y="299.34" font-size="11.04">Mali</text><text x="240" y="342.36" font-size="11.04">Malawi</text><text x="316" y="361.45" font-size="11.03">Zambia</text><text x="261" y="369.5" font-size="11.03">Zimbabwe</text><text x="223" y="306.55" font-size="11.03">Chad</text><text x="577" y="216.6" font-size="11.03">Cuba</text><text x="546" y="201.66" font-size="11.02">Hungary</text><text x="487" y="226.68" font-size="11.02">Belarus</text><text x="191" y="365.71" font-size="11.02">Burundi</text><text x="582" y="170.77" font-size="11.02">Israel</text><text x="462" y="163.84" font-size="11.02">Libya</text><text x="628" y="197.9" font-size="11.01">Singapore</text><text x="105" y="394.94" font-size="11.01">Central African Republic</text><text x="537" y="230.99" font-size="11.01">Panama</text><text x="380" y="234.03" font-size="11.01">Armenia</text><text x="571" y="120.04" font-size="11.01">Kuwait</text><text x="522" y="165.04" font-size="11.01">Oman</text><text x="425" y="291.04" font-size="11.01">Mongolia</text><text x="352" y="399.08" font-size="11.01">Lesotho</text><text x="478" y="207.08" font-size="11.01">Latvia</text><text x="429" y="356.14" font-size="11">Swaziland</text><text x="373" y="308.16" font-size="11">Djibouti</text><text x="380" y="296.16" font-size="11">Fiji</text><text x="354" y="172.17" font-size="11">Bhutan</text><text x="500" y="265.17" font-size="11">Equatorial Guinea</text><text x="289" y="313.2" font-size="11">Vanuatu</text><text x="349" y="248.21" font-size="11">Tonga</text><text x="249" y="226.22" font-size="11">Timor</text><text x="320" y="143.22" font-size="11">Yemen</text></g></g><g class="ScatterColorLegend clickable" cursor="pointer"><g class="legendMark">,<path fill="#5675c1" d="M735 107.9h6v6h-6z"/>,<text font-size="12.6" x="746" y="115"><tspan x="746" y="114.98">Africa</tspan></text></g><g class="legendMark">,<path fill="#d14e5b" d="M735 125.5h6v6h-6z"/>,<text font-size="12.6" x="746" y="132.6"><tspan x="746" y="132.58">Asia</tspan></text></g><g class="legendMark">,<path fill="#ffd336" d="M735 143.1h6v6h-6z"/>,<text font-size="12.6" x="746" y="150.2"><tspan x="746" y="150.18">Europe</tspan></text></g><g class="legendMark">,<path fill="#4d824b" d="M735 160.7h6v6h-6z"/>,<text font-size="12.6" x="746" y="167.8"><tspan x="746" y="167.78">North America</tspan></text></g><g class="legendMark">,<path fill="#a652ba" d="M735 178.3h6v6h-6z"/>,<text font-size="12.6" x="746" y="185.4"><tspan x="746" y="185.38">Oceania</tspan></text></g><g class="legendMark">,<path fill="#69c487" d="M735 195.9h6v6h-6z"/>,<text font-size="12.6" x="746" y="203"><tspan x="746" y="202.98">South America</tspan></text></g></g></g><g class="SourcesFooter" fill="#777"><g class="clickable" fill="#777"><text font-size="12.6" x="15" y="581.6"><tspan x="15" y="581.58">Source: IHME (2017), World Bank – WDI</tspan></text></g><text font-size="12.6" x="649" y="581.6"><tspan x="649.02" y="581.58"><a target="_blank" href="https://ourworldindata.org" fill="#777">OurWorldInData.org</a> • <a href="http://creativecommons.org/licenses/by-sa/4.0/deed.en_US" target="_blank" fill="#777">CC BY-SA</a></tspan></text></g></g></svg>